<svg width="24" height="22" viewBox="0 0 24 22" fill="none" xmlns="http://www.w3.org/2000/svg">
<path d="M9.24192 12.6149H14.7094C15.1951 12.6149 15.589 13.0088 15.589 13.4943V14.6074H24L22.8643 5.36067H17.7811C17.5406 2.36499 15.0334 0.00891113 11.9755 0.00891113C8.91768 0.00891113 6.4104 2.36499 6.17016 5.36067H1.27536L0 14.6074H8.36256V13.4943C8.36256 13.0088 8.75592 12.6149 9.24192 12.6149ZM11.9755 2.20683C13.8149 2.20683 15.3382 3.58347 15.5705 5.36067H8.38056C8.61336 3.58371 10.1362 2.20683 11.9755 2.20683ZM15.589 15.8729H23.1233V21.0511C23.1233 21.5592 22.7114 21.9708 22.2034 21.9708H1.74792C1.23984 21.9708 0.828 21.5592 0.828 21.0511V15.8729H8.36256V16.4611C8.36256 16.9467 8.75616 17.34 9.24192 17.34H14.7094C15.1951 17.34 15.589 16.9467 15.589 16.4611V15.8729Z" fill="#5BB463"/>
</svg>
