<svg width="24" height="24" viewBox="0 0 24 24" fill="none" xmlns="http://www.w3.org/2000/svg">
<path d="M12.0213 0.483765C5.73328 0.483765 0.621277 5.59576 0.621277 11.8838C0.621277 18.1718 5.73328 23.2838 12.0213 23.2838C18.3093 23.2838 23.4213 18.1718 23.4213 11.8838C23.4213 5.59576 18.3093 0.483765 12.0213 0.483765ZM12.0213 6.79576C13.8933 6.79576 15.4293 8.30777 15.4293 10.2038C15.4293 12.0758 13.9173 13.6118 12.0213 13.6118C10.1493 13.6118 8.61328 12.0998 8.61328 10.2038C8.61328 8.30777 10.1493 6.79576 12.0213 6.79576ZM6.62128 18.4838C6.90928 16.4438 8.63728 14.9318 10.7013 14.9318H13.3173C15.3813 14.9318 17.1093 16.4438 17.3973 18.4838L17.4693 19.0598C15.9333 20.2118 14.0613 20.9318 11.9973 20.9318C9.93328 20.9318 8.06128 20.2118 6.52528 19.0598L6.62128 18.4838Z" fill="#FF3859"/>
</svg>
