<svg width="22" height="22" viewBox="0 0 22 22" fill="none" xmlns="http://www.w3.org/2000/svg">
<path d="M14.09 0.151365C14.0596 0.130365 14.0247 0.11499 13.985 0.11499H8.015C7.97525 0.11499 7.94037 0.130365 7.91 0.151365C7.33025 0.352365 4.30737 1.42524 3.5 2.20637C2.15337 3.50912 0.125 8.89861 0.125 8.89861L3.40625 11.4081L5.28125 7.95737V21.865H16.7188V7.95774L18.5938 11.4085L21.875 8.89861C21.875 8.89861 19.8466 3.50912 18.5 2.20637C17.6926 1.42524 14.6698 0.352365 14.09 0.151365ZM11.5212 2.05749C11.492 2.06312 11.4627 2.06724 11.4331 2.07212C11.3806 2.08074 11.3285 2.08937 11.2749 2.09499C11.1841 2.10399 11.093 2.10999 11 2.10999C10.907 2.10999 10.8159 2.10362 10.7251 2.09462C10.6715 2.08899 10.6194 2.08037 10.5669 2.07174C10.5372 2.06687 10.508 2.06274 10.4788 2.05712C9.35338 1.83362 8.48675 1.31987 8.26062 0.86499H13.7394C13.5133 1.31987 12.6466 1.83362 11.5212 2.05749Z" fill="#3C4049"/>
</svg>
