<svg width="22" height="22" viewBox="0 0 22 22" fill="none" xmlns="http://www.w3.org/2000/svg">
<path d="M11 0.0200195C4.94554 0.0200195 0.0200195 4.94554 0.0200195 11C0.0200195 17.0545 4.94554 21.98 11 21.98C17.0545 21.98 21.98 17.0545 21.98 11C21.98 4.94554 17.0545 0.0200195 11 0.0200195ZM12.1292 17.1332H9.6829V14.8501H12.1292V17.1332ZM13.7183 10.941C12.9963 11.4783 12.2247 11.9149 12.0738 12.9044V13.5428H9.80842V12.7878C9.90874 11.3271 10.5968 10.6731 11.2681 10.1528C11.9226 9.63298 12.4931 9.2473 12.4931 8.34058C12.4931 7.31674 11.9564 6.83026 11.0672 6.83026C9.8593 6.83026 9.35578 7.82026 9.3385 9.01186H6.87178C6.92242 6.61234 8.4997 4.86706 10.9494 4.86706C14.121 4.86706 15.1283 6.8137 15.1283 8.10514C15.1283 9.7333 14.4402 10.3878 13.7183 10.941Z" fill="#FF3859"/>
</svg>
