<svg width="22" height="22" viewBox="0 0 22 22" fill="none" xmlns="http://www.w3.org/2000/svg">
<path d="M14.5 7.36381V2.88381C14.5 -0.416187 0.5 -0.416187 0.5 2.88381V18.8838C0.5 20.5238 4.02 21.3838 7.5 21.3838C8.97527 21.403 10.447 21.235 11.88 20.8838C12.8356 21.257 13.8616 21.4156 14.8854 21.3484C15.9091 21.2811 16.9055 20.9897 17.8041 20.4946C18.7027 19.9996 19.4815 19.3131 20.0854 18.4837C20.6893 17.6543 21.1035 16.7024 21.2986 15.6952C21.4938 14.688 21.4652 13.6502 21.2149 12.6553C20.9645 11.6603 20.4985 10.7326 19.8499 9.93776C19.2013 9.14289 18.3858 8.50032 17.4613 8.05553C16.5368 7.61073 15.5259 7.37459 14.5 7.36381ZM1.5 2.88381C1.5 2.35381 3.78 1.38381 7.5 1.38381C11.22 1.38381 13.5 2.38381 13.5 2.88381C13.5 3.38381 11.22 4.38381 7.5 4.38381C3.78 4.38381 1.5 3.39381 1.5 2.88381ZM14.5 20.3838C13.4137 20.3867 12.3477 20.089 11.42 19.5238L11.27 19.4338C11.0577 19.3001 10.8539 19.1531 10.66 18.9938L10.54 18.8838C10.3897 18.7511 10.2462 18.6109 10.11 18.4638L9.95 18.2938C9.79173 18.1096 9.64479 17.9159 9.51 17.7138L9.43 17.5838C9.31709 17.4061 9.21361 17.2225 9.12 17.0338L9 16.8338C8.89509 16.6031 8.80491 16.3659 8.73 16.1238V16.0538C8.66313 15.8272 8.6097 15.5968 8.57 15.3638V15.1738C8.53262 14.9121 8.51257 14.6482 8.51 14.3838C8.51 14.1838 8.51 13.9838 8.51 13.7938C8.51 13.6038 8.51 13.5638 8.56 13.4438C8.61 13.3238 8.56 13.3038 8.56 13.2238C8.56 13.1438 8.63 12.9138 8.67 12.7638V12.6838C9.01542 11.5108 9.711 10.4713 10.6636 9.70463C11.6162 8.93791 12.7803 8.48056 14 8.39381H14.46C15.2479 8.39381 16.0281 8.54901 16.7561 8.85054C17.4841 9.15207 18.1455 9.59402 18.7026 10.1512C19.2598 10.7083 19.7017 11.3698 20.0033 12.0977C20.3048 12.8257 20.46 13.6059 20.46 14.3938C20.46 15.1817 20.3048 15.962 20.0033 16.6899C19.7017 17.4179 19.2598 18.0793 18.7026 18.6365C18.1455 19.1936 17.4841 19.6356 16.7561 19.9371C16.0281 20.2386 15.2479 20.3938 14.46 20.3938L14.5 20.3838Z" fill="#FF3859"/>
</svg>
