<svg width="168" height="480" viewBox="0 0 168 480" fill="none" xmlns="http://www.w3.org/2000/svg">
<path d="M91.24 42.78H91.19H90.07L86.07 42.85H85.47L80.9 42.93H79.57H78.27H78.17L77.99 42.99L77.55 43.18L76.99 43.42L74.65 44.48L74.3 44.64L73.84 44.86L73.6 44.97L73.25 45.13L70.87 42.72L63.96 42.48H63.33C63.45 43.02 65.16 48.79 65.16 48.79L67.73 55.28L72.03 62H82.86L90.57 52.89L90.64 52.82L91.41 51.92L91.46 51.86V51.67L91.24 42.78ZM80.12 48.92C80.43 48.99 84.55 50.17 84.55 50.17L69.38 50.09L71 48.92C71 48.92 79.81 48.86 80.12 48.92ZM71.44 52.56H80.91C80.91 52.56 78.82 55.05 78.58 54.97C78.34 54.89 72.96 54.97 72.96 54.97L71.44 52.56Z" fill="#C68650"/>
<path d="M68.21 0.600098L74.67 2.4101L82.35 0.600098L97.29 4.54008L84.08 7.84009L72.02 7.17009L68.21 0.600098Z" fill="#3E383E"/>
<path d="M164.1 219.16L164.05 219.59L154.36 218.53L165.49 167.81C165.49 167.81 166.89 189.48 167.26 190.17V190.32C167.45 192.92 164.1 219.16 164.1 219.16Z" fill="#7C4B20"/>
<path d="M159.82 219.13L154.83 245.76L151.34 231.79L145.8 229.21L145.99 228.78L154.36 218.52L159.82 219.13Z" fill="#C38750"/>
<path d="M154.83 245.76L144.52 248.02L142.66 244.42L147.95 243.27L148.44 238.86L142.66 244.42L140.73 240.69L145.8 229.21L151.34 231.79L154.83 245.76Z" fill="#A56933"/>
<path d="M167.11 246.02L162.08 249.96L144.52 248.02L154.83 245.76L167.11 246.02Z" fill="#6F3E2A"/>
<path d="M164.05 219.59L167.11 246.02L154.83 245.76L159.82 219.13L164.05 219.59Z" fill="#A56933"/>
<path d="M141.19 80.6601L129.73 98.1401L109.62 84.4201L124.25 76.1001L124.46 76.1901L141.19 80.6601Z" fill="#F8B517"/>
<path d="M98.24 65.4998C93.29 67.6698 80.32 74.6397 78.91 75.0797C78.84 75.0797 78.8 75.0797 78.79 75.0797C78.53 74.8997 72.31 69.7897 68.74 67.0797L77.92 70.6097L97.02 60.5098V64.6398L98.24 65.4998Z" fill="#996B4A"/>
<path d="M97.06 54.5098V60.5098L77.96 70.6097L68.78 67.0797L69.85 61.5497L71.66 63.7397H82.96L97.06 54.5098Z" fill="#8A562C"/>
<path d="M97.82 44.9998L98.37 44.4098L97.82 44.9998L97.06 54.4998L82.9 63.7198L91.49 51.7198C94.0763 48.1303 96.291 44.2872 98.1 40.2498C98.25 39.8698 97.82 44.8298 97.82 44.9998Z" fill="#6A3F26"/>
<path d="M91.43 51.8L82.9 63.73H71.6L69.79 61.54L67.51 55.64L65.16 49.06L62.62 42.48L63.92 42.55L65.76 48.9L68.34 55.39L72.02 62.11H82.85L91.43 51.8Z" fill="#9C6636"/>
<path d="M102.81 28.4902L104.95 38.4402L97.8201 45.0002C97.8201 44.8202 98.2501 39.8602 98.1001 40.2102C99.5735 36.4467 100.548 32.5066 101 28.4902H102.81Z" fill="#A16938"/>
<path d="M102.42 13.6501L101.25 28.3901L92.3 24.1301L92.9001 14.1301L88.5601 14.8401L76.9301 18.2901L64.3 13.7101L63.0601 24.9101L63.4701 9.23006C63.4701 9.23006 74.4001 11.6301 74.6501 11.6301C74.9001 11.6301 91.7301 10.0501 92.1001 9.93005C92.4701 9.81005 97.4301 7.84006 97.7101 7.56006L102.42 13.6501Z" fill="#22201F"/>
<path d="M88.5601 14.8702L86.0001 23.6802C86.0001 23.6802 74.8701 28.8502 74.6901 28.9802C74.5101 29.1102 66.4701 24.6602 66.1001 24.5402C65.7301 24.4202 64.3 13.7402 64.3 13.7402L76.4301 18.1402L88.5601 14.8702Z" fill="#C68650"/>
<path d="M101.26 28.4899L97.46 30.5099L92.53 31.9999L89.77 28.6299L87.46 25.8199L92.3 24.1299L101.25 28.3899H101.23L101.26 28.4899Z" fill="#EE4023"/>
<path d="M97.78 30.3299C97.78 30.3299 93.09 39.2099 91.68 41.9699L91.43 42.4399L91.27 42.7299V42.7799L78.27 42.9999C77.98 42.9999 73.27 45.2199 73.27 45.2199L70.9 42.8099L64.36 42.5499L62.67 42.4799L64.62 38.0899L71.49 39.8099L72.86 32.9999L63.66 28.8099L62.84 25.2999L63.11 24.9399L74.42 31.1599L87.65 25.7799L89.85 28.4699L76.48 33.3599L77.64 39.8099C77.92 39.8099 90.03 39.3199 90.23 39.2499C90.43 39.1799 92.61 31.8399 92.61 31.8399L97.78 30.3299Z" fill="#EE4023"/>
<path d="M72.81 33.0001L71.44 39.8101L70.9 33.3101L63.61 28.8101L72.81 33.0001Z" fill="#EE4023"/>
<path d="M64.56 38.09L62.62 42.47L60.36 33.54V28.4901L62.79 25.29L63.61 28.81L61.86 32.29L63.46 37.81L64.56 38.09Z" fill="#EE4023"/>
<path d="M89.7999 28.4702L79.6199 33.1302L77.5799 39.8102L76.4299 33.3502L89.7999 28.4702Z" fill="#EE4023"/>
<path d="M101.26 28.4902C101.02 28.8402 100.74 34.4902 98.3399 40.2002L98.2299 40.4602C96.0799 45.5202 92.1099 50.5402 91.5599 51.6902C91.5599 51.6902 91.5099 51.8402 91.4899 51.8802C91.4713 51.9165 91.4438 51.9475 91.4099 51.9702L91.1899 42.7602V42.7102C91.1899 42.6602 91.2799 42.5602 91.3499 42.4202L91.5999 41.9502C93.0799 39.2002 97.7 30.3102 97.7 30.3102L100.88 28.5702L101.17 28.4702L101.26 28.4902Z" fill="#EE4023"/>
<path d="M123.47 103.9L117.33 118.11C117.33 118.11 102.78 126.61 102.43 126.97C102.08 127.33 74.9999 121.55 74.9999 121.55L76.7899 98.6601L84.9299 82.8501L76.8799 87.7401C76.8799 87.7401 69.5099 83.9501 68.8799 83.3001L74.3599 99.6901L70.7099 122L47.45 128.3L34.6899 119.49L46.7799 134.81L63.2299 128.81L49.3199 141.86L53.5399 178.22C53.5399 178.22 61.2599 196.96 61.7199 197.22C62.1799 197.48 86.5099 197.22 86.5099 197.22L103.8 171.97L114.12 166.41C114.12 166.29 114.12 166.23 114.12 166.23L114.4 165.47V165.42L126.76 124.97L123.47 103.9ZM92.4099 154.35L92.5499 156L94.5499 180.65L91.3699 185.36H91.0999L73.3799 187.48V130.27L95.9999 140.94L92.4099 154.35ZM79.9999 128.92C79.9999 128.92 104.62 133.48 105.29 133.31C105.96 133.14 125.76 117.4 126.38 116.91L107.3 140.91L79.9999 128.92Z" fill="#EE4023"/>
<path d="M126.37 116.91L107.29 140.91L79.99 128.91C79.99 128.91 104.61 133.47 105.28 133.3C105.95 133.13 125.75 117.4 126.37 116.91Z" fill="#7C4B20"/>
<path d="M74.39 99.6899L70.7 122.02L47.44 128.32L34.69 119.51L33.85 103.07L48.95 84.4199L74.39 99.6899Z" fill="#F8B517"/>
<path d="M49 84.4202L31 99.6902L26.59 94.4202L33.3 79.2701L44.9 78.4001L45.43 78.1602C46.69 80.1002 49 84.4202 49 84.4202Z" fill="#F8B517"/>
<path d="M25.3201 119.05L25.3701 118.9L26.61 94.4199L31.0201 99.6899L34.6901 119.51L25.3201 119.05Z" fill="#EE4023"/>
<path d="M52.7801 201.28L65.1001 226.34L64.0001 224.55L63.5301 223.81L63.2701 223.41L62.7101 222.52L62.0901 221.52L61.7601 221L60.7101 219.35L59.58 217.57L58.7901 216.32L57.9801 215.05L57.5701 214.4L56.7701 213.14L55.4301 211.04L54.6501 209.8L53.83 208.5C50.17 202.72 47.0301 197.69 46.9701 197.44L50.3701 176.83C50.3701 176.83 44.1701 138.63 44.3701 135.16C43.4701 137.59 34.7401 157.69 34.0201 159.11L18.5601 151.29L32.6701 138.92L34.7201 119.5L46.8101 134.82L63.2601 128.82L49.3501 141.87L53.5701 178.23L52.7801 201.28Z" fill="#7C4B20"/>
<path d="M18.53 151.31L17.32 178.8L6.92999 213.24L0.890015 209.8L12.13 163.5L18.53 151.31Z" fill="#F8B517"/>
<path d="M33.9399 159.23L32.2399 172.93L12.67 213.5L6.92993 213.24L17.3199 178.8L33.9399 159.23Z" fill="#7C4B20"/>
<path d="M11.67 228.69L3.70996 241.75L0.459961 227.88L0.889984 209.8L6.92996 213.24L11.67 228.69Z" fill="#A86A32"/>
<path d="M19.3199 225.39L11.67 228.69L6.92993 213.24L12.67 213.5L19.2 225.05L19.3199 225.39Z" fill="#C58852"/>
<path d="M22.68 235.29L20.07 237.9L11.67 228.69L19.32 225.39L22.68 235.29Z" fill="#A16B31"/>
<path d="M20.07 237.9L17.96 241.88L17.24 243.25L3.73996 241.82L3.70996 241.75L11.67 228.69L20.07 237.9Z" fill="#6E3D2F"/>
<path d="M118.7 190.92L96 211.59L86.27 226.36C85.77 225.69 107.8 194.02 107.27 193.52C106.74 193.02 103.78 172.07 103.78 172.07L114.1 166.51C114.33 168.63 118.56 189.57 118.56 190.4C118.595 190.576 118.642 190.75 118.7 190.92V190.92Z" fill="#7C4B20"/>
<path d="M65.1001 226.36L55.4801 282.06L40.3101 265.16L46.9201 197.47C47.0601 198.06 64.5401 225.47 65.0901 226.34L65.1001 226.36Z" fill="#F8B517"/>
<path d="M131.36 247.86L134.71 304.38C134.71 304.38 125.58 315.45 122.14 320.38C124.64 314.8 129.83 300.83 129.83 300.57C129.83 300.31 117.05 283.57 115.65 280.09C115.74 279.68 115.74 279.46 115.65 279.48C115.56 279.5 115.53 279.72 115.65 280.09C114.65 284.23 103.59 308.24 102.65 310.18L102.59 310.31C95.4 285.74 85.68 253 85.68 253L80.42 289.4C80.42 289.4 75.16 314.88 75.11 315.4C73.7097 316.878 72.1071 318.151 70.35 319.18C65.78 322.06 60.27 325.54 59.83 325.83C59.06 326.34 70.02 304.94 70.02 304.94L55.48 282.08L65.11 226.38C65.11 226.38 86.27 227.04 86.27 226.38L115.64 278.16L131.36 247.86Z" fill="#7C4B20"/>
<path d="M55.4801 282.06L49.7401 314.64L40.3101 265.16L55.4801 282.06Z" fill="#7C4B20"/>
<path d="M73.4 337.73L61.61 352.05L46 327.71L49.22 316.3L49.48 315.4L49.7 314.64L55.44 282.06L70 304.92C70 304.92 59 326.32 59.81 325.81L75.09 315.38C75.33 314.73 73.4 337.73 73.4 337.73Z" fill="#EE4023"/>
<path d="M79.72 374.55L61.61 352.04L73.4 337.73L79.72 374.55Z" fill="#F4831F"/>
<path d="M79.72 374.55L63.44 444.51L61.61 352.04L79.72 374.55Z" fill="#F4831F"/>
<path d="M52 419.32C52 419.32 49.77 358.32 49.55 357.65C49.33 356.98 46 328.37 46 327.71L61.57 352.05L63.41 444.52L52 419.32Z" fill="#7C4B20"/>
<path d="M64.32 467.62L27.49 469.36C27.49 469.36 18.55 472.36 17.68 472.19C16.81 472.02 2.42004 469.8 2.42004 469.8L3.29004 464.35L22.35 465.17L39.92 465.93L56.71 462.23C56.71 462.23 63.87 460.39 64.09 460.45C64.22 464.45 64.32 467.62 64.32 467.62Z" fill="#7C4B20"/>
<path d="M64.09 460.45C63.87 460.39 56.71 462.23 56.71 462.23L48.29 441L52 419.1L63.43 444.3C63.56 444.3 63.88 453.6 64.09 460.45Z" fill="#EE4023"/>
<path d="M56.7 462.23L39.92 466.14L22.35 465.38L12.02 460.45L38.31 450.06L56.7 462.23Z" fill="#F4831F"/>
<path d="M22.35 465.38L3.29004 464.35L12.01 460.45H12.02L22.35 465.38Z" fill="#EE4023"/>
<path d="M131.36 247.86L115.64 278.16C115.01 277.54 122.09 211.81 122.09 211.81C126.78 227.44 131.36 247.86 131.36 247.86Z" fill="#EE4023"/>
<path d="M134.71 304.38C134.71 304.38 133.82 305.46 132.49 307.1L131.68 308.1C131.07 308.85 130.41 309.67 129.68 310.54C129.42 310.86 129.15 311.19 128.89 311.54C128.63 311.89 128.37 312.18 128.12 312.54L127.12 313.76C126.22 314.9 125.33 316.05 124.51 317.11L123.7 318.18C123.672 318.228 123.639 318.271 123.6 318.31C123.2 318.84 122.84 319.31 122.5 319.8L122.16 320.28C122.127 320.318 122.097 320.358 122.07 320.4L122.13 320.27C122.6 319.21 123.13 317.86 123.77 316.38L124.33 314.99L124.39 314.85C124.79 313.85 125.2 312.85 125.6 311.75C125.73 311.43 125.85 311.12 125.97 310.81C126.27 310.03 126.57 309.26 126.85 308.5C127.13 307.74 127.35 307.19 127.58 306.58C127.81 305.97 127.95 305.58 128.11 305.16C128.27 304.74 128.38 304.46 128.5 304.16C128.62 303.86 128.7 303.6 128.8 303.34C129.39 301.74 129.8 300.69 129.8 300.62C129.8 300.39 117.02 283.62 115.62 280.14C115.62 280.22 115.62 280.31 115.55 280.4C115.537 280.464 115.52 280.528 115.5 280.59C115.5 280.67 115.5 280.76 115.42 280.85C115.34 280.94 115.3 281.23 115.22 281.45L115.1 281.79C115.1 281.91 115.01 282.03 114.97 282.16C114.93 282.29 114.87 282.41 114.83 282.54C114.79 282.67 114.72 282.81 114.67 282.95L114.38 283.71L114.26 283.99C114.21 284.13 114.15 284.28 114.09 284.42C113.85 285.03 113.59 285.67 113.31 286.35C113.24 286.52 113.17 286.69 113.09 286.86C113.01 287.03 112.98 287.12 112.92 287.26C112.86 287.4 112.76 287.65 112.67 287.85C112.29 288.74 111.9 289.68 111.48 290.63C111.35 290.95 111.21 291.27 111.07 291.63C110.93 291.95 110.79 292.28 110.64 292.63L109.33 295.63L108.57 297.35L107.73 299.22L106.91 301.03L106.2 302.61L105.68 303.75L104.1 307.22L103.76 307.94L103.56 308.38C103.51 308.5 103.45 308.61 103.4 308.72L103.3 308.94C103.16 309.24 103.04 309.49 102.95 309.7L102.82 309.99L102.72 310.2L102.67 310.31L102.61 310.44L117.83 327.67L120.83 349.43L136 334.49L134.71 304.38Z" fill="#EE4023"/>
<path d="M136 421.24L116.44 382.32C116.44 382.32 116.44 381.91 116.34 381.18C116.4 379.92 120.84 357.02 120.84 357.02L110.3 336.64C110.3 336.39 106.9 324.78 102.75 310.44L118 327.67L120.9 349.32L152.14 417.72L156.14 448.44L136 421.24Z" fill="#7C4B20"/>
<path d="M120.87 357C120.87 357 116.43 379.9 116.37 381.16C115.78 374.16 110.3 337.25 110.3 336.66L120.87 357Z" fill="#F4831F"/>
<path d="M152.11 417.72L120.87 349.32L135.97 334.49L146.62 368.17L152.11 417.72Z" fill="#F4831F"/>
<path d="M161.32 460.77L138.37 453.35L136.44 422.08L136.03 421.24L156.06 448.43L161.32 460.77Z" fill="#EE4023"/>
<path d="M165.86 471.42L141.73 471C141.73 471 138.42 461.32 138.42 460.91V453.69L138.37 453.37L161.37 460.8L165.86 471.42Z" fill="#F8B517"/>
<path d="M167.4 475L153.89 479.36H141.89L136.23 472.36L138.41 461.24V460.83C138.41 461.24 141.72 470.92 141.72 470.92L165.85 471.36L167.4 475Z" fill="#7C4B20"/>
<path d="M153.29 154.93C153.29 154.93 147.16 160 143 163.37C142 162.14 136.51 152.55 135 151.15C137.39 152.13 152.21 154.81 153.29 154.93Z" fill="#7C4B20"/>
<path d="M154.36 218.53L144.46 181.4L143.1 163.56L142.96 163.37C147.16 160.02 153.29 154.93 153.29 154.93L154.36 218.53Z" fill="#F4831F"/>
<path d="M165.48 167.81L154.36 218.52L153.29 154.93L165.48 167.81Z" fill="#EE4023"/>
<path d="M105.41 70.3999L84.93 82.8499L76.88 87.7399C76.88 87.7399 69.51 83.9499 68.88 83.2999V83.2099C69.13 83.0399 66.19 76.0399 64 71.6599L66.74 69.0099L67.14 68.6299C67.41 68.3899 67.65 68.16 67.87 67.95C68.31 67.54 68.62 67.2199 68.7 67.1199C72.27 69.8399 78.49 74.9499 78.75 75.1199C78.75 75.1199 78.75 75.1199 78.87 75.1199C80.2 74.5899 92.28 66.6799 96.95 64.6899L98.2 65.5399L105.41 70.3999Z" fill="#7C4B20"/>
<path d="M74.39 99.6902L48.95 84.4202L68.8799 83.2002L68.92 83.3002L74.39 99.6902Z" fill="#F8B517"/>
<path d="M33.85 103.07L34.69 119.51L31.02 99.6899L48.95 84.4199L33.85 103.07Z" fill="#7C4B20"/>
<path d="M32.64 138.94L18.53 151.31L20.44 132.2L25.32 119.05L34.69 119.51L32.64 138.94Z" fill="#F8B517"/>
<path d="M34 159.13L33.95 159.23L17.33 178.8L18.53 151.31L34 159.13Z" fill="#EE4023"/>
<path d="M17.9599 241.88L6.92993 239.45L9.93994 235.81L20.0699 237.9L17.9599 241.88Z" fill="#A16B31"/>
<path d="M109.62 84.4201L76.79 98.6501L84.93 82.8501L109.62 84.4201Z" fill="#F8B517"/>
<path d="M123.47 103.9L117.33 118.11C117.33 118.11 102.78 126.61 102.43 126.97C102.08 127.33 75 121.55 75 121.55L76.79 98.6599L109.62 84.4199L123.47 103.9Z" fill="#F8B517"/>
<path d="M148.44 238.86L147.95 243.27L142.66 244.42L148.44 238.86Z" fill="#6E3C1A"/>
<path d="M92.4 154.35L94.56 180.65L91.38 185.37L73.38 187.51V130.26L95.99 140.94L92.4 154.35Z" fill="#F8B517"/>
<path d="M115.64 278.16L86.27 226.38L96 211.59L118.71 190.92C119.26 193 120.58 201.24 122.1 211.81C122.09 211.81 115 277.54 115.64 278.16Z" fill="#F8B517"/>
<path d="M86.26 226.36C86.26 227 65.09 226.36 65.09 226.36L52.77 201.3L53.54 178.3C53.54 178.3 61.26 197.04 61.72 197.3C62.18 197.56 86.51 197.3 86.51 197.3L103.8 172.05C103.8 172.05 106.8 193 107.29 193.5C107.78 194 85.76 225.69 86.26 226.36Z" fill="#EE4023"/>
<path d="M92.9001 14.16L92.3 24.16L87.6001 25.81L74.3701 31.19L63.0601 24.97L64.3 13.77C64.3 13.77 65.7401 24.45 66.1001 24.57C66.4601 24.69 74.5001 29.13 74.6901 29.01C74.8801 28.89 86.0001 23.71 86.0001 23.71L88.5601 14.9L92.9001 14.16Z" fill="#A46B32"/>
<path d="M84.55 50.1702L82.07 50.7202L70.62 50.4502C70.62 50.4502 69.43 50.0802 69.38 50.0802L71 48.9202C71 48.9202 79.81 48.8602 80.12 48.9202C80.43 48.9802 84.55 50.1702 84.55 50.1702Z" fill="#8F5729"/>
<path d="M80.9099 52.5601C80.9099 52.5601 78.8199 55.0501 78.5799 54.9701C78.3399 54.8901 72.9599 54.9701 72.9599 54.9701L71.4399 52.5601H80.9099Z" fill="#8F5729"/>
<path d="M92.56 31.8402C92.56 31.8402 90.38 39.1802 90.18 39.2502C89.98 39.3202 77.87 39.8102 77.59 39.8102L79.59 33.1302L89.77 28.4702L92.56 31.8402Z" fill="#FFFDFD" stroke="#231F20" stroke-linejoin="round"/>
<path d="M71.44 39.8101L64.56 38.0901L63.46 37.8101L61.86 32.2901L63.61 28.8101L70.9 33.3101L71.44 39.8101Z" fill="#FFFDFD" stroke="#231F20" stroke-linejoin="round"/>
<path d="M77.92 43.0698L90.74 44.3298L91.44 51.9498L91.24 42.7798L78.24 42.9998L77.92 43.0698Z" fill="#6A3F26"/>
<path d="M102.42 13.6498L89.8 12.7198L74.69 15.1098L64.57 12.4498L63.47 9.2598L64.87 6.7198L85.55 9.1098L97.29 4.5498L102.42 13.6498Z" fill="#22201F"/>
<path d="M74.97 28.3498L76.43 25.7998V27.5698L74.97 28.3498Z" fill="#A46A33"/>
<path d="M67.88 67.9999C67.66 68.2099 67.42 68.4399 67.15 68.6799L68.71 67.1499C68.63 67.2199 68.32 67.5399 67.88 67.9999Z" fill="#643090"/>
<path d="M68.89 83.2102L49 84.4202C49 84.4202 47.28 81.1402 46 79.0002C45.81 78.6802 45.63 78.3902 45.47 78.1402L48.85 76.1402L48.98 76.0602V76.1202C52.29 75.7302 59.57 75.1202 59.57 75.1202C61.1506 74.1007 62.6425 72.95 64.03 71.6802C66.2 76.0002 69.14 83.0002 68.89 83.2102Z" fill="#EE4023"/>
<path d="M49 76.0698V78.9998H46L33.34 79.2498L47.29 76.3398L49 76.0698Z" fill="#EE4023"/>
<path d="M92.4 154.35L73.38 150.99L72.12 155.32L92.54 156.01L94.37 154.98L92.4 154.35Z" fill="#EE4023"/>
<path d="M52.78 201.28L65.1 226.34L64 224.55L63.53 223.81L63.27 223.41L62.71 222.52L62.09 221.52L61.76 221L60.71 219.35L59.58 217.57L58.79 216.32L57.98 215.05L57.57 214.4L56.77 213.14L55.43 211.04L54.65 209.8L53.83 208.5C50.17 202.72 47.03 197.69 46.97 197.44L50.37 176.83C50.37 176.83 44.17 138.63 44.37 135.16L34.72 119.5L46.81 134.82L63.26 128.82L49.35 141.87L53.57 178.23L52.78 201.28Z" fill="#7C4B20"/>
<path d="M97.29 4.54987V9.25986L74.59 13.7399L63.47 9.25986L64.87 6.71986C66.24 4.22986 68.15 0.769863 68.21 0.609863C68.21 0.949863 75.32 5.34987 75.32 5.34987L79.15 2.91986L82.35 4.54987H97.29Z" fill="#22201F"/>
<path d="M92.9001 14.16C92.9001 14.16 97.0301 11.93 97.0001 12.08C96.9701 12.23 95.4301 25.47 95.4301 25.47L92.3 24.13L92.9001 14.16Z" fill="#3E383E"/>
<path d="M101.81 30.7202L103.95 38.0902L100.96 41.5202L101.81 30.7202Z" fill="#6A3F26"/>
<path d="M100.96 41.5202L99.11 41.3702L101.81 30.7202L103.4 36.1202L100.96 41.5202Z" fill="#6A3F26"/>
<path d="M76.43 17.5198C76.43 17.3398 66.38 10.0098 66.38 10.0098C66.38 10.0098 68.03 1.35981 68.21 1.60981C68.39 1.85981 74.47 9.06982 74.47 9.06982L76.43 17.5198Z" fill="#3E383E"/>
<path d="M62.62 42.48L70.62 43.68C70.62 43.68 73.34 45.38 73.18 45.22L70.81 42.81L62.62 42.48Z" fill="#6A3F26"/>
<path d="M124.25 76.1001L109.62 84.4201L84.9299 82.8501L105.41 70.3901L106.66 71.2501L124.25 76.1001Z" fill="#EE4023"/>
<path d="M123.46 103.89L123.41 125.11L114.12 166.5L127.4 124.63L123.46 103.89Z" fill="#F4831F"/>
<path d="M70.79 137.6C71.13 138.45 70.11 149.91 70.11 149.91L58.89 150.63L61.26 139.8L70.79 137.6Z" fill="#F8B517"/>
<path d="M102.69 310.14L102.63 310.27C95.4 285.74 85.68 253 85.68 253L80.42 289.4C80.42 289.4 75.16 314.88 75.11 315.4C73.7097 316.878 72.1071 318.151 70.35 319.18L76.56 299L84.69 249.79L77.52 246.45L74.52 237.96L80.99 243.35H88.91C88.91 243.35 90.7 251.66 91.16 252.5C91.62 253.34 101.81 305.64 102.69 310.14Z" fill="#F4831F"/>
<path d="M38.3101 450.06L48.3101 441C48.3101 441 57.3101 463 56.7401 462.45C56.1701 461.9 38.3101 450.06 38.3101 450.06Z" fill="#DC5526"/>
<path d="M164.1 219.16L164.05 219.59L154.36 218.53L167.26 190.17V190.32C167.45 192.92 164.1 219.16 164.1 219.16Z" fill="#F8B517"/>
<path d="M72 62.11C72.12 61.96 73.89 59 73.89 59L79.05 58.73L82.83 62.11L75.62 63.05L72 62.11Z" fill="#9C6636"/>
<path d="M151.88 105.11V105.18L142.22 121.87L127.72 113.33L129.72 98.1402L141.19 80.6602H141.51L151.88 105.11Z" fill="#EE4023"/>
<path d="M135.44 127.05C135.44 127.05 134.24 149.75 134.63 150.91C133.97 150.84 127.18 126.15 127.18 126.15L121.55 105.3L109.92 84.4199L129.76 98.0799L128.09 113.24L142.22 121.87L135.44 127.05Z" fill="#EE4023"/>
<path d="M165.49 167.81L153.29 154.93L142.22 121.87L152 105C151.9 106.06 154.81 120 155 120.65C155.19 121.3 155.63 134.27 155.63 134.27C155.63 134.27 156.31 153.86 156.38 153.2C156.45 152.54 165.49 167.81 165.49 167.81Z" fill="#7C4B20"/>
<path d="M153.29 154.93C152.21 154.81 137.39 152.13 134.96 151.15C134.8 151.01 134.7 150.92 134.64 150.92C134.25 149.76 135.45 127.06 135.45 127.06L142.23 121.88L153.29 154.93Z" fill="#F8B517"/>
<path d="M47.28 76.3298L48.96 76.0698V76.1298H48.83L47.27 76.3198L47.28 76.3298Z" fill="#662F8E"/>
</svg>
