<svg width="192" height="489" viewBox="0 0 192 489" fill="none" xmlns="http://www.w3.org/2000/svg">
<path d="M88.5901 47.3999C89.4942 48.0861 90.1506 49.0479 90.4601 50.1399C90.5679 50.8995 90.4202 51.6734 90.0401 52.3399C89.6553 53.0023 89.1845 53.6109 88.6401 54.1499C85.8701 57.0499 82.2701 59.3999 78.2501 59.8399C77.5158 59.9527 76.766 59.9084 76.0501 59.7099C75.2621 59.431 74.5689 58.9353 74.0501 58.2799C73.6119 57.7615 73.2515 57.1821 72.9801 56.5599C72.8291 56.1864 72.6554 55.8224 72.4601 55.4699C71.7901 54.4199 70.4601 53.8999 69.8501 52.8399C69.3423 51.7311 69.2294 50.4818 69.5301 49.2999C69.5245 49.1563 69.564 49.0146 69.6428 48.8945C69.7217 48.7744 69.8361 48.6819 69.9701 48.6299C72.5371 47.4015 75.3833 46.8737 78.2201 47.0999C81.0408 47.3247 83.8717 47.3948 86.7001 47.3099C87.7001 47.2299 88.7901 47.1399 89.4101 47.8699" fill="#C68651"/>
<path d="M95.4299 43.1699L82.0599 43.3999C81.7599 43.3999 76.8699 45.6599 76.8699 45.6599L74.4199 43.1999L64.4199 42.9399L65.7599 49.4099L68.2399 56.0299L74.6699 62.8799H86.7899L98.6899 52.5999L95.4299 43.1699ZM82.4299 55.5999C82.1799 55.5199 76.6399 55.5999 76.6399 55.5999L74.9999 53.1399H84.7599C84.7599 53.1399 82.6399 55.6799 82.3899 55.5999H82.4299ZM72.9499 50.5999L74.6199 49.4099C74.6199 49.4099 83.6999 49.3499 84.0099 49.4099L88.5799 50.6899L72.9499 50.5999Z" fill="#E4B17B"/>
<path d="M71.54 0.179932L78.2 2.02994L86.11 0.179932L101.51 4.19994L87.89 7.55994L75.47 6.87994L71.54 0.179932Z" fill="#3E383E"/>
<path d="M189 216.11V216.56H173.9L186 162C186 162 191.27 185.19 191.72 185.85V186C192.26 188.57 189 216.11 189 216.11Z" fill="#3A3B44"/>
<path d="M183.63 216.56L178.44 244.11L173.29 230.33L167.32 228.35L167.46 227.89L173.88 216.56H183.63Z" fill="#E4B37C"/>
<path d="M178.44 244.11L168.13 247.55L165.82 244.11L171.11 242.36V237.83L165.82 244.11L163.43 240.55L167.32 228.35L173.29 230.33L178.44 244.11Z" fill="#D1925E"/>
<path d="M191.04 243L186.33 247.55H168.13L178.44 244.11L191.04 243Z" fill="#9E6F5A"/>
<path d="M188.98 216.56L191.04 243L178.44 244.11L183.63 216.56H188.98Z" fill="#D1925E"/>
<path d="M167.58 99.3701V99.4401L151.52 120L136.08 112.84V97.2601L154.57 79.6001L154.9 79.6501L167.58 99.3701Z" fill="#689DD4"/>
<path d="M154.56 79.6001L136.08 97.2601L114.21 85.6301L129.29 75.55L129.51 75.65L154.56 79.6001Z" fill="#7DD1F0"/>
<path d="M104.63 66.19C99.6301 68.33 82.7501 76.34 82.4401 76.12C82.1301 75.9 74.7501 70.55 71.0701 67.77L81.55 71.56L105.27 61.27L105.33 65.12L104.63 66.19Z" fill="#D0A17F"/>
<path d="M104.66 55.1299L105.27 61.2599L81.55 71.5499L71.0701 67.7599L72.2301 62.2999L74.0901 64.5299H86.7001L104.66 55.1299Z" fill="#BB865E"/>
<path d="M103.14 45.4501L103.71 44.8501L103.14 45.4501L104.66 55.1301L86.6599 64.5301L98.4999 52.6001C99.4214 48.4965 100.7 44.4812 102.32 40.6001C102.49 40.2101 103.14 45.2601 103.14 45.4501Z" fill="#966C54"/>
<path d="M98.5201 52.5999L86.6801 64.5299H74.0701L72.2101 62.2999L67.86 56.2999L65.61 49.5999L63.55 42.8899L64.8901 42.9599L66.2301 49.4299L68.7201 56.0499L74.5101 62.8999H86.6201L98.5201 52.5999Z" fill="#C7915D"/>
<path d="M109.4 28.6101V38.7501L103.14 45.4501C103.14 45.2601 102.49 40.2101 102.34 40.5601C104.89 34.5601 107.47 28.6101 107.56 28.6101H109.4Z" fill="#D0A17F"/>
<path d="M107.82 13.48L107.68 28.48L97.39 24.1301L97.9999 14L93.5299 14.72L80.5299 18.2401L67.5299 13.5701L65.4299 25L66.6499 9.00005C66.6499 9.00005 77.92 11.45 78.17 11.45C78.42 11.45 95.77 9.84005 96.17 9.71005C96.57 9.58005 101.66 7.58005 101.95 7.30005L107.82 13.48Z" fill="#22201F"/>
<path d="M93.54 14.7201L90.9 23.7201C90.9 23.7201 78.41 28.9901 78.22 29.1301C78.03 29.2701 69.75 24.7201 69.36 24.6001C68.97 24.4801 67.51 13.6001 67.51 13.6001L80.01 18.0901L93.54 14.7201Z" fill="#E4B17B"/>
<path d="M107.8 28.5999L101.69 30.6699L96.6099 32.1899L93.7599 28.7499L91.3799 25.8899L97.3899 24.1599L107.63 28.5099L107.8 28.5999Z" fill="#689DD4"/>
<path d="M102 30.4799C102 30.4799 97.17 39.5299 95.71 42.3499L95.46 42.8299C95.37 42.9699 95.32 43.0699 95.29 43.1199L81.91 43.3499C81.62 43.3499 76.73 45.6099 76.73 45.6099L74.28 43.1499L65.28 42.8899L63.54 42.8199L67.78 38.3399L74.86 40.0999L76.27 33.0999L66.79 28.8299L65.14 25.2499L65.42 24.8899L77.88 31.2299L91.51 25.7399L93.78 28.4799L80 33.4799L81.19 40.0599C81.48 40.0599 93.96 39.5599 94.19 39.4899C94.42 39.4199 96.64 31.9299 96.64 31.9299L102 30.4799Z" fill="#7DD1F0"/>
<path d="M76.2801 33.1999L74.8701 40.1499L74.3201 33.5299L66.8 28.9299L76.2801 33.1999Z" fill="#689DD4"/>
<path d="M67.7899 38.3901L63.5499 42.8701L62.6499 33.7601V28.6001L65.1499 25.3501L66.7999 28.9301L64.9999 32.4901L66.6499 38.1201L67.7899 38.3901Z" fill="#689DD4"/>
<path d="M93.79 28.5901L83.3 33.3401L81.2 40.1501L80.01 33.5701L93.79 28.5901Z" fill="#689DD4"/>
<path d="M107.8 28.6101C107.56 28.9601 105.06 34.7401 102.59 40.5401L102.48 40.8101C100.26 45.9701 99.21 51.1701 98.64 52.3501C98.64 52.3501 98.64 52.5001 98.58 52.5401C98.5559 52.5755 98.5254 52.606 98.49 52.6301L95.22 43.1501V43.1001L95.39 42.8101L95.64 42.3301C97.17 39.5301 101.93 30.4601 101.93 30.4601L107.41 28.6901L107.71 28.5901L107.8 28.6101Z" fill="#4B5680"/>
<path d="M98.6899 183.74L95.4099 188.55L76.8799 190.74V132.37L100.16 143.25L96.4799 156.92L98.6899 183.74ZM83.6899 130.99C83.6899 130.99 109.06 135.64 109.75 135.47C110.44 135.3 130.84 119.25 131.48 118.75L111.82 143.25L83.6899 130.99ZM138.99 133.84L128.5 105.49L122.16 120C122.16 120 107.16 128.67 106.8 129C106.44 129.33 78.2299 125 78.2299 125L79.6299 99.13L88.7699 84L80.4799 89C80.4799 89 72.8799 85.14 72.2699 84.47L78.0699 99.93L73.9999 125.22L50.1899 132.88L33.1899 121.77L49.4599 137L66.4599 130.91L52.1299 144.22L54.4999 179.33C54.4999 179.33 64.4299 200.39 64.8999 200.7C65.3699 201.01 90.45 200.7 90.45 200.7L108.22 175L126.22 167.68C126.22 167.56 126.22 167.5 126.22 167.5L126.75 166.08L138.99 133.84Z" fill="#689DD4"/>
<path d="M131.47 118.75L111.81 143.25L83.6799 131C83.6799 131 109.05 135.65 109.74 135.48C110.43 135.31 130.83 119.25 131.47 118.75Z" fill="#6767AE"/>
<path d="M78.0699 99.9399L73.9599 125.22L50.1399 132.88L33.1299 121.77L36.1299 104.65L50.0999 85.6299L78.0699 99.9399Z" fill="#7DD1F0"/>
<path d="M50.1 85.63L30.85 101.19L16.71 94.82L30.85 79.72L47.54 79.49L48.08 79.24C49.36 81.22 50.1 85.63 50.1 85.63Z" fill="#7DD1F0"/>
<path d="M19.38 121L19.43 120.86L16.71 94.8201L30.86 101.19L33.13 121.77L19.38 121Z" fill="#689DD4"/>
<path d="M53.12 204.77L65.81 230.31L64.64 228.49L64.15 227.73L63.89 227.33L63.31 226.42L62.67 225.42L62.33 224.89L61.25 223.21L60.08 221.39L59.27 220.12L58.43 218.82L58.01 218.16L57.19 216.88L55.81 214.74L55 213.47L54.16 212.15C50.39 206.25 40.52 201.43 40.46 201.15L49.54 178.59C49.54 178.59 47.26 144.37 47.48 140.83C47.19 141.6 46.16 143.76 44.85 146.43C44.76 147 43.35 155.12 43.2 155.43C43.05 155.74 37.78 162.03 37.78 162.03L14.78 151.7L38 143.25L33.09 121.77L49.46 137L66.46 130.91L52.13 144.22L54.5 179.33L53.12 204.77Z" fill="#3A3B44"/>
<path d="M14.8 151.74L19.11 181.85L8.39005 216.96L0.790039 213.45L6.63004 162.81L14.8 151.74Z" fill="#7DD1F0"/>
<path d="M37.7201 162.17L37.0001 175.86L15.2301 217.22L8.39014 216.96L19.1101 181.85L37.7201 162.17Z" fill="#3A3B44"/>
<path d="M13.2701 232.72L3.72012 246.02L0.370117 231.88L0.790131 213.45L8.39014 216.96L13.2701 232.72Z" fill="#D2935C"/>
<path d="M22.0601 229.36L13.2701 232.72L8.39014 216.96L15.2301 217.22L21.9401 229L22.0601 229.36Z" fill="#E5B47E"/>
<path d="M25.53 239.44L21.94 242.11L13.27 232.72L22.06 229.36L25.53 239.44Z" fill="#CF975D"/>
<path d="M21.94 242.11L19.77 246.16L19.01 247.55L3.73996 246.11L3.71997 246.02L13.27 232.72L21.94 242.11Z" fill="#9E6F5A"/>
<path d="M128.78 191.8L100.16 215.28L90.1599 230.33C89.6399 229.65 112.34 197.33 111.83 196.85C111.32 196.37 108.23 174.99 108.23 174.99L126.23 167.67C126.47 169.84 128.68 190.42 128.68 191.27C128.65 191.31 128.7 191.49 128.78 191.8Z" fill="#6767AE"/>
<path d="M65.8201 230.33L58.4201 287.12L29.5701 266.55L40.4701 201.19C40.6101 201.79 65.2401 229.44 65.8101 230.31L65.8201 230.33Z" fill="#7DD1F0"/>
<path d="M145.76 249.51L140.07 309.88C140.07 309.88 130.66 321.16 127.07 326.15C129.65 320.46 135 306.22 135 305.95C135 305.68 121.83 288.57 120.39 285.07C120.48 284.65 120.48 284.43 120.34 284.45C120.2 284.47 120.22 284.69 120.39 285.07C119.39 289.29 102.21 315.9 101.28 317.88L101.22 318.01C93.7701 293.01 89.5001 257.44 89.5001 257.44L86.1301 294.54C86.1301 294.54 80.1301 320.43 80.0601 320.99L73.7101 324.94L62.8601 331.72C62.0701 332.24 73.3701 310.43 73.3701 310.43L58.3701 287.12L65.7701 230.33C65.7701 230.33 90.1001 231.01 90.1001 230.33L120.37 283.12L145.76 249.51Z" fill="#3A3B44"/>
<path d="M58.4201 287.12L42.6801 321.21L29.5701 266.55L58.4201 287.12Z" fill="#3A3B44"/>
<path d="M79.66 343.88L64.74 358.48L40 334.54L42.18 322.91L42.45 321.99L42.68 321.21L58.42 287.12L73.42 310.43C73.42 310.43 62.13 332.24 62.92 331.72C63.71 331.2 80.1 321 80.1 321C80.33 320.33 79.66 343.88 79.66 343.88Z" fill="#689DD4"/>
<path d="M86.17 381.42L64.74 358.48L79.66 343.88L86.17 381.42Z" fill="#6767AE"/>
<path d="M67.3 452.27C67.3 452.27 67.52 450.73 67.9 448.13L66.64 452.75L64.74 358.48L83 401.93L67.3 452.27Z" fill="#8193CA"/>
<path d="M48.94 425.56C48.94 425.56 49.12 364.76 48.89 364.09C48.66 363.42 40 335.21 40 334.54L64.74 358.48L66.63 452.75L48.94 425.56Z" fill="#3A3B44"/>
<path d="M67.53 476.3L29.58 478.07C29.58 478.07 20.36 481.18 19.47 480.96C18.58 480.74 3.73999 478.52 3.73999 478.52L4.64001 472.97L24.28 473.8L42.39 474.58L59.69 470.81C59.69 470.81 67.07 468.93 67.29 468.99C67.43 473.07 67.53 476.3 67.53 476.3Z" fill="#40403E"/>
<path d="M67.2899 469C67.0699 468.94 59.6899 470.82 59.6899 470.82L50.9999 449.17L48.9199 425.34L66.6099 452.53C66.7499 452.53 67.0799 462 67.2899 469Z" fill="#689DD4"/>
<path d="M59.6899 470.8L42.3899 474.8L24.2799 474.03L13.6499 468.99L40.7299 458.4L59.6899 470.8Z" fill="#7DD1F0"/>
<path d="M24.2801 474.03L4.64014 472.97L13.6401 468.99H13.6501L24.2801 474.03Z" fill="#6767AE"/>
<path d="M145.76 249.51L120.41 283.15C119.76 282.51 137.5 210.67 137.5 210.67C142.33 226.6 145.76 249.51 145.76 249.51Z" fill="#689DD4"/>
<path d="M140.06 309.88C140.06 309.88 130.66 321.16 127.11 326.15C129.69 320.46 135.04 306.22 135.04 305.95C135.04 305.68 121.87 288.57 120.42 285.07C119.42 289.48 101.26 318.01 101.26 318.01L122.69 333.45L125.8 355.69L143.21 338.76L140.06 309.88Z" fill="#689DD4"/>
<path d="M138.75 429L116.08 388.09C116.08 388.09 116.08 387.67 115.98 386.93C116.04 385.65 125.8 363.53 125.8 363.53L111.68 345C111.68 344.74 106.83 332.95 101.38 318.23L122.82 333.66L125.82 355.72L160.41 424.62L162.1 456.78L138.75 429Z" fill="#3A3B44"/>
<path d="M125.8 363.5C125.8 363.5 116 385.62 116 386.9C115.39 379.8 111.7 345.57 111.7 344.97L125.8 363.5Z" fill="#6767AE"/>
<path d="M160.39 424.59L125.8 355.69L143.21 338.76L157.81 375.42L160.39 424.59Z" fill="#8193CA"/>
<path d="M167.5 469.33L143.84 461.75L139.17 429.86L138.75 429.01L162.08 456.75L167.5 469.33Z" fill="#689DD4"/>
<path d="M172.16 480.17L147.3 479.73C147.3 479.73 143.89 469.86 143.89 469.44V462.08L143.84 461.75L167.5 469.33L172.16 480.17Z" fill="#7DD1F0"/>
<path d="M173.75 483.85L159.83 488.3H147.47L141.64 481.19L143.89 469.86V469.44C143.89 469.86 147.3 479.73 147.3 479.73L172.16 480.17L173.75 483.85Z" fill="#40403E"/>
<path d="M186 162L166.56 152.28L151.53 120L167.58 99.47C167.58 100.56 167.36 114.96 167.58 115.6C167.8 116.24 172 131 172 131C172 131 177.5 149.46 177.5 148.78C177.5 148.1 186 162 186 162Z" fill="#3A3B44"/>
<path d="M166.6 152.23C166.6 152.23 158.45 159.73 154.54 163.59C153.39 162.45 144.47 154.75 142.76 153.5C145.36 154.22 165.48 152.23 166.6 152.23Z" fill="#40403E"/>
<path d="M173.88 216.56L157 184.4L154.73 163.76L154.57 163.59C158.48 159.73 166.63 152.23 166.63 152.23L173.88 216.56Z" fill="#7DD1F0"/>
<path d="M186.04 161.95L173.88 216.56L166.6 152.23L186.04 161.95Z" fill="#689DD4"/>
<path d="M112.56 69.71L88.7701 84L80.4701 89C80.4701 89 72.8801 85.14 72.2701 84.47V84.38C72.5301 84.21 68.9001 76.96 66.6401 72.51C66.8601 72.31 70.9801 67.91 71.0601 67.8C74.7401 70.58 82.1601 75.97 82.4301 76.15C82.7001 76.33 100.26 66.15 105.3 63.99L112.56 69.71Z" fill="#6767AE"/>
<path d="M78.0701 99.9401L50.1001 85.6301L72.2401 84.3901L72.2701 84.4801L78.0701 99.9401Z" fill="#7DD1F0"/>
<path d="M36.1299 104.65L33.1299 121.77L30.8599 101.19L50.0999 85.6299L36.1299 104.65Z" fill="#3A3B44"/>
<path d="M38.0401 143.25L14.8001 151.74L14.5901 133.11L19.3801 121L33.1301 121.77L38.0401 143.25Z" fill="#7DD1F0"/>
<path d="M37.7701 162.07V162.17L19.1601 181.85L14.8501 151.74L37.7701 162.07Z" fill="#689DD4"/>
<path d="M19.77 246.16L7.03003 243.69L11.5 239.97L21.94 242.11" fill="#CF975D"/>
<path d="M114.21 85.63L79.6299 99.12L88.7699 84.03L114.21 85.63Z" fill="#7DD1F0"/>
<path d="M128.48 105.49L124.65 120.76C124.65 120.76 108.86 130.65 108.5 131C108.14 131.35 78.22 125 78.22 125L79.63 99.1301L114.21 85.6401L128.48 105.49Z" fill="#7DD1F0"/>
<path d="M166.6 152.23C165.48 152.23 145.36 154.23 142.76 153.5C142.58 153.36 142.47 153.29 142.41 153.29C141.88 152.16 145.18 125.98 145.18 125.98L151.53 119.98L166.6 152.23Z" fill="#7DD1F0"/>
<path d="M171.11 237.83V242.36L165.82 244.11L171.11 237.83Z" fill="#966445"/>
<path d="M120.41 283.15L90.1499 230.36L100.15 215.31L128.77 191.83C129.33 193.95 133.93 201.47 137.49 210.7C137.5 210.67 119.76 282.51 120.41 283.15Z" fill="#7DD1F0"/>
<path d="M90.1399 230.33C90.1399 230.98 65.8099 230.33 65.8099 230.33L53.1099 204.79L54.4399 179.38C54.4399 179.38 64.3799 200.44 64.8499 200.75C65.3199 201.06 90.3999 200.75 90.3999 200.75L108.21 175C108.21 175 111.29 196.35 111.81 196.86C112.33 197.37 89.6199 229.65 90.1399 230.33Z" fill="#689DD4"/>
<path d="M97.9999 14.0001L97.3799 24.1601L91.5099 25.8401L77.8799 31.3301L65.4299 25.0001L67.5099 13.5801C67.5099 13.5801 68.9899 24.4701 69.3599 24.5801C69.7299 24.6901 78.0199 29.2301 78.2199 29.1101C78.4199 28.9901 90.8999 23.7001 90.8999 23.7001L93.5399 14.7001L97.9999 14.0001Z" fill="#D0965D"/>
<path d="M88.5399 50.71L85.9899 51.27L74.1899 51C74.1899 51 72.9599 50.62 72.9099 50.62L74.5799 49.43C74.5799 49.43 83.6599 49.37 83.9699 49.43L88.5399 50.71Z" fill="#8F5729"/>
<path d="M84.79 53.1399C84.79 53.1399 82.64 55.6799 82.39 55.5999C82.14 55.5199 76.6 55.5999 76.6 55.5999L75 53.1399H84.79Z" fill="#8F5729"/>
<path d="M96.6299 32.0001C96.6299 32.0001 94.3799 39.4801 94.1799 39.5601C93.9799 39.6401 81.4899 40.1301 81.1799 40.1301L83.2799 33.3201L93.7699 28.5601L96.6299 32.0001Z" fill="#FFFDFD" stroke="#231F20" stroke-linejoin="round"/>
<path d="M74.87 40.1499L67.79 38.3899L66.65 38.1199L65 32.4899L66.8 28.9299L74.32 33.5299L74.87 40.1499Z" fill="#FFFDFD" stroke="#231F20" stroke-linejoin="round"/>
<path d="M81.55 43.4799L94.7601 44.7599L98.5201 52.5999L95.2701 43.1699L81.8701 43.3999" fill="#6A3F26"/>
<path d="M107.82 13.4799L94.8199 12.53L78.2199 15L67.7899 12.2899L66.6599 8.99995C66.6599 8.99995 67.2799 7.86996 68.0999 6.40996L89.4099 8.84996L101.51 4.19995L107.82 13.4799Z" fill="#22201F"/>
<path d="M75.6201 27.24C76.3849 27.7028 77.1763 28.1202 77.9901 28.49C77.7764 26.846 77.4793 25.2139 77.1001 23.6C76.7 23.2532 76.335 22.868 76.0101 22.45L75.6201 27.24Z" fill="#A46A33"/>
<path d="M78.51 28.4701L80.01 25.8601V27.6801L78.51 28.4701Z" fill="#A46A33"/>
<path d="M72.2401 84.39L50.1001 85.63C49.3002 83.0836 48.297 80.6056 47.1001 78.22L64.3401 68.73L71.0101 67.73C70.9301 67.84 66.8101 72.24 66.5901 72.44C68.8701 77 72.5001 84.22 72.2401 84.39Z" fill="#689DD4"/>
<path d="M51.1699 76L30.8599 79.7L51.6999 80.06L51.1699 76Z" fill="#3A3B44"/>
<path d="M172 131L166.64 130.36L167.64 115.56C167.81 116.24 172 131 172 131Z" fill="#689DD4"/>
<path d="M65.7799 230.26L40.4999 201.21L40.4399 201.15L49.5199 178.59C49.5199 178.59 44.2499 145.4 44.4599 141.86L33.1099 121.74L49.4599 137L66.4599 130.91L52.1299 144.22L54.4999 179.33L53.1699 204.74L65.7999 230.17C65.7845 230.197 65.7776 230.229 65.7799 230.26Z" fill="#6767AE"/>
<path d="M96.4799 156.92L98.6899 183.74L95.4199 188.55L95.1399 188.58L88.9999 197.28L76.8799 198.21V132.37L100.17 143.25L96.4799 156.92Z" fill="#7DD1F0"/>
<path d="M101.51 4.19994L102.51 8.99994L79.1099 13.5699L66.6599 8.99994C66.6599 8.99994 67.2799 7.86994 68.0999 6.40994C69.5099 3.86994 71.4799 0.339932 71.5399 0.179932C71.5399 0.529932 78.8699 5.00993 78.8699 5.00993L82.8099 2.53993L86.1099 4.19994H101.51Z" fill="#22201F"/>
<path d="M97.9999 14.0001C97.9999 14.0001 102.27 11.7201 102.23 11.8801C102.19 12.0401 99.5799 25.0901 99.5799 25.0901L97.3799 24.1601L97.9999 14.0001Z" fill="#3E383E"/>
<path d="M108.38 30.8799V38.3899L105.3 41.8999L108.38 30.8799Z" fill="#AB8569"/>
<path d="M105.3 41.8999L103.39 41.7399L108.38 30.8799L107.8 36.3899L105.3 41.8999Z" fill="#AB8569"/>
<path d="M79.9999 17.43C79.9999 17.24 69.6499 9.76998 69.6499 9.76998C69.6499 9.76998 71.3399 0.949983 71.5299 1.20998C71.7199 1.46998 77.9799 8.80997 77.9799 8.80997L79.9999 17.43Z" fill="#3E383E"/>
<path d="M63.55 42.8701L74.0701 44.1001C74.0701 44.1001 76.8701 45.8301 76.7101 45.6601L74.2601 43.2001L63.55 42.8701Z" fill="#6A3F26"/>
<path d="M129.29 75.55L114.21 85.63L88.77 84.03L110.94 70.69L105.31 63.96L113.5 67L129.29 75.55Z" fill="#689DD4"/>
<path d="M129.51 134.71C129.33 135.13 116.71 145.05 116.71 145.05L115.82 151.39L129.51 134.71Z" fill="#6767AE"/>
<path d="M128.78 141.89C128.65 142.32 117.78 154.95 117.78 154.95L117.45 160.37L128.78 141.89Z" fill="#6767AE"/>
<path d="M127.04 165.25L126.21 167.68L126.72 166.07L127.04 165.25Z" fill="#A02889"/>
<path d="M75.31 136.58C75.74 137.68 74.47 152.49 74.47 152.49L60.47 153.43L63.42 139.43L75.31 136.58Z" fill="#7DD1F0"/>
<path d="M73.8399 164.47L73.4199 190.15L59.6699 186.32L62.0399 166.81L73.8399 164.47Z" fill="#7DD1F0"/>
<path d="M101.32 317.88L101.26 318.01C93.81 293.01 90.39 262.93 90.39 262.93L86.17 294.54C86.17 294.54 80.17 320.43 80.1 320.99L73.75 324.94L80.14 304.34L88.52 254.17L80.79 251.93L77.31 245.28L83.08 249.36L90.41 249.07C90.41 249.07 94.66 256.07 95.14 256.93C95.62 257.79 100.42 313.29 101.32 317.88Z" fill="#6767AE"/>
<path d="M40.73 458.4L51 449.17C51 449.17 60.23 471.61 59.68 471.03C59.13 470.45 40.73 458.4 40.73 458.4Z" fill="#6767AE"/>
<path d="M189 216.11V216.56H173.9L191.78 185.8V185.95C192.26 188.57 189 216.11 189 216.11Z" fill="#689DD4"/>
<path d="M74.51 62.8799C74.64 62.7399 76.46 59.7199 76.46 59.7199L82.73 59.4399L86.62 62.8799L79.2 63.8799L74.51 62.8799Z" fill="#C7915D"/>
<path d="M140.31 132.37L136.08 147.77L126.21 167.68L127.04 165.25L126.72 166.07L133.77 142.45L134.64 127.74L128.49 105.49L138.94 125.46L140.31 132.37Z" fill="#29272C"/>
<path d="M86.18 381.42L82.98 401.93L64.74 358.48L86.18 381.42Z" fill="#6767AE"/>
<path d="M145.17 126C145.17 126 141.87 152.18 142.4 153.31C141.72 153.31 138.45 124.52 138.45 124.52L125.39 108.78L114.21 85.6499L136.08 97.2799V112.83L151.52 120L145.17 126Z" fill="#3A3B44"/>
<path d="M73.8401 154.46V162.85L61.8201 163.59L66.7501 155.51L73.8401 154.46Z" fill="#7DD1F0"/>
<path d="M104 146.82C104 146.82 100.23 155.6 100.69 156.05C101.15 156.5 106 170.36 106 170.36L107.6 156.05L104 146.82Z" fill="#6767AE"/>
<path d="M96.4801 156.92L76.8801 153.5L75.5701 157.92L96.6201 158.61L98.5001 157.57L96.4801 156.92Z" fill="#689DD4"/>
<path d="M99.5899 171.11C99.9099 171 100.01 174.99 100.01 174.99L75.3999 167.67V163.05C75.3999 163.05 99.2699 171.21 99.5899 171.11Z" fill="#689DD4"/>
</svg>
