<svg width="163" height="516" viewBox="0 0 163 516" fill="none" xmlns="http://www.w3.org/2000/svg">
<path d="M124.18 103L116.5 104.75L114.91 104.67L120.72 90.0602L113.44 51.1702L108.28 66.1702L105.67 68.1702V57.1702L102.21 42.6302L99.67 32.0002L98.34 26.4202L76.63 32.7402L60.53 25.3202L56.53 31.2602C56.53 31.2602 56.53 33.8902 56.53 36.9002C55.9 39.4302 54.24 46.1302 54.24 46.8402C54.24 47.7302 55.37 62.0202 55.74 62.7602C56.11 63.5002 51.13 73.5202 51.13 73.5202L56.77 69.6902L61.43 62.3102L64.09 72.4102L69.4 79.1502L68.83 99.8802L56.52 104.18L55.84 103.95L46.67 101.17L43.84 63.1702L47.47 25.3202L62.47 6.40018L81 0.930176L102.38 7.93017L116.76 32.7102L119.69 53.8502L118.42 56.9102L124.11 86.4402L124.18 103Z" fill="#594422"/>
<path d="M54.2 46L50 61.25L48.92 58.11L47 66L51.83 102.6C51.83 102.6 61.03 95.49 61.68 94.6C62.33 93.71 60 69.93 60 69.93L57.34 54.17L54.2 46Z" fill="#392317"/>
<path d="M53.89 71.6498L54.89 79.7098L53.08 84.2298L51.79 102.56C51.79 102.56 63.01 109.71 63.31 109.61C63.61 109.51 71.31 106.4 71.47 106C71.63 105.6 75.47 95.2598 75.35 93.6598C75.23 92.0598 75.49 78.0798 74.92 77.7398C74.35 77.3998 68.13 71.3898 67.73 71.0798C67.33 70.7698 63.61 62.1598 63.61 62.1598L60.14 60.0498L53.89 71.6498Z" fill="#392317"/>
<path d="M95.9 79.4702L95.69 82.8502L79.56 100.16L79.85 121.6L69.85 126.42L46 117.09C46 117.09 45.68 114.09 46 113.67L55.91 103.97L56.59 104.2L71.32 98.8102L69.47 79.1702L64.16 72.4302L61.5 62.3302V62.0602L59.59 57.4702C59.59 57.4702 59.3 56.4702 58.9 54.9702L61.73 58.1402C61.73 58.1402 74.54 62.1402 75.01 62.1402C75.48 62.1402 79.01 66.1402 79.01 66.1402V72.8802L71.58 71.4902L74.69 76.3402L79.01 77.7302V87.6802H84L95.9 79.4702Z" fill="#AE7136"/>
<path d="M76.63 32.7301L72.86 34.2501L72.52 38.8801L56.55 31.2501L60.53 25.3101L76.63 32.7301Z" fill="#F4831F"/>
<path d="M99.67 31.9902L84.5 38.8902L83.14 39.5101L82.53 34.9202L76.63 32.7301L98.34 26.4102L99.67 31.9902Z" fill="#F4831F"/>
<path d="M102.21 42.6602L95.9 39.5102C95.9 39.5102 82.33 48.2502 81.9 48.5802C81.47 48.9102 84.47 38.8902 84.47 38.8902L99.64 31.9902L102.21 42.6602Z" fill="#EE4023"/>
<path d="M102.21 42.6601L95.9 39.5101C95.9 39.5101 82.33 48.2501 81.9 48.5801C81.47 48.9101 84.46 38.8901 84.46 38.8901L83.11 39.5101L77.81 47.7701L78.61 53.6301L78.41 62.8101L83.11 61.8101L102.33 55.6401L105.64 57.2201L102.21 42.6601ZM79.21 60.5501L80.47 54.9401L82.85 60.5501H79.21ZM102.21 49.9101L93.83 55.6201L83.14 51.0001C83.77 51.0001 96.71 42.1501 96.71 42.1501L102.21 46.6701V49.9101Z" fill="#EE4023"/>
<path d="M75 62.1898C74.54 62.1898 61.72 58.1398 61.72 58.1398L58.85 54.9998C57.9268 51.9049 57.1658 48.764 56.57 45.5898C56.57 44.8898 56.57 40.5898 56.57 36.9598C56.57 33.9598 56.57 31.3198 56.57 31.3198L61.57 41.6098L61.76 42.2498L61.93 42.8498L58 47.3998L65.08 55.6398L65.74 55.2698L75 62.1898Z" fill="#EE4023"/>
<path d="M146.22 196.17L146.43 206.88L138.53 213.57L138.78 198.89V198.75L138.96 187.93V187.62L137.71 183.62L136.01 178.18L119.11 148.82V148.75L118.5 147.68L118.64 147.18L119.84 142.84L121.84 135.44C122.55 135.07 137.57 129.78 137.57 129.78L134.63 140.88L132.69 148.2L132.6 148.54C132.6 148.54 132.6 148.65 132.65 148.75V148.88C132.65 148.93 132.65 148.99 132.65 149.05L132.75 149.45L132.88 149.96C132.88 150.14 132.97 150.33 133.03 150.54C133.11 150.82 133.18 151.12 133.26 151.45C133.26 151.5 133.26 151.56 133.26 151.61C133.33 151.87 133.4 152.14 133.47 152.43C133.54 152.72 133.62 153.02 133.7 153.33C133.78 153.64 133.79 153.7 133.84 153.9C134 154.51 134.17 155.17 134.34 155.85C134.46 156.3 134.57 156.76 134.7 157.23C134.76 157.48 134.83 157.74 134.89 158C135.43 160.07 136.01 162.35 136.62 164.68C136.7 164.97 136.78 165.27 136.85 165.56L137.55 168.21C137.63 168.51 137.71 168.8 137.78 169.09C138.09 170.26 138.41 171.42 138.71 172.56C138.79 172.84 138.87 173.13 138.94 173.41L139.39 175.06C139.47 175.33 139.54 175.6 139.61 175.87C140.27 178.26 140.89 180.41 141.41 182.13C141.47 182.32 141.52 182.5 141.58 182.68C141.71 183.12 141.84 183.53 141.96 183.9C142.08 184.27 142.11 184.34 142.18 184.54L142.3 184.89C142.42 185.22 142.53 185.5 142.61 185.7C142.662 185.822 142.726 185.939 142.8 186.05C142.818 186.081 142.842 186.108 142.87 186.13C142.87 186.13 142.93 186.13 142.95 186.13C142.985 186.094 143.027 186.066 143.074 186.049C143.12 186.031 143.17 186.025 143.22 186.03C143.299 186.017 143.381 186.017 143.46 186.03L143.73 186.12H143.78L144.04 186.25C144.19 186.32 144.35 186.42 144.52 186.52C144.92 186.77 145.37 187.09 145.83 187.44C145.993 187.551 146.15 187.671 146.3 187.8C147.49 188.72 148.7 189.8 149.44 190.46C149.501 190.508 149.558 190.561 149.61 190.62L150.13 191.09L146.02 193.62V195.62L146.22 196.17Z" fill="#DC9159"/>
<path d="M37.27 137.25L36 140L26.7 159.56L26.81 175.9L26.93 194.53C26.2457 194.125 25.5415 193.754 24.82 193.42C24.41 193.25 24.09 193.15 24.05 193.27C23.93 193.57 24 199.2 24.05 201.2V201.39L22.26 200.27L17.4 197.27C17.4 197.27 17.96 189.11 18.4 182.22C18.7 177.58 18.96 173.51 18.96 172.88C18.96 172.55 19.27 170.62 19.74 167.81C20.47 163.57 21.59 157.29 22.66 151.39C22.81 150.57 22.95 149.76 23.1 148.96C24.45 141.54 25.6 135.27 25.6 135.27L29.02 138.92L29.69 139.64C32.0175 138.352 34.5765 137.536 37.22 137.24L37.27 137.25Z" fill="#DC9159"/>
<path d="M158.78 196.31L147.78 205.7L146.44 206.85L146.23 196.14V195.64V193.64L150.34 191.11L149.82 190.64C149.768 190.581 149.711 190.528 149.65 190.48C148.91 189.81 147.7 188.74 146.51 187.82C146.36 187.691 146.203 187.571 146.04 187.46C145.58 187.11 145.13 186.79 144.73 186.54C144.56 186.44 144.4 186.34 144.25 186.27L143.99 186.14H143.94L143.67 186.05C143.591 186.037 143.509 186.037 143.43 186.05C143.38 186.045 143.33 186.051 143.284 186.069C143.237 186.086 143.195 186.114 143.16 186.15C143.16 186.15 143.11 186.15 143.08 186.15C143.052 186.128 143.028 186.101 143.01 186.07C142.936 185.959 142.872 185.842 142.82 185.72C142.7 185.44 142.55 185.05 142.39 184.56C142.32 184.36 142.24 184.15 142.17 183.92C142.1 183.69 141.92 183.14 141.79 182.7C141.73 182.52 141.68 182.34 141.62 182.15C141.1 180.43 140.48 178.28 139.82 175.89C139.75 175.62 139.68 175.35 139.6 175.08L139.15 173.43C139.08 173.15 139 172.86 138.92 172.58C138.62 171.44 138.3 170.28 137.99 169.11C137.92 168.82 137.84 168.53 137.76 168.23L137.06 165.58C136.99 165.29 136.91 164.99 136.83 164.7C136.22 162.37 135.64 160.09 135.1 158.02C135.04 157.76 134.97 157.5 134.91 157.25C134.78 156.78 134.67 156.32 134.55 155.87C134.38 155.19 134.21 154.53 134.05 153.92C134.05 153.72 133.96 153.53 133.91 153.35C133.75 152.73 133.6 152.15 133.47 151.63C133.47 151.58 133.47 151.52 133.47 151.47C133.39 151.14 133.32 150.84 133.24 150.56C133.18 150.35 133.13 150.16 133.09 149.98L132.96 149.47L132.86 149.07C132.86 149.01 132.86 148.95 132.86 148.9V148.77C132.86 148.67 132.86 148.59 132.81 148.56L132.9 148.22L134.84 140.9L137.78 129.8L139.11 133.45L146.56 153.83L146.72 154.27L150.2 163.77L157.13 182.77L158.42 192.21L158.78 196.31Z" fill="#F1B280"/>
<path d="M108.28 110.09C108.28 110.09 109.73 112.17 111.53 115.21L72.41 127.44L69.84 126.44L79.84 121.62L79.55 100.18L95.68 82.8701L95.21 99.2001L114.9 104.7L116.49 104.78L108.28 110.09Z" fill="#C68650"/>
<path d="M37.08 137.65L36 140L36.38 138.42L37.2 137.28L37.25 137.2C37.2042 137.13 37.1763 137.05 37.1688 136.966C37.1613 136.883 37.1745 136.799 37.2071 136.722C37.2397 136.645 37.2907 136.577 37.3558 136.524C37.4208 136.472 37.4978 136.436 37.58 136.42H37.65H37.73H37.88L37.26 137.29C37.26 137.29 37.26 137.29 37.26 137.36L37.08 137.75V137.65Z" fill="#F1B280"/>
<path d="M37.34 160.61L37.82 161.54V161.61L37.29 166.61V166.72L34.96 188.81L31.47 205.14L28.92 203.87L24 201.45V201.26C24 200.87 24 200.34 24 199.74C24 197.83 24 195.2 24 193.99C24 193.83 24 193.7 24 193.59C24 193.48 24 193.47 24 193.42C23.9979 193.39 23.9979 193.36 24 193.33C24 193.21 24.36 193.33 24.77 193.48L24.99 193.58L25.22 193.69L25.46 193.81C25.94 194.05 26.41 194.32 26.67 194.47L26.83 194.56H26.88L26.75 176L26.64 159.66L35.94 140.1L33.45 150.55L32.77 151.77C32.7898 151.815 32.8132 151.859 32.84 151.9L37.31 160.61C37.31 160.61 37.33 160.6 37.34 160.61Z" fill="#F1B280"/>
<path d="M76.83 51.2198L73.79 46.7298L62.39 42.2198H61.72L61.53 41.5698L56.57 31.2798L72.54 38.8998L75.84 44.4098L76.83 51.2198Z" fill="#EE4023"/>
<path d="M83.14 39.51L77.84 47.77L75.81 44.38L72.52 38.88L72.86 34.25L76.63 32.73L82.53 34.92L83.14 39.51Z" fill="#F4831F"/>
<path d="M120.72 90.0799L114.91 104.69L93.16 99.1899L95.69 82.8599V82.8499L95.9 79.4699L99.58 72.9899L105.67 57.1999V68.1499L108.28 66.1499L113.44 51.1899L120.72 90.0799Z" fill="#392317"/>
<path d="M105.67 57.2001L99.58 72.9901L95.9 79.4701L84.04 87.6901H78.92V77.7401L82.88 77.1601L87.01 72.8901L91.14 68.1501L87.01 71.5001L78.92 72.8901V66.1501L83.14 61.8001L102.36 55.6201L105.67 57.2001Z" fill="#C68650"/>
<path d="M91.14 68.1499L87.02 72.8899L82.88 77.1599L78.92 77.7399L74.6 76.3499L71.49 71.4999L77.24 74.4799L81.31 74.0499L87.02 71.4999L91.14 68.1499Z" fill="#A96739"/>
<path d="M87.02 71.5L81.31 74.05L77.24 74.48L71.49 71.5L78.92 72.89L87.02 71.5Z" fill="#9E5C28"/>
<path d="M82.88 60.5499H79.24L80.49 54.9399L82.88 60.5499Z" fill="#7C4B20"/>
<path d="M83.14 61.8002L78.92 66.1502C78.92 66.1502 75.39 62.1502 74.92 62.1502L65.66 55.2402C67.66 54.1002 73.84 50.7002 74.25 50.7002L62.35 42.1802L73.74 46.7002L76.74 51.1802L75.74 44.3702L77.74 47.7602L78.54 53.6202L78.35 62.8002L83.14 61.8002Z" fill="#EE4023"/>
<path d="M61.46 62.3001L56.8 69.6801L51.16 73.5101C51.16 73.5101 56.16 63.5101 55.77 62.7501C55.38 61.9901 54.27 47.7501 54.27 46.8301C54.27 46.1201 55.93 39.4201 56.56 36.8901C56.56 40.5801 56.56 44.8301 56.56 45.5201C57.1544 48.6979 57.9154 51.8423 58.84 54.9401C59.24 56.4101 59.53 57.4401 59.53 57.4401L61.44 62.0301L61.46 62.3001Z" fill="#594422"/>
<path d="M102.21 46.7099V49.9099L93.83 55.6199L83.14 50.9999C83.78 50.9999 96.71 42.1499 96.71 42.1499L102.21 46.7099Z" fill="white" stroke="#231F20" stroke-linejoin="round"/>
<path d="M74.27 50.7101C73.86 50.7101 67.72 54.1101 65.68 55.2501L65.02 55.6201L57.94 47.3801L61.05 42.3801L61.51 41.5601L74.27 50.7101Z" fill="white" stroke="#231F20" stroke-linejoin="round"/>
<path d="M80.14 219L79.91 238.36L70.22 242.76C70.22 242.76 70.22 227.48 70.22 226.76C70.22 226.76 70.11 226.76 70.01 226.81L69.85 226.88L69.66 226.99C67.32 228.34 58.66 235.19 58.66 235.19L58.36 234.96L57.48 218.96V215.23H57.69C58.77 216.5 60.93 218.97 61.29 218.97L80.14 219Z" fill="#EE4023"/>
<path d="M128.81 266.92L117.16 354.38L103.08 355.77L77.93 273.49C77.93 273.49 88.67 264.69 99.44 256.03C101.71 254.19 103.98 252.37 106.15 250.64C105.84 258.34 104.2 292.82 104.2 292.82C104.2 292.82 116.9 320.98 117.26 320.42C117.62 319.86 128.38 268.53 128.81 266.92Z" fill="#7C4B20"/>
<path d="M48.13 510.09L20.53 511.67C20.53 511.67 10.53 512.88 9.73999 512.67L0.940002 510.5L1.70001 507.12L15.56 507.82H16.02L26.83 508.51L40.7 505.32L41.24 505.21H41.29H41.46C41.82 505.12 47.69 503.55 47.87 503.61C48.05 507.21 48.13 510.09 48.13 510.09Z" fill="#7C4B20"/>
<path d="M26.76 508.39L40.74 505.37L26.87 508.56L16.06 507.87L15.6 507.85L15.56 507.83L15.86 507.85L26.76 508.39Z" fill="#001750"/>
<path d="M47.92 503.59C47.74 503.53 41.87 505.1 41.51 505.19L41.46 505.07L41.41 504.93L41.09 504.01C41.01 503.76 40.9 503.47 40.79 503.16C40.68 502.85 40.55 502.52 40.41 502.16L40.26 501.75C40.2 501.58 40.14 501.41 40.07 501.24C39.84 500.61 39.59 499.94 39.31 499.24C39.24 499.02 39.15 498.81 39.06 498.58C38.77 497.82 38.48 497.04 38.17 496.24C37.99 495.79 37.83 495.35 37.66 494.91C37.23 493.81 36.81 492.71 36.42 491.69C36.2667 491.323 36.1267 490.963 36 490.61C35.59 489.61 35.23 488.61 34.93 487.88C34.93 487.78 34.85 487.67 34.81 487.57L34.66 487.19L34.5 486.76L34.36 486.42C34.25 486.11 34.18 485.95 34.18 485.95L34.31 485.17V486.17H46.8C46.87 486.16 47.74 497.37 47.92 503.59Z" fill="#EE4023"/>
<path d="M40.33 472.32H40.1V471.82L40.33 472.32Z" fill="#1C387F" stroke="#9AB8C7" stroke-miterlimit="10"/>
<path d="M41.32 505.24H41.27L40.74 505.36L26.87 508.55L16.06 507.86H15.6L7.09998 503.62L25.51 494.19L27.95 495.88L28.83 496.48L29.46 496.91L30.29 497.49C34.49 500.4 40.21 504.37 41.32 505.24Z" fill="#EE4023"/>
<path d="M15.6 507.85L1.70001 507.13L7.06 503.59L15.6 507.85Z" fill="#F8B517"/>
<path d="M137.32 500.99L120.12 495.19L119.57 485.8L119.64 486.16H131.96L137.32 500.99Z" fill="#EE4023"/>
<path d="M140.71 509.29L122.64 509C122.64 509 120.16 501.44 120.16 501.12V495.49V495.24L137.36 501.04L140.71 509.29Z" fill="#F8B517"/>
<path d="M141.87 512.11L131.75 515.51H122.75L118.51 510.07L120.14 501.39V501.07C120.14 501.39 122.62 508.95 122.62 508.95L140.69 509.29L141.87 512.11Z" fill="#7C4B20"/>
<path d="M41.51 505.19H41.34H41.28L30.28 497.4L29.45 496.82L28.82 496.39L27.94 495.79L25.5 494.1L34.2 485.88C34.2 485.88 34.27 486.04 34.38 486.35L34.52 486.69L34.68 487.12L34.83 487.5C34.83 487.6 34.92 487.71 34.95 487.81L40.28 501.69L40.43 502.1L41.48 504.81C41.48 504.81 41.48 505.01 41.53 505.06C41.5144 505.101 41.5076 505.146 41.51 505.19V505.19Z" fill="#F4831F"/>
<path d="M55.87 103.94L45.97 113.64L42.69 116.84L42.27 118.78C41.22 123.69 38.46 136.28 37.89 136.28C37.69 136.28 35.74 136.88 35.74 136.88L29.66 139.63L25.57 135.26L24.08 122.26L27.9 128.95L38 116.09L48.34 107.78L43.53 101.78L46.68 100.9L55.87 103.94Z" fill="#7C4B20"/>
<path d="M21.54 254.57C21.54 254.57 14.89 258.65 14.78 259.14C14.67 259.63 5.87002 251.67 4.83002 250.72C4.52002 256.91 6.57004 280.13 6.57004 280.13L8.30002 281.58L17.74 278.63L25.24 269.24L21.54 254.57ZM8.30002 278L7.69003 262.41L10.43 275.9L8.30002 278Z" fill="#EE4023"/>
<path d="M18.58 198.46L16.45 218.22L14.45 203.17L14.7 198.4C14.7 198.31 14.7 198.26 14.7 198.26L17.31 197.26L18.58 198.46Z" fill="#F4831F"/>
<path d="M16.52 250.21L21.52 254.57C21.52 254.57 14.87 258.66 14.76 259.14C14.65 259.62 5.84998 251.67 4.80998 250.72C4.80164 250.245 4.85543 249.771 4.96999 249.31C5.55999 248.4 14.3 201.31 14.67 198.4L14.42 203.17L16.42 218.22L14.75 233.76L21.84 243.94L11.09 246.25L7.65999 250.25L16.52 250.21Z" fill="#F8B517"/>
<path d="M32.51 207.52L21.87 243.94L14.78 233.76L16.45 218.22L18.58 198.46L22.18 200.33L22.25 200.37L23.97 201.27L24.67 201.64L31.45 205.17L31.51 205.3L32.51 207.52Z" fill="#7C4B20"/>
<path d="M21.02 252.96L21.54 254.57L16.51 250.21H7.69L11.13 246.25L21.88 243.94L21.02 252.96Z" fill="#7C4B20"/>
<path d="M27.11 287.54L14.03 288.51L8.29999 281.58L17.74 278.63L25.24 269.24L27.42 275.92L27.11 287.54Z" fill="#F8B517"/>
<path d="M108.05 173C108.05 173 100.21 190.33 100.17 190.33L100.23 190.6C98.86 188.6 98.72 184.72 98.34 184.72C97.96 184.72 92.15 182.28 89.52 181.28C89.5247 181.244 89.5247 181.207 89.52 181.17C89.98 179.07 90.26 177.65 90.26 177.65L92.85 178.75L97.41 167.1L104.04 157.83L108.92 153.1L117.14 145.1C119.21 146.61 118.44 147.68 118.44 147.68L108.05 173Z" fill="#EE4023"/>
<path d="M106.21 209.24L84.61 219V214.1L57.42 215.27V219L51.68 210.9L49.33 175.79L39.24 163.64L37.83 161.54L32.83 151.72L33.5 150.5L39.74 159.29L41.81 160.76L47.15 164.55L55.92 177.84L57.47 177.03L68.15 192.27C69.53 188.39 70.9033 184.51 72.27 180.63L77.27 191.23L89.6 181.23C92.23 182.23 97.98 184.67 98.42 184.67C98.86 184.67 98.94 188.52 100.31 190.55C100.67 192.87 106.21 209.24 106.21 209.24Z" fill="#EE4023"/>
<path d="M108.94 153.05L104.06 157.78L97.43 167.05L92.88 178.7L90.29 177.6L71.54 169.6L57.42 177L55.87 177.81L47.1 164.52L41.76 160.73L53 163.64L64.26 146.2L71.05 160.88L76.19 148.63C76.19 148.63 90.39 162.05 90.75 161.89C91.11 161.73 108.4 153.31 108.94 153.05Z" fill="#7C4B20"/>
<path d="M90.28 177.6C90.28 177.6 90 179.02 89.54 181.12V181.23L79.27 196.38C76.9367 191.713 74.6033 187.047 72.27 182.38C70.5833 187.113 68.8867 191.843 67.18 196.57C63.9333 190.063 60.6867 183.55 57.44 177.03L71.57 169.64L90.28 177.6Z" fill="#F8B517"/>
<path d="M117.17 145.08L109 153C108.46 153.26 91.18 161.68 90.82 161.84C90.46 162 76.26 148.58 76.26 148.58L90.66 139.23C90.66 139.23 103.3 134.86 103.92 135.34C104.3 135.73 112.35 141.59 117.17 145.08Z" fill="#F8B517"/>
<path d="M49.42 253L38.42 241.24L45.49 225.07C45.93 225.38 46.49 225.82 47.24 226.36L49.42 253Z" fill="#F8B517"/>
<path d="M58.6 235.21C58.6 235.21 51.22 229.39 47.23 226.39C46.52 225.85 45.92 225.39 45.48 225.1L51.68 210.92L57.42 219.02L58.6 235.21Z" fill="#7C4B20"/>
<path d="M70.22 242.78L58.6 235.21C60.45 233.71 68.04 227.9 69.83 226.9L69.99 226.83C70.09 226.78 70.17 226.76 70.2 226.78C70.23 226.8 70.2 226.78 70.2 226.78C70.26 227.5 70.22 242.78 70.22 242.78Z" fill="#F8B517"/>
<path d="M111.22 224.63L107.28 225.98L84.61 233.76V219.02L106.21 209.24L111.22 224.63Z" fill="#7C4B20"/>
<path d="M117.16 354.38C117.16 354.38 112.16 374.97 111.94 375.85C111.72 376.73 103.08 355.77 103.08 355.77L117.16 354.38Z" fill="#F8B517"/>
<path d="M79.22 305.15C79.48 303.78 64.76 356.57 64.76 356.57L59.94 363C59.94 363 62.22 353.52 62.47 352.73C62.72 351.94 76.82 301 76.82 301C76.82 301 67.45 297.56 69.11 297.82C71.6949 297.955 74.2851 297.955 76.87 297.82L81.94 296.29L98.5 361.42C98 359.79 79 306.51 79.22 305.15Z" fill="#F8B517"/>
<path d="M125.21 353.27L128.81 266.94L117.16 354.38C117.16 354.38 112.16 374.97 111.93 375.85C111.7 376.73 103.08 355.77 103.08 355.77L82 286.77L77.92 273.44L78.19 273.22L78.67 272.83L79.77 271.93L80.77 271.14C83.43 268.97 87.71 265.48 92.51 261.59L94.34 260.11L99.46 255.98L107.3 225.98L102.92 227.48L84.64 233.76V236.25L79.95 238.38L70.26 242.78L58.8 235.32L58.64 235.2H58.57L58.35 235.03L57.61 234.45L57.37 234.26L57 234L56.46 233.58C55.15 232.58 53.38 231.17 51.62 229.81L50.23 228.73C49.14 227.89 48.1 227.09 47.23 226.43L49.42 253L51.42 255.13L53.35 257.19L70.22 275.19L68.07 286.52L54 360.64L41.06 352.64L35.06 282.75L32.67 330.57L35.32 349.62L32.94 376L35.31 385.55L34.38 472.31H40.1V415.08C40.17 414.62 41.59 411.32 43.59 406.79L44.3 405.19C44.42 404.92 44.54 404.64 44.67 404.36L45.83 401.77C46.62 399.99 47.46 398.14 48.31 396.26C48.59 395.64 48.88 395.02 49.16 394.39C52.98 385.95 56.8 377.61 57.91 375.22L58 375L58.15 374.67L58.2 374.56L62.63 393.43L47.49 472.35H51.26L68.73 390.57L59.94 363C59.94 363 62.21 353.53 62.47 352.74C62.47 352.67 62.64 352.15 62.88 351.28C62.97 350.99 63.06 350.66 63.16 350.28C63.37 349.55 63.61 348.67 63.89 347.67L64.33 346.08C64.57 345.24 64.82 344.34 65.08 343.39C65.34 342.44 65.62 341.39 65.91 340.39C66.3 339 66.71 337.54 67.12 336.02C71.32 320.91 76.82 301.02 76.82 301.02C76.56 300.92 67.48 297.58 69.12 297.84C71.7049 297.974 74.2951 297.974 76.88 297.84L81.95 296.31L98.47 361.31V361.42L96.91 385.75C96.91 385.75 117.52 477.23 118.58 478.06C118.736 478.152 118.91 478.21 119.09 478.23C121.172 478.452 123.269 478.509 125.36 478.4H126.22L117.27 418.32C117.27 418.32 128.1 382.32 128.1 381.63C128.1 380.94 131.26 385.84 131.26 385.84L131.51 478.18C132.16 478.18 132.66 478.11 132.9 478.11L133.11 476.4C133.49 463.63 132.25 384.57 133.22 384.32C134.19 384.07 125.21 353.27 125.21 353.27ZM35.26 371.2L38.78 354.38C39.78 354.81 49.55 365.13 49.55 365.13L35.26 371.2Z" fill="#F4831F"/>
<path d="M120.88 239.35C119.78 239.87 113.55 244.74 106.15 250.64C103.98 252.37 101.71 254.19 99.44 256.03L107.28 226.03L111.22 224.68L120.48 238.37L120.88 239.35Z" fill="#F8B517"/>
<path d="M128.82 266.89C128.39 268.5 117.62 319.83 117.27 320.39C116.92 320.95 104.21 292.79 104.21 292.79C104.21 292.79 105.85 258.31 106.16 250.61C113.56 244.71 119.79 239.84 120.89 239.32L128.82 266.89Z" fill="#EE4023"/>
<path d="M150.71 219V249.24L147.1 256L143.67 250.14L131.45 263.14L131.87 270.65H136.61V282.44L147.69 285.21L155.87 277.67C155.87 277.67 158.52 246.38 158.78 245.28C158.99 244.44 160.1 218.47 161.84 205.52C161.65 205.72 157.09 212 150.71 219ZM147.71 280.53L149.52 273.47V261.36L152.88 275.86L147.71 280.53Z" fill="#F8B517"/>
<path d="M155.88 277.65L152.98 285.07L140.79 292.12L133.79 290.47L131.88 270.63H136.61V282.43L147.7 285.19L155.88 277.65Z" fill="#EE4023"/>
<path d="M150.72 219V249.23L147.1 256L143.68 250.14L135.68 215.05C135.68 215.05 140.84 228.59 141.05 229.23C141.11 229.49 145.65 224.59 150.72 219Z" fill="#7C4B20"/>
<path d="M131.33 385.85L131.57 478.18C130.27 478.25 128.29 478.34 126.28 478.4L117.33 418.33C117.33 418.33 128.16 382.33 128.16 381.64C128.16 380.95 131.33 385.85 131.33 385.85Z" fill="#F8B517"/>
<path d="M113.61 118.7L79.61 129.95L70.16 143.48L61.09 128.58L42.22 118.84L42.64 116.91L45.92 113.71C45.62 114.16 45.92 117.13 45.92 117.13L69.8 126.45L72.35 127.45L111.48 115.2L113.61 118.7Z" fill="#F4831F"/>
<path d="M64.27 146.2L53.01 163.64L41.76 160.76L39.69 159.29L33.45 150.5L36.33 138.44L39.63 134.96L53.75 135.58L64.27 146.2Z" fill="#F8B517"/>
<path d="M84.61 219V233.74V236.23L79.91 238.36L80.14 219H61.23C60.87 219 58.71 216.53 57.63 215.26L84.63 214.1V219H84.61Z" fill="#F8B517"/>
<path d="M53 294.28C53 294.28 42.55 319.68 42.39 318.81C42.23 317.94 35.69 285.06 35.02 282.57V281.67L37.69 242.79L38.35 241.28L49.35 253.04L51.35 255.17L53 294.28Z" fill="#EE4023"/>
<path d="M70.22 275.23L54 360.64L41.05 352.64L35.05 282.76V282.58C35.72 285.07 42.24 317.99 42.42 318.82C42.6 319.65 53 294.28 53 294.28L51.39 255.16L70.22 275.23Z" fill="#7C4B20"/>
<path d="M49.55 365.13L35.26 371.2L38.78 354.38C39.81 354.81 49.55 365.13 49.55 365.13Z" fill="#F8B517"/>
<path d="M121.85 135.39L118.47 147.66C118.47 147.66 119.24 146.59 117.17 145.08C112.35 141.59 104.3 135.73 103.86 135.39C103.24 134.91 90.6 139.28 90.6 139.28L76.2 148.62L71.05 160.88L64.28 146.21L53.75 135.58L39.64 135L36.33 138.48L37.86 136.35C38.43 136.35 41.19 123.76 42.24 118.85L61.11 128.6L70.18 143.52L79.63 129.97L113.63 118.71C118.06 126.09 121.41 135.62 121.85 135.39Z" fill="#EE4023"/>
<path d="M152.87 275.86L147.7 280.55L149.5 273.49V261.36L152.87 275.86Z" fill="#7C4B20"/>
<path d="M10.44 275.86L8.29999 277.96L7.69 262.38L10.44 275.86Z" fill="#7C4B20"/>
<path d="M62.65 393.4L47.51 472.32H40.33L40.1 471.82V415.11C40.1 413.96 58.22 374.53 58.22 374.53L62.65 393.4Z" fill="#F8B517"/>
<path d="M51.29 472.32L46.78 486.16H34.29L34.3 485.16L34.39 472.32H51.29Z" fill="#7C4B20"/>
<path d="M133 478.11L132 486.11H119.64L119.57 485.75L119.12 478.21C121.206 478.433 123.305 478.489 125.4 478.38C127.7 478.32 130.08 478.21 131.57 478.13C132.23 478.15 132.72 478.11 133 478.11Z" fill="#7C4B20"/>
<path d="M137.16 111.3L108.28 110.09L116.63 104.64L124.19 101.81L137.16 111.3Z" fill="#F8B517"/>
<path d="M137.57 129.68V129.73L137.48 129.71L126.2 127.73L108.28 110.09L137.16 111.29L137.57 129.68Z" fill="#EE4023"/>
<path d="M137.57 129.73L132.82 131.41L131.17 132C127.5 133.31 123.46 134.74 122.3 135.2L122.11 135.27L121.85 135.4C121.33 135.28 117.96 125.9 113.59 118.62L111.5 115.13C109.69 112.13 108.31 110.13 108.31 110.13L126.23 127.77L137.5 129.77L137.57 129.73Z" fill="#7C4B20"/>
<path d="M44.55 107.78L31.81 108.42L43.5 101.77L44.55 107.78Z" fill="#F8B517"/>
<path d="M48.31 107.78L37.97 116.09L27.87 128.96L24.05 122.27L31.81 108.42L44.55 107.78L43.5 101.77L48.31 107.78Z" fill="#EE4023"/>
<path d="M82.53 34.9202L98.34 26.4102L76.63 32.7301L82.53 34.9202Z" fill="#F4831F"/>
<path d="M80.14 64.8901L102.36 55.6201L105.31 58.5701L105.67 57.2001L102.36 55.6201L83.14 61.8001L80.14 64.8901Z" fill="#BC7645"/>
<path d="M77.84 64.9599L61.66 58.1099L74.94 62.1599L77.84 64.9599Z" fill="#9B5023"/>
<path d="M95.9 79.4702L85.96 88.3102L84.02 89.2502L80.22 88.3802L78.71 87.9102L84.04 87.6902L95.9 79.4702Z" fill="#9B5023"/>
<path d="M69.43 80.2901L78.71 87.9101L69.43 79.1401V80.2901Z" fill="#9B5023"/>
<path d="M69.43 79.1401C69.43 79.3101 78.92 87.6901 78.92 87.6901H84L83.83 88.3901L78.67 87.9001C78.67 87.9001 70.97 81.1601 70.91 81.1701C70.85 81.1801 69.43 79.1401 69.43 79.1401Z" fill="#9B5023"/>
<path d="M76.63 32.73C76.63 32.73 71.57 24.16 71.49 23.4C71.41 22.64 81.06 5.25 81.06 5.25C81.06 5.25 76.06 20.94 76.27 21.13C76.48 21.32 81.9 30.66 81.9 30.66L76.63 32.73Z" fill="#392317"/>
<path d="M102.35 7.89983C101.72 7.70983 95.9 10.1198 95.9 10.1198C95.9 10.1198 89.48 26.6398 89.76 26.4098C90.04 26.1798 97.1 11.6398 97.1 11.6398L102.35 7.89983Z" fill="#392317"/>
<path d="M47.5 25.3101L63.59 16.5501L72.52 18.9901L62.51 6.39014L47.5 25.3101Z" fill="#392317"/>
<path d="M99.44 368.63C99.96 369.55 114.35 407.51 114.35 407.51L98.12 386.38L99.44 368.63Z" fill="#7C4B20"/>
<path d="M49.55 371.2L36.83 375.88L40.1 415.11L58.22 374.53L49.55 371.2Z" fill="#7C4B20"/>
<path d="M58.77 235.32L53.35 257.22L70.22 275.23L68.07 286.56L75.35 288.51L82 286.81L77.93 273.49L94.32 260.15L103.08 226.77L84.61 233.76V236.25L70.22 242.78L58.77 235.32Z" fill="#F4831F"/>
<path d="M146.51 154.2C142.17 152.67 136.21 150.61 132.83 149.44L130.22 148.53L130.79 147.53L134.63 140.82L138.9 133.37L146.35 153.75L146.51 154.2Z" fill="#F8B517"/>
<path d="M121.85 135.4L122.14 135.27L121.85 135.4Z" fill="#602852"/>
<path d="M138.9 133.38L134.63 140.83L130.79 147.53L130.22 148.53L119.13 148.81V148.74L118.52 147.67V147.6L118.62 147.22L119.83 142.79L121.83 135.39C122.54 135.02 137.56 129.73 137.56 129.73L138.9 133.38Z" fill="#F4831F"/>
<path d="M158.21 192.11L144.6 186.18L144.68 185.85L145.1 184.08L150 163.7L156.93 182.7L158.21 192.11Z" fill="#EE4023"/>
<path d="M147.81 205.7C147.9 206.32 147.96 206.7 147.96 206.91C147.96 208.29 138.14 215.31 138.14 215.31L138.78 198.89V198.75L139.19 188.18L138.96 187.93V187.62L137.71 183.62L136.01 178.18L119.11 148.82V148.75C121.9 148.47 130.04 147.65 130.76 147.55H130.81C131.458 147.71 132.093 147.917 132.71 148.17C135.8 149.34 141.89 151.88 146.37 153.77L146.53 154.21L150.01 163.71L145.12 184.09L144.7 185.86L144.62 186.19L144.69 186.62L144.76 187.02C145.03 188.57 145.62 192.02 146.23 195.68C146.86 199.59 147.53 203.68 147.81 205.7Z" fill="#F4831F"/>
<path d="M147.81 205.7C147.9 206.32 147.96 206.7 147.96 206.91L147.77 205.73L146.22 196.17L144.74 187L144.67 186.6L144.6 186.17L158.21 192.1L158.78 196.3L147.81 205.7Z" fill="#F8B517"/>
<path d="M149.89 183.64L144.68 185.85L143.88 186.19L139.2 188.19L138.97 187.94V187.63L137.72 183.63C139.09 183.75 140.72 183.85 142.07 183.93L145.07 184.1L149.89 183.64Z" fill="#7C4B20"/>
<path d="M33.45 150.5L32.77 151.72C32.7898 151.765 32.8132 151.809 32.84 151.85C33.28 152.66 35.63 157.03 37.31 160.56C37.31 160.56 37.31 160.56 37.31 160.61L37.78 161.61L37.25 166.61V166.72C34.54 169.12 29.45 173.56 27.39 175.34L26.73 175.92C26.6695 175.966 26.6127 176.016 26.56 176.07L26.5 176.12L22.58 151.37C22.73 150.55 22.87 149.74 23.02 148.94L28.94 138.94L28.99 138.86L35.66 136.92L35.97 136.83L37.51 136.39H37.58H37.66H37.81L37.2 137.24L37.13 137.34L36.3 138.49L36 140L33.45 150.5Z" fill="#F4831F"/>
<path d="M22.6 151.41L26.52 176.16L18.34 182.24C18.64 177.6 18.9 173.53 18.9 172.9C18.9 172.57 19.21 170.64 19.68 167.83C20.41 163.59 21.53 157.31 22.6 151.41Z" fill="#EE4023"/>
<path d="M29 138.86L28.95 138.94L23 149C24.35 141.58 25.5 135.31 25.5 135.31L29 138.86Z" fill="#EE4023"/>
<path d="M37.28 166.64V166.75L34.95 188.84L31.46 205.17L31.52 205.3L28.91 203.9L24.68 201.64L23.98 201.26L24.77 193.48L26.53 176.16L26.59 176.11C26.6427 176.056 26.6995 176.006 26.76 175.96V175.96L27.42 175.38C29.46 173.54 34.57 169 37.28 166.64Z" fill="#EE4023"/>
<path d="M26.52 176.16L24.76 193.48L23.97 201.26L18.5 198.46L17.32 197.29C17.32 197.29 17.88 189.13 18.32 182.24C18.62 177.6 18.88 173.53 18.88 172.9C18.88 172.57 19.19 170.64 19.66 167.83C22.09 170.86 26.52 176.16 26.52 176.16Z" fill="#F8B517"/>
<path d="M162 199.26C162.275 201.334 162.241 203.437 161.9 205.5C161.7 205.72 157.14 212 150.77 219.02C145.7 224.59 141.16 229.49 141.07 229.21C140.86 228.57 135.7 215.03 135.7 215.03L137.81 214.2L146.48 206.89L158.83 196.31C158.83 196.31 158.57 195.96 159.37 195.14C160.17 194.32 162 199.26 162 199.26Z" fill="#EE4023"/>
</svg>
