<svg width="162" height="515" viewBox="0 0 162 515" fill="none" xmlns="http://www.w3.org/2000/svg">
<path d="M124 102L116.32 103.75L114.73 103.67L120.54 89.06L113.26 50.18L108.1 65.13L105.49 67.13V56.23L102 41.68L99.48 31L98.15 25.42L76.44 31.74L60.34 24.32L56.34 30.27C56.34 30.27 56.34 32.9 56.34 35.91C55.71 38.44 54.05 45.14 54.05 45.85C54.05 46.74 55.18 61.02 55.55 61.76C55.92 62.5 51 72.53 51 72.53L56.64 68.7L61.3 61.32L63.96 71.43L69.27 78.16L68.7 98.9L56.39 103.2L55.71 102.96L46.54 100.18L43.71 62.18L47.34 24.32L62.34 5.41L80.78 0L102.15 7L116.54 31.79L119.47 52.93L118.2 55.99L123.89 85.52L124 102Z" fill="#F9DE2B"/>
<path d="M54 45L49.77 60.26L48.69 57.12L46.79 65L51.62 101.61C51.62 101.61 60.82 94.49 61.47 93.61C62.12 92.73 59.82 69 59.82 69L57.16 53.23L54 45Z" fill="#97712D"/>
<path d="M53.7 70.6801L54.7 78.7401L52.89 83.2501L51.6 101.59C51.6 101.59 62.82 108.73 63.12 108.59C63.42 108.45 71.12 105.38 71.28 104.98C71.44 104.58 75.28 94.2501 75.16 92.6401C75.04 91.0301 75.3 77.0601 74.73 76.7301C74.16 76.4001 67.94 70.3701 67.54 70.0701C67.14 69.7701 63.42 61.1501 63.42 61.1501L60 59.0701L53.7 70.6801Z" fill="#97712D"/>
<path d="M95.71 78.5L95.5 81.88L79.37 99.2L79.66 120.63L69.66 125.45L45.78 116.12C45.78 116.12 45.46 113.12 45.78 112.69L55.69 102.99L56.37 103.23L71.1 97.84L69.25 78.19L63.94 71.46L61.28 61.35V61.08L59.37 56.5C59.37 56.5 59.08 55.5 58.68 53.99L61.5101 57.17C61.5101 57.17 74.32 61.22 74.79 61.22C75.26 61.22 78.7901 65.22 78.7901 65.22V71.96L71.36 70.58L74.47 75.43L78.7901 76.82V86.76H83.91L95.71 78.5Z" fill="#DE9159"/>
<path d="M76.44 31.7501L72.67 33.2701L72.33 37.9001L56.36 30.2801L60.34 24.3301L76.44 31.7501Z" fill="#C7C6C1"/>
<path d="M99.4799 31.0099L84.3099 37.9199L82.95 38.5299L82.3399 33.9399L76.4399 31.7499L98.1499 25.4299L99.4799 31.0099Z" fill="#C7C6C1"/>
<path d="M102 41.68L95.69 38.53C95.69 38.53 82.12 47.28 81.69 47.61C81.26 47.94 84.26 37.92 84.26 37.92L99.48 31L102 41.68Z" fill="#29272C"/>
<path d="M102 41.6899L95.69 38.5399C95.69 38.5399 82.12 47.2799 81.69 47.6099C81.26 47.9399 84.25 37.9199 84.25 37.9199L82.9 38.5399L77.6 46.7999L78.4 52.6599L78.2 61.8399L82.9 60.8399L102.12 54.6699L105.43 56.2499L102 41.6899ZM79 59.5799L80.3 53.9999L82.68 59.6099L79 59.5799ZM102 48.9399L93.62 54.6499L83 50.0699C83.63 50.0699 96.57 41.2199 96.57 41.2199L102.07 45.7399L102 48.9399Z" fill="#5A5755"/>
<path d="M74.77 61.2101C74.31 61.2101 61.49 57.1601 61.49 57.1601L58.66 54.0001C57.7354 50.9022 56.9743 47.7579 56.38 44.5801C56.38 43.8901 56.38 39.6301 56.38 35.9501C56.38 32.9501 56.38 30.3101 56.38 30.3101L61.38 40.6001L61.57 41.2501L61.74 41.8401L57.81 46.4401L64.89 54.6801L65.55 54.3101L74.77 61.2101Z" fill="#5A5755"/>
<path d="M146 195.2L146.21 205.91L138.31 212.6L138.56 197.92V197.78L138.74 186.96V186.65L137.49 182.65L135.79 177.21L118.89 147.85V147.78L118.28 146.71L118.42 146.21L119.62 141.87L121.62 134.47C122.33 134.1 137.35 128.81 137.35 128.81L134.41 139.91L132.47 147.23L132.38 147.57C132.38 147.57 132.38 147.68 132.43 147.78V147.91C132.43 147.96 132.43 148.02 132.43 148.08L132.53 148.48L132.66 148.99C132.66 149.17 132.75 149.36 132.81 149.57C132.89 149.85 132.96 150.15 133.04 150.48V150.64C133.11 150.9 133.18 151.17 133.25 151.46C133.32 151.75 133.4 152.05 133.48 152.36C133.56 152.67 133.57 152.73 133.62 152.93C133.78 153.54 133.95 154.2 134.12 154.88C134.24 155.33 134.35 155.79 134.48 156.26C134.54 156.51 134.61 156.77 134.67 157.03C135.21 159.1 135.79 161.38 136.4 163.71C136.48 164 136.56 164.3 136.63 164.59L137.33 167.24C137.41 167.54 137.49 167.83 137.56 168.12C137.87 169.29 138.19 170.45 138.49 171.59C138.57 171.87 138.65 172.16 138.72 172.44L139.17 174.09C139.25 174.36 139.32 174.63 139.39 174.9C140.05 177.29 140.67 179.44 141.19 181.16C141.25 181.35 141.3 181.53 141.36 181.71C141.49 182.15 141.62 182.56 141.74 182.93C141.86 183.3 141.89 183.37 141.96 183.57L142.08 183.92C142.2 184.25 142.31 184.53 142.39 184.73C142.442 184.852 142.506 184.97 142.58 185.08C142.598 185.111 142.622 185.138 142.65 185.16C142.65 185.16 142.71 185.16 142.73 185.16C142.765 185.124 142.807 185.096 142.854 185.079C142.9 185.062 142.95 185.055 143 185.06C143.08 185.047 143.161 185.047 143.24 185.06L143.51 185.15H143.56L143.82 185.28C143.97 185.35 144.13 185.45 144.3 185.55C144.7 185.8 145.15 186.12 145.61 186.47C145.773 186.581 145.93 186.701 146.08 186.83C147.27 187.75 148.48 188.83 149.22 189.49C149.281 189.538 149.338 189.592 149.39 189.65L149.91 190.12L146 192.74V194.74V195.2Z" fill="#DC9159"/>
<path d="M37.08 136.28L35.76 139.05L26.46 158.61L26.57 174.95L26.69 193.58C26.0057 193.175 25.3015 192.805 24.58 192.47C24.17 192.3 23.85 192.2 23.81 192.32C23.69 192.62 23.76 198.25 23.81 200.25V200.44L22 199.36L17.14 196.36C17.14 196.36 17.7 188.2 18.14 181.31C18.44 176.67 18.7 172.6 18.7 171.97C18.7 171.64 19.01 169.71 19.48 166.9C20.21 162.66 21.33 156.38 22.4 150.48C22.55 149.66 22.69 148.85 22.84 148.05C24.19 140.63 25.34 134.36 25.34 134.36L28.76 138.01L29.43 138.73C31.7575 137.442 34.3164 136.626 36.96 136.33L37.08 136.28Z" fill="#DC9159"/>
<path d="M158.59 195.34L147.59 204.73L146.25 205.88L146 195.2V194.7V192.7L150.11 190.17L149.59 189.7C149.538 189.642 149.481 189.588 149.42 189.54C148.68 188.87 147.47 187.8 146.28 186.88C146.13 186.751 145.973 186.631 145.81 186.52C145.35 186.17 144.9 185.85 144.5 185.6C144.33 185.5 144.17 185.4 144.02 185.33L143.76 185.2H143.71L143.44 185.11C143.36 185.097 143.279 185.097 143.2 185.11C143.15 185.105 143.1 185.112 143.053 185.129C143.007 185.146 142.964 185.174 142.93 185.21C142.93 185.21 142.88 185.21 142.85 185.21C142.822 185.188 142.798 185.161 142.78 185.13C142.706 185.02 142.642 184.902 142.59 184.78C142.47 184.5 142.32 184.11 142.16 183.62C142.09 183.42 142.01 183.21 141.94 182.98C141.87 182.75 141.69 182.2 141.56 181.76C141.5 181.58 141.45 181.4 141.39 181.21C140.87 179.49 140.25 177.34 139.59 174.95C139.52 174.68 139.45 174.41 139.37 174.14L138.92 172.49C138.85 172.21 138.77 171.92 138.69 171.64C138.39 170.5 138.07 169.34 137.76 168.17C137.69 167.88 137.61 167.59 137.53 167.29L136.83 164.64C136.76 164.35 136.68 164.05 136.6 163.76C135.99 161.43 135.41 159.15 134.87 157.08C134.81 156.82 134.74 156.56 134.68 156.31C134.55 155.84 134.44 155.38 134.32 154.93C134.15 154.25 133.98 153.59 133.82 152.98C133.82 152.78 133.73 152.59 133.68 152.41C133.52 151.79 133.37 151.21 133.24 150.69V150.53C133.16 150.2 133.09 149.9 133.01 149.62C132.95 149.41 132.9 149.22 132.86 149.04L132.73 148.53L132.63 148.13C132.63 148.07 132.63 148.01 132.63 147.96V147.83C132.63 147.73 132.63 147.65 132.58 147.62L132.67 147.28L134.61 139.96L137.55 128.86L138.88 132.51L146.33 152.89L146.49 153.33L149.97 162.83L156.9 181.83L158.19 191.27L158.59 195.34Z" fill="#F1B280"/>
<path d="M108.09 109.11C108.09 109.11 109.54 111.2 111.34 114.23L72.22 126.46L69.65 125.46L79.65 120.64L79.36 99.2099L95.49 81.8899L95 98.2099L114.69 103.71L116.28 103.79L108.09 109.11Z" fill="#F1B380"/>
<path d="M36.89 136.68L35.76 139.05L36.14 137.47L36.96 136.33L37.01 136.25C36.9642 136.18 36.9363 136.1 36.9288 136.016C36.9213 135.933 36.9344 135.849 36.967 135.772C36.9997 135.695 37.0507 135.627 37.1158 135.574C37.1808 135.522 37.2578 135.486 37.34 135.47H37.41H37.49H37.64L37.02 136.34C37.02 136.34 37.02 136.34 37.02 136.41L36.84 136.8L36.89 136.68Z" fill="#F1B280"/>
<path d="M37.1499 159.64L37.6299 160.57V160.64L37.0999 165.64V165.75L34.7699 187.84L31.2799 204.17L28.7299 202.9L23.7999 200.45V200.26C23.7999 199.87 23.7999 199.34 23.7999 198.74C23.7999 196.83 23.7999 194.2 23.7999 192.99C23.7999 192.83 23.7999 192.7 23.7999 192.59C23.7999 192.48 23.7999 192.47 23.7999 192.42C23.7978 192.39 23.7978 192.36 23.7999 192.33C23.7999 192.21 24.1599 192.33 24.5699 192.48L24.7899 192.58L25.0199 192.69L25.2599 192.81C25.7399 193.05 26.2099 193.32 26.4699 193.47L26.6299 193.56H26.6799L26.5599 175L26.4499 158.66L35.7499 139.1L33.2599 149.55L32.5799 150.77C32.5997 150.815 32.6232 150.859 32.6499 150.9L37.1199 159.61C37.1199 159.61 37.1399 159.63 37.1499 159.64Z" fill="#F1B280"/>
<path d="M76.64 50.2401L73.6 45.76L62.2 41.2401H61.53L61.34 40.59L56.38 30.3L72.35 37.92L75.65 43.43L76.64 50.2401Z" fill="#5A5755"/>
<path d="M82.95 38.53L77.65 46.79L75.62 43.41L72.33 37.9L72.67 33.27L76.44 31.75L82.34 33.94L82.95 38.53Z" fill="#29272C"/>
<path d="M120.53 89.1L114.72 103.71L92.97 98.21L95.5 81.88L95.71 78.5L99.39 72.02L105.48 56.23V67.17L108.09 65.17L113.25 50.22L120.53 89.1Z" fill="#97712D"/>
<path d="M105.48 56.2299L99.39 72.0199L95.71 78.4999L83.85 86.7099H78.73V76.7699L82.69 76.1899L86.82 71.9099L90.95 67.1699L86.82 70.5299L78.73 71.9099V65.1699L82.95 60.8199L102.17 54.6399L105.48 56.2299Z" fill="#F1B380"/>
<path d="M90.9501 67.1699L86.83 71.9099L82.6901 76.1899L78.7301 76.7699L74.4101 75.3799L71.3 70.5299L77.05 73.5099L81.1201 73.0799L86.83 70.5299L90.9501 67.1699Z" fill="#A96739"/>
<path d="M86.83 70.53L81.1201 73.08L77.05 73.51L71.3 70.53L78.7301 71.91L86.83 70.53Z" fill="#9E5C28"/>
<path d="M82.6901 59.57H79.05L80.3 53.96L82.6901 59.57Z" fill="#29272C"/>
<path d="M83 60.82L78.78 65.17C78.78 65.17 75.25 61.17 74.78 61.17L65.52 54.2599C67.52 53.1199 73.7 49.72 74.11 49.72L62.21 41.2L73.6 45.71L76.6 50.2L75.6 43.39L77.6 46.77L78.4 52.63L78.21 61.82L83 60.82Z" fill="#C7C6C1"/>
<path d="M61.27 61.3199L56.61 68.6999L51 72.5299C51 72.5299 56 62.5299 55.61 61.7699C55.22 61.0099 54.11 46.7699 54.11 45.8599C54.11 45.1499 55.77 38.4499 56.4 35.9199C56.4 39.5999 56.4 43.8499 56.4 44.5499C56.9946 47.7244 57.7557 50.8654 58.68 53.9599C59.08 55.4299 59.37 56.4699 59.37 56.4699L61.28 61.0499L61.27 61.3199Z" fill="#F0BC53"/>
<path d="M102 45.73V48.94L93.62 54.64L83 50.06C83.64 50.06 96.57 41.22 96.57 41.22L102 45.73Z" fill="white" stroke="#231F20" stroke-linejoin="round"/>
<path d="M74.08 49.7401C73.67 49.7401 67.53 53.1401 65.49 54.2801L64.83 54.6401L57.75 46.4001L60.86 41.4001L61.32 40.5901L74.08 49.7401Z" fill="white" stroke="#231F20" stroke-linejoin="round"/>
<path d="M80 218L79.77 237.36L70 241.8C70 241.8 70 226.53 70 225.8C69.9265 225.794 69.853 225.812 69.79 225.85L69.63 225.93L69.44 226.04C67.1 227.39 58.44 234.24 58.44 234.24L58.14 234L57.26 218V214.27H57.47C58.55 215.55 60.71 218.01 61.07 218.01L80 218Z" fill="#40403E"/>
<path d="M128.62 266L117 353.4L102.92 354.8L77.77 272.51C77.77 272.51 88.51 263.71 99.28 255.05C101.55 253.22 103.82 251.39 105.99 249.66C105.68 257.37 104.04 291.84 104.04 291.84C104.04 291.84 116.74 320 117.1 319.44C117.46 318.88 128.19 267.56 128.62 266Z" fill="#40403E"/>
<path d="M47.94 509.12L20.34 510.69C20.34 510.69 10.34 511.9 9.54999 511.69C8.75999 511.48 0.75 509.52 0.75 509.52L1.51001 506.13L15.37 506.84H15.83L26.64 507.53L40.51 504.35L41.05 504.23H41.22C41.58 504.13 47.45 502.57 47.63 502.62C47.86 506.24 47.94 509.12 47.94 509.12Z" fill="#5A5755"/>
<path d="M26.57 507.42L40.55 504.4L26.68 507.58L15.87 506.89L15.41 506.87H15.4L15.37 506.86L15.67 506.87L26.57 507.42Z" fill="#001750"/>
<path d="M47.73 502.61C47.55 502.56 41.68 504.12 41.32 504.22L41.27 504.09L41.22 503.95L40.9 503.03C40.82 502.78 40.71 502.5 40.6 502.19C40.49 501.88 40.36 501.54 40.22 501.19L40.07 500.78C40.01 500.62 39.95 500.44 39.88 500.27C39.65 499.64 39.4 498.97 39.12 498.27C39.05 498.05 38.96 497.84 38.87 497.61C38.58 496.86 38.29 496.07 37.98 495.27C37.8 494.83 37.64 494.39 37.47 493.94C37.04 492.84 36.62 491.75 36.23 490.73L35.81 489.65C35.4 488.65 35.04 487.65 34.74 486.92C34.7061 486.814 34.666 486.711 34.62 486.61L34.47 486.22C34.41 486.07 34.36 485.92 34.31 485.8L34.17 485.45C34.06 485.15 33.99 484.98 33.99 484.98L34.12 484.2V485.2H46.61C46.68 485.18 47.55 496.39 47.73 502.61Z" fill="#C7C6C1"/>
<path d="M40.14 471.34H39.91V470.84L40.14 471.34Z" fill="#1C387F" stroke="#9AB8C7" stroke-miterlimit="10"/>
<path d="M41.13 504.27H41.08L40.55 504.4L26.68 507.58L15.87 506.89H15.41L6.91003 502.64L25.32 493.22L27.76 494.9L28.64 495.5L29.27 495.94L30.1 496.52C34.3 499.43 40 503.4 41.13 504.27Z" fill="#C7C6C1"/>
<path d="M15.41 506.87L1.51001 506.15L6.87 502.61L15.41 506.87Z" fill="#29272C"/>
<path d="M137.13 500.01L119.93 494.22L119.38 484.82L119.45 485.18H131.77L137.13 500.01Z" fill="#29272C"/>
<path d="M140.52 508.31L122.45 508C122.45 508 120 500.42 120 500.1V494.47V494.22L137.2 500.01L140.52 508.31Z" fill="#C7C6C1"/>
<path d="M141.68 511.13L131.56 514.53H122.56L118.32 509.09L119.95 500.42V500.1C119.95 500.42 122.43 507.97 122.43 507.97L140.5 508.31L141.68 511.13Z" fill="#5A5755"/>
<path d="M41.32 504.22H41.15L30.15 496.44L29.32 495.86L28.69 495.42L27.81 494.82L25.37 493.14L34 485C34 485 34.07 485.17 34.18 485.47L34.32 485.82C34.37 485.94 34.42 486.09 34.48 486.24L34.63 486.63C34.676 486.731 34.7161 486.834 34.75 486.94L40.08 500.81L40.23 501.22L41.28 503.93C41.2918 504.014 41.3085 504.098 41.33 504.18C41.3258 504.193 41.3225 504.206 41.32 504.22V504.22Z" fill="#29272C"/>
<path d="M55.68 103L45.78 112.7L42.5 115.91L42.08 117.84C41.03 122.76 38.27 135.35 37.7 135.35C37.5 135.35 35.55 135.95 35.55 135.95L29.47 138.7L25.38 134.33L23.89 121.33L27.71 128.02L37.81 115.16L48.15 106.85L43.34 100.85L46.49 99.97L55.68 103Z" fill="#40403E"/>
<path d="M21.3501 253.6C21.3501 253.6 14.7001 257.68 14.5901 258.17C14.4801 258.66 5.68008 250.7 4.64008 249.75C4.33008 255.94 6.38007 279.16 6.38007 279.16L8.11005 280.61L17.55 277.66L25.05 268.27L21.3501 253.6ZM8.11005 277L7.50006 261.41L10.2401 274.9L8.11005 277Z" fill="#A1A0A0"/>
<path d="M18.39 197.48L16.26 217.25L14.26 202.2L14.51 197.43C14.5071 197.383 14.5071 197.337 14.51 197.29L17.12 196.29L18.39 197.48Z" fill="#29272C"/>
<path d="M16.3301 249.23L21.3301 253.6C21.3301 253.6 14.6801 257.68 14.5701 258.16C14.4601 258.64 5.66006 250.7 4.62006 249.75C4.6113 249.272 4.66509 248.794 4.78006 248.33C5.37006 247.42 14.1101 200.33 14.4801 197.43L14.2301 202.2L16.2301 217.25L14.5601 232.79L21.6801 243L10.9301 245.31L7.50007 249.31L16.3301 249.23Z" fill="#C7C6C1"/>
<path d="M32.32 206.55L21.68 242.97L14.59 232.79L16.26 217.25L18.39 197.49L21.99 199.36L22.06 199.4L23.78 200.3L24.48 200.67L31.26 204.2L31.32 204.33L32.32 206.55Z" fill="#40403E"/>
<path d="M20.83 251.99L21.35 253.6L16.32 249.23H7.5L10.94 245.28L21.69 242.97L20.83 251.99Z" fill="#40403E"/>
<path d="M26.92 286.57L13.84 287.54L8.10999 280.6L17.55 277.66L25.05 268.27L27.23 274.94L26.92 286.57Z" fill="#C7C6C1"/>
<path d="M107.86 172L100 189.3L100.06 189.57C98.69 187.57 98.55 183.7 98.17 183.7C97.79 183.7 91.98 181.26 89.35 180.25C89.3547 180.214 89.3547 180.177 89.35 180.14C89.81 178.04 90.09 176.62 90.09 176.62L92.68 177.72L97.24 166.08L103.87 156.8L108.75 152.07L116.97 144.07C119.04 145.57 118.27 146.64 118.27 146.64L107.86 172Z" fill="#40403E"/>
<path d="M106 208.27L84.42 218V213.11L57.23 214.27V218L51.49 209.9L49.14 174.8L39.05 162.65L37.64 160.54L32.64 150.72L33.31 149.49L39.55 158.28L41.62 159.75L46.96 163.54L55.73 176.84L57.28 176.02L67.96 191.26C69.34 187.38 70.7133 183.503 72.08 179.63L77.08 190.22L89.41 180.22C92.04 181.22 97.79 183.67 98.23 183.67C98.67 183.67 98.75 187.52 100.12 189.54C100.48 191.89 106 208.27 106 208.27Z" fill="#40403E"/>
<path d="M108.75 152.07L103.87 156.8L97.2401 166.08L92.6901 177.72L90.1001 176.62L71.3501 168.67L57.2301 176.05L55.6801 176.87L46.9101 163.57L41.5701 159.78L52.8201 162.67L64.08 145.23L70.8701 159.91L76.0001 147.65C76.0001 147.65 90.2001 161.08 90.5601 160.92C90.9201 160.76 108.21 152.34 108.75 152.07Z" fill="#5A5755"/>
<path d="M90.09 176.62C90.09 176.62 89.81 178.04 89.35 180.14V180.25L79.08 195.41C76.7533 190.743 74.42 186.077 72.08 181.41C70.3867 186.137 68.69 190.863 66.99 195.59C63.7433 189.083 60.4967 182.57 57.25 176.05L71.38 168.67L90.09 176.62Z" fill="#A1A0A0"/>
<path d="M117 144.11L108.78 152.11C108.24 152.38 90.96 160.8 90.6 160.96C90.24 161.12 76 147.65 76 147.65L90.4 138.3C90.4 138.3 103.04 133.94 103.66 134.42L117 144.11Z" fill="#A1A0A0"/>
<path d="M49.23 252.06L38.23 240.3L45.3 224.13C45.74 224.43 46.3 224.88 47.05 225.41L49.23 252.06Z" fill="#29272C"/>
<path d="M58.41 234.24C58.41 234.24 51 228.42 47 225.41C46.29 224.88 45.69 224.41 45.25 224.13L51.45 209.94L57.19 218.04L58.41 234.24Z" fill="#A1A0A0"/>
<path d="M70 241.8L58.38 234.24C60.23 232.74 67.82 226.93 69.61 225.93L69.77 225.85C69.833 225.812 69.9065 225.794 69.98 225.8V225.8C70.07 226.53 70 241.8 70 241.8Z" fill="#C7C6C1"/>
<path d="M111.03 223.66L107.09 225.01L84.42 232.79V218.04L106.02 208.27L111.03 223.66Z" fill="#A1A0A0"/>
<path d="M117 353.4C117 353.4 112 374 111.78 374.88C111.56 375.76 102.92 354.8 102.92 354.8L117 353.4Z" fill="#C7C6C1"/>
<path d="M79 304.18C79.26 302.8 64.54 355.59 64.54 355.59L59.75 362C59.75 362 62.03 352.53 62.28 351.73C62.53 350.93 76.63 300 76.63 300C76.63 300 67.26 296.56 68.92 296.81C71.5048 296.95 74.0952 296.95 76.68 296.81L81.75 295.29L98.31 360.41C97.84 358.81 78.77 305.53 79 304.18Z" fill="#29272C"/>
<path d="M125 352.3L128.6 265.97L117 353.41C117 353.41 112 374 111.77 374.88C111.54 375.76 102.92 354.8 102.92 354.8L81.8401 285.8L77.7601 272.47L78.0301 272.25L78.5101 271.86L79.61 270.96L80.61 270.17C83.27 268 87.5501 264.51 92.3501 260.62L94.1801 259.14L99.3 255.01L107.14 225.01L102.76 226.51L84.4801 232.79V235.28L79.7901 237.41L70.1001 241.81L58.6401 234.35L58.4801 234.23H58.4101L58.1901 234.06L57.4501 233.48L57.2101 233.29L56.9001 233.04L56.36 232.62C55.05 231.62 53.2801 230.21 51.5201 228.85L50.1301 227.77C49.0401 226.93 48.0001 226.13 47.1301 225.47L49.3201 252.11L51.3201 254.24L53.2501 256.3L70.1201 274.3L67.9701 285.63L53.8901 359.71L40.9501 351.71L34.9501 281.82L32.5601 329.64L35.2101 348.69L32.7501 375L35.1201 384.55L34.1901 471.31H39.9101V414.11C39.9801 413.65 41.4001 410.35 43.4001 405.82L44.11 404.22C44.23 403.95 44.3501 403.67 44.4801 403.39L45.6401 400.8C46.4301 399.02 47.2701 397.17 48.1201 395.29C48.4001 394.67 48.6901 394.05 48.9701 393.42C52.7901 384.98 56.6101 376.64 57.7201 374.25L57.83 374L57.9801 373.67V373.56L62.4101 392.43L47.2701 471.35H51.0401L68.5101 389.57L59.7501 362C59.7501 362 62.0201 352.53 62.2801 351.74C62.2801 351.67 62.4501 351.15 62.6901 350.28C62.7801 349.99 62.8701 349.66 62.9701 349.28C63.1801 348.55 63.4201 347.67 63.7001 346.67L64.1401 345.08C64.3801 344.24 64.6301 343.34 64.8901 342.39C65.1501 341.44 65.4301 340.39 65.7201 339.39C66.1101 338 66.5201 336.54 66.9301 335.02C71.1301 319.91 76.6301 300.02 76.6301 300.02C76.3701 299.92 67.2901 296.58 68.9301 296.84C71.515 296.974 74.1051 296.974 76.6901 296.84L81.7601 295.31L98.2801 360.31V360.42L96.7201 384.75C96.7201 384.75 117.33 476.23 118.39 477.06C118.546 477.152 118.72 477.21 118.9 477.23C120.982 477.452 123.079 477.509 125.17 477.4V477.4H126.03L117.08 417.32C117.08 417.32 127.91 381.32 127.91 380.63C127.91 379.94 131.07 384.84 131.07 384.84L131.32 477.18C131.97 477.18 132.47 477.11 132.71 477.11L132.92 475.4C133.3 462.63 132.06 383.57 133.03 383.32C134 383.07 125 352.3 125 352.3ZM35.05 370.23L38.5701 353.41C39.5701 353.84 49.3401 364.16 49.3401 364.16L35.05 370.23Z" fill="#5A5755"/>
<path d="M120.69 238.38C119.59 238.89 113.36 243.76 105.96 249.66C103.79 251.39 101.52 253.22 99.25 255.05L107.09 225.05L111.03 223.7L120.29 237.39L120.69 238.38Z" fill="#29272C"/>
<path d="M128.63 265.91C128.2 267.52 117.43 318.85 117.08 319.4C116.73 319.95 104 291.84 104 291.84C104 291.84 105.64 257.37 105.95 249.66C113.35 243.76 119.58 238.89 120.68 238.38L128.63 265.91Z" fill="#C7C6C1"/>
<path d="M150.52 218V248.24L146.91 255L143.48 249.14L131.26 262.14L131.68 269.65H136.42V281.44L147.5 284.21L155.68 276.67C155.68 276.67 158.33 245.38 158.59 244.28C158.8 243.44 159.91 217.47 161.65 204.52C161.46 204.75 156.9 211 150.52 218ZM147.52 279.53L149.33 272.47V260.39L152.69 274.89L147.52 279.53Z" fill="#A1A0A0"/>
<path d="M155.69 276.67L152.79 284.09L140.6 291.14L133.6 289.5L131.69 269.65H136.42V281.45L147.51 284.21L155.69 276.67Z" fill="#C7C6C1"/>
<path d="M150.53 218V248.24L146.91 255L143.49 249.15L135.49 214.05C135.49 214.05 140.65 227.6 140.86 228.23C140.92 228.51 145.46 223.62 150.53 218Z" fill="#C7C6C1"/>
<path d="M131.14 384.87L131.38 477.2C130.08 477.27 128.1 477.37 126.09 477.43L117.14 417.35C117.14 417.35 127.97 381.35 127.97 380.66C127.97 379.97 131.14 384.87 131.14 384.87Z" fill="#29272C"/>
<path d="M113.42 117.73L79.4201 128.98L70.0001 142.5L60.9301 127.6L42.0601 117.87L42.4801 115.93L45.7601 112.73C45.4601 113.18 45.7601 116.15 45.7601 116.15L69.6401 125.48L72.1901 126.48L111.32 114.23L113.42 117.73Z" fill="#29272C"/>
<path d="M64.08 145.23L52.82 162.67L41.57 159.78L39.5 158.31L33.26 149.52L36.14 137.47V137.46L39.44 133.99L53.56 134.61L64.08 145.23Z" fill="#A1A0A0"/>
<path d="M84.42 218V232.75V235.23L79.72 237.36L80 218H61C60.64 218 58.48 215.54 57.4 214.26L84.4 213.11V218H84.42Z" fill="#C7C6C1"/>
<path d="M52.84 293.3C52.84 293.3 42.39 318.7 42.23 317.84C42.07 316.98 35.53 284.09 34.86 281.6V280.71L37.53 241.82L38.19 240.32L49.19 252.08L51.19 254.21L52.84 293.3Z" fill="#C7C6C1"/>
<path d="M70 274.26L53.8 359.67L40.85 351.67L34.85 281.78V281.61C35.52 284.1 42.04 317.01 42.22 317.85C42.4 318.69 52.83 293.31 52.83 293.31L51.22 254.2L70 274.26Z" fill="#40403E"/>
<path d="M49.36 364.15L35.0701 370.22L38.5901 353.4C39.6201 353.83 49.36 364.15 49.36 364.15Z" fill="#C7C6C1"/>
<path d="M121.66 134.42L118.28 146.68C118.28 146.68 119.05 145.61 116.98 144.11L103.67 134.42C103.05 133.94 90.41 138.3 90.41 138.3L76 147.65L70.85 159.91L64.08 145.23L53.55 134.61L39.45 134L36.14 137.47L37.67 135.35C38.24 135.35 41 122.76 42.05 117.84L60.92 127.59L70 142.5L79.44 129L113.44 117.74C117.87 125.12 121.22 134.64 121.66 134.42Z" fill="#C7C6C1"/>
<path d="M152.68 274.88L147.51 279.57L149.31 272.51V260.39L152.68 274.88Z" fill="#40403E"/>
<path d="M10.25 274.88L8.10999 276.98L7.5 261.4L10.25 274.88Z" fill="#40403E"/>
<path d="M62.46 392.42L47.32 471.34H40.14L39.91 470.84V414.14C39.91 412.99 58.03 373.55 58.03 373.55L62.46 392.42Z" fill="#29272C"/>
<path d="M51.1 471.34L46.59 485.18H34.1L34.11 484.18L34.2 471.34H51.1Z" fill="#40403E"/>
<path d="M132.77 477.13L131.77 485.13H119.45L119.38 484.77L118.93 477.24C121.016 477.458 123.116 477.511 125.21 477.4C127.51 477.35 129.89 477.23 131.38 477.15L132.77 477.13Z" fill="#40403E"/>
<path d="M136.97 110.32L108.09 109.11L116.44 103.66L124 100.83L136.97 110.32Z" fill="#C7C6C1"/>
<path d="M137.38 128.71V128.76L137.29 128.74L126.01 126.76L108.09 109.11L136.97 110.32L137.38 128.71Z" fill="#5A5755"/>
<path d="M137.38 128.76L132.63 130.44L131 131C127.33 132.31 123.29 133.75 122.13 134.21L121.94 134.28L121.68 134.4C121.16 134.28 117.79 124.91 113.42 117.63L111.33 114.14C109.52 111.14 108.14 109.14 108.14 109.14L126 126.76L137.27 128.76H137.38Z" fill="#A1A0A0"/>
<path d="M44.36 106.81L31.62 107.45L43.31 100.79L44.36 106.81Z" fill="#5A5755"/>
<path d="M48.12 106.81L37.78 115.12L27.68 127.98L23.86 121.29L31.62 107.45L44.36 106.81L43.31 100.79L48.12 106.81Z" fill="#C7C6C1"/>
<path d="M82.3399 33.9399L98.1499 25.4299L76.4399 31.7499L82.3399 33.9399Z" fill="#C7C6C1"/>
<path d="M79.95 63.9099L102.17 54.6399L105.12 57.5999L105.48 56.2299L102.17 54.6399L82.95 60.8199L79.95 63.9099Z" fill="#BC7645"/>
<path d="M77.65 63.9899L61.47 57.1399L74.75 61.1899L77.65 63.9899Z" fill="#9B5023"/>
<path d="M95.71 78.5L85.77 87.34L83.83 88.27L80.03 87.4L78.52 86.93L83.85 86.71L95.71 78.5Z" fill="#9B5023"/>
<path d="M69.24 79.3099L78.52 86.9299L69.24 78.1599V79.3099Z" fill="#9B5023"/>
<path d="M69.24 78.1599C69.24 78.3299 78.73 86.7099 78.73 86.7099H83.85L83.68 87.4099L78.52 86.9299C78.52 86.9299 70.82 80.1799 70.76 80.1899C70.7 80.1999 69.24 78.1599 69.24 78.1599Z" fill="#9B5023"/>
<path d="M76.4401 31.75C76.4401 31.75 71.3801 23.18 71.3001 22.43C71.2201 21.68 80.8701 4.27002 80.8701 4.27002C80.8701 4.27002 75.8701 19.97 76.0801 20.16C76.2901 20.35 81.7101 29.69 81.7101 29.69L76.4401 31.75Z" fill="#97712D"/>
<path d="M102.15 6.92C101.53 6.74 95.7099 9.15001 95.7099 9.15001C95.7099 9.15001 89.2899 25.66 89.5699 25.43C89.8499 25.2 96.9099 10.67 96.9099 10.67L102.15 6.92Z" fill="#97712D"/>
<path d="M47.3101 24.3299L63.4001 15.5699L72.33 18.0099L62.3201 5.41992L47.3101 24.3299Z" fill="#97712D"/>
<path d="M99.2499 367.65C99.7699 368.57 114.16 406.53 114.16 406.53L97.9299 385.41L99.2499 367.65Z" fill="#C7C6C1"/>
<path d="M49.36 370.22L36.64 374.91L39.91 414.14L58.03 373.55L49.36 370.22Z" fill="#40403E"/>
<path d="M58.58 234.35L53.16 256.25L70.03 274.26L67.88 285.58L75.16 287.54L81.81 285.84L77.74 272.51L94.13 259.18L102.89 225.8L84.42 232.79V235.27L70.03 241.8L58.58 234.35Z" fill="#29272C"/>
<path d="M146.32 153.23C141.98 151.7 136.02 149.64 132.64 148.47L130.03 147.56L130.6 146.56L134.44 139.85L138.71 132.4L146.16 152.78L146.32 153.23Z" fill="#5A5755"/>
<path d="M121.66 134.42L121.95 134.3L121.66 134.42Z" fill="#602852"/>
<path d="M138.71 132.41L134.44 139.86L130.6 146.56L130.03 147.56L118.94 147.84V147.77L118.33 146.7V146.63L118.43 146.25L119.64 141.82L121.64 134.42C122.35 134.05 137.37 128.76 137.37 128.76L138.71 132.41Z" fill="#40403E"/>
<path d="M158 191.14L144.39 185.21L144.47 184.88L144.89 183.11L149.78 162.73L156.71 181.73L158 191.14Z" fill="#40403E"/>
<path d="M147.62 204.73C147.71 205.35 147.77 205.73 147.77 205.94C147.77 207.32 137.95 214.34 137.95 214.34L138.59 197.92V197.78L139 187.21L138.77 186.96V186.65L137.52 182.65L135.82 177.21L118.92 147.85V147.78C121.71 147.5 129.85 146.68 130.57 146.58H130.62C131.268 146.74 131.903 146.947 132.52 147.2C135.61 148.37 141.7 150.91 146.18 152.8L146.34 153.24L149.82 162.74L144.93 183.12L144.51 184.89L144.43 185.22L144.5 185.65L144.57 186.05C144.84 187.6 145.43 191.05 146.04 194.71C146.67 198.62 147.34 202.71 147.62 204.73Z" fill="#C7C6C1"/>
<path d="M147.62 204.73C147.71 205.35 147.77 205.73 147.77 205.94L147.58 204.76L146 195.2L144.55 186L144.48 185.6L144.41 185.17L158 191.14L158.57 195.34L147.62 204.73Z" fill="#5A5755"/>
<path d="M149.7 182.67L144.49 184.88L143.69 185.22L139.01 187.22L138.78 186.97V186.66L137.53 182.66C138.9 182.78 140.53 182.88 141.88 182.96L144.88 183.13L149.7 182.67Z" fill="#29272C"/>
<path d="M33.26 149.53L32.58 150.75C32.5998 150.795 32.6232 150.839 32.65 150.88C33.09 151.69 35.44 156.06 37.12 159.59C37.12 159.59 37.12 159.59 37.12 159.64L37.59 160.64L37.06 165.64V165.75C34.35 168.15 29.26 172.59 27.2 174.37L26.54 174.95C26.4796 174.995 26.4227 175.046 26.37 175.1L26.31 175.15L22.39 150.4C22.54 149.58 22.68 148.77 22.83 147.97L28.75 137.97L28.8 137.89L35.47 135.95L35.78 135.86L37.32 135.42H37.39H37.47H37.62L37.01 136.27L36.94 136.37L36.11 137.52L35.73 139.11L33.26 149.53Z" fill="#5A5755"/>
<path d="M22.41 150.44L26.33 175.19L18.15 181.27C18.45 176.63 18.71 172.56 18.71 171.93C18.71 171.6 19.02 169.67 19.49 166.86C20.22 162.62 21.34 156.34 22.41 150.44Z" fill="#40403E"/>
<path d="M28.82 137.89L28.77 137.97L22.85 147.97C24.2 140.55 25.35 134.28 25.35 134.28L28.82 137.89Z" fill="#C7C6C1"/>
<path d="M37.09 165.67V165.78L34.76 187.87L31.27 204.2L31.33 204.33L28.72 202.93L24.49 200.67L23.79 200.29L24.58 192.51L26.34 175.19L26.4 175.14C26.4527 175.086 26.5096 175.035 26.57 174.99V174.99L27.23 174.41C29.27 172.57 34.38 168 37.09 165.67Z" fill="#29272C"/>
<path d="M26.33 175.19L24.57 192.51L23.78 200.29L18.31 197.49L17.13 196.32C17.13 196.32 17.69 188.16 18.13 181.27C18.43 176.63 18.69 172.56 18.69 171.93C18.69 171.6 19 169.67 19.47 166.86C21.9 169.89 26.33 175.19 26.33 175.19Z" fill="#C7C6C1"/>
<path d="M161.76 198.29C162.035 200.36 162.001 202.46 161.66 204.52V204.52C161.46 204.74 156.9 211.01 150.53 218.03C145.46 223.61 140.92 228.5 140.83 228.22C140.62 227.59 135.46 214.04 135.46 214.04L137.57 213.22L146.24 205.9L158.59 195.33C158.59 195.33 158.33 194.98 159.13 194.16C159.93 193.34 161.76 198.29 161.76 198.29Z" fill="#29272C"/>
</svg>
