<svg width="168" height="480" viewBox="0 0 168 480" fill="none" xmlns="http://www.w3.org/2000/svg">
<path d="M91.46 42.7399H90.34L86.34 42.8099H85.74L81.17 42.89H79.84H78.54H78.44L78.26 42.95L77.82 43.14L77.26 43.3799L74.92 44.4399L74.57 44.5999L74.11 44.8199L73.87 44.9299L73.52 45.0899L71.14 42.6799L64.23 42.4399H63.6C63.72 42.9799 65.43 48.7499 65.43 48.7499L68 55.2399L72.3 61.9599H83.13L90.84 52.8499L90.91 52.7799L91.68 51.8799L91.73 51.8199V51.6299L91.46 42.7399ZM80.34 48.8799C80.65 48.9499 84.77 50.1299 84.77 50.1299L69.6 50.0499L71.22 48.8799C71.22 48.8799 80 48.8199 80.34 48.8799ZM71.66 52.5199H81.13C81.13 52.5199 79 54.9999 78.8 54.9299C78.6 54.8599 73.18 54.9299 73.18 54.9299L71.66 52.5199Z" fill="#A6662F"/>
<path d="M68.4299 0.569824L74.8999 2.37982L82.5699 0.569824L97.5099 4.50981L84.2999 7.80981L72.2399 7.13982L68.4299 0.569824Z" fill="#3E383E"/>
<path d="M164.32 219.12L164.27 219.56L154.58 218.49L165.71 167.77C165.71 167.77 167.12 189.45 167.48 190.14V190.28V190.33C167.67 192.89 164.32 219.12 164.32 219.12Z" fill="#7C4B20"/>
<path d="M160.05 219.1L155.06 245.73L151.57 231.75L146.03 229.18L146.22 228.75L154.58 218.49L160.05 219.1Z" fill="#A4682F"/>
<path d="M155.06 245.73L144.75 247.99L142.88 244.39L148.18 243.24L148.67 238.83L142.88 244.39L140.96 240.66L146.03 229.18L151.57 231.75L155.06 245.73Z" fill="#85491F"/>
<path d="M167.33 245.99L162.3 249.93L144.75 247.99L155.06 245.73L167.33 245.99Z" fill="#4B1D11"/>
<path d="M164.27 219.56L167.33 245.99L155.06 245.73L160.05 219.1L164.27 219.56Z" fill="#85491F"/>
<path d="M141.42 80.6301L129.96 98.11L109.84 84.3801L124.47 76.0601L124.69 76.1601L141.42 80.6301Z" fill="#F8B517"/>
<path d="M98.46 65.4602C93.51 67.6302 80.54 74.6002 79.13 75.0402C79.06 75.0402 79.02 75.0402 79.01 75.0402C78.75 74.8602 72.53 69.7502 68.96 67.0402L78.14 70.5702L97.24 60.4702V64.6002L98.46 65.4602Z" fill="#70411E"/>
<path d="M97.28 54.4702V60.4702L78.18 70.5702L69 67.0502L70 61.5002L71.81 63.6902H83.11L97.28 54.4702Z" fill="#622F13"/>
<path d="M98.05 44.9999L98.6 44.4099L98.05 44.9999L97.28 54.4999L83.12 63.7199L91.71 51.7199C94.2952 48.1262 96.5098 44.2799 98.32 40.2399C98.47 39.8299 98.05 44.7899 98.05 44.9999Z" fill="#471E12"/>
<path d="M91.65 51.7599L83.12 63.6899H71.82L70 61.4999L67.72 55.5999L65.38 48.9999L62.84 42.4199L64.15 42.4899L65.99 48.8399L68.56 55.3299L72.24 62.0499H83.07L91.65 51.7599Z" fill="#78421B"/>
<path d="M103 28.4502L105.14 38.4002L98.05 45.0002C98.05 44.8202 98.4701 39.8602 98.3201 40.2102C99.8046 36.4448 100.79 32.5013 101.25 28.4802L103 28.4502Z" fill="#70411E"/>
<path d="M102.64 13.61L101.47 28.36L92.47 24.09L93.07 14.09L88.73 14.8L77.1 18.26L64.47 13.67L63.23 24.87L63.64 9.19002C63.64 9.19002 74.57 11.59 74.82 11.59C75.07 11.59 91.9 10.01 92.27 9.89003C92.64 9.77003 97.6 7.80002 97.88 7.52002L102.64 13.61Z" fill="#22201F"/>
<path d="M88.78 14.8302L86.22 23.6402C86.22 23.6402 75.1 28.8202 74.92 28.9502C74.74 29.0802 66.69 24.6202 66.32 24.5002C65.95 24.3802 64.52 13.7002 64.52 13.7002L76.65 18.1002L88.78 14.8302Z" fill="#A6662F"/>
<path d="M101.48 28.4499L97.6899 30.4799L92.7599 31.9698L89.9999 28.5999L87.6799 25.7899L92.5199 24.0898L101.47 28.3598H101.46L101.48 28.4499Z" fill="#EE4023"/>
<path d="M98 30.2899C98 30.2899 93.31 39.1699 91.9 41.9299L91.65 42.3999L91.49 42.6899V42.7399L78.49 42.9599C78.2 42.9599 73.49 45.1899 73.49 45.1899L71.11 42.7699L64.57 42.5099L62.88 42.4399L64.88 38.0499L71.75 39.7699L73 32.9999L63.8 28.8099L62.98 25.2999L63.25 24.9399L74.56 31.17L87.79 25.7799L89.99 28.4699L76.62 33.3599L77.78 39.8099C78.06 39.8099 90.17 39.3199 90.37 39.2499C90.57 39.1799 92.75 31.8399 92.75 31.8399L98 30.2899Z" fill="#EE4023"/>
<path d="M73.03 32.96L71.66 39.77L71.13 33.28L63.83 28.77L73.03 32.96Z" fill="#EE4023"/>
<path d="M64.79 38.0497L62.84 42.4398L60.58 33.5098V28.4498L63.01 25.2598L63.83 28.7697L62.08 32.2598L63.69 37.7798L64.79 38.0497Z" fill="#EE4023"/>
<path d="M90.02 28.4302L79.84 33.0902L77.81 39.7702L76.65 33.3202L90.02 28.4302Z" fill="#EE4023"/>
<path d="M101.48 28.4502C101.24 28.8002 100.96 34.4502 98.56 40.1602L98.45 40.4202C96.3 45.4802 92.33 50.5102 91.78 51.6602C91.78 51.6602 91.78 51.8102 91.72 51.8502C91.6987 51.8877 91.6676 51.9188 91.63 51.9402L91.41 42.7202V42.6702C91.41 42.6702 91.5 42.5202 91.57 42.3802L91.82 41.9102C93.3 39.1602 97.92 30.2702 97.92 30.2702L101.1 28.5302L101.39 28.4302L101.48 28.4502Z" fill="#EE4023"/>
<path d="M123.69 103.86L117.55 118.07C117.55 118.07 103 126.57 102.65 126.93C102.3 127.29 75.22 121.51 75.22 121.51L77 98.6201L85.14 82.8101L77.14 87.7001C77.14 87.7001 69.77 83.9101 69.14 83.2601L74.62 99.6501L70.93 122L47.67 128.3L34.91 119.49L47 134.8L63.45 128.8L49.54 141.85L53.77 178.22C53.77 178.22 61.48 196.95 61.94 197.22C62.4 197.49 86.73 197.22 86.73 197.22L104 172L114.33 166.44C114.33 166.32 114.33 166.26 114.33 166.26L114.61 165.5L127 125L123.69 103.86ZM92.63 154.31L92.77 155.96L94.77 180.61L91.59 185.32H91.32L73.6 187.44V130.23L96.2 140.9L92.63 154.31ZM80.21 128.88C80.21 128.88 104.83 133.44 105.5 133.27C106.17 133.1 125.97 117.36 126.59 116.87L107.51 140.87L80.21 128.88Z" fill="#EE4023"/>
<path d="M126.59 116.87L107.51 140.87L80.21 128.87C80.21 128.87 104.83 133.43 105.5 133.26C106.17 133.09 126 117.36 126.59 116.87Z" fill="#7C4B20"/>
<path d="M74.6201 99.6499L70.9301 121.99L47.6701 128.29L34.9101 119.48L34.0701 103.04L49.1801 84.3799L74.6201 99.6499Z" fill="#F8B517"/>
<path d="M49.18 84.3801L31.24 99.6501L26.83 94.3901L33.55 79.2301L45.14 78.3601L45.67 78.1201C46.91 80.0601 49.18 84.3801 49.18 84.3801Z" fill="#F8B517"/>
<path d="M25.54 119.01L25.59 118.87L26.83 94.3901L31.24 99.6501L34.91 119.48L25.54 119.01Z" fill="#EE4023"/>
<path d="M53 201.24L65.32 226.3L64.18 224.51L63.71 223.77L63.45 223.37L62.89 222.48L62.27 221.48L61.94 220.96L60.89 219.31L59.76 217.53L58.97 216.28L58.16 215.01L57.75 214.36L56.95 213.1L55.61 211L54.83 209.76L54.01 208.46C50.35 202.68 47.21 197.65 47.15 197.4L50.56 176.8C50.56 176.8 44.36 138.6 44.56 135.13C43.66 137.56 34.92 157.66 34.2 159.13L18.75 151.31L32.86 138.94L34.86 119.51L47 134.8L63.45 128.8L49.54 141.85L53.77 178.22L53 201.24Z" fill="#7C4B20"/>
<path d="M18.76 151.28L17.55 178.76L7.14999 213.2L1.12 209.76L12.36 163.47L18.76 151.28Z" fill="#F8B517"/>
<path d="M34.16 159.2L32.47 172.89L12.89 213.46L7.15002 213.2L17.55 178.76L34.16 159.2Z" fill="#7C4B20"/>
<path d="M11.89 228.66L3.93994 241.71L0.689941 227.84L1.11993 209.76L7.14993 213.2L11.89 228.66Z" fill="#874A20"/>
<path d="M19.55 225.36L11.89 228.66L7.15002 213.2L12.89 213.46L19.43 225.01L19.55 225.36Z" fill="#A76931"/>
<path d="M22.9 235.25L20.3 237.87L11.89 228.66L19.55 225.36L22.9 235.25Z" fill="#804A1F"/>
<path d="M20.2999 237.87L18.1899 241.84L17.4599 243.21L3.95993 241.79L3.93994 241.71L11.89 228.66L20.2999 237.87Z" fill="#471914"/>
<path d="M118.93 190.89L96.21 211.55L86.4801 226.32C85.9801 225.65 108.01 193.98 107.48 193.48C106.95 192.98 104 172 104 172L114.33 166.44C114.56 168.56 118.79 189.51 118.79 190.34C118.824 190.526 118.871 190.71 118.93 190.89V190.89Z" fill="#7C4B20"/>
<path d="M65.33 226.32L55.7 282L40.53 265.11L47.15 197.41C47.29 198 64.77 225.41 65.32 226.28L65.33 226.32Z" fill="#F8B517"/>
<path d="M131.59 247.83L134.93 304.34C134.93 304.34 125.8 315.41 122.36 320.34C124.86 314.76 130.05 300.79 130.05 300.53C130.05 300.27 117.27 283.53 115.87 280.05C115.96 279.64 115.96 279.42 115.87 279.44C115.78 279.46 115.75 279.68 115.87 280.05C114.87 284.19 103.81 308.2 102.87 310.14L102.81 310.27C95.5799 285.74 85.8099 252.95 85.8099 252.95L80.5499 289.36C80.5499 289.36 75.2899 314.84 75.2399 315.36C73.8373 316.833 72.235 318.102 70.4799 319.13C65.9099 322.01 60.3999 325.49 59.9599 325.78C59.1899 326.29 70.1499 304.89 70.1499 304.89L55.7 282L65.3299 226.3C65.3299 226.3 86.4899 226.96 86.4899 226.3L115.86 278.08L131.59 247.83Z" fill="#7C4B20"/>
<path d="M55.7 282.02L49.97 314.6L40.53 265.13L55.7 282.02Z" fill="#7C4B20"/>
<path d="M73.63 337.69L61.83 352L46.27 327.66L49.49 316.25L49.75 315.35L49.97 314.59L55.7 282L70.24 304.86C70.24 304.86 59.24 326.26 60.05 325.75L75.33 315.33C75.55 314.7 73.63 337.69 73.63 337.69Z" fill="#EE4023"/>
<path d="M79.95 374.52L61.83 352.01L73.63 337.69L79.95 374.52Z" fill="#F4831F"/>
<path d="M79.95 374.52L63.67 444.48L61.83 352.01L79.95 374.52Z" fill="#F4831F"/>
<path d="M52.25 419.28C52.25 419.28 50.02 358.28 49.8 357.62C49.58 356.96 46.27 328.33 46.27 327.62L61.83 352L63.67 444.47L52.25 419.28Z" fill="#7C4B20"/>
<path d="M64.54 467.58L27.71 469.32C27.71 469.32 18.77 472.32 17.9 472.15C17.03 471.98 2.64001 469.76 2.64001 469.76L3.51001 464.31L22.57 465.13L40.14 465.89L56.93 462.19C56.93 462.19 64.09 460.35 64.31 460.41C64.44 464.41 64.54 467.58 64.54 467.58Z" fill="#7C4B20"/>
<path d="M64.31 460.41C64.09 460.35 56.93 462.19 56.93 462.19L48.52 441L52.25 419.09L63.67 444.29C63.78 444.26 64.1 453.56 64.31 460.41Z" fill="#EE4023"/>
<path d="M56.93 462.19L40.14 466.11L22.57 465.35L12.25 460.41L38.53 450.02L56.93 462.19Z" fill="#F4831F"/>
<path d="M22.57 465.35L3.51001 464.31L12.24 460.41H12.25L22.57 465.35Z" fill="#EE4023"/>
<path d="M131.59 247.83L115.86 278.12C115.23 277.5 122.32 211.77 122.32 211.77C127 227.4 131.59 247.83 131.59 247.83Z" fill="#EE4023"/>
<path d="M134.93 304.34C134.93 304.34 134.04 305.42 132.71 307.06L131.9 308.06C131.29 308.81 130.63 309.63 129.9 310.5C129.64 310.82 129.37 311.15 129.11 311.5C128.85 311.85 128.59 312.14 128.34 312.5L127.34 313.72C126.44 314.86 125.55 316.01 124.73 317.07L123.92 318.14C123.892 318.188 123.859 318.231 123.82 318.27C123.42 318.8 123.06 319.27 122.72 319.76L122.38 320.24C122.347 320.278 122.317 320.318 122.29 320.36L122.35 320.23C122.82 319.17 123.35 317.82 123.99 316.34L124.55 314.95L124.61 314.81C125.01 313.81 125.42 312.81 125.82 311.71C125.95 311.39 126.07 311.08 126.19 310.77C126.49 309.99 126.79 309.22 127.07 308.46C127.35 307.7 127.57 307.15 127.8 306.54C128.03 305.93 128.17 305.54 128.33 305.12C128.49 304.7 128.6 304.42 128.72 304.12C128.84 303.82 128.92 303.56 129.02 303.3C129.61 301.7 130.02 300.65 130.02 300.58C130.02 300.35 117.24 283.58 115.84 280.1C115.84 280.18 115.84 280.27 115.77 280.36C115.757 280.424 115.74 280.488 115.72 280.55C115.72 280.63 115.67 280.72 115.64 280.81C115.61 280.9 115.52 281.19 115.44 281.41L115.32 281.75C115.32 281.87 115.23 281.99 115.19 282.12C115.15 282.25 115.09 282.37 115.05 282.5C115.01 282.63 114.94 282.77 114.89 282.91L114.6 283.67L114.48 283.95C114.43 284.09 114.37 284.24 114.31 284.38C114.07 284.99 113.81 285.63 113.53 286.31C113.46 286.48 113.39 286.65 113.31 286.82C113.23 286.99 113.2 287.08 113.14 287.22C113.08 287.36 112.98 287.61 112.89 287.81C112.51 288.7 112.12 289.64 111.7 290.59C111.57 290.91 111.43 291.23 111.29 291.59C111.15 291.91 111.01 292.24 110.86 292.59L109.55 295.59L108.79 297.31L108 299L107.18 300.81L106.47 302.39L105.95 303.53L104.34 307L104 307.72L103.8 308.16C103.75 308.28 103.69 308.39 103.64 308.5L103.54 308.72C103.4 309.02 103.28 309.27 103.19 309.48L103.06 309.77L102.96 309.98V310.09L102.9 310.22L118.12 327.45L121.12 349.21L136.23 334.39L134.93 304.34Z" fill="#EE4023"/>
<path d="M136.26 421.2L116.7 382.28C116.7 382.28 116.7 381.87 116.6 381.14C116.66 379.88 121.09 356.97 121.09 356.97L110.52 336.6C110.52 336.35 107.12 324.74 102.97 310.41L118.19 327.64L121.09 349.28L152.34 417.68L156.34 448.4L136.26 421.2Z" fill="#7C4B20"/>
<path d="M121.09 356.94C121.09 356.94 116.66 379.85 116.6 381.11C116.01 374.11 110.52 337.19 110.52 336.6L121.09 356.94Z" fill="#F4831F"/>
<path d="M152.33 417.68L121.09 349.28L136.19 334.46L146.85 368.14L152.33 417.68Z" fill="#F4831F"/>
<path d="M161.55 460.74L138.59 453.31L136.67 422.04L136.25 421.2L156.29 448.4L161.55 460.74Z" fill="#EE4023"/>
<path d="M166.08 471.38L142 470.94C142 470.94 138.69 461.26 138.69 460.85V453.63L138.64 453.31L161.64 460.74L166.08 471.38Z" fill="#F8B517"/>
<path d="M167.62 475L154.11 479.36H142.11L136.45 472.36L138.63 461.24V460.83C138.63 461.24 141.94 470.92 141.94 470.92L166.07 471.36L167.62 475Z" fill="#7C4B20"/>
<path d="M153.52 154.89C153.52 154.89 147.38 159.99 143.19 163.34C142.19 162.11 136.7 152.52 135.19 151.11C137.62 152.1 152.43 154.77 153.52 154.89Z" fill="#7C4B20"/>
<path d="M154.58 218.49L144.68 181.36L143.33 163.53L143.19 163.34C147.38 159.99 153.52 154.89 153.52 154.89L154.58 218.49Z" fill="#F4831F"/>
<path d="M165.71 167.77L154.58 218.49L153.52 154.89L165.71 167.77Z" fill="#EE4023"/>
<path d="M105.63 70.3602L85.15 82.8102L77.15 87.7002C77.15 87.7002 69.78 83.9102 69.15 83.2602V83.1702C69.4 83.0002 66.46 76.0002 64.27 71.6202L67 69.0002L67.4 68.6202C67.67 68.3802 67.91 68.1502 68.13 67.9402C68.57 67.5302 68.88 67.2102 68.96 67.1102C72.53 69.8302 78.75 74.9402 79.01 75.1102C79.01 75.1102 79.06 75.1102 79.13 75.1102C80.46 74.5802 92.54 66.6702 97.21 64.6802L98.46 65.5302L105.63 70.3602Z" fill="#7C4B20"/>
<path d="M74.6199 99.6499L49.1799 84.3799L69.1099 83.1699L69.14 83.2599L74.6199 99.6499Z" fill="#F8B517"/>
<path d="M34.07 103.04L34.91 119.48L31.24 99.6499L49.18 84.3799L34.07 103.04Z" fill="#7C4B20"/>
<path d="M32.87 138.91L18.76 151.28L20.66 132.17L25.54 119.01L34.91 119.48L32.87 138.91Z" fill="#F8B517"/>
<path d="M34.21 159.1V159.2L17.6 178.76L18.81 151.28L34.21 159.1Z" fill="#EE4023"/>
<path d="M18.19 241.84L7.15002 239.42L10.17 235.77L20.3 237.87L18.19 241.84Z" fill="#804A1F"/>
<path d="M109.84 84.3801L77.01 98.6201L85.15 82.8101L109.84 84.3801Z" fill="#F8B517"/>
<path d="M123.69 103.86L117.55 118.07C117.55 118.07 103 126.58 102.65 126.94C102.3 127.3 75.22 121.51 75.22 121.51L77 98.6199L109.83 84.3799L123.69 103.86Z" fill="#F8B517"/>
<path d="M148.67 238.83L148.18 243.24L142.88 244.39L148.67 238.83Z" fill="#4B1D11"/>
<path d="M92.63 154.31L94.78 180.62L91.6 185.33L73.61 187.48V130.23L96.21 140.9L92.63 154.31Z" fill="#F8B517"/>
<path d="M115.86 278.12L86.49 226.34L96.22 211.57L118.94 190.91C119.49 192.99 120.81 201.23 122.33 211.79C122.32 211.77 115.23 277.5 115.86 278.12Z" fill="#F8B517"/>
<path d="M86.48 226.32C86.48 226.96 65.32 226.32 65.32 226.32L53 201.24L53.77 178.24C53.77 178.24 61.48 196.97 61.94 197.24C62.4 197.51 86.73 197.24 86.73 197.24L104 172C104 172 107 193 107.49 193.45C107.98 193.9 86 225.65 86.48 226.32Z" fill="#EE4023"/>
<path d="M93.12 14.12L92.52 24.12L87.82 25.77L74.59 31.16L63.28 24.93L64.52 13.73C64.52 13.73 65.96 24.41 66.32 24.53C66.68 24.65 74.73 29.1 74.92 28.98C75.11 28.86 86.22 23.67 86.22 23.67L88.78 14.86L93.12 14.12Z" fill="#83491F"/>
<path d="M84.77 50.1302L82.29 50.6902L70.85 50.4202C70.85 50.4202 69.65 50.0502 69.6 50.0502L71.22 48.8802C71.22 48.8802 80.03 48.8202 80.34 48.8802C80.65 48.9402 84.77 50.1302 84.77 50.1302Z" fill="#8F5729"/>
<path d="M81.13 52.52C81.13 52.52 79 55 78.8 54.93C78.6 54.86 73.18 54.93 73.18 54.93L71.66 52.52H81.13Z" fill="#8F5729"/>
<path d="M92.7801 31.8002C92.7801 31.8002 90.6001 39.1402 90.4001 39.2102C90.2001 39.2802 78.0901 39.7702 77.8101 39.7702L79.8101 33.0902L90.0001 28.4302L92.7801 31.8002Z" fill="#FFFDFD" stroke="#231F20" stroke-linejoin="round"/>
<path d="M71.66 39.77L64.79 38.05L63.69 37.78L62.08 32.26L63.83 28.77L71.13 33.28L71.66 39.77Z" fill="#FFFDFD" stroke="#231F20" stroke-linejoin="round"/>
<path d="M78.15 43.0002L91 44.3002L91.7 51.9102L91.49 42.7402L78.49 42.9602L78.15 43.0002Z" fill="#6A3F26"/>
<path d="M102.64 13.6098L90 12.6798L74.89 15.0698L64.77 12.4098L63.67 9.21977L65.07 6.67976L85.75 9.06978L97.49 4.50977L102.64 13.6098Z" fill="#22201F"/>
<path d="M75.2 28.3198L76.6499 25.7598V27.5398L75.2 28.3198Z" fill="#83491F"/>
<path d="M68.1 67.9101C67.88 68.1201 67.64 68.3501 67.37 68.5901L68.93 67.0601C68.85 67.1801 68.54 67.5001 68.1 67.9101Z" fill="#643090"/>
<path d="M69.11 83.1701L49.18 84.3801C49.18 84.3801 47.46 81.1001 46.18 78.9601C45.99 78.6401 45.81 78.3501 45.65 78.1001L49.03 76.1001L49.16 76.0201V76.0801C52.47 75.6901 59.75 75.0801 59.75 75.0801C61.3306 74.0607 62.8226 72.91 64.21 71.6401C66.42 76.0001 69.36 83.0001 69.11 83.1701Z" fill="#EE4023"/>
<path d="M49.18 76V78.89H46.18L33.53 79.14L47.47 76.23L49.18 76Z" fill="#EE4023"/>
<path d="M92.63 154.31L73.61 150.95L72.34 155.29L92.77 155.97L94.59 154.95L92.63 154.31Z" fill="#EE4023"/>
<path d="M53 201.24L65.32 226.3L64.18 224.51L63.71 223.77L63.45 223.37L62.89 222.48L62.27 221.48L61.94 220.96L60.89 219.31L59.76 217.53L58.97 216.28L58.16 215.01L57.75 214.36L56.95 213.1L55.61 211L54.83 209.76L54.01 208.46C50.35 202.68 47.21 197.65 47.15 197.4L50.56 176.8C50.56 176.8 44.36 138.6 44.56 135.13L34.9 119.46L47 134.8L63.45 128.8L49.54 141.85L53.77 178.22L53 201.24Z" fill="#7C4B20"/>
<path d="M97.5099 4.50981V9.21982L74.8099 13.6998L63.6899 9.21982L65.0899 6.67981C66.4599 4.18981 68.3699 0.679824 68.4299 0.569824C68.4299 0.909824 75.5399 5.30981 75.5399 5.30981L79.3699 2.87982L82.5699 4.50981H97.5099Z" fill="#22201F"/>
<path d="M93.12 14.1202C93.12 14.1202 97.26 11.9002 97.22 12.0502C97.18 12.2002 95.65 25.4403 95.65 25.4403L92.52 24.0903L93.12 14.1202Z" fill="#3E383E"/>
<path d="M102.04 30.6802L104.18 38.0602L101.19 41.4902L102.04 30.6802Z" fill="#5C3412"/>
<path d="M101.19 41.4902L99.34 41.3302L102.04 30.6802L103.62 36.0902L101.19 41.4902Z" fill="#5C3412"/>
<path d="M76.65 17.49C76.65 17.3 66.65 9.97003 66.65 9.97003C66.65 9.97003 68.29 1.33003 68.47 1.58003C68.65 1.83003 74.7 9.00003 74.7 9.00003L76.65 17.49Z" fill="#3E383E"/>
<path d="M62.84 42.4399L70.89 43.6499C70.89 43.6499 73.6 45.3399 73.45 45.1899L71.07 42.7699L62.84 42.4399Z" fill="#6A3F26"/>
<path d="M124.47 76.0599L109.84 84.3799L85.15 82.8099L105.63 70.3599L106.88 71.2099L124.47 76.0599Z" fill="#EE4023"/>
<path d="M123.69 103.86L123.64 125.08L114.35 166.47L127.62 124.59L123.69 103.86Z" fill="#F4831F"/>
<path d="M71 137.57C71.34 138.42 70.32 149.88 70.32 149.88L59.1 150.6L61.47 139.76L71 137.57Z" fill="#F8B517"/>
<path d="M102.91 310.1L102.85 310.23C95.62 285.7 85.85 252.91 85.85 252.91L80.59 289.32C80.59 289.32 75.33 314.8 75.28 315.32C73.8774 316.793 72.2751 318.062 70.52 319.09L76.73 298.88L84.86 249.67L77.69 246.33L74.64 237.84L81.11 243.23H89.03C89.03 243.23 90.82 251.54 91.28 252.38C91.74 253.22 102 305.6 102.91 310.1Z" fill="#F4831F"/>
<path d="M38.53 450L48.53 441C48.53 441 57.53 463 56.95 462.44C56.37 461.88 38.53 450 38.53 450Z" fill="#DC5526"/>
<path d="M164.32 219.12L164.27 219.56L154.58 218.49L167.48 190.14V190.28V190.33C167.67 192.89 164.32 219.12 164.32 219.12Z" fill="#F8B517"/>
<path d="M72.24 62.0702C72.37 61.9302 74.14 58.9702 74.14 58.9702L79.29 58.7002L83.07 62.0702L75.87 63.0202L72.24 62.0702Z" fill="#78421B"/>
<path d="M152.1 105.07V105.14L142.44 121.84L127.94 113.3L129.94 98.1099L141.4 80.6299L141.72 80.6799L152.1 105.07Z" fill="#EE4023"/>
<path d="M135.67 127C135.67 127 134.47 149.7 134.85 150.86C134.2 150.78 127.41 126.1 127.41 126.1L121.78 105.24L110.15 84.3599L130 98.0499L128.32 113.21L142.45 121.84L135.67 127Z" fill="#EE4023"/>
<path d="M165.71 167.77L153.52 154.89L142.45 121.84L152.19 104.94C152.09 106 155 119.94 155.14 120.59C155.28 121.24 155.76 134.2 155.76 134.2C155.76 134.2 156.45 153.8 156.52 153.14C156.59 152.48 165.71 167.77 165.71 167.77Z" fill="#7C4B20"/>
<path d="M153.52 154.89C152.43 154.77 137.62 152.1 135.18 151.11C135.03 150.96 134.92 150.88 134.86 150.88C134.48 149.72 135.68 127.02 135.68 127.02L142.45 121.84L153.52 154.89Z" fill="#F8B517"/>
<path d="M47.5 76.2898L49.18 76.0298V76.0898H49.05L47.49 76.2798L47.5 76.2898Z" fill="#662F8E"/>
</svg>
