<svg width="169" height="517" viewBox="0 0 169 517" fill="none" xmlns="http://www.w3.org/2000/svg">
<path d="M126.63 99.1099L115.63 105.76L114.05 105.69L119.86 91.0699L112.58 52.1899L107.42 67.1899L104.81 69.1899V58.1999L101.35 43.6599L98.7801 32.9999L97.4601 27.4299L75.7501 33.7499L59.6501 26.3299L55.6501 32.2699C55.6501 32.2699 55.6501 34.8999 55.6501 37.9099C55.0201 40.4399 53.3701 47.1399 53.3701 47.8499C53.3701 48.7399 54.5001 63.0199 54.8701 63.7699C55.2401 64.5199 50.2601 74.5199 50.2601 74.5199L55.8901 70.6899L60.5601 63.3099L62.1801 73.4199L67.9501 80.7299V100.89L55.6401 105.19L54.9601 104.96L43.8701 101.19L40.55 63.1899L46.55 26.3399L61.55 5.68994L80.0001 0.689941L103.49 7.68994L117.92 33.6899L120.85 54.8299L117.43 57.8899L125.5 86.6799L126.63 99.1099Z" fill="#F9DE2B"/>
<path d="M53.3199 47L46.6699 61.26L45.5799 58.12L43.6699 66L50.9199 103.6C50.9199 103.6 60.1299 96.49 60.7699 95.6C61.4099 94.71 59.1199 70.93 59.1199 70.93L56.4599 55.17L53.3199 47Z" fill="#97712D"/>
<path d="M52.9999 72.65L53.9999 80.7101L52.1999 85.22L50.8999 103.56C50.8999 103.56 62.1299 110.71 62.4299 110.61C62.7299 110.51 70.4299 107.4 70.5899 107C70.7499 106.6 74.5899 96.26 74.4699 94.66C74.3499 93.06 74.5999 79.0801 74.0299 78.7401C73.4599 78.4001 67.2499 72.38 66.8399 72.08C66.4299 71.78 62.7299 63.16 62.7299 63.16L59.2499 61.05L52.9999 72.65Z" fill="#97712D"/>
<path d="M95 80.4699L94.7799 83.8499L78.66 101.16L78.95 122.6L68.95 127.42L45.07 118.08C45.07 118.08 44.75 115.08 45.07 114.65L54.97 104.96L55.6499 105.19L67.9599 100.89V80.7099L62.19 73.3999L60.57 63.2899V63.0299L58.66 58.4399L57.9599 55.9399L60.79 59.1099C60.79 59.1099 73.61 63.1099 74.07 63.1099C74.53 63.1099 78.07 67.1099 78.07 67.1099V73.8499L70.6499 72.4599L73.76 77.3099L78.07 78.6999V88.6499H83.2L95 80.4699Z" fill="#DE9159"/>
<path d="M75.7499 33.7301L71.9799 35.2501L71.6299 39.8701L55.6599 32.2501L59.6499 26.3101L75.7499 33.7301Z" fill="#C7C6C1"/>
<path d="M98.78 32.9799L83.61 39.8899L82.26 40.4999L81.64 35.9199L75.75 33.7299L97.45 27.4099L98.78 32.9799Z" fill="#C7C6C1"/>
<path d="M101.33 43.66L95.0001 40.5C95.0001 40.5 81.4301 49.25 81.0001 49.58C80.5701 49.91 83.5601 39.89 83.5601 39.89L98.7801 33L101.33 43.66Z" fill="#29272C"/>
<path d="M101.33 43.6599L94.9999 40.4999C94.9999 40.4999 81.4299 49.2499 80.9999 49.5799C80.5699 49.9099 83.5599 39.8899 83.5599 39.8899L82.2099 40.4999L76.9099 48.7699L77.6999 54.6299L77.5099 63.8099L82.2099 62.8099L101.43 56.6299L104.74 58.2199L101.33 43.6599ZM78.3299 61.5499L79.5799 55.9399L81.9699 61.5499H78.3299ZM101.33 50.9099L92.9499 56.6099L82.2599 51.9999C82.8899 51.9999 95.8299 43.1499 95.8299 43.1499L101.33 47.6699V50.9099Z" fill="#5A5755"/>
<path d="M74.08 63.1801C73.61 63.1801 60.8 59.1301 60.8 59.1301L58 56.0001C57.0754 52.9022 56.3143 49.7579 55.72 46.5801C55.72 45.8901 55.72 41.6401 55.72 37.9601C55.72 34.9601 55.72 32.3101 55.72 32.3101L60.72 42.6001L60.9 43.2501L61.08 43.8501L57.15 48.4401L64.23 56.6801L64.89 56.3101L74.08 63.1801Z" fill="#5A5755"/>
<path d="M149.2 194.7L149.45 207.77V207.88L148.32 208.88L139.85 216.12L139.76 216.19H139.7L139.63 216.26L142 188.88V188.62L139.7 185.45L135.14 179.16L121.5 152L120.37 149.74L119.84 148.69L121.34 143.24L123.16 136.65L123.22 136.43C123.89 136.08 138.68 129.75 140.51 128.97H140.59H140.68L134.77 142.58V142.65V142.71L131.77 149.5V149.6C131.79 149.664 131.813 149.728 131.84 149.79C131.854 149.838 131.871 149.884 131.89 149.93C131.96 150.14 132.07 150.46 132.22 150.87L132.34 151.21C132.39 151.34 132.43 151.47 132.48 151.62L134.61 157.62C134.78 158.11 134.96 158.62 135.15 159.13C135.34 159.64 135.44 159.93 135.59 160.35L136.02 161.55L136.32 162.38L137.24 164.92C137.4 165.37 137.56 165.82 137.73 166.27C137.82 166.5 137.9 166.73 137.98 166.95L140.14 172.84C140.34 173.36 140.53 173.84 140.72 174.38L141.09 175.38C141.2 175.66 141.3 175.93 141.4 176.2C143 180.43 144.4 184.04 145.29 185.91L145.49 186.33C145.611 186.58 145.744 186.824 145.89 187.06L145.98 187.19C145.98 187.19 146.05 187.26 146.08 187.26H146.13L146.32 187.18C146.489 187.171 146.658 187.206 146.81 187.28C147.563 187.616 148.269 188.05 148.91 188.57L149.5 189.02L150.09 189.49L150.68 189.98C150.87 190.13 151.05 190.29 151.23 190.45L151.75 190.9C151.788 190.925 151.822 190.955 151.85 190.99V190.99C152.69 191.73 153.28 192.28 153.28 192.28L149.2 194.7Z" fill="#DC9159"/>
<path d="M25.25 180.87L25.99 195.58C25.99 195.58 25.61 195.36 25.12 195.1L24.81 194.93C24.53 194.78 24.24 194.64 23.98 194.53L23.79 194.45C23.6851 194.397 23.5743 194.357 23.46 194.33C23.26 194.26 23.13 194.26 23.1 194.33C23.07 194.4 23.04 195.84 23.04 197.45C23.04 199.3 23.04 201.45 23.04 202.45L22.38 202.08L15.48 198.25C15.48 198.25 15.77 191.19 16.03 184.66C16.1 182.66 16.18 180.78 16.24 179.13L17.52 167.51L17.44 167.4C17.52 166.89 17.62 166.4 17.71 165.8C19.65 154.61 23.05 135.91 23.05 135.91L27.14 140.28L28.14 139.96L29.07 139.66L31.74 138.81C32.81 138.47 33.89 138.14 34.8 137.87L24.2 160.22L24.79 171.9V172L25.04 176.77L25.1 177.98L25.24 180.83L25.25 180.87Z" fill="#DC9159"/>
<path d="M161.8 197.31L151.89 205.8C151.79 205.88 151.69 205.97 151.59 206.04L149.45 207.88V207.77L149.2 194.7L153.31 192.17C153.31 192.17 152.72 191.62 151.88 190.88C151.69 190.7 151.48 190.52 151.26 190.34C151.04 190.16 150.9 190.02 150.71 189.87L150.12 189.38L149.53 188.91L148.94 188.46C148.299 187.94 147.593 187.506 146.84 187.17C146.767 187.133 146.69 187.106 146.61 187.09H146.43H146.34C146.304 187.088 146.269 187.095 146.236 187.108C146.203 187.122 146.174 187.143 146.15 187.17V187.17H146.1C146.062 187.155 146.027 187.131 146 187.1L145.87 186.91L145.7 186.62L145.64 186.51L145.48 186.2L145.28 185.78C145.03 185.23 144.72 184.52 144.37 183.69L144 183L143.82 182.55C143.73 182.35 143.65 182.14 143.57 181.93L143.27 181.17L142.77 179.91L142.18 178.38C141.987 177.887 141.797 177.387 141.61 176.88C140.43 173.76 139.13 170.26 137.88 166.82C137.8 166.6 137.72 166.37 137.63 166.14C137.46 165.69 137.3 165.24 137.14 164.79L136.22 162.25C135.97 161.56 135.72 160.88 135.49 160.25L135.05 159.04L134.35 157.04L133.91 155.81L133.5 154.67C133.38 154.3 133.25 153.95 133.13 153.62C133.01 153.29 132.91 153.01 132.81 152.72C132.54 151.94 132.3 151.29 132.12 150.72L132 150.38C132 150.28 131.93 150.19 131.9 150.1L131.79 149.78C131.77 149.734 131.754 149.688 131.74 149.64L131.68 149.48V149.38L134.63 142.61V142.55V142.48L140.45 129.08V129L140.5 128.89V128.96L140.63 128.89L141 130.33L151 157.25V157.33L151.82 159.6L160 182.19L161.57 195.08L161.8 197.31Z" fill="#F1B280"/>
<path d="M107.4 111.08C107.4 111.08 108.65 113.22 110.46 116.26L71.52 128.43L68.96 127.43L78.96 122.61L78.67 101.17L94.79 83.8601L94.33 100.19L114.02 105.69L115.6 105.76L107.4 111.08Z" fill="#F1B380"/>
<path d="M37.8201 167.07L37.7001 167.8L34.0601 189.8L32.8801 207.85L24.8801 203.41L23.1001 202.41C23.1001 201.41 23.1001 199.3 23.1001 197.41C23.1001 195.81 23.1001 194.41 23.1601 194.3C23.2201 194.19 23.3201 194.23 23.5201 194.3C23.6344 194.327 23.7452 194.367 23.8501 194.42L24.0401 194.5C24.1701 194.55 24.3101 194.62 24.4501 194.69C24.5901 194.76 24.9501 194.94 25.1801 195.07L25.5201 195.25L25.8201 195.42L25.9601 195.5L26.0501 195.55L25.3101 180.84L25.1001 178L25.0401 176.79L24.9301 174.71V174.42L24.8001 172V171.86L24.2101 160.18L34.8401 137.82C35.5399 137.588 36.2549 137.404 36.9801 137.27L35.4501 139.39L31.4501 151.44L30.7801 152.67L37.7801 167L37.8201 167.07Z" fill="#F1B280"/>
<path d="M75.9399 52.22L72.8999 47.73L61.5099 43.21H60.8299L60.6499 42.56L55.6899 32.28L71.6599 39.9L74.95 45.4L75.9399 52.22Z" fill="#5A5755"/>
<path d="M82.2599 40.5L76.9599 48.77L74.9299 45.38L71.6299 39.87L71.9799 35.25L75.7499 33.73L81.6399 35.92L82.2599 40.5Z" fill="#29272C"/>
<path d="M119.84 91.0699L114.02 105.69L94.3401 100.19L94.8001 83.8599V83.8499L95.0201 80.4699L99.7701 73.9899L104.79 58.1999V69.1399L107.4 67.1499L112.56 52.1899L119.84 91.0699Z" fill="#97712D"/>
<path d="M104.79 58.2001L99.77 73.9901L95.02 80.4701L83.15 88.6901H78.03V78.7401L81.99 78.1601L86.13 73.8901L90.26 69.1401L86.13 72.5001L78.03 73.8901V67.1501L82.26 62.7901L101.48 56.6201L104.79 58.2001Z" fill="#F1B380"/>
<path d="M90.2599 69.1399L86.1299 73.8899L81.9999 78.1599L78.0399 78.7399L73.7199 77.3499L70.6099 72.4999L76.3599 75.4799L80.4299 75.0499L86.1299 72.4999L90.2599 69.1399Z" fill="#A96739"/>
<path d="M86.1299 72.5L80.4299 75.05L76.3599 75.48L70.6099 72.5L78.0399 73.89L86.1299 72.5Z" fill="#9E5C28"/>
<path d="M81.9901 61.5399H78.3501L79.6101 55.9399L81.9901 61.5399Z" fill="#29272C"/>
<path d="M82.2599 62.7899L77.9999 67.1499C77.9999 67.1499 74.4799 63.1499 73.9999 63.1499L64.7499 56.2399C66.7499 55.0999 72.9299 51.6999 73.3399 51.6999L61.4299 43.1799L72.8299 47.6999L75.8299 52.1799L74.8299 45.3699L76.8299 48.7599L77.6199 54.6199L77.4299 63.7999L82.2599 62.7899Z" fill="#C7C6C1"/>
<path d="M60.58 63.2899L55.91 70.6699L50.28 74.4999C50.28 74.4999 55.28 64.4999 54.89 63.7499C54.5 62.9999 53.39 48.7499 53.39 47.8299C53.39 47.1199 55.04 40.4199 55.67 37.8899C55.67 41.5699 55.67 45.8299 55.67 46.5199C56.2693 49.6966 57.0303 52.8407 57.95 55.9399L58.65 58.4399L60.56 63.0299L60.58 63.2899Z" fill="#F0BC53"/>
<path d="M101.33 47.7099V50.9099L92.95 56.6099L82.26 51.9999C82.89 51.9999 95.83 43.1499 95.83 43.1499L101.33 47.7099Z" fill="white" stroke="#231F20" stroke-linejoin="round"/>
<path d="M73.3901 51.7101C72.9801 51.7101 66.83 55.1101 64.8 56.2501L64.1401 56.6101L57.0601 48.3801L60.1601 43.3801L60.6201 42.5601L73.3901 51.7101Z" fill="white" stroke="#231F20" stroke-linejoin="round"/>
<path d="M79.26 220L79 239.38L69.31 243.78C69.31 243.78 69.31 228.5 69.31 227.78C69.31 227.78 69.2 227.78 69.09 227.78L68.94 227.86L68.75 227.97C66.41 229.32 57.7 236.17 57.7 236.17C57.7 236.17 57.6 236.08 57.41 235.94L56.52 219.94V216.21H56.73C57.82 217.48 59.97 219.94 60.34 219.94L79.26 220Z" fill="#40403E"/>
<path d="M130.67 267.92L116.28 355.38L102.2 356.77L77 274.48C77 274.48 87.75 265.68 98.51 257.02C100.78 255.19 103.06 253.36 105.23 251.63C104.92 259.34 103.28 293.81 103.28 293.81C103.28 293.81 116 322 116.38 321.42C116.76 320.84 130.24 269.53 130.67 267.92Z" fill="#40403E"/>
<path d="M47.2401 511.09L19.6501 512.67C19.6501 512.67 9.65007 513.88 8.85007 513.67L0.0500488 511.5L0.820068 508.12L14.6801 508.82H15.1301L25.9401 509.5L39.8101 506.32L40.3501 506.2H40.5101C40.8701 506.11 46.7401 504.54 46.9201 504.59C47.1601 508.21 47.2401 511.09 47.2401 511.09Z" fill="#5A5755"/>
<path d="M25.8799 509.39L39.8599 506.37L25.9799 509.55L15.17 508.87L14.7199 508.84H14.7099L14.6799 508.83L14.9799 508.84L25.8799 509.39Z" fill="#001750"/>
<path d="M47.0001 504.58C46.8201 504.53 40.9501 506.1 40.5901 506.19L40.5401 506.06V505.92L40.2201 505C40.1301 504.75 40.0301 504.47 39.9101 504.16C39.7901 503.85 39.6801 503.51 39.5401 503.16L39.3801 502.74C39.3301 502.58 39.2701 502.41 39.2001 502.24L38.4401 500.24C38.3601 500.02 38.2801 499.81 38.1901 499.59C37.9001 498.83 37.6001 498.04 37.2901 497.25L36.7901 495.91C36.3601 494.81 35.94 493.72 35.55 492.7L35.1201 491.62C34.7201 490.62 34.36 489.62 34.05 488.89C34.0194 488.785 33.9827 488.681 33.9401 488.58L33.7901 488.2C33.7301 488.04 33.6701 487.89 33.6301 487.77L33.4901 487.43C33.3801 487.12 33.3101 486.96 33.3101 486.96L33.4401 486.18V487.18H45.9201C46.0001 487.16 46.8601 498.37 47.0001 504.58Z" fill="#C7C6C1"/>
<path d="M39.45 473.32H39.21V472.82L39.45 473.32Z" fill="#1C387F" stroke="#9BB8C8" stroke-miterlimit="10"/>
<path d="M40.43 506.24L39.89 506.36L26 509.55L15.19 508.87H14.74L6.23999 504.62L24.65 495.2L27.09 496.88L27.96 497.49L28.59 497.92L29.42 498.5C33.61 501.4 39.32 505.37 40.43 506.24Z" fill="#C7C6C1"/>
<path d="M14.7101 508.84L0.820068 508.13L6.17007 504.58H6.18005L14.7101 508.84Z" fill="#29272C"/>
<path d="M136.44 501.99L119.24 496.19L118.69 486.8L118.75 487.16H131.07L136.44 501.99Z" fill="#29272C"/>
<path d="M139.83 510.29L121.76 509.94C121.76 509.94 119.28 502.39 119.28 502.07V496.44V496.19L136.48 501.99L139.83 510.29Z" fill="#C7C6C1"/>
<path d="M141 513.1L130.88 516.5H121.88L117.64 511.07L119.28 502.39V502.07C119.28 502.39 121.76 509.94 121.76 509.94L139.83 510.29L141 513.1Z" fill="#5A5755"/>
<path d="M40.6299 506.19H40.4699L29.4699 498.4L28.64 497.82L28.0099 497.39L27.14 496.78L24.7 495.1L33.3999 486.88C33.3999 486.88 33.4699 487.04 33.5799 487.35L33.7199 487.69C33.7199 487.81 33.8199 487.96 33.8799 488.12L34.0299 488.5C34.0726 488.601 34.1093 488.704 34.14 488.81L39.4699 502.68L39.6299 503.1L40.6299 505.8C40.6299 505.8 40.6299 506.01 40.6799 506.05C40.7299 506.09 40.6199 506.15 40.6299 506.19Z" fill="#29272C"/>
<path d="M55 104.94L45.1 114.63L41.81 117.84C41.81 117.84 41.66 118.58 41.4 119.78C40.35 124.69 37.59 137.28 37.02 137.28C36.2914 137.418 35.5731 137.605 34.87 137.84C31.98 138.69 27.23 140.25 27.23 140.25L23.15 135.88L19.22 121.76L25.47 129.54L37.13 117.06L47.46 108.75L40 99.8301L43.93 101.17L55 104.94Z" fill="#40403E"/>
<path d="M20.66 255.57C20.66 255.57 14.01 259.65 13.9 260.14C13.79 260.63 4.99003 252.67 3.95003 251.72C3.64003 257.91 4.11 281.98 4.11 281.98L5.84001 283.42L16.84 279.63L25.41 270.29L20.66 255.57ZM5.84001 279.8L6.84001 263.37L9.58 276.85L5.84001 279.8Z" fill="#A1A0A0"/>
<path d="M17.7 199.46L15.57 219.22L13.57 204.17L11 199.6C10.9971 199.553 10.9971 199.507 11 199.46L15.47 198.26L17.7 199.46Z" fill="#29272C"/>
<path d="M15.6301 251.2L20.6301 255.57C20.6301 255.57 13.9801 259.65 13.8701 260.14C13.7601 260.63 4.96013 252.67 3.92013 251.72C3.90616 251.245 3.96001 250.77 4.0801 250.31C4.6601 249.39 10.6401 202.53 11.0101 199.6L13.5301 204.17L15.5301 219.22L13.8601 234.76L21.0001 244.94L10.2501 247.25L6.82012 251.2H15.6301Z" fill="#C7C6C1"/>
<path d="M33.9299 210.24L20.9899 244.94L13.8999 234.76L17.6999 199.46L32.8799 207.88L33.9299 210.24Z" fill="#40403E"/>
<path d="M20.1301 253.96L20.6601 255.57L15.6301 251.2H6.81006L10.2401 247.25L20.9901 244.94L20.1301 253.96Z" fill="#40403E"/>
<path d="M27.9001 289.51H13.1401L5.84009 283.42L16.8601 279.63L25.4301 270.29L27.6101 276.96L27.9001 289.51Z" fill="#C7C6C1"/>
<path d="M107.16 174C107.16 174 101.82 191.32 101.78 191.32C101.805 191.412 101.825 191.506 101.84 191.6C100.47 189.6 97.84 185.72 97.45 185.72C97.06 185.72 91.27 183.28 88.64 182.27C88.6353 182.237 88.6353 182.203 88.64 182.17C89.09 180.07 89.38 178.65 89.38 178.65L91.97 179.75L96.5299 168.1L103.16 158.82L108.03 154.1L116.24 146.1L119.8 148.68L107.16 174Z" fill="#40403E"/>
<path d="M108.05 154.05L103.18 158.77L96.5499 168.05L91.9999 179.7L89.4099 178.6L70.6699 170.6L56.5299 178L54.9799 178.81L46.2199 165.51L40.8799 161.72L52.1299 164.61L63.3899 147.17L70.1699 161.85L75.3199 149.59C75.3199 149.59 89.5199 163.02 89.8699 162.86C90.2199 162.7 107.52 154.31 108.05 154.05Z" fill="#5A5755"/>
<path d="M89.4 178.6C89.4 178.6 89.11 180.02 88.66 182.12C88.6554 182.153 88.6554 182.187 88.66 182.22C87.36 188.22 84.76 199.63 83.74 199.46C82.37 199.22 69.36 193.75 69.36 193.75L57.94 199.46L56.53 178L70.66 170.61L89.4 178.6Z" fill="#A1A0A0"/>
<path d="M116.28 146.08L108.07 154.08C107.54 154.34 90.2601 162.76 89.9001 162.92C89.5401 163.08 75.3301 149.65 75.3301 149.65L89.7401 140.31C89.7401 140.31 102.37 135.94 103 136.42C103.41 136.73 111.47 142.59 116.28 146.08Z" fill="#A1A0A0"/>
<path d="M48.54 254L37.54 242.24L44.61 226.07C45.04 226.37 45.61 226.82 46.36 227.36L48.54 254Z" fill="#29272C"/>
<path d="M57.7101 236.21C57.7101 236.21 50.3301 230.39 46.3501 227.39C45.6401 226.85 45.0301 226.39 44.6001 226.1L50.8001 211.92L56.5301 220.01L57.7101 236.21Z" fill="#A1A0A0"/>
<path d="M69.34 243.78L57.71 236.21C59.57 234.71 67.15 228.9 68.95 227.9L69.1 227.82C69.21 227.82 69.28 227.76 69.32 227.82C69.36 227.88 69.32 227.82 69.32 227.82C69.38 228.5 69.34 243.78 69.34 243.78Z" fill="#C7C6C1"/>
<path d="M110.33 225.63L106.39 226.98L83.73 234.76V220.01L105.32 210.24L110.33 225.63Z" fill="#A1A0A0"/>
<path d="M116.28 355.38C116.28 355.38 111.28 375.97 111.05 376.85C110.82 377.73 102.2 356.77 102.2 356.77L116.28 355.38Z" fill="#C7C6C1"/>
<path d="M78.34 306.15C78.6 304.78 63.87 357.57 63.87 357.57L57.54 363.57C57.54 363.57 61.33 354.46 61.54 353.67C61.75 352.88 75.93 302 75.93 302C75.93 302 66.56 298.56 68.23 298.82C70.815 298.955 73.4051 298.955 75.99 298.82L81.06 297.29L93.43 361.61C93 360 78.08 307.51 78.34 306.15Z" fill="#29272C"/>
<path d="M124.33 354.27L130.68 267.88L116.29 355.34C116.29 355.34 111.29 375.93 111.06 376.81C110.83 377.69 102.21 356.73 102.21 356.73L77 274.48C77 274.48 87.75 265.68 98.51 257.02L106.35 227.02L83.69 234.8V237.29L79 239.38L69.31 243.78L57.85 236.32L57.39 235.98C55.97 234.86 49.83 229.98 46.32 227.39L48.54 254L50.54 256.13L69.35 276.2L53.1 361.64L40.16 353.64L32 283.74L30.59 331.4L34.48 350.61L30.29 377.11L34.48 386.56L33.55 473.32H39.27V416.11C39.27 414.96 57.39 375.53 57.39 375.53L65.77 394.4L46.68 473.32H50.45L71.87 391.54L57.59 363.61C57.59 363.61 61.38 354.5 61.59 353.71C61.8 352.92 75.94 302 75.94 302C75.94 302 66.57 298.56 68.23 298.82C70.815 298.955 73.4051 298.955 75.99 298.82L81.06 297.29L93.43 361.61V386.79C93.43 386.79 116.66 478.27 117.72 479.1C117.873 479.191 118.043 479.249 118.22 479.27C120.306 479.493 122.406 479.547 124.5 479.43H125.39L116.44 419.35C116.44 419.35 127.27 383.35 127.27 382.66C127.27 381.97 132.51 386.08 132.51 386.08L130.68 479.2L132.06 479.13L132.28 477.43C132.66 464.65 135.05 384.81 136.02 384.56C136.99 384.31 124.33 354.27 124.33 354.27ZM34.38 372.19L37.9 355.38C38.9 355.8 48.67 366.13 48.67 366.13L34.38 372.19Z" fill="#5A5755"/>
<path d="M120 240.35C118.9 240.87 112.66 245.74 105.27 251.63C103.1 253.36 100.82 255.19 98.55 257.02L106.39 227.02L110.33 225.67L119.6 239.36L120 240.35Z" fill="#29272C"/>
<path d="M130.68 267.88C130.25 269.49 116.74 320.82 116.39 321.38C116.04 321.94 103.33 293.77 103.33 293.77C103.33 293.77 104.97 259.3 105.28 251.59C112.67 245.7 118.91 240.83 120.01 240.31L130.68 267.88Z" fill="#C7C6C1"/>
<path d="M167.52 204.67C167.33 204.89 160.12 212.99 153.74 220.01V250.25L150.13 257L144.66 249.85L132.77 264.14L133.19 271.65H139.64V283.44L150.72 286.21L161.81 279.54C161.81 279.54 161.55 247.38 161.81 246.28C162 245.42 165.78 217.62 167.52 204.67ZM150.72 281.54L152.53 274.48V262.36L155.89 276.85L150.72 281.54Z" fill="#A1A0A0"/>
<path d="M161.81 279.52L158.91 286.94L143.07 293.81L134.36 292.17L133.19 271.63H139.64V283.42L150.72 286.19L161.81 279.52Z" fill="#C7C6C1"/>
<path d="M153.74 220V250.24L150.13 257L144.66 249.85L137.52 217.13C137.52 217.13 143.84 229.59 144.05 230.22C144.14 230.48 148.68 225.59 153.74 220Z" fill="#C7C6C1"/>
<path d="M168.41 198.14C168.41 198.14 168.06 200.71 167.53 204.66C167.34 204.88 160.13 212.98 153.75 220C148.69 225.58 144.15 230.47 144.06 230.19C143.85 229.56 137.53 217.1 137.53 217.1L139.65 216.27L149.47 207.87L161.82 197.3C161.82 197.3 164.99 194.83 165.82 194.01C166.65 193.19 168.41 198.14 168.41 198.14Z" fill="#29272C"/>
<path d="M132.52 386.05L130.69 479.17C129.38 479.25 127.41 479.34 125.4 479.4L116.45 419.32C116.45 419.32 127.28 383.32 127.28 382.63C127.28 381.94 132.52 386.05 132.52 386.05Z" fill="#29272C"/>
<path d="M112.56 119.78L78.7399 131L69.2999 144.52L60.2199 129.63L41.3599 119.89C41.6199 118.7 41.7699 117.96 41.7699 117.96L45.0599 114.75C44.7499 115.21 45.0599 118.17 45.0599 118.17L68.9999 127.45L71.5599 128.45L110.5 116.29L112.56 119.78Z" fill="#29272C"/>
<path d="M83.73 220V234.75V237.24L79 239.38L79.23 220.01H60.35C59.98 220.01 57.83 217.55 56.74 216.28L83.74 215.12V220H83.73Z" fill="#C7C6C1"/>
<path d="M52.14 295.27C52.14 295.27 41.6999 320.67 41.5299 319.81C41.3599 318.95 32.62 286.06 31.95 283.57V282.67L36.8399 243.79L37.4999 242.28L48.4999 254.04L50.4999 256.17L52.14 295.27Z" fill="#C7C6C1"/>
<path d="M69.34 276.23L53.1 361.64L40.16 353.64L32 283.74V283.57C32.67 286.06 41.41 318.97 41.58 319.81C41.75 320.65 52.19 295.27 52.19 295.27L50.58 256.16L69.34 276.23Z" fill="#40403E"/>
<path d="M48.6699 366.13L34.3799 372.19L37.8999 355.38C38.9299 355.8 48.6699 366.13 48.6699 366.13Z" fill="#C7C6C1"/>
<path d="M155.89 276.86L150.72 281.54L152.53 274.48V262.36L155.89 276.86Z" fill="#40403E"/>
<path d="M9.55008 276.86L5.84009 279.8L6.81009 263.37L9.55008 276.86Z" fill="#40403E"/>
<path d="M65.72 394.4L46.63 473.32H39.45L39.21 472.82V416.11C39.21 414.96 57.33 375.53 57.33 375.53L65.72 394.4Z" fill="#29272C"/>
<path d="M50.4099 473.32L45.8999 487.16H33.4099L33.4199 486.16L33.5099 473.32H50.4099Z" fill="#40403E"/>
<path d="M132.08 479.1L131.08 487.16H118.75L118.68 486.8L118.24 479.26C120.322 479.483 122.419 479.537 124.51 479.42C126.82 479.42 129.19 479.25 130.68 479.17L132.08 479.1Z" fill="#40403E"/>
<path d="M147.68 109L107.31 111.11L115.53 105.79L126.54 99.1301L128.73 97.8201L147.68 109Z" fill="#C7C6C1"/>
<path d="M147.68 109L140.89 128.75V128.88L125.35 129.07L125.16 128.88L107.4 111.15L147.68 109Z" fill="#5A5755"/>
<path d="M43.6701 108.78L27.3201 106.74L39.9601 99.8301L43.6701 108.78Z" fill="#5A5755"/>
<path d="M47.42 108.78L37.0799 117.09L25.4299 129.57L19.1799 121.79L27.3199 106.74L43.67 108.78L39.9599 99.8301L47.42 108.78Z" fill="#C7C6C1"/>
<path d="M81.64 35.9199L97.45 27.4099L75.75 33.7299L81.64 35.9199Z" fill="#C7C6C1"/>
<path d="M79.25 65.8901L101.48 56.6201L104.43 59.5701L104.79 58.2001L101.48 56.6201L82.26 62.7901L79.25 65.8901Z" fill="#BC7645"/>
<path d="M76.96 65.9601L60.77 59.1101L74.05 63.1601L76.96 65.9601Z" fill="#9B5023"/>
<path d="M95.0201 80.47L85.0701 89.31L83.1401 90.25L79.3301 89.37L77.8301 88.9L83.1501 88.69L95.0201 80.47Z" fill="#9B5023"/>
<path d="M67.97 81.85L77.83 88.8999L67.97 80.71V81.85Z" fill="#9B5023"/>
<path d="M68 80.71C68 80.87 78.06 88.71 78.06 88.71H83.19L83.02 89.3999L77.86 88.92C77.86 88.92 69.58 82.7399 69.53 82.7599C69.48 82.7799 68 80.71 68 80.71Z" fill="#9B5023"/>
<path d="M75.75 33.73C75.75 33.73 70.68 25.16 70.61 24.4C70.54 23.64 80.17 6.25 80.17 6.25C80.17 6.25 75.17 21.94 75.39 22.13C75.61 22.32 81.01 31.66 81.01 31.66L75.75 33.73Z" fill="#97712D"/>
<path d="M103.57 7.69011C102.94 7.51011 95.02 11.1201 95.02 11.1201C95.02 11.1201 88.6 27.6401 88.88 27.4101C89.16 27.1801 96.22 12.6401 96.22 12.6401L103.57 7.69011Z" fill="#97712D"/>
<path d="M46.6099 26.3099L62.7099 17.5499L71.6299 19.9899L61.6299 5.65991L46.6099 26.3099Z" fill="#97712D"/>
<path d="M98.55 369.63C99.07 370.55 113.46 408.51 113.46 408.51L97.24 387.38L98.55 369.63Z" fill="#C7C6C1"/>
<path d="M48.67 372.19L35.95 376.88L39.2099 416.11L57.3299 375.53L48.67 372.19Z" fill="#40403E"/>
<path d="M57.88 236.32L52.47 258.22L69.34 276.23L67.18 287.56L74.47 289.51L81.12 287.81L77.04 274.48L93.43 261.15L102.2 227.77L83.73 234.76L83.72 237.25L69.34 243.78L57.88 236.32Z" fill="#29272C"/>
<path d="M132.16 150.77L130.64 150.25L131.16 149.25L134.69 142.62V142.56V142.49L141.14 130.35L151 157.25V157.33C147.25 156 136.22 152.17 132.16 150.77Z" fill="#5A5755"/>
<path d="M161.53 195.08L151.88 190.88L145.05 187.88L145.13 187.55L145.46 186.18L145.55 185.78L151.83 159.59L160 182.19L161.53 195.08Z" fill="#40403E"/>
<path d="M145.16 188.72C145.8 192.45 148.35 207.41 148.38 208.62C148.375 208.7 148.355 208.778 148.32 208.85C147.71 210.22 142.32 214.25 139.85 216.09L139.76 216.16H139.7H139.63L142 188.88V188.62L139.7 185.45L135.14 179.16L121.5 152L121.44 151.88C124.31 151.08 130.49 149.38 131.16 149.29C131.356 149.323 131.55 149.369 131.74 149.43C131.74 149.43 146.92 155.58 150.94 157.29V157.37L151.76 159.64L145.48 185.83L145.39 186.23L145.06 187.6L144.98 187.93L145.16 188.72Z" fill="#C7C6C1"/>
<path d="M161.8 197.31L151.89 205.8C151.79 205.88 151.69 205.97 151.59 206.04L149.45 207.77L148.38 208.62L145.16 188.72L145.02 187.89L151.85 190.89L161.5 195.09L161.8 197.31Z" fill="#5A5755"/>
<path d="M150.3 185.35L146.3 187.05L146.11 187.13H146.06L145.11 187.53L142 188.88V188.62L139.7 185.45C141.97 185.61 144.39 185.73 145.22 185.77H145.51L150.3 185.35Z" fill="#29272C"/>
<path d="M141.22 130.32L134.77 142.46V142.53V142.59L131.24 149.22L121.5 152L119.84 148.69L121.34 143.24L123.13 136.45H123.19L123.35 136.37L123.75 136.2L124.04 136.07L124.46 135.89L124.67 135.8L125.04 135.64L125.6 135.4L125.94 135.25L127.94 134.4L135.83 131L137.13 130.44L140.18 129.13L140.51 128.99H140.59H140.64L140.84 128.88V129.01L141.22 130.32Z" fill="#40403E"/>
<path d="M37.1501 137.08L35.4901 139.78L32.4401 151.44L31.7701 152.67C31.7701 152.67 38.4501 166.41 37.7701 167.13C37.0901 167.85 25.6801 177.53 25.6801 177.53L21.55 151.44L27.1901 140.28L37.1501 137.08Z" fill="#5A5755"/>
<path d="M25.6701 177.5L25.0901 177.93L16.0901 184.63C16.1601 182.63 16.2401 180.75 16.3001 179.1L17.5801 167.48L17.7701 165.77C19.7101 154.58 23.1101 135.88 23.1101 135.88L27.2001 140.25L21.5601 151.42L24.8001 171.88V172L25.6801 177.52L25.6701 177.5Z" fill="#40403E"/>
<path d="M37.7699 167.13L37.7 167.8L34.0599 189.8L32.8799 207.85L24.8799 203.41L23.0999 202.41L22.4399 202.04C22.4399 202.04 22.4899 201.7 22.5599 201.11C22.5599 200.91 22.6199 200.68 22.6499 200.43C22.6799 200.18 22.7099 200.01 22.7399 199.77C22.8299 199.11 22.9299 198.32 23.0499 197.45C23.0499 197.27 23.0499 197.08 23.1299 196.88C23.2099 196.68 23.2199 196.23 23.2599 195.88C23.2551 195.797 23.2551 195.713 23.2599 195.63L23.4299 194.33C23.4999 193.79 23.5699 193.23 23.6499 192.65L23.7999 191.52C24.0199 189.81 24.2599 188.06 24.4799 186.39C24.5299 186.05 24.5699 185.71 24.6199 185.39C24.6699 185.07 24.6699 184.94 24.7099 184.72C24.7699 184.2 24.8399 183.72 24.8999 183.23C24.9599 182.74 24.9899 182.58 25.0299 182.23C25.0699 181.88 25.1099 181.62 25.1499 181.33V181.07V180.84L25.2399 180.13L25.3299 179.43C25.3299 179.21 25.3799 179.01 25.4099 178.82L25.4799 178.32L25.5899 177.5L25.7199 177.39L26.0699 177.09C28.1599 175.26 36.4099 168.09 37.5699 167.19H37.6199L37.7699 167.13Z" fill="#29272C"/>
<path d="M25.6899 177.52L25.5799 178.34C25.5799 178.49 25.5299 178.65 25.5099 178.84C25.4899 179.03 25.4599 179.23 25.4299 179.45C25.3999 179.67 25.3699 179.9 25.3399 180.15C25.3099 180.4 25.2799 180.58 25.2399 180.81V181.06V181.32C25.1999 181.607 25.1599 181.907 25.1199 182.22C25.1199 182.53 25.0299 182.85 24.9899 183.22C24.9499 183.59 24.8599 184.22 24.7999 184.71C24.7999 184.93 24.7299 185.16 24.7099 185.38C24.6899 185.6 24.6199 186.05 24.5699 186.38C24.3499 188.05 24.1099 189.8 23.8899 191.51L23.7399 192.64C23.6599 193.22 23.5899 193.78 23.5199 194.32L23.3499 195.62C23.3451 195.703 23.3451 195.787 23.3499 195.87C23.3499 196.21 23.2599 196.54 23.2199 196.87C23.1799 197.2 23.1699 197.27 23.1399 197.45C23.0199 198.32 22.9199 199.11 22.8299 199.77C22.8299 200.01 22.7999 200.23 22.7399 200.43C22.7399 200.68 22.6799 200.91 22.6499 201.11C22.5799 201.7 22.5299 202.04 22.5299 202.04L15.6299 198.21C15.6299 198.21 15.9199 191.15 16.1799 184.62C16.2499 182.62 16.3299 180.74 16.3899 179.09L17.6699 167.47C18.7399 169 23.4099 174.62 25.1399 176.7L25.7699 177.44L25.6899 177.52Z" fill="#C7C6C1"/>
<path d="M140.85 128.88C140.85 128.88 140.85 128.88 140.73 128.94H140.63L140.46 129.02C138.76 129.73 132.46 132.38 127.95 134.29L125.95 135.14L125.61 135.29L125.05 135.53L124.68 135.69L124.47 135.78L124.05 135.96L123.76 136.09L123.36 136.26L123.2 136.34C122.65 136.34 116.96 127.03 112.56 119.7L110.46 116.21C108.81 113.43 107.62 111.4 107.46 111.08L125.25 128.86L140.85 128.88Z" fill="#A1A0A0"/>
<path d="M63.39 147.2L52.13 164.64L40.88 161.75L38.8 160.29L31.46 151.5L35.45 139.44L38.75 135.96L52.87 136.58L63.39 147.2Z" fill="#A1A0A0"/>
<path d="M105.32 210.24L83.7301 220V215.11L56.5401 216.27V220L50.8101 211.91L48.0901 177.21L39.6601 170.79L37.8401 167.08L30.8401 152.73L31.5101 151.5L38.8501 160.3L40.9301 161.76L46.2701 165.55L55.0301 178.85L56.5801 178.04L57.9701 199.47L69.3901 193.76C69.3901 193.76 82.3901 199.23 83.7701 199.47C84.7701 199.64 87.3901 188.25 88.6901 182.23C91.3201 183.23 97.0701 185.68 97.5001 185.68C97.9301 185.68 100.5 189.53 101.89 191.56C102.29 193.86 105.32 210.24 105.32 210.24Z" fill="#40403E"/>
<path d="M123.22 136.39L119.84 148.66L116.28 146.08C111.47 142.59 103.41 136.73 102.98 136.39C102.35 135.91 89.7199 140.28 89.7199 140.28L75.3099 149.62L70.17 161.88L63.39 147.2L52.8699 136.58L38.7499 136L35.45 139.47L36.9799 137.35C37.5499 137.35 40.3099 124.76 41.3599 119.85L60.2199 129.6L69.2999 144.51L78.7399 130.97L112.56 119.79C117 127.17 122.78 136.62 123.22 136.39Z" fill="#C7C6C1"/>
<path d="M109.89 160C109.77 160.43 99.2401 173.36 99.2401 173.36L99.0801 178.3" fill="#A1A0A0"/>
</svg>
