<svg width="169" height="517" viewBox="0 0 169 517" fill="none" xmlns="http://www.w3.org/2000/svg">
<path d="M126.63 98.67L115.63 105.33L114.05 105.25L119.86 90.64L112.58 51.75L107.42 66.75L104.81 68.75V57.75L101.35 43.21L98.8 32.54L97.46 27L75.75 33.32L59.65 25.9L55.65 31.84C55.65 31.84 55.65 34.47 55.65 37.48C55.02 40.01 53.37 46.71 53.37 47.42C53.37 48.31 54.5 62.6 54.87 63.34C55.24 64.08 50.26 74.1 50.26 74.1L55.89 70.26L60.56 62.88L62.2 73L67.97 80.31V100.47L55.66 104.77L54.98 104.54L43.89 100.77L40.57 62.77L46.57 25.92L61.57 5.27002L80.02 0.27002L103.51 7.27002L117.94 33.27L120.87 54.41L117.45 57.47L125.52 86.26L126.63 98.67Z" fill="#594422"/>
<path d="M53.32 46.5498L46.67 60.8098L45.58 57.6798L43.67 65.5198L50.92 103.12C50.92 103.12 60.13 96.0098 60.77 95.1198C61.41 94.2298 59.12 70.4498 59.12 70.4498L56.46 54.6898L53.32 46.5498Z" fill="#392317"/>
<path d="M53 72.2101L54 80.2701L52.2 84.7901L50.9 103.12C50.9 103.12 62.13 110.27 62.43 110.12C62.73 109.97 70.43 106.91 70.59 106.51C70.75 106.11 74.59 95.7701 74.47 94.1701C74.35 92.5701 74.6 78.5901 74.03 78.2501C73.46 77.9101 67.25 71.8901 66.84 71.5901C66.43 71.2901 62.73 62.6701 62.73 62.6701L59.25 60.5601L53 72.2101Z" fill="#392317"/>
<path d="M95 80L94.78 83.38L78.66 100.69L78.95 122.13L69 127L45.12 117.66C45.12 117.66 44.8 114.66 45.12 114.24L55.02 104.54L55.7 104.77L68.01 100.47V80.27L62.2 73L60.58 62.89V62.63L58.64 58L57.94 55.5L60.77 58.67C60.77 58.67 73.59 62.72 74.05 62.72C74.51 62.72 78.05 66.72 78.05 66.72V73.46L70.63 72.07L73.74 76.92L78 78.3V88.25H83.13L95 80Z" fill="#AE7136"/>
<path d="M75.75 33.2901L71.98 34.8101L71.63 39.4401L55.66 31.8101L59.65 25.8701L75.75 33.2901Z" fill="#F4831F"/>
<path d="M98.78 32.5502L83.61 39.4502L82.26 40.0702L81.64 35.4802L75.75 33.2902L97.45 26.9702L98.78 32.5502Z" fill="#F4831F"/>
<path d="M101.33 43.2198L95.0001 40.0698C95.0001 40.0698 81.4301 48.8098 81.0001 49.1398C80.5701 49.4698 83.5601 39.4498 83.5601 39.4498L98.7301 32.5498L101.33 43.2198Z" fill="#EE4023"/>
<path d="M101.33 43.2202L95 40.0702C95 40.0702 81.43 48.8102 81 49.1402C80.57 49.4702 83.56 39.4502 83.56 39.4502L82.21 40.0702L76.91 48.3302L77.7 54.1902L77.51 63.3702L82.21 62.3702L101.43 56.1902L104.74 57.7702L101.33 43.2202ZM78.33 61.1102L79.58 55.5002L81.97 61.1102H78.33ZM101.33 50.4702L93 56.1802L82.31 51.6002C82.94 51.6002 95.88 42.7502 95.88 42.7502L101.38 47.2702L101.33 50.4702Z" fill="#EE4023"/>
<path d="M74.08 62.7498C73.61 62.7498 60.8 58.6998 60.8 58.6998L58 55.5199C57.0768 52.425 56.3158 49.284 55.72 46.1098C55.72 45.4098 55.72 41.1098 55.72 37.4798C55.72 34.4798 55.72 31.8398 55.72 31.8398L60.72 42.1299L60.9 42.7699L61.08 43.3698L57.08 47.9998L64.16 56.2399L64.82 55.8698L74.08 62.7498Z" fill="#EE4023"/>
<path d="M149.2 194.27L149.45 207.34V207.45L148.32 208.45L139.85 215.69L139.76 215.76H139.7L139.63 215.83L142 188.45V188.19L139.7 185.02L135.14 178.73L121.49 151.53L120.36 149.27L119.83 148.27L121.33 142.82L123.15 136.23L123.21 136.01C123.88 135.66 138.67 129.33 140.5 128.55H140.58H140.67L134.77 142V142.07V142.13L131.77 148.92V149.02C131.79 149.084 131.813 149.148 131.84 149.21C131.854 149.257 131.87 149.304 131.89 149.35C131.96 149.56 132.07 149.88 132.22 150.29L132.34 150.63C132.39 150.76 132.43 150.89 132.48 151.04L134.61 157.04C134.78 157.53 134.96 158.04 135.15 158.55C135.34 159.06 135.44 159.35 135.59 159.77L136 161L136.3 161.83L137.22 164.37C137.38 164.82 137.54 165.27 137.71 165.72C137.8 165.95 137.88 166.18 137.96 166.4L140.12 172.29C140.32 172.81 140.51 173.29 140.7 173.83L141.07 174.83C141.18 175.11 141.28 175.38 141.38 175.65C142.98 179.88 144.38 183.49 145.27 185.36L145.47 185.78C145.591 186.03 145.724 186.274 145.87 186.51L145.96 186.64C145.96 186.64 146.03 186.71 146.06 186.71H146.11L146.3 186.63C146.469 186.621 146.638 186.656 146.79 186.73C147.543 187.066 148.249 187.5 148.89 188.02L149.48 188.47L150.07 188.94L150.66 189.43C150.85 189.58 151.03 189.74 151.21 189.9L151.73 190.35C151.768 190.374 151.802 190.405 151.83 190.44V190.44C152.67 191.18 153.26 191.73 153.26 191.73L149.2 194.27Z" fill="#DC9159"/>
<path d="M25.25 180.44L25.99 195.15C25.99 195.15 25.61 194.93 25.12 194.67L24.81 194.5C24.53 194.35 24.24 194.21 23.98 194.1L23.79 194.02C23.6851 193.967 23.5743 193.927 23.46 193.9C23.26 193.83 23.13 193.83 23.1 193.9C23.07 193.97 23 195.41 23 197C23 198.85 23 201 23 202L22.34 201.63L15.44 197.8C15.44 197.8 15.73 190.74 15.99 184.21C16.06 182.21 16.14 180.33 16.2 178.68L17.48 167.06L17.4 166.95C17.48 166.44 17.58 165.95 17.67 165.35C19.61 154.16 23.01 135.46 23.01 135.46L27.1 139.83L28.1 139.51L29.03 139.21L31.7 138.36C32.77 138.02 33.85 137.69 34.76 137.42L24.2 159.79L24.79 171.47V171.54L25.04 176.31L25.1 177.52L25.24 180.37L25.25 180.44Z" fill="#DC9159"/>
<path d="M161.8 196.88L151.89 205.37C151.79 205.45 151.69 205.54 151.59 205.61L149.45 207.45V207.34L149.2 194.27L153.31 191.74C153.31 191.74 152.72 191.19 151.88 190.45C151.69 190.27 151.48 190.09 151.26 189.91C151.04 189.73 150.9 189.59 150.71 189.44L150.12 188.95L149.53 188.48L148.94 188.03C148.299 187.51 147.593 187.076 146.84 186.74C146.767 186.703 146.69 186.676 146.61 186.66H146.43H146.34C146.304 186.658 146.269 186.664 146.236 186.678C146.203 186.692 146.174 186.713 146.15 186.74V186.74H146.1C146.062 186.725 146.027 186.701 146 186.67L145.87 186.48L145.7 186.19L145.64 186.08L145.48 185.77L145.28 185.35C145.03 184.8 144.72 184.09 144.37 183.26L144.09 182.57L143.91 182.12C143.82 181.92 143.74 181.71 143.66 181.5L143.36 180.74L142.86 179.48L142.27 177.95C142.077 177.456 141.887 176.956 141.7 176.45C140.52 173.33 139.22 169.83 137.97 166.39C137.89 166.17 137.81 165.94 137.72 165.71C137.55 165.26 137.39 164.81 137.23 164.36L136.31 161.82C136.06 161.13 135.81 160.45 135.58 159.82L135.14 158.61L134.44 156.61L134 155.38L133.59 154.24C133.47 153.87 133.34 153.52 133.22 153.19C133.1 152.86 133 152.58 132.9 152.29C132.63 151.51 132.39 150.86 132.21 150.29L132 150C132 149.9 131.93 149.81 131.9 149.72L131.79 149.4C131.77 149.354 131.754 149.307 131.74 149.26L131.68 149.1V149L134.63 142.23V142.17V142.1L140.45 128.7V128.62L140.5 128.51V128.58L140.63 128.51L141 129.95L151 156.82V156.9L151.82 159.17L160 181.76L161.57 194.65L161.8 196.88Z" fill="#F1B280"/>
<path d="M107.4 110.65C107.4 110.65 108.65 112.78 110.46 115.82L71.52 128L69 127L79 122.18L78.71 100.74L94.83 83.4302L94.37 99.7602L114.06 105.26L115.64 105.34L107.4 110.65Z" fill="#C68650"/>
<path d="M37.82 166.64L37.7 167.37L34.06 189.37L32.88 207.42L24.88 202.98L23.1 201.98C23.1 200.98 23.1 198.87 23.1 196.98C23.1 195.38 23.1 193.98 23.16 193.87C23.22 193.76 23.32 193.8 23.52 193.87C23.6343 193.897 23.7451 193.937 23.85 193.99L24.04 194.07C24.17 194.07 24.31 194.19 24.45 194.26C24.59 194.33 24.95 194.51 25.18 194.64L25.52 194.82L25.82 194.99L25.96 195.07H26.05L25.31 180.36L25.17 177.52L25.11 176.31L25 174.23V173.94L24.88 171.61V171.47L24.29 159.79L34.92 137.43C35.6198 137.197 36.3348 137.014 37.06 136.88L35.44 139L31.44 151.05L30.77 152.28L37.77 166.61L37.82 166.64Z" fill="#F1B280"/>
<path d="M75.9399 51.7798L72.8999 47.2898L61.5099 42.7699H60.8299L60.6499 42.1299L55.6899 31.8398L71.6599 39.4599L74.95 44.9698L75.9399 51.7798Z" fill="#EE4023"/>
<path d="M82.26 40.0701L76.96 48.33L74.93 44.94L71.63 39.44L71.98 34.81L75.75 33.29L81.64 35.48L82.26 40.0701Z" fill="#F4831F"/>
<path d="M119.84 90.63L114.02 105.25L94.34 99.75L94.8 83.42V83.41L95.02 80.03L99.77 73.55L104.79 57.76V68.71L107.4 66.71L112.56 51.75L119.84 90.63Z" fill="#392317"/>
<path d="M104.79 57.7602L99.77 73.5502L95.02 80.0302L83.15 88.2502H78.03V78.3002L81.99 77.7202L86.13 73.4502L90.26 68.7102L86.13 72.0602L78.03 73.4502V66.7102L82.26 62.3502L101.48 56.1802L104.79 57.7602Z" fill="#C68650"/>
<path d="M90.26 68.71L86.13 73.45L82 77.72L78.04 78.3L73.72 76.91L70.61 72.06L76.36 75.0399L80.43 74.61L86.13 72.06L90.26 68.71Z" fill="#A96739"/>
<path d="M86.13 72.0601L80.43 74.6101L76.36 75.0401L70.61 72.0601L78.04 73.4501L86.13 72.0601Z" fill="#9E5C28"/>
<path d="M81.99 61.11H78.35L79.61 55.5L81.99 61.11Z" fill="#7C4B20"/>
<path d="M82.2599 62.3602L77.9999 66.7102C77.9999 66.7102 74.4799 62.7102 73.9999 62.7102L64.7499 55.8002C66.7499 54.6602 72.9299 51.2602 73.3399 51.2602L61.4299 42.7402L72.8299 47.2602L75.8299 51.7402L74.8299 44.9302L76.8299 48.3202L77.6199 54.1802L77.4299 63.3602L82.2599 62.3602Z" fill="#EE4023"/>
<path d="M60.58 62.8502L55.91 70.2302L50.28 74.0702C50.28 74.0702 55.28 64.0702 54.89 63.3102C54.5 62.5502 53.39 48.3102 53.39 47.3902C53.39 46.6802 55.04 39.9802 55.67 37.4502C55.67 41.1402 55.67 45.3902 55.67 46.0802C56.2693 49.2569 57.0303 52.401 57.95 55.5002L58.65 58.0002L60.56 62.5902L60.58 62.8502Z" fill="#594422"/>
<path d="M101.33 47.27V50.47L93.0001 56.18L82.3101 51.6C82.9401 51.6 95.8801 42.75 95.8801 42.75L101.33 47.27Z" fill="white" stroke="#231F20" stroke-linejoin="round"/>
<path d="M73.3901 51.2701C72.9801 51.2701 66.83 54.6701 64.8 55.8101L64.1401 56.1801L57.0601 47.9401L60.1601 42.9401L60.6201 42.1201L73.3901 51.2701Z" fill="white" stroke="#231F20" stroke-linejoin="round"/>
<path d="M79.26 219.58L79 238.94L69.31 243.34C69.31 243.34 69.31 228.06 69.31 227.34C69.31 227.34 69.2 227.34 69.09 227.39L68.94 227.46L68.75 227.57C66.41 228.92 57.7 235.77 57.7 235.77L57.41 235.54L56.52 219.54V215.81H56.73C57.82 217.08 59.97 219.55 60.34 219.55L79.26 219.58Z" fill="#EE4023"/>
<path d="M130.67 267.48L116.28 354.94L102.2 356.33L77 274C77 274 87.75 265.21 98.51 256.55C100.78 254.71 103.06 252.89 105.23 251.15C104.92 258.86 103.28 293.34 103.28 293.34C103.28 293.34 116 321.54 116.38 321C116.76 320.46 130.24 269.09 130.67 267.48Z" fill="#7C4B20"/>
<path d="M47.24 510.65L19.65 512.23C19.65 512.23 9.65001 513.44 8.85001 513.23L0.0499878 511.06L0.820007 507.68L14.68 508.38H15.13L25.94 509.07L39.81 505.88L40.35 505.77H40.41H40.57C40.93 505.68 46.8 504.11 46.98 504.17C47.16 507.77 47.24 510.65 47.24 510.65Z" fill="#7C4B20"/>
<path d="M25.88 508.95L39.86 505.93L25.98 509.12L15.17 508.43L14.72 508.4H14.71L14.68 508.39L14.98 508.4L25.88 508.95Z" fill="#001750"/>
<path d="M47 504.15C46.82 504.09 40.95 505.66 40.59 505.75L40.54 505.63V505.49L40.22 504.56C40.13 504.32 40.03 504.03 39.91 503.72C39.79 503.41 39.68 503.07 39.54 502.72L39.38 502.3C39.33 502.14 39.27 501.97 39.2 501.8L38.44 499.8L38.19 499.15C37.9 498.39 37.6 497.6 37.29 496.81C37.12 496.36 36.96 495.92 36.79 495.48C36.36 494.38 35.94 493.28 35.55 492.26L35.12 491.18C34.72 490.18 34.36 489.18 34.05 488.45C34.0194 488.345 33.9826 488.241 33.94 488.14L33.79 487.76C33.73 487.6 33.67 487.46 33.63 487.33L33.49 486.99C33.38 486.68 33.31 486.52 33.31 486.52L33.44 485.74V486.74H45.92C46 486.72 46.86 497.93 47 504.15Z" fill="#EE4023"/>
<path d="M39.45 472.88H39.21V472.38L39.45 472.88Z" fill="#1C387F" stroke="#9BB8C8" stroke-miterlimit="10"/>
<path d="M40.43 505.8L39.89 505.92L26 509.12L15.19 508.43H14.74L6.23999 504.19L24.65 494.76L27.09 496.45L27.96 497.05L28.59 497.48L29.42 498.06C33.61 501 39.32 504.93 40.43 505.8Z" fill="#EE4023"/>
<path d="M14.71 508.4L0.820007 507.69L6.17001 504.15H6.17999L14.71 508.4Z" fill="#F8B517"/>
<path d="M136.44 501.55L119.24 495.75L118.69 486.36L118.75 486.72H131.07L136.44 501.55Z" fill="#EE4023"/>
<path d="M139.83 509.85L121.76 509.51C121.76 509.51 119.28 501.95 119.28 501.63V496V495.75L136.48 501.55L139.83 509.85Z" fill="#F8B517"/>
<path d="M141 512.66L130.88 516.07H121.88L117.64 510.63L119.28 501.95V501.63C119.28 501.95 121.76 509.51 121.76 509.51L139.83 509.85L141 512.66Z" fill="#7C4B20"/>
<path d="M40.63 505.75H40.47H40.41L29.41 497.96L28.58 497.38L27.95 496.95L27.08 496.35L24.64 494.66L33.34 486.44C33.34 486.44 33.41 486.6 33.52 486.91L33.66 487.25C33.66 487.38 33.76 487.52 33.82 487.68L33.97 488.06C34.0126 488.161 34.0494 488.265 34.08 488.37L39.41 502.24L39.57 502.66L40.57 505.37C40.5916 505.449 40.6083 505.529 40.62 505.61C40.62 505.61 40.62 505.71 40.63 505.75Z" fill="#F4831F"/>
<path d="M55 104.5L45.1 114.2L41.81 117.4C41.81 117.4 41.66 118.14 41.4 119.34C40.35 124.25 37.59 136.84 37.02 136.84C36.2914 136.978 35.5731 137.165 34.87 137.4C31.98 138.26 27.23 139.81 27.23 139.81L23.15 135.44L19.22 121.33L25.47 129.1L37.13 116.62L47.46 108.31L40 99.3999L43.93 100.73L55 104.5Z" fill="#7C4B20"/>
<path d="M20.66 255.13C20.66 255.13 14.01 259.21 13.9 259.7C13.79 260.19 4.99003 252.23 3.95003 251.28C3.64003 257.47 4.11 281.54 4.11 281.54L5.84001 282.99L16.84 279.19L25.41 269.85L20.66 255.13ZM5.84001 279.37L6.84001 262.94L9.58 276.42L5.84001 279.37Z" fill="#EE4023"/>
<path d="M17.7 199L15.57 218.76L13.57 203.76L11 199.16C11 199.07 11 199.02 11 199.02L15.47 197.82L17.7 199Z" fill="#F4831F"/>
<path d="M15.63 250.77L20.63 255.13C20.63 255.13 13.98 259.21 13.87 259.7C13.76 260.19 4.96001 252.23 3.92001 251.28C3.90603 250.805 3.95988 250.33 4.07998 249.87C4.65998 248.96 10.64 202.09 11.01 199.16L13.53 203.73L15.53 218.73L13.86 234.27L21 244.5L10.25 246.81L6.82 250.81L15.63 250.77Z" fill="#F8B517"/>
<path d="M33.93 209.8L20.99 244.5L13.9 234.32L17.7 199.02L32.88 207.44L33.93 209.8Z" fill="#7C4B20"/>
<path d="M20.13 253.52L20.66 255.13L15.63 250.77H6.81L10.24 246.81L20.99 244.5L20.13 253.52Z" fill="#7C4B20"/>
<path d="M27.9 289.07H13.14L5.83997 282.99L16.86 279.19L25.43 269.85L27.61 276.53L27.9 289.07Z" fill="#F8B517"/>
<path d="M107.16 173.51C107.16 173.51 101.82 190.84 101.78 190.84C101.806 190.928 101.826 191.019 101.84 191.11C100.47 189.11 97.84 185.23 97.45 185.23C97.06 185.23 91.27 182.79 88.64 181.79C88.6353 181.753 88.6353 181.716 88.64 181.68C89.09 179.58 89.38 178.16 89.38 178.16L91.97 179.26L96.53 167.61L103.16 158.34L108.03 153.61L116.24 145.61L119.8 148.19L107.16 173.51Z" fill="#EE4023"/>
<path d="M108.05 153.61L103.18 158.34L96.55 167.61L92 179.26L89.41 178.16L70.67 170.16L56.54 177.55L54.99 178.36L46.23 165.07L40.89 161.28L52.14 164.16L63.4 146.72L70.18 161.4L75.33 149.15C75.33 149.15 89.53 162.57 89.88 162.41C90.23 162.25 107.52 153.87 108.05 153.61Z" fill="#7C4B20"/>
<path d="M89.4 178.16C89.4 178.16 89.11 179.58 88.66 181.68C88.6553 181.717 88.6553 181.754 88.66 181.79C87.36 187.79 84.76 199.19 83.74 199.02C82.37 198.78 69.36 193.32 69.36 193.32L57.92 199L56.53 177.57L70.66 170.18L89.4 178.16Z" fill="#F8B517"/>
<path d="M116.28 145.64L108.07 153.64C107.54 153.9 90.26 162.32 89.9 162.48C89.54 162.64 75.33 149.22 75.33 149.22L89.74 139.87C89.74 139.87 102.35 135.47 103 136C103.41 136.29 111.47 142.15 116.28 145.64Z" fill="#F8B517"/>
<path d="M48.54 253.59L37.54 241.83L44.61 225.66C45.04 225.97 45.61 226.41 46.36 226.95L48.54 253.59Z" fill="#F8B517"/>
<path d="M57.71 235.77C57.71 235.77 50.33 230 46.35 227C45.64 226.46 45.03 226 44.6 225.71L50.8 211.53L56.53 219.63L57.71 235.77Z" fill="#7C4B20"/>
<path d="M69.34 243.34L57.71 235.77C59.57 234.27 67.15 228.46 68.95 227.46L69.1 227.39C69.21 227.34 69.28 227.32 69.32 227.34C69.36 227.36 69.32 227.34 69.32 227.34C69.38 228.06 69.34 243.34 69.34 243.34Z" fill="#F8B517"/>
<path d="M110.33 225.19L106.39 226.54L83.73 234.32V219.58L105.32 209.8L110.33 225.19Z" fill="#7C4B20"/>
<path d="M116.28 354.94C116.28 354.94 111.28 375.53 111.05 376.41C110.82 377.29 102.2 356.33 102.2 356.33L116.28 354.94Z" fill="#F8B517"/>
<path d="M78.34 305.71C78.6 304.34 63.87 357.13 63.87 357.13L57.54 363.18C57.54 363.18 61.33 354.06 61.54 353.27C61.75 352.48 75.88 301.56 75.88 301.56C75.88 301.56 66.51 298.12 68.18 298.38C70.7649 298.515 73.3551 298.515 75.94 298.38L81.01 296.85L93.38 361.17C93 359.54 78.08 307.07 78.34 305.71Z" fill="#F8B517"/>
<path d="M124.33 353.83L130.68 267.45L116.29 354.91C116.29 354.91 111.29 375.5 111.06 376.38C110.83 377.26 102.21 356.3 102.21 356.3L77 274C77 274 87.75 265.21 98.51 256.55L106.35 226.55L83.69 234.33V236.82L79 238.94L69.31 243.34L57.85 235.88L57.39 235.54C55.97 234.42 49.83 229.54 46.32 226.95L48.51 253.59L50.51 255.72L69.32 275.79L53.1 361.2L40.16 353.2L32 283.31L30.54 331L34.43 350.21L30.24 376.71L34.43 386.16L33.5 472.92H39.22V415.67C39.22 414.52 57.34 375.09 57.34 375.09L65.72 394L46.63 472.92H50.4L71.82 391.14L57.54 363.22C57.54 363.22 61.33 354.1 61.54 353.31C61.75 352.52 75.89 301.6 75.89 301.6C75.89 301.6 66.52 298.16 68.18 298.42C70.7649 298.554 73.3551 298.554 75.94 298.42L81.01 296.89L93.38 361.21V386.39C93.38 386.39 116.61 477.87 117.67 478.7C117.821 478.795 117.992 478.853 118.17 478.87C120.256 479.092 122.355 479.149 124.45 479.04H125.34L116.39 418.96C116.39 418.96 127.22 382.96 127.22 382.28C127.22 381.6 132.46 385.69 132.46 385.69L130.63 478.82C131.28 478.82 131.78 478.75 132.01 478.75L132.23 477.05C132.61 464.28 135 384.43 135.97 384.18C136.94 383.93 124.33 353.83 124.33 353.83ZM34.38 371.76L37.9 354.94C38.9 355.37 48.67 365.69 48.67 365.69L34.38 371.76Z" fill="#F4831F"/>
<path d="M120 239.91C118.9 240.43 112.66 245.3 105.27 251.19C103.1 252.93 100.82 254.75 98.55 256.59L106.39 226.59L110.33 225.24L119.6 238.93L120 239.91Z" fill="#F8B517"/>
<path d="M130.68 267.45C130.25 269.06 116.74 320.39 116.39 320.95C116.04 321.51 103.33 293.35 103.33 293.35C103.33 293.35 104.97 258.87 105.28 251.16C112.67 245.27 118.91 240.4 120.01 239.88L130.68 267.45Z" fill="#EE4023"/>
<path d="M167.52 204.23C167.33 204.45 160.12 212.55 153.74 219.58V249.81L150.13 256.54L144.66 249.39L132.77 263.68L133.19 271.19H139.64V283L150.72 285.76L161.81 279.09C161.81 279.09 161.55 246.93 161.81 245.83C162 245 165.78 217.18 167.52 204.23ZM150.72 281.11L152.53 274.04V261.92L155.89 276.42L150.72 281.11Z" fill="#F8B517"/>
<path d="M161.81 279.08L158.91 286.5L143.07 293.38L134.36 291.73L133.19 271.19H139.64V282.99L150.72 285.75L161.81 279.08Z" fill="#EE4023"/>
<path d="M153.74 219.58V249.81L150.13 256.54L144.66 249.39L137.52 216.67C137.52 216.67 143.84 229.13 144.05 229.76C144.14 230.05 148.68 225.15 153.74 219.58Z" fill="#7C4B20"/>
<path d="M168.41 197.7C168.41 197.7 168.06 200.27 167.53 204.22C167.34 204.44 160.13 212.54 153.75 219.57C148.69 225.14 144.15 230.04 144.06 229.75C143.85 229.12 137.53 216.66 137.53 216.66L139.65 215.84L149.47 207.43L161.82 196.86C161.82 196.86 164.99 194.39 165.82 193.57C166.65 192.75 168.41 197.7 168.41 197.7Z" fill="#EE4023"/>
<path d="M132.52 385.61L130.69 478.74C129.38 478.81 127.41 478.9 125.4 478.96L116.45 418.88C116.45 418.88 127.28 382.88 127.28 382.2C127.28 381.52 132.52 385.61 132.52 385.61Z" fill="#F8B517"/>
<path d="M112.56 119.35L78.74 130.51L69.3 144L60.22 129.1L41.36 119.36C41.62 118.17 41.77 117.43 41.77 117.43L45.06 114.23C44.75 114.68 45.06 117.65 45.06 117.65L69 127L71.56 128L110.5 115.83L112.56 119.35Z" fill="#F4831F"/>
<path d="M83.73 219.58V234.32V236.81L79 238.94L79.23 219.58H60.35C59.98 219.58 57.83 217.11 56.74 215.84L83.74 214.68V219.58H83.73Z" fill="#F8B517"/>
<path d="M52.14 294.84C52.14 294.84 41.7 320.24 41.53 319.37C41.36 318.5 32.62 285.62 31.95 283.13V282.23L36.84 243.35L37.5 241.84L48.5 253.6L50.5 255.73L52.14 294.84Z" fill="#EE4023"/>
<path d="M69.34 275.79L53.1 361.2L40.16 353.2L32 283.31V283.13C32.67 285.62 41.41 318.54 41.58 319.37C41.75 320.2 52.19 294.84 52.19 294.84L50.58 255.72L69.34 275.79Z" fill="#7C4B20"/>
<path d="M48.67 365.69L34.38 371.76L37.9 354.94C38.93 355.37 48.67 365.69 48.67 365.69Z" fill="#F8B517"/>
<path d="M155.89 276.42L150.72 281.11L152.53 274.05V261.92L155.89 276.42Z" fill="#7C4B20"/>
<path d="M9.54996 276.42L5.83997 279.37L6.80997 262.94L9.54996 276.42Z" fill="#7C4B20"/>
<path d="M65.72 394L46.63 472.92H39.45L39.21 472.42V415.67C39.21 414.52 57.33 375.09 57.33 375.09L65.72 394Z" fill="#F8B517"/>
<path d="M50.41 472.88L45.9 486.72H33.41L33.42 485.72L33.51 472.88H50.41Z" fill="#7C4B20"/>
<path d="M132.08 478.67L131.08 486.72H118.75L118.68 486.36L118.24 478.82C120.322 479.042 122.419 479.099 124.51 478.99C126.82 478.93 129.19 478.81 130.68 478.74C131.34 478.71 131.84 478.67 132.08 478.67Z" fill="#7C4B20"/>
<path d="M147.68 108.56L107.31 110.67L115.53 105.35L126.54 98.6999L128.73 97.3799L147.68 108.56Z" fill="#F8B517"/>
<path d="M147.68 108.57L140.89 128.32V128.45L125.35 128.64L125.16 128.45L107.4 110.72L147.68 108.57Z" fill="#EE4023"/>
<path d="M43.67 108.34L27.32 106.3L39.96 99.3999L43.67 108.34Z" fill="#F8B517"/>
<path d="M47.42 108.34L37.08 116.65L25.43 129.13L19.18 121.36L27.32 106.3L43.67 108.34L39.96 99.3999L47.42 108.34Z" fill="#EE4023"/>
<path d="M81.64 35.4802L97.45 26.9702L75.75 33.2902L81.64 35.4802Z" fill="#F4831F"/>
<path d="M79.25 65.4502L101.48 56.1802L104.43 59.1302L104.79 57.7602L101.48 56.1802L82.26 62.3502L79.25 65.4502Z" fill="#BC7645"/>
<path d="M76.96 65.5199L60.77 58.6699L74.05 62.7199L76.96 65.5199Z" fill="#9B5023"/>
<path d="M95.02 80.0298L85.07 88.8698L83.14 89.8098L79.33 88.9398L77.83 88.4598L83.15 88.2498L95.02 80.0298Z" fill="#9B5023"/>
<path d="M67.97 81.42L77.83 88.46L67.97 80.27V81.42Z" fill="#9B5023"/>
<path d="M68 80.27C68 80.43 78.06 88.27 78.06 88.27H83.19L83.02 88.97L77.86 88.48C77.86 88.48 69.58 82.31 69.53 82.32C69.48 82.33 68 80.27 68 80.27Z" fill="#9B5023"/>
<path d="M75.75 33.2901C75.75 33.2901 70.68 24.7201 70.61 23.9601C70.54 23.2001 80.17 5.81006 80.17 5.81006C80.17 5.81006 75.17 21.5001 75.39 21.6901C75.61 21.8801 81.01 31.2201 81.01 31.2201L75.75 33.2901Z" fill="#392317"/>
<path d="M103.57 7.25017C102.94 7.07017 95.02 10.6802 95.02 10.6802C95.02 10.6802 88.6 27.2002 88.88 27.0002C89.16 26.8002 96.22 12.2302 96.22 12.2302L103.57 7.25017Z" fill="#392317"/>
<path d="M46.61 25.8702L62.71 17.1102L71.63 19.5502L61.63 5.22021L46.61 25.8702Z" fill="#392317"/>
<path d="M98.55 369.19C99.07 370.11 113.46 408.07 113.46 408.07L97.24 386.94L98.55 369.19Z" fill="#7C4B20"/>
<path d="M48.67 371.76L35.95 376.44L39.21 415.67L57.33 375.09L48.67 371.76Z" fill="#7C4B20"/>
<path d="M57.88 235.88L52.47 257.78L69.34 275.79L67.18 287.12L74.47 289.07L81.12 287.37L77.04 274.05L93.43 260.71L102.2 227.33L83.73 234.32L83.72 236.81L69.34 243.34L57.88 235.88Z" fill="#F4831F"/>
<path d="M132.16 150.34L130.64 149.82L131.16 148.82L134.69 142.19V142.13V142.06L141.14 129.92L151 156.82V156.9C147.25 155.57 136.22 151.74 132.16 150.34Z" fill="#F8B517"/>
<path d="M161.53 194.65L151.88 190.45L145.05 187.45L145.13 187.12L145.46 185.75L145.55 185.35L151.83 159.16L160 181.76L161.53 194.65Z" fill="#EE4023"/>
<path d="M145.16 188.29C145.8 192.02 148.35 206.98 148.38 208.19C148.375 208.27 148.355 208.348 148.32 208.42C147.71 209.79 142.32 213.82 139.85 215.66L139.76 215.73H139.7H139.63L142 188.45V188.19L139.7 185.02L135.14 178.73L121.49 151.53L121.43 151.41C124.3 150.61 130.48 148.91 131.15 148.82C131.346 148.852 131.54 148.899 131.73 148.96C131.73 148.96 146.91 155.11 150.93 156.82V156.9L151.75 159.17L145.47 185.36L145.38 185.76L145.05 187.13L144.97 187.46L145.16 188.29Z" fill="#F4831F"/>
<path d="M161.8 196.88L151.89 205.37C151.79 205.45 151.69 205.54 151.59 205.61L149.45 207.34L148.38 208.19L145.16 188.29L145.02 187.46L151.85 190.46L161.5 194.66L161.8 196.88Z" fill="#EE4023"/>
<path d="M150.3 184.92L146.3 186.62L146.11 186.7H146.06L145.11 187.1L142 188.45V188.19L139.7 185.02C141.97 185.18 144.39 185.3 145.22 185.34H145.51L150.3 184.92Z" fill="#7C4B20"/>
<path d="M141.22 129.89L134.77 142V142.07V142.13L131.24 148.76L121.58 151.47L119.92 148.16L121.42 142.71L123.21 135.92H123.27L123.43 135.84L123.83 135.67L124.12 135.54L124.54 135.36L124.75 135.27L125.12 135.11L125.68 134.87L126.02 134.72L128.02 133.87L135.91 130.47L137.21 129.91L140.26 128.6L140.59 128.46H140.67H140.72L140.92 128.35V128.48L141.22 129.89Z" fill="#F4831F"/>
<path d="M37.15 136.64L35.49 139.34L32.44 151L31.77 152.22C31.77 152.22 38.45 165.96 37.77 166.68C37.09 167.4 25.68 177.08 25.68 177.08L21.55 151L27.19 139.83L37.15 136.64Z" fill="#F4831F"/>
<path d="M25.67 177.07L25.09 177.5L16.09 184.2C16.16 182.2 16.24 180.32 16.3 178.67L17.58 167.05L17.77 165.34C19.71 154.15 23.11 135.45 23.11 135.45L27.2 139.82L21.55 151L24.79 171.46V171.53L25.67 177.05V177.07Z" fill="#EE4023"/>
<path d="M37.77 166.7L37.7 167.37L34.06 189.37L32.88 207.42L24.88 202.98L23.1 201.98L22.44 201.61C22.44 201.61 22.49 201.27 22.56 200.68C22.56 200.48 22.62 200.25 22.65 200C22.68 199.75 22.71 199.58 22.74 199.34C22.83 198.68 22.93 197.89 23.05 197.02C23.05 196.84 23.05 196.65 23.13 196.45C23.21 196.25 23.22 195.8 23.26 195.45C23.2552 195.367 23.2552 195.283 23.26 195.2L23.43 193.9C23.5 193.36 23.57 192.8 23.65 192.22L23.8 191.09C24.02 189.38 24.26 187.63 24.48 185.96C24.53 185.62 24.57 185.28 24.62 184.96C24.67 184.64 24.67 184.51 24.71 184.29C24.77 183.77 24.84 183.29 24.9 182.8C24.96 182.31 24.99 182.15 25.03 181.8C25.07 181.45 25.11 181.19 25.15 180.9V180.64V180.41L25.24 179.7L25.33 179C25.33 178.78 25.38 178.58 25.41 178.39L25.48 177.89L25.59 177.07L25.72 176.96L26.07 176.66C28.16 174.83 36.41 167.66 37.57 166.76H37.62L37.77 166.7Z" fill="#EE4023"/>
<path d="M25.69 177.09L25.58 177.91C25.58 178.06 25.53 178.22 25.51 178.41C25.49 178.6 25.46 178.8 25.43 179.02C25.4 179.24 25.37 179.47 25.34 179.72C25.31 179.97 25.28 180.15 25.24 180.38V180.63V180.89C25.2 181.183 25.16 181.483 25.12 181.79C25.12 182.1 25.03 182.42 24.99 182.79C24.95 183.16 24.86 183.79 24.8 184.28C24.8 184.5 24.73 184.73 24.71 184.95C24.69 185.17 24.62 185.62 24.57 185.95C24.35 187.62 24.11 189.37 23.89 191.08L23.74 192.21C23.66 192.79 23.59 193.35 23.52 193.89L23.35 195.19C23.3452 195.273 23.3452 195.357 23.35 195.44C23.35 195.78 23.26 196.11 23.22 196.44C23.18 196.77 23.17 196.84 23.14 197.02C23.02 197.89 22.92 198.68 22.83 199.34C22.83 199.58 22.8 199.8 22.74 200C22.74 200.25 22.68 200.48 22.65 200.68C22.58 201.27 22.53 201.61 22.53 201.61L15.63 197.78C15.63 197.78 15.92 190.72 16.18 184.19C16.25 182.19 16.33 180.31 16.39 178.66L17.67 167.04C18.74 168.57 23.41 174.19 25.14 176.27L25.77 177.01L25.69 177.09Z" fill="#F8B517"/>
<path d="M140.85 128.45C140.85 128.45 140.85 128.45 140.73 128.51H140.63L140.46 128.59C138.76 129.3 132.46 131.95 127.95 133.86L125.95 134.71L125.61 134.86L125.05 135.1L124.68 135.26L124.47 135.35L124.05 135.53L123.76 135.66L123.36 135.83L123.2 135.91C122.65 135.91 116.96 126.6 112.56 119.27L110.46 115.78C108.81 113 107.62 110.97 107.46 110.65L125.25 128.43L140.85 128.45Z" fill="#7C4B20"/>
<path d="M63.39 146.76L52.13 164.2L40.88 161.31L38.8 159.85L31.46 151.06L35.45 139L38.75 135.52L52.87 136.14L63.39 146.76Z" fill="#F8B517"/>
<path d="M105.32 209.8L83.73 219.58V214.68L56.54 215.85V219.58L50.81 211.48L48.09 176.78L39.66 170.37L37.84 166.65L30.84 152.29L31.51 151.07L38.85 159.86L40.93 161.33L46.27 165.12L55 178.4L56.55 177.59L57.92 199L69.34 193.3C69.34 193.3 82.34 198.76 83.72 199C84.72 199.17 87.34 187.78 88.64 181.77C91.27 182.77 97.02 185.21 97.45 185.21C97.88 185.21 100.45 189.06 101.84 191.09C102.29 193.43 105.32 209.8 105.32 209.8Z" fill="#EE4023"/>
<path d="M123.22 136L119.84 148.27L116.28 145.69C111.47 142.2 103.41 136.34 102.98 136C102.35 135.52 89.72 139.89 89.72 139.89L75.31 149.23L70.17 161.49L63.39 146.82L52.87 136.19L38.75 135.57L35.45 139.05L36.98 136.92C37.55 136.92 40.31 124.33 41.36 119.42L60.22 129.17L69.3 144L78.74 130.45L112.56 119.27C117 126.73 122.78 136.18 123.22 136Z" fill="#EE4023"/>
<path d="M111.08 158.17C110.96 158.61 100.43 171.54 100.43 171.54L100.27 176.48" fill="#F8B517"/>
</svg>
