<svg width="192" height="489" viewBox="0 0 192 489" fill="none" xmlns="http://www.w3.org/2000/svg">
<path d="M88.4801 47.26C89.3842 47.9462 90.0406 48.908 90.3501 50C90.4526 50.7595 90.3051 51.5317 89.93 52.2C89.5452 52.8624 89.0745 53.471 88.5301 54.01C85.7501 56.91 82.1501 59.26 78.1301 59.7C77.3991 59.8126 76.6526 59.7683 75.9401 59.57C75.1541 59.2873 74.4618 58.7923 73.9401 58.14C73.505 57.6193 73.1448 57.0404 72.87 56.42C72.7273 56.0429 72.5534 55.6783 72.3501 55.33C71.6901 54.28 70.35 53.76 69.74 52.7C69.2403 51.5923 69.131 50.3479 69.43 49.17C69.4364 49.0149 69.481 48.8637 69.5601 48.73C69.6465 48.6303 69.7519 48.5488 69.87 48.49C72.4345 47.2779 75.2734 46.764 78.1001 47C80.9208 47.2248 83.7517 47.2949 86.58 47.21C87.58 47.13 88.6701 47.04 89.2801 47.77" fill="#C68650"/>
<path d="M95.3201 43L81.8701 43.09C81.5801 43.09 76.5901 45.49 76.5901 45.49L74.3101 43.03L64.3101 42.76L65.6501 49.23L68.1301 55.85L74.3901 62.7H86.6701L98.5701 52.42L95.3201 43ZM82.2701 55.42C82.0301 55.34 76.4801 55.42 76.4801 55.42L74.9201 53H84.6801C84.6801 53 82.5201 55.54 82.2701 55.46V55.42ZM72.7901 50.42L74.4601 49.23C74.4601 49.23 83.54 49.16 83.86 49.23C84.18 49.3 88.4301 50.5 88.4301 50.5L72.7901 50.42Z" fill="#C68650"/>
<path d="M71.4299 0.0400391L78.0899 1.89005L85.9999 0.0400391L101.39 4.06004L87.7799 7.42004L75.3499 6.74005L71.4299 0.0400391Z" fill="#3E383E"/>
<path d="M188.87 216V216.45H173.77L185.93 161.84C185.93 161.84 191.19 185.03 191.65 185.69V185.84C192.15 188.43 188.87 216 188.87 216Z" fill="#3C6A4C"/>
<path d="M183.52 216.42L178.33 243.97L173.17 230.2L167.21 228.21L167.35 227.75L173.76 216.42H183.52Z" fill="#C58851"/>
<path d="M178.33 243.97L168.02 247.42L165.7 243.97L171 242.22V237.69L165.7 243.97L163.31 240.41L167.21 228.21L173.17 230.2L178.33 243.97Z" fill="#A66933"/>
<path d="M190.93 242.86L186.22 247.42H168.02L178.33 243.97L190.93 242.86Z" fill="#6F3E2A"/>
<path d="M188.87 216.42L190.93 242.86L178.33 243.97L183.52 216.42H188.87Z" fill="#A66933"/>
<path d="M167.47 99.23V99.3L151.41 119.83L136 112.67V97.12L154.49 79.46L154.82 79.51L167.47 99.23Z" fill="#26342D"/>
<path d="M154.45 79.46L135.96 97.12L114.1 85.49L129.17 75.41L129.4 75.51L154.45 79.46Z" fill="#5ECC6B"/>
<path d="M104.51 66.06C99.51 68.19 82.64 76.2 82.33 75.99C82.02 75.78 74.64 70.41 70.96 67.64L81.43 71.42L105.15 61.13L105.21 64.98L104.51 66.06Z" fill="#996B4A"/>
<path d="M104.55 55L105.15 61.13L81.43 71.42L71 67.64L72.16 62.17L74.02 64.4H86.62L104.55 55Z" fill="#8A562C"/>
<path d="M103 45.31L103.57 44.71L103 45.31L104.52 54.99L86.52 64.39L98.37 52.46C99.2904 48.3561 100.569 44.3408 102.19 40.46C102.38 40.07 103 45.13 103 45.31Z" fill="#6A3F26"/>
<path d="M98.41 52.46L86.56 64.39H74L72.13 62.16L67.79 56.16L65.53 49.45L63.47 42.74L64.82 42.81L66.16 49.28L68.64 55.9L74.43 62.75H86.55L98.41 52.46Z" fill="#9C6636"/>
<path d="M109.28 28.4699V38.6099L103.03 45.3099C103.03 45.1299 102.38 40.0699 102.23 40.4299C104.78 34.4299 107.36 28.4299 107.45 28.4299L109.28 28.4699Z" fill="#A26938"/>
<path d="M107.71 13.34L107.56 28.34L97.2801 24L97.9001 13.84L93.4201 14.56L80.4201 18.08L67.4201 13.41L65.3301 24.83L66.5601 8.83C66.5601 8.83 77.8201 11.28 78.0801 11.28C78.3401 11.28 95.6801 9.67 96.0801 9.55C96.4801 9.43 101.57 7.41 101.86 7.13L107.71 13.34Z" fill="#22201F"/>
<path d="M93.4199 14.58L90.7899 23.58C90.7899 23.58 78.2899 28.86 78.1099 28.99C77.9299 29.12 69.6299 24.58 69.2499 24.46C68.8699 24.34 67.3999 13.46 67.3999 13.46L79.8899 17.95L93.4199 14.58Z" fill="#C68650"/>
<path d="M107.69 28.47L101.57 30.53L96.49 32.05L93.65 28.62L91.26 25.75L97.28 24.02L107.52 28.37L107.69 28.47Z" fill="#5ECC6B"/>
<path d="M101.9 30.34C101.9 30.34 97.0599 39.4 95.6099 42.21L95.3499 42.69L95.1899 42.98V43.04L81.8099 43.26C81.5099 43.26 76.6199 45.53 76.6199 45.53L74.17 43.07L65.17 42.8L63.4299 42.73L67.67 38.25L74.7499 40.01L76.1599 33.06L66.6799 28.79L64.9999 25.21L65.2699 24.85L77.7299 31.19L91.3699 25.7L93.6299 28.45L79.8499 33.45L81.0499 40.03C81.3399 40.03 93.8199 39.53 94.0499 39.46C94.2799 39.39 96.5099 31.9 96.5099 31.9L101.9 30.34Z" fill="#26342D"/>
<path d="M76.1599 33.06L74.7499 40.01L74.2099 33.39L66.6799 28.79L76.1599 33.06Z" fill="#5ECC6B"/>
<path d="M67.67 38.25L63.43 42.7299L62.54 33.63V28.47L65.04 25.21L66.68 28.7899L64.88 32.35L66.54 37.9799L67.67 38.25Z" fill="#5ECC6B"/>
<path d="M93.6701 28.45L83.1801 33.2L81.0901 40.0099L79.8901 33.4299L93.6701 28.45Z" fill="#5ECC6B"/>
<path d="M107.69 28.47C107.44 28.82 104.95 34.6 102.47 40.41L102.36 40.67C100.15 45.83 99.0999 51.03 98.5299 52.21C98.5299 52.21 98.5299 52.3599 98.4599 52.3999C98.4413 52.4363 98.4138 52.4672 98.3799 52.49L95.1099 43.02V42.96C95.1099 42.91 95.1999 42.81 95.2699 42.67L95.5299 42.19C97.0599 39.39 101.82 30.32 101.82 30.32L107.3 28.55L107.6 28.45L107.69 28.47Z" fill="#3C6A4C"/>
<path d="M98.58 183.6L95.3 188.41L76.76 190.6V132.23L100.05 143.11L96.36 156.78L98.58 183.6ZM83.58 130.86C83.58 130.86 108.95 135.5 109.64 135.33C110.33 135.16 130.74 119.11 131.38 118.61L111.72 143.11L83.58 130.86ZM138.88 133.7L128.39 105.35L122.07 119.83C122.07 119.83 107.07 128.5 106.71 128.83C106.35 129.16 78.13 124.83 78.13 124.83L79.52 99L88.66 83.91L80.36 88.91C80.36 88.91 72.77 85.05 72.16 84.39L78 99.8L73.89 125.08L50 132.74L33 121.64L49.33 136.89L66.28 130.8L52 144.11L54.37 179.22C54.37 179.22 64.31 200.28 64.78 200.59C65.25 200.9 90.33 200.59 90.33 200.59L108.14 174.85L126.14 167.54C126.14 167.41 126.14 167.35 126.14 167.35L126.68 165.94L138.88 133.7Z" fill="#26342D"/>
<path d="M131.36 118.61L111.7 143.11L83.5601 130.86C83.5601 130.86 108.93 135.5 109.62 135.33C110.31 135.16 130.72 119.11 131.36 118.61Z" fill="#3C6A4C"/>
<path d="M77.95 99.8L73.84 125.08L50.03 132.74L33.01 121.63L36.02 104.51L49.98 85.49L77.95 99.8Z" fill="#5ECC6B"/>
<path d="M50.0001 85.49L30.7601 101.06L16.6201 94.68L30.7601 79.58L47.4401 79.35L47.9901 79.11C49.2501 81.08 50.0001 85.49 50.0001 85.49Z" fill="#5ECC6B"/>
<path d="M19.2601 120.86L19.3201 120.72L16.6001 94.6799L30.7401 101.06L33.0101 121.63L19.2601 120.86Z" fill="#26342D"/>
<path d="M52.9999 204.63L65.6999 230.18L64.5199 228.35L64.0399 227.6L63.7699 227.19L63.1899 226.28L62.5599 225.28L62.2199 224.75L61.1299 223.07L59.9999 221.27L59.1899 219.99L58.3499 218.7L57.9299 218.03L57.0999 216.75L55.7199 214.61L54.9199 213.34L53.9999 212C50.2299 206.11 40.3699 201.28 40.3099 201L49.3899 178.44C49.3899 178.44 47.1099 144.22 47.3299 140.68C47.0399 141.45 46.0099 143.61 44.6999 146.28C44.6099 146.85 43.1899 154.97 43.0499 155.28C42.9099 155.59 37.6299 161.88 37.6299 161.88L14.6299 151.55L37.8699 143.06L32.9999 121.64L49.3299 136.89L66.2799 130.8L51.9999 144.11L54.3699 179.22L52.9999 204.63Z" fill="#3C6A4C"/>
<path d="M14.6899 151.6L18.9899 181.71L8.27994 216.82L0.679932 213.31L6.51993 162.67L14.6899 151.6Z" fill="#5ECC6B"/>
<path d="M37.6 162.03L36.89 175.72L15.11 217.08L8.28003 216.82L18.99 181.71L37.6 162.03Z" fill="#3C6A4C"/>
<path d="M13.16 232.58L3.60999 245.89L0.26001 231.75L0.679993 213.31L8.28 216.82L13.16 232.58Z" fill="#A86A33"/>
<path d="M21.95 229.22L13.16 232.58L8.28003 216.82L15.11 217.08L21.83 228.86L21.95 229.22Z" fill="#C78953"/>
<path d="M25.4099 239.3L21.8299 241.97L13.1599 232.58L21.9499 229.22L25.4099 239.3Z" fill="#A66834"/>
<path d="M21.8299 241.97L19.6499 246.02L18.8999 247.42L3.62988 245.97L3.60986 245.89L13.1599 232.58L21.8299 241.97Z" fill="#6D3D2E"/>
<path d="M128.66 191.66L100.05 215.14L89.9999 230.2C89.4899 229.51 112.19 197.2 111.68 196.72C111.17 196.24 108.08 174.85 108.08 174.85L126.08 167.54C126.32 169.7 128.53 190.28 128.53 191.13C128.563 191.309 128.606 191.486 128.66 191.66V191.66Z" fill="#3C6A4C"/>
<path d="M65.71 230.2L58.31 287L29.46 266.43L40.35 201.07C40.5 201.67 65.13 229.32 65.69 230.2H65.71Z" fill="#26342D"/>
<path d="M145.65 249.37L140 309.74C140 309.74 130.54 321 127 326C129.58 320.31 134.92 306.07 134.92 305.8C134.92 305.53 121.75 288.42 120.31 284.92C120.4 284.51 120.4 284.28 120.31 284.3C120.22 284.32 120.19 284.55 120.31 284.92C119.31 289.14 102.14 315.75 101.21 317.73L101.15 317.86C93.7 292.86 89.43 257.29 89.43 257.29L86.06 294.39C86.06 294.39 80.06 320.28 79.99 320.84C79.99 320.84 77.07 322.67 73.63 324.84C68.92 327.77 63.24 331.32 62.79 331.62C62 332.14 73.29 310.32 73.29 310.32L58.29 287.01L65.69 230.23C65.69 230.23 90.02 230.9 90.02 230.23L120.3 283L145.65 249.37Z" fill="#3C6A4C"/>
<path d="M58.31 286.98L42.56 321.07L29.46 266.41L58.31 286.98Z" fill="#3C6A4C"/>
<path d="M79.5399 343.74L64.6199 358.34L39.8799 334.4L42.0699 322.77L42.3399 321.85L42.5699 321.07L58.3099 287L73.3099 310.31C73.3099 310.31 62.0199 332.13 62.8099 331.61C63.5999 331.09 79.9999 320.85 79.9999 320.85C80.2099 320.19 79.5399 343.74 79.5399 343.74Z" fill="#B7C259"/>
<path d="M86.0601 381.29L64.6201 358.34L79.5401 343.74L86.0601 381.29Z" fill="#5ECC6B"/>
<path d="M67.1799 452.13C67.1799 452.13 67.4099 450.59 67.7899 447.99L66.5199 452.61L64.6299 358.34L82.8699 401.79L67.1799 452.13Z" fill="#26342D"/>
<path d="M48.8299 425.42C48.8299 425.42 48.9999 364.62 48.7699 363.96C48.5399 363.3 39.8799 335.07 39.8799 334.4L64.6199 358.34L66.5199 452.61L48.8299 425.42Z" fill="#3C6A4C"/>
<path d="M67.4201 476.16L29.4201 477.94C29.4201 477.94 20.2101 481.05 19.3101 480.82C18.4101 480.59 3.59009 478.38 3.59009 478.38L4.49008 472.83L24.1301 473.66L42.2301 474.44L59.5301 470.67C59.5301 470.67 66.9101 468.79 67.1401 468.85C67.3101 472.93 67.4201 476.16 67.4201 476.16Z" fill="#26342D"/>
<path d="M67.1801 468.85C66.9501 468.79 59.5701 470.67 59.5701 470.67L50.9001 449L48.8301 425.17L66.5201 452.36C66.6301 452.39 67.0001 461.87 67.1801 468.85Z" fill="#26342D"/>
<path d="M59.57 470.67L42.27 474.66L24.17 473.89L13.53 468.85L40.62 458.26L59.57 470.67Z" fill="#3C6A4C"/>
<path d="M24.17 473.89L4.53003 472.83L13.52 468.85H13.53L24.17 473.89Z" fill="#5ECC6B"/>
<path d="M145.65 249.37L120.3 283C119.65 282.36 137.39 210.52 137.39 210.52C142.22 226.47 145.65 249.37 145.65 249.37Z" fill="#3C6A4C"/>
<path d="M140 309.74C140 309.74 130.54 321 127 326C129.57 320.31 134.92 306.07 134.92 305.8C134.92 305.53 121.75 288.42 120.31 284.92C119.31 289.33 101.15 317.86 101.15 317.86L122.58 333.3L125.69 355.54L143.09 338.61L140 309.74Z" fill="#B7C259"/>
<path d="M138.63 428.87L116 388C116 388 116 387.59 115.89 386.84C115.96 385.56 125.72 363.44 125.72 363.44L111.6 344.91C111.6 344.65 106.74 332.86 101.3 318.14L122.73 333.57L125.73 355.63L160.31 424.53L162 456.61L138.63 428.87Z" fill="#3C6A4C"/>
<path d="M125.69 363.36C125.69 363.36 115.93 385.48 115.86 386.76C115.26 379.67 111.57 345.43 111.57 344.83L125.69 363.36Z" fill="#5ECC6B"/>
<path d="M160.27 424.45L125.69 355.55L143.09 338.62L157.7 375.28L160.27 424.45Z" fill="#26342D"/>
<path d="M167.38 469.19L143.72 461.61L139.05 429.72L138.63 428.87L161.96 456.61L167.38 469.19Z" fill="#26342D"/>
<path d="M172.05 480L147.18 479.55C147.18 479.55 143.77 469.68 143.77 469.26V461.9V461.57L167.43 469.15L172.05 480Z" fill="#3C6A4C"/>
<path d="M173.64 483.72L159.72 488.16H147.36L141.53 481.06L143.77 469.72V469.3C143.77 469.72 147.18 479.59 147.18 479.59L172.05 480.04L173.64 483.72Z" fill="#26342D"/>
<path d="M185.93 161.81L166.49 152.09L151.41 119.83L167.47 99.3C167.47 100.39 167.25 114.8 167.47 115.43C167.69 116.06 171.85 130.88 171.85 130.88C171.85 130.88 177.35 149.33 177.35 148.66C177.35 147.99 185.93 161.81 185.93 161.81Z" fill="#3C6A4C"/>
<path d="M166.49 152.09C166.49 152.09 158.34 159.59 154.42 163.45C153.28 162.31 144.35 154.61 142.64 153.36C145.25 154.08 165.36 152.09 166.49 152.09Z" fill="#26342D"/>
<path d="M173.77 216.42L156.86 184.26L154.59 163.62L154.42 163.45C158.34 159.59 166.49 152.09 166.49 152.09L173.77 216.42Z" fill="#5ECC6B"/>
<path d="M185.93 161.81L173.76 216.42L166.49 152.09L185.93 161.81Z" fill="#26342D"/>
<path d="M112.45 69.57L88.66 83.89L80.36 88.89C80.36 88.89 72.77 85.03 72.16 84.37V84.27C72.41 84.1 68.79 76.85 66.53 72.4C66.75 72.2 70.87 67.8 70.95 67.7C74.63 70.47 82.05 75.86 82.32 76.05C82.59 76.24 100.15 66.05 105.19 63.88L112.45 69.57Z" fill="#5ECC6B"/>
<path d="M77.95 99.8L49.98 85.49L72.13 84.25L72.16 84.35L77.95 99.8Z" fill="#3C6A4C"/>
<path d="M36.02 104.51L33.01 121.63L30.74 101.06L49.98 85.49L36.02 104.51Z" fill="#3C6A4C"/>
<path d="M37.92 143.11L14.69 151.6L14.47 132.97L19.26 120.86L33.01 121.63L37.92 143.11Z" fill="#5ECC6B"/>
<path d="M37.6499 161.93V162.03L18.9999 181.71L14.7 151.6L37.6499 161.93Z" fill="#26342D"/>
<path d="M19.6499 246.02L6.91992 243.55L11.3899 239.83L21.8299 241.97" fill="#A26B32"/>
<path d="M114.1 85.49L79.51 98.98L88.65 83.89L114.1 85.49Z" fill="#3C6A4C"/>
<path d="M128.37 105.35L124.54 120.62C124.54 120.62 108.75 130.51 108.38 130.88C108.01 131.25 78.1099 124.88 78.1099 124.88L79.5099 99.01L114.1 85.52L128.37 105.35Z" fill="#5ECC6B"/>
<path d="M166.49 152.09C165.36 152.09 145.25 154.09 142.64 153.36C142.543 153.261 142.423 153.189 142.29 153.15C141.77 152.02 145.06 125.84 145.06 125.84L151.42 119.84L166.49 152.09Z" fill="#5ECC6B"/>
<path d="M171 237.69V242.22L165.7 243.97L171 237.69Z" fill="#6F3E2A"/>
<path d="M120.3 283L90 230.22L100 215.16L128.61 191.68C129.18 193.8 133.78 201.32 137.34 210.55C137.39 210.53 119.65 282.37 120.3 283Z" fill="#26342D"/>
<path d="M90 230.2C90 230.85 65.68 230.2 65.68 230.2L53 204.63L54.33 179.22C54.33 179.22 64.26 200.28 64.74 200.59C65.22 200.9 90.28 200.59 90.28 200.59L108.1 174.85C108.1 174.85 111.18 196.21 111.7 196.72C112.22 197.23 89.51 229.51 90 230.2Z" fill="#5ECC6B"/>
<path d="M97.9001 13.86L97.2801 24L91.4101 25.68L77.7701 31.17L65.3101 24.83L67.4001 13.41C67.4001 13.41 68.8801 24.3 69.2501 24.41C69.6201 24.52 77.91 29.06 78.11 28.94C78.31 28.82 90.7901 23.53 90.7901 23.53L93.4201 14.53L97.9001 13.86Z" fill="#A46B32"/>
<path d="M86.6 50.57L84.04 51.13L72.25 50.86C72.25 50.86 71.01 50.49 70.96 50.49L72.63 49.3C72.63 49.3 81.71 49.23 82.03 49.3C82.35 49.37 86.6 50.57 86.6 50.57Z" fill="#8F5729"/>
<path d="M82.8401 53C82.8401 53 80.6901 55.53 80.4401 55.45C80.1901 55.37 74.6501 55.45 74.6501 55.45L73.0801 53H82.8401Z" fill="#8F5729"/>
<path d="M96.5201 31.88C96.5201 31.88 94.2701 39.37 94.0601 39.44C93.8501 39.51 81.3801 40.0099 81.0601 40.0099L83.1501 33.2L93.6401 28.45L96.5201 31.88Z" fill="#FFFDFD" stroke="#231F20" stroke-linejoin="round"/>
<path d="M74.7499 40.01L67.6699 38.25L66.5399 37.98L64.8799 32.3501L66.6799 28.79L74.2099 33.39L74.7499 40.01Z" fill="#FFFDFD" stroke="#231F20" stroke-linejoin="round"/>
<path d="M81.4399 43.34L94.6499 44.62L98.4099 52.46L95.1599 43L81.7499 43.22" fill="#6A3F26"/>
<path d="M107.71 13.34L94.7101 12.34L78.11 14.78L67.6901 12.06L66.55 8.81001L67.9901 6.22002L89.3 8.66002L101.4 4.01001L107.71 13.34Z" fill="#22201F"/>
<path d="M75.5 27.1001C76.2693 27.561 77.0639 27.9783 77.88 28.3501C77.6628 26.7059 77.3624 25.0738 76.98 23.4601C76.583 23.1133 76.2212 22.728 75.9 22.3101L75.5 27.1001Z" fill="#A46A33"/>
<path d="M78.3999 28.33L79.8899 25.72V27.54L78.3999 28.33Z" fill="#A46A33"/>
<path d="M72.13 84.25L50 85.49C49.2031 82.9425 48.1997 80.4643 47 78.08L64.25 68.59L70.92 67.59C70.84 67.69 66.72 72.09 66.5 72.29C68.76 76.83 72.38 84.08 72.13 84.25Z" fill="#26342D"/>
<path d="M51.05 75.86L30.74 79.56L51.59 79.92L51.05 75.86Z" fill="#26342D"/>
<path d="M171.85 130.88L166.49 130.23L167.49 115.43C167.69 116.1 171.85 130.88 171.85 130.88Z" fill="#5ECC6B"/>
<path d="M65.67 230.12V230.17L40.39 201.11L40.33 201.05L49.41 178.49C49.41 178.49 44.13 145.3 44.35 141.76L33 121.64L49.33 136.89L66.28 130.8L52 144.11L54.37 179.22L53 204.63L65.64 230.06L65.67 230.12Z" fill="#3C6A4C"/>
<path d="M96.37 156.78L98.58 183.61L95.3 188.41L95.03 188.44L88.88 197.14L76.77 198.07V132.23L100.06 143.11L96.37 156.78Z" fill="#5ECC6B"/>
<path d="M101.39 4.06004L102.39 8.86005L79 13.43L66.51 8.86005L67.95 6.27005C69.37 3.73005 71.33 0.210039 71.4 0.0400391C71.4 0.390039 78.72 4.88005 78.72 4.88005L82.67 2.40004L85.97 4.06004H101.39Z" fill="#22201F"/>
<path d="M97.9 13.86C97.9 13.86 102.16 11.59 102.12 11.74C102.08 11.89 99.48 25 99.48 25L97.28 24.07L97.9 13.86Z" fill="#3E383E"/>
<path d="M108.26 30.74V38.26L105.18 41.76L108.26 30.74Z" fill="#6A3F26"/>
<path d="M105.18 41.76L103.27 41.6L108.26 30.74L107.69 36.25L105.18 41.76Z" fill="#6A3F26"/>
<path d="M79.8901 17.29C79.8901 17.1 69.55 9.62997 69.55 9.62997C69.55 9.62997 71.2401 0.809968 71.4301 1.06997C71.6201 1.32997 77.8801 8.66996 77.8801 8.66996L79.8901 17.29Z" fill="#3E383E"/>
<path d="M63.4299 42.73L73.9999 44C73.9999 44 76.7999 45.73 76.6299 45.57L74.1799 43.11L63.4299 42.73Z" fill="#6A3F26"/>
<path d="M129.18 75.4101L114.1 85.4901L88.6599 83.8901L110.82 70.5501L105.2 63.8201L113.39 66.8601L129.18 75.4101Z" fill="#26342D"/>
<path d="M129.4 134.57C129.22 134.99 116.59 144.91 116.59 144.91L115.7 151.25L129.4 134.57Z" fill="#3C6A4C"/>
<path d="M128.66 141.75C128.53 142.18 117.66 154.82 117.66 154.82L117.34 160.23L128.66 141.75Z" fill="#3C6A4C"/>
<path d="M126.93 165.11L126.09 167.54L126.61 165.94L126.93 165.11Z" fill="#A02889"/>
<path d="M75.2001 136.44C75.6201 137.54 74.3501 152.36 74.3501 152.36L60.3501 153.29L63.3501 139.29L75.2001 136.44Z" fill="#5ECC6B"/>
<path d="M73.7301 164.33L73.3101 190.01L59.55 186.18L61.9301 166.67L73.7301 164.33Z" fill="#5ECC6B"/>
<path d="M101.21 317.74L101.15 317.87C93.6999 292.87 90.2799 262.79 90.2799 262.79L86.0599 294.4C86.0599 294.4 80.0599 320.29 79.9899 320.85C79.9899 320.85 77.0699 322.68 73.6299 324.85L79.9999 304.2L88.4099 254L80.6799 251.76L77.1999 245.11L82.9699 249.2L90.2899 248.9C90.2899 248.9 94.5499 255.9 95.0199 256.76C95.4899 257.62 100.3 313.15 101.21 317.74Z" fill="#26342D"/>
<path d="M40.6201 458.26L50.9001 449C50.9001 449 60.1401 471.44 59.5801 470.86C59.0201 470.28 40.6201 458.26 40.6201 458.26Z" fill="#5ECC6B"/>
<path d="M188.87 216V216.45H173.77L191.65 185.69V185.84C192.15 188.43 188.87 216 188.87 216Z" fill="#26342D"/>
<path d="M74.3901 62.7401C74.5201 62.6001 76.3401 59.58 76.3401 59.58L82.6201 59.3L86.5101 62.7401L79.0901 63.7401L74.3901 62.7401Z" fill="#9C6636"/>
<path d="M140.19 132.23L135.97 147.64L126.09 167.54L126.93 165.11L126.61 165.94L133.66 142.31L134.53 127.6L128.37 105.35L138.83 125.32L140.19 132.23Z" fill="#5ECC6B"/>
<path d="M86.0599 381.29L82.8699 401.79L64.6299 358.34L86.0599 381.29Z" fill="#26342D"/>
<path d="M145.05 125.84C145.05 125.84 141.76 152.02 142.28 153.15C141.6 153.15 138.33 124.36 138.33 124.36L125.27 108.62L114.1 85.49L136 97.12V112.67L151.45 119.83L145.05 125.84Z" fill="#3C6A4C"/>
<path d="M73.73 154.32V162.71L61.71 163.45L66.64 155.37L73.73 154.32Z" fill="#5ECC6B"/>
<path d="M103.89 146.68C103.89 146.68 100.13 155.47 100.58 155.92C101.03 156.37 105.85 170.22 105.85 170.22L107.46 155.92L103.89 146.68Z" fill="#3C6A4C"/>
<path d="M96.3599 156.78L76.7599 153.36L75.45 157.78L96.4999 158.48L98.3799 157.43L96.3599 156.78Z" fill="#26342D"/>
<path d="M99.48 171C99.8 170.89 99.89 174.88 99.89 174.88L75.29 167.57V162.94C75.29 162.94 99.15 171.08 99.48 171Z" fill="#26342D"/>
</svg>
