<svg width="167" height="480" viewBox="0 0 167 480" fill="none" xmlns="http://www.w3.org/2000/svg">
<path d="M90.88 42.82H90.83H89.71L85.71 42.89H85.11L80.54 42.97H79.21H77.91H77.81L77.63 43.03L77.19 43.22L76.63 43.46L74.29 44.52L73.94 44.68L73.48 44.9L73.24 45.01L72.89 45.17L70.51 42.76L63.6 42.52H62.97C63.09 43.06 64.8 48.83 64.8 48.83L67.37 55.32L71.67 62.04H82.5L90.2 53L90.27 52.93L91.04 52.03V51.97V51.78L90.88 42.82ZM79.76 49C80.07 49.07 84.19 50.25 84.19 50.25L69 50.13L70.62 48.96C70.62 48.96 79.45 48.9 79.76 49ZM71.08 52.64H80.55C80.55 52.64 78.46 55.13 78.22 55.05C77.98 54.97 72.6 55.05 72.6 55.05L71.08 52.64Z" fill="#E4B17B"/>
<path d="M67.85 0.649902L74.32 2.45992L81.99 0.649902L96.93 4.5899L83.72 7.88991L71.66 7.21991L67.85 0.649902Z" fill="#3E383E"/>
<path d="M163.74 219.2L163.69 219.64L154 218.57L165.13 167.85C165.13 167.85 166.54 189.52 166.91 190.22V190.36C167.1 193 163.74 219.2 163.74 219.2Z" fill="#7C4B20"/>
<path d="M159.47 219.17L154.48 245.81L150.99 231.83L145.45 229.26L145.64 228.82L154 218.57L159.47 219.17Z" fill="#E4B37C"/>
<path d="M154.48 245.81L144.17 248.07L142.3 244.46L147.6 243.32L148.09 238.9L142.3 244.46L140.38 240.74L145.45 229.26L150.99 231.83L154.48 245.81Z" fill="#D1925E"/>
<path d="M166.75 246.06L161.72 250.01L144.17 248.07L154.48 245.81L166.75 246.06Z" fill="#9E6F5A"/>
<path d="M163.69 219.64L166.75 246.06L154.48 245.81L159.47 219.17L163.69 219.64Z" fill="#D1925E"/>
<path d="M140.84 80.7101L129.38 98.1801L109.26 84.4601L123.89 76.1401L124.11 76.2401L140.84 80.7101Z" fill="#F8B517"/>
<path d="M97.88 65.5398C92.93 67.7098 79.96 74.6798 78.55 75.1198C78.48 75.1198 78.44 75.1198 78.43 75.1198C78.17 74.9398 71.95 69.8298 68.38 67.1198L77.56 70.6498L96.66 60.5498V64.6798L97.88 65.5398Z" fill="#D0A17F"/>
<path d="M96.7 54.5498V60.5498L77.6 70.6498L68.42 67.1198L69.49 61.5898L71.3 63.7798H82.6L96.7 54.5498Z" fill="#BB865E"/>
<path d="M97.47 45.0498L98.02 44.4598L97.47 45.0498L96.7 54.5498L82.54 63.7698L91.13 51.7698C93.7152 48.1761 95.9298 44.3298 97.74 40.2898C97.89 39.9098 97.47 44.8698 97.47 45.0498Z" fill="#966C54"/>
<path d="M91.07 51.84L82.54 63.77H71.24L69.43 61.58L67.16 55.68L64.8 49.1L62.26 42.52L63.57 42.59L65.41 48.94L67.98 55.43L71.66 62.15H82.49L91.07 51.84Z" fill="#C7915D"/>
<path d="M102.45 28.5298L104.59 38.4798L97.47 45.0498C97.47 44.8698 97.89 39.9098 97.74 40.2598C99.2245 36.4944 100.21 32.5509 100.67 28.5298H102.45Z" fill="#D0A17F"/>
<path d="M102.06 13.6899L100.89 28.4399L91.9399 24.1699L92.5399 14.1699L88.2 14.8799L76.5699 18.3299L63.9399 13.7499L62.7 24.9999L63.1099 9.31992C63.1099 9.31992 74.0399 11.7199 74.2899 11.7199C74.5399 11.7199 91.3699 10.1399 91.7399 10.0199C92.1099 9.89991 97.0699 7.9299 97.3499 7.6499L102.06 13.6899Z" fill="#22201F"/>
<path d="M88.2 14.9098L85.64 23.7198C85.64 23.7198 74.5199 28.8898 74.3399 29.0198C74.1599 29.1498 66.1099 24.6998 65.7399 24.5798C65.3699 24.4598 63.9399 13.7798 63.9399 13.7798L76.0699 18.1798L88.2 14.9098Z" fill="#E4B17B"/>
<path d="M100.9 28.5299L97.11 30.5599L92.18 32.0499L89.42 28.6799L87.11 25.8699L91.94 24.1699L100.89 28.4399H100.88L100.9 28.5299Z" fill="#EE4023"/>
<path d="M97.4201 30.3702C97.4201 30.3702 92.7301 39.2502 91.3201 42.0102L91.0701 42.4802L90.9101 42.7702L77.9101 42.9902C77.6201 42.9902 72.9101 45.2102 72.9101 45.2102L70.5301 42.8002L63.9901 42.5402L62.3 42.4702L64.2501 38.0802L71.1201 39.8002L72.4901 32.9902L63.2901 28.8002L62.4701 25.2902L62.7401 24.9302L74.0001 31.2002L87.2301 25.8202L89.4301 28.5102L76.0601 33.4002L77.2201 39.8502C77.5001 39.8502 89.6101 39.3602 89.8101 39.2902C90.0101 39.2202 92.1901 31.8802 92.1901 31.8802L97.4201 30.3702Z" fill="#EE4023"/>
<path d="M72.45 33.0401L71.08 39.8501L70.55 33.3601L63.25 28.8501L72.45 33.0401Z" fill="#EE4023"/>
<path d="M64.21 38.1299L62.26 42.5199L60.01 33.5898V28.5298L62.43 25.3398L63.25 28.8499L61.5 32.3398L63.11 37.8598L64.21 38.1299Z" fill="#EE4023"/>
<path d="M89.4401 28.5098L79.2601 33.1698L77.2301 39.8498L76.0701 33.3998L89.4401 28.5098Z" fill="#EE4023"/>
<path d="M100.9 28.5298C100.66 28.8798 100.38 34.5298 97.98 40.2398L97.87 40.4998C95.72 45.5598 91.75 50.5898 91.2 51.7398C91.2 51.7398 91.2 51.8898 91.14 51.9298C91.1214 51.9661 91.0938 51.9971 91.06 52.0198L90.83 42.7998V42.7498C90.83 42.7498 90.92 42.5998 90.99 42.4598L91.24 41.9898C92.72 39.2398 97.34 30.3498 97.34 30.3498L100.52 28.6098L100.81 28.5098L100.9 28.5298Z" fill="#EE4023"/>
<path d="M123.11 103.94L117 118.15C117 118.15 102.45 126.65 102.1 127.01C101.75 127.37 74.67 121.59 74.67 121.59L76.46 98.7001L84.6 82.8901L76.55 87.7801C76.55 87.7801 69.18 83.9901 68.55 83.3401L74 99.7301L70.31 122.07L47.05 128.37L34.29 119.56L46.38 134.88L62.83 128.88L49 142L53.23 178.37C53.23 178.37 60.94 197.1 61.4 197.37C61.86 197.64 86.19 197.37 86.19 197.37L103.48 172.12L113.81 166.56C113.81 166.44 113.81 166.38 113.81 166.38L114.09 165.62V165.57L126.45 125.12L123.11 103.94ZM92.05 154.39L92.19 156.04L94.19 180.69L91 185.41H90.73L73 187.56V130.31L95.63 141L92.05 154.39ZM79.63 129C79.63 129 104.25 133.56 104.92 133.39C105.59 133.22 125.39 117.44 126 117L106.92 141L79.63 129Z" fill="#EE4023"/>
<path d="M126 117L106.92 141L79.62 129C79.62 129 104.24 133.56 104.91 133.39C105.58 133.22 125.39 117.44 126 117Z" fill="#7C4B20"/>
<path d="M74.04 99.7299L70.35 122.07L47.09 128.37L34.33 119.56L33.49 103.12L48.6 84.46L74.04 99.7299Z" fill="#F8B517"/>
<path d="M48.6 84.4602L30.66 99.7302L26.26 94.4702L33 79.2902L44.59 78.4202L45.12 78.1802C46.33 80.1402 48.6 84.4602 48.6 84.4602Z" fill="#F8B517"/>
<path d="M24.96 119.09L25.01 118.95L26.25 94.4702L30.66 99.7302L34.33 119.56L24.96 119.09Z" fill="#EE4023"/>
<path d="M52.42 201.32L64.7399 226.38L63.5999 224.59L63.1299 223.85L62.8699 223.45L62.3099 222.56L61.6899 221.56L61.3599 221.04L60.3099 219.39L59.1799 217.61L58.39 216.36L57.5799 215.09L57.17 214.44L56.3699 213.18L55.0299 211.08L54.2499 209.84L53.4299 208.54C49.7699 202.76 46.6299 197.73 46.5699 197.48L49.9999 176.9C49.9999 176.9 43.7999 138.69 43.9999 135.22C43.0999 137.65 34.3699 157.75 33.6499 159.17L18.1899 151.36L32.2899 139L34.2899 119.57L46.3799 134.89L62.8299 128.89L48.9999 142L53.2299 178.37L52.42 201.32Z" fill="#7C4B20"/>
<path d="M18.18 151.36L16.97 178.84L6.57004 213.28L0.540039 209.84L11.78 163.55L18.18 151.36Z" fill="#F8B517"/>
<path d="M33.58 159.27L31.8901 172.97L12.3101 213.54L6.57007 213.28L16.9701 178.84L33.58 159.27Z" fill="#7C4B20"/>
<path d="M11.31 228.74L3.35999 241.79L0.109985 227.92L0.540009 209.84L6.57001 213.28L11.31 228.74Z" fill="#D2935C"/>
<path d="M18.9701 225.44L11.3101 228.74L6.57007 213.28L12.3101 213.54L18.8501 225.09L18.9701 225.44Z" fill="#E5B47E"/>
<path d="M22.33 235.33L19.7201 237.95L11.3101 228.74L18.9701 225.44L22.33 235.33Z" fill="#CF975D"/>
<path d="M19.72 237.95L17.61 241.92L16.88 243.29L3.38 241.87L3.35999 241.79L11.31 228.74L19.72 237.95Z" fill="#9D6D5F"/>
<path d="M118.35 191L95.63 211.67L85.9 226.4C85.4 225.73 107.43 194.06 106.9 193.56C106.37 193.06 103.41 172.11 103.41 172.11L113.74 166.55C113.97 168.67 118.2 189.61 118.2 190.44C118.237 190.63 118.287 190.817 118.35 191Z" fill="#7C4B20"/>
<path d="M64.75 226.4L55.12 282.1L40 265.21L46.62 197.51C46.76 198.1 64.24 225.51 64.79 226.38L64.75 226.4Z" fill="#F8B517"/>
<path d="M131 247.91L134.34 304.42C134.34 304.42 125.21 315.49 121.77 320.42C124.27 314.84 129.46 300.87 129.46 300.61C129.46 300.35 116.68 283.56 115.28 280.13C115.37 279.72 115.37 279.5 115.28 279.52C115.19 279.54 115.16 279.76 115.28 280.13C114.28 284.27 103.22 308.28 102.28 310.22L102.22 310.35C95 285.78 85.32 253 85.32 253L80.06 289.41C80.06 289.41 74.81 314.88 74.76 315.41C73.358 316.889 71.7557 318.165 70 319.2C65.43 322.08 59.92 325.56 59.48 325.85C58.71 326.36 69.67 304.96 69.67 304.96L55.12 282.1L64.75 226.4C64.75 226.4 85.91 227.06 85.91 226.4L115.28 278.18L131 247.91Z" fill="#7C4B20"/>
<path d="M55.1199 282.1L49.39 314.68L39.95 265.21L55.1199 282.1Z" fill="#7C4B20"/>
<path d="M73.0499 337.77L61.2499 352.09L45.6899 327.75L48.9099 316.34L49.17 315.44L49.39 314.68L55.1199 282.1L69.6599 305C69.6599 305 58.6599 326.4 59.4699 325.89L74.7499 315.46C74.9999 314.77 73.0499 337.77 73.0499 337.77Z" fill="#EE4023"/>
<path d="M79.37 374.6L61.25 352.09L73.05 337.77L79.37 374.6Z" fill="#F4831F"/>
<path d="M79.37 374.6L63.09 444.56L61.25 352.09L79.37 374.6Z" fill="#F4831F"/>
<path d="M51.67 419.36C51.67 419.36 49.4399 358.36 49.2199 357.69C48.9999 357.02 45.6899 328.41 45.6899 327.75L61.2499 352.09L63.0899 444.56L51.67 419.36Z" fill="#7C4B20"/>
<path d="M64 467.66L27.17 469.4C27.17 469.4 18.23 472.45 17.36 472.23C16.49 472.01 2.09998 469.84 2.09998 469.84L2.96997 464.39L22.03 465.21L39.6 465.97L56.39 462.27C56.39 462.27 63.55 460.43 63.77 460.49C63.86 464.49 64 467.66 64 467.66Z" fill="#7C4B20"/>
<path d="M63.7299 460.49C63.5099 460.43 56.3499 462.27 56.3499 462.27L47.9399 441L51.67 419.1L63.0899 444.3C63.1999 444.34 63.5199 453.64 63.7299 460.49Z" fill="#EE4023"/>
<path d="M56.35 462.27L39.56 466.19L21.99 465.43L11.67 460.49L37.95 450.1L56.35 462.27Z" fill="#F4831F"/>
<path d="M21.9899 465.43L2.92993 464.39L11.6599 460.49H11.67L21.9899 465.43Z" fill="#EE4023"/>
<path d="M131 247.91L115.28 278.2C114.65 277.58 121.74 211.85 121.74 211.85C126.43 227.48 131 247.91 131 247.91Z" fill="#EE4023"/>
<path d="M134.35 304.42C134.35 304.42 133.46 305.5 132.13 307.14L131.32 308.14C130.71 308.89 130.05 309.71 129.32 310.58C129.06 310.9 128.79 311.23 128.53 311.58C128.27 311.93 128.01 312.22 127.76 312.58L126.76 313.8C125.86 314.94 124.97 316.09 124.15 317.15L123.34 318.22C123.312 318.267 123.279 318.311 123.24 318.35C122.84 318.88 122.48 319.35 122.14 319.84L121.8 320.32C121.767 320.357 121.737 320.398 121.71 320.44L121.77 320.31C122.24 319.25 122.77 317.9 123.41 316.42L124 315L124.06 314.86C124.46 313.86 124.87 312.81 125.27 311.76C125.4 311.44 125.52 311.13 125.64 310.82C125.94 310.04 126.24 309.27 126.52 308.51C126.8 307.75 127.02 307.2 127.25 306.59C127.48 305.98 127.62 305.59 127.78 305.17C127.94 304.75 128.05 304.47 128.17 304.17C128.29 303.87 128.37 303.61 128.47 303.35C129.06 301.75 129.47 300.7 129.47 300.63C129.47 300.4 116.69 283.58 115.29 280.15C115.29 280.23 115.29 280.32 115.22 280.41C115.207 280.474 115.19 280.538 115.17 280.6C115.17 280.68 115.12 280.77 115.09 280.86C115.06 280.95 114.97 281.24 114.89 281.46L114.77 281.8C114.77 281.92 114.68 282.04 114.64 282.17C114.6 282.3 114.54 282.42 114.5 282.55C114.46 282.68 114.39 282.82 114.34 282.96L114.05 283.72L113.93 284C113.88 284.14 113.82 284.29 113.76 284.43C113.52 285.04 113.26 285.68 112.98 286.36C112.91 286.53 112.84 286.7 112.76 286.87C112.68 287.04 112.65 287.13 112.59 287.27C112.53 287.41 112.43 287.66 112.34 287.86C111.96 288.75 111.57 289.69 111.15 290.64C111.02 290.96 110.88 291.28 110.74 291.64C110.6 291.96 110.46 292.29 110.31 292.64L109 295.64L108.24 297.36L107.4 299.23L106.58 301.04L105.87 302.62L105.35 303.76L103.77 307.23L103.43 307.95L103.23 308.39C103.18 308.51 103.12 308.62 103.07 308.73L102.97 308.95C102.83 309.25 102.71 309.5 102.62 309.71L102.49 310L102.39 310.21L102.34 310.32L102.28 310.45L117.5 327.68L120.5 349.44L135.61 334.62L134.35 304.42Z" fill="#EE4023"/>
<path d="M135.68 421.28L116.12 382.37C116.12 382.37 116.12 381.96 116.02 381.23C116.08 379.97 120.51 357.06 120.51 357.06L109.94 336.72C109.94 336.47 106.54 324.86 102.39 310.53L117.61 327.76L120.51 349.4L151.76 417.8L155.71 448.52L135.68 421.28Z" fill="#7C4B20"/>
<path d="M120.51 357C120.51 357 116.08 379.91 116.02 381.17C115.43 374.17 109.94 337.25 109.94 336.66L120.51 357Z" fill="#F4831F"/>
<path d="M151.76 417.76L120.51 349.36L135.62 334.54L146.27 368.22L151.76 417.76Z" fill="#F4831F"/>
<path d="M160.97 460.82L138.01 453.39L136.09 422.12L135.68 421.28L155.71 448.48L160.97 460.82Z" fill="#EE4023"/>
<path d="M165.5 471.46L141.37 471C141.37 471 138.06 461.32 138.06 460.91V453.69L138.01 453.37L161.01 460.8L165.5 471.46Z" fill="#F8B517"/>
<path d="M167 475.07L153.49 479.43H141.49L135.83 472.43L138.01 461.31V460.9C138.01 461.31 141.32 470.99 141.32 470.99L165.45 471.43L167 475.07Z" fill="#7C4B20"/>
<path d="M152.94 155C152.94 155 146.8 160.1 142.61 163.45C141.61 162.21 136.12 152.62 134.61 151.22C137 152.17 151.85 154.85 152.94 155Z" fill="#7C4B20"/>
<path d="M154 218.57L144.1 181.44L142.75 163.6L142.61 163.42C146.8 160.07 152.94 154.97 152.94 154.97L154 218.57Z" fill="#F4831F"/>
<path d="M165.13 167.85L154 218.57L152.94 154.97L165.13 167.85Z" fill="#EE4023"/>
<path d="M105.05 70.44L84.57 82.89L76.52 87.78C76.52 87.78 69.15 83.99 68.52 83.34V83.25C68.77 83.08 65.83 76.08 63.64 71.7L66.38 69.05L66.78 68.67C67.05 68.43 67.29 68.2 67.51 67.99C67.95 67.58 68.26 67.26 68.34 67.16C71.91 69.88 78.13 74.99 78.39 75.16C78.39 75.16 78.44 75.16 78.51 75.16C79.84 74.63 91.92 66.72 96.59 64.73L97.84 65.58L105.05 70.44Z" fill="#7C4B20"/>
<path d="M74.04 99.73L48.6 84.46L68.53 83.25L68.56 83.34L74.04 99.73Z" fill="#F8B517"/>
<path d="M33.49 103.12L34.33 119.56L30.66 99.7299L48.6 84.46L33.49 103.12Z" fill="#7C4B20"/>
<path d="M32.2899 138.99L18.1799 151.36L20.0799 132.25L24.9599 119.09L34.3299 119.56L32.2899 138.99Z" fill="#F8B517"/>
<path d="M33.63 159.17C33.6161 159.205 33.5993 159.238 33.58 159.27L17 178.84L18.21 151.36L33.63 159.17Z" fill="#EE4023"/>
<path d="M17.61 241.92L6.57007 239.5L9.59006 235.85L19.7201 237.95L17.61 241.92Z" fill="#CF975D"/>
<path d="M109.26 84.4601L76.4299 98.7001L84.5699 82.8901L109.26 84.4601Z" fill="#F8B517"/>
<path d="M123.11 103.94L117 118.15C117 118.15 102.45 126.65 102.1 127.01C101.75 127.37 74.67 121.59 74.67 121.59L76.46 98.7L109.29 84.46L123.11 103.94Z" fill="#F8B517"/>
<path d="M148.09 238.9L147.6 243.32L142.3 244.46L148.09 238.9Z" fill="#966445"/>
<path d="M92.05 154.39L94.2 180.7L91.02 185.41L73.03 187.56V130.31L95.63 140.98L92.05 154.39Z" fill="#F8B517"/>
<path d="M115.28 278.2L85.91 226.42L95.64 211.65L118.35 191C118.9 193.08 120.22 201.33 121.74 211.89C121.74 211.85 114.65 277.58 115.28 278.2Z" fill="#F8B517"/>
<path d="M85.9 226.4C85.9 227.04 64.74 226.4 64.74 226.4L52.42 201.34L53.19 178.34C53.19 178.34 60.9 197.07 61.36 197.34C61.82 197.61 86.15 197.34 86.15 197.34L103.44 172.09C103.44 172.09 106.44 193.04 106.93 193.54C107.42 194.04 85.4 225.73 85.9 226.4Z" fill="#EE4023"/>
<path d="M92.5399 14.1998L91.9399 24.1998L87.2399 25.8498L73.9999 31.1998L62.7 24.9998L63.9399 13.7998C63.9399 13.7998 65.3799 24.4798 65.7399 24.5998C66.0999 24.7198 74.1499 29.1598 74.3399 29.0398C74.5299 28.9198 85.64 23.7398 85.64 23.7398L88.2 14.9298L92.5399 14.1998Z" fill="#D0965D"/>
<path d="M84.2 50.2098L81.71 50.7598L70.27 50.4998C70.27 50.4998 69.07 50.1298 69.02 50.1298L70.64 48.9598C70.64 48.9598 79.45 48.8998 79.76 48.9598C80.07 49.0198 84.2 50.2098 84.2 50.2098Z" fill="#8F5729"/>
<path d="M80.55 52.6001C80.55 52.6001 78.46 55.0901 78.22 55.0101C77.98 54.9301 72.6 55.0101 72.6 55.0101L71.08 52.6001H80.55Z" fill="#8F5729"/>
<path d="M92.2 31.8798C92.2 31.8798 90.02 39.2198 89.82 39.2898C89.62 39.3598 77.51 39.8498 77.23 39.8498L79.23 33.1698L89.41 28.5098L92.2 31.8798Z" fill="#FFFDFD" stroke="#231F20" stroke-linejoin="round"/>
<path d="M71.08 39.8501L64.21 38.1301L63.11 37.8601L61.5 32.3401L63.25 28.8501L70.55 33.3601L71.08 39.8501Z" fill="#FFFDFD" stroke="#231F20" stroke-linejoin="round"/>
<path d="M77.5701 43.1198L90.3901 44.3698L91.0901 51.9898L90.8801 42.8198L77.8801 43.0398L77.5701 43.1198Z" fill="#6A3F26"/>
<path d="M102.06 13.6898L89.44 12.7598L74.33 15.1498L64.21 12.4899L63.11 9.29985L64.51 6.75984L85.19 9.14984L96.93 4.58984L102.06 13.6898Z" fill="#22201F"/>
<path d="M74.62 28.3998L76.07 25.8398V27.6198L74.62 28.3998Z" fill="#D0965D"/>
<path d="M67.52 67.9999C67.3 68.2099 67.06 68.4399 66.79 68.6799L68.35 67.1499C68.27 67.2599 68 67.5799 67.52 67.9999Z" fill="#643090"/>
<path d="M68.5301 83.2502L48.6001 84.4602C48.6001 84.4602 46.8801 81.1802 45.6001 79.0402C45.4101 78.7202 45.2301 78.4302 45.0701 78.1802L48.4501 76.1802L48.58 76.1002V76.1602C51.89 75.7702 59.1701 75.1602 59.1701 75.1602C60.7507 74.1408 62.2426 72.9901 63.6301 71.7202C65.8401 76.0802 68.7801 83.0802 68.5301 83.2502Z" fill="#EE4023"/>
<path d="M48.5999 76.1099V78.9999H45.5999L32.95 79.2499L46.89 76.3399L48.5999 76.1099Z" fill="#EE4023"/>
<path d="M92.05 154.39L73.03 151.03L71.76 155.37L92.19 156.05L94.01 155.02L92.05 154.39Z" fill="#EE4023"/>
<path d="M52.42 201.32L64.74 226.38L63.6 224.59L63.13 223.85L62.87 223.45L62.31 222.56L61.69 221.56L61.36 221.04L60.31 219.39L59.18 217.61L58.39 216.36L57.58 215.09L57.17 214.44L56.37 213.18L55.03 211.08L54.25 209.84L53.43 208.54C49.77 202.76 46.63 197.73 46.57 197.48L50 176.9C50 176.9 43.8 138.69 44 135.22L34.34 119.56L46.43 134.88L62.88 128.88L49 142L53.23 178.37L52.42 201.32Z" fill="#7C4B20"/>
<path d="M96.93 4.5899V9.29991L74.23 13.7799L63.11 9.29991L64.51 6.7599C65.88 4.2699 67.79 0.809902 67.85 0.649902C67.85 0.989902 74.96 5.38991 74.96 5.38991L78.79 2.95992L81.99 4.5899H96.93Z" fill="#22201F"/>
<path d="M92.5399 14.2C92.5399 14.2 96.68 11.97 96.64 12.12C96.6 12.27 95.0699 25.51 95.0699 25.51L91.9399 24.17L92.5399 14.2Z" fill="#3E383E"/>
<path d="M101.46 30.7598L103.6 38.1298L100.61 41.5698L101.46 30.7598Z" fill="#AB8569"/>
<path d="M100.61 41.5698L98.76 41.4098L101.46 30.7598L103.04 36.1598L100.61 41.5698Z" fill="#AB8569"/>
<path d="M76.0701 17.5701C76.0701 17.3801 66.0701 10.0501 66.0701 10.0501C66.0701 10.0501 67.7101 1.41011 67.8901 1.66011C68.0701 1.91011 74.1601 9.1101 74.1601 9.1101L76.0701 17.5701Z" fill="#3E383E"/>
<path d="M62.26 42.52L70.31 43.73C70.31 43.73 73.03 45.42 72.87 45.26L70.49 42.85L62.26 42.52Z" fill="#6A3F26"/>
<path d="M123.89 76.1399L109.26 84.4599L84.5701 82.8899L105.05 70.4399L106.3 71.2899L123.89 76.1399Z" fill="#EE4023"/>
<path d="M123.11 103.94L123.06 125.15L113.77 166.55L127.04 124.67L123.11 103.94Z" fill="#F4831F"/>
<path d="M70.44 137.65C70.78 138.5 69.76 149.95 69.76 149.95L58.54 150.68L60.91 139.84L70.44 137.65Z" fill="#F8B517"/>
<path d="M102.33 310.18L102.27 310.31C95 285.78 85.32 253 85.32 253L80.06 289.41C80.06 289.41 74.81 314.88 74.76 315.41C73.358 316.889 71.7557 318.165 70 319.2L76.2 299L84.33 249.79L77.16 246.45L74.11 238L80.58 243.39H88.5C88.5 243.39 90.29 251.7 90.75 252.54C91.21 253.38 101.45 305.68 102.33 310.18Z" fill="#F4831F"/>
<path d="M38 450.1L48 441.04C48 441.04 57 463.04 56.42 462.49C55.84 461.94 38 450.1 38 450.1Z" fill="#DC5526"/>
<path d="M163.74 219.2L163.69 219.64L154 218.57L166.91 190.22V190.36C167.1 193 163.74 219.2 163.74 219.2Z" fill="#F8B517"/>
<path d="M71.66 62.1498C71.79 62.0098 73.56 59.0498 73.56 59.0498L78.71 58.7798L82.49 62.1498L75.29 63.0998L71.66 62.1498Z" fill="#C7915D"/>
<path d="M151.52 105.15V105.22L141.86 121.92L127.36 113.38L129.36 98.1799L140.82 80.71H141.14L151.52 105.15Z" fill="#EE4023"/>
<path d="M135.09 127.09C135.09 127.09 133.89 149.79 134.28 150.95C133.62 150.88 126.83 126.2 126.83 126.2L121.2 105.34L109.57 84.46L129.41 98.13L127.74 113.29L141.86 121.92L135.09 127.09Z" fill="#EE4023"/>
<path d="M165.13 167.85L152.94 155L141.87 121.95L151.61 105C151.51 106.07 154.42 120 154.56 120.66C154.7 121.32 155.18 134.27 155.18 134.27C155.18 134.27 155.87 153.86 155.94 153.21C156.01 152.56 165.13 167.85 165.13 167.85Z" fill="#7C4B20"/>
<path d="M152.94 155C151.85 154.88 137.04 152.2 134.6 151.22C134.517 151.117 134.411 151.035 134.29 150.98C133.9 149.82 135.1 127.12 135.1 127.12L141.87 121.95L152.94 155Z" fill="#F8B517"/>
<path d="M46.92 76.3699L48.6 76.1099V76.1699H48.47L46.91 76.3599L46.92 76.3699Z" fill="#662F8E"/>
</svg>
