<svg width="169" height="517" viewBox="0 0 169 517" fill="none" xmlns="http://www.w3.org/2000/svg">
<path d="M101.27 43.55L94.9999 40.4C94.9999 40.4 81.4299 49.14 80.9999 49.47C80.5699 49.8 83.5599 39.78 83.5599 39.78L82.1999 40.4L76.9099 48.66L77.6999 54.52L77.5099 63.7L82.1999 62.7L101.43 56.52L104.74 58.1L101.27 43.55Z" fill="#F3EB50"/>
<path d="M36.2401 142.51C35.5684 141.979 35.0363 141.293 34.6901 140.51C34.4437 139.581 34.5506 138.594 34.9901 137.74C35.7251 136.198 36.8835 134.898 38.3301 133.99C39.7784 133.101 41.3481 132.428 42.9901 131.99C46.1714 130.991 49.5229 130.651 52.8401 130.99C54.011 131.103 55.1487 131.443 56.1901 131.99C57.3408 132.724 58.2538 133.776 58.8183 135.018C59.3828 136.261 59.5744 137.641 59.3701 138.99C58.8992 141.703 57.4025 144.131 55.1901 145.77" fill="#E7C053"/>
<path d="M117.54 142.12C117.147 143.433 116.397 144.61 115.372 145.52C114.348 146.429 113.09 147.036 111.74 147.27C110.931 147.436 110.089 147.338 109.34 146.99C108.338 146.26 107.628 145.196 107.34 143.99C106.001 140.874 105.077 137.596 104.59 134.24C104.357 132.956 104.543 131.631 105.12 130.46C105.576 129.771 106.213 129.22 106.96 128.867C107.708 128.515 108.538 128.374 109.36 128.46C111 128.657 112.55 129.316 113.83 130.36C116.248 132.172 118.125 134.61 119.26 137.41C119.53 138.09 119.91 138.91 120.64 138.96" fill="#E7C053"/>
<path d="M105.93 164.57C108.773 161.583 111.134 158.172 112.93 154.46C113.366 153.646 113.66 152.763 113.8 151.85C113.863 151.392 113.824 150.926 113.686 150.485C113.547 150.044 113.313 149.64 113 149.3C112.442 148.813 111.739 148.521 111 148.47C109.65 148.322 108.283 148.475 107 148.92C104.645 149.634 102.467 150.836 100.608 152.449C98.7491 154.062 97.2517 156.049 96.2135 158.28C95.1752 160.511 94.6196 162.937 94.5828 165.397C94.546 167.858 95.0289 170.299 95.9999 172.56C96.1462 172.979 96.4058 173.35 96.7499 173.63C97.0926 173.791 97.4692 173.866 97.8473 173.848C98.2254 173.831 98.5936 173.722 98.92 173.53C105.77 170.53 103.52 171.53 105.27 169.33" fill="#827140"/>
<path d="M126.57 99L113.22 105.14L111.63 105.06L119.78 91L112.49 52.11L107.33 67.11L104.73 69.11V58.09L101.27 43.55L98.72 32.88L97.39 27.3L75.68 33.62L59.59 26.2L55.59 32.14C55.59 32.14 55.59 34.77 55.59 37.78C54.96 40.31 53.3 47.01 53.3 47.72C53.3 48.61 54.44 62.9 54.8 63.64C55.16 64.38 50.2 74.4 50.2 74.4L55.83 70.57L59.63 63.97L62.12 73.3L66.36 80.6V100.86L55.56 105.06L54.88 104.83L43.79 101.06L40.46 63.06L46.51 26.21L61.51 5.56L79.97 0.559998L103.46 7.56L117.88 33.56L120.82 54.7L117.4 57.76L125.47 86.55L126.57 99Z" fill="#594422"/>
<path d="M53.2599 46.88L46.5999 61.14L45.5199 58L43.6099 65.84L50.8599 103.44C50.8599 103.44 60.0599 96.33 60.7099 95.44C61.3599 94.55 59.0599 70.77 59.0599 70.77L56.3999 55.01L53.2599 46.88Z" fill="#392317"/>
<path d="M52.9401 72.54L53.9401 80.6L52.1301 85.12L50.8401 103.45C50.8401 103.45 62.0701 110.6 62.3701 110.5C62.6701 110.4 70.3701 107.29 70.5301 106.89C70.6901 106.49 74.5301 96.15 74.4101 94.55C74.2901 92.95 74.5401 78.97 73.9701 78.63C73.4001 78.29 67.1801 72.28 66.7801 71.98C66.3801 71.68 62.6701 63.05 62.6701 63.05L59.1901 60.94L52.9401 72.54Z" fill="#392317"/>
<path d="M96.3701 80.41L96.1601 83.79L78.6101 101.05L78.9101 122.49L68.9101 127.31L45.0001 118C45.0001 118 44.6801 115 45.0001 114.58L54.9001 104.88L55.5801 105.11L66.3801 100.91V80.65L62.1401 73.35L59.6501 64V63.73L58.6501 58.36C58.6501 58.36 58.3501 57.36 57.9501 55.86L60.7801 59.03C60.7801 59.03 73.6001 63.08 74.0601 63.08C74.5201 63.08 78.0601 67.08 78.0601 67.08V73.82L70.6401 72.43L73.7401 77.28L78.0601 78.67V88.67H83.1801L96.3701 80.41Z" fill="#AE7136"/>
<path d="M75.6901 33.62L71.9201 35.14L71.5701 39.77L55.6001 32.14L59.5901 26.2L75.6901 33.62Z" fill="#E1C252"/>
<path d="M98.7199 32.88L83.5499 39.78L82.1899 40.4L81.5799 35.81L75.6899 33.62L97.39 27.3L98.7199 32.88Z" fill="#E1C252"/>
<path d="M101.27 43.55L95.0001 40.4C95.0001 40.4 81.4301 49.14 81.0001 49.47C80.5701 49.8 83.5601 39.78 83.5601 39.78L98.7301 32.88L101.27 43.55Z" fill="#F2914B"/>
<path d="M78.29 61.44L79.54 55.83L81.93 61.44H78.29Z" fill="#602852"/>
<path d="M101.27 50.81L92.8799 56.51L82.1899 51.93C82.8299 51.93 95.7699 43.08 95.7699 43.08L101.27 47.6V50.81Z" fill="#602852"/>
<path d="M74.0001 63.08C73.5301 63.08 60.7101 59.03 60.7101 59.03L57.8801 55.85C57.0001 52.62 55.5801 47.3 55.6101 46.44C55.6101 45.74 55.6101 41.49 55.6101 37.81V32.17L60.5601 42.46L60.7501 43.11L60.9201 43.7L57.0001 48.29L64.0801 56.53L64.7401 56.17L74.0001 63.08Z" fill="#F2914B"/>
<path d="M149.14 194.6L149.39 207.78L139.57 216.18L140.63 189.05L132.71 180.35L121.44 152.18L123.16 136.28C123.87 135.91 143.3 127.39 143.3 127.39L131.65 149.39C131.65 149.39 145.22 188 146 187C146.78 186 153.21 192 153.21 192L149.14 194.6Z" fill="#DC9159"/>
<path d="M24 163.73L25.78 199.1C25.78 199.1 23.23 193.87 23.09 194.23C22.95 194.59 23.09 200.54 23.09 202.35L13.45 198.15C13.45 198.15 15.53 175.87 15.53 174.3C15.53 172.73 19.35 135.85 19.35 135.85L27.19 140.17C27.19 140.17 31 139.01 33.89 138.17L24 163.73Z" fill="#DC9159"/>
<path d="M163.05 195.8L147.93 208.48L147.67 195.31L151.78 192.78C151.78 192.78 145.39 186.78 144.57 187.78C143.75 188.78 130.19 150.13 130.19 150.13L143.4 127.42L162.52 182.67L163.05 195.8Z" fill="#F1B280"/>
<path d="M108.06 111.4C108.83 113.009 109.681 114.578 110.61 116.1L71.4899 128.36L68.9299 127.36L78.9299 122.54L78.6299 101.1L96.1799 83.84L96.9999 99.9L111.7 105.1L113.28 105.18L108.06 111.4Z" fill="#C68650"/>
<path d="M36.06 167.48L34 189.73L32.82 207.73L23 202.35C23 200.54 22.9 194.53 23 194.23C23.1 193.93 25.69 199.1 25.69 199.1L24 163.73L33.88 138.15C34.5842 137.921 35.3024 137.737 36.03 137.6L34.5 139.72L31.45 151.38L30.78 152.6L36.06 167.48Z" fill="#F1B280"/>
<path d="M75.8799 52.11L72.8399 47.62L61.4499 43.11H60.7699L60.5799 42.46L55.6299 32.17L71.5999 39.79L74.8899 45.3L75.8799 52.11Z" fill="#F2914B"/>
<path d="M119.78 90.97L111.63 105.06L96.9399 99.87L96.1499 83.8V83.79L96.3699 80.41L99.7099 73.88L104.73 58.09V69.04L107.33 67.04L112.5 52.09L119.78 90.97Z" fill="#392317"/>
<path d="M104.73 58.09L99.71 73.88L96.37 80.41L83.09 88.58H77.97V78.63L81.93 78.06L86.07 73.78L90.19 69.04L86.07 72.39L77.97 73.78V67.04L82.19 62.69L101.42 56.51L104.73 58.09Z" fill="#C68650"/>
<path d="M90.2001 69.04L86.0701 73.78L81.9401 78.06L77.9701 78.63L73.6601 77.24L70.55 72.39L76.3 75.37L80.3701 74.94L86.0701 72.39L90.2001 69.04Z" fill="#A96739"/>
<path d="M86.0701 72.39L80.3701 74.94L76.3 75.37L70.55 72.39L77.9701 73.78L86.0701 72.39Z" fill="#9E5C28"/>
<path d="M59.65 64L55.85 70.6L50.22 74.43C50.22 74.43 55.22 64.43 54.82 63.67C54.42 62.91 53.32 48.67 53.32 47.75C53.32 47.04 54.98 40.34 55.61 37.81C55.61 41.5 55.61 45.75 55.61 46.44C56.2092 49.6168 56.9702 52.7608 57.89 55.86C58.29 57.33 58.59 58.36 58.59 58.36L59.59 63.73L59.65 64Z" fill="#6D542F"/>
<path d="M101.27 47.6V50.81L92.8799 56.51L82.1899 51.93C82.8299 51.93 95.7699 43.08 95.7699 43.08L101.27 47.6Z" fill="white" stroke="#231F20" stroke-linejoin="round"/>
<path d="M79.2 219.91L79 239.27L69.31 243.67C69.31 243.67 69.31 228.4 69.31 227.67C69.31 227.67 69.2 227.67 69.09 227.72L68.93 227.79L68.75 227.9C66.41 229.25 57.7 236.1 57.7 236.1L57.4 235.87L56.52 219.87V216.14H56.73C57.82 217.41 59.97 219.88 60.34 219.88L79.2 219.91Z" fill="#E7C053"/>
<path d="M132.5 263.29L116.21 355.29L102.13 356.69L77 274.38C77 274.38 87.74 265.58 98.51 256.92C100.78 255.08 103.06 253.26 105.23 251.53C104.91 259.23 103.28 293.71 103.28 293.71C103.28 293.71 115.98 321.87 116.34 321.31C116.7 320.75 132.07 264.89 132.5 263.29Z" fill="#827140"/>
<path d="M47.18 511L19.59 512.58C19.59 512.58 9.58999 513.79 8.78999 513.58L0 511.4L0.759995 508.02L14.63 508.72H15.08L25.89 509.41L39.76 506.22L40.3 506.11H40.36C40.4128 506.1 40.4672 506.1 40.52 506.11V506.11C40.88 506.02 46.76 504.45 46.94 504.51C47.1 508.1 47.18 511 47.18 511Z" fill="#827140"/>
<path d="M25.8101 509.28L39.7901 506.26L25.9201 509.45L15.1101 508.76L14.6601 508.74H14.6501L14.6201 508.72L14.9101 508.74L25.8101 509.28Z" fill="#001750"/>
<path d="M47 504.48C46.82 504.42 40.94 505.99 40.58 506.08L40.53 505.96V505.82L40.21 504.9L39.9 504.05C39.79 503.74 39.67 503.41 39.53 503.05L39.37 502.64C39.3155 502.467 39.2521 502.297 39.18 502.13C38.9467 501.497 38.6967 500.83 38.43 500.13C38.35 499.91 38.26 499.7 38.18 499.47L37.28 497.13L36.77 495.8C36.34 494.7 35.92 493.6 35.53 492.58C35.38 492.21 35.24 491.85 35.11 491.51C34.71 490.51 34.35 489.51 34.04 488.78C34.04 488.67 33.96 488.56 33.93 488.46L33.78 488.08L33.61 487.65L33.47 487.31C33.36 487 33.29 486.84 33.29 486.84L33.43 486.06V487.06L48.43 486.84C48.49 486.83 46.8 498.26 47 504.48Z" fill="#FDC050"/>
<path d="M39.3799 473.21H39.1499V472.71L39.3799 473.21Z" fill="#1C387F" stroke="#9BB8C8" stroke-miterlimit="10"/>
<path d="M40.3699 506.13H40.3199L39.7899 506.25L25.9199 509.44L15.1099 508.75H14.6599L6.1499 504.51L24.5699 495.08L27.0099 496.77L27.8799 497.37L28.5099 497.81L29.3399 498.38C33.5399 501.29 39.2599 505.27 40.3699 506.13Z" fill="#FDC050"/>
<path d="M14.65 508.74L0.75 508.02L6.11 504.48H6.12L14.65 508.74Z" fill="#FDC050"/>
<path d="M136.38 501.88L118.55 495.95L117.55 486.87L117.62 487.23L132.02 487.05L136.38 501.88Z" fill="#FDC050"/>
<path d="M141.09 510.18L119.6 509.45C119.6 509.45 117.12 501.9 117.12 501.58L118.58 496.2V495.95L136.42 501.88L141.09 510.18Z" fill="#F4A54B"/>
<path d="M142.24 513L130.8 516.4H121.8L115.47 510.57L117.1 501.9V501.58C117.1 501.9 119.58 509.45 119.58 509.45L141.07 510.18L142.24 513Z" fill="#827140"/>
<path d="M40.5601 506.08C40.5072 506.07 40.4529 506.07 40.4001 506.08H40.33L29.3301 498.29L28.5001 497.72L27.8701 497.28L27.0001 496.68L24.5601 494.99L33.2501 486.77C33.2501 486.77 33.3201 486.93 33.4301 487.24L33.5701 487.58L33.7401 488.01L33.8901 488.39C33.8901 488.49 33.9701 488.6 34.0001 488.71L39.33 502.58L39.4901 502.99L40.4901 505.7C40.4901 505.7 40.4901 505.9 40.5401 505.95C40.5901 506 40.5601 506.05 40.5601 506.08Z" fill="#F4A54B"/>
<path d="M54.92 104.83L45.02 114.53L40.73 117.53C40.73 117.53 40.57 118.27 40.32 119.46C39.26 124.38 36.57 137.53 36 137.53C35.2724 137.667 34.5543 137.851 33.85 138.08C30.96 138.94 27.15 140.08 27.15 140.08L19.31 135.76L15.76 121.34L25.39 129.34L37 117L47.34 108.7L37.74 99.34L43.81 101.08L54.92 104.83Z" fill="#827140"/>
<path d="M20.5901 255.47C20.5901 255.47 13.9501 259.55 13.8401 260.03C13.7301 260.51 4.93008 252.56 3.84008 251.61C3.54008 257.8 4.01008 281.87 4.01008 281.87L5.74009 283.32L16.7401 279.53L25.3201 270.18L20.5901 255.47ZM5.78008 279.7L6.78008 263.27L9.52009 276.75L5.78008 279.7Z" fill="#E7C053"/>
<path d="M17.64 199.35L15.51 219.11L13.51 204.06L9.51001 198.22C9.51001 198.13 9.51001 198.08 9.51001 198.08L13.4 198.15L17.64 199.35Z" fill="#E7C053"/>
<path d="M35.0101 210.85L20.9301 244.83L13.8401 234.65L17.6401 199.35L32.8201 207.78L35.0101 210.85Z" fill="#827140"/>
<path d="M20.07 253.85L20.59 255.47L15.57 251.1H6.75L10.18 247.14L20.93 244.83L20.07 253.85Z" fill="#F4A54B"/>
<path d="M113.12 172.25C113.12 172.25 107.77 189.58 107.74 189.58L107.8 189.85C106.42 187.85 97.8001 185.57 97.3901 185.57C96.9801 185.57 91.2001 183.12 88.5701 182.12V182.01C89.0201 179.91 89.3101 178.49 89.3101 178.49L91.9001 179.59L99.6801 167.59L106.31 158.32L111.19 153.59L116.19 144.39C118.27 145.89 121.41 152.2 121.41 152.2L113.12 172.25Z" fill="#E7C053"/>
<path d="M111.22 153.58L103.12 158.67L99.7101 167.58L91.9301 179.58L89.3401 178.48L70.6001 170.48L56.4701 177.87L54.9201 178.68L46.1601 165.39L40.8401 165.75H54.9301L65.4401 145.43L70.1101 161.72L74.7401 147.81C74.7401 147.81 92.6801 162.53 93.0401 162.37C93.4001 162.21 110.68 153.84 111.22 153.58Z" fill="#827140"/>
<path d="M48.48 253.92L32.72 240.66L39 224C39.44 224.31 40.81 226 41.52 226.5L48.48 253.92Z" fill="#F4A54B"/>
<path d="M57.65 236.1C57.65 236.1 45.54 229.53 41.55 226.53C40.84 225.99 39.47 224.34 39.03 224.03L45.29 212L56.47 220L57.65 236.1Z" fill="#827140"/>
<path d="M116.94 224.27L106.33 226.87L83.6699 234.65V219.91L112.06 209.74L116.94 224.27Z" fill="#827140"/>
<path d="M116.22 355.27C116.22 355.27 111.22 375.86 110.99 376.75C110.76 377.64 102.14 356.67 102.14 356.67L116.22 355.27Z" fill="#F4A54B"/>
<path d="M78.2801 306C78.5401 304.63 69.2801 354.24 69.2801 354.24L63.8201 362.86C63.8201 362.86 66.7401 351.17 67.0001 350.38C67.2601 349.59 75.8801 301.85 75.8801 301.85C75.8801 301.85 66.5101 298.41 68.1701 298.67C70.755 298.805 73.3451 298.805 75.9301 298.67L81.0101 297.14L93.3801 361.46C92.9101 359.87 78.0001 307.4 78.2801 306Z" fill="#FDC050"/>
<path d="M125.57 355.27L132.51 263.27L116.22 355.27C116.22 355.27 111.22 375.86 111 376.75C110.78 377.64 102.14 356.67 102.14 356.67L77 274.38C77 274.38 87.74 265.58 98.51 256.92L106.35 226.87L83.69 234.65V237.14L78.99 239.27L69.3 243.67L57.85 236.21L57.38 235.87C55.97 234.75 45.09 229.17 41.58 226.53L48.51 253.92L50.51 256.05L69.31 276.12L53 361.53L40.06 353.53L27.49 283.47L23.78 327L30 349.4L27.84 376.77L32.68 386.82L33.44 473.21H39.15V416C39.15 414.86 57.28 375.42 57.28 375.42L65.65 394.29L46.56 473.21L52.4 472.96L73.2 392.27L63.81 362.9C63.81 362.9 66.73 351.21 66.99 350.42C67.25 349.63 75.87 301.89 75.87 301.89C75.87 301.89 66.5 298.45 68.17 298.71C70.755 298.844 73.3451 298.844 75.93 298.71L81 297.18L93.37 361.5L91.09 387.21C91.09 387.21 115.09 478.35 116.09 479.21C116.247 479.301 116.42 479.358 116.6 479.38C119.203 479.497 121.81 479.477 124.41 479.32H125.29L116.35 419.25C116.35 419.25 127.17 383.25 127.17 382.56C127.17 381.87 132.42 385.97 132.42 385.97L130.58 479.1L132 479L132.21 477.3C132.6 464.52 136.99 384.62 137.96 384.37C138.93 384.12 125.57 355.27 125.57 355.27ZM34.32 372.09L37.83 355.27C38.83 355.7 48.61 366.02 48.61 366.02L34.32 372.09Z" fill="#FDC050"/>
<path d="M124.14 239.79C117.482 243.113 111.146 247.043 105.21 251.53C103.04 253.26 100.76 255.08 98.49 256.92L106.33 226.87L116.94 224.27L123.74 238.76L124.14 239.79Z" fill="#F4A54B"/>
<path d="M161.75 279.42L158.85 286.83L144.54 294.32L136.03 290.92L133.13 271.52H139.57V283.32L150.66 286.08L161.75 279.42Z" fill="#E7C053"/>
<path d="M153.68 219.91V250.15L150.07 256.87L144.59 249.72L137.46 217C137.46 217 143.78 229.45 143.99 230.09C144.08 230.38 148.62 225.49 153.68 219.91Z" fill="#827140"/>
<path d="M168.35 198C168.35 198 168 200.57 167.47 204.52C167.28 204.74 160.06 212.85 153.69 219.87C148.63 225.45 144.09 230.34 144 230.06C143.79 229.42 137.47 216.97 137.47 216.97L139.58 216.14L149.4 207.74L164.53 195.05L165.72 193.87L168.35 198Z" fill="#F4A54B"/>
<path d="M132.46 385.94L130.62 479.07C129.32 479.14 127.35 479.23 125.33 479.29L116.39 419.22C116.39 419.22 127.21 383.22 127.21 382.53C127.21 381.84 132.46 385.94 132.46 385.94Z" fill="#827140"/>
<path d="M112.69 119.6L78.6901 130.84L69.2401 144.37L60.1701 129.47L40.3101 119.57L40.7201 117.63L45.0101 114.63C44.7001 115.08 45.0101 118.05 45.0101 118.05L68.8901 127.37L71.4501 128.37L110.57 116.12L112.69 119.6Z" fill="#E7C053"/>
<path d="M69.27 276.12L53 361.53L40.06 353.53L27.49 283.47V283.3C28.15 285.79 41.26 318.88 41.43 319.71C41.6 320.54 52.04 295.18 52.04 295.18L50.43 256.06L69.27 276.12Z" fill="#827140"/>
<path d="M48.61 366L34.3101 372.07L37.83 355.25C38.87 355.7 48.61 366 48.61 366Z" fill="#F4A54B"/>
<path d="M123.29 136.16L121.44 152.16C121.44 152.16 117.59 146.52 116.22 144.35C112.87 139.03 105.22 133.83 104.79 133.5C104.17 133.01 86.5399 133.44 86.5399 133.44L74.7299 147.83L70.1099 161.75L65.4399 145.46L54.92 134.84H37.7599L34.45 139.7L35.9999 137.6C36.5699 137.6 39.2599 124.45 40.3199 119.53L60.1799 129.45L69.2499 144.37L78.7 130.82L112.7 119.57C117.14 127 122.85 136.38 123.29 136.16Z" fill="#F4A54B"/>
<path d="M155.83 276.75L150.66 281.44L152.47 274.38V262.25L155.83 276.75Z" fill="#827140"/>
<path d="M9.49004 276.75L5.78003 279.7L6.75003 263.27L9.49004 276.75Z" fill="#827140"/>
<path d="M65.6499 394.29L46.5699 473.21H39.3799L39.1499 472.71V416C39.1499 414.86 57.2699 375.42 57.2699 375.42L65.6499 394.29Z" fill="#827140"/>
<path d="M52.4001 472.96L48.4001 486.83L33.3501 487.05V486.05L33.4401 473.21L52.4001 472.96Z" fill="#F4A54B"/>
<path d="M132 479V487L117.59 487.18L117.53 486.82L116.62 479.33C119.223 479.447 121.83 479.427 124.43 479.27C126.74 479.21 129.11 479.1 130.6 479.02L132 479Z" fill="#F4A54B"/>
<path d="M147.62 108.55L143.43 127.26L125.25 128.62L108.06 111.4L147.62 108.55Z" fill="#F4A54B"/>
<path d="M143.43 127.26C143.43 127.26 124 135.78 123.29 136.16C122.85 136.38 117.07 126.93 112.62 119.52L110.52 116.02C109.603 114.533 108.782 112.99 108.06 111.4L125.25 128.62L143.43 127.26Z" fill="#827140"/>
<path d="M47.36 108.68L37.02 116.98L25.37 129.47L15.74 121.43L23.63 106.04L43.61 108.68L37.76 99.32L47.36 108.68Z" fill="#F4A54B"/>
<path d="M81.5799 35.81L97.39 27.3L75.6899 33.62L81.5799 35.81Z" fill="#F2914B"/>
<path d="M79.1899 65.78L101.42 56.51L104.37 59.46L104.73 58.09L101.42 56.51L82.1899 62.69L79.1899 65.78Z" fill="#BC7645"/>
<path d="M76.9 65.85L60.71 59L73.99 63.05L76.9 65.85Z" fill="#9B5023"/>
<path d="M96.37 80.41L85.01 89.2L83.08 90.14L79.27 89.27L77.76 88.8L83.09 88.58L96.37 80.41Z" fill="#9B5023"/>
<path d="M66.3799 81.75L77.7599 88.8L66.3799 80.6V81.75Z" fill="#9B5023"/>
<path d="M66.3799 80.6C66.3799 80.77 77.9699 88.6 77.9699 88.6H83.0899L82.9299 89.3L77.7599 88.82C77.7599 88.82 67.9599 82.64 67.9099 82.65C67.8599 82.66 66.3799 80.6 66.3799 80.6Z" fill="#9B5023"/>
<path d="M75.6799 33.62C75.6799 33.62 70.6199 25.05 70.5499 24.29C70.4799 23.53 80.1099 6.14 80.1099 6.14C80.1099 6.14 75.1099 21.83 75.3299 22.02C75.5499 22.21 80.95 31.56 80.95 31.56L75.6799 33.62Z" fill="#392317"/>
<path d="M103.51 7.59C102.88 7.4 95.0001 11 95.0001 11C95.0001 11 88.5801 27.52 88.8501 27.29C89.1201 27.06 96.2001 12.53 96.2001 12.53L103.51 7.59Z" fill="#392317"/>
<path d="M46.55 26.2L62.6401 17.44L71.5701 19.88L61.5601 5.55L46.55 26.2Z" fill="#392317"/>
<path d="M98.49 369.52C99.01 370.44 113.4 408.4 113.4 408.4L94.48 386.6L98.49 369.52Z" fill="#F4A54B"/>
<path d="M48.6101 372.09L35.8901 376.77L39.1501 416L57.2701 375.42L48.6101 372.09Z" fill="#F4A54B"/>
<path d="M57.8199 236.21L52.3999 258.11L69.2699 276.12L67.1199 287.45L74.3999 289.4L81.0599 287.7L76.9799 274.38L93.3699 261.05L102.13 227.66L83.6699 234.65L83.6599 237.14L69.2699 243.67L57.8199 236.21Z" fill="#F4A54B"/>
<path d="M143.43 127.26C143.43 127.26 154.85 156.34 154.82 156.26C154.79 156.18 131.65 149.41 131.65 149.41L143.43 127.26Z" fill="#827140"/>
<path d="M131.65 149.39L121.44 152.18L123.29 136.16L143.43 127.26" fill="#E7C053"/>
<path d="M154.82 156.24L163.99 181.94L164.52 195.09L146.04 187.04L154.82 156.24Z" fill="#F4A54B"/>
<path d="M146 187L149.35 207.74C149.35 207.74 164.98 195.27 164.48 195.05L146 187Z" fill="#827140"/>
<path d="M36 137.6L34.47 139.72L31.42 151.39L30.75 152.61C30.75 152.61 36.75 166.76 36.08 167.48C35.41 168.2 24.66 177.48 24.66 177.48L20.53 151.39L27.15 140.17L36 137.6Z" fill="#F4A54B"/>
<path d="M27.1301 140.17L19.2901 135.85L14.6001 184.94L24.6401 177.48L20.5101 151.39L27.1301 140.17Z" fill="#E7C053"/>
<path d="M82.1901 40.4L76.9001 48.66L74.8701 45.27L71.5701 39.77L71.9201 35.14L75.6901 33.62L81.58 35.81L82.1901 40.4Z" fill="#F3EB50"/>
<path d="M82.1899 62.69L77.9999 67C77.9999 67 74.4799 63 73.9999 63L64.7399 56.09C66.7399 54.95 72.9199 51.55 73.3399 51.55L61.4299 43.03L72.8299 47.55L75.8299 52.03L74.8299 45.22L76.8299 48.61L77.6199 54.47L77.4299 63.65L82.1899 62.69Z" fill="#F3EB50"/>
<path d="M15.57 251.1L20.57 255.47C20.57 255.47 13.93 259.55 13.82 260.03C13.71 260.51 4.91 252.56 3.82 251.61C3.81242 251.134 3.86961 250.66 3.99 250.2C4.57 249.29 9.04999 201.15 9.41999 198.2L13.42 204.04L15.42 219.09L13.75 234.63L20.84 244.81L10.09 247.12L6.66 251.12L15.57 251.1Z" fill="#F3EB50"/>
<path d="M20.93 287.59L13.08 289.4L5.78003 283.32L16.79 279.52L25.37 270.18L25.51 276.54L20.93 287.59Z" fill="#F3EB50"/>
<path d="M89.34 178.49C89.34 178.49 89.05 179.91 88.6 182.01V182.12C87.31 188.12 84.71 199.52 83.69 199.35C82.32 199.11 69.3 193.65 69.3 193.65L57.89 199.35L56.5 177.92L70.63 170.53L89.34 178.49Z" fill="#F3EB50"/>
<path d="M116.22 144.37L111.22 153.57C110.68 153.83 93.4 162.25 93.04 162.41C92.68 162.57 74.74 147.85 74.74 147.85L86.54 133.45C86.54 133.45 104.17 133.02 104.79 133.51C105.23 133.85 111.41 140.87 116.22 144.37Z" fill="#F3EB50"/>
<path d="M69.2699 243.67L57.6499 236.1C59.5099 234.61 67.0899 228.79 68.8799 227.79L69.0399 227.72C69.1499 227.67 69.2199 227.65 69.2599 227.67C69.3099 228.4 69.2699 243.67 69.2699 243.67Z" fill="#F3EB50"/>
<path d="M132.51 263.25C132.08 264.85 116.68 320.72 116.33 321.25C115.98 321.78 103.27 293.65 103.27 293.65C103.27 293.65 104.9 259.17 105.22 251.47C111.156 246.983 117.492 243.053 124.15 239.73L132.51 263.25Z" fill="#F3EB50"/>
<path d="M167.46 204.56C167.27 204.78 160.05 212.89 153.68 219.91V250.15L150.07 256.87L144.59 249.72L134.05 265.22L133.13 271.52H139.57V283.32L150.66 286.08L161.75 279.42C161.75 279.42 161.48 247.25 161.75 246.15C162 245.31 165.72 217.51 167.46 204.56ZM150.66 281.44L152.47 274.38V262.25L155.83 276.75L150.66 281.44Z" fill="#F3EB50"/>
<path d="M65.4399 145.48L54.9299 165.8H40.8399L38.7699 164.33L31.3999 151.39L34.4499 139.73V139.72L37.7499 136.25L54.9199 134.86L65.4399 145.48Z" fill="#F3EB50"/>
<path d="M83.67 219.91V234.65V237.14L78.9699 239.27L79.2099 219.91H60.2899C59.9199 219.91 57.7699 217.44 56.6799 216.17L83.6799 215.02V219.91H83.67Z" fill="#F3EB50"/>
<path d="M52.08 295.17C52.08 295.17 41.63 320.57 41.47 319.7C41.31 318.83 28.19 285.78 27.53 283.29V282.39L32.03 242.17L32.69 240.67L48.45 253.93L50.45 256.06L52.08 295.17Z" fill="#F3EB50"/>
<path d="M147.62 108.55L108.06 111.4L113.35 105.01L126.7 98.87L128.88 97.56L147.62 108.55Z" fill="#F3EB50"/>
<path d="M43.6099 108.68L23.6299 106.04L37.7599 99.32L43.6099 108.68Z" fill="#F3EB50"/>
<path d="M121.44 152.18L132.71 180.35L140.63 189.05L139.57 216.18C139.57 216.18 149.42 209.18 149.39 207.78C149.36 206.38 146 187 146 187L154.78 156.2C154.78 156.2 133.01 148.2 132.14 148.36C131.27 148.52 121.44 152.18 121.44 152.18Z" fill="#F3EB50"/>
<path d="M36.0601 167.48L32.8201 207.78L21.5701 201.72L24.6501 177.47C24.6501 177.47 35.3401 168 36.0601 167.48Z" fill="#F3EB50"/>
<path d="M24.6499 177.47L21.5699 201.72L17.6399 199.35L13.3899 198.15C13.3899 198.15 16.3899 166.68 16.3099 167.08C16.2299 167.48 24.6499 177.47 24.6499 177.47Z" fill="#F4A54B"/>
<path d="M112.06 209.74L83.67 219.91V215L56.48 216.16V219.89L45.3 211.89L43.22 177.89L37.92 169.84L36.08 167.38L30.75 152.51L31.42 151.29L38.79 164.23L40.86 165.7L46.18 165.34L54.94 178.63L56.49 177.82L57.88 199.25L69.29 193.55L83.68 199.04C85.32 193.36 86.9567 187.693 88.59 182.04C91.22 183.04 96.97 185.49 97.41 185.49C97.85 185.49 106.41 187.74 107.82 189.77C108.24 192.17 112.06 209.74 112.06 209.74Z" fill="#E7C053"/>
<path d="M59.6299 209.48L69.5299 208.33L80.7399 208.93C81.7065 210.93 82.6799 212.96 83.6599 215.02L69.5299 214.33L57.3599 215.58C58.1099 213.55 58.8699 211.51 59.6299 209.48Z" fill="#E7C053"/>
<path d="M61.1901 202C63.8601 201.88 66.6501 201.82 69.5701 201.84C72.8501 201.84 75.9701 202 78.9201 202.2L83.6601 208.31L69.6601 207.75L57.3501 208.88C58.6301 206.56 59.9101 204.267 61.1901 202Z" fill="#E7C053"/>
<path d="M57.7299 196.73L69.6499 194.89L83.4799 196.1L83.6599 202.04L69.5699 200.59L57.3599 202.59L57.7299 196.73Z" fill="#E7C053"/>
<path d="M112.69 167.16C112.56 167.6 101.69 180.23 101.69 180.23L101.36 185.65L112.69 167.16Z" fill="#F4A54B"/>
<path d="M112.28 161.53C112.12 161.96 100.37 173.79 100.37 173.79L99.6599 179.17L112.28 161.53Z" fill="#F4A54B"/>
<path d="M81.93 61.44H78.29L79.54 55.83L81.93 61.44Z" fill="#F4A54B"/>
<path d="M73.33 51.6C72.91 51.6 66.77 55 64.73 56.14L64.07 56.51L57 48.27L60.1 43.27L60.56 42.45L73.33 51.6Z" fill="white" stroke="#231F20" stroke-linejoin="round"/>
<path d="M136.09 184.06C136.45 184.45 146.54 184.94 146.54 184.94L151.32 184.5L140.63 189.05L136.09 184.06Z" fill="#827140"/>
<path d="M89.37 178.47L89.17 179.47L88.63 182.02V182.1L83.72 199.33L70.38 204L57.89 199.34L56.5 177.9L70.63 170.51L89.37 178.47Z" fill="#F3EB50"/>
</svg>
