<svg width="169" height="516" viewBox="0 0 169 516" fill="none" xmlns="http://www.w3.org/2000/svg">
<path d="M126.63 98.48L115.63 105.14L114.05 105.06L119.86 90.45L112.58 51.56L107.42 66.56L104.81 68.56V57.56L101.33 43L98.7801 32.33L97.4601 26.75L75.7501 33.07L59.6501 25.65L55.6501 31.59C55.6501 31.59 55.6501 34.22 55.6501 37.23C55.0201 39.76 53.3701 46.46 53.3701 47.17C53.3701 48.06 54.5001 62.35 54.8701 63.09C55.2401 63.83 50.2601 73.85 50.2601 73.85L55.8901 70.01L60.5601 62.63L62.1801 72.74L67.9501 80.05V100.21L55.6401 104.51L54.9601 104.28L43.8701 100.51L40.55 62.51L46.55 25.66L61.55 5.01001L80.0001 0.0100098L103.49 7.01001L117.92 33.01L120.85 54.15L117.43 57.21L125.58 86L126.63 98.48Z" fill="black"/>
<path d="M53.3199 46.36L46.6699 60.62L45.5799 57.49L43.6699 65.33L50.9199 102.93C50.9199 102.93 60.1299 95.82 60.7699 94.93C61.4099 94.04 59.1199 70.26 59.1199 70.26L56.4599 54.5L53.3199 46.36Z" fill="#404041"/>
<path d="M52.9999 72L53.9999 80.06L52.1999 84.58L50.8999 102.91C50.8999 102.91 62.1299 110.06 62.4299 109.91C62.7299 109.76 70.4299 106.7 70.5899 106.3C70.7499 105.9 74.5899 95.56 74.4699 93.96C74.3499 92.36 74.5999 78.38 74.0299 78.04C73.4599 77.7 67.2499 71.68 66.8399 71.38C66.4299 71.08 62.7299 62.46 62.7299 62.46L59.2499 60.35L52.9999 72Z" fill="#404041"/>
<path d="M95 79.84L94.78 83.22L78.66 100.53L79 122L69 126.82L45.12 117.48C45.12 117.48 44.8 114.48 45.12 114.06L55.02 104.36L55.7 104.59L68.01 100.29V80.08L62.24 72.77L60.62 62.66V62.4L58.71 57.81L58.01 55.31L60.84 58.48C60.84 58.48 73.66 62.53 74.12 62.53C74.58 62.53 78.12 66.53 78.12 66.53V73.27L70.7 71.88L73.81 76.73L78.12 78.12V88.07H83.25L95 79.84Z" fill="#9F5A2A"/>
<path d="M75.7499 33.1L71.9799 34.62L71.6299 39.25L55.6599 31.62L59.6499 25.68L75.7499 33.1Z" fill="#E1C252"/>
<path d="M98.78 32.36L83.61 39.26L82.26 39.88L81.64 35.29L75.75 33.1L97.45 26.78L98.78 32.36Z" fill="#E1C252"/>
<path d="M101.33 43L95.0001 39.88C95.0001 39.88 81.4301 48.62 81.0001 48.95C80.5701 49.28 83.5601 39.26 83.5601 39.26L98.7301 32.36L101.33 43Z" fill="#F2914B"/>
<path d="M101.33 43L94.9999 39.88C94.9999 39.88 81.4299 48.62 80.9999 48.95C80.5699 49.28 83.5599 39.26 83.5599 39.26L82.2099 39.88L76.9099 48.14L77.6999 54L77.5099 63.18L82.2099 62.18L101.48 56L104.79 57.58L101.33 43ZM78.3299 60.89L79.5799 55.28L81.9699 60.89H78.3299ZM101.33 50.25L92.9999 56L82.3099 51.42C82.9399 51.42 95.8799 42.57 95.8799 42.57L101.38 47.09L101.33 50.25Z" fill="#F3EB50"/>
<path d="M74.08 62.56C73.61 62.56 60.8 58.51 60.8 58.51L58 55.33C57.0768 52.2352 56.3158 49.0942 55.72 45.92C55.72 45.22 55.72 40.97 55.72 37.29C55.72 34.29 55.72 31.65 55.72 31.65L60.72 41.94L60.9 42.58L61.08 43.18L57.15 47.77L64.23 56.01L64.89 55.64L74.08 62.56Z" fill="#F2914B"/>
<path d="M149.2 194.08L149.45 207.15V207.26L148.32 208.26L139.85 215.5L139.76 215.57H139.7L139.63 215.64L142 188.26V188L139.7 184.83L135.14 178.54L121.49 151.34L120.36 149.08L119.83 148.03L121.33 142.58L123.15 135.99L123.21 135.77C123.88 135.42 138.67 129.09 140.5 128.31H140.58H140.67L134.76 141.92V141.99V142.05L131.76 148.84V148.94C131.78 149.005 131.803 149.068 131.83 149.13C131.844 149.178 131.861 149.224 131.88 149.27C131.95 149.48 132.06 149.8 132.21 150.21L132.33 150.55C132.38 150.68 132.42 150.81 132.47 150.96L134.6 156.96C134.77 157.45 134.95 157.96 135.14 158.47C135.33 158.98 135.43 159.27 135.58 159.69L136.01 160.89L136.31 161.72L137.23 164.26C137.39 164.71 137.55 165.16 137.72 165.61C137.81 165.84 137.89 166.07 137.97 166.29L140.13 172.18C140.33 172.7 140.52 173.18 140.71 173.72L141.08 174.72C141.19 175 141.29 175.27 141.39 175.54C142.99 179.77 144.39 183.38 145.28 185.25L145.48 185.67C145.601 185.92 145.734 186.164 145.88 186.4L145.97 186.53C145.97 186.53 146.04 186.6 146.07 186.6H146.12L146.31 186.52C146.479 186.511 146.648 186.546 146.8 186.62C147.553 186.956 148.259 187.39 148.9 187.91L149.49 188.36L150.08 188.83L150.67 189.32C150.86 189.47 151.04 189.63 151.22 189.79L151.74 190.24C151.778 190.265 151.812 190.295 151.84 190.33V190.33C152.68 191.07 153.27 191.62 153.27 191.62L149.2 194.08Z" fill="#DC9159"/>
<path d="M25.25 180.25L26 195C26 195 25.62 194.78 25.13 194.52L24.82 194.35C24.54 194.2 24.25 194.06 23.99 193.95L23.8 193.87C23.6951 193.817 23.5843 193.777 23.47 193.75C23.27 193.68 23.14 193.68 23.11 193.75C23.08 193.82 23.05 195.26 23.05 196.87C23.05 198.72 23.05 200.87 23.05 201.87L22.39 201.5L15.49 197.67C15.49 197.67 15.78 190.61 16.04 184.08C16.11 182.08 16.19 180.2 16.25 178.55L17.53 166.93L17.45 166.82C17.53 166.31 17.63 165.82 17.72 165.22C19.66 154.03 23.06 135.33 23.06 135.33L27.15 139.7L28.15 139.38L29.08 139.08L31.75 138.23C32.82 137.89 33.9 137.56 34.81 137.29L24.2 159.6L24.79 171.28V171.35L25.04 176.12L25.1 177.33L25.24 180.18L25.25 180.25Z" fill="#DC9159"/>
<path d="M161.8 196.69L151.89 205.18C151.79 205.26 151.69 205.35 151.59 205.42L149.45 207.26V207.15L149.2 194.08L153.31 191.55C153.31 191.55 152.72 191 151.88 190.26C151.69 190.08 151.48 189.9 151.26 189.72C151.04 189.54 150.9 189.4 150.71 189.25L150.12 188.76L149.53 188.29L148.94 187.84C148.299 187.32 147.593 186.886 146.84 186.55C146.767 186.513 146.69 186.486 146.61 186.47H146.43H146.34C146.304 186.468 146.269 186.475 146.236 186.489C146.203 186.502 146.174 186.523 146.15 186.55V186.55H146.1C146.062 186.535 146.027 186.511 146 186.48L145.87 186.29L145.7 186L145.64 185.89L145.48 185.58L145.28 185.16C145.03 184.61 144.72 183.9 144.37 183.07L144.09 182.38L143.91 181.93C143.82 181.73 143.74 181.52 143.66 181.31L143.36 180.55L142.86 179.29L142.27 177.76C142.077 177.267 141.887 176.767 141.7 176.26C140.52 173.14 139.22 169.64 137.97 166.2C137.89 165.98 137.81 165.75 137.72 165.52C137.55 165.07 137.39 164.62 137.23 164.17L136.31 161.63C136.06 160.94 135.81 160.26 135.58 159.63L135.14 158.42L134.44 156.42L134 155.19L133.59 154.05C133.47 153.68 133.34 153.33 133.22 153C133.1 152.67 133 152.39 132.9 152.1C132.63 151.32 132.39 150.67 132.21 150.1L132.09 149.76C132.09 149.66 132.02 149.57 131.99 149.48L131.88 149.16C131.861 149.114 131.844 149.068 131.83 149.02L131.77 148.86V148.76L134.7 142V141.94V141.87L140.52 128.47V128.39L140.57 128.28V128.35L140.7 128.28L141.07 129.72L151 156.63V156.71L151.82 158.98L160 181.57L161.57 194.46L161.8 196.69Z" fill="#F1B280"/>
<path d="M107.4 110.46C107.4 110.46 108.65 112.59 110.46 115.63L71.52 127.81L68.96 126.81L79 122L78.71 100.56L94.83 83.25L94.37 99.58L114.06 105.08L115.64 105.16L107.4 110.46Z" fill="#A6662F"/>
<path d="M37.8201 166.45L37.7001 167.18L34.0601 189.18L32.8801 207.23L24.8801 202.79L23.1001 201.79C23.1001 200.79 23.1001 198.68 23.1001 196.79C23.1001 195.19 23.1001 193.79 23.1601 193.68C23.2201 193.57 23.3201 193.61 23.5201 193.68C23.6344 193.707 23.7452 193.747 23.8501 193.8L24.0401 193.88C24.1701 193.88 24.3101 194 24.4501 194.07C24.5901 194.14 24.9501 194.32 25.1801 194.45L25.5201 194.63L25.8201 194.8L25.9601 194.88H26.0501L25.3101 180.17L25.1701 177.33L25.1101 176.12L25.0001 174.04V173.75L24.8801 171.42V171.28L24.2901 159.6L34.9201 137.24C35.6199 137.008 36.3349 136.824 37.0601 136.69L35.5301 138.81L31.5301 150.86L30.8601 152.09L37.8601 166.42L37.8201 166.45Z" fill="#F1B280"/>
<path d="M75.9399 51.59L72.8999 47.1L61.5099 42.58H60.8299L60.6499 41.94L55.6899 31.65L71.6599 39.27L74.95 44.78L75.9399 51.59Z" fill="#F2914B"/>
<path d="M82.2599 39.88L76.9599 48.14L74.9299 44.75L71.6299 39.25L71.9799 34.62L75.7499 33.1L81.6399 35.29L82.2599 39.88Z" fill="#F3EB50"/>
<path d="M119.84 90.44L114.02 105.06L94.3401 99.56L94.8001 83.23V83.22L95.0201 79.84L99.7701 73.36L104.79 57.57V68.52L107.4 66.52L112.56 51.56L119.84 90.44Z" fill="#404041"/>
<path d="M104.79 57.57L99.77 73.36L95.02 79.84L83.15 88.06H78.03V78.11L81.99 77.53L86.13 73.26L90.26 68.52L86.13 71.87L78.03 73.26V66.52L82.26 62.16L101.48 55.99L104.79 57.57Z" fill="#A6662F"/>
<path d="M90.2599 68.52L86.1299 73.26L81.9999 77.53L78.0399 78.11L73.7199 76.72L70.6099 71.87L76.3599 74.85L80.4299 74.42L86.1299 71.87L90.2599 68.52Z" fill="#A96739"/>
<path d="M86.1299 71.87L80.4299 74.42L76.3599 74.85L70.6099 71.87L78.0399 73.26L86.1299 71.87Z" fill="#9E5C28"/>
<path d="M81.9901 60.92H78.3501L79.6101 55.31L81.9901 60.92Z" fill="#F4A54B"/>
<path d="M82.2599 62.17L77.9999 66.52C77.9999 66.52 74.4799 62.52 73.9999 62.52L64.7499 55.61C66.7499 54.47 72.9299 51.07 73.3399 51.07L61.4299 42.55L72.8299 47.07L75.8299 51.55L74.8299 44.74L76.8299 48.13L77.6199 53.99L77.4299 63.17L82.2599 62.17Z" fill="#F3EB50"/>
<path d="M60.58 62.66L55.91 70L50.28 73.84C50.28 73.84 55.28 63.84 54.89 63.08C54.5 62.32 53.39 48.08 53.39 47.16C53.39 46.45 55.04 39.75 55.67 37.22C55.67 40.91 55.67 45.16 55.67 45.85C56.2693 49.0267 57.0303 52.1708 57.95 55.27L58.65 57.77L60.56 62.36L60.58 62.66Z" fill="#50493F"/>
<path d="M101.33 47.08V50.28L93.0001 56L82.3101 51.42C82.9401 51.42 95.8801 42.57 95.8801 42.57L101.33 47.08Z" fill="white" stroke="#231F20" stroke-linejoin="round"/>
<path d="M73.3901 51.08C72.9801 51.08 66.83 54.48 64.8 55.62L64.1401 55.99L57.0601 47.75L60.1601 42.75L60.6201 41.93L73.3901 51.08Z" fill="white" stroke="#231F20" stroke-linejoin="round"/>
<path d="M79.26 219.39L79 238.75L69.31 243.15C69.31 243.15 69.31 227.87 69.31 227.15C69.31 227.15 69.2 227.15 69.09 227.2L68.94 227.27L68.75 227.38C66.41 228.73 57.7 235.58 57.7 235.58L57.41 235.35L56.52 219.35V215.62H56.73C57.82 216.89 59.97 219.36 60.34 219.36L79.26 219.39Z" fill="#E7C053"/>
<path d="M130.67 267.29L116.28 354.75L102.2 356.14L77 273.86C77 273.86 87.75 265.06 98.51 256.4C100.78 254.56 103.06 252.74 105.23 251C104.92 258.71 103.28 293.19 103.28 293.19C103.28 293.19 115.98 321.35 116.34 320.79C116.7 320.23 130.24 268.9 130.67 267.29Z" fill="#827140"/>
<path d="M47.2401 510.46L19.6501 512C19.6501 512 9.65007 513.21 8.85007 513L0.0500488 510.83L0.820068 507.45L14.6801 508.15H15.1301L25.9401 508.84L39.8101 505.65L40.3501 505.54H40.4101H40.5701C40.9301 505.45 46.8001 503.88 46.9801 503.94C47.1601 507.58 47.2401 510.46 47.2401 510.46Z" fill="#827140"/>
<path d="M25.8799 508.76L39.8599 505.74L25.9799 508.92L15.17 508.24L14.7199 508.22H14.7099L14.6799 508.2L14.9799 508.22L25.8799 508.76Z" fill="#001750"/>
<path d="M47 504C46.82 503.94 40.95 505.51 40.59 505.6L40.54 505.48V505.34L40.22 504.41C40.13 504.17 40.03 503.88 39.91 503.57C39.79 503.26 39.68 502.92 39.54 502.57L39.38 502.15C39.33 501.99 39.27 501.82 39.2 501.65L38.44 499.65L38.19 499C37.9 498.24 37.6 497.45 37.29 496.66C37.12 496.21 36.96 495.77 36.79 495.33C36.36 494.23 35.94 493.13 35.55 492.11L35.1 491C34.7 490 34.34 489 34.03 488.27C33.9994 488.165 33.9627 488.061 33.92 487.96L33.77 487.58C33.71 487.42 33.65 487.28 33.61 487.15L33.47 486.81C33.36 486.5 33.29 486.34 33.29 486.34L33.42 485.56V486.56H45.9C46 486.53 46.86 497.74 47 504Z" fill="#FDC050"/>
<path d="M39.45 472.69H39.21V472.19L39.45 472.69Z" fill="#1C387F" stroke="#9BB8C8" stroke-miterlimit="10"/>
<path d="M40.43 505.61L39.89 505.73L26 508.93L15.19 508.24H14.74L6.23999 504L24.65 494.57L27.09 496.26L27.96 496.86L28.59 497.29L29.42 497.87C33.61 500.77 39.32 504.74 40.43 505.61Z" fill="#FDC050"/>
<path d="M14.7101 508.22L0.820068 507.5L6.17007 503.96H6.18005L14.7101 508.22Z" fill="#FDC050"/>
<path d="M136.44 501.36L119.24 495.56L118.69 486.17L118.75 486.53H131.07L136.44 501.36Z" fill="#FDC050"/>
<path d="M139.83 509.66L121.76 509.32C121.76 509.32 119.28 501.76 119.28 501.44V495.81V495.56L136.48 501.36L139.83 509.66Z" fill="#F4A54B"/>
<path d="M141 512.47L130.88 515.88H121.88L117.64 510.44L119.28 501.76V501.44C119.28 501.76 121.76 509.32 121.76 509.32L139.83 509.66L141 512.47Z" fill="#827140"/>
<path d="M40.6301 505.56H40.4701H40.4101L29.4101 497.77L28.5801 497.19L27.9501 496.76L27.0801 496.16L24.6401 494.47L33.3401 486.25C33.3401 486.25 33.4101 486.41 33.5201 486.72L33.6601 487.06C33.6601 487.19 33.7601 487.33 33.8201 487.49L33.9701 487.87C34.0128 487.971 34.0495 488.075 34.0801 488.18L39.4101 502.05L39.5701 502.47L40.5701 505.18C40.5917 505.259 40.6084 505.339 40.6201 505.42C40.6201 505.42 40.6201 505.52 40.6301 505.56Z" fill="#F4A54B"/>
<path d="M55 104.31L45.1 114.01L41.81 117.21C41.81 117.21 41.66 117.95 41.4 119.15C40.35 124.06 37.59 136.65 37.02 136.65C36.2914 136.788 35.5731 136.975 34.87 137.21C31.98 138.07 27.23 139.62 27.23 139.62L23.15 135.25L19.22 121.14L25.47 128.91L37.13 116.43L47.46 108.12L40 99.21L43.93 100.54L55 104.31Z" fill="#827140"/>
<path d="M20.6601 254.94C20.6601 254.94 14.0001 259 13.9001 259.51C13.8001 260.02 5.00007 252 4.00007 251.09C3.69007 257.28 4.16008 281.35 4.16008 281.35L5.89009 282.8L16.8901 279L25.4601 269.66L20.6601 254.94ZM5.84007 279.18L6.84007 262.75L9.58006 276.23L5.84007 279.18Z" fill="#E7C053"/>
<path d="M17.7 198.83L15.57 218.59L13.57 203.59L11 199C11 198.91 11 198.86 11 198.86L15.47 197.66L17.7 198.83Z" fill="#E7C053"/>
<path d="M15.63 250.58L20.63 254.94C20.63 254.94 14 259 13.9 259.51C13.8 260.02 4.99996 252 3.99996 251.09C3.98599 250.615 4.03987 250.14 4.15997 249.68C4.73997 248.77 10.72 201.9 11.09 198.97L13.6099 203.54L15.6099 218.54L13.94 234.08L21 244.31L10.25 246.62L6.81997 250.62L15.63 250.58Z" fill="#F3EB50"/>
<path d="M33.9299 209.61L20.9899 244.31L13.8999 234.13L17.6999 198.83L32.8799 207.25L33.9299 209.61Z" fill="#827140"/>
<path d="M20.1301 253.33L20.6601 254.94L15.6301 250.58H6.81006L10.2401 246.62L20.9901 244.31L20.1301 253.33Z" fill="#F4A54B"/>
<path d="M27.9001 288.88H13.1401L5.84009 282.8L16.8601 279L25.4301 269.66L27.6101 276.34L27.9001 288.88Z" fill="#F3EB50"/>
<path d="M107.16 173.32C107.16 173.32 101.82 190.65 101.78 190.65C101.806 190.739 101.826 190.829 101.84 190.92C100.47 188.92 97.84 185.04 97.45 185.04C97.06 185.04 91.27 182.6 88.64 181.6C88.6353 181.564 88.6353 181.527 88.64 181.49C89.09 179.39 89.38 177.97 89.38 177.97L91.97 179.07L96.53 167.42L103.16 158.15L108.03 153.42L116.24 145.42L119.8 148L107.16 173.32Z" fill="#E7C053"/>
<path d="M108.05 153.42L103.18 158.15L96.5499 167.42L91.9999 179.07L89.3999 178L70.6599 170L56.5299 177.39L54.9799 178.2L46.2199 164.91L40.8799 161.12L52.1299 164L63.3899 146.56L70.1699 161.24L75.3199 149C75.3199 149 89.5199 162.42 89.8699 162.26C90.2199 162.1 107.52 153.68 108.05 153.42Z" fill="#827140"/>
<path d="M89.4001 178C89.4001 178 89.1101 179.42 88.6601 181.52C88.6554 181.557 88.6554 181.593 88.6601 181.63C87.3601 187.63 84.7601 199.03 83.7401 198.86C82.3701 198.62 69.36 193.16 69.36 193.16L57.9401 198.86L56.55 177.43L70.6601 170L89.4001 178Z" fill="#F3EB50"/>
<path d="M116.28 145.45L108.07 153.45C107.54 153.71 90.2601 162.13 89.9001 162.29C89.5401 162.45 75.3101 149 75.3101 149L89.7201 139.65C89.7201 139.65 102.35 135.28 102.98 135.76C103.41 136.1 111.47 142 116.28 145.45Z" fill="#F3EB50"/>
<path d="M48.54 253.4L37.54 241.64L44.61 225.47C45.04 225.78 45.61 226.22 46.36 226.76L48.54 253.4Z" fill="#F4A54B"/>
<path d="M57.7101 235.58C57.7101 235.58 50.3301 229.76 46.3501 226.76C45.6401 226.22 45.0301 225.76 44.6001 225.47L50.8001 211.29L56.5301 219.39L57.7101 235.58Z" fill="#827140"/>
<path d="M69.34 243.15L57.71 235.58C59.57 234.08 67.15 228.27 68.95 227.27L69.1 227.2C69.21 227.15 69.28 227.13 69.32 227.15C69.36 227.17 69.32 227.15 69.32 227.15C69.38 227.87 69.34 243.15 69.34 243.15Z" fill="#F3EB50"/>
<path d="M110.33 225L106.39 226.35L83.73 234.13V219.39L105.32 209.61L110.33 225Z" fill="#827140"/>
<path d="M116.28 354.75C116.28 354.75 111.28 375.34 111.05 376.22C110.82 377.1 102.2 356.14 102.2 356.14L116.28 354.75Z" fill="#F4A54B"/>
<path d="M78.34 305.52C78.6 304.15 63.87 356.94 63.87 356.94L57.54 363C57.54 363 61.33 353.88 61.54 353.09C61.75 352.3 75.88 301.38 75.88 301.38C75.88 301.38 66.51 297.94 68.18 298.2C70.7649 298.335 73.3551 298.335 75.94 298.2L81.01 296.67L93.43 361C93 359.35 78.08 306.88 78.34 305.52Z" fill="#FDC050"/>
<path d="M124.33 353.64L130.68 267.26L116.29 354.72C116.29 354.72 111.29 375.31 111.06 376.19C110.83 377.07 102.21 356.11 102.21 356.11L77 273.86C77 273.86 87.75 265.06 98.51 256.4L106.35 226.4L83.69 234.18V236.67L79 238.75L69.31 243.15L57.85 235.69L57.39 235.35C55.97 234.23 49.83 229.35 46.32 226.76L48.51 253.4L50.51 255.53L69.32 275.6L53.1 361L40.16 353L32 283.12L30.59 330.77L34.43 350L30.24 376.5L34.43 385.95L33.5 472.71H39.22V415.48C39.22 414.33 57.34 374.9 57.34 374.9L65.72 393.77L46.63 472.69H50.4L71.82 390.91L57.54 363C57.54 363 61.33 353.88 61.54 353.09C61.75 352.3 75.89 301.38 75.89 301.38C75.89 301.38 66.52 297.94 68.18 298.2C70.7649 298.335 73.3551 298.335 75.94 298.2L81.01 296.67L93.43 361V386.18C93.43 386.18 116.66 477.66 117.72 478.49C117.871 478.585 118.042 478.644 118.22 478.66C120.306 478.882 122.405 478.939 124.5 478.83H125.39L116.44 418.75C116.44 418.75 127.27 382.75 127.27 382.07C127.27 381.39 132.51 385.48 132.51 385.48L130.68 478.61C131.33 478.61 131.83 478.54 132.06 478.54L132.28 476.84C132.66 464.07 135.05 384.22 136.02 383.97C136.99 383.72 124.33 353.64 124.33 353.64ZM34.38 371.57L37.9 354.75C38.9 355.18 48.67 365.5 48.67 365.5L34.38 371.57Z" fill="#FDC050"/>
<path d="M120 239.72C118.9 240.24 112.66 245.11 105.27 251C103.1 252.74 100.82 254.56 98.55 256.4L106.39 226.4L110.33 225.05L119.6 238.74L120 239.72Z" fill="#F4A54B"/>
<path d="M130.68 267.26C130.25 268.87 116.74 320.2 116.39 320.76C116.04 321.32 103.33 293.16 103.33 293.16C103.33 293.16 105 258.71 105.27 251C112.66 245.11 118.9 240.24 120 239.72L130.68 267.26Z" fill="#F3EB50"/>
<path d="M167.52 204C167.33 204.22 160.12 212.32 153.74 219.35V249.58L150.13 256.31L144.66 249.16L132.77 263.45L133.19 270.96H139.64V282.76L150.72 285.52L161.81 278.85C161.81 278.85 161.55 246.69 161.81 245.59C162 244.79 165.78 217 167.52 204ZM150.72 280.88L152.53 273.82V261.73L155.89 276.23L150.72 280.88Z" fill="#F3EB50"/>
<path d="M161.81 278.89L158.91 286.31L143.07 293.19L134.36 291.54L133.19 271H139.64V282.8L150.72 285.56L161.81 278.89Z" fill="#E7C053"/>
<path d="M153.74 219.39V249.62L150.13 256.35L144.66 249.2L137.52 216.48C137.52 216.48 143.84 228.94 144.05 229.57C144.14 229.86 148.68 225 153.74 219.39Z" fill="#827140"/>
<path d="M168.41 197.51C168.41 197.51 168.06 200.08 167.53 204.03C167.34 204.25 160.13 212.35 153.75 219.38C148.69 224.95 144.15 229.85 144.06 229.56C143.85 228.93 137.53 216.47 137.53 216.47L139.65 215.65L149.47 207.24L161.82 196.67C161.82 196.67 164.99 194.2 165.82 193.38C166.65 192.56 168.41 197.51 168.41 197.51Z" fill="#F4A54B"/>
<path d="M132.52 385.42L130.69 478.55C129.38 478.62 127.41 478.71 125.4 478.77L116.45 418.69C116.45 418.69 127.28 382.69 127.28 382.01C127.28 381.33 132.52 385.42 132.52 385.42Z" fill="#827140"/>
<path d="M112.56 119.16L78.7399 130.32L69.2999 143.85L60.2199 129L41.3599 119.26C41.6199 118.07 41.7699 117.33 41.7699 117.33L45.0599 114.13C44.7499 114.58 45.0599 117.55 45.0599 117.55L68.9999 126.82L71.5599 127.82L110.5 115.65L112.56 119.16Z" fill="#E7C053"/>
<path d="M83.73 219.39V234.13V236.62L79 238.75L79.23 219.39H60.35C59.98 219.39 57.83 216.92 56.74 215.65L83.74 214.49V219.39H83.73Z" fill="#F3EB50"/>
<path d="M52.14 294.65C52.14 294.65 41.6999 320.05 41.5299 319.18C41.3599 318.31 32.62 285.43 31.95 282.94V282.04L36.8399 243.16L37.4999 241.65L48.4999 253.41L50.4999 255.54L52.14 294.65Z" fill="#F3EB50"/>
<path d="M69.34 275.6L53.1 361L40.16 353L32 283.12V282.94C32.67 285.43 41.41 318.35 41.58 319.18C41.75 320.01 52.19 294.65 52.19 294.65L50.58 255.53L69.34 275.6Z" fill="#827140"/>
<path d="M48.6699 365.5L34.3799 371.57L37.8999 354.75C38.9299 355.18 48.6699 365.5 48.6699 365.5Z" fill="#F4A54B"/>
<path d="M155.89 276.23L150.72 280.92L152.53 273.86V261.73L155.89 276.23Z" fill="#827140"/>
<path d="M9.55008 276.23L5.84009 279.18L6.81009 262.75L9.55008 276.23Z" fill="#827140"/>
<path d="M65.72 393.77L46.63 472.69H39.45L39.21 472.19V415.48C39.21 414.33 57.33 374.9 57.33 374.9L65.72 393.77Z" fill="#827140"/>
<path d="M50.4099 472.69L45.8999 486.53H33.4099L33.4199 485.53L33.5099 472.69H50.4099Z" fill="#F4A54B"/>
<path d="M132.08 478.48L131.08 486.48H118.75L118.68 486.12L118.24 478.58C120.322 478.803 122.419 478.859 124.51 478.75C126.82 478.69 129.19 478.57 130.68 478.5C131.34 478.52 131.84 478.48 132.08 478.48Z" fill="#F4A54B"/>
<path d="M147.68 108.37L107.31 110.48L115.53 105.16L126.54 98.51L128.73 97.19L147.68 108.37Z" fill="#F3EB50"/>
<path d="M147.68 108.38L140.89 128.13V128.26L125.35 128.45L125.16 128.26L107.4 110.53L147.68 108.38Z" fill="#F4A54B"/>
<path d="M43.6701 108.15L27.3201 106.11L39.9601 99.21L43.6701 108.15Z" fill="#F3EB50"/>
<path d="M47.42 108.15L37.0799 116.46L25.4299 128.94L19.1799 121.17L27.3199 106.11L43.67 108.15L39.9599 99.21L47.42 108.15Z" fill="#F4A54B"/>
<path d="M81.64 35.29L97.45 26.78L75.75 33.1L81.64 35.29Z" fill="#F2914B"/>
<path d="M79.25 65.26L101.48 55.99L104.43 58.94L104.79 57.57L101.48 55.99L82.26 62.16L79.25 65.26Z" fill="#BC7645"/>
<path d="M76.96 65.33L60.77 58.48L74.05 62.53L76.96 65.33Z" fill="#9B5023"/>
<path d="M95.0201 79.84L85.0701 88.68L83.1401 89.62L79.3301 88.75L77.8301 88.27L83.1501 88.06L95.0201 79.84Z" fill="#9B5023"/>
<path d="M67.97 81.23L77.83 88.27L67.97 80.08V81.23Z" fill="#9B5023"/>
<path d="M68 80.08C68 80.25 78.06 88.08 78.06 88.08H83.19L83.02 88.78L77.86 88.29C77.86 88.29 69.58 82.12 69.53 82.13C69.48 82.14 68 80.08 68 80.08Z" fill="#9B5023"/>
<path d="M75.75 33.1C75.75 33.1 70.68 24.53 70.61 23.77C70.54 23.01 80.17 5.62 80.17 5.62C80.17 5.62 75.17 21.31 75.39 21.5C75.61 21.69 81 31 81 31L75.75 33.1Z" fill="#282A2A"/>
<path d="M103.57 7.05998C102.94 6.87998 95.02 10.49 95.02 10.49C95.02 10.49 88.6 27.01 88.88 26.78C89.16 26.55 96.22 12 96.22 12L103.57 7.05998Z" fill="#282A2A"/>
<path d="M46.6099 25.68L62.7099 16.92L71.6299 19.36L61.6299 5.03003L46.6099 25.68Z" fill="#282A2A"/>
<path d="M98.55 369C99.07 369.92 113.46 407.88 113.46 407.88L97.24 386.75L98.55 369Z" fill="#F4A54B"/>
<path d="M48.67 371.57L35.95 376.25L39.2099 415.48L57.3299 374.9L48.67 371.57Z" fill="#F4A54B"/>
<path d="M57.88 235.69L52.47 257.59L69.34 275.6L67.18 286.93L74.47 288.88L81.12 287.18L77.04 273.86L93.43 260.52L102.2 227.14L83.73 234.13L83.72 236.62L69.34 243.15L57.88 235.69Z" fill="#F4A54B"/>
<path d="M132.16 150.15L130.64 149.63L131.16 148.63L134.7 142V141.94V141.87L141.15 129.73L151 156.63V156.71C147.25 155.38 136.22 151.55 132.16 150.15Z" fill="#827140"/>
<path d="M161.53 194.46L151.88 190.26L145.05 187.26L145.13 186.93L145.46 185.56L145.55 185.16L151.8 159L160 181.57L161.53 194.46Z" fill="#F4A54B"/>
<path d="M145.16 188.1C145.8 191.83 148.35 206.79 148.38 208C148.375 208.08 148.355 208.158 148.32 208.23C147.71 209.6 142.32 213.63 139.85 215.47L139.76 215.54H139.7H139.63L142 188.26V188L139.7 184.83L135.14 178.54L121.49 151.34L121.43 151.22C124.3 150.42 130.48 148.72 131.15 148.63C131.346 148.663 131.54 148.709 131.73 148.77C131.73 148.77 146.91 154.92 150.93 156.63V156.71L151.75 158.98L145.47 185.17L145.38 185.57L145.05 186.94L144.97 187.27L145.16 188.1Z" fill="#F3EB50"/>
<path d="M161.8 196.69L151.89 205.18C151.79 205.26 151.69 205.35 151.59 205.42L149.45 207.15L148.38 208L145.16 188.1L145.02 187.27L151.85 190.27L161.5 194.47L161.8 196.69Z" fill="#827140"/>
<path d="M150.3 184.73L146.3 186.43L146.11 186.51H146.06L145.11 186.91L142 188.26V188L139.7 184.83C141.97 184.99 144.39 185.11 145.22 185.15H145.51L150.3 184.73Z" fill="#827140"/>
<path d="M141.22 129.7L134.77 141.84V141.91V141.97L131.24 148.6L121.58 151.31L119.84 148L121.34 142.55L123.13 135.76H123.19L123.35 135.68L123.75 135.51L124.04 135.38L124.46 135.2L124.67 135.11L125.04 134.95L125.6 134.71L125.94 134.56L127.94 133.71L135.83 130.31L137.13 129.75L140.18 128.44L140.51 128.3H140.59H140.64L140.84 128.19V128.32L141.22 129.7Z" fill="#E7C053"/>
<path d="M37.1501 136.45L35.4901 139.15L32.4401 150.82L31.7701 152.04C31.7701 152.04 38.4501 165.78 37.7701 166.5C37.0901 167.22 25.6801 176.9 25.6801 176.9L21.55 150.82L27.1901 139.65L37.1501 136.45Z" fill="#F4A54B"/>
<path d="M25.6701 176.88L25.0901 177.31L16.0901 184.01C16.1601 182.01 16.2401 180.13 16.3001 178.48L17.5801 166.86L17.7701 165.15C19.7101 153.96 23.1101 135.26 23.1101 135.26L27.2001 139.63L21.5601 150.8L24.8001 171.26V171.33L25.6801 176.85L25.6701 176.88Z" fill="#E7C053"/>
<path d="M37.7699 166.51L37.7 167.18L34.0599 189.18L32.8799 207.23L24.8799 202.79L23.0999 201.79L22.4399 201.42C22.4399 201.42 22.4899 201.08 22.5599 200.49C22.5599 200.29 22.6199 200.06 22.6499 199.81C22.6799 199.56 22.7099 199.39 22.7399 199.15C22.8299 198.49 22.9299 197.7 23.0499 196.83C23.0499 196.65 23.0499 196.46 23.1299 196.26C23.2099 196.06 23.2199 195.61 23.2599 195.26C23.2551 195.177 23.2551 195.093 23.2599 195.01L23.4299 193.71C23.4999 193.17 23.5699 192.61 23.6499 192.03L23.7999 190.9C24.0199 189.19 24.2599 187.44 24.4799 185.77C24.5299 185.43 24.5699 185.09 24.6199 184.77C24.6699 184.45 24.6699 184.32 24.7099 184.1C24.7699 183.58 24.8399 183.1 24.8999 182.61C24.9599 182.12 24.9899 181.96 25.0299 181.61C25.0699 181.26 25.1099 181 25.1499 180.71V180.45V180.22L25.2399 179.51L25.3299 178.81C25.3299 178.59 25.3799 178.39 25.4099 178.2L25.4799 177.7L25.5899 176.88L25.7199 176.77L26.0699 176.47C28.1599 174.64 36.4099 167.47 37.5699 166.57H37.6199L37.7699 166.51Z" fill="#F3EB50"/>
<path d="M25.6899 176.9L25.5799 177.72C25.5799 177.87 25.5299 178.03 25.5099 178.22C25.4899 178.41 25.4599 178.61 25.4299 178.83C25.3999 179.05 25.3699 179.28 25.3399 179.53C25.3099 179.78 25.2799 179.96 25.2399 180.19V180.44V180.7C25.1999 180.987 25.1599 181.287 25.1199 181.6C25.1199 181.91 25.0299 182.23 24.9899 182.6C24.9499 182.97 24.8599 183.6 24.7999 184.09C24.7999 184.31 24.7299 184.54 24.7099 184.76C24.6899 184.98 24.6199 185.43 24.5699 185.76C24.3499 187.43 24.1099 189.18 23.8899 190.89L23.7399 192.02C23.6599 192.6 23.5899 193.16 23.5199 193.7L23.3499 195C23.3451 195.083 23.3451 195.167 23.3499 195.25C23.3499 195.59 23.2599 195.92 23.2199 196.25C23.1799 196.58 23.1699 196.65 23.1399 196.83C23.0199 197.7 22.9199 198.49 22.8299 199.15C22.8299 199.39 22.7999 199.61 22.7399 199.81C22.7399 200.06 22.6799 200.29 22.6499 200.49C22.5799 201.08 22.5299 201.42 22.5299 201.42L15.6299 197.59C15.6299 197.59 15.9199 190.53 16.1799 184C16.2499 182 16.3299 180.12 16.3899 178.47L17.6699 166.85C18.7399 168.38 23.4099 174 25.1399 176.08L25.7699 176.82L25.6899 176.9Z" fill="#F4A54B"/>
<path d="M140.85 128.26C140.85 128.26 140.85 128.26 140.73 128.32H140.63L140.46 128.4C138.76 129.11 132.46 131.76 127.95 133.67L125.95 134.52L125.61 134.67L125.05 134.91L124.68 135.07L124.47 135.16L124.05 135.34L123.76 135.47L123.36 135.64L123.2 135.72C122.65 135.72 116.96 126.41 112.56 119.08L110.46 115.59C108.81 112.81 107.62 110.78 107.46 110.46L125.25 128.24L140.85 128.26Z" fill="#827140"/>
<path d="M63.39 146.57L52.13 164.01L40.88 161.13L38.8 159.66L31.46 150.87L35.45 138.81L38.75 135.33L52.87 135.95L63.39 146.57Z" fill="#F3EB50"/>
<path d="M105.32 209.61L83.7301 219.39V214.49L56.5401 215.66V219.39L50.8101 211.29L48.0901 176.59L39.6601 170.18L37.8401 166.46L30.8401 152.1L31.5101 150.88L38.8501 159.67L40.9301 161.14L46.2701 164.93L55.0001 178.21L56.5501 177.4L57.9401 198.83L69.3601 193.13C69.3601 193.13 82.3601 198.59 83.7401 198.83C84.7401 199 87.3601 187.61 88.6601 181.6C91.2901 182.6 97.0401 185.04 97.4701 185.04C97.9001 185.04 100.47 188.89 101.86 190.92C102.29 193.24 105.32 209.61 105.32 209.61Z" fill="#E7C053"/>
<path d="M123.22 135.76L119.84 148L116.28 145.42C111.47 141.93 103.41 136.07 102.98 135.73C102.35 135.25 89.7199 139.62 89.7199 139.62L75.3099 149L70.17 161.26L63.39 146.59L52.8699 136L38.7499 135.38L35.45 138.86L36.9799 136.73C37.5499 136.73 40.3099 124.14 41.3599 119.23L60.2199 128.98L69.2999 143.9L78.7399 130.35L112.56 119.17C117 126.54 122.78 136 123.22 135.76Z" fill="#F4A54B"/>
<path d="M110.7 157.52C110.58 157.96 100.05 170.88 100.05 170.88L99.8901 175.83" fill="#F4A54B"/>
</svg>
