<svg width="168" height="480" viewBox="0 0 168 480" fill="none" xmlns="http://www.w3.org/2000/svg">
<path d="M91.3099 43H91.2599H90.1399L86.1399 43.07H85.5399L80.9699 43.15H79.6399H78.3399H78.2399L78.0599 43.21L77.6199 43.4L77.0599 43.64L74.7199 44.7L74.3699 44.86L73.9099 45.08L73.6699 45.19L73.3199 45.35L70.9199 43L64.0099 42.76H63.3799C63.4999 43.3 65.2099 49.07 65.2099 49.07L67.7799 55.56L72.0799 62.28H82.9099L90.6199 53.17L90.6899 53.1L91.4599 52.2V52.14V52L91.3099 43ZM80.1899 49.14C80.4999 49.21 84.6199 50.39 84.6199 50.39L69.4499 50.31L71.0699 49.14C71.0699 49.14 79.8799 49.07 80.1899 49.13V49.14ZM71.5099 52.78H80.9999C80.9999 52.78 78.9099 55.27 78.6699 55.19C78.4299 55.11 73.0499 55.19 73.0499 55.19L71.5099 52.78Z" fill="#C68650"/>
<path d="M68.28 0.820068L74.74 2.63007L82.42 0.820068L97.36 4.76006L84.15 8.06006L72.09 7.38007L68.28 0.820068Z" fill="#3E383E"/>
<path d="M164.17 219.37L164.12 219.81L154.43 218.74L165.56 168C165.56 168 166.97 189.67 167.33 190.37V190.51C167.52 193.14 164.17 219.37 164.17 219.37Z" fill="#3C6A4C"/>
<path d="M159.9 219.34L154.91 245.98L151.42 232L145.88 229.43L146.06 228.99L154.43 218.74L159.9 219.34Z" fill="#C58851"/>
<path d="M154.91 245.98L144.6 248.24L142.73 244.63L148.03 243.49L148.51 239.07L142.73 244.63L140.81 240.91L145.88 229.43L151.42 232L154.91 245.98Z" fill="#A66933"/>
<path d="M167.18 246.23L162.15 250.18L144.6 248.24L154.91 245.98L167.18 246.23Z" fill="#6F3E2A"/>
<path d="M164.12 219.81L167.18 246.23L154.91 245.98L159.9 219.34L164.12 219.81Z" fill="#A66933"/>
<path d="M141.27 80.8801L129.81 98.3501L109.69 84.6301L124.32 76.3101L124.54 76.4101L141.27 80.8801Z" fill="#5ECC6B"/>
<path d="M98.3101 65.71C93.3601 67.88 80.3901 74.85 78.9801 75.29C78.9101 75.29 78.87 75.29 78.86 75.29C78.6 75.11 72.3801 70 68.8101 67.29L77.9901 70.82L97.0901 60.72V64.85L98.3101 65.71Z" fill="#996B4A"/>
<path d="M97.1301 54.72V60.72L78.0001 70.83L68.8201 67.3L69.8901 61.77L71.7001 63.96H83.0001L97.1301 54.72Z" fill="#8A562C"/>
<path d="M97.89 45.22L98.44 44.63L97.89 45.22L97.13 54.72L83 63.94L91.59 51.94C94.1752 48.3463 96.3898 44.5 98.2 40.46C98.32 40.08 97.89 45 97.89 45.22Z" fill="#6A3F26"/>
<path d="M91.5 51.9999L83 63.9399H71.7L69.89 61.7499L67.61 55.8499L65.26 49.2699L62.72 42.6899L64.03 42.7599L65.87 49.1099L68.44 55.5999L72.12 62.3199H82.95L91.5 51.9999Z" fill="#9C6636"/>
<path d="M102.88 28.7L105.02 38.6499L97.8901 45.22C97.8901 45.04 98.3201 40.0799 98.1701 40.4299C99.6547 36.6646 100.64 32.7211 101.1 28.7H102.88Z" fill="#A26938"/>
<path d="M102.49 13.86L101.32 28.61L92.3699 24.34L92.9699 14.34L88.6299 15.05L76.9999 18.53L64.3699 14L63.1299 25.2L63.5399 9.51997C63.5399 9.51997 74.4699 11.92 74.7199 11.92C74.9699 11.92 91.7999 10.34 92.1699 10.22C92.5399 10.1 97.4999 8.12998 97.7799 7.84998L102.49 13.86Z" fill="#22201F"/>
<path d="M88.6301 15.08L86.0701 23.89C86.0701 23.89 74.9401 29.06 74.7601 29.19C74.5801 29.32 66.5401 24.87 66.1701 24.75C65.8001 24.63 64.3701 13.95 64.3701 13.95L76.5001 18.35L88.6301 15.08Z" fill="#C68650"/>
<path d="M101.33 28.7L97.54 30.73L92.61 32.22L89.85 28.85L87.53 26.04L92.37 24.34L101.32 28.61L101.31 28.6L101.33 28.7Z" fill="#5ECC6B"/>
<path d="M97.8499 30.54C97.8499 30.54 93.1599 39.42 91.7499 42.18L91.4999 42.65L91.3399 42.94V42.99L78.3399 43.21C78.0499 43.21 73.3399 45.43 73.3399 45.43L70.92 43L64.3799 42.74L62.6899 42.67L64.64 38.28L71.5099 40L72.8799 33.19L63.6799 29L62.8599 25.49L63.1299 25.13L74.4399 31.35L87.67 26L89.8699 28.69L76.4999 33.58L77.6599 40.03C77.9399 40.03 90.0499 39.54 90.2499 39.47C90.4499 39.4 92.6299 32.06 92.6299 32.06L97.8499 30.54Z" fill="#26342D"/>
<path d="M72.8799 33.21L71.5099 40.02L70.9799 33.53L63.6799 29.02L72.8799 33.21Z" fill="#5ECC6B"/>
<path d="M64.64 38.3L62.6899 42.69L60.4299 33.76V28.7L62.8599 25.51L63.6799 29.02L61.9299 32.51L63.5399 38.03L64.64 38.3Z" fill="#5ECC6B"/>
<path d="M89.87 28.6799L79.69 33.3399L77.66 40.0199L76.5 33.5699L89.87 28.6799Z" fill="#5ECC6B"/>
<path d="M101.33 28.6999C101.09 29.0499 100.81 34.6999 98.41 40.4099L98.3 40.67C96.15 45.73 92.18 50.7599 91.63 51.9099C91.63 51.9099 91.63 52.0599 91.57 52.0999C91.5487 52.1375 91.5176 52.1686 91.48 52.1899L91.26 42.9699V42.92C91.26 42.92 91.35 42.7699 91.42 42.6299L91.67 42.1599C93.15 39.4099 97.77 30.5199 97.77 30.5199L100.95 28.7799L101.24 28.6799L101.33 28.6999Z" fill="#3C6A4C"/>
<path d="M123.54 104.11L117.4 118.32C117.4 118.32 102.85 126.82 102.5 127.18C102.15 127.54 75.07 121.76 75.07 121.76L76.86 98.8701L85 83.0601L77 88.0001C77 88.0001 69.63 84.2101 69 83.5601L74.48 99.9501L70.79 122.29L47.53 128.59L34.77 119.78L46.86 135.1L63.31 129.1L49.4 142.15L53.63 178.52C53.63 178.52 61.34 197.25 61.8 197.52C62.26 197.79 86.59 197.52 86.59 197.52L103.88 172.27L114.21 166.71C114.21 166.59 114.21 166.53 114.21 166.53L114.49 165.77L126.85 125.32L123.54 104.11ZM92.48 154.56L92.62 156.21L94.62 180.86L91.44 185.57H91.17L73.45 187.69V130.48L96.05 141.15L92.48 154.56ZM80.06 129.13C80.06 129.13 104.68 133.69 105.35 133.52C106.02 133.35 125.82 117.61 126.44 117.12L107.36 141.12L80.06 129.13Z" fill="#26342D"/>
<path d="M126.44 117.12L107.36 141.12L80.0601 129.12C80.0601 129.12 104.68 133.68 105.35 133.51C106.02 133.34 125.82 117.61 126.44 117.12Z" fill="#3C6A4C"/>
<path d="M74.4699 99.9L70.7799 122.24L47.5199 128.54L34.7599 119.73L33.9199 103.29L49.0299 84.63L74.4699 99.9Z" fill="#5ECC6B"/>
<path d="M48.9999 84.63L31.0899 99.9L26.6799 94.64L33.39 79.48L44.9899 78.61L45.5199 78.37C46.7599 80.31 48.9999 84.63 48.9999 84.63Z" fill="#5ECC6B"/>
<path d="M25.3901 119.26L25.4401 119.12L26.6801 94.64L31.0901 99.9L34.7601 119.73L25.3901 119.26Z" fill="#26342D"/>
<path d="M52.8501 201.49L65.1701 226.55L64.0001 224.76L63.5301 224.02L63.2701 223.62L62.7101 222.73L62.0901 221.73L61.7601 221.21L60.7101 219.56L59.58 217.78L58.7901 216.53L57.9801 215.26L57.5701 214.61L56.7701 213.35L55.4301 211.25L54.6501 210.01L53.83 208.71C50.17 202.93 47.0301 197.9 46.9701 197.65L50.3801 177.05C50.3801 177.05 44.1801 138.84 44.3801 135.37C43.4801 137.8 34.7401 157.9 34.0201 159.32L18.5701 151.51L32.6801 139.14L34.6801 119.71L46.7701 135.03L63.2201 129.03L49.3101 142.08L53.5401 178.45L52.8501 201.49Z" fill="#3C6A4C"/>
<path d="M18.61 151.53L17.4 179.01L6.99997 213.45L0.969971 210.01L12.21 163.72L18.61 151.53Z" fill="#5ECC6B"/>
<path d="M34.01 159.44L32.32 173.14L12.74 213.71L7 213.45L17.4 179.01L34.01 159.44Z" fill="#3C6A4C"/>
<path d="M118.78 191.13L96.0599 211.8L86.3299 226.57C85.8299 225.9 107.86 194.23 107.33 193.73C106.8 193.23 103.84 172.28 103.84 172.28L114.17 166.72C114.4 168.84 118.63 189.78 118.63 190.61C118.669 190.786 118.719 190.96 118.78 191.13Z" fill="#3C6A4C"/>
<path d="M65.1799 226.57L55.5499 282.27L40.3799 265.38L46.9999 197.68C47.1399 198.27 64.6199 225.68 65.1699 226.55L65.1799 226.57Z" fill="#26342D"/>
<path d="M131.44 248.08L134.78 304.59C134.78 304.59 125.65 315.66 122.21 320.59C124.71 315.01 129.9 301.04 129.9 300.78C129.9 300.52 117.12 283.73 115.72 280.3C115.81 279.89 115.81 279.67 115.72 279.69C115.63 279.71 115.6 279.93 115.72 280.3C114.72 284.44 103.66 308.45 102.72 310.39L102.66 310.52C95.43 285.99 85.71 253.2 85.71 253.2L80.45 289.61C80.45 289.61 75.19 315.08 75.14 315.61C73.7397 317.088 72.1371 318.361 70.38 319.39C65.81 322.27 60.3 325.75 59.86 326.04C59.09 326.55 70.05 305.15 70.05 305.15L55.51 282.29L65.14 226.59C65.14 226.59 86.3 227.25 86.3 226.59L115.67 278.37L131.44 248.08Z" fill="#3C6A4C"/>
<path d="M55.5499 282.27L49.8099 314.85L40.3799 265.38L55.5499 282.27Z" fill="#3C6A4C"/>
<path d="M73.4699 337.94L61.6799 352.26L46.1099 327.92L49.3299 316.51L49.5899 315.61L49.8099 314.85L55.5499 282.27L70.0899 305.13C70.0899 305.13 59.0899 326.53 59.8999 326.02L75.1799 315.59C75.3999 314.94 73.4699 337.94 73.4699 337.94Z" fill="#B7C259"/>
<path d="M79.7899 374.77L61.6799 352.26L73.4699 337.94L79.7899 374.77Z" fill="#5ECC6B"/>
<path d="M79.7899 374.77L63.5199 444.73L61.6799 352.26L79.7899 374.77Z" fill="#26342D"/>
<path d="M52.0999 419.53C52.0999 419.53 49.8699 358.53 49.6499 357.86C49.4299 357.19 46.1099 328.58 46.1099 327.92L61.6799 352.26L63.5199 444.73L52.0999 419.53Z" fill="#3C6A4C"/>
<path d="M64.39 467.83L27.56 469.57C27.56 469.57 18.62 472.57 17.75 472.4C16.88 472.23 2.48999 470 2.48999 470L3.35999 464.55L22.42 465.37L39.99 466.13L56.78 462.43C56.78 462.43 63.94 460.59 64.16 460.65C64.29 464.66 64.39 467.83 64.39 467.83Z" fill="#26342D"/>
<path d="M64.1601 460.66C63.9401 460.6 56.7801 462.44 56.7801 462.44L48.3701 441.21L52.1001 419.31L63.5201 444.51C63.6301 444.51 64.0001 453.81 64.1601 460.66Z" fill="#26342D"/>
<path d="M56.7801 462.44L39.9901 466.36L22.4201 465.6L12.1001 460.66L38.3801 450.27L56.7801 462.44Z" fill="#3C6A4C"/>
<path d="M22.4199 465.6L3.35986 464.56L12.0899 460.66H12.0999L22.4199 465.6Z" fill="#5ECC6B"/>
<path d="M131.44 248.08L115.71 278.37C115.08 277.75 122.17 212.02 122.17 212.02C126.86 227.65 131.44 248.08 131.44 248.08Z" fill="#3C6A4C"/>
<path d="M134.78 304.59C134.78 304.59 133.89 305.67 132.56 307.31L131.75 308.31C131.14 309.06 130.48 309.88 129.75 310.75C129.49 311.07 129.22 311.4 128.96 311.75C128.7 312.1 128.44 312.39 128.19 312.75L127.19 313.97C126.29 315.11 125.4 316.26 124.58 317.32L123.77 318.39C123.742 318.437 123.709 318.481 123.67 318.52C123.27 319.05 122.91 319.52 122.57 320.01L122.23 320.49C122.197 320.527 122.167 320.568 122.14 320.61L122.2 320.48C122.67 319.42 123.2 318.07 123.84 316.59L124.4 315.2L124.46 315.06C124.86 314.06 125.27 313.06 125.67 311.96C125.8 311.64 125.92 311.33 126.04 311.02C126.34 310.24 126.64 309.47 126.92 308.71C127.2 307.95 127.42 307.4 127.65 306.79C127.88 306.18 128.02 305.79 128.18 305.37C128.34 304.95 128.45 304.67 128.57 304.37C128.69 304.07 128.77 303.81 128.87 303.55C129.46 301.95 129.87 300.9 129.87 300.83C129.87 300.6 117.09 283.78 115.69 280.35C115.69 280.43 115.69 280.52 115.62 280.61C115.623 280.673 115.623 280.737 115.62 280.8C115.62 280.88 115.57 280.97 115.54 281.06C115.51 281.15 115.42 281.44 115.34 281.66L115.22 282C115.22 282.12 115.13 282.24 115.09 282.37C115.05 282.5 114.99 282.62 114.95 282.75C114.91 282.88 114.84 283.02 114.79 283.16L114.5 283.92L114.38 284.2C114.33 284.34 114.27 284.49 114.21 284.63C113.97 285.24 113.71 285.88 113.43 286.56C113.36 286.73 113.29 286.9 113.21 287.07C113.13 287.24 113.1 287.33 113.04 287.47C112.98 287.61 112.88 287.86 112.79 288.06C112.41 288.95 112.02 289.89 111.6 290.84C111.47 291.16 111.33 291.48 111.19 291.84C111.05 292.16 110.91 292.49 110.76 292.84L109.45 295.84L108.69 297.56L107.85 299.43L107.03 301.24L106.32 302.82L105.8 303.96L104.22 307.43L103.88 308.15L103.68 308.59C103.68 308.71 103.57 308.82 103.52 308.93L103.42 309.15C103.28 309.45 103.16 309.7 103.07 309.91L102.94 310.2L102.84 310.41L102.79 310.52L102.73 310.65L117.95 327.88L120.95 349.64L136 334.71L134.78 304.59Z" fill="#B7C259"/>
<path d="M136.1 421.45L116.55 382.54C116.55 382.54 116.55 382.13 116.45 381.4C116.51 380.14 120.94 357.23 120.94 357.23L110.37 336.89C110.37 336.64 106.97 325.03 102.82 310.7L118 327.89L120.9 349.53L152.14 417.93L156.14 448.65L136.1 421.45Z" fill="#3C6A4C"/>
<path d="M120.94 357.19C120.94 357.19 116.51 380.1 116.45 381.36C115.86 374.36 110.37 337.44 110.37 336.85L120.94 357.19Z" fill="#5ECC6B"/>
<path d="M152.18 417.93L120.94 349.53L136.04 334.71L146.7 368.39L152.18 417.93Z" fill="#26342D"/>
<path d="M161.4 460.99L138.44 453.56L136.51 422.29L136.1 421.45L156.14 448.65L161.4 460.99Z" fill="#26342D"/>
<path d="M165.93 471.63L141.8 471.19C141.8 471.19 138.49 461.51 138.49 461.1V453.88L138.44 453.56L161.44 460.99L165.93 471.63Z" fill="#3C6A4C"/>
<path d="M167.47 475.24L154 479.6H142L136.34 472.6L138.52 461.48V461.07C138.52 461.48 141.83 471.16 141.83 471.16L165.96 471.6L167.47 475.24Z" fill="#26342D"/>
<path d="M153.37 155.14C153.37 155.14 147.23 160.24 143.04 163.59C142.04 162.35 136.54 152.76 135.04 151.36C137.47 152.34 152.28 155 153.37 155.14Z" fill="#26342D"/>
<path d="M154.43 218.74L144.53 181.61L143.18 163.77C143.128 163.714 143.081 163.654 143.04 163.59C147.23 160.24 153.37 155.14 153.37 155.14L154.43 218.74Z" fill="#5ECC6B"/>
<path d="M165.56 168.02L154.43 218.74L153.37 155.14L165.56 168.02Z" fill="#26342D"/>
<path d="M105.48 70.6099L85.0001 83.0599L77.0001 87.9999C77.0001 87.9999 69.6301 84.2099 69.0001 83.5599V83.4699C69.2501 83.2999 66.3101 76.3 64.1201 71.92L66.8601 69.2699L67.2601 68.89C67.5301 68.65 67.7701 68.4199 67.9901 68.2099C68.4301 67.7999 68.7401 67.4799 68.8201 67.3799C72.3901 70.0999 78.6101 75.2099 78.8701 75.3799C78.8701 75.3799 78.9201 75.3799 78.9901 75.3799C80.3201 74.8499 92.4001 66.94 97.0701 64.95L98.3201 65.7999L105.48 70.6099Z" fill="#5ECC6B"/>
<path d="M74.47 99.9L49.03 84.63L68.96 83.42L68.99 83.51L74.47 99.9Z" fill="#3C6A4C"/>
<path d="M33.9201 103.29L34.7601 119.73L31.0901 99.9L49.0301 84.63L33.9201 103.29Z" fill="#3C6A4C"/>
<path d="M32.7099 139.16L18.6099 151.53L20.5099 132.42L25.3899 119.26L34.7599 119.73L32.7099 139.16Z" fill="#5ECC6B"/>
<path d="M34.0599 159.34L34.0099 159.44L17.3999 179L18.6099 151.52L34.0599 159.34Z" fill="#26342D"/>
<path d="M109.69 84.6301L76.8599 98.8701L84.9999 83.0601L109.69 84.6301Z" fill="#3C6A4C"/>
<path d="M123.54 104.11L117.4 118.32C117.4 118.32 102.85 126.82 102.5 127.18C102.15 127.54 75.0701 121.76 75.0701 121.76L76.86 98.87L109.69 84.63L123.54 104.11Z" fill="#5ECC6B"/>
<path d="M148.51 239.07L148.03 243.49L142.73 244.63L148.51 239.07Z" fill="#6F3E2A"/>
<path d="M92.48 154.56L94.63 180.87L91.45 185.58L73.46 187.73V130.48L96.06 141.15L92.48 154.56Z" fill="#5ECC6B"/>
<path d="M115.71 278.37L86.3401 226.59L96.0701 211.82L118.79 191.15C119.34 193.23 120.66 201.48 122.18 212.04C122.17 212 115.08 277.75 115.71 278.37Z" fill="#26342D"/>
<path d="M86.3301 226.57C86.3301 227.21 65.1701 226.57 65.1701 226.57L52.8501 201.51L53.6201 178.51C53.6201 178.51 61.3301 197.24 61.7901 197.51C62.2501 197.78 86.5801 197.51 86.5801 197.51L103.87 172.26C103.87 172.26 106.87 193.26 107.36 193.71C107.85 194.16 85.8301 225.9 86.3301 226.57Z" fill="#5ECC6B"/>
<path d="M92.9999 14.37L92.3999 24.37L87.6999 26.02L74.4699 31.4L63.1599 25.18L64.3999 13.98C64.3999 13.98 65.8399 24.66 66.1999 24.78C66.5599 24.9 74.5999 29.34 74.7899 29.22C74.9799 29.1 86.0999 23.92 86.0999 23.92L88.6599 15.11L92.9999 14.37Z" fill="#A46B32"/>
<path d="M84.6199 50.3799L82.14 50.9299L70.7 50.6699C70.7 50.6699 69.5 50.2999 69.45 50.2999L71.0699 49.1299C71.0699 49.1299 79.8799 49.0699 80.1899 49.1299C80.4999 49.1899 84.6199 50.3799 84.6199 50.3799Z" fill="#8F5729"/>
<path d="M81 52.77C81 52.77 78.91 55.26 78.67 55.18C78.43 55.1 73.05 55.18 73.05 55.18L71.53 52.77H81Z" fill="#8F5729"/>
<path d="M92.6299 32.0499C92.6299 32.0499 90.4499 39.3899 90.2499 39.4599C90.0499 39.5299 77.9399 40.0199 77.6599 40.0199L79.6599 33.3399L89.8399 28.6799L92.6299 32.0499Z" fill="#FFFDFD" stroke="#231F20" stroke-linejoin="round"/>
<path d="M71.5099 40.02L64.64 38.3L63.5399 38.03L61.9299 32.51L63.6799 29.02L70.9799 33.53L71.5099 40.02Z" fill="#FFFDFD" stroke="#231F20" stroke-linejoin="round"/>
<path d="M78 43.29L90.81 44.54L91.52 52.16L91.31 42.99L78.31 43.21L78 43.29Z" fill="#6A3F26"/>
<path d="M102.49 13.86L89.87 12.93L74.76 15.32L64.64 12.66L63.54 9.47002L64.94 6.93001L85.62 9.32002L97.36 4.76001L102.49 13.86Z" fill="#22201F"/>
<path d="M75.05 28.56L76.5001 26.01V27.79L75.05 28.56Z" fill="#A46A33"/>
<path d="M68 68.1601C67.78 68.3701 67.54 68.6001 67.27 68.8401L68.83 67.3101C68.7 67.4301 68.39 67.7501 68 68.1601Z" fill="#643090"/>
<path d="M69 83.42L49 84.63C49 84.63 47.28 81.35 46 79.21C45.81 78.89 45.63 78.6 45.47 78.35L48.85 76.35L48.98 76.27V76.33C52.29 75.94 59.57 75.33 59.57 75.33C61.1506 74.3106 62.6425 73.1598 64.03 71.89C66.27 76.25 69.21 83.25 69 83.42Z" fill="#26342D"/>
<path d="M49.0001 76.28V79.17H46.0001L33.3501 79.42L47.2901 76.51L49.0001 76.28Z" fill="#26342D"/>
<path d="M92.4799 154.56L73.4599 151.2L72.1899 155.54L92.6199 156.22L94.4399 155.19L92.4799 154.56Z" fill="#26342D"/>
<path d="M52.85 201.49L65.17 226.55L64 224.76L63.53 224.02L63.27 223.62L62.71 222.73L62.09 221.73L61.76 221.21L60.71 219.56L59.58 217.78L58.79 216.53L57.98 215.26L57.57 214.61L56.77 213.35L55.43 211.25L54.65 210.01L53.83 208.71C50.17 202.93 47.03 197.9 46.97 197.65L50.38 177.05C50.38 177.05 44.18 138.84 44.38 135.37L34.72 119.71L46.81 135.03L63.26 129.03L49.35 142.08L53.58 178.45L52.85 201.49Z" fill="#3C6A4C"/>
<path d="M97.36 4.75999V9.47L74.66 14L63.54 9.52L64.94 6.98C66.31 4.49 68.22 0.979995 68.28 0.869995C68.28 1.21 75.39 5.61 75.39 5.61L79.22 3.17999L82.42 4.81L97.36 4.75999Z" fill="#22201F"/>
<path d="M92.9999 14.37C92.9999 14.37 97.1399 12.14 97.0999 12.29C97.0599 12.44 95.5299 25.68 95.5299 25.68L92.3999 24.34L92.9999 14.37Z" fill="#3E383E"/>
<path d="M101.89 30.9299L104.03 38.2999L101.04 41.7399L101.89 30.9299Z" fill="#6A3F26"/>
<path d="M101.04 41.7399L99.1899 41.5799L101.89 30.9299L103.47 36.3299L101.04 41.7399Z" fill="#6A3F26"/>
<path d="M76.5 17.74C76.5 17.55 66.5 10.22 66.5 10.22C66.5 10.22 68.14 1.58003 68.32 1.83003C68.5 2.08003 74.58 9.28003 74.58 9.28003L76.5 17.74Z" fill="#3E383E"/>
<path d="M62.6899 42.6899L70.7399 43.8999C70.7399 43.8999 73.4499 45.5899 73.2999 45.4299L70.92 42.9999L62.6899 42.6899Z" fill="#6A3F26"/>
<path d="M124.32 76.31L109.69 84.63L85 83.06L105.48 70.61L106.73 71.46L124.32 76.31Z" fill="#26342D"/>
<path d="M123.54 104.11L123.49 125.32L114.2 166.72L127.47 124.84L123.54 104.11Z" fill="#5ECC6B"/>
<path d="M70.87 137.82C71.21 138.67 70.19 150.12 70.19 150.12L58.97 150.85L61.34 140L70.87 137.82Z" fill="#5ECC6B"/>
<path d="M102.76 310.35L102.7 310.48C95.4699 285.95 85.7499 253.16 85.7499 253.16L80.4899 289.57C80.4899 289.57 75.2299 315.04 75.1799 315.57C73.7796 317.048 72.1771 318.321 70.4199 319.35L76.6299 299.14L84.7599 250L77.5899 246.66L74.5899 238.17L81.0599 243.56H88.9799C88.9799 243.56 90.7699 251.87 91.2299 252.71C91.6899 253.55 101.88 305.85 102.76 310.35Z" fill="#26342D"/>
<path d="M38.3799 450.27L48.3799 441.21C48.3799 441.21 57.3799 463.21 56.7999 462.66C56.2199 462.11 38.3799 450.27 38.3799 450.27Z" fill="#5ECC6B"/>
<path d="M164.17 219.37L164.12 219.81L154.43 218.74L167.33 190.39V190.53C167.52 193.14 164.17 219.37 164.17 219.37Z" fill="#26342D"/>
<path d="M72.0901 62.3199C72.2201 62.1799 73.9801 59.2199 73.9801 59.2199L79.1401 58.9399L82.9201 62.3199L75.7201 63.2699L72.0901 62.3199Z" fill="#9C6636"/>
<path d="M152 105.32V105.39L142.34 122.09L127.84 113.55L129.84 98.35L141.31 80.88L141.63 80.93L152 105.32Z" fill="#26342D"/>
<path d="M135.51 127.26C135.51 127.26 134.32 149.96 134.7 151.12C134.05 151.05 127.25 126.37 127.25 126.37L121.62 105.51L109.69 84.63L129.84 98.3L128.16 113.46L142.29 122.09L135.51 127.26Z" fill="#3C6A4C"/>
<path d="M165.56 168L153.37 155.12L142.29 122.07L152 105.18C151.9 106.25 154.81 120.18 154.95 120.84C155.09 121.5 155.57 134.45 155.57 134.45C155.57 134.45 156.25 154.04 156.33 153.39C156.41 152.74 165.56 168 165.56 168Z" fill="#3C6A4C"/>
<path d="M153.37 155.14C152.28 155.02 137.47 152.34 135.03 151.36C134.942 151.258 134.833 151.176 134.71 151.12C134.33 149.96 135.52 127.26 135.52 127.26L142.3 122.09L153.37 155.14Z" fill="#5ECC6B"/>
<path d="M47.3501 76.54L49.0301 76.28V76.34H48.9001L47.3401 76.53L47.3501 76.54Z" fill="#662F8E"/>
<path d="M11.74 228.91L3.79004 241.96L0.540039 228.09L0.970032 210.01L7.00003 213.45L11.74 228.91Z" fill="#A86A33"/>
<path d="M19.39 225.61L11.74 228.91L7 213.45L12.74 213.71L19.27 225.26L19.39 225.61Z" fill="#C78953"/>
<path d="M22.75 235.5L20.15 238.12L11.74 228.91L19.39 225.61L22.75 235.5Z" fill="#A66834"/>
<path d="M20.15 238.12L18.04 242.09L17.31 243.46L3.81003 242.04L3.79004 241.96L11.74 228.91L20.15 238.12Z" fill="#6D3D2E"/>
<path d="M18.04 242.09L7 239.67L10.02 236.02L20.15 238.12L18.04 242.09Z" fill="#A26B32"/>
</svg>
