<svg width="167" height="480" viewBox="0 0 167 480" fill="none" xmlns="http://www.w3.org/2000/svg">
<path d="M90.7899 42.7099H90.7399H89.6199L85.6199 42.7799H84.9999L80.4299 42.8599H79.0999H77.7999H77.6999L77.5199 42.9199L77.0799 43.1099L76.5199 43.3499L74.1799 44.4099L73.8299 44.5699L73.3699 44.7899L73.1299 44.8999L72.7799 45.0599L70.3999 42.6499L63.4899 42.4099H62.8599C62.9799 42.9499 64.6899 48.7199 64.6899 48.7199L67.2599 55.2099L71.5599 61.9299H82.3999L90.1099 52.8199L90.1799 52.7499L90.9499 51.8499L90.9999 51.7899V51.5999L90.7899 42.7099ZM79.6699 48.8499C79.9799 48.9199 84.0999 50.0999 84.0999 50.0999L68.9299 49.9999L70.5499 48.8299C70.5499 48.8299 79.3599 48.7899 79.6699 48.8499ZM70.9999 52.4899H80.4699C80.4699 52.4899 78.3799 54.9799 78.1399 54.8999C77.8999 54.8199 72.5199 54.8999 72.5199 54.8999L70.9999 52.4899Z" fill="#C68650"/>
<path d="M67.77 0.540039L74.23 2.35005L81.9 0.540039L96.85 4.48004L83.64 7.78004L71.58 7.10005L67.77 0.540039Z" fill="#3E383E"/>
<path d="M163.65 219.09V219.53L153.96 218.46L165 167.74C165 167.74 166.41 189.41 166.78 190.11V190.25C167 192.86 163.65 219.09 163.65 219.09Z" fill="#3A3B44"/>
<path d="M159.38 219.06L154.39 245.7L150.9 231.72L145.36 229.15L145.55 228.71L153.91 218.46L159.38 219.06Z" fill="#C38750"/>
<path d="M154.39 245.7L144.08 247.96L142.21 244.35L147.51 243.21L148 238.79L142.21 244.35L140.29 240.63L145.36 229.15L150.9 231.72L154.39 245.7Z" fill="#A56933"/>
<path d="M166.67 245.95L161.63 249.9L144.08 247.96L154.39 245.7L166.67 245.95Z" fill="#6F3E2A"/>
<path d="M163.6 219.53L166.67 245.95L154.39 245.7L159.38 219.06L163.6 219.53Z" fill="#A56933"/>
<path d="M140.75 80.6L129.29 98.07L109.17 84.35L123.8 76.03L124.02 76.13L140.75 80.6Z" fill="#7DD1F0"/>
<path d="M97.7901 65.4299C92.7901 67.5999 79.8701 74.5699 78.4601 75.0099C78.3901 75.0099 78.3501 75.0099 78.3401 75.0099C78.0801 74.8299 71.8701 69.7199 68.3401 67.0099L77.5101 70.5399L96.6101 60.4399V64.5699L97.7901 65.4299Z" fill="#996B4A"/>
<path d="M96.61 54.4399V60.4399L77.5101 70.5399L68.3 66.9999L69.36 61.4699L71.1701 63.6599H82.4701L96.61 54.4399Z" fill="#8A562C"/>
<path d="M97.3799 44.94L97.9299 44.35L97.3799 44.94L96.6199 54.44L82.45 63.66L91.0499 51.66C93.63 48.0647 95.8411 44.2186 97.6499 40.1799C97.7999 39.7999 97.3799 44.76 97.3799 44.94Z" fill="#6A3F26"/>
<path d="M90.9999 51.7299L82.4599 63.6599H71.1599L69.3499 61.4699L67.0799 55.5699L64.7099 48.9999L62.1699 42.4199L63.4799 42.4899L65.3199 48.8399L67.8899 55.3299L71.5699 62.0499H82.3999L90.9999 51.7299Z" fill="#9C6636"/>
<path d="M102.36 28.4199L104.5 38.4199L97.3799 44.9899C97.3799 44.8099 97.7999 39.8499 97.6499 40.1999C99.1344 36.4346 100.119 32.4911 100.58 28.4699L102.36 28.4199Z" fill="#A16938"/>
<path d="M102 13.58L100.84 28.33L91.8401 24.06L92.4401 14.06L88.1001 14.77L76.4801 18.22L63.8401 13.64L62.6001 24.84L63.0101 9.15999C63.0101 9.15999 73.9401 11.56 74.1901 11.56C74.4401 11.56 91.2701 9.97999 91.6401 9.85999C92.0101 9.73999 96.9701 7.76999 97.2501 7.48999L102 13.58Z" fill="#22201F"/>
<path d="M88.1101 14.7999L85.5501 23.6099C85.5501 23.6099 74.4301 28.7799 74.2501 28.9099C74.0701 29.0399 66.0201 24.5899 65.6501 24.4699C65.2801 24.3499 63.8501 13.6699 63.8501 13.6699L75.9801 18.0699L88.1101 14.7999Z" fill="#C68650"/>
<path d="M100.82 28.4201L97.02 30.4501L92.09 31.9401L89.33 28.5701L87.02 25.7601L91.85 24.0601L100.81 28.3301H100.79L100.82 28.4201Z" fill="#689DD4"/>
<path d="M97.33 30.2601C97.33 30.2601 92.64 39.1401 91.23 41.9001L90.98 42.3701L90.82 42.6601V42.7101L77.82 42.9301C77.53 42.9301 72.82 45.1501 72.82 45.1501L70.44 42.7401L63.9 42.4801L62.21 42.4101L64.16 38.0201L71.03 39.7401L72.4 32.9301L63.2 28.7401L62.38 25.2301L62.65 24.8701L73.96 31.0901L87.19 25.7101L89.39 28.4001L76 33.2901L77.16 39.7401C77.44 39.7401 89.55 39.2501 89.75 39.1801C89.95 39.1101 92.13 31.7701 92.13 31.7701L97.33 30.2601Z" fill="#7DD1F0"/>
<path d="M72.3599 32.93L70.9899 39.74L70.4599 33.25L63.1599 28.74L72.3599 32.93Z" fill="#689DD4"/>
<path d="M64.1199 38.02L62.1699 42.41L59.9199 33.48V28.42L62.3499 25.23L63.1599 28.74L61.4099 32.23L63.0199 37.75L64.1199 38.02Z" fill="#689DD4"/>
<path d="M89.35 28.3999L79.17 33.0599L77.14 39.7399L75.98 33.2899L89.35 28.3999Z" fill="#689DD4"/>
<path d="M100.82 28.4199C100.58 28.7699 100.3 34.4199 97.9 40.1299L97.79 40.3899C95.64 45.4499 91.67 50.4799 91.12 51.6299C91.12 51.6299 91.07 51.7799 91.05 51.8199C91.0314 51.8562 91.0039 51.8872 90.97 51.9099L90.75 42.6899C90.75 42.6399 90.84 42.5399 90.91 42.3999L91.16 41.9299C92.64 39.1799 97.26 30.2899 97.26 30.2899L100.44 28.5499L100.73 28.4499L100.82 28.4199Z" fill="#4B5680"/>
<path d="M123 103.83L116.88 118C116.88 118 102.33 126.5 101.98 126.86C101.63 127.22 74.55 121.44 74.55 121.44L76.34 98.55L84.48 82.74L76.43 87.63C76.43 87.63 69.06 83.84 68.43 83.19L74 99.62L70.26 122L47 128.26L34.24 119.45L46.33 134.77L62.78 128.77L48.87 141.82L53.1 178.19C53.1 178.19 60.81 196.92 61.27 197.19C61.73 197.46 86.06 197.19 86.06 197.19L103.35 172L113.68 166.44C113.68 166.32 113.68 166.26 113.68 166.26L113.96 165.5V165.45L126.32 125L123 103.83ZM92 154.28L92.14 155.93L94.14 180.58L90.96 185.29H90.69L72.97 187.41V130.2L95.57 140.87L92 154.28ZM79.58 128.85C79.58 128.85 104.2 133.41 104.87 133.24C105.54 133.07 125.34 117.33 125.96 116.84L106.88 140.84L79.58 128.85Z" fill="#689DD4"/>
<path d="M125.92 116.84L106.84 140.84L79.54 128.84C79.54 128.84 104.16 133.4 104.83 133.23C105.5 133.06 125.3 117.33 125.92 116.84Z" fill="#6767AE"/>
<path d="M73.9499 99.6201L70.2599 121.96L46.9999 128.26L34.2399 119.45L33.3999 103.01L48.5099 84.3501L73.9499 99.6201Z" fill="#7DD1F0"/>
<path d="M48.5099 84.3501L30.5799 99.6201L26.1699 94.3601L32.8799 79.2001L44.4699 78.3301L44.9999 78.0901C46.2399 80.0001 48.5099 84.3501 48.5099 84.3501Z" fill="#7DD1F0"/>
<path d="M24.8799 118.98L24.9299 118.84L26.1699 94.3599L30.5799 99.6199L34.2399 119.45L24.8799 118.98Z" fill="#689DD4"/>
<path d="M52.3299 201.21L64.6499 226.27L63.5099 224.48L63.0399 223.74L62.7799 223.34L62.2199 222.45L61.5999 221.45L61.2699 220.93L60.2699 219.28L59.1399 217.5L58.3499 216.25L57.5399 214.98L57.1299 214.33L56.3299 213.07L54.9899 210.97L54.2099 209.73L53.3899 208.43C49.7299 202.65 46.5899 197.62 46.5299 197.37L49.9399 176.77C49.9399 176.77 43.7399 138.56 43.9399 135.09C43.0399 137.52 34.3099 157.62 33.5899 159.04L18.1299 151.23L32.2399 138.86L34.2899 119.43L46.3799 134.75L62.8299 128.75L48.9199 141.8L53.1399 178.17L52.3299 201.21Z" fill="#3A3B44"/>
<path d="M18.0899 151.25L16.8799 178.73L6.47995 213.17L0.449951 209.73L11.6899 163.44L18.0899 151.25Z" fill="#7DD1F0"/>
<path d="M33.5 159.16L31.8 172.86L12.22 213.43L6.47998 213.17L16.88 178.73L33.5 159.16Z" fill="#3A3B44"/>
<path d="M11.22 228.63L3.27002 241.68L0.0200195 227.81L0.450043 209.73L6.48004 213.17L11.22 228.63Z" fill="#A86A32"/>
<path d="M18.88 225.33L11.22 228.63L6.47998 213.17L12.22 213.43L18.76 224.98L18.88 225.33Z" fill="#C58852"/>
<path d="M22.24 235.22L19.63 237.84L11.22 228.63L18.88 225.33L22.24 235.22Z" fill="#A16B31"/>
<path d="M19.63 237.84L17.52 241.81L16.79 243.18L3.29004 241.76L3.27002 241.68L11.22 228.63L19.63 237.84Z" fill="#6E3D2F"/>
<path d="M118.26 190.85L95.5399 211.52L85.8099 226.29C85.3099 225.62 107.34 193.95 106.81 193.45C106.28 192.95 103.35 172 103.35 172L113.68 166.44C113.91 168.56 118.14 189.5 118.14 190.33C118.169 190.506 118.209 190.679 118.26 190.85V190.85Z" fill="#6767AE"/>
<path d="M64.6599 226.29L54.9999 282L39.8599 265.1L46.4799 197.4C46.6199 197.99 64.0999 225.4 64.6499 226.27L64.6599 226.29Z" fill="#7DD1F0"/>
<path d="M130.92 247.8L134.27 304.31C134.27 304.31 125.14 315.38 121.7 320.31C124.2 314.73 129.39 300.76 129.39 300.5C129.39 300.24 116.61 283.5 115.21 280.02C115.3 279.61 115.3 279.39 115.21 279.41C115.12 279.43 115.09 279.65 115.21 280.02C114.21 284.16 103.15 308.17 102.21 310.11L102.15 310.24C94.92 285.71 85.2 252.92 85.2 252.92L80 289.29C80 289.29 74.75 314.76 74.7 315.29C73.2997 316.768 71.6971 318.041 69.94 319.07C65.37 321.95 59.86 325.43 59.42 325.72C58.65 326.23 69.61 304.83 69.61 304.83L55 282L64.62 226.3C64.62 226.3 85.79 226.96 85.79 226.3L115.16 278.08L130.92 247.8Z" fill="#3A3B44"/>
<path d="M55.0299 281.99L49.2999 314.57L39.8599 265.1L55.0299 281.99Z" fill="#3A3B44"/>
<path d="M73.0001 337.66L61.1601 352L45.6001 327.64L48.8201 316.23L49.0801 315.33L49.3001 314.57L55.0001 282L69.5401 304.86C69.5401 304.86 58.5401 326.26 59.3501 325.75L74.6401 315.32C74.8901 314.66 73.0001 337.66 73.0001 337.66Z" fill="#689DD4"/>
<path d="M79.2799 374.49L61.1599 351.98L72.9599 337.66L79.2799 374.49Z" fill="#6767AE"/>
<path d="M79.2799 374.49L62.9999 444.45L61.1599 351.98L79.2799 374.49Z" fill="#8193CA"/>
<path d="M51.5801 419.25C51.5801 419.25 49.3501 358.25 49.1301 357.58C48.9101 356.91 45.6001 328.3 45.6001 327.64L61.1601 352L63.0001 444.45L51.5801 419.25Z" fill="#3A3B44"/>
<path d="M63.87 467.55L27 469.29C27 469.29 18.06 472.34 17.19 472.12C16.32 471.9 2 469.73 2 469.73L2.87 464.28L21.93 465.1L39.5 465.86L56.29 462.16C56.29 462.16 63.45 460.32 63.67 460.38C63.77 464.38 63.87 467.55 63.87 467.55Z" fill="#40403E"/>
<path d="M63.6401 460.38C63.4201 460.32 56.2601 462.16 56.2601 462.16L47.8501 440.94L51.5801 419L63.0001 444.23C63.1101 444.23 63.4301 453.53 63.6401 460.38Z" fill="#689DD4"/>
<path d="M56.2601 462.16L39.4701 466.08L21.9001 465.32L11.5801 460.38L37.8701 449.99L56.2601 462.16Z" fill="#7DD1F0"/>
<path d="M21.9001 465.32L2.84009 464.28L11.5701 460.38H11.5801L21.9001 465.32Z" fill="#6767AE"/>
<path d="M130.92 247.8L115.19 278.09C114.56 277.47 121.65 211.74 121.65 211.74C126.34 227.37 130.92 247.8 130.92 247.8Z" fill="#689DD4"/>
<path d="M134.26 304.31C134.26 304.31 133.37 305.39 132.04 307.03L131.23 308.03C130.62 308.78 129.96 309.6 129.23 310.47C128.97 310.79 128.7 311.12 128.44 311.47C128.18 311.82 127.92 312.11 127.67 312.47L126.67 313.69C125.77 314.83 124.88 315.98 124.06 317.04L123.25 318.11C123.222 318.157 123.189 318.201 123.15 318.24C122.75 318.77 122.39 319.24 122.05 319.73L121.71 320.21C121.677 320.247 121.647 320.288 121.62 320.33L121.68 320.2C122.15 319.14 122.68 317.79 123.32 316.31L123.88 314.92L123.94 314.78C124.34 313.78 124.75 312.73 125.15 311.68C125.28 311.36 125.4 311.05 125.52 310.74C125.82 309.96 126.12 309.19 126.4 308.43C126.68 307.67 126.9 307.12 127.13 306.51C127.36 305.9 127.5 305.51 127.66 305.09C127.82 304.67 127.93 304.39 128.05 304.09C128.17 303.79 128.25 303.53 128.35 303.27C128.94 301.67 129.35 300.62 129.35 300.55C129.35 300.32 116.57 283.55 115.17 280.07C115.17 280.15 115.17 280.24 115.1 280.33C115.087 280.394 115.07 280.457 115.05 280.52C115.05 280.6 115 280.69 114.97 280.78C114.94 280.87 114.85 281.16 114.77 281.38L114.65 281.72C114.65 281.84 114.56 281.96 114.52 282.09C114.48 282.22 114.42 282.34 114.38 282.47C114.34 282.6 114.27 282.74 114.22 282.88L113.93 283.64L113.81 283.92C113.81 284.06 113.7 284.21 113.64 284.35C113.4 284.96 113.14 285.6 112.86 286.28C112.79 286.45 112.72 286.62 112.64 286.79C112.56 286.96 112.53 287.05 112.47 287.19C112.41 287.33 112.31 287.58 112.22 287.78C111.84 288.67 111.45 289.61 111.03 290.56C110.9 290.88 110.76 291.2 110.62 291.56C110.48 291.88 110.34 292.21 110.19 292.56L108.88 295.56L108.12 297.28L107.3 299L106.48 300.81L105.77 302.39L105.25 303.53L103.67 307L103.33 307.72L103.13 308.16C103.08 308.28 103.02 308.39 102.97 308.5L102.87 308.72C102.73 309.02 102.61 309.27 102.52 309.48L102.39 309.77L102.29 309.98L102.24 310.09L102.18 310.22L117.4 327.45V327.5L120.4 349.26L135.51 334.44L134.26 304.31Z" fill="#689DD4"/>
<path d="M135.59 421.17L116 382.25C116 382.25 116 381.84 115.9 381.11C115.96 379.85 120.39 356.94 120.39 356.94L109.82 336.6C109.82 336.35 106.42 324.74 102.27 310.41L117.49 327.64L120.39 349.28L151.64 417.68L155.59 448.4L135.59 421.17Z" fill="#3A3B44"/>
<path d="M120.42 356.91C120.42 356.91 115.99 379.82 115.93 381.08C115.34 374.08 109.85 337.16 109.85 336.57L120.42 356.91Z" fill="#6767AE"/>
<path d="M151.67 417.65L120.42 349.25L135.53 334.43L146.18 368.11L151.67 417.65Z" fill="#8193CA"/>
<path d="M160.88 460.71L137.92 453.28L136 422.01L135.59 421.17L155.62 448.37L160.88 460.71Z" fill="#689DD4"/>
<path d="M165.41 471.35L141.28 470.91C141.28 470.91 138 461.23 138 460.82V453.6L137.95 453.28L160.95 460.71L165.41 471.35Z" fill="#7DD1F0"/>
<path d="M167 475L153.49 479.36H141.49L135.83 472.36L138 461.23V460.82C138 461.23 141.31 470.91 141.31 470.91L165.44 471.35L167 475Z" fill="#40403E"/>
<path d="M152.85 154.86C152.85 154.86 146.71 159.96 142.52 163.31C141.52 162.07 136.03 152.49 134.52 151.08C137 152.06 151.77 154.74 152.85 154.86Z" fill="#3A3B44"/>
<path d="M153.91 218.46L144 181.33L142.64 163.5L142.5 163.31C146.69 159.96 152.83 154.86 152.83 154.86L153.91 218.46Z" fill="#7DD1F0"/>
<path d="M165.04 167.74L153.91 218.46L152.85 154.86L165.04 167.74Z" fill="#689DD4"/>
<path d="M105 70.3301L84.5201 82.7801L76.4701 87.6701C76.4701 87.6701 69.1001 83.8801 68.4701 83.2301V83.1401C68.7201 82.9701 65.7901 75.9701 63.6001 71.5901L66.3401 68.9401L66.7401 68.5601C67.0101 68.3201 67.2501 68.0901 67.4701 67.8801C67.9101 67.4701 68.2201 67.1501 68.3001 67.0501C71.8701 69.7701 78.0801 74.8801 78.3001 75.0501C78.3001 75.0501 78.3501 75.0501 78.4201 75.0501C79.7501 74.5201 91.8301 66.6101 96.5001 64.6201L97.7501 65.4701L105 70.3301Z" fill="#6767AE"/>
<path d="M73.95 99.6201L48.51 84.3501L68.44 83.1401L68.47 83.2301L73.95 99.6201Z" fill="#7DD1F0"/>
<path d="M33.4001 103.01L34.2401 119.45L30.5801 99.6201L48.5101 84.3501L33.4001 103.01Z" fill="#3A3B44"/>
<path d="M32.2001 138.88L18.0901 151.25L20.0001 132.14L24.8801 118.98L34.2401 119.45L32.2001 138.88Z" fill="#7DD1F0"/>
<path d="M33.5499 159.06L33.4999 159.16L16.8799 178.73L18.0899 151.25L33.5499 159.06Z" fill="#689DD4"/>
<path d="M17.52 241.81L6.47998 239.39L9.49997 235.74L19.63 237.84L17.52 241.81Z" fill="#A16B31"/>
<path d="M109.17 84.35L76.3401 98.59L84.4801 82.78L109.17 84.35Z" fill="#7DD1F0"/>
<path d="M123 103.83L116.88 118C116.88 118 102.33 126.5 101.98 126.86C101.63 127.22 74.55 121.44 74.55 121.44L76.3401 98.55L109.17 84.3101L123 103.83Z" fill="#7DD1F0"/>
<path d="M148 238.79L147.51 243.21L142.21 244.35L148 238.79Z" fill="#6E3C1A"/>
<path d="M91.9599 154.28L94.1099 180.59L90.9299 185.3L72.9399 187.45V130.2L95.5399 140.87L91.9599 154.28Z" fill="#7DD1F0"/>
<path d="M115.19 278.09L85.8201 226.31L95.55 211.54L118.27 190.87C118.82 192.95 120.14 201.2 121.66 211.76C121.65 211.74 114.56 277.47 115.19 278.09Z" fill="#7DD1F0"/>
<path d="M85.8101 226.29C85.8101 226.93 64.6501 226.29 64.6501 226.29L52.3301 201.23L53.1001 178.23C53.1001 178.23 60.8101 196.96 61.2701 197.23C61.7301 197.5 86.0601 197.23 86.0601 197.23L103.35 172C103.35 172 106.35 192.95 106.84 193.45C107.33 193.95 85.3101 225.62 85.8101 226.29Z" fill="#689DD4"/>
<path d="M92.4499 14.09L91.8499 24.09L87.1499 25.74L73.9199 31.1199L62.6099 24.8999L63.8499 13.7C63.8499 13.7 65.2899 24.38 65.6499 24.5C66.0099 24.62 74.0599 29.06 74.2499 28.94C74.4399 28.82 85.5499 23.64 85.5499 23.64L88.1099 14.83L92.4499 14.09Z" fill="#A46B32"/>
<path d="M84.1099 50.0999L81.6299 50.6499L70.1799 50.3899C70.1799 50.3899 68.9799 50.0199 68.9299 50.0199L70.5499 48.8499C70.5499 48.8499 79.36 48.7899 79.67 48.8499C79.98 48.9099 84.1099 50.0999 84.1099 50.0999Z" fill="#8F5729"/>
<path d="M80.46 52.49C80.46 52.49 78.37 54.98 78.13 54.9C77.89 54.82 72.51 54.9 72.51 54.9L71 52.49H80.46Z" fill="#8F5729"/>
<path d="M92.1101 31.7699C92.1101 31.7699 89.9301 39.1099 89.7301 39.1799C89.5301 39.2499 77.4201 39.7399 77.1401 39.7399L79.1401 33.0599L89.3201 28.3999L92.1101 31.7699Z" fill="#FFFDFD" stroke="#231F20" stroke-linejoin="round"/>
<path d="M70.9899 39.74L64.1199 38.02L63.0199 37.75L61.4099 32.23L63.1599 28.74L70.4599 33.25L70.9899 39.74Z" fill="#FFFDFD" stroke="#231F20" stroke-linejoin="round"/>
<path d="M77.48 43L90.3 44.2599L91 51.8699L90.79 42.7L77.79 42.92L77.48 43Z" fill="#6A3F26"/>
<path d="M102 13.5799L89.38 12.6499L74.25 14.9999L64.13 12.3399L63.03 9.14993L64.43 6.60994L85.11 8.99994L96.85 4.43994L102 13.5799Z" fill="#22201F"/>
<path d="M74.53 28.29L75.98 25.73V27.51L74.53 28.29Z" fill="#A46A33"/>
<path d="M67.44 67.88C67.22 68.09 66.98 68.32 66.71 68.56L68.27 67.03C68.19 67.15 67.88 67.47 67.44 67.88Z" fill="#643090"/>
<path d="M68.44 83.1399L48.51 84.3499C48.51 84.3499 46.79 81.0699 45.51 78.9299C45.32 78.6099 45.14 78.3199 44.98 78.0699L48.36 76.0699L48.49 75.9899V76.0499C51.8 75.6599 59.08 75.0499 59.08 75.0499C60.6647 74.0318 62.16 72.881 63.55 71.6099C65.76 75.9999 68.69 82.9999 68.44 83.1399Z" fill="#689DD4"/>
<path d="M48.5099 76V78.89H45.5099L32.8599 79.14L46.7999 76.23L48.5099 76Z" fill="#689DD4"/>
<path d="M91.9599 154.28L72.9399 150.92L71.6699 155.26L92.0999 155.94L93.9199 154.92L91.9599 154.28Z" fill="#689DD4"/>
<path d="M52.33 201.21L64.65 226.27L63.51 224.48L63.04 223.74L62.78 223.34L62.22 222.45L61.6 221.45L61.27 220.93L60.27 219.28L59.14 217.5L58.35 216.25L57.54 214.98L57.13 214.33L56.33 213.07L54.99 210.97L54.21 209.73L53.39 208.43C49.73 202.65 46.59 197.62 46.53 197.37L49.94 176.77C49.94 176.77 43.74 138.56 43.94 135.09L34.29 119.43L46.38 134.75L62.83 128.75L48.92 141.8L53.14 178.17L52.33 201.21Z" fill="#6767AE"/>
<path d="M96.85 4.48004V9.19005L74.15 13.67L63 9.19005L64.4 6.65004C65.77 4.16004 67.68 0.650039 67.74 0.540039C67.74 0.880039 74.85 5.28004 74.85 5.28004L78.68 2.85005L81.88 4.48004H96.85Z" fill="#22201F"/>
<path d="M92.4499 14.0899C92.4499 14.0899 96.5899 11.8599 96.5599 12.0099C96.5299 12.1599 94.9999 25.3999 94.9999 25.3999L91.8599 24.0599L92.4499 14.0899Z" fill="#3E383E"/>
<path d="M101.37 30.6499L103.51 38.0199L100.52 41.4599L101.37 30.6499Z" fill="#6A3F26"/>
<path d="M100.52 41.4599L98.6699 41.2999L101.37 30.6499L102.96 36.0499L100.52 41.4599Z" fill="#6A3F26"/>
<path d="M76 17.46C76 17.27 66 9.94 66 9.94C66 9.94 67.64 1.3 67.83 1.55C68.02 1.8 74 9 74 9L76 17.46Z" fill="#3E383E"/>
<path d="M62.1699 42.4099L70.2199 43.6199C70.2199 43.6199 72.9399 45.3099 72.7799 45.1499L70.3999 42.7399L62.1699 42.4099Z" fill="#6A3F26"/>
<path d="M123.81 76.0301L109.18 84.3501L84.49 82.7801L104.96 70.3301L106.21 71.1801L123.81 76.0301Z" fill="#689DD4"/>
<path d="M123.02 103.83L122.97 125.05L113.68 166.44L126.95 124.56L123.02 103.83Z" fill="#29272C"/>
<path d="M70.3499 137.54C70.6899 138.39 69.67 149.84 69.67 149.84L58.45 150.57L60.8199 139.73L70.3499 137.54Z" fill="#7DD1F0"/>
<path d="M102.25 310.07L102.19 310.2C94.9599 285.67 85.2399 252.88 85.2399 252.88L79.9999 289.29C79.9999 289.29 74.75 314.76 74.7 315.29C73.2997 316.768 71.6971 318.041 69.9399 319.07L76.1499 298.86L84.2799 249.65L77.1099 246.31L73.9999 237.84L80.4699 243.23H88.39C88.39 243.23 90.18 251.54 90.64 252.38C91.1 253.22 101.37 305.57 102.25 310.07Z" fill="#6767AE"/>
<path d="M37.8701 450L47.8701 441C47.8701 441 56.8701 463 56.2901 462.44C55.7101 461.88 37.8701 450 37.8701 450Z" fill="#6767AE"/>
<path d="M163.65 219.09V219.53L153.96 218.46L166.86 190.11V190.25C167 192.86 163.65 219.09 163.65 219.09Z" fill="#689DD4"/>
<path d="M71.5701 61.9999C71.7001 61.8599 73.4701 58.8999 73.4701 58.8999L78.6301 58.6299L82.4001 61.9999L75.2001 62.9499L71.5701 61.9999Z" fill="#9C6636"/>
<path d="M151.43 105V105.07L141.78 121.77L127.28 113.23L129.28 98.0301L140.74 80.5601H141.06L151.43 105Z" fill="#689DD4"/>
<path d="M135 127C135 127 133.8 149.69 134.19 150.85C133.53 150.78 126.74 126.1 126.74 126.1L121.11 105.24L109.48 84.3599L129.32 97.9999L127.65 113.16L141.78 121.79L135 127Z" fill="#3A3B44"/>
<path d="M165 167.74L152.81 154.86L141.74 121.81L151.48 104.9C151.38 105.97 154.29 119.9 154.48 120.56C154.67 121.22 155.1 134.17 155.1 134.17C155.1 134.17 155.79 153.76 155.86 153.11C155.93 152.46 165 167.74 165 167.74Z" fill="#3A3B44"/>
<path d="M152.85 154.86C151.77 154.74 136.95 152.06 134.51 151.08C134.427 150.977 134.321 150.895 134.2 150.84C133.81 149.68 135.01 126.99 135.01 126.99L141.79 121.81L152.85 154.86Z" fill="#7DD1F0"/>
<path d="M46.83 76.26L48.5101 76V76.06H48.3801L46.8201 76.25L46.83 76.26Z" fill="#662F8E"/>
</svg>
