<svg width="193" height="497" viewBox="0 0 193 497" fill="none" xmlns="http://www.w3.org/2000/svg">
<path d="M96.2899 43.76L82.8499 43.99C82.5499 43.99 77.6299 46.29 77.6299 46.29L75.1699 43.79L67.3599 43.52L68.6999 50.1L71.1999 56.82L75.4199 63.82H87.5999L98.2899 53.3L96.2899 43.76ZM83.1799 56.39C82.9299 56.3 77.3599 56.39 77.3599 56.39L75.7799 53.89H85.5899C85.5899 53.89 83.4299 56.47 83.1799 56.39ZM73.6499 51.33L75.3199 50.12C75.3199 50.12 84.4499 50.06 84.7699 50.12C85.0899 50.18 89.3699 51.41 89.3699 51.41L73.6499 51.33Z" fill="#C68650"/>
<path d="M72.4399 0.0700684L79.1299 1.94006L87.0799 0.0700684L102.56 4.15005L88.8799 7.57007L76.3799 6.87006L72.4399 0.0700684Z" fill="#3F383E"/>
<path d="M190.51 219.49V220H176.33L185.13 165.81C185.13 165.81 190.78 188.16 191.23 188.81V188.95C191.74 191.59 190.51 219.49 190.51 219.49Z" fill="#3C6A4C"/>
<path d="M185.13 219.95L179.91 247.94L174.73 233.95L168.73 231.93L168.88 231.46L176.32 219.95H185.13Z" fill="#C58851"/>
<path d="M179.91 247.94L169.55 251.44L167.22 247.94L172.54 246.16V241.56L167.22 247.94L164.81 244.33L168.73 231.93L174.73 233.95L179.91 247.94Z" fill="#A66933"/>
<path d="M192.58 246.81L187.84 251.44H169.55L179.91 247.94L192.58 246.81Z" fill="#6F3E2A"/>
<path d="M190.51 219.95L192.58 246.81L179.91 247.94L185.13 219.95H190.51Z" fill="#A66933"/>
<path d="M166.39 103.21V103.29L152.85 121.8L137.32 114.52V98.72L155.9 82.39L156.24 82.44L166.39 103.21Z" fill="#26342D"/>
<path d="M155.9 82.39L137.32 98.72L115.33 86.9L130.49 78.28L130.72 78.38L155.9 82.39Z" fill="#5ECC6B"/>
<path d="M146.46 127.9C146.46 127.9 147.8 153.77 148.33 154.9C147.65 154.9 140.2 127.35 140.2 127.35L129.68 107.06L115.33 86.9L137.33 98.72V114.52L152.86 121.8L146.46 127.9Z" fill="#3C6A4C"/>
<path d="M105.7 67.15C100.64 69.32 83.6999 77.46 83.3999 77.24C83.0999 77.02 76.1299 71.76 72.3999 68.94L82.4599 72.6L104.07 62.14V66.41L105.7 67.15Z" fill="#996B4A"/>
<path d="M104.15 55.91V62.13L82.4999 72.6L72.4399 68.94L73.1299 63.2L74.9999 65.47H87.67L104.15 55.91Z" fill="#8A562C"/>
<path d="M104.21 46.07L104.78 45.46L104.21 46.07L104.15 55.91L87.6499 65.46L98.2899 53.26C98.2899 53.26 100.83 47.19 103.4 41.11C103.56 40.74 104.21 45.88 104.21 46.07Z" fill="#6A3F26"/>
<path d="M98.2899 53.2599L87.6499 65.4599H74.9999L73.1299 63.19L70.9999 57.08L68.7299 50.2599L66.6599 43.45L68.0199 43.52L69.3599 50.1L71.8599 56.82L75.4399 63.82H87.5999L98.2899 53.2599Z" fill="#9C6636"/>
<path d="M110.5 29V39.31L104.21 46.12C104.21 45.93 103.56 40.79 103.4 41.12C106 35 108.56 29 108.65 29H110.5Z" fill="#A26938"/>
<path d="M107.88 13.58L106.69 28.42L97.3901 24.42L98.0101 14.09L93.5201 14.82L81.5201 18.4L68.4301 13.65L66.3401 25.26L67.5201 9.00002C67.5201 9.00002 78.8501 11.49 79.1101 11.49C79.3701 11.49 96.8001 9.85001 97.1801 9.73001C97.5601 9.61001 102.71 7.56002 103 7.27002L107.88 13.58Z" fill="#22201F"/>
<path d="M93.5199 14.84L90.8599 24C90.8599 24 79.3399 29.36 79.1499 29.49C78.9599 29.62 70.6299 25.02 70.2499 24.89C69.8699 24.76 68.3799 13.7 68.3799 13.7L80.9999 18.2299L93.5199 14.84Z" fill="#C68650"/>
<path d="M108.89 28.9499L102.74 31.0499L97.6399 32.5999L94.7799 29.0999L92.3799 26.1899L97.3899 24.4399L106.69 28.4299L106.65 28.8499L108.89 28.9499Z" fill="#5ECC6B"/>
<path d="M103.07 30.86C103.07 30.86 98.21 40.06 96.75 42.92C96.65 43.12 96.56 43.27 96.49 43.41C96.42 43.55 96.36 43.65 96.32 43.71L82.88 43.94C82.58 43.94 77.66 46.24 77.66 46.24L75.2 43.74L68.42 43.47L66.67 43.4L68.67 38.85L75.79 40.63L77.21 33.58L67.68 29.23L66 25.65L66.28 25.28L78.81 31.72L92.51 26.15L94.79 28.93L81 34L82.2 40.68C82.49 40.68 95.04 40.17 95.2 40.1C95.36 40.03 97.67 32.42 97.67 32.42L103.07 30.86Z" fill="#26342D"/>
<path d="M77.1999 33.63L75.7799 40.68L75.2299 33.96L67.6699 29.28L77.1999 33.63Z" fill="#5ECC6B"/>
<path d="M68.66 38.9L66.64 43.45L63.5 34.19V28.95L66.01 25.65L67.67 29.28L65.86 32.9L67.52 38.62L68.66 38.9Z" fill="#5ECC6B"/>
<path d="M94.7999 28.9299L84.2499 33.7599L82.1499 40.6799L80.95 33.9999L94.7999 28.9299Z" fill="#5ECC6B"/>
<path d="M108.89 29C108.64 29.37 106.14 35.24 103.65 41.14L103.54 41.4C101.31 46.65 98.98 51.85 98.41 53.05C98.41 53.05 98.41 53.2 98.34 53.24C98.3203 53.2784 98.2931 53.3124 98.26 53.34L96.26 43.79V43.74C96.3226 43.6435 96.3794 43.5433 96.43 43.44C96.5 43.3 96.59 43.15 96.69 42.95C98.22 40.1 103.01 30.89 103.01 30.89L108.52 29.09L108.82 28.98L108.89 29Z" fill="#3C6A4C"/>
<path d="M140.2 127.37L129.68 107.08L123.32 121.8C123.32 121.8 108.25 130.61 107.89 130.98C107.53 131.35 79.4699 125.36 79.4699 125.36L81.3199 101.65L89.7599 85.27L81.42 90.34C81.42 90.34 73.78 86.41 73.17 85.74L78.8499 102.74L74.9999 125.86L50.9099 132.39L37.6899 123.26L50.2099 139.13L67.2099 132.95L52.7999 146.47L55.1899 182.15C55.1899 182.15 65.1899 203.55 65.6499 203.86C66.1099 204.17 91.3299 203.86 91.3299 203.86L109.25 177.7L124 170.92C124 170.79 124 170.73 124 170.73L140.2 127.37ZM99.7299 186.6L96.4399 191.48L77.7999 193.71V134.4L101.21 145.45L97.5099 159.34L99.7299 186.6ZM84.64 133C84.64 133 110.14 137.72 110.84 137.55C111.54 137.38 132.05 121.06 132.69 120.55L112.92 145.44L84.64 133Z" fill="#26342D"/>
<path d="M132.69 120.56L112.92 145.45L84.6401 133C84.6401 133 110.14 137.72 110.84 137.55C111.54 137.38 132.05 121.06 132.69 120.56Z" fill="#3C6A4C"/>
<path d="M78.8501 102.72L75.0201 125.86L50.9301 132.39L37.7101 123.26L36.8401 106.23L52.4901 86.9L78.8501 102.72Z" fill="#5ECC6B"/>
<path d="M52.49 86.9L31.49 102.72L22.75 96.24L31.55 81.56L48.27 80.66L48.81 80.41C50.14 82.42 52.49 86.9 52.49 86.9Z" fill="#5ECC6B"/>
<path d="M25.68 122.77L25.73 122.63L22.79 96.24L31.53 102.72L37.71 123.26L25.68 122.77Z" fill="#26342D"/>
<path d="M53.9099 208L66.6799 234L65.4899 232.14L65.0099 231.37L64.7399 230.96L64.1599 230.04L63.5199 229.04L63.1699 228.5L62.0899 226.8L60.9199 224.95L60.0999 223.66L59.2599 222.34L58.8299 221.67L57.9999 220.36L56.6199 218.19L55.8099 216.9L54.9599 215.55C51.1699 209.55 47.9599 204.36 47.8499 204.1L51.9199 180.75C51.9199 180.75 48.0299 146.75 48.2499 143.12C47.3099 145.63 38.4999 163.12 37.7499 164.61L18.8999 155.2L38.7599 145.54L37.7099 123.35L50.2299 139.22L67.2299 133.04L52.8199 146.56L55.1999 182.24L53.9099 208Z" fill="#3C6A4C"/>
<path d="M18.8999 155.11L19.7199 184.67L8.94995 220.35L2.69995 216.79L11.95 166.44L18.8999 155.11Z" fill="#5ECC6B"/>
<path d="M37.7 164.63L36.2299 178.41L14.89 220.62L8.94995 220.35L19.7199 184.67L37.7 164.63Z" fill="#3C6A4C"/>
<path d="M13.8601 236.37L4.25012 249.89L0.890137 235.52L2.70013 216.79L8.95013 220.35L13.8601 236.37Z" fill="#A86A33"/>
<path d="M22.7 232.95L13.8599 236.37L8.94995 220.35L14.89 220.62L22.5699 232.59L22.7 232.95Z" fill="#C78953"/>
<path d="M26.1799 243.2L22.5699 245.91L13.8599 236.37L22.6999 232.95L26.1799 243.2Z" fill="#A66834"/>
<path d="M22.57 245.91L20.38 250.02L19.63 251.44L4.28 249.97L4.25 249.89L13.86 236.37L22.57 245.91Z" fill="#6D3D2E"/>
<path d="M126.55 195.43L101.21 218.64L91.13 234C90.62 233.3 113.44 200.49 112.92 200C112.4 199.51 109.31 177.78 109.31 177.78L124 170.92C124.24 173.11 126.47 194.03 126.47 194.92C126.487 195.091 126.514 195.262 126.55 195.43V195.43Z" fill="#3C6A4C"/>
<path d="M66.68 234L59.25 291.7L36.25 270.8L47.85 204C47.99 204.61 66.1 233 66.67 233.91L66.68 234Z" fill="#26342D"/>
<path d="M143.36 251.44L141.36 314.78C141.36 314.78 131.9 326.24 128.36 331.31C130.95 325.53 136.36 311.06 136.36 310.79C136.36 310.52 123 293.12 121.58 289.57C121.68 289.14 121.68 288.92 121.58 288.94C121.48 288.96 121.46 289.19 121.58 289.57C120.58 293.86 109.09 318.73 108.16 320.74L108.1 320.88C100.6 295.46 90.53 261.49 90.53 261.49L87.15 299.19C87.15 299.19 81.15 325.5 81.05 326.07L74.65 330.07L63.75 337C62.96 337.52 74.31 315.35 74.31 315.35L59.25 291.67L66.69 233.97C66.69 233.97 91.15 234.65 91.15 233.97L121.57 287.61L143.36 251.44Z" fill="#3C6A4C"/>
<path d="M59.25 291.65L49.44 326.29L36.23 270.75L59.25 291.65Z" fill="#3C6A4C"/>
<path d="M80.6001 349.33L65.6001 364.16L45.6001 339.84L48.9401 328L49.2101 327.06L49.4301 326.28L59.2501 291.63L74.3101 315.31C74.3101 315.31 63.0001 337.5 63.7501 337C64.5001 336.5 81.0001 326.07 81.0001 326.07C81.2701 325.39 80.6001 349.33 80.6001 349.33Z" fill="#B7C259"/>
<path d="M87.1401 387.48L65.6001 364.16L80.6001 349.33L87.1401 387.48Z" fill="#5ECC6B"/>
<path d="M87.1401 387.48L67.5001 459.96L65.6001 364.16L87.1401 387.48Z" fill="#26342D"/>
<path d="M49.7201 432.33C49.7201 432.33 49.8901 370.54 49.6601 369.87C49.4301 369.2 45.6001 340.52 45.6001 339.87L65.6001 364.19L67.5001 459.99L49.7201 432.33Z" fill="#3C6A4C"/>
<path d="M68.4 483.89L30.25 485.69C30.25 485.69 20.99 488.85 20.08 488.63C19.17 488.41 4.28003 486.15 4.28003 486.15L5.18002 480.5L24.92 481.35L43.13 482.14L60.52 478.31C60.52 478.31 67.94 476.4 68.17 476.46C68.3 480.61 68.4 483.89 68.4 483.89Z" fill="#26342D"/>
<path d="M68.17 476.46C67.94 476.4 60.52 478.31 60.52 478.31L51.8 456.31L49.72 432.09L67.5 459.72C67.62 459.73 68 469.37 68.17 476.46Z" fill="#26342D"/>
<path d="M60.52 478.31L43.13 482.37L24.92 481.58L14.23 476.46L41.46 465.7L60.52 478.31Z" fill="#3C6A4C"/>
<path d="M24.92 481.58L5.17993 480.5L14.2199 476.46H14.2299L24.92 481.58Z" fill="#5ECC6B"/>
<path d="M143.36 251.44L121.57 287.61C120.92 286.97 132.45 215.38 132.45 215.38C137.31 231.57 143.36 251.44 143.36 251.44Z" fill="#3C6A4C"/>
<path d="M141.33 314.78C141.33 314.78 131.87 326.24 128.33 331.31C130.92 325.53 136.33 311.06 136.33 310.79C136.33 310.52 123 293.12 121.58 289.57C120.58 294.04 108.09 320.88 108.09 320.88L123.86 338.73L126.99 361.33L144.49 344.12L141.33 314.78Z" fill="#B7C259"/>
<path d="M140 435.83L119.88 394.27C119.88 394.27 119.88 393.84 119.78 393.09C119.84 391.79 126.99 369.32 126.99 369.32L116 348.2C116 347.94 112.48 335.91 108.18 321.06L124 338.91L127 361.33L161.77 431.33L163.47 464L140 435.83Z" fill="#3C6A4C"/>
<path d="M127 369.27C127 369.27 119.85 391.74 119.79 393.04C119.18 385.83 116.05 348.81 116.05 348.2L127 369.27Z" fill="#5ECC6B"/>
<path d="M161.76 431.35L126.99 361.33L144.49 344.13L159.17 381.38L161.76 431.35Z" fill="#26342D"/>
<path d="M168.91 476.8L145.12 469.11L140.43 436.7L140 435.83L163.46 464.02L168.91 476.8Z" fill="#26342D"/>
<path d="M173.6 487.83L148.6 487.37C148.6 487.37 145.17 477.37 145.17 476.92V469.44L145.12 469.11L168.91 476.81L173.6 487.83Z" fill="#3C6A4C"/>
<path d="M175.19 491.57L161.19 496.09H148.78L142.91 488.86L145.17 477.34V476.92C145.17 477.34 148.6 487.37 148.6 487.37L173.6 487.83L175.19 491.57Z" fill="#26342D"/>
<path d="M185.13 165.76L168 154.58L152.85 121.8L166.39 103.29C166.39 104.39 166.63 117.7 166.85 118.29C167.07 118.88 173.39 133 173.39 133C173.39 133 176.33 153.1 176.33 152.41C176.33 151.72 185.13 165.76 185.13 165.76Z" fill="#3C6A4C"/>
<path d="M168 154.58C168 154.58 162.26 160.52 158.32 164.45C157.17 163.29 150.4 156.4 148.68 155.13C151.32 155.86 166.88 154.58 168 154.58Z" fill="#26342D"/>
<path d="M176.32 220L159.84 187L158.49 164.65L158.33 164.47C162.27 160.54 168.01 154.6 168.01 154.6L176.32 220Z" fill="#5ECC6B"/>
<path d="M185.13 165.76L176.32 219.95L168 154.58L185.13 165.76Z" fill="#26342D"/>
<path d="M113.68 70.7199L89.76 85.2699L81.42 90.3399C81.42 90.3399 73.78 86.4099 73.17 85.7399V85.64C73.43 85.47 69.78 78.0999 67.51 73.5699C67.73 73.3799 70.21 71.1399 71.56 69.8399C71.8656 69.5728 72.1529 69.2855 72.42 68.9799C76.11 71.7999 83.11 77.0899 83.42 77.2799C83.73 77.4699 99.03 68.62 104.1 66.45L113.68 70.7199Z" fill="#5ECC6B"/>
<path d="M78.85 102.72L52.49 86.9L73.14 85.64L73.17 85.74L78.85 102.72Z" fill="#3C6A4C"/>
<path d="M36.84 106.23L37.71 123.26L31.53 102.72L52.49 86.9L36.84 106.23Z" fill="#3C6A4C"/>
<path d="M38.7499 145.45L18.8999 155.11L21.2099 136.41L25.6799 122.77L37.7099 123.26L38.7499 145.45Z" fill="#5ECC6B"/>
<path d="M37.7499 164.52C37.7369 164.558 37.7202 164.595 37.6999 164.63L19.6999 184.63L18.8799 155.07L37.7499 164.52Z" fill="#26342D"/>
<path d="M20.3801 250.02L7.58008 247.52L12.0801 243.74L22.5701 245.91" fill="#A26B32"/>
<path d="M115.33 86.9L81.3201 101.65L89.7601 85.27L115.33 86.9Z" fill="#3C6A4C"/>
<path d="M129.68 107.08L123.32 121.8C123.32 121.8 108.25 130.61 107.89 130.98C107.53 131.35 79.47 125.36 79.47 125.36L81.32 101.65L115.32 86.9L129.68 107.08Z" fill="#5ECC6B"/>
<path d="M168 154.58C166.87 154.58 151.31 155.86 148.68 155.13C148.583 155.031 148.463 154.959 148.33 154.92C147.8 153.77 146.46 127.92 146.46 127.92L152.85 121.82L168 154.58Z" fill="#5ECC6B"/>
<path d="M172.54 241.56V246.16L167.22 247.94L172.54 241.56Z" fill="#6F3E2A"/>
<path d="M97.5001 159.34L99.7301 186.6L96.4401 191.48L77.8 193.71V134.4L101.21 145.45L97.5001 159.34Z" fill="#5ECC6B"/>
<path d="M121.57 287.61L91.1401 234L101.22 218.69L126.56 195.48C127.13 197.63 129.56 205.89 132.46 215.43C132.45 215.38 120.92 287 121.57 287.61Z" fill="#26342D"/>
<path d="M91.1299 234C91.1299 234.66 66.6699 234 66.6699 234L53.9099 208L55.2499 182.19C55.2499 182.19 65.2499 203.59 65.7099 203.9C66.1699 204.21 91.3899 203.9 91.3899 203.9L109.31 177.74C109.31 177.74 112.4 199.45 112.92 199.96C113.44 200.47 90.6199 233.25 91.1299 234Z" fill="#5ECC6B"/>
<path d="M98 14.11L97.38 24.44L92.51 26.15L78.81 31.72L66.28 25.28L68.37 13.67C68.37 13.67 69.87 24.74 70.24 24.86C70.61 24.98 78.95 29.5901 79.14 29.4601C79.33 29.3301 90.86 24 90.86 24L93.52 14.87L98 14.11Z" fill="#A46B32"/>
<path d="M89.3699 51.4099L86.7999 51.9899L74.9399 51.7099C74.9399 51.7099 73.6999 51.3299 73.6499 51.3299L75.3199 50.1199C75.3199 50.1199 84.4499 50.0599 84.7699 50.1199C85.0899 50.1799 89.3699 51.4099 89.3699 51.4099Z" fill="#8E5828"/>
<path d="M85.59 53.89C85.59 53.89 83.43 56.47 83.18 56.39C82.93 56.31 77.36 56.39 77.36 56.39L75.78 53.89H85.59Z" fill="#8E5828"/>
<path d="M97.6599 32.4199C97.6599 32.4199 95.3999 40.0299 95.1899 40.0999C94.9799 40.1699 82.4399 40.6799 82.1899 40.6799L84.2899 33.7599L94.8399 28.9299L97.6599 32.4199Z" fill="white" stroke="#221F1F" stroke-linejoin="round"/>
<path d="M75.7799 40.68L68.6599 38.9L67.5199 38.62L65.8599 32.9L67.6699 29.28L75.2299 33.96L75.7799 40.68Z" fill="white" stroke="#221F1F" stroke-linejoin="round"/>
<path d="M82.5 44.07L95.78 45.37L98.29 53.26L96.29 43.76L82.82 43.99" fill="#6A3F26"/>
<path d="M107.88 13.58L94.8 12.58L79.15 15.05L68.66 12.3L67.53 9.00003L69 6.40002L90.42 8.88004L102.58 4.15002L107.88 13.58Z" fill="#22201F"/>
<path d="M76.53 27.57C77.3048 28.0303 78.1025 28.4509 78.92 28.83C78.7052 27.1492 78.4048 25.4803 78.02 23.83C77.6215 23.4743 77.2567 23.0827 76.93 22.66L76.53 27.57Z" fill="#A36B33"/>
<path d="M79.45 28.81L80.95 26.17V28.01L79.45 28.81Z" fill="#A36B33"/>
<path d="M73.1399 85.64L52.4899 86.8999C52.4899 86.8999 50.1399 82.42 48.8599 80.39L65.6699 70.4799L72.3999 68.9299C72.1328 69.2355 71.8455 69.5228 71.5399 69.7899C70.1899 71.0899 67.7099 73.3299 67.4899 73.5199C69.7499 78.0999 73.3999 85.47 73.1399 85.64Z" fill="#26342D"/>
<path d="M52.4901 78.25L31.6001 81.54L52.4901 81.24V78.25Z" fill="#26342D"/>
<path d="M97.5 159.34L77.8 155.86L76.48 160.36L97.65 161.06L99.54 160L97.5 159.34Z" fill="#26342D"/>
<path d="M173.39 133L168.01 132.35L166.85 118.35C167.07 119 173.39 133 173.39 133Z" fill="#5ECC6B"/>
<path d="M53.91 208L66.68 234L65.49 232.14L65.01 231.37L64.74 230.96L64.16 230.04L63.52 229.04L63.17 228.5L62.09 226.8L60.92 224.95L60.1 223.66L59.26 222.34L58.83 221.67L58 220.36L56.62 218.19L55.81 216.9L54.96 215.55C51.17 209.55 47.96 204.36 47.85 204.1L51.92 180.75C51.92 180.75 48.03 146.75 48.25 143.12L37.71 123.35L50.23 139.22L67.23 133.04L52.82 146.56L55.2 182.24L53.91 208Z" fill="#3C6A4C"/>
<path d="M96.1601 191.51L90.0001 200.36L77.8101 201.3V193.71C77.8101 193.71 84.81 185.03 85.11 184.89C85.41 184.75 96.1601 191.51 96.1601 191.51Z" fill="#3C6A4C"/>
<path d="M102.56 4.15005V9.00006L79.05 13.6401L67.53 9.00006L69 6.40005C70.41 3.82006 72.39 0.230068 72.46 0.0700684C72.46 0.420068 79.82 4.98006 79.82 4.98006L83.82 2.46007L87.13 4.15005H102.56Z" fill="#22201F"/>
<path d="M97.9999 14.11C97.9999 14.11 102.29 11.8 102.25 11.96C102.21 12.12 100.63 25.83 100.63 25.83L97.3799 24.44L97.9999 14.11Z" fill="#3F383E"/>
<path d="M109.47 31.26V38.9L106.37 42.46L109.47 31.26Z" fill="#6A3F26"/>
<path d="M106.37 42.46L104.45 42.3L109.47 31.26L108.89 36.86L106.37 42.46Z" fill="#6A3F26"/>
<path d="M81.0001 17.6C81.0001 17.4 70.6001 9.80999 70.6001 9.80999C70.6001 9.80999 72.3001 0.809998 72.4901 1.11C72.6801 1.41 78.9701 8.83999 78.9701 8.83999L81.0001 17.6Z" fill="#3F383E"/>
<path d="M66.6401 43.45L75.0001 44.7C75.0001 44.7 77.8101 46.4499 77.6501 46.2899L75.1901 43.7899L66.6401 43.45Z" fill="#6A3F26"/>
<path d="M130.49 78.28L115.34 86.9L89.76 85.27L112.04 71.72L104.07 66.42L114.55 69.51L130.49 78.28Z" fill="#26342D"/>
<path d="M130.72 136.77C130.54 137.2 117.84 147.28 117.84 147.28L116.95 153.72L130.72 136.77Z" fill="#3C6A4C"/>
<path d="M130 144.07C129.87 144.51 118.93 157.35 118.93 157.35L118.6 162.85L130 144.07Z" fill="#3C6A4C"/>
<path d="M129.68 107.08L136.07 127.88L123.96 170.92L140.2 127.37L129.68 107.08Z" fill="#5ECC6B"/>
<path d="M75.12 142C75.47 142.88 74.41 154.75 74.41 154.75L62.79 155.5L65.24 144.27L75.12 142Z" fill="#5ECC6B"/>
<path d="M74.7501 167.32L74.4001 192.21L62.8901 188.5L64.8801 169.59L74.7501 167.32Z" fill="#5ECC6B"/>
<path d="M108.16 320.74L108.1 320.88C100.6 295.46 90.5299 261.49 90.5299 261.49L87.1499 299.19C87.1499 299.19 81.1499 325.5 81.0499 326.07L74.6499 330.07L81.0899 309.13L89.5099 258.13L82.0799 254.67L78.9199 245.87L85.6199 251.46H93.8299C93.8299 251.46 95.6799 260.07 96.1599 260.94C96.6399 261.81 107.25 316.08 108.16 320.74Z" fill="#26342D"/>
<path d="M41.46 465.7L51.8 456.32C51.8 456.32 61.09 479.13 60.53 478.54C59.97 477.95 41.46 465.7 41.46 465.7Z" fill="#5ECC6B"/>
<path d="M190.51 219.49V220H176.33L191.23 188.84V188.98C191.74 191.59 190.51 219.49 190.51 219.49Z" fill="#26342D"/>
<path d="M75.4199 63.78C75.5499 63.64 77.4199 60.5701 77.4199 60.5701L83.7299 60.29L87.6399 63.78L80.1799 64.78L75.4199 63.78Z" fill="#9C6636"/>
</svg>
