<svg width="193" height="497" viewBox="0 0 193 497" fill="none" xmlns="http://www.w3.org/2000/svg">
<path d="M96.31 43.79L82.86 44.0201C82.56 44.0201 77.65 46.3201 77.65 46.3201L75.19 43.8201L67.38 43.55C67.33 43.55 68.72 50.1301 68.72 50.1301L71.22 56.8501L75.44 63.8501H87.62L98.31 53.3201L96.31 43.79ZM83.2 56.42C82.95 56.34 77.37 56.42 77.37 56.42L75.8 53.92H85.61C85.61 53.92 83.44 56.5 83.2 56.42ZM73.66 51.36L75.34 50.15C75.34 50.15 84.47 50.09 84.79 50.15C85.11 50.21 89.38 51.45 89.38 51.45L73.66 51.36Z" fill="#A6662F"/>
<path d="M72.45 0.100098L79.1499 1.98009L87.0999 0.100098L102.58 4.18008L88.8999 7.6001L76.3999 6.90009L72.45 0.100098Z" fill="#3F383E"/>
<path d="M190.53 219.53V220H176.34L185.15 165.81C185.15 165.81 190.8 188.17 191.25 188.81V188.95V189C191.76 191.63 190.53 219.53 190.53 219.53Z" fill="#3C6A4C"/>
<path d="M185.15 219.98L179.93 247.98L174.75 233.98L168.75 231.96L168.89 231.49L176.34 219.98H185.15Z" fill="#A4682F"/>
<path d="M179.93 247.98L169.57 251.48L167.24 247.98L172.56 246.19V241.59L167.24 247.98L164.83 244.36L168.75 231.96L174.75 233.98L179.93 247.98Z" fill="#85491F"/>
<path d="M192.6 246.85L187.86 251.48H169.57L179.93 247.98L192.6 246.85Z" fill="#4B1D11"/>
<path d="M190.52 219.98L192.6 246.85L179.93 247.98L185.15 219.98H190.52Z" fill="#85491F"/>
<path d="M166.41 103.25V103.32L152.87 121.83L137.34 114.55V98.7499L155.92 82.4199L156.25 82.4699L166.41 103.25Z" fill="#26342D"/>
<path d="M155.92 82.4201L137.34 98.7501L115.35 86.9301L130.51 78.3101L130.74 78.4101L155.92 82.4201Z" fill="#5ECC6B"/>
<path d="M146.47 127.93C146.47 127.93 147.82 153.8 148.35 154.93C147.67 154.93 140.22 127.39 140.22 127.39L129.7 107.09L115.35 86.9099L137.35 98.7299V114.53L152.88 121.81L146.47 127.93Z" fill="#3C6A4C"/>
<path d="M105.72 67.1799C100.65 69.3499 83.7199 77.4899 83.4099 77.2699C83.0999 77.0499 76.1499 71.7899 72.4099 68.9699L82.4699 72.6299L104.08 62.1699V66.4499L105.72 67.1799Z" fill="#70411E"/>
<path d="M104.17 55.9399L104.12 62.1599L82.5099 72.6199L72.45 68.9999L73.1499 63.2599L75.0199 65.5299H87.6899L104.17 55.9399Z" fill="#622F13"/>
<path d="M104.23 46.0999L104.8 45.4899L104.23 46.0999L104.16 55.9399L87.6699 65.4899L98.3099 53.2899C98.3099 53.2899 100.85 47.2199 103.42 41.1399C103.57 40.7699 104.23 45.9099 104.23 46.0999Z" fill="#471E12"/>
<path d="M98.3099 53.29L87.6699 65.49H74.9999L73.1299 63.22L70.9999 57.11L68.7299 50.3L66.6599 43.48L68.0099 43.55L69.3599 50.13L71.8599 56.85L75.4399 63.85H87.6199L98.3099 53.29Z" fill="#78421B"/>
<path d="M110.51 29V39.3L104.23 46.11C104.23 45.92 103.57 40.78 103.42 41.11C105.99 35.03 108.58 28.96 108.67 28.96L110.51 29Z" fill="#70411E"/>
<path d="M107.89 13.6101L106.71 28.4601L97.4101 24.4601L98.0301 14.1301L93.5301 14.8601L81.5301 18.4401L68.4001 13.7001L66.3101 25.3101L67.5401 9.06007C67.5401 9.06007 78.8601 11.5501 79.1201 11.5501C79.3801 11.5501 96.8201 9.91007 97.2001 9.79007C97.5801 9.67007 102.72 7.62008 103.01 7.33008L107.89 13.6101Z" fill="#22201F"/>
<path d="M93.5299 14.8699L90.8799 24C90.8799 24 79.3599 29.36 79.1699 29.5C78.9799 29.64 70.6499 25.02 70.2699 24.89C69.8899 24.76 68.3999 13.7 68.3999 13.7L80.9999 18.2599L93.5299 14.8699Z" fill="#A6662F"/>
<path d="M108.91 28.99L102.76 31.09L97.6499 32.63L94.7899 29.14L92.3999 26.23L97.4099 24.47L106.71 28.46L106.67 28.89L108.91 28.99Z" fill="#5ECC6B"/>
<path d="M103.09 30.8901C103.09 30.8901 98.23 40.0901 96.77 42.9501L96.51 43.4401C96.42 43.5801 96.37 43.6901 96.34 43.7401L82.89 43.9701C82.59 43.9701 77.68 46.2701 77.68 46.2701L75.22 43.7701L68.44 43.5001L66.69 43.4301L68.69 38.8801L75.81 40.6601L77.23 33.6101L67.7 29.2701L66 25.6801L66.28 25.3101L78.8 31.7501L92.51 26.1801L94.79 28.9601L81 34.0001L82.2 40.6801C82.49 40.6801 95.04 40.1801 95.2 40.1001C95.36 40.0201 97.67 32.4301 97.67 32.4301L103.09 30.8901Z" fill="#26342D"/>
<path d="M77.2199 33.6601L75.7999 40.7101L75.2499 33.9901L67.6899 29.3201L77.2199 33.6601Z" fill="#5ECC6B"/>
<path d="M68.68 38.9299L66.66 43.4799L63.52 34.2299V28.9899L66.03 25.6799L67.69 29.3199L65.87 32.9299L67.54 38.6499L68.68 38.9299Z" fill="#5ECC6B"/>
<path d="M94.82 28.96L84.27 33.7899L82.17 40.71L80.97 34.03L94.82 28.96Z" fill="#5ECC6B"/>
<path d="M108.91 29C108.66 29.36 106.15 35.23 103.67 41.13C103.67 41.22 103.6 41.3 103.55 41.4C101.33 46.64 99 51.85 98.43 53.04C98.43 53.04 98.38 53.19 98.36 53.23C98.3434 53.2702 98.3156 53.3049 98.28 53.33L96.28 43.78V43.73C96.28 43.73 96.38 43.57 96.45 43.43L96.71 42.94C98.24 40.09 103.03 30.88 103.03 30.88L108.54 29.08L108.84 28.98L108.91 29Z" fill="#3C6A4C"/>
<path d="M140.22 127.41L129.7 107.11L123.34 121.83C123.34 121.83 108.27 130.64 107.9 131.01C107.53 131.38 79.4899 125.4 79.4899 125.4L81.3399 101.68L89.7699 85.3L81.4299 90.3701C81.4299 90.3701 73.7999 86.4401 73.1899 85.7701L78.8599 102.77L74.9999 125.89L50.8999 132.42L37.6899 123.29L50.2099 139.16L67.2099 132.98L52.8799 146.5L55.2599 182.18C55.2599 182.18 65.2599 203.58 65.7299 203.89C66.1999 204.2 91.4099 203.89 91.4099 203.89L109.32 177.73L124 171C124 170.87 124 170.81 124 170.81L140.22 127.41ZM99.7499 186.63L96.4599 191.51L77.8199 193.74V134.43L101.23 145.48L97.5199 159.38L99.7499 186.63ZM84.6599 133C84.6599 133 110.16 137.72 110.86 137.55C111.56 137.38 132.06 121.07 132.71 120.55L112.94 145.44L84.6599 133Z" fill="#26342D"/>
<path d="M132.71 120.59L112.94 145.48L84.6599 133C84.6599 133 110.16 137.72 110.86 137.55C111.56 137.38 132.06 121.1 132.71 120.59Z" fill="#3C6A4C"/>
<path d="M78.8699 102.75L75.0399 125.89L50.9399 132.42L37.7299 123.29L36.8599 106.26L52.5099 86.9299L78.8699 102.75Z" fill="#5ECC6B"/>
<path d="M52.51 86.9299L31.51 102.75L22.77 96.2699L31.57 81.5899L48.28 80.6899L48.83 80.4399C50.16 82.4499 52.51 86.9299 52.51 86.9299Z" fill="#5ECC6B"/>
<path d="M25.7001 122.81L25.7501 122.66L22.8101 96.27L31.55 102.75L37.7301 123.29L25.7001 122.81Z" fill="#26342D"/>
<path d="M53.9299 208L66.6899 234L65.5099 232.14L65.0299 231.38L64.7599 230.96L64.1799 230.04L63.5299 229.04L63.1899 228.5L62.0999 226.79L60.9299 224.94L60.1099 223.65L59.2799 222.33L58.8499 221.66L58.0199 220.35L56.6299 218.18L55.8299 216.89L54.9799 215.55C51.1799 209.55 47.9299 204.35 47.8699 204.09L51.9399 180.75C51.9399 180.75 48.0499 146.7 48.2599 143.11C47.3299 145.63 38.5099 163.11 37.7699 164.61L18.9199 155.2L38.7699 145.53L37.7699 123.34L50.2899 139.21L67.2899 133.03L52.8799 146.5L55.2699 182.18L53.9299 208Z" fill="#3C6A4C"/>
<path d="M18.92 155.15L19.74 184.71L8.96997 220.39L2.71997 216.82L11.97 166.47L18.92 155.15Z" fill="#5ECC6B"/>
<path d="M37.71 164.66L36.24 178.44L14.91 220.66L8.96997 220.39L19.74 184.71L37.71 164.66Z" fill="#3C6A4C"/>
<path d="M13.8799 236.4L4.2699 249.92L0.909912 235.55L2.71991 216.82L8.96991 220.39L13.8799 236.4Z" fill="#874A20"/>
<path d="M22.71 232.98L13.88 236.4L8.96997 220.39L14.91 220.66L22.59 232.62L22.71 232.98Z" fill="#A76931"/>
<path d="M26.1899 243.23L22.5899 245.94L13.8799 236.4L22.7099 232.98L26.1899 243.23Z" fill="#804A1F"/>
<path d="M22.59 245.94L20.4 250.06L19.65 251.48L4.29004 250L4.27002 249.92L13.88 236.4L22.59 245.94Z" fill="#471914"/>
<path d="M126.57 195.46L101.23 218.68L91.1499 234C90.6299 233.3 113.46 200.49 112.94 200C112.42 199.51 109.32 177.77 109.32 177.77L124 171C124.24 173.19 126.47 194.11 126.47 195C126.495 195.155 126.528 195.309 126.57 195.46V195.46Z" fill="#3C6A4C"/>
<path d="M66.7 234L59.26 291.7L36.26 270.8L47.89 204.07C48.03 204.68 66.14 233.07 66.71 233.98L66.7 234Z" fill="#26342D"/>
<path d="M143.38 251.48L141.38 314.81C141.38 314.81 131.92 326.28 128.38 331.34C130.97 325.56 136.38 311.09 136.38 310.82C136.38 310.55 123.14 293.15 121.69 289.6C121.78 289.18 121.78 288.95 121.69 288.97C121.6 288.99 121.57 289.22 121.69 289.6C120.69 293.89 109.2 318.76 108.26 320.77L108.2 320.91C100.71 295.5 90.64 261.53 90.64 261.53L87.25 299.23C87.25 299.23 81.2 325.53 81.15 326.1L74.76 330.1L63.77 337C62.97 337.53 74.33 315.36 74.33 315.36L59.27 291.67L66.7 234C66.7 234 91.16 234.68 91.16 234L121.59 287.64L143.38 251.48Z" fill="#3C6A4C"/>
<path d="M59.26 291.68L49.45 326.33L36.24 270.78L59.26 291.68Z" fill="#3C6A4C"/>
<path d="M80.6201 349.36L65.6201 364.19L45.6201 339.87L49.0001 328.05L49.2601 327.11L49.4901 326.33L59.3001 291.68L74.3701 315.37C74.3701 315.37 63.0001 337.54 63.7701 337C64.5401 336.46 81.0601 326.09 81.0601 326.09C81.2901 325.43 80.6201 349.36 80.6201 349.36Z" fill="#B7C259"/>
<path d="M87.1599 387.51L65.6099 364.19L80.6199 349.36L87.1599 387.51Z" fill="#5ECC6B"/>
<path d="M87.1599 387.51L67.5199 459.99L65.6099 364.19L87.1599 387.51Z" fill="#26342D"/>
<path d="M49.7301 432.36C49.7301 432.36 49.9101 370.58 49.6801 369.9C49.4501 369.22 45.6201 340.55 45.6201 339.9L65.6201 364.22L67.5301 460.02L49.7301 432.36Z" fill="#3C6A4C"/>
<path d="M68.42 483.92L30.27 485.73C30.27 485.73 21 488.89 20.1 488.66C19.2 488.43 4.29004 486.18 4.29004 486.18L5.19003 480.54L24.94 481.39L43.14 482.17L60.54 478.34C60.54 478.34 67.96 476.43 68.18 476.5C68.32 480.64 68.42 483.92 68.42 483.92Z" fill="#26342D"/>
<path d="M68.18 476.5C67.96 476.43 60.54 478.34 60.54 478.34L51.82 456.34L49.73 432.13L67.52 459.75C67.63 459.76 68 469.4 68.18 476.5Z" fill="#26342D"/>
<path d="M60.54 478.34L43.14 482.4L24.94 481.61L14.25 476.5L41.48 465.73L60.54 478.34Z" fill="#3C6A4C"/>
<path d="M24.9399 481.61L5.18994 480.54L14.2399 476.5H14.2499L24.9399 481.61Z" fill="#5ECC6B"/>
<path d="M143.38 251.48L121.59 287.64C120.94 287 132.47 215.41 132.47 215.41C137.33 231.61 143.38 251.48 143.38 251.48Z" fill="#3C6A4C"/>
<path d="M141.35 314.81C141.35 314.81 131.89 326.28 128.35 331.34C130.94 325.56 136.35 311.09 136.35 310.82C136.35 310.55 123.11 293.15 121.66 289.6C120.66 294.08 108.17 320.91 108.17 320.91L123.94 338.76L127 361.37L144.5 344.16L141.35 314.81Z" fill="#B7C259"/>
<path d="M140 435.86L119.9 394.29C119.9 394.29 119.9 393.86 119.8 393.11C119.86 391.8 127.01 369.33 127.01 369.33L116.06 348.26C116.06 348 112.53 335.97 108.24 321.12L124 338.94L127 361.37L161.77 431.37L163.46 464.04L140 435.86Z" fill="#3C6A4C"/>
<path d="M127 369.3C127 369.3 119.85 391.77 119.79 393.08C119.18 385.87 116.05 348.84 116.05 348.23L127 369.3Z" fill="#5ECC6B"/>
<path d="M161.78 431.38L127.01 361.37L144.51 344.16L159.19 381.41L161.78 431.38Z" fill="#26342D"/>
<path d="M168.92 476.84L145.14 469.14L140.44 436.73L140.02 435.86L163.48 464.05L168.92 476.84Z" fill="#26342D"/>
<path d="M173.62 487.86L148.62 487.4C148.62 487.4 145.19 477.4 145.19 476.95V469.47L145.14 469.14L168.92 476.84L173.62 487.86Z" fill="#3C6A4C"/>
<path d="M175.21 491.6L161.21 496.12H148.79L142.93 488.9L145.19 477.38V477C145.19 477.43 148.62 487.45 148.62 487.45L173.62 487.91L175.21 491.6Z" fill="#26342D"/>
<path d="M185.15 165.79L168 154.61L152.85 121.83L166.39 103.32C166.39 104.43 166.63 117.73 166.84 118.37C167.05 119.01 173.39 133.05 173.39 133.05C173.39 133.05 176.32 153.15 176.32 152.47C176.32 151.79 185.15 165.79 185.15 165.79Z" fill="#3C6A4C"/>
<path d="M168 154.61C168 154.61 162.26 160.56 158.33 164.48C157.18 163.32 150.41 156.43 148.69 155.16C151.33 155.9 166.89 154.61 168 154.61Z" fill="#26342D"/>
<path d="M176.34 220L159.86 187L158.51 164.64L158.35 164.46C162.28 160.54 168.02 154.59 168.02 154.59L176.34 220Z" fill="#5ECC6B"/>
<path d="M185.15 165.79L176.34 219.98L168.02 154.61L185.15 165.79Z" fill="#26342D"/>
<path d="M113.7 70.76L89.78 85.3L81.44 90.37C81.44 90.37 73.8 86.44 73.19 85.77V85.68C73.45 85.5 69.8 78.13 67.53 73.61C67.75 73.41 70.23 71.17 71.58 69.88C72.04 69.45 72.36 69.12 72.44 69.02C76.14 71.84 83.14 77.14 83.44 77.32C83.74 77.5 99.06 68.66 104.12 66.5L113.7 70.76Z" fill="#5ECC6B"/>
<path d="M78.87 102.75L52.51 86.9299L73.16 85.6799L73.19 85.7699L78.87 102.75Z" fill="#3C6A4C"/>
<path d="M36.86 106.26L37.7301 123.29L31.55 102.75L52.5101 86.9299L36.86 106.26Z" fill="#3C6A4C"/>
<path d="M38.7699 145.48L18.9199 155.15L21.2299 136.44L25.6999 122.81L37.7299 123.29L38.7699 145.48Z" fill="#5ECC6B"/>
<path d="M37.7701 164.56C37.756 164.597 37.7357 164.63 37.7101 164.66L19.7101 184.66L18.8901 155.1L37.7701 164.56Z" fill="#26342D"/>
<path d="M20.4001 250.06L7.6001 247.55L12.0901 243.77L22.5901 245.94" fill="#804A1F"/>
<path d="M115.35 86.9301L81.3401 101.68L89.7701 85.3L115.35 86.9301Z" fill="#3C6A4C"/>
<path d="M129.7 107.11L123.34 121.83C123.34 121.83 108.27 130.64 107.9 131.01C107.53 131.38 79.49 125.4 79.49 125.4L81.34 101.68L115.34 86.9299L129.7 107.11Z" fill="#5ECC6B"/>
<path d="M168 154.61C166.87 154.61 151.31 155.9 148.69 155.16C148.593 155.061 148.473 154.989 148.34 154.95C147.81 153.8 146.46 127.95 146.46 127.95L152.86 121.85L168 154.61Z" fill="#5ECC6B"/>
<path d="M172.56 241.59V246.19L167.24 247.98L172.56 241.59Z" fill="#4B1D11"/>
<path d="M97.5201 159.38L99.7501 186.63L96.4601 191.51L77.8201 193.74V134.43L101.23 145.48L97.5201 159.38Z" fill="#5ECC6B"/>
<path d="M121.59 287.64L91.1599 234L101.24 218.7L126.58 195.48C127.15 197.63 129.58 205.89 132.48 215.48C132.47 215.41 120.94 287 121.59 287.64Z" fill="#26342D"/>
<path d="M91.1499 234C91.1499 234.66 66.6899 234 66.6899 234L53.9299 208L55.2599 182.18C55.2599 182.18 65.2599 203.58 65.7299 203.89C66.1999 204.2 91.4099 203.89 91.4099 203.89L109.32 177.73C109.32 177.73 112.42 199.44 112.94 199.96C113.46 200.48 90.6299 233.28 91.1499 234Z" fill="#5ECC6B"/>
<path d="M98 14.14L97.38 24.47L92.51 26.1799L78.8 31.75L66.28 25.31L68.37 13.7C68.37 13.7 69.86 24.77 70.24 24.89C70.62 25.01 78.94 29.62 79.14 29.5C79.34 29.38 90.85 24 90.85 24L93.5 14.8699L98 14.14Z" fill="#83491F"/>
<path d="M89.3799 51.45L86.8099 52.02L74.9999 51.74C74.9999 51.74 73.76 51.36 73.7 51.36L75.3799 50.15C75.3799 50.15 84.5099 50.09 84.8299 50.15C85.1499 50.21 89.3799 51.45 89.3799 51.45Z" fill="#8E5828"/>
<path d="M85.61 53.9199C85.61 53.9199 83.4401 56.4999 83.2001 56.4199C82.9601 56.3399 77.3701 56.4199 77.3701 56.4199L75.8 53.9199H85.61Z" fill="#8E5828"/>
<path d="M97.68 32.46C97.68 32.46 95.42 40.06 95.21 40.13C95 40.2 82.46 40.71 82.21 40.71L84.31 33.79L94.82 29L97.68 32.46Z" fill="white" stroke="#221F1F" stroke-linejoin="round"/>
<path d="M75.8001 40.7101L68.6801 38.9301L67.5401 38.6501L65.8701 32.9301L67.6901 29.3201L75.2501 33.9901L75.8001 40.7101Z" fill="white" stroke="#221F1F" stroke-linejoin="round"/>
<path d="M82.52 44.1001L95.8 45.4L98.31 53.29L96.31 43.79L82.84 44.0201" fill="#6A3F26"/>
<path d="M107.9 13.6099L94.82 12.6099L79.17 15.0799L68.68 12.3299L67.54 9.0199L68.99 6.38989L90.42 8.86989L102.58 4.13989L107.9 13.6099Z" fill="#22201F"/>
<path d="M76.55 27.6C77.3226 28.0672 78.1205 28.4912 78.9401 28.8699C78.9401 28.8699 78.2201 23.9499 78.0401 23.8699C77.6392 23.5167 77.2741 23.1248 76.9501 22.7L76.55 27.6Z" fill="#A36B33"/>
<path d="M79.46 28.85L80.97 26.2V28.0399L79.46 28.85Z" fill="#A36B33"/>
<path d="M73.1601 85.68L52.5101 86.93C52.5101 86.93 50.1601 82.45 48.8701 80.42L65.6901 70.51L72.4201 68.96V69C72.3401 69.1 72.0201 69.43 71.5601 69.86C70.2101 71.15 67.7301 73.39 67.5101 73.59C69.7701 78.13 73.4201 85.5 73.1601 85.68Z" fill="#26342D"/>
<path d="M52.5099 78.28L31.6099 81.57L52.5099 81.27V78.28Z" fill="#26342D"/>
<path d="M97.52 159.38L77.82 155.9L76.5 160.39L97.66 161.1L99.55 160.03L97.52 159.38Z" fill="#26342D"/>
<path d="M173.41 133.05L168 132.4L166.84 118.4C167.09 119.06 173.41 133.05 173.41 133.05Z" fill="#5ECC6B"/>
<path d="M53.93 208L66.69 234L65.51 232.14L65.03 231.38L64.76 230.96L64.18 230.04L63.53 229.04L63.19 228.5L62.1 226.79L60.93 224.94L60.11 223.65L59.28 222.33L58.85 221.66L58.02 220.35L56.63 218.18L55.83 216.89L54.98 215.55C51.18 209.55 47.93 204.35 47.87 204.09L51.94 180.75C51.94 180.75 48.05 146.7 48.26 143.11L37.73 123.34L50.25 139.21L67.25 133.03L52.88 146.5L55.27 182.18L53.93 208Z" fill="#3C6A4C"/>
<path d="M96.1801 191.55L90.0001 200.39L77.8201 201.33V193.74C77.8201 193.74 84.8201 185.06 85.1201 184.93C85.4201 184.8 96.1801 191.55 96.1801 191.55Z" fill="#3C6A4C"/>
<path d="M102.58 4.18008V9.06009L79.06 13.7001L67.54 9.06009L68.99 6.43008C70.41 3.85008 72.39 0.270098 72.45 0.100098C72.45 0.450098 79.82 5.01009 79.82 5.01009L83.82 2.4901L87.13 4.18008H102.58Z" fill="#22201F"/>
<path d="M97.9999 14.1399C97.9999 14.1399 102.29 11.8299 102.25 11.9899C102.21 12.1499 100.62 25.8599 100.62 25.8599L97.3799 24.4699L97.9999 14.1399Z" fill="#3F383E"/>
<path d="M109.49 31.29V38.93L106.39 42.4901L109.49 31.29Z" fill="#5C3412"/>
<path d="M106.39 42.4901L104.47 42.33L109.49 31.29L108.91 36.89L106.39 42.4901Z" fill="#5C3412"/>
<path d="M81.0001 17.6299C81.0001 17.4299 70.6001 9.8399 70.6001 9.8399C70.6001 9.8399 72.3001 0.839905 72.4801 1.13991C72.6601 1.43991 78.9701 8.8699 78.9701 8.8699L81.0001 17.6299Z" fill="#3F383E"/>
<path d="M66.6599 43.48L74.9999 44.73C74.9999 44.73 77.8099 46.48 77.6499 46.32L75.1899 43.82L66.6599 43.48Z" fill="#6A3F26"/>
<path d="M130.51 78.3099L115.35 86.9299L89.78 85.2999L112.06 71.7499L104.09 66.45L114.57 69.5499L130.51 78.3099Z" fill="#26342D"/>
<path d="M130.74 136.8C130.56 137.23 117.86 147.32 117.86 147.32L116.97 153.75L130.74 136.8Z" fill="#3C6A4C"/>
<path d="M130 144.1C129.87 144.54 118.93 157.38 118.93 157.38L118.6 162.88L130 144.1Z" fill="#3C6A4C"/>
<path d="M129.7 107.11L136.09 127.91L123.98 170.95L140.22 127.4L129.7 107.11Z" fill="#5ECC6B"/>
<path d="M75.1301 142C75.4901 142.88 74.4301 154.75 74.4301 154.75L62.8101 155.5L65.2601 144.27L75.1301 142Z" fill="#5ECC6B"/>
<path d="M74.7699 167.35L74.4199 192.25L62.9099 188.53L64.8899 169.63L74.7699 167.35Z" fill="#5ECC6B"/>
<path d="M108.17 320.77L108.11 320.91C100.62 295.5 90.5499 261.53 90.5499 261.53L87.1599 299.23C87.1599 299.23 81.1099 325.53 81.0599 326.1L74.6699 330.1L81.0999 309.16L89.5299 258.16L82.0999 254.7L78.9399 245.9L85.6399 251.49H93.8499C93.8499 251.49 95.6999 260.1 96.1799 260.97C96.6599 261.84 107.26 316.11 108.17 320.77Z" fill="#26342D"/>
<path d="M41.48 465.73L51.82 456.35C51.82 456.35 61.11 479.16 60.55 478.57C59.99 477.98 41.48 465.73 41.48 465.73Z" fill="#5ECC6B"/>
<path d="M190.53 219.53V220H176.34L191.25 188.84V188.98V189C191.76 191.63 190.53 219.53 190.53 219.53Z" fill="#26342D"/>
<path d="M75.4399 63.8201C75.5699 63.6701 77.4399 60.6001 77.4399 60.6001L83.7499 60.3201L87.6599 63.8201L80.2 64.8201L75.4399 63.8201Z" fill="#78421B"/>
</svg>
