<svg width="192" height="489" viewBox="0 0 192 489" fill="none" xmlns="http://www.w3.org/2000/svg">
<path d="M88.2999 47.4301C89.2041 48.1183 89.8632 49.0789 90.1799 50.1701C90.2839 50.9308 90.1327 51.7045 89.7499 52.3701C89.3677 53.0286 88.9004 53.6338 88.3599 54.1701C85.5799 57.0801 81.9799 59.4301 77.9599 59.8701C77.2256 59.9826 76.4759 59.9383 75.7599 59.7401C74.9732 59.4588 74.2806 58.9636 73.7599 58.3101C73.3218 57.7917 72.9613 57.2123 72.6899 56.5901C72.5389 56.2166 72.3652 55.8526 72.1699 55.5001C71.5099 54.4501 70.1699 53.9301 69.5599 52.8701C69.0568 51.76 68.944 50.5124 69.2399 49.3301C69.2497 49.1773 69.2978 49.0294 69.3799 48.9001C69.4598 48.7937 69.5669 48.7108 69.6899 48.6601C72.2531 47.4307 75.0963 46.9028 77.9299 47.1301C80.754 47.355 83.5882 47.4251 86.4199 47.3401C87.3699 47.2601 88.5099 47.1701 89.1199 47.9001" fill="#C68651"/>
<path d="M95.1499 43.2L81.7699 43.43C81.4699 43.43 76.5799 45.69 76.5799 45.69L74.1299 43.23L64.1299 42.97L65.4699 49.44L67.9499 56.06L74.3799 62.91H86.4999L98.3999 52.63L95.1499 43.2ZM82.1499 55.63C81.8999 55.55 76.3599 55.63 76.3599 55.63L74.7899 53.17H84.5499C84.5499 53.17 82.3499 55.71 82.0999 55.63H82.1499ZM72.6699 50.63L74.3399 49.44C74.3399 49.44 83.4199 49.38 83.7399 49.44C84.0599 49.5 88.3099 50.72 88.3099 50.72L72.6699 50.63Z" fill="#C68650"/>
<path d="M71.25 0.209961L77.91 2.05995L85.82 0.209961L101.22 4.22995L87.61 7.58995L75.18 6.89995L71.25 0.209961Z" fill="#3E383E"/>
<path d="M188.69 216.14V216.59H173.59L185.75 162C185.75 162 191.02 185.19 191.47 185.85V186C192 188.6 188.69 216.14 188.69 216.14Z" fill="#5A5755"/>
<path d="M183.35 216.59L178.15 244.14L173 230.36L167.03 228.38L167.18 227.92L173.59 216.59H183.35Z" fill="#C58851"/>
<path d="M178.15 244.14L167.85 247.58L165.53 244.14L170.82 242.38V237.86L165.53 244.14L163.14 240.58L167.03 228.38L173 230.36L178.15 244.14Z" fill="#A66933"/>
<path d="M190.75 243.03L186.05 247.58H167.85L178.15 244.14L190.75 243.03Z" fill="#6F3E2A"/>
<path d="M188.69 216.59L190.75 243.03L178.15 244.14L183.35 216.59H188.69Z" fill="#A66933"/>
<path d="M167.29 99.3999V99.4699L151.24 120L135.79 112.84V97.2899L154.28 79.6299L154.61 79.6799L167.29 99.3999Z" fill="#29272C"/>
<path d="M154.28 79.6301L135.79 97.2901L113.92 85.6601L129 75.5801L129.23 75.6801L154.28 79.6301Z" fill="#C7C6C1"/>
<path d="M104.34 66.22C99.34 68.35 82.46 76.37 82.15 76.15C81.84 75.93 74.46 70.58 70.79 67.8L81.26 71.59L105 61.3L105.06 65.15L104.34 66.22Z" fill="#996B4A"/>
<path d="M104.38 55.1599L104.98 61.2899L81.26 71.5799L70.79 67.7899L71.94 62.3299L73.81 64.5599H86.41L104.38 55.1599Z" fill="#8A562C"/>
<path d="M102.85 45.4801L103.42 44.8801L102.85 45.4801L104.37 55.1601L86.3701 64.5601L98.2201 52.6301C99.1409 48.5275 100.416 44.5125 102.03 40.6301C102.21 40.2401 102.85 45.2901 102.85 45.4801Z" fill="#6A3F26"/>
<path d="M98.24 52.6299L86.39 64.5599H73.78L71.92 62.3299L67.57 56.3299L65.32 49.6299L63.26 42.9199L64.6 42.9899L65.94 49.4599L68.43 56.0799L74.22 62.9299H86.34L98.24 52.6299Z" fill="#9C6636"/>
<path d="M109.11 28.6301V38.7801L102.85 45.4801C102.85 45.2901 102.21 40.2401 102.05 40.5901C104.61 34.5901 107.18 28.5901 107.28 28.5901L109.11 28.6301Z" fill="#A26938"/>
<path d="M107.53 13.51L107.39 28.51L97.1001 24.16L97.7201 14L93.2501 14.72L80.2501 18.2401L67.2501 13.5701L65.1401 25L66.3701 9.00005C66.3701 9.00005 77.6301 11.45 77.8901 11.45C78.1501 11.45 95.4901 9.84005 95.8901 9.71005C96.2901 9.58005 101.38 7.58005 101.67 7.30005L107.53 13.51Z" fill="#22201F"/>
<path d="M93.25 14.7499L90.61 23.7499C90.61 23.7499 78.12 29.0199 77.93 29.1599C77.74 29.2999 69.46 24.7499 69.08 24.6299C68.7 24.5099 67.22 13.6299 67.22 13.6299L79.72 18.1099L93.25 14.7499Z" fill="#C68650"/>
<path d="M107.51 28.6299L101.4 30.6999L96.3201 32.2199L93.4701 28.7799L91.0901 25.9199L97.1001 24.1899L107.34 28.5399L107.51 28.6299Z" fill="#A1A0A0"/>
<path d="M101.72 30.5101C101.72 30.5101 96.89 39.5601 95.44 42.3801C95.33 42.5701 95.25 42.7201 95.18 42.8601C95.11 43.0001 95.04 43.1001 95.01 43.1501L81.64 43.3801C81.34 43.3801 76.45 45.6401 76.45 45.6401L74 43.2301L65 42.9701L63.26 42.9001L67.5 38.4201L74.58 40.1801L75.99 33.1801L66.51 29.0001L64.86 25.4201L65.14 25.0601L77.6 31.4001L91.23 25.9101L93.5 28.6501L79.72 33.6501L80.92 40.2301C81.2 40.2301 93.68 39.7301 93.92 39.6501C94.16 39.5701 96.37 32.1001 96.37 32.1001L101.72 30.5101Z" fill="#29272C"/>
<path d="M75.99 33.2299L74.58 40.1799L74.03 33.56L66.51 28.96L75.99 33.2299Z" fill="#29272C"/>
<path d="M67.5001 38.4199L63.2601 42.8999L62.3701 33.7899V28.6299L64.8601 25.3799L66.5101 28.9599L64.7101 32.5199L66.3701 38.1499L67.5001 38.4199Z" fill="#A1A0A0"/>
<path d="M93.5 28.6201L83.01 33.3701L80.92 40.1801L79.72 33.6001L93.5 28.6201Z" fill="#29272C"/>
<path d="M107.51 28.6301C107.27 28.9801 104.77 34.7601 102.3 40.5601L102.19 40.8301C99.9699 45.9901 98.9199 51.1901 98.3499 52.3601C98.3499 52.3601 98.3499 52.5201 98.2899 52.5601C98.2686 52.5977 98.2375 52.6287 98.2 52.6501L94.9299 43.1701V43.1201C94.9915 43.0264 95.0483 42.9296 95.0999 42.8301C95.1699 42.6901 95.2499 42.5401 95.3599 42.3501C96.8799 39.5401 101.64 30.4801 101.64 30.4801L107.12 28.7101L107.42 28.6101L107.51 28.6301Z" fill="#5A5755"/>
<path d="M98.3999 183.77L95.1299 188.57L76.5899 190.77V132.4L99.8799 143.28L96.1899 157L98.3999 183.77ZM83.3999 131.02C83.3999 131.02 108.77 135.67 109.46 135.5C110.15 135.33 130.55 119.28 131.19 118.78L111.53 143.28L83.3999 131.02ZM138.7 133.87L128.2 105.52L121.87 120C121.87 120 106.87 128.67 106.52 129C106.17 129.33 77.9399 125 77.9399 125L79.3399 99.1301L88.4799 84.04L80.1899 89.0401C80.1899 89.0401 72.5899 85.18 71.9899 84.51L77.7799 100L73.6699 125.28L49.8599 132.94L32.8599 121.83L49.1899 137.09L66.1199 131L51.7899 144.31L54.1599 179.42C54.1599 179.42 64.0899 200.48 64.5699 200.79C65.0499 201.1 90.1099 200.79 90.1099 200.79L107.93 175L125.93 167.68C125.93 167.56 125.93 167.5 125.93 167.5L126.46 166.08L138.7 133.87Z" fill="#40403E"/>
<path d="M131.18 118.78L111.52 143.28L83.3901 131C83.3901 131 108.76 135.65 109.45 135.48C110.14 135.31 130.54 119.28 131.18 118.78Z" fill="#29272C"/>
<path d="M77.7801 99.9699L73.6701 125.25L49.8501 132.91L32.8401 121.8L35.8401 104.68L49.8101 85.6599L77.7801 99.9699Z" fill="#A1A0A0"/>
<path d="M49.8099 85.66L30.5699 101.22L16.4199 94.85L30.5699 79.75L47.2499 79.52L47.7999 79.27C49.0699 81.25 49.8099 85.66 49.8099 85.66Z" fill="#C7C6C1"/>
<path d="M19.0899 121.03L19.1399 120.89L16.4199 94.8501L30.5699 101.22L32.8399 121.8L19.0899 121.03Z" fill="#40403E"/>
<path d="M52.83 204.8L65.52 230.34L64.35 228.52L63.87 227.76L63.6 227.36L63.02 226.45L62.38 225.45L62.04 224.92L61 223.25L59.83 221.43L59.02 220.16L58.19 218.86L57.76 218.2L56.94 216.92L55.56 214.78L54.75 213.51L53.91 212.19C50.14 206.29 40.28 201.47 40.21 201.19L49.29 178.62C49.29 178.62 47.02 144.41 47.23 140.87C46.94 141.64 45.91 143.8 44.6 146.47C44.51 147.04 43.1 155.16 42.96 155.47C42.82 155.78 37.53 162.07 37.53 162.07L14.53 151.74L37.77 143.25L32.86 121.77L49.19 137.03L66.12 131L51.79 144.31L54.16 179.42L52.83 204.8Z" fill="#5A5755"/>
<path d="M14.51 151.76L18.82 181.88L8.10001 216.99L0.5 213.48L6.35001 162.83L14.51 151.76Z" fill="#C7C6C1"/>
<path d="M37.4301 162.2L36.7101 175.89L14.9401 217.25L8.1001 216.99L18.8201 181.88L37.4301 162.2Z" fill="#5A5755"/>
<path d="M12.9901 232.75L3.43008 246.06L0.0800781 231.91L0.500092 213.48L8.1001 216.99L12.9901 232.75Z" fill="#A86A33"/>
<path d="M21.7801 229.39L12.9901 232.75L8.1001 216.99L14.9401 217.25L21.6501 229.03L21.7801 229.39Z" fill="#C78953"/>
<path d="M25.24 239.47L21.65 242.14L12.99 232.75L21.78 229.39L25.24 239.47Z" fill="#A66834"/>
<path d="M21.6499 242.14L19.4799 246.19L18.7299 247.58L3.44995 246.14L3.42993 246.06L12.9899 232.75L21.6499 242.14Z" fill="#6D3D2E"/>
<path d="M128.49 191.83L99.8799 215.31L89.8799 230.36C89.3599 229.68 112.07 197.36 111.55 196.88C111.03 196.4 107.95 175.02 107.95 175.02L125.95 167.7C126.19 169.87 128.41 190.45 128.41 191.3C128.426 191.478 128.453 191.655 128.49 191.83V191.83Z" fill="#5A5755"/>
<path d="M65.53 230.36L58.13 287.15L29.29 266.58L40.18 201.22C40.32 201.82 64.95 229.47 65.52 230.34L65.53 230.36Z" fill="#C7C6C1"/>
<path d="M145.48 249.54L139.78 309.91C139.78 309.91 130.37 321.19 126.83 326.18C129.4 320.49 134.75 306.25 134.75 305.98C134.75 305.71 121.58 288.6 120.14 285.1C120.23 284.68 120.23 284.46 120.14 284.48C120.05 284.5 120.01 284.72 120.14 285.1C119.14 289.32 101.96 315.93 101.04 317.91L101 318C93.5499 293 89.2799 257.43 89.2799 257.43L85.9099 294.53C85.9099 294.53 79.9099 320.42 79.8399 320.98L73.4899 324.98L62.6499 331.76C61.8499 332.28 73.1499 310.47 73.1499 310.47L58.1499 287.16L65.5499 230.37C65.5499 230.37 89.8799 231.05 89.8799 230.37L120.15 283.16L145.48 249.54Z" fill="#5A5755"/>
<path d="M58.13 287.15L42.39 321.24L29.29 266.58L58.13 287.15Z" fill="#5A5755"/>
<path d="M79.37 343.91L64.45 358.51L39.71 334.57L41.9 322.94L42.16 322.02L42.39 321.24L58.13 287.15L73.13 310.46C73.13 310.46 61.84 332.27 62.63 331.75C63.42 331.23 79.81 321 79.81 321C80 320.36 79.37 343.91 79.37 343.91Z" fill="#40403E"/>
<path d="M85.8799 381.46L64.45 358.51L79.3699 343.91L85.8799 381.46Z" fill="#C7C6C1"/>
<path d="M66.9999 452.3C66.9999 452.3 67.2199 450.76 67.6099 448.16L66.3399 452.78L64.4399 358.51L82.6899 402L66.9999 452.3Z" fill="#29272C"/>
<path d="M48.65 425.59C48.65 425.59 48.83 364.79 48.65 364.12C48.47 363.45 39.76 335.24 39.76 334.57L64.5 358.51L66.39 452.78L48.65 425.59Z" fill="#5A5755"/>
<path d="M67.2399 476.33L29.2899 478.1C29.2899 478.1 20.0799 481.21 19.1799 480.99C18.2799 480.77 3.44995 478.55 3.44995 478.55L4.34995 473L23.9899 473.83L42.0999 474.61L59.3999 470.83C59.3999 470.83 66.7799 469 66.9999 469C67.1399 473.1 67.2399 476.33 67.2399 476.33Z" fill="#40403E"/>
<path d="M66.9999 469C66.7799 468.94 59.3999 470.81 59.3999 470.81L50.7299 449.18L48.6499 425.35L66.3399 452.54C66.4599 452.56 66.7899 462 66.9999 469Z" fill="#40403E"/>
<path d="M59.3999 470.84L42.0999 474.83L23.9899 474.06L13.3599 469.02L40.4399 458.43L59.3999 470.84Z" fill="#C7C6C1"/>
<path d="M23.9901 474.06L4.3501 473L13.3501 469.02H13.3601L23.9901 474.06Z" fill="#29272C"/>
<path d="M145.47 249.54L120.13 283.17C119.48 282.54 137.21 210.7 137.21 210.7C142.05 226.63 145.47 249.54 145.47 249.54Z" fill="#40403E"/>
<path d="M139.78 309.91C139.78 309.91 130.37 321.19 126.78 326.18C129.36 320.49 134.71 306.25 134.71 305.98C134.71 305.71 121.54 288.6 120.1 285.1C119.11 289.51 101 318 101 318L122.43 333.44L125.54 355.68L142.95 338.75L139.78 309.91Z" fill="#40403E"/>
<path d="M138.46 429L115.79 388.1C115.79 388.1 115.79 387.68 115.69 386.94C115.75 385.66 125.51 363.54 125.51 363.54L111.4 345C111.4 344.74 106.54 332.95 101.1 318.23L122.53 333.66L125.53 355.72L160.12 424.62L161.81 456.78L138.46 429Z" fill="#5A5755"/>
<path d="M125.51 363.53C125.51 363.53 115.75 385.65 115.69 386.93C115.08 379.83 111.4 345.6 111.4 345L125.51 363.53Z" fill="#C7C6C1"/>
<path d="M160.1 424.62L125.51 355.72L142.92 338.79L157.52 375.45L160.1 424.62Z" fill="#29272C"/>
<path d="M167.21 469.36L143.55 461.78L138.88 429.89L138.46 429.03L161.79 456.78L167.21 469.36Z" fill="#40403E"/>
<path d="M171.88 480.2L147 479.76C147 479.76 143.59 469.89 143.59 469.47V462.11L143.54 461.78L167.2 469.36L171.88 480.2Z" fill="#C7C6C1"/>
<path d="M173.46 483.88L159.54 488.33H147.19L141.35 481.22L143.6 469.89V469.47C143.6 469.89 147.01 479.76 147.01 479.76L171.88 480.2L173.46 483.88Z" fill="#40403E"/>
<path d="M185.75 162L166.31 152.28L151.24 120L167.29 99.47C167.29 100.56 167.07 114.96 167.29 115.6C167.51 116.24 171.67 131 171.67 131C171.67 131 177.17 149.46 177.17 148.78C177.17 148.1 185.75 162 185.75 162Z" fill="#5A5755"/>
<path d="M166.31 152.26C166.31 152.26 158.17 159.76 154.25 163.62C153.11 162.48 144.18 154.78 142.47 153.52C145.07 154.25 165.19 152.26 166.31 152.26Z" fill="#40403E"/>
<path d="M173.59 216.59L156.69 184.43L154.41 163.79L154.25 163.62C158.17 159.76 166.31 152.26 166.31 152.26L173.59 216.59Z" fill="#C7C6C1"/>
<path d="M185.75 161.98L173.59 216.59L166.31 152.26L185.75 161.98Z" fill="#40403E"/>
<path d="M112.27 69.74L88.4799 84.06L80.1899 89.06C80.1899 89.06 72.5899 85.2 71.9799 84.53V84.44C72.2399 84.27 68.6099 77.02 66.3599 72.57C66.5699 72.38 70.6899 67.98 70.7699 67.87C74.4399 70.65 81.8699 76.04 82.1299 76.22C82.3899 76.4 99.9999 66.12 105 64L112.27 69.74Z" fill="#5A5755"/>
<path d="M77.7801 99.9699L49.8101 85.6599L71.9501 84.4199L71.9801 84.5099L77.7801 99.9699Z" fill="#C7C6C1"/>
<path d="M35.8401 104.68L32.8401 121.8L30.5701 101.22L49.8101 85.6599L35.8401 104.68Z" fill="#5A5755"/>
<path d="M37.7501 143.28L14.5101 151.76L14.3 133.14L19.0901 121.03L32.8401 121.8L37.7501 143.28Z" fill="#C7C6C1"/>
<path d="M37.48 162.1L37.43 162.2L18.82 181.88L14.51 151.77L37.48 162.1Z" fill="#40403E"/>
<path d="M19.48 246.19L6.73999 243.72L11.21 240L21.65 242.14" fill="#A26B32"/>
<path d="M113.92 85.6601L79.3401 99.1501L88.4801 84.0601L113.92 85.6601Z" fill="#C7C6C1"/>
<path d="M128.19 105.52L124.36 120.79C124.36 120.79 108.57 130.68 108.21 131.04C107.85 131.4 77.9399 125.04 77.9399 125.04L79.3399 99.17L113.92 85.6799L128.19 105.52Z" fill="#A1A0A0"/>
<path d="M166.31 152.26C165.19 152.26 145.07 154.26 142.47 153.52C142.369 153.429 142.25 153.36 142.12 153.32C141.59 152.19 144.89 126.01 144.89 126.01L151.25 120.01L166.31 152.26Z" fill="#A1A0A0"/>
<path d="M170.82 237.86V242.38L165.53 244.14L170.82 237.86Z" fill="#6E3B1A"/>
<path d="M120.13 283.17L89.8599 230.38L99.8599 215.33L128.47 191.85C129.04 193.97 133.63 201.49 137.19 210.72C137.21 210.7 119.48 282.54 120.13 283.17Z" fill="#C7C6C1"/>
<path d="M89.8501 230.36C89.8501 231.02 65.5201 230.36 65.5201 230.36L52.8201 204.82L54.1501 179.41C54.1501 179.41 64.0901 200.47 64.5601 200.78C65.0301 201.09 90.11 200.78 90.11 200.78L107.92 175C107.92 175 111.01 196.35 111.52 196.86C112.03 197.37 89.3301 229.68 89.8501 230.36Z" fill="#29272C"/>
<path d="M97.7201 14.0001L97.1001 24.1601L91.2301 25.8401L77.6001 31.3301L65.1401 25.0001L67.2201 13.5801C67.2201 13.5801 68.7001 24.4701 69.0801 24.5801C69.4601 24.6901 77.7401 29.2301 77.9301 29.1101C78.1201 28.9901 90.6101 23.7001 90.6101 23.7001L93.2501 14.7001L97.7201 14.0001Z" fill="#A46B32"/>
<path d="M86.42 50.74L83.87 51.3L72.07 51.03C72.07 51.03 70.84 50.65 70.79 50.65L72.46 49.46C72.46 49.46 81.53 49.4 81.85 49.46C82.17 49.52 86.42 50.74 86.42 50.74Z" fill="#8F5729"/>
<path d="M82.6699 53.1699C82.6699 53.1699 80.5099 55.7099 80.2699 55.6299C80.0299 55.5499 74.4699 55.6299 74.4699 55.6299L72.9099 53.1699H82.6699Z" fill="#8F5729"/>
<path d="M96.3401 32.0501C96.3401 32.0501 94.1001 39.5301 93.8901 39.6001C93.6801 39.6701 81.2001 40.1801 80.8901 40.1801L82.9801 33.3701L93.4701 28.6101L96.3401 32.0501Z" fill="#FFFDFD" stroke="#231F20" stroke-linejoin="round"/>
<path d="M74.58 40.1799L67.5 38.42L66.37 38.1499L64.71 32.52L66.51 28.96L74.03 33.56L74.58 40.1799Z" fill="#FFFDFD" stroke="#231F20" stroke-linejoin="round"/>
<path d="M81.27 43.5099L94.47 44.7899L98.24 52.63L95 43.2L81.6 43.4299" fill="#6A3F26"/>
<path d="M107.53 13.5099L94.5301 12.56L77.9301 15L67.5001 12.2899L66.3701 8.99995L67.8101 6.40996L89.1201 8.84996L101.22 4.19995L107.53 13.5099Z" fill="#22201F"/>
<path d="M75.3301 27.27C76.0982 27.733 76.8929 28.1503 77.7101 28.52C77.4929 26.8758 77.1925 25.2437 76.8101 23.63C76.4131 23.2832 76.0513 22.898 75.7301 22.48L75.3301 27.27Z" fill="#A46A33"/>
<path d="M78.22 28.4999L79.72 25.8899V27.7099L78.22 28.4999Z" fill="#A46A33"/>
<path d="M71.9999 84.42L49.8599 85.66C49.0647 83.1119 48.0613 80.6336 46.8599 78.25L64.0999 68.76L70.7699 67.76C70.6899 67.87 66.5699 72.27 66.3599 72.46C68.5799 77 72.2099 84.25 71.9999 84.42Z" fill="#40403E"/>
<path d="M50.8801 76.02L30.5701 79.73L51.4101 80.09L50.8801 76.02Z" fill="#40403E"/>
<path d="M171.67 131L166.31 130.36L167.31 115.56C167.52 116.27 171.67 131 171.67 131Z" fill="#40403E"/>
<path d="M65.4901 230.29L40.2201 201.24L40.1501 201.18L49.2301 178.61C49.2301 178.61 43.9601 145.43 44.1701 141.89L32.8401 121.8L49.1701 137.06L66.1201 131L51.7901 144.31L54.1601 179.42L52.8301 204.83L65.4601 230.26L65.4901 230.29Z" fill="#5A5755"/>
<path d="M96.1901 156.95L98.4101 183.77L95.1301 188.57L94.8501 188.61L88.7101 197.31L76.5901 198.24V132.4L99.8801 143.28L96.1901 156.95Z" fill="#A1A0A0"/>
<path d="M101.22 4.22993L102.22 9.02994L78.8301 13.5999L66.3701 8.99994L67.8101 6.40994C69.2201 3.86994 71.1901 0.339932 71.2501 0.179932C71.2501 0.529932 78.5801 5.00993 78.5801 5.00993L82.5201 2.53993L85.8201 4.19994L101.22 4.22993Z" fill="#22201F"/>
<path d="M97.7201 14.0001C97.7201 14.0001 101.99 11.7201 101.95 11.8801C101.91 12.0401 99.3001 25.0901 99.3001 25.0901L97.1001 24.1601L97.7201 14.0001Z" fill="#3E383E"/>
<path d="M108.09 30.9099V38.4199L105.01 41.9299L108.09 30.9099Z" fill="#6A3F26"/>
<path d="M105.01 41.9299L103.1 41.7699L108.09 30.9099L107.51 36.4199L105.01 41.9299Z" fill="#6A3F26"/>
<path d="M79.7201 17.46C79.7201 17.27 69.3701 9.80001 69.3701 9.80001C69.3701 9.80001 71.0601 0.980012 71.2501 1.24001C71.4401 1.50001 77.7101 8.84 77.7101 8.84L79.7201 17.46Z" fill="#3E383E"/>
<path d="M63.26 42.8999L73.78 44.1299C73.78 44.1299 76.58 45.8599 76.42 45.6899L74 43.2299L63.26 42.8999Z" fill="#6A3F26"/>
<path d="M129 75.58L113.92 85.66L88.48 84.06L110.65 70.72L105.02 63.99L113.21 67.02L129 75.58Z" fill="#40403E"/>
<path d="M129.22 134.74C129.05 135.16 116.42 145.08 116.42 145.08L115.53 151.41L129.22 134.74Z" fill="#29272C"/>
<path d="M128.49 141.92C128.36 142.35 117.49 154.98 117.49 154.98L117.16 160.4L128.49 141.92Z" fill="#29272C"/>
<path d="M126.75 165.28L125.92 167.7L126.43 166.1L126.75 165.28Z" fill="#A02889"/>
<path d="M74.9999 136.61C75.4199 137.71 74.1499 152.52 74.1499 152.52L60.1499 153.46L63.0999 139.46L74.9999 136.61Z" fill="#A1A0A0"/>
<path d="M73.5499 164.5L73.1299 190.18L59.3799 186.35L61.7499 166.84L73.5499 164.5Z" fill="#A1A0A0"/>
<path d="M101 317.91V318C93.52 293 90.1 263 90.1 263L85.88 294.61C85.88 294.61 79.88 320.5 79.81 321.06L73.46 325.06L79.86 304.46L88.23 254.29L80.51 252L77 245.31L82.78 249.39L90.1 249.1C90.1 249.1 94.36 256.1 94.83 256.96C95.3 257.82 100.13 313.32 101 317.91Z" fill="#29272C"/>
<path d="M40.4399 458.43L50.7299 449.2C50.7299 449.2 59.9599 471.64 59.4099 471.06C58.8599 470.48 40.4399 458.43 40.4399 458.43Z" fill="#29272C"/>
<path d="M188.69 216.14V216.59H173.59L191.47 185.83V185.98C192 188.6 188.69 216.14 188.69 216.14Z" fill="#A1A0A0"/>
<path d="M74.22 62.91C74.35 62.77 76.17 59.75 76.17 59.75L82.44 59.47L86.34 62.91L78.91 63.91L74.22 62.91Z" fill="#9C6636"/>
<path d="M140.02 132.4L135.79 147.81L125.92 167.7L126.75 165.28L126.43 166.1L133.49 142.48L134.35 127.77L128.2 105.52L138.66 125.49L140.02 132.4Z" fill="#29272C"/>
<path d="M85.89 381.46L82.6899 401.96L64.45 358.51L85.89 381.46Z" fill="#C7C6C1"/>
<path d="M144.88 126C144.88 126 141.58 152.18 142.11 153.31C141.43 153.31 138.16 124.52 138.16 124.52L125.1 108.79L113.92 85.6599L135.79 97.2899V112.84L151.24 120L144.88 126Z" fill="#5A5755"/>
<path d="M73.55 154.49V162.88L61.54 163.62L66.47 155.54L73.55 154.49Z" fill="#A1A0A0"/>
<path d="M103.72 146.85C103.72 146.85 99.96 155.63 100.41 156.08C100.86 156.53 105.68 170.39 105.68 170.39L107.29 156.08L103.72 146.85Z" fill="#29272C"/>
<path d="M96.19 156.95L76.59 153.52L75.28 157.94L96.33 158.64L98.21 157.6L96.19 156.95Z" fill="#5A5755"/>
<path d="M99.2999 171.14C99.6199 171.03 99.7199 175.02 99.7199 175.02L75.1099 167.7V163.08C75.1099 163.08 98.9999 171.24 99.2999 171.14Z" fill="#5A5755"/>
</svg>
