<svg width="192" height="489" viewBox="0 0 192 489" fill="none" xmlns="http://www.w3.org/2000/svg">
<path d="M88.4801 47.5601C89.3842 48.2463 90.0406 49.208 90.3501 50.3001C90.4526 51.0596 90.3052 51.8318 89.9301 52.5001C89.5452 53.1625 89.0745 53.7711 88.5301 54.3101C85.7501 57.2101 82.1601 59.5601 78.1301 60.0001C77.3996 60.1109 76.6541 60.07 75.9401 59.8801C75.1553 59.59 74.464 59.0923 73.9401 58.4401C73.5084 57.9169 73.1486 57.3385 72.8701 56.7201C72.7273 56.3429 72.5534 55.9783 72.3501 55.6301C71.6901 54.6301 70.3501 54.0601 69.7501 53.0001C69.2422 51.8948 69.1293 50.6487 69.4301 49.4701C69.4364 49.3149 69.481 49.1638 69.5601 49.0301C69.6499 48.934 69.7546 48.853 69.8701 48.7901C72.4371 47.5617 75.2833 47.0338 78.1201 47.2601C80.9408 47.4848 83.7717 47.5549 86.6001 47.4701C87.6001 47.3901 88.6901 47.3001 89.3001 48.0301" fill="#C68651"/>
<path d="M95.3201 43.3401L81.9501 43.5601C81.6501 43.5601 76.7601 45.8301 76.7601 45.8301L74.3101 43.3701L64.3101 43.1001L65.6501 49.5801L68.1301 56.1901L74.5601 63.0401H86.6801L98.58 52.7701L95.3201 43.3401ZM82.3201 55.7601C82.0701 55.6801 76.5201 55.7601 76.5201 55.7601L74.9601 53.3101H84.7201C84.7201 53.3101 82.5201 55.8501 82.2801 55.7601H82.3201ZM72.8401 50.7601L74.5101 49.5701C74.5101 49.5701 83.5801 49.5001 83.9001 49.5701C84.2201 49.6401 88.4701 50.8401 88.4701 50.8401L72.8401 50.7601Z" fill="#C68650"/>
<path d="M71.4299 0.339844L78.0899 2.18985L85.9999 0.339844L101.39 4.35985L87.7799 7.71985L75.3499 7.03984L71.4299 0.339844Z" fill="#3E383E"/>
<path d="M188.87 216.27V216.72H173.77L185.93 162.11C185.93 162.11 191.19 185.3 191.65 185.96V186.11C192.15 188.73 188.87 216.27 188.87 216.27Z" fill="#7C4B20"/>
<path d="M183.52 216.72L178.33 244.27L173.18 230.5L167.21 228.51L167.35 228.05L173.77 216.72H183.52Z" fill="#C38750"/>
<path d="M178.33 244.27L168.02 247.72L165.7 244.27L171 242.52V237.99L165.7 244.27L163.31 240.71L167.21 228.51L173.18 230.5L178.33 244.27Z" fill="#A56933"/>
<path d="M190.93 243.16L186.22 247.72H168.02L178.33 244.27L190.93 243.16Z" fill="#6F3E2A"/>
<path d="M188.87 216.72L190.93 243.16L178.33 244.27L183.52 216.72H188.87Z" fill="#A56933"/>
<path d="M167.47 99.5298V99.5998L151.41 120.14L136 113V97.4198L154.48 79.7598L154.81 79.8098L167.47 99.5298Z" fill="#EE4023"/>
<path d="M154.45 79.7599L135.96 97.42L114.1 85.79L129.18 75.71L129.4 75.81L154.45 79.7599Z" fill="#F8B517"/>
<path d="M104.52 66.3602C99.52 68.4902 82.64 76.5002 82.33 76.2902C82.02 76.0802 74.64 70.7102 70.96 67.9402L81.43 71.7202L105.16 61.4302L105.22 65.2802L104.52 66.3602Z" fill="#996B4A"/>
<path d="M104.55 55.29L105.16 61.42L81.43 71.7101L71 67.94L72.16 62.47L74.02 64.7H86.63L104.55 55.29Z" fill="#8A562C"/>
<path d="M103 45.6101L103.57 45.0101L103 45.6101L104.52 55.2901L86.52 64.6901L98.37 52.7701C99.29 48.6661 100.568 44.6507 102.19 40.7701C102.38 40.3701 103 45.4301 103 45.6101Z" fill="#6A3F26"/>
<path d="M98.4099 52.77L86.5599 64.69H73.9999L72.14 62.46L67.7899 56.46L65.5299 49.75L63.4299 43L64.7799 43.07L66.1199 49.55L68.5999 56.16L74.39 63.01H86.5099L98.4099 52.77Z" fill="#9C6636"/>
<path d="M109.29 28.77V38.91L103.03 45.61C103.03 45.43 102.38 40.37 102.23 40.73C104.78 34.73 107.36 28.73 107.45 28.73L109.29 28.77Z" fill="#A16938"/>
<path d="M107.71 13.6399L107.57 28.6399L97.28 24.2899L97.9 14.1299L93.43 14.8499L80.43 18.3699L67.43 13.6999L65.35 25.1199L66.57 9.11992C66.57 9.11992 77.84 11.5699 78.09 11.5699C78.34 11.5699 95.69 9.95992 96.09 9.83992C96.49 9.71992 101.59 7.69992 101.88 7.41992L107.71 13.6399Z" fill="#22201F"/>
<path d="M93.43 14.8798L90.79 23.8798C90.79 23.8798 78.29 29.1598 78.11 29.2898C77.93 29.4198 69.63 24.8798 69.25 24.7598C68.87 24.6398 67.4 13.7598 67.4 13.7598L79.9 18.2498L93.43 14.8798Z" fill="#C68650"/>
<path d="M107.69 28.7698L101.57 30.8298L96.49 32.3498L93.65 28.9198L91.27 26.0498L97.28 24.3198L107.52 28.6698L107.69 28.7698Z" fill="#EE4023"/>
<path d="M101.9 30.6399C101.9 30.6399 97.0599 39.6999 95.6099 42.5099C95.5099 42.6999 95.4299 42.8599 95.3499 42.9899L95.1899 43.2799V43.3399L81.8099 43.5599C81.5099 43.5599 76.6299 45.8299 76.6299 45.8299L74.1799 43.3699L65.1799 43.0999L63.4299 43.0299L67.6799 38.5499L74.7499 40.3099L76.17 33.3599L66.6899 29.0899L64.9999 25.5099L65.2799 25.1499L77.7299 31.4899L91.4099 25.9999L93.67 28.7499L79.8999 33.7499L81.0899 40.3299C81.3799 40.3299 93.8599 39.8299 94.0899 39.7599C94.3199 39.6899 96.5399 32.1999 96.5399 32.1999L101.9 30.6399Z" fill="#EE4023"/>
<path d="M76.17 33.3698L74.7499 40.3098L74.2099 33.6898L66.6899 29.0898L76.17 33.3698Z" fill="#EE4023"/>
<path d="M67.68 38.5498L63.43 43.0298L62.54 33.9298V28.7698L65.04 25.5098L66.69 29.0898L64.88 32.6498L66.54 38.2798L67.68 38.5498Z" fill="#EE4023"/>
<path d="M93.67 28.75L83.18 33.5L81.09 40.31L79.9 33.73L93.67 28.75Z" fill="#EE4023"/>
<path d="M107.69 28.77C107.44 29.12 104.95 34.9 102.48 40.71L102.36 40.97C100.15 46.13 99.1 51.33 98.53 52.51C98.53 52.51 98.53 52.66 98.46 52.7C98.4414 52.7363 98.4139 52.7673 98.38 52.79L95.11 43.32V43.27L95.27 42.97C95.35 42.84 95.43 42.68 95.53 42.49C97.06 39.69 101.82 30.62 101.82 30.62L107.3 28.85L107.6 28.75L107.69 28.77Z" fill="#EE4023"/>
<path d="M98.58 183.91L95.3 188.71L76.76 190.9V132.53L100.05 143.41L96.36 157.08L98.58 183.91ZM83.58 131.16C83.58 131.16 108.95 135.8 109.64 135.63C110.33 135.46 130.73 119.41 131.37 118.91L111.71 143.41L83.58 131.16ZM138.88 134L128.38 105.65L122.06 120.14C122.06 120.14 107.06 128.8 106.7 129.14C106.34 129.48 78.13 125.14 78.13 125.14L79.53 99.2702L88.67 84.1802L80.37 89.1802C80.37 89.1802 72.78 85.3202 72.17 84.6602L78 100.1L73.89 125.38L50 133.05L33 121.94L49.33 137.19L66.28 131.1L52 144.41L54.37 179.52C54.37 179.52 64.31 200.58 64.78 200.89C65.25 201.2 90.33 200.89 90.33 200.89L108.15 175.15L126.15 167.84C126.15 167.71 126.15 167.65 126.15 167.65L126.69 166.24L138.88 134Z" fill="#EE4023"/>
<path d="M131.36 118.91L111.7 143.41L83.5701 131.16C83.5701 131.16 108.94 135.8 109.63 135.63C110.32 135.46 130.72 119.41 131.36 118.91Z" fill="#7C4B20"/>
<path d="M77.96 100.11L73.85 125.38L50.03 133.04L33.01 121.94L36.02 104.81L49.99 85.79L77.96 100.11Z" fill="#F8B517"/>
<path d="M50 85.7902L30.75 101.36L16.6 95.0002L30.74 79.9002L47.43 79.6702L47.97 79.4302C49.25 81.3802 50 85.7902 50 85.7902Z" fill="#F8B517"/>
<path d="M19.27 121.17L19.32 121.02L16.6 94.98L30.74 101.36L33.01 121.94L19.27 121.17Z" fill="#EE4023"/>
<path d="M52.9999 204.93L65.6899 230.48L64.5199 228.65L64.0299 227.9L63.7599 227.49L63.1899 226.58L62.5499 225.58L62.2099 225.05L61.1299 223.37L59.9999 221.57L59.1899 220.29L58.3499 219L57.9299 218.33L57.1099 217.05L55.7299 214.91L54.92 213.64L54.0799 212.32C50.2999 206.43 40.4399 201.6 40.3799 201.32L49.4599 178.76C49.4599 178.76 47.1799 144.54 47.3999 141C47.1099 141.77 46.0799 143.93 44.7699 146.6C44.6799 147.17 43.2699 155.29 43.1199 155.6C42.9699 155.91 37.7 162.2 37.7 162.2L14.7 151.87L37.9399 143.38L32.9999 121.94L49.3299 137.19L66.2799 131.1L51.9999 144.41L54.3699 179.52L52.9999 204.93Z" fill="#7C4B20"/>
<path d="M14.6899 151.9L18.9999 182.01L8.27994 217.12L0.679932 213.61L6.51993 162.97L14.6899 151.9Z" fill="#F8B517"/>
<path d="M37.6 162.33L36.89 176.02L15.12 217.39L8.28003 217.12L19 182.01L37.6 162.33Z" fill="#7C4B20"/>
<path d="M13.16 232.88L3.60999 246.19L0.26001 232.05L0.679993 213.61L8.28 217.12L13.16 232.88Z" fill="#A86A32"/>
<path d="M21.95 229.52L13.16 232.88L8.28003 217.12L15.12 217.39L21.83 229.16L21.95 229.52Z" fill="#C58852"/>
<path d="M25.42 239.6L21.83 242.27L13.16 232.88L21.95 229.52L25.42 239.6Z" fill="#A16B31"/>
<path d="M21.83 242.27L19.65 246.32L18.9 247.72L3.63 246.27L3.60999 246.19L13.16 232.88L21.83 242.27Z" fill="#6E3D2F"/>
<path d="M128.67 192L100.05 215.48L90 230.5C89.48 229.81 112.18 197.5 111.67 197.02C111.16 196.54 108.07 175.15 108.07 175.15L126.07 167.84C126.31 170 128.52 190.58 128.52 191.43C128.555 191.624 128.605 191.814 128.67 192V192Z" fill="#7C4B20"/>
<path d="M65.71 230.5L58.31 287.28L29.46 266.71L40.35 201.35C40.5 201.95 65.13 229.6 65.7 230.48L65.71 230.5Z" fill="#F8B517"/>
<path d="M145.65 249.67L140 310C140 310 130.6 321.28 127.05 326.27C129.63 320.58 134.98 306.34 134.98 306.07C134.98 305.8 121.81 288.69 120.36 285.19C120.46 284.78 120.46 284.55 120.36 284.57C120.26 284.59 120.24 284.82 120.36 285.19C119.36 289.41 102.19 316.03 101.26 318L101.2 318.14C93.75 293.14 89.48 257.57 89.48 257.57L86.11 294.66C86.11 294.66 80.11 320.55 80.04 321.11C80.04 321.11 77.13 322.94 73.68 325.11C68.97 328.04 63.3 331.59 62.84 331.89C62.05 332.41 73.34 310.59 73.34 310.59L58.34 287.28L65.74 230.5C65.74 230.5 90.07 231.17 90.07 230.5L120.33 283.29L145.65 249.67Z" fill="#7C4B20"/>
<path d="M58.31 287.28L42.57 321.38L29.46 266.71L58.31 287.28Z" fill="#7C4B20"/>
<path d="M79.55 344L64.63 358.6L39.89 334.7L42.07 323.07L42.34 322.15L42.57 321.38L58.31 287.28L73.31 310.59C73.31 310.59 62.02 332.41 62.81 331.89C63.6 331.37 80 321.15 80 321.15C80.22 320.49 79.55 344 79.55 344Z" fill="#EE4023"/>
<path d="M86.06 381.59L64.63 358.64L79.55 344.04L86.06 381.59Z" fill="#F4831F"/>
<path d="M67.18 452.43C67.18 452.43 67.41 450.89 67.79 448.29L66.53 452.91L64.63 358.64L82.87 402.09L67.18 452.43Z" fill="#F4831F"/>
<path d="M48.83 425.72C48.83 425.72 49 364.92 48.78 364.26C48.56 363.6 39.89 335.37 39.89 334.7L64.63 358.64L66.52 452.91L48.83 425.72Z" fill="#7C4B20"/>
<path d="M67.42 476.46L29.47 478.24C29.47 478.24 20.25 481.35 19.36 481.12C18.47 480.89 3.63 478.68 3.63 478.68L4.53 473.13L24.17 473.96L42.27 474.74L59.58 471C59.58 471 66.95 469.12 67.18 469.18C67.31 473.23 67.42 476.46 67.42 476.46Z" fill="#7C4B20"/>
<path d="M67.18 469.15C66.95 469.09 59.58 470.97 59.58 470.97L50.91 449.33L48.83 425.5L66.52 452.69C66.63 452.69 67 462.17 67.18 469.15Z" fill="#EE4023"/>
<path d="M59.58 470.97L42.27 474.96L24.17 474.19L13.53 469.15L40.62 458.56L59.58 470.97Z" fill="#F4831F"/>
<path d="M24.17 474.19L4.53003 473.13L13.52 469.15H13.53L24.17 474.19Z" fill="#EE4023"/>
<path d="M145.65 249.67L120.3 283.31C119.65 282.67 137.39 210.83 137.39 210.83C142.22 226.77 145.65 249.67 145.65 249.67Z" fill="#EE4023"/>
<path d="M140 310C140 310 130.59 321.28 127.05 326.27C129.63 320.58 134.97 306.34 134.97 306.07C134.97 305.8 121.8 288.69 120.36 285.19C119.36 289.6 101.2 318.14 101.2 318.14L122.63 333.57L125.74 355.81L143.15 338.88L140 310Z" fill="#EE4023"/>
<path d="M138.63 429.17L116 388.25C116 388.25 116 387.84 115.9 387.09C115.96 385.81 125.72 363.69 125.72 363.69L111.6 345.16C111.6 344.9 106.74 333.11 101.3 318.39L122.73 333.82L125.73 355.88L160.31 424.78L162 456.91L138.63 429.17Z" fill="#7C4B20"/>
<path d="M125.69 363.66C125.69 363.66 115.93 385.78 115.87 387.06C115.26 379.97 111.57 345.73 111.57 345.13L125.69 363.66Z" fill="#F4831F"/>
<path d="M160.27 424.75L125.69 355.86L143.1 338.92L157.7 375.58L160.27 424.75Z" fill="#F4831F"/>
<path d="M167.38 469.49L143.73 461.91L139.06 430.02L138.63 429.17L161.96 456.91L167.38 469.49Z" fill="#EE4023"/>
<path d="M172.05 480.34L147.19 479.89C147.19 479.89 143.78 470.02 143.78 469.6V462.24L143.72 461.91L167.38 469.49L172.05 480.34Z" fill="#F8B517"/>
<path d="M173.64 484L159.72 488.44H147.36L141.53 481.34L143.78 470V469.58C143.78 470 147.19 479.87 147.19 479.87L172.05 480.32L173.64 484Z" fill="#7C4B20"/>
<path d="M185.93 162.11L166.49 152.39L151.41 120.14L167.47 99.6001C167.47 100.69 167.25 115.1 167.47 115.73C167.69 116.36 171.85 131.18 171.85 131.18C171.85 131.18 177.35 149.63 177.35 148.96C177.35 148.29 185.93 162.11 185.93 162.11Z" fill="#7C4B20"/>
<path d="M166.49 152.39C166.49 152.39 158.34 159.89 154.43 163.75C153.28 162.61 144.35 154.91 142.64 153.66C145.25 154.38 165.36 152.39 166.49 152.39Z" fill="#7C4B20"/>
<path d="M173.77 216.72L156.86 184.56L154.59 163.92L154.43 163.75C158.34 159.89 166.49 152.39 166.49 152.39L173.77 216.72Z" fill="#F4831F"/>
<path d="M185.93 162.11L173.77 216.72L166.49 152.39L185.93 162.11Z" fill="#EE4023"/>
<path d="M112.45 69.8702L88.66 84.1902L80.36 89.1902C80.36 89.1902 72.77 85.3302 72.16 84.6702V84.5702C72.42 84.4002 68.79 77.1502 66.53 72.7002C66.75 72.5002 70.87 68.1002 70.95 68.0002C74.63 70.7702 82.05 76.1602 82.32 76.3502C82.59 76.5402 100.15 66.3502 105.19 64.1802L112.45 69.8702Z" fill="#7C4B20"/>
<path d="M77.96 100.11L49.99 85.7898L72.13 84.5498L72.16 84.6498L77.96 100.11Z" fill="#F8B517"/>
<path d="M36.02 104.81L33.01 121.94L30.74 101.36L49.99 85.79L36.02 104.81Z" fill="#7C4B20"/>
<path d="M37.93 143.41L14.69 151.9L14.48 133.27L19.27 121.17L33.01 121.94L37.93 143.41Z" fill="#F8B517"/>
<path d="M37.6599 162.23L37.5999 162.33L18.9999 182L14.6899 151.89L37.6599 162.23Z" fill="#EE4023"/>
<path d="M19.65 246.32L6.92004 243.85L11.39 240.13L21.83 242.27" fill="#A16B31"/>
<path d="M114.1 85.7899L79.51 99.2799L88.66 84.1899L114.1 85.7899Z" fill="#F8B517"/>
<path d="M128.37 105.65L124.54 120.92C124.54 120.92 108.75 130.81 108.39 131.18C108.03 131.55 78.11 125.18 78.11 125.18L79.51 99.3098L114.1 85.8198L128.37 105.65Z" fill="#F8B517"/>
<path d="M166.49 152.39C165.36 152.39 145.25 154.39 142.64 153.66C142.47 153.52 142.36 153.45 142.29 153.45C141.77 152.32 145.06 126.14 145.06 126.14L151.42 120.14L166.49 152.39Z" fill="#F8B517"/>
<path d="M171 237.99V242.52L165.7 244.27L171 237.99Z" fill="#6E3C1A"/>
<path d="M120.3 283.31L90 230.52L100 215.46L128.67 192C129.23 194.12 133.83 201.64 137.39 210.87C137.39 210.83 119.65 282.67 120.3 283.31Z" fill="#F8B517"/>
<path d="M90 230.5C90 231.15 65.67 230.5 65.67 230.5L53 204.93L54.33 179.52C54.33 179.52 64.26 200.58 64.74 200.89C65.22 201.2 90.28 200.89 90.28 200.89L108.1 175.15C108.1 175.15 111.18 196.51 111.7 197.02C112.22 197.53 89.51 229.81 90 230.5Z" fill="#EE4023"/>
<path d="M97.9001 14.16L97.2801 24.32L91.4101 26L77.7701 31.49L65.3201 25.15L67.4001 13.73C67.4001 13.73 68.8801 24.62 69.2501 24.73C69.6201 24.84 77.91 29.38 78.11 29.26C78.31 29.14 90.7901 23.85 90.7901 23.85L93.4301 14.85L97.9001 14.16Z" fill="#A46B32"/>
<path d="M88.4301 50.8699L85.8801 51.4299L74.08 51.16C74.08 51.16 72.85 50.7899 72.8 50.7899L74.4701 49.6C74.4701 49.6 83.54 49.53 83.86 49.6C84.18 49.67 88.4301 50.8699 88.4301 50.8699Z" fill="#8F5729"/>
<path d="M84.68 53.3101C84.68 53.3101 82.52 55.8501 82.28 55.7601C82.04 55.6701 76.48 55.7601 76.48 55.7601L74.92 53.3101H84.68Z" fill="#8F5729"/>
<path d="M96.5201 32.18C96.5201 32.18 94.2701 39.67 94.0701 39.74C93.8701 39.81 81.3801 40.31 81.0701 40.31L83.1601 33.5L93.6501 28.75L96.5201 32.18Z" fill="#FFFDFD" stroke="#231F20" stroke-linejoin="round"/>
<path d="M74.75 40.3098L67.68 38.5499L66.54 38.2798L64.88 32.6498L66.69 29.0898L74.21 33.6898L74.75 40.3098Z" fill="#FFFDFD" stroke="#231F20" stroke-linejoin="round"/>
<path d="M81.4399 43.6398L94.6499 44.9198L98.4099 52.7699L95.1599 43.3398L81.7599 43.5598" fill="#6A3F26"/>
<path d="M107.71 13.6401L94.71 12.6901L78.11 15.1301L67.68 12.4101L66.54 9.1601L67.99 6.5701L89.3 9.00009L101.39 4.3501L107.71 13.6401Z" fill="#22201F"/>
<path d="M75.5 27.3999C76.2693 27.8608 77.0639 28.2781 77.88 28.6499C77.88 28.6499 77.16 23.8099 76.99 23.7599C76.5899 23.4131 76.2248 23.0279 75.9 22.6099L75.5 27.3999Z" fill="#A46A33"/>
<path d="M78.4 28.6298L79.9 26.0298V27.8398L78.4 28.6298Z" fill="#A46A33"/>
<path d="M72.13 84.5501L50 85.7901C49.2031 83.2427 48.1997 80.7645 47 78.3801L64.25 68.8901L70.92 67.8901C70.84 67.9901 66.72 72.3901 66.5 72.5901C68.76 77.1301 72.39 84.3801 72.13 84.5501Z" fill="#EE4023"/>
<path d="M51.06 76.1602L30.74 79.8602L51.59 80.2202L51.06 76.1602Z" fill="#EE4023"/>
<path d="M171.85 131.18L166.49 130.53L167.49 115.73C167.69 116.4 171.85 131.18 171.85 131.18Z" fill="#F8B517"/>
<path d="M65.67 230.43L40.39 201.37L40.33 201.31L49.41 178.75C49.41 178.75 44.13 145.56 44.35 142.02L33 121.94L49.33 137.19L66.28 131.1L52 144.41L54.37 179.52L53 204.93L65.63 230.36L65.67 230.43Z" fill="#7C4B20"/>
<path d="M96.37 157.08L98.58 183.9L95.31 188.71L95.03 188.74L88.89 197.44L76.77 198.37V132.53L100.06 143.41L96.37 157.08Z" fill="#F8B517"/>
<path d="M101.39 4.35985L102.39 9.15985L79 13.7298L66.51 9.15985L67.96 6.56985C69.37 4.02985 71.34 0.509844 71.4 0.339844C71.4 0.689844 78.72 5.17984 78.72 5.17984L82.67 2.69984L85.97 4.35985H101.39Z" fill="#22201F"/>
<path d="M97.9 14.1598C97.9 14.1598 102.17 11.8898 102.13 12.0398C102.09 12.1898 99.48 25.2498 99.48 25.2498L97.28 24.3198L97.9 14.1598Z" fill="#3E383E"/>
<path d="M108.26 31.04V38.56L105.18 42.06L108.26 31.04Z" fill="#6A3F26"/>
<path d="M105.18 42.06L103.28 41.9L108.26 31.04L107.69 36.55L105.18 42.06Z" fill="#6A3F26"/>
<path d="M79.9001 17.5899C79.9001 17.3999 69.55 9.92989 69.55 9.92989C69.55 9.92989 71.2401 1.1099 71.4301 1.3699C71.6201 1.6299 77.8801 8.9699 77.8801 8.9699L79.9001 17.5899Z" fill="#3E383E"/>
<path d="M63.4299 43L73.9999 44.26C73.9999 44.26 76.8 45.99 76.64 45.83L74.1899 43.37L63.4299 43Z" fill="#6A3F26"/>
<path d="M129.18 75.7101L114.1 85.7901L88.66 84.1901L110.82 70.8501L105.2 64.1201L113.39 67.1601L129.18 75.7101Z" fill="#EE4023"/>
<path d="M129.4 134.87C129.22 135.29 116.59 145.21 116.59 145.21L115.71 151.55L129.4 134.87Z" fill="#7C4B20"/>
<path d="M128.67 142.05C128.53 142.49 117.67 155.12 117.67 155.12L117.35 160.53L128.67 142.05Z" fill="#7C4B20"/>
<path d="M126.93 165.41L126.09 167.84L126.61 166.24L126.93 165.41Z" fill="#A02889"/>
<path d="M75.2 136.74C75.63 137.84 74.35 152.66 74.35 152.66L60.35 153.59L63.3 139.59L75.2 136.74Z" fill="#F8B517"/>
<path d="M73.7301 164.63L73.3101 190.31L59.5601 186.48L61.9301 166.97L73.7301 164.63Z" fill="#F8B517"/>
<path d="M101.21 318L101.15 318.14C93.7 293.14 90.28 263.05 90.28 263.05L86.06 294.66C86.06 294.66 80.06 320.55 79.99 321.11C79.99 321.11 77.08 322.94 73.63 325.11L80 304.5L88.38 254.33L80.65 252.09L77.17 245.44L82.94 249.53L90.27 249.23C90.27 249.23 94.52 256.23 95 257.1C95.48 257.97 100.31 313.46 101.21 318Z" fill="#F4831F"/>
<path d="M40.62 458.56L50.91 449.33C50.91 449.33 60.14 471.77 59.59 471.19C59.04 470.61 40.62 458.56 40.62 458.56Z" fill="#DC5526"/>
<path d="M188.87 216.27V216.72H173.77L191.65 186V186.15C192.15 188.73 188.87 216.27 188.87 216.27Z" fill="#F8B517"/>
<path d="M74.39 63.0001C74.53 62.8601 76.39 59.8401 76.39 59.8401L82.66 59.5601L86.55 63.0001L79.13 64.0001L74.39 63.0001Z" fill="#9C6636"/>
<path d="M140.19 132.53L135.97 147.94L126.09 167.84L126.93 165.41L126.61 166.24L133.66 142.61L134.53 127.9L128.38 105.65L138.83 125.62L140.19 132.53Z" fill="#F4831F"/>
<path d="M86.06 381.59L82.87 402.09L64.63 358.64L86.06 381.59Z" fill="#F4831F"/>
<path d="M145.05 126.14C145.05 126.14 141.76 152.32 142.28 153.45C141.6 153.45 138.33 124.66 138.33 124.66L125.27 108.92L114.1 85.79L136 97.42V113L151.44 120.17L145.05 126.14Z" fill="#7C4B20"/>
<path d="M73.73 154.62V163.01L61.71 163.75L66.64 155.67L73.73 154.62Z" fill="#F8B517"/>
<path d="M103.9 147C103.9 147 100.13 155.79 100.58 156.24C101.03 156.69 105.85 170.54 105.85 170.54L107.46 156.24L103.9 147Z" fill="#7C4B20"/>
<path d="M96.3599 157.08L76.7599 153.66L75.45 158.08L96.4999 158.77L98.3799 157.73L96.3599 157.08Z" fill="#EE4023"/>
<path d="M99.48 171.27C99.8 171.16 99.89 175.15 99.89 175.15L75.29 167.84V163.21C75.29 163.21 99.16 171.38 99.48 171.27Z" fill="#EE4023"/>
</svg>
