<svg width="193" height="497" viewBox="0 0 193 497" fill="none" xmlns="http://www.w3.org/2000/svg">
<path d="M96.2801 44.1399L82.8401 44.3699C82.5401 44.3699 77.6201 46.6699 77.6201 46.6699L75.1601 44.1699L67.3501 43.9099L68.7001 50.4799L71.1901 57.2099L75.4101 64.2099H87.5901L98.2801 53.6799L96.2801 44.1399ZM83.1701 56.7699C82.9201 56.6899 77.3501 56.7699 77.3501 56.7699L75.7701 54.2799H85.5801C85.5801 54.2799 83.4201 56.8599 83.1701 56.7699V56.7699ZM73.6401 51.7099L75.3201 50.4999C75.3201 50.4999 84.4401 50.4399 84.7601 50.4999C85.0801 50.5599 89.3601 51.7999 89.3601 51.7999L73.6401 51.7099Z" fill="#E4B17B"/>
<path d="M72.4299 0.459961L79.1199 2.32996L87.0699 0.459961L102.55 4.53995L88.8699 7.94995L76.3699 7.25995L72.4299 0.459961Z" fill="#3F383E"/>
<path d="M190.5 219.88V220.34H176.32L185.12 166.14C185.12 166.14 190.77 188.5 191.23 189.14V189.29C191.73 192 190.5 219.88 190.5 219.88Z" fill="#3A3B44"/>
<path d="M185.12 220.34L179.9 248.33L174.72 234.33L168.72 232.31L168.87 231.85L176.31 220.34H185.12Z" fill="#E4B37C"/>
<path d="M179.9 248.33L169.54 251.83L167.21 248.33L172.53 246.55V241.95L167.21 248.33L164.81 244.71L168.72 232.31L174.72 234.33L179.9 248.33Z" fill="#D1925E"/>
<path d="M192.57 247.2L187.84 251.83H169.54L179.9 248.33L192.57 247.2Z" fill="#9E6F5A"/>
<path d="M190.5 220.34L192.57 247.2L179.9 248.33L185.12 220.34H190.5Z" fill="#D1925E"/>
<path d="M166.38 103.6V103.67L152.84 122.19L137.31 114.9V99.1L155.9 82.78L156.23 82.83L166.38 103.6Z" fill="#689DD4"/>
<path d="M155.9 82.7799L137.31 99.0999L115.33 87.2799L130.48 78.6599L130.71 78.7699L155.9 82.7799Z" fill="#7DD1F0"/>
<path d="M146.45 128.29C146.45 128.29 147.79 154.16 148.32 155.29C147.64 155.29 140.19 127.74 140.19 127.74L129.67 107.44L115.33 87.26L137.33 99.08V114.88L152.86 122.17L146.45 128.29Z" fill="#3A3B44"/>
<path d="M105.69 67.54C100.63 69.7 83.6901 77.84 83.3901 77.63C83.0901 77.42 76.1301 72.15 72.3901 69.33L82.4901 73L104.1 62.53V66.81L105.69 67.54Z" fill="#D0A17F"/>
<path d="M104.14 56.3V62.51L82.4899 73L72.4299 69.34L73.1199 63.6001L74.9999 65.87H87.67L104.14 56.3Z" fill="#BB865E"/>
<path d="M104.2 46.45L104.77 45.84L104.2 46.45L104.14 56.3L87.6401 65.85L98.2801 53.64C98.2801 53.64 100.82 47.57 103.39 41.49C103.55 41.13 104.2 46.27 104.2 46.45Z" fill="#966C54"/>
<path d="M98.2799 53.6401L87.6399 65.8501H74.9999L73.1299 63.5801L70.9999 57.4701L68.7399 50.6501L66.6599 43.8301L68.0199 43.9101L69.3599 50.4801L71.8599 57.2101L75.4399 64.2101H87.6199L98.2799 53.6401Z" fill="#C7915D"/>
<path d="M110.49 29.34V39.65L104.2 46.45C104.2 46.27 103.55 41.13 103.39 41.45C105.96 35.37 108.55 29.3 108.64 29.3L110.49 29.34Z" fill="#D0A17F"/>
<path d="M107.87 14L106.69 28.84L97.38 24.84L98 14.5099L93.51 15.25L81.46 18.83L68.37 14.08L66.28 25.6799L67.51 9.43996C67.51 9.43996 78.84 11.92 79.1 11.92C79.36 11.92 96.79 10.29 97.18 10.16C97.57 10.03 102.7 7.99996 102.99 7.70996L107.87 14Z" fill="#22201F"/>
<path d="M93.5101 15.2301L90.8601 24.3601C90.8601 24.3601 79.3301 29.7201 79.1401 29.8501C78.9501 29.9801 70.6201 25.3701 70.2401 25.2501C69.8601 25.1301 68.3701 14.0601 68.3701 14.0601L80.9401 18.6201L93.5101 15.2301Z" fill="#E4B17B"/>
<path d="M108.88 29.3401L102.74 31.4401L97.6301 32.9801L94.7701 29.4901L92.3701 26.5801L97.3801 24.8201L106.69 28.8101L106.64 29.2401L108.88 29.3401Z" fill="#689DD4"/>
<path d="M103.06 31.2499C103.06 31.2499 98.2 40.4499 96.74 43.2999C96.64 43.4999 96.55 43.6599 96.48 43.7899L96.32 44.0899L82.88 44.3199C82.58 44.3199 77.66 46.6199 77.66 46.6199L75.2 44.1199L68.42 43.8599L66.67 43.7799L68.67 39.2299L75.79 41.0199L77.21 33.9599L67.68 29.6199L66 25.9999L66.28 25.6299L78.81 32.0799L92.51 26.4999L94.79 29.2899L80.94 34.3499L82.14 41.0399C82.43 41.0399 94.98 40.5299 95.19 40.4599C95.4 40.3899 97.65 32.7799 97.65 32.7799L103.06 31.2499Z" fill="#7DD1F0"/>
<path d="M77.1899 34.0099L75.7699 41.0699L75.2199 34.3399L67.6599 29.6699L77.1899 34.0099Z" fill="#689DD4"/>
<path d="M68.65 39.28L66.63 43.83L63.5 34.58V29.34L66 26.03L67.66 29.67L65.85 33.29L67.51 39L68.65 39.28Z" fill="#689DD4"/>
<path d="M94.7899 29.3201L84.2499 34.1501L82.14 41.0701L80.9399 34.3801L94.7899 29.3201Z" fill="#689DD4"/>
<path d="M108.88 29.3401C108.64 29.7001 106.13 35.5801 103.64 41.4701L103.53 41.7401C101.3 46.9801 98.97 52.1901 98.4 53.3801C98.4 53.3801 98.4 53.5401 98.34 53.5801C98.3159 53.6155 98.2854 53.646 98.25 53.6701L96.25 44.1201C96.3088 44.0231 96.3622 43.923 96.41 43.8201L96.67 43.3401C98.2 40.4901 102.99 31.2801 102.99 31.2801L108.5 29.4701L108.8 29.3701L108.88 29.3401Z" fill="#4B5680"/>
<path d="M140.19 127.76L129.67 107.46L123.31 122.19C123.31 122.19 108.24 131 107.88 131.37C107.52 131.74 79.4599 125.75 79.4599 125.75L81.3099 102L89.7499 85.6201L81.4099 90.6801C81.4099 90.6801 73.7699 86.7601 73.1599 86.0801L78.8399 103.08L74.9999 126.25L50.8999 132.77L37.6799 123.65L50.2 139.52L67.2 133.33L52.7899 146.85L55.17 182.53C55.17 182.53 65.1699 203.94 65.6299 204.25C66.0899 204.56 91.3099 204.25 91.3099 204.25L109.23 178.09L124 171.3C124 171.18 124 171.12 124 171.12L140.19 127.76ZM99.7199 187L96.4299 191.88L77.7899 194.1V134.78L101.21 145.84L97.4999 159.73L99.7199 187ZM84.6299 133.39C84.6299 133.39 110.14 138.12 110.83 137.94C111.52 137.76 132.04 121.46 132.68 120.94L112.91 145.84L84.6299 133.39Z" fill="#689DD4"/>
<path d="M132.68 120.94L112.91 145.84L84.6299 133.38C84.6299 133.38 110.14 138.11 110.83 137.93C111.52 137.75 132 121.45 132.68 120.94Z" fill="#6767AE"/>
<path d="M78.8401 103.1L75.0101 126.25L50.9201 132.77L37.7001 123.65L36.8301 106.62L52.4801 87.28L78.8401 103.1Z" fill="#7DD1F0"/>
<path d="M52.48 87.2801L31.48 103.1L22.74 96.6301L31.55 81.9501L48.26 81.05L48.81 80.8C50.13 82.81 52.48 87.2801 52.48 87.2801Z" fill="#7DD1F0"/>
<path d="M25.67 123.16L25.72 123.01L22.78 96.6299L31.52 103.1L37.7 123.65L25.67 123.16Z" fill="#689DD4"/>
<path d="M53.9001 208.35L66.6701 234.35L65.4901 232.5L65.0001 231.73L64.7301 231.32L64.1501 230.39L63.5101 229.39L63.1701 228.85L62.0801 227.14L60.9101 225.3L60.0901 224L59.2501 222.69L58.8201 222.01L58.0001 220.71L56.6101 218.53L55.8001 217.25L54.9501 215.9C51.1601 209.9 47.9001 204.7 47.8401 204.44L51.9101 181.1C51.9101 181.1 48.0201 147.1 48.2401 143.46C47.3001 145.98 38.4901 163.46 37.7401 164.96L18.8901 155.55L38.7501 145.89L37.7001 123.7L50.2301 139.57L67.2301 133.38L52.8201 146.9L55.2001 182.58L53.9001 208.35Z" fill="#3A3B44"/>
<path d="M18.89 155.5L19.7099 185.06L8.93994 220.74L2.68994 217.18L11.9399 166.83L18.89 155.5Z" fill="#7DD1F0"/>
<path d="M37.6899 165.01L36.2199 178.79L14.89 221.01L8.93994 220.74L19.7099 185.06L37.6899 165.01Z" fill="#3A3B44"/>
<path d="M13.8499 236.76L4.24988 250.28L0.879883 235.91L2.68988 217.18L8.93988 220.74L13.8499 236.76Z" fill="#D2935C"/>
<path d="M22.6899 233.34L13.8499 236.76L8.93994 220.74L14.89 221.01L22.5599 232.98L22.6899 233.34Z" fill="#E5B47E"/>
<path d="M26.1701 243.58L22.5601 246.3L13.8501 236.76L22.6901 233.34L26.1701 243.58Z" fill="#CF975D"/>
<path d="M22.56 246.3L20.38 250.41L19.62 251.83L4.26999 250.36L4.25 250.28L13.85 236.76L22.56 246.3Z" fill="#9E6F5A"/>
<path d="M126.55 195.81L101.21 219L91.1301 234.3C90.6101 233.61 113.43 200.8 112.91 200.3C112.39 199.8 109.3 178.08 109.3 178.08L124 171.3C124.23 173.5 126.46 194.42 126.46 195.3C126.478 195.472 126.508 195.642 126.55 195.81Z" fill="#6767AE"/>
<path d="M66.68 234.33L59.24 292L36.24 271.09L47.86 204.36C48.01 204.97 66.12 233.36 66.69 234.27L66.68 234.33Z" fill="#7DD1F0"/>
<path d="M143.35 251.83L141.35 315.16C141.35 315.16 131.89 326.63 128.35 331.7C130.94 325.92 136.35 311.44 136.35 311.17C136.35 310.9 123 293.51 121.57 290C121.67 289.57 121.67 289.34 121.57 289.36C121.47 289.38 121.45 289.61 121.57 290C120.57 294.28 109.08 319.16 108.15 321.17L108.09 321.3C100.6 295.89 90.53 261.92 90.53 261.92L87.14 299.62C87.14 299.62 81.09 325.92 81.04 326.49C81.04 326.49 78.1 328.35 74.64 330.49C69.91 333.49 64.2 337.08 63.75 337.38C62.95 337.91 74.3 315.74 74.3 315.74L59.24 292L66.68 234.29C66.68 234.29 91.14 234.98 91.14 234.29L121.56 288L143.35 251.83Z" fill="#3A3B44"/>
<path d="M59.24 292.04L49.43 326.68L36.22 271.13L59.24 292.04Z" fill="#3A3B44"/>
<path d="M80.5901 349.71L65.5901 364.55L45.5901 340.22L48.9301 328.4L49.2001 327.47L49.4301 326.68L59.2401 292L74.3001 315.68C74.3001 315.68 63.0001 337.89 63.7401 337.36C64.4801 336.83 81.0001 326.45 81.0001 326.45C81.2601 325.78 80.5901 349.71 80.5901 349.71Z" fill="#689DD4"/>
<path d="M87.1401 387.87L65.5901 364.55L80.5901 349.71L87.1401 387.87Z" fill="#6767AE"/>
<path d="M87.1401 387.87L67.4901 460.35L65.5901 364.55L87.1401 387.87Z" fill="#8193CA"/>
<path d="M49.7101 432.72C49.7101 432.72 49.8801 370.93 49.6501 370.26C49.4201 369.59 45.5901 340.91 45.5901 340.26L65.5901 364.59L67.4901 460.39L49.7101 432.72Z" fill="#3A3B44"/>
<path d="M68.4 484.28L30.24 486.08C30.24 486.08 21 489.24 20.08 489C19.16 488.76 4.27002 486.53 4.27002 486.53L5.17004 480.88L24.91 481.73L43.12 482.52L60.51 478.68C60.51 478.68 67.93 476.78 68.16 476.84C68.29 481 68.4 484.28 68.4 484.28Z" fill="#40403E"/>
<path d="M68.16 476.85C67.93 476.79 60.51 478.69 60.51 478.69L51.8 456.69L49.71 432.48L67.49 460.11C67.61 460.12 67.94 469.75 68.16 476.85Z" fill="#689DD4"/>
<path d="M60.51 478.69L43.12 482.75L24.91 481.97L14.22 476.85L41.45 466.09L60.51 478.69Z" fill="#7DD1F0"/>
<path d="M24.9099 481.97L5.16992 480.89L14.2099 476.85H14.2199L24.9099 481.97Z" fill="#6767AE"/>
<path d="M143.35 251.83L121.56 288C120.91 287.36 132.44 215.77 132.44 215.77C137.3 232 143.35 251.83 143.35 251.83Z" fill="#689DD4"/>
<path d="M141.32 315.16C141.32 315.16 131.86 326.63 128.32 331.7C130.91 325.92 136.32 311.44 136.32 311.17C136.32 310.9 123 293.51 121.57 290C120.57 294.47 108.08 321.3 108.08 321.3L123.85 339.15L127 361.72L144.5 344.51L141.32 315.16Z" fill="#689DD4"/>
<path d="M140 436.22L119.88 394.65C119.88 394.65 119.88 394.23 119.78 393.47C119.84 392.17 126.99 369.7 126.99 369.7L115.99 348.62C115.99 348.36 112.47 336.34 108.17 321.49L124 339.3L127 361.72L161.77 431.72L163.47 464.4L140 436.22Z" fill="#3A3B44"/>
<path d="M127 369.66C127 369.66 119.85 392.13 119.79 393.43C119.18 386.22 116.05 349.19 116.05 348.58L127 369.66Z" fill="#6767AE"/>
<path d="M161.75 431.73L126.98 361.72L144.48 344.51L159.16 381.77L161.75 431.73Z" fill="#8193CA"/>
<path d="M168.9 477.19L145.11 469.49L140.42 437.09L139.99 436.22L163.45 464.41L168.9 477.19Z" fill="#689DD4"/>
<path d="M173.59 488.21L148.59 487.76C148.59 487.76 145.16 477.76 145.16 477.31V469.83L145.11 469.49L168.9 477.19L173.59 488.21Z" fill="#7DD1F0"/>
<path d="M175.19 492L161.19 496.52H148.77L142.9 489.3L145.16 477.78V477.36C145.16 477.78 148.59 487.81 148.59 487.81L173.59 488.26L175.19 492Z" fill="#40403E"/>
<path d="M185.12 166.14L168 155L152.84 122.23L166.38 103.71C166.38 104.82 166.62 118.12 166.84 118.77C167.06 119.42 173.39 133.45 173.39 133.45C173.39 133.45 176.32 153.54 176.32 152.86C176.32 152.18 185.12 166.14 185.12 166.14Z" fill="#3A3B44"/>
<path d="M168 155C168 155 162.26 161 158.32 164.88C157.17 163.72 150.4 156.88 148.69 155.55C151.31 156.25 166.87 155 168 155Z" fill="#3A3B44"/>
<path d="M176.32 220.34L159.83 187.34L158.49 165L158.32 164.83C162.26 160.91 168 155 168 155L176.32 220.34Z" fill="#7DD1F0"/>
<path d="M185.12 166.14L176.31 220.34L168 154.96L185.12 166.14Z" fill="#689DD4"/>
<path d="M113.67 71.11L89.75 85.6601L81.41 90.7201C81.41 90.7201 73.77 86.8001 73.16 86.1201V86.0301C73.42 85.8501 69.77 78.4901 67.5 73.9601C67.71 73.7601 70.19 71.5201 71.55 70.2301C72 69.8101 72.32 69.4701 72.41 69.3701C76.11 72.1901 83.1 77.4801 83.41 77.6701C83.72 77.8601 99 69 104.07 66.8L113.67 71.11Z" fill="#6767AE"/>
<path d="M78.84 103.1L52.48 87.28L73.13 86.03L73.16 86.12L78.84 103.1Z" fill="#7DD1F0"/>
<path d="M36.83 106.62L37.7 123.65L31.52 103.1L52.48 87.28L36.83 106.62Z" fill="#3A3B44"/>
<path d="M38.7501 145.84L18.8901 155.5L21.2001 136.79L25.6701 123.16L37.7001 123.65L38.7501 145.84Z" fill="#7DD1F0"/>
<path d="M37.7401 164.91L37.6901 165.01L19.6901 185.06L18.8701 155.5L37.7401 164.91Z" fill="#689DD4"/>
<path d="M20.3801 250.41L7.57007 247.9L12.0701 244.12L22.5601 246.3" fill="#CF975D"/>
<path d="M115.33 87.2799L81.3101 102.04L89.7501 85.6599L115.33 87.2799Z" fill="#7DD1F0"/>
<path d="M129.67 107.46L123.31 122.19C123.31 122.19 108.24 131 107.88 131.37C107.52 131.74 79.46 125.75 79.46 125.75L81.31 102L115.31 87.24L129.67 107.46Z" fill="#7DD1F0"/>
<path d="M168 155C166.87 155 151.31 156.29 148.69 155.55C148.591 155.457 148.471 155.388 148.34 155.35C147.81 154.2 146.47 128.35 146.47 128.35L152.86 122.25L168 155Z" fill="#7DD1F0"/>
<path d="M172.53 241.95V246.55L167.21 248.33L172.53 241.95Z" fill="#966445"/>
<path d="M97.5 159.73L99.72 186.99L96.43 191.87L77.79 194.09V134.78L101.2 145.84L97.5 159.73Z" fill="#7DD1F0"/>
<path d="M121.56 288L91.1401 234.35L101.21 219L126.55 195.78C127.12 197.94 129.55 206.2 132.44 215.78C132.44 215.77 120.91 287.36 121.56 288Z" fill="#7DD1F0"/>
<path d="M91.1299 234.33C91.1299 235 66.6699 234.33 66.6699 234.33L53.8999 208.33L55.2399 182.51C55.2399 182.51 65.2399 203.92 65.6999 204.23C66.1599 204.54 91.3799 204.23 91.3799 204.23L109.3 178.07C109.3 178.07 112.39 199.77 112.91 200.29C113.43 200.81 90.6099 233.64 91.1299 234.33Z" fill="#689DD4"/>
<path d="M98 14.4901L97.38 24.8201L92.51 26.5301L78.81 32.1101L66.28 25.6601L68.37 14.0601C68.37 14.0601 69.87 25.1201 70.24 25.2501C70.61 25.3801 78.95 29.9701 79.14 29.8501C79.33 29.7301 90.86 24.3601 90.86 24.3601L93.51 15.2301L98 14.4901Z" fill="#D0965D"/>
<path d="M89.3601 51.8001L86.7901 52.3701L74.9301 52.1001C74.9301 52.1001 73.6901 51.7101 73.6401 51.7101L75.3201 50.5001C75.3201 50.5001 84.4401 50.4401 84.7601 50.5001C85.0801 50.5601 89.3601 51.8001 89.3601 51.8001Z" fill="#8E5828"/>
<path d="M85.58 54.28C85.58 54.28 83.42 56.86 83.17 56.77C82.92 56.68 77.35 56.77 77.35 56.77L75.77 54.28H85.58Z" fill="#8E5828"/>
<path d="M97.6501 32.8101C97.6501 32.8101 95.3901 40.4101 95.1901 40.4901C94.9901 40.5701 82.4301 41.0701 82.1401 41.0701L84.2501 34.1501L94.7901 29.3201L97.6501 32.8101Z" fill="white" stroke="#221F1F" stroke-linejoin="round"/>
<path d="M75.7701 41.0699L68.6501 39.2799L67.5101 38.9999L65.8501 33.2899L67.6601 29.6699L75.2201 34.3399L75.7701 41.0699Z" fill="white" stroke="#221F1F" stroke-linejoin="round"/>
<path d="M82.49 44.4499L95.77 45.7499L98.28 53.6399L96.28 44.1399L82.81 44.3699" fill="#6A3F26"/>
<path d="M107.87 14L94.79 13L79.14 15.48L68.66 12.72L67.52 9.42004L68.97 6.79004L90.39 9.26004L102.55 4.54004L107.87 14Z" fill="#22201F"/>
<path d="M76.53 28.0001C77.3014 28.4694 78.0994 28.8934 78.92 29.2701C78.7018 27.5891 78.398 25.9202 78.01 24.2701C77.6112 23.9111 77.2463 23.5161 76.92 23.0901L76.53 28.0001Z" fill="#A36B33"/>
<path d="M79.4399 29.2L80.9399 26.55V28.4L79.4399 29.2Z" fill="#A36B33"/>
<path d="M73.1301 86L52.4801 87.25C52.4801 87.25 50.1301 82.78 48.8501 80.75L65.6601 70.83L72.4001 69.29C72.3101 69.39 71.9901 69.73 71.5401 70.15C70.1801 71.44 67.7001 73.68 67.4901 73.88C69.7401 78.49 73.3901 85.85 73.1301 86Z" fill="#689DD4"/>
<path d="M52.4801 78.6299L31.5901 81.9299L52.4801 81.6199V78.6299Z" fill="#3A3B44"/>
<path d="M97.5 159.73L77.79 156.25L76.48 160.74L97.64 161.45L99.53 160.39L97.5 159.73Z" fill="#689DD4"/>
<path d="M173.39 133.41L168 132.75L166.84 118.75C167.07 119.41 173.39 133.41 173.39 133.41Z" fill="#689DD4"/>
<path d="M53.8999 208.35L66.67 234.35L65.4899 232.5L64.9999 231.73L64.7299 231.32L64.1499 230.39L63.5099 229.39L63.17 228.85L62.0799 227.14L60.9099 225.3L60.0899 224L59.2499 222.69L58.8199 222.01L57.9999 220.71L56.6099 218.53L55.7999 217.25L54.95 215.9C51.16 209.9 47.8999 204.7 47.8399 204.44L51.9099 181.1C51.9099 181.1 48.0199 147.1 48.2399 143.46L37.7 123.65L50.2299 139.52L67.2299 133.33L52.8199 146.85L55.2 182.53L53.8999 208.35Z" fill="#6767AE"/>
<path d="M102.55 4.53995V9.41995L79 14.06L67.48 9.41995L68.93 6.78995C70.35 4.20995 72.32 0.619961 72.39 0.459961C72.39 0.809961 79.75 5.36995 79.75 5.36995L83.75 2.84996L87.07 4.53995H102.55Z" fill="#22201F"/>
<path d="M97.9999 14.49C97.9999 14.49 102.29 12.19 102.25 12.34C102.21 12.49 100.63 26.21 100.63 26.21L97.3799 24.82L97.9999 14.49Z" fill="#3F383E"/>
<path d="M109.46 31.6499V39.2899L106.36 42.8399L109.46 31.6499Z" fill="#AB8569"/>
<path d="M106.36 42.8399L104.45 42.6899L109.46 31.6499L108.88 37.2499L106.36 42.8399Z" fill="#AB8569"/>
<path d="M80.94 18C80.94 17.81 70.54 10.22 70.54 10.22C70.54 10.22 72.24 1.22003 72.43 1.52003C72.62 1.82003 78.92 9.24003 78.92 9.24003L80.94 18Z" fill="#3F383E"/>
<path d="M66.6299 43.8301L74.9699 45.0801C74.9699 45.0801 77.7899 46.8401 77.6199 46.6701L75.1599 44.1701L66.6299 43.8301Z" fill="#6A3F26"/>
<path d="M130.48 78.6601L115.33 87.2801L89.75 85.6601L112.03 72.11L104.07 66.8L114.54 69.9001L130.48 78.6601Z" fill="#689DD4"/>
<path d="M130.71 137.16C130.53 137.58 117.83 147.67 117.83 147.67L116.94 154.11L130.71 137.16Z" fill="#6767AE"/>
<path d="M130 144.46C129.87 144.9 118.93 157.73 118.93 157.73L118.6 163.24L130 144.46Z" fill="#6767AE"/>
<path d="M129.68 107.46L136.06 128.26L123.96 171.3L140.19 127.76L129.68 107.46Z" fill="#29272C"/>
<path d="M75.11 142.39C75.46 143.27 74.4 155.13 74.4 155.13L62.78 155.88L65.23 144.66L75.11 142.39Z" fill="#7DD1F0"/>
<path d="M74.7399 167.71L74.3899 192.6L62.8799 188.89L64.8699 169.98L74.7399 167.71Z" fill="#7DD1F0"/>
<path d="M108.15 321.13L108.09 321.26C100.6 295.85 90.5301 261.88 90.5301 261.88L87.1401 299.58C87.1401 299.58 81.0901 325.88 81.0401 326.45C81.0401 326.45 78.1001 328.31 74.6401 330.45L81.0801 309.52L89.5001 258.52L82.0701 255.06L78.9101 246.27L85.6201 251.85H93.8201C93.8201 251.85 95.6701 260.46 96.1501 261.33C96.6301 262.2 107.24 316.47 108.15 321.13Z" fill="#6767AE"/>
<path d="M41.45 466.09L51.7999 456.7C51.7999 456.7 61.0799 479.51 60.5199 478.92C59.9599 478.33 41.45 466.09 41.45 466.09Z" fill="#6767AE"/>
<path d="M190.5 219.88V220.34H176.32L191.23 189.17V189.32C191.73 192 190.5 219.88 190.5 219.88Z" fill="#689DD4"/>
<path d="M75.4099 64.1699C75.5399 64.0199 77.4099 60.9499 77.4099 60.9499L83.7199 60.6699L87.6299 64.1699L80.1699 65.1699L75.4099 64.1699Z" fill="#C7915D"/>
</svg>
