<svg width="162" height="516" viewBox="0 0 162 516" fill="none" xmlns="http://www.w3.org/2000/svg">
<path d="M123.56 102.81L115.88 104.56L114.29 104.48L120.11 89.87L112.83 51L107.67 65.95L105.06 67.95V57L101.6 42.45L99.05 31.78L97.72 26.2L76 32.52L59.9 25.1L55.9 31.1C55.9 31.1 55.9 33.73 55.9 36.74C55.27 39.27 53.62 45.97 53.62 46.68C53.62 47.57 54.75 61.85 55.11 62.59C55.47 63.33 50.51 73.35 50.51 73.35L56.14 69.52L60.81 62.14L63.47 72.25L68.77 78.98L68.2 99.72L55.93 104L55.25 103.76L46.09 101L43.26 63L46.88 25.14L61.88 6.23003L80.33 0.77002L101.71 7.77002L116.09 32.56L119.03 53.7L117.76 56.76L123.45 86.29L123.56 102.81Z" fill="#FADD2F"/>
<path d="M53.5899 45.79L49.3599 61.05L48.2699 57.91L46.3599 65.76L51.1899 102.36C51.1899 102.36 60.3999 95.25 61.0399 94.36C61.6799 93.47 59.3899 69.69 59.3899 69.69L56.7299 54L53.5899 45.79Z" fill="#96702C"/>
<path d="M53.2699 71.45L54.2699 79.51L52.4699 84.02L51.1699 102.36C51.1699 102.36 62.3999 109.51 62.6999 109.36C62.9999 109.21 70.6999 106.14 70.8599 105.74C71.0199 105.34 74.8599 95.01 74.7399 93.4C74.6199 91.79 74.8699 77.82 74.2999 77.49C73.7299 77.16 67.5099 71.13 67.1099 70.83C66.7099 70.53 62.9999 62 62.9999 62L59.5199 59.88L53.2699 71.45Z" fill="#96702C"/>
<path d="M95.2901 79.2701L95.07 82.65L79 100L79.2901 121.43L69.29 126.26L45.41 116.92C45.41 116.92 45.09 113.92 45.41 113.49L55.31 103.79L55.99 104.03L70.7301 98.64L68.87 78.9901L63.57 72.26L60.91 62.15V61.89L59 57.3L58.3 54.79L61.13 57.97C61.13 57.97 73.86 62 74.32 62C74.78 62 78.32 66 78.32 66V72.7401L70.9 71.36L74.01 76.2101L78.32 77.6001V87.54H83.44L95.2901 79.2701Z" fill="#DB9058"/>
<path d="M76.0199 32.52L72.2499 34.04L71.8999 38.67L55.9299 31.05L59.92 25.1L76.0199 32.52Z" fill="#B6C158"/>
<path d="M99.05 31.78L83.88 38.69L82.53 39.3L81.91 34.72L76.02 32.52L97.73 26.2L99.05 31.78Z" fill="#B6C158"/>
<path d="M101.6 42.45L95.2901 39.3C95.2901 39.3 81.7201 48.05 81.2901 48.38C80.8601 48.71 83.8501 38.69 83.8501 38.69L99.0201 31.78L101.6 42.45Z" fill="#69BE6A"/>
<path d="M101.6 42.4599L95.2899 39.3099C95.2899 39.3099 81.7199 48.0499 81.2899 48.3799C80.8599 48.7099 83.8499 38.6899 83.8499 38.6899L82.4999 39.3099L77.2 47.5699L77.9999 53.4299L77.7999 62.6099L82.4999 61.6099L101.72 55.4399L105.03 57.0199L101.6 42.4599ZM78.5999 60.3499L79.8599 54.7399L82.2399 60.3499H78.5999ZM101.6 49.7099L93.2199 55.4199L82.5299 50.8399C83.1599 50.8399 96.0999 41.9899 96.0999 41.9899L101.6 46.5099V49.7099Z" fill="#26342E"/>
<path d="M74.35 62C73.88 62 61.07 58 61.07 58L58.23 54.83C57.35 51.59 55.9299 46.28 55.9599 45.41C55.9599 44.72 55.9599 40.47 55.9599 36.78V31.14L60.9599 41.43L61.14 42.08L61.32 42.67L57.39 47.27L64.4699 55.51L65.13 55.14L74.35 62Z" fill="#26342E"/>
<path d="M145.61 196L145.82 206.71L137.92 213.4L138.17 198.72V198.58L138.35 187.76V187.45L137.1 183.45L135.4 178.01L118.5 148.65V148.58L117.89 147.51L118.03 147.01L119.23 142.67L121.23 135.27C121.94 134.9 136.96 129.61 136.96 129.61L134 140.63L132.08 148L131.99 148.34C131.99 148.34 131.99 148.45 132.04 148.55V148.68C132.04 148.73 132.04 148.79 132.04 148.85C132.04 148.91 132.1 149.1 132.14 149.25L132.27 149.76C132.27 149.94 132.36 150.13 132.42 150.34C132.5 150.62 132.57 150.92 132.65 151.25V151.41C132.72 151.67 132.79 151.94 132.86 152.23C132.93 152.52 133.01 152.82 133.09 153.13C133.17 153.44 133.18 153.5 133.23 153.7C133.39 154.31 133.56 154.97 133.73 155.7C133.85 156.15 133.96 156.61 134.09 157.08C134.15 157.33 134.22 157.59 134.28 157.85C134.82 159.92 135.4 162.2 136.01 164.53C136.09 164.82 136.17 165.12 136.24 165.41L136.94 168.06C137.02 168.36 137.1 168.65 137.17 168.94C137.48 170.11 137.8 171.27 138.1 172.41C138.18 172.69 138.26 172.98 138.33 173.26L138.78 174.91C138.86 175.18 138.93 175.45 139 175.72C139.66 178.11 140.28 180.26 140.8 181.98C140.86 182.17 140.91 182.35 140.97 182.53C141.1 182.97 141.23 183.38 141.35 183.75C141.47 184.12 141.5 184.19 141.57 184.39L141.69 184.74C141.81 185.07 141.92 185.35 142 185.55C142.052 185.672 142.116 185.79 142.19 185.9C142.208 185.931 142.232 185.958 142.26 185.98C142.26 185.98 142.32 185.98 142.34 185.98C142.375 185.944 142.417 185.916 142.464 185.899C142.51 185.882 142.56 185.875 142.61 185.88C142.69 185.867 142.771 185.867 142.85 185.88L143.12 185.97H143.17L143.43 186.1C143.58 186.17 143.74 186.27 143.91 186.37C144.31 186.62 144.76 186.94 145.22 187.29C145.383 187.401 145.54 187.521 145.69 187.65C146.88 188.57 148.09 189.65 148.83 190.31C148.891 190.358 148.948 190.412 149 190.47L149.52 190.94L145.41 193.47V195.47L145.61 196Z" fill="#69BE6A"/>
<path d="M36.6599 137.05L35.3399 139.82L25.9999 159.41L26.1099 175.75L26.2299 194.38C25.5456 193.975 24.8414 193.604 24.1199 193.27C23.7099 193.1 23.3899 193 23.3499 193.12C23.2299 193.42 23.2999 199.05 23.3499 201.05V201.24L21.5599 200.12L16.7 197.12C16.7 197.12 17.26 188.96 17.7 182.12C18 177.48 18.2599 173.41 18.2599 172.78C18.2599 172.45 18.5699 170.52 19.0399 167.71C19.7699 163.47 20.8899 157.19 21.9599 151.29C22.1099 150.47 22.2499 149.66 22.3999 148.86C23.7499 141.44 24.8999 135.17 24.8999 135.17L28.3199 138.82L28.9899 139.54C31.3174 138.252 33.8764 137.436 36.5199 137.14L36.6599 137.05Z" fill="#DB9058"/>
<path d="M158.17 196.11L147.17 205.5L145.83 206.65L145.61 196V195.5V193.5L149.72 190.97L149.2 190.5C149.148 190.442 149.091 190.388 149.03 190.34C148.29 189.67 147.03 188.6 145.89 187.68C145.74 187.551 145.583 187.431 145.42 187.32C144.96 186.97 144.51 186.65 144.11 186.4C143.94 186.3 143.78 186.2 143.63 186.13L143.37 186H143.32L143.05 185.91C142.97 185.897 142.889 185.897 142.81 185.91C142.76 185.905 142.71 185.912 142.663 185.929C142.617 185.946 142.574 185.974 142.54 186.01C142.54 186.01 142.54 186.01 142.46 186.01C142.432 185.988 142.408 185.961 142.39 185.93C142.316 185.82 142.252 185.702 142.2 185.58C142.08 185.3 141.93 184.91 141.77 184.42C141.7 184.22 141.62 184.01 141.55 183.78C141.48 183.55 141.3 183 141.17 182.56C141.11 182.38 141.06 182.2 141 182.01C140.48 180.29 139.86 178.14 139.2 175.75C139.13 175.48 139.06 175.21 138.98 174.94L138.53 173.29C138.46 173.01 138.38 172.72 138.3 172.44C138 171.3 137.68 170.14 137.37 168.97C137.3 168.68 137.22 168.39 137.14 168.09L136.44 165.44C136.37 165.15 136.29 164.85 136.21 164.56C135.6 162.23 135.02 159.95 134.48 157.88C134.42 157.62 134.35 157.36 134.29 157.11C134.16 156.64 134.05 156.18 133.93 155.73C133.76 155.05 133.59 154.39 133.43 153.73C133.38 153.53 133.34 153.34 133.29 153.16C133.13 152.54 132.98 151.96 132.85 151.44V151.28C132.77 150.95 132.7 150.65 132.62 150.37C132.56 150.16 132.51 149.97 132.47 149.79L132.34 149.28C132.34 149.13 132.27 148.99 132.24 148.88C132.21 148.77 132.24 148.76 132.24 148.71V148.58C132.24 148.48 132.24 148.4 132.19 148.37L132.28 148.03L134.22 140.71L137.16 129.61L138.49 133.26L145.94 153.64L146.1 154.08L149.58 163.58L156.51 182.58L157.8 192.02L158.17 196.11Z" fill="#EFB180"/>
<path d="M107.67 109.88C107.67 109.88 109.11 111.97 110.92 115L71.79 127.23L69.23 126.23L79.23 121.4L79 99.9999L95.12 82.6899L94.6 98.9999L114.29 104.49L115.88 104.57L107.67 109.88Z" fill="#EFB180"/>
<path d="M36.4701 137.45L35.3401 139.82L35.7201 138.24L36.5401 137.1L36.5901 137.02C36.5443 136.95 36.5164 136.87 36.5089 136.786C36.5014 136.703 36.5145 136.619 36.5471 136.542C36.5798 136.465 36.6308 136.397 36.6959 136.344C36.7609 136.292 36.8379 136.256 36.9201 136.24H37.0001H37.0801H37.2301L36.6101 137.11C36.6101 137.11 36.6101 137.11 36.6101 137.18L36.4301 137.57L36.4701 137.45Z" fill="#EFB180"/>
<path d="M36.73 160.41L37.21 161.34V161.41L36.68 166.41V166.52L34.35 188.61L30.84 205L28.29 203.73L23.36 201.28V201.09C23.36 200.7 23.36 200.17 23.36 199.57C23.36 197.66 23.36 195.03 23.36 193.82C23.36 193.66 23.36 193.53 23.36 193.42C23.36 193.31 23.36 193.3 23.36 193.25C23.3579 193.22 23.3579 193.19 23.36 193.16C23.36 193.04 23.72 193.16 24.13 193.31L24.35 193.41L24.58 193.52L24.82 193.64C25.3 193.88 25.82 194.15 26.03 194.3L26.19 194.39H26.24L26.12 175.76L26 159.41L35.3 139.85L32.81 150.3L32.13 151.52C32.1498 151.565 32.1732 151.609 32.2 151.65L36.67 160.36C36.67 160.36 36.72 160.4 36.73 160.41Z" fill="#EFB180"/>
<path d="M76.21 51.0101L73.17 46.5301L61.78 42.0101H61.1L60.92 41.3601L55.96 31.0701L71.93 38.6901L75.22 44.2001L76.21 51.0101Z" fill="#69BE6A"/>
<path d="M82.5299 39.3L77.2299 47.56L75.1999 44.18L71.8999 38.67L72.2499 34.04L76.0199 32.52L81.9099 34.72L82.5299 39.3Z" fill="#26342E"/>
<path d="M120.11 89.87L114.3 104.48L92.54 98.99L95.07 82.66V82.65L95.29 79.27L98.96 72.79L105.06 57V67.94L107.67 65.94L112.83 50.99L120.11 89.87Z" fill="#96702C"/>
<path d="M105.06 57L98.9601 72.79L95.2901 79.27L83.4301 87.48H78.3V77.54L82.2601 76.96L86.4001 72.69L90.5301 67.94L86.4001 71.3L78.3 72.69V65.94L82.5301 61.59L101.75 55.41L105.06 57Z" fill="#EFB180"/>
<path d="M90.5299 67.9399L86.3999 72.6899L82.2699 76.9599L78.2999 77.5399L73.9899 76.1499L70.8799 71.2999L76.6299 74.2799L80.6999 73.8499L86.3999 71.2999L90.5299 67.9399Z" fill="#A86739"/>
<path d="M86.3999 71.3L80.6999 73.8501L76.6299 74.28L70.8799 71.3L78.2999 72.69L86.3999 71.3Z" fill="#9D5C27"/>
<path d="M82.2601 60.34H78.6201L79.8701 54.73L82.2601 60.34Z" fill="#3D6C45"/>
<path d="M82.53 61.59L78.3 65.94C78.3 65.94 74.78 61.94 74.3 61.94L65.04 55.03C67.04 53.89 73.22 50.49 73.64 50.49L61.75 42L73.15 46.51L76.15 51L75.15 44.19L77.15 47.57L77.94 53.43L77.75 62.62L82.53 61.59Z" fill="#3D6C45"/>
<path d="M60.8501 62.0899L56.1801 69.4699L50.55 73.2999C50.55 73.2999 55.5501 63.2999 55.1501 62.5399C54.7501 61.7799 53.6601 47.5399 53.6601 46.6299C53.6601 45.9199 55.3101 39.2199 55.9401 36.6899C55.9401 40.3699 55.9401 44.6199 55.9401 45.3199C56.5396 48.4933 57.3006 51.6341 58.2201 54.7299L58.9201 57.2399L60.83 61.8299L60.8501 62.0899Z" fill="#EFBB53"/>
<path d="M101.6 46.5V49.71L93.22 55.41L82.53 50.83C83.16 50.83 96.1 41.99 96.1 41.99L101.6 46.5Z" fill="white" stroke="#221F1F" stroke-linejoin="round"/>
<path d="M73.6601 50.51C73.2401 50.51 67.1001 53.91 65.0601 55.05L64.4101 55.41L57.3301 47.17L60.4301 42.17L60.8901 41.35L73.6601 50.51Z" fill="white" stroke="#221F1F" stroke-linejoin="round"/>
<path d="M128.2 266.72L116.55 354.17L102.46 355.57L77.3101 273.28C77.3101 273.28 88.0601 264.48 98.8201 255.82C101.09 253.99 103.37 252.16 105.54 250.43C105.23 258.14 103.54 292.61 103.54 292.61C103.54 292.61 116.24 320.78 116.6 320.21C116.96 319.64 127.77 268.33 128.2 266.72Z" fill="#26342E"/>
<path d="M47.5101 509.89L19.9201 511.46C19.9201 511.46 9.92006 512.67 9.12006 512.46C8.32006 512.25 0.320068 510.29 0.320068 510.29L1.09006 506.9L14.9501 507.61H15.4001L26.2101 508.3L40.08 505.12L40.6201 505H40.7801C41.1401 504.91 47.0101 503.34 47.1901 503.39C47.4301 507 47.5101 509.89 47.5101 509.89Z" fill="#26342E"/>
<path d="M26.14 508.19L40.1199 505.17L26.2499 508.35L15.4399 507.66L14.9899 507.64H14.9799L14.95 507.63L15.2499 507.64L26.14 508.19Z" fill="#181E4D"/>
<path d="M47.31 503.38C47.13 503.38 41.26 504.9 40.9 504.99L40.85 504.86V504.72L40.53 503.8C40.44 503.55 40.34 503.27 40.22 502.96C40.1 502.65 39.99 502.31 39.85 501.96L39.69 501.55C39.6367 501.39 39.5767 501.22 39.51 501.04L38.75 499.04C38.67 498.82 38.58 498.61 38.5 498.39C38.21 497.63 37.91 496.84 37.6 496.05C37.43 495.6 37.27 495.16 37.09 494.71C36.67 493.61 36.24 492.52 35.85 491.5C35.71 491.12 35.57 490.76 35.43 490.42C35.03 489.42 34.67 488.42 34.36 487.69C34.3294 487.585 34.2927 487.481 34.25 487.38L34 487C33.94 486.84 33.88 486.69 33.84 486.57L33.69 486.22C33.59 485.92 33.52 485.76 33.52 485.76L33.65 484.98V485.98H46.13C46.26 486 47.13 497.16 47.31 503.38Z" fill="#26342E"/>
<path d="M39.72 472.11H39.48V471.61L39.72 472.11Z" fill="#253B7D" stroke="#9AB8C6" stroke-miterlimit="10"/>
<path d="M40.7 505H40.65L40.12 505.13L26.25 508.31L15.44 507.62H14.99L6.48999 503.37L24.86 494L27.3 495.68L28.17 496.28L28.8 496.72L29.63 497.3C33.88 500.2 39.59 504.17 40.7 505Z" fill="#3D6B4D"/>
<path d="M14.9801 507.64L1.09009 506.92L6.44009 503.38H6.4501L14.9801 507.64Z" fill="#68BD64"/>
<path d="M136.71 500.78L119.51 494.99L118.95 485.6L119.02 485.95H131.34L136.71 500.78Z" fill="#26342E"/>
<path d="M140.1 509.08L122 508.74C122 508.74 119.52 501.19 119.52 500.87V495.24V494.99L136.72 500.78L140.1 509.08Z" fill="#3D6B4D"/>
<path d="M141.25 511.9L131.13 515.3H122.13L117.89 509.86L119.53 501.19V500.87C119.53 501.19 122.01 508.74 122.01 508.74L140.08 509.08L141.25 511.9Z" fill="#26342E"/>
<path d="M40.8999 505H40.7399L29.7399 497.22L28.9099 496.64L28.2799 496.2L27.4099 495.6L24.8599 494L33.5599 485.78C33.5599 485.78 33.6299 485.94 33.7299 486.24L33.8799 486.59C33.8799 486.71 33.9799 486.86 34.0399 487.02L34.1899 487.4C34.2325 487.501 34.2692 487.605 34.2999 487.71L39.6299 501.58L39.7899 501.99L40.7899 504.7C40.8114 504.782 40.828 504.866 40.8399 504.95C40.8399 504.95 40.8899 505 40.8999 505Z" fill="#68BD64"/>
<path d="M55.2499 103.73L45.3499 113.43L41.9999 116.67C41.9999 116.67 41.8499 117.41 41.5899 118.6C40.5399 123.52 37.7699 136.11 37.2099 136.11C37.0099 136.11 35.0599 136.71 35.0599 136.71L28.9999 139.46L24.9099 135.09L23.4099 122.09L27.2399 128.78L37.3299 115.92L47.6699 107.61L42.8699 101.61L46.0199 100.72L55.2499 103.73Z" fill="#26342E"/>
<path d="M20.9299 254.37C20.9299 254.37 14.2799 258.45 14.1699 258.94C14.0599 259.43 5.25991 251.47 4.21991 250.52C3.90991 256.71 5.9599 279.93 5.9599 279.93L7.68991 281.38L17.1299 278.43L24.6299 269.04L20.9299 254.37ZM7.68991 277.76L7.0799 262.17L9.81992 275.66L7.68991 277.76Z" fill="#69BE6A"/>
<path d="M18.0001 198.26L15.8401 218L13.8401 203L14.0901 198.23C14.0872 198.183 14.0872 198.137 14.0901 198.09L16.7001 197.09L18.0001 198.26Z" fill="#69BE6A"/>
<path d="M15.8999 250L20.8999 254.37C20.8999 254.37 14.2499 258.45 14.1399 258.93C14.0299 259.41 5.22992 251.47 4.13992 250.52C4.1318 250.041 4.18897 249.563 4.3099 249.1C4.8899 248.19 13.6399 201.1 14.0099 198.2L13.7599 202.97L15.7599 217.97L14.0899 233.51L21.1799 243.69L10.4299 246L7.07989 250H15.8999Z" fill="#26342E"/>
<path d="M31.8999 207.32L21.2599 243.74L14.1699 233.56L15.8399 218.02L17.9699 198.26L21.5699 200.13L21.6399 200.17L23.3599 201.07L24.0599 201.44L30.8399 204.97L30.8999 205.1L31.8999 207.32Z" fill="#3D6B4D"/>
<path d="M20.4001 252.76L20.9301 254.37L15.9001 250H7.08008L10.5101 246.05L21.2601 243.74L20.4001 252.76Z" fill="#3D6B4D"/>
<path d="M26.4999 287.34L13.4099 288.31L7.68994 281.37L17.1299 278.43L24.6299 269.04L26.7999 275.72L26.4999 287.34Z" fill="#26342E"/>
<path d="M107.43 172.75C107.43 172.75 99.59 190.07 99.55 190.07C99.51 190.07 99.55 190.17 99.62 190.34C98.24 188.34 98.1 184.47 97.72 184.47C97.34 184.47 91.53 182.03 88.91 181.02C88.9053 180.983 88.9053 180.946 88.91 180.91C89.36 178.81 89.65 177.39 89.65 177.39L92.24 178.49L96.8 166.85L103.43 157.57L108.3 152.84L116.51 144.84C118.59 146.34 117.81 147.41 117.81 147.41L107.43 172.75Z" fill="#26342E"/>
<path d="M105.59 209L84 218.81V213.92L56.81 215.08V218.81L51.08 210.71L48.72 175.61L38.64 163.46L37.22 161.35L32.22 151.53L32.89 150.3L39.13 159.09L41.21 160.56L46.55 164.35L55.31 177.65L56.86 176.84L67.55 192.07C68.9233 188.197 70.2966 184.32 71.67 180.44L76.67 191.03L89 181.03C91.62 182.03 97.37 184.48 97.81 184.48C98.25 184.48 98.33 188.33 99.71 190.35C100.06 192.66 105.59 209 105.59 209Z" fill="#26342E"/>
<path d="M108.32 152.84L103.45 157.57L96.8199 166.85L92.2599 178.49L89.6699 177.39L70.9299 169.44L56.7999 176.83L55.2499 177.64L46.4899 164.34L41.1499 160.55L52.3999 163.44L63.6599 146L70.4399 160.68L75.5899 148.42C75.5899 148.42 89.7799 161.85 90.1399 161.69C90.4999 161.53 107.78 153.11 108.32 152.84Z" fill="#3D6B4D"/>
<path d="M89.6701 177.39C89.6701 177.39 89.3801 178.81 88.9301 180.91V181C85.4967 186.053 82.0734 191.107 78.6601 196.16C76.3267 191.493 73.9934 186.827 71.6601 182.16C69.9601 186.893 68.2634 191.62 66.5701 196.34L56.8201 176.81L70.9501 169.42L89.6701 177.39Z" fill="#6DB359"/>
<path d="M116.55 144.88L108.34 152.88C107.81 153.15 90.5301 161.57 90.1701 161.73C89.8101 161.89 75.6001 148.46 75.6001 148.46L90.0001 139.07C90.0001 139.07 102.63 134.71 103.25 135.19L116.55 144.88Z" fill="#69BE6A"/>
<path d="M48.8101 252.83L37.8101 241.07L44.8801 224.9C45.3101 225.2 45.8801 225.65 46.6201 226.18L48.8101 252.83Z" fill="#26342E"/>
<path d="M58.0001 235C58.0001 235 50.6201 229.18 46.6301 226.17C45.9201 225.64 45.3201 225.17 44.8901 224.89L51.0901 210.7L56.8201 218.8L58.0001 235Z" fill="#6DB359"/>
<path d="M69.61 242.57L58 235C59.86 233.5 67.44 227.69 69.24 226.69L69.39 226.61C69.4564 226.571 69.5332 226.553 69.61 226.56C69.64 227.3 69.61 242.57 69.61 242.57Z" fill="#6DB359"/>
<path d="M110.6 224.43L106.66 225.78L84 233.56V218.81L105.59 209.04L110.6 224.43Z" fill="#6DB359"/>
<path d="M116.55 354.17C116.55 354.17 111.55 374.77 111.32 375.65C111.09 376.53 102.47 355.57 102.47 355.57L116.55 354.17Z" fill="#B6C158"/>
<path d="M78.6101 305C78.8701 303.62 64.1401 356.42 64.1401 356.42L59.3301 362.82C59.3301 362.82 61.6001 353.35 61.8601 352.55C62.1201 351.75 76.2001 300.85 76.2001 300.85C76.2001 300.85 66.8301 297.41 68.5001 297.66C71.0849 297.799 73.6753 297.799 76.2601 297.66L81.3301 296.13L97.8801 361.25C97.4201 359.58 78.3501 306.3 78.6101 305Z" fill="#26342E"/>
<path d="M124.6 353.07L128.2 266.74L116.55 354.18C116.55 354.18 111.55 374.77 111.32 375.65C111.09 376.53 102.47 355.57 102.47 355.57L81.3901 286.57L77.3101 273.24L77.5801 273.02L78.0601 272.63L79.1601 271.73L80.1601 270.94C82.8201 268.77 87.1001 265.28 91.9001 261.39L93.7001 260L98.8201 255.87L106.66 225.87L102.28 227.37L84.0001 233.56V236.05L79.3101 238.18L69.6201 242.58L58.1601 235.12L58.0001 235H57.9301L57.7101 234.83L56.9701 234.25L56.7301 234.06L56.4201 233.81L55.8801 233.39C54.5701 232.39 52.8001 230.98 51.0401 229.62L49.6501 228.54C48.5601 227.7 47.5201 226.9 46.6501 226.24L48.8401 252.88L50.8401 255.01L52.7701 257.07L69.6401 275.07L67.4901 286.4L53.4101 360.48L40.4701 352.48L34.4701 282.59L32.0801 330.41L34.7301 349.46L32.3601 375.86L34.7301 385.41L33.8001 472.17H39.5201V414.88C39.5901 414.42 41.0101 411.12 43.0101 406.59L43.7201 404.99C43.8401 404.72 43.9601 404.44 44.0901 404.16L45.2501 401.57C46.0401 399.79 46.8801 397.94 47.7301 396.06C48.0101 395.44 48.3001 394.82 48.5801 394.19C52.4001 385.75 56.2201 377.41 57.3301 375.02L57.4401 374.77L57.5901 374.44L57.6401 374.33L62.0001 393.2L46.9001 472.12H50.6701L68.1401 390.34L59.3301 362.77C59.3301 362.77 61.6001 353.3 61.8601 352.51C61.8601 352.44 62.0301 351.92 62.2701 351.05C62.3601 350.76 62.4501 350.43 62.5501 350.05C62.7601 349.32 63.0001 348.44 63.2801 347.44L63.7201 345.85C63.9601 345.01 64.2101 344.11 64.4701 343.16C64.7301 342.21 65.0101 341.16 65.3001 340.16C65.6901 338.77 66.1001 337.31 66.5101 335.79C70.7101 320.68 76.2101 300.79 76.2101 300.79C75.9501 300.69 66.8701 297.35 68.5101 297.61C71.095 297.744 73.6852 297.744 76.2701 297.61L81.3401 296.08L97.8601 361.08V361.19L96.3001 385.52C96.3001 385.52 116.91 477 117.97 477.83C118.126 477.922 118.3 477.98 118.48 478C120.562 478.222 122.659 478.279 124.75 478.17H125.61L116.66 418.09C116.66 418.09 127.49 382.09 127.49 381.4C127.49 380.71 130.65 385.61 130.65 385.61L131 478C131.65 478 132.15 477.93 132.39 477.93L132.6 476.22C132.98 463.45 131.74 384.39 132.71 384.14C133.68 383.89 124.6 353.07 124.6 353.07ZM34.6001 371L38.1201 354.18C39.1201 354.61 48.8901 364.93 48.8901 364.93L34.6001 371Z" fill="#3D6B4D"/>
<path d="M120.27 239.15C119.17 239.67 112.93 244.53 105.54 250.43C103.37 252.16 101.09 253.99 98.8201 255.82L106.66 225.82L110.6 224.47L119.87 238.16L120.27 239.15Z" fill="#26342E"/>
<path d="M128.2 266.68C127.77 268.29 117 319.62 116.65 320.17C116.3 320.72 103.59 292.57 103.59 292.57C103.59 292.57 105.23 258.1 105.59 250.39C112.98 244.49 119.22 239.63 120.32 239.11L128.2 266.68Z" fill="#6DB359"/>
<path d="M150.1 218.81V249.05L146.49 255.78L143.06 249.92L130.84 262.92L131.26 270.43H136V282.22L147.08 285L155.26 277.46C155.26 277.46 157.91 246.17 158.17 245.07C158.38 244.23 159.49 218.26 161.23 205.31C161 205.52 156.48 211.79 150.1 218.81ZM147.1 280.34L148.91 273.28V261.16L152.27 275.66L147.1 280.34Z" fill="#3D6B4D"/>
<path d="M155.26 277.44L152.36 284.86L140.18 291.91L133.18 290.27L131.26 270.43H136V282.22L147.08 284.98L155.26 277.44Z" fill="#26342E"/>
<path d="M150.1 218.81V249.05L146.49 255.77L143.06 249.92L135.06 214.82C135.06 214.82 140.23 228.37 140.44 229C140.5 229.28 145 224.39 150.1 218.81Z" fill="#69BE6A"/>
<path d="M130.71 385.64L131 478C129.69 478.07 127.72 478.17 125.71 478.23L116.76 418.15C116.76 418.15 127.59 382.15 127.59 381.46C127.59 380.77 130.71 385.64 130.71 385.64Z" fill="#26342E"/>
<path d="M113 118.5L79.0001 129.75L69.5601 143.27L60.4801 128.37L41.6201 118.64C41.8801 117.44 42.0301 116.7 42.0301 116.7L45.3201 113.5C45.0101 113.95 45.3201 116.92 45.3201 116.92L69.2001 126.25L71.7601 127.25L110.92 115L113 118.5Z" fill="#26342E"/>
<path d="M63.6601 146L52.3901 163.44L41.1501 160.55L39.0701 159.08L32.8301 150.29L35.7201 138.24V138.23L39.0201 134.76L53.1401 135.38L63.6601 146Z" fill="#69BE6A"/>
<path d="M84 218.81V233.56V236.05L79.3 238.17L79.54 218.81H60.62C60.25 218.81 58.1 216.35 57.01 215.08L84.01 213.92V218.81H84Z" fill="#6DB359"/>
<path d="M52.4099 294.07C52.4099 294.07 41.9999 319.47 41.7999 318.61C41.5999 317.75 35.0999 284.86 34.4399 282.37V281.48L37.1099 242.59L37.7699 241.09L48.7699 252.85L50.7699 254.98L52.4099 294.07Z" fill="#6DB359"/>
<path d="M69.6099 275L53.3699 360.41L40.4299 352.41L34.4299 282.52V282.35C35.0899 284.84 41.6199 317.75 41.7899 318.59C41.9599 319.43 52.3999 294.05 52.3999 294.05L50.7999 255L69.6099 275Z" fill="#26342E"/>
<path d="M48.9401 364.92L34.6401 371L38.1701 354.18C39.2001 354.6 48.9401 364.92 48.9401 364.92Z" fill="#B6C158"/>
<path d="M121.23 135.19L117.85 147.45C117.85 147.45 118.63 146.38 116.55 144.88L103.24 135.19C102.62 134.71 89.9899 139.07 89.9899 139.07L75.5799 148.42L70.4399 160.68L63.6599 146L53.14 135.38L38.9999 134.76L35.7 138.23L37.2299 136.11C37.7899 136.11 40.5599 123.52 41.6099 118.6L60.4699 128.36L69.5499 143.27L78.9999 129.73L113 118.47C117.45 125.89 120.8 135.42 121.23 135.19Z" fill="#6DB359"/>
<path d="M152.25 275.65L147.08 280.34L148.89 273.28V261.16L152.25 275.65Z" fill="#26342E"/>
<path d="M9.8201 275.65L7.69009 277.75L7.08008 262.17L9.8201 275.65Z" fill="#26342E"/>
<path d="M62 393.2L46.9 472.11H39.72L39.48 471.61V414.91C39.48 413.76 57.6 374.32 57.6 374.32L62 393.2Z" fill="#26342E"/>
<path d="M50.6799 472.11L46.17 485.95H33.6799L33.6899 484.96L33.7799 472.11H50.6799Z" fill="#464C45"/>
<path d="M132.35 477.9L131.35 485.95H119L118.93 485.59L118.48 478.06C120.566 478.278 122.666 478.331 124.76 478.22C127.07 478.17 129.44 478.05 130.93 477.97L132.35 477.9Z" fill="#464C45"/>
<path d="M136.54 111.09L107.66 109.88L116.01 104.43L123.58 101.6L136.54 111.09Z" fill="#69BE6A"/>
<path d="M136.96 129.48V129.53L136.86 129.51L125.59 127.53L107.67 109.88L136.55 111.09L136.96 129.48Z" fill="#26342E"/>
<path d="M137 129.53L132.25 131.21L130.6 131.79C126.93 133.1 122.89 134.54 121.73 135L121.54 135.07L121.27 135.19C120.75 135.07 117.39 125.7 113.02 118.42L110.93 114.93C109.12 111.93 107.74 109.88 107.74 109.88L125.66 127.53L136.93 129.53H137Z" fill="#69BE6A"/>
<path d="M43.9399 107.58L31.2 108.22L42.89 101.56L43.9399 107.58Z" fill="#26342E"/>
<path d="M47.6899 107.58L37.3599 115.89L27.2499 128.75L23.4299 122.06L31.2 108.22L43.9399 107.58L42.89 101.56L47.6899 107.58Z" fill="#69BE6A"/>
<path d="M81.91 34.72L97.73 26.2L76.02 32.52L81.91 34.72Z" fill="#3D6C45"/>
<path d="M79.52 64.69L101.75 55.41L104.7 58.37L105.06 57L101.75 55.41L82.53 61.59L79.52 64.69Z" fill="#BB7644"/>
<path d="M77.23 64.76L61.04 57.91L74.32 61.96L77.23 64.76Z" fill="#9A5124"/>
<path d="M95.2901 79.27L85.3401 88.11L83.4101 89.04L79.6001 88.17L78.1001 87.7L83.4301 87.48L95.2901 79.27Z" fill="#9A5124"/>
<path d="M68.8101 80.0799L78.1001 87.6999L68.8101 78.9299V80.0799Z" fill="#9A5124"/>
<path d="M68.8101 78.9299C68.8101 79.0999 78.3 87.4799 78.3 87.4799H83.4201L83.2601 88.1799L78.1001 87.6999C78.1001 87.6999 70.3901 80.9499 70.3401 80.9599C70.2901 80.9699 68.8101 78.9299 68.8101 78.9299Z" fill="#9A5124"/>
<path d="M76 32.52C76 32.52 71 24 70.88 23.2C70.76 22.4 80.44 5 80.44 5C80.44 5 75.44 20.7 75.66 20.89C75.88 21.08 81.28 30.42 81.28 30.42L76 32.52Z" fill="#96702C"/>
<path d="M101.73 7.69002C101.11 7.51002 95.2901 9.92002 95.2901 9.92002C95.2901 9.92002 88.8701 26.43 89.1401 26.2C89.4101 25.97 96.4901 11.44 96.4901 11.44L101.73 7.69002Z" fill="#96702C"/>
<path d="M46.8799 25.0999L62.9799 16.3399L71.8999 18.7799L61.8999 6.18994L46.8799 25.0999Z" fill="#96702C"/>
<path d="M98.82 368.42C99.34 369.34 113.73 407.3 113.73 407.3L97.51 386.18L98.82 368.42Z" fill="#B6C158"/>
<path d="M48.94 370.99L36.22 375.68L39.48 414.91L57.6 374.32L48.94 370.99Z" fill="#B6C158"/>
<path d="M58.15 235.12L52.74 257.02L69.61 275.03L67.45 286.35L74.74 288.31L81.39 286.61L77.31 273.28L93.7 259.95L102.47 226.57L84 233.56L83.99 236.05L69.61 242.57L58.15 235.12Z" fill="#69BE6A"/>
<path d="M145.9 154C141.56 152.47 135.6 150.41 132.22 149.24L129.61 148.33L130.18 147.33L134.02 140.62L138.29 133.17L145.74 153.55L145.9 154Z" fill="#3D6B4D"/>
<path d="M121.23 135.19L121.53 135.07L121.23 135.19Z" fill="#612852"/>
<path d="M138.29 133.18L134 140.63L130.16 147.33L129.59 148.33L118.5 148.61V148.54L117.89 147.47V147.4L117.99 147.02L119.2 142.59L121.2 135.19C121.91 134.82 136.93 129.53 136.93 129.53L138.29 133.18Z" fill="#26342E"/>
<path d="M157.6 191.91L144 186L144.08 185.67L144.5 183.9L149.39 163.52L156.32 182.52L157.6 191.91Z" fill="#6DB359"/>
<path d="M147.2 205.5C147.29 206.12 147.35 206.5 147.35 206.71C147.35 208.09 137.53 215.11 137.53 215.11L138.17 198.69V198.55L138.58 187.98L138.35 187.73V187.42L137.1 183.42L135.4 177.98L118.5 148.62V148.55C121.29 148.27 129.43 147.45 130.15 147.35H130.2C130.848 147.51 131.483 147.717 132.1 147.97C135.19 149.14 141.28 151.68 145.76 153.57L145.92 154.01L149.4 163.51L144.51 183.89L144.09 185.66L144 186L144.07 186.43L144.14 186.83C144.41 188.38 145 191.83 145.61 195.49C146.25 199.39 146.92 203.48 147.2 205.5Z" fill="#69BE6A"/>
<path d="M147.2 205.5C147.29 206.12 147.35 206.5 147.35 206.71L147.16 205.53L145.61 196L144.13 186.84L144.06 186.44L144 186L157.61 191.93L158.18 196.13L147.2 205.5Z" fill="#3D6B4D"/>
<path d="M149.28 183.44L144.07 185.65L143.27 185.99L138.59 187.99L138.36 187.74V187.43L137.11 183.43C138.48 183.55 140.11 183.65 141.46 183.73L144.46 183.9L149.28 183.44Z" fill="#252C1A"/>
<path d="M32.84 150.3L32.16 151.52C32.1798 151.565 32.2032 151.609 32.23 151.65C32.67 152.46 35.02 156.83 36.7 160.36C36.7 160.36 36.7 160.36 36.7 160.41L37.17 161.41L36.64 166.41V166.52C33.93 168.92 28.84 173.36 26.78 175.14L26.12 175.72C26.0596 175.766 26.0027 175.816 25.95 175.87H25.89L22 151.21C22.15 150.39 22.29 149.58 22.44 148.78L28.36 138.78V138.7L35.03 136.76L35.34 136.67L36.88 136.23H37H37.08H37.23L36.62 137.08L36.55 137.18L35.72 138.33L35.34 139.92L32.84 150.3Z" fill="#3D6B4D"/>
<path d="M22 151.21L25.91 176L17.73 182C18.03 177.36 18.29 173.29 18.29 172.66C18.29 172.33 18.6 170.4 19.07 167.59C19.8 163.39 20.92 157.11 22 151.21Z" fill="#69BE6A"/>
<path d="M28.4 138.66V138.74L22.48 148.74C23.83 141.32 24.98 135.05 24.98 135.05L28.4 138.66Z" fill="#69BE6A"/>
<path d="M36.6699 166.44V166.55L34.3399 188.64L30.8399 205L30.8999 205.13L28.2899 203.73L24.0599 201.47L23.3599 201.09L24.1499 193.31L25.9099 176H25.9699C26.0226 175.946 26.0794 175.895 26.1399 175.85L26.7999 175.27C28.8499 173.34 33.9999 168.8 36.6699 166.44Z" fill="#69BE6A"/>
<path d="M25.91 176L24.15 193.32L23.36 201.1L17.89 198.3L16.71 197.13C16.71 197.13 17.27 188.97 17.71 182.13C18.01 177.49 18.27 173.42 18.27 172.79C18.27 172.46 18.58 170.53 19.05 167.72C21.48 170.66 25.91 176 25.91 176Z" fill="#26342E"/>
<path d="M161.34 199.06C161.608 201.131 161.575 203.229 161.24 205.29V205.29C161.05 205.51 156.49 211.78 150.11 218.8C145.05 224.38 140.51 229.27 140.42 228.99C140.21 228.36 135.04 214.81 135.04 214.81L137.16 213.99L145.83 206.67L158.18 196.1C158.18 196.1 157.92 195.75 158.71 194.93C159.5 194.11 161.34 199.06 161.34 199.06Z" fill="#26342E"/>
</svg>
