<svg width="170" height="517" viewBox="0 0 170 517" fill="none" xmlns="http://www.w3.org/2000/svg">
<path d="M37 142.3C36.3262 141.771 35.7937 141.084 35.45 140.3C35.2036 139.371 35.3105 138.384 35.75 137.53C36.4849 135.988 37.6434 134.688 39.09 133.78C40.5374 132.89 42.1074 132.216 43.75 131.78C46.9337 130.793 50.2862 130.469 53.6 130.83C54.7719 130.938 55.9106 131.278 56.95 131.83C58.0998 132.565 59.012 133.617 59.5764 134.859C60.1408 136.101 60.3331 137.481 60.13 138.83C59.6528 141.543 58.1576 143.972 55.95 145.62" fill="#EE4023"/>
<path d="M118.25 141.91C117.857 143.224 117.105 144.402 116.078 145.312C115.052 146.222 113.792 146.827 112.44 147.06C111.634 147.23 110.795 147.132 110.05 146.78C109.027 146.058 108.296 144.994 107.99 143.78C106.655 140.664 105.733 137.386 105.25 134.03C105.018 132.746 105.203 131.421 105.78 130.25C106.236 129.561 106.873 129.01 107.62 128.658C108.368 128.305 109.198 128.164 110.02 128.25C111.66 128.447 113.21 129.106 114.49 130.15C116.91 131.962 118.785 134.404 119.91 137.21C120.19 137.89 120.56 138.7 121.29 138.75" fill="#EE4023"/>
<path d="M106.63 164.37C109.471 161.377 111.832 157.964 113.63 154.25C114.068 153.437 114.359 152.554 114.49 151.64C114.558 151.182 114.522 150.715 114.383 150.273C114.245 149.831 114.008 149.427 113.69 149.09C113.142 148.617 112.461 148.327 111.74 148.26C110.39 148.117 109.025 148.27 107.74 148.71C105.385 149.423 103.207 150.626 101.348 152.239C99.4892 153.852 97.9918 155.839 96.9536 158.07C95.9153 160.301 95.3597 162.727 95.3229 165.187C95.2861 167.648 95.769 170.089 96.74 172.35C96.8108 172.649 96.9561 172.925 97.1624 173.153C97.3686 173.38 97.6291 173.552 97.9195 173.652C98.21 173.751 98.521 173.776 98.8236 173.723C99.1262 173.671 99.4105 173.542 99.65 173.35C106.51 170.4 104.26 171.35 106 169.15" fill="#EE4023"/>
<path d="M127.28 98.7901L113.93 104.93L112.34 104.85L120.48 90.7601L113.2 51.8801L108.04 66.8801L105.43 68.8801V57.8801L102 43.3401L99.46 32.6701L98.13 27.0901L76.42 33.4101L60.29 26.0001L56.29 31.9501C56.29 31.9501 56.29 34.5801 56.29 37.5901C55.66 40.1201 54 46.8201 54 47.5301C54 48.4201 55.13 62.7001 55.5 63.4401C55.87 64.1801 50.89 74.2001 50.89 74.2001L56.53 70.3701L60.33 63.7701L62.82 73.1001L67.06 80.4001V100.66L56.26 104.87L55.58 104.63L44.48 100.86L41.16 62.8601L47.26 26.0001L62.26 5.3501L80.72 0.350098L104.2 7.3501L118.63 33.3501L121.57 54.5001L118.14 57.5501L126.22 86.3401L127.28 98.7901Z" fill="#594422"/>
<path d="M54 46.6699L47.35 60.9399L46.26 57.7999L44.35 65.6399L51.61 103.24C51.61 103.24 60.81 96.1299 61.46 95.2399C62.11 94.3499 59.81 70.5699 59.81 70.5699L57.15 54.7999L54 46.6699Z" fill="#392317"/>
<path d="M53.6501 72.3402L54.6501 80.4002L52.8401 84.9102L51.55 103.24C51.55 103.24 62.7701 110.39 63.0701 110.24C63.3701 110.09 71.0701 107.03 71.2301 106.63C71.3901 106.23 75.23 95.9002 75.11 94.2902C74.99 92.6802 75.2501 78.7102 74.6801 78.3802C74.1101 78.0502 67.8901 72.0202 67.4901 71.7202C67.0901 71.4202 63.3801 62.8002 63.3801 62.8002L59.9001 60.6802L53.6501 72.3402Z" fill="#392317"/>
<path d="M97.08 80.2099L96.86 83.5899L79.32 100.85L79.61 122.29L69.61 127.11L45.72 117.78C45.72 117.78 45.4 114.78 45.72 114.35L55.63 104.65L56.31 104.89L67.11 100.68V80.4199L62.87 73.1199L60.38 63.7899V63.5299L59.33 58.1599C59.33 58.1599 59.04 57.1599 58.64 55.6499L61.47 58.8299C61.47 58.8299 74.28 62.8299 74.75 62.8299C75.22 62.8299 78.75 66.8299 78.75 66.8299V73.5699L71.32 72.1799L74.43 77.0399L78.75 78.4299V88.3699H83.87L97.08 80.2099Z" fill="#AE7136"/>
<path d="M76.3901 33.4102L72.6201 34.9302L72.2801 39.5602L56.3101 31.9402L60.2901 25.9902L76.3901 33.4102Z" fill="#F4831F"/>
<path d="M99.43 32.6698L84.26 39.5699L82.9 40.1898L82.29 35.5999L76.39 33.4099L98.1 27.0898L99.43 32.6698Z" fill="#F4831F"/>
<path d="M102 43.3399L95.7 40.1899C95.7 40.1899 82.12 48.9399 81.7 49.2599C81.28 49.5799 84.26 39.5699 84.26 39.5699L99.43 32.6699L102 43.3399Z" fill="#EE4023"/>
<path d="M102 43.3398L95.7 40.1898C95.7 40.1898 82.12 48.9398 81.7 49.2598C81.28 49.5798 84.26 39.5698 84.26 39.5698L82.9 40.1898L77.61 48.4498L78.4 54.3098L78.21 63.4998L82.9 62.4998L102.12 56.3198L105.43 57.8998L102 43.3398ZM79 61.2298L80.25 55.6198L82.64 61.2298H79ZM102 50.5998L93.62 56.2998L82.93 51.7198C83.57 51.7198 96.5 42.8698 96.5 42.8698L102 47.3898V50.5998Z" fill="#EE4023"/>
<path d="M74.72 62.8699C74.26 62.8699 61.44 58.82 61.44 58.82L58.61 55.6499C57.6902 52.5508 56.9292 49.4067 56.33 46.2299C56.33 45.5399 56.33 41.28 56.33 37.6C56.33 34.6 56.33 31.96 56.33 31.96L61.33 42.25L61.52 42.8999L61.69 43.49L57.77 48.09L64.84 56.32L65.5 55.96L74.72 62.8699Z" fill="#EE4023"/>
<path d="M149.84 194.39L150.1 207.57L140.28 215.97L141.34 188.84L133.42 180.14L122.15 152L123.87 136.11C124.57 135.73 144.01 127.21 144.01 127.21L132.36 149.21C132.36 149.21 145.93 187.81 146.75 186.86C147.57 185.91 153.95 191.86 153.95 191.86L149.84 194.39Z" fill="#DC9159"/>
<path d="M24.65 163.52L26.44 198.89C26.44 198.89 23.88 193.66 23.75 194.02C23.62 194.38 23.75 200.34 23.75 202.14L14.12 197.94C14.12 197.94 16.2 175.66 16.2 174.1C16.2 172.54 20 135.64 20 135.64L27.84 139.96L34.54 137.96L24.65 163.52Z" fill="#DC9159"/>
<path d="M163.76 195.59L148.63 208.28L148.38 195.1L152.49 192.57C152.49 192.57 146.1 186.57 145.28 187.57C144.46 188.57 130.89 149.92 130.89 149.92L144.11 127.21L163.22 182.47L163.76 195.59Z" fill="#F1B280"/>
<path d="M108.77 111.19C109.54 112.799 110.391 114.368 111.32 115.89L72.2 128.16L69.64 127.16L79.64 122.34L79.35 100.9L96.89 83.6401L97.67 99.7101L112.37 104.9L114 105L108.77 111.19Z" fill="#C68650"/>
<path d="M36.77 167.27L34.7 189.52L33.53 207.57L23.73 202.14C23.73 200.34 23.63 194.32 23.73 194.02C23.83 193.72 26.42 198.89 26.42 198.89L24.63 163.52L34.54 138C35.2403 137.767 35.9551 137.58 36.68 137.44L35.16 139.57L32.11 151.23L31.43 152.46L36.77 167.27Z" fill="#F1B280"/>
<path d="M76.59 51.8999L73.55 47.41L62.15 42.8999H61.48L61.29 42.25L56.33 31.96L72.3 39.58L75.6 45.09L76.59 51.8999Z" fill="#EE4023"/>
<path d="M82.9 40.1902L77.61 48.4501L75.58 45.0702L72.28 39.5602L72.62 34.9301L76.39 33.4102L82.29 35.6002L82.9 40.1902Z" fill="#F4831F"/>
<path d="M120.48 90.7599L112.34 104.85L97.64 99.6599L96.86 83.5899L97.08 80.2099L100.42 73.6699L105.43 57.8799V68.8299L108.04 66.8299L113.2 51.8799L120.48 90.7599Z" fill="#392317"/>
<path d="M105.43 57.8798L100.42 73.6698L97.0799 80.2098L83.7999 88.3698H78.6799V78.4298L82.64 77.8498L86.7699 73.5698L90.8999 68.8298L86.7699 72.1798L78.6799 73.5698V66.8298L82.8999 62.4798L102.12 56.2998L105.43 57.8798Z" fill="#C68650"/>
<path d="M90.9 68.8301L86.78 73.5701L82.64 77.8501L78.68 78.4301L74.37 77.0401L71.25 72.1801L77 75.1601L81.07 74.7401L86.78 72.1801L90.9 68.8301Z" fill="#A96739"/>
<path d="M86.78 72.1802L81.07 74.7402L77 75.1602L71.25 72.1802L78.68 73.5702L86.78 72.1802Z" fill="#9E5C28"/>
<path d="M82.64 61.2301H79L80.25 55.6201L82.64 61.2301Z" fill="#7C4B20"/>
<path d="M82.9 62.4801L78.68 66.8301C78.68 66.8301 75.16 62.8301 74.68 62.8301L65.42 55.9101C67.42 54.7701 73.6 51.3701 74.01 51.3701L62.11 42.8501L73.5 47.3701L76.5 51.8601L75.5 45.0501L77.5 48.4301L78.29 54.2901L78.1 63.4801L82.9 62.4801Z" fill="#EE4023"/>
<path d="M60.36 63.7601L56.56 70.3601L50.92 74.1901C50.92 74.1901 55.92 64.1901 55.53 63.4301C55.14 62.6701 54.03 48.4301 54.03 47.5201C54.03 46.8101 55.69 40.1101 56.32 37.5801C56.32 41.2601 56.32 45.5101 56.32 46.2101C56.9158 49.3843 57.6769 52.5252 58.6 55.6201C59 57.0901 59.29 58.1301 59.29 58.1301L60.34 63.5001L60.36 63.7601Z" fill="#594422"/>
<path d="M102 47.3901V50.6001L93.6199 56.3001L82.9299 51.7201C83.5699 51.7201 96.4999 42.8701 96.4999 42.8701L102 47.3901Z" fill="white" stroke="#231F20" stroke-linejoin="round"/>
<path d="M74 51.39C73.59 51.39 67.45 54.79 65.41 55.93L64.75 56.3L57.67 48.06L60.78 43.06L61.24 42.25L74 51.39Z" fill="white" stroke="#231F20" stroke-linejoin="round"/>
<path d="M79.9 219.7L79.67 239.06L69.98 243.46C69.98 243.46 69.98 228.19 69.98 227.46C69.9032 227.453 69.8263 227.471 69.76 227.51L69.6 227.59L69.41 227.7C67.07 229.05 58.41 235.9 58.41 235.9L58.11 235.66L57.23 219.66V216H57.44C58.52 217.27 60.68 219.74 61.04 219.74L79.9 219.7Z" fill="#EE4023"/>
<path d="M133.21 263.08L116.92 355.08L102.84 356.48L77.6899 274.19C77.6899 274.19 88.43 265.39 99.2 256.73L105.91 251.34C105.6 259.05 103.91 293.52 103.91 293.52C103.91 293.52 116.61 321.68 116.97 321.12C117.33 320.56 132.78 264.69 133.21 263.08Z" fill="#7C4B20"/>
<path d="M47.89 510.78L20.29 512.35C20.29 512.35 10.29 513.56 9.49995 513.35C8.70995 513.14 0.699951 511.18 0.699951 511.18L1.45996 507.79L15.32 508.49H15.78L26.59 509.18L40.4599 506L41 505.88C41.0563 505.871 41.1137 505.871 41.17 505.88V505.88C41.53 505.78 47.4099 504.22 47.5799 504.27C47.8099 507.9 47.89 510.78 47.89 510.78Z" fill="#7C4B20"/>
<path d="M26.5201 509.08L40.5001 506.06L26.6301 509.24L15.8201 508.55L15.36 508.53L15.3201 508.51L15.6201 508.53L26.5201 509.08Z" fill="#001750"/>
<path d="M47.68 504.27C47.51 504.27 41.63 505.78 41.27 505.88L41.22 505.76V505.62C41.14 505.39 41.04 505.07 40.9 504.7C40.76 504.33 40.72 504.17 40.6 503.86C40.48 503.55 40.36 503.21 40.22 502.86L40.07 502.45C40.01 502.28 39.95 502.11 39.88 501.94C39.65 501.31 39.4 500.64 39.12 499.94C39.05 499.72 38.96 499.51 38.87 499.28C38.59 498.53 38.29 497.74 37.98 496.94L37.47 495.61C37.04 494.51 36.62 493.42 36.23 492.39C36.08 492.02 35.94 491.66 35.81 491.32C35.4 490.32 35.04 489.32 34.74 488.59C34.7061 488.485 34.666 488.381 34.62 488.28L34.47 487.89C34.41 487.74 34.36 487.59 34.31 487.46L34.17 487.12C34.06 486.82 33.99 486.65 33.99 486.65L34.12 485.87V486.87L49.17 486.65C49.2 486.62 47.51 498.05 47.68 504.27Z" fill="#EE4023"/>
<path d="M40.09 473H39.86V472.5L40.09 473Z" fill="#1C387F" stroke="#9BB8C8" stroke-miterlimit="10"/>
<path d="M41.08 505.92H41L40.47 506.05L26.6 509.23L15.79 508.54H15.33L6.82996 504.3L25.24 494.88L27.68 496.56L28.56 497.16L29.19 497.6L30.02 498.18C34.25 501.09 40 505.06 41.08 505.92Z" fill="#EE4023"/>
<path d="M15.3599 508.53L1.45996 507.81L6.81996 504.27L15.3599 508.53Z" fill="#F8B517"/>
<path d="M137.08 501.67L119.25 495.74L118.25 486.66L118.32 487.02L132.72 486.84L137.08 501.67Z" fill="#EE4023"/>
<path d="M141.79 510L120.31 509.27C120.31 509.27 117.83 501.72 117.83 501.4L119.29 496.02V495.77L137.12 501.7L141.79 510Z" fill="#F8B517"/>
<path d="M143 512.79L131.56 516.19H122.56L116.23 510.36L117.86 501.69V501.37C117.86 501.69 120.34 509.24 120.34 509.24L141.82 509.97L143 512.79Z" fill="#7C4B20"/>
<path d="M41.27 505.88C41.2137 505.871 41.1563 505.871 41.1 505.88H41L30 498.1L29.17 497.52L28.54 497.08L27.66 496.48L25.22 494.8L33.92 486.57C33.92 486.57 33.99 486.74 34.1 487.04L34.24 487.38C34.29 487.51 34.34 487.66 34.4 487.81L34.55 488.2C34.596 488.301 34.636 488.404 34.67 488.51L40 502.43L40.15 502.84L41.15 505.55C41.15 505.6 41.15 505.75 41.2 505.8C41.2187 505.83 41.2423 505.857 41.27 505.88V505.88Z" fill="#F4831F"/>
<path d="M55.6299 104.62L45.7299 114.32L41.45 117.32L41.0299 119.26C39.9799 124.17 37.2799 137.32 36.7099 137.32C35.9851 137.459 35.2702 137.646 34.5699 137.88L27.8699 139.88L19.9999 135.64L16.45 121.22L26.0799 129.22L37.7299 116.74L48.0699 108.43L38.4599 99.0698L44.5299 100.81L55.6299 104.62Z" fill="#7C4B20"/>
<path d="M21.3001 255.26C21.3001 255.26 14.6501 259.34 14.5401 259.82C14.4301 260.3 5.64006 252.36 4.54006 251.4C4.24006 257.59 4.70007 281.67 4.70007 281.67L6.44007 283.11L17.4401 279.32L26.0201 269.97L21.3001 255.26ZM6.49006 279.49L7.49006 263.06L10.2401 276.54L6.49006 279.49Z" fill="#EE4023"/>
<path d="M18.34 199.14L16.21 218.9L14.21 203.9L10.21 198.05C10.21 197.96 10.21 197.91 10.21 197.91L14.1 197.98L18.34 199.14Z" fill="#F4831F"/>
<path d="M16.28 250.89L21.28 255.26C21.28 255.26 14.63 259.34 14.52 259.82C14.41 260.3 5.62001 252.36 4.52001 251.4C4.51166 250.925 4.56544 250.451 4.67999 249.99C5.26999 249.08 9.75 200.99 10.12 197.99L14.12 203.84L16.12 218.84L14.45 234.38L21.55 244.57L10.8 246.87L7.35999 250.87L16.28 250.89Z" fill="#F8B517"/>
<path d="M35.7201 210.64L21.6401 244.63L14.55 234.44L18.3401 199.14L33.5201 207.57L35.7201 210.64Z" fill="#7C4B20"/>
<path d="M20.7799 253.64L21.2999 255.26L16.2799 250.89H7.44995L10.89 246.93L21.64 244.63L20.7799 253.64Z" fill="#7C4B20"/>
<path d="M21.64 287.38L13.79 289.19L6.48999 283.11L17.5 279.32L26.07 269.97L26.22 276.34L21.64 287.38Z" fill="#F8B517"/>
<path d="M113.83 172C113.83 172 108.48 189.33 108.44 189.33C108.466 189.419 108.486 189.509 108.5 189.6C107.13 187.6 98.5 185.32 98.1 185.32C97.7 185.32 91.91 182.88 89.28 181.87C89.2847 181.834 89.2847 181.797 89.28 181.76C89.74 179.66 90.03 178.24 90.03 178.24L92.62 179.34L100.4 167.34L107.03 158.07L111.9 153.34L116.9 144.14C118.97 145.65 122.12 151.95 122.12 151.95L113.83 172Z" fill="#EE4023"/>
<path d="M111.92 153.37L103.82 158.46L100.42 167.37L92.6401 179.37L90.05 178.27L71.3101 170.32L57.1801 177.7L55.6301 178.51L46.86 165.22L41.55 165.58H55.6401L66.1501 145.26L70.8201 161.55L75.4501 147.64C75.4501 147.64 93.3901 162.36 93.7401 162.21C94.0901 162.06 111.39 153.64 111.92 153.37Z" fill="#7C4B20"/>
<path d="M90.0499 178.28C90.0499 178.28 89.7599 179.7 89.2999 181.8C89.3046 181.837 89.3046 181.874 89.2999 181.91C88.0099 187.91 85.41 199.31 84.39 199.14C83.01 198.9 69.9999 193.44 69.9999 193.44L58.5899 199.14L57.2 177.71L71.3299 170.33L90.0499 178.28Z" fill="#F8B517"/>
<path d="M116.93 144.16L111.93 153.36C111.4 153.63 94.1199 162.04 93.7599 162.21C93.3999 162.38 75.45 147.64 75.45 147.64L87.2599 133.24C87.2599 133.24 104.89 132.81 105.51 133.3C105.94 133.64 112.12 140.66 116.93 144.16Z" fill="#F8B517"/>
<path d="M49.1799 253.71L33.4299 240.45L39.7399 223.83C40.1699 224.13 41.5499 225.78 42.2599 226.32L49.1799 253.71Z" fill="#F8B517"/>
<path d="M58.36 235.9C58.36 235.9 46.25 229.32 42.26 226.32C41.55 225.78 40.17 224.13 39.74 223.83L46 211.76L57.18 219.7L58.36 235.9Z" fill="#7C4B20"/>
<path d="M70 243.46L58.38 235.9C60.23 234.4 67.82 228.59 69.61 227.59L69.77 227.51C69.8363 227.471 69.9132 227.453 69.99 227.46C69.99 227.46 69.99 227.46 69.99 227.46C70 228.19 70 243.46 70 243.46Z" fill="#F8B517"/>
<path d="M117.64 224.06L107.04 226.67L84.37 234.44V219.7L112.76 209.53L117.64 224.06Z" fill="#7C4B20"/>
<path d="M116.92 355.06C116.92 355.06 111.92 375.66 111.7 376.54C111.48 377.42 102.84 356.46 102.84 356.46L116.92 355.06Z" fill="#F8B517"/>
<path d="M79 305.83C79.27 304.46 70 354.07 70 354.07L64.53 362.69C64.53 362.69 67.46 351 67.72 350.21C67.98 349.42 76.6 301.68 76.6 301.68C76.6 301.68 67.23 298.24 68.89 298.5C71.4748 298.64 74.0652 298.64 76.65 298.5L81.7 297L94.08 361.33C93.61 359.66 78.72 307.19 79 305.83Z" fill="#F8B517"/>
<path d="M126.27 355.06L133.27 263.06L116.98 355.06C116.98 355.06 111.98 375.66 111.75 376.54C111.52 377.42 102.9 356.46 102.9 356.46L77.75 274.17C77.75 274.17 88.49 265.37 99.26 256.71L107.1 226.71L84.43 234.48V236.97L79.73 239.1L70.04 243.5L58.53 236L58.06 235.66C56.65 234.55 45.77 228.96 42.26 226.32L49.18 253.71L51.18 255.84L70 275.92L53.77 361.33L40.82 353.33L28.26 283.28L24.5 326.81L30.73 349.22L28.57 376.58L33.4 386.64L34.17 473.02H39.88V415.79C39.88 414.65 58 375.21 58 375.21L66.38 394.08L47.27 473L53.11 472.75L73.91 392.06L64.52 362.69C64.52 362.69 67.44 351 67.7 350.21C67.96 349.42 76.58 301.68 76.58 301.68C76.58 301.68 67.21 298.24 68.87 298.5C71.4581 298.639 74.0519 298.639 76.64 298.5L81.71 296.97L94.08 361.3L91.81 387C91.81 387 115.81 478.14 116.81 479C116.965 479.095 117.139 479.153 117.32 479.17C119.923 479.287 122.53 479.267 125.13 479.11H126.01L117.01 419.03C117.01 419.03 127.84 383.03 127.84 382.34C127.84 381.65 133.08 385.76 133.08 385.76L131.25 478.88L132.64 478.81L132.85 477.11C133.23 464.33 137.63 384.43 138.6 384.18C139.57 383.93 126.27 355.06 126.27 355.06ZM35 371.88L38.52 355.06C39.52 355.49 49.3 365.81 49.3 365.81L35 371.88Z" fill="#F4831F"/>
<path d="M124.85 239.58C118.19 242.905 111.85 246.835 105.91 251.32L99.2 256.71L107.04 226.71L117.64 224.1L124.45 238.59L124.85 239.58Z" fill="#F8B517"/>
<path d="M133.22 263C132.79 264.61 117.38 320.47 117.03 321C116.68 321.53 104 293.5 104 293.5C104 293.5 105.64 259.03 106 251.32C111.94 246.835 118.28 242.905 124.94 239.58L133.22 263Z" fill="#EE4023"/>
<path d="M168.17 204.35C167.97 204.57 160.76 212.68 154.39 219.7V249.94L150.78 256.66L145.3 249.52L134.76 265L133.84 271.3H140.28V283.1L151.37 285.86L162.45 279.2C162.45 279.2 162.19 247.03 162.45 245.93C162.66 245.1 166.42 217.3 168.17 204.35ZM151.37 281.23L153.17 274.17V262.05L156.54 276.54L151.37 281.23Z" fill="#F8B517"/>
<path d="M162.45 279.21L159.56 286.63L145.24 294.11L136.74 290.71L133.84 271.31H140.28V283.11L151.37 285.87L162.45 279.21Z" fill="#EE4023"/>
<path d="M154.39 219.7V249.94L150.78 256.66L145.3 249.52L138.17 216.8C138.17 216.8 144.48 229.26 144.69 229.89C144.78 230.17 149.32 225.28 154.39 219.7Z" fill="#7C4B20"/>
<path d="M169.05 197.82C169.05 197.82 168.71 200.39 168.18 204.35C167.98 204.57 160.77 212.68 154.4 219.7C149.33 225.28 144.79 230.17 144.7 229.89C144.49 229.26 138.18 216.8 138.18 216.8L140.29 215.97L150.11 207.57L165.24 194.88L166.43 193.71L169.05 197.82Z" fill="#EE4023"/>
<path d="M133.16 385.74L131.33 478.86C130.03 478.93 128.05 479.02 126.04 479.09L117.04 419.01C117.04 419.01 127.87 383.01 127.87 382.32C127.87 381.63 133.16 385.74 133.16 385.74Z" fill="#F8B517"/>
<path d="M113.4 119.39L79.4 130.63L69.95 144.16L60.88 129.26L41 119.36L41.42 117.43L45.7 114.43C45.4 114.88 45.7 117.85 45.7 117.85L69.58 127.18L72.14 128.18L111.26 115.93L113.4 119.39Z" fill="#F4831F"/>
<path d="M66.15 145.27L55.64 165.59H41.55L39.47 164.12L32.11 151.18L35.16 139.52L38.46 136.04L55.63 134.65L66.15 145.27Z" fill="#F8B517"/>
<path d="M84.37 219.7V234.44V236.93L79.67 239.06L79.9 219.7H61C60.64 219.7 58.48 217.23 57.4 215.96L84.4 214.81V219.7H84.37Z" fill="#F8B517"/>
<path d="M52.79 295C52.79 295 42.34 320.4 42.18 319.53C42.02 318.66 28.9 285.61 28.24 283.12V282.22L32.74 242.01L33.4 240.5L49.15 253.76L51.15 255.89L52.79 295Z" fill="#EE4023"/>
<path d="M70 275.92L53.77 361.33L40.82 353.33L28.26 283.28V283.1C28.92 285.59 42.03 318.68 42.2 319.51C42.37 320.34 52.79 295 52.79 295L51.18 255.88L70 275.92Z" fill="#7C4B20"/>
<path d="M49.31 365.81L35 371.88L38.52 355.06C39.57 355.49 49.31 365.81 49.31 365.81Z" fill="#F8B517"/>
<path d="M124 136L122.16 152C122.16 152 118.31 146.36 116.94 144.19C113.59 138.87 105.94 133.67 105.51 133.34C104.89 132.85 87.26 133.28 87.26 133.28L75.45 147.68L70.83 161.59L66.16 145.31L55.64 134.68H38.46L35.16 139.55L36.68 137.42C37.25 137.42 39.95 124.27 41 119.36L60.87 129.27L69.94 144.19L79.39 130.65L113.39 119.39C117.84 126.78 123.56 136.17 124 136Z" fill="#EE4023"/>
<path d="M156.54 276.54L151.37 281.23L153.17 274.17V262.05L156.54 276.54Z" fill="#7C4B20"/>
<path d="M10.2 276.54L6.48999 279.49L7.45001 263.06L10.2 276.54Z" fill="#7C4B20"/>
<path d="M66.36 394.08L47.28 473H40.09L39.86 472.5V415.79C39.86 414.65 57.98 375.21 57.98 375.21L66.36 394.08Z" fill="#F8B517"/>
<path d="M53.11 472.75L49.11 486.62L34.05 486.84L34.0601 485.84L34.1501 473L53.11 472.75Z" fill="#7C4B20"/>
<path d="M132.72 478.79V486.84L118.32 487.02L118.25 486.66L117.35 479.17C119.953 479.287 122.559 479.267 125.16 479.11C127.46 479.06 129.84 478.94 131.33 478.86L132.72 478.79Z" fill="#EE4023"/>
<path d="M148.33 108.34L108.77 111.19L114.06 104.8L127.4 98.6701L129.59 97.3501L148.33 108.34Z" fill="#F8B517"/>
<path d="M148.33 108.34L144.14 127.05L125.96 128.41L108.77 111.19L148.33 108.34Z" fill="#EE4023"/>
<path d="M144.14 127.05C144.14 127.05 124.7 135.57 124 136C123.57 136.22 117.79 126.78 113.34 119.36L111.24 115.86C110.323 114.374 109.502 112.831 108.78 111.24L126 128.41L144.14 127.05Z" fill="#7C4B20"/>
<path d="M44.31 108.47L24.34 105.83L38.46 99.1099L44.31 108.47Z" fill="#F8B517"/>
<path d="M48.0699 108.47L37.7299 116.78L26.0699 129.26L16.45 121.22L24.3399 105.83L44.3099 108.47L38.4599 99.1099L48.0699 108.47Z" fill="#EE4023"/>
<path d="M82.29 35.5999L98.1 27.0898L76.39 33.4099L82.29 35.5999Z" fill="#F4831F"/>
<path d="M79.9 65.5698L102.12 56.2998L105.07 59.2598L105.43 57.8798L102.12 56.2998L82.9 62.4798L79.9 65.5698Z" fill="#BC7645"/>
<path d="M77.61 65.6398L61.42 58.7998L74.7 62.8498L77.61 65.6398Z" fill="#9B5023"/>
<path d="M97.08 80.21L85.72 89L83.79 89.9299L79.98 89.06L78.47 88.59L83.8 88.3699L97.08 80.21Z" fill="#9B5023"/>
<path d="M67.09 81.5401L78.47 88.5901L67.09 80.3901V81.5401Z" fill="#9B5023"/>
<path d="M67.09 80.3901C67.09 80.5601 78.68 88.3901 78.68 88.3901H83.8L83.63 89.0901L78.47 88.6101C78.47 88.6101 68.67 82.4301 68.62 82.4401C68.57 82.4501 67.09 80.3901 67.09 80.3901Z" fill="#9B5023"/>
<path d="M76.39 33.4102C76.39 33.4102 71.33 24.8402 71.25 24.0902C71.17 23.3402 80.82 5.93018 80.82 5.93018C80.82 5.93018 75.82 21.6302 76.04 21.8202C76.26 22.0102 81.66 31.3502 81.66 31.3502L76.39 33.4102Z" fill="#392317"/>
<path d="M104.21 7.3798C103.59 7.1898 95.67 10.7998 95.67 10.7998C95.67 10.7998 89.24 27.3198 89.52 27.0898C89.8 26.8598 96.86 12.3298 96.86 12.3298L104.21 7.3798Z" fill="#392317"/>
<path d="M47.26 25.9899L63.35 17.2298L72.28 19.6698L62.27 5.33984L47.26 25.9899Z" fill="#392317"/>
<path d="M99.2 369.31C99.72 370.23 114.11 408.19 114.11 408.19L95.1899 386.39L99.2 369.31Z" fill="#7C4B20"/>
<path d="M49.31 371.88L36.59 376.56L39.86 415.79L57.98 375.21L49.31 371.88Z" fill="#7C4B20"/>
<path d="M58.53 236L53.11 257.9L69.98 275.92L67.83 287.24L75.11 289.19L81.76 287.5L77.69 274.17L94.08 260.84L102.84 227.46L84.37 234.44V236.93L69.98 243.46L58.53 236Z" fill="#F4831F"/>
<path d="M144.14 127.05L155.52 156.05C155.52 155.96 132.36 149.2 132.36 149.2L144.14 127.05Z" fill="#F8B517"/>
<path d="M132.36 149.18L122.15 151.97L123.99 135.95L144.14 127.05" fill="#F4831F"/>
<path d="M155.52 156.03L164.69 181.73L165.23 194.88L146.75 186.83L155.52 156.03Z" fill="#EE4023"/>
<path d="M122.15 152L133.42 180.17L141.34 188.87L140.28 216C140.28 216 150.13 209 150.1 207.6C150.07 206.2 146.75 186.86 146.75 186.86L155.52 156.06C155.52 156.06 133.75 148.06 132.88 148.23C132.01 148.4 122.15 152 122.15 152Z" fill="#F4831F"/>
<path d="M146.75 186.83L150.1 207.57C150.1 207.57 165.73 195.1 165.23 194.88L146.75 186.83Z" fill="#F8B517"/>
<path d="M136.8 183.85C137.16 184.24 147.25 184.74 147.25 184.74L152.03 184.29L141.34 188.84L136.8 183.85Z" fill="#7C4B20"/>
<path d="M36.68 137.39L35.16 139.52L32.11 151.18L31.43 152.41C31.43 152.41 37.43 166.55 36.77 167.27C36.11 167.99 25.35 177.27 25.35 177.27L21.21 151.18L27.84 140L36.68 137.39Z" fill="#F4831F"/>
<path d="M27.8401 139.96L20.0001 135.64L15.3 184.74L25.3501 177.27L21.2101 151.18L27.8401 139.96Z" fill="#EE4023"/>
<path d="M36.77 167.27L33.53 207.57L22.28 201.51L25.35 177.26C25.35 177.26 36.05 167.75 36.77 167.27Z" fill="#EE4023"/>
<path d="M25.35 177.26L22.28 201.51L18.34 199.14L14.1 197.94C14.1 197.94 17.05 166.48 17.01 166.87C16.97 167.26 25.35 177.26 25.35 177.26Z" fill="#F8B517"/>
<path d="M112.77 209.53L84.3699 219.7V214.81L57.1799 216V219.73L45.9999 211.76L43.9099 177.76L38.6199 169.71L36.7699 167.25L31.4299 152.39L32.1099 151.16L39.4699 164.1L41.5499 165.57L46.8699 165.21L55.6299 178.5L57.1799 177.69L58.5699 199.12L69.9799 193.42L84.3699 199.12L89.2799 181.89C91.9099 182.89 97.6599 185.34 98.0999 185.34C98.5399 185.34 107.1 187.59 108.5 189.62C109 192 112.77 209.53 112.77 209.53Z" fill="#EE4023"/>
<path d="M113.4 167C113.26 167.43 102.4 180.06 102.4 180.06L102.08 185.48L113.4 167Z" fill="#F8B517"/>
<path d="M113 161.32C112.83 161.75 101.09 173.58 101.09 173.58L100.38 178.96L113 161.32Z" fill="#F8B517"/>
<path d="M90.0499 178.28C90.0499 178.28 89.7599 179.7 89.2999 181.8V181.91C88.9599 183.49 86.48 192.02 84.39 199.14L71.0799 203.81L58.5899 199.14L57.2 177.71L71.3299 170.33L90.0499 178.28Z" fill="#F8B517"/>
</svg>
