<svg width="169" height="516" viewBox="0 0 169 516" fill="none" xmlns="http://www.w3.org/2000/svg">
<path d="M126.63 98.6099L115.63 105.26L114.05 105.19L119.86 90.5699L112.58 51.6899L107.42 66.6899L104.81 68.6899V57.6999L101.35 43.1599L98.8 32.4899L97.4801 26.9099L75.7701 33.2299L59.6701 25.8099L55.6701 31.7499C55.6701 31.7499 55.6701 34.3799 55.6701 37.3899C55.0401 39.9199 53.3901 46.6199 53.3901 47.3299C53.3901 48.2199 54.5201 62.4999 54.8901 63.2499C55.2601 63.9999 50.2801 73.9999 50.2801 73.9999L55.9101 70.1699L60.58 62.7899L62.2001 72.8999L67.9701 80.2099V100.37L55.6601 104.67L54.9801 104.44L43.8901 100.67L40.5701 62.6699L46.5701 25.8199L61.5701 5.16992L80.0201 0.169922L103.51 7.16992L117.94 33.1699L120.87 54.3099L117.45 57.3699L125.52 86.1599L126.63 98.6099Z" fill="black"/>
<path d="M53.3199 46.49L46.6699 60.75L45.5799 57.61L43.6699 65.46L50.9199 103.06C50.9199 103.06 60.1299 95.95 60.7699 95.06C61.4099 94.17 59.1199 70.39 59.1199 70.39L56.4599 54.63L53.3199 46.49Z" fill="#414141"/>
<path d="M52.9999 72.15L53.9999 80.2101L52.1999 84.73L50.8999 103.06C50.8999 103.06 62.1299 110.21 62.4299 110.11C62.7299 110.01 70.4299 106.9 70.5899 106.5C70.7499 106.1 74.5899 95.76 74.4699 94.16C74.3499 92.56 74.5999 78.5801 74.0299 78.2401C73.4599 77.9001 67.2499 71.88 66.8399 71.58C66.4299 71.28 62.7299 62.66 62.7299 62.66L59.2499 60.55L52.9999 72.15Z" fill="#414141"/>
<path d="M95 79.9999L94.7799 83.3799L78.66 100.69L78.95 122.13L68.95 126.95L45.07 117.61C45.07 117.61 44.75 114.61 45.07 114.19L54.97 104.5L55.6499 104.73L67.9599 100.43V80.2099L62.19 72.8999L60.57 62.7899V62.5299L58.66 57.9399L57.9599 55.4399L60.79 58.6099C60.79 58.6099 73.61 62.6099 74.07 62.6099C74.53 62.6099 78.07 66.6099 78.07 66.6099V73.3499L70.6099 71.9999L73.7199 76.8499L78.0299 78.2399V88.1899H83.16L95 79.9999Z" fill="#9E5B29"/>
<path d="M75.7499 33.2301L71.9799 34.7501L71.6299 39.3701L55.6599 31.7501L59.6499 25.8101L75.7499 33.2301Z" fill="#B6C158"/>
<path d="M98.78 32.4899L83.61 39.3899L82.26 40.0099L81.64 35.4199L75.75 33.2299L97.45 26.9099L98.78 32.4899Z" fill="#B6C158"/>
<path d="M101.33 43.16L95.0001 40C95.0001 40 81.4301 48.74 81.0001 49.07C80.5701 49.4 83.5601 39.38 83.5601 39.38L98.7301 32.48L101.33 43.16Z" fill="#69BE6A"/>
<path d="M101.33 43.1599L94.9999 39.9999C94.9999 39.9999 81.4299 48.7399 80.9999 49.0699C80.5699 49.3999 83.5599 39.3799 83.5599 39.3799L82.2099 39.9999L76.9099 48.2599L77.6999 54.1199L77.5099 63.2999L82.2099 62.2999L101.43 56.1299L104.74 57.7099L101.33 43.1599ZM78.3299 61.0499L79.5799 55.4399L81.9699 61.0499H78.3299ZM101.33 50.4099L92.9999 56.1199L82.3099 51.5399C82.9399 51.5399 95.8799 42.6899 95.8799 42.6899L101.38 47.2099L101.33 50.4099Z" fill="#26342E"/>
<path d="M74.08 62.68C73.61 62.68 60.8 58.68 60.8 58.68L58 55.46C57.0754 52.3622 56.3143 49.2178 55.72 46.04C55.72 45.35 55.72 41.1 55.72 37.42C55.72 34.42 55.72 31.78 55.72 31.78L60.72 42.07L60.9 42.71L61.08 43.31L57.15 47.9L64.23 56.14L64.89 55.77L74.08 62.68Z" fill="#26342E"/>
<path d="M149.2 194.2L149.45 207.27V207.39L148.32 208.39L139.85 215.63L139.76 215.7C139.74 215.705 139.72 215.705 139.7 215.7L139.63 215.77L142 188.39V188.13L139.7 184.95L135.14 178.66L121.49 151.46L120.36 149.2L119.83 148.15L121.33 142.7L123.15 136.12L123.21 135.89C123.88 135.54 138.67 129.21 140.5 128.44H140.58H140.67L134.77 142V142.07V142.13L131.77 148.92V149.03C131.79 149.094 131.813 149.158 131.84 149.22L131.89 149.36C131.96 149.56 132.07 149.88 132.22 150.29L132.34 150.64C132.39 150.77 132.43 150.9 132.48 151.04L134.61 157.04C134.78 157.53 134.96 158.04 135.15 158.56L135.59 159.77C135.73 160.18 135.88 160.57 136.02 160.97C136.16 161.37 136.22 161.52 136.32 161.81L137.24 164.34C137.4 164.79 137.56 165.25 137.73 165.7C137.82 165.93 137.9 166.15 137.98 166.38L140.14 172.26C140.34 172.78 140.53 173.26 140.72 173.81C140.84 174.14 140.97 174.47 141.09 174.81C141.21 175.15 141.3 175.35 141.4 175.63C143 179.85 144.4 183.46 145.29 185.33L145.49 185.76C145.65 186.07 145.78 186.32 145.89 186.49L145.98 186.62C145.98 186.67 146.05 186.69 146.08 186.69H146.13L146.32 186.61C146.488 186.598 146.657 186.629 146.81 186.7C147.566 187.037 148.272 187.474 148.91 188L149.5 188.44C149.7 188.61 149.9 188.75 150.09 188.92L150.68 189.4C150.87 189.56 151.05 189.71 151.23 189.88L151.75 190.32L151.85 190.42C152.69 191.16 153.28 191.71 153.28 191.71L149.2 194.2Z" fill="#DB9058"/>
<path d="M25.2499 180.38L25.9899 195.08L25.1199 194.6L24.8099 194.44C24.5487 194.278 24.2782 194.131 23.9999 194L23.8099 193.92C23.705 193.867 23.5943 193.827 23.4799 193.8C23.2799 193.73 23.1499 193.73 23.1199 193.8C23.0899 193.87 22.9999 195.34 22.9999 197C22.9999 198.84 22.9999 201 22.9999 201.95L22.3399 201.58L15.4399 197.76C15.4399 197.76 15.7299 190.7 15.9899 184.16C16.0599 182.16 16.14 180.28 16.2 178.64L17.5699 167C17.5699 166.95 17.5099 166.92 17.4899 166.88C17.5699 166.38 17.6699 165.88 17.7599 165.28C19.6999 154.09 23.0999 135.39 23.0999 135.39L27.1899 139.76L28.1899 139.44L29.1199 139.14L31.7899 138.3C32.8599 137.95 33.9399 137.63 34.8499 137.36L24.2 159.72L24.7899 171.4V171.47L25.0399 176.25L25.0999 177.45L25.2399 180.31L25.2499 180.38Z" fill="#DB9058"/>
<path d="M161.8 196.82L151.89 205.31L151.59 205.54L149.45 207.39V207.27L149.2 194.2L153.31 191.68C153.31 191.68 152.72 191.13 151.88 190.39C151.69 190.21 151.48 190.03 151.26 189.85C151.04 189.67 150.9 189.53 150.71 189.37C150.52 189.21 150.32 189.04 150.12 188.89C149.92 188.74 149.73 188.58 149.53 188.41L148.94 187.97C148.302 187.444 147.595 187.007 146.84 186.67C146.767 186.636 146.69 186.612 146.61 186.6C146.55 186.593 146.49 186.593 146.43 186.6C146.404 186.59 146.376 186.59 146.35 186.6V186.6C146.314 186.596 146.278 186.601 146.245 186.615C146.211 186.629 146.182 186.651 146.16 186.68V186.68H146.11C146.07 186.669 146.034 186.644 146.01 186.61L145.88 186.42C145.83 186.35 145.77 186.24 145.71 186.14L145.65 186.03L145.49 185.72L145.29 185.29C145.04 184.74 144.73 184.03 144.38 183.21C144.29 182.98 144.2 182.75 144.1 182.52L143.92 182.06C143.83 181.86 143.75 181.66 143.67 181.45C143.59 181.24 143.47 180.95 143.37 180.68L142.87 179.42C142.68 178.92 142.48 178.42 142.28 177.9C142.08 177.38 141.9 176.9 141.71 176.4C140.53 173.28 139.23 169.78 137.98 166.34C137.9 166.11 137.82 165.89 137.73 165.66C137.56 165.21 137.4 164.75 137.24 164.3L136.32 161.77C136.07 161.08 135.82 160.4 135.59 159.77L135.15 158.57L134.45 156.57L134.01 155.35L133.6 154.21C133.48 153.84 133.35 153.48 133.23 153.16L132.91 152.25C132.64 151.48 132.4 150.82 132.22 150.25L132.1 149.92C132.1 149.82 132.03 149.72 132 149.63L131.89 149.32L131.84 149.18C131.84 149.09 131.84 149.05 131.78 149.01V148.9L134.73 142.14V142.08V142.01L140.55 128.62V128.54L140.6 128.43V128.49L140.73 128.42L141.1 129.87L151 156.76V156.83L151.82 159.1L160 181.7L161.57 194.58L161.8 196.82Z" fill="#EFB180"/>
<path d="M107.4 110.58C107.4 110.58 108.65 112.72 110.46 115.76L71.52 127.93L68.96 126.93L78.96 122.11L78.67 100.67L94.79 83.3601L94.33 99.6901L114.02 105.19L115.6 105.26L107.4 110.58Z" fill="#A6662E"/>
<path d="M37.8201 166.58L37.7001 167.31L34.0601 189.31L32.8801 207.37L24.8801 202.93L23.1001 201.93C23.1001 200.98 23.1001 198.82 23.1001 196.98V197C23.1001 195.39 23.1001 194 23.1601 193.88C23.2201 193.76 23.3201 193.81 23.5201 193.88C23.6344 193.907 23.7452 193.947 23.8501 194L24.0401 194.08C24.1701 194.13 24.3101 194.2 24.4501 194.27C24.5901 194.34 24.9501 194.52 25.1801 194.65L25.5201 194.83L25.8201 195L25.9601 195.08L26.0501 195.13L25.3101 180.43L25.1701 177.58L25.1101 176.38L25.0001 174.29V174.01L24.8801 171.67V171.53L24.2901 159.85L34.9201 137.5C35.6184 137.262 36.3338 137.078 37.0601 136.95L35.5301 139.07L31.5301 151.12L30.8601 152.34L37.8601 166.68L37.8201 166.58Z" fill="#EFB180"/>
<path d="M75.9399 51.72L72.8999 47.23L61.5099 42.71H60.8299L60.6499 42.07L55.6899 31.78L71.6599 39.4L74.95 44.91L75.9399 51.72Z" fill="#69BE6A"/>
<path d="M82.2599 40.01L76.9599 48.27L74.9299 44.88L71.6299 39.37L71.9799 34.75L75.7499 33.23L81.6399 35.42L82.2599 40.01Z" fill="#26342E"/>
<path d="M119.84 90.5699L114.02 105.19L94.3401 99.6899L94.8001 83.3599V83.3499L95.0201 79.9699L99.7701 73.4899L104.79 57.6999V68.6399L107.4 66.6499L112.56 51.6899L119.84 90.5699Z" fill="#414141"/>
<path d="M104.79 57.7001L99.77 73.4901L95.02 79.9701L83.15 88.1901H78.03V78.2401L81.99 77.6601L86.13 73.3901L90.26 68.6401L86.13 72.0001L78.03 73.3901V66.6501L82.26 62.2901L101.48 56.1201L104.79 57.7001Z" fill="#A6662E"/>
<path d="M90.2599 68.6399L86.1299 73.3899L81.9999 77.6599L78.0399 78.2399L73.7199 76.8499L70.6099 71.9999L76.3599 74.9799L80.4299 74.5499L86.1299 71.9999L90.2599 68.6399Z" fill="#A86739"/>
<path d="M86.1299 72L80.4299 74.55L76.3599 74.98L70.6099 72L78.0399 73.39L86.1299 72Z" fill="#9D5C27"/>
<path d="M81.9901 61.0499H78.3501L79.6101 55.4399L81.9901 61.0499Z" fill="#3D6C45"/>
<path d="M82.2599 62.2899L77.9999 66.6499C77.9999 66.6499 74.4799 62.6499 73.9999 62.6499L64.7499 55.7399C66.7499 54.5999 72.9299 51.1999 73.3399 51.1999L61.4299 42.6799L72.8299 47.1999L75.8299 51.6799L74.8299 44.8699L76.8299 48.2599L77.6199 54.1199L77.4299 63.2999L82.2599 62.2899Z" fill="#3D6C45"/>
<path d="M60.58 62.7899L55.91 70.1699L50.28 73.9999C50.28 73.9999 55.28 63.9999 54.89 63.2499C54.5 62.4999 53.39 48.2499 53.39 47.3299C53.39 46.6199 55.04 39.9199 55.67 37.3899C55.67 41.0699 55.67 45.3299 55.67 46.0199C56.2693 49.1966 57.0303 52.3407 57.95 55.4399L58.65 57.9399L60.56 62.5299L60.58 62.7899Z" fill="#50493F"/>
<path d="M101.33 47.2099V50.4099L93.0001 56.1199L82.3101 51.5399C82.9401 51.5399 95.8801 42.6899 95.8801 42.6899L101.33 47.2099Z" fill="white" stroke="#221F1F" stroke-linejoin="round"/>
<path d="M73.3901 51.2101C72.9801 51.2101 66.83 54.6101 64.8 55.7501L64.1401 56.1201L57.0601 47.8801L60.1601 42.8801L60.6201 42.0601L73.3901 51.2101Z" fill="white" stroke="#221F1F" stroke-linejoin="round"/>
<path d="M79.26 219.51L79 238.88L69.31 243.28C69.31 243.28 69.31 228 69.31 227.28C69.31 227.28 69.2 227.28 69.09 227.28L68.94 227.36L68.75 227.47C66.41 228.82 57.7 235.67 57.7 235.67C57.7 235.67 57.6 235.58 57.41 235.44L56.52 219.44V215.72H56.73C57.82 216.99 59.97 219.45 60.34 219.45L79.26 219.51Z" fill="#26342E"/>
<path d="M130.67 267.42L116.28 354.88L102.2 356.27L77 274C77 274 87.75 265.2 98.51 256.54L105.23 251.15C104.92 258.86 103.28 293.34 103.28 293.34C103.28 293.34 115.98 321.5 116.34 320.94C116.7 320.38 130.24 269 130.67 267.42Z" fill="#26342E"/>
<path d="M47.2401 510.59L19.6501 512.17C19.6501 512.17 9.65007 513.38 8.85007 513.17L0.0500488 511L0.820068 507.62L14.6801 508.32H15.1301L25.9401 509L39.8101 505.82L40.3501 505.7H40.5101C40.8701 505.61 46.7401 504.04 46.9201 504.09C47.1601 507.71 47.2401 510.59 47.2401 510.59Z" fill="#26342E"/>
<path d="M25.8799 508.89L39.8599 505.87L25.9799 509.05L15.17 508.37L14.7199 508.34H14.7099L14.6799 508.33L14.9799 508.34L25.8799 508.89Z" fill="#181E4D"/>
<path d="M47.0001 504.08C46.8201 504.03 40.9501 505.6 40.5901 505.69L40.5401 505.56V505.42L40.2201 504.5C40.1301 504.25 40.0301 503.97 39.9101 503.66C39.7901 503.35 39.6801 503.01 39.5401 502.66L39.3801 502.24C39.3301 502.08 39.2701 501.91 39.2001 501.74L38.4401 499.74C38.3601 499.53 38.2801 499.31 38.1901 499.09C37.9001 498.33 37.6001 497.54 37.2901 496.75L36.7901 495.41C36.3601 494.31 35.94 493.22 35.55 492.2L35.1201 491.12C34.7201 490.12 34.36 489.12 34.05 488.39C34.0194 488.285 33.9827 488.181 33.9401 488.08L33.7901 487.7C33.7301 487.54 33.6701 487.39 33.6301 487.27L33.4901 486.93C33.3801 486.62 33.3101 486.46 33.3101 486.46L33.4401 485.68V486.68H45.9201C46.0001 486.66 46.8601 497.87 47.0001 504.08Z" fill="#26342E"/>
<path d="M39.45 472.82H39.21V472.32L39.45 472.82Z" fill="#253B7D" stroke="#9BB7C7" stroke-miterlimit="10"/>
<path d="M40.43 505.74L39.89 505.86L26 509.05L15.19 508.37H14.74L6.23999 504.12L24.65 494.7L27.09 496.39L27.96 496.99L28.59 497.42L29.42 498C33.61 500.9 39.32 504.87 40.43 505.74Z" fill="#3D6B4D"/>
<path d="M14.7101 508.34L0.820068 507.63L6.17007 504.09H6.18005L14.7101 508.34Z" fill="#69BE6A"/>
<path d="M136.44 501.49L119.24 495.69L118.69 486.3L118.75 486.66H131.07L136.44 501.49Z" fill="#26342E"/>
<path d="M139.83 509.79L121.76 509.44C121.76 509.44 119.28 501.89 119.28 501.57V495.94V495.69L136.48 501.49L139.83 509.79Z" fill="#3D6B4D"/>
<path d="M141 512.6L130.86 516H121.86L117.62 510.56L119.26 501.88V501.56C119.26 501.88 121.74 509.43 121.74 509.43L139.81 509.78L141 512.6Z" fill="#26342E"/>
<path d="M40.6299 505.69H40.4699L29.4699 497.9L28.64 497.32L28.0099 496.89L27.14 496.29L24.7 494.6L33.3999 486.38C33.3999 486.38 33.4699 486.54 33.5799 486.85L33.7199 487.19C33.7199 487.31 33.8199 487.46 33.8799 487.62L34.0299 488C34.0726 488.101 34.1093 488.204 34.14 488.31L39.4699 502.18L39.6299 502.6L40.6299 505.3C40.6299 505.3 40.6299 505.51 40.6799 505.55C40.7299 505.59 40.6199 505.65 40.6299 505.69Z" fill="#69BE6A"/>
<path d="M55 104.44L45.1 114.13L41.81 117.33C41.81 117.33 41.66 118.07 41.4 119.27C40.35 124.18 37.59 136.77 37.02 136.77C36.2914 136.908 35.5731 137.095 34.87 137.33C31.98 138.18 27.23 139.74 27.23 139.74L23.15 135.37L19.22 121.26L25.47 129.03L37.13 116.55L47.46 108.24L40 99.3301L43.93 100.67L55 104.44Z" fill="#26342E"/>
<path d="M20.66 255.07C20.66 255.07 14.01 259.15 13.9 259.64C13.79 260.13 4.99003 252.17 3.95003 251.22C3.64003 257.41 4.11 281.48 4.11 281.48L5.84001 282.92L16.84 279.13L25.41 269.79L20.66 255.07ZM5.84001 279.3L6.84001 262.87L9.58 276.36L5.84001 279.3Z" fill="#69BE6A"/>
<path d="M17.7 199L15.57 218.76L13.57 203.71L11 199.1C11 199.01 11 198.96 11 198.96L15.47 197.76L17.7 199Z" fill="#69BE6A"/>
<path d="M15.6301 250.7L20.6301 255.07C20.6301 255.07 13.9801 259.15 13.8701 259.64C13.7601 260.13 4.96013 252.17 3.92013 251.22C3.90616 250.745 3.96001 250.27 4.0801 249.81C4.6601 248.89 10.6401 202.03 11.0101 199.1L13.5301 203.67L15.5301 218.72L13.8601 234.26L21.0001 244.44L10.2501 246.75L6.82012 250.7H15.6301Z" fill="#26342E"/>
<path d="M33.9299 209.74L20.9899 244.44L13.8999 234.26L17.6999 198.96L32.8799 207.38L33.9299 209.74Z" fill="#3D6B4D"/>
<path d="M20.1301 253.46L20.6601 255.07L15.6301 250.7H6.81006L10.2401 246.75L20.9901 244.44L20.1301 253.46Z" fill="#3D6B4D"/>
<path d="M27.9001 289.01H13.1401L5.84009 282.92L16.8601 279.13L25.4301 269.79L27.6101 276.46L27.9001 289.01Z" fill="#26342E"/>
<path d="M107.16 173.45C107.16 173.45 101.82 190.77 101.78 190.77C101.805 190.862 101.825 190.956 101.84 191.05C100.47 189.05 97.84 185.17 97.45 185.17C97.06 185.17 91.27 182.73 88.64 181.73C88.6343 181.694 88.6343 181.657 88.64 181.62C89.09 179.52 89.38 178.1 89.38 178.1L91.97 179.2L96.53 167.55L103.16 158.27L108.03 153.55L116.24 145.55L119.8 148.13L107.16 173.45Z" fill="#26342E"/>
<path d="M108.05 153.55L103.18 158.27L96.5501 167.55L92.0001 179.2L89.4101 178.1L70.6701 170.1L56.5401 177.49L54.9901 178.3L46.2301 165.01L40.8901 161.21L52.1401 164.1L63.4001 146.66L70.1801 161.34L75.3301 149.08C75.3301 149.08 89.5301 162.51 89.8801 162.35C90.2301 162.19 107.52 153.81 108.05 153.55Z" fill="#3D6B4D"/>
<path d="M89.4 178.1C89.4 178.1 89.11 179.52 88.66 181.62C88.6544 181.656 88.6544 181.693 88.66 181.73C87.36 187.73 84.76 199.13 83.74 198.96C82.37 198.72 69.36 193.26 69.36 193.26L57.92 199L56.53 177.57L70.66 170.18L89.4 178.1Z" fill="#6DB359"/>
<path d="M116.28 145.58L108.07 153.58C107.54 153.84 90.2601 162.26 89.9001 162.42C89.5401 162.58 75.3301 149.15 75.3301 149.15L89.7401 139.81C89.7401 139.81 102.37 135.44 103 135.92C103.41 136.23 111.47 142.09 116.28 145.58Z" fill="#69BE6A"/>
<path d="M48.54 253.53L37.54 241.77L44.61 225.6C45.04 225.9 45.61 226.35 46.36 226.89L48.54 253.53Z" fill="#26342E"/>
<path d="M57.7101 235.71C57.7101 235.71 50.3301 229.89 46.3501 226.89C45.6401 226.35 45.0301 225.89 44.6001 225.6L50.8001 211.42L56.5301 219.51L57.7101 235.71Z" fill="#6DB359"/>
<path d="M69.34 243.28L57.71 235.71C59.57 234.21 67.15 228.4 68.95 227.4L69.1 227.32C69.21 227.32 69.28 227.26 69.32 227.32C69.36 227.38 69.32 227.32 69.32 227.32C69.38 228 69.34 243.28 69.34 243.28Z" fill="#6DB359"/>
<path d="M110.33 225.13L106.39 226.48L83.73 234.26V219.51L105.32 209.74L110.33 225.13Z" fill="#6DB359"/>
<path d="M116.28 354.88C116.28 354.88 111.28 375.47 111.05 376.35C110.82 377.23 102.2 356.27 102.2 356.27L116.28 354.88Z" fill="#B6C158"/>
<path d="M78.34 305.65C78.6 304.28 63.87 357.07 63.87 357.07L57.54 363.07C57.54 363.07 61.33 353.96 61.54 353.17C61.75 352.38 75.88 301.46 75.88 301.46C75.88 301.46 66.51 298.02 68.18 298.28C70.7649 298.414 73.3551 298.414 75.94 298.28L81.01 296.75L93.38 361.07C93 359.48 78.08 307 78.34 305.65Z" fill="#26342E"/>
<path d="M124.33 353.77L130.68 267.38L116.29 354.84C116.29 354.84 111.29 375.43 111.06 376.31C110.83 377.19 102.21 356.23 102.21 356.23L77 274C77 274 87.75 265.2 98.51 256.54L106.35 226.54L83.69 234.32V236.81L79 238.88L69.31 243.28L57.85 235.82L57.39 235.48C55.97 234.36 49.83 229.48 46.32 226.89L48.51 253.53L50.51 255.66L69.32 275.73L53.1 361.14L40.16 353.14L32 283.24L30.59 330.9L34.48 350.11L30.29 376.61L34.48 386.06L33.55 472.82H39.27V415.61C39.27 414.46 57.39 375.03 57.39 375.03L65.77 393.9L46.68 472.82H50.45L71.82 391L57.54 363.07C57.54 363.07 61.33 353.96 61.54 353.17C61.75 352.38 75.89 301.46 75.89 301.46C75.89 301.46 66.52 298.02 68.18 298.28C70.7649 298.415 73.3551 298.415 75.94 298.28L81.01 296.75L93.38 361.07V386.25C93.38 386.25 116.61 477.73 117.67 478.56C117.823 478.651 117.993 478.709 118.17 478.73C120.256 478.952 122.356 479.009 124.45 478.9H125.34L116.39 418.82C116.39 418.82 127.22 382.82 127.22 382.13C127.22 381.44 132.46 385.55 132.46 385.55L130.63 478.68C131.28 478.68 131.78 478.61 132.01 478.61L132.23 476.9C132.61 464.12 135 384.28 135.97 384.03C136.94 383.78 124.33 353.77 124.33 353.77ZM34.38 371.7L37.9 354.88C38.9 355.31 48.67 365.63 48.67 365.63L34.38 371.7Z" fill="#3D6B4D"/>
<path d="M120 239.85C118.9 240.37 112.66 245.24 105.27 251.13L98.55 256.52L106.39 226.52L110.33 225.17L119.6 238.86L120 239.85Z" fill="#26342E"/>
<path d="M130.68 267.38C130.25 268.99 116.74 320.32 116.39 320.88C116.04 321.44 103.33 293.28 103.33 293.28C103.33 293.28 104.97 258.8 105.28 251.09C112.67 245.2 118.91 240.33 120.01 239.81L130.68 267.38Z" fill="#6DB359"/>
<path d="M167.52 204.17C167.33 204.39 160.12 212.49 153.74 219.51V249.75L150.13 256.48L144.66 249.33L132.77 263.62L133.19 271.13H139.64V282.92L150.72 285.69L161.81 279C161.81 279 161.55 246.84 161.81 245.74C162 244.92 165.78 217.12 167.52 204.17ZM150.72 281L152.53 273.94V261.86L155.89 276.36L150.72 281Z" fill="#3D6B4D"/>
<path d="M161.81 279.02L158.91 286.44L143.07 293.32L134.36 291.67L133.19 271.13H139.64V282.92L150.72 285.69L161.81 279.02Z" fill="#26342E"/>
<path d="M153.74 219.51V249.75L150.13 256.48L144.66 249.33L137.52 216.61C137.52 216.61 143.84 229.07 144.05 229.7C144.14 230 148.68 225.09 153.74 219.51Z" fill="#69BE6A"/>
<path d="M168.41 197.64C168.41 197.64 168.06 200.21 167.53 204.16C167.34 204.38 160.13 212.48 153.75 219.5C148.69 225.08 144.15 229.97 144.06 229.69C143.85 229.06 137.53 216.6 137.53 216.6L139.65 215.78L149.47 207.37L161.82 196.8C161.82 196.8 164.99 194.33 165.82 193.51C166.65 192.69 168.41 197.64 168.41 197.64Z" fill="#26342E"/>
<path d="M132.52 385.55L130.69 478.68C129.38 478.75 127.41 478.84 125.4 478.9L116.45 418.82C116.45 418.82 127.28 382.82 127.28 382.13C127.28 381.44 132.52 385.55 132.52 385.55Z" fill="#26342E"/>
<path d="M112.56 119.28L78.7399 130.45L69.2999 144L60.2199 129.11L41.3599 119.37C41.6199 118.18 41.7699 117.44 41.7699 117.44L45.0599 114.23C44.7499 114.69 45.0599 117.65 45.0599 117.65L68.9999 127L71.5599 128L110.5 115.83L112.56 119.28Z" fill="#26342E"/>
<path d="M83.73 219.51V234.26V236.75L79 238.88L79.23 219.51H60.35C59.98 219.51 57.83 217.05 56.74 215.78L83.74 214.62V219.51H83.73Z" fill="#6DB359"/>
<path d="M52.14 294.77C52.14 294.77 41.6999 320.18 41.5299 319.31C41.3599 318.44 32.62 285.56 31.95 283.07V282.17L36.8399 243.29L37.4999 241.78L48.4999 253.54L50.4999 255.67L52.14 294.77Z" fill="#6DB359"/>
<path d="M69.34 275.73L53.1 361.14L40.16 353.14L32 283.24V283.07C32.67 285.56 41.41 318.47 41.58 319.31C41.75 320.15 52.19 294.77 52.19 294.77L50.58 255.66L69.34 275.73Z" fill="#26342E"/>
<path d="M48.6699 365.63L34.3799 371.7L37.8999 354.88C38.9299 355.31 48.6699 365.63 48.6699 365.63Z" fill="#B6C158"/>
<path d="M155.89 276.36L150.72 281.04L152.53 273.98V261.86L155.89 276.36Z" fill="#26342E"/>
<path d="M9.55008 276.36L5.84009 279.3L6.81009 262.88L9.55008 276.36Z" fill="#26342E"/>
<path d="M65.72 393.9L46.63 472.82H39.45L39.21 472.32V415.61C39.21 414.46 57.33 375.03 57.33 375.03L65.72 393.9Z" fill="#26342E"/>
<path d="M50.4099 472.82L45.8999 486.66H33.4099L33.4199 485.66L33.5099 472.82H50.4099Z" fill="#444C44"/>
<path d="M132.08 478.61L131.08 486.61H118.75L118.68 486.25L118.24 478.71C120.322 478.932 122.419 478.989 124.51 478.88C126.82 478.82 129.19 478.7 130.68 478.63C131.34 478.64 131.84 478.61 132.08 478.61Z" fill="#444C44"/>
<path d="M147.68 108.5L107.31 110.61L115.53 105.29L126.54 98.6301L128.73 97.3201L147.68 108.5Z" fill="#69BE6A"/>
<path d="M147.68 108.51L140.89 128.26V128.39L125.35 128.59L125.16 128.4L107.4 110.66L147.68 108.51Z" fill="#26342E"/>
<path d="M43.6701 108.28L27.3201 106.24L39.9601 99.3401L43.6701 108.28Z" fill="#26342E"/>
<path d="M47.42 108.28L37.0799 116.59L25.4299 129.07L19.1799 121.3L27.3199 106.24L43.67 108.28L39.9599 99.3401L47.42 108.28Z" fill="#69BE6A"/>
<path d="M81.64 35.4199L97.45 26.9099L75.75 33.2299L81.64 35.4199Z" fill="#3D6C45"/>
<path d="M79.25 65.3901L101.48 56.1201L104.43 59.0701L104.79 57.7001L101.48 56.1201L82.26 62.2901L79.25 65.3901Z" fill="#BB7644"/>
<path d="M76.96 65.4601L60.77 58.6101L74.05 62.6601L76.96 65.4601Z" fill="#9A5124"/>
<path d="M95.0201 79.97L85.0701 88.81L83.1401 89.75L79.3301 88.87L77.8301 88.4L83.1501 88.19L95.0201 79.97Z" fill="#9A5124"/>
<path d="M67.97 81.35L77.83 88.3999L67.97 80.21V81.35Z" fill="#9A5124"/>
<path d="M68 80.21C68 80.37 78.06 88.21 78.06 88.21H83.19L83.02 88.8999L77.86 88.42C77.86 88.42 69.58 82.2399 69.53 82.2599C69.48 82.2799 68 80.21 68 80.21Z" fill="#9A5124"/>
<path d="M75.75 33.23C75.75 33.23 70.68 24.66 70.61 23.9C70.54 23.14 80.17 5.75 80.17 5.75C80.17 5.75 75.17 21.44 75.39 21.63C75.61 21.82 81.01 31.16 81.01 31.16L75.75 33.23Z" fill="#282A2A"/>
<path d="M103.57 7.19011C102.94 7.01011 95.02 10.6201 95.02 10.6201C95.02 10.6201 88.6 27.1401 88.88 26.9101C89.16 26.6801 96.22 12.1401 96.22 12.1401L103.57 7.19011Z" fill="#282A2A"/>
<path d="M46.6099 25.8099L62.7099 17.0499L71.6299 19.4899L61.6299 5.15991L46.6099 25.8099Z" fill="#282A2A"/>
<path d="M98.55 369.13C99.07 370.05 113.46 408.01 113.46 408.01L97.24 386.88L98.55 369.13Z" fill="#B6C158"/>
<path d="M48.67 371.7L35.95 376.38L39.2099 415.61L57.3299 375.03L48.67 371.7Z" fill="#B6C158"/>
<path d="M57.88 235.82L52.47 257.72L69.34 275.73L67.18 287.06L74.47 289.01L81.12 287.31L77.04 273.98L93.43 260.65L102.2 227.27L83.73 234.26L83.72 236.75L69.34 243.28L57.88 235.82Z" fill="#69BE6A"/>
<path d="M132.16 150.27L130.64 149.76L131.16 148.76L134.69 142.13V142.07V142L141.14 129.86L151 156.76V156.83C147.25 155.51 136.22 151.68 132.16 150.27Z" fill="#3D6B4D"/>
<path d="M161.53 194.58L151.88 190.39L145.05 187.39L145.13 187.07L145.46 185.7L145.55 185.29L151.83 159.1L160 181.7L161.53 194.58Z" fill="#6DB359"/>
<path d="M145.16 188.22C145.8 191.95 148.35 206.91 148.38 208.13C148.375 208.207 148.355 208.282 148.32 208.35C147.71 209.72 142.32 213.76 139.85 215.59L139.76 215.66C139.74 215.665 139.72 215.665 139.7 215.66C139.7 215.66 139.65 215.66 139.63 215.71L142 188.39V188.13L139.7 184.95L135.14 178.66L121.49 151.46L121.43 151.34C124.3 150.54 130.48 148.84 131.15 148.76C131.346 148.79 131.54 148.833 131.73 148.89C131.73 148.89 146.91 155.04 150.93 156.76V156.83L151.75 159.1L145.47 185.29L145.38 185.7L145.05 187.07L144.97 187.39L145.16 188.22Z" fill="#69BE6A"/>
<path d="M161.8 196.82L151.89 205.31L151.59 205.54L149.45 207.27L148.38 208.13L145.16 188.22L145.02 187.39L151.85 190.39L161.5 194.58L161.8 196.82Z" fill="#3D6B4D"/>
<path d="M150.3 184.85L146.3 186.56L146.11 186.64H146.06L145.11 187.05L142 188.39V188.13L139.7 184.95C141.97 185.12 144.39 185.23 145.22 185.27H145.51L150.3 184.85Z" fill="#2B0C38"/>
<path d="M141.22 129.83L134.77 142V142.07V142.13L131.24 148.76L121.58 151.46L119.92 148.15L121.42 142.7L123.21 135.91H123.27L123.43 135.84L123.83 135.66L124.12 135.53L124.54 135.35L124.75 135.27L125.12 135.1L125.68 134.86L126.02 134.72L128.02 133.86L135.91 130.47L137.21 129.91L140.26 128.6L140.59 128.46H140.67H140.72L140.92 128.35V128.48L141.22 129.83Z" fill="#26342E"/>
<path d="M37.1501 136.58L35.4901 139.28L32.4401 150.94L31.7701 152.17C31.7701 152.17 38.4501 165.91 37.7701 166.63C37.0901 167.35 25.6801 177 25.6801 177L21.55 150.91L27.1901 139.75L37.1501 136.58Z" fill="#3D6B4D"/>
<path d="M25.6701 177L25.0901 177.43L16.0901 184.13C16.1601 182.13 16.2401 180.25 16.3001 178.61L17.5701 167L17.7601 165.28C19.7001 154.09 23.1001 135.39 23.1001 135.39L27.1901 139.76L21.5501 151L24.7901 171.45V171.52L25.6701 177.05V177Z" fill="#69BE6A"/>
<path d="M37.7699 166.64L37.7 167.31L34.0599 189.31L32.8799 207.37L24.8799 202.93L23.0999 201.93L22.4399 201.56C22.4399 201.56 22.4899 201.23 22.5599 200.63C22.5599 200.43 22.6199 200.2 22.6499 199.95C22.6799 199.7 22.7099 199.54 22.7399 199.3C22.8299 198.63 22.9299 197.85 23.0499 196.98V197C23.0499 196.81 23.0499 196.63 23.1299 196.43C23.2099 196.23 23.2199 195.77 23.2599 195.43C23.2544 195.347 23.2544 195.263 23.2599 195.18L23.4299 193.87C23.4999 193.33 23.5699 192.77 23.6499 192.19L23.7999 191.06C24.0199 189.36 24.2599 187.61 24.4799 185.93C24.5299 185.6 24.5699 185.25 24.6199 184.93C24.6699 184.61 24.6699 184.48 24.7099 184.25C24.7699 183.74 24.8399 183.25 24.8999 182.76C24.9599 182.27 24.9899 182.12 25.0299 181.76C25.0699 181.4 25.1099 181.15 25.1499 180.87C25.1499 180.77 25.1499 180.69 25.1499 180.6V180.38L25.2399 179.66L25.3299 178.96C25.3299 178.74 25.3799 178.54 25.4099 178.35L25.4799 177.85C25.5499 177.34 25.5899 177.03 25.5899 177.03L25.7199 176.92C25.7999 176.85 25.9199 176.74 26.0699 176.63C28.1599 174.79 36.4099 167.63 37.5699 166.72H37.6199C37.6199 166.72 37.7599 166.64 37.7699 166.64Z" fill="#69BE6A"/>
<path d="M25.6899 177C25.6899 177 25.6899 177.31 25.5799 177.82C25.5799 177.98 25.5299 178.13 25.5099 178.32C25.4899 178.51 25.4599 178.71 25.4299 178.93C25.3999 179.15 25.3699 179.38 25.3399 179.63C25.3099 179.88 25.2799 180.06 25.2399 180.3C25.2399 180.4 25.2399 180.47 25.2399 180.55C25.2399 180.63 25.2399 180.72 25.2399 180.82C25.2399 181.1 25.1599 181.4 25.1199 181.71C25.0799 182.02 25.0299 182.34 24.9899 182.71C24.9499 183.08 24.8599 183.71 24.7999 184.2C24.7999 184.43 24.7299 184.65 24.7099 184.88C24.6899 185.11 24.6199 185.55 24.5699 185.88C24.3499 187.56 24.1099 189.31 23.8899 191.01L23.7399 192.14C23.6599 192.72 23.5899 193.28 23.5199 193.82L23.3499 195.13C23.3443 195.213 23.3443 195.297 23.3499 195.38C23.3499 195.71 23.2599 196.05 23.2199 196.38C23.1799 196.71 23.1699 196.77 23.1399 196.95V197C23.0199 197.87 22.9199 198.65 22.8299 199.32C22.8299 199.56 22.7699 199.77 22.7399 199.97C22.7099 200.17 22.6799 200.45 22.6499 200.65C22.5799 201.25 22.5299 201.58 22.5299 201.58L15.6299 197.76C15.6299 197.76 15.9199 190.7 16.1799 184.16C16.2499 182.16 16.3299 180.28 16.3899 178.64L17.5699 167C18.6399 168.53 23.3099 174.15 25.0399 176.24L25.6699 176.98L25.6899 177Z" fill="#26342E"/>
<path d="M140.85 128.39C140.85 128.39 140.85 128.39 140.73 128.45L140.63 128.5C140.569 128.516 140.511 128.543 140.46 128.58C138.76 129.28 132.46 131.94 127.95 133.84L125.95 134.7L125.61 134.84L125.05 135.08L124.68 135.25L124.47 135.33L124.05 135.51L123.76 135.64L123.36 135.82L123.2 135.89C122.65 135.89 116.96 126.58 112.56 119.25L110.46 115.76C108.81 112.99 107.62 110.95 107.46 110.63L125.25 128.42L140.85 128.39Z" fill="#69BE6A"/>
<path d="M63.39 146.7L52.13 164.14L40.88 161.25L38.8 159.79L31.46 151L35.45 138.94L38.75 135.46L52.87 136.08L63.39 146.7Z" fill="#69BE6A"/>
<path d="M105.32 209.74L83.7301 219.51V214.62L56.5401 215.79V219.51L50.8101 211.42L48.0901 176.72L39.6601 170.3L37.8401 166.59L30.8401 152.24L31.5101 151.02L38.8501 159.81L40.9301 161.27L46.2701 165.07L55.0001 178.34L56.5501 177.53L57.9201 199L69.3401 193.3C69.3401 193.3 82.3401 198.76 83.7201 199C84.7201 199.17 87.3401 187.78 88.6401 181.77C91.2701 182.77 97.0201 185.21 97.4501 185.21C97.8801 185.21 100.45 189.06 101.84 191.09C102.29 193.36 105.32 209.74 105.32 209.74Z" fill="#26342E"/>
<path d="M123.22 135.89L119.84 148.16L116.28 145.58C111.47 142.09 103.41 136.23 102.98 135.89C102.35 135.41 89.7199 139.78 89.7199 139.78L75.3099 149.12L70.17 161.38L63.39 146.7L52.8699 136.08L38.7499 135.46L35.45 138.93L36.9799 136.81C37.5499 136.81 40.3099 124.22 41.3599 119.31L60.2199 129.06L69.2999 144L78.7399 130.46L112.56 119.28C117 126.67 122.78 136.12 123.22 135.89Z" fill="#6DB359"/>
<path d="M110.86 157.92C110.74 158.36 100.21 171.28 100.21 171.28L100.05 176.28" fill="#6DB359"/>
</svg>
