<svg width="162" height="515" viewBox="0 0 162 515" fill="none" xmlns="http://www.w3.org/2000/svg">
<path d="M123.65 102.31L116 104.06L114.41 103.98L120.22 89.37L112.94 50.49L107.78 65.49L105.17 67.49V56.5L101.68 42L99.1401 31.32L97.8101 25.75L76.1001 32L60.0001 24.61L56.0001 30.55C56.0001 30.55 56.0001 33.18 56.0001 36.19C55.3701 38.72 53.7101 45.42 53.7101 46.13C53.7101 47.02 54.8401 61.3 55.2101 62.04C55.5801 62.78 50.6001 72.8 50.6001 72.8L56.2401 68.97L60.9001 61.59L63.5601 71.7L68.8701 78.43L68.3 99.17L56.0001 103.47L55.3201 103.24L46.1501 100.46L43.3201 62.46L47.0001 24.61L62.0001 5.69L80.4601 0.230003L101.84 7.23L116.2 32L119.14 53.14L117.86 56.2L123.55 85.73L123.65 102.31Z" fill="#594422"/>
<path d="M53.67 45.29L49.45 60.55L48.3599 57.41L46.45 65.26L51.2799 101.86C51.2799 101.86 60.4799 94.75 61.1299 93.86C61.7799 92.97 59.4799 69.19 59.4799 69.19L56.8199 53.43L53.67 45.29Z" fill="#392317"/>
<path d="M53.36 71L54.36 79.06L52.55 83.57L51.26 101.91C51.26 101.91 62.48 109.06 62.79 108.91C63.1 108.76 70.79 105.7 70.94 105.29C71.09 104.88 74.94 94.56 74.82 92.95C74.7 91.34 74.96 77.38 74.39 77.04C73.82 76.7 67.6 70.68 67.2 70.38C66.8 70.08 63.09 61.46 63.09 61.46L59.61 59.34L53.36 71Z" fill="#392317"/>
<path d="M95.3801 78.77L95.1601 82.15L79.0001 99.47L79.2901 120.91L69.2901 125.73L45.4101 116.39C45.4101 116.39 45.0801 113.39 45.4101 112.96L55.3101 103.27L55.9901 103.5L70.7201 98.11L68.8701 78.46L63.5601 71.73L60.9001 61.62V61.36L59.0001 56.74C59.0001 56.74 58.7101 55.74 58.3101 54.23L61.1401 57.41C61.1401 57.41 73.9601 61.46 74.4201 61.46C74.8801 61.46 78.4201 65.46 78.4201 65.46V72.2L71.0001 70.8L74.1101 75.65L78.4301 77.04V87H83.5501L95.3801 78.77Z" fill="#AE7136"/>
<path d="M76.1 32.02L72.33 33.55L71.99 38.17L56.02 30.55L60 24.6L76.1 32.02Z" fill="#E1C252"/>
<path d="M99.1401 31.28L83.9701 38.19L82.6101 38.8L82.0001 34.22L76.1001 32.02L97.8101 25.71L99.1401 31.28Z" fill="#E1C252"/>
<path d="M101.68 42L95.3799 38.84C95.3799 38.84 81.7999 47.59 81.3799 47.92C80.9599 48.25 83.9399 38.23 83.9399 38.23L99.1099 31.32L101.68 42Z" fill="#F2914B"/>
<path d="M101.69 42L95.38 38.85C95.38 38.85 81.81 47.59 81.38 47.92C80.95 48.25 83.94 38.23 83.94 38.23L82.59 38.85L77.29 47.11L78.09 52.97L77.89 62.15L82.59 61.15L101.81 54.98L105.12 56.56L101.69 42ZM78.69 59.89L79.95 54.28L82.33 59.89H78.69ZM101.69 49.25L93.31 54.96L82.62 50.38C83.25 50.38 96.19 41.53 96.19 41.53L101.69 46.05V49.25Z" fill="#F3EB50"/>
<path d="M74.43 61.48C73.97 61.48 61.15 57.48 61.15 57.48L58.32 54.31C57.4003 51.2108 56.6393 48.0667 56.04 44.89C56.04 44.2 56.04 39.95 56.04 36.26C56.04 33.26 56.04 30.62 56.04 30.62L61.04 40.91L61.23 41.56L61.4 42.15L57.48 46.75L64.56 54.99L65.21 54.62L74.43 61.48Z" fill="#F2914B"/>
<path d="M145.7 195.47L145.91 206.18L138.01 212.87L138.26 198.19V198.05L138.44 187.23V186.92L137.19 182.92L135.49 177.48L118.59 148.12V148.05L118 147L118.14 146.5L119.34 142.16L121.34 134.76C122.05 134.39 137.07 129.1 137.07 129.1L134.13 140.2L132.19 147.52L132.1 147.86C132.1 147.86 132.1 147.97 132.15 148.07V148.2C132.15 148.25 132.15 148.31 132.15 148.37C132.15 148.43 132.21 148.62 132.25 148.77L132.38 149.28C132.38 149.46 132.47 149.65 132.53 149.86C132.61 150.14 132.68 150.44 132.76 150.77C132.76 150.82 132.76 150.88 132.76 150.93C132.83 151.19 132.9 151.46 132.97 151.75C133.04 152.04 133.12 152.34 133.2 152.65C133.28 152.96 133.29 153.02 133.34 153.22C133.5 153.83 133.67 154.49 133.84 155.22C133.96 155.67 134.07 156.13 134.2 156.6C134.26 156.85 134.33 157.11 134.39 157.37C134.93 159.44 135.51 161.72 136.12 164.05C136.2 164.34 136.28 164.64 136.35 164.93L137.05 167.58C137.13 167.88 137.21 168.17 137.28 168.46C137.59 169.63 137.91 170.79 138.21 171.93C138.29 172.21 138.37 172.5 138.44 172.78L138.89 174.43C138.97 174.7 139.04 174.97 139.11 175.24C139.77 177.63 140.39 179.78 140.91 181.5C140.97 181.69 141.02 181.87 141.08 182.05C141.21 182.49 141.34 182.9 141.46 183.27C141.58 183.64 141.61 183.71 141.68 183.91L141.8 184.26C141.92 184.59 142.03 184.87 142.11 185.07C142.162 185.192 142.226 185.31 142.3 185.42C142.318 185.451 142.342 185.478 142.37 185.5C142.37 185.5 142.43 185.5 142.45 185.5C142.485 185.464 142.527 185.436 142.574 185.419C142.62 185.402 142.67 185.395 142.72 185.4C142.799 185.387 142.881 185.387 142.96 185.4L143.23 185.49H143.28L143.54 185.62C143.69 185.69 143.85 185.79 144.02 185.89C144.42 186.14 144.87 186.46 145.33 186.81C145.493 186.921 145.65 187.041 145.8 187.17C146.99 188.09 148.2 189.17 148.94 189.83C149.001 189.878 149.058 189.932 149.11 189.99L149.63 190.46L145.65 193V195L145.7 195.47Z" fill="#DC9159"/>
<path d="M36.7501 136.55L35.4301 139.32L26.1301 158.88L26.2401 175.22L26.3601 193.85C25.6758 193.445 24.9716 193.074 24.2501 192.74C23.8401 192.57 23.5201 192.47 23.4801 192.59C23.3601 192.89 23.4301 198.52 23.4801 200.52V200.71L21.6901 199.59L16.8301 196.59C16.8301 196.59 17.3901 188.43 17.8301 181.59C18.1301 176.95 18.3901 172.88 18.3901 172.25C18.3901 171.92 18.7001 169.99 19.1701 167.18C19.9001 162.94 21.0201 156.66 22.0901 150.76C22.2401 149.94 22.3801 149.13 22.5301 148.33C23.8801 140.91 25.0301 134.64 25.0301 134.64L28.4501 138.29L29.1201 139.01C31.4476 137.722 34.0065 136.906 36.6501 136.61L36.7501 136.55Z" fill="#DC9159"/>
<path d="M158.26 195.61L147.26 205L145.92 206.15L145.71 195.44V195V193L149.82 190.47L149.3 190C149.248 189.942 149.191 189.888 149.13 189.84C148.39 189.17 147.18 188.1 145.99 187.18C145.84 187.051 145.683 186.931 145.52 186.82C145.06 186.47 144.61 186.15 144.21 185.9C144.04 185.8 143.88 185.7 143.73 185.63L143.47 185.5H143.42L143.15 185.41C143.071 185.397 142.99 185.397 142.91 185.41C142.86 185.405 142.81 185.412 142.764 185.429C142.717 185.446 142.675 185.474 142.64 185.51C142.64 185.51 142.59 185.51 142.56 185.51C142.532 185.488 142.508 185.461 142.49 185.43C142.416 185.32 142.352 185.202 142.3 185.08C142.18 184.8 142.03 184.41 141.87 183.92C141.8 183.72 141.72 183.51 141.65 183.28C141.58 183.05 141.4 182.5 141.27 182.06C141.21 181.88 141.16 181.7 141.1 181.51C140.58 179.79 139.96 177.64 139.3 175.25C139.23 174.98 139.16 174.71 139.08 174.44L138.63 172.79C138.56 172.51 138.48 172.22 138.4 171.94C138.1 170.8 137.78 169.64 137.47 168.47C137.4 168.18 137.32 167.89 137.24 167.59L136.54 164.94C136.47 164.65 136.39 164.35 136.31 164.06C135.7 161.73 135.12 159.45 134.58 157.38C134.52 157.12 134.45 156.86 134.39 156.61C134.26 156.14 134.15 155.68 134.03 155.23C133.86 154.55 133.69 153.89 133.53 153.23C133.48 153.03 133.44 152.84 133.39 152.66C133.23 152.04 133.08 151.46 132.95 150.94C132.95 150.89 132.95 150.83 132.95 150.78C132.87 150.45 132.8 150.15 132.72 149.87C132.66 149.66 132.61 149.47 132.57 149.29L132.44 148.78C132.44 148.63 132.37 148.49 132.34 148.38C132.31 148.27 132.34 148.26 132.34 148.21V148.08C132.34 147.98 132.34 147.9 132.29 147.87L132.38 147.53L134.32 140.21L137.26 129.11L138.59 132.76L146.04 153.14L146.2 153.58L149.68 163.08L156.61 182.08L157.9 191.52L158.26 195.61Z" fill="#F1B280"/>
<path d="M107.75 109.38C107.75 109.38 109.2 111.47 111 114.5L71.8801 126.73L69.3201 125.73L79.3201 120.91L79.0001 99.47L95.1301 82.16L94.6601 98.49L114.38 104L115.97 104.08L107.75 109.38Z" fill="#C68650"/>
<path d="M36.5599 137L35.4299 139.37L35.8099 137.79L36.6299 136.65V136.57C36.5841 136.5 36.5562 136.42 36.5487 136.336C36.5412 136.253 36.5544 136.169 36.587 136.092C36.6196 136.015 36.6707 135.947 36.7357 135.894C36.8008 135.842 36.8778 135.806 36.9599 135.79H37.0299H37.1099H37.2599L36.64 136.66C36.64 136.66 36.64 136.66 36.64 136.73L36.4599 137.12L36.5599 137Z" fill="#F1B280"/>
<path d="M36.8201 159.91L37.3001 160.84V160.91L36.7701 165.91V166.02L34.4401 188.11L30.9501 204.44L28.4001 203.17L23.4701 200.72V200.53C23.4701 200.14 23.4701 199.61 23.4701 199.01C23.4701 197.1 23.4701 194.47 23.4701 193.26C23.4701 193.1 23.4701 192.97 23.4701 192.86C23.4701 192.75 23.4701 192.74 23.4701 192.69C23.468 192.66 23.468 192.63 23.4701 192.6C23.4701 192.48 23.8301 192.6 24.2401 192.75L24.4601 192.85L24.6901 192.96L24.9301 193.08C25.4101 193.32 25.8801 193.59 26.1401 193.74L26.3001 193.83H26.3501L26.2301 175.2L26.1201 158.86L35.4201 139.3L32.9301 149.75L32.2501 150.97C32.2699 151.015 32.2933 151.059 32.3201 151.1L36.7901 159.81C36.7901 159.81 36.8101 159.9 36.8201 159.91Z" fill="#F1B280"/>
<path d="M76.3 50.51L73.26 46.03L61.86 41.51H61.19L61 40.86L56.04 30.57L72.01 38.2L75.31 43.7L76.3 50.51Z" fill="#F2914B"/>
<path d="M82.61 38.8L77.32 47.06L75.29 43.68L71.99 38.17L72.33 33.55L76.1 32.02L82 34.22L82.61 38.8Z" fill="#F3EB50"/>
<path d="M120.19 89.37L114.38 103.98L92.6299 98.49L95.1599 82.16V82.15L95.3799 78.77L99.0499 72.29L105.14 56.5V67.44L107.75 65.44L112.91 50.49L120.19 89.37Z" fill="#392317"/>
<path d="M105.14 56.5L99.0501 72.29L95.3801 78.77L83.5101 86.99H78.3901V77.04L82.3501 76.46L86.4901 72.19L90.6101 67.44L86.4901 70.8L78.3901 72.19V65.44L82.6101 61.09L101.83 54.91L105.14 56.5Z" fill="#C68650"/>
<path d="M90.62 67.44L86.49 72.19L82.35 76.46L78.39 77.04L74.08 75.65L70.96 70.8L76.71 73.78L80.79 73.35L86.49 70.8L90.62 67.44Z" fill="#A96739"/>
<path d="M86.49 70.8L80.79 73.35L76.71 73.78L70.96 70.8L78.39 72.19L86.49 70.8Z" fill="#9E5C28"/>
<path d="M82.35 59.84H78.71L79.96 54.24L82.35 59.84Z" fill="#F4A54B"/>
<path d="M82.61 61.09L78.3901 65.45C78.3901 65.45 74.8701 61.45 74.3901 61.45L65.1301 54.54C67.1301 53.4 73.3101 50 73.7201 50L61.8201 41.48L73.2301 46L76.2301 50.49L75.2301 43.68L77.2301 47.07L78.0201 52.92L77.83 62.11L82.61 61.09Z" fill="#F3EB50"/>
<path d="M60.9299 61.59L56.2699 69L50.6299 72.83C50.6299 72.83 55.6299 62.83 55.2399 62.07C54.8499 61.31 53.7399 47.07 53.7399 46.16C53.7399 45.45 55.3999 38.75 56.0299 36.22C56.0299 39.9 56.0299 44.15 56.0299 44.85C56.6245 48.0244 57.3856 51.1654 58.3099 54.26C58.7099 55.73 58.9999 56.77 58.9999 56.77L60.9099 61.36L60.9299 61.59Z" fill="#6D542F"/>
<path d="M101.68 46V49.21L93.2999 54.91L82.6099 50.33C83.2499 50.33 96.1899 41.49 96.1899 41.49L101.68 46Z" fill="white" stroke="#231F20" stroke-linejoin="round"/>
<path d="M73.7399 50C73.3299 50 67.1899 53.4 65.1499 54.54L64.4899 54.9L57.4099 46.67L60.5199 41.67L60.9799 40.85L73.7399 50Z" fill="white" stroke="#231F20" stroke-linejoin="round"/>
<path d="M79.6199 218.31L79.3799 237.68L69.6899 242.08C69.6899 242.08 69.6899 226.8 69.6899 226.08C69.6899 226.08 69.5799 226.08 69.4699 226.08L69.3099 226.16L69.1199 226.27C66.7799 227.62 58.1199 234.47 58.1199 234.47L57.8199 234.23L56.9399 218.23V214.5H57.1499C58.2299 215.77 60.3899 218.23 60.7499 218.23L79.6199 218.31Z" fill="#E7C053"/>
<path d="M128.28 266.22L116.63 353.67L102.55 355.07L77.3999 272.78C77.3999 272.78 88.1399 263.98 98.9099 255.32L105.62 249.93C105.31 257.64 103.67 292.11 103.67 292.11C103.67 292.11 116.38 320.28 116.73 319.71C117.08 319.14 127.85 267.83 128.28 266.22Z" fill="#827140"/>
<path d="M47.5999 509.39L19.9999 511C19.9999 511 9.94992 512.21 9.19992 512C8.44992 511.79 0.399902 509.83 0.399902 509.83L1.15991 506.44L15.0299 507.15H15.4899L26.2999 507.83L40.1699 504.65L40.7099 504.53H40.8799C41.2399 504.44 47.1199 502.87 47.2999 502.92C47.5199 506.51 47.5999 509.39 47.5999 509.39Z" fill="#827140"/>
<path d="M26.23 507.69L40.21 504.67L26.34 507.85L15.53 507.17L15.07 507.14L15.04 507.13L15.33 507.14L26.23 507.69Z" fill="#001750"/>
<path d="M47.3999 502.88C47.2199 502.88 41.3399 504.4 40.9799 504.49L40.9299 504.36L40.8799 504.22C40.8099 503.99 40.6999 503.68 40.5599 503.3C40.4199 502.92 40.3799 502.77 40.2599 502.46C40.1399 502.15 40.0299 501.81 39.8899 501.46L39.7299 501.05L39.5399 500.54C39.3133 499.913 39.0633 499.247 38.7899 498.54C38.7099 498.32 38.6199 498.11 38.5399 497.89C38.2499 497.13 37.9499 496.34 37.6399 495.55L37.1299 494.21C36.6999 493.11 36.2799 492.02 35.8899 491L35.4699 489.92C35.0599 488.92 34.6999 487.92 34.3999 487.19C34.366 487.084 34.3259 486.981 34.2799 486.88L34.1399 486.5C34.0699 486.34 34.0199 486.19 33.9699 486.07L33.8299 485.72C33.7199 485.42 33.6499 485.26 33.6499 485.26L33.7799 484.48V485.48H46.2599C46.3399 485.45 47.2199 496.66 47.3999 502.88Z" fill="#FDC050"/>
<path d="M39.8 471.61H39.5701V471.12L39.8 471.61Z" fill="#1C387F" stroke="#9AB8C7" stroke-miterlimit="10"/>
<path d="M40.7901 504.54H40.7401L40.2101 504.67L26.3401 507.85L15.5301 507.17H15.0701L6.56006 502.92L24.9701 493.5L27.4201 495.18L28.2901 495.78L28.9201 496.22L29.7501 496.8C34.0001 499.7 39.6801 503.67 40.7901 504.54Z" fill="#FDC050"/>
<path d="M15.0699 507.14L1.16992 506.42L6.52991 502.88H6.53992L15.0699 507.14Z" fill="#FDC050"/>
<path d="M136.79 500.28L119.6 494.49L119.04 485.1L119.11 485.45H131.43L136.79 500.28Z" fill="#FDC050"/>
<path d="M140.19 508.59L122.11 508.24C122.11 508.24 119.63 500.69 119.63 500.37V494.74V494.49L136.83 500.28L140.19 508.59Z" fill="#F4A54B"/>
<path d="M141.34 511.4L131.22 514.8H122.22L118 509.37L119.63 500.69V500.37C119.63 500.69 122.11 508.24 122.11 508.24L140.19 508.59L141.34 511.4Z" fill="#827140"/>
<path d="M41.0001 504.49H40.83L29.83 496.71L29.0001 496.13L28.3701 495.69L27.5001 495.09L25.05 493.41L33.7501 485.19C33.7501 485.19 33.8201 485.35 33.9301 485.65L34.0701 486C34.1201 486.12 34.1701 486.27 34.2401 486.43L34.3801 486.81C34.4261 486.911 34.4661 487.014 34.5001 487.12L39.7201 501L39.8801 501.41L40.8801 504.12C40.8801 504.17 40.8801 504.32 40.9301 504.37C40.9443 504.415 40.9682 504.456 41.0001 504.49V504.49Z" fill="#F4A54B"/>
<path d="M55.34 103.24L45.44 112.93L42.16 116.14C42.16 116.14 42 116.88 41.75 118.07C40.69 122.99 37.93 135.58 37.36 135.58C37.17 135.58 35.22 136.18 35.22 136.18L29.1 139L25 134.59L23.5 121.59L27.32 128.27L37.42 115.41L47.76 107.1L42.96 101.1L46.1 100.21L55.34 103.24Z" fill="#827140"/>
<path d="M21 253.87C21 253.87 14.35 257.95 14.24 258.44C14.13 258.93 5.32998 250.97 4.28998 250.02C3.97998 256.21 6.02997 279.43 6.02997 279.43L7.75998 280.88L17.2 277.93L24.7 268.54L21 253.87ZM7.75998 277.26L7.14996 261.67L9.88998 275.16L7.75998 277.26Z" fill="#E7C053"/>
<path d="M18.0499 197.76L15.9199 217.52L13.9199 202.52L14.1799 197.75C14.1758 197.703 14.1758 197.657 14.1799 197.61L16.7899 196.61L18.0499 197.76Z" fill="#E7C053"/>
<path d="M16 249.5L21 253.87C21 253.87 14.35 257.95 14.25 258.44C14.15 258.93 5.33998 250.97 4.24998 250.02C4.23987 249.545 4.29369 249.071 4.40998 248.61C4.99998 247.69 13.74 200.61 14.12 197.7L13.86 202.47L15.86 217.47L14.2 233.01L21.29 243.19L10.54 245.5L7.09999 249.45L16 249.5Z" fill="#F3EB50"/>
<path d="M31.99 206.82L21.35 243.24L14.25 233.06L15.93 217.52L18.06 197.76L21.65 199.63L21.73 199.67L23.44 200.57L24.14 200.94L30.93 204.47L30.99 204.6L31.99 206.82Z" fill="#827140"/>
<path d="M20.4899 252.26L21.0099 253.87L15.9899 249.5H7.15991L10.5999 245.55L21.3499 243.24L20.4899 252.26Z" fill="#F4A54B"/>
<path d="M26.58 286.84L13.5 287.81L7.77002 280.87L17.21 277.93L24.71 268.54L26.89 275.22L26.58 286.84Z" fill="#F3EB50"/>
<path d="M107.52 172.25C107.52 172.25 99.68 189.57 99.64 189.57L99.7 189.85C98.33 187.85 98.19 183.97 97.81 183.97C97.43 183.97 91.62 181.53 88.99 180.52V180.41C89.44 178.32 89.73 176.9 89.73 176.9L92.32 178L96.87 166.35L103.5 157.07L108.38 152.34L116.59 144.34C118.67 145.85 117.89 146.91 117.89 146.91L107.52 172.25Z" fill="#E7C053"/>
<path d="M105.68 208.54L84.0901 218.31V213.42L56.9001 214.58V218.31L51.1701 210.22L48.8101 175.11L38.7201 163L37.3 160.89L32.3 151.07L32.9701 149.84L39.2101 158.64L41.2801 160.1L46.6301 163.89L55.3901 177.19L56.9401 176.38L67.6201 191.62C69.0001 187.74 70.3734 183.86 71.7401 179.98L76.7401 190.57L89.0701 180.57C91.7001 181.57 97.4501 184.02 97.8901 184.02C98.3301 184.02 98.4101 187.87 99.7801 189.9C100.15 192.16 105.68 208.54 105.68 208.54Z" fill="#E7C053"/>
<path d="M108.41 152.34L103.53 157.07L96.9 166.35L92.35 178L89.76 176.9L71.02 168.9L56.89 176.29L55.34 177.1L46.57 163.8L41.23 160.01L52.48 162.9L63.74 145.46L70.53 160.14L75.67 147.88C75.67 147.88 89.87 161.31 90.23 161.15C90.59 160.99 107.87 152.61 108.41 152.34Z" fill="#827140"/>
<path d="M89.7599 176.9C89.7599 176.9 89.4699 178.32 89.0199 180.41V180.47L78.7599 195.63C76.4199 190.963 74.0866 186.297 71.7599 181.63L66.6599 195.82C63.4132 189.3 60.1666 182.787 56.9199 176.28L70.9999 168.94L89.7599 176.9Z" fill="#F3EB50"/>
<path d="M116.64 144.38L108.43 152.38C107.89 152.65 90.6099 161.07 90.2499 161.23C89.8899 161.39 75.6899 147.96 75.6899 147.96L90.0999 138.62C90.0999 138.62 102.73 134.25 103.35 134.73C103.77 135 111.83 140.88 116.64 144.38Z" fill="#F3EB50"/>
<path d="M48.8901 252.33L37.8901 240.57L45.0001 224.4C45.4401 224.7 46.0001 225.15 46.7501 225.69L48.8901 252.33Z" fill="#F4A54B"/>
<path d="M58.0699 234.51C58.0699 234.51 50.69 228.69 46.7 225.69C45.99 225.15 45.39 224.69 44.95 224.4L51.1599 210.22L56.89 218.31L58.0699 234.51Z" fill="#827140"/>
<path d="M69.6901 242.08L58.0701 234.51C59.9201 233.01 67.51 227.2 69.3 226.2L69.4601 226.12C69.5701 226.12 69.6401 226.06 69.6801 226.12C69.7301 226.8 69.6901 242.08 69.6901 242.08Z" fill="#F3EB50"/>
<path d="M110.69 223.93L106.75 225.28L84.0801 233.06V218.31L105.68 208.54L110.69 223.93Z" fill="#827140"/>
<path d="M116.64 353.67C116.64 353.67 111.64 374.27 111.41 375.15C111.18 376.03 102.55 355.07 102.55 355.07L116.64 353.67Z" fill="#F4A54B"/>
<path d="M78.6899 304.45C78.9599 303.07 64.2299 355.87 64.2299 355.87L59.4199 362.27C59.4199 362.27 61.6899 352.8 61.9999 352C62.3099 351.2 76.3399 300.3 76.3399 300.3C76.3399 300.3 66.9699 296.86 68.6299 297.11C71.2147 297.249 73.8051 297.249 76.3899 297.11L81.4599 295.58L97.9999 360.7C97.4999 359.08 78.4299 305.8 78.6899 304.45Z" fill="#FDC050"/>
<path d="M124.69 352.57L128.29 266.24L116.64 353.68C116.64 353.68 111.64 374.27 111.41 375.15C111.18 376.03 102.56 355.07 102.56 355.07L81.4799 286.07L77.3999 272.74L77.6699 272.52L78.1499 272.13L79.2499 271.23L80.2499 270.44C82.9099 268.27 87.1899 264.78 91.9899 260.89L93.8199 259.41L98.9399 255.28L106.78 225.28L102.4 226.78L84.1199 233.06V235.55L79.4299 237.68L69.7399 242.08L58.2799 234.62L58.1199 234.5H58.0499L57.8299 234.33L57.0899 233.75L56.8499 233.56L56.5399 233.31L55.9999 232.89C54.6899 231.89 52.9199 230.48 51.1599 229.12L49.7199 228C48.6299 227.16 47.5899 226.36 46.7199 225.7L48.9099 252.34L50.9099 254.47L52.8399 256.53L69.7099 274.53L67.5599 285.86L53.4799 359.94L40.5399 351.94L34.5399 282.05L32.1499 329.87L34.7999 348.92L32.4299 375.32L34.7999 384.87L33.8699 471.63H39.5899V414.38C39.6599 413.92 41.0799 410.62 43.0799 406.09L43.7899 404.49C43.9099 404.22 44.0299 403.94 44.1599 403.66L45.3199 401.07C46.1099 399.29 46.9499 397.44 47.7999 395.56C48.0799 394.94 48.3699 394.32 48.6499 393.69C52.4699 385.25 56.2899 376.91 57.3999 374.52L57.5099 374.27L57.6599 373.94L57.7099 373.83L62.1399 392.7L46.9999 471.62H50.7699L68.2399 389.84L59.4299 362.27C59.4299 362.27 61.6899 352.8 61.9999 352C61.9999 351.93 62.1699 351.41 62.4099 350.54C62.4999 350.25 62.5899 349.92 62.6899 349.54C62.8999 348.81 63.1399 347.93 63.4199 346.93L63.8599 345.34C64.0999 344.5 64.3499 343.6 64.6099 342.65C64.8699 341.7 65.1499 340.65 65.4399 339.65C65.8299 338.26 66.2399 336.8 66.6499 335.28C70.8499 320.17 76.3499 300.28 76.3499 300.28C76.0899 300.18 67.0099 296.84 68.6499 297.1C71.2348 297.234 73.825 297.234 76.4099 297.1L81.4799 295.57L97.9999 360.57V360.68L96.4399 385.01C96.4399 385.01 117.05 476.49 118.11 477.32C118.266 477.412 118.44 477.47 118.62 477.49C120.702 477.712 122.799 477.769 124.89 477.66H125.75L116.8 417.58C116.8 417.58 127.63 381.58 127.63 380.89C127.63 380.2 130.79 385.1 130.79 385.1L131.04 477.44C131.69 477.44 132.19 477.37 132.43 477.37L132.64 475.66C133.02 462.89 131.78 383.83 132.75 383.58C133.72 383.33 124.69 352.57 124.69 352.57ZM34.7399 370.5L38.2599 353.68C39.2599 354.11 49.0299 364.43 49.0299 364.43L34.7399 370.5Z" fill="#FDC050"/>
<path d="M120.35 238.65C119.25 239.17 113.02 244.03 105.62 249.93L98.9099 255.32L106.75 225.32L110.69 223.97L120 237.62L120.35 238.65Z" fill="#F4A54B"/>
<path d="M128.29 266.18C127.86 267.79 117.1 319.12 116.74 319.67C116.38 320.22 103.68 292.07 103.68 292.07C103.68 292.07 105.32 257.6 105.63 249.89C113.03 243.99 119.26 239.13 120.36 238.61L128.29 266.18Z" fill="#F3EB50"/>
<path d="M150.19 218.31V248.55L146.58 255.28L143.15 249.42L130.93 262.42L131.35 269.93H136.09V281.72L147.17 284.49L155.35 276.95C155.35 276.95 158 245.66 158.26 244.56C158.47 243.72 159.58 217.75 161.32 204.8C161.13 205 156.57 211.29 150.19 218.31ZM147.19 279.84L149 272.78V260.66L152.36 275.16L147.19 279.84Z" fill="#F3EB50"/>
<path d="M155.35 276.94L152.45 284.36L140.27 291.41L133.26 289.77L131.35 269.93H136.08V281.72L147.17 284.48L155.35 276.94Z" fill="#E7C053"/>
<path d="M150.19 218.31V248.55L146.58 255.28L143.15 249.42L135.15 214.32C135.15 214.32 140.31 227.87 140.52 228.5C140.58 228.78 145.12 223.89 150.19 218.31Z" fill="#827140"/>
<path d="M130.8 385.14L131.04 477.47C129.74 477.54 127.76 477.64 125.75 477.7L116.8 417.62C116.8 417.62 127.63 381.62 127.63 380.93C127.63 380.24 130.8 385.14 130.8 385.14Z" fill="#827140"/>
<path d="M113.09 118L79.09 129.25L69.64 142.77L60.57 127.88L41.71 118.14C41.96 116.94 42.12 116.2 42.12 116.2L45.4 113C45.1 113.45 45.4 116.42 45.4 116.42L69.28 125.75L71.84 126.75L111 114.5L113.09 118Z" fill="#E7C053"/>
<path d="M63.7399 145.5L52.4799 162.94L41.2299 160.05L39.1599 158.59L32.9199 149.79L35.7999 137.74V137.73L39.1099 134.26L53.2199 134.88L63.7399 145.5Z" fill="#F3EB50"/>
<path d="M84.0901 218.31V233.06V235.55L79.3901 237.68L79.6301 218.31H60.7001C60.3401 218.31 58.1801 215.85 57.1001 214.58L84.1001 213.42V218.31H84.0901Z" fill="#F3EB50"/>
<path d="M52.5 293.57C52.5 293.57 42.05 318.97 41.89 318.11C41.73 317.25 35.19 284.36 34.52 281.87V280.98L37.18 242.1L37.85 240.59L48.85 252.35L50.85 254.48L52.5 293.57Z" fill="#F3EB50"/>
<path d="M69.69 274.53L53.46 359.94L40.51 351.94L34.51 282.05V281.88C35.18 284.37 41.71 317.28 41.88 318.12C42.05 318.96 52.49 293.58 52.49 293.58L50.88 254.47L69.69 274.53Z" fill="#827140"/>
<path d="M49 364.42L34.71 370.49L38.23 353.67C39.29 354.1 49 364.42 49 364.42Z" fill="#F4A54B"/>
<path d="M121.32 134.69L117.94 147C117.94 147 118.72 145.94 116.64 144.43C111.83 140.93 103.77 135.08 103.33 134.74C102.71 134.26 90.08 138.63 90.08 138.63L75.6701 147.97L70.5301 160.23L63.7501 145.55L53.2201 134.93L39.11 134.31L35.8 137.78L37.33 135.66C37.9 135.66 40.6601 123.07 41.7201 118.15L60.58 127.91L69.6501 142.82L79.1001 129.28L113.1 118.02C117.53 125.39 120.88 134.92 121.32 134.69Z" fill="#F4A54B"/>
<path d="M152.34 275.15L147.17 279.84L148.97 272.78V260.66L152.34 275.15Z" fill="#827140"/>
<path d="M9.90991 275.15L7.7699 277.25L7.15991 261.67L9.90991 275.15Z" fill="#827140"/>
<path d="M62.1301 392.7L47.0001 471.61H39.8L39.5701 471.12V414.41C39.5701 413.26 57.6901 373.82 57.6901 373.82L62.1301 392.7Z" fill="#827140"/>
<path d="M50.76 471.62L46.25 485.45H33.76L33.77 484.46L33.86 471.62H50.76Z" fill="#F4A54B"/>
<path d="M132.43 477.4L131.43 485.45H119.11L119.04 485.1L118.59 477.56C120.676 477.783 122.776 477.837 124.87 477.72C127.18 477.67 129.55 477.55 131.04 477.47L132.43 477.4Z" fill="#F4A54B"/>
<path d="M136.63 110.59L107.75 109.38L116.1 103.93L123.66 101.1L136.63 110.59Z" fill="#F3EB50"/>
<path d="M137.05 128.98V129.03L136.95 129.01L125.68 127.03L107.75 109.39L136.63 110.59L137.05 128.98Z" fill="#F4A54B"/>
<path d="M137.05 129L132.29 130.68L130.65 131.26C126.98 132.57 122.93 134.01 121.77 134.47L121.58 134.54L121.32 134.67C120.8 134.55 117.44 125.17 113.07 117.89L111 114.43C109.19 111.43 107.8 109.43 107.8 109.43L125.68 127L137 129H137.05Z" fill="#827140"/>
<path d="M44.02 107.08L31.28 107.72L42.98 101.07L44.02 107.08Z" fill="#F3EB50"/>
<path d="M47.78 107.08L37.44 115.39L27.34 128.25L23.52 121.56L31.28 107.72L44.02 107.08L42.98 101.07L47.78 107.08Z" fill="#F4A54B"/>
<path d="M82.0001 34.22L97.8101 25.71L76.1001 32.02L82.0001 34.22Z" fill="#F2914B"/>
<path d="M79.6099 64.19L101.83 54.91L104.78 57.87L105.14 56.5L101.83 54.91L82.6099 61.09L79.6099 64.19Z" fill="#BC7645"/>
<path d="M77.3199 64.26L61.1299 57.41L74.4099 61.46L77.3199 64.26Z" fill="#9B5023"/>
<path d="M95.3799 78.77L85.4299 87.61L83.4999 88.55L79.6899 87.67L78.1799 87.2L83.5099 86.99L95.3799 78.77Z" fill="#9B5023"/>
<path d="M68.8999 79.58L78.1799 87.2L68.8999 78.43V79.58Z" fill="#9B5023"/>
<path d="M68.8999 78.43C68.8999 78.6 78.3899 86.98 78.3899 86.98H83.5099L83.3399 87.68L78.1799 87.2C78.1799 87.2 70.4799 80.45 70.4299 80.47C70.3799 80.49 68.8999 78.43 68.8999 78.43Z" fill="#9B5023"/>
<path d="M76.1 32C76.1 32 71 23.45 71 22.7C71 21.95 80.57 4.54 80.57 4.54C80.57 4.54 75.57 20.24 75.79 20.43C76.01 20.62 81.41 29.96 81.41 29.96L76.1 32Z" fill="#392317"/>
<path d="M101.82 7.19C101.19 7.01 95.3801 9.42 95.3801 9.42C95.3801 9.42 88.9501 25.94 89.2301 25.71C89.5101 25.48 96.5701 10.94 96.5701 10.94L101.82 7.19Z" fill="#392317"/>
<path d="M46.97 24.6L63.06 15.85L71.99 18.28L61.98 5.69L46.97 24.6Z" fill="#392317"/>
<path d="M98.9101 367.93C99.4301 368.84 113.82 406.8 113.82 406.8L97.5901 385.68L98.9101 367.93Z" fill="#F4A54B"/>
<path d="M49.0301 370.49L36.3101 375.18L39.5701 414.41L57.6901 373.82L49.0301 370.49Z" fill="#F4A54B"/>
<path d="M58.2401 234.62L52.8201 256.52L69.6901 274.53L67.5401 285.85L74.8201 287.81L81.4701 286.11L77.4001 272.78L93.7901 259.45L102.55 226.07L84.08 233.06V235.55L69.6901 242.08L58.2401 234.62Z" fill="#F4A54B"/>
<path d="M146 153.5C141.66 151.97 135.7 149.91 132.32 148.74L129.71 147.83L130.28 146.83L134.12 140.12L138.39 132.67L145.84 153.05L146 153.5Z" fill="#827140"/>
<path d="M121.32 134.7L121.61 134.57L121.32 134.7Z" fill="#602852"/>
<path d="M138.38 132.68L134.11 140.13L130.27 146.83L129.7 147.83L118.61 148.11V148.04L118 147V146.93L118.1 146.55L119.31 142.12L121.31 134.72C122.02 134.35 137.04 129.06 137.04 129.06L138.38 132.68Z" fill="#E7C053"/>
<path d="M157.69 191.41L144.08 185.48L144.16 185.15L144.58 183.38L149.47 163L156.4 182L157.69 191.41Z" fill="#F4A54B"/>
<path d="M147.29 205C147.38 205.62 147.44 206 147.44 206.21C147.44 207.59 137.62 214.61 137.62 214.61L138.26 198.19V198.05L138.67 187.48L138.44 187.23V186.92L137.19 182.92L135.49 177.48L118.59 148.12V148.05C121.38 147.77 129.52 146.95 130.24 146.85C130.888 147.01 131.523 147.217 132.14 147.47C135.23 148.64 141.32 151.18 145.8 153.07L145.96 153.51L149.44 163.01L144.55 183.39L144.13 185.16L144.05 185.49L144.12 185.92L144.19 186.32C144.46 187.87 145.05 191.32 145.66 194.98C146.34 198.89 147 203 147.29 205Z" fill="#F3EB50"/>
<path d="M147.29 205C147.38 205.62 147.44 206 147.44 206.21L147.25 205.03L145.7 195.47L144.22 186.31L144.15 185.91L144.08 185.48L157.69 191.41L158.26 195.61L147.29 205Z" fill="#827140"/>
<path d="M149.37 182.94L144.16 185.15L143.36 185.49L138.68 187.49L138.45 187.24V186.93L137.2 182.93C138.57 183.05 140.2 183.15 141.55 183.23L144.55 183.4L149.37 182.94Z" fill="#827140"/>
<path d="M32.9301 149.8L32.2501 151.02C32.2699 151.065 32.2933 151.109 32.3201 151.15C32.7601 151.96 35.1101 156.33 36.7901 159.86C36.7901 159.86 36.7901 159.86 36.7901 159.91L37.2601 160.91L36.7301 165.91V166.02C34.0201 168.42 28.9301 172.86 26.8701 174.64L26.2101 175.22C26.1496 175.266 26.0928 175.316 26.0401 175.37H25.9801L22.0601 150.62C22.2101 149.8 22.3501 148.99 22.5001 148.19L28.4201 138.19L28.4701 138.11L35.1401 136.17L35.4501 136.08L36.9901 135.64H37.0601H37.1401H37.2901L36.6801 136.49L36.61 136.59L35.7801 137.74L35.4001 139.33L32.9301 149.8Z" fill="#F4A54B"/>
<path d="M22.08 150.71L26.0001 175.46L17.8201 181.54C18.1201 176.9 18.3801 172.83 18.3801 172.2C18.3801 171.87 18.6901 169.94 19.1601 167.13C19.8901 162.89 21 156.61 22.08 150.71Z" fill="#E7C053"/>
<path d="M28.49 138.16L28.44 138.24L22.52 148.24C23.87 140.82 25.02 134.55 25.02 134.55L28.49 138.16Z" fill="#E7C053"/>
<path d="M36.76 165.94V166.05L34.43 188.14L30.94 204.47L31 204.6L28.39 203.2L24.16 200.94L23.46 200.56L24.25 192.78L26 175.46H26.06C26.1127 175.406 26.1695 175.356 26.23 175.31L26.89 174.73C28.94 172.84 34.05 168.3 36.76 165.94Z" fill="#F3EB50"/>
<path d="M26.0001 175.46L24.2401 192.78L23.4501 200.56L17.9801 197.76L16.8 196.59C16.8 196.59 17.36 188.43 17.8 181.59C18.1 176.95 18.36 172.88 18.36 172.25C18.36 171.92 18.6701 169.99 19.1401 167.18C21.5701 170.16 26.0001 175.46 26.0001 175.46Z" fill="#F4A54B"/>
<path d="M161.43 198.56C161.698 200.631 161.664 202.729 161.33 204.79V204.79C161.13 205.01 156.57 211.28 150.2 218.3C145.13 223.88 140.59 228.77 140.5 228.49C140.29 227.86 135.13 214.31 135.13 214.31L137.24 213.49L145.91 206.17L158.26 195.6C158.26 195.6 158.01 195.25 158.8 194.43C159.59 193.61 161.43 198.56 161.43 198.56Z" fill="#F4A54B"/>
</svg>
