<svg width="193" height="498" viewBox="0 0 193 498" fill="none" xmlns="http://www.w3.org/2000/svg">
<path d="M96.28 44.6799L82.84 44.9099C82.54 44.9099 77.62 47.2099 77.62 47.2099L75.16 44.7099L67.35 44.4399L68.7 50.9999L71.19 57.7199L75.41 64.7199H87.59L98.28 54.1899L96.28 44.6799ZM83.17 57.3099C82.92 57.2299 77.35 57.3099 77.35 57.3099L75.77 54.8099H85.58C85.58 54.8099 83.42 57.3899 83.17 57.3099V57.3099ZM73.64 52.2499L75.32 51.0399C75.32 51.0399 84.44 50.9799 84.76 51.0399C85.08 51.0999 89.36 52.3399 89.36 52.3399L73.64 52.2499Z" fill="#C68650"/>
<path d="M72.4299 0.990234L79.1199 2.87022L87.0699 0.990234L102.55 5.07024L88.8699 8.49023L76.3699 7.79022L72.4299 0.990234Z" fill="#3F383E"/>
<path d="M190.5 220.42V220.87H176.32L185.12 166.68C185.12 166.68 190.77 189.04 191.23 189.68V189.82C191.73 192.52 190.5 220.42 190.5 220.42Z" fill="#7C4B20"/>
<path d="M185.12 220.87L179.9 248.86L174.72 234.87L168.72 232.85L168.87 232.38L176.31 220.87H185.12Z" fill="#C38750"/>
<path d="M179.9 248.86L169.54 252.37L167.21 248.86L172.53 247.08V242.48L167.21 248.86L164.81 245.25L168.72 232.85L174.72 234.87L179.9 248.86Z" fill="#A56933"/>
<path d="M192.57 247.74L187.84 252.37H169.54L179.9 248.86L192.57 247.74Z" fill="#6F3E2A"/>
<path d="M190.5 220.87L192.57 247.74L179.9 248.86L185.12 220.87H190.5Z" fill="#A56933"/>
<path d="M166.38 104.14V104.21L152.84 122.72L137.31 115.44V99.6401L155.9 83.3101L156.23 83.36L166.38 104.14Z" fill="#EE4023"/>
<path d="M155.9 83.3102L137.31 99.6402L115.33 87.8202L130.48 79.2002L130.71 79.3002L155.9 83.3102Z" fill="#F8B517"/>
<path d="M146.45 128.82C146.45 128.82 147.79 154.69 148.32 155.82C147.64 155.82 140.19 128.27 140.19 128.27L129.67 108L115.33 87.8198L137.33 99.6398V115.44L152.86 122.72L146.45 128.82Z" fill="#7C4B20"/>
<path d="M105.69 68.0701C100.63 70.2401 83.69 78.3801 83.39 78.1601C83.09 77.9401 76.13 72.68 72.39 69.86L82.45 73.5201L104.06 63.0601V67.3401L105.69 68.0701Z" fill="#996B4A"/>
<path d="M104.14 56.8301V63.0501L82.53 73.5101L72.47 69.8501L73.16 64.1101L75.04 66.3801H87.71L104.14 56.8301Z" fill="#8A562C"/>
<path d="M104.2 47.0001L104.77 46.3901L104.2 47.0001L104.14 56.8401L87.64 66.3901L98.28 54.1901C98.28 54.1901 100.82 48.1201 103.39 42.0401C103.55 41.6601 104.2 46.8001 104.2 47.0001Z" fill="#6A3F26"/>
<path d="M98.28 54.1801L87.64 66.3801H75L73.13 64.1101L71 58.0001L68.74 51.1901L66.66 44.3701L68.02 44.4401L69.36 51.0201L71.86 57.7401L75.44 64.7401H87.62L98.28 54.1801Z" fill="#9C6636"/>
<path d="M110.49 29.8698V40.1798L104.2 46.9998C104.2 46.8098 103.55 41.6698 103.39 41.9998C105.96 35.9198 108.55 29.8398 108.64 29.8398L110.49 29.8698Z" fill="#A16938"/>
<path d="M107.87 14.5L106.69 29.35L97.38 25.35L98 15L93.51 15.73L81.46 19.31L68.37 14.56L66.28 26.17L67.51 10C67.51 10 78.84 12.49 79.1 12.49C79.36 12.49 96.79 10.85 97.18 10.73C97.57 10.61 102.7 8.56002 102.99 8.27002L107.87 14.5Z" fill="#22201F"/>
<path d="M93.51 15.7598L90.86 24.8898C90.86 24.8898 79.33 30.2498 79.14 30.3898C78.95 30.5298 70.62 25.9098 70.24 25.7798C69.86 25.6498 68.37 14.5898 68.37 14.5898L80.94 19.1498L93.51 15.7598Z" fill="#C68650"/>
<path d="M108.88 29.8799L102.74 31.9699L97.63 33.5199L94.77 30.0299L92.37 27.1199L97.38 25.3599L106.69 29.3499L106.64 29.7799L108.88 29.8799Z" fill="#EE4023"/>
<path d="M103.06 31.7802C103.06 31.7802 98.2 40.9802 96.74 43.8402C96.64 44.0402 96.55 44.1902 96.48 44.3302C96.41 44.4702 96.35 44.5802 96.32 44.6302V44.6802L82.88 44.9102C82.58 44.9102 77.66 47.2102 77.66 47.2102L75.2 44.7102L68.42 44.4402L66.67 44.3702L68.67 39.8202L75.79 41.6002L77.21 34.6002L67.68 30.2602L66 26.5702L66.28 26.2002L78.81 32.6402L92.51 27.0702L94.79 29.8502L80.94 34.9202L82.14 41.6002C82.43 41.6002 94.98 41.0902 95.19 41.0202C95.4 40.9502 97.65 33.3502 97.65 33.3502L103.06 31.7802Z" fill="#EE4023"/>
<path d="M77.19 34.55L75.77 41.6L75.22 34.88L67.66 30.21L77.19 34.55Z" fill="#EE4023"/>
<path d="M68.65 39.8198L66.63 44.3698L63.5 35.1198V29.8798L66 26.5698L67.66 30.2098L65.85 33.8198L67.51 39.5398L68.65 39.8198Z" fill="#EE4023"/>
<path d="M94.7899 29.8501L84.2499 34.6801L82.14 41.6001L80.9399 34.9201L94.7899 29.8501Z" fill="#EE4023"/>
<path d="M108.88 29.8701C108.64 30.2301 106.13 36.1001 103.64 42.0001L103.53 42.2701C101.3 47.5101 98.97 52.7201 98.4 53.9101C98.4 53.9101 98.4 54.0601 98.34 54.1001C98.318 54.1398 98.2872 54.174 98.25 54.2001L96.25 44.6501L96.41 44.3501C96.48 44.2101 96.57 44.0601 96.67 43.8601C98.21 41.0001 103 31.8001 103 31.8001L108.51 30.0001L108.81 29.9001L108.88 29.8701Z" fill="#EE4023"/>
<path d="M140.19 128.29L129.67 108L123.31 122.72C123.31 122.72 108.24 131.53 107.88 131.9C107.52 132.27 79.4599 126.28 79.4599 126.28L81.3099 102.57L89.7499 86.1899L81.4099 91.2599C81.4099 91.2599 73.7699 87.3299 73.1599 86.6599L78.8399 103.66L74.9999 126.78L50.8999 133.31L37.6799 124.18L50.2 140.05L67.2 133.87L52.7899 147.39L55.17 183.07C55.17 183.07 65.1699 204.47 65.6299 204.78C66.0899 205.09 91.3099 204.78 91.3099 204.78L109.23 178.62L124 171.84C124 171.71 124 171.65 124 171.65L140.19 128.29ZM99.7199 187.52L96.4299 192.4L77.7899 194.63V135.32L101.21 146.37L97.4999 160.27L99.7199 187.52ZM84.6299 133.92C84.6299 133.92 110.14 138.64 110.83 138.47C111.52 138.3 132.04 121.99 132.68 121.47L112.91 146.36L84.6299 133.92Z" fill="#EE4023"/>
<path d="M132.68 121.48L112.91 146.37L84.63 133.92C84.63 133.92 110.14 138.64 110.83 138.47C111.52 138.3 132 122 132.68 121.48Z" fill="#7C4B20"/>
<path d="M78.84 103.64L75.01 126.78L50.92 133.31L37.7 124.18L36.83 107.15L52.48 87.8198L78.84 103.64Z" fill="#F8B517"/>
<path d="M52.48 87.8201L31.48 103.64L22.74 97.1601L31.55 82.4801L48.26 81.5801L48.81 81.3301C50.13 83.3401 52.48 87.8201 52.48 87.8201Z" fill="#F8B517"/>
<path d="M25.67 123.69L25.72 123.55L22.78 97.1602L31.52 103.64L37.7 124.18L25.67 123.69Z" fill="#EE4023"/>
<path d="M53.9 208.89L66.67 234.89L65.49 233L65 232.24L64.73 231.82L64.15 230.9L63.51 229.9L63.17 229.37L62.08 227.66L60.91 225.81L60.09 224.52L59.25 223.2L58.82 222.53L58 221.2L56.61 219L55.8 217.71L55 216.4C51.21 210.4 47.95 205.2 47.89 204.94L51.96 181.6C51.96 181.6 48.07 147.6 48.29 143.96C47.35 146.48 38.54 163.96 37.79 165.46L18.89 156L38.75 146.33L37.7 124.14L50.23 140.01L67.23 133.83L52.82 147.35L55.2 183.03L53.9 208.89Z" fill="#7C4B20"/>
<path d="M18.89 156.04L19.7099 185.6L8.93994 221.28L2.68994 217.71L11.9399 167.36L18.89 156.04Z" fill="#F8B517"/>
<path d="M37.6899 165.55L36.2199 179.33L14.89 221.55L8.93994 221.28L19.7099 185.6L37.6899 165.55Z" fill="#7C4B20"/>
<path d="M13.85 237.29L4.25 250.81L0.880005 236.44L2.69 217.71L8.94 221.28L13.85 237.29Z" fill="#A86A32"/>
<path d="M22.6899 233.87L13.8499 237.29L8.93994 221.28L14.89 221.55L22.5599 233.51L22.6899 233.87Z" fill="#C58852"/>
<path d="M26.17 244.12L22.56 246.83L13.85 237.29L22.69 233.87L26.17 244.12Z" fill="#A16B31"/>
<path d="M22.56 246.83L20.38 250.95L19.62 252.37L4.26999 250.89L4.25 250.81L13.85 237.29L22.56 246.83Z" fill="#6E3D2F"/>
<path d="M126.55 196.35L101.21 219.57L91.13 234.87C90.61 234.17 113.43 201.36 112.91 200.87C112.39 200.38 109.3 178.64 109.3 178.64L124 171.84C124.23 174.03 126.46 194.95 126.46 195.84C126.478 196.012 126.508 196.182 126.55 196.35V196.35Z" fill="#7C4B20"/>
<path d="M66.68 234.87L59.24 292.57L36.24 271.67L47.86 204.94C48.01 205.55 66.12 233.94 66.69 234.85L66.68 234.87Z" fill="#F8B517"/>
<path d="M143.35 252.37L141.35 315.7C141.35 315.7 131.89 327.17 128.35 332.23C130.94 326.45 136.35 311.98 136.35 311.71C136.35 311.44 123 294 121.57 290.49C121.67 290.07 121.67 289.84 121.57 289.86C121.47 289.88 121.45 290.11 121.57 290.49C120.57 294.78 109.08 319.65 108.15 321.66L108.09 321.8C100.6 296.39 90.53 262.42 90.53 262.42L87.14 300.12C87.14 300.12 81.09 326.42 81.04 326.99L74.64 330.99C69.91 333.99 64.2 337.58 63.75 337.88C62.95 338.41 74.3 316.24 74.3 316.24L59.24 292.55L66.68 234.85C66.68 234.85 91.14 235.53 91.14 234.85L121.56 288.49L143.35 252.37Z" fill="#7C4B20"/>
<path d="M59.24 292.57L49.43 327.22L36.22 271.67L59.24 292.57Z" fill="#7C4B20"/>
<path d="M80.59 350.25L65.59 365.08L45.59 340.76L48.93 328.94L49.2 328L49.43 327.22L59.24 292.57L74.3 316.26C74.3 316.26 63 338.43 63.74 337.9C64.48 337.37 81 327 81 327C81.26 326.32 80.59 350.25 80.59 350.25Z" fill="#EE4023"/>
<path d="M87.14 388.4L65.59 365.08L80.59 350.25L87.14 388.4Z" fill="#F4831F"/>
<path d="M87.14 388.4L67.49 460.88L65.59 365.08L87.14 388.4Z" fill="#F4831F"/>
<path d="M49.71 433.25C49.71 433.25 49.88 371.46 49.65 370.79C49.42 370.12 45.59 341.44 45.59 340.79L65.59 365.11L67.49 460.91L49.71 433.25Z" fill="#7C4B20"/>
<path d="M68.4 484.81L30.24 486.62C30.24 486.62 20.98 489.78 20.08 489.55C19.18 489.32 4.27002 487.07 4.27002 487.07L5.17004 481.43L24.91 482.28L43.12 483.06L60.51 479.23C60.51 479.23 67.93 477.32 68.16 477.39C68.29 481.53 68.4 484.81 68.4 484.81Z" fill="#7C4B20"/>
<path d="M68.16 477.39C67.93 477.32 60.51 479.23 60.51 479.23L51.8 457.23L49.71 433L67.49 460.62C67.61 460.65 67.94 470.29 68.16 477.39Z" fill="#EE4023"/>
<path d="M60.51 479.23L43.12 483.29L24.91 482.5L14.22 477.38L41.45 466.62L60.51 479.23Z" fill="#F4831F"/>
<path d="M24.91 482.5L5.17004 481.43L14.21 477.38H14.22L24.91 482.5Z" fill="#EE4023"/>
<path d="M143.35 252.37L121.56 288.53C120.91 287.89 132.44 216.3 132.44 216.3C137.3 232.5 143.35 252.37 143.35 252.37Z" fill="#EE4023"/>
<path d="M141.32 315.7C141.32 315.7 131.86 327.17 128.32 332.23C130.91 326.45 136.32 311.98 136.32 311.71C136.32 311.44 123 294 121.57 290.49C120.57 294.97 108.08 321.8 108.08 321.8L123.85 339.65L126.98 362.25L144.48 345.05L141.32 315.7Z" fill="#EE4023"/>
<path d="M140 436.75L119.88 395.19C119.88 395.19 119.88 394.76 119.78 394.01C119.84 392.7 126.99 370.23 126.99 370.23L115.99 349.16C115.99 348.9 112.47 336.87 108.17 322.02L124 339.83L127 362.25L161.77 432.25L163.47 464.92L140 436.75Z" fill="#7C4B20"/>
<path d="M127 370.19C127 370.19 119.85 392.66 119.79 393.97C119.18 386.76 116.05 349.73 116.05 349.12L127 370.19Z" fill="#F4831F"/>
<path d="M161.75 432.27L126.98 362.25L144.48 345.05L159.16 382.3L161.75 432.27Z" fill="#F4831F"/>
<path d="M168.9 477.73L145.11 470.03L140.42 437.62L139.99 436.75L163.45 464.94L168.9 477.73Z" fill="#EE4023"/>
<path d="M173.59 488.75L148.59 488.29C148.59 488.29 145.16 478.29 145.16 477.84V470.36L145.11 470.03L168.9 477.73L173.59 488.75Z" fill="#F8B517"/>
<path d="M175.19 492.49L161.19 497.01H148.77L142.9 489.79L145.16 478.27V477.84C145.16 478.27 148.59 488.29 148.59 488.29L173.59 488.75L175.19 492.49Z" fill="#7C4B20"/>
<path d="M185.12 166.68L168 155.5L152.84 122.72L166.38 104.21C166.38 105.32 166.62 118.62 166.84 119.26C167.06 119.9 173.39 133.94 173.39 133.94C173.39 133.94 176.32 154.04 176.32 153.36C176.32 152.68 185.12 166.68 185.12 166.68Z" fill="#7C4B20"/>
<path d="M168 155.5C168 155.5 162.26 161.45 158.32 165.37C157.17 164.21 150.4 157.32 148.69 156.05C151.31 156.78 166.87 155.5 168 155.5Z" fill="#7C4B20"/>
<path d="M176.32 220.87L159.83 187.87L158.49 165.51C158.429 165.454 158.372 165.394 158.32 165.33C162.26 161.41 168 155.46 168 155.46L176.32 220.87Z" fill="#F4831F"/>
<path d="M185.12 166.68L176.31 220.87L168 155.5L185.12 166.68Z" fill="#EE4023"/>
<path d="M113.67 71.6499L89.75 86.1899L81.41 91.2599C81.41 91.2599 73.77 87.3299 73.16 86.6599V86.5599C73.42 86.3899 69.77 79.0199 67.5 74.4999C67.71 74.3099 70.19 72.0699 71.55 70.7799C72 70.3499 72.32 70.0199 72.41 69.9199C76.11 72.7399 83.1 78.0399 83.41 78.2199C83.72 78.3999 99.02 69.5599 104.09 67.3999L113.67 71.6499Z" fill="#7C4B20"/>
<path d="M78.84 103.64L52.48 87.8201L73.13 86.5601L73.16 86.6601L78.84 103.64Z" fill="#F8B517"/>
<path d="M36.83 107.15L37.7 124.18L31.52 103.64L52.48 87.8198L36.83 107.15Z" fill="#7C4B20"/>
<path d="M38.75 146.37L18.89 156.04L21.2 137.33L25.67 123.69L37.7 124.18L38.75 146.37Z" fill="#F8B517"/>
<path d="M37.74 165.45L37.69 165.55L19.69 185.6L18.89 156L37.74 165.45Z" fill="#EE4023"/>
<path d="M20.3801 250.95L7.57007 248.44L12.0701 244.66L22.5601 246.83" fill="#A16B31"/>
<path d="M115.33 87.8199L81.3101 102.57L89.7501 86.1899L115.33 87.8199Z" fill="#F8B517"/>
<path d="M129.67 108L123.31 122.72C123.31 122.72 108.24 131.53 107.88 131.9C107.52 132.27 79.46 126.28 79.46 126.28L81.31 102.57L115.31 87.8198L129.67 108Z" fill="#F8B517"/>
<path d="M168 155.5C166.87 155.5 151.31 156.78 148.69 156.05C148.593 155.952 148.473 155.879 148.34 155.84C147.81 154.69 146.47 128.84 146.47 128.84L152.86 122.74L168 155.5Z" fill="#F8B517"/>
<path d="M172.53 242.48V247.08L167.21 248.86L172.53 242.48Z" fill="#6E3C1A"/>
<path d="M97.5 160.27L99.72 187.52L96.43 192.4L77.79 194.63V135.32L101.2 146.37L97.5 160.27Z" fill="#F8B517"/>
<path d="M121.56 288.53L91.14 234.89L101.22 219.59L126.56 196.37C127.13 198.52 129.56 206.78 132.45 216.32C132.44 216.3 120.91 287.89 121.56 288.53Z" fill="#F8B517"/>
<path d="M91.13 234.87C91.13 235.53 66.67 234.87 66.67 234.87L53.9 208.87L55.24 183.05C55.24 183.05 65.24 204.45 65.7 204.76C66.16 205.07 91.38 204.76 91.38 204.76L109.3 178.6C109.3 178.6 112.39 200.31 112.91 200.83C113.43 201.35 90.61 234.17 91.13 234.87Z" fill="#EE4023"/>
<path d="M98 15.0001L97.38 25.3301L92.51 27.0401L78.81 32.6101L66.28 26.1701L68.37 14.5601C68.37 14.5601 69.87 25.6301 70.24 25.7501C70.61 25.8701 78.95 30.4801 79.14 30.3601C79.33 30.2401 90.86 24.8601 90.86 24.8601L93.51 15.7301L98 15.0001Z" fill="#A46B32"/>
<path d="M89.36 52.3399L86.79 52.9099L74.93 52.6299C74.93 52.6299 73.69 52.2499 73.64 52.2499L75.32 51.0399C75.32 51.0399 84.44 50.9799 84.76 51.0399C85.08 51.0999 89.36 52.3399 89.36 52.3399Z" fill="#8E5828"/>
<path d="M85.58 54.8101C85.58 54.8101 83.42 57.3901 83.17 57.3101C82.92 57.2301 77.35 57.3101 77.35 57.3101L75.77 54.8101H85.58Z" fill="#8E5828"/>
<path d="M97.65 33.3501C97.65 33.3501 95.39 40.9501 95.19 41.0201C94.99 41.0901 82.43 41.6001 82.14 41.6001L84.25 34.6801L94.79 29.8501L97.65 33.3501Z" fill="white" stroke="#221F1F" stroke-linejoin="round"/>
<path d="M75.77 41.6L68.65 39.82L67.51 39.5399L65.85 33.82L67.66 30.21L75.22 34.88L75.77 41.6Z" fill="white" stroke="#221F1F" stroke-linejoin="round"/>
<path d="M82.49 44.9999L95.77 46.2999L98.28 54.1899L96.28 44.6899L82.81 44.9199" fill="#6A3F26"/>
<path d="M107.87 14.5001L94.79 13.5001L79.14 16.0001L68.66 13.2501L67.52 10.0001L68.97 7.37012L90.39 9.85013L102.55 5.12012L107.87 14.5001Z" fill="#22201F"/>
<path d="M76.53 28.4899C77.3014 28.9592 78.0994 29.3832 78.92 29.7598C78.92 29.7598 78.19 24.8398 78.01 24.7598C77.6092 24.4066 77.2441 24.0147 76.92 23.5898L76.53 28.4899Z" fill="#A36B33"/>
<path d="M79.4399 29.7399L80.9399 27.0898V28.9298L79.4399 29.7399Z" fill="#A36B33"/>
<path d="M73.13 86.5601L52.48 87.8201C52.48 87.8201 50.13 83.3401 48.85 81.3101L65.66 71.4001L72.4 69.8501C72.31 69.9501 71.99 70.2801 71.54 70.7101C70.18 72.0001 67.7 74.2401 67.49 74.4301C69.74 79.0001 73.39 86.3901 73.13 86.5601Z" fill="#EE4023"/>
<path d="M52.48 79.1699L31.59 82.4599L52.48 82.1599V79.1699Z" fill="#EE4023"/>
<path d="M97.5 160.27L77.79 156.79L76.48 161.28L97.64 161.99L99.53 160.92L97.5 160.27Z" fill="#EE4023"/>
<path d="M173.39 133.94L168 133.29L166.84 119.29C167.07 119.94 173.39 133.94 173.39 133.94Z" fill="#F8B517"/>
<path d="M53.8999 208.89L66.67 234.89L65.4899 233L64.9999 232.24L64.7299 231.82L64.1499 230.9L63.5099 229.9L63.17 229.37L62.0799 227.66L60.9099 225.81L60.0899 224.52L59.2499 223.2L58.8199 222.53L57.9999 221.2L56.6099 219L55.7999 217.71L54.9999 216.4C51.2099 210.4 47.95 205.2 47.89 204.94L51.9599 181.6C51.9599 181.6 48.0699 147.6 48.2899 143.96L37.7 124.18L50.2299 140.05L67.2299 133.87L52.8199 147.39L55.2 183.07L53.8999 208.89Z" fill="#7C4B20"/>
<path d="M102.55 5.07005V10L79 14.59L67.52 10L68.97 7.37004C70.39 4.79004 72.36 1.21004 72.43 1.04004C72.43 1.39004 79.79 5.95004 79.79 5.95004L83.79 3.43004L87.11 5.12004L102.55 5.07005Z" fill="#22201F"/>
<path d="M98 15.0002C98 15.0002 102.29 12.6902 102.25 12.8502C102.21 13.0102 100.63 26.7202 100.63 26.7202L97.38 25.3302L98 15.0002Z" fill="#3F383E"/>
<path d="M109.46 32.1899V39.8199L106.36 43.3799L109.46 32.1899Z" fill="#6A3F26"/>
<path d="M106.36 43.3799L104.45 43.2199L109.46 32.1899L108.88 37.7799L106.36 43.3799Z" fill="#6A3F26"/>
<path d="M80.94 18.5198C80.94 18.3198 70.54 10.7298 70.54 10.7298C70.54 10.7298 72.24 1.7298 72.43 2.0298C72.62 2.3298 78.92 9.75979 78.92 9.75979L80.94 18.5198Z" fill="#3F383E"/>
<path d="M66.63 44.3701L74.97 45.6201C74.97 45.6201 77.79 47.3701 77.62 47.2101L75.16 44.7101L66.63 44.3701Z" fill="#6A3F26"/>
<path d="M130.48 79.1999L115.33 87.8199L89.75 86.1898L112.03 72.6399L104.07 67.3398L114.54 70.4298L130.48 79.1999Z" fill="#EE4023"/>
<path d="M130.71 137.69C130.53 138.12 117.83 148.21 117.83 148.21L116.94 154.64L130.71 137.69Z" fill="#7C4B20"/>
<path d="M130 145C129.87 145.44 118.93 158.28 118.93 158.28L118.6 163.78L130 145Z" fill="#7C4B20"/>
<path d="M129.68 108L136.06 128.8L123.96 171.84L140.19 128.3L129.68 108Z" fill="#F4831F"/>
<path d="M75.11 142.92C75.46 143.8 74.4 155.67 74.4 155.67L62.78 156.42L65.23 145.19L75.11 142.92Z" fill="#F8B517"/>
<path d="M74.74 168.24L74.39 193.14L62.88 189.42L64.87 170.51L74.74 168.24Z" fill="#F8B517"/>
<path d="M108.15 321.66L108.09 321.8C100.6 296.39 90.53 262.42 90.53 262.42L87.14 300.12C87.14 300.12 81.09 326.42 81.04 326.99L74.64 330.99L81.08 310.05L89.5 259.05L82.07 255.59L78.91 246.79L85.62 252.38H93.82C93.82 252.38 95.67 260.99 96.15 261.86C96.63 262.73 107.24 317 108.15 321.66Z" fill="#F4831F"/>
<path d="M41.45 466.62L51.7999 457.24C51.7999 457.24 61.0799 480.05 60.5199 479.46C59.9599 478.87 41.45 466.62 41.45 466.62Z" fill="#DC5526"/>
<path d="M190.5 220.42V220.87H176.32L191.23 189.71V189.85C191.73 192.52 190.5 220.42 190.5 220.42Z" fill="#F8B517"/>
<path d="M75.41 64.71C75.54 64.56 77.41 61.49 77.41 61.49L83.72 61.21L87.63 64.71L80.17 65.71L75.41 64.71Z" fill="#9C6636"/>
</svg>
