<svg width="193" height="497" viewBox="0 0 193 497" fill="none" xmlns="http://www.w3.org/2000/svg">
<path d="M96.28 43.7698L82.84 43.9998C82.54 43.9998 77.62 46.2998 77.62 46.2998L75.16 43.7998L67.35 43.5298L68.7 50.1098L71.19 56.8398L75.41 63.8398H87.59L98.28 53.3098L96.28 43.7698ZM83.17 56.3998C82.92 56.3198 77.35 56.3998 77.35 56.3998L75.77 53.9098H85.58C85.58 53.9098 83.42 56.4798 83.17 56.3998ZM73.64 51.3398L75.32 50.1298C75.32 50.1298 84.44 50.0698 84.76 50.1298C85.08 50.1898 89.36 51.4298 89.36 51.4298L73.64 51.3398Z" fill="#A6662F"/>
<path d="M72.4299 0.0898438L79.1199 1.95985L87.0699 0.0898438L102.55 4.16985L88.8699 7.57985L76.3699 6.88985L72.4299 0.0898438Z" fill="#3F383E"/>
<path d="M190.5 219.51V220H176.32L185.12 165.8C185.12 165.8 190.77 188.16 191.23 188.8V188.95C191.73 191.61 190.5 219.51 190.5 219.51Z" fill="#7C4B20"/>
<path d="M185.12 219.96L179.9 247.96L174.72 233.96L168.72 231.94L168.87 231.48L176.31 219.96H185.12Z" fill="#A4682F"/>
<path d="M179.9 247.96L169.54 251.46L167.21 247.96L172.53 246.18V241.58L167.21 247.96L164.81 244.34L168.72 231.94L174.72 233.96L179.9 247.96Z" fill="#85491F"/>
<path d="M192.57 246.83L187.84 251.46H169.54L179.9 247.96L192.57 246.83Z" fill="#4B1D11"/>
<path d="M190.5 219.96L192.57 246.83L179.9 247.96L185.12 219.96H190.5Z" fill="#85491F"/>
<path d="M166.38 103.23V103.3L152.84 121.81L137.31 114.53V98.7302L155.9 82.4102H156.23L166.38 103.23Z" fill="#EE4023"/>
<path d="M155.9 82.4L137.31 98.73L115.33 86.91L130.48 78.29L130.71 78.4L155.9 82.4Z" fill="#F8B517"/>
<path d="M146.45 127.92C146.45 127.92 147.79 153.79 148.32 154.92C147.64 154.92 140.19 127.37 140.19 127.37L129.67 107.07L115.33 86.8901L137.33 98.7101V114.51L152.86 121.79L146.45 127.92Z" fill="#7C4B20"/>
<path d="M105.69 67.1699C100.63 69.3299 83.69 77.4699 83.39 77.2599C83.09 77.0499 76.13 71.7799 72.39 68.9599L82.45 72.6199L104.06 62.1499V66.4299L105.69 67.1699Z" fill="#70411E"/>
<path d="M104.14 55.9302V62.1402L82.5299 72.6102L72.4299 69.0002L73.1199 63.2602L74.9999 65.5302H87.67L104.14 55.9302Z" fill="#622F13"/>
<path d="M104.2 46.0801L104.77 45.4701L104.2 46.0801L104.14 55.9301L87.64 65.4801L98.28 53.2701C98.28 53.2701 100.82 47.2001 103.39 41.1201C103.55 40.7601 104.2 45.9001 104.2 46.0801Z" fill="#471E12"/>
<path d="M98.28 53.27L87.64 65.4799H75L73.13 63.21L71 57.1L68.74 50.28L66.66 43.46L68.02 43.53L69.36 50.11L71.86 56.84L75.44 63.84H87.62L98.28 53.27Z" fill="#78421B"/>
<path d="M110.49 29V39.31L104.2 46.11C104.2 45.93 103.55 40.79 103.39 41.11C106 35 108.55 29 108.64 29H110.49Z" fill="#70411E"/>
<path d="M107.87 13.5901L106.69 28.4401L97.38 24.4401L98 14.1101L93.51 14.8501L81.46 18.4301L68.37 13.6801L66.28 25.2801L67.51 9.04005C67.51 9.04005 78.84 11.5201 79.1 11.5201C79.36 11.5201 96.79 9.89006 97.18 9.76006C97.57 9.63006 102.7 7.60006 102.99 7.31006L107.87 13.5901Z" fill="#22201F"/>
<path d="M93.51 14.8602L90.86 24.0002C90.86 24.0002 79.33 29.3502 79.14 29.4902C78.95 29.6302 70.62 25.0102 70.24 24.8902C69.86 24.7702 68.37 13.7002 68.37 13.7002L80.94 18.2602L93.51 14.8602Z" fill="#A6662F"/>
<path d="M108.88 28.9702L102.74 31.0702L97.63 32.6102L94.77 29.1202L92.37 26.2102L97.38 24.4502L106.69 28.4402L106.64 28.8702L108.88 28.9702Z" fill="#EE4023"/>
<path d="M103.06 30.87C103.06 30.87 98.2 40.07 96.74 42.93C96.64 43.13 96.55 43.29 96.48 43.42L96.32 43.72V43.7701L82.88 44C82.58 44 77.66 46.3 77.66 46.3L75.2 43.8L68.42 43.53L66.67 43.4601L68.67 38.91L75.79 40.7L77.21 33.64L67.68 29.3L66 25.66L66.28 25.29L78.81 31.7401L92.51 26.16L94.79 28.95L80.94 34L82.14 40.69C82.43 40.69 94.98 40.18 95.19 40.11C95.4 40.04 97.65 32.43 97.65 32.43L103.06 30.87Z" fill="#EE4023"/>
<path d="M77.19 33.6398L75.77 40.6998L75.22 33.9698L67.66 29.2998L77.19 33.6398Z" fill="#EE4023"/>
<path d="M68.65 38.9102L66.63 43.4602L63.5 34.2102V28.9702L66 25.6602L67.66 29.3002L65.85 32.9202L67.51 38.6302L68.65 38.9102Z" fill="#EE4023"/>
<path d="M94.7899 28.9502L84.2499 33.7802L82.14 40.7002L80.9399 34.0102L94.7899 28.9502Z" fill="#EE4023"/>
<path d="M108.88 29C108.64 29.36 106.13 35.24 103.64 41.13L103.53 41.4C101.3 46.64 98.97 51.85 98.4 53.04C98.4 53.04 98.4 53.2 98.34 53.24C98.3159 53.2754 98.2854 53.3059 98.25 53.33L96.25 43.78C96.3088 43.683 96.3622 43.5828 96.41 43.48C96.48 43.35 96.57 43.19 96.67 42.99C98.2 40.15 102.99 30.99 102.99 30.99L108.5 29.18L108.8 29.08L108.88 29Z" fill="#EE4023"/>
<path d="M140.19 127.39L129.67 107.09L123.31 121.81C123.31 121.81 108.24 130.62 107.88 131C107.52 131.38 79.4599 125.38 79.4599 125.38L81.3099 101.66L89.7499 85.29L81.4099 90.35C81.4099 90.35 73.7699 86.43 73.1599 85.75L78.8399 102.75L74.9999 125.88L50.8999 132.4L37.6799 123.28L50.2 139.15L67.2 132.96L52.7899 146.48L55.17 182.16C55.17 182.16 65.1699 203.57 65.6299 203.88C66.0899 204.19 91.3099 203.88 91.3099 203.88L109.23 177.72L124 170.93C124 170.81 124 170.75 124 170.75L140.19 127.39ZM99.7199 186.62L96.4299 191.5L77.7899 193.72V134.41L101.21 145.47L97.4999 159.36L99.7199 186.62ZM84.6299 133C84.6299 133 110.14 137.73 110.83 137.55C111.52 137.37 132.04 121.07 132.68 120.55L112.91 145.45L84.6299 133Z" fill="#EE4023"/>
<path d="M132.68 120.57L112.91 145.47L84.63 133C84.63 133 110.14 137.73 110.83 137.55C111.52 137.37 132 121.08 132.68 120.57Z" fill="#7C4B20"/>
<path d="M78.84 102.73L75.01 125.88L50.92 132.4L37.7 123.28L36.83 106.24L52.48 86.9102L78.84 102.73Z" fill="#F8B517"/>
<path d="M52.48 86.9102L31.48 102.73L22.74 96.2602L31.55 81.5802L48.26 80.6702L48.81 80.4302C50.13 82.4402 52.48 86.9102 52.48 86.9102Z" fill="#F8B517"/>
<path d="M25.67 122.79L25.72 122.64L22.78 96.2598L31.52 102.73L37.7 123.28L25.67 122.79Z" fill="#EE4023"/>
<path d="M53.9 208L66.67 234L65.49 232.15L65 231.38L64.73 230.97L64.15 230.04L63.51 229.04L63.17 228.5L62.08 226.79L60.91 224.95L60.09 223.65L59.25 222.34L58.82 221.66L58 220.36L56.61 218.18L55.8 216.9L54.95 215.55C51.16 209.55 47.9 204.35 47.84 204.09L51.91 180.75C51.91 180.75 48.02 146.75 48.24 143.11C47.3 145.63 38.49 163.11 37.74 164.61L18.89 155.2L38.75 145.54L37.7 123.35L50.23 139.22L67.23 133.03L52.82 146.55L55.2 182.23L53.9 208Z" fill="#7C4B20"/>
<path d="M18.89 155.13L19.7099 184.69L8.93994 220.37L2.68994 216.81L11.9399 166.46L18.89 155.13Z" fill="#F8B517"/>
<path d="M37.6899 164.64L36.2199 178.42L14.89 220.64L8.93994 220.37L19.7099 184.69L37.6899 164.64Z" fill="#7C4B20"/>
<path d="M13.85 236.39L4.25 249.91L0.880005 235.54L2.69 216.81L8.94 220.37L13.85 236.39Z" fill="#874A20"/>
<path d="M22.6899 232.97L13.8499 236.39L8.93994 220.37L14.89 220.64L22.5599 232.61L22.6899 232.97Z" fill="#A76931"/>
<path d="M26.17 243.21L22.56 245.93L13.85 236.39L22.69 232.97L26.17 243.21Z" fill="#804A1F"/>
<path d="M22.56 245.93L20.38 250.04L19.62 251.46L4.26999 249.99L4.25 249.91L13.85 236.39L22.56 245.93Z" fill="#471914"/>
<path d="M126.55 195.44L101.21 218.66L91.13 234C90.61 233.31 113.43 200.5 112.91 200C112.39 199.5 109.3 177.78 109.3 177.78L124 170.93C124.23 173.13 126.46 194.04 126.46 194.93C126.477 195.102 126.507 195.273 126.55 195.44V195.44Z" fill="#7C4B20"/>
<path d="M66.68 234L59.24 291.71L36.24 270.8L47.84 204C47.99 204.61 66.1 233 66.67 233.91L66.68 234Z" fill="#F8B517"/>
<path d="M143.35 251.46L141.35 314.79C141.35 314.79 131.89 326.26 128.35 331.33C130.94 325.54 136.35 311.07 136.35 310.8C136.35 310.53 123.11 293.14 121.65 289.58C121.75 289.16 121.75 288.93 121.65 288.95C121.55 288.97 121.53 289.2 121.65 289.58C120.65 293.87 109.16 318.75 108.23 320.76L108.17 320.89C100.68 295.48 90.61 261.51 90.61 261.51L87.2201 299.21C87.2201 299.21 81.1701 325.51 81.1201 326.08C81.1201 326.08 78.1801 327.94 74.7201 330.08C69.9901 333.08 64.28 336.67 63.83 336.97C63.03 337.5 74.3801 315.33 74.3801 315.33L59.3201 291.65L66.6801 234C66.6801 234 91.1401 234.69 91.1401 234L121.56 287.65L143.35 251.46Z" fill="#7C4B20"/>
<path d="M59.24 291.67L49.43 326.31L36.22 270.76L59.24 291.67Z" fill="#7C4B20"/>
<path d="M80.59 349.34L65.59 364.18L45.59 339.85L48.93 328L49.2 327.07L49.43 326.28L59.24 291.64L74.3 315.32C74.3 315.32 63 337.52 63.74 337C64.48 336.48 81 326.08 81 326.08C81.26 325.41 80.59 349.34 80.59 349.34Z" fill="#EE4023"/>
<path d="M87.14 387.5L65.59 364.18L80.59 349.34L87.14 387.5Z" fill="#F4831F"/>
<path d="M87.14 387.5L67.49 459.98L65.59 364.18L87.14 387.5Z" fill="#F4831F"/>
<path d="M49.71 432.35C49.71 432.35 49.88 370.56 49.65 369.89C49.42 369.22 45.59 340.54 45.59 339.89L65.59 364.22L67.49 460.02L49.71 432.35Z" fill="#7C4B20"/>
<path d="M68.4 483.91L30.24 485.71C30.24 485.71 20.98 488.87 20.08 488.64C19.18 488.41 4.27002 486.17 4.27002 486.17L5.17004 480.52L24.91 481.37L43.12 482.16L60.51 478.32C60.51 478.32 67.93 476.42 68.16 476.48C68.29 480.62 68.4 483.91 68.4 483.91Z" fill="#7C4B20"/>
<path d="M68.16 476.48C67.93 476.42 60.51 478.32 60.51 478.32L51.8 456.32L49.71 432.11L67.49 459.74C67.61 459.75 67.94 469.38 68.16 476.48Z" fill="#EE4023"/>
<path d="M60.51 478.32L43.12 482.38L24.91 481.6L14.22 476.48L41.45 465.72L60.51 478.32Z" fill="#F4831F"/>
<path d="M24.91 481.6L5.17004 480.52L14.21 476.48H14.22L24.91 481.6Z" fill="#EE4023"/>
<path d="M143.35 251.46L121.56 287.63C120.91 286.98 132.44 215.4 132.44 215.4C137.3 231.59 143.35 251.46 143.35 251.46Z" fill="#EE4023"/>
<path d="M141.32 314.79C141.32 314.79 131.86 326.26 128.32 331.33C130.91 325.54 136.32 311.07 136.32 310.8C136.32 310.53 123 293.14 121.57 289.58C120.57 294.06 108.08 320.89 108.08 320.89L123.85 338.74L127 361.35L144.5 344.14L141.32 314.79Z" fill="#EE4023"/>
<path d="M140 435.85L119.88 394.28C119.88 394.28 119.88 393.86 119.78 393.1C119.84 391.8 126.99 369.32 126.99 369.32L115.99 348.25C115.99 347.99 112.47 335.96 108.17 321.12L124 338.93L127 361.35L161.77 431.35L163.47 464.03L140 435.85Z" fill="#7C4B20"/>
<path d="M127 369.28C127 369.28 119.85 391.76 119.79 393.06C119.18 385.85 116.05 348.82 116.05 348.21L127 369.28Z" fill="#F4831F"/>
<path d="M161.75 431.36L126.98 361.35L144.48 344.14L159.16 381.39L161.75 431.36Z" fill="#F4831F"/>
<path d="M168.9 476.82L145.11 469.12L140.42 436.72L139.99 435.85L163.45 464.04L168.9 476.82Z" fill="#EE4023"/>
<path d="M173.59 487.84L148.59 487.39C148.59 487.39 145.16 477.39 145.16 476.93V469.46L145.11 469.12L168.9 476.82L173.59 487.84Z" fill="#F8B517"/>
<path d="M175.19 491.58L161.19 496.1H148.77L142.9 488.88L145.16 477.36V476.93C145.16 477.36 148.59 487.39 148.59 487.39L173.59 487.84L175.19 491.58Z" fill="#7C4B20"/>
<path d="M185.12 165.77L168 154.59L152.84 121.81L166.38 103.3C166.38 104.41 166.62 117.71 166.84 118.35C167.06 118.99 173.39 133 173.39 133C173.39 133 176.32 153.1 176.32 152.42C176.32 151.74 185.12 165.77 185.12 165.77Z" fill="#7C4B20"/>
<path d="M168 154.59C168 154.59 162.26 160.59 158.32 164.47C157.17 163.31 150.4 156.42 148.69 155.14C151.31 155.88 166.87 154.59 168 154.59Z" fill="#7C4B20"/>
<path d="M176.32 220L159.83 187L158.49 164.64L158.32 164.47C162.26 160.54 168 154.59 168 154.59L176.32 220Z" fill="#F4831F"/>
<path d="M185.12 165.77L176.31 219.96L168 154.59L185.12 165.77Z" fill="#EE4023"/>
<path d="M113.67 70.7402L89.75 85.2902L81.41 90.3502C81.41 90.3502 73.77 86.4302 73.16 85.7502V85.6602C73.42 85.4802 69.77 78.1202 67.5 73.5902C67.71 73.3902 70.19 71.1502 71.55 69.8602C72 69.4302 72.32 69.1002 72.41 69.0002C76.11 71.8202 83.1 77.1102 83.41 77.3002C83.72 77.4902 99.02 68.6402 104.09 66.4702L113.67 70.7402Z" fill="#7C4B20"/>
<path d="M78.84 102.73L52.48 86.9102L73.13 85.6602L73.16 85.7502L78.84 102.73Z" fill="#F8B517"/>
<path d="M36.83 106.24L37.7 123.28L31.52 102.73L52.48 86.9102L36.83 106.24Z" fill="#7C4B20"/>
<path d="M38.75 145.47L18.89 155.13L21.2 136.42L25.67 122.79L37.7 123.28L38.75 145.47Z" fill="#F8B517"/>
<path d="M37.74 164.54L37.69 164.64L19.69 184.69L18.87 155.13L37.74 164.54Z" fill="#EE4023"/>
<path d="M20.3801 250.04L7.57007 247.53L12.0701 243.75L22.5601 245.93" fill="#804A1F"/>
<path d="M115.33 86.91L81.3101 101.67L89.7501 85.29L115.33 86.91Z" fill="#F8B517"/>
<path d="M129.67 107.09L123.31 121.81C123.31 121.81 108.24 130.62 107.88 131C107.52 131.38 79.46 125.38 79.46 125.38L81.31 101.66L115.31 86.9102L129.67 107.09Z" fill="#F8B517"/>
<path d="M168 154.59C166.87 154.59 151.31 155.88 148.69 155.14C148.591 155.047 148.471 154.978 148.34 154.94C147.81 153.79 146.47 127.94 146.47 127.94L152.86 121.83L168 154.59Z" fill="#F8B517"/>
<path d="M172.53 241.58V246.18L167.21 247.96L172.53 241.58Z" fill="#4B1D11"/>
<path d="M97.5 159.36L99.72 186.62L96.43 191.5L77.79 193.72V134.41L101.2 145.47L97.5 159.36Z" fill="#F8B517"/>
<path d="M121.56 287.63L91.14 234L101.22 218.7L126.56 195.48C127.13 197.64 129.56 205.9 132.45 215.48C132.44 215.4 120.91 287 121.56 287.63Z" fill="#F8B517"/>
<path d="M91.13 234C91.13 234.67 66.67 234 66.67 234L53.9 208L55.24 182.18C55.24 182.18 65.24 203.59 65.7 203.9C66.16 204.21 91.38 203.9 91.38 203.9L109.3 177.74C109.3 177.74 112.39 199.44 112.91 199.96C113.43 200.48 90.61 233.27 91.13 234Z" fill="#EE4023"/>
<path d="M98 14.1199L97.38 24.4499L92.51 26.1599L78.81 31.7399L66.28 25.2899L68.37 13.6899C68.37 13.6899 69.87 24.7499 70.24 24.8799C70.61 25.0099 78.95 29.5999 79.14 29.4799C79.33 29.3599 90.86 23.9999 90.86 23.9999L93.51 14.8699L98 14.1199Z" fill="#83491F"/>
<path d="M89.36 51.4302L86.79 52.0002L74.93 51.7302C74.93 51.7302 73.69 51.3402 73.64 51.3402L75.32 50.1302C75.32 50.1302 84.44 50.0702 84.76 50.1302C85.08 50.1902 89.36 51.4302 89.36 51.4302Z" fill="#8E5828"/>
<path d="M85.58 53.9102C85.58 53.9102 83.42 56.4801 83.17 56.4001C82.92 56.3201 77.35 56.4001 77.35 56.4001L75.77 53.9102H85.58Z" fill="#8E5828"/>
<path d="M97.65 32.44C97.65 32.44 95.39 40.04 95.19 40.12C94.99 40.2 82.43 40.7 82.14 40.7L84.25 33.78L94.79 29L97.65 32.44Z" fill="white" stroke="#221F1F" stroke-linejoin="round"/>
<path d="M75.77 40.6998L68.65 38.9098L67.51 38.6298L65.85 32.9198L67.66 29.2998L75.22 33.9698L75.77 40.6998Z" fill="white" stroke="#221F1F" stroke-linejoin="round"/>
<path d="M82.49 44.08L95.77 45.38L98.28 53.27L96.28 43.77L82.81 44" fill="#6A3F26"/>
<path d="M107.87 13.5899L94.79 12.5899L79.14 15.0699L68.66 12.3099L67.52 9.00987L68.97 6.36987L90.39 8.84988L102.55 4.12988L107.87 13.5899Z" fill="#22201F"/>
<path d="M76.53 27.5799C77.3014 28.0492 78.0994 28.4733 78.92 28.8499C78.7018 27.1689 78.398 25.5001 78.01 23.8499C77.6112 23.491 77.2463 23.096 76.92 22.6699L76.53 27.5799Z" fill="#83491F"/>
<path d="M79.4399 28.8302L80.9399 26.1802V28.0302L79.4399 28.8302Z" fill="#83491F"/>
<path d="M73.13 85.66L52.48 86.91C52.48 86.91 50.13 82.44 48.85 80.41L65.66 70.49L72.4 69C72.31 69.1 71.99 69.43 71.54 69.86C70.18 71.15 67.7 73.39 67.49 73.59C69.74 78.12 73.39 85.48 73.13 85.66Z" fill="#EE4023"/>
<path d="M52.48 78.2598L31.59 81.5598L52.48 81.2498V78.2598Z" fill="#EE4023"/>
<path d="M97.5 159.36L77.79 155.88L76.48 160.37L97.64 161.08L99.53 160.02L97.5 159.36Z" fill="#EE4023"/>
<path d="M173.39 133L168 132.35L166.84 118.35C167.07 119 173.39 133 173.39 133Z" fill="#F8B517"/>
<path d="M53.8999 208L66.67 234L65.4899 232.15L64.9999 231.38L64.7299 230.97L64.1499 230.04L63.5099 229.04L63.17 228.5L62.0799 226.79L60.9099 224.95L60.0899 223.65L59.2499 222.34L58.8199 221.66L57.9999 220.36L56.6099 218.18L55.7999 216.9L54.95 215.55C51.16 209.55 47.8999 204.35 47.8399 204.09L51.9099 180.75C51.9099 180.75 48.0199 146.75 48.2399 143.11L37.7 123.28L50.2299 139.15L67.2299 132.96L52.8199 146.48L55.2 182.16L53.8999 208Z" fill="#7C4B20"/>
<path d="M102.55 4.17007V9.05008L79 13.6901L67.48 9.05008L68.93 6.41008C70.35 3.84008 72.32 0.250078 72.39 0.0800781C72.39 0.440078 79.75 5.00008 79.75 5.00008L83.75 2.48007L87.07 4.17007H102.55Z" fill="#22201F"/>
<path d="M98 14.1199C98 14.1199 102.29 11.8099 102.25 11.9699C102.21 12.1299 100.63 25.8399 100.63 25.8399L97.38 24.4499L98 14.1199Z" fill="#3F383E"/>
<path d="M109.46 31.2798V38.9198L106.36 42.4698L109.46 31.2798Z" fill="#5C3412"/>
<path d="M106.36 42.4698L104.45 42.3098L109.46 31.2798L108.88 36.8798L106.36 42.4698Z" fill="#5C3412"/>
<path d="M80.94 17.6101C80.94 17.4201 70.54 9.82007 70.54 9.82007C70.54 9.82007 72.24 0.870069 72.43 1.13007C72.62 1.39007 78.92 8.85007 78.92 8.85007L80.94 17.6101Z" fill="#3F383E"/>
<path d="M66.63 43.46L74.97 44.71C74.97 44.71 77.79 46.47 77.62 46.3L75.16 43.8L66.63 43.46Z" fill="#6A3F26"/>
<path d="M130.48 78.2902L115.33 86.9102L89.75 85.2902L112.03 71.7402L104.07 66.4302L114.54 69.5302L130.48 78.2902Z" fill="#EE4023"/>
<path d="M130.71 136.79C130.53 137.21 117.83 147.3 117.83 147.3L116.94 153.73L130.71 136.79Z" fill="#7C4B20"/>
<path d="M130 144.08C129.87 144.53 118.93 157.36 118.93 157.36L118.6 162.87L130 144.08Z" fill="#7C4B20"/>
<path d="M129.68 107.09L136.06 127.89L123.96 170.93L140.19 127.39L129.68 107.09Z" fill="#F4831F"/>
<path d="M75.11 142C75.46 142.88 74.4 154.75 74.4 154.75L62.78 155.5L65.23 144.28L75.11 142Z" fill="#F8B517"/>
<path d="M74.74 167.34L74.39 192.23L62.88 188.52L64.87 169.61L74.74 167.34Z" fill="#F8B517"/>
<path d="M108.15 320.76L108.09 320.89C100.6 295.48 90.53 261.51 90.53 261.51L87.14 299.21C87.14 299.21 81.09 325.51 81.04 326.08C81.04 326.08 78.1 327.94 74.64 330.08L81.08 309.15L89.5 258.15L82.07 254.69L78.91 245.9L85.62 251.48H93.82C93.82 251.48 95.67 260.09 96.15 260.96C96.63 261.83 107.24 316.1 108.15 320.76Z" fill="#F4831F"/>
<path d="M41.45 465.72L51.7999 456.33C51.7999 456.33 61.0799 479.14 60.5199 478.55C59.9599 477.96 41.45 465.72 41.45 465.72Z" fill="#DC5526"/>
<path d="M190.5 219.51V220H176.32L191.23 188.83V188.98C191.73 191.61 190.5 219.51 190.5 219.51Z" fill="#F8B517"/>
<path d="M75.41 63.7998C75.54 63.6498 77.41 60.5798 77.41 60.5798L83.72 60.2998L87.63 63.7998L80.17 64.7998L75.41 63.7998Z" fill="#78421B"/>
</svg>
