<svg width="162" height="516" viewBox="0 0 162 516" fill="none" xmlns="http://www.w3.org/2000/svg">
<path d="M123.74 102.58L116.06 104.33L114.47 104.25L120.28 89.6402L113 50.7602L107.84 65.7602L105.23 67.7602V56.7702L101.77 42.2202L99.2299 31.5502L97.8999 26.0002L76.1899 32.3202L60.0899 24.9002L56.0899 30.8502C56.0899 30.8502 56.0899 33.4802 56.0899 36.4902C55.4599 39.0202 53.7999 45.7202 53.7999 46.4302C53.7999 47.3202 54.9299 61.6002 55.2999 62.3402C55.6699 63.0802 50.6899 73.1002 50.6899 73.1002L56.3299 69.2702L60.9899 61.8902L63.6799 72.0002L68.9999 78.7002L68.4299 99.4402L56.1199 103.74L55.4399 103.5L46.2699 100.72L43.4399 62.7202L47.0699 24.8602L62.0699 5.95023L80.5299 0.490234L101.9 7.49023L116.29 32.2802L119.22 53.4202L118 56.4502L123.64 86.0002L123.74 102.58Z" fill="#594422"/>
<path d="M53.76 45.5601L49.53 60.8201L48.45 57.6801L46.54 65.5201L51.37 102.13C51.37 102.13 60.57 95.0101 61.22 94.1301C61.87 93.2501 59.57 69.4601 59.57 69.4601L56.91 53.7001L53.76 45.5601Z" fill="#392317"/>
<path d="M53.45 71.2198L54.45 79.2798L52.64 83.7898L51.35 102.13C51.35 102.13 62.57 109.28 62.87 109.13C63.17 108.98 70.87 105.92 71.03 105.52C71.19 105.12 75.03 94.7898 74.91 93.1798C74.79 91.5698 75.05 77.5998 74.48 77.2698C73.91 76.9398 67.69 70.9098 67.29 70.6098C66.89 70.3098 63.17 61.6898 63.17 61.6898L59.7 59.5698L53.45 71.2198Z" fill="#392317"/>
<path d="M95.46 79.0002L95.25 82.3802L79.12 99.7002L79.41 121.13L69.41 125.96L45.53 116.62C45.53 116.62 45.21 113.62 45.53 113.19L55.44 103.49L56.12 103.73L70.85 98.3402L69 78.7002L63.68 72.0002L61 61.8602V61.5902L59.08 57.0002C59.08 57.0002 58.7901 56.0002 58.3901 54.4902L61.22 57.6702C61.22 57.6702 74.03 61.6702 74.5 61.6702C74.97 61.6702 78.5 65.6702 78.5 65.6702V72.4102L71.07 71.0302L74.18 75.8802L78.5 77.2702V87.2102H83.62L95.46 79.0002Z" fill="#AE7136"/>
<path d="M76.19 32.2901L72.42 33.8101L72.08 38.4401L56.11 30.8201L60.09 24.8701L76.19 32.2901Z" fill="#6767AE"/>
<path d="M99.2299 31.5502L84.0599 38.4602L82.7 39.0702L82.0899 34.4902L76.1899 32.2902L97.8999 25.9702L99.2299 31.5502Z" fill="#6767AE"/>
<path d="M101.77 42.2198L95.46 39.0698C95.46 39.0698 81.89 47.8198 81.46 48.1498C81.03 48.4798 84.03 38.4598 84.03 38.4598L99.2 31.5498L101.77 42.2198Z" fill="#689DD4"/>
<path d="M101.77 42.2299L95.46 39.08C95.46 39.08 81.89 47.8199 81.46 48.1499C81.03 48.4799 84.02 38.46 84.02 38.46L82.67 39.08L77.37 47.34L78.17 53.2L77.97 62.38L82.67 61.38L101.89 55.21L105.2 56.7899L101.77 42.2299ZM78.77 60.1199L80.03 54.5099L82.41 60.1199H78.77ZM101.77 49.4799L93.39 55.19L82.7 50.61C83.33 50.61 96.27 41.7599 96.27 41.7599L101.77 46.28V49.4799Z" fill="#7DD1F0"/>
<path d="M74.52 61.7498C74.06 61.7498 61.24 57.6998 61.24 57.6998L58.41 54.5298C57.4854 51.432 56.7243 48.2876 56.13 45.1098C56.13 44.4198 56.13 40.1698 56.13 36.4798C56.13 33.4798 56.13 30.8398 56.13 30.8398L61.13 41.1299L61.32 41.7798L61.49 42.3698L57.56 46.9698L64.64 55.2099L65.3 54.8398L74.52 61.7498Z" fill="#689DD4"/>
<path d="M145.78 195.74L145.99 206.45L138.09 213.14L138.34 198.46V198.32L138.52 187.5V187.19L137.27 183.19L135.57 177.75L118.67 148.39V148.32L118.06 147.25L118.2 146.75L119.4 142.41L121.4 135.01C122.11 134.64 137.13 129.35 137.13 129.35L134.19 140.45L132.25 147.77L132.16 148.11C132.16 148.11 132.16 148.22 132.21 148.32V148.45C132.21 148.5 132.21 148.56 132.21 148.62L132.31 149.02L132.44 149.53C132.44 149.71 132.53 149.9 132.59 150.11C132.67 150.39 132.74 150.69 132.82 151.02C132.82 151.07 132.82 151.13 132.82 151.18C132.89 151.44 132.96 151.71 133.03 152C133.1 152.29 133.18 152.59 133.26 152.9C133.34 153.21 133.35 153.27 133.4 153.47C133.56 154.08 133.73 154.74 133.9 155.47C134.02 155.92 134.13 156.38 134.26 156.85C134.32 157.1 134.39 157.36 134.45 157.62C134.99 159.69 135.57 161.97 136.18 164.3C136.26 164.59 136.34 164.89 136.41 165.18L137.11 167.83C137.19 168.13 137.27 168.42 137.34 168.71C137.65 169.88 137.97 171.04 138.27 172.18C138.35 172.46 138.43 172.75 138.5 173.03L138.95 174.68C139.03 174.95 139.1 175.22 139.17 175.49C139.83 177.88 140.45 180.03 140.97 181.75C141.03 181.94 141.08 182.12 141.14 182.3C141.27 182.74 141.4 183.15 141.52 183.52C141.64 183.89 141.67 183.96 141.74 184.16L141.86 184.51C141.98 184.84 142.09 185.12 142.17 185.32C142.222 185.442 142.286 185.56 142.36 185.67C142.378 185.701 142.402 185.728 142.43 185.75C142.43 185.75 142.49 185.75 142.51 185.75C142.545 185.714 142.587 185.686 142.634 185.669C142.68 185.652 142.73 185.645 142.78 185.65C142.86 185.637 142.941 185.637 143.02 185.65L143.29 185.74H143.34L143.6 185.87C143.75 185.94 143.91 186.04 144.08 186.14C144.48 186.39 144.93 186.71 145.39 187.06C145.553 187.171 145.71 187.291 145.86 187.42C147.05 188.34 148.26 189.42 149 190.08C149.061 190.128 149.118 190.182 149.17 190.24L149.69 190.71L145.58 193.24V195.24L145.78 195.74Z" fill="#DC9159"/>
<path d="M36.83 136.82L35.51 139.59L26.21 159.15L26.32 175.49L26.44 194.12C25.7557 193.715 25.0515 193.344 24.33 193.01C23.92 192.84 23.6 192.74 23.56 192.86C23.44 193.16 23.51 198.79 23.56 200.79V201L21.77 199.88L16.91 196.88C16.91 196.88 17.47 188.72 17.91 181.83C18.21 177.19 18.47 173.12 18.47 172.49C18.47 172.16 18.78 170.23 19.25 167.42C19.98 163.18 21.1 156.9 22.17 151C22.32 150.18 22.46 149.37 22.61 148.57C23.96 141.15 25.11 134.88 25.11 134.88L28.53 138.53L29.2 139.25C31.5275 137.962 34.0865 137.146 36.73 136.85L36.83 136.82Z" fill="#DC9159"/>
<path d="M158.34 195.88L147.34 205.27L146 206.45L145.79 195.74V195.24V193.24L149.9 190.71L149.38 190.24C149.328 190.182 149.271 190.128 149.21 190.08C148.47 189.41 147.26 188.34 146.07 187.42C145.92 187.291 145.763 187.171 145.6 187.06C145.14 186.71 144.69 186.39 144.29 186.14C144.12 186.04 143.96 185.94 143.81 185.87L143.55 185.74H143.5L143.23 185.65C143.151 185.637 143.069 185.637 142.99 185.65C142.94 185.645 142.89 185.652 142.844 185.669C142.797 185.686 142.755 185.714 142.72 185.75C142.72 185.75 142.67 185.75 142.64 185.75C142.612 185.728 142.588 185.701 142.57 185.67C142.496 185.56 142.432 185.442 142.38 185.32C142.26 185.04 142.11 184.65 141.95 184.16C141.88 183.96 141.8 183.75 141.73 183.52C141.66 183.29 141.48 182.74 141.35 182.3C141.29 182.12 141.24 181.94 141.18 181.75C140.66 180.03 140.04 177.88 139.38 175.49C139.31 175.22 139.24 174.95 139.16 174.68L138.71 173.03C138.64 172.75 138.56 172.46 138.48 172.18C138.18 171.04 137.86 169.88 137.55 168.71C137.48 168.42 137.4 168.13 137.32 167.83L136.62 165.18C136.55 164.89 136.47 164.59 136.39 164.3C135.78 161.97 135.2 159.69 134.66 157.62C134.6 157.36 134.53 157.1 134.47 156.85C134.34 156.38 134.23 155.92 134.11 155.47C133.94 154.79 133.77 154.13 133.61 153.47C133.61 153.27 133.52 153.08 133.47 152.9C133.31 152.28 133.16 151.7 133.03 151.18C133.03 151.13 133.03 151.07 133.03 151.02C132.95 150.69 132.88 150.39 132.8 150.11C132.74 149.9 132.69 149.71 132.65 149.53L132.52 149.02L132.42 148.62C132.42 148.56 132.42 148.5 132.42 148.45V148.32C132.42 148.22 132.42 148.14 132.37 148.11L132.46 147.77L134.4 140.45L137.34 129.35L138.67 133L146.12 153.38L146.28 153.82L149.76 163.32L156.69 182.32L157.98 191.76L158.34 195.88Z" fill="#F1B280"/>
<path d="M107.84 109.65C107.84 109.65 109.29 111.74 111.09 114.77L71.9999 127L69.4299 126L79.4299 121.17L79.14 99.7399L95.2699 82.4199L94.7999 98.7499L114.49 104.25L116.08 104.33L107.84 109.65Z" fill="#C68650"/>
<path d="M36.64 137.22L35.51 139.59L35.89 138.01L36.71 136.87L36.76 136.79C36.7142 136.72 36.6863 136.64 36.6788 136.556C36.6713 136.473 36.6844 136.389 36.717 136.312C36.7497 136.235 36.8007 136.167 36.8658 136.114C36.9308 136.062 37.0078 136.026 37.09 136.01H37.16H37.24H37.39L36.77 136.88C36.77 136.88 36.77 136.88 36.77 136.95L36.59 137.34L36.64 137.22Z" fill="#F1B280"/>
<path d="M36.9 160.18L37.38 161.11V161.18L36.85 166.18V166.29L34.52 188.38L31 204.74L28.45 203.47L23.53 201V200.81C23.53 200.42 23.53 199.89 23.53 199.29C23.53 197.38 23.53 194.75 23.53 193.54C23.53 193.38 23.53 193.25 23.53 193.14C23.53 193.03 23.53 193.02 23.53 192.97C23.5279 192.94 23.5279 192.91 23.53 192.88C23.53 192.76 23.89 192.88 24.3 193.03L24.52 193.13L24.75 193.24L24.99 193.36C25.47 193.6 25.94 193.87 26.2 194.02L26.36 194.11H26.41L26.29 175.48L26.18 159.14L35.48 139.58L33 150.07L32.32 151.29C32.3398 151.335 32.3633 151.379 32.39 151.42L36.86 160.13C36.86 160.13 36.89 160.17 36.9 160.18Z" fill="#F1B280"/>
<path d="M76.39 50.7798L73.35 46.2999L61.95 41.7798H61.28L61.09 41.1299L56.13 30.8398L72.1 38.4599L75.4 43.9698L76.39 50.7798Z" fill="#689DD4"/>
<path d="M82.7 39.0701L77.4 47.33L75.37 43.95L72.08 38.44L72.42 33.81L76.19 32.29L82.09 34.4901L82.7 39.0701Z" fill="#8193CA"/>
<path d="M120.28 89.6398L114.47 104.25L92.72 98.7498L95.25 82.4298V82.4198L95.46 79.0398L99.14 72.5598L105.23 56.7698V67.7098L107.84 65.7098L113 50.7598L120.28 89.6398Z" fill="#392317"/>
<path d="M105.23 56.7702L99.14 72.5602L95.46 79.0402L83.6 87.2502H78.48V77.3102L82.44 76.7302L86.57 72.4502L90.7 67.7102L86.57 71.0702L78.48 72.4502V65.7102L82.7 61.3602L101.92 55.1802L105.23 56.7702Z" fill="#C68650"/>
<path d="M90.7001 67.71L86.58 72.45L82.4401 76.7299L78.4801 77.31L74.1601 75.92L71.05 71.07L76.8 74.05L80.8701 73.6199L86.58 71.07L90.7001 67.71Z" fill="#A96739"/>
<path d="M86.58 71.0698L80.8701 73.6198L76.8 74.0498L71.05 71.0698L78.4801 72.4498L86.58 71.0698Z" fill="#9E5C28"/>
<path d="M82.4401 60.11H78.8L80.05 54.5L82.4401 60.11Z" fill="#8193CA"/>
<path d="M82.7 61.3602L78.48 65.7102C78.48 65.7102 74.95 61.7102 74.48 61.7102L65.22 54.8002C67.22 53.6602 73.4 50.2602 73.81 50.2602L61.91 41.7402L73.3 46.2502L76.3 50.7402L75.3 43.9302L77.3 47.3102L78.1 53.1702L77.91 62.3602L82.7 61.3602Z" fill="#7DD1F0"/>
<path d="M60.9999 61.86L56.3399 69.24L50.7 73.07C50.7 73.07 55.6999 63.07 55.3099 62.31C54.9199 61.55 53.8099 47.3099 53.8099 46.3999C53.8099 45.6899 55.4699 38.99 56.0999 36.46C56.0999 40.14 56.0999 44.39 56.0999 45.09C56.6946 48.2644 57.4556 51.4054 58.3799 54.5C58.7799 55.97 59.0699 57.0099 59.0699 57.0099L60.9799 61.59L60.9999 61.86Z" fill="#6D542F"/>
<path d="M101.77 46.2698V49.4798L93.39 55.1798L82.7 50.5998C83.34 50.5998 96.2699 41.7598 96.2699 41.7598L101.77 46.2698Z" fill="white" stroke="#231F20" stroke-linejoin="round"/>
<path d="M73.83 50.2799C73.42 50.2799 67.28 53.6799 65.24 54.8199L64.58 55.1799L57.5 46.9399L60.61 41.9399L61.07 41.1299L73.83 50.2799Z" fill="white" stroke="#231F20" stroke-linejoin="round"/>
<path d="M128.37 266.49L116.72 353.94L102.64 355.34L77.49 273.05C77.49 273.05 88.23 264.25 99 255.59C101.27 253.76 103.54 251.93 105.71 250.2C105.4 257.91 103.76 292.38 103.76 292.38C103.76 292.38 116.46 320.55 116.82 319.98C117.18 319.41 127.94 268.1 128.37 266.49Z" fill="#3A3B44"/>
<path d="M47.69 509.66L20.09 511.23C20.09 511.23 10.09 512.44 9.29999 512.23C8.50999 512.02 0.5 510.06 0.5 510.06L1.26001 506.67L15.12 507.38H15.58L26.39 508.07L40.26 504.89L40.8 504.77H40.97C41.33 504.67 47.2 503.11 47.38 503.16C47.61 506.78 47.69 509.66 47.69 509.66Z" fill="#3A3B44"/>
<path d="M26.32 507.96L40.3 504.94L26.43 508.12L15.62 507.43L15.16 507.41H15.15L15.12 507.39L15.42 507.41L26.32 507.96Z" fill="#001750"/>
<path d="M47.48 503.15C47.3 503.15 41.43 504.66 41.07 504.76L41.02 504.63L40.97 504.49L40.65 503.57C40.57 503.32 40.46 503.04 40.35 502.73C40.24 502.42 40.11 502.08 39.97 501.73L39.82 501.32C39.76 501.16 39.7 500.98 39.63 500.81C39.4 500.18 39.15 499.51 38.87 498.81C38.8 498.59 38.71 498.38 38.62 498.16C38.33 497.4 38.04 496.61 37.73 495.81C37.55 495.37 37.39 494.93 37.22 494.48C36.79 493.38 36.37 492.29 35.98 491.27L35.56 490.19C35.15 489.19 34.79 488.19 34.49 487.46C34.4561 487.355 34.416 487.251 34.37 487.15L34.22 486.77C34.16 486.61 34.11 486.46 34.06 486.34L33.92 485.99C33.81 485.69 33.74 485.52 33.74 485.52L33.87 484.74V485.74H46.36C46.43 485.72 47.3 496.93 47.48 503.15Z" fill="#7DD1F0"/>
<path d="M39.89 471.88H39.66V471.38L39.89 471.88Z" fill="#1C387F" stroke="#9AB8C7" stroke-miterlimit="10"/>
<path d="M40.88 504.81H40.83L40.3 504.94L26.43 508.12L15.62 507.43H15.16L6.66003 503.18L25 493.73L27.44 495.41L28.32 496.01L28.95 496.45L29.78 497.03C34.05 500 39.77 503.94 40.88 504.81Z" fill="#7DD1F0"/>
<path d="M15.16 507.41L1.26001 506.69L6.62 503.15L15.16 507.41Z" fill="#4B5680"/>
<path d="M136.88 500.55L119.68 494.76L119.13 485.36L119.2 485.72H131.52L136.88 500.55Z" fill="#689DD4"/>
<path d="M140.27 508.85L122.2 508.51C122.2 508.51 119.72 500.96 119.72 500.64V495V494.75L136.92 500.54L140.27 508.85Z" fill="#7DD1F0"/>
<path d="M141.43 511.67L131.31 515.07H122.31L118.07 509.63L119.7 500.96V500.64C119.7 500.96 122.18 508.51 122.18 508.51L140.25 508.85L141.43 511.67Z" fill="#3A3B44"/>
<path d="M41.07 504.76H40.9L29.9 496.98L29.07 496.4L28.44 495.96L27.56 495.36L25 493.73L33.7 485.5C33.7 485.5 33.77 485.67 33.88 485.97L34.02 486.32C34.07 486.44 34.12 486.59 34.18 486.75L34.33 487.13C34.376 487.231 34.4161 487.334 34.45 487.44L39.78 501.31L39.93 501.72L40.98 504.43C40.9919 504.514 41.0085 504.598 41.03 504.68C41.0395 504.708 41.053 504.735 41.07 504.76V504.76Z" fill="#4B5680"/>
<path d="M55.43 103.5L45.53 113.2L42.25 116.41L41.83 118.34C40.78 123.26 38.02 135.85 37.45 135.85C37.25 135.85 35.3 136.45 35.3 136.45L29.22 139.2L25.13 134.83L23.64 121.83L27.46 128.52L37.56 115.66L47.9 107.35L43.09 101.35L46.24 100.47L55.43 103.5Z" fill="#3A3B44"/>
<path d="M21.1001 254.14C21.1001 254.14 14.4501 258.22 14.3401 258.71C14.2301 259.2 5.43008 251.24 4.39008 250.29C4.08008 256.48 6.13007 279.7 6.13007 279.7L7.86005 281.15L17.3 278.2L24.8 268.81L21.1001 254.14ZM7.86005 277.53L7.25006 261.94L10.0001 275.43L7.86005 277.53Z" fill="#7DD1F0"/>
<path d="M18.14 198L16 217.79L14 202.74L14.25 197.97C14.2471 197.923 14.2471 197.877 14.25 197.83L16.86 196.83L18.14 198Z" fill="#8193CA"/>
<path d="M16.0801 249.77L21.0801 254.14C21.0801 254.14 14.4301 258.22 14.3201 258.7C14.2101 259.18 5.41006 251.24 4.37006 250.29C4.3613 249.812 4.41509 249.335 4.53006 248.87C5.12006 247.96 13.8601 200.87 14.2301 197.97L13.9801 202.74L15.9801 217.79L14.3101 233.33L21.4001 243.51L10.6501 245.82L7.22007 249.77H16.0801Z" fill="#689DD4"/>
<path d="M32.07 207.09L21.43 243.51L14.34 233.33L16.01 217.79L18.14 198.03L21.74 199.9L21.81 199.94L23.53 200.84L24.23 201.21L31.01 204.74L31.07 204.87L32.07 207.09Z" fill="#3A3B44"/>
<path d="M20.58 252.52L21.1 254.14L16.07 249.77H7.25L10.69 245.82L21.44 243.51L20.58 252.52Z" fill="#8193CA"/>
<path d="M26.67 287.11L13.59 288.08L7.85999 281.14L17.3 278.2L24.8 268.81L26.98 275.49L26.67 287.11Z" fill="#689DD4"/>
<path d="M107.61 172.51C107.61 172.51 99.77 189.84 99.73 189.84C99.69 189.84 99.73 189.94 99.79 190.11C98.42 188.11 98.28 184.24 97.9 184.24C97.52 184.24 91.71 181.8 89.08 180.79C89.0847 180.753 89.0847 180.716 89.08 180.68C89.54 178.58 89.82 177.16 89.82 177.16L92.41 178.26L97 166.62L103.63 157.34L108.51 152.61L116.73 144.61C118.8 146.11 118.03 147.18 118.03 147.18L107.61 172.51Z" fill="#689DD4"/>
<path d="M105.77 208.81L84.17 218.58V213.69L57 214.85V218.58L51.26 210.48L48.91 175.38L38.8 163.23L37.39 161.12L32.39 151.3L33.06 150.07L39.3 158.86L41.37 160.33L46.71 164.12L55.48 177.42L57.03 176.6L67.71 191.84C69.09 187.96 70.4633 184.083 71.83 180.21L76.83 190.8L89.16 180.8C91.79 181.8 97.54 184.25 97.98 184.25C98.42 184.25 98.5 188.1 99.87 190.12C100.23 192.43 105.77 208.81 105.77 208.81Z" fill="#689DD4"/>
<path d="M108.5 152.61L103.62 157.34L97 166.62L92.45 178.26L89.86 177.16L71.11 169.16L57 176.59L55.45 177.41L46.68 164.11L41.34 160.32L52.59 163.21L63.85 145.77L70.64 160.45L75.78 148.19C75.78 148.19 89.98 161.62 90.34 161.46C90.7 161.3 108 152.88 108.5 152.61Z" fill="#3A3B44"/>
<path d="M89.84 177.16C89.84 177.16 89.56 178.58 89.1 180.68V180.79C85.7 185.836 82.27 190.906 78.81 196C76.4833 191.333 74.15 186.666 71.81 182C70.1166 186.733 68.42 191.46 66.72 196.18C63.4733 189.673 60.2266 183.16 56.98 176.64L71.11 169.26L89.84 177.16Z" fill="#7DD1F0"/>
<path d="M116.73 144.65L108.51 152.65C107.97 152.92 90.69 161.34 90.33 161.5C89.97 161.66 75.77 148.23 75.77 148.23L90.17 138.88C90.17 138.88 102.81 134.52 103.43 135L116.73 144.65Z" fill="#7DD1F0"/>
<path d="M49 252.6L38 240.84L45 224.67C45.44 224.97 46 225.42 46.75 225.95L49 252.6Z" fill="#7DD1F0"/>
<path d="M58.16 234.78C58.16 234.78 50.78 229 46.79 226C46.08 225.47 45.48 225 45.04 224.72L51.24 210.53L56.98 218.63L58.16 234.78Z" fill="#3A3B44"/>
<path d="M69.78 242.34L58.16 234.78C60.01 233.28 67.6 227.47 69.39 226.47L69.55 226.39C69.613 226.352 69.6865 226.334 69.76 226.34C69.82 227.07 69.78 242.34 69.78 242.34Z" fill="#7DD1F0"/>
<path d="M110.78 224.2L106.84 225.55L84.17 233.33V218.58L105.77 208.81L110.78 224.2Z" fill="#3A3B44"/>
<path d="M116.72 353.94C116.72 353.94 111.72 374.54 111.5 375.42C111.28 376.3 102.64 355.34 102.64 355.34L116.72 353.94Z" fill="#4B5680"/>
<path d="M78.78 304.72C79.04 303.34 64.32 356.13 64.32 356.13L59.5 362.54C59.5 362.54 61.78 353.07 62.03 352.27C62.28 351.47 76.38 300.57 76.38 300.57C76.38 300.57 67.01 297.13 68.67 297.38C71.2548 297.519 73.8452 297.519 76.43 297.38L81.5 295.85L98.06 361C97.59 359.35 78.52 306.07 78.78 304.72Z" fill="#4B5680"/>
<path d="M124.77 352.84L128.37 266.51L116.72 354C116.72 354 111.72 374.59 111.49 375.47C111.26 376.35 102.64 355.39 102.64 355.39L81.56 286.39L77.48 273.06L77.75 272.84L78.23 272.45L79.33 271.55L80.33 270.76C82.99 268.59 87.27 265.1 92.07 261.21L93.9 259.73L99.02 255.6L106.86 225.6L102.48 227.1L84.2 233.38V235.87L79.47 238L69.78 242.4L58.32 234.94L58.16 234.82H58.09L57.87 234.65L57.13 234.07L56.89 233.88L56.58 233.63L56.04 233.21C54.73 232.21 52.96 230.8 51.2 229.44L49.81 228.36C48.72 227.52 47.68 226.72 46.81 226.06L49 252.6L51 254.73L52.93 256.79L69.8 274.79L67.65 286.12L53.57 360.2L40.63 352.2L34.63 282.31L32.24 330.13L34.89 349.18L32.52 375.58L34.89 385.13L33.96 471.89H39.68V414.65C39.75 414.19 41.17 410.89 43.17 406.36L43.88 404.76C44 404.49 44.12 404.21 44.25 403.93L45.41 401.34C46.2 399.56 47.04 397.71 47.89 395.83C48.17 395.21 48.46 394.59 48.74 393.96C52.56 385.52 56.38 377.18 57.49 374.79L57.6 374.54L57.75 374.21V374.1L62.21 393L47.07 471.92H50.84L68.31 390.14L59.5 362.57C59.5 362.57 61.77 353.1 62.03 352.31C62.03 352.24 62.2 351.72 62.44 350.85C62.53 350.56 62.62 350.23 62.72 349.85C62.93 349.12 63.17 348.24 63.45 347.24L63.89 345.65C64.13 344.81 64.38 343.91 64.64 342.96C64.9 342.01 65.18 340.96 65.47 339.96C65.86 338.57 66.27 337.11 66.68 335.59C70.88 320.48 76.38 300.59 76.38 300.59C76.12 300.49 67.04 297.15 68.68 297.41C71.2649 297.545 73.8551 297.545 76.44 297.41L81.51 295.88L98.03 360.88V360.99L96.47 385.32C96.47 385.32 117.08 476.8 118.14 477.63C118.296 477.722 118.47 477.78 118.65 477.8C120.758 478.037 122.881 478.104 125 478V478H125.86L116.91 417.92C116.91 417.92 127.74 381.92 127.74 381.23C127.74 380.54 130.9 385.44 130.9 385.44L131.15 477.78C131.8 477.78 132.3 477.71 132.54 477.71L132.75 476C133.13 463.23 131.89 384.17 132.86 383.92C133.83 383.67 124.77 352.84 124.77 352.84ZM34.82 370.77L38.34 354C39.34 354.43 49.11 364.75 49.11 364.75L34.82 370.77Z" fill="#8193CA"/>
<path d="M120.44 238.92C119.34 239.43 113.11 244.3 105.71 250.2C103.54 251.93 101.27 253.76 99 255.59L106.84 225.59L110.78 224.24L120 237.89L120.44 238.92Z" fill="#7DD1F0"/>
<path d="M128.38 266.45C127.95 268.06 117.18 319.39 116.83 319.94C116.48 320.49 103.77 292.34 103.77 292.34C103.77 292.34 105.41 257.87 105.72 250.16C113.12 244.26 119.35 239.39 120.45 238.88L128.38 266.45Z" fill="#689DD4"/>
<path d="M150.27 218.58V248.82L146.66 255.55L143.23 249.69L131.01 262.69L131.43 270.2H136.17V282L147.25 284.77L155.43 277.23C155.43 277.23 158.08 245.94 158.34 244.84C158.55 244 159.66 218.03 161.4 205.08C161.21 205.29 156.65 211.56 150.27 218.58ZM147.27 280.11L149.08 273.05V260.93L152.44 275.43L147.27 280.11Z" fill="#7DD1F0"/>
<path d="M155.44 277.21L152.54 284.63L140.35 291.68L133.35 290.04L131.44 270.19H136.17V281.99L147.26 284.75L155.44 277.21Z" fill="#689DD4"/>
<path d="M150.28 218.58V248.82L146.66 255.54L143.24 249.69L135.24 214.59C135.24 214.59 140.4 228.14 140.61 228.77C140.67 229.05 145.21 224.16 150.28 218.58Z" fill="#3A3B44"/>
<path d="M130.89 385.41L131.13 477.74C129.83 477.81 127.85 477.91 125.84 477.97L116.89 417.89C116.89 417.89 127.72 381.89 127.72 381.2C127.72 380.51 130.89 385.41 130.89 385.41Z" fill="#4B5680"/>
<path d="M113.17 118.27L79.1701 129.52L69.7401 143L60.6701 128.1L41.8 118.37L42.2201 116.43L45.5001 113.23C45.2001 113.68 45.5001 116.65 45.5001 116.65L69.4101 126L71.9601 127L111.09 114.75L113.17 118.27Z" fill="#7DD1F0"/>
<path d="M63.83 145.77L52.57 163.21L41.32 160.32L39.25 158.85L33.01 150.06L35.89 138.01V138L39.19 134.53L53.31 135.15L63.83 145.77Z" fill="#7DD1F0"/>
<path d="M84.17 218.58V233.33V235.81L79.4699 237.94L79.7 218.58H60.7899C60.4299 218.58 58.2699 216.12 57.1899 214.84L84.1899 213.69V218.58H84.17Z" fill="#7DD1F0"/>
<path d="M52.59 293.84C52.59 293.84 42.14 319.24 41.98 318.38C41.82 317.52 35.28 284.63 34.61 282.14V281.25L37.28 242.36L37.94 240.86L48.94 252.62L50.94 254.75L52.59 293.84Z" fill="#689DD4"/>
<path d="M69.78 274.8L53.55 360.21L40.6 352.21L34.6 282.32V282.15C35.27 284.64 41.79 317.55 41.97 318.39C42.15 319.23 52.58 293.85 52.58 293.85L51 254.73L69.78 274.8Z" fill="#3A3B44"/>
<path d="M49.11 364.69L34.8201 370.76L38.3401 353.94C39.3701 354.37 49.11 364.69 49.11 364.69Z" fill="#4B5680"/>
<path d="M121.41 135L118 147.22C118 147.22 118.77 146.15 116.7 144.65L103.42 135C102.8 134.52 90.16 138.88 90.16 138.88L75.76 148.23L70.61 160.49L63.84 145.81L53.31 135.19L39.2 134.57L35.89 138L37.42 135.88C37.99 135.88 40.75 123.29 41.8 118.37L60.67 128.12L69.74 143L79.19 129.46L113.19 118.2C117.62 125.66 121 135.19 121.41 135Z" fill="#689DD4"/>
<path d="M152.43 275.42L147.26 280.11L149.06 273.05V260.93L152.43 275.42Z" fill="#3A3B44"/>
<path d="M10 275.42L7.85999 277.52L7.25 261.94L10 275.42Z" fill="#3A3B44"/>
<path d="M62.21 393L47.07 471.91H39.89L39.66 471.41V414.71C39.66 413.56 57.78 374.12 57.78 374.12L62.21 393Z" fill="#4B5680"/>
<path d="M50.85 471.88L46.34 485.72H33.85L33.86 484.73L33.95 471.88H50.85Z" fill="#3A3B44"/>
<path d="M132.52 477.67L131.52 485.72H119.2L119.13 485.36L118.68 477.83C120.779 478.053 122.892 478.11 125 478C127.3 478 129.68 477.83 131.17 477.75L132.52 477.67Z" fill="#3A3B44"/>
<path d="M136.72 110.86L107.84 109.65L116.19 104.2L123.75 101.37L136.72 110.86Z" fill="#7DD1F0"/>
<path d="M137.13 129.25V129.3L137.04 129.28L125.76 127.3L107.84 109.65L136.72 110.86L137.13 129.25Z" fill="#689DD4"/>
<path d="M137.13 129.3L132.38 131L130.73 131.58C127.06 132.89 123.02 134.33 121.86 134.79L121.67 134.86L121.41 134.98C120.89 134.86 117.52 125.49 113.15 118.21L111 114.7C109.19 111.7 107.81 109.7 107.81 109.7L125.73 127.35L137 129.35L137.13 129.3Z" fill="#3A3B44"/>
<path d="M44.11 107.35L31.37 107.99L43.06 101.34L44.11 107.35Z" fill="#7DD1F0"/>
<path d="M47.87 107.35L37.53 115.66L27.43 128.52L23.61 121.83L31.37 107.99L44.11 107.35L43.06 101.34L47.87 107.35Z" fill="#689DD4"/>
<path d="M82.0899 34.4902L97.8999 25.9702L76.1899 32.2902L82.0899 34.4902Z" fill="#6767AE"/>
<path d="M79.7 64.4602L101.92 55.1802L104.87 58.1402L105.23 56.7702L101.92 55.1802L82.7 61.3602L79.7 64.4602Z" fill="#BC7645"/>
<path d="M77.4 64.5302L61.22 57.6802L74.5 61.7302L77.4 64.5302Z" fill="#9B5023"/>
<path d="M95.46 79.04L85.52 87.8801L83.58 88.81L79.78 87.94L78.27 87.47L83.6 87.25L95.46 79.04Z" fill="#9B5023"/>
<path d="M68.99 79.8502L78.27 87.4702L68.99 78.7002V79.8502Z" fill="#9B5023"/>
<path d="M69 78.7002C69 78.8702 78.49 87.2502 78.49 87.2502H83.61L83.44 87.9502L78.28 87.4702C78.28 87.4702 70.58 80.7202 70.52 80.7302C70.46 80.7402 69 78.7002 69 78.7002Z" fill="#9B5023"/>
<path d="M76.1901 32.2901C76.1901 32.2901 71.1301 23.7201 71.0501 22.9701C70.9701 22.2201 80.6201 4.81006 80.6201 4.81006C80.6201 4.81006 75.6201 20.5101 75.8301 20.7001C76.0401 20.8901 81.4601 30.2301 81.4601 30.2301L76.1901 32.2901Z" fill="#392317"/>
<path d="M101.9 7.4598C101.28 7.2798 95.46 9.6898 95.46 9.6898C95.46 9.6898 89 26.1998 89.32 25.9998C89.64 25.7998 96.66 11.2398 96.66 11.2398L101.9 7.4598Z" fill="#392317"/>
<path d="M47.0601 24.87L63.1501 16.11L72.08 18.55L62.0701 5.95996L47.0601 24.87Z" fill="#392317"/>
<path d="M98.9999 368.19C99.5199 369.11 113.91 407.07 113.91 407.07L97.6799 386L98.9999 368.19Z" fill="#4B5680"/>
<path d="M49.11 370.76L36.39 375.45L39.66 414.68L57.78 374.09L49.11 370.76Z" fill="#3A3B44"/>
<path d="M58.33 234.89L52.91 256.79L69.78 274.8L67.63 286.12L74.91 288.08L81.56 286.38L77.49 273.05L93.88 259.72L102.64 226.34L84.17 233.33V235.81L69.78 242.34L58.33 234.89Z" fill="#689DD4"/>
<path d="M146.07 153.77C141.73 152.24 135.77 150.18 132.39 149.01L129.78 148.1L130.35 147.1L134.19 140.39L138.46 132.94L145.91 153.32L146.07 153.77Z" fill="#3A3B44"/>
<path d="M121.41 135L121.7 134.88L121.41 135Z" fill="#602852"/>
<path d="M138.46 133L134.19 140.45L130.35 147.15L129.78 148.15L118.69 148.43V148.36L118.08 147.29V147.22L118.18 146.84L119.39 142.41L121.39 135.01C122.1 134.64 137.12 129.35 137.12 129.35L138.46 133Z" fill="#4B5680"/>
<path d="M157.77 191.68L144.16 185.75L144.24 185.42L144.66 183.65L149.55 163.27L156.48 182.27L157.77 191.68Z" fill="#689DD4"/>
<path d="M147.37 205.27C147.46 205.89 147.52 206.27 147.52 206.48C147.52 207.86 137.7 214.88 137.7 214.88L138.34 198.46V198.32L138.75 187.75L138.52 187.5V187.19L137.27 183.19L135.57 177.75L118.67 148.39V148.32C121.46 148.04 129.6 147.22 130.32 147.12H130.37C131.018 147.28 131.653 147.487 132.27 147.74C135.36 148.91 141.45 151.45 145.93 153.34L146.09 153.78L149.57 163.28L144.68 183.66L144.26 185.43L144.18 185.76L144.25 186.19L144.32 186.59C144.59 188.14 145.18 191.59 145.79 195.25C146.42 199.16 147.09 203.25 147.37 205.27Z" fill="#7DD1F0"/>
<path d="M147.37 205.27C147.46 205.89 147.52 206.27 147.52 206.48L147.33 205.3L145.78 195.74L144.3 186.58L144.23 186.18L144.16 185.75L157.77 191.68L158.34 195.88L147.37 205.27Z" fill="#3A3B44"/>
<path d="M149.45 183.21L144.24 185.42L143.44 185.76L138.76 187.76L138.53 187.51V187.2L137.28 183.2C138.65 183.32 140.28 183.42 141.63 183.5L144.63 183.67L149.45 183.21Z" fill="#3A3B44"/>
<path d="M33 150.07L32.32 151.29C32.3399 151.335 32.3633 151.379 32.39 151.42C32.83 152.23 35.18 156.6 36.86 160.13C36.86 160.13 36.86 160.13 36.86 160.18L37.33 161.18L36.8 166.18V166.29C34.09 168.69 29 173.13 26.94 174.91L26.28 175.49C26.2196 175.536 26.1627 175.586 26.11 175.64L26.05 175.69L22.16 151C22.31 150.18 22.45 149.37 22.6 148.57L28.52 138.57L28.57 138.49L35.24 136.55L35.55 136.46L37.09 136.02H37.16H37.24H37.39L36.78 136.87L36.71 136.97L35.88 138.12L35.5 139.71L33 150.07Z" fill="#4B5680"/>
<path d="M22.16 151L26.08 175.75L17.9 181.83C18.2 177.19 18.46 173.12 18.46 172.49C18.46 172.16 18.77 170.23 19.24 167.42C20 163.16 21.09 156.88 22.16 151Z" fill="#689DD4"/>
<path d="M28.57 138.43L28.52 138.51L22.6 148.51C23.95 141.09 25.1 134.82 25.1 134.82L28.57 138.43Z" fill="#44193C"/>
<path d="M36.84 166.21V166.32L34.51 188.41L31 204.74L31.06 204.87L28.45 203.47L24.22 201.21L23.52 200.83L24.31 193.05L26.07 175.73L26.13 175.68C26.1828 175.626 26.2396 175.576 26.3 175.53V175.53L26.96 174.95C29 173.11 34.13 168.57 36.84 166.21Z" fill="#689DD4"/>
<path d="M26.08 175.73L24.32 193.05L23.53 200.83L18.06 198.03L16.88 196.86C16.88 196.86 17.44 188.7 17.88 181.81C18.18 177.17 18.44 173.1 18.44 172.47C18.44 172.14 18.75 170.21 19.22 167.4C21.65 170.43 26.08 175.73 26.08 175.73Z" fill="#7DD1F0"/>
<path d="M161.51 198.83C161.785 200.9 161.751 203 161.41 205.06V205.06C161.21 205.28 156.65 211.55 150.28 218.57C145.21 224.15 140.67 229.04 140.58 228.76C140.37 228.13 135.21 214.58 135.21 214.58L137.32 213.76L145.99 206.44L158.34 195.87C158.34 195.87 158.08 195.52 158.88 194.7C159.68 193.88 161.51 198.83 161.51 198.83Z" fill="#689DD4"/>
</svg>
