<svg width="168" height="479" viewBox="0 0 168 479" fill="none" xmlns="http://www.w3.org/2000/svg">
<path d="M91.5199 42.28H90.3999L86.3999 42.35H85.7999L81.2299 42.43H79.8999H78.5999H78.4999L78.3199 42.49L77.8799 42.68L77.3199 42.92L74.9799 43.98L74.6299 44.14L74.1699 44.36L73.9299 44.47L73.5799 44.63L71.1999 42.22L64.2899 41.98H63.6599C63.7799 42.52 65.4899 48.29 65.4899 48.29L68.0599 54.78L72.3599 61.5H83.1899L90.8999 52.39L90.9699 52.32L91.7399 51.42L91.7899 51.36V51.17L91.5199 42.28ZM80.3999 48.42C80.7099 48.49 84.8299 49.67 84.8299 49.67L69.6599 49.59L71.2799 48.42C71.2799 48.42 80.0899 48.36 80.3999 48.42ZM71.7199 52.06H81.1899C81.1899 52.06 79.0999 54.55 78.8599 54.47C78.6199 54.39 73.2399 54.47 73.2399 54.47L71.7199 52.06Z" fill="#E4B17B"/>
<path d="M68.49 0.110107L74.95 1.9201L82.63 0.110107L97.57 4.05011L84.36 7.3401L72.3 6.6701L68.49 0.110107Z" fill="#3E383E"/>
<path d="M164.38 218.66V219.1L154.64 218L165.77 167.28C165.77 167.28 167.18 188.95 167.54 189.65V189.79C167.73 192.42 164.38 218.66 164.38 218.66Z" fill="#5A5755"/>
<path d="M160.11 218.63L155.12 245.26L151.63 231.29L146.09 228.71L146.28 228.28L154.64 218.03L160.11 218.63Z" fill="#E4B37C"/>
<path d="M155.12 245.26L144.81 247.53L142.94 243.92L148.24 242.77L148.73 238.36L142.94 243.92L141.02 240.2L146.09 228.71L151.63 231.29L155.12 245.26Z" fill="#D1925E"/>
<path d="M167.39 245.52L162.36 249.46L144.81 247.53L155.12 245.26L167.39 245.52Z" fill="#9E6F5A"/>
<path d="M164.33 219.1L167.39 245.52L155.12 245.26L160.11 218.63L164.33 219.1Z" fill="#D1925E"/>
<path d="M141.48 80.1601L130.02 97.6401L109.9 83.9201L124.53 75.6001L124.75 75.7001L141.48 80.1601Z" fill="#A1A0A0"/>
<path d="M98.52 65C93.57 67.17 80.6 74.14 79.19 74.58C79.12 74.58 79.08 74.58 79.07 74.58C78.81 74.4 72.59 69.29 69.02 66.58L78.2 70.11L97.3 60V64.13L98.52 65Z" fill="#D0A17F"/>
<path d="M97.34 54V60L78.24 70.1L69 66.59L70.07 61.06L71.88 63.25H83.18L97.34 54Z" fill="#BB865E"/>
<path d="M98.1099 44.51L98.6499 43.92L98.1099 44.51L97.3399 54.01L83.1799 63.23L91.7699 51.23C94.3551 47.6363 96.5697 43.79 98.3799 39.75C98.5299 39.37 98.1099 44.33 98.1099 44.51Z" fill="#966C54"/>
<path d="M91.7099 51.3L83.1799 63.23H71.8799L70.0699 61L67.7899 55.1L65.4399 48.52L62.8999 42L64.2099 42.07L66.0499 48.42L68.6199 54.91L72.2999 61.63H83.1299L91.7099 51.3Z" fill="#C7915D"/>
<path d="M103.09 28L105.23 37.95L98.1099 44.52C98.1099 44.34 98.5299 39.38 98.3799 39.73C99.8644 35.9647 100.849 32.0211 101.31 28H103.09Z" fill="#D0A17F"/>
<path d="M102.7 13.1501L101.53 27.8901L92.5801 23.6301L93.1801 13.6301L88.8401 14.3401L77.2101 17.7901L64.5801 13.2101L63.3401 24.4101L63.7501 8.73006C63.7501 8.73006 74.6801 11.1301 74.9301 11.1301C75.1801 11.1301 92.0101 9.55005 92.3801 9.43005C92.7501 9.31005 97.7101 7.34006 97.9901 7.06006L102.7 13.1501Z" fill="#22201F"/>
<path d="M88.8401 14.37L86.2801 23.18C86.2801 23.18 75.1501 28.35 74.9701 28.48C74.7901 28.61 66.7501 24.16 66.3801 24.04C66.0101 23.92 64.5801 13.24 64.5801 13.24L76.7101 17.64L88.8401 14.37Z" fill="#E4B17B"/>
<path d="M101.54 27.9899L97.75 30.0099L92.82 31.4999L90.06 28.1299L87.74 25.3299L92.58 23.6299L101.53 27.8999L101.52 27.8899L101.54 27.9899Z" fill="#A1A0A0"/>
<path d="M98.0599 29.83C98.0599 29.83 93.3699 38.71 91.9599 41.47L91.7099 41.94L91.5499 42.2299V42.28L78.5499 42.5C78.2599 42.5 73.5499 44.72 73.5499 44.72L71.1699 42.31L64.6299 42.05L62.8999 42L64.8999 37.61L71.7699 39.33L73.1399 32.52L63.9399 28.33L63.1199 24.82L63.3899 24.46L74.6999 30.6799L87.9299 25.3L90.1299 27.99L76.7599 32.88L77.9199 39.33C78.1999 39.33 90.3099 38.84 90.5099 38.77C90.7099 38.7 92.8899 31.36 92.8899 31.36L98.0599 29.83Z" fill="#29272C"/>
<path d="M73.0901 32.5001L71.7201 39.3101L71.1901 32.8201L63.8901 28.3101L73.0901 32.5001Z" fill="#29272C"/>
<path d="M64.8501 37.59L62.9001 41.98L60.6401 33.05V27.9901L63.0701 24.8L63.8901 28.31L62.1401 31.8L63.7501 37.3201L64.8501 37.59Z" fill="#A1A0A0"/>
<path d="M90.08 27.97L79.9 32.63L77.87 39.31L76.71 32.86L90.08 27.97Z" fill="#29272C"/>
<path d="M101.54 28C101.3 28.35 101.02 34 98.62 39.71L98.51 39.97C96.36 45.03 92.39 50.05 91.84 51.2C91.84 51.2 91.84 51.35 91.78 51.39C91.7586 51.4275 91.7275 51.4586 91.69 51.48L91.47 42.27V42.22C91.47 42.17 91.56 42.07 91.63 41.93L91.88 41.46C93.36 38.71 97.98 29.82 97.98 29.82L101.16 28.08L101.45 27.98L101.54 28Z" fill="#5A5755"/>
<path d="M123.75 103.4L117.61 117.61C117.61 117.61 103.06 126.11 102.71 126.47C102.36 126.83 75.28 121.05 75.28 121.05L77.07 98.1601L85.21 82.3501L77.21 87.2401C77.21 87.2401 69.84 83.4501 69.21 82.8001L74.69 99.1901L71 121.53L47.74 127.83L35 119L47.09 134.32L63.54 128.32L49.6 141.42L53.83 177.78C53.83 177.78 61.54 196.52 62 196.78C62.46 197.04 86.79 196.78 86.79 196.78L104.08 171.53L114.41 166C114.41 165.88 114.41 165.82 114.41 165.82L114.69 165.06V165.01L127.05 124.56L123.75 103.4ZM92.69 153.85L92.83 155.5L94.83 180.15L91.65 184.86H91.38L73.67 187V129.77L96.27 140.44L92.69 153.85ZM80.27 128.42C80.27 128.42 104.89 132.98 105.56 132.81C106.23 132.64 126.03 116.9 126.65 116.41L107.57 140.41L80.27 128.42Z" fill="#40403E"/>
<path d="M126.65 116.41L107.57 140.41L80.27 128.41C80.27 128.41 104.89 132.97 105.56 132.8C106.23 132.63 126 116.9 126.65 116.41Z" fill="#29272C"/>
<path d="M74.6799 99.1899L70.9899 121.53L47.7299 127.83L34.9699 119.02L34.1299 102.58L49.2399 83.9199L74.6799 99.1899Z" fill="#A1A0A0"/>
<path d="M49.2401 83.9199L31.3001 99.1899L26.8901 93.9199L33.6101 78.7699L45.2001 77.8999L45.7301 77.6599C47.0001 79.5999 49.2401 83.9199 49.2401 83.9199Z" fill="#A1A0A0"/>
<path d="M25.6001 118.55L25.6501 118.41L26.8901 93.9299L31.3001 99.1899L34.9701 119.02L25.6001 118.55Z" fill="#40403E"/>
<path d="M53.0599 200.78L65.3799 225.84L64.2399 224.05L63.7699 223.31L63.5099 222.91L62.9999 222L62.3799 221L62.0499 220.48L60.9999 218.88L59.8699 217.1L59.0799 215.85L58.2699 214.58L57.8599 213.93L57.0599 212.67L55.7199 210.57L54.9399 209.33L54.1199 208.03C50.4599 202.25 47.3199 197.22 47.2599 196.97L50.6699 176.36C50.6699 176.36 44.4699 138.16 44.6699 134.69C43.7699 137.12 35.0299 157.22 34.3099 158.64L18.8599 150.83L32.9699 138.46L34.9999 119L47.0899 134.32L63.5399 128.32L49.5999 141.42L53.8299 177.78L53.0599 200.78Z" fill="#5A5755"/>
<path d="M18.8199 150.82L17.6099 178.3L7.20993 212.74L1.17993 209.3L12.42 163L18.8199 150.82Z" fill="#A1A0A0"/>
<path d="M34.22 158.73L32.53 172.43L12.95 213L7.20996 212.74L17.61 178.3L34.22 158.73Z" fill="#5A5755"/>
<path d="M11.95 228.2L4 241.25L0.75 227.38L1.17999 209.3L7.20999 212.74L11.95 228.2Z" fill="#D2935C"/>
<path d="M19.61 224.9L11.95 228.2L7.20996 212.74L12.95 213L19.49 224.55L19.61 224.9Z" fill="#E5B47E"/>
<path d="M22.9599 234.79L20.3599 237.41L11.95 228.2L19.6099 224.9L22.9599 234.79Z" fill="#CF975D"/>
<path d="M20.36 237.41L18.25 241.38L17.52 242.75L4.01999 241.33L4 241.25L11.95 228.2L20.36 237.41Z" fill="#9D6D5F"/>
<path d="M119 190.42L96.2799 211.09L86.5499 225.86C86.0499 225.19 108.08 193.52 107.55 193.02C107.02 192.52 104.06 171.57 104.06 171.57L114.41 166C114.64 168.12 118.87 189.06 118.87 189.89C118.902 190.069 118.945 190.246 119 190.42V190.42Z" fill="#5A5755"/>
<path d="M65.3901 225.86L55.7601 281.56L40.5901 264.66L47.2101 197C47.3501 197.59 64.8301 225 65.3801 225.87L65.3901 225.86Z" fill="#A1A0A0"/>
<path d="M131.65 247.36L135 303.88C135 303.88 125.87 314.95 122.43 319.88C124.93 314.3 130.12 300.33 130.12 300.07C130.12 299.81 117.34 283.07 115.94 279.59C116.03 279.18 116.03 278.96 115.94 278.98C115.85 279 115.82 279.22 115.94 279.59C114.94 283.73 103.88 307.74 102.94 309.68L102.88 309.81C95.6499 285.28 85.8799 252.49 85.8799 252.49L80.6199 288.9C80.6199 288.9 75.3599 314.37 75.3099 314.9C73.9096 316.378 72.3071 317.651 70.5499 318.68C65.9799 321.56 60.4699 325.04 60.0299 325.33C59.2599 325.84 70.2199 304.44 70.2199 304.44L55.6799 281.58L65.3099 225.88C65.3099 225.88 86.4699 226.54 86.4699 225.88L115.84 277.66L131.65 247.36Z" fill="#5A5755"/>
<path d="M55.7601 281.56L50.0201 314.14L40.5901 264.66L55.7601 281.56Z" fill="#5A5755"/>
<path d="M73.6901 337.23L61.8901 351.55L46.3301 327.21L49.5501 315.8L49.8101 314.9L50.0301 314.14L55.7601 281.56L70.3001 304.42C70.3001 304.42 59.3001 325.82 60.1101 325.31L75.3901 314.88C75.6101 314.23 73.6901 337.23 73.6901 337.23Z" fill="#40403E"/>
<path d="M80.0001 374.06L61.8901 351.55L73.6901 337.23L80.0001 374.06Z" fill="#C7C6C1"/>
<path d="M80.0001 374.06L63.7301 444.02L61.8901 351.55L80.0001 374.06Z" fill="#29272C"/>
<path d="M52.3101 418.82C52.3101 418.82 50.0801 357.82 49.8601 357.15C49.6401 356.48 46.3301 327.87 46.3301 327.21L61.8901 351.55L63.7301 444L52.3101 418.82Z" fill="#5A5755"/>
<path d="M64.5999 467.12L27.7699 468.86C27.7699 468.86 18.8299 471.86 17.9599 471.69C17.0899 471.52 2.69995 469.3 2.69995 469.3L3.56995 463.85L22.6299 464.67L40.2 465.43L56.9899 461.73C56.9899 461.73 64.1499 459.89 64.3699 459.95C64.4999 464 64.5999 467.12 64.5999 467.12Z" fill="#40403E"/>
<path d="M64.3701 460C64.1501 459.94 56.9901 461.78 56.9901 461.78L48.5801 440.55L52.3101 418.65L63.7301 443.85C63.8401 443.8 64.1601 453.1 64.3701 460Z" fill="#40403E"/>
<path d="M56.9901 461.73L40.2001 465.65L22.6301 464.89L12.3101 459.95L38.5901 449.56L56.9901 461.73Z" fill="#C7C6C1"/>
<path d="M22.6301 464.89L3.57007 463.85L12.3 459.95H12.3101L22.6301 464.89Z" fill="#29272C"/>
<path d="M131.65 247.36L115.92 277.66C115.29 277.04 122.38 211.31 122.38 211.31C127.07 226.94 131.65 247.36 131.65 247.36Z" fill="#40403E"/>
<path d="M135 303.88C135 303.88 134.11 304.96 132.78 306.6L131.97 307.6C131.36 308.35 130.7 309.17 129.97 310.04C129.71 310.36 129.44 310.69 129.18 311.04C128.92 311.39 128.66 311.68 128.41 312.04L127.41 313.26C126.51 314.4 125.62 315.55 124.8 316.61L123.99 317.68C123.962 317.728 123.929 317.771 123.89 317.81C123.49 318.34 123.13 318.81 122.79 319.3L122.45 319.78C122.417 319.818 122.387 319.858 122.36 319.9L122.42 319.77C122.89 318.71 123.42 317.36 124.06 315.88L124.62 314.49L124.68 314.35C125.08 313.35 125.49 312.3 125.89 311.25C126.02 310.93 126.14 310.62 126.26 310.31C126.56 309.53 126.86 308.76 127.14 308C127.42 307.24 127.64 306.69 127.87 306.08C128.1 305.47 128.24 305.08 128.4 304.66C128.56 304.24 128.67 303.96 128.79 303.66C128.91 303.36 128.99 303.1 129.09 302.84C129.68 301.24 130.09 300.19 130.09 300.12C130.09 299.89 117.31 283.12 115.91 279.64C115.91 279.72 115.91 279.81 115.84 279.9C115.827 279.964 115.81 280.028 115.79 280.09C115.79 280.17 115.74 280.26 115.71 280.35C115.68 280.44 115.59 280.73 115.51 280.95L115.39 281.29C115.39 281.41 115.3 281.53 115.26 281.66C115.22 281.79 115.16 281.91 115.12 282.04C115.08 282.17 115.01 282.31 114.96 282.45L114.67 283.21L114.55 283.49C114.5 283.63 114.44 283.78 114.38 283.92C114.14 284.53 113.88 285.17 113.6 285.85C113.53 286.02 113.46 286.19 113.38 286.36C113.3 286.53 113.27 286.62 113.21 286.76C113.15 286.9 113.05 287.15 112.96 287.35C112.58 288.24 112.19 289.18 111.77 290.13C111.64 290.45 111.5 290.77 111.36 291.13C111.22 291.45 111.08 291.78 110.93 292.13L109.62 295.13L108.86 296.85L108.02 298.72L107.2 300.53L106.49 302.11L105.97 303.25L104.39 306.72L104.05 307.44L103.85 307.88C103.8 308 103.74 308.11 103.69 308.22L103.59 308.44C103.45 308.74 103.33 308.99 103.24 309.2L103.11 309.49L103.01 309.7V309.81L102.95 309.94L118.13 327V327.05L121.13 348.81L136.25 334L135 303.88Z" fill="#40403E"/>
<path d="M136.32 420.74L116.76 381.83C116.76 381.83 116.76 381.42 116.66 380.69C116.72 379.43 121.15 356.52 121.15 356.52L110.58 336.18C110.58 335.93 107.18 324.32 103.03 309.99L118.25 327.22L121.15 348.86L152.4 417.26L156.4 447.98L136.32 420.74Z" fill="#5A5755"/>
<path d="M121.15 356.48C121.15 356.48 116.72 379.39 116.66 380.65C116.07 373.65 110.58 336.73 110.58 336.14L121.15 356.48Z" fill="#C7C6C1"/>
<path d="M152.39 417.22L121.15 348.82L136.25 333.99L146.91 367.67L152.39 417.22Z" fill="#29272C"/>
<path d="M161.61 460.28L138.65 452.85L136.73 421.58L136.31 420.74L156.35 447.94L161.61 460.28Z" fill="#40403E"/>
<path d="M166.14 470.92L142 470.48C142 470.48 138.69 460.8 138.69 460.39V453.17L138.64 452.85L161.64 460.28L166.14 470.92Z" fill="#C7C6C1"/>
<path d="M167.68 474.53L154.17 478.89H142.17L136.51 471.89L138.69 460.77V460.36C138.69 460.77 142 470.45 142 470.45L166.13 470.89L167.68 474.53Z" fill="#40403E"/>
<path d="M153.58 154.43C153.58 154.43 147.44 159.53 143.25 162.88C142.25 161.64 136.76 152.05 135.25 150.65C137.68 151.63 152.49 154.31 153.58 154.43Z" fill="#40403E"/>
<path d="M154.64 218L144.74 180.87L143.39 163.03L143.25 162.85C147.44 159.5 153.58 154.4 153.58 154.4L154.64 218Z" fill="#A1A0A0"/>
<path d="M165.77 167.31L154.64 218.03L153.58 154.43L165.77 167.31Z" fill="#40403E"/>
<path d="M105.69 69.8999L85.2101 82.3499L77.2101 87.2399C77.2101 87.2399 69.8401 83.4499 69.2101 82.7999V82.7099C69.4601 82.5399 66.5201 75.5399 64.3301 71.1599L67.0701 68.5099L67.4701 68.1299C67.7401 67.8899 67.9801 67.6599 68.2001 67.4499C68.6401 67.0399 68.9501 66.7199 69.0301 66.6199C72.6001 69.3399 78.8201 74.4499 79.0801 74.6199C79.0801 74.6199 79.1301 74.6199 79.2001 74.6199C80.5301 74.0899 92.6101 66.1799 97.2801 64.1899L98.5301 65.0399L105.69 69.8999Z" fill="#5A5755"/>
<path d="M74.68 99.19L49.24 83.92L69.17 82.71L69.2 82.8L74.68 99.19Z" fill="#C7C6C1"/>
<path d="M34.1301 102.58L34.9701 119.02L31.3 99.1899L49.2401 83.9199L34.1301 102.58Z" fill="#5A5755"/>
<path d="M32.9301 138.45L18.8201 150.82L20.7201 131.71L25.6001 118.55L34.9701 119.02L32.9301 138.45Z" fill="#C7C6C1"/>
<path d="M34.2699 158.63V158.73L17.6099 178.3L18.8199 150.82L34.2699 158.63Z" fill="#40403E"/>
<path d="M18.25 241.38L7.20996 238.96L10.23 235.31L20.36 237.41L18.25 241.38Z" fill="#CF975D"/>
<path d="M109.9 83.9201L77.0701 98.1601L85.2101 82.3501L109.9 83.9201Z" fill="#C7C6C1"/>
<path d="M123.75 103.4L117.61 117.61C117.61 117.61 103.06 126.11 102.71 126.47C102.36 126.83 75.28 121.05 75.28 121.05L77.07 98.1599L109.9 83.9199L123.75 103.4Z" fill="#A1A0A0"/>
<path d="M148.73 238.36L148.24 242.77L142.94 243.92L148.73 238.36Z" fill="#966445"/>
<path d="M92.6899 153.85L94.8399 180.16L91.6599 184.87L73.6699 187.02V129.77L96.2699 140.44L92.6899 153.85Z" fill="#A1A0A0"/>
<path d="M115.92 277.66L86.55 225.88L96.2801 211.11L119 190.42C119.55 192.5 120.87 200.74 122.39 211.31C122.38 211.31 115.29 277 115.92 277.66Z" fill="#A1A0A0"/>
<path d="M86.5401 225.86C86.5401 226.5 65.3801 225.86 65.3801 225.86L53.0601 200.8L53.83 177.8C53.83 177.8 61.5401 196.54 62.0001 196.8C62.4601 197.06 86.7901 196.8 86.7901 196.8L104.08 171.55C104.08 171.55 107.08 192.5 107.57 193C108.06 193.5 86.0001 225.19 86.5401 225.86Z" fill="#29272C"/>
<path d="M93.1801 13.66L92.5801 23.66L87.8801 25.31L74.6501 30.69L63.3401 24.47L64.5801 13.27C64.5801 13.27 66.0201 23.95 66.3801 24.07C66.7401 24.19 74.7801 28.63 74.9701 28.51C75.1601 28.39 86.2801 23.21 86.2801 23.21L88.8401 14.4L93.1801 13.66Z" fill="#D0965D"/>
<path d="M84.8299 49.67L82.3499 50.22L70.9099 50C70.9099 50 69.7099 49.63 69.6599 49.63L71.2799 48.46C71.2799 48.46 80.0899 48.4 80.3999 48.46C80.7099 48.52 84.8299 49.67 84.8299 49.67Z" fill="#8F5729"/>
<path d="M81.19 52.0601C81.19 52.0601 79.1 54.5501 78.86 54.4701C78.62 54.3901 73.24 54.4701 73.24 54.4701L71.72 52.0601H81.19Z" fill="#8F5729"/>
<path d="M92.8401 31.34C92.8401 31.34 90.6601 38.68 90.4601 38.75C90.2601 38.82 78.1501 39.31 77.8701 39.31L79.8701 32.63L90.0801 28L92.8401 31.34Z" fill="#FFFDFD" stroke="#231F20" stroke-linejoin="round"/>
<path d="M71.7201 39.3101L64.8501 37.5901L63.7501 37.3201L62.1401 31.8001L63.8901 28.3101L71.1901 32.8201L71.7201 39.3101Z" fill="#FFFDFD" stroke="#231F20" stroke-linejoin="round"/>
<path d="M78.21 42.58L91 43.83L91.7 51.45L91.49 42.28L78.49 42.5L78.21 42.58Z" fill="#6A3F26"/>
<path d="M102.7 13.1501L90.08 12.2201L75 14.6101L64.85 12.0001L63.75 8.81009L65.15 6.2701L85.83 8.6601L97.57 4.1001L102.7 13.1501Z" fill="#22201F"/>
<path d="M75.26 27.8501L76.71 25.3V27.08L75.26 27.8501Z" fill="#A46A33"/>
<path d="M68.1599 67.4501C67.9399 67.6601 67.6999 67.8901 67.4299 68.1301L68.9999 66.6001C68.9099 66.7201 68.5999 67.0001 68.1599 67.4501Z" fill="#643090"/>
<path d="M69.17 82.7099L49.24 83.92C49.24 83.92 47.52 80.6399 46.24 78.4999C46.05 78.1799 45.87 77.89 45.71 77.64L49.09 75.64L49.22 75.5599V75.6199C52.53 75.2299 59.81 74.6199 59.81 74.6199C61.3906 73.6005 62.8825 72.4498 64.27 71.1799C66.48 75.5399 69.42 82.5399 69.17 82.7099Z" fill="#40403E"/>
<path d="M49.2401 75.5701V78.4601H46.2401L33.5901 78.7101L47.5301 75.8L49.2401 75.5701Z" fill="#40403E"/>
<path d="M92.6899 153.85L73.6699 150.49L72.3999 154.82L92.8299 155.51L94.6499 154.48L92.6899 153.85Z" fill="#5A5755"/>
<path d="M53.06 200.78L65.38 225.84L64.24 224.05L63.77 223.31L63.51 222.91L63 222L62.38 221L62.05 220.48L61 218.88L59.87 217.1L59.08 215.85L58.27 214.58L57.86 213.93L57.06 212.67L55.72 210.57L54.94 209.33L54.12 208.03C50.46 202.25 47.32 197.22 47.26 196.97L50.67 176.36C50.67 176.36 44.47 138.16 44.67 134.69L35 119L47.09 134.32L63.54 128.32L49.6 141.42L53.83 177.78L53.06 200.78Z" fill="#5A5755"/>
<path d="M97.57 4.05011V8.7601L74.87 13.2401L63.75 8.7601L65.15 6.22011C66.52 3.73011 68.43 0.270107 68.49 0.110107C68.49 0.450107 75.6 4.85011 75.6 4.85011L79.43 2.4201L82.63 4.05011H97.57Z" fill="#22201F"/>
<path d="M93.1801 13.66C93.1801 13.66 97.3201 11.43 97.2801 11.58C97.2401 11.73 95.7101 25 95.7101 25L92.5801 23.66L93.1801 13.66Z" fill="#3E383E"/>
<path d="M102.1 30.22L104.24 37.59L101.25 41.03L102.1 30.22Z" fill="#AB8569"/>
<path d="M101.25 41.03L99.3999 40.87L102.1 30.22L103.68 35.62L101.25 41.03Z" fill="#AB8569"/>
<path d="M76.71 17C76.71 16.81 66.71 9.48002 66.71 9.48002C66.71 9.48002 68.35 0.830024 68.53 1.08002C68.71 1.33002 74.8 8.54002 74.8 8.54002L76.71 17Z" fill="#3E383E"/>
<path d="M62.8999 42L70.9499 43.2C70.9499 43.2 73.6599 44.9 73.5099 44.74L71.1299 42.33L62.8999 42Z" fill="#6A3F26"/>
<path d="M124.53 75.5999L109.9 83.9199L85.21 82.3499L105.69 69.8999L106.94 70.7499L124.53 75.5999Z" fill="#40403E"/>
<path d="M123.75 103.4L123.7 124.61L114.41 166.01L127.68 124.13L123.75 103.4Z" fill="#29272C"/>
<path d="M71.0799 137.11C71.4199 137.96 70.3999 149.41 70.3999 149.41L59.1799 150.13L61.5499 139.3L71.0799 137.11Z" fill="#A1A0A0"/>
<path d="M103 309.64L102.94 309.77C95.7099 285.24 85.9399 252.45 85.9399 252.45L80.6799 288.86C80.6799 288.86 75.4199 314.33 75.3699 314.86C73.9696 316.338 72.367 317.611 70.6099 318.64L76.8199 298.43L84.9999 249.24L77.8299 245.9L74.7799 237.41L81.2499 242.8H89.1699C89.1699 242.8 90.9599 251.11 91.4199 251.95C91.8799 252.79 102.09 305.14 103 309.64Z" fill="#29272C"/>
<path d="M38.5901 449.56L48.5901 440.5C48.5901 440.5 57.5901 462.5 57.0101 461.95C56.4301 461.4 38.5901 449.56 38.5901 449.56Z" fill="#29272C"/>
<path d="M164.38 218.66V219.1L154.64 218L167.54 189.65V189.79C167.73 192.42 164.38 218.66 164.38 218.66Z" fill="#A1A0A0"/>
<path d="M72.3 61.61C72.43 61.47 74.2001 58.51 74.2001 58.51L79.3501 58.23L83.1301 61.61L75.9301 62.55L72.3 61.61Z" fill="#C7915D"/>
<path d="M152.16 104.61V104.68L142.5 121.37L128 112.83L130 97.6399L141.46 80.1599H141.78L152.16 104.61Z" fill="#29272C"/>
<path d="M135.72 126.55C135.72 126.55 134.53 149.25 134.91 150.41C134.26 150.34 127.47 125.65 127.47 125.65L121.84 104.8L110.2 83.9199L130.05 97.5899L128.37 112.74L142.5 121.37L135.72 126.55Z" fill="#5A5755"/>
<path d="M165.77 167.31L153.58 154.43L142.51 121.38L152.25 104.47C152.15 105.54 155.06 119.47 155.25 120.12C155.44 120.77 155.87 133.74 155.87 133.74C155.87 133.74 156.56 153.33 156.63 152.68C156.7 152.03 165.77 167.31 165.77 167.31Z" fill="#5A5755"/>
<path d="M153.58 154.43C152.49 154.31 137.68 151.63 135.24 150.65C135.154 150.546 135.044 150.464 134.92 150.41C134.54 149.25 135.73 126.55 135.73 126.55L142.51 121.37L153.58 154.43Z" fill="#A1A0A0"/>
<path d="M47.5601 75.83L49.2401 75.5701V75.6301H49.11L47.55 75.8201L47.5601 75.83Z" fill="#662F8E"/>
</svg>
