<svg width="169" height="517" viewBox="0 0 169 517" fill="none" xmlns="http://www.w3.org/2000/svg">
<path d="M126.63 99.25L115.63 105.91L114.05 105.83L119.86 91.22L112.58 52.34L107.42 67.29L104.81 69.29V58.34L101.35 43.8L98.8 33.1301L97.4801 27.55L75.7701 33.87L59.6701 26.45L55.6701 32.45C55.6701 32.45 55.6701 35.07 55.6701 38.09C55.0401 40.61 53.3901 47.3101 53.3901 48.0201C53.3901 48.9101 54.5201 63.2 54.8901 63.94C55.2601 64.68 50.2801 74.7 50.2801 74.7L55.9101 70.87L60.58 63.4901L62.2001 73.6001L67.9701 80.9V101L55.6601 105.29L54.9801 105.06L43.8901 101.29L40.5701 63.29L46.5701 26.44L61.5701 5.79004L80.0201 0.790039L103.51 7.84004L117.94 33.84L120.93 55L117.51 58L125.58 86.79L126.63 99.25Z" fill="black"/>
<path d="M53.3199 47.1299L46.6699 61.3999L45.5799 58.2599L43.6699 66.0999L50.9199 103.7C50.9199 103.7 60.1299 96.5899 60.7699 95.7499C61.4099 94.9099 59.1199 71.0799 59.1199 71.0799L56.4599 55.3099L53.3199 47.1299Z" fill="#404041"/>
<path d="M52.9999 72.7899L53.9999 80.8499L52.1999 85.3699L50.8999 103.7C50.8999 103.7 62.1299 110.85 62.4299 110.75C62.7299 110.65 70.4299 107.54 70.5899 107.14C70.7499 106.74 74.5899 96.4099 74.4699 94.7999C74.3499 93.1899 74.5999 79.2199 74.0299 78.8799C73.4599 78.5399 67.2499 72.5299 66.8399 72.2299C66.4299 71.9299 62.7299 63.2999 62.7299 63.2999L59.2499 61.1899L52.9999 72.7899Z" fill="#404041"/>
<path d="M95 80.6201L94.8 84.0001L78.68 101.31L78.97 122.75L68.97 127.57L45.09 118.23C45.09 118.23 44.77 115.23 45.09 114.81L54.99 105.11L55.67 105.34L68 101V80.8501L62.23 73.5501L60.61 63.4401V63.1701L58.7 58.5801L58 56.0801L60.83 59.2601C60.83 59.2601 73.65 63.2601 74.11 63.2601C74.57 63.2601 78.11 67.2601 78.11 67.2601V74.0001L70.69 72.6101L73.8 77.4701L78.11 78.8501V88.8501H83.24L95 80.6201Z" fill="#9E5929"/>
<path d="M75.7499 33.8702L71.9799 35.3902L71.6299 40.0202L55.6599 32.4002L59.6499 26.4502L75.7499 33.8702Z" fill="#C7C6C1"/>
<path d="M98.78 33.1298L83.61 40.0298L82.26 40.6498L81.64 36.0598L75.75 33.8698L97.45 27.5498L98.78 33.1298Z" fill="#C7C6C1"/>
<path d="M101.33 43.7999L95.0001 40.6499C95.0001 40.6499 81.4301 49.3899 81.0001 49.7199C80.5701 50.0499 83.5601 40.0299 83.5601 40.0299L98.7301 33.1299L101.33 43.7999Z" fill="#29272C"/>
<path d="M101.33 43.7998L94.9999 40.6498C94.9999 40.6498 81.4299 49.3898 80.9999 49.7198C80.5699 50.0498 83.5599 40.0298 83.5599 40.0298L82.2099 40.6498L76.9099 48.9098L77.6999 54.7698L77.5099 63.9498L82.2099 62.9498L101.43 56.7698L104.74 58.3498L101.33 43.7998ZM78.3299 61.6898L79.5799 56.0798L81.9699 61.6898H78.3299ZM101.33 51.0598L92.9499 56.7598L82.2599 52.1798C82.8899 52.1798 95.8299 43.3298 95.8299 43.3298L101.33 47.8498V51.0598Z" fill="#5A5755"/>
<path d="M74.08 63.3299C73.61 63.3299 60.8 59.2799 60.8 59.2799L58 56.0999C57.0757 53.0054 56.3146 49.8644 55.72 46.6899C55.72 45.9899 55.72 41.7399 55.72 38.0599C55.72 35.0599 55.72 32.4199 55.72 32.4199L60.72 42.7099L60.9 43.3599L61.08 43.9499L57.15 48.5399L64.23 56.7799L64.89 56.4199L74.08 63.3299Z" fill="#5A5755"/>
<path d="M149.2 194.85L149.45 207.92V208L148.32 209L139.85 216.24L139.76 216.31L139.7 216.36L139.63 216.43L142 189V188.74L139.7 185.57L135.14 179.28L121.49 152.08L120.36 149.82L119.83 148.77L121.33 143.32L123.15 136.73L123.21 136.51C123.88 136.16 138.67 129.83 140.5 129.05H140.58H140.67L134.76 142.66V142.73V142.79L131.76 149.58V149.68C131.78 149.744 131.803 149.808 131.83 149.87C131.844 149.917 131.861 149.964 131.88 150.01C131.95 150.22 132.06 150.54 132.21 150.95L132.33 151.29C132.38 151.42 132.42 151.55 132.47 151.7L134.6 157.7C134.77 158.19 134.95 158.7 135.14 159.21C135.33 159.72 135.43 160.01 135.58 160.43L136.01 161.63L136.31 162.46L137.23 165C137.39 165.45 137.55 165.9 137.72 166.35C137.81 166.58 137.89 166.81 137.97 167.03L140.13 172.92C140.33 173.44 140.52 173.92 140.71 174.46L141.08 175.46C141.19 175.74 141.29 176.01 141.39 176.28C142.99 180.51 144.39 184.12 145.28 185.99L145.48 186.41C145.601 186.66 145.734 186.904 145.88 187.14L145.97 187.27C145.97 187.27 146.04 187.34 146.07 187.34H146.12L146.31 187.26C146.479 187.251 146.648 187.286 146.8 187.36C147.553 187.696 148.259 188.13 148.9 188.65L149.49 189.1L150.08 189.57L150.67 190.06C150.86 190.21 151.04 190.37 151.22 190.53L151.74 190.98C151.778 191.004 151.812 191.035 151.84 191.07V191.07C152.68 191.81 153.27 192.36 153.27 192.36L149.2 194.85Z" fill="#DC9159"/>
<path d="M25.2499 181L25.9899 195.71C25.9899 195.71 25.6099 195.49 25.1199 195.23L24.8099 195.06C24.5299 194.91 24.2399 194.77 23.9799 194.66L23.7899 194.58C23.685 194.527 23.5742 194.487 23.4599 194.46C23.2599 194.39 23.1299 194.39 23.0999 194.46C23.0699 194.53 22.9999 196 22.9999 197.6C22.9999 199.45 22.9999 201.6 22.9999 202.6L22.3399 202.23L15.4399 198.4C15.4399 198.4 15.7299 191.34 15.9899 184.81C16.0599 182.81 16.14 180.93 16.2 179.28L17.4799 167.66L17.3999 167.55C17.4799 167.04 17.58 166.55 17.67 165.95C19.61 154.76 23.0099 136.06 23.0099 136.06L27.0999 140.43L28.0999 140.11L29.0299 139.81L31.7 138.96C32.77 138.62 33.8499 138.29 34.7599 138.02L24.2 160.37L24.7899 172.05V172.12L25.0399 176.89L25.0999 178.1L25.2399 180.95L25.2499 181Z" fill="#DC9159"/>
<path d="M161.8 197.46L151.89 206C151.79 206.08 151.69 206.17 151.59 206.24L149.45 208V207.89L149.2 194.82L153.31 192.29C153.31 192.29 152.72 191.74 151.88 191C151.69 190.82 151.48 190.64 151.26 190.46C151.04 190.28 150.9 190.14 150.71 189.99L150.12 189.5L149.53 189.03L148.94 188.58C148.299 188.06 147.593 187.626 146.84 187.29C146.767 187.253 146.69 187.226 146.61 187.21H146.43H146.34C146.304 187.208 146.269 187.215 146.236 187.228C146.203 187.242 146.174 187.263 146.15 187.29H146.1C146.062 187.275 146.027 187.251 146 187.22L145.87 187.03L145.7 186.74L145.64 186.63L145.48 186.32L145.28 185.9C145.03 185.35 144.72 184.64 144.37 183.81L144.09 183.12L143.91 182.67C143.82 182.47 143.74 182.26 143.66 182.05L143.36 181.29L142.86 180.03L142.27 178.5C142.077 178.007 141.887 177.507 141.7 177C140.52 173.88 139.22 170.38 137.97 166.94C137.89 166.72 137.81 166.49 137.72 166.26C137.55 165.81 137.39 165.36 137.23 164.91L136.31 162.37C136.06 161.68 135.81 161 135.58 160.37L135.14 159.16L134.44 157.16L134 156L133.59 154.86C133.47 154.49 133.34 154.14 133.22 153.81C133.1 153.48 133 153.2 132.9 152.91C132.63 152.13 132.39 151.48 132.21 150.96L132.09 150.62C132.09 150.52 132.02 150.43 131.99 150.34L131.88 150.02C131.861 149.974 131.844 149.928 131.83 149.88L131.77 149.72V149.62L134.72 142.85V142.79V142.72L140.54 129.32V129.24L140.59 129.13V129.2L140.72 129.13L141.09 130.57L151 157.4V157.48L151.82 159.75L160 182.34L161.57 195.23L161.8 197.46Z" fill="#F1B280"/>
<path d="M107.4 111.23C107.4 111.23 108.65 113.37 110.46 116.4L71.52 128.58L68.96 127.58L78.96 122.76L78.67 101.32L94.8 84L94.34 100.33L114.03 105.83L115.61 105.91L107.4 111.23Z" fill="#A6662F"/>
<path d="M37.8201 167.22L37.7001 167.95L34.0601 189.95L32.8801 207.95L24.8801 203.51L23.1001 202.51C23.1001 201.51 23.1001 199.4 23.1001 197.51C23.1001 195.91 23.1001 194.51 23.1601 194.4C23.2201 194.29 23.3201 194.33 23.5201 194.4C23.6344 194.427 23.7452 194.467 23.8501 194.52L24.0401 194.6C24.1701 194.65 24.3101 194.72 24.4501 194.79C24.5901 194.86 24.9501 195.04 25.1801 195.17L25.5201 195.35L25.8201 195.52L25.9601 195.6L26.0501 195.65L25.2501 181L25.1101 178.16L25.0001 176.9L24.8901 174.82V174.53L24.7701 172.2V172.06L24.1801 160.38L34.8301 138C35.5299 137.768 36.2449 137.584 36.9701 137.45L35.4401 139.57L31.4401 151.62L30.7701 152.85L37.7701 167.18L37.8201 167.22Z" fill="#F1B280"/>
<path d="M75.9399 52.3599L72.8999 47.8699L61.5099 43.3599H60.8299L60.6499 42.7099L55.6899 32.4199L71.6599 40.0399L74.95 45.5499L75.9399 52.3599Z" fill="#5A5755"/>
<path d="M82.2599 40.6501L76.9599 48.9101L74.9299 45.5301L71.6299 40.0201L71.9799 35.3901L75.7499 33.8701L81.6399 36.0601L82.2599 40.6501Z" fill="#29272C"/>
<path d="M119.84 91.2198L114.02 105.83L94.3401 100.33L94.8001 83.9998V83.9899L95.0201 80.6198L99.7701 74.1299L104.79 58.3398V69.2898L107.4 67.2898L112.56 52.3398L119.84 91.2198Z" fill="#404041"/>
<path d="M104.79 58.3398L99.77 74.1298L95.02 80.6198L83.15 88.8298H78.03V78.8798L81.99 78.3098L86.13 74.0298L90.26 69.2898L86.13 72.6398L78.03 74.0298V67.2898L82.26 62.9398L101.48 56.7598L104.79 58.3398Z" fill="#A6662F"/>
<path d="M90.2599 69.29L86.1299 74.03L81.9999 78.31L78.0399 78.8801L73.7199 77.5L70.6099 72.64L76.3599 75.62L80.4299 75.19L86.1299 72.64L90.2599 69.29Z" fill="#A96739"/>
<path d="M86.1299 72.6401L80.4299 75.1901L76.3599 75.6201L70.6099 72.6401L78.0399 74.0301L86.1299 72.6401Z" fill="#9E5C28"/>
<path d="M81.9901 61.6901H78.3501L79.6101 56.0801L81.9901 61.6901Z" fill="#29272C"/>
<path d="M82.2599 62.9398L77.9999 67.2898C77.9999 67.2898 74.4799 63.2898 73.9999 63.2898L64.7499 56.3798C66.7499 55.2398 72.9299 51.8398 73.3399 51.8398L61.4299 43.3198L72.8299 47.8398L75.8299 52.3298L74.8299 45.5198L76.8299 48.8998L77.6199 54.7598L77.4299 63.9398L82.2599 62.9398Z" fill="#C7C6C1"/>
<path d="M60.58 63.44L55.91 70.8201L50.28 74.65C50.28 74.65 55.28 64.65 54.89 63.89C54.5 63.13 53.39 48.89 53.39 47.97C53.39 47.26 55.04 40.56 55.67 38.04C55.67 41.72 55.67 45.97 55.67 46.66C56.2693 49.8368 57.0303 52.9809 57.95 56.08L58.65 58.58L60.56 63.17L60.58 63.44Z" fill="#50493F"/>
<path d="M101.33 47.8501V51.0601L92.95 56.7601L82.26 52.1801C82.89 52.1801 95.83 43.3301 95.83 43.3301L101.33 47.8501Z" fill="white" stroke="#231F20" stroke-linejoin="round"/>
<path d="M73.3901 51.85C72.9801 51.85 66.83 55.25 64.8 56.39L64.1401 56.7599L57.0601 48.52L60.1601 43.52L60.6201 42.71L73.3901 51.85Z" fill="white" stroke="#231F20" stroke-linejoin="round"/>
<path d="M79.26 220.16L79 239.52L69.31 243.92C69.31 243.92 69.31 228.65 69.31 227.92C69.2333 227.913 69.1564 227.931 69.09 227.97C69.0371 227.991 68.9868 228.018 68.94 228.05L68.75 228.15C66.41 229.5 57.7 236.35 57.7 236.35L57.41 236.12L56.52 220.12V216.39H56.73C57.82 217.66 59.97 220.13 60.34 220.13L79.26 220.16Z" fill="#40403E"/>
<path d="M130.67 268.07L116.28 355.52L102.2 356.92L77 274.63C77 274.63 87.75 265.83 98.51 257.17C100.78 255.33 103.06 253.51 105.23 251.78C104.92 259.49 103.28 293.96 103.28 293.96C103.28 293.96 115.98 322.12 116.34 321.56C116.7 321 130.24 269.67 130.67 268.07Z" fill="#40403E"/>
<path d="M47.2401 511.23L19.6501 512.81C19.6501 512.81 9.65007 514.02 8.85007 513.81L0.0500488 511.65L0.820068 508.26L14.6801 508.96H15.1301L25.9401 509.65L39.8101 506.46L40.3501 506.35H40.4101C40.4625 506.336 40.5176 506.336 40.5701 506.35V506.35C40.9301 506.25 46.8001 504.68 46.9801 504.74C47.1601 508.36 47.2401 511.23 47.2401 511.23Z" fill="#5A5755"/>
<path d="M25.8799 509.53L39.8599 506.51L25.9799 509.7L15.17 509.01L14.7199 508.99H14.7099L14.6799 508.97L14.9799 508.99L25.8799 509.53Z" fill="#001750"/>
<path d="M47.0001 504.73C46.8201 504.67 40.9501 506.24 40.5901 506.34L40.5401 506.22V506.08L40.2201 505.16L39.9101 504.31C39.8001 504 39.6801 503.67 39.5401 503.31L39.3801 502.9C39.329 502.727 39.2689 502.557 39.2001 502.39L38.4401 500.39L38.1901 499.73L37.2901 497.39C37.1201 496.95 36.9601 496.5 36.7901 496.06C36.3601 494.96 35.94 493.87 35.55 492.84L35.1201 491.77C34.7201 490.77 34.36 489.77 34.05 489.04C34.05 488.93 33.9801 488.83 33.9401 488.72L33.7901 488.34C33.7301 488.19 33.6701 488.04 33.6301 487.91L33.4901 487.57C33.3801 487.27 33.3101 487.1 33.3101 487.1L33.4401 486.32V487.32H45.9201C46.0001 487.3 46.8601 498.51 47.0001 504.73Z" fill="#C7C6C1"/>
<path d="M39.45 473.46H39.21V473L39.45 473.46Z" fill="#1C387F" stroke="#9BB8C8" stroke-miterlimit="10"/>
<path d="M40.43 506.38L39.89 506.5L26 509.7L15.17 509H14.72L6.21997 504.76L24.63 495.33C24.63 495.33 25.63 496.01 27.07 497.02L27.94 497.62L28.57 498.06L29.4 498.63C33.61 501.55 39.32 505.52 40.43 506.38Z" fill="#C7C6C1"/>
<path d="M14.7101 508.99L0.820068 508.27L6.17007 504.73H6.18005L14.7101 508.99Z" fill="#29272C"/>
<path d="M136.44 502.13L119.24 496.33L118.69 486.94L118.75 487.3H131.07L136.44 502.13Z" fill="#29272C"/>
<path d="M139.83 510.43L121.76 510.09C121.76 510.09 119.28 502.54 119.28 502.22V496.58V496.33L136.48 502.13L139.83 510.43Z" fill="#C7C6C1"/>
<path d="M141 513.25L130.88 516.65H121.88L117.64 511.21L119.28 502.54V502.22C119.28 502.54 121.76 510.09 121.76 510.09L139.83 510.43L141 513.25Z" fill="#5A5755"/>
<path d="M40.6301 506.34C40.5776 506.326 40.5225 506.326 40.4701 506.34H40.4101L29.4101 498.55L28.58 497.98L27.9501 497.54L27.0001 497C25.5201 496 24.5601 495.31 24.5601 495.31L33.2601 487.09C33.2601 487.09 33.3301 487.26 33.4401 487.56L33.58 487.9C33.58 488.03 33.6801 488.18 33.7401 488.33L33.8901 488.71C33.8901 488.82 33.9701 488.92 34.0001 489.03L39.33 502.9L39.4901 503.31L40.4901 506.02C40.5125 506.102 40.5292 506.185 40.5401 506.27C40.5401 506.27 40.6201 506.3 40.6301 506.34Z" fill="#29272C"/>
<path d="M54.9999 105.08L45.0999 114.78L41.7699 118C41.7699 118 41.6199 118.74 41.3599 119.93C40.3099 124.85 37.5499 137.44 36.9799 137.44C36.2511 137.572 35.5326 137.756 34.8299 137.99C31.9399 138.85 27.1899 140.4 27.1899 140.4L23.1099 136.03L19.1799 121.92L25.4299 129.7L37.0899 117.22L47.42 108.91L39.9999 100L43.9299 101.33L54.9999 105.08Z" fill="#40403E"/>
<path d="M20.66 255.72C20.66 255.72 14.01 259.8 13.9 260.28C13.79 260.76 4.99003 252.81 3.95003 251.86C3.64003 258.05 4.11 282.12 4.11 282.12L5.84001 283.57L16.84 279.78L25.41 270.43L20.66 255.72ZM5.84001 280L6.84001 263.57L9.55 277L5.84001 280Z" fill="#A1A0A0"/>
<path d="M17.7 199.6L15.57 219.36L13.57 204.31L11 199.74C11 199.65 11 199.6 11 199.6L15.47 198.4L17.7 199.6Z" fill="#29272C"/>
<path d="M15.6301 251.35L20.6301 255.72C20.6301 255.72 13.9801 259.8 13.8701 260.28C13.7601 260.76 4.96013 252.81 3.92013 251.86C3.90616 251.385 3.96001 250.91 4.0801 250.45C4.6601 249.54 10.6401 202.68 11.0101 199.74L13.5301 204.31L15.5301 219.36L13.9001 234.9L21.0001 245.08L10.2501 247.39L6.82012 251.39L15.6301 251.35Z" fill="#C7C6C1"/>
<path d="M33.9299 210.38L20.9899 245.08L13.8999 234.9L17.6999 199.6L32.8799 208.03L33.9299 210.38Z" fill="#40403E"/>
<path d="M20.1301 254.1L20.6601 255.72L15.6301 251.35H6.81006L10.2401 247.39L20.9901 245.08L20.1301 254.1Z" fill="#40403E"/>
<path d="M27.9001 289.65H13.1401L5.84009 283.57L16.8601 279.78L25.4301 270.43L27.6101 277.11L27.9001 289.65Z" fill="#C7C6C1"/>
<path d="M107.16 174.09C107.16 174.09 101.82 191.42 101.78 191.42C101.806 191.509 101.826 191.599 101.84 191.69C100.47 189.69 97.84 185.82 97.45 185.82C97.06 185.82 91.27 183.38 88.64 182.37C88.6353 182.334 88.6353 182.297 88.64 182.26C89.09 180.16 89.38 178.74 89.38 178.74L91.97 179.84L96.53 168.19L103.16 158.92L108.03 154.19L116.24 146.24L119.8 148.81L107.16 174.09Z" fill="#40403E"/>
<path d="M108.05 154.19L103.18 158.92L96.5499 168.19L91.9999 179.84L89.4099 178.74L70.6699 170.74L56.5399 178.13L54.9999 179L46.2399 165.71L40.8999 161.92L52.1499 164.8L63.4099 147.37L70.1699 162L75.3199 149.75C75.3199 149.75 89.5199 163.17 89.8699 163.02C90.2199 162.87 107.52 154.46 108.05 154.19Z" fill="#5A5755"/>
<path d="M89.4001 178.74C89.4001 178.74 89.1101 180.16 88.6601 182.26C88.6554 182.296 88.6554 182.333 88.6601 182.37C87.3601 188.37 84.7601 199.77 83.7401 199.6C82.3701 199.36 69.36 193.9 69.36 193.9L57.9401 199.6L56.55 178.17L70.6801 170.78L89.4001 178.74Z" fill="#A1A0A0"/>
<path d="M116.28 146.23L108.07 154.18C107.54 154.45 90.2601 162.86 89.9001 163.03C89.5401 163.2 75.3301 149.76 75.3301 149.76L89.7401 140.41C89.7401 140.41 102.37 136.04 103 136.53C103.41 136.87 111.47 142.73 116.28 146.23Z" fill="#A1A0A0"/>
<path d="M48.54 254.17L37.54 242.42L44.61 226.24C45.04 226.55 45.61 226.99 46.36 227.53L48.54 254.17Z" fill="#29272C"/>
<path d="M57.7101 236.35C57.7101 236.35 50.3301 230.53 46.3501 227.53C45.6401 226.99 45.0301 226.53 44.6001 226.24L50.8001 212.06L56.5301 220.16L57.7101 236.35Z" fill="#A1A0A0"/>
<path d="M69.34 243.92L57.71 236.35C59.57 234.86 67.15 229.04 68.95 228.05C68.9967 228.017 69.0471 227.991 69.1 227.97C69.1663 227.931 69.2432 227.913 69.32 227.92V227.92C69.38 228.65 69.34 243.92 69.34 243.92Z" fill="#C7C6C1"/>
<path d="M110.33 225.77L106.39 227.13L83.73 234.9V220.16L105.32 210.38L110.33 225.77Z" fill="#A1A0A0"/>
<path d="M116.28 355.52C116.28 355.52 111.28 376.12 111.05 377C110.82 377.88 102.2 356.92 102.2 356.92L116.28 355.52Z" fill="#C7C6C1"/>
<path d="M78.34 306.29C78.6 304.92 63.87 357.71 63.87 357.71L57.54 363.76C57.54 363.76 61.33 354.65 61.54 353.85C61.75 353.05 75.88 302.14 75.88 302.14C75.88 302.14 66.51 298.7 68.18 298.96C70.7648 299.1 73.3553 299.1 75.94 298.96L81.01 297.43L93.38 361.76C93 360.12 78.08 307.65 78.34 306.29Z" fill="#29272C"/>
<path d="M124.33 354.41L130.68 268L116.29 355.45C116.29 355.45 111.29 376.05 111.06 376.93C110.83 377.81 102.21 356.85 102.21 356.85L77 274.63C77 274.63 87.75 265.83 98.51 257.17L106.35 227.17L83.69 234.94V237.43L79 239.52L69.31 243.92L57.85 236.46L57.39 236.12C55.97 235 49.83 230.18 46.32 227.53L48.51 254.17L50.51 256.3L69.32 276.38L53.08 361.78L40.14 353.78L32 283.89L30.59 331.55L34.48 350.75L30.29 377.25L34.48 386.7L33.55 473.46H39.27V416.25C39.27 415.11 57.39 375.67 57.39 375.67L65.77 394.54L46.68 473.46H50.45L71.87 391.69L57.59 363.76C57.59 363.76 61.38 354.65 61.59 353.85C61.8 353.05 75.94 302.14 75.94 302.14C75.94 302.14 66.57 298.7 68.23 298.96C70.8148 299.1 73.4052 299.1 75.99 298.96L81.06 297.43L93.43 361.76V386.93C93.43 386.93 116.66 478.42 117.72 479.24C117.872 479.335 118.042 479.396 118.22 479.42C120.306 479.633 122.406 479.686 124.5 479.58H125.39L116.44 419.5C116.44 419.5 127.27 383.5 127.27 382.81C127.27 382.12 132.51 386.22 132.51 386.22L130.68 479.35L132.06 479.28L132.28 477.58C132.66 464.8 135.05 384.95 136.02 384.7C136.99 384.45 124.33 354.41 124.33 354.41ZM34.38 372.34L37.9 355.52C38.9 355.95 48.67 366.27 48.67 366.27L34.38 372.34Z" fill="#5A5755"/>
<path d="M120 240.5C118.9 241.01 112.66 245.88 105.27 251.78C103.1 253.51 100.82 255.33 98.55 257.17L106.39 227.17L110.33 225.82L119.6 239.51L120 240.5Z" fill="#29272C"/>
<path d="M130.68 268C130.25 269.6 116.74 320.94 116.39 321.49C116.04 322.04 103.32 294 103.32 294C103.32 294 104.96 259.53 105.27 251.82C112.66 245.92 118.9 241.05 120 240.54L130.68 268Z" fill="#C7C6C1"/>
<path d="M167.52 204.81C167.33 205.03 160.12 213.14 153.74 220.16V250.4L150.13 257.12L144.66 250L132.77 264.29L133.19 271.79H139.64V283.59L150.72 286.35L161.81 279.69C161.81 279.69 161.55 247.52 161.81 246.42C162 245.56 165.78 217.76 167.52 204.81ZM150.72 281.69L152.53 274.63V262.5L155.89 277L150.72 281.69Z" fill="#A1A0A0"/>
<path d="M161.81 279.67L158.91 287.09L143.07 293.96L134.36 292.31L133.19 271.77H139.64V283.57L150.72 286.33L161.81 279.67Z" fill="#C7C6C1"/>
<path d="M153.74 220.16V250.4L150.13 257.12L144.66 250L137.52 217.28C137.52 217.28 143.84 229.74 144.05 230.37C144.14 230.63 148.68 225.74 153.74 220.16Z" fill="#C7C6C1"/>
<path d="M168.41 198.28C168.41 198.28 168.06 200.85 167.53 204.81C167.34 205.03 160.13 213.14 153.75 220.16C148.69 225.74 144.15 230.63 144.06 230.35C143.85 229.72 137.53 217.26 137.53 217.26L139.65 216.43L149.47 208.03L161.82 197.46C161.82 197.46 164.99 194.98 165.82 194.16C166.65 193.34 168.41 198.28 168.41 198.28Z" fill="#29272C"/>
<path d="M132.52 386.19L130.69 479.32C129.38 479.39 127.41 479.48 125.4 479.55L116.45 419.47C116.45 419.47 127.28 383.47 127.28 382.78C127.28 382.09 132.52 386.19 132.52 386.19Z" fill="#29272C"/>
<path d="M112.56 119.93L78.7399 131.09L69.2999 144.62L60.2199 129.72L41.3599 120C41.6199 118.81 41.7699 118.07 41.7699 118.07L45.0599 114.87C44.7499 115.32 45.0599 118.29 45.0599 118.29L68.9999 127.59L71.5599 128.59L110.5 116.43L112.56 119.93Z" fill="#29272C"/>
<path d="M83.73 220.16V234.9V237.39L79 239.52L79.23 220.16H60.35C59.98 220.16 57.83 217.69 56.74 216.42L83.74 215.27V220.16H83.73Z" fill="#C7C6C1"/>
<path d="M52.14 295.42C52.14 295.42 41.6999 320.82 41.5299 320C41.3599 319.18 32.62 286.25 31.95 283.77V282.87L36.8399 243.99L37.4999 242.49L48.4999 254.24L50.4999 256.37L52.14 295.42Z" fill="#C7C6C1"/>
<path d="M69.34 276.38L53.1 361.78L40.16 353.78L32 283.89V283.72C32.67 286.2 41.41 319.12 41.58 319.95C41.75 320.78 52.19 295.42 52.19 295.42L50.58 256.3L69.34 276.38Z" fill="#40403E"/>
<path d="M48.6699 366.27L34.3799 372.34L37.8999 355.52C38.9299 356 48.6699 366.27 48.6699 366.27Z" fill="#C7C6C1"/>
<path d="M155.89 277L150.72 281.69L152.53 274.63V262.5L155.89 277Z" fill="#40403E"/>
<path d="M9.55008 277L5.84009 279.95L6.81009 263.52L9.55008 277Z" fill="#40403E"/>
<path d="M65.72 394.54L46.63 473.46H39.45L39.21 472.96V416.25C39.21 415.11 57.33 375.67 57.33 375.67L65.72 394.54Z" fill="#29272C"/>
<path d="M50.4099 473.46L45.8999 487.3H33.4099L33.4199 486.3L33.5099 473.46H50.4099Z" fill="#40403E"/>
<path d="M132.08 479.25L131.08 487.25H118.75L118.68 486.89L118.24 479.36C120.323 479.573 122.419 479.626 124.51 479.52C126.82 479.46 129.19 479.35 130.68 479.27L132.08 479.25Z" fill="#40403E"/>
<path d="M147.68 109.15L107.31 111.25L115.53 105.93L126.54 99.28L128.73 97.96L147.68 109.15Z" fill="#C7C6C1"/>
<path d="M147.68 109.15L140.89 128.9V129.03L125.35 129.22L125.16 129.03L107.36 111.3L147.68 109.15Z" fill="#5A5755"/>
<path d="M43.6701 108.93L27.3201 106.88L39.9601 99.98L43.6701 108.93Z" fill="#5A5755"/>
<path d="M47.42 108.93L37.0799 117.24L25.4299 129.72L19.1799 121.94L27.3199 106.88L43.67 108.93L39.9599 99.98L47.42 108.93Z" fill="#C7C6C1"/>
<path d="M81.64 36.0598L97.45 27.5498L75.75 33.8698L81.64 36.0598Z" fill="#C7C6C1"/>
<path d="M79.25 66.0298L101.48 56.7598L104.43 59.7098L104.79 58.3398L101.48 56.7598L82.26 62.9398L79.25 66.0298Z" fill="#BC7645"/>
<path d="M76.96 66.0998L60.77 59.2598L74.05 63.3098L76.96 66.0998Z" fill="#9B5023"/>
<path d="M95.0201 80.6201L85.0701 89.4601L83.1401 90.3901L79.3301 89.5201L77.8301 89.0501L83.1501 88.8301L95.0201 80.6201Z" fill="#9B5023"/>
<path d="M67.97 82.0001L77.83 89.0501L67.97 80.8501V82.0001Z" fill="#9B5023"/>
<path d="M68 80.8501C68 81.0201 78.06 88.8501 78.06 88.8501H83.19L83.02 89.5501L77.86 89.0701C77.86 89.0701 69.58 82.8901 69.53 82.9001C69.48 82.9101 68 80.8501 68 80.8501Z" fill="#9B5023"/>
<path d="M75.75 33.8699C75.75 33.8699 70.68 25.2999 70.61 24.5399C70.54 23.7799 80.17 6.38989 80.17 6.38989C80.17 6.38989 75.17 22.0899 75.39 22.2699C75.61 22.4499 81.01 31.8099 81.01 31.8099L75.75 33.8699Z" fill="#282A2A"/>
<path d="M103.57 7.84001C102.94 7.65001 95.02 11.26 95.02 11.26C95.02 11.26 88.6 27.78 88.88 27.55C89.16 27.32 96.22 12.79 96.22 12.79L103.57 7.84001Z" fill="#282A2A"/>
<path d="M46.6099 26.45L62.7099 17.69L71.6299 20.1301L61.6299 5.80005L46.6099 26.45Z" fill="#282A2A"/>
<path d="M98.55 369.77C99.07 370.69 113.46 408.65 113.46 408.65L97.24 387.53L98.55 369.77Z" fill="#C7C6C1"/>
<path d="M48.67 372.34L35.95 377.02L39.2099 416.25L57.3299 375.67L48.67 372.34Z" fill="#40403E"/>
<path d="M57.88 236.46L52.47 258.36L69.34 276.38L67.18 287.7L74.47 289.65L81.12 287.95L77.04 274.63L93.43 261.3L102.2 227.92L83.73 234.9L83.72 237.39L69.34 243.92L57.88 236.46Z" fill="#29272C"/>
<path d="M132.16 150.92L130.64 150.4L131.16 149.4L134.69 142.77V142.71V142.64L141.14 130.5L151 157.4V157.48C147.25 156.15 136.22 152.32 132.16 150.92Z" fill="#5A5755"/>
<path d="M161.53 195.23L151.88 191.03L145 188L145.08 187.67L145.41 186.3L145.5 185.9L151.78 159.71L160 182.34L161.53 195.23Z" fill="#40403E"/>
<path d="M145.16 188.87C145.8 192.6 148.35 207.56 148.38 208.77C148.375 208.85 148.355 208.928 148.32 209C147.71 210.37 142.32 214.4 139.85 216.24L139.76 216.31L139.7 216.36H139.63L142 189V188.74L139.7 185.57L135.14 179.28L121.49 152.08L121.43 151.96C124.3 151.16 130.48 149.46 131.15 149.37C131.346 149.403 131.54 149.45 131.73 149.51C131.73 149.51 146.91 155.66 150.93 157.37V157.45L151.75 159.72L145.47 185.91L145.38 186.31L145.05 187.68L145 188L145.16 188.87Z" fill="#C7C6C1"/>
<path d="M161.8 197.46L151.89 206C151.79 206.08 151.69 206.17 151.59 206.24L149.45 207.97L148.38 208.82L145.16 188.92L145 188L151.83 191L161.48 195.2L161.8 197.46Z" fill="#5A5755"/>
<path d="M150.3 185.5L146.3 187.2L146.11 187.28H146.06L145.11 187.68L142 189V188.74L139.7 185.57C141.97 185.73 144.39 185.85 145.22 185.89H145.51L150.3 185.5Z" fill="#29272C"/>
<path d="M141.22 130.47L134.77 142.61V142.68V142.74L131.24 149.37L121.58 152.08L119.92 148.77L121.42 143.32L123.21 136.53H123.27L123.43 136.45L123.83 136.28L124.12 136.15L124.54 135.97L124.75 135.88L125.12 135.72L125.68 135.48L126.02 135.33L128.02 134.48L135.91 131.08L137.21 130.52L140.26 129.21L140.59 129.07H140.67H140.72L140.92 128.96V129.09L141.22 130.47Z" fill="#40403E"/>
<path d="M37.1501 137.22L35.4901 139.92L32.4401 151.59L31.7701 152.81C31.7701 152.81 38.4501 166.56 37.7701 167.27C37.0901 167.98 25.6801 177.68 25.6801 177.68L21.55 151.59L27.1901 140.42L37.1501 137.22Z" fill="#5A5755"/>
<path d="M25.6701 177.65L25.0901 178.08L16.0901 184.78C16.1601 182.78 16.2401 180.9 16.3001 179.25L17.5801 167.63L17.7701 165.92C19.7101 154.73 23.1101 136.03 23.1101 136.03L27.2001 140.4L21.5601 151.57L24.8001 172.03V172.1L25.6801 177.62L25.6701 177.65Z" fill="#40403E"/>
<path d="M37.7699 167.28L37.7 167.95L34.0599 189.95L32.8799 207.95L24.8799 203.51L23.0999 202.51L22.4399 202.14C22.4399 202.14 22.4899 201.8 22.5599 201.21C22.5599 201.01 22.6199 200.78 22.6499 200.53C22.6799 200.28 22.7099 200.11 22.7399 199.87C22.8299 199.21 22.9299 198.42 23.0499 197.55C23.0499 197.37 23.0499 197.18 23.1299 196.98C23.2099 196.78 23.2199 196.33 23.2599 195.98C23.2551 195.897 23.2551 195.813 23.2599 195.73L23.4299 194.43C23.4999 193.89 23.5699 193.33 23.6499 192.75L23.7999 191.62C24.0199 189.91 24.2599 188.16 24.4799 186.49C24.5299 186.15 24.5699 185.81 24.6199 185.49C24.6699 185.17 24.6699 185.04 24.7099 184.82C24.7699 184.3 24.8399 183.82 24.8999 183.33C24.8999 183 24.9899 182.68 25.0299 182.33C25.0699 181.98 25.1099 181.72 25.1499 181.43V181.17V180.94L25.2399 180.23L25.3299 179.53C25.3299 179.31 25.3799 179.11 25.4099 178.92L25.4799 178.42L25.5899 177.6L25.7199 177.49L26.0699 177.19C28.1599 175.36 36.4099 168.19 37.5699 167.29H37.6199L37.7699 167.28Z" fill="#29272C"/>
<path d="M25.6899 177.67L25.5799 178.49C25.5799 178.64 25.5299 178.8 25.5099 178.99C25.4899 179.18 25.4599 179.38 25.4299 179.6C25.3999 179.82 25.3699 180.05 25.3399 180.3C25.3099 180.55 25.2799 180.73 25.2399 180.96V181.21V181.47C25.1999 181.763 25.1599 182.063 25.1199 182.37C25.1199 182.68 25.0299 183 24.9899 183.37C24.9299 183.85 24.8599 184.37 24.7999 184.86C24.7999 185.08 24.7299 185.31 24.7099 185.53C24.6899 185.75 24.6199 186.2 24.5699 186.53C24.3499 188.2 24.1099 189.95 23.8899 191.66L23.7399 192.79C23.6599 193.37 23.5899 193.93 23.5199 194.47L23.3499 195.77C23.3451 195.853 23.3451 195.937 23.3499 196.02C23.3499 196.36 23.2599 196.69 23.2199 197.02C23.1799 197.35 23.1699 197.42 23.1399 197.6C23.0199 198.47 22.9199 199.26 22.8299 199.92C22.8299 200.16 22.7999 200.38 22.7399 200.58C22.7399 200.83 22.6799 201.06 22.6499 201.26C22.5799 201.85 22.5299 202.19 22.5299 202.19L15.6299 198.36C15.6299 198.36 15.9199 191.3 16.1799 184.77C16.2499 182.77 16.3299 180.89 16.3899 179.24L17.6699 167.62C18.7399 169.15 23.4099 174.77 25.1399 176.85L25.7699 177.59L25.6899 177.67Z" fill="#C7C6C1"/>
<path d="M140.85 129L140.73 129.06H140.63L140.46 129.14C138.76 129.85 132.46 132.5 127.95 134.41L125.95 135.26L125.61 135.41L125.05 135.65L124.68 135.81L124.47 135.9L124.05 136.08L123.76 136.21L123.36 136.38L123.2 136.46C122.65 136.46 116.96 127.15 112.56 119.82L110.46 116.33C108.81 113.55 107.62 111.52 107.46 111.2L125.12 129H140.85Z" fill="#A1A0A0"/>
<path d="M63.39 147.35L52.13 164.79L40.88 161.9L38.8 160.43L31.46 151.64L35.45 139.59V139.58L38.75 136.1L52.87 136.73L63.39 147.35Z" fill="#A1A0A0"/>
<path d="M105.32 210.38L83.7301 220.16V215.27L56.5401 216.43V220.16L50.8101 212.06L48.0901 177.36L39.6501 171L37.8301 167.28L30.8301 152.92L31.5001 151.7L38.8401 160.49L40.9201 161.96L46.2601 165.75L55.0001 179L56.5501 178.19L57.9401 199.62L69.3601 193.92C69.3601 193.92 82.3601 199.38 83.7401 199.62C84.7401 199.79 87.3601 188.4 88.6601 182.39C91.2901 183.39 97.0401 185.84 97.4701 185.84C97.9001 185.84 100.47 189.68 101.86 191.71C102.29 194 105.32 210.38 105.32 210.38Z" fill="#40403E"/>
<path d="M123.22 136.54L119.84 148.8L116.28 146.23C111.47 142.73 103.41 136.87 102.98 136.54C102.35 136.05 89.7199 140.42 89.7199 140.42L75.3099 149.77L70.17 162L63.39 147.33L52.8699 136.7L38.7499 136.09L35.45 139.56L36.9799 137.44C37.5499 137.44 40.3099 124.85 41.3599 119.93L60.2199 129.68L69.2999 144.6L78.7399 131.05L112.56 119.88C117 127.31 122.78 136.76 123.22 136.54Z" fill="#C7C6C1"/>
<path d="M26.8999 141.34V141.42L21.5999 151.59L20.4199 151.23L22.8799 137.58L23.1499 136.05L26.8999 141.34Z" fill="#C7C6C1"/>
<path d="M110.24 159.82C110.12 160.26 99.5899 173.18 99.5899 173.18L99.4299 178.12" fill="#A1A0A0"/>
<path d="M110.2 159.77C110.08 160.21 99.5501 173.14 99.5501 173.14L99.3901 178.08" fill="#A1A0A0"/>
</svg>
