<svg width="193" height="489" viewBox="0 0 193 489" fill="none" xmlns="http://www.w3.org/2000/svg">
<path d="M89.0001 47.9999C89.8965 48.6935 90.5509 49.6524 90.8701 50.7399C90.9741 51.5007 90.8229 52.2744 90.4401 52.9399C90.0606 53.6033 89.593 54.2122 89.0501 54.7499C86.2701 57.6599 82.6701 59.9999 78.6501 60.4399C77.9163 60.5507 77.1675 60.5099 76.4501 60.32C75.6627 60.0349 74.9702 59.5363 74.4501 58.8799C74.0119 58.3615 73.6515 57.7821 73.3801 57.1599C73.2271 56.7873 73.0535 56.4234 72.8601 56.07C72.2001 55.07 70.8601 54.4999 70.2501 53.4499C69.747 52.3399 69.6342 51.0922 69.9301 49.9099C69.9418 49.7544 69.9898 49.6037 70.0701 49.4699C70.1566 49.3703 70.262 49.2887 70.3801 49.2299C72.9432 48.0005 75.7865 47.4726 78.6201 47.6999C81.4439 47.9297 84.2784 47.9998 87.1101 47.9099C88.0601 47.8299 89.2001 47.7399 89.8101 48.4799" fill="#C68651"/>
<path d="M95.8799 43.81L82.4999 44C82.1999 44 77.3099 46.2701 77.3099 46.2701L74.8599 43.81L64.8599 43.54L66.1999 50.0201L68.6899 56.6301L75.1099 63.48H87.2299L99.1299 53.2101L95.8799 43.81ZM82.8299 56.23C82.5799 56.15 77.0399 56.23 77.0399 56.23L75.4699 53.78H85.2299C85.2299 53.78 83.0799 56.32 82.8299 56.23ZM73.3499 51.23L75.0199 50.04C75.0199 50.04 84.0999 49.98 84.4199 50.04C84.7399 50.1 88.9899 51.31 88.9899 51.31L73.3499 51.23Z" fill="#A6662F"/>
<path d="M71.98 0.810059L78.64 2.66006L86.55 0.810059L101.95 4.83006L88.34 8.19006L75.91 7.51006L71.98 0.810059Z" fill="#3E383E"/>
<path d="M189.43 216.75V217.19H174.32L186.48 162.58C186.48 162.58 191.75 185.77 192.2 186.44V186.58C192.71 189.2 189.43 216.75 189.43 216.75Z" fill="#3A3B44"/>
<path d="M184.07 217.19L178.88 244.74L173.73 230.97L167.76 228.98L167.91 228.52L174.32 217.19H184.07Z" fill="#A4682F"/>
<path d="M178.88 244.74L168.58 248.19L166.26 244.74L171.56 242.99V238.46L166.26 244.74L163.87 241.18L167.76 228.98L173.73 230.97L178.88 244.74Z" fill="#85491F"/>
<path d="M191.48 243.63L186.77 248.19H168.58L178.88 244.74L191.48 243.63Z" fill="#4B1D11"/>
<path d="M189.42 217.19L191.48 243.63L178.88 244.74L184.07 217.19H189.42Z" fill="#85491F"/>
<path d="M168 100V100.07L152 120.61L136.55 113.44V97.89L155 80.23H155.33L168 100Z" fill="#689DD4"/>
<path d="M155.01 80.2302L136.52 97.8902L114.65 86.2602L129.73 76.1802L129.96 76.2802L155.01 80.2302Z" fill="#7DD1F0"/>
<path d="M105.07 66.8299C100.07 68.9599 83.19 76.9699 82.88 76.7599C82.57 76.5499 75.2 71.1799 71.52 68.4099L82 72.1899L105.72 61.8999L105.78 65.7499L105.07 66.8299Z" fill="#70411E"/>
<path d="M105.11 55.77L105.71 61.89L82 72.19L71.53 68.41L72.68 62.94L74.55 65.18H87.15L105.11 55.77Z" fill="#622F13"/>
<path d="M103.58 46.0798L104.15 45.4798L103.58 46.0798L105.1 55.7698L87.1001 65.1698L99.0001 53.2398C99.9193 49.1368 101.194 45.1216 102.81 41.2398C102.94 40.8398 103.58 45.8998 103.58 46.0798Z" fill="#471E12"/>
<path d="M99 53.24L87.15 65.17H74.55L72.68 62.93L68.34 56.93L66.08 50.22L64 43.5L65.34 43.57L66.68 50.05L69.17 56.66L74.96 63.51H87.08L99 53.24Z" fill="#78421B"/>
<path d="M109.84 29.2402V39.3802L103.58 46.0802C103.58 45.9002 102.94 40.8402 102.78 41.2002C105.34 35.2002 107.91 29.2002 108.01 29.2002L109.84 29.2402Z" fill="#70411E"/>
<path d="M108.26 14.1101L108.12 29.1101L97.8299 24.7601L98.4499 14.6001L93.9799 15.3201L80.9799 18.8401L67.9799 14.1701L65.8999 25.5901L67.1299 9.59013C67.1299 9.59013 78.3899 12.0401 78.6499 12.0401C78.9099 12.0401 96.2499 10.4301 96.6499 10.3101C97.0499 10.1901 102.14 8.18014 102.43 7.89014L108.26 14.1101Z" fill="#22201F"/>
<path d="M94 15.35L91.36 24.35C91.36 24.35 78.87 29.63 78.68 29.76C78.49 29.89 70.21 25.35 69.83 25.23C69.45 25.11 67.97 14.23 67.97 14.23L80.47 18.72L94 15.35Z" fill="#A6662F"/>
<path d="M108.25 29.2401L102.13 31.31L97.05 32.8201L94.2001 29.39L91.8201 26.53L97.83 24.79L108.07 29.14L108.25 29.2401Z" fill="#689DD4"/>
<path d="M102.45 31.1099C102.45 31.1099 97.62 40.1699 96.17 42.9799L95.91 43.4599L95.74 43.7599V43.8099L82.37 44.0299C82.07 44.0299 77.18 46.2999 77.18 46.2999L74.73 43.8399L65.73 43.5699L64 43.4999L68.24 39.0299L75.32 40.7799L76.73 33.8399L67.25 29.5599L65.59 25.9999L65.87 25.6299L78.33 31.9999L92 26.4799L94.27 29.2199L80.49 34.2199L81.69 40.7999C81.97 40.7999 94.45 40.2999 94.69 40.2299C94.93 40.1599 97.14 32.6699 97.14 32.6699L102.45 31.1099Z" fill="#7DD1F0"/>
<path d="M76.72 33.8401L75.31 40.7801L74.76 34.1601L67.24 29.5601L76.72 33.8401Z" fill="#689DD4"/>
<path d="M68.2301 39.0302L63.9901 43.5002L63.1001 34.4002V29.2402L65.5901 25.9902L67.2401 29.5602L65.4401 33.1202L67.1001 38.7502L68.2301 39.0302Z" fill="#689DD4"/>
<path d="M94.2299 29.2202L83.7399 33.9702L81.6499 40.7802L80.45 34.2002L94.2299 29.2202Z" fill="#689DD4"/>
<path d="M108.25 29.2402C108.01 29.6002 105.51 35.3802 103.04 41.1802L102.93 41.4402C100.71 46.6002 99.6599 51.8102 99.0999 52.9802C99.0999 52.9802 99.0499 53.1302 99.0299 53.1702C99.0086 53.2078 98.9775 53.2389 98.9399 53.2602L95.6699 43.7902V43.7402C95.6699 43.6902 95.7699 43.5802 95.8399 43.4402L96.0999 42.9602C97.6199 40.1602 102.38 31.0902 102.38 31.0902L107.86 29.3202L108.16 29.2202L108.25 29.2402Z" fill="#4B5680"/>
<path d="M99.1301 184.38L95.8601 189.18L77.3201 191.37V133L100.61 143.88L96.9201 157.55L99.1301 184.38ZM84.1301 131.63C84.1301 131.63 109.5 136.28 110.19 136.1C110.88 135.92 131.28 119.88 131.92 119.38L112.26 143.88L84.1301 131.63ZM139.43 134.47L128.94 106.12L122.61 120.61C122.61 120.61 107.61 129.27 107.26 129.61C106.91 129.95 78.6801 125.61 78.6801 125.61L80.0801 99.7301L89.2201 84.6401L80.9301 89.6401C80.9301 89.6401 73.3301 85.7801 72.7301 85.1201L78.5201 100.58L74.4101 125.85L50.6001 133.52L33.6001 122.41L49.9301 137.66L66.9301 131.58L52.6001 144.88L54.8901 180C54.8901 180 64.8201 201.07 65.3001 201.37C65.7801 201.67 90.8401 201.37 90.8401 201.37L108.66 175.63L126.66 168.32C126.66 168.2 126.66 168.13 126.66 168.13L127.19 166.72L139.43 134.47Z" fill="#689DD4"/>
<path d="M131.91 119.38L112.25 143.88L84.1201 131.63C84.1201 131.63 109.49 136.28 110.18 136.1C110.87 135.92 131.27 119.88 131.91 119.38Z" fill="#6767AE"/>
<path d="M78.5101 100.58L74.4001 125.85L50.58 133.52L33.5701 122.41L36.5701 105.28L50.5401 86.2598L78.5101 100.58Z" fill="#7DD1F0"/>
<path d="M50.5399 86.2599L31.2999 101.83L17.1499 95.4599L31.2999 80.3599L47.9999 80.0999L48.5499 79.8599C49.7999 81.8599 50.5399 86.2599 50.5399 86.2599Z" fill="#7DD1F0"/>
<path d="M19.8199 121.64L19.8699 121.49L17.1499 95.4502L31.2999 101.83L33.5699 122.41L19.8199 121.64Z" fill="#689DD4"/>
<path d="M53.56 205.4L66.25 231L65.08 229.17L64.6 228.42L64.33 228.01L63.75 227.1L63.11 226.1L62.77 225.57L61.69 223.89L60.53 222L59.71 220.72L58.88 219.43L58.45 218.77L57.63 217.48L56.25 215.34L55.45 214.08L54.6 212.75C50.83 206.86 40.97 202.04 40.91 201.75L50 179.25C50 179.25 47.73 145.03 47.94 141.5C47.65 142.26 46.62 144.42 45.31 147.09C45.22 147.66 43.81 155.78 43.67 156.09C43.53 156.4 38.24 162.68 38.24 162.68L15.24 152.35L38.48 143.86L33.57 122.39L49.9 137.64L66.9 131.56L52.57 144.86L54.89 180L53.56 205.4Z" fill="#3A3B44"/>
<path d="M15.24 152.37L19.55 182.48L8.82996 217.59L1.22998 214.08L7.07996 163.44L15.24 152.37Z" fill="#7DD1F0"/>
<path d="M38.1601 162.8L37.4401 176.5L15.6701 217.86L8.83008 217.59L19.5501 182.48L38.1601 162.8Z" fill="#3A3B44"/>
<path d="M13.7201 233.35L4.17007 246.66L0.820068 232.52L1.23007 214.08L8.83005 217.59L13.7201 233.35Z" fill="#874A20"/>
<path d="M22.5101 229.99L13.7201 233.35L8.83008 217.59L15.6701 217.86L22.3801 229.63L22.5101 229.99Z" fill="#A76931"/>
<path d="M25.97 240.07L22.38 242.74L13.72 233.35L22.51 229.99L25.97 240.07Z" fill="#804A1F"/>
<path d="M22.3799 242.74L20.2099 246.79L19.4599 248.19L4.18991 246.74L4.16992 246.66L13.7199 233.35L22.3799 242.74Z" fill="#471914"/>
<path d="M129.22 192.43L100.61 215.91L90.61 230.97C90.1 230.28 112.8 197.97 112.28 197.49C111.76 197.01 108.68 175.62 108.68 175.62L126.68 168.31C126.92 170.47 129.14 191.05 129.14 191.9C129.156 192.078 129.183 192.255 129.22 192.43Z" fill="#6767AE"/>
<path d="M66.26 231L58.86 287.78L30 267.18L40.89 201.82C41.03 202.42 65.66 230.07 66.23 230.95L66.26 231Z" fill="#7DD1F0"/>
<path d="M146.21 250.14L140.51 310.51C140.51 310.51 131.1 321.8 127.56 326.78C130.13 321.09 135.48 306.85 135.48 306.58C135.48 306.31 122.31 289.2 120.87 285.71C120.96 285.29 120.96 285.06 120.87 285.08C120.78 285.1 120.74 285.33 120.87 285.71C119.87 289.93 102.69 316.54 101.77 318.51L101.7 318.65C94.2501 293.65 89.9801 258.08 89.9801 258.08L86.6101 295.18C86.6101 295.18 80.6101 321.06 80.5501 321.62C80.5501 321.62 77.6301 323.45 74.1901 325.62C69.4801 328.55 63.8001 332.1 63.3501 332.4C62.5501 332.92 73.8501 311.1 73.8501 311.1L58.8501 287.79L66.2501 231.01C66.2501 231.01 90.5801 231.68 90.5801 231.01L120.85 283.8L146.21 250.14Z" fill="#3A3B44"/>
<path d="M58.86 287.75L43.12 321.85L30.02 267.18L58.86 287.75Z" fill="#3A3B44"/>
<path d="M80.0999 344.51L65.1799 359.11L40.4399 335.17L42.6299 323.54L42.89 322.62L43.1199 321.85L58.8599 287.75L73.8599 311.06C73.8599 311.06 62.5599 332.88 63.3499 332.36C64.1399 331.84 80.5499 321.62 80.5499 321.62C80.7699 321 80.0999 344.51 80.0999 344.51Z" fill="#689DD4"/>
<path d="M86.6099 382.06L65.1799 359.11L80.0999 344.51L86.6099 382.06Z" fill="#6767AE"/>
<path d="M67.7399 452.9C67.7399 452.9 67.9699 451.36 68.3499 448.76L67.0799 453.38L65.1799 359.11L83.42 402.56L67.7399 452.9Z" fill="#8193CA"/>
<path d="M49.3799 426.19C49.3799 426.19 49.5599 365.39 49.3299 364.73C49.0999 364.07 40.4399 335.84 40.4399 335.17L65.1799 359.11L67.0799 453.38L49.3799 426.19Z" fill="#3A3B44"/>
<path d="M67.9999 476.93L29.9999 478.71C29.9999 478.71 20.7899 481.82 19.8899 481.59C18.9899 481.36 4.16992 479.16 4.16992 479.16L5.05991 473.6L24.6999 474.44L42.8099 475.21L60.1099 471.44C60.1099 471.44 67.4899 469.56 67.7099 469.62C67.8699 473.7 67.9999 476.93 67.9999 476.93Z" fill="#40403E"/>
<path d="M67.7299 469.62C67.5099 469.56 60.1299 471.44 60.1299 471.44L51.4599 449.8L49.3799 426L67.0799 453.19C67.1899 453.16 67.5199 462.64 67.7299 469.62Z" fill="#689DD4"/>
<path d="M60.1301 471.44L42.8301 475.43L24.7201 474.66L14.0901 469.62L41.1701 459.03L60.1301 471.44Z" fill="#7DD1F0"/>
<path d="M24.7201 474.66L5.08008 473.6L14.0801 469.62H14.0901L24.7201 474.66Z" fill="#6767AE"/>
<path d="M146.21 250.14L120.86 283.78C120.21 283.15 137.94 211.3 137.94 211.3C142.78 227.24 146.21 250.14 146.21 250.14Z" fill="#689DD4"/>
<path d="M140.51 310.51C140.51 310.51 131.1 321.8 127.51 326.78C130.09 321.09 135.44 306.85 135.44 306.58C135.44 306.31 122.27 289.2 120.83 285.71C119.83 290.11 101.66 318.65 101.66 318.65L123.09 334.08L126.21 356.33L143.61 339.39L140.51 310.51Z" fill="#689DD4"/>
<path d="M139.19 429.64L116.52 388.74C116.52 388.74 116.52 388.32 116.42 387.57C116.48 386.29 126.25 364.18 126.25 364.18L112.13 345.6C112.13 345.34 107.27 333.55 101.83 318.83L123.26 334.26L126.26 356.33L160.84 425.22L162.53 457.38L139.19 429.64Z" fill="#3A3B44"/>
<path d="M126.25 364.14C126.25 364.14 116.48 386.25 116.42 387.53C115.81 380.44 112.13 346.2 112.13 345.6L126.25 364.14Z" fill="#6767AE"/>
<path d="M160.83 425.22L126.25 356.33L143.65 339.39L158.25 376.05L160.83 425.22Z" fill="#8193CA"/>
<path d="M167.94 469.96L144.28 462.38L139.61 430.5L139.19 429.64L162.52 457.38L167.94 469.96Z" fill="#689DD4"/>
<path d="M172.61 480.81L147.74 480.36C147.74 480.36 144.33 470.49 144.33 470.07V462.71L144.28 462.39L167.94 470L172.61 480.81Z" fill="#7DD1F0"/>
<path d="M174.19 484.49L160.27 488.93H147.92L142.08 481.83L144.33 470.49V470.07C144.33 470.49 147.74 480.36 147.74 480.36L172.61 480.81L174.19 484.49Z" fill="#40403E"/>
<path d="M186.48 162.58L167 152.86L152 120.61L168 100.07C168 101.16 167.79 115.57 168 116.2C168.21 116.83 172.38 131.65 172.38 131.65C172.38 131.65 177.88 150.1 177.88 149.43C177.88 148.76 186.48 162.58 186.48 162.58Z" fill="#3A3B44"/>
<path d="M167 152.86C167 152.86 158.86 160.36 154.94 164.22C153.8 163.08 144.87 155.38 143.16 154.13C145.81 154.85 165.92 152.86 167 152.86Z" fill="#40403E"/>
<path d="M174.32 217.19L157.42 185L155.14 164.37L154.98 164.19C158.9 160.33 167.04 152.83 167.04 152.83L174.32 217.19Z" fill="#7DD1F0"/>
<path d="M186.48 162.58L174.32 217.19L167.04 152.86L186.48 162.58Z" fill="#689DD4"/>
<path d="M113 70.3399L89.2001 84.6599L80.9101 89.6599C80.9101 89.6599 73.3101 85.7999 72.7001 85.1399V85.0499C72.9601 84.8699 69.3301 77.6199 67.0801 73.1699C67.2901 72.9699 71.4101 68.5699 71.5001 68.4699C75.1801 71.2399 82.6001 76.6299 82.8601 76.8199C83.1201 77.0099 100.69 66.8199 105.73 64.6499L113 70.3399Z" fill="#6767AE"/>
<path d="M78.51 100.58L50.54 86.2598L72.68 85.0298L72.71 85.1198L78.51 100.58Z" fill="#7DD1F0"/>
<path d="M36.5701 105.28L33.5701 122.41L31.3 101.83L50.5401 86.2598L36.5701 105.28Z" fill="#3A3B44"/>
<path d="M38.48 143.88L15.24 152.37L15.03 133.75L19.82 121.64L33.57 122.41L38.48 143.88Z" fill="#7DD1F0"/>
<path d="M38.21 162.7V162.8L19.6 182.48L15.29 152.37L38.21 162.7Z" fill="#689DD4"/>
<path d="M20.21 246.79L7.46997 244.32L11.94 240.6L22.38 242.74" fill="#804A1F"/>
<path d="M114.65 86.2602L80.0701 99.7502L89.2101 84.6602L114.65 86.2602Z" fill="#7DD1F0"/>
<path d="M128.92 106.12L125.09 121.39C125.09 121.39 109.3 131.28 108.94 131.65C108.58 132.02 78.6699 125.65 78.6699 125.65L80.0699 99.7698L114.65 86.2798L128.92 106.12Z" fill="#7DD1F0"/>
<path d="M167 152.86C165.88 152.86 145.77 154.86 143.16 154.13C142.98 154 142.87 153.92 142.81 153.92C142.28 152.79 145.58 126.61 145.58 126.61L151.94 120.61L167 152.86Z" fill="#7DD1F0"/>
<path d="M171.56 238.46V242.99L166.26 244.74L171.56 238.46Z" fill="#4B1D11"/>
<path d="M120.86 283.78L90.5901 231L100.59 215.94L129.2 192.46C129.77 194.58 134.36 202.1 137.92 211.33C137.94 211.3 120.21 283.15 120.86 283.78Z" fill="#7DD1F0"/>
<path d="M90.58 231C90.58 231.65 66.2501 231 66.2501 231L53.5601 205.4L54.8801 180C54.8801 180 64.8201 201.07 65.2901 201.37C65.7601 201.67 90.8401 201.37 90.8401 201.37L108.65 175.63C108.65 175.63 111.74 196.99 112.25 197.5C112.76 198.01 90.07 230.28 90.58 231Z" fill="#689DD4"/>
<path d="M98.4501 14.6302L97.8301 24.7902L92.0001 26.4802L78.3301 32.0002L65.8701 25.6602L68.0001 14.2002C68.0001 14.2002 69.4901 25.0902 69.8601 25.2002C70.2301 25.3102 78.5201 29.8502 78.7101 29.7302C78.9001 29.6102 91.3901 24.3202 91.3901 24.3202L94.0301 15.3202L98.4501 14.6302Z" fill="#83491F"/>
<path d="M88.9999 51.3401L86.4399 51.9001L74.6499 51.6301C74.6499 51.6301 73.4099 51.2601 73.3599 51.2601L75.0299 50.0701C75.0299 50.0701 84.1099 50.0101 84.4299 50.0701C84.7499 50.1301 88.9999 51.3401 88.9999 51.3401Z" fill="#8F5729"/>
<path d="M85.23 53.7798C85.23 53.7798 83.08 56.3198 82.83 56.2298C82.58 56.1398 77.04 56.2298 77.04 56.2298L75.47 53.7798H85.23Z" fill="#8F5729"/>
<path d="M97.0701 32.6502C97.0701 32.6502 94.8301 40.1402 94.6201 40.2102C94.4101 40.2802 81.9301 40.7802 81.6201 40.7802L83.7101 33.9702L94.2001 29.2202L97.0701 32.6502Z" fill="#FFFDFD" stroke="#231F20" stroke-linejoin="round"/>
<path d="M75.3099 40.7801L68.2299 39.0301L67.0999 38.7501L65.4399 33.1201L67.2399 29.5601L74.7599 34.1601L75.3099 40.7801Z" fill="#FFFDFD" stroke="#231F20" stroke-linejoin="round"/>
<path d="M82 44.1101L95.2 45.3901L98.97 53.2401L95.71 43.8101L82.31 44.0301" fill="#6A3F26"/>
<path d="M108.27 14.1098L95.2699 13.1098L78.6699 15.5498L68.2399 12.8398L67.1099 9.57979L68.5499 6.98979L89.8599 9.42978L101.96 4.77979L108.27 14.1098Z" fill="#22201F"/>
<path d="M76.0601 27.8801C76.8304 28.3361 77.6249 28.75 78.4401 29.1201C78.2237 27.4791 77.9233 25.8503 77.5401 24.2401C77.1449 23.8877 76.7833 23.4994 76.4601 23.0801L76.0601 27.8801Z" fill="#A46A33"/>
<path d="M78.95 29.1L80.45 26.5V28.31L78.95 29.1Z" fill="#A46A33"/>
<path d="M72.68 84.9998L50.54 86.2299C49.7431 83.6824 48.7397 81.2042 47.54 78.8199L64.79 69.3398L71.46 68.3398C71.37 68.4398 67.25 72.8398 67.04 73.0398C69.31 77.5998 72.94 84.8498 72.68 84.9998Z" fill="#689DD4"/>
<path d="M51.61 76.6299L31.3 80.3299L52.1401 80.6899L51.61 76.6299Z" fill="#3A3B44"/>
<path d="M172.4 131.65L167 131L168 116.19C168.25 116.87 172.4 131.65 172.4 131.65Z" fill="#689DD4"/>
<path d="M66.2201 230.9L41.0001 201.88L40.9401 201.82L50.0001 179.25C50.0001 179.25 44.7301 146.06 44.9401 142.53L33.5901 122.41L49.9201 137.66L66.9201 131.58L52.5901 144.88L54.8901 180L53.5601 205.41L66.1901 230.85C66.1969 230.869 66.2071 230.885 66.2201 230.9Z" fill="#6767AE"/>
<path d="M96.9201 157.55L99.1401 184.38L95.86 189.18L95.58 189.21L89.4401 197.92L77.3201 198.84V133L100.61 143.88L96.9201 157.55Z" fill="#7DD1F0"/>
<path d="M102 4.83006L103 9.63007L79.6101 14.2001L67.1201 9.63007L68.5601 7.04005C69.9701 4.51005 71.9401 0.980059 72.0001 0.810059C72.0001 1.16006 79.3301 5.65005 79.3301 5.65005L83.2801 3.17006L86.5701 4.83006H102Z" fill="#22201F"/>
<path d="M98.4501 14.6301C98.4501 14.6301 102.72 12.36 102.68 12.51C102.64 12.66 100 25.7201 100 25.7201L97.8 24.79L98.4501 14.6301Z" fill="#3E383E"/>
<path d="M108.82 31.5098V39.0298L105.74 42.5298L108.82 31.5098Z" fill="#5C3412"/>
<path d="M105.74 42.5298L103.83 42.3698L108.82 31.5098L108.25 37.0198L105.74 42.5298Z" fill="#5C3412"/>
<path d="M80.4501 18.0601C80.4501 17.8701 70.1001 10.4001 70.1001 10.4001C70.1001 10.4001 71.7901 1.58011 71.9801 1.84011C72.1701 2.10011 78.4401 9.44012 78.4401 9.44012L80.4501 18.0601Z" fill="#3E383E"/>
<path d="M64 43.5L74.52 44.73C74.52 44.73 77.32 46.46 77.16 46.3L74.71 43.84L64 43.5Z" fill="#6A3F26"/>
<path d="M129.73 76.1798L114.65 86.2599L89.21 84.6599L111.38 71.3199L105.75 64.5898L113.94 67.6299L129.73 76.1798Z" fill="#689DD4"/>
<path d="M130 135.34C129.83 135.76 117.2 145.68 117.2 145.68L116.31 152.02L130 135.34Z" fill="#6767AE"/>
<path d="M129.22 142.52C129.09 142.96 118.22 155.59 118.22 155.59L117.89 161L129.22 142.52Z" fill="#6767AE"/>
<path d="M127.48 165.88L126.65 168.31L127.16 166.71L127.48 165.88Z" fill="#A02889"/>
<path d="M75.7599 137.21C76.1799 138.31 74.9099 153.13 74.9099 153.13L60.9099 154.06L63.8599 140.06L75.7599 137.21Z" fill="#7DD1F0"/>
<path d="M74.2799 165.1L73.8599 190.78L60.1099 186.95L62.4799 167.44L74.2799 165.1Z" fill="#7DD1F0"/>
<path d="M101.77 318.51L101.7 318.65C94.25 293.65 90.8299 263.57 90.8299 263.57L86.6099 295.18C86.6099 295.18 80.6099 321.06 80.5499 321.62C80.5499 321.62 77.6299 323.45 74.1899 325.62L80.5899 305.01L88.9999 254.8L81.2799 252.56L77.7899 245.91L83.5699 250L90.89 249.7C90.89 249.7 95.1499 256.7 95.6199 257.57C96.0899 258.44 100.86 313.93 101.77 318.51Z" fill="#6767AE"/>
<path d="M41.1699 459L51.4599 449.77C51.4599 449.77 60.6899 472.21 60.1399 471.63C59.5899 471.05 41.1699 459 41.1699 459Z" fill="#6767AE"/>
<path d="M189.43 216.75V217.19H174.32L192.2 186.44V186.58C192.71 189.2 189.43 216.75 189.43 216.75Z" fill="#689DD4"/>
<path d="M75 63.5098C75.13 63.3698 76.95 60.3498 76.95 60.3498L83.22 60.0698L87.12 63.5098L79.7 64.5098L75 63.5098Z" fill="#78421B"/>
<path d="M140.75 133L136.52 148.41L126.65 168.31L127.48 165.88L127.16 166.71L134.22 143.08L135.08 128.37L128.93 106.12L139.39 126.09L140.75 133Z" fill="#29272C"/>
<path d="M86.6199 382.06L83.42 402.56L65.1799 359.11L86.6199 382.06Z" fill="#6767AE"/>
<path d="M145.61 126.61C145.61 126.61 142.31 152.79 142.84 153.92C142.16 153.92 138.89 125.14 138.89 125.14L125.83 109.39L114.65 86.2598L136.52 97.8898V113.44L152 120.61L145.61 126.61Z" fill="#3A3B44"/>
<path d="M74.28 155.09V163.48L62.26 164.22L67.2 156.14L74.28 155.09Z" fill="#7DD1F0"/>
<path d="M104.45 147.45C104.45 147.45 100.69 156.24 101.14 156.69C101.59 157.14 106.41 170.99 106.41 170.99L108.02 156.69L104.45 147.45Z" fill="#6767AE"/>
<path d="M96.92 157.55L77.32 154.13L76.01 158.55L97.06 159.25L98.94 158.2L96.92 157.55Z" fill="#689DD4"/>
<path d="M100 171.74C100.32 171.64 100.42 175.62 100.42 175.62L75.8101 168.31V163.68C75.8101 163.68 99.7101 171.85 100 171.74Z" fill="#689DD4"/>
</svg>
