<svg width="162" height="516" viewBox="0 0 162 516" fill="none" xmlns="http://www.w3.org/2000/svg">
<path d="M123.65 103L116 104.75L114.41 104.68L120.22 90.0599L112.94 51.1799L107.78 66.1799L105.17 68.1799V57.1899L101.71 42.6499L99.1401 31.9999L97.8101 26.4199L76.1001 32.7399L60.0001 25.2999L56.0001 31.2399C56.0001 31.2399 56.0001 33.8699 56.0001 36.8799C55.3701 39.4099 53.7101 46.1099 53.7101 46.8199C53.7101 47.7099 54.8401 61.9999 55.2101 62.7399C55.5801 63.4799 50.6001 73.4899 50.6001 73.4899L56.2401 69.6599L60.9001 62.2799L63.5601 72.3899L68.8701 79.1299L68.3 99.8599L56.0001 104.16L55.3201 103.93L46.1501 101.15L43.3201 63.1499L47.0001 25.2999L62.0001 6.37992L80.4601 0.919922L101.84 7.91992L116.22 32.6999L119.16 53.8399L117.88 56.8999L123.57 86.4299L123.65 103Z" fill="#594422"/>
<path d="M53.67 46L49.45 61.26L48.3599 58.12L46.45 66L51.2799 102.6C51.2799 102.6 60.4799 95.49 61.1299 94.6C61.7799 93.71 59.4799 69.93 59.4799 69.93L56.8199 54.17L53.67 46Z" fill="#392317"/>
<path d="M53.36 71.64L54.36 79.7L52.55 84.22L51.26 102.55C51.26 102.55 62.48 109.7 62.79 109.55C63.1 109.4 70.79 106.34 70.94 105.94C71.09 105.54 74.94 95.2 74.82 93.6C74.7 92 74.96 78.02 74.39 77.68C73.82 77.34 67.6 71.32 67.2 71.02C66.8 70.72 63.09 62.1 63.09 62.1L59.63 60L53.36 71.64Z" fill="#392317"/>
<path d="M95.38 79.4599L95.16 82.8399L79 100.16L79.29 121.6L69.29 126.42L45.41 117.08C45.41 117.08 45.08 114.08 45.41 113.66L55.31 103.97L55.99 104.2L70.72 98.8099L68.87 79.1699L63.56 72.4299L60.9 62.3199V62.0599L59 57.4299C59 57.4299 58.71 56.4299 58.31 54.9299L61.14 58.0999C61.14 58.0999 73.96 62.1499 74.42 62.1499C74.88 62.1499 78.42 66.1499 78.42 66.1499V72.8899L71 71.4899L74.11 76.3399L78.43 77.7299V87.7299H83.55L95.38 79.4599Z" fill="#AE7136"/>
<path d="M76.1 32.72L72.33 34.2401L71.99 38.86L56.02 31.2401L60 25.3L76.1 32.72Z" fill="#C7C6C1"/>
<path d="M99.14 31.9799L83.97 38.8799L82.61 39.4999L82 34.9099L76.1 32.7199L97.81 26.3999L99.14 31.9799Z" fill="#C7C6C1"/>
<path d="M101.68 42.65L95.38 39.5C95.38 39.5 81.8 48.24 81.38 48.57C80.96 48.9 83.94 38.88 83.94 38.88L99.11 31.98L101.68 42.65Z" fill="#29272C"/>
<path d="M101.69 42.6499L95.38 39.4999C95.38 39.4999 81.81 48.2399 81.38 48.5699C80.95 48.8999 83.94 38.8799 83.94 38.8799L82.59 39.4999L77.29 47.7599L78.09 53.6199L77.89 62.7999L82.59 61.7999L101.81 55.6299L105.12 57.2099L101.69 42.6499ZM78.69 60.5399L79.95 54.9299L82.33 60.5399H78.69ZM101.69 49.8999L93.31 55.6099L82.62 50.9999C83.25 50.9999 96.19 42.1499 96.19 42.1499L101.69 46.6699V49.8999Z" fill="#5A5755"/>
<path d="M74.43 62.1801C73.97 62.1801 61.15 58.1301 61.15 58.1301L58.32 55.0001C57.4003 51.9009 56.6393 48.7568 56.04 45.5801C56.04 44.8901 56.04 40.6401 56.04 36.9601C56.04 33.9601 56.04 31.3201 56.04 31.3201L61.04 41.6101L61.23 42.2501L61.4 42.8501L57.48 47.4401L64.56 55.6801L65.21 55.3101L74.43 62.1801Z" fill="#5A5755"/>
<path d="M145.7 196.16L145.91 206.87L138.01 213.56L138.26 198.88V198.74L138.44 187.92V187.61L137.19 183.61L135.49 178.17L118.59 148.81V148.74L117.98 147.67L118.12 147.17L119.32 142.83L121.32 135.43C122.03 135.06 137.05 129.77 137.05 129.77L134.11 140.87L132.17 148.19L132.08 148.53C132.08 148.53 132.08 148.64 132.13 148.74V148.87C132.13 148.92 132.13 148.98 132.13 149.04C132.13 149.1 132.19 149.29 132.23 149.44L132.36 149.95C132.36 150.13 132.45 150.32 132.51 150.53C132.59 150.81 132.66 151.11 132.74 151.44C132.74 151.49 132.74 151.55 132.74 151.6C132.81 151.86 132.88 152.13 132.95 152.42C133.02 152.71 133.1 153.01 133.18 153.32C133.26 153.63 133.27 153.69 133.32 153.89C133.48 154.5 133.65 155.16 133.82 155.89C133.94 156.34 134.05 156.8 134.18 157.27C134.24 157.52 134.31 157.78 134.37 158.04C134.91 160.11 135.49 162.39 136.1 164.72C136.18 165.01 136.26 165.31 136.33 165.6L137.03 168.25C137.11 168.55 137.19 168.84 137.26 169.13C137.57 170.3 137.89 171.46 138.19 172.6C138.27 172.88 138.35 173.17 138.42 173.45L138.87 175.1C138.95 175.37 139.02 175.64 139.09 175.91C139.75 178.3 140.37 180.45 140.89 182.17C140.95 182.36 141 182.54 141.06 182.72C141.19 183.16 141.32 183.57 141.44 183.94C141.56 184.31 141.59 184.38 141.66 184.58L141.78 184.93C141.9 185.26 142.01 185.54 142.09 185.74C142.142 185.862 142.206 185.98 142.28 186.09C142.298 186.121 142.322 186.148 142.35 186.17C142.35 186.17 142.41 186.17 142.43 186.17C142.464 186.134 142.507 186.106 142.553 186.089C142.6 186.072 142.65 186.065 142.7 186.07C142.779 186.057 142.86 186.057 142.94 186.07L143.21 186.16H143.26L143.52 186.29C143.67 186.36 143.83 186.46 144 186.56C144.4 186.81 144.85 187.13 145.31 187.48C145.473 187.591 145.63 187.711 145.78 187.84C146.97 188.76 148.18 189.84 148.92 190.5C148.981 190.548 149.038 190.602 149.09 190.66L149.61 191.13L145.5 193.66V195.66L145.7 196.16Z" fill="#DC9159"/>
<path d="M36.75 137.24L35.43 140L26.13 159.56L26.24 175.9L26.36 194.53C25.6756 194.125 24.9714 193.755 24.25 193.42C23.84 193.25 23.52 193.15 23.48 193.27C23.36 193.57 23.43 199.2 23.48 201.2V201.39L21.69 200.27L16.83 197.27C16.83 197.27 17.39 189.11 17.83 182.27C18.13 177.63 18.39 173.56 18.39 172.93C18.39 172.6 18.7 170.67 19.17 167.86C19.9 163.62 21.02 157.34 22.09 151.44C22.24 150.62 22.38 149.81 22.53 149.01C23.88 141.59 25.03 135.32 25.03 135.32L28.45 138.97L29.12 139.69C31.4475 138.402 34.0064 137.586 36.65 137.29L36.75 137.24Z" fill="#DC9159"/>
<path d="M158.26 196.3L147.26 205.69L145.92 206.84L145.71 196.13V195.63V193.63L149.82 191.1L149.3 190.63C149.248 190.572 149.191 190.518 149.13 190.47C148.39 189.8 147.18 188.73 145.99 187.81C145.84 187.681 145.683 187.561 145.52 187.45C145.06 187.1 144.61 186.78 144.21 186.53C144.04 186.43 143.88 186.33 143.73 186.26L143.47 186.13H143.42L143.15 186.04C143.071 186.027 142.99 186.027 142.91 186.04C142.86 186.035 142.81 186.042 142.764 186.059C142.717 186.076 142.675 186.104 142.64 186.14C142.64 186.14 142.59 186.14 142.56 186.14C142.532 186.118 142.508 186.091 142.49 186.06C142.416 185.95 142.352 185.832 142.3 185.71C142.18 185.43 142.03 185.04 141.87 184.55C141.8 184.35 141.72 184.14 141.65 183.91C141.58 183.68 141.4 183.13 141.27 182.69C141.21 182.51 141.16 182.33 141.1 182.14C140.58 180.42 139.96 178.27 139.3 175.88C139.23 175.61 139.16 175.34 139.08 175.07L138.63 173.42C138.56 173.14 138.48 172.85 138.4 172.57C138.1 171.43 137.78 170.27 137.47 169.1C137.4 168.81 137.32 168.52 137.24 168.22L136.54 165.57C136.47 165.28 136.39 164.98 136.31 164.69C135.7 162.36 135.12 160.08 134.58 158.01C134.52 157.75 134.45 157.49 134.39 157.24C134.26 156.77 134.15 156.31 134.03 155.86C133.86 155.18 133.69 154.52 133.53 153.86C133.48 153.66 133.44 153.47 133.39 153.29C133.23 152.67 133.08 152.09 132.95 151.57C132.95 151.52 132.95 151.46 132.95 151.41C132.87 151.08 132.8 150.78 132.72 150.5C132.66 150.29 132.61 150.1 132.57 149.92L132.44 149.41C132.44 149.26 132.37 149.12 132.34 149.01C132.31 148.9 132.34 148.89 132.34 148.84V148.71C132.34 148.61 132.34 148.53 132.29 148.5L132.38 148.16L134.32 140.84L137.26 129.74L138.59 133.39L146.04 153.77L146.2 154.21L149.68 163.71L156.61 182.71L157.9 192.15L158.26 196.3Z" fill="#F1B280"/>
<path d="M107.75 110.08C107.75 110.08 109.2 112.16 111 115.19L71.8801 127.43L69.3201 126.43L79.3201 121.61L79.0001 100.16L95.1301 82.8501L94.6601 99.1801L114.35 104.68L115.94 104.75L107.75 110.08Z" fill="#C68650"/>
<path d="M36.5599 137.64L35.4299 140L35.8099 138.42L36.6299 137.28V137.2C36.5841 137.13 36.5562 137.05 36.5487 136.966C36.5412 136.883 36.5544 136.799 36.587 136.722C36.6196 136.645 36.6707 136.577 36.7357 136.524C36.8008 136.472 36.8778 136.436 36.9599 136.42H37.0299H37.1099H37.2599L36.64 137.29C36.64 137.29 36.64 137.29 36.64 137.36L36.4599 137.75L36.5599 137.64Z" fill="#F1B280"/>
<path d="M36.82 160.6L37.3 161.53V161.6L36.77 166.6V166.71L34.44 188.8L30.95 205.13L28.4 203.86L23.47 201.41V201.22C23.47 200.83 23.47 200.3 23.47 199.7C23.47 197.79 23.47 195.16 23.47 193.95C23.47 193.79 23.47 193.66 23.47 193.55C23.47 193.44 23.47 193.43 23.47 193.38C23.4679 193.35 23.4679 193.32 23.47 193.29C23.47 193.17 23.83 193.29 24.24 193.44L24.46 193.54L24.69 193.65L24.93 193.77C25.41 194.01 25.88 194.28 26.14 194.43L26.3 194.52H26.35L26.23 176L26.12 159.66L35.42 140.1L32.93 150.55L32.25 151.77C32.2698 151.815 32.2932 151.859 32.32 151.9L36.79 160.61C36.79 160.61 36.81 160.59 36.82 160.6Z" fill="#F1B280"/>
<path d="M76.3 51.21L73.26 46.72L61.86 42.2H61.19L61 41.56L56.04 31.27L72.01 38.89L75.31 44.4L76.3 51.21Z" fill="#5A5755"/>
<path d="M82.61 39.5L77.32 47.76L75.29 44.37L71.99 38.86L72.33 34.24L76.1 32.72L82 34.91L82.61 39.5Z" fill="#29272C"/>
<path d="M120.19 90.0599L114.38 104.68L92.63 99.1799L95.16 82.8499V82.8399L95.38 79.4599L99.05 72.9799L105.14 57.1899V68.1299L107.75 66.1399L112.91 51.1799L120.19 90.0599Z" fill="#392317"/>
<path d="M105.14 57.1901L99.05 72.9801L95.38 79.4601L83.51 87.6801H78.39V77.7301L82.35 77.1501L86.49 72.8801L90.61 68.1301L86.49 71.4901L78.39 72.8801V66.1401L82.61 61.7801L101.83 55.6101L105.14 57.1901Z" fill="#C68650"/>
<path d="M90.62 68.1299L86.49 72.8799L82.35 77.1499L78.39 77.7299L74.08 76.3399L70.96 71.4899L76.71 74.4699L80.79 74.0399L86.49 71.4899L90.62 68.1299Z" fill="#A96739"/>
<path d="M86.49 71.49L80.79 74.04L76.71 74.47L70.96 71.49L78.39 72.88L86.49 71.49Z" fill="#9E5C28"/>
<path d="M82.35 60.5399H78.71L79.96 54.9299L82.35 60.5399Z" fill="#29272C"/>
<path d="M82.61 61.7799L78.3901 66.1399C78.3901 66.1399 74.8701 62.1399 74.3901 62.1399L65.1301 55.2299C67.1301 54.0899 73.3101 50.6899 73.7201 50.6899L61.8201 42.1699L73.2101 46.6899L76.2101 51.1699L75.2101 44.3599L77.2101 47.7499L78.0001 53.6099L77.8101 62.7899L82.61 61.7799Z" fill="#C7C6C1"/>
<path d="M60.93 62.2799L56.27 69.6599L50.63 73.4899C50.63 73.4899 55.63 63.4899 55.24 62.7399C54.85 61.9899 53.74 47.7399 53.74 46.8199C53.74 46.1099 55.4 39.4099 56.03 36.8799C56.03 40.5699 56.03 44.8199 56.03 45.5099C56.6243 48.6877 57.3854 51.832 58.31 54.9299C58.71 56.3899 59 57.4299 59 57.4299L60.9 61.9999L60.93 62.2799Z" fill="#6D542F"/>
<path d="M101.68 46.6999V49.8999L93.3 55.6099L82.61 50.9999C83.25 50.9999 96.19 42.1499 96.19 42.1499L101.68 46.6999Z" fill="white" stroke="#231F20" stroke-linejoin="round"/>
<path d="M73.74 50.7C73.33 50.7 67.19 54.1001 65.15 55.2401L64.49 55.61L57.41 47.37L60.52 42.37L60.98 41.55L73.74 50.7Z" fill="white" stroke="#231F20" stroke-linejoin="round"/>
<path d="M79.6199 219L79.3799 238.36L69.6899 242.76C69.6899 242.76 69.6899 227.48 69.6899 226.76C69.6899 226.76 69.5799 226.76 69.4699 226.76L69.3099 226.84L69.1199 226.95C66.7799 228.3 58.1199 235.15 58.1199 235.15L57.8199 234.92L56.9399 218.92V215.19H57.1499C58.2299 216.46 60.3899 218.93 60.7499 218.93L79.6199 219Z" fill="#40403E"/>
<path d="M128.28 266.91L116.63 354.37L102.55 355.76L77.4 273.47C77.4 273.47 88.14 264.67 98.91 256.01L105.62 250.62C105.31 258.33 103.67 292.81 103.67 292.81C103.67 292.81 116.38 320.97 116.73 320.41C117.08 319.85 127.85 268.52 128.28 266.91Z" fill="#40403E"/>
<path d="M47.6 510.08L20 511.66C20 511.66 9.95004 512.87 9.20004 512.66L0.400024 510.49L1.16003 507.11L15.03 507.81H15.49L26.3 508.49L40.17 505.31L40.71 505.19H40.88C41.24 505.1 47.12 503.53 47.3 503.59C47.52 507.2 47.6 510.08 47.6 510.08Z" fill="#5A5755"/>
<path d="M26.23 508.38L40.21 505.36L26.34 508.54L15.53 507.86L15.07 507.84L15.04 507.82L15.33 507.84L26.23 508.38Z" fill="#001750"/>
<path d="M47.4 503.58C47.22 503.52 41.34 505.09 40.98 505.18L40.93 505.06L40.88 504.91C40.81 504.68 40.7 504.37 40.56 503.99C40.42 503.61 40.38 503.46 40.26 503.15C40.14 502.84 40.03 502.5 39.89 502.15L39.73 501.73C39.67 501.57 39.61 501.4 39.54 501.23C39.31 500.6 39.06 499.92 38.79 499.23C38.71 499.02 38.62 498.81 38.54 498.58C38.25 497.82 37.95 497.03 37.64 496.24L37.13 494.9C36.7 493.8 36.28 492.71 35.89 491.69C35.7434 491.323 35.6034 490.963 35.47 490.61C35.06 489.61 34.7 488.61 34.4 487.88C34.3661 487.774 34.326 487.671 34.28 487.57L34.14 487.19C34.07 487.03 34.02 486.88 33.97 486.76L33.83 486.42C33.72 486.11 33.65 485.95 33.65 485.95L33.78 485.17V486.17H46.26C46.34 486.15 47.22 497.36 47.4 503.58Z" fill="#C7C6C1"/>
<path d="M39.8 472.31H39.5701V471.81L39.8 472.31Z" fill="#1C387F" stroke="#9AB8C7" stroke-miterlimit="10"/>
<path d="M40.7901 505.23H40.7401L40.2101 505.35L26.3401 508.53L15.5301 507.85H15.0701L6.56006 503.61L24.9701 494.18L27.4201 495.87L28.2901 496.47L28.9201 496.9L29.7501 497.48C34.0001 500.39 39.6801 504.36 40.7901 505.23Z" fill="#C7C6C1"/>
<path d="M15.07 507.84L1.17004 507.12L6.53003 503.58H6.54004L15.07 507.84Z" fill="#29272C"/>
<path d="M136.79 500.98L119.6 495.18L119.04 485.79L119.11 486.15H131.43L136.79 500.98Z" fill="#29272C"/>
<path d="M140.19 509.28L122.11 508.93C122.11 508.93 119.63 501.38 119.63 501.06V495.43V495.18L136.83 500.98L140.19 509.28Z" fill="#C7C6C1"/>
<path d="M141.34 512.09L131.22 515.5H122.22L118 510.06L119.63 501.38V501.06C119.63 501.38 122.11 508.93 122.11 508.93L140.19 509.28L141.34 512.09Z" fill="#5A5755"/>
<path d="M41.0001 505.18H40.83L29.83 497.39L29.0001 496.81L28.3701 496.38L27.5001 495.78L25.05 494.09L33.7501 485.87C33.7501 485.87 33.8201 486.03 33.9301 486.34L34.0701 486.68C34.1201 486.8 34.1701 486.95 34.2401 487.11L34.3801 487.49C34.4261 487.591 34.4661 487.695 34.5001 487.8L39.83 501.67L39.9901 502.09L40.9901 504.79C40.9901 504.79 40.9901 505 41.0401 505.04C41.0162 505.083 41.0025 505.131 41.0001 505.18V505.18Z" fill="#29272C"/>
<path d="M55.34 103.93L45.44 113.62L42.16 116.82C42.16 116.82 42 117.56 41.75 118.76C40.69 123.67 37.93 136.26 37.36 136.26C37.17 136.26 35.22 136.86 35.22 136.86L29.13 139.61L25 135.28L23.5 122.28L27.32 128.97L37.42 116.1L47.76 107.79L42.96 101.79L46.1 100.91L55.34 103.93Z" fill="#40403E"/>
<path d="M21 254.56C21 254.56 14.35 258.64 14.24 259.13C14.13 259.62 5.32998 251.66 4.28998 250.71C3.97998 256.9 6.02997 280.12 6.02997 280.12L7.75998 281.57L17.2 278.62L24.7 269.23L21 254.56ZM7.77997 278L7.16998 262.41L9.90997 275.9L7.77997 278Z" fill="#A1A0A0"/>
<path d="M18.05 198.45L15.92 218.21L13.92 203.21L14.18 198.44C14.1759 198.393 14.1759 198.347 14.18 198.3L16.79 197.3L18.05 198.45Z" fill="#29272C"/>
<path d="M16 250.2L21 254.56C21 254.56 14.35 258.64 14.25 259.13C14.15 259.62 5.33999 251.66 4.24999 250.71C4.24164 250.235 4.29543 249.761 4.40999 249.3C4.99999 248.39 13.74 201.3 14.12 198.39L13.86 203.16L15.86 218.16L14.2 233.7L21.29 243.88L10.54 246.19L7.09999 250.19L16 250.2Z" fill="#C7C6C1"/>
<path d="M31.99 207.51L21.35 243.93L14.25 233.75L15.93 218.21L18.06 198.45L21.65 200.32L21.73 200.36L23.44 201.26L24.14 201.63L30.93 205.16L30.99 205.29L31.99 207.51Z" fill="#40403E"/>
<path d="M20.49 252.95L21.01 254.56L15.99 250.19H7.16003L10.6 246.24L21.35 243.93L20.49 252.95Z" fill="#40403E"/>
<path d="M26.58 287.53L13.5 288.5L7.77002 281.57L17.21 278.62L24.71 269.23L26.89 275.91L26.58 287.53Z" fill="#C7C6C1"/>
<path d="M107.52 172.94C107.52 172.94 99.68 190.27 99.64 190.27L99.7 190.54C98.33 188.54 98.19 184.66 97.81 184.66C97.43 184.66 91.62 182.22 88.99 181.22V181.11C89.44 179.01 89.73 177.59 89.73 177.59L92.32 178.69L96.9 167L103.53 157.72L108.41 153L116.62 145C118.7 146.51 117.92 147.58 117.92 147.58L107.52 172.94Z" fill="#40403E"/>
<path d="M105.68 209.23L84.0901 219V214.1L56.9001 215.27V219L51.1701 210.9L48.8 175.8L38.7201 163.65L37.3 161.55L32.3 151.73L32.9701 150.51L39.2101 159.3L41.2801 160.76L46.6301 164.56L55.3901 177.85L56.9401 177.04L67.6201 192.28C69.0001 188.4 70.3734 184.52 71.7401 180.64L76.7401 191.23L89.0701 181.23C91.7001 182.23 97.4501 184.67 97.8901 184.67C98.3301 184.67 98.4101 188.52 99.7801 190.55C100.15 192.86 105.68 209.23 105.68 209.23Z" fill="#40403E"/>
<path d="M108.41 153L103.53 157.72L96.9 167L92.35 178.65L89.76 177.55L71.02 169.55L56.89 177L55.34 177.81L46.57 164.52L41.23 160.72L52.48 163.61L63.74 146.17L70.53 160.85L75.67 148.6C75.67 148.6 89.87 162.02 90.23 161.86C90.59 161.7 107.87 153.3 108.41 153Z" fill="#5A5755"/>
<path d="M89.76 177.59C89.76 177.59 89.47 179.01 89.02 181.11V181.18L78.76 196.33C76.42 191.663 74.0867 186.997 71.76 182.33L66.66 196.52C63.4134 190 60.1667 183.487 56.92 176.98L71 169.63L89.76 177.59Z" fill="#A1A0A0"/>
<path d="M116.64 145.07L108.43 153.07C107.89 153.33 90.6099 161.75 90.2499 161.91C89.8899 162.07 75.6899 148.65 75.6899 148.65L90.0999 139.3C90.0999 139.3 102.73 134.93 103.35 135.41C103.77 135.72 111.83 141.58 116.64 145.07Z" fill="#A1A0A0"/>
<path d="M48.89 253L37.89 241.24L45 225.09C45.44 225.39 46 225.84 46.75 226.38L48.89 253Z" fill="#29272C"/>
<path d="M58.0699 235.2C58.0699 235.2 50.69 229.38 46.7 226.38C45.99 225.84 45.39 225.38 44.95 225.09L51.1599 210.91L56.89 219.01L58.0699 235.2Z" fill="#A1A0A0"/>
<path d="M69.6901 242.77L58.0701 235.2C59.9201 233.7 67.51 227.89 69.3 226.89L69.4601 226.81C69.5701 226.81 69.6401 226.75 69.6801 226.81C69.7201 226.87 69.6801 226.81 69.6801 226.81C69.7301 227.49 69.6901 242.77 69.6901 242.77Z" fill="#C7C6C1"/>
<path d="M110.69 224.62L106.75 225.97L84.08 233.75V219L105.68 209.23L110.69 224.62Z" fill="#A1A0A0"/>
<path d="M116.64 354.37C116.64 354.37 111.64 374.96 111.41 375.84C111.18 376.72 102.55 355.76 102.55 355.76L116.64 354.37Z" fill="#C7C6C1"/>
<path d="M78.69 305.14C78.96 303.77 64.23 356.56 64.23 356.56L59.42 362.96C59.42 362.96 61.69 353.49 61.95 352.7C62.21 351.91 76.29 301 76.29 301C76.29 301 66.92 297.56 68.58 297.82C71.1649 297.955 73.7551 297.955 76.34 297.82L81.41 296.29L98 361.4C97.5 359.77 78.43 306.5 78.69 305.14Z" fill="#29272C"/>
<path d="M124.69 353.26L128.29 266.93L116.64 354.37C116.64 354.37 111.64 374.96 111.41 375.84C111.18 376.72 102.56 355.76 102.56 355.76L81.48 286.76L77.4 273.43L77.67 273.21L78.15 272.82L79.25 271.92L80.25 271.13C82.91 268.96 87.19 265.47 91.99 261.58L93.82 260.1L98.94 255.97L106.78 225.97L102.4 227.47L84.12 233.75V236.24L79.43 238.37L69.74 242.77L58.28 235.31L58.12 235.19H58.05L57.83 235.02L57.09 234.44L56.85 234.25L56.54 234L56 233.58C54.69 232.58 52.92 231.17 51.16 229.81L49.77 228.73C48.68 227.89 47.64 227.09 46.77 226.43L48.9 253L50.9 255.13L52.83 257.19L69.7 275.19L67.55 286.52L53.47 360.6L40.53 352.6L34.53 282.71L32.14 330.53L34.79 349.58L32.42 376L34.79 385.55L33.86 472.31H39.58V415.07C39.65 414.61 41.07 411.31 43.07 406.78L43.78 405.18C43.9 404.91 44.02 404.63 44.15 404.35L45.31 401.76C46.1 399.98 46.94 398.13 47.79 396.25C48.07 395.63 48.36 395.01 48.64 394.38C52.46 385.94 56.28 377.6 57.39 375.21L57.5 374.96L57.65 374.63L57.7 374.52L62.13 393.39L47 472.31H50.77L68.24 390.53L59.42 363C59.42 363 61.69 353.53 61.95 352.74C61.95 352.67 62.12 352.15 62.36 351.28C62.45 350.99 62.54 350.66 62.64 350.28C62.85 349.55 63.09 348.67 63.37 347.67L63.81 346.08C64.05 345.24 64.3 344.34 64.56 343.39C64.82 342.44 65.1 341.39 65.39 340.39C65.78 339 66.19 337.54 66.6 336.02C70.8 320.91 76.3 301.02 76.3 301.02C76.04 300.92 66.96 297.58 68.6 297.84C71.1849 297.974 73.7751 297.974 76.36 297.84L81.43 296.31L97.95 361.31V361.42L96.39 385.75C96.39 385.75 117 477.23 118.06 478.06C118.216 478.152 118.39 478.21 118.57 478.23C120.652 478.452 122.749 478.509 124.84 478.4V478.4H125.7L116.75 418.32C116.75 418.32 127.58 382.32 127.58 381.63C127.58 380.94 130.74 385.84 130.74 385.84L130.99 478.18C131.64 478.18 132.14 478.11 132.38 478.11L132.59 476.4C132.97 463.63 131.73 384.57 132.7 384.32C133.67 384.07 124.69 353.26 124.69 353.26ZM34.74 371.19L38.26 354.37C39.26 354.8 49.03 365.12 49.03 365.12L34.74 371.19Z" fill="#5A5755"/>
<path d="M120.35 239.34C119.25 239.86 113.02 244.73 105.62 250.62L98.91 256L106.75 226L110.69 224.65L120 238.31L120.35 239.34Z" fill="#29272C"/>
<path d="M128.29 266.87C127.86 268.48 117.1 319.81 116.74 320.37C116.38 320.93 103.68 292.77 103.68 292.77C103.68 292.77 105.32 258.29 105.63 250.58C113.03 244.69 119.26 239.82 120.36 239.3L128.29 266.87Z" fill="#C7C6C1"/>
<path d="M150.19 219V249.24L146.58 256L143.15 250.14L130.93 263.14L131.35 270.65H136.09V282.44L147.17 285.21L155.35 277.67C155.35 277.67 158 246.38 158.26 245.28C158.47 244.44 159.58 218.47 161.32 205.52C161.13 205.71 156.57 212 150.19 219ZM147.19 280.53L149 273.47V261.35L152.36 275.85L147.19 280.53Z" fill="#A1A0A0"/>
<path d="M155.35 277.64L152.45 285.06L140.27 292.11L133.26 290.46L131.35 270.62H136.08V282.42L147.17 285.18L155.35 277.64Z" fill="#C7C6C1"/>
<path d="M150.19 219V249.23L146.58 256L143.15 250.14L135.15 215.05C135.15 215.05 140.31 228.59 140.52 229.22C140.58 229.47 145.12 224.58 150.19 219Z" fill="#C7C6C1"/>
<path d="M130.8 385.84L131.04 478.17C129.74 478.24 127.76 478.33 125.75 478.39L116.8 418.31C116.8 418.31 127.63 382.31 127.63 381.62C127.63 380.93 130.8 385.84 130.8 385.84Z" fill="#29272C"/>
<path d="M113.09 118.69L79.09 129.94L69.64 143.47L60.57 128.57L41.71 118.83C41.96 117.64 42.12 116.9 42.12 116.9L45.4 113.69C45.1 114.15 45.4 117.12 45.4 117.12L69.28 126.44L71.84 127.44L111 115.19L113.09 118.69Z" fill="#29272C"/>
<path d="M63.74 146.19L52.48 163.63L41.23 160.75L39.16 159.28L32.92 150.49L35.8 138.43L39.11 134.95L53.22 135.57L63.74 146.19Z" fill="#A1A0A0"/>
<path d="M84.09 219V233.74V236.23L79.39 238.36L79.63 219H60.7C60.34 219 58.18 216.53 57.1 215.26L84.1 214.1V219H84.09Z" fill="#C7C6C1"/>
<path d="M52.5 294.27C52.5 294.27 42.05 319.67 41.89 318.8C41.73 317.93 35.19 285.05 34.52 282.56V281.66L37.18 242.78L37.85 241.27L48.85 253.03L50.85 255.16L52.5 294.27Z" fill="#C7C6C1"/>
<path d="M69.69 275.22L53.46 360.63L40.51 352.63L34.51 282.74V282.57C35.18 285.06 41.71 317.98 41.88 318.81C42.05 319.64 52.49 294.28 52.49 294.28L50.88 255.16L69.69 275.22Z" fill="#40403E"/>
<path d="M49 365.12L34.71 371.19L38.23 354.37C39.29 354.8 49 365.12 49 365.12Z" fill="#C7C6C1"/>
<path d="M121.32 135.38L117.94 147.65C117.94 147.65 118.72 146.58 116.64 145.07C111.83 141.58 103.77 135.72 103.33 135.38C102.71 134.9 90.08 139.27 90.08 139.27L75.6701 148.61L70.5301 160.87L63.7501 146.2L53.2201 135.57L39.11 135L35.8 138.48L37.33 136.35C37.9 136.35 40.6601 123.76 41.7201 118.85L60.58 128.6L69.6501 143.52L79.1001 129.97L113.1 118.71C117.53 126.08 120.88 135.61 121.32 135.38Z" fill="#C7C6C1"/>
<path d="M152.34 275.85L147.17 280.54L148.97 273.47V261.35L152.34 275.85Z" fill="#40403E"/>
<path d="M9.91003 275.85L7.77002 277.95L7.16003 262.37L9.91003 275.85Z" fill="#40403E"/>
<path d="M62.1301 393.39L47.0001 472.31H39.8L39.5701 471.81V415.1C39.5701 413.95 57.6901 374.52 57.6901 374.52L62.1301 393.39Z" fill="#29272C"/>
<path d="M50.76 472.31L46.25 486.15H33.76L33.77 485.15L33.86 472.31H50.76Z" fill="#40403E"/>
<path d="M132.43 478.1L131.43 486.1H119.11L119.04 485.74L118.59 478.2C120.676 478.423 122.775 478.479 124.87 478.37C127.18 478.31 129.55 478.19 131.04 478.12C131.7 478.14 132.19 478.1 132.43 478.1Z" fill="#40403E"/>
<path d="M136.63 111.28L107.75 110.07L116.1 104.63L123.66 101.79L136.63 111.28Z" fill="#C7C6C1"/>
<path d="M137.05 129.67V129.72L136.95 129.7L125.68 127.72L107.75 110.08L136.63 111.28L137.05 129.67Z" fill="#5A5755"/>
<path d="M137.05 129.72L132.29 131.4L130.65 131.99C126.98 133.3 122.93 134.73 121.77 135.19L121.58 135.26L121.32 135.39C120.8 135.27 117.44 125.89 113.07 118.61L111 115.12C109.19 112.12 107.8 110.12 107.8 110.12L125.73 127.76L137 129.76L137.05 129.72Z" fill="#A1A0A0"/>
<path d="M44.02 107.77L31.28 108.41L42.98 101.76L44.02 107.77Z" fill="#5A5755"/>
<path d="M47.78 107.77L37.44 116.08L27.34 128.95L23.52 122.26L31.28 108.41L44.02 107.77L42.98 101.76L47.78 107.77Z" fill="#C7C6C1"/>
<path d="M82 34.9099L97.81 26.3999L76.1 32.7199L82 34.9099Z" fill="#C7C6C1"/>
<path d="M79.61 64.8801L101.83 55.6101L104.78 58.5601L105.14 57.1901L101.83 55.6101L82.61 61.7801L79.61 64.8801Z" fill="#BC7645"/>
<path d="M77.32 64.9501L61.13 58.1001L74.41 62.1501L77.32 64.9501Z" fill="#9B5023"/>
<path d="M95.3799 79.46L85.4299 88.3L83.4999 89.24L79.6899 88.3699L78.1799 87.89L83.5099 87.6799L95.3799 79.46Z" fill="#9B5023"/>
<path d="M68.9 80.2799L78.18 87.8899L68.9 79.1299V80.2799Z" fill="#9B5023"/>
<path d="M68.9 79.1299C68.9 79.2899 78.39 87.6799 78.39 87.6799H83.51L83.34 88.3799L78.18 87.8899C78.18 87.8899 70.48 81.1399 70.43 81.1599C70.38 81.1799 68.9 79.1299 68.9 79.1299Z" fill="#9B5023"/>
<path d="M76.1 32.72C76.1 32.72 71.04 24.15 70.96 23.39C70.88 22.63 80.53 5.23999 80.53 5.23999C80.53 5.23999 75.53 20.93 75.75 21.12C75.97 21.31 81.37 30.65 81.37 30.65L76.1 32.72Z" fill="#392317"/>
<path d="M101.82 7.89007C101.19 7.70007 95.3801 10.1101 95.3801 10.1101C95.3801 10.1101 88.9501 26.6301 89.2301 26.4001C89.5101 26.1701 96.5701 11.6301 96.5701 11.6301L101.82 7.89007Z" fill="#392317"/>
<path d="M46.97 25.2999L63.06 16.5399L71.99 18.9799L61.98 6.37988L46.97 25.2999Z" fill="#392317"/>
<path d="M98.91 368.62C99.43 369.54 113.82 407.5 113.82 407.5L97.59 386.37L98.91 368.62Z" fill="#C7C6C1"/>
<path d="M49.0301 371.19L36.3101 375.87L39.5701 415.1L57.6901 374.52L49.0301 371.19Z" fill="#40403E"/>
<path d="M58.2401 235.31L52.8201 257.21L69.6901 275.22L67.5401 286.55L74.8201 288.5L81.4701 286.8L77.4001 273.47L93.7901 260.14L102.55 226.76L84.08 233.75V236.24L69.6901 242.77L58.2401 235.31Z" fill="#29272C"/>
<path d="M146 154.19C141.66 152.66 135.7 150.6 132.32 149.43L129.71 148.52L130.28 147.52L134.12 140.81L138.39 133.36L145.84 153.74L146 154.19Z" fill="#5A5755"/>
<path d="M121.32 135.39L121.61 135.26L121.32 135.39Z" fill="#602852"/>
<path d="M138.38 133.37L134.11 140.82L130.27 147.52L129.7 148.52L118.61 148.8V148.73L118 147.66V147.59L118.1 147.21L119.31 142.78L121.31 135.38C122.02 135.01 137.04 129.72 137.04 129.72L138.38 133.37Z" fill="#40403E"/>
<path d="M157.69 192.1L144.08 186.17L144.16 185.84L144.58 184.07L149.47 163.69L156.4 182.69L157.69 192.1Z" fill="#40403E"/>
<path d="M147.29 205.69C147.38 206.31 147.44 206.69 147.44 206.9C147.44 208.28 137.62 215.3 137.62 215.3L138.26 198.88V198.74L138.67 188.17L138.44 187.92V187.61L137.19 183.61L135.49 178.17L118.59 148.81V148.74C121.38 148.46 129.52 147.64 130.24 147.54C130.888 147.7 131.523 147.907 132.14 148.16C135.23 149.33 141.32 151.87 145.8 153.76L145.96 154.2L149.44 163.7L144.55 184.08L144.13 185.85L144.05 186.18L144.12 186.61L144.19 187.01C144.46 188.56 145.05 192.01 145.66 195.67C146.34 199.58 147 203.67 147.29 205.69Z" fill="#C7C6C1"/>
<path d="M147.29 205.69C147.38 206.31 147.44 206.69 147.44 206.9L147.25 205.72L145.7 196.16L144.22 187L144.15 186.6L144.08 186.17L157.69 192.1L158.26 196.3L147.29 205.69Z" fill="#5A5755"/>
<path d="M149.37 183.63L144.16 185.84L143.36 186.18L138.68 188.18L138.45 187.93V187.62L137.2 183.62C138.57 183.74 140.2 183.84 141.55 183.92L144.55 184.09L149.37 183.63Z" fill="#29272C"/>
<path d="M32.9301 150.49L32.2501 151.71C32.2699 151.755 32.2933 151.799 32.3201 151.84C32.7601 152.65 35.1101 157.02 36.7901 160.55C36.7901 160.55 36.7901 160.55 36.7901 160.6L37.2601 161.6L36.7301 166.6V166.71C34.0201 169.11 28.9301 173.55 26.8701 175.33L26.2101 175.91C26.1496 175.956 26.0928 176.006 26.0401 176.06H25.9801L22.0601 151.31C22.2101 150.49 22.3501 149.68 22.5001 148.88L28.4201 138.88L28.4701 138.8L35.1401 136.86L35.4501 136.77L36.9901 136.33H37.0601H37.1401H37.2901L36.6801 137.18L36.61 137.28L35.7801 138.43L35.4001 140.02L32.9301 150.49Z" fill="#5A5755"/>
<path d="M22.08 151.4L26.0001 176.15L17.8201 182.23C18.1201 177.59 18.3801 173.52 18.3801 172.89C18.3801 172.56 18.6901 170.63 19.1601 167.82C19.8901 163.58 21 157.3 22.08 151.4Z" fill="#40403E"/>
<path d="M28.49 138.85L28.44 138.93L22.52 148.93C23.87 141.51 25.02 135.24 25.02 135.24L28.49 138.85Z" fill="#C7C6C1"/>
<path d="M36.76 166.63V166.74L34.43 188.83L30.94 205.16L31 205.29L28.39 203.89L24.16 201.63L23.46 201.25L24.25 193.47L26 176.15H26.06C26.1127 176.096 26.1695 176.045 26.23 176L26.89 175.42C28.94 173.53 34.05 169 36.76 166.63Z" fill="#29272C"/>
<path d="M26.0001 176.15L24.2401 193.47L23.4501 201.25L17.9801 198.45L16.8 197.28C16.8 197.28 17.36 189.12 17.8 182.28C18.1 177.64 18.36 173.57 18.36 172.94C18.36 172.61 18.6701 170.68 19.1401 167.87C21.5701 170.85 26.0001 176.15 26.0001 176.15Z" fill="#C7C6C1"/>
<path d="M161.43 199.25C161.698 201.324 161.665 203.426 161.33 205.49C161.13 205.71 156.57 211.98 150.2 219.01C145.13 224.58 140.59 229.47 140.5 229.19C140.29 228.56 135.13 215.02 135.13 215.02L137.24 214.19L145.91 206.87L158.26 196.3C158.26 196.3 158.01 195.95 158.8 195.13C159.59 194.31 161.43 199.25 161.43 199.25Z" fill="#29272C"/>
</svg>
