<svg width="162" height="515" viewBox="0 0 162 515" fill="none" xmlns="http://www.w3.org/2000/svg">
<path d="M123.42 102.5L115.75 104.25L114.16 104.17L120 89.5602L112.72 50.6801L107.56 65.6302L104.95 67.6302V56.6902L101.49 42.1402L98.94 31.4702L97.62 25.8902L75.91 32.2102L59.81 24.7902L55.81 30.7402V36.3802C55.19 38.9102 53.53 45.6102 53.53 46.3202C53.53 47.2102 54.66 61.4901 55.03 62.2301C55.4 62.9701 50.41 73.0002 50.41 73.0002L56.04 69.1702L60.71 61.7901L63.37 71.9001L68.67 78.6302L68.1 99.3701L55.8 103.67L55.12 103.43L46 100.64L43.17 62.6402L46.8 24.7802L61.8 5.87016L80.26 0.410156L101.63 7.41016L116 32.1702L118.93 53.3102L117.66 56.3701L123.35 85.9001L123.42 102.5Z" fill="black"/>
<path d="M53.45 45.48L49.22 60.74L48.14 57.6L46.23 65.44L51.06 102.05C51.06 102.05 60.26 94.93 60.91 94.05C61.56 93.17 59.26 69.38 59.26 69.38L56.59 53.62L53.45 45.48Z" fill="#404041"/>
<path d="M53.14 71.1402L54.14 79.2002L52.33 83.7102L51.04 102.05C51.04 102.05 62.26 109.2 62.56 109.05C62.86 108.9 70.56 105.84 70.72 105.44C70.88 105.04 74.72 94.7102 74.6 93.1002C74.48 91.4902 74.74 77.5202 74.17 77.1902C73.6 76.8602 67.38 70.8302 66.98 70.5302C66.58 70.2302 62.86 61.6102 62.86 61.6102L59.39 59.4902L53.14 71.1402Z" fill="#404041"/>
<path d="M95.15 79.0002L94.94 82.3802L78.81 99.7002L79.1 121.13L69.1 125.96L45.22 116.62C45.22 116.62 44.9 113.62 45.22 113.19L55.13 103.49L55.81 103.73L70.54 98.3402L68.68 78.6902L63.38 71.9602L60.72 61.8502V61.5802L58.81 57.0002L58.11 54.4902L60.95 57.6702C60.95 57.6702 73.76 61.7202 74.23 61.7202C74.7 61.7202 78.23 65.7202 78.23 65.7202V72.4602L70.74 71.0002L73.85 75.8502L78.17 77.2402V87.1802H83.29L95.15 79.0002Z" fill="#9E5929"/>
<path d="M75.8801 32.21L72.11 33.73L71.7701 38.36L55.8 30.74L59.7801 24.79L75.8801 32.21Z" fill="#6767AE"/>
<path d="M98.92 31.4701L83.75 38.3801L82.39 38.9901L81.78 34.4101L75.88 32.2101L97.59 25.8901L98.92 31.4701Z" fill="#6767AE"/>
<path d="M101.46 42.14L95.15 39C95.15 39 81.58 47.75 81.15 48.08C80.72 48.41 83.72 38.39 83.72 38.39L98.88 31.48L101.46 42.14Z" fill="#689DD4"/>
<path d="M101.46 42.1499L95.1501 38.9999C95.1501 38.9999 81.5801 47.7399 81.1501 48.0699C80.7201 48.3999 83.7101 38.3799 83.7101 38.3799L82.36 38.9999L77.0601 47.2599L77.86 53.1199L77.6601 62.2999L82.36 61.2999L101.58 55.1299L104.89 56.7099L101.46 42.1499ZM78.4601 60.0399L79.7201 54.4299L82.1001 60.0399H78.4601ZM101.46 49.3999L93.08 55.1099L82.3901 50.5299C83.0201 50.5299 95.9601 41.6799 95.9601 41.6799L101.46 46.1999V49.3999Z" fill="#7DD1F0"/>
<path d="M74.2101 61.6701C73.7501 61.6701 60.9301 57.6701 60.9301 57.6701L58.1001 54.5001C57.1755 51.4022 56.4144 48.2579 55.8201 45.0801C55.8201 44.3901 55.8201 40.1301 55.8201 36.4501C55.8201 33.4501 55.8201 30.8101 55.8201 30.8101L60.8201 41.1001L61.0101 41.7501L61.1801 42.3401L57.2501 46.9401L64.33 55.1801L64.9901 54.8101L74.2101 61.6701Z" fill="#689DD4"/>
<path d="M145.47 195.66L145.68 206.37L137.78 213.06L138.03 198.38V198.24L138.21 187.42V187.11L136.96 183.11L135.26 177.67L118.36 148.31V148.24L117.75 147.17L117.89 146.67L119.09 142.33L121.09 134.93C121.8 134.56 136.82 129.27 136.82 129.27L133.88 140.37L131.94 147.69L131.85 148.03C131.85 148.03 131.85 148.14 131.9 148.24V148.37C131.9 148.37 131.9 148.48 131.9 148.54L132 148.94L132.13 149.45C132.13 149.63 132.22 149.82 132.28 150.03C132.36 150.31 132.43 150.61 132.51 150.94C132.51 150.99 132.51 151.05 132.51 151.1C132.58 151.36 132.65 151.63 132.72 151.92C132.79 152.21 132.87 152.51 132.95 152.82C133.03 153.13 133.04 153.19 133.09 153.39C133.25 154 133.42 154.66 133.59 155.34C133.71 155.79 133.82 156.25 133.95 156.72C134.01 156.97 134.08 157.23 134.14 157.49C134.68 159.56 135.26 161.84 135.87 164.17C135.95 164.46 136.03 164.76 136.1 165.05L136.8 167.7C136.88 168 136.96 168.29 137.03 168.58C137.34 169.75 137.66 170.91 137.96 172.05C138.04 172.33 138.12 172.62 138.19 172.9L138.64 174.55C138.72 174.82 138.79 175.09 138.86 175.36C139.52 177.75 140.14 179.9 140.66 181.62C140.72 181.81 140.77 181.99 140.83 182.17C140.96 182.61 141.09 183.02 141.21 183.39C141.33 183.76 141.36 183.83 141.43 184.03L141.55 184.38C141.67 184.71 141.78 184.99 141.86 185.19C141.912 185.312 141.976 185.43 142.05 185.54C142.068 185.571 142.092 185.598 142.12 185.62C142.12 185.62 142.18 185.62 142.2 185.62C142.235 185.584 142.277 185.556 142.324 185.539C142.37 185.522 142.42 185.515 142.47 185.52C142.549 185.507 142.631 185.507 142.71 185.52L142.98 185.61H143.03L143.29 185.74C143.44 185.81 143.6 185.91 143.77 186.01C144.17 186.26 144.62 186.58 145.08 186.93C145.243 187.041 145.4 187.161 145.55 187.29C146.74 188.21 147.95 189.29 148.69 189.95C148.751 189.998 148.808 190.052 148.86 190.11L149.38 190.58L145.27 193.11V195.11L145.47 195.66Z" fill="#DC9159"/>
<path d="M36.52 136.74L35.2 139.51L25.9 159.07L26.01 175.41L26.13 194.04C25.4377 193.658 24.7268 193.311 24 193C23.59 192.83 23.27 192.73 23.23 192.85C23.11 193.15 23.18 198.78 23.23 200.78V200.97L21.44 199.85L16.58 196.85C16.58 196.85 17.14 188.69 17.58 181.85C17.88 177.21 18.14 173.14 18.14 172.51C18.14 172.18 18.45 170.25 18.92 167.44C19.65 163.2 20.77 156.92 21.84 151.02C21.99 150.2 22.13 149.39 22.28 148.59C23.63 141.17 24.78 134.9 24.78 134.9L28.2 138.55L28.87 139.27C31.1975 137.982 33.7564 137.166 36.4 136.87L36.52 136.74Z" fill="#DC9159"/>
<path d="M158 195.8L147 205.19L145.66 206.34L145.45 195.63V195.13V193.13L149.56 190.6L149.04 190.13C148.988 190.072 148.931 190.018 148.87 189.97C148.13 189.3 146.92 188.23 145.73 187.31C145.58 187.181 145.423 187.061 145.26 186.95C144.8 186.6 144.35 186.28 143.95 186.03C143.78 185.93 143.62 185.83 143.47 185.76L143.21 185.63H143.16L142.89 185.54C142.811 185.527 142.73 185.527 142.65 185.54C142.6 185.535 142.55 185.542 142.504 185.559C142.457 185.576 142.415 185.604 142.38 185.64C142.38 185.64 142.33 185.64 142.3 185.64C142.272 185.618 142.248 185.591 142.23 185.56C142.156 185.45 142.092 185.332 142.04 185.21C141.92 184.93 141.77 184.54 141.61 184.05C141.54 183.85 141.46 183.64 141.39 183.41C141.32 183.18 141.14 182.63 141.01 182.19C140.95 182.01 140.9 181.83 140.84 181.64C140.32 179.92 139.7 177.77 139.04 175.38C138.97 175.11 138.9 174.84 138.82 174.57L138.37 172.92C138.3 172.64 138.22 172.35 138.14 172.07C137.84 170.93 137.52 169.77 137.21 168.6C137.14 168.31 137.06 168.02 136.98 167.72L136.28 165.07C136.21 164.78 136.13 164.48 136.05 164.19C135.44 161.86 134.86 159.58 134.32 157.51C134.26 157.25 134.19 156.99 134.13 156.74C134 156.27 133.89 155.81 133.77 155.36C133.6 154.68 133.43 154.02 133.27 153.41C133.27 153.21 133.18 153.02 133.13 152.84C132.97 152.22 132.82 151.64 132.69 151.12C132.69 151.07 132.69 151.01 132.69 150.96C132.61 150.63 132.54 150.33 132.46 150.05C132.4 149.84 132.35 149.65 132.31 149.47L132.18 148.96L132.08 148.56C132.08 148.5 132.08 148.44 132.08 148.39V148.26C132.08 148.16 132.08 148.08 132.03 148.05L132.12 147.71L134.06 140.39L137 129.29L138.33 132.94L145.78 153.32L145.94 153.76L149.42 163.26L156.35 182.26L157.64 191.7L158 195.8Z" fill="#F1B280"/>
<path d="M107.53 109.57C107.53 109.57 108.98 111.66 110.78 114.69L71.66 126.92L69.09 125.92L79.09 121.09L78.8 99.6599L94.93 82.3398L94.46 98.6698L114.15 104.17L115.74 104.25L107.53 109.57Z" fill="#A6662F"/>
<path d="M36.3299 137.14L35.2 139.51L35.5799 137.93L36.3999 136.79L36.45 136.71C36.4041 136.64 36.3762 136.56 36.3687 136.477C36.3613 136.393 36.3744 136.309 36.407 136.232C36.4396 136.155 36.4907 136.087 36.5557 136.035C36.6208 135.982 36.6978 135.946 36.7799 135.93H36.8499H36.9299H37.0799L36.4599 136.8C36.4599 136.8 36.4599 136.8 36.4599 136.87L36.2799 137.26L36.3299 137.14Z" fill="#F1B280"/>
<path d="M36.59 160.1L37.07 161.03V161.1L36.54 166.1V166.21L34.21 188.3L30.72 204.63L28.17 203.36L23.24 200.91V200.72C23.24 200.33 23.24 199.8 23.24 199.2C23.24 197.29 23.24 194.66 23.24 193.45C23.24 193.29 23.24 193.16 23.24 193.05C23.24 192.94 23.24 192.93 23.24 192.88C23.2379 192.85 23.2379 192.82 23.24 192.79C23.24 192.67 23.6 192.79 24.01 192.94L24.23 193.04L24.46 193.15L24.7 193.27C25.18 193.51 25.65 193.78 25.91 193.93L26.07 194.02H26.12L26 175.45L25.89 159.11L35.19 139.55L32.7 150L32.02 151.22C32.0398 151.265 32.0632 151.308 32.09 151.35L36.56 160.06C36.56 160.06 36.58 160.09 36.59 160.1Z" fill="#F1B280"/>
<path d="M76.08 50.6998L73.0401 46.2198L61.6401 41.6998H60.9701L60.7801 41.0498L55.8201 30.7598L71.7901 38.3798L75.0901 43.8898L76.08 50.6998Z" fill="#689DD4"/>
<path d="M82.39 38.99L77.09 47.25L75.06 43.8699L71.77 38.36L72.11 33.7299L75.88 32.21L81.78 34.41L82.39 38.99Z" fill="#8193CA"/>
<path d="M119.97 89.5602L114.16 104.17L92.41 98.6802L94.94 82.3402L95.15 78.9602L98.83 72.4802L104.92 56.6902V67.6302L107.53 65.6302L112.69 50.6802L119.97 89.5602Z" fill="#404041"/>
<path d="M104.92 56.6901L98.83 72.4801L95.15 78.9601L83.29 87.1701H78.17V77.2301L82.13 76.6501L86.26 72.3701L90.39 67.6301L86.26 70.9901L78.17 72.3701V65.6301L82.39 61.2801L101.61 55.1001L104.92 56.6901Z" fill="#A6662F"/>
<path d="M90.39 67.6299L86.27 72.3699L82.13 76.6499L78.17 77.2299L73.85 75.8399L70.74 70.9899L76.49 73.9699L80.56 73.5399L86.27 70.9899L90.39 67.6299Z" fill="#A96739"/>
<path d="M86.27 70.9902L80.56 73.5402L76.49 73.9702L70.74 70.9902L78.17 72.3702L86.27 70.9902Z" fill="#9E5C28"/>
<path d="M82.13 60.0299H78.49L79.74 54.4199L82.13 60.0299Z" fill="#8193CA"/>
<path d="M82.39 61.2802L78.17 65.6302C78.17 65.6302 74.64 61.6302 74.17 61.6302L64.91 54.7202C66.91 53.5802 73.09 50.1801 73.5 50.1801L61.6 41.6602L73 46.1902L76 50.6801L75 43.8701L77 47.2502L77.8 53.1102L77.61 62.3002L82.39 61.2802Z" fill="#7DD1F0"/>
<path d="M60.71 61.7801L56 69.1601L50.41 73.0001C50.41 73.0001 55.41 63.0001 55.02 62.2401C54.63 61.4801 53.52 47.2401 53.52 46.3301C53.52 45.6201 55.18 38.9201 55.8 36.3901C55.8 40.0701 55.8 44.3201 55.8 45.0201C55.8 45.8801 57.19 51.2001 58.07 54.4301L58.77 56.9401L60.68 61.5201L60.71 61.7801Z" fill="#50493F"/>
<path d="M101.46 46.1902V49.4002L93.08 55.1002L82.39 50.5202C83.03 50.5202 95.96 41.6802 95.96 41.6802L101.46 46.1902Z" fill="white" stroke="#231F20" stroke-linejoin="round"/>
<path d="M73.5199 50.1998C73.1099 50.1998 66.9699 53.5998 64.9299 54.7398L64.2699 55.0998L57.1899 46.8598L60.2999 41.8598L60.7599 41.0498L73.5199 50.1998Z" fill="white" stroke="#231F20" stroke-linejoin="round"/>
<path d="M128.06 266.41L116.41 353.86L102.33 355.26L77.1799 273C77.1799 273 87.9199 264.2 98.6899 255.54C100.96 253.71 103.23 251.88 105.4 250.15C105.09 257.86 103.45 292.33 103.45 292.33C103.45 292.33 116.15 320.5 116.51 319.93C116.87 319.36 127.63 268 128.06 266.41Z" fill="#3A3B44"/>
<path d="M47.3799 509.58L19.7799 511.15C19.7799 511.15 9.77993 512.36 8.98993 512.15C8.19993 511.94 0.189941 509.98 0.189941 509.98L0.949951 506.59L14.8099 507.3H15.2599L26.0799 507.99L39.9999 504.86L40.5399 504.74H40.7C41.06 504.64 46.9299 503.08 47.1099 503.13C47.2999 506.7 47.3799 509.58 47.3799 509.58Z" fill="#3A3B44"/>
<path d="M26.0101 507.88L39.9901 504.86L26.1201 508.04L15.3101 507.35L14.8501 507.33H14.8401L14.8101 507.32L15.11 507.33L26.0101 507.88Z" fill="#001750"/>
<path d="M47.17 503.07C46.99 503.02 41.12 504.58 40.76 504.68V504.55L40.71 504.41L40.39 503.49C40.31 503.24 40.2 502.96 40.09 502.65C39.98 502.34 39.85 502 39.71 501.65L39.56 501.24C39.5 501.08 39.44 500.9 39.37 500.73C39.14 500.1 38.89 499.43 38.61 498.73C38.53 498.51 38.45 498.3 38.36 498.08C38.07 497.32 37.78 496.53 37.47 495.73C37.29 495.29 37.13 494.85 36.96 494.4C36.53 493.3 36.11 492.21 35.72 491.19L35.3 490.11C34.89 489.06 34.53 488.11 34.23 487.38C34.196 487.275 34.156 487.171 34.11 487.07L33.96 486.69C33.9 486.53 33.85 486.38 33.8 486.26L33.66 485.91C33.55 485.61 33.48 485.44 33.48 485.44L33.61 484.66V485.66H46C46.12 485.64 47 496.85 47.17 503.07Z" fill="#7DD1F0"/>
<path d="M39.58 471.8H39.35V471.3L39.58 471.8Z" fill="#1C387F" stroke="#9AB8C7" stroke-miterlimit="10"/>
<path d="M40.57 504.73H40.52L39.99 504.86L26.12 508L15.3 507.31H14.85L6.34998 503.06L24.76 493.64L27.2 495.32L28.08 495.92L28.71 496.36L29.54 496.94C33.74 499.89 39.46 503.86 40.57 504.73Z" fill="#7DD1F0"/>
<path d="M14.8499 507.33L0.949951 506.61L6.30994 503.07L14.8499 507.33Z" fill="#4B5680"/>
<path d="M136.57 500.47L119.37 494.68L118.82 485.28L118.88 485.64H131.21L136.57 500.47Z" fill="#689DD4"/>
<path d="M140 508.77L121.93 508.43C121.93 508.43 119.45 500.88 119.45 500.56V494.93V494.68L136.65 500.47L140 508.77Z" fill="#7DD1F0"/>
<path d="M141.12 511.59L131 515H122L117.76 509.56L119.39 500.89V500.57C119.39 500.89 121.87 508.44 121.87 508.44L139.94 508.78L141.12 511.59Z" fill="#3A3B44"/>
<path d="M40.7601 504.68H40.6001L29.6001 496.9L28.7701 496.32L28.1401 495.88L27.2601 495.28L24.8201 493.6L33.5201 485.37C33.5201 485.37 33.5901 485.54 33.7001 485.84L33.8401 486.19C33.8901 486.31 33.9401 486.46 34.0001 486.62L34.1501 487C34.1961 487.101 34.2361 487.205 34.2701 487.31L39.6001 501.18L39.7501 501.59L40.8 504.3C40.8 504.3 40.8 504.5 40.8 504.55C40.8 504.6 40.7501 504.64 40.7601 504.68Z" fill="#4B5680"/>
<path d="M55.11 103.42L45.2101 113.12L41.9301 116.33L41.5101 118.26C40.4601 123.18 37.7001 135.77 37.1301 135.77C36.9301 135.77 34.9801 136.37 34.9801 136.37L28.9001 139.12L24.8101 134.75L23.3201 121.75L27.1401 128.44L37.2401 115.58L47.58 107.27L42.7701 101.27L45.9201 100.39L55.11 103.42Z" fill="#3A3B44"/>
<path d="M20.79 254.06C20.79 254.06 14.14 258.14 14.03 258.63C13.92 259.12 5.12002 251.16 4.08002 250.21C3.77002 256.4 5.82004 279.62 5.82004 279.62L7.55002 281.07L16.99 278.12L24.49 268.73L20.79 254.06ZM7.55002 277.45L6.94003 261.86L9.68002 275.35L7.55002 277.45Z" fill="#7DD1F0"/>
<path d="M17.8299 198L15.7 217.76L13.7 202.76L13.95 197.99C13.9471 197.943 13.9471 197.897 13.95 197.85L16.5599 196.85L17.8299 198Z" fill="#8193CA"/>
<path d="M15.76 249.69L20.76 254.06C20.76 254.06 14.11 258.14 14 258.62C13.89 259.1 5.08999 251.16 4.04999 250.21C4.04123 249.732 4.09503 249.254 4.21 248.79C4.8 247.88 13.54 200.79 13.91 197.89L13.66 202.66L15.66 217.66L14 233.25L21.09 243.43L10.34 245.74L6.91001 249.69H15.76Z" fill="#689DD4"/>
<path d="M31.76 207.01L21.12 243.43L14.03 233.25L15.7 217.71L17.83 197.95L21.43 199.82L21.5 199.86L23.22 200.76L23.92 201.13L30.7 204.66L30.76 204.79L31.76 207.01Z" fill="#3A3B44"/>
<path d="M20.2699 252.44L20.7899 254.06L15.7599 249.69H6.93994L10.3699 245.74L21.1199 243.43L20.2699 252.44Z" fill="#8193CA"/>
<path d="M26.36 287.03L13.2801 288L7.55005 281.06L16.9901 278.12L24.4901 268.73L26.6701 275.4L26.36 287.03Z" fill="#689DD4"/>
<path d="M107.3 172.43C107.3 172.43 99.46 189.76 99.42 189.76L99.48 190.03C98.11 188.03 97.97 184.16 97.59 184.16C97.21 184.16 91.4 181.72 88.77 180.71C88.7747 180.673 88.7747 180.636 88.77 180.6C89.23 178.5 89.51 177.08 89.51 177.08L92.1 178.18L96.66 166.54L103.29 157.26L108.17 152.53L116.39 144.53C118.46 146.03 117.69 147.1 117.69 147.1L107.3 172.43Z" fill="#689DD4"/>
<path d="M105.46 208.73L83.86 218.5V213.61L56.68 214.77V218.5L50.94 210.4L48.59 175.3L38.5 163.15L37.08 161L32.08 151.18L32.75 149.95L38.98 158.74L41.06 160.21L46.4 164L55.16 177.3L56.72 176.48L67.4 191.72C68.78 187.84 70.1533 183.964 71.52 180.09L76.52 190.68L88.85 180.68C91.48 181.68 97.23 184.13 97.67 184.13C98.11 184.13 98.19 187.98 99.56 190C99.92 192.35 105.46 208.73 105.46 208.73Z" fill="#689DD4"/>
<path d="M108.19 152.53L103.31 157.26L96.68 166.54L92.13 178.18L89.54 177.08L70.79 169.13L56.67 176.51L55.12 177.33L46.35 164L41 160.24L52.25 163.13L63.51 145.69L70.3 160.37L75.44 148.11C75.44 148.11 89.64 161.54 90 161.38C90.36 161.22 107.65 152.8 108.19 152.53Z" fill="#3A3B44"/>
<path d="M89.5299 177.08C89.5299 177.08 89.2499 178.5 88.7899 180.6V180.71C85.3699 185.757 81.9466 190.81 78.5199 195.87C76.1866 191.203 73.8533 186.537 71.5199 181.87L66.4299 196.05C63.1833 189.543 59.9366 183.03 56.6899 176.51L70.8199 169.13L89.5299 177.08Z" fill="#7DD1F0"/>
<path d="M116.42 144.57L108.2 152.57C107.66 152.84 90.38 161.26 90.02 161.42C89.66 161.58 75.46 148.15 75.46 148.15L89.86 138.8C89.86 138.8 102.49 134.44 103.12 134.92L116.42 144.57Z" fill="#7DD1F0"/>
<path d="M48.67 252.52L37.67 240.76L44.74 224.59C45.18 224.89 45.74 225.34 46.49 225.87L48.67 252.52Z" fill="#7DD1F0"/>
<path d="M57.85 234.7C57.85 234.7 50.47 228.88 46.48 225.87C45.77 225.34 45.17 224.87 44.73 224.59L50.93 210.4L56.67 218.5L57.85 234.7Z" fill="#3A3B44"/>
<path d="M69.47 242.26L57.85 234.7C59.7 233.2 67.28 227.39 69.08 226.39L69.24 226.31C69.3027 226.271 69.3764 226.254 69.45 226.26C69.51 227 69.47 242.26 69.47 242.26Z" fill="#7DD1F0"/>
<path d="M110.46 224.12L106.53 225.47L83.86 233.25V218.5L105.46 208.73L110.46 224.12Z" fill="#3A3B44"/>
<path d="M116.41 353.86C116.41 353.86 111.41 374.46 111.18 375.34C110.95 376.22 102.33 355.26 102.33 355.26L116.41 353.86Z" fill="#4B5680"/>
<path d="M78.4699 304.64C78.7299 303.26 64.0099 356.05 64.0099 356.05L59.1899 362.46C59.1899 362.46 61.4699 352.99 61.7199 352.19C61.9699 351.39 76.0699 300.49 76.0699 300.49C76.0699 300.49 66.6999 297.05 68.3599 297.3C70.9447 297.439 73.5351 297.439 76.1199 297.3L81.1899 295.77L97.7499 360.89C97.2799 359.27 78.2099 306 78.4699 304.64Z" fill="#4B5680"/>
<path d="M124.46 352.76L128.06 266.43L116.41 353.87C116.41 353.87 111.41 374.46 111.18 375.34C110.95 376.22 102.33 355.26 102.33 355.26L81.25 286.26L77.17 273L77.44 272.78L77.92 272.39L79.02 271.49L80.02 270.7C82.68 268.53 86.96 265.04 91.76 261.15L93.59 259.67L98.71 255.54L106.55 225.54L102.17 227.04L83.89 233.32V235.81L79.2 237.94L69.51 242.34L58 234.81L57.84 234.69H57.77L57.55 234.52L56.81 233.94L56.57 233.75L56.26 233.5L55.72 233.08C54.41 232.08 52.64 230.67 50.88 229.31L49.49 228.23C48.4 227.39 47.36 226.59 46.49 225.93L48.68 252.57L50.68 254.7L52.61 256.76L69.48 274.76L67.33 286.09L53.25 360.17L40.31 352.17L34.31 282.28L31.92 330.1L34.57 349.15L32.2 375.55L34.57 385.1L33.64 471.86H39.36V414.57C39.43 414.11 40.85 410.81 42.85 406.28L43.56 404.68C43.68 404.41 43.8 404.13 43.93 403.85L45.09 401.26C45.88 399.48 46.72 397.63 47.57 395.75C47.85 395.13 48.14 394.51 48.42 393.88C52.24 385.44 56.06 377.1 57.17 374.71L57.28 374.46L57.43 374.13L57.48 374.02L61.91 392.89L46.77 471.81H50.54L68 390L59.19 362.43C59.19 362.43 61.46 352.96 61.72 352.17C61.72 352.1 61.89 351.58 62.13 350.71C62.22 350.42 62.31 350.09 62.41 349.71C62.62 348.98 62.86 348.1 63.14 347.1L63.58 345.51C63.82 344.67 64.07 343.77 64.33 342.82C64.59 341.87 64.87 340.82 65.16 339.82C65.55 338.43 65.96 336.97 66.37 335.45C70.57 320.34 76.07 300.45 76.07 300.45C75.81 300.35 66.73 297.01 68.37 297.27C70.9549 297.405 73.5451 297.405 76.13 297.27L81.2 295.74L97.72 360.74V360.85L96.16 385.18C96.16 385.18 116.77 476.66 117.83 477.49C117.986 477.582 118.16 477.64 118.34 477.66C120.422 477.882 122.519 477.939 124.61 477.83H125.47L116.52 417.75C116.52 417.75 127.35 381.75 127.35 381.06C127.35 380.37 130.51 385.27 130.51 385.27L130.76 477.61C131.41 477.61 131.91 477.54 132.15 477.54L132.36 475.83C132.74 463.06 131.5 384 132.47 383.75C133.44 383.5 124.46 352.76 124.46 352.76ZM34.51 370.69L38 353.87C39 354.3 48.77 364.62 48.77 364.62L34.51 370.69Z" fill="#8193CA"/>
<path d="M120.13 238.84C119.03 239.35 112.8 244.22 105.4 250.12C103.23 251.85 100.96 253.68 98.6899 255.51L106.53 225.51L110.47 224.16L119.73 237.85L120.13 238.84Z" fill="#7DD1F0"/>
<path d="M128.07 266.37C127.64 267.98 116.87 319.31 116.52 319.86C116.17 320.41 103.46 292.26 103.46 292.26C103.46 292.26 105.1 257.79 105.41 250.08C112.81 244.18 119.04 239.31 120.14 238.8L128.07 266.37Z" fill="#689DD4"/>
<path d="M150 218.5V248.74L146.39 255.47L142.96 249.61L130.74 262.61L131.16 270.12H135.9V281.91L146.98 284.68L155.16 277.14C155.16 277.14 157.81 245.85 158.07 244.75C158.28 243.91 159.39 217.94 161.13 204.99C160.9 205.21 156.34 211.48 150 218.5ZM147 280.03L148.81 272.97V260.85L152.17 275.35L147 280.03Z" fill="#7DD1F0"/>
<path d="M155.13 277.13L152.23 284.55L140.04 291.6L133.04 289.96L131.12 270.12H135.86V281.91L146.95 284.67L155.13 277.13Z" fill="#689DD4"/>
<path d="M150 218.5V248.74L146.39 255.46L142.97 249.61L134.97 214.51C134.97 214.51 140.13 228.06 140.34 228.69C140.36 229 144.9 224.08 150 218.5Z" fill="#3A3B44"/>
<path d="M130.58 385.33L130.82 477.66C129.52 477.73 127.54 477.83 125.53 477.89L116.58 417.81C116.58 417.81 127.41 381.81 127.41 381.12C127.41 380.43 130.58 385.33 130.58 385.33Z" fill="#4B5680"/>
<path d="M112.86 118.19L78.86 129.44L69.43 143L60.36 128.1L41.49 118.37L41.91 116.43L45.19 113.23C44.89 113.68 45.19 116.65 45.19 116.65L69.07 125.98L71.63 126.98L110.76 114.73L112.86 118.19Z" fill="#7DD1F0"/>
<path d="M63.5199 145.69L52.2599 163.13L41.0099 160.24L38.9399 158.77L32.7 149.98L35.5799 137.93V137.92L38.8799 134.45L52.9999 135.07L63.5199 145.69Z" fill="#7DD1F0"/>
<path d="M83.86 218.5V233.25V235.73L79.17 237.86L79.4 218.5H60.48C60.12 218.5 57.96 216.04 56.88 214.76L83.88 213.61V218.5H83.86Z" fill="#7DD1F0"/>
<path d="M52.2801 293.76C52.2801 293.76 41.8301 319.16 41.6701 318.3C41.5101 317.44 34.97 284.55 34.3 282.06V281.17L37.0001 242.26L37.6601 240.76L48.6601 252.52L50.6601 254.65L52.2801 293.76Z" fill="#689DD4"/>
<path d="M69.47 274.72L53.23 360.13L40.29 352.13L34.29 282.24V282.07C34.96 284.56 41.48 317.47 41.66 318.31C41.84 319.15 52.27 293.77 52.27 293.77L50.66 254.66L69.47 274.72Z" fill="#3A3B44"/>
<path d="M48.8 364.61L34.51 370.68L38 353.86C39.06 354.29 48.8 364.61 48.8 364.61Z" fill="#4B5680"/>
<path d="M121.1 134.88L117.72 147.14C117.72 147.14 118.49 146.07 116.42 144.57L103.11 134.88C102.48 134.4 89.85 138.76 89.85 138.76L75.45 148.11L70.3 160.37L63.52 145.69L53 135.07L38.89 134.45L35.58 137.92L37.11 135.8C37.68 135.8 40.44 123.21 41.49 118.29L60.36 128L69.43 143L78.88 129.46L112.88 118.2C117.31 125.58 120.66 135.11 121.1 134.88Z" fill="#689DD4"/>
<path d="M152.12 275.34L146.95 280.03L148.75 272.97V260.85L152.12 275.34Z" fill="#3A3B44"/>
<path d="M9.68994 275.34L7.54993 277.44L6.93994 261.86L9.68994 275.34Z" fill="#3A3B44"/>
<path d="M61.9 392.89L46.76 471.8H39.58L39.35 471.3V414.6C39.35 413.45 57.47 374.01 57.47 374.01L61.9 392.89Z" fill="#4B5680"/>
<path d="M50.54 471.8L46.03 485.64H33.54L33.55 484.64L33.64 471.8H50.54Z" fill="#3A3B44"/>
<path d="M132.21 477.59L131.21 485.59H118.89L118.82 485.23L118.37 477.7C120.456 477.918 122.556 477.971 124.65 477.86C126.95 477.86 129.33 477.69 130.82 477.61L132.21 477.59Z" fill="#3A3B44"/>
<path d="M136.41 110.78L107.53 109.57L115.88 104.12L123.44 101.29L136.41 110.78Z" fill="#7DD1F0"/>
<path d="M136.82 129.17V129.22L136.72 129.2L125.45 127.22L107.53 109.57L136.41 110.78L136.82 129.17Z" fill="#689DD4"/>
<path d="M136.82 129.22L132.07 130.9L130.42 131.48C126.75 132.79 122.71 134.23 121.55 134.69L121.36 134.76L121.1 134.88C120.58 134.76 117.21 125.39 112.84 118.11L110.75 114.62C108.94 111.62 107.56 109.57 107.56 109.57L125.48 127.22L136.75 129.22H136.82Z" fill="#3A3B44"/>
<path d="M43.8 107.27L31.0601 107.91L42.7501 101.25L43.8 107.27Z" fill="#7DD1F0"/>
<path d="M47.5601 107.27L37.2201 115.58L27.1201 128.44L23.3 121.75L31.0601 107.91L43.8 107.27L42.7501 101.25L47.5601 107.27Z" fill="#689DD4"/>
<path d="M81.78 34.4101L97.59 25.8901L75.88 32.2101L81.78 34.4101Z" fill="#6767AE"/>
<path d="M79.39 64.3801L101.61 55.1001L104.56 58.0601L104.92 56.6901L101.61 55.1001L82.39 61.2801L79.39 64.3801Z" fill="#BC7645"/>
<path d="M77.09 64.4501L60.91 57.6001L74.19 61.6501L77.09 64.4501Z" fill="#9B5023"/>
<path d="M95.15 78.96L85.21 87.8L83.27 88.74L79.47 87.86L77.96 87.39L83.29 87.17L95.15 78.96Z" fill="#9B5023"/>
<path d="M68.6799 79.7701L77.9599 87.3901L68.6799 78.6201V79.7701Z" fill="#9B5023"/>
<path d="M68.67 78.6201C68.67 78.7901 78.17 87.1701 78.17 87.1701H83.29L83.12 87.8701L77.96 87.3901C77.96 87.3901 70.26 80.6401 70.2 80.6501C70.14 80.6601 68.67 78.6201 68.67 78.6201Z" fill="#9B5023"/>
<path d="M75.88 32.21C75.88 32.21 70.82 23.64 70.74 22.89C70.66 22.14 80.31 4.72998 80.31 4.72998C80.31 4.72998 75.31 20.43 75.52 20.62C75.73 20.81 81.15 30.15 81.15 30.15L75.88 32.21Z" fill="#282A2A"/>
<path d="M101.59 7.38021C100.97 7.20021 95.15 9.61021 95.15 9.61021C95.15 9.61021 88.73 26.1202 89.01 25.8902C89.29 25.6602 96.35 11.1302 96.35 11.1302L101.59 7.38021Z" fill="#282A2A"/>
<path d="M46.75 24.7899L62.84 16.0299L71.77 18.4699L61.76 5.87988L46.75 24.7899Z" fill="#282A2A"/>
<path d="M98.69 368.11C99.21 369.03 113.59 406.99 113.59 406.99L97.37 385.87L98.69 368.11Z" fill="#4B5680"/>
<path d="M48.8 370.68L36.08 375.37L39.35 414.6L57.47 374.01L48.8 370.68Z" fill="#3A3B44"/>
<path d="M58.02 234.81L52.6 256.71L69.47 274.72L67.32 286.04L74.6 288L81.25 286.3L77.18 272.97L93.57 259.64L102.33 226.26L83.86 233.25V235.74L69.47 242.26L58.02 234.81Z" fill="#689DD4"/>
<path d="M145.76 153.69C141.42 152.16 135.46 150.1 132.08 148.93L129.47 148.02L130.04 147.02L133.88 140.31L138.15 132.86L145.6 153.24L145.76 153.69Z" fill="#3A3B44"/>
<path d="M121.1 134.88L121.39 134.76L121.1 134.88Z" fill="#602852"/>
<path d="M138.15 132.87L133.88 140.32L130 147L129.43 148L118.34 148.28V148.21L117.73 147.14V147.07L117.83 146.69L119.04 142.26L121.04 134.86C121.75 134.49 136.77 129.2 136.77 129.2L138.15 132.87Z" fill="#4B5680"/>
<path d="M157.46 191.6L143.85 185.67L143.93 185.34L144.35 183.57L149.24 163.19L156.17 182.19L157.46 191.6Z" fill="#689DD4"/>
<path d="M147.06 205.19C147.15 205.81 147.21 206.19 147.21 206.4C147.21 207.78 137.39 214.8 137.39 214.8L138.03 198.38V198.24L138.44 187.67L138.21 187.42V187.11L136.96 183.11L135.26 177.67L118.36 148.31V148.24C121.15 147.96 129.29 147.14 130.01 147.04H130C130.648 147.2 131.283 147.407 131.9 147.66C134.99 148.83 141.08 151.37 145.56 153.26L145.72 153.7L149.2 163.2L144.31 183.58L143.89 185.35L143.81 185.68L143.88 186.11L143.95 186.51C144.22 188.06 144.81 191.51 145.42 195.17C146.11 199.08 146.78 203.17 147.06 205.19Z" fill="#7DD1F0"/>
<path d="M147.06 205.19C147.15 205.81 147.21 206.19 147.21 206.4L147.02 205.22L145.47 195.66L144 186.5L143.93 186.1L143.86 185.67L157.47 191.6L158.04 195.8L147.06 205.19Z" fill="#3A3B44"/>
<path d="M149.14 183.13L143.93 185.34L143.13 185.68L138.45 187.68L138.22 187.43V187.12L136.97 183.12C138.34 183.24 139.97 183.34 141.32 183.42L144.32 183.59L149.14 183.13Z" fill="#3A3B44"/>
<path d="M32.7 150L32.02 151.22C32.0398 151.265 32.0632 151.308 32.09 151.35C32.53 152.16 34.88 156.53 36.56 160.06C36.56 160.06 36.56 160.06 36.56 160.11L37.03 161.11L36.5 166.11V166.22C33.79 168.62 28.7 173.06 26.64 174.84L25.98 175.42C25.9195 175.465 25.8627 175.516 25.81 175.57H25.75L21.83 150.82C21.98 150 22.12 149.19 22.27 148.39L28.19 138.39L28.24 138.31L34.91 136.37L35.22 136.28L36.76 135.84H36.83H36.91H37.06L36.45 136.69L36.38 136.79L35.55 137.94L35.17 139.53L32.7 150Z" fill="#4B5680"/>
<path d="M21.85 150.9L25.77 175.65L17.59 181.73C17.89 177.09 18.15 173.02 18.15 172.39C18.15 172.06 18.46 170.13 18.93 167.32C19.66 163.08 20.78 156.8 21.85 150.9Z" fill="#689DD4"/>
<path d="M28.26 138.35L28.21 138.43L22.29 148.43C23.64 141.01 24.79 134.74 24.79 134.74L28.26 138.35Z" fill="#44193C"/>
<path d="M36.53 166.13V166.24L34.2 188.33L30.71 204.66L30.77 204.79L28.16 203.39L23.93 201.13L23.23 200.75L24 193L25.76 175.68H25.82C25.8727 175.626 25.9295 175.575 25.99 175.53V175.53L26.65 174.95C28.71 173 33.82 168.49 36.53 166.13Z" fill="#689DD4"/>
<path d="M25.7701 175.65L24.0001 193L23.2101 200.78L17.7401 197.98L16.5601 196.81C16.5601 196.81 17.1201 188.65 17.5601 181.81C17.8601 177.17 18.1201 173.1 18.1201 172.47C18.1201 172.14 18.4301 170.21 18.9001 167.4C21.3401 170.35 25.7701 175.65 25.7701 175.65Z" fill="#7DD1F0"/>
<path d="M161.2 198.75C161.475 200.82 161.441 202.92 161.1 204.98V204.98C160.9 205.2 156.34 211.47 149.96 218.49C144.9 224.07 140.36 228.96 140.27 228.68C140.06 228.05 134.9 214.5 134.9 214.5L137.01 213.68L145.68 206.36L158 195.8C158 195.8 157.74 195.45 158.54 194.63C159.34 193.81 161.2 198.75 161.2 198.75Z" fill="#689DD4"/>
</svg>
