<svg width="169" height="516" viewBox="0 0 169 516" fill="none" xmlns="http://www.w3.org/2000/svg">
<path d="M36.4501 142.05C35.7772 141.521 35.2449 140.834 34.9001 140.05C34.6543 139.125 34.7612 138.141 35.2001 137.29C35.9351 135.748 37.0935 134.448 38.5401 133.54C39.9875 132.65 41.5575 131.976 43.2001 131.54C46.3814 130.541 49.7329 130.201 53.0501 130.54C54.221 130.653 55.3587 130.993 56.4001 131.54C57.5508 132.274 58.4638 133.326 59.0283 134.568C59.5928 135.811 59.7844 137.191 59.5801 138.54C59.1053 141.251 57.6094 143.678 55.4001 145.32" fill="#689DD4"/>
<path d="M117.75 141.66C117.355 142.973 116.602 144.15 115.576 145.06C114.55 145.969 113.291 146.575 111.94 146.81C111.134 146.97 110.297 146.872 109.55 146.53C108.53 145.806 107.8 144.743 107.49 143.53C106.155 140.414 105.234 137.136 104.75 133.78C104.518 132.493 104.704 131.165 105.28 129.99C105.74 129.305 106.378 128.757 107.124 128.405C107.871 128.053 108.699 127.909 109.52 127.99C111.176 128.213 112.732 128.911 114 130C116.422 131.805 118.298 134.245 119.42 137.05C119.7 137.73 120.07 138.55 120.8 138.59" fill="#689DD4"/>
<path d="M106.13 164.11C108.97 161.121 111.332 157.711 113.13 154C113.566 153.187 113.857 152.303 113.99 151.39C114.058 150.932 114.022 150.465 113.883 150.023C113.745 149.581 113.508 149.177 113.19 148.84C112.643 148.364 111.962 148.07 111.24 148C109.89 147.862 108.526 148.015 107.24 148.45C104.886 149.165 102.709 150.368 100.851 151.981C98.9928 153.595 97.4961 155.581 96.458 157.812C95.42 160.043 94.8641 162.468 94.8265 164.928C94.7889 167.388 95.2706 169.829 96.24 172.09C96.3836 172.513 96.6435 172.888 96.99 173.17C97.3315 173.328 97.7062 173.402 98.0822 173.384C98.4583 173.367 98.8245 173.259 99.15 173.07C106.01 170.07 103.76 171.07 105.5 168.87" fill="#4B5680"/>
<path d="M126.78 98.5401L113.43 104.68L111.84 104.6L120 90.5001L112.72 51.6201L107.56 66.6201L104.95 68.6201V57.6301L101.49 43.0901L98.95 32.4201L97.6199 26.8401L75.9099 33.1601L59.8099 25.7401L55.8099 31.6801C55.8099 31.6801 55.8099 34.3101 55.8099 37.3201C55.1799 39.8501 53.5199 46.5501 53.5199 47.2601C53.5199 48.1501 54.6499 62.4401 55.0199 63.1801C55.3899 63.9201 50.4099 73.9301 50.4099 73.9301L56.0499 70.1001L59.8499 63.5101L62.3399 72.8301L66.5799 80.1401V100.39L55.7799 104.6L55.0999 104.37L43.9999 100.6L40.6799 62.6001L46.6799 25.7501L61.6799 5.1001L80.14 0.100098L103.62 7.1001L118.05 33.1001L120.99 54.2401L117.56 57.3001L125.64 86.0901L126.78 98.5401Z" fill="#F9DE2B"/>
<path d="M53.4601 46.4199L46.8101 60.6799L45.7201 57.5399L43.8101 65.3899L51.0701 102.99C51.0701 102.99 60.2701 95.8799 60.9201 94.9899C61.5701 94.0999 59.2701 70.3199 59.2701 70.3199L56.61 54.5599L53.4601 46.4199Z" fill="#97712D"/>
<path d="M53.1501 72.0799L54.1501 80.1399L52.3401 84.6599L51.0701 103C51.0701 103 62.2901 110.15 62.5901 110C62.8901 109.85 70.5901 106.79 70.7501 106.39C70.9101 105.99 74.7501 95.6499 74.6301 94.0499C74.5101 92.4499 74.7701 78.4699 74.2001 78.1299C73.6301 77.7899 67.4101 71.7699 67.0101 71.4699C66.6101 71.1699 62.9001 62.5499 62.9001 62.5499L59.4201 60.4399L53.1501 72.0799Z" fill="#97712D"/>
<path d="M96.5801 79.9999L96.3601 83.3799L78.8201 100.6L79.1101 122.04L69.1101 126.86L45.2201 117.52C45.2201 117.52 44.9001 114.52 45.2201 114.1L55.1301 104.41L55.8101 104.64L66.6101 100.43V80.1799L62.3701 72.8699L59.8801 63.5499V63.2799L58.8301 57.9099C58.8301 57.9099 58.5401 56.9099 58.1401 55.4099L60.9701 58.5799C60.9701 58.5799 73.7801 62.6299 74.2501 62.6299C74.7201 62.6299 78.2501 66.6299 78.2501 66.6299V73.3699L70.8201 71.9799L73.9301 76.8299L78.2501 78.2199V88.2199H83.3701L96.5801 79.9999Z" fill="#DE9159"/>
<path d="M75.8901 33.16L72.1201 34.68L71.7801 39.3L55.8101 31.68L59.7901 25.74L75.8901 33.16Z" fill="#6767AE"/>
<path d="M98.9301 32.4101L83.7601 39.3201L82.4001 39.9401L81.7901 35.3501L75.8901 33.1601L97.6001 26.8401L98.9301 32.4101Z" fill="#6767AE"/>
<path d="M101.47 43.0899L95.17 39.9399C95.17 39.9399 81.59 48.6799 81.17 49.0099C80.75 49.3399 83.73 39.3199 83.73 39.3199L98.8999 32.4199L101.47 43.0899Z" fill="#689DD4"/>
<path d="M101.47 43.0901L95.1701 39.9401C95.1701 39.9401 81.5901 48.6801 81.1701 49.0101C80.7501 49.3401 83.7301 39.3201 83.7301 39.3201L82.3701 39.9401L77.0801 48.2001L77.8701 54.0601L77.6801 63.2401L82.3701 62.2401L101.59 56.0701L104.9 57.6501L101.47 43.0901ZM78.5001 61.0001L79.7501 55.3901L82.1401 61.0001H78.5001ZM101.5 50.3601L93.1201 56.0701L82.4301 51.4901C83.0701 51.4901 96.0001 42.6401 96.0001 42.6401L101.5 47.1601V50.3601Z" fill="#7DD1F0"/>
<path d="M74.2201 62.61C73.7601 62.61 60.9401 58.61 60.9401 58.61L58.1101 55.43C57.1903 52.3308 56.4293 49.1867 55.8301 46.01C55.8301 45.32 55.8301 41.07 55.8301 37.39C55.8301 34.39 55.8301 31.75 55.8301 31.75L60.8301 42.04L61.0201 42.68L61.1901 43.28L57.2701 47.87L64.3401 56.11L65.0001 55.74L74.2201 62.61Z" fill="#689DD4"/>
<path d="M149.34 194.14L149.6 207.31L139.78 215.72L140.84 188.58L132.92 179.89L121.65 151.71L123.37 135.82C124.07 135.45 143.51 126.92 143.51 126.92L131.86 148.92C131.86 148.92 145.43 187.52 146.25 186.57C147.07 185.62 153.45 191.57 153.45 191.57L149.34 194.14Z" fill="#DC9159"/>
<path d="M24.1501 163.27L25.9401 198.63C25.9401 198.63 23.3801 193.4 23.2501 193.76C23.1201 194.12 23.2501 200.08 23.2501 201.88L13.6201 197.69C13.6201 197.69 15.7001 175.41 15.7001 173.84C15.7001 172.27 19.5201 135.39 19.5201 135.39L27.3601 139.71C27.3601 139.71 31.1701 138.55 34.0601 137.71L24.1501 163.27Z" fill="#DC9159"/>
<path d="M163.26 195.34L148.13 208L147.88 194.83L151.99 192.3C151.99 192.3 145.6 186.3 144.78 187.3C143.96 188.3 130.39 149.65 130.39 149.65L143.61 126.93L162.72 182.19L163.26 195.34Z" fill="#F1B280"/>
<path d="M108.27 110.93C109.038 112.543 109.889 114.115 110.82 115.64L71.7001 127.9L69.1401 126.9L79.1401 122.07L78.8501 100.64L96.3901 83.3799L97.1701 99.4399L111.87 104.64L113.46 104.71L108.27 110.93Z" fill="#F1B380"/>
<path d="M36.27 167L34.2 189.26L33.03 207.26L23.23 201.83C23.23 200.03 23.13 194.02 23.23 193.71C23.33 193.4 25.92 198.58 25.92 198.58L24.13 163.22L34 137.69C34.6998 137.457 35.4148 137.274 36.14 137.14L34.62 139.26L31.62 150.92L30.94 152.14L36.27 167Z" fill="#F1B280"/>
<path d="M76.0901 51.6499L73.0501 47.16L61.6501 42.64H60.9801L60.7901 42L55.8301 31.71L71.8001 39.33L75.1001 44.84L76.0901 51.6499Z" fill="#689DD4"/>
<path d="M82.4 39.9399L77.11 48.1999L75.08 44.8099L71.78 39.2999L72.12 34.6799L75.89 33.1599L81.79 35.3499L82.4 39.9399Z" fill="#8193CA"/>
<path d="M119.98 90.5001L111.84 104.6L97.1399 99.4001L96.3599 83.3401V83.3301L96.5799 79.9501L99.9199 73.4201L104.93 57.6301V68.5701L107.54 66.5801L112.7 51.6201L119.98 90.5001Z" fill="#97712D"/>
<path d="M104.93 57.6301L99.92 73.42L96.5799 79.95L83.2999 88.12H78.1799V78.17L82.14 77.59L86.2699 73.3201L90.3999 68.5701L86.2699 71.93L78.1799 73.3201V66.58L82.3999 62.22L101.62 56.05L104.93 57.6301Z" fill="#F1B380"/>
<path d="M90.4 68.5701L86.28 73.3201L82.14 77.5901L78.18 78.1701L73.87 76.7801L70.75 71.9301L76.5 74.9101L80.57 74.4801L86.28 71.9301L90.4 68.5701Z" fill="#A96739"/>
<path d="M86.28 71.9299L80.57 74.4799L76.5 74.9099L70.75 71.9299L78.18 73.3199L86.28 71.9299Z" fill="#9E5C28"/>
<path d="M82.14 60.9801H78.5L79.75 55.3701L82.14 60.9801Z" fill="#8193CA"/>
<path d="M82.3999 62.2201L78.1799 66.5801C78.1799 66.5801 74.6599 62.5801 74.1799 62.5801L64.9199 55.6701C66.9199 54.5301 73.0999 51.1301 73.5099 51.1301L61.6099 42.6101L72.9999 47.1401L75.9999 51.6201L74.9999 44.8101L76.9999 48.2001L77.7899 54.0601L77.5999 63.2401L82.3999 62.2201Z" fill="#7DD1F0"/>
<path d="M59.8599 63.5101L56.0599 70.1001L50.4199 73.9301C50.4199 73.9301 55.4199 63.9301 55.0299 63.1801C54.6399 62.4301 53.5299 48.1801 53.5299 47.2601C53.5299 46.5501 55.1899 39.8501 55.8199 37.3201C55.8199 41.0001 55.8199 45.2601 55.8199 45.9501C56.4143 49.1279 57.1753 52.2722 58.0999 55.3701C58.4999 56.8301 58.7899 57.8701 58.7899 57.8701L59.8399 63.2401L59.8599 63.5101Z" fill="#DAA733"/>
<path d="M101.47 47.1401V50.3401L93.0899 56.0501L82.3999 51.4701C83.0399 51.4701 95.9699 42.6201 95.9699 42.6201L101.47 47.1401Z" fill="white" stroke="#231F20" stroke-linejoin="round"/>
<path d="M73.5299 51.14C73.1199 51.14 66.9799 54.54 64.9399 55.68L64.2799 56.05L57.2 47.81L60.3099 42.81L60.7699 41.99L73.5299 51.14Z" fill="white" stroke="#231F20" stroke-linejoin="round"/>
<path d="M79.4 219.45L79.17 238.81L69.48 243.21C69.48 243.21 69.48 227.93 69.48 227.21C69.48 227.21 69.37 227.21 69.26 227.21L69.1 227.29L68.91 227.4C66.57 228.75 57.91 235.6 57.91 235.6C57.8143 235.518 57.7141 235.441 57.61 235.37L56.73 219.37V215.64H56.94C58.02 216.91 60.18 219.38 60.54 219.38L79.4 219.45Z" fill="#4B5680"/>
<path d="M132.71 262.82L116.42 354.82L102.34 356.21L77.1899 273.92C77.1899 273.92 87.93 265.12 98.7 256.46L105.41 251.07C105.1 258.78 103.41 293.26 103.41 293.26C103.41 293.26 116.11 321.42 116.47 320.86C116.83 320.3 132.28 264.43 132.71 262.82Z" fill="#3A3B44"/>
<path d="M47.39 510.52L19.7899 512.1C19.7899 512.1 9.78995 513.31 8.99995 513.1L0.199951 510.93L0.959961 507.55L14.82 508.25H15.28L26.09 508.93L40 505.8L40.5399 505.68H40.71C41.07 505.59 46.9499 504.02 47.1199 504.07C47.3099 507.64 47.39 510.52 47.39 510.52Z" fill="#3A3B44"/>
<path d="M26.0201 508.82L40.0001 505.8L26.1301 508.98L15.3201 508.3L14.8601 508.27L14.8201 508.26L15.1201 508.27L26.0201 508.82Z" fill="#001750"/>
<path d="M47.18 504C47.01 504 41.13 505.52 40.77 505.61V505.48L40.72 505.34C40.64 505.11 40.54 504.8 40.4 504.42C40.26 504.04 40.22 503.89 40.1 503.58C39.98 503.27 39.86 502.93 39.72 502.58L39.57 502.16C39.51 502 39.45 501.83 39.38 501.66C39.15 501.02 38.9 500.35 38.62 499.66C38.55 499.45 38.46 499.23 38.37 499.01C38.09 498.25 37.79 497.46 37.48 496.67L36.97 495.33C36.54 494.23 36.12 493.14 35.73 492.12C35.5833 491.753 35.4433 491.393 35.31 491.04C34.9 490.04 34.54 489.04 34.24 488.31C34.2061 488.205 34.166 488.101 34.12 488L33.97 487.62C33.91 487.46 33.86 487.31 33.81 487.19L33.67 486.85C33.56 486.54 33.49 486.38 33.49 486.38L33.62 485.6V486.6L48.67 486.38C48.7 486.37 47 497.8 47.18 504Z" fill="#7DD1F0"/>
<path d="M39.5901 472.75H39.3601V472.25L39.5901 472.75Z" fill="#1C387F" stroke="#9BB8C8" stroke-miterlimit="10"/>
<path d="M40.5801 505.67H40.5301L40.0001 505.79L26.1301 509L15.3201 508.32H14.8601L6.36011 504.07L24.7701 494.65L27.2101 496.34L28.0901 496.94L28.7201 497.37L29.5501 497.95C33.7501 500.83 39.4701 504.8 40.5801 505.67Z" fill="#7DD1F0"/>
<path d="M14.86 508.27L0.959961 507.56L6.31996 504.01L14.86 508.27Z" fill="#4B5680"/>
<path d="M136.58 501.42L118.75 495.48L117.75 486.41L117.82 486.77L132.22 486.59L136.58 501.42Z" fill="#689DD4"/>
<path d="M141.29 509.72L119.81 509C119.81 509 117.33 501.45 117.33 501.13L118.79 495.75V495.5L136.62 501.44L141.29 509.72Z" fill="#7DD1F0"/>
<path d="M142.45 512.53L131 515.94H122L115.67 510.11L117.3 501.43V501.11C117.3 501.43 119.78 508.98 119.78 508.98L141.26 509.72L142.45 512.53Z" fill="#3A3B44"/>
<path d="M40.7701 505.62H40.6001L29.6001 497.83L28.7701 497.25L28.1401 496.82L27.2601 496.22L24.8201 494.53L33.5201 486.31C33.5201 486.31 33.5901 486.47 33.7001 486.78L33.8401 487.12C33.8901 487.24 33.9401 487.39 34.0001 487.55L34.1501 487.93C34.1961 488.031 34.2361 488.134 34.2701 488.24L39.6001 502.11L39.7501 502.53L40.8001 505.23C40.8001 505.28 40.8001 505.44 40.8001 505.48C40.7796 505.524 40.7694 505.572 40.7701 505.62V505.62Z" fill="#4B5680"/>
<path d="M55.13 104.37L45.23 114.06L40.95 117.06L40.53 118.99C39.48 123.91 36.78 137.06 36.21 137.06C35.4849 137.194 34.7698 137.378 34.07 137.61C31.18 138.47 27.37 139.61 27.37 139.61L19.53 135.29L16 121L25.63 129L37.28 116.52L47.62 108.21L38 98.8601L44 100.6L55.13 104.37Z" fill="#3A3B44"/>
<path d="M20.8001 255C20.8001 255 14.1501 259.08 14.0401 259.57C13.9301 260.06 5.14011 252.1 4.09011 251.15C3.79011 257.34 4.25011 281.41 4.25011 281.41L5.99012 282.85L16.9901 279.06L25.5701 269.72L20.8001 255ZM6.00011 279.23L7.00011 262.8L9.75011 276.29L6.00011 279.23Z" fill="#7DD1F0"/>
<path d="M17.8399 198.89L15.7099 218.65L13.7099 203.65L9.70993 197.81C9.70704 197.763 9.70704 197.717 9.70993 197.67L13.5999 197.74L17.8399 198.89Z" fill="#8193CA"/>
<path d="M15.7799 250.63L20.7799 255C20.7799 255 14.1299 259.08 14.0199 259.57C13.9099 260.06 5.11993 252.1 4.06993 251.15C4.06159 250.675 4.11537 250.201 4.22992 249.74C4.81992 248.82 9.29992 200.69 9.66992 197.74L13.6699 203.58L15.6699 218.58L13.9999 234.19L21.0999 244.37L10.3499 246.68L6.99993 250.63H15.7799Z" fill="#689DD4"/>
<path d="M35.22 210.39L21.14 244.37L14.04 234.19L17.84 198.89L33.03 207.31L35.22 210.39Z" fill="#3A3B44"/>
<path d="M20.28 253.39L20.8 255L15.78 250.63H6.94995L10.39 246.68L21.14 244.37L20.28 253.39Z" fill="#8193CA"/>
<path d="M21.14 287.13L13.29 288.94L5.98999 282.85L17 279.06L25.57 269.72L25.72 276.08L21.14 287.13Z" fill="#689DD4"/>
<path d="M113.33 171.79C113.33 171.79 107.98 189.11 107.94 189.11C107.965 189.202 107.985 189.296 108 189.39C106.63 187.39 98 185.1 97.6 185.1C97.2 185.1 91.41 182.66 88.78 181.66C88.7847 181.623 88.7847 181.586 88.78 181.55C89.24 179.45 89.53 178.03 89.53 178.03L92.12 179.13L99.9 167.13L106.53 157.85L111.4 153.13L116.4 143.92C118.47 145.43 121.62 151.73 121.62 151.73L113.33 171.79Z" fill="#689DD4"/>
<path d="M111.42 153.12L103.32 158.2L99.9201 167.12L92.1401 179.12L89.55 178.02L70.81 170.02L56.68 177.41L55.1301 178.22L46.36 165L41.05 165.35H55.1401L65.65 145L70.3201 161.29L75 147.39C75 147.39 92.9401 162.12 93.2901 161.96C93.6401 161.8 110.89 153.38 111.42 153.12Z" fill="#3A3B44"/>
<path d="M89.5499 178C89.5499 178 89.2599 179.42 88.7999 181.52C88.8046 181.557 88.8046 181.594 88.7999 181.63C87.5799 187.78 86.62 195.07 83.89 198.86C82.89 200.24 79.7699 203.75 70.6499 204.09L58.0899 198.86L56.7 177.43L70.8299 170.04L89.5499 178Z" fill="#7DD1F0"/>
<path d="M116.43 143.9L111.43 153.11C110.9 153.37 93.6199 161.79 93.2599 161.95C92.8999 162.11 74.95 147.38 74.95 147.38L86.7499 133C86.7499 133 104.38 132.57 105 133.05C105.44 133.39 111.62 140.41 116.43 143.9Z" fill="#7DD1F0"/>
<path d="M48.6799 253.46L32.9299 240.2L39.2399 223.57C39.6699 223.88 41.0499 225.52 41.7599 226.06L48.6799 253.46Z" fill="#7DD1F0"/>
<path d="M57.86 235.64C57.86 235.64 45.75 229.07 41.76 226.06C41.05 225.52 39.67 223.88 39.24 223.57L45.5 211.5L56.68 219.45L57.86 235.64Z" fill="#3A3B44"/>
<path d="M69.4799 243.21L57.8599 235.64C59.7099 234.14 67.2999 228.33 69.0899 227.33L69.2499 227.25C69.3599 227.25 69.4299 227.19 69.4699 227.25C69.5099 227.31 69.4699 227.25 69.4699 227.25C69.5199 227.93 69.4799 243.21 69.4799 243.21Z" fill="#7DD1F0"/>
<path d="M117.14 223.81L106.54 226.41L83.8701 234.19V219.44L112.26 209.28L117.14 223.81Z" fill="#3A3B44"/>
<path d="M116.42 354.81C116.42 354.81 111.42 375.4 111.2 376.28C110.98 377.16 102.34 356.2 102.34 356.2L116.42 354.81Z" fill="#4B5680"/>
<path d="M78.48 305.58C78.75 304.21 69.48 353.81 69.48 353.81L64 362.44C64 362.44 66.93 350.75 67.19 349.95C67.45 349.15 76.07 301.43 76.07 301.43C76.07 301.43 66.7 297.99 68.36 298.25C70.9449 298.385 73.5351 298.385 76.12 298.25L81.19 296.72L93.58 361C93.11 359.41 78.22 306.94 78.48 305.58Z" fill="#4B5680"/>
<path d="M125.77 354.81L132.77 262.81L116.48 354.81C116.48 354.81 111.48 375.4 111.25 376.28C111.02 377.16 102.4 356.2 102.4 356.2L77.25 273.91C77.25 273.91 87.99 265.11 98.76 256.45L106.6 226.45L83.93 234.23V236.72L79.23 238.85L69.54 243.25L58 235.75L57.53 235.41C56.12 234.29 45.24 228.71 41.73 226.06L48.65 253.46L50.65 255.59L69.45 275.66L53.22 361.07L40.27 353.07L27.74 283L24 326.54L30.23 348.94L28.07 376.31L32.9 386.36L33.67 472.75H39.38V415.54C39.38 414.39 57.5 374.96 57.5 374.96L65.88 393.83L46.79 472.75L52.63 472.5L73.43 391.81L64 362.44C64 362.44 66.92 350.75 67.18 349.95C67.44 349.15 76.06 301.43 76.06 301.43C76.06 301.43 66.69 297.99 68.35 298.25C70.9383 298.385 73.5317 298.385 76.12 298.25L81.19 296.72L93.58 361L91.3 386.71C91.3 386.71 115.3 477.85 116.3 478.71C116.457 478.801 116.63 478.858 116.81 478.88C119.413 478.997 122.02 478.977 124.62 478.82H125.5L116.5 418.74C116.5 418.74 127.33 382.74 127.33 382.05C127.33 381.36 132.57 385.47 132.57 385.47L130.74 478.6C131.4 478.6 131.9 478.53 132.13 478.53L132.34 476.82C132.72 464.05 137.12 384.15 138.09 383.9C139.06 383.65 125.77 354.81 125.77 354.81ZM34.52 371.63L38 354.81C39 355.24 48.78 365.56 48.78 365.56L34.52 371.63Z" fill="#8193CA"/>
<path d="M124.35 239.32C117.695 242.653 111.355 246.582 105.41 251.06L98.7 256.45L106.54 226.45L117.14 223.85L124 238.29L124.35 239.32Z" fill="#7DD1F0"/>
<path d="M132.72 262.79C132.29 264.4 116.88 320.26 116.53 320.79C116.18 321.32 103.47 293.19 103.47 293.19C103.47 293.19 105.11 258.71 105.47 251C111.415 246.522 117.755 242.593 124.41 239.26L132.72 262.79Z" fill="#689DD4"/>
<path d="M167.67 204.1C167.47 204.32 160.26 212.42 153.89 219.45V249.68L150.28 256.41L144.8 249.26L134.26 264.76L133.34 271.06H139.78V282.85L150.87 285.62L162 279C162 279 161.74 246.84 162 245.74C162.16 244.85 165.92 217.05 167.67 204.1ZM150.87 281L152.67 273.94V261.79L156.04 276.29L150.87 281Z" fill="#7DD1F0"/>
<path d="M161.95 278.95L159.06 286.37L144.74 293.86L136.24 290.45L133.34 271.06H139.78V282.85L150.87 285.62L161.95 278.95Z" fill="#689DD4"/>
<path d="M153.89 219.45V249.68L150.28 256.41L144.8 249.26L137.67 216.54C137.67 216.54 144 229 144.19 229.63C144.28 229.91 148.82 225 153.89 219.45Z" fill="#3A3B44"/>
<path d="M168.55 197.57C168.55 197.57 168.21 200.14 167.68 204.09C167.48 204.31 160.27 212.41 153.9 219.44C148.83 225.01 144.29 229.9 144.2 229.62C143.99 228.99 137.68 216.53 137.68 216.53L139.79 215.71L149.61 207.3L164.74 194.62L165.93 193.44L168.55 197.57Z" fill="#689DD4"/>
<path d="M132.66 385.48L130.83 478.61C129.53 478.68 127.55 478.77 125.54 478.83L116.54 418.75C116.54 418.75 127.37 382.75 127.37 382.06C127.37 381.37 132.66 385.48 132.66 385.48Z" fill="#4B5680"/>
<path d="M112.9 119.14L78.9 130.38L69.45 143.9L60.37 129L40.5 119.1L40.92 117.17L45.2 114.17C44.9 114.63 45.2 117.59 45.2 117.59L69.08 126.92L71.64 127.92L110.76 115.67L112.9 119.14Z" fill="#7DD1F0"/>
<path d="M65.6501 145.02L55.1401 165.33H41.0501L38.9701 163.87L31.6001 150.93L34.6601 139.27V139.26L37.9601 135.78L55.1301 134.4L65.6501 145.02Z" fill="#7DD1F0"/>
<path d="M83.8701 219.45V234.19V236.68L79.1701 238.81L79.4001 219.45H60.4901C60.1301 219.45 57.9701 216.98 56.8901 215.71L83.8901 214.55V219.45H83.8701Z" fill="#7DD1F0"/>
<path d="M52.29 294.7C52.29 294.7 41.84 320.11 41.68 319.24C41.52 318.37 28.4 285.32 27.74 282.83V281.94L32.24 241.72L32.9 240.22L48.65 253.48L50.65 255.61L52.29 294.7Z" fill="#689DD4"/>
<path d="M69.48 275.66L53.25 361.07L40.3 353.07L27.74 283V282.83C28.4 285.32 41.51 318.41 41.68 319.24C41.85 320.07 52.29 294.7 52.29 294.7L50.68 255.59L69.48 275.66Z" fill="#3A3B44"/>
<path d="M48.81 365.56L34.52 371.63L38 354.81C39.07 355.24 48.81 365.56 48.81 365.56Z" fill="#4B5680"/>
<path d="M123.49 135.69L121.65 151.69C121.65 151.69 117.8 146.05 116.43 143.88C113.08 138.57 105.43 133.37 105 133.03C104.38 132.55 86.75 132.98 86.75 132.98L74.94 147.37L70.32 161.29L65.6499 145L55.13 134.37H38L34.7 139.23L36.22 137.11C36.79 137.11 39.4899 123.96 40.5399 119.04L60.3699 129L69.44 143.91L78.89 130.37L112.89 119.12C117.34 126.52 123.06 135.92 123.49 135.69Z" fill="#689DD4"/>
<path d="M156.04 276.29L150.87 280.97L152.67 273.91V261.79L156.04 276.29Z" fill="#3A3B44"/>
<path d="M9.69998 276.29L5.98999 279.24L6.94998 262.81L9.69998 276.29Z" fill="#3A3B44"/>
<path d="M65.8601 393.83L46.7801 472.75H39.5901L39.3601 472.25V415.54C39.3601 414.39 57.4801 374.96 57.4801 374.96L65.8601 393.83Z" fill="#4B5680"/>
<path d="M52.61 472.5L48.61 486.37L33.55 486.59L33.56 485.59L33.65 472.75L52.61 472.5Z" fill="#3A3B44"/>
<path d="M132.22 478.54V486.59L117.82 486.77L117.75 486.41L116.85 478.92C119.453 479.037 122.06 479.017 124.66 478.86C126.96 478.8 129.34 478.68 130.83 478.61C131.49 478.57 132 478.54 132.22 478.54Z" fill="#3A3B44"/>
<path d="M147.83 108.09L108.27 110.94L113.56 104.55L126.9 98.4101L129.09 97.0901L147.83 108.09Z" fill="#7DD1F0"/>
<path d="M147.83 108.09L143.64 126.79L125.46 128.16L108.27 110.94L147.83 108.09Z" fill="#689DD4"/>
<path d="M143.64 126.79C143.64 126.79 124.2 135.32 123.49 135.69C123.06 135.92 117.28 126.47 112.83 119.05L110.73 115.56C109.814 114.069 108.993 112.523 108.27 110.93L125.46 128.16L143.64 126.79Z" fill="#3A3B44"/>
<path d="M43.8101 108.21L23.8401 105.58L37.9601 98.8601L43.8101 108.21Z" fill="#7DD1F0"/>
<path d="M47.57 108.21L37.2299 116.52L25.57 129L15.95 120.97L23.84 105.58L43.81 108.21L37.96 98.8601L47.57 108.21Z" fill="#689DD4"/>
<path d="M81.7901 35.3501L97.6001 26.8401L75.8901 33.1601L81.7901 35.3501Z" fill="#6767AE"/>
<path d="M79.3999 65.3201L101.62 56.05L104.57 59L104.93 57.6301L101.62 56.05L82.3999 62.22L79.3999 65.3201Z" fill="#BC7645"/>
<path d="M77.1099 65.39L60.9199 58.54L74.1999 62.59L77.1099 65.39Z" fill="#9B5023"/>
<path d="M96.58 79.95L85.22 88.74L83.29 89.6799L79.48 88.8L77.97 88.33L83.3 88.1199L96.58 79.95Z" fill="#9B5023"/>
<path d="M66.5901 81.2799L77.9701 88.3299L66.5901 80.1399V81.2799Z" fill="#9B5023"/>
<path d="M66.5901 80.1399C66.5901 80.2999 78.1801 88.1399 78.1801 88.1399H83.3001L83.1301 88.8299L77.9701 88.3499C77.9701 88.3499 68.1701 82.1699 68.1201 82.1899C68.0701 82.2099 66.5901 80.1399 66.5901 80.1399Z" fill="#9B5023"/>
<path d="M75.89 33.1599C75.89 33.1599 70.83 24.5899 70.75 23.8299C70.67 23.0699 80.32 5.67993 80.32 5.67993C80.32 5.67993 75.32 21.3699 75.54 21.5599C75.76 21.7499 81.16 31.0899 81.16 31.0899L75.89 33.1599Z" fill="#97712D"/>
<path d="M103.71 7.12004C103.09 6.94004 95.1701 10.55 95.1701 10.55C95.1701 10.55 88.7401 27.07 89.0201 26.84C89.3001 26.61 96.3601 12.07 96.3601 12.07L103.71 7.12004Z" fill="#97712D"/>
<path d="M46.76 25.7401L62.85 16.9801L71.78 19.4201L61.77 5.09009L46.76 25.7401Z" fill="#97712D"/>
<path d="M98.7 369.06C99.22 369.98 113.61 407.94 113.61 407.94L94.6899 386.13L98.7 369.06Z" fill="#4B5680"/>
<path d="M48.8101 371.63L36.0901 376.31L39.3601 415.54L57.4801 374.96L48.8101 371.63Z" fill="#3A3B44"/>
<path d="M58.0299 235.75L52.6099 257.65L69.4799 275.66L67.3299 286.99L74.6099 288.94L81.2599 287.24L77.1899 273.91L93.5799 260.58L102.34 227.2L83.8699 234.19V236.68L69.4799 243.21L58.0299 235.75Z" fill="#689DD4"/>
<path d="M143.64 126.79C143.64 126.79 155.06 155.87 155.02 155.79C154.98 155.71 131.86 148.94 131.86 148.94L143.64 126.79Z" fill="#3A3B44"/>
<path d="M131.86 148.93L121.65 151.71L123.49 135.69L143.64 126.79" fill="#4B5680"/>
<path d="M155.02 155.78L164.19 181.47L164.73 194.63L146.25 186.58L155.02 155.78Z" fill="#689DD4"/>
<path d="M121.65 151.71L132.92 179.89L140.84 188.58L139.78 215.72C139.78 215.72 149.63 208.72 149.6 207.31C149.57 205.9 146.25 186.58 146.25 186.58L155.02 155.78C155.02 155.78 133.25 147.78 132.38 147.94C131.51 148.1 121.65 151.71 121.65 151.71Z" fill="#7DD1F0"/>
<path d="M146.25 186.58L149.6 207.31C149.6 207.31 165.23 194.84 164.73 194.63L146.25 186.58Z" fill="#3A3B44"/>
<path d="M136.3 183.6C136.66 183.99 146.75 184.48 146.75 184.48L151.53 184.04L140.84 188.58L136.3 183.6Z" fill="#3A3B44"/>
<path d="M36.18 137.14L34.66 139.26L31.66 150.93L30.98 152.15C30.98 152.15 36.98 166.3 36.32 167.01C35.66 167.72 24.9 177.01 24.9 177.01L20.76 150.93L27.39 139.71L36.18 137.14Z" fill="#4B5680"/>
<path d="M27.34 139.71L19.5 135.39L14.8 184.48L24.8501 177.01L20.7101 150.93L27.34 139.71Z" fill="#689DD4"/>
<path d="M36.27 167L33 207.32L21.75 201.26L24.85 177C24.85 177 35.55 167.5 36.27 167Z" fill="#689DD4"/>
<path d="M24.8501 177L21.7801 201.25L17.8401 198.88L13.6001 197.68C13.6001 197.68 16.6001 166.21 16.5101 166.61C16.4201 167.01 24.8501 177 24.8501 177Z" fill="#7DD1F0"/>
<path d="M112.27 209.28L83.8699 219.45V214.55L56.6799 215.72V219.45L45.4999 211.5L43.4099 177.5L38.1199 169.45L36.2699 167L30.9299 152.14L31.6099 150.92L38.9999 163.87L41.0799 165.33L46.3999 164.98L55.1599 178.27L56.7099 177.46L58.0899 197.65L70.5899 203.55L84.2 197.81C85.74 192.43 87.2766 187.047 88.8099 181.66C91.4399 182.66 97.1899 185.1 97.6299 185.1C98.0699 185.1 106.63 187.36 108.03 189.39C108.45 191.7 112.27 209.28 112.27 209.28Z" fill="#689DD4"/>
<path d="M112.9 166.7C112.76 167.14 101.9 179.77 101.9 179.77L101.58 185.19L112.9 166.7Z" fill="#4B5680"/>
<path d="M112.49 161.07C112.32 161.49 100.58 173.32 100.58 173.32L99.8701 178.7L112.49 161.07Z" fill="#4B5680"/>
<path d="M89.5499 177.48C89.5499 177.48 89.2599 178.9 88.7999 181V181.11C88.4499 182.74 86.18 190.81 84.45 196.92L69.4999 192.64L58.0799 197.64L56.7 176.9L70.8299 169.51L89.5499 177.48Z" fill="#7DD1F0"/>
</svg>
