<svg width="170" height="517" viewBox="0 0 170 517" fill="none" xmlns="http://www.w3.org/2000/svg">
<path d="M36.9399 142.79C36.2727 142.257 35.7444 141.571 35.3999 140.79C35.1549 139.866 35.2581 138.883 35.6899 138.03C36.4276 136.487 37.5897 135.186 39.0399 134.28C40.4852 133.385 42.0558 132.711 43.6999 132.28C46.8768 131.276 50.2261 130.935 53.5399 131.28C54.7143 131.392 55.8555 131.732 56.8999 132.28C58.0534 133.01 58.9681 134.062 59.5313 135.306C60.0946 136.55 60.2818 137.931 60.0699 139.28C59.5815 141.967 58.0911 144.369 55.8999 146" fill="#6DB359"/>
<path d="M118.25 142.4C117.856 143.713 117.104 144.89 116.077 145.798C115.051 146.706 113.791 147.309 112.44 147.54C111.635 147.709 110.797 147.614 110.05 147.27C109.026 146.549 108.295 145.484 107.99 144.27C106.656 141.152 105.732 137.875 105.24 134.52C105.013 133.232 105.199 131.906 105.77 130.73C106.231 130.046 106.868 129.499 107.615 129.146C108.361 128.794 109.189 128.651 110.01 128.73C111.655 128.928 113.209 129.59 114.49 130.64C116.909 132.448 118.784 134.887 119.91 137.69C120.18 138.37 120.56 139.19 121.29 139.23" fill="#6DB359"/>
<path d="M106.63 164.85C109.474 161.864 111.836 158.453 113.63 154.74C114.069 153.927 114.363 153.044 114.5 152.13C114.563 151.672 114.524 151.206 114.386 150.765C114.248 150.324 114.013 149.92 113.7 149.58C113.153 149.104 112.472 148.81 111.75 148.74C110.4 148.603 109.036 148.756 107.75 149.19C105.396 149.905 103.219 151.108 101.361 152.721C99.5028 154.335 98.0061 156.321 96.968 158.552C95.93 160.783 95.3741 163.208 95.3365 165.668C95.2989 168.128 95.7806 170.569 96.75 172.83C96.8184 173.13 96.9624 173.409 97.1683 173.638C97.3742 173.867 97.6352 174.04 97.9266 174.14C98.2181 174.24 98.5302 174.264 98.8336 174.21C99.1369 174.156 99.4214 174.025 99.66 173.83C106.52 170.88 104.26 171.83 106.01 169.64" fill="#3D6B4D"/>
<path d="M127.27 99.2801L113.93 105.42L112.34 105.34L120.48 91.2401L113.2 52.3601L108.04 67.3601L105.43 69.3601V58.3701L102 43.8301L99.45 33.1501L98.13 27.5801L76.42 33.9001L60.32 26.4801L56.32 32.4201V38.0601C55.69 40.5901 54.04 47.2901 54.04 48.0001C54.04 48.8901 55.17 63.1701 55.54 63.9101C55.91 64.6501 50.93 74.6701 50.93 74.6701L56.56 70.8401L60.36 64.2401L62.86 73.5701L67.1 80.8701V101.13L56.31 105.34L55.62 105.11L44.53 101.34L41.21 63.3401L47.21 26.4901L62.21 5.84009L80.67 0.840088L104.15 7.84009L118.58 33.8401L121.57 55.0001L118.15 58.0601L126.23 86.8501L127.27 99.2801Z" fill="#5A4422"/>
<path d="M54.0001 47.1599L47.3501 61.4199L46.2601 58.2799L44.3501 66.1299L51.6101 103.73C51.6101 103.73 60.8101 96.6199 61.4601 95.7299C62.1101 94.8399 59.8001 71.0599 59.8001 71.0599L57.1401 55.2999L54.0001 47.1599Z" fill="#3B2418"/>
<path d="M53.6501 72.82L54.6501 80.88L52.8501 85.39L51.5601 103.73C51.5601 103.73 62.78 110.88 63.08 110.78C63.38 110.68 71.0801 107.57 71.2401 107.17C71.4001 106.77 75.2401 96.43 75.1201 94.82C75.0001 93.21 75.2601 79.25 74.6901 78.91C74.1201 78.57 67.9001 72.55 67.5001 72.25C67.1001 71.95 63.3801 63.33 63.3801 63.33L59.9101 61.22L53.6501 72.82Z" fill="#3B2418"/>
<path d="M97.0801 80.6901L96.8601 84.0701L79.3201 101.33L79.6101 122.77L69.6101 127.59L45.7301 118.25C45.7301 118.25 45.4101 115.25 45.7301 114.82L55.6301 105.13L56.3201 105.36L67.1101 101.15V80.8701L62.8701 73.5701L60.3701 64.2401V63.9801L59.3701 58.6101L58.6701 56.1101L61.5101 59.2801C61.5101 59.2801 74.3201 63.3301 74.7901 63.3301C75.2601 63.3301 78.7901 67.3301 78.7901 67.3301V74.0701L71.3701 72.6801L74.4801 77.5301L78.7901 78.9201V88.9201H83.9201L97.0801 80.6901Z" fill="#AD7135"/>
<path d="M76.3901 33.9L72.6201 35.42L72.2801 40.04L56.3101 32.42L60.2901 26.48L76.3901 33.9Z" fill="#B6C158"/>
<path d="M99.4201 33.1501L84.2501 40.0601L82.9001 40.6801L82.2901 36.0901L76.3901 33.9001L98.1001 27.5801L99.4201 33.1501Z" fill="#B6C158"/>
<path d="M102 43.8299L95.69 40.6699C95.69 40.6699 82.12 49.4199 81.69 49.7499C81.26 50.0799 84.25 40.0599 84.25 40.0599L99.42 33.1499L102 43.8299Z" fill="#69BE6A"/>
<path d="M102 43.8301L95.6901 40.6701C95.6901 40.6701 82.1201 49.4201 81.6901 49.7501C81.2601 50.0801 84.2501 40.0601 84.2501 40.0601L82.9001 40.6701L77.6001 48.9401L78.4001 54.7901L78.2001 63.9801L82.9001 62.9801L102.12 56.8001L105.43 58.3901L102 43.8301ZM79.0001 61.7101L80.2501 56.1101L82.6401 61.7101H79.0001ZM102 51.0801L93.6201 56.7801L82.9001 52.2001C83.5401 52.2001 96.4701 43.3601 96.4701 43.3601L101.97 47.8801L102 51.0801Z" fill="#26342E"/>
<path d="M74.7201 63.35C74.2601 63.35 61.4401 59.35 61.4401 59.35L58.6101 56.18C57.6855 53.0821 56.9244 49.9378 56.3301 46.76C56.3301 46.07 56.3301 41.82 56.3301 38.13C56.3301 35.13 56.3301 32.49 56.3301 32.49L61.3301 42.78L61.5201 43.43L61.6901 44.02L57.7601 48.62L64.8401 56.86L65.5001 56.49L74.7201 63.35Z" fill="#26342E"/>
<path d="M149.84 194.88L150.1 208.05L140.28 216.45L141.34 189.32L133.42 180.63L122.15 152.45L123.86 136.56C124.57 136.19 144 127.66 144 127.66L132.36 149.66C132.36 149.66 145.92 188.26 146.74 187.31C147.56 186.36 153.95 192.31 153.95 192.31L149.84 194.88Z" fill="#DB9058"/>
<path d="M24.6499 164L26.4399 199.36C26.4399 199.36 23.8799 194.13 23.7499 194.49C23.6199 194.85 23.7499 200.81 23.7499 202.61L14.1099 198.42C14.1099 198.42 16.1899 176.14 16.1899 174.57C16.1899 173 19.9999 136.13 19.9999 136.13L27.8399 140.45C27.8399 140.45 31.6399 139.29 34.5399 138.45L24.6499 164Z" fill="#DB9058"/>
<path d="M163.75 196.07L148.63 208.76L148.37 195.58L152.48 193.06C152.48 193.06 146.1 187.06 145.28 188.06C144.46 189.06 130.89 150.42 130.89 150.42L144.11 127.7L163.22 182.96L163.75 196.07Z" fill="#EFB180"/>
<path d="M108.76 111.67C109.532 113.283 110.387 114.855 111.32 116.38L72.1999 128.64L69.6299 127.64L79.6299 122.82L79.3399 101.38L96.8799 84.1201L97.6599 100.19L112.36 105.38L113.95 105.46L108.76 111.67Z" fill="#C4854F"/>
<path d="M36.76 167.75L34.7 190L33.52 208L23.73 202.57C23.73 200.77 23.63 194.76 23.73 194.45C23.83 194.14 26.42 199.32 26.42 199.32L24.65 164L34.54 138.42C35.2395 138.187 35.9546 138.003 36.68 137.87L35.15 140L32.15 151.65L31.48 152.88L36.76 167.75Z" fill="#EFB180"/>
<path d="M76.5801 52.3799L73.5401 47.8999L62.1501 43.3799H61.4801L61.2901 42.7299L56.3301 32.4399L72.3001 40.0699L75.6001 45.5699L76.5801 52.3799Z" fill="#69BE6A"/>
<path d="M82.9 40.6799L77.6 48.9399L75.57 45.5499L72.28 40.0399L72.62 35.4199L76.39 33.8999L82.29 36.0899L82.9 40.6799Z" fill="#26342E"/>
<path d="M120.48 91.2401L112.34 105.34L97.6399 100.14L96.8599 84.0801V84.0701L97.0799 80.6901L100.42 74.1601L105.43 58.3701V69.3101L108.04 67.3201L113.2 52.3601L120.48 91.2401Z" fill="#3B2418"/>
<path d="M105.43 58.37L100.42 74.16L97.0799 80.69L83.7999 88.86H78.6699V78.91L82.6399 78.33L86.7699 74.06L90.8999 69.31L86.7699 72.67L78.6699 74.06V67.32L82.8999 62.96L102.12 56.78L105.43 58.37Z" fill="#C4854F"/>
<path d="M90.9 69.3101L86.77 74.0601L82.64 78.3301L78.68 78.9101L74.36 77.5201L71.25 72.6701L77 75.6501L81.07 75.2201L86.77 72.6701L90.9 69.3101Z" fill="#A86739"/>
<path d="M86.77 72.6699L81.07 75.2199L77 75.6499L71.25 72.6699L78.68 74.0599L86.77 72.6699Z" fill="#9D5C27"/>
<path d="M82.64 61.7201H79L80.25 56.1101L82.64 61.7201Z" fill="#3D6C45"/>
<path d="M82.9001 62.9999L78.6701 67.3599C78.6701 67.3599 75.1501 63.3599 74.6701 63.3599L65.4101 56.4499C67.4101 55.3099 73.5901 51.9099 74.0001 51.9099L62.1001 43.3899L73.4901 47.9099L76.4901 52.3899L75.4901 45.5799L77.4901 48.9699L78.2901 54.8199L78.0901 64.0099L82.9001 62.9999Z" fill="#3D6C45"/>
<path d="M60.3499 64.2401L56.5499 70.8401L50.9199 74.6701C50.9199 74.6701 55.9199 64.6701 55.5299 63.9101C55.1399 63.1501 54.0299 48.9101 54.0299 48.0001C54.0299 47.2901 55.6799 40.5901 56.3099 38.0601C56.3099 41.7401 56.3099 46.0001 56.3099 46.6901C56.3099 47.5601 57.6999 52.8701 58.5799 56.1101L59.2799 58.6101L60.2799 63.9801L60.3499 64.2401Z" fill="#6C532F"/>
<path d="M102 47.8801V51.0801L93.6199 56.7801L82.8999 52.2001C83.5399 52.2001 96.4699 43.3601 96.4699 43.3601L102 47.8801Z" fill="white" stroke="#221F1F" stroke-linejoin="round"/>
<path d="M73.9999 51.88C73.5899 51.88 67.4499 55.28 65.4099 56.42L64.7499 56.78L57.6699 48.55L60.7799 43.55L61.2399 42.73L73.9999 51.88Z" fill="white" stroke="#221F1F" stroke-linejoin="round"/>
<path d="M79.9 220.18L79.67 239.55L70 244C70 244 70 228.72 70 228C70 228 69.89 228 69.78 228L69.63 228.08L69.44 228.19C67.1 229.54 58.44 236.39 58.44 236.39C58.44 236.39 58.34 236.3 58.15 236.16L57.27 220.16V216.43H57.48C58.56 217.7 60.71 220.16 61.08 220.16L79.9 220.18Z" fill="#26342E"/>
<path d="M133.21 263.56L116.92 355.56L102.84 356.96L77.6899 274.67C77.6899 274.67 88.4299 265.87 99.1899 257.21C101.46 255.38 103.74 253.55 105.91 251.82C105.6 259.53 103.91 294 103.91 294C103.91 294 116.61 322.17 116.97 321.61C117.33 321.05 132.78 265.17 133.21 263.56Z" fill="#26342E"/>
<path d="M47.8799 511.26L20.2899 512.84C20.2899 512.84 10.2899 514.04 9.48993 513.84C8.68993 513.64 0.689941 511.67 0.689941 511.67L1.45995 508.29L15.3199 508.99H15.7699L26.5899 509.67L40.4599 506.49L40.9999 506.37H41.1599C41.5199 506.28 47.3899 504.71 47.5699 504.76C47.8099 508.38 47.8799 511.26 47.8799 511.26Z" fill="#26342E"/>
<path d="M26.5201 509.56L40.5001 506.54L26.6301 509.72L15.8101 509.04L15.36 509.01H15.3501L15.3201 509L15.6201 509.01L26.5201 509.56Z" fill="#181E4D"/>
<path d="M47.68 504.75C47.5 504.75 41.63 506.27 41.27 506.36V506.23V506.09L40.95 505.17L40.65 504.33C40.54 504.02 40.41 503.68 40.27 503.33L40.12 502.91C40.06 502.75 40 502.58 39.93 502.41L39.17 500.41C39.09 500.19 39.01 499.98 38.92 499.76C38.63 499 38.34 498.21 38.02 497.42L37.52 496.08C37.09 494.98 36.67 493.89 36.28 492.87C36.13 492.49 35.99 492.14 35.86 491.79C35.45 490.79 35.09 489.79 34.79 489.06C34.7561 488.955 34.716 488.851 34.67 488.75L34.52 488.37C34.46 488.21 34.4 488.06 34.36 487.94L34.22 487.59C34.11 487.29 34.04 487.13 34.04 487.13L34.17 486.35V487.35L49.22 487.13C49.2 487.11 47.5 498.54 47.68 504.75Z" fill="#26342E"/>
<path d="M40.0899 473.49H39.8599V473L40.0899 473.49Z" fill="#253B7D" stroke="#9BB7C7" stroke-miterlimit="10"/>
<path d="M41.0699 506.41L40.5399 506.53L26.6699 509.71L15.8099 509H15.3599L6.85986 504.75L25.2699 495.33L27.7099 497.01L28.5899 497.62L29.2199 498.05L30.0399 498.63C34.2499 501.57 39.9999 505.54 41.0699 506.41Z" fill="#3D6B4D"/>
<path d="M15.35 509.01L1.45996 508.29L6.80995 504.75H6.81996L15.35 509.01Z" fill="#69BE6A"/>
<path d="M137.08 502.16L119.25 496.22L118.25 487.15L118.32 487.5L132.72 487.33L137.08 502.16Z" fill="#26342E"/>
<path d="M141.79 510.46L120.31 509.72C120.31 509.72 117.83 502.17 117.83 501.85L119.29 496.47V496.22L137.12 502.16L141.79 510.46Z" fill="#3D6B4D"/>
<path d="M142.94 513.27L131.51 516.67H122.51L116.18 510.85L117.81 502.17V501.85C117.81 502.17 120.29 509.72 120.29 509.72L141.77 510.46L142.94 513.27Z" fill="#26342E"/>
<path d="M41.2701 506.36H41.1101L30.1101 498.57L29.2901 497.99L28.6601 497.56L27.7801 496.95L25.3401 495.27L34.0401 487.05C34.0401 487.05 34.1101 487.21 34.2201 487.51L34.3601 487.86C34.3601 487.98 34.4601 488.13 34.5201 488.29L34.6701 488.67C34.7161 488.771 34.7562 488.874 34.7901 488.98L40.0001 502.91L40.1501 503.33L41.1501 506.03C41.1501 506.08 41.1501 506.24 41.1501 506.28C41.1501 506.32 41.2601 506.32 41.2701 506.36Z" fill="#69BE6A"/>
<path d="M55.6199 105.11L45.7199 114.8L41.4299 117.8C41.4299 117.8 41.2799 118.54 41.0199 119.73C39.9699 124.65 37.27 137.8 36.7 137.8C35.9745 137.933 35.2594 138.116 34.5599 138.35C31.6599 139.21 27.8599 140.35 27.8599 140.35L19.9999 136.13L16.4399 121.7L26.0699 129.7L37.7299 117.22L48.0599 109L38.4599 99.6499L44.5299 101.39L55.6199 105.11Z" fill="#26342E"/>
<path d="M21.2999 255.74C21.2999 255.74 14.6499 259.82 14.5399 260.31C14.4299 260.8 5.62987 252.84 4.53987 251.89C4.22987 258.07 4.69987 282.15 4.69987 282.15L6.42987 283.59L17.4299 279.8L25.9999 270.46L21.2999 255.74ZM6.47989 280L7.47989 263.57L10.1999 277L6.47989 280Z" fill="#69BE6A"/>
<path d="M18.34 199.63L16.21 219.39L14.21 204.34L10.21 198.5C10.21 198.4 10.21 198.36 10.21 198.36L14.1 198.43L18.34 199.63Z" fill="#69BE6A"/>
<path d="M16.2701 251.37L21.2701 255.74C21.2701 255.74 14.6201 259.82 14.5101 260.31C14.4001 260.8 5.60006 252.84 4.51006 251.89C4.50078 251.415 4.55459 250.941 4.67006 250.48C5.26006 249.56 9.73005 201.43 10.11 198.48L14.11 204.32L16.11 219.37L14.4401 234.91L21.5301 245.09L10.7801 247.4L7.35007 251.35L16.2701 251.37Z" fill="#26342E"/>
<path d="M35.71 211.13L21.63 245.11L14.54 234.93L18.34 199.63L33.52 208.05L35.71 211.13Z" fill="#3D6B4D"/>
<path d="M20.7699 254.13L21.2999 255.74L16.2699 251.37H7.44995L10.8799 247.42L21.6299 245.11L20.7699 254.13Z" fill="#3D6B4D"/>
<path d="M21.63 287.87L13.79 289.68L6.47998 283.59L17.5 279.8L26.07 270.45L26.22 276.82L21.63 287.87Z" fill="#26342E"/>
<path d="M113.82 172.53C113.82 172.53 108.48 189.85 108.44 189.85L108.5 190.13C107.13 188.13 98.5 185.84 98.09 185.84C97.68 185.84 91.91 183.4 89.28 182.39C89.28 182.39 89.28 182.32 89.28 182.28C89.73 180.19 90.02 178.77 90.02 178.77L92.61 179.87L100.39 167.87L107.03 158.59L111.9 153.86L116.9 144.65C118.97 146.16 122.12 152.46 122.12 152.46L113.82 172.53Z" fill="#26342E"/>
<path d="M111.92 153.85L103.82 158.94L100.42 167.86L92.6401 179.86L90.05 178.76L71.3 170.76L57.1801 178.15L55.6201 178.96L46.86 165.66L41.55 166.02H55.6401L66.1401 145.71L70.8201 162L75.4401 148.08C75.4401 148.08 93.3801 162.81 93.7401 162.65C94.1001 162.49 111.38 154.12 111.92 153.85Z" fill="#3D6B4D"/>
<path d="M116.93 144.64L111.93 153.85C111.39 154.12 94.1099 162.54 93.7499 162.7C93.3899 162.86 75.45 148.13 75.45 148.13L87.2499 133.74C87.2499 133.74 104.88 133.31 105.51 133.74C105.93 134.13 112.11 141.15 116.93 144.64Z" fill="#69BE6A"/>
<path d="M49.1799 254.2L33.4299 240.94L39.7299 224.31C40.1699 224.61 41.5499 226.26 42.2599 226.8L49.1799 254.2Z" fill="#26342E"/>
<path d="M58.35 236.38C58.35 236.38 46.24 229.8 42.26 226.8C41.55 226.26 40.17 224.61 39.73 224.31L46 212.24L57.18 220.18L58.35 236.38Z" fill="#6DB359"/>
<path d="M70.0001 244L58.3701 236.43C60.2301 234.93 67.8101 229.12 69.6101 228.12L69.7601 228.04C69.8701 228.04 69.9401 227.98 69.9801 228.04C70.0201 228.1 69.9801 228.04 69.9801 228.04C70.0001 228.67 70.0001 244 70.0001 244Z" fill="#6DB359"/>
<path d="M117.64 224.55L107.04 227.15L84.3701 234.93V220.18L112.76 210.02L117.64 224.55Z" fill="#6DB359"/>
<path d="M116.92 355.54C116.92 355.54 111.92 376.14 111.69 377.02C111.46 377.9 102.84 356.94 102.84 356.94L116.92 355.54Z" fill="#B6C158"/>
<path d="M79 306.32C79.26 304.95 70 354.55 70 354.55L64.53 363.18C64.53 363.18 67.46 351.49 67.71 350.69C67.96 349.89 76.6 302.17 76.6 302.17C76.6 302.17 67.23 298.73 68.89 298.98C71.4749 299.118 74.0652 299.118 76.65 298.98L81.72 297.45L94.1 361.77C93.61 360.15 78.72 307.68 79 306.32Z" fill="#26342E"/>
<path d="M126.27 355.54L133.21 263.54L116.92 355.54C116.92 355.54 111.92 376.14 111.69 377.02C111.46 377.9 102.84 356.94 102.84 356.94L77.69 274.65C77.69 274.65 88.43 265.85 99.19 257.19L107.03 227.19L84.37 234.97V237.46L79.68 239.59L70 244L58.55 236.54L58.08 236.2C56.67 235.08 45.79 229.5 42.28 226.85L49.2 254.25L51.2 256.38L70 276.4L53.76 361.81L40.82 353.81L28.25 283.75L24.5 327.29L30.72 349.69L28.57 377.06L33.4 387.11L34.17 473.5H39.88V416.28C39.88 415.13 58 375.7 58 375.7L66.38 394.57L47.29 473.49L53.13 473.24L73.93 392.54L64.54 363.18C64.54 363.18 67.46 351.49 67.71 350.69C67.96 349.89 76.6 302.17 76.6 302.17C76.6 302.17 67.23 298.73 68.89 298.98C71.4748 299.119 74.0652 299.119 76.65 298.98L81.72 297.45L94.1 361.77L91.82 387.48C91.82 387.48 115.82 478.62 116.82 479.48C116.969 479.581 117.141 479.643 117.32 479.66C119.926 479.773 122.536 479.749 125.14 479.59H126.02L117.02 419.51C117.02 419.51 127.85 383.51 127.85 382.82C127.85 382.13 133.09 386.24 133.09 386.24L131.26 479.36L132.65 479.29L132.86 477.59C133.24 464.81 137.64 384.92 138.6 384.67C139.56 384.42 126.27 355.54 126.27 355.54ZM35 372.36L38.52 355.54C39.52 355.97 49.29 366.3 49.29 366.3L35 372.36Z" fill="#3D6B4D"/>
<path d="M124.84 240.06C118.186 243.39 111.85 247.319 105.91 251.8C103.74 253.53 101.46 255.36 99.1899 257.19L107.03 227.19L117.64 224.59L124.45 239L124.84 240.06Z" fill="#26342E"/>
<path d="M133.21 263.52C132.78 265.13 117.37 320.99 117.02 321.52C116.67 322.05 104 294 104 294C104 294 105.64 259.53 106 251.82C111.94 247.339 118.276 243.41 124.93 240.08L133.21 263.52Z" fill="#6DB359"/>
<path d="M168.17 204.84C167.97 205.06 160.76 213.16 154.38 220.18V250.42L150.77 257.15L145.3 250L134.76 265.5L133.84 271.8H140.28V283.59L151.37 286.35L162.45 279.69C162.45 279.69 162.19 247.53 162.45 246.43C162.66 245.58 166.42 217.79 168.17 204.84ZM151.37 281.71L153.17 274.65V262.53L156.53 277L151.37 281.71Z" fill="#3D6B4D"/>
<path d="M162.45 279.69L159.55 287.11L145.24 294.6L136.74 291.19L133.84 271.8H140.28V283.59L151.37 286.36L162.45 279.69Z" fill="#26342E"/>
<path d="M154.38 220.18V250.42L150.77 257.15L145.3 250L138.17 217.28C138.17 217.28 144.48 229.74 144.69 230.37C144.78 230.65 149.32 225.76 154.38 220.18Z" fill="#69BE6A"/>
<path d="M169.05 198.31C169.05 198.31 168.71 200.88 168.17 204.83C167.97 205.05 160.76 213.15 154.38 220.17C149.32 225.75 144.78 230.64 144.69 230.36C144.48 229.73 138.17 217.27 138.17 217.27L140.28 216.44L150.1 208.04L165.22 195.36L166.41 194.18L169.05 198.31Z" fill="#26342E"/>
<path d="M133.16 386.22L131.33 479.34C130.03 479.41 128.05 479.51 126.04 479.57L117.04 419.49C117.04 419.49 127.87 383.49 127.87 382.8C127.87 382.11 133.16 386.22 133.16 386.22Z" fill="#26342E"/>
<path d="M113.39 119.88L79.39 131.12L69.94 144.64L60.87 129.75L41 119.84C41.26 118.65 41.41 117.91 41.41 117.91L45.7 114.91C45.4 115.37 45.7 118.33 45.7 118.33L69.58 127.66L72.14 128.66L111.26 116.42L113.39 119.88Z" fill="#26342E"/>
<path d="M66.1401 145.76L55.6401 166.07H41.5501L39.4701 164.61L32.1001 151.66L35.1501 140.01V140L38.4601 136.52L55.6201 135.13L66.1401 145.76Z" fill="#69BE6A"/>
<path d="M84.3699 220.18V234.93V237.42L79.6799 239.55L79.9099 220.18H60.9999C60.6299 220.18 58.4799 217.72 57.3999 216.45L84.3999 215.29V220.18H84.3699Z" fill="#6DB359"/>
<path d="M52.78 295.44C52.78 295.44 42.34 320.84 42.17 319.98C42 319.12 28.9 286.06 28.23 283.57V282.68L32.74 242.46L33.4 240.96L49.15 254.22L51.15 256.35L52.78 295.44Z" fill="#6DB359"/>
<path d="M70 276.4L53.76 361.81L40.82 353.81L28.25 283.75V283.58C28.92 286.07 42.02 319.15 42.19 319.99C42.36 320.83 52.8 295.45 52.8 295.45L51.2 256.34L70 276.4Z" fill="#26342E"/>
<path d="M49.31 366.3L35 372.36L38.52 355.54C39.57 356 49.31 366.3 49.31 366.3Z" fill="#B6C158"/>
<path d="M124 136.43L122.16 152.43C122.16 152.43 118.3 146.79 116.94 144.62C113.59 139.31 105.94 134.11 105.51 133.77C104.88 133.29 87.2499 133.77 87.2499 133.77L75.4499 148.16L70.8199 162.08L66.1599 145.79L55.6299 135.16H38.4599L35.1499 140L36.6799 137.88C37.2499 137.88 39.9499 124.73 40.9999 119.81L60.8699 129.73L69.9399 144.64L79.3899 131.1L113.39 119.84C117.84 127.26 123.55 136.66 124 136.43Z" fill="#6DB359"/>
<path d="M156.53 277.02L151.37 281.71L153.17 274.65V262.53L156.53 277.02Z" fill="#26342E"/>
<path d="M10.2 277.02L6.47998 279.97L7.44998 263.54L10.2 277.02Z" fill="#26342E"/>
<path d="M66.3599 394.57L47.2699 473.49H40.0899L39.8599 472.99V416.28C39.8599 415.13 57.9799 375.7 57.9799 375.7L66.3599 394.57Z" fill="#26342E"/>
<path d="M53.11 473.24L49.11 487.11L34.05 487.33L34.0601 486.33L34.1501 473.49L53.11 473.24Z" fill="#464C45"/>
<path d="M132.72 479.27V487.33L118.32 487.5L118.25 487.15L117.34 479.66C119.943 479.773 122.55 479.749 125.15 479.59C127.46 479.54 129.84 479.42 131.33 479.34L132.72 479.27Z" fill="#464C45"/>
<path d="M148.32 108.82L108.76 111.67L114.06 105.29L127.4 99.1501L129.58 97.8301L148.32 108.82Z" fill="#69BE6A"/>
<path d="M148.32 108.82L144.13 127.53L125.96 128.9L108.76 111.67L148.32 108.82Z" fill="#26342E"/>
<path d="M144.13 127.53C144.13 127.53 124.7 136.06 123.99 136.43C123.55 136.66 117.77 127.21 113.33 119.79L111.23 116.3C110.314 114.808 109.49 113.261 108.76 111.67L126 128.9L144.13 127.53Z" fill="#69BE6A"/>
<path d="M44.3101 108.95L24.3401 106.31L38.4601 99.5901L44.3101 108.95Z" fill="#26342E"/>
<path d="M48.0599 108.95L37.7299 117.26L26.0699 129.74L16.4399 121.7L24.3399 106.31L44.3099 108.95L38.4599 99.5901L48.0599 108.95Z" fill="#69BE6A"/>
<path d="M82.2901 36.0901L98.1001 27.5801L76.3901 33.9001L82.2901 36.0901Z" fill="#3D6C45"/>
<path d="M79.8999 66.06L102.12 56.78L105.07 59.74L105.43 58.37L102.12 56.78L82.8999 62.96L79.8999 66.06Z" fill="#BB7644"/>
<path d="M77.5999 66.13L61.4199 59.28L74.6999 63.33L77.5999 66.13Z" fill="#9A5124"/>
<path d="M97.08 80.6899L85.72 89.4799L83.78 90.4199L79.98 89.5399L78.47 89.0699L83.8 88.8599L97.08 80.6899Z" fill="#9A5124"/>
<path d="M67.0901 82.0199L78.4701 89.0699L67.0901 80.8799V82.0199Z" fill="#9A5124"/>
<path d="M67.0901 80.8701C67.0901 81.0401 78.6701 88.8701 78.6701 88.8701H83.8001L83.6301 89.5601L78.4701 89.0801C78.4701 89.0801 68.6701 82.9001 68.6101 82.9201C68.5501 82.9401 67.0901 80.8701 67.0901 80.8701Z" fill="#9A5124"/>
<path d="M76.3899 33.8999C76.3899 33.8999 71.3199 25.3299 71.2499 24.5699C71.1799 23.8099 80.8199 6.41992 80.8199 6.41992C80.8199 6.41992 75.8199 22.1099 76.0299 22.2999C76.2399 22.4899 81.6499 31.8299 81.6499 31.8299L76.3899 33.8999Z" fill="#3B2418"/>
<path d="M104.21 7.86001C103.59 7.67001 95.6599 11.29 95.6599 11.29C95.6599 11.29 89.2399 27.81 89.5199 27.58C89.7999 27.35 96.8599 12.81 96.8599 12.81L104.21 7.86001Z" fill="#3B2418"/>
<path d="M47.25 26.4801L63.35 17.7201L72.28 20.1601L62.27 5.83008L47.25 26.4801Z" fill="#3B2418"/>
<path d="M99.1899 369.8C99.7199 370.71 114.1 408.67 114.1 408.67L95.1899 386.87L99.1899 369.8Z" fill="#B6C158"/>
<path d="M49.3101 372.36L36.5901 377.05L39.8601 416.28L57.9801 375.7L49.3101 372.36Z" fill="#B6C158"/>
<path d="M58.5299 236.49L53.1099 258.39L69.9799 276.4L67.8299 287.72L75.1099 289.68L81.7599 287.98L77.6899 274.65L94.0699 261.32L102.84 227.94L84.3699 234.93L84.3599 237.42L69.9799 243.95L58.5299 236.49Z" fill="#69BE6A"/>
<path d="M144.13 127.53C144.13 127.53 155.55 156.61 155.52 156.53C155.49 156.45 132.36 149.68 132.36 149.68L144.13 127.53Z" fill="#3D6B4D"/>
<path d="M132.36 149.67L122.15 152.45L123.99 136.43L144.13 127.53" fill="#26342E"/>
<path d="M155.52 156.52L164.69 182.21L165.22 195.37L146.74 187.32L155.52 156.52Z" fill="#6DB359"/>
<path d="M122.15 152.45L133.42 180.63L141.34 189.32L140.28 216.45C140.28 216.45 150.13 209.45 150.1 208.05C150.07 206.65 146.74 187.32 146.74 187.32L155.52 156.52C155.52 156.52 133.75 148.52 132.88 148.68C132.01 148.84 122.15 152.45 122.15 152.45Z" fill="#69BE6A"/>
<path d="M146.74 187.32L150.1 208.05C150.1 208.05 165.72 195.58 165.22 195.37L146.74 187.32Z" fill="#3D6B4D"/>
<path d="M136.79 184.33C137.15 184.73 147.25 185.22 147.25 185.22L152.03 184.78L141.34 189.32L136.79 184.33Z" fill="#26342E"/>
<path d="M36.68 137.88L35.15 140L32.15 151.66L31.48 152.89C31.48 152.89 37.48 167.03 36.81 167.75C36.14 168.47 25.4 177.75 25.4 177.75L21.26 151.66L27.89 140.45L36.68 137.88Z" fill="#3D6B4D"/>
<path d="M27.83 140.45L20.0001 136.13L15.3 185.22L25.3501 177.75L21.2101 151.66L27.83 140.45Z" fill="#69BE6A"/>
<path d="M36.77 167.76L33.53 208.05L22.28 202L25.35 177.76C25.35 177.76 36.05 168.24 36.77 167.76Z" fill="#69BE6A"/>
<path d="M25.3501 177.75L22.2801 202L18.3401 199.64L14.0901 198.44C14.0901 198.44 17.0901 166.97 17.0101 167.36C16.9301 167.75 25.3501 177.75 25.3501 177.75Z" fill="#26342E"/>
<path d="M112.76 210L84.3699 220.16V215.27L57.1899 216.43V220.16L45.9999 212.24L43.9099 178.24L38.6199 170.24L36.7699 167.78L31.4399 152.92L32.1099 151.69L39.4799 164.63L41.5599 166.1L46.8699 165.74L55.6299 179.04L57.1899 178.23L58.5699 199.66L69.9999 193.92L84.3799 199.63L89.2999 182.39C91.9299 183.39 97.6799 185.84 98.1099 185.84C98.5399 185.84 107.11 188.1 108.52 190.13C109 192.44 112.76 210 112.76 210Z" fill="#26342E"/>
<path d="M60.3401 209.76L70.2301 208.6L81.4401 209.21C82.4401 211.21 83.39 213.26 84.36 215.29L70.2301 214.6L58.0601 215.85L60.3401 209.76Z" fill="#26342E"/>
<path d="M61.9001 202.25C64.5601 202.12 67.3601 202.06 70.2801 202.09C73.5501 202.09 76.6801 202.24 79.6301 202.45L84.36 208.56L70.36 207.99L58.05 209.12L61.9001 202.25Z" fill="#26342E"/>
<path d="M58.4401 197L70.3501 195.16L84.1901 196.38C84.2501 198.38 84.3 200.38 84.36 202.32L70.2801 200.87L58.0601 202.87L58.4401 197Z" fill="#26342E"/>
<path d="M113.39 167.44C113.26 167.88 102.39 180.51 102.39 180.51L102.07 185.92L113.39 167.44Z" fill="#6DB359"/>
<path d="M113 161.81C112.83 162.23 101.09 174.06 101.09 174.06L100.38 179.44L113 161.81Z" fill="#6DB359"/>
<path d="M89.9999 178.77C89.9999 178.77 89.7099 180.19 89.2599 182.28V182.39C88.9099 184.02 86.2599 192.96 84.3399 199.63L69.9999 193.92L58.5799 199.63L57.2 178.2L71.3199 170.81L89.9999 178.77Z" fill="#6DB359"/>
<path d="M89.9999 178.7L89.7999 179.7L89.2599 182.25V182.36L84.3399 199.59L71.0399 204.25L58.5399 199.59L57.1599 178.16L71.2799 170.77L89.9999 178.7Z" fill="#6DB359"/>
</svg>
