<svg width="192" height="489" viewBox="0 0 192 489" fill="none" xmlns="http://www.w3.org/2000/svg">
<g clip-path="url(#clip0)">
<path d="M88.2201 47.22C89.127 47.9037 89.784 48.8664 90.0901 49.96C90.2021 50.7108 90.0725 51.4777 89.7201 52.15C89.3402 52.8127 88.8689 53.4187 88.3201 53.95C85.5401 56.86 81.9501 59.2 77.9201 59.65C77.1889 59.7573 76.4435 59.713 75.7301 59.52C74.9407 59.2388 74.2472 58.7395 73.7301 58.08C73.3009 57.5588 72.9412 56.984 72.6601 56.37C72.5208 55.9931 72.3502 55.6285 72.1501 55.28C71.4801 54.28 70.1501 53.71 69.5401 52.65C69.0316 51.5414 68.9186 50.2919 69.2201 49.11C69.2146 48.9664 69.254 48.8247 69.3328 48.7045C69.4117 48.5844 69.5261 48.4919 69.6601 48.44C72.2241 47.2017 75.0721 46.6701 77.9101 46.9C80.7306 47.1299 83.5618 47.2 86.3901 47.11C87.3901 47.03 88.4801 46.95 89.1001 47.68" fill="#A6662F"/>
<path d="M95.0598 42.99L81.6898 43.21C81.3898 43.21 76.4998 45.48 76.4998 45.48L74.0498 43.02L64.0498 42.76L65.3898 49.23L67.8698 55.85L74.2998 62.7H86.4198L98.3198 52.46L95.0598 42.99ZM82.0598 55.46C81.8098 55.38 76.2698 55.46 76.2698 55.46L74.6998 53H84.4598C83.7097 53.8804 82.894 54.7027 82.0198 55.46H82.0598ZM72.5798 50.46L74.2498 49.27C74.2498 49.27 83.3198 49.21 83.6398 49.27C83.9598 49.33 88.2098 50.55 88.2098 50.55L72.5798 50.46Z" fill="#C68650"/>
<path d="M71.1699 0L77.8299 1.84L85.7399 0L101.14 4.01L87.5199 7.37L75.0899 6.69L71.1699 0Z" fill="#3E383E"/>
<path d="M188.61 215.93V216.38H173.51L185.72 161.76C185.72 161.76 190.98 184.96 191.44 185.62V185.76C191.89 188.38 188.61 215.93 188.61 215.93Z" fill="#827140"/>
<path d="M183.26 216.38L178.07 243.92L172.92 230.15L166.95 228.16L167.09 227.7L173.51 216.38H183.26Z" fill="#E4B37C"/>
<path d="M178.07 243.92L167.76 247.37L165.45 243.92L170.74 242.17V237.64L165.45 243.92L163.05 240.37L166.95 228.16L172.92 230.15L178.07 243.92Z" fill="#D1925E"/>
<path d="M190.67 242.81L185.96 247.37H167.76L178.07 243.92L190.67 242.81Z" fill="#9E6F5A"/>
<path d="M188.61 216.38L190.67 242.81L178.07 243.92L183.26 216.38H188.61Z" fill="#D1925E"/>
<path d="M167.21 99.15V99.22L151.15 119.76L135.72 112.62V97.07L154.2 79.46L154.53 79.51L167.21 99.15Z" fill="#E7C053"/>
<path d="M154.19 79.41L135.7 97.08L113.84 85.44L128.92 75.36L129.14 75.47L154.19 79.41Z" fill="#F4A54B"/>
<path d="M104.26 66.01C99.2602 68.14 82.3802 76.15 82.0702 75.94C81.7602 75.73 74.3802 70.36 70.7002 67.59L81.1702 71.37L104.9 61.09L104.96 64.93L104.26 66.01Z" fill="#996B4A"/>
<path d="M104.32 54.95L104.93 61.08L81.2002 71.36L70.7202 67.58L71.8802 62.12L73.7202 64.35H86.3202L104.32 54.95Z" fill="#8A562C"/>
<path d="M102.77 45.26L103.34 44.66L102.77 45.26L104.29 54.95L86.29 64.35L98.15 52.46C99.0713 48.3564 100.35 44.3411 101.97 40.46C102.12 40.02 102.77 45.08 102.77 45.26Z" fill="#6A3F26"/>
<path d="M98.1499 52.46L86.3199 64.35H73.7199L71.86 62.15L67.5099 56.15L65.2599 49.44L63.1899 42.73L64.5399 42.81L65.8799 49.28L68.36 55.9L74.1499 62.75H86.2699L98.1499 52.46Z" fill="#9C6636"/>
<path d="M109.03 28.46V38.61L102.77 45.3C102.77 45.12 102.12 40.06 101.97 40.42C104.52 34.42 107.1 28.42 107.19 28.42L109.03 28.46Z" fill="#D0A17F"/>
<path d="M107.45 13.29L107.31 28.29L97.0198 23.94L97.6399 13.77L93.1699 14.5L80.1699 18.02L67.1699 13.34L65.0898 24.76L66.3098 8.76C66.3098 8.76 77.5798 11.2 77.8298 11.2C78.0798 11.2 95.4298 9.59001 95.8298 9.47001C96.2298 9.35001 101.33 7.33999 101.62 7.04999L107.45 13.29Z" fill="#22201F"/>
<path d="M93.1701 14.54L90.5301 23.54C90.5301 23.54 78.0301 28.81 77.8501 28.94C77.6701 29.07 69.3701 24.54 68.9901 24.41C68.6101 24.28 67.1401 13.41 67.1401 13.41L79.6401 17.9L93.1701 14.54Z" fill="#C68650"/>
<path d="M107.43 28.42L101.31 30.49L96.2298 32.01L93.3898 28.57L91.0098 25.71L97.0198 23.98L107.26 28.33L107.43 28.42Z" fill="#F3EB50"/>
<path d="M101.64 30.3C101.64 30.3 96.7999 39.3 95.3499 42.16C95.2499 42.36 95.1699 42.51 95.0899 42.64L94.9299 42.94V42.99L81.5499 43.21C81.2499 43.21 76.3699 45.48 76.3699 45.48L73.9199 43.02L64.9199 42.76L63.1699 42.68L67.4199 38.21L74.4999 39.96L75.9099 33.02L66.4299 28.75L64.7799 25.15L65.0599 24.78L77.5099 31.15L91.1499 25.66L93.4099 28.4L79.6399 33.4L80.8299 39.97C81.1199 39.97 93.5999 39.47 93.8299 39.4C94.0599 39.33 96.2799 31.85 96.2799 31.85L101.64 30.3Z" fill="#F3EB50"/>
<path d="M75.9102 33.02L74.4902 39.96L73.9502 33.35L66.4302 28.75L75.9102 33.02Z" fill="#29272C"/>
<path d="M67.4198 38.21L63.1698 42.68L62.2798 33.58V28.42L64.7798 25.17L66.4298 28.75L64.6198 32.31L66.2798 37.93L67.4198 38.21Z" fill="#F3EB50"/>
<path d="M93.4201 28.4L82.9201 33.15L80.8301 39.96L79.6401 33.39L93.4201 28.4Z" fill="#29272C"/>
<path d="M107.43 28.46C107.18 28.82 104.69 34.6 102.22 40.4C102.22 40.49 102.15 40.57 102.1 40.67C99.8901 45.82 98.8401 51.03 98.2701 52.2C98.2701 52.2 98.2201 52.35 98.2001 52.39C98.1791 52.4275 98.1521 52.4613 98.1201 52.49L94.8501 43.01V42.96L95.0201 42.66L95.2701 42.18C96.8001 39.38 101.56 30.32 101.56 30.32L107.04 28.54L107.34 28.44L107.43 28.46Z" fill="#F3EB50"/>
<path d="M98.3198 183.56L95.0398 188.36L76.4998 190.55V132.15L99.7898 143.02L96.0998 156.7L98.3198 183.56ZM83.3198 130.81C83.3198 130.81 108.69 135.46 109.38 135.29C110.07 135.12 130.47 119.07 131.11 118.57L111.44 143.06L83.3198 130.81ZM138.62 133.66L128.12 105.3L121.8 119.79C121.8 119.79 106.8 128.46 106.44 128.79C106.08 129.12 77.8698 124.79 77.8698 124.79L79.2698 98.92L88.4098 83.82L80.1098 88.82C80.1098 88.82 72.5198 84.95 71.9098 84.29L77.7198 99.75L73.6098 125.03L49.7998 132.69L32.7998 121.58L49.1298 136.84L66.1298 130.75L51.7998 144.05L54.1598 179.15C54.1598 179.15 64.0898 200.21 64.5598 200.51C65.0298 200.81 90.1098 200.51 90.1098 200.51L107.93 174.77L125.93 167.46V167.28L126.47 165.86L138.62 133.66Z" fill="#E7C053"/>
<path d="M131.1 118.57L111.44 143.06L83.3198 130.81C83.3198 130.81 108.69 135.46 109.38 135.29C110.07 135.12 130.46 119.07 131.1 118.57Z" fill="#827140"/>
<path d="M77.7 99.76L73.59 125.04L49.77 132.7L32.75 121.59L35.76 104.47L49.73 85.44L77.7 99.76Z" fill="#F3EB50"/>
<path d="M49.7201 85.46L30.4701 101.03L16.3101 94.64L30.4501 79.54L47.1401 79.3L47.6801 79.06C48.9901 81.04 49.7201 85.46 49.7201 85.46Z" fill="#F4A54B"/>
<path d="M19.0098 120.82L19.0598 120.68L16.3398 94.64L30.4798 101.01L32.7498 121.59L19.0098 120.82Z" fill="#E7C053"/>
<path d="M52.7198 204.58L65.4398 230.15L64.3199 228.33L63.8298 227.57L63.5598 227.16L62.9898 226.26L62.3499 225.26L62.0099 224.73L60.9298 223.04L59.7198 221.21L58.9099 219.94L58.0699 218.64L57.6498 217.98L56.8298 216.69L55.4499 214.55L54.6399 213.29L53.7998 211.96C50.0298 206.07 40.1599 201.25 40.0999 200.96L49.0999 178.46C49.0999 178.46 46.8199 144.25 47.0399 140.71C46.7499 141.47 45.7199 143.64 44.4099 146.31C44.3199 146.88 42.9099 154.99 42.7599 155.31C42.6099 155.63 37.3398 161.9 37.3398 161.9L14.3398 151.58L37.5798 143.08L32.7198 121.61L49.0498 136.87L66.0498 130.78L51.7198 144.08L54.0898 179.2L52.7198 204.58Z" fill="#827140"/>
<path d="M14.4299 151.55L18.7399 181.66L8.01992 216.77L0.419922 213.27L6.25992 162.62L14.4299 151.55Z" fill="#F3EB50"/>
<path d="M37.34 161.99L36.63 175.68L14.86 217.04L8.02002 216.77L18.74 181.66L37.34 161.99Z" fill="#827140"/>
<path d="M12.9 232.54L3.35 245.84L0 231.7L0.42 213.27L8.02 216.77L12.9 232.54Z" fill="#D2935C"/>
<path d="M21.69 229.17L12.9 232.54L8.02002 216.77L14.86 217.04L21.57 228.82L21.69 229.17Z" fill="#E5B47E"/>
<path d="M25.1599 239.26L21.5699 241.93L12.8999 232.54L21.6899 229.17L25.1599 239.26Z" fill="#CF975D"/>
<path d="M21.5701 241.93L19.4001 245.97L18.6401 247.37L3.3701 245.92L3.3501 245.84L12.9001 232.54L21.5701 241.93Z" fill="#9D6D5F"/>
<path d="M128.41 191.61L99.7901 215.09L89.7901 230.15C89.2701 229.47 111.97 197.15 111.46 196.67C110.95 196.19 107.86 174.8 107.86 174.8L125.86 167.49C126.1 169.65 128.31 190.24 128.31 191.08C128.328 191.259 128.361 191.437 128.41 191.61Z" fill="#827140"/>
<path d="M65.4502 230.15L58.0502 286.94L29.2002 266.36L40.0902 201C40.2402 201.6 64.8702 229.25 65.4402 230.13L65.4502 230.15Z" fill="#F3EB50"/>
<path d="M145.39 249.32L139.72 309.69C139.72 309.69 130.31 320.98 126.72 325.96C129.3 320.28 134.65 306.03 134.65 305.77C134.65 305.51 121.48 288.38 120.03 284.89C120.13 284.47 120.13 284.25 120.03 284.27C119.93 284.29 119.91 284.51 120.03 284.89C119.03 289.11 101.86 315.72 100.93 317.7L100.87 317.83C93.4202 292.83 89.1502 257.26 89.1502 257.26L85.7202 294.36C85.7202 294.36 79.7202 320.24 79.6502 320.81C79.6502 320.81 76.7402 322.63 73.2902 324.76C68.5802 327.7 62.9102 331.24 62.4502 331.54C61.6602 332.06 72.9502 310.24 72.9502 310.24L57.9502 286.94L65.3502 230.15C65.3502 230.15 89.6802 230.82 89.6802 230.15L119.94 282.94L145.39 249.32Z" fill="#827140"/>
<path d="M58.0502 286.94L42.3102 321.03L29.2002 266.36L58.0502 286.94Z" fill="#827140"/>
<path d="M79.3202 343.69L64.4001 358.29L39.6602 334.35L41.8401 322.72L42.1102 321.8L42.3401 321.03L58.0801 286.94L73.0801 310.24C73.0801 310.24 61.7901 332.06 62.5801 331.54C63.3701 331.02 79.7802 320.81 79.7802 320.81C79.9602 320.15 79.3202 343.69 79.3202 343.69Z" fill="#FDC050"/>
<path d="M85.8001 381.24L64.3701 358.29L79.2901 343.69L85.8001 381.24Z" fill="#F4A54B"/>
<path d="M66.9299 452.09C66.9299 452.09 67.1499 450.55 67.5299 447.95L66.3199 452.57L64.4199 358.29L82.6599 401.74L66.9299 452.09Z" fill="#E7C053"/>
<path d="M48.5702 425.38C48.5702 425.38 48.7402 364.57 48.5702 363.91C48.4002 363.25 39.7202 335.03 39.7202 334.35L64.4602 358.29L66.3502 452.57L48.5702 425.38Z" fill="#827140"/>
<path d="M67.1598 476.15L29.1598 477.92C29.1598 477.92 19.9398 481.03 19.0498 480.81C18.1598 480.59 3.31982 478.37 3.31982 478.37L4.21982 472.81L23.8598 473.65L41.9598 474.42L59.3198 470.65C59.3198 470.65 66.6898 468.78 66.9198 468.84C67.0598 472.88 67.1598 476.15 67.1598 476.15Z" fill="#827140"/>
<path d="M66.9198 468.81C66.6898 468.75 59.3198 470.62 59.3198 470.62L50.6498 448.98L48.5698 425.15L66.2598 452.34C66.3798 452.34 66.7198 461.82 66.9198 468.81Z" fill="#F3EB50"/>
<path d="M59.3198 470.62L42.0198 474.62L23.9098 473.84L13.2798 468.81L40.3598 458.21L59.3198 470.62Z" fill="#E7C053"/>
<path d="M23.91 473.84L4.27002 472.78L13.26 468.81H13.28L23.91 473.84Z" fill="#F4A54B"/>
<path d="M145.39 249.32L120.04 282.96C119.39 282.33 137.13 210.48 137.13 210.48C141.96 226.46 145.39 249.32 145.39 249.32Z" fill="#FDC050"/>
<path d="M139.72 309.69C139.72 309.69 130.32 320.98 126.72 325.96C129.3 320.28 134.64 306.03 134.64 305.77C134.64 305.51 121.48 288.38 120.03 284.89C119.03 289.29 100.87 317.83 100.87 317.83L122.35 333.26L125.46 355.51L142.87 338.58L139.72 309.69Z" fill="#FDC050"/>
<path d="M138.37 428.82L115.72 387.92C115.71 387.532 115.677 387.144 115.62 386.76C115.68 385.47 125.44 363.36 125.44 363.36L111.32 344.78C111.32 344.53 106.46 332.78 101.02 318.01L122.44 333.46L125.44 355.52L160.01 424.46L161.72 456.61L138.37 428.82Z" fill="#827140"/>
<path d="M125.43 363.32C125.43 363.32 115.67 385.43 115.61 386.72C115 379.62 111.31 345.38 111.31 344.78L125.43 363.32Z" fill="#F4A54B"/>
<path d="M160.01 424.41L125.43 355.51L142.84 338.58L157.44 375.24L160.01 424.41Z" fill="#E7C053"/>
<path d="M167.12 469.14L143.46 461.57L138.8 429.68L138.37 428.82L161.7 456.56L167.12 469.14Z" fill="#F4A54B"/>
<path d="M171.79 479.99L146.93 479.54C146.93 479.54 143.52 469.67 143.52 469.26V461.89L143.46 461.57L167.12 469.15L171.79 479.99Z" fill="#E7C053"/>
<path d="M173.38 483.67L159.46 488.15H147.1L141.32 481.04L143.57 469.7V469.29C143.57 469.7 146.98 479.57 146.98 479.57L171.84 480.02L173.38 483.67Z" fill="#827140"/>
<path d="M185.72 161.76L166.28 152.05L151.2 119.79L167.26 99.25C167.26 100.34 167.04 114.75 167.26 115.38C167.48 116.01 171.64 130.83 171.64 130.83C171.64 130.83 177.14 149.28 177.14 148.61C177.14 147.94 185.72 161.76 185.72 161.76Z" fill="#827140"/>
<path d="M166.23 152.05C166.23 152.05 158.08 159.54 154.17 163.41C153.02 162.26 144.1 154.57 142.38 153.31C144.99 154.03 165.1 152.05 166.23 152.05Z" fill="#827140"/>
<path d="M173.51 216.38L156.6 184.21L154.32 163.58L154.16 163.41C158.07 159.54 166.22 152.05 166.22 152.05L173.51 216.38Z" fill="#F3EB50"/>
<path d="M185.67 161.76L173.51 216.38L166.23 152.05L185.67 161.76Z" fill="#E7C053"/>
<path d="M112.19 69.53L88.4 83.84L80.1 88.84C80.1 88.84 72.51 84.97 71.9 84.31V84.22C72.16 84.05 68.53 76.8 66.27 72.34C66.49 72.15 70.61 67.74 70.69 67.64C74.37 70.41 81.79 75.81 82.06 75.99C82.33 76.17 99.89 65.99 104.93 63.82L112.19 69.53Z" fill="#827140"/>
<path d="M77.7 99.76L49.73 85.44L71.87 84.21L71.9 84.3L77.7 99.76Z" fill="#F3EB50"/>
<path d="M35.76 104.47L32.75 121.59L30.48 101.01L49.73 85.44L35.76 104.47Z" fill="#827140"/>
<path d="M37.6702 143.07L14.4302 151.55L14.2202 132.93L19.0102 120.82L32.7502 121.59L37.6702 143.07Z" fill="#F3EB50"/>
<path d="M37.4001 161.88C37.3902 161.921 37.3695 161.959 37.3401 161.99L18.7202 181.66L14.4102 151.55L37.4001 161.88Z" fill="#E7C053"/>
<path d="M19.4002 245.97L6.66016 243.51L11.1302 239.78L21.5702 241.93" fill="#CF975D"/>
<path d="M113.84 85.44L79.25 98.94L88.4 83.84L113.84 85.44Z" fill="#F3EB50"/>
<path d="M128.11 105.3L124.32 120.57C124.32 120.57 108.53 130.46 108.17 130.83C107.81 131.2 77.8901 124.83 77.8901 124.83L79.2901 98.96L113.84 85.46L128.11 105.3Z" fill="#F3EB50"/>
<path d="M166.23 152.05C165.1 152.05 144.99 154.05 142.38 153.31C142.282 153.215 142.161 153.146 142.03 153.11C141.51 151.98 144.8 125.79 144.8 125.79L151.16 119.79L166.23 152.05Z" fill="#F3EB50"/>
<path d="M170.74 237.64V242.17L165.45 243.92L170.74 237.64Z" fill="#9E6F5A"/>
<path d="M120.04 282.96L89.7798 230.15L99.7798 215.09L128.4 191.61C128.96 193.73 133.56 201.26 137.12 210.48C137.13 210.46 119.39 282.33 120.04 282.96Z" fill="#F3EB50"/>
<path d="M89.7702 230.15C89.7702 230.8 65.4402 230.15 65.4402 230.15L52.7202 204.6L54.0502 179.2C54.0502 179.2 63.9802 200.26 64.4602 200.56C64.9402 200.86 90.0002 200.56 90.0002 200.56L107.82 174.82C107.82 174.82 110.9 196.18 111.42 196.69C111.94 197.2 89.2502 229.46 89.7702 230.15Z" fill="#E7C053"/>
<path d="M97.6401 13.81L97.0201 23.98L91.1501 25.66L77.5101 31.15L65.0601 24.8L67.1401 13.38C67.1401 13.38 68.6201 24.27 68.9901 24.38C69.3601 24.49 77.6501 29.04 77.8501 28.91C78.0501 28.78 90.5301 23.51 90.5301 23.51L93.1701 14.51L97.6401 13.81Z" fill="#A46B32"/>
<path d="M86.3202 50.53L83.7602 51.09L71.9702 50.82C71.9702 50.82 70.7402 50.44 70.6802 50.44L72.3502 49.25C72.3502 49.25 81.4302 49.19 81.7502 49.25C82.0702 49.31 86.3202 50.53 86.3202 50.53Z" fill="#8F5729"/>
<path d="M82.5801 52.96C82.5801 52.96 80.4301 55.5 80.1801 55.42C79.9301 55.34 74.3901 55.42 74.3901 55.42L72.8301 52.96H82.5801Z" fill="#8F5729"/>
<path d="M96.2601 31.84C96.2601 31.84 94.0101 39.32 93.8101 39.39C93.6101 39.46 81.1201 39.96 80.8101 39.96L82.9001 33.15L93.3901 28.4L96.2601 31.84Z" fill="#FFFDFD" stroke="#231F20" stroke-linejoin="round"/>
<path d="M74.4901 39.96L67.4201 38.21L66.2801 37.93L64.6201 32.31L66.4301 28.75L73.9501 33.35L74.4901 39.96Z" fill="#FFFDFD" stroke="#231F20" stroke-linejoin="round"/>
<path d="M81.1802 43.29L94.3902 44.58L98.1502 52.42L94.9002 42.99L81.5002 43.22" fill="#6A3F26"/>
<path d="M107.45 13.29L94.4498 12.29L77.8498 14.73L67.4198 12.02L66.3198 8.82C66.3198 8.82 66.9498 7.68 67.7698 6.23L89.0798 8.65999L101.17 4.01L107.45 13.29Z" fill="#22201F"/>
<path d="M75.25 27.06C76.0166 27.5166 76.8078 27.9305 77.62 28.3C77.4084 26.6589 77.1114 25.0301 76.73 23.42C76.3316 23.0715 75.9667 22.6865 75.64 22.27L75.25 27.06Z" fill="#A46A33"/>
<path d="M78.1401 28.28L79.6401 25.68V27.49L78.1401 28.28Z" fill="#A46A33"/>
<path d="M71.8702 84.21L49.7202 85.46C48.9215 82.9132 47.9182 80.4351 46.7202 78.05L63.9702 68.57L70.6402 67.57C70.5602 67.67 66.4402 72.08 66.2202 72.27C68.5002 76.79 72.1302 84.04 71.8702 84.21Z" fill="#E7C053"/>
<path d="M50.8 75.81L30.48 79.52L51.33 79.87L50.8 75.81Z" fill="#827140"/>
<path d="M171.59 130.83L166.23 130.19L167.23 115.38C167.43 116.06 171.59 130.83 171.59 130.83Z" fill="#F4A54B"/>
<path d="M65.4102 230.08L40.1502 201.08L40.0902 201.02L49.1702 178.48C49.1702 178.48 43.8902 145.3 44.1102 141.76L32.7202 121.62L49.0502 136.88L66.0502 130.79L51.7202 144.09L54.0902 179.21L52.7602 204.61L65.3902 230.05L65.4102 230.08Z" fill="#827140"/>
<path d="M96.1098 156.74L98.3198 183.56L95.0498 188.36L94.7698 188.39L88.6298 197.1L76.5098 198.03V132.19L99.7998 143.07L96.1098 156.74Z" fill="#F3EB50"/>
<path d="M101.13 4.01L102.13 8.82L78.7201 13.38L66.3101 8.82C66.3101 8.82 66.9401 7.68 67.7601 6.23C69.1701 3.69 71.1401 0.160006 71.2001 5.72205e-06C71.2001 0.340006 78.5301 4.82999 78.5301 4.82999L82.4701 2.35L85.7701 4.01H101.13Z" fill="#22201F"/>
<path d="M97.64 13.81C97.64 13.81 101.91 11.54 101.87 11.7C101.83 11.86 99.22 24.91 99.22 24.91L97.02 23.98L97.64 13.81Z" fill="#3E383E"/>
<path d="M108 30.7V38.21L104.93 41.71L108 30.7Z" fill="#AB8569"/>
<path d="M104.93 41.71L103.02 41.55L108 30.7L107.43 36.2L104.93 41.71Z" fill="#AB8569"/>
<path d="M79.64 17.25C79.64 17.05 69.29 9.58 69.29 9.58C69.29 9.58 70.98 0.769998 71.17 1.02C71.36 1.27 77.62 8.62 77.62 8.62L79.64 17.25Z" fill="#3E383E"/>
<path d="M63.1699 42.68L73.7199 43.91C73.7199 43.91 76.5199 45.64 76.3599 45.48L73.9099 43.02L63.1699 42.68Z" fill="#6A3F26"/>
<path d="M128.92 75.36L113.84 85.44L88.3999 83.84L110.56 70.51L104.94 63.77L113.13 66.81L128.92 75.36Z" fill="#E7C053"/>
<path d="M129.14 134.52C128.96 134.94 116.33 144.87 116.33 144.87L115.45 151.2L129.14 134.52Z" fill="#827140"/>
<path d="M128.41 141.7C128.27 142.14 117.41 154.77 117.41 154.77L117.09 160.19L128.41 141.7Z" fill="#827140"/>
<path d="M126.67 165.06L125.83 167.49L126.35 165.89L126.67 165.06Z" fill="#A02889"/>
<path d="M74.9401 136.4C75.3701 137.5 74.1001 152.31 74.1001 152.31L60.1001 153.25L63.1001 139.25L74.9401 136.4Z" fill="#F3EB50"/>
<path d="M73.4698 164.28L73.0498 189.96L59.2998 186.13L61.6698 166.63L73.4698 164.28Z" fill="#F3EB50"/>
<path d="M100.95 317.7L100.89 317.83C93.4401 292.83 90.0201 262.75 90.0201 262.75L85.8001 294.36C85.8001 294.36 79.8001 320.24 79.7301 320.81C79.7301 320.81 76.8201 322.63 73.3701 324.76L79.7701 304.16L88.1501 253.99L80.4201 251.74L76.9401 245.09L82.7201 249.15L90.0501 248.86C90.0501 248.86 94.3001 255.86 94.7801 256.72C95.2601 257.58 100.05 313.15 100.95 317.7Z" fill="#F4A54B"/>
<path d="M40.3198 458.21L50.6098 448.98C50.6098 448.98 59.8798 471.46 59.3198 470.85C58.7598 470.24 40.3198 458.21 40.3198 458.21Z" fill="#F4A54B"/>
<path d="M188.61 215.93V216.38H173.51L191.39 185.62V185.76C191.89 188.38 188.61 215.93 188.61 215.93Z" fill="#827140"/>
<path d="M74.1299 62.7C74.2699 62.55 76.1299 59.53 76.1299 59.53L82.3999 59.26L86.2899 62.7L78.8699 63.7L74.1299 62.7Z" fill="#9C6636"/>
<path d="M139.93 132.19L135.71 147.59L125.83 167.49L126.67 165.06L126.35 165.89L133.4 142.26L134.27 127.56L128.11 105.3L138.57 125.27L139.93 132.19Z" fill="#F4A54B"/>
<path d="M85.8001 381.24L82.6101 401.74L64.3701 358.29L85.8001 381.24Z" fill="#F4A54B"/>
<path d="M144.79 125.79C144.79 125.79 141.5 151.98 142.02 153.11C141.34 153.11 138.02 124.32 138.02 124.32L125.02 108.57L113.84 85.46L135.72 97.09V112.64L151.16 119.81L144.79 125.79Z" fill="#827140"/>
<path d="M73.4702 154.28V162.66L61.4502 163.41L66.3802 155.33L73.4702 154.28Z" fill="#F3EB50"/>
<path d="M103.64 146.64C103.64 146.64 99.87 155.42 100.32 155.87C100.77 156.32 105.59 170.15 105.59 170.15L107.2 155.84L103.64 146.64Z" fill="#827140"/>
<path d="M96.1002 156.74L76.5002 153.31L75.2002 157.73L96.2402 158.43L98.1202 157.38L96.1002 156.74Z" fill="#E7C053"/>
<path d="M99.2198 170.92C99.5398 170.82 99.6298 174.8 99.6298 174.8L75.0298 167.46V162.86C75.0298 162.86 98.8998 171.03 99.2198 170.92Z" fill="#E7C053"/>
</g>
<defs>
<clipPath id="clip0">
<rect width="191.44" height="488.12" fill="white"/>
</clipPath>
</defs>
</svg>
