<svg width="193" height="489" viewBox="0 0 193 489" fill="none" xmlns="http://www.w3.org/2000/svg">
<path d="M89 47.7901C89.9063 48.4743 90.5632 49.4368 90.87 50.5301C90.9718 51.2896 90.8244 52.0615 90.45 52.7301C90.0676 53.3911 89.5965 53.9967 89.05 54.5301C86.27 57.4401 82.68 59.7801 78.65 60.2301C77.9188 60.3376 77.1733 60.2934 76.46 60.1001C75.6716 59.817 74.9786 59.318 74.46 58.6601C74.0286 58.1405 73.6687 57.5653 73.39 56.9501C73.2473 56.5729 73.0733 56.2084 72.87 55.8601C72.21 54.8101 70.87 54.2901 70.27 53.2301C69.7622 52.1213 69.6493 50.872 69.95 49.6901C69.9445 49.5465 69.9839 49.4048 70.0628 49.2847C70.1416 49.1645 70.2561 49.0721 70.39 49.0201C72.9577 47.7932 75.8026 47.2622 78.64 47.4801C81.4605 47.7098 84.2917 47.7799 87.12 47.6901C88.12 47.6101 89.21 47.5301 89.82 48.2601" fill="#C68651"/>
<path d="M95.8101 43.5601L82.4401 43.7901C82.1401 43.7901 77.2501 46.0501 77.2501 46.0501L74.8 43.5901L64.8 43.3301L66.1401 49.8001L68.6201 56.4201L75.05 63.2701H87.1701L99.0701 53.0001L95.8101 43.5601ZM82.8101 55.9901C82.5601 55.9101 77.0101 55.9901 77.0101 55.9901L75.4501 53.5301H85.2101C85.2101 53.5301 83.0001 56.0701 82.7701 56.0001L82.8101 55.9901ZM73.33 50.9901L75.0001 49.8001C75.0001 49.8001 84.0701 49.7401 84.3901 49.8001C84.7101 49.8601 88.9601 51.0801 88.9601 51.0801L73.33 50.9901Z" fill="#A6662F"/>
<path d="M71.9199 0.570068L78.5799 2.41006L86.4899 0.570068L101.88 4.59006L88.2699 7.95006L75.8399 7.26006L71.9199 0.570068Z" fill="#3E383E"/>
<path d="M189.36 216.5V217H174.26L186.42 162.38C186.42 162.38 191.68 185.58 192.14 186.24V186.38C192.64 189 189.36 216.5 189.36 216.5Z" fill="#5A5755"/>
<path d="M184.01 216.95L178.82 244.5L173.67 230.72L167.7 228.73L167.84 228.27L174.26 216.95H184.01Z" fill="#A4682F"/>
<path d="M178.82 244.5L168.51 247.94L166.19 244.5L171.49 242.74V238.21L166.19 244.5L163.8 240.94L167.7 228.73L173.67 230.72L178.82 244.5Z" fill="#85491F"/>
<path d="M191.42 243.38L186.71 247.94H168.51L178.82 244.5L191.42 243.38Z" fill="#4B1D11"/>
<path d="M189.36 216.95L191.42 243.38L178.82 244.5L184.01 216.95H189.36Z" fill="#85491F"/>
<path d="M168 99.75V99.82L151.9 120.36L136.46 113.19V97.65L154.94 80H155.27L168 99.75Z" fill="#29272C"/>
<path d="M154.94 79.9799L136.45 97.6499L114.59 86.0099L129.67 75.9399L129.89 76.0399L154.94 79.9799Z" fill="#A1A0A0"/>
<path d="M105 66.5799C99.9999 68.7099 83.1199 76.7299 82.8099 76.5099C82.4999 76.2899 75.1199 70.9299 71.4399 68.1599L81.9099 71.9399L105.64 61.6599L105.7 65.5099L105 66.5799Z" fill="#70411E"/>
<path d="M105 55.52L105.61 61.65L81.8799 71.93L71.4099 68.15L72.5699 62.69L74.4299 64.92H87.0399L105 55.52Z" fill="#622F13"/>
<path d="M103.52 45.8299L104.09 45.2299L103.52 45.8299L105.04 55.5199L87.04 64.9199L98.9 52.9999C99.8215 48.8963 101.1 44.8811 102.72 40.9999C102.87 40.5899 103.52 45.6499 103.52 45.8299Z" fill="#471E12"/>
<path d="M98.8999 53L87.0499 64.93H74.45L72.5899 62.7L68.2399 56.7L65.9999 50L63.9399 43.3L65.2899 43.37L66.6299 49.84L69.1099 56.4601L74.8999 63.31H86.9999L98.8999 53Z" fill="#78421B"/>
<path d="M109.78 29V39.1499L103.52 45.84C103.52 45.66 102.87 40.6 102.72 40.96C105.27 34.96 107.85 28.96 107.94 28.96L109.78 29Z" fill="#70411E"/>
<path d="M108.2 13.8601L108.06 28.8601L97.7701 24.5101L98.3901 14.3401L93.9201 15.0701L80.9201 18.5901L67.9201 13.9101L65.8401 25.3301L67.0601 9.33012C67.0601 9.33012 78.3301 11.7701 78.5801 11.7701C78.8301 11.7701 96.1801 10.1601 96.5801 10.0401C96.9801 9.92012 102.08 7.91012 102.37 7.62012L108.2 13.8601Z" fill="#22201F"/>
<path d="M93.9201 15.11L91.2801 24.11C91.2801 24.11 78.7801 29.38 78.6001 29.51C78.4201 29.64 70.1201 25.11 69.7401 24.99C69.3601 24.87 67.8901 13.99 67.8901 13.99L80.3901 18.48L93.9201 15.11Z" fill="#A6662F"/>
<path d="M108.18 28.9901L102.06 31.06L96.98 32.58L94.14 29.14L91.76 26.28L97.77 24.55L108.01 28.9L108.18 28.9901Z" fill="#A1A0A0"/>
<path d="M102.39 30.8701C102.39 30.8701 97.5499 39.8701 96.0999 42.7401C95.9999 42.9301 95.9199 43.0801 95.8399 43.2101L95.6799 43.5101V43.5601L82.2999 43.7901C81.9999 43.7901 77.1199 46.0501 77.1199 46.0501L74.6699 43.5901L65.6699 43.3301L63.9199 43.2601L68.1699 38.7801L75.2399 40.5301L76.6599 33.5901L67.1799 29.3201L65.5299 25.7401L65.8099 25.3701L78.2599 31.7201L91.8999 26.2301L94.1599 28.9701L80.3899 33.9701L81.5799 40.5401C81.8699 40.5401 94.3499 40.0401 94.5799 39.9701C94.8099 39.9001 97.0299 32.4201 97.0299 32.4201L102.39 30.8701Z" fill="#29272C"/>
<path d="M76.6599 33.5901L75.2499 40.5301L74.7 33.9201L67.1799 29.3201L76.6599 33.5901Z" fill="#29272C"/>
<path d="M68.17 38.78L63.92 43.25L63.03 34.15V28.99L65.53 25.74L67.18 29.32L65.37 32.88L67.03 38.5L68.17 38.78Z" fill="#A1A0A0"/>
<path d="M94.1601 28.97L83.6701 33.72L81.5801 40.53L80.3901 33.96L94.1601 28.97Z" fill="#29272C"/>
<path d="M108.18 29C107.93 29.36 105.44 35.14 102.97 40.94L102.85 41.21C100.64 46.37 99.5901 51.57 99.0201 52.74C99.0201 52.74 98.9701 52.9 98.9501 52.94C98.9315 52.9763 98.904 53.0073 98.8701 53.03L95.6001 43.55V43.5C95.6589 43.403 95.7123 43.3028 95.7601 43.2C95.8401 43.07 95.9201 42.92 96.0201 42.73C97.5501 39.92 102.31 30.86 102.31 30.86L107.79 29.08L108.09 28.98L108.18 29Z" fill="#5A5755"/>
<path d="M99.07 184.13L95.79 188.93L77.25 191.12V132.76L100.54 143.64L96.85 157.31L99.07 184.13ZM84.07 131.38C84.07 131.38 109.44 136.03 110.13 135.86C110.82 135.69 131.22 119.64 131.86 119.14L112.2 143.64L84.07 131.38ZM139.37 134.23L128.87 105.87L122.55 120.36C122.55 120.36 107.55 129.03 107.19 129.36C106.83 129.69 78.62 125.36 78.62 125.36L80.02 99.4901L89.16 84.3901L80.86 89.3901C80.86 89.3901 73.27 85.5201 72.66 84.8601L78.46 100.32L74.35 125.6L50.53 133.26L33.53 122.15L49.86 137.41L66.86 131.32L52.52 144.62L54.89 179.74C54.89 179.74 64.83 200.8 65.3 201.11C65.77 201.42 90.85 201.11 90.85 201.11L108.67 175.36L126.67 168.05C126.67 167.93 126.67 167.87 126.67 167.87L127.21 166.45L139.37 134.23Z" fill="#40403E"/>
<path d="M131.85 119.14L112.19 143.64L84.0601 131.38C84.0601 131.38 109.43 136.03 110.12 135.86C110.81 135.69 131.21 119.64 131.85 119.14Z" fill="#29272C"/>
<path d="M78.45 100.33L74.34 125.61L50.52 133.27L33.5 122.16L36.51 105.04L50.48 86.01L78.45 100.33Z" fill="#A1A0A0"/>
<path d="M50.4801 86.0001L31.2301 101.57L17.0901 95.2001L31.2301 80.1001L47.9201 79.8701L48.4601 79.6201C49.7401 81.6101 50.4801 86.0001 50.4801 86.0001Z" fill="#A1A0A0"/>
<path d="M19.7601 121.39L19.8101 121.25L17.0901 95.21L31.2301 101.58L33.5001 122.16L19.7601 121.39Z" fill="#40403E"/>
<path d="M53.4999 205.15L66.1899 230.7L64.9999 228.88L64.5099 228.12L64.2399 227.71L63.6699 226.81L63.0299 225.81L62.6899 225.28L61.6099 223.6L60.4399 221.78L59.6299 220.51L58.7899 219.21L58.3699 218.55L57.5499 217.26L56.1699 215.12L55.3599 213.86L54.5199 212.53C50.7399 206.64 40.8799 201.82 40.8199 201.53L49.9199 179C49.9199 179 47.6399 144.79 47.8599 141.25C47.5699 142.01 46.5399 144.18 45.2299 146.85C45.1399 147.42 43.7299 155.53 43.5799 155.85C43.4299 156.17 38.1599 162.45 38.1599 162.45L15.1599 152.12L38.3999 143.63L33.4899 122.15L49.8199 137.41L66.8199 131.32L52.4799 144.62L54.8499 179.74L53.4999 205.15Z" fill="#5A5755"/>
<path d="M15.1799 152.12L19.4899 182.23L8.7699 217.35L1.16992 213.84L7.00992 163.19L15.1799 152.12Z" fill="#A1A0A0"/>
<path d="M38.09 162.56L37.38 176.25L15.61 217.61L8.77002 217.35L19.49 182.23L38.09 162.56Z" fill="#5A5755"/>
<path d="M13.65 233.11L4.10001 246.41L0.75 232.27L1.17001 213.84L8.76999 217.35L13.65 233.11Z" fill="#874A20"/>
<path d="M22.44 229.74L13.65 233.11L8.77002 217.35L15.61 217.61L22.32 229.39L22.44 229.74Z" fill="#A76931"/>
<path d="M25.9099 239.83L22.3199 242.5L13.6499 233.11L22.4399 229.74L25.9099 239.83Z" fill="#804A1F"/>
<path d="M22.3201 242.5L20.1401 246.54L19.3901 247.94L4.12009 246.49L4.1001 246.41L13.6501 233.11L22.3201 242.5Z" fill="#471914"/>
<path d="M129.16 192.18L100.54 215.66L90.5401 230.72C90.0201 230.04 112.72 197.72 112.21 197.24C111.7 196.76 108.61 175.37 108.61 175.37L126.61 168.06C126.85 170.22 129.06 190.81 129.06 191.65C129.079 191.829 129.113 192.006 129.16 192.18V192.18Z" fill="#5A5755"/>
<path d="M66.2 230.72L58.8 287.51L30 266.93L40.89 201.57C41.04 202.18 65.67 229.82 66.24 230.7L66.2 230.72Z" fill="#A1A0A0"/>
<path d="M146.14 249.89L140.44 310.26C140.44 310.26 131.04 321.55 127.49 326.53C130.07 320.85 135.42 306.6 135.42 306.34C135.42 306.08 122.25 289 120.8 285.46C120.9 285.04 120.9 284.82 120.8 284.84C120.7 284.86 120.68 285.08 120.8 285.46C119.8 289.68 102.63 316.29 101.7 318.27L101.64 318.4C94.19 293.4 89.92 257.83 89.92 257.83L86.55 294.93C86.55 294.93 80.55 320.82 80.48 321.38C80.48 321.38 77.57 323.2 74.12 325.33L63.28 332.11C62.49 332.63 73.78 310.81 73.78 310.81L58.78 287.51L66.18 230.72C66.18 230.72 90.51 231.39 90.51 230.72L120.77 283.51L146.14 249.89Z" fill="#5A5755"/>
<path d="M58.7999 287.51L43.0599 321.6L29.95 266.94L58.7999 287.51Z" fill="#5A5755"/>
<path d="M80.0001 344.26L65.0801 358.86L40.3401 334.93L42.5201 323.29L42.7901 322.38L43.0201 321.6L58.7601 287.51L73.7601 310.81C73.7601 310.81 62.4701 332.63 63.2601 332.11C64.0501 331.59 80.4601 321.38 80.4601 321.38C80.7101 320.71 80.0001 344.26 80.0001 344.26Z" fill="#40403E"/>
<path d="M86.5501 381.81L65.1201 358.86L80.0401 344.26L86.5501 381.81Z" fill="#C7C6C1"/>
<path d="M67.6701 452.66C67.6701 452.66 67.9001 451.12 68.2801 448.52L67.0001 453.14L65.1001 358.86L83.3401 402.31L67.6701 452.66Z" fill="#29272C"/>
<path d="M49.3199 426C49.3199 426 49.4899 365.19 49.2699 364.53C49.0499 363.87 40.3799 335.65 40.3799 334.98L65.1199 358.91L66.9999 453.14L49.3199 426Z" fill="#5A5755"/>
<path d="M67.9101 476.69L29.9101 478.46C29.9101 478.46 20.69 481.57 19.8 481.35C18.91 481.13 4.07007 478.91 4.07007 478.91L4.97006 473.35L24.61 474.19L42.7101 474.96L60.0201 471.19C60.0201 471.19 67.3901 469.32 67.6201 469.38C67.8001 473.46 67.9101 476.69 67.9101 476.69Z" fill="#40403E"/>
<path d="M67.6701 469.38C67.4401 469.32 60.0701 471.19 60.0701 471.19L51.4001 449.55L49.3201 425.72L67.0001 452.91C67.1201 452.91 67.4501 462.39 67.6701 469.38Z" fill="#40403E"/>
<path d="M60.07 471.19L42.76 475.19L24.66 474.41L14.02 469.38L41.11 458.79L60.07 471.19Z" fill="#C7C6C1"/>
<path d="M24.66 474.41L5.02002 473.35L14.01 469.38H14.02L24.66 474.41Z" fill="#29272C"/>
<path d="M146.14 249.89L120.79 283.53C120.14 282.9 137.88 211.06 137.88 211.06C142.71 227 146.14 249.89 146.14 249.89Z" fill="#40403E"/>
<path d="M140.44 310.26C140.44 310.26 131.03 321.55 127.49 326.53C130.07 320.85 135.41 306.6 135.41 306.34C135.41 306.08 122.24 289 120.8 285.46C119.8 289.86 101.64 318.4 101.64 318.4L123.07 333.83L126.18 356.08L143.59 339.15L140.44 310.26Z" fill="#40403E"/>
<path d="M139.12 429.39L116.46 388.49C116.46 388.49 116.46 388.07 116.36 387.33C116.42 386.04 126.18 363.93 126.18 363.93L112.06 345.39C112.06 345.14 107.2 333.39 101.76 318.62L123.19 334L126.19 356.06L160.76 425L162.45 457.15L139.12 429.39Z" fill="#5A5755"/>
<path d="M126.18 363.89C126.18 363.89 116.42 386 116.36 387.29C115.75 380.19 112.06 345.95 112.06 345.35L126.18 363.89Z" fill="#C7C6C1"/>
<path d="M160.76 424.98L126.18 356.08L143.59 339.15L158.19 375.81L160.76 424.98Z" fill="#29272C"/>
<path d="M167.87 469.71L144.21 462.14L139.55 430.25L139.12 429.39L162.45 457.13L167.87 469.71Z" fill="#40403E"/>
<path d="M172.54 480.56L147.68 480.11C147.68 480.11 144.27 470.24 144.27 469.83V462.47L144.21 462.14L167.87 469.71L172.54 480.56Z" fill="#C7C6C1"/>
<path d="M174.13 484.24L160.21 488.69H147.85L142 481.58L144.25 470.24V469.83C144.25 470.24 147.66 480.11 147.66 480.11L172.52 480.56L174.13 484.24Z" fill="#40403E"/>
<path d="M186.42 162.33L167 152.62L151.9 120.36L168 99.8201C168 100.91 167.78 115.32 168 115.95C168.22 116.58 172.38 131.4 172.38 131.4C172.38 131.4 177.88 149.85 177.88 149.18C177.88 148.51 186.42 162.33 186.42 162.33Z" fill="#5A5755"/>
<path d="M167 152.62C167 152.62 158.85 160.11 154.94 163.98C153.79 162.83 144.86 155.14 143.15 153.88C145.74 154.61 165.85 152.62 167 152.62Z" fill="#40403E"/>
<path d="M174.26 217L157.35 184.83L155.08 164.2L154.92 164.03C158.83 160.16 166.98 152.67 166.98 152.67L174.26 217Z" fill="#A1A0A0"/>
<path d="M186.42 162.33L174.26 216.95L166.98 152.62L186.42 162.33Z" fill="#40403E"/>
<path d="M112.94 70.0999L89.15 84.4099L80.85 89.4099C80.85 89.4099 73.26 85.5399 72.65 84.8799V84.7899C72.91 84.6199 69.28 77.3699 67.02 72.9099C67.24 72.7199 71.36 68.3099 71.44 68.2099C75.12 70.9799 82.54 76.3799 82.81 76.5599C83.08 76.7399 100.64 66.5599 105.68 64.3899L112.94 70.0999Z" fill="#5A5755"/>
<path d="M78.45 100.33L50.48 86.01L72.62 84.78L72.65 84.87L78.45 100.33Z" fill="#C7C6C1"/>
<path d="M36.51 105.04L33.5 122.16L31.23 101.58L50.48 86.01L36.51 105.04Z" fill="#5A5755"/>
<path d="M38.42 143.64L15.18 152.12L14.97 133.5L19.76 121.39L33.5 122.16L38.42 143.64Z" fill="#A1A0A0"/>
<path d="M38.1499 162.46L38.0899 162.56L19.4899 182.23L15.1799 152.12L38.1499 162.46Z" fill="#40403E"/>
<path d="M20.1399 246.54L7.40991 244.08L11.8799 240.36L22.3199 242.5" fill="#804A1F"/>
<path d="M114.59 86.0099L80 99.5099L89.15 84.4099L114.59 86.0099Z" fill="#C7C6C1"/>
<path d="M128.86 105.87L125 121.14C125 121.14 109.24 131 108.88 131.4C108.52 131.8 78.6001 125.4 78.6001 125.4L80.0001 99.53L114.59 86L128.86 105.87Z" fill="#A1A0A0"/>
<path d="M167 152.62C165.87 152.62 145.76 154.62 143.15 153.88C143.052 153.785 142.932 153.716 142.8 153.68C142.28 152.55 145.57 126.37 145.57 126.37L151.93 120.37L167 152.62Z" fill="#A1A0A0"/>
<path d="M171.49 238.21V242.74L166.19 244.5L171.49 238.21Z" fill="#4B1D11"/>
<path d="M120.79 283.53L90.53 230.74L100.53 215.68L129.15 192.2C129.71 194.32 134.31 201.85 137.87 211.08C137.88 211.06 120.14 282.9 120.79 283.53Z" fill="#A1A0A0"/>
<path d="M90.52 230.72C90.52 231.37 66.19 230.72 66.19 230.72L53.49 205.17L54.82 179.77C54.82 179.77 64.75 200.83 65.23 201.14C65.71 201.45 90.77 201.14 90.77 201.14L108.59 175.39C108.59 175.39 111.67 196.75 112.19 197.26C112.71 197.77 90 230 90.52 230.72Z" fill="#29272C"/>
<path d="M98.3901 14.38L97.7701 24.55L91.9001 26.23L78.2601 31.72L65.8101 25.37L67.8901 14C67.8901 14 69.3701 24.89 69.7401 25C70.1101 25.11 78.4001 29.65 78.6001 29.52C78.8001 29.39 91.2801 24.12 91.2801 24.12L93.9201 15.12L98.3901 14.38Z" fill="#83491F"/>
<path d="M88.92 51.1001L86.37 51.6601L74.57 51.3901C74.57 51.3901 73.34 51.0101 73.29 51.0101L74.96 49.8201C74.96 49.8201 84.03 49.7601 84.35 49.8201C84.67 49.8801 88.92 51.1001 88.92 51.1001Z" fill="#8F5729"/>
<path d="M85.1699 53.53C85.1699 53.53 83.0099 56.07 82.7699 55.99C82.5299 55.91 76.9699 55.99 76.9699 55.99L75.4099 53.53H85.1699Z" fill="#8F5729"/>
<path d="M97.0001 32.41C97.0001 32.41 94.75 39.89 94.55 39.96C94.35 40.03 81.86 40.53 81.55 40.53L83.6401 33.72L94.1601 29L97.0001 32.41Z" fill="#FFFDFD" stroke="#231F20" stroke-linejoin="round"/>
<path d="M75.2501 40.5301L68.1701 38.7801L67.0301 38.5001L65.3701 32.8801L67.1801 29.3201L74.7001 33.9201L75.2501 40.5301Z" fill="#FFFDFD" stroke="#231F20" stroke-linejoin="round"/>
<path d="M81.9299 43.8701L95.14 45.1501L98.8999 53.0001L95.6499 43.5701L82.2499 43.8001" fill="#6A3F26"/>
<path d="M108.2 13.8601L95.2 12.8601L78.6 15.3001L68.17 12.5901L67 9.39009L68.45 6.80009L89.76 9.23009L101.85 4.59009L108.2 13.8601Z" fill="#22201F"/>
<path d="M76 27.6301C76.7714 28.0872 77.5658 28.5044 78.38 28.8801C78.38 28.8801 77.66 24.0301 77.49 23.9901C77.0899 23.6434 76.7248 23.2582 76.4 22.8401L76 27.6301Z" fill="#A46A33"/>
<path d="M78.8901 28.85L80.3901 26.25V28.06L78.8901 28.85Z" fill="#A46A33"/>
<path d="M72.62 84.7801L50.48 86.0001C49.6813 83.4533 48.678 80.9752 47.48 78.5901L64.73 69.1101L71.4 68.1101C71.32 68.2101 67.2 72.6201 66.98 72.8101C69.25 77.3601 72.88 84.6101 72.62 84.7801Z" fill="#40403E"/>
<path d="M51.55 76.3799L31.23 80.0899L52.08 80.4399L51.55 76.3799Z" fill="#40403E"/>
<path d="M172.34 131.4L166.98 130.76L168 116C168.18 116.63 172.34 131.4 172.34 131.4Z" fill="#40403E"/>
<path d="M66.16 230.65L40.9 201.64L40.84 201.57L49.92 179C49.92 179 44.64 145.82 44.86 142.28L33.51 122.16L49.84 137.42L66.84 131.33L52.5 144.63L54.87 179.75L53.55 205.15L66.18 230.59C66.1694 230.608 66.1626 230.629 66.16 230.65V230.65Z" fill="#5A5755"/>
<path d="M96.86 157.31L99.07 184.13L95.8 188.93L95.52 188.96L89.38 197.67L77.26 198.6V132.76L100.55 143.64L96.86 157.31Z" fill="#A1A0A0"/>
<path d="M101.88 4.59006L102.88 9.39006L79.52 14.0001L67 9.39006L68.45 6.80006C69.86 4.26006 71.83 0.730068 71.89 0.570068C71.89 0.920068 79.21 5.40005 79.21 5.40005L83.16 2.92006L86.46 4.59006H101.88Z" fill="#22201F"/>
<path d="M98.3901 14.38C98.3901 14.38 102.66 12.11 102.62 12.27C102.58 12.43 100 25.48 100 25.48L97.8 24.55L98.3901 14.38Z" fill="#3E383E"/>
<path d="M108.75 31.27V38.78L105.67 42.28L108.75 31.27Z" fill="#5C3412"/>
<path d="M105.67 42.28L103.77 42.13L108.75 31.27L108.18 36.77L105.67 42.28Z" fill="#5C3412"/>
<path d="M80.39 17.82C80.39 17.63 70.04 10.1499 70.04 10.1499C70.04 10.1499 71.73 1.33994 71.92 1.58994C72.11 1.83994 78.37 9.18994 78.37 9.18994L80.39 17.82Z" fill="#3E383E"/>
<path d="M63.9199 43.26L74.4499 44.48C74.4499 44.48 77.2499 46.21 77.0899 46.05L74.6399 43.59L63.9199 43.26Z" fill="#6A3F26"/>
<path d="M129.67 75.9401L114.59 86.0101L89.1499 84.4101L111.31 71.0801L105.69 64.3401L113.88 67.3801L129.67 75.9401Z" fill="#40403E"/>
<path d="M129.89 135.09C129.71 135.51 117.08 145.44 117.08 145.44L116.2 151.77L129.89 135.09Z" fill="#29272C"/>
<path d="M129.16 142.28C129.02 142.71 118.16 155.34 118.16 155.34L117.84 160.76L129.16 142.28Z" fill="#29272C"/>
<path d="M127.42 165.63L126.58 168.06L127.1 166.46L127.42 165.63Z" fill="#A02889"/>
<path d="M75.6901 137C76.1201 138.1 74.8401 152.91 74.8401 152.91L60.8401 153.85L63.7901 139.85L75.6901 137Z" fill="#A1A0A0"/>
<path d="M74.2201 164.86L73.8 190.54L60.05 186.7L62.4201 167.2L74.2201 164.86Z" fill="#A1A0A0"/>
<path d="M101.7 318.27L101.64 318.4C94.1901 293.4 90.7701 263.32 90.7701 263.32L86.5501 294.93C86.5501 294.93 80.5501 320.82 80.4801 321.38C80.4801 321.38 77.5701 323.2 74.1201 325.33L80.5201 304.73L88.9001 254.56L81.1701 252.31L77.6901 245.66L83.4601 249.75L90.7901 249.46C90.7901 249.46 95.0401 256.46 95.5201 257.32C96.0001 258.18 100.8 313.68 101.7 318.27Z" fill="#29272C"/>
<path d="M41.1099 458.79L51.3999 449.55C51.3999 449.55 60.6299 472 60.0799 471.42C59.5299 470.84 41.1099 458.79 41.1099 458.79Z" fill="#29272C"/>
<path d="M189.36 216.5V217H174.26L192.14 186.24V186.38C192.64 189 189.36 216.5 189.36 216.5Z" fill="#A1A0A0"/>
<path d="M74.8799 63.2701C75.0199 63.1201 76.8799 60.1001 76.8799 60.1001L83.1499 59.8301L87.0399 63.2701L79.6199 64.2701L74.8799 63.2701Z" fill="#78421B"/>
<path d="M140.68 132.76L136.46 148.16L126.58 168.06L127.42 165.63L127.1 166.46L134.15 142.83L135.02 128.13L128.87 105.87L139.32 125.85L140.68 132.76Z" fill="#29272C"/>
<path d="M86.5501 381.81L83.3601 402.31L65.1201 358.86L86.5501 381.81Z" fill="#C7C6C1"/>
<path d="M145.54 126.37C145.54 126.37 142.25 152.55 142.77 153.68C142.09 153.68 138.82 124.89 138.82 124.89L125.76 109.14L114.59 86L136.46 97.64V113.18L151.9 120.35L145.54 126.37Z" fill="#5A5755"/>
<path d="M74.2199 154.85V163.24L62.2 163.98L67.1299 155.9L74.2199 154.85Z" fill="#A1A0A0"/>
<path d="M104.39 147.21C104.39 147.21 100.62 155.99 101.07 156.44C101.52 156.89 106.34 170.75 106.34 170.75L108 156.44L104.39 147.21Z" fill="#29272C"/>
<path d="M96.8499 157.31L77.2499 153.88L75.9399 158.3L96.9899 159L98.8699 157.95L96.8499 157.31Z" fill="#5A5755"/>
<path d="M100 171.5C100.32 171.39 100.41 175.37 100.41 175.37L75.8101 168.06V163.43C75.8101 163.43 99.6501 171.6 100 171.5Z" fill="#5A5755"/>
</svg>
