<svg width="193" height="497" viewBox="0 0 193 497" fill="none" xmlns="http://www.w3.org/2000/svg">
<path d="M95.8301 43.91L82.3801 44.14C82.0801 44.14 77.1701 46.45 77.1701 46.45L74.7001 44L66.8901 43.73L68.2401 50.3L70.7401 57.03L74.9501 64.03H87.1401L97.8301 53.5L95.8301 43.91ZM82.7101 56.54C82.4601 56.46 76.8901 56.54 76.8901 56.54L75.3201 54.05H85.1301C85.1301 54.05 83.0001 56.63 82.7101 56.54ZM73.1801 51.54L74.8601 50.33C74.8601 50.33 83.9901 50.26 84.3101 50.33C84.6301 50.4 88.9001 51.62 88.9001 51.62L73.1801 51.54Z" fill="#E4B17B"/>
<path d="M71.97 0.22998L78.67 2.09999L86.62 0.22998L102.1 4.30998L88.41 7.71999L75.92 7.02998L71.97 0.22998Z" fill="#3F383E"/>
<path d="M190 219.65V220.11H175.86L184.67 165.91C184.67 165.91 190.31 188.27 190.77 188.91V189.06C191.28 191.75 190 219.65 190 219.65Z" fill="#3C6A4C"/>
<path d="M184.67 220.11L179.44 248.1L174.26 234.1L168.26 232.08L168.41 231.62L175.86 220.11H184.67Z" fill="#E4B37C"/>
<path d="M179.44 248.1L169.08 251.6L166.75 248.1L172.08 246.32V241.72L166.75 248.1L164.35 244.48L168.26 232.08L174.26 234.1L179.44 248.1Z" fill="#D1925E"/>
<path d="M192.11 246.97L187.38 251.6H169.08L179.44 248.1L192.11 246.97Z" fill="#9E6F5A"/>
<path d="M190.04 220.11L192.11 246.97L179.44 248.1L184.67 220.11H190.04Z" fill="#D1925E"/>
<path d="M165.92 103.37V103.44L152.38 122L136.85 114.71V98.91L155.44 82.59L155.77 82.64L165.92 103.37Z" fill="#26342D"/>
<path d="M155.44 82.55L136.85 98.87L114.87 87.05L130.03 78.43L130.25 78.54L155.44 82.55Z" fill="#5ECC6B"/>
<path d="M146 128.06C146 128.06 147.35 153.93 147.88 155.06C147.19 155.06 139.74 127.51 139.74 127.51L129.23 107.21L114.88 87.03L136.88 98.85V114.65L152.38 122L146 128.06Z" fill="#3C6A4C"/>
<path d="M105.24 67.31C100.17 69.47 83.2399 77.62 82.9299 77.4C82.6199 77.18 75.6699 71.92 71.9299 69.1L81.9999 72.76L103.61 62.29V66.57L105.24 67.31Z" fill="#D0A17F"/>
<path d="M103.68 56.07V62.28L82 72.76L72 69.1L72.69 63.36L74.57 65.63H87.24L103.68 56.07Z" fill="#BB865E"/>
<path d="M103.74 46.22L104.31 45.61L103.74 46.22L103.68 56.07L87.1899 65.62L97.8299 53.41C97.8299 53.41 100.37 47.34 102.93 41.26C103.09 40.9 103.74 46 103.74 46.22Z" fill="#966C54"/>
<path d="M97.8299 53.41L87.1899 65.62H74.5199L72.64 63.35L70.5199 57.24L68.2499 50.42L66.1799 43.6L67.5299 43.68L68.8799 50.25L71.3799 56.98L74.95 63.98H87.14L97.8299 53.41Z" fill="#C7915D"/>
<path d="M110 29.11V39.42L103.71 46.22C103.71 46.04 103.06 40.9 102.9 41.22C105.47 35.14 108.06 29.07 108.16 29.07L110 29.11Z" fill="#D0A17F"/>
<path d="M107.41 13.74L106.23 28.58L96.9301 24.58L97.5501 14.25L93.0501 14.99L81.0001 18.58L67.9201 13.83L65.8301 25.43L67.0601 9.19002C67.0601 9.19002 78.3801 11.67 78.6401 11.67C78.9001 11.67 96.3401 10.04 96.7201 9.91002C97.1001 9.78002 102.24 7.75002 102.53 7.46002L107.41 13.74Z" fill="#22201F"/>
<path d="M93.0499 15L90.3999 24.13C90.3999 24.13 78.8699 29.49 78.6899 29.62C78.5099 29.75 70.1699 25.14 69.7799 25.02C69.3899 24.9 67.9199 13.83 67.9199 13.83L80.4799 18.39L93.0499 15Z" fill="#E4B17B"/>
<path d="M108.43 29.11L102.28 31.21L97.1699 32.75L94.3099 29.26L91.9199 26.35L96.9299 24.59L106.23 28.58L106.18 29.01L108.43 29.11Z" fill="#5ECC6B"/>
<path d="M102.6 31C102.6 31 97.74 40.2 96.28 43.06C96.18 43.25 96.1 43.41 96.02 43.54L95.86 43.84L82.41 44.07C82.11 44.07 77.2 46.38 77.2 46.38L74.7 44L67.93 43.73L66.18 43.65L68.18 39.11L75.3 40.89L76.71 33.83L67.18 29.49L65.53 25.86L65.81 25.48L78.33 31.93L92.04 26.35L94.32 29.14L80.46 34.21L81.67 40.89C81.96 40.89 94.5 40.38 94.67 40.31C94.84 40.24 97.14 32.63 97.14 32.63L102.6 31Z" fill="#26342D"/>
<path d="M76.7299 33.78L75.3099 40.84L74.7699 34.11L67.2 29.44L76.7299 33.78Z" fill="#5ECC6B"/>
<path d="M68.2 39.06L66.18 43.6L63.04 34.35V29.11L65.55 25.81L67.2 29.44L65.39 33.06L67.06 38.78L68.2 39.06Z" fill="#5ECC6B"/>
<path d="M94.34 29.09L83.79 33.92L81.69 40.84L80.49 34.16L94.34 29.09Z" fill="#5ECC6B"/>
<path d="M108.43 29.11C108.18 29.47 105.67 35.35 103.19 41.24C103.14 41.34 103.11 41.42 103.07 41.51C100.84 46.75 98.5199 51.96 97.9499 53.15C97.9302 53.2178 97.9068 53.2846 97.8799 53.35C97.8586 53.3875 97.8275 53.4186 97.7899 53.44L95.7899 43.9C95.7878 43.88 95.7878 43.8599 95.7899 43.84L95.9599 43.54L96.2099 43.06C97.7499 40.21 102.53 31 102.53 31L108.05 29.19L108.35 29.09L108.43 29.11Z" fill="#3C6A4C"/>
<path d="M139.73 127.53L129.22 107.23L122.86 122C122.86 122 107.78 130.81 107.42 131.18C107.06 131.55 79 125.52 79 125.52L80.86 101.81L89.29 85.43L81 90.49C81 90.49 73.37 86.57 72.75 85.89L78.43 102.89L74.56 126L50.46 132.52L37.24 123.4L49.77 139.27L66.77 133.08L52.4 146.62L54.78 182.3C54.78 182.3 64.78 203.71 65.25 204.02C65.72 204.33 90.93 204.02 90.93 204.02L108.84 177.86L123.5 171.07C123.5 170.95 123.5 170.89 123.5 170.89L139.73 127.53ZM99.27 186.76L95.97 191.64L77.34 193.87V134.55L100.75 145.61L97 159.5L99.27 186.76ZM84.17 133.16C84.17 133.16 109.68 137.88 110.37 137.7C111.06 137.52 131.58 121.22 132.22 120.7L112.46 145.6L84.17 133.16Z" fill="#26342D"/>
<path d="M132.22 120.71L112.46 145.61L84.1699 133.16C84.1699 133.16 109.68 137.88 110.37 137.7C111.06 137.52 131.58 121.22 132.22 120.71Z" fill="#3C6A4C"/>
<path d="M78.3801 102.87L74.5601 126.02L50.4601 132.54L37.2401 123.42L36.3701 106.38L52.0301 87.05L78.3801 102.87Z" fill="#5ECC6B"/>
<path d="M52 87.05L31 102.87L22.25 96.4L31.06 81.72L47.77 80.82L48.32 80.57C49.67 82.58 52 87.05 52 87.05Z" fill="#5ECC6B"/>
<path d="M25.2101 122.93L25.2701 122.79L22.3201 96.4L31.0701 102.87L37.2401 123.42L25.2101 122.93Z" fill="#26342D"/>
<path d="M53.45 208.12L66.2099 234.12L64.9999 232.23L64.5099 231.46L64.2399 231.05L63.6599 230.13L63.0199 229.13L62.6799 228.59L61.5899 226.88L60.45 225L59.6299 223.7L58.7899 222.39L58.3699 221.71L57.5399 220.41L56.1499 218.23L55.3399 216.95L54.4899 215.6C50.6999 209.6 47.49 204.4 47.39 204.14L51.4599 180.8C51.4599 180.8 47.5599 146.8 47.7799 143.16C46.8499 145.68 38.0299 163.16 37.2899 164.66L18.4399 155.25L38.2899 145.59L37.2399 123.4L49.7699 139.27L66.7699 133.08L52.3999 146.62L54.7799 182.3L53.45 208.12Z" fill="#3C6A4C"/>
<path d="M18.43 155.27L19.26 184.83L8.48001 220.51L2.23999 216.95L11.49 166.6L18.43 155.27Z" fill="#5ECC6B"/>
<path d="M37.23 164.79L35.76 178.56L14.43 220.78L8.47998 220.51L19.26 184.83L37.23 164.79Z" fill="#3C6A4C"/>
<path d="M13.3899 236.53L3.78992 250.05L0.419922 235.68L2.2399 216.95L8.47992 220.51L13.3899 236.53Z" fill="#D2935C"/>
<path d="M22.23 233.11L13.39 236.53L8.47998 220.51L14.43 220.78L22.11 232.75L22.23 233.11Z" fill="#E5B47E"/>
<path d="M25.7101 243.36L22.1101 246.07L13.3901 236.53L22.2301 233.11L25.7101 243.36Z" fill="#CF975D"/>
<path d="M22.11 246.07L19.92 250.18L19.16 251.6L3.81003 250.13L3.79004 250.05L13.39 236.53L22.11 246.07Z" fill="#9D6D5F"/>
<path d="M126.09 195.59L100.75 218.8L90.6699 234.1C90.1499 233.41 112.97 200.6 112.46 200.1C111.95 199.6 108.84 177.88 108.84 177.88L123.5 171.09C123.74 173.29 125.97 194.21 125.97 195.09C126.001 195.259 126.041 195.425 126.09 195.59Z" fill="#3C6A4C"/>
<path d="M66.22 234.1L58.78 291.81L35.78 270.9L47.4 204.17C47.55 204.78 65.66 233.17 66.23 234.08L66.22 234.1Z" fill="#26342D"/>
<path d="M142.9 251.6L140.9 314.93C140.9 314.93 131.45 326.4 127.9 331.47C130.49 325.69 135.9 311.21 135.9 310.94C135.9 310.67 122.66 293.28 121.21 289.73C121.3 289.3 121.3 289.07 121.21 289.09C121.12 289.11 121.08 289.34 121.21 289.73C120.21 294.02 108.71 318.89 107.78 320.9L107.72 321.03C100.23 295.62 90.1601 261.65 90.1601 261.65L86.7701 299.35C86.7701 299.35 80.7201 325.65 80.6701 326.22C80.6701 326.22 77.7401 328.08 74.2801 330.22C69.5401 333.22 63.8301 336.81 63.3801 337.11C62.5801 337.64 73.9401 315.47 73.9401 315.47L58.8701 291.79L66.3101 234.08C66.3101 234.08 90.7701 234.77 90.7701 234.08L121.2 287.73L142.9 251.6Z" fill="#3C6A4C"/>
<path d="M58.78 291.81L48.97 326.45L35.76 270.9L58.78 291.81Z" fill="#3C6A4C"/>
<path d="M80.1299 349.48L65.1299 364.32L45.1299 339.99L48.4599 328.17L48.7299 327.24L48.9599 326.45L58.7699 291.81L73.8299 315.49C73.8299 315.49 62.4799 337.66 63.2799 337.13C64.0799 336.6 80.5699 326.22 80.5699 326.22C80.8099 325.55 80.1299 349.48 80.1299 349.48Z" fill="#B7C259"/>
<path d="M86.6799 387.64L65.1299 364.32L80.1299 349.48L86.6799 387.64Z" fill="#5ECC6B"/>
<path d="M86.6799 387.64L67.0399 460.12L65.1299 364.32L86.6799 387.64Z" fill="#26342D"/>
<path d="M49.2501 432.49C49.2501 432.49 49.4301 370.7 49.2001 370.03C48.9701 369.36 45.1401 340.68 45.1401 340.03L65.1401 364.36L67.0501 460.16L49.2501 432.49Z" fill="#3C6A4C"/>
<path d="M67.9401 484.05L29.7801 485.85C29.7801 485.85 20.5201 489.01 19.6201 488.78C18.7201 488.55 3.81006 486.31 3.81006 486.31L4.71005 480.66L24.4601 481.51L42.6601 482.3L60.05 478.46C60.05 478.46 67.4701 476.56 67.7001 476.62C67.8401 480.76 67.9401 484.05 67.9401 484.05Z" fill="#26342D"/>
<path d="M67.7 476.62C67.47 476.56 60.05 478.46 60.05 478.46L51.34 456.46L49.25 432.24L67 459.89C67.15 459.89 67.48 469.52 67.7 476.62Z" fill="#26342D"/>
<path d="M60.06 478.47L42.66 482.53L24.46 481.74L13.77 476.62L41 465.86L60.06 478.47Z" fill="#3C6A4C"/>
<path d="M24.46 481.74L4.70996 480.66L13.76 476.62H13.77L24.46 481.74Z" fill="#5ECC6B"/>
<path d="M142.89 251.6L121.11 287.77C120.45 287.13 131.98 215.54 131.98 215.54C136.84 231.73 142.89 251.6 142.89 251.6Z" fill="#3C6A4C"/>
<path d="M140.86 314.93C140.86 314.93 131.4 326.4 127.86 331.47C130.45 325.69 135.86 311.21 135.86 310.94C135.86 310.67 122.62 293.28 121.17 289.73C120.17 294.2 107.68 321.03 107.68 321.03L123.45 338.88L126.57 361.49L144 344.28L140.86 314.93Z" fill="#B7C259"/>
<path d="M139.54 436L119.42 394.43C119.42 394.43 119.42 394.01 119.31 393.25C119.38 391.95 126.52 369.48 126.52 369.48L115.57 348.4C115.57 348.14 112.05 336.12 107.75 321.27L123.52 339.12L126.52 361.54L161.29 431.54L162.99 464.22L139.54 436Z" fill="#3C6A4C"/>
<path d="M126.52 369.43C126.52 369.43 119.38 391.9 119.31 393.2C118.7 385.99 115.57 348.96 115.57 348.35L126.52 369.43Z" fill="#5ECC6B"/>
<path d="M161.29 431.5L126.52 361.49L144.02 344.28L158.7 381.54L161.29 431.5Z" fill="#26342D"/>
<path d="M168.44 476.96L144.65 469.26L139.96 436.86L139.54 435.99L162.99 464.18L168.44 476.96Z" fill="#26342D"/>
<path d="M173.13 488L148.13 487.54C148.13 487.54 144.7 477.54 144.7 477.09V469.6L144.64 469.27L168.44 477L173.13 488Z" fill="#3C6A4C"/>
<path d="M174.73 491.73L160.73 496.24H148.31L142.45 489L144.71 477.48V477.06C144.71 477.48 148.14 487.51 148.14 487.51L173.14 487.97L174.73 491.73Z" fill="#26342D"/>
<path d="M184.67 165.91L167.54 154.74L152.39 122L165.93 103.48C165.93 104.59 166.16 117.89 166.38 118.54C166.6 119.19 172.93 133.22 172.93 133.22C172.93 133.22 175.86 153.31 175.86 152.63C175.86 151.95 184.67 165.91 184.67 165.91Z" fill="#3C6A4C"/>
<path d="M167.54 154.74C167.54 154.74 161.8 160.68 157.86 164.61C156.71 163.45 149.95 156.56 148.23 155.28C150.85 156 166.41 154.74 167.54 154.74Z" fill="#26342D"/>
<path d="M175.86 220.11L159.38 187.11L158 164.78L157.83 164.61C161.77 160.68 167.51 154.74 167.51 154.74L175.86 220.11Z" fill="#5ECC6B"/>
<path d="M184.67 165.91L175.86 220.11L167.54 154.74L184.67 165.91Z" fill="#26342D"/>
<path d="M113.21 70.88L89.2901 85.43L81.0001 90.49C81.0001 90.49 73.3701 86.57 72.7601 85.89V85.8C73.0101 85.62 69.3701 78.26 67.1001 73.73C67.3201 73.53 69.7901 71.3 71.1501 70C71.4531 69.7301 71.7402 69.443 72.0101 69.14C75.7101 71.96 82.7001 77.25 83.0101 77.44C83.3201 77.63 98.6201 68.78 103.69 66.61L113.21 70.88Z" fill="#5ECC6B"/>
<path d="M78.38 102.87L52.03 87.05L72.67 85.8L72.7 85.89L78.38 102.87Z" fill="#3C6A4C"/>
<path d="M36.3701 106.38L37.2401 123.42L31.0701 102.87L52.0301 87.05L36.3701 106.38Z" fill="#3C6A4C"/>
<path d="M38.2899 145.61L18.4299 155.27L20.7499 136.56L25.2099 122.93L37.2399 123.42L38.2899 145.61Z" fill="#5ECC6B"/>
<path d="M37.2799 164.68V164.78L19.2799 184.83L18.45 155.27L37.2799 164.68Z" fill="#26342D"/>
<path d="M19.9201 250.18L7.12012 247.68L11.6101 243.89L22.1101 246.07" fill="#CF975D"/>
<path d="M114.87 87.05L80.8599 101.81L89.2899 85.43L114.87 87.05Z" fill="#3C6A4C"/>
<path d="M129.22 107.23L122.86 122C122.86 122 107.78 130.81 107.42 131.18C107.06 131.55 79 125.52 79 125.52L80.86 101.81L114.86 87.05L129.22 107.23Z" fill="#5ECC6B"/>
<path d="M167.54 154.74C166.41 154.74 150.85 156.02 148.23 155.28C148.129 155.189 148.01 155.12 147.88 155.08C147.35 153.93 146 128.08 146 128.08L152.39 121.98L167.54 154.74Z" fill="#5ECC6B"/>
<path d="M172.08 241.72V246.32L166.75 248.1L172.08 241.72Z" fill="#9E6F5A"/>
<path d="M97.0401 159.5L99.2701 186.76L95.9701 191.64L77.3301 193.87V134.55L100.75 145.61L97.0401 159.5Z" fill="#5ECC6B"/>
<path d="M121.11 287.77L90.6799 234.12L100.76 218.82L126.1 195.61C126.67 197.76 129.1 206.02 131.99 215.61C132 215.54 120.45 287.13 121.11 287.77Z" fill="#26342D"/>
<path d="M90.67 234.1C90.67 234.77 66.2099 234.1 66.2099 234.1L53.45 208.1L54.7799 182.28C54.7799 182.28 64.7799 203.69 65.2499 204C65.7199 204.31 90.9299 204 90.9299 204L108.84 177.84C108.84 177.84 111.94 199.54 112.46 200.06C112.98 200.58 90.15 233.41 90.67 234.1Z" fill="#5ECC6B"/>
<path d="M97.5501 14.26L96.9301 24.59L92.0601 26.3L78.3501 31.88L65.8301 25.43L67.9201 13.83C67.9201 13.83 69.4101 24.89 69.7801 25.02C70.1501 25.15 78.4901 29.74 78.6901 29.62C78.8901 29.5 90.4001 24.13 90.4001 24.13L93.0501 15L97.5501 14.26Z" fill="#C7915D"/>
<path d="M88.8999 51.57L86.3299 52.14L74.4799 51.87C74.4799 51.87 73.2299 51.49 73.1799 51.49L74.8599 50.28C74.8599 50.28 83.9899 50.21 84.3099 50.28C84.6299 50.35 88.8999 51.57 88.8999 51.57Z" fill="#8E5828"/>
<path d="M85.1301 54.05C85.1301 54.05 82.9601 56.63 82.7101 56.54C82.4601 56.45 76.8901 56.54 76.8901 56.54L75.3201 54.05H85.1301Z" fill="#8E5828"/>
<path d="M97.2 32.58C97.2 32.58 94.94 40.19 94.73 40.26C94.52 40.33 81.98 40.84 81.73 40.84L83.83 33.92L94.38 29.09L97.2 32.58Z" fill="white" stroke="#221F1F" stroke-linejoin="round"/>
<path d="M75.3101 40.84L68.2001 39.06L67.0601 38.78L65.3901 33.06L67.2001 29.44L74.7701 34.11L75.3101 40.84Z" fill="white" stroke="#221F1F" stroke-linejoin="round"/>
<path d="M82 44.22L95.28 45.53L97.79 53.41L95.79 43.91L82.31 44.14" fill="#6A3F26"/>
<path d="M107.41 13.74L94.3401 12.74L78.6801 15.22L68.2001 12.46L67.0601 9.16003L68.5101 6.53003L89.9301 9.00003L102.1 4.28003L107.41 13.74Z" fill="#22201F"/>
<path d="M76.0701 27.73C76.8437 28.1923 77.6415 28.6129 78.4601 28.99C78.2452 27.3091 77.9448 25.6403 77.5601 23.99C77.1612 23.631 76.7963 23.236 76.4701 22.81L76.0701 27.73Z" fill="#A36B33"/>
<path d="M78.98 28.97L80.49 26.32V28.17L78.98 28.97Z" fill="#A36B33"/>
<path d="M72.6799 85.8L51.9999 87.05C51.9999 87.05 49.6499 82.58 48.3599 80.55L65.1799 70.63L71.9099 69.09C71.64 69.3929 71.3528 69.6801 71.0499 69.95C69.6899 71.25 67.2199 73.48 66.9999 73.68C69.2899 78.26 72.9299 85.62 72.6799 85.8Z" fill="#26342D"/>
<path d="M52.0299 78.4L31.1299 81.7L52.0299 81.39V78.4Z" fill="#26342D"/>
<path d="M97.04 159.5L77.33 156.02L76.02 160.51L97.18 161.22L99.07 160.16L97.04 159.5Z" fill="#26342D"/>
<path d="M172.93 133.18L167.54 132.52L166.38 118.52C166.61 119.18 172.93 133.18 172.93 133.18Z" fill="#5ECC6B"/>
<path d="M53.45 208.12L66.21 234.12L65 232.23L64.51 231.46L64.24 231.05L63.66 230.13L63.02 229.13L62.68 228.59L61.59 226.88L60.45 225L59.63 223.7L58.79 222.39L58.37 221.71L57.54 220.41L56.15 218.23L55.34 216.95L54.49 215.6C50.7 209.6 47.49 204.4 47.39 204.14L51.46 180.8C51.46 180.8 47.56 146.8 47.78 143.16L37.24 123.4L49.77 139.27L66.77 133.08L52.4 146.62L54.78 182.3L53.45 208.12Z" fill="#3C6A4C"/>
<path d="M95.7001 191.67L89.5201 200.52L77.3401 201.46V193.87C77.3401 193.87 84.3401 185.19 84.6301 185.05C84.9201 184.91 95.7001 191.67 95.7001 191.67Z" fill="#3C6A4C"/>
<path d="M102.1 4.30998V9.18999L78.58 13.83L67.0601 9.18999L68.5101 6.55998C69.9301 3.97998 71.9101 0.38998 71.9701 0.22998C71.9701 0.57998 79.3401 5.13998 79.3401 5.13998L83.3401 2.61998L86.6601 4.30998H102.1Z" fill="#22201F"/>
<path d="M97.5499 14.26C97.5499 14.26 101.84 11.96 101.8 12.11C101.76 12.26 100.17 26 100.17 26L96.9299 24.61L97.5499 14.26Z" fill="#3F383E"/>
<path d="M109 31.42V39.06L105.91 42.62L109 31.42Z" fill="#AB8569"/>
<path d="M105.91 42.62L103.99 42.46L109 31.42L108.43 37.02L105.91 42.62Z" fill="#AB8569"/>
<path d="M80.4801 17.75C80.4801 17.56 70.0801 9.97003 70.0801 9.97003C70.0801 9.97003 71.7801 0.970032 71.9701 1.27003C72.1601 1.57003 78.4601 8.99003 78.4601 8.99003L80.4801 17.75Z" fill="#3F383E"/>
<path d="M66.1799 43.6L74.5199 44.85C74.5199 44.85 77.33 46.61 77.17 46.45L74.7 44L66.1799 43.6Z" fill="#6A3F26"/>
<path d="M130.03 78.43L114.87 87.05L89.29 85.43L111.58 71.88L103.61 66.57L114.08 69.67L130.03 78.43Z" fill="#26342D"/>
<path d="M130.25 136.93C130.08 137.35 117.38 147.44 117.38 147.44L116.49 153.88L130.25 136.93Z" fill="#3C6A4C"/>
<path d="M129.52 144.23C129.38 144.67 118.44 157.5 118.44 157.5L118.12 163.01L129.52 144.23Z" fill="#3C6A4C"/>
<path d="M129.22 107.24L135.61 128.03L123.5 171.07L139.73 127.53L129.22 107.24Z" fill="#5ECC6B"/>
<path d="M74.6501 142.16C75.0001 143.04 73.9501 154.9 73.9501 154.9L62.3201 155.65L64.7801 144.43L74.6501 142.16Z" fill="#5ECC6B"/>
<path d="M74.2799 167.48L73.9299 192.37L62.4299 188.66L64.4099 169.75L74.2799 167.48Z" fill="#5ECC6B"/>
<path d="M107.69 320.9L107.63 321.03C100.14 295.62 90.0699 261.65 90.0699 261.65L86.6799 299.35C86.6799 299.35 80.6299 325.65 80.5799 326.22C80.5799 326.22 77.6499 328.08 74.1899 330.22L80.6199 309.29L89.0399 258.29L81.6199 254.82L78.4599 246.03L85.1599 251.61H93.3599C93.3599 251.61 95.22 260.22 95.7 261.09C96.18 261.96 106.78 316.24 107.69 320.9Z" fill="#26342D"/>
<path d="M41 465.86L51.34 456.48C51.34 456.48 60.62 479.28 60.07 478.69C59.52 478.1 41 465.86 41 465.86Z" fill="#5ECC6B"/>
<path d="M190 219.65V220.11H175.86L190.77 188.94V189.09C191.28 191.75 190 219.65 190 219.65Z" fill="#26342D"/>
<path d="M75 63.94C75.14 63.79 77 60.73 77 60.73L83.3 60.44L87.22 63.94L79.75 64.94L75 63.94Z" fill="#C7915D"/>
</svg>
