<svg width="169" height="516" viewBox="0 0 169 516" fill="none" xmlns="http://www.w3.org/2000/svg">
<g clip-path="url(#clip0)">
<path d="M126.58 98.4601L115.58 105.11L114 105.03L119.81 90.4201L112.53 51.5401L107.37 66.5401L104.76 68.5401V57.55L101.3 43.0101L98.73 32.3701L97.41 26.8L75.7 33.1101L59.6 25.7001L55.6 31.6401C55.6 31.6401 55.6 34.2701 55.6 37.2801C54.97 39.8101 53.32 46.5101 53.32 47.2201C53.32 48.1101 54.45 62.3901 54.82 63.1301C55.19 63.8701 50.21 73.8901 50.21 73.8901L55.84 70.0601L60.51 62.6801L62.13 72.7901L67.9 80.0901V100.26L55.59 104.56L54.91 104.33L43.82 100.56L40.5 62.5601L46.5 25.7101L61.5 5.06006L79.95 0.0600586L103.44 7.06006L117.87 33.0601L120.8 54.2001L117.38 57.2601L125.45 86.0401L126.58 98.4601Z" fill="#F9DE2B"/>
<path d="M53.27 46.3701L46.62 60.6301L45.53 57.4901L43.62 65.3401L50.87 102.94C50.87 102.94 60.08 95.8301 60.72 94.9401C61.36 94.0501 59.07 70.2701 59.07 70.2701L56.41 54.5101L53.27 46.3701Z" fill="#97712D"/>
<path d="M52.95 72.0001L53.95 80.0601L52.15 84.5701L50.85 102.91C50.85 102.91 62.08 110.06 62.38 109.96C62.68 109.86 70.38 106.75 70.54 106.34C70.7 105.93 74.54 95.6101 74.42 94.0001C74.3 92.3901 74.55 78.4301 73.98 78.0901C73.41 77.7501 67.2 71.7301 66.79 71.4301C66.38 71.1301 62.68 62.5101 62.68 62.5101L59.22 60.3701L52.95 72.0001Z" fill="#97712D"/>
<path d="M94.95 79.82L94.73 83.2L78.61 100.51L78.9 121.95L68.9 126.77L45.02 117.43C45.02 117.43 44.7 114.43 45.02 114L54.92 104.31L55.6 104.54L67.91 100.24V80.05L62.14 72.75L60.52 62.64V62.38L58.61 57.79L57.91 55.29L60.74 58.46C60.74 58.46 73.56 62.46 74.02 62.46C74.48 62.46 78.02 66.46 78.02 66.46V73.2L70.6 71.81L73.71 76.66L78.02 78.05V88H83.15L94.95 79.82Z" fill="#DE9159"/>
<path d="M75.69 33.0799L71.93 34.5999L71.58 39.2299L55.61 31.5999L59.6 25.6599L75.69 33.0799Z" fill="#6767AE"/>
<path d="M98.7299 32.34L83.5599 39.24L82.1999 39.86L81.5899 35.27L75.6899 33.08L97.3999 26.76L98.7299 32.34Z" fill="#6767AE"/>
<path d="M101.28 43.0101L94.95 39.8501C94.95 39.8501 81.38 48.6001 80.95 48.9301C80.52 49.2601 83.51 39.2401 83.51 39.2401L98.73 32.3701L101.28 43.0101Z" fill="#689DD4"/>
<path d="M101.28 43.01L94.95 39.85C94.95 39.85 81.38 48.6 80.95 48.93C80.52 49.26 83.51 39.24 83.51 39.24L82.16 39.85L76.86 48.12L77.65 53.97L77.46 63.16L82.16 62.16L101.38 55.98L104.69 57.57L101.28 43.01ZM78.28 60.89L79.53 55.29L81.92 60.89H78.28ZM101.28 50.26L92.9 55.96L82.21 51.37C82.84 51.37 95.78 42.53 95.78 42.53L101.28 47.04V50.26Z" fill="#7DD1F0"/>
<path d="M74.03 62.5301C73.56 62.5301 60.75 58.5301 60.75 58.5301L57.95 55.3101C57.0254 52.2123 56.2644 49.0679 55.67 45.8901C55.67 45.2001 55.67 40.9501 55.67 37.2601C55.67 34.2601 55.67 31.6201 55.67 31.6201L60.67 41.9101L60.85 42.5601L61.03 43.1501L57.1 47.7501L64.1801 55.9901L64.8401 55.6201L74.03 62.5301Z" fill="#689DD4"/>
<path d="M149.15 194.05L149.4 207.12V207.23L148.27 208.23L139.8 215.47L139.71 215.54L139.65 215.59L139.58 215.66L141.95 188.23V187.97L139.65 184.8L135.09 178.51L121.44 151.31L120.31 149.05L119.78 148L121.28 142.55L123.1 135.96L123.16 135.74C123.83 135.39 138.62 129.06 140.45 128.28H140.53H140.62L134.71 141.89V141.96V142.02L131.71 148.81V148.91C131.73 148.975 131.753 149.038 131.78 149.1C131.794 149.148 131.811 149.194 131.83 149.24C131.9 149.45 132.01 149.77 132.16 150.18L132.28 150.52C132.33 150.65 132.37 150.78 132.42 150.93L134.55 156.93C134.72 157.42 134.9 157.93 135.09 158.44C135.28 158.95 135.38 159.24 135.53 159.66L135.96 160.86L136.26 161.69L137.18 164.23C137.34 164.68 137.5 165.13 137.67 165.58C137.76 165.81 137.84 166.04 137.92 166.26L140.08 172.15C140.28 172.67 140.47 173.15 140.66 173.69L141.03 174.69C141.14 174.97 141.24 175.24 141.34 175.51C142.94 179.74 144.34 183.35 145.23 185.22L145.43 185.64C145.551 185.89 145.684 186.134 145.83 186.37L145.92 186.5C145.92 186.5 145.99 186.57 146.02 186.57H146.07L146.26 186.49C146.429 186.481 146.598 186.516 146.75 186.59C147.503 186.926 148.209 187.36 148.85 187.88L149.44 188.33L150.03 188.8L150.62 189.29C150.81 189.44 150.99 189.6 151.17 189.76L151.69 190.21C151.728 190.235 151.762 190.265 151.79 190.3V190.3C152.63 191.04 153.22 191.59 153.22 191.59L149.15 194.05Z" fill="#DC9159"/>
<path d="M25.2 180.22L25.94 194.93C25.94 194.93 25.56 194.71 25.07 194.45L24.76 194.28C24.48 194.13 24.1901 193.99 23.9301 193.88L23.7401 193.8C23.6351 193.747 23.5244 193.707 23.41 193.68C23.21 193.61 23.08 193.61 23.05 193.68C23.02 193.75 22.9901 195.19 22.9901 196.8C22.9901 198.65 22.9901 200.8 22.9901 201.8L22.33 201.43L15.4301 197.6C15.4301 197.6 15.72 190.54 15.98 184.01C16.05 182.01 16.13 180.13 16.19 178.48L17.47 166.86L17.39 166.75C17.47 166.24 17.57 165.75 17.66 165.15C19.6 153.96 23 135.26 23 135.26L27.0901 139.63L28.0901 139.31L29.0201 139.01L31.69 138.16C32.76 137.82 33.84 137.49 34.75 137.22L24.1501 159.57L24.7401 171.25V171.37L24.9901 176.14L25.05 177.35L25.19 180.2L25.2 180.22Z" fill="#DC9159"/>
<path d="M161.75 196.66L151.84 205.15C151.74 205.23 151.64 205.32 151.54 205.39L149.4 207.23V207.12L149.15 194.05L153.26 191.52C153.26 191.52 152.67 190.97 151.83 190.23C151.64 190.05 151.43 189.87 151.21 189.69C150.99 189.51 150.85 189.37 150.66 189.22L150.07 188.73L149.48 188.26L148.89 187.81C148.249 187.29 147.543 186.856 146.79 186.52C146.717 186.483 146.64 186.456 146.56 186.44H146.38H146.29C146.254 186.438 146.219 186.445 146.186 186.459C146.153 186.473 146.124 186.493 146.1 186.52H146.05C146.012 186.505 145.977 186.481 145.95 186.45L145.82 186.26L145.65 185.97L145.59 185.86L145.43 185.55L145.23 185.13C144.98 184.58 144.67 183.87 144.32 183.04L143.95 182.37L143.77 181.92C143.68 181.72 143.6 181.51 143.52 181.3L143.22 180.54L142.72 179.28L142.13 177.75C141.937 177.257 141.747 176.757 141.56 176.25C140.38 173.13 139.08 169.63 137.83 166.19C137.75 165.97 137.67 165.74 137.58 165.51C137.41 165.06 137.25 164.61 137.09 164.16L136.17 161.62C135.92 160.93 135.67 160.25 135.44 159.62L135 158.41L134.3 156.41L133.86 155.18L133.45 154.04C133.33 153.67 133.2 153.32 133.08 153.04C132.96 152.76 132.86 152.43 132.76 152.14C132.49 151.36 132.25 150.71 132.07 150.19L131.95 149.85C131.95 149.75 131.88 149.66 131.85 149.57L131.74 149.25C131.721 149.205 131.704 149.158 131.69 149.11L131.63 148.95V148.85L134.58 142.08V142.02V141.95L140.4 128.55V128.47L140.45 128.36V128.43L140.58 128.36L140.95 129.8L150.95 156.6V156.68L151.77 158.95L159.95 181.54L161.52 194.43L161.75 196.66Z" fill="#F1B280"/>
<path d="M107.35 110.43C107.35 110.43 108.6 112.57 110.41 115.61L71.47 127.78L68.91 126.78L78.91 121.96L78.6201 100.52L94.7401 83.21L94.28 99.54L113.95 105.03L115.53 105.11L107.35 110.43Z" fill="#F1B380"/>
<path d="M37.7701 166.42L37.6501 167.15L34.01 189.15L32.83 207.2L24.83 202.76L23.05 201.76C23.05 200.76 23.05 198.65 23.05 196.76C23.05 195.16 23.05 193.76 23.11 193.65C23.17 193.54 23.27 193.58 23.47 193.65C23.5844 193.677 23.6951 193.717 23.8 193.77L23.9901 193.85C24.1201 193.9 24.2601 193.97 24.4001 194.04C24.5401 194.11 24.9 194.29 25.13 194.42L25.47 194.6L25.7701 194.77L25.91 194.85L26 194.9L25.26 180.19L25.1201 177.35L25.06 176.14L24.95 174.06V173.77L24.75 171.37V171.23L24.16 159.55L34.79 137.19C35.4898 136.957 36.2049 136.774 36.9301 136.64L35.4001 138.76L31.4001 150.81L30.73 152.04L37.73 166.37L37.7701 166.42Z" fill="#F1B280"/>
<path d="M75.89 51.5699L72.85 47.0799L61.46 42.5599H60.78L60.59 41.9199L55.64 31.6299L71.61 39.2499L74.9 44.7599L75.89 51.5699Z" fill="#689DD4"/>
<path d="M82.2 39.8601L76.91 48.1201L74.88 44.7301L71.58 39.2301L71.93 34.6001L75.69 33.0801L81.59 35.2701L82.2 39.8601Z" fill="#8193CA"/>
<path d="M119.79 90.42L113.97 105.04L94.28 99.54L94.75 83.21V83.2L94.97 79.82L99.72 73.34L104.74 57.55V68.5L107.34 66.5L112.5 51.54L119.79 90.42Z" fill="#97712D"/>
<path d="M104.74 57.55L99.72 73.34L94.97 79.82L83.1 88.04H77.98V78.09L81.94 77.51L86.08 73.24L90.2 68.5L86.08 71.85L77.98 73.24V66.5L82.2 62.15L101.43 55.97L104.74 57.55Z" fill="#F1B380"/>
<path d="M90.2101 68.5L86.0801 73.24L81.9401 77.51L77.9801 78.09L73.6701 76.7L70.5601 71.85L76.3101 74.83L80.3801 74.4L86.0801 71.85L90.2101 68.5Z" fill="#A96739"/>
<path d="M86.0801 71.8501L80.3801 74.4001L76.3101 74.8301L70.5601 71.8501L77.9801 73.2401L86.0801 71.8501Z" fill="#9E5C28"/>
<path d="M81.94 60.9H78.3L79.55 55.29L81.94 60.9Z" fill="#8193CA"/>
<path d="M82.21 62.14L77.95 66.5C77.95 66.5 74.43 62.5 73.95 62.5L64.7 55.59C66.7 54.45 72.88 51.05 73.29 51.05L61.38 42.53L72.78 47.04L75.78 51.53L74.78 44.72L76.78 48.11L77.57 53.96L77.38 63.15L82.21 62.14Z" fill="#7DD1F0"/>
<path d="M60.53 62.64L55.86 70.02L50.23 73.85C50.23 73.85 55.23 63.85 54.84 63.09C54.45 62.33 53.34 48.09 53.34 47.18C53.34 46.47 54.99 39.77 55.62 37.24C55.62 40.92 55.62 45.17 55.62 45.87C56.2204 49.0465 56.9814 52.1905 57.9 55.29L58.6 57.79L60.51 62.38L60.53 62.64Z" fill="#DAA733"/>
<path d="M101.28 47.05V50.26L92.9 55.96L82.21 51.37C82.84 51.37 95.7799 42.53 95.7799 42.53L101.28 47.05Z" fill="white" stroke="#231F20" stroke-linejoin="round"/>
<path d="M73.34 51.0599C72.93 51.0599 66.78 54.4599 64.75 55.5999L64.09 55.9599L57.01 47.7299L60.11 42.7299L60.57 41.9099L73.34 51.0599Z" fill="white" stroke="#231F20" stroke-linejoin="round"/>
<path d="M79.21 219.37L78.95 238.73L69.26 243.13C69.26 243.13 69.26 227.85 69.26 227.13C69.26 227.13 69.15 227.13 69.04 227.13L68.89 227.21L68.7 227.32C66.36 228.67 57.65 235.52 57.65 235.52L57.36 235.28L56.47 219.28V215.55H56.68C57.77 216.82 59.92 219.28 60.29 219.28L79.21 219.37Z" fill="#4B5680"/>
<path d="M130.62 267.27L116.23 354.72L102.15 356.12L76.95 273.83C76.95 273.83 87.7 265.03 98.46 256.37C100.73 254.54 103.01 252.71 105.18 250.98C104.87 258.69 103.23 293.16 103.23 293.16C103.23 293.16 115.95 321.37 116.33 320.77C116.71 320.17 130.19 268.88 130.62 267.27Z" fill="#3A3B44"/>
<path d="M47.19 510.44L19.6 512.02C19.6 512.02 9.60002 513.22 8.80002 513.02C8.00002 512.82 0 510.85 0 510.85L0.77002 507.46L14.63 508.17H15.08L25.89 508.85L39.76 505.67L40.3 505.55H40.46C40.82 505.46 46.69 503.89 46.87 503.94C47.11 507.56 47.19 510.44 47.19 510.44Z" fill="#3A3B44"/>
<path d="M25.82 508.74L39.8 505.72L25.93 508.9L15.12 508.22L14.67 508.2H14.66L14.63 508.18L14.92 508.2L25.82 508.74Z" fill="#001750"/>
<path d="M46.95 503.93C46.77 503.93 40.9 505.45 40.54 505.54L40.49 505.41V505.27L40.17 504.35C40.08 504.1 39.98 503.82 39.86 503.51C39.74 503.2 39.63 502.86 39.49 502.51L39.33 502.09C39.2767 501.93 39.2167 501.76 39.15 501.58L38.39 499.58C38.31 499.36 38.23 499.15 38.14 498.93C37.85 498.17 37.55 497.38 37.24 496.59L36.74 495.25C36.31 494.15 35.89 493.06 35.5 492.04C35.35 491.66 35.21 491.3 35.07 490.96C34.67 489.96 34.31 488.96 34 488.23C33.9694 488.125 33.9327 488.021 33.89 487.92L33.74 487.54C33.68 487.38 33.62 487.23 33.58 487.11L33.44 486.76C33.33 486.46 33.26 486.3 33.26 486.3L33.39 485.52V486.52H45.87C45.95 486.5 46.81 497.72 46.95 503.93Z" fill="#7DD1F0"/>
<path d="M39.4001 472.67H39.16V472.17L39.4001 472.67Z" fill="#1C387F" stroke="#9BB8C8" stroke-miterlimit="10"/>
<path d="M40.3799 505.59L39.84 505.72L25.95 508.9L15.14 508.22H14.6899L6.18994 503.97L24.5999 494.55L27.0399 496.23L27.9099 496.83L28.5399 497.27L29.37 497.85C33.56 500.75 39.2699 504.72 40.3799 505.59Z" fill="#7DD1F0"/>
<path d="M14.66 508.2L0.76001 507.48L6.12001 503.94H6.13001L14.66 508.2Z" fill="#4B5680"/>
<path d="M136.39 501.34L119.19 495.54L118.63 486.15L118.7 486.51H131.02L136.39 501.34Z" fill="#689DD4"/>
<path d="M139.78 509.64L121.71 509.29C121.71 509.29 119.23 501.74 119.23 501.42V495.79V495.54L136.43 501.34L139.78 509.64Z" fill="#7DD1F0"/>
<path d="M140.95 512.45L130.83 515.85H121.83L117.59 510.42L119.23 501.74V501.42C119.23 501.74 121.71 509.29 121.71 509.29L139.78 509.64L140.95 512.45Z" fill="#3A3B44"/>
<path d="M40.58 505.54H40.42L29.42 497.76L28.59 497.18L27.96 496.74L27.09 496.14L24.65 494.46L33.35 486.24C33.35 486.24 33.42 486.4 33.53 486.7L33.67 487.05C33.67 487.17 33.77 487.32 33.83 487.48L33.98 487.86C34.0227 487.961 34.0594 488.065 34.09 488.17L39.42 502.04L39.58 502.46L40.58 505.16C40.58 505.16 40.58 505.37 40.63 505.41C40.68 505.45 40.57 505.5 40.58 505.54Z" fill="#4B5680"/>
<path d="M54.95 104.29L45.05 113.98L41.76 117.19C41.76 117.19 41.61 117.93 41.35 119.12C40.3 124.04 37.54 136.63 36.97 136.63C36.2424 136.767 35.5243 136.951 34.82 137.18C31.93 138.04 27.1801 139.6 27.1801 139.6L23.1 135.23L19.17 121.11L25.42 128.89L37.08 116.41L47.41 108.1L39.95 99.1799L43.88 100.52L54.95 104.29Z" fill="#3A3B44"/>
<path d="M20.61 254.92C20.61 254.92 13.96 259 13.85 259.49C13.74 259.98 4.95002 252.02 3.95002 251.07C3.64002 257.25 4.11003 281.33 4.11003 281.33L5.84004 282.77L16.84 278.98L25.41 269.64L20.61 254.92ZM5.79002 279.15L6.79002 262.72L9.53001 276.2L5.79002 279.15Z" fill="#7DD1F0"/>
<path d="M17.6501 198.81L15.5201 218.57L13.5201 203.52L10.95 198.95C10.9472 198.903 10.9472 198.856 10.95 198.81L15.42 197.61L17.6501 198.81Z" fill="#8193CA"/>
<path d="M15.5799 250.55L20.5799 254.92C20.5799 254.92 13.9299 259 13.8199 259.49C13.7099 259.98 4.94994 252.02 3.94994 251.07C3.935 250.595 3.9889 250.12 4.10995 249.66C4.68995 248.74 10.6699 201.88 11.0399 198.95L13.5599 203.52L15.5599 218.57L13.8899 234.11L20.9499 244.29L10.1999 246.6L6.76995 250.55H15.5799Z" fill="#689DD4"/>
<path d="M33.88 209.59L20.94 244.29L13.85 234.11L17.65 198.81L32.83 207.24L33.88 209.59Z" fill="#3A3B44"/>
<path d="M20.08 253.31L20.6 254.93L15.58 250.56H6.76001L10.19 246.6L20.94 244.29L20.08 253.31Z" fill="#8193CA"/>
<path d="M27.85 288.86H13.09L5.79004 282.78L16.8 278.98L25.38 269.64L27.55 276.32L27.85 288.86Z" fill="#689DD4"/>
<path d="M107.11 173.3C107.11 173.3 101.77 190.62 101.73 190.62C101.755 190.712 101.775 190.805 101.79 190.9C100.42 188.9 97.79 185.02 97.4 185.02C97.01 185.02 91.22 182.58 88.59 181.57C88.5852 181.533 88.5852 181.496 88.59 181.46C89.04 179.37 89.3299 177.95 89.3299 177.95L91.9199 179.05L96.4999 167.37L103.13 158.09L108 153.36L116.21 145.36L119.77 147.93L107.11 173.3Z" fill="#689DD4"/>
<path d="M108 153.37L103.13 158.1L96.4999 167.37L91.95 179.05L89.36 177.95L70.62 169.95L56.4799 177.37L54.93 178.18L46.17 164.88L40.83 161.09L52.08 163.98L63.34 146.54L70.12 161.22L75.27 148.96C75.27 148.96 89.4699 162.39 89.8199 162.23C90.1699 162.07 107.47 153.66 108 153.37Z" fill="#3A3B44"/>
<path d="M89.35 177.95C89.35 177.95 89.06 179.37 88.61 181.46C88.6053 181.497 88.6053 181.533 88.61 181.57C87.31 187.57 84.71 198.98 83.69 198.81C82.32 198.56 69.31 193.1 69.31 193.1L57.89 198.81L56.48 177.37L70.61 169.98L89.35 177.95Z" fill="#7DD1F0"/>
<path d="M116.23 145.43L108.02 153.43C107.49 153.7 90.21 162.12 89.85 162.28C89.49 162.44 75.28 149.01 75.28 149.01L89.69 139.67C89.69 139.67 102.32 135.3 102.95 135.78C103.36 136.08 111.42 141.93 116.23 145.43Z" fill="#7DD1F0"/>
<path d="M48.49 253.37L37.49 241.61L44.56 225.44C44.99 225.74 45.56 226.19 46.31 226.73L48.49 253.37Z" fill="#7DD1F0"/>
<path d="M57.66 235.56C57.66 235.56 50.28 229.74 46.3 226.74C45.59 226.2 44.98 225.74 44.55 225.45L50.75 211.27L56.48 219.36L57.66 235.56Z" fill="#3A3B44"/>
<path d="M69.29 243.13L57.66 235.56C59.52 234.06 67.1001 228.25 68.9001 227.25L69.05 227.17C69.16 227.17 69.2301 227.11 69.2701 227.17C69.3101 227.23 69.2701 227.17 69.2701 227.17C69.3301 227.85 69.29 243.13 69.29 243.13Z" fill="#7DD1F0"/>
<path d="M110.28 224.98L106.34 226.33L83.6801 234.11V219.37L105.27 209.59L110.28 224.98Z" fill="#3A3B44"/>
<path d="M116.23 354.72C116.23 354.72 111.23 375.32 111 376.2C110.77 377.08 102.15 356.12 102.15 356.12L116.23 354.72Z" fill="#4B5680"/>
<path d="M78.29 305.5C78.55 304.12 63.82 356.92 63.82 356.92L57.49 362.92C57.49 362.92 61.28 353.81 61.49 353.01C61.7 352.21 75.88 301.37 75.88 301.37C75.88 301.37 66.51 297.93 68.18 298.18C70.7648 298.318 73.3552 298.318 75.94 298.18L81.01 296.65L93.38 360.97C92.95 359.37 78.03 306.86 78.29 305.5Z" fill="#4B5680"/>
<path d="M124.28 353.62L130.63 267.23L116.24 354.68C116.24 354.68 111.24 375.28 111.01 376.16C110.78 377.04 102.16 356.08 102.16 356.08L76.95 273.83C76.95 273.83 87.7 265.03 98.46 256.37L106.3 226.37L83.64 234.15V236.64L78.95 238.73L69.26 243.13L57.8 235.67L57.34 235.32C55.92 234.21 49.78 229.38 46.27 226.74L48.49 253.37L50.49 255.5L69.3 275.57L53.05 360.99L40.11 352.99L31.95 283.09L30.54 330.75L34.43 349.96L30.24 376.46L34.43 385.91L33.5 472.67H39.22V415.46C39.22 414.31 57.34 374.88 57.34 374.88L65.72 393.75L46.58 472.67H50.35L71.77 390.89L57.49 362.96C57.49 362.96 61.28 353.85 61.49 353.05C61.7 352.25 75.89 301.37 75.89 301.37C75.89 301.37 66.52 297.93 68.18 298.18C70.7648 298.319 73.3552 298.319 75.94 298.18L81.01 296.65L93.38 360.97V386.14C93.38 386.14 116.61 477.63 117.67 478.46C117.823 478.551 117.993 478.609 118.17 478.63C120.256 478.853 122.356 478.907 124.45 478.79H125.34L116.39 418.71C116.39 418.71 127.22 382.71 127.22 382.02C127.22 381.33 132.46 385.44 132.46 385.44L130.63 478.56L132.01 478.49L132.23 476.79C132.61 464.01 135 384.17 135.97 383.92C136.94 383.67 124.28 353.62 124.28 353.62ZM34.33 371.54L37.85 354.72C38.85 355.15 48.62 365.47 48.62 365.47L34.33 371.54Z" fill="#8193CA"/>
<path d="M119.95 239.7C118.85 240.22 112.61 245.08 105.22 250.98C103.05 252.71 100.77 254.54 98.5 256.37L106.34 226.37L110.28 225.02L119.55 238.71L119.95 239.7Z" fill="#7DD1F0"/>
<path d="M130.63 267.23C130.2 268.84 116.69 320.17 116.34 320.73C115.99 321.29 103.28 293.12 103.28 293.12C103.28 293.12 104.92 258.65 105.23 250.94C112.62 245.04 118.86 240.18 119.96 239.66L130.63 267.23Z" fill="#689DD4"/>
<path d="M167.47 204.02C167.28 204.24 160.07 212.34 153.69 219.36V249.6L150.08 256.37L144.61 249.22L132.72 263.47L133.14 270.98H139.59V282.77L150.67 285.53L161.76 278.87C161.76 278.87 161.5 246.71 161.76 245.61C161.95 244.76 165.73 216.97 167.47 204.02ZM150.67 280.89L152.48 273.83V261.71L155.84 276.2L150.67 280.89Z" fill="#7DD1F0"/>
<path d="M161.76 278.88L158.86 286.29L143.01 293.17L134.3 291.52L133.14 270.98H139.58V282.78L150.67 285.54L161.76 278.88Z" fill="#689DD4"/>
<path d="M153.69 219.37V249.61L150.08 256.37L144.61 249.22L137.47 216.5C137.47 216.5 143.79 228.96 144 229.59C144.09 229.83 148.63 224.94 153.69 219.37Z" fill="#3A3B44"/>
<path d="M168.36 197.49C168.36 197.49 168.01 200.05 167.48 204.01C167.29 204.23 160.08 212.33 153.7 219.35C148.64 224.93 144.1 229.82 144.01 229.54C143.8 228.91 137.48 216.45 137.48 216.45L139.6 215.62L149.42 207.22L161.77 196.65C161.77 196.65 164.94 194.18 165.77 193.36C166.6 192.54 168.36 197.49 168.36 197.49Z" fill="#689DD4"/>
<path d="M132.47 385.37L130.64 478.49C129.33 478.56 127.36 478.66 125.35 478.72L116.4 418.64C116.4 418.64 127.23 382.64 127.23 381.95C127.23 381.26 132.47 385.37 132.47 385.37Z" fill="#4B5680"/>
<path d="M112.51 119.13L78.6899 130.3L69.2499 143.82L60.17 128.93L41.3099 119.19C41.5699 118 41.7199 117.25 41.7199 117.25L45.0099 114.05C44.6999 114.5 45.0099 117.47 45.0099 117.47L68.95 126.8L71.5099 127.8L110.45 115.64L112.51 119.13Z" fill="#7DD1F0"/>
<path d="M83.68 219.37V234.12V236.61L78.95 238.73L79.18 219.36H60.3C59.93 219.36 57.7799 216.9 56.6899 215.63L83.6899 214.47V219.37H83.68Z" fill="#7DD1F0"/>
<path d="M52.09 294.62C52.09 294.62 41.6499 320.02 41.4799 319.16C41.3099 318.3 32.57 285.37 31.95 282.92V282.02L36.84 243.14L37.4999 241.63L48.4999 253.39L50.4999 255.52L52.09 294.62Z" fill="#689DD4"/>
<path d="M69.2899 275.58L53.05 360.99L40.11 352.99L31.95 283.09V282.92C32.62 285.41 41.3599 318.32 41.5299 319.16C41.6999 320 52.14 294.62 52.14 294.62L50.5299 255.51L69.2899 275.58Z" fill="#3A3B44"/>
<path d="M48.62 365.47L34.33 371.54L37.8499 354.72C38.8799 355.15 48.62 365.47 48.62 365.47Z" fill="#4B5680"/>
<path d="M155.84 276.21L150.67 280.89L152.48 273.83V261.71L155.84 276.21Z" fill="#3A3B44"/>
<path d="M9.50004 276.21L5.79004 279.16L6.76004 262.73L9.50004 276.21Z" fill="#3A3B44"/>
<path d="M65.67 393.75L46.58 472.67H39.4001L39.16 472.17V415.46C39.16 414.31 57.28 374.88 57.28 374.88L65.67 393.75Z" fill="#4B5680"/>
<path d="M50.35 472.67L45.84 486.51H33.36V485.51L33.45 472.67H50.35Z" fill="#3A3B44"/>
<path d="M132.03 478.45L131.03 486.45H118.7L118.63 486.1L118.19 478.56C120.272 478.783 122.369 478.836 124.46 478.72C126.77 478.72 129.14 478.55 130.63 478.47L132.03 478.45Z" fill="#3A3B44"/>
<path d="M147.63 108.35L107.26 110.46L115.47 105.14L126.49 98.4899L128.67 97.1699L147.63 108.35Z" fill="#7DD1F0"/>
<path d="M147.63 108.37L140.84 128.12V128.25L125.3 128.44L125.11 128.25L107.35 110.52L147.63 108.37Z" fill="#689DD4"/>
<path d="M43.62 108.13L27.27 106.09L39.91 99.1899L43.62 108.13Z" fill="#7DD1F0"/>
<path d="M47.37 108.13L37.03 116.44L25.38 128.93L19.13 121.15L27.27 106.09L43.62 108.13L39.91 99.1899L47.37 108.13Z" fill="#689DD4"/>
<path d="M81.5899 35.27L97.3999 26.76L75.6899 33.08L81.5899 35.27Z" fill="#6767AE"/>
<path d="M79.2 65.24L101.43 55.97L104.38 58.92L104.74 57.55L101.43 55.97L82.2 62.15L79.2 65.24Z" fill="#BC7645"/>
<path d="M76.91 65.31L60.72 58.46L74 62.51L76.91 65.31Z" fill="#9B5023"/>
<path d="M94.97 79.8201L85.02 88.6601L83.09 89.6001L79.28 88.7201L77.78 88.2501L83.1 88.0401L94.97 79.8201Z" fill="#9B5023"/>
<path d="M67.92 81.2101L77.78 88.2501L67.92 80.0601V81.2101Z" fill="#9B5023"/>
<path d="M67.95 80.05C67.95 80.22 78.0099 88.05 78.0099 88.05H83.14L82.9699 88.7401L77.8099 88.2601C77.8099 88.2601 69.5299 82.0801 69.4799 82.1001C69.4299 82.1201 67.95 80.05 67.95 80.05Z" fill="#9B5023"/>
<path d="M75.7 33.0701C75.7 33.0701 70.63 24.5101 70.56 23.7501C70.49 22.9901 80.12 5.6001 80.12 5.6001C80.12 5.6001 75.12 21.2901 75.34 21.4801C75.56 21.6701 80.96 31.0101 80.96 31.0101L75.7 33.0701Z" fill="#97712D"/>
<path d="M103.52 7.03994C102.89 6.84994 94.9699 10.4699 94.9699 10.4699C94.9699 10.4699 88.5499 26.9899 88.8299 26.7599C89.1099 26.5299 96.1699 11.9899 96.1699 11.9899L103.52 7.03994Z" fill="#97712D"/>
<path d="M46.5601 25.66L62.6501 16.9L71.5801 19.34L61.5801 5.01001L46.5601 25.66Z" fill="#97712D"/>
<path d="M98.4999 368.98C99.0199 369.89 113.41 407.85 113.41 407.85L97.1899 386.73L98.4999 368.98Z" fill="#4B5680"/>
<path d="M48.62 371.55L35.9 376.23L39.16 415.46L57.28 374.88L48.62 371.55Z" fill="#3A3B44"/>
<path d="M57.83 235.67L52.41 257.57L69.28 275.58L67.13 286.91L74.41 288.86L81.06 287.16L76.99 273.83L93.38 260.5L102.14 227.12L83.68 234.11L83.67 236.6L69.28 243.13L57.83 235.67Z" fill="#689DD4"/>
<path d="M132.11 150.12L130.59 149.6L131.11 148.6L134.64 141.97V141.91V141.84L141.09 129.7L150.95 156.6V156.68C147.2 155.37 136.17 151.52 132.11 150.12Z" fill="#3A3B44"/>
<path d="M161.48 194.43L151.83 190.23L145 187.23L145.08 186.9L145.41 185.53L145.5 185.13L151.78 158.94L159.95 181.54L161.48 194.43Z" fill="#689DD4"/>
<path d="M145.11 188.07C145.75 191.8 148.3 206.76 148.33 207.97C148.326 208.05 148.305 208.128 148.27 208.2C147.66 209.57 142.27 213.6 139.8 215.44L139.71 215.51L139.65 215.56H139.58L141.95 188.23V187.97L139.65 184.8L135.09 178.51L121.44 151.31L121.38 151.19C124.25 150.39 130.43 148.69 131.1 148.6C131.296 148.633 131.49 148.679 131.68 148.74C131.68 148.74 146.86 154.89 150.88 156.6V156.68L151.7 158.95L145.42 185.14L145.33 185.54L145 186.91L144.92 187.24L145.11 188.07Z" fill="#7DD1F0"/>
<path d="M161.75 196.66L151.84 205.15C151.74 205.23 151.64 205.32 151.54 205.39L149.4 207.12L148.33 207.97L145.11 188.07L144.97 187.24L151.8 190.24L161.45 194.44L161.75 196.66Z" fill="#3A3B44"/>
<path d="M150.25 184.7L146.25 186.4L146.06 186.48H146.01L145.06 186.88L141.95 188.23V187.97L139.65 184.8C141.92 184.96 144.34 185.08 145.17 185.12H145.46L150.25 184.7Z" fill="#3A3B44"/>
<path d="M141.17 129.67L134.72 141.81V141.88V141.94L131.19 148.57L121.53 151.28L119.87 147.97L121.37 142.52L123.16 135.73H123.22L123.38 135.65L123.78 135.48L124.07 135.35L124.49 135.17L124.7 135.08L125.07 134.92L125.63 134.68L125.97 134.53L127.97 133.68L135.86 130.28L137.16 129.72L140.21 128.41L140.54 128.27H140.62H140.67L140.87 128.16V128.29L141.17 129.67Z" fill="#4B5680"/>
<path d="M37.1 136.43L35.44 139.13L32.39 150.79L31.72 152.02C31.72 152.02 38.4 165.76 37.72 166.48C37.04 167.2 25.63 176.88 25.63 176.88L21.5 150.79L27.14 139.63L37.1 136.43Z" fill="#4B5680"/>
<path d="M25.6201 176.85L25.04 177.28L16.04 183.98C16.11 181.98 16.19 180.1 16.25 178.45L17.53 166.83L17.72 165.12C19.66 153.93 23.06 135.23 23.06 135.23L27.1501 139.6L21.51 150.77L24.75 171.23V171.37L25.63 176.89L25.6201 176.85Z" fill="#689DD4"/>
<path d="M37.72 166.48L37.65 167.15L34.01 189.15L32.83 207.2L24.83 202.76L23.05 201.76L22.39 201.39C22.39 201.39 22.44 201.05 22.51 200.46C22.51 200.26 22.57 200.03 22.6 199.78C22.63 199.53 22.66 199.36 22.69 199.12C22.78 198.46 22.88 197.67 23 196.8C23 196.62 23 196.43 23.08 196.23C23.16 196.03 23.17 195.58 23.21 195.23C23.2052 195.147 23.2052 195.063 23.21 194.98L23.38 193.68C23.45 193.14 23.52 192.58 23.6 192L23.75 190.87C23.97 189.16 24.21 187.41 24.43 185.74C24.48 185.4 24.52 185.06 24.57 184.74C24.62 184.42 24.62 184.29 24.66 184.07C24.72 183.55 24.79 183.07 24.85 182.58C24.85 182.25 24.94 181.93 24.98 181.58C25.02 181.23 25.06 180.97 25.1 180.68V180.42V180.19L25.19 179.48L25.28 178.78C25.28 178.56 25.33 178.36 25.36 178.17L25.43 177.67L25.54 176.85L25.67 176.74L26.02 176.44C28.11 174.61 36.36 167.44 37.52 166.54H37.57L37.72 166.48Z" fill="#689DD4"/>
<path d="M25.64 176.87L25.5299 177.69C25.5299 177.84 25.48 178 25.46 178.19C25.44 178.38 25.4099 178.58 25.3799 178.8C25.3499 179.02 25.3199 179.25 25.2899 179.5C25.2599 179.75 25.2299 179.93 25.1899 180.16V180.41V180.67C25.1499 180.963 25.1099 181.263 25.0699 181.57C25.0699 181.88 24.9799 182.2 24.9399 182.57C24.8799 183.05 24.8099 183.57 24.7499 184.06C24.7499 184.28 24.6799 184.51 24.6599 184.73C24.6399 184.95 24.57 185.4 24.52 185.73C24.3 187.4 24.06 189.15 23.84 190.86L23.6899 191.99C23.6099 192.57 23.5399 193.13 23.4699 193.67L23.3 194.97C23.2952 195.053 23.2952 195.137 23.3 195.22C23.3 195.56 23.21 195.89 23.17 196.22C23.13 196.55 23.12 196.62 23.09 196.8C22.97 197.67 22.8699 198.46 22.7799 199.12C22.7799 199.36 22.7499 199.58 22.6899 199.78C22.6899 200.03 22.6299 200.26 22.5999 200.46C22.5299 201.05 22.4799 201.39 22.4799 201.39L15.58 197.56C15.58 197.56 15.8699 190.5 16.1299 183.97C16.1999 181.97 16.28 180.09 16.34 178.44L17.62 166.82C18.69 168.35 23.36 173.97 25.09 176.05L25.7199 176.79L25.64 176.87Z" fill="#7DD1F0"/>
<path d="M140.8 128.23C140.8 128.23 140.8 128.23 140.68 128.29H140.58L140.41 128.37C138.71 129.08 132.41 131.73 127.9 133.64L125.9 134.49L125.56 134.64L125 134.88L124.63 135.04L124.42 135.13L124 135.31L123.71 135.44L123.31 135.61L123.15 135.69C122.6 135.69 116.91 126.38 112.51 119.05L110.41 115.56C108.76 112.78 107.57 110.75 107.41 110.43L125.2 128.21L140.8 128.23Z" fill="#3A3B44"/>
<path d="M63.34 146.55L52.07 163.99L40.83 161.11L38.75 159.64L31.41 150.85L35.4 138.79L38.7 135.31L52.81 135.93L63.34 146.55Z" fill="#7DD1F0"/>
<path d="M105.27 209.59L83.6801 219.37V214.47L56.4901 215.63V219.37L50.76 211.28L48.04 176.58L39.61 170.16L37.79 166.45L30.79 152.1L31.4601 150.87L38.8 159.67L40.88 161.13L46.22 164.92L54.98 178.22L56.53 177.41L57.92 198.84L69.3401 193.13C69.3401 193.13 82.34 198.59 83.72 198.84C84.72 199.01 87.34 187.62 88.64 181.6C91.27 182.6 97.02 185.05 97.45 185.05C97.88 185.05 100.45 188.9 101.84 190.93C102.24 193.21 105.27 209.59 105.27 209.59Z" fill="#689DD4"/>
<path d="M123.17 135.74L119.79 148L116.23 145.43C111.42 141.93 103.36 136.08 102.93 135.74C102.3 135.26 89.67 139.63 89.67 139.63L75.26 148.97L70.12 161.23L63.34 146.55L52.82 135.93L38.7 135.31L35.4 138.78L36.93 136.66C37.5 136.66 40.26 124.07 41.31 119.15L60.17 128.91L69.25 143.82L78.69 130.28L112.51 119.1C116.95 126.52 122.73 135.97 123.17 135.74Z" fill="#689DD4"/>
<path d="M111.74 156.44C111.62 156.88 101.09 169.8 101.09 169.8L100.93 174.75" fill="#4B5680"/>
</g>
<defs>
<clipPath id="clip0">
<rect width="169" height="516" fill="white"/>
</clipPath>
</defs>
</svg>
