<svg width="193" height="497" viewBox="0 0 193 497" fill="none" xmlns="http://www.w3.org/2000/svg">
<path d="M96.28 44.59L82.84 44.81C82.54 44.81 77.62 47.12 77.62 47.12L75.16 44.62L67.35 44.35L68.7 50.93L71.19 57.65L75.41 64.65H87.59L98.28 54.13L96.28 44.59ZM83.17 57.21C82.92 57.13 77.35 57.21 77.35 57.21L75.77 54.72H85.58C85.58 54.72 83.42 57.3 83.17 57.21ZM73.64 52.16L75.32 50.95C75.32 50.95 84.44 50.88 84.76 50.95C85.08 51.02 89.36 52.24 89.36 52.24L73.64 52.16Z" fill="#A6662F"/>
<path d="M72.43 0.899994L79.12 2.77L87.07 0.899994L102.55 4.98L88.87 8.39L76.37 7.7L72.43 0.899994Z" fill="#3F383E"/>
<path d="M190.5 220.32V220.78H176.32L185.12 166.58C185.12 166.58 190.77 188.94 191.23 189.58V189.73C191.73 192.42 190.5 220.32 190.5 220.32Z" fill="#827140"/>
<path d="M185.12 220.78L179.9 248.77L174.72 234.77L168.72 232.75L168.87 232.29L176.31 220.78H185.12Z" fill="#A4682F"/>
<path d="M179.9 248.77L169.54 252.27L167.21 248.77L172.53 246.99V242.39L167.21 248.77L164.81 245.15L168.72 232.75L174.72 234.77L179.9 248.77Z" fill="#85491F"/>
<path d="M192.57 247.64L187.84 252.27H169.54L179.9 248.77L192.57 247.64Z" fill="#4B1D11"/>
<path d="M190.5 220.78L192.57 247.64L179.9 248.77L185.12 220.78H190.5Z" fill="#85491F"/>
<path d="M166.38 104V104.07L152.84 122.59L137.31 115.3V99.55L155.9 83.22H156.23L166.38 104Z" fill="#E7C053"/>
<path d="M155.9 83.22L137.31 99.55L115.33 87.72L130.48 79.11L130.71 79.21L155.9 83.22Z" fill="#F4A54B"/>
<path d="M146.45 128.73C146.45 128.73 147.79 154.6 148.32 155.73C147.64 155.73 140.19 128.18 140.19 128.18L129.67 107.89L115.33 87.7L137.33 99.53V115.32L152.86 122.61L146.45 128.73Z" fill="#827140"/>
<path d="M105.69 68C100.63 70.16 83.69 78.31 83.39 78.09C83.09 77.87 76.13 72.61 72.39 69.79L82.45 73.45L104.1 63V67.28L105.69 68Z" fill="#70411E"/>
<path d="M104.14 56.74V62.95L82.53 73.42L72.47 69.76L73.16 64.02L75.04 66.29H87.71L104.14 56.74Z" fill="#622F13"/>
<path d="M104.2 46.9L104.77 46.28L104.2 46.9L104.14 56.74L87.64 66.29L98.28 54.09C98.28 54.09 100.82 48.01 103.39 41.93C103.55 41.57 104.2 46.71 104.2 46.9Z" fill="#471E12"/>
<path d="M98.28 54.09L87.64 66.29H75L73.1 64L71 57.91L68.74 51.09L66.66 44.27L68.02 44.35L69.36 50.93L71.86 57.65L75.44 64.65H87.62L98.28 54.09Z" fill="#78421B"/>
<path d="M110.49 29.78V40.09L104.2 46.9C104.2 46.71 103.55 41.57 103.39 41.9C105.96 35.82 108.55 29.75 108.64 29.75L110.49 29.78Z" fill="#70411E"/>
<path d="M107.87 14.41L106.69 29.25L97.38 25.25L98 14.92L93.51 15.66L81.46 19.24L68.37 14.49L66.28 26.09L67.51 9.85001C67.51 9.85001 78.84 12.33 79.1 12.33C79.36 12.33 96.79 10.7 97.18 10.57C97.57 10.44 102.7 8.41 102.99 8.12L107.87 14.41Z" fill="#22201F"/>
<path d="M93.51 15.67L90.86 24.8C90.86 24.8 79.33 30.16 79.14 30.29C78.95 30.42 70.62 25.81 70.24 25.69C69.86 25.57 68.37 14.5 68.37 14.5L80.94 19.06L93.51 15.67Z" fill="#A6662F"/>
<path d="M108.88 29.78L102.74 31.88L97.63 33.42L94.77 29.93L92.37 27.02L97.38 25.26L106.69 29.25L106.64 29.68L108.88 29.78Z" fill="#F3EB50"/>
<path d="M103.06 31.69C103.06 31.69 98.2 40.89 96.74 43.75L96.48 44.23L96.32 44.53C96.3165 44.5498 96.3165 44.5702 96.32 44.59L82.88 44.81C82.58 44.81 77.66 47.12 77.66 47.12L75.2 44.62L68.42 44.35L66.67 44.27L68.67 39.73L75.79 41.51L77.21 34.45L67.68 30.11L66 26.48L66.28 26.1L78.81 32.55L92.51 26.97L94.79 29.76L80.94 34.83L82.14 41.51C82.43 41.51 94.98 41 95.19 40.93C95.4 40.86 97.65 33.25 97.65 33.25L103.06 31.69Z" fill="#F3EB50"/>
<path d="M77.19 34.45L75.77 41.51L75.22 34.78L67.66 30.11L77.19 34.45Z" fill="#572D83"/>
<path d="M68.65 39.73L66.63 44.27L63.5 35.02V29.78L66 26.48L67.66 30.11L65.85 33.73L67.51 39.45L68.65 39.73Z" fill="#F3EB50"/>
<path d="M94.79 29.76L84.25 34.59L82.14 41.51L80.94 34.83L94.79 29.76Z" fill="#572D83"/>
<path d="M108.88 29.78C108.64 30.14 106.13 36.02 103.64 41.91L103.53 42.18C101.3 47.42 98.97 52.63 98.4 53.82C98.4 53.82 98.4 53.98 98.34 54.02C98.3159 54.0554 98.2854 54.0859 98.25 54.11L96.25 44.57V44.51C96.3088 44.413 96.3622 44.3129 96.41 44.21L96.67 43.73C98.2 40.88 102.99 31.67 102.99 31.67L108.5 29.87L108.8 29.76L108.88 29.78Z" fill="#F3EB50"/>
<path d="M140.19 128.2L129.67 107.91L123.31 122.63C123.31 122.63 108.24 131.44 107.88 131.81C107.52 132.18 79.46 126.19 79.46 126.19L81.31 102.48L89.75 86.1L81.41 91.16C81.41 91.16 73.77 87.24 73.16 86.56L78.84 103.56L75 126.69L50.9 133.21L37.68 124.09L50.22 140L67.22 133.81L52.81 147.33L55.24 183C55.24 183 65.24 204.41 65.7 204.72C66.16 205.03 91.38 204.72 91.38 204.72L109.3 178.56L124 171.74C124 171.62 124 171.56 124 171.56L140.19 128.2ZM99.72 187.43L96.43 192.31L77.79 194.54V135.22L101.21 146.28L97.5 160.17L99.72 187.43ZM84.63 133.83C84.63 133.83 110.14 138.55 110.83 138.37C111.52 138.19 132.04 121.89 132.68 121.37L112.91 146.27L84.63 133.83Z" fill="#E7C053"/>
<path d="M132.68 121.38L112.91 146.28L84.63 133.83C84.63 133.83 110.14 138.55 110.83 138.37C111.52 138.19 132 121.89 132.68 121.38Z" fill="#827140"/>
<path d="M78.84 103.54L75.01 126.69L50.92 133.21L37.7 124.09L36.83 107.06L52.48 87.72L78.84 103.54Z" fill="#F3EB50"/>
<path d="M52.48 87.72L31.48 103.54L22.74 97.07L31.55 82.39L48.26 81.49L48.81 81.24C50.13 83.25 52.48 87.72 52.48 87.72Z" fill="#F4A54B"/>
<path d="M25.67 123.6L25.72 123.46L22.78 97.07L31.52 103.54L37.7 124.09L25.67 123.6Z" fill="#E7C053"/>
<path d="M53.9 208.79L66.67 234.79L65.49 232.94L65 232.17L64.73 231.76L64.15 230.84L63.51 229.84L63.17 229.3L62.08 227.59L60.91 225.75L60.09 224.45L59.25 223.14L58.82 222.46L58 221.16L56.61 218.98L55.8 217.7L55 216.3C51.21 210.3 47.95 205.1 47.89 204.84L51.96 181.5C51.96 181.5 48.07 147.5 48.29 143.86C47.35 146.38 38.54 163.86 37.79 165.36L18.94 155.95L38.8 146.29L37.75 124.1L50.23 140L67.23 133.81L52.82 147.33L55.24 183L53.9 208.79Z" fill="#827140"/>
<path d="M18.89 155.94L19.71 185.5L8.94 221.18L2.69 217.62L11.94 167.27L18.89 155.94Z" fill="#F3EB50"/>
<path d="M37.69 165.45L36.22 179.23L14.89 221.45L8.94 221.18L19.71 185.5L37.69 165.45Z" fill="#827140"/>
<path d="M13.85 237.2L4.25 250.72L0.880005 236.35L2.69 217.62L8.94 221.18L13.85 237.2Z" fill="#874A20"/>
<path d="M22.69 233.78L13.85 237.2L8.94 221.18L14.89 221.45L22.56 233.42L22.69 233.78Z" fill="#A76931"/>
<path d="M26.17 244.03L22.56 246.74L13.85 237.2L22.69 233.78L26.17 244.03Z" fill="#804A1F"/>
<path d="M22.56 246.74L20.38 250.85L19.62 252.27L4.26999 250.8L4.25 250.72L13.85 237.2L22.56 246.74Z" fill="#471914"/>
<path d="M126.55 196.26L101.21 219.47L91.13 234.77C90.61 234.08 113.43 201.27 112.91 200.77C112.39 200.27 109.3 178.55 109.3 178.55L124 171.74C124.23 173.94 126.46 194.86 126.46 195.74C126.479 195.915 126.509 196.089 126.55 196.26Z" fill="#827140"/>
<path d="M66.68 234.77L59.24 292.48L36.24 271.57L47.86 204.84C48.01 205.46 66.12 233.84 66.69 234.75L66.68 234.77Z" fill="#F3EB50"/>
<path d="M143.35 252.27L141.35 315.6C141.35 315.6 131.89 327.07 128.35 332.14C130.94 326.36 136.35 311.88 136.35 311.61C136.35 311.34 123 294 121.57 290.4C121.67 289.97 121.67 289.74 121.57 289.77C121.47 289.8 121.45 290.01 121.57 290.4C120.57 294.69 109.08 319.56 108.15 321.57L108.09 321.7C100.6 296.29 90.53 262.32 90.53 262.32L87.14 300C87.14 300 81.09 326.31 81.04 326.88L74.64 330.88C69.91 333.88 64.2 337.47 63.75 337.77C62.95 338.3 74.3 316.13 74.3 316.13L59.24 292.45L66.68 234.74C66.68 234.74 91.14 235.43 91.14 234.74L121.56 288.39L143.35 252.27Z" fill="#827140"/>
<path d="M59.24 292.48L49.43 327.12L36.22 271.57L59.24 292.48Z" fill="#827140"/>
<path d="M80.59 350.15L65.59 364.99L45.59 340.66L48.93 328.84L49.2 327.91L49.43 327.12L59.24 292.48L74.3 316.16C74.3 316.16 63 338.33 63.74 337.8C64.48 337.27 81 326.9 81 326.9C81.26 326.22 80.59 350.15 80.59 350.15Z" fill="#FDC050"/>
<path d="M87.14 388.31L65.59 364.99L80.59 350.15L87.14 388.31Z" fill="#F4A54B"/>
<path d="M87.14 388.31L67.49 460.79L65.59 364.99L87.14 388.31Z" fill="#E7C053"/>
<path d="M49.71 433.16C49.71 433.16 49.88 371.37 49.65 370.7C49.42 370.03 45.59 341.35 45.59 340.7L65.59 365.03L67.49 460.83L49.71 433.16Z" fill="#827140"/>
<path d="M68.4 484.72L30.24 486.52C30.24 486.52 20.98 489.68 20.08 489.45C19.18 489.22 4.26999 487 4.26999 487L5.17001 481.35L24.91 482.2L43.12 482.99L60.51 479.16C60.51 479.16 67.93 477.25 68.16 477.31C68.29 481.44 68.4 484.72 68.4 484.72Z" fill="#827140"/>
<path d="M68.16 477.29C67.93 477.23 60.51 479.14 60.51 479.14L51.8 457.14L49.71 432.92L67.49 460.55C67.61 460.56 67.94 470.19 68.16 477.29Z" fill="#F3EB50"/>
<path d="M60.51 479.13L43.12 483.2L24.91 482.41L14.22 477.29L41.45 466.53L60.51 479.13Z" fill="#E7C053"/>
<path d="M24.91 482.41L5.17001 481.33L14.21 477.29H14.22L24.91 482.41Z" fill="#F4A54B"/>
<path d="M143.35 252.27L121.56 288.44C120.91 287.8 132.44 216.21 132.44 216.21C137.3 232.4 143.35 252.27 143.35 252.27Z" fill="#FDC050"/>
<path d="M141.32 315.6C141.32 315.6 131.86 327.07 128.32 332.14C130.91 326.36 136.32 311.88 136.32 311.61C136.32 311.34 123 294 121.57 290.4C120.57 294.87 108.08 321.7 108.08 321.7L123.85 339.56L126.98 362.16L144.48 345L141.32 315.6Z" fill="#FDC050"/>
<path d="M140 436.66L119.88 395.09C119.88 395.09 119.88 394.67 119.78 393.91C119.84 392.61 126.99 370.14 126.99 370.14L116 349C116 348.75 112.48 336.72 108.18 321.87L124 339.74L127 362.16L161.77 432.16L163.47 464.84L140 436.66Z" fill="#827140"/>
<path d="M127 370.1C127 370.1 119.85 392.57 119.79 393.87C119.18 386.66 116.05 349.64 116.05 349.02L127 370.1Z" fill="#F4A54B"/>
<path d="M161.75 432.17L126.98 362.16L144.48 344.95L159.16 382.21L161.75 432.17Z" fill="#E7C053"/>
<path d="M168.9 477.63L145.11 469.94L140.42 437.53L139.99 436.66L163.45 464.85L168.9 477.63Z" fill="#F4A54B"/>
<path d="M173.59 488.66L148.59 488.2C148.59 488.2 145.16 478.2 145.16 477.75V470.27L145.11 469.94L168.9 477.63L173.59 488.66Z" fill="#E7C053"/>
<path d="M175.19 492.4L161.19 496.91H148.77L142.9 489.69L145.16 478.17V477.75C145.16 478.17 148.59 488.2 148.59 488.2L173.59 488.66L175.19 492.4Z" fill="#827140"/>
<path d="M185.12 166.58L168 155.41L152.84 122.63L166.38 104.11C166.38 105.22 166.62 118.52 166.84 119.17C167.06 119.82 173.39 133.85 173.39 133.85C173.39 133.85 176.32 153.95 176.32 153.26C176.32 152.57 185.12 166.58 185.12 166.58Z" fill="#827140"/>
<path d="M168 155.41C168 155.41 162.26 161.35 158.32 165.28C157.17 164.12 150.4 157.28 148.69 155.96C151.31 156.69 166.87 155.41 168 155.41Z" fill="#827140"/>
<path d="M176.32 220.78L159.83 187.78L158.49 165.43L158.32 165.25C162.26 161.32 168 155.38 168 155.38L176.32 220.78Z" fill="#F3EB50"/>
<path d="M185.12 166.58L176.31 220.78L168 155.41L185.12 166.58Z" fill="#E7C053"/>
<path d="M113.67 71.55L89.75 86.1L81.41 91.16C81.41 91.16 73.77 87.24 73.16 86.56V86.47C73.42 86.29 69.77 78.93 67.5 74.4C67.71 74.2 70.19 71.97 71.55 70.67C72 70.25 72.32 69.92 72.41 69.81C76.11 72.63 83.1 77.92 83.41 78.11C83.72 78.3 99.02 69.45 104.09 67.28L113.67 71.55Z" fill="#827140"/>
<path d="M78.84 103.54L52.48 87.72L73.13 86.47L73.16 86.56L78.84 103.54Z" fill="#F3EB50"/>
<path d="M36.83 107.06L37.7 124.09L31.52 103.54L52.48 87.72L36.83 107.06Z" fill="#827140"/>
<path d="M38.75 146.28L18.89 155.94L21.2 137.24L25.67 123.6L37.7 124.09L38.75 146.28Z" fill="#F3EB50"/>
<path d="M37.74 165.35L37.69 165.46L19.69 185.46L18.87 155.9L37.74 165.35Z" fill="#E7C053"/>
<path d="M20.38 250.85L7.57001 248.35L12.07 244.56L22.56 246.74" fill="#804A1F"/>
<path d="M115.33 87.72L81.31 102.48L89.75 86.1L115.33 87.72Z" fill="#F3EB50"/>
<path d="M129.67 107.91L123.31 122.63C123.31 122.63 108.24 131.44 107.88 131.81C107.52 132.18 79.46 126.19 79.46 126.19L81.31 102.48L115.31 87.72L129.67 107.91Z" fill="#F3EB50"/>
<path d="M168 155.41C166.87 155.41 151.31 156.69 148.69 155.96C148.593 155.861 148.473 155.789 148.34 155.75C147.81 154.6 146.47 128.75 146.47 128.75L152.86 122.65L168 155.41Z" fill="#F3EB50"/>
<path d="M172.53 242.39V246.99L167.21 248.77L172.53 242.39Z" fill="#4B1D11"/>
<path d="M97.5 160.17L99.72 187.43L96.43 192.31L77.79 194.54V135.23L101.2 146.28L97.5 160.17Z" fill="#F3EB50"/>
<path d="M121.56 288.44L91.14 234.79L101.22 219.49L126.56 196.28C127.13 198.43 129.56 206.69 132.45 216.23C132.44 216.21 120.91 287.8 121.56 288.44Z" fill="#F3EB50"/>
<path d="M91.13 234.77C91.13 235.44 66.67 234.77 66.67 234.77L53.9 208.77L55.24 183C55.24 183 65.24 204.41 65.7 204.72C66.16 205.03 91.38 204.72 91.38 204.72L109.3 178.56C109.3 178.56 112.39 200.26 112.91 200.78C113.43 201.3 90.61 234.08 91.13 234.77Z" fill="#E7C053"/>
<path d="M98 14.93L97.38 25.26L92.51 27L78.81 32.58L66.28 26.13L68.37 14.53C68.37 14.53 69.87 25.59 70.24 25.72C70.61 25.85 78.95 30.45 79.14 30.32C79.33 30.19 90.86 24.83 90.86 24.83L93.51 15.7L98 14.93Z" fill="#83491F"/>
<path d="M89.36 52.24L86.79 52.81L74.93 52.54C74.93 52.54 73.69 52.16 73.64 52.16L75.32 50.95C75.32 50.95 84.44 50.88 84.76 50.95C85.08 51.02 89.36 52.24 89.36 52.24Z" fill="#8E5828"/>
<path d="M85.58 54.72C85.58 54.72 83.42 57.3 83.17 57.21C82.92 57.12 77.35 57.21 77.35 57.21L75.77 54.72H85.58Z" fill="#8E5828"/>
<path d="M97.65 33.25C97.65 33.25 95.39 40.86 95.19 40.93C94.99 41 82.43 41.51 82.14 41.51L84.25 34.59L94.79 29.76L97.65 33.25Z" fill="white" stroke="#221F1F" stroke-linejoin="round"/>
<path d="M75.77 41.51L68.65 39.73L67.51 39.45L65.85 33.73L67.66 30.11L75.22 34.78L75.77 41.51Z" fill="white" stroke="#221F1F" stroke-linejoin="round"/>
<path d="M82.49 44.89L95.77 46.2L98.28 54.09L96.28 44.59L82.81 44.81" fill="#6A3F26"/>
<path d="M107.87 14.41L94.79 13.41L79.14 15.89L68.66 13.13L67.52 9.83L68.97 7.2L90.39 9.67L102.55 5L107.87 14.41Z" fill="#22201F"/>
<path d="M76.53 28.4C77.3036 28.8623 78.1014 29.2829 78.92 29.66C78.7017 27.979 78.398 26.3101 78.01 24.66C77.6111 24.301 77.2463 23.906 76.92 23.48L76.53 28.4Z" fill="#A36B33"/>
<path d="M79.44 29.64L80.94 26.99V28.84L79.44 29.64Z" fill="#A36B33"/>
<path d="M73.13 86.47L52.48 87.72C52.48 87.72 50.13 83.25 48.85 81.22L65.66 71.3L72.4 69.76C72.31 69.87 71.99 70.2 71.54 70.62C70.18 71.92 67.7 74.15 67.49 74.35C69.74 78.93 73.39 86.29 73.13 86.47Z" fill="#E7C053"/>
<path d="M52.48 79.07L31.59 82.37L52.48 82.06V79.07Z" fill="#827140"/>
<path d="M97.5 160.17L77.79 156.69L76.48 161.18L97.64 161.89L99.53 160.83L97.5 160.17Z" fill="#E7C053"/>
<path d="M173.39 133.85L168 133.19L166.84 119.19C167.07 119.85 173.39 133.85 173.39 133.85Z" fill="#F4A54B"/>
<path d="M53.9 208.79L66.67 234.79L65.49 232.94L65 232.17L64.73 231.76L64.15 230.84L63.51 229.84L63.17 229.3L62.08 227.59L60.91 225.75L60.09 224.45L59.25 223.14L58.82 222.46L58 221.16L56.61 218.98L55.8 217.7L55 216.3C51.21 210.3 47.95 205.1 47.89 204.84L51.96 181.5C51.96 181.5 48.07 147.5 48.29 143.86L37.7 124.09L50.23 140L67.23 133.81L52.82 147.33L55.24 183L53.9 208.79Z" fill="#827140"/>
<path d="M96.15 192.34L90 201.19L77.81 202.13V194.54C77.81 194.54 84.81 185.86 85.11 185.72C85.41 185.58 96.15 192.34 96.15 192.34Z" fill="#E7C053"/>
<path d="M102.55 5V9.88L79 14.5L67.48 9.86L68.93 7.23C70.35 4.65 72.32 1.05999 72.39 0.899994C72.39 1.24999 79.75 5.81 79.75 5.81L83.75 3.28999L87.07 4.98L102.55 5Z" fill="#22201F"/>
<path d="M98 14.93C98 14.93 102.29 12.63 102.25 12.78C102.21 12.93 100.63 26.66 100.63 26.66L97.38 25.26L98 14.93Z" fill="#3F383E"/>
<path d="M109.46 32.09V39.73L106.36 43.29L109.46 32.09Z" fill="#5C3412"/>
<path d="M106.36 43.29L104.45 43.13L109.46 32.09L108.88 37.69L106.36 43.29Z" fill="#5C3412"/>
<path d="M80.94 18.43C80.94 18.23 70.54 10.64 70.54 10.64C70.54 10.64 72.24 1.64 72.43 1.94C72.62 2.24 78.92 9.66 78.92 9.66L80.94 18.43Z" fill="#3F383E"/>
<path d="M66.63 44.27L74.97 45.52C74.97 45.52 77.79 47.28 77.62 47.12L75.16 44.62L66.63 44.27Z" fill="#6A3F26"/>
<path d="M130.48 79.11L115.33 87.72L89.75 86.1L112.03 72.55L104.07 67.24L114.54 70.34L130.48 79.11Z" fill="#E7C053"/>
<path d="M130.71 137.6C130.53 138.03 117.83 148.11 117.83 148.11L116.94 154.55L130.71 137.6Z" fill="#827140"/>
<path d="M130 144.9C129.87 145.34 118.93 158.17 118.93 158.17L118.6 163.68L130 144.9Z" fill="#827140"/>
<path d="M129.68 107.91L136.06 128.7L123.96 171.74L140.19 128.2L129.68 107.91Z" fill="#F4A54B"/>
<path d="M75.11 142.83C75.46 143.71 74.4 155.57 74.4 155.57L62.78 156.32L65.23 145.1L75.11 142.83Z" fill="#F3EB50"/>
<path d="M74.74 168.15L74.39 193.04L62.88 189.33L64.87 170.42L74.74 168.15Z" fill="#F3EB50"/>
<path d="M108.15 321.57L108.09 321.7C100.6 296.29 90.53 262.32 90.53 262.32L87.14 300C87.14 300 81.09 326.31 81.04 326.88L74.64 330.88L81.08 310L89.5 259L82.07 255.54L78.91 246.74L85.62 252.32H93.82C93.82 252.32 95.67 260.93 96.15 261.8C96.63 262.67 107.24 316.91 108.15 321.57Z" fill="#F4A54B"/>
<path d="M41.45 466.53L51.8 457.15C51.8 457.15 61.08 479.95 60.52 479.36C59.96 478.77 41.45 466.53 41.45 466.53Z" fill="#F4A54B"/>
<path d="M190.5 220.32V220.78H176.32L191.23 189.61V189.76C191.73 192.42 190.5 220.32 190.5 220.32Z" fill="#827140"/>
<path d="M75.41 64.61C75.54 64.47 77.41 61.4 77.41 61.4L83.72 61.11L87.63 64.61L80.17 65.61L75.41 64.61Z" fill="#78421B"/>
</svg>
