<svg width="168" height="479" viewBox="0 0 168 479" fill="none" xmlns="http://www.w3.org/2000/svg">
<path d="M90.9999 42.21H89.8799L85.8799 42.28H85.2799L80.7099 42.36H79.3799H78.0799H77.9799L77.7999 42.42L77.3599 42.61L76.7999 42.85L74.4299 44L74.0799 44.16L73.6199 44.38L73.3799 44.49L73.0299 44.65L70.6499 42.24L63.7399 42H63.1099C63.2299 42.54 64.9399 48.31 64.9399 48.31L67.5099 54.8L71.8099 61.52H82.6399L90.3499 52.41L90.4199 52.34L91.1899 51.44L91.2399 51.38V51.19L90.9999 42.21ZM79.8799 48.35C80.1899 48.42 84.3099 49.6 84.3099 49.6L69.1399 49.52L70.7599 48.35C70.7599 48.35 79.6099 48.29 79.9199 48.35H79.8799ZM71.2399 52H80.7099C80.7099 52 78.6199 54.49 78.3799 54.41C78.1399 54.33 72.7599 54.41 72.7599 54.41L71.2399 52Z" fill="#A6662F"/>
<path d="M68.01 0.0400391L74.48 1.85005L82.15 0.0400391L97.1 3.98004L83.89 7.28004L71.82 6.61005L68.01 0.0400391Z" fill="#3E383E"/>
<path d="M163.9 218.6V219.03L154.17 218L165.29 167.28C165.29 167.28 166.7 188.96 167.07 189.65V189.8C167.26 192.36 163.9 218.6 163.9 218.6Z" fill="#3A3B44"/>
<path d="M159.63 218.57L154.64 245.2L151.15 231.22L145.61 228.65L145.8 228.22L154.16 217.96L159.63 218.57Z" fill="#A4682F"/>
<path d="M154.64 245.2L144.33 247.46L142.46 243.86L147.76 242.71L148.25 238.3L142.46 243.86L140.54 240.13L145.61 228.65L151.15 231.22L154.64 245.2Z" fill="#85491F"/>
<path d="M166.92 245.46L161.88 249.4L144.33 247.46L154.64 245.2L166.92 245.46Z" fill="#4B1D11"/>
<path d="M163.85 219.03L166.92 245.46L154.64 245.2L159.63 218.57L163.85 219.03Z" fill="#85491F"/>
<path d="M141 80.0998L129.54 97.5798L109.42 83.8498L124.05 75.5298L124.27 75.6298L141 80.0998Z" fill="#7DD1F0"/>
<path d="M98.0001 64.9299C93.0001 67.0999 80.0801 74.0699 78.6701 74.5099C78.6001 74.5099 78.56 74.5099 78.55 74.5099C78.29 74.3299 72.07 69.2199 68.55 66.5099L77.7301 70.0399L96.83 59.9399V64.0699L98.0001 64.9299Z" fill="#70411E"/>
<path d="M96.8601 53.9399V59.9399L77.7601 70.0399L68.5801 66.5099L69.6501 60.9799L71.4601 63.17H82.7601L96.8601 53.9399Z" fill="#622F13"/>
<path d="M97.6299 44.44L98.1799 43.85L97.6299 44.44L96.8699 53.94L82.7 63.16L91.2999 51.16C93.88 47.5647 96.0911 43.7186 97.8999 39.6799C98.0499 39.2999 97.6299 44.26 97.6299 44.44Z" fill="#471E12"/>
<path d="M91.24 51.2301L82.7 63.1602H71.4L69.59 61.0002L67.32 55.1002L65 48.4902L62.46 41.9102L63.77 41.9801L65.61 48.3302L68.18 54.8202L71.86 61.5402H82.69L91.24 51.2301Z" fill="#78421B"/>
<path d="M102.61 27.9199L104.75 37.9199L97.6299 44.4899C97.6299 44.3099 98.0499 39.3499 97.8999 39.6999C99.3844 35.9346 100.369 31.9911 100.83 27.9699L102.61 27.9199Z" fill="#70411E"/>
<path d="M102.22 13.0802L101.05 27.8302L92.0999 23.5602L92.6999 13.5602L88.3599 14.2702L76.7299 17.7302L64.0999 13.1402L62.8599 24.3402L63.2699 8.66023C63.2699 8.66023 74.1999 11.0602 74.4499 11.0602C74.6999 11.0602 91.5299 9.48023 91.8999 9.36023C92.2699 9.24023 97.2299 7.27023 97.5099 6.99023L102.22 13.0802Z" fill="#22201F"/>
<path d="M88.3601 14.2999L85.8001 23.1099C85.8001 23.1099 74.6801 28.2899 74.5001 28.4199C74.3201 28.5499 66.2701 24.0899 65.9001 23.9699C65.5301 23.8499 64.1001 13.1699 64.1001 13.1699L76.2301 17.5799L88.3601 14.2999Z" fill="#A6662F"/>
<path d="M101.07 27.9201L97.27 29.9501L92.34 31.4401L89.58 28.0701L87.27 25.2601L92.1 23.5601L101.06 27.8301H101.04L101.07 27.9201Z" fill="#689DD4"/>
<path d="M97.58 29.7601C97.58 29.7601 92.89 38.6401 91.48 41.4001L91.23 41.8701L91.07 42.1601V42.2101L78.07 42.4301C77.78 42.4301 73.07 44.6601 73.07 44.6601L70.69 42.2401L64.15 41.9801L62.46 41.9101L64.41 37.5201L71.28 39.2401L72.65 32.4301L63.45 28.2401L62.63 24.7301L62.9 24.3701L74.21 30.6001L87.44 25.2101L89.64 27.9001L76.27 32.7901L77.43 39.2401C77.71 39.2401 89.82 38.7501 90.02 38.6801C90.22 38.6101 92.4 31.2701 92.4 31.2701L97.58 29.7601Z" fill="#7DD1F0"/>
<path d="M72.6099 32.4302L71.2399 39.2402L70.7099 32.7502L63.4099 28.2402L72.6099 32.4302Z" fill="#689DD4"/>
<path d="M64.3699 37.52L62.4199 41.91L60.1699 32.98V27.92L62.5899 24.73L63.4099 28.24L61.6599 31.73L63.2699 37.25L64.3699 37.52Z" fill="#689DD4"/>
<path d="M89.6 27.8999L79.42 32.5599L77.39 39.2399L76.23 32.7899L89.6 27.8999Z" fill="#689DD4"/>
<path d="M101.07 27.9199C100.83 28.2699 100.55 33.9199 98.15 39.6299L98.04 39.8899C95.89 44.9499 91.92 49.9799 91.37 51.1299C91.37 51.1299 91.32 51.2799 91.3 51.3199C91.2814 51.3562 91.2539 51.3872 91.22 51.4099L91 42.1899C91 42.1399 91.09 42.0399 91.16 41.8999L91.41 41.4299C92.89 38.6799 97.51 29.7899 97.51 29.7899L100.69 28.0499L100.98 27.9499L101.07 27.9199Z" fill="#4B5680"/>
<path d="M123.27 103.33L117.13 117.54C117.13 117.54 102.58 126.04 102.23 126.4C101.88 126.76 74.8 121 74.8 121L76.59 98.1098L84.73 82.2998L76.68 87.1898C76.68 87.1898 69.31 83.3998 68.68 82.7498L74.16 99.1398L70.47 121.48L47.21 127.78L34.49 119L46.58 134.32L63.03 128.32L49.12 141.37L53.35 177.74C53.35 177.74 61.06 196.47 61.52 196.74C61.98 197.01 86.31 196.74 86.31 196.74L103.6 171.5L113.93 165.94C113.93 165.82 113.93 165.76 113.93 165.76L114.21 165V164.95L126.57 124.51L123.27 103.33ZM92.21 153.78L92.35 155.43L94.35 180.08L91.17 184.79H90.9L73.19 187V129.7L95.79 140.37L92.21 153.78ZM79.79 128.35C79.79 128.35 104.41 132.91 105.08 132.74C105.75 132.57 125.55 116.83 126.17 116.34L107.09 140.34L79.79 128.35Z" fill="#689DD4"/>
<path d="M126.17 116.34L107.09 140.34L79.79 128.34C79.79 128.34 104.41 132.9 105.08 132.73C105.75 132.56 125.55 116.83 126.17 116.34Z" fill="#6767AE"/>
<path d="M74.1999 99.1201L70.5099 121.46L47.2499 127.76L34.4899 118.95L33.6499 102.51L48.7599 83.8501L74.1999 99.1201Z" fill="#7DD1F0"/>
<path d="M48.7599 83.8499L30.8299 99.1198L26.4199 93.8598L33.1299 78.6999L44.7199 77.8298L45.2499 77.5898C46.4899 79.5298 48.7599 83.8499 48.7599 83.8499Z" fill="#7DD1F0"/>
<path d="M25.1299 118.48L25.1799 118.34L26.4199 93.8599L30.8299 99.1199L34.4899 118.95L25.1299 118.48Z" fill="#689DD4"/>
<path d="M52.5801 200.71L64.9001 225.77L63.7601 224L63.2901 223.26L63.0301 222.86L62.4701 221.97L61.8501 220.97L61.5201 220.45L60.5201 218.8L59.3401 217L58.5501 215.75L57.7401 214.48L57.3301 213.83L56.5301 212.57L55.1901 210.47L54.4101 209.23L53.5901 207.93C49.9301 202.15 46.7901 197.12 46.7301 196.87L50.1401 176.27C50.1401 176.27 43.9401 138.07 44.1401 134.6C43.2401 137.03 34.5101 157.13 33.7901 158.55L18.3301 150.73L32.4401 138.36L34.4401 118.93L46.5301 134.25L62.9801 128.25L49.0701 141.3L53.3001 177.67L52.5801 200.71Z" fill="#3A3B44"/>
<path d="M18.3399 150.75L17.1299 178.23L6.72995 212.67L0.699951 209.23L11.9399 162.94L18.3399 150.75Z" fill="#7DD1F0"/>
<path d="M33.75 158.67L32.05 172.36L12.47 212.93L6.72998 212.67L17.13 178.23L33.75 158.67Z" fill="#3A3B44"/>
<path d="M11.47 228.13L3.52002 241.18L0.27002 227.31L0.700043 209.23L6.73004 212.67L11.47 228.13Z" fill="#874A20"/>
<path d="M19.13 224.83L11.47 228.13L6.72998 212.67L12.47 212.93L19.01 224.48L19.13 224.83Z" fill="#A76931"/>
<path d="M22.49 234.72L19.88 237.34L11.47 228.13L19.13 224.83L22.49 234.72Z" fill="#804A1F"/>
<path d="M19.88 237.34L17.77 241.31L17.04 242.68L3.54004 241.26L3.52002 241.18L11.47 228.13L19.88 237.34Z" fill="#471914"/>
<path d="M118.51 190.36L95.7899 211L86.0599 225.77C85.5599 225.1 107.59 193.43 107.06 192.93C106.53 192.43 103.57 171.48 103.57 171.48L113.9 165.92C114.13 168.04 118.36 188.99 118.36 189.82C118.398 190.003 118.448 190.183 118.51 190.36Z" fill="#6767AE"/>
<path d="M64.9099 225.79L55.2799 281.49L40.1099 264.6L46.7299 196.9C46.8699 197.49 64.3499 224.9 64.8999 225.77L64.9099 225.79Z" fill="#7DD1F0"/>
<path d="M131.17 247.3L134.51 303.81C134.51 303.81 125.38 314.88 121.94 319.81C124.44 314.23 129.63 300.26 129.63 300C129.63 299.74 116.85 283 115.45 279.52C115.54 279.11 115.54 278.89 115.45 278.91C115.36 278.93 115.33 279.15 115.45 279.52C114.45 283.66 103.39 307.67 102.45 309.61L102.39 309.74C95.16 285.21 85.44 252.42 85.44 252.42L80.18 288.83C80.18 288.83 74.93 314.31 74.88 314.83C73.4722 316.301 71.8668 317.57 70.11 318.6C65.54 321.48 60.03 324.96 59.59 325.25C58.82 325.76 69.78 304.36 69.78 304.36L55.24 281.5L64.87 225.8C64.87 225.8 86.03 226.46 86.03 225.8L115.4 277.58L131.17 247.3Z" fill="#3A3B44"/>
<path d="M55.2799 281.49L49.5499 314.08L40.1099 264.6L55.2799 281.49Z" fill="#3A3B44"/>
<path d="M73.2101 337.16L61.4101 351.48L45.8501 327.15L49.0701 315.74L49.3301 314.84L49.5501 314.08L55.2801 281.49L69.8201 304.35C69.8201 304.35 58.8201 325.75 59.6301 325.24L74.9201 314.82C75.1401 314.17 73.2101 337.16 73.2101 337.16Z" fill="#689DD4"/>
<path d="M79.5299 373.99L61.4099 351.48L73.2099 337.16L79.5299 373.99Z" fill="#6767AE"/>
<path d="M79.5299 373.99L63.2499 443.95L61.4099 351.48L79.5299 373.99Z" fill="#8193CA"/>
<path d="M51.8301 418.76C51.8301 418.76 49.6001 357.76 49.3801 357.09C49.1601 356.42 45.8501 327.81 45.8501 327.15L61.4101 351.48L63.2501 444L51.8301 418.76Z" fill="#3A3B44"/>
<path d="M64.12 467.05L27.29 468.79C27.29 468.79 18.35 471.84 17.48 471.62C16.61 471.4 2.21997 469.23 2.21997 469.23L3.08997 463.78L22.15 464.6L39.72 465.36L56.51 461.66C56.51 461.66 63.67 459.82 63.89 459.88C64 463.88 64.12 467.05 64.12 467.05Z" fill="#40403E"/>
<path d="M63.8901 459.88C63.6701 459.82 56.5101 461.66 56.5101 461.66L48.1001 440.44L51.8301 418.54L63.2501 443.73C63.3601 443.73 63.6801 453 63.8901 459.88Z" fill="#689DD4"/>
<path d="M56.5101 461.66L39.7201 465.58L22.1501 464.82L11.8301 459.88L38.1201 449.5L56.5101 461.66Z" fill="#7DD1F0"/>
<path d="M22.1501 464.82L3.09009 463.78L11.8201 459.88H11.8301L22.1501 464.82Z" fill="#6767AE"/>
<path d="M131.17 247.3L115.44 277.59C114.81 276.97 121.9 211.25 121.9 211.25C126.59 226.88 131.17 247.3 131.17 247.3Z" fill="#689DD4"/>
<path d="M134.51 303.81C134.51 303.81 133.62 304.89 132.29 306.53L131.48 307.53C130.87 308.28 130.21 309.1 129.48 309.97C129.22 310.29 128.95 310.62 128.69 310.97C128.43 311.32 128.17 311.61 127.92 311.97L126.92 313.19C126.02 314.33 125.13 315.48 124.31 316.54L123.5 317.61C123.472 317.657 123.439 317.701 123.4 317.74C123 318.27 122.64 318.74 122.3 319.23L121.96 319.71C121.927 319.747 121.897 319.788 121.87 319.83L121.93 319.7C122.4 318.64 122.93 317.29 123.57 315.81L124.13 314.42L124.19 314.28C124.59 313.28 125 312.23 125.4 311.18C125.53 310.86 125.65 310.55 125.77 310.24C126.07 309.46 126.37 308.69 126.65 307.93C126.93 307.17 127.15 306.62 127.38 306.01C127.61 305.4 127.75 305.01 127.91 304.59C128.07 304.17 128.18 303.89 128.3 303.59C128.42 303.29 128.5 303.03 128.6 302.77C129.19 301.17 129.6 300.12 129.6 300.05C129.6 299.82 116.82 283.05 115.42 279.57C115.42 279.65 115.42 279.74 115.35 279.83C115.337 279.894 115.32 279.957 115.3 280.02C115.3 280.1 115.25 280.19 115.22 280.28C115.19 280.37 115.1 280.66 115.02 280.88L114.9 281.22C114.9 281.34 114.81 281.46 114.77 281.59C114.73 281.72 114.67 281.84 114.63 281.97C114.59 282.1 114.52 282.24 114.47 282.38L114.18 283.14L114.06 283.42C114.06 283.56 113.95 283.71 113.89 283.85C113.65 284.46 113.39 285.1 113.11 285.78C113.04 285.95 112.97 286.12 112.89 286.29C112.81 286.46 112.78 286.55 112.72 286.69C112.66 286.83 112.56 287.08 112.47 287.28C112.09 288.17 111.7 289.11 111.28 290.06C111.15 290.38 111.01 290.7 110.87 291.06C110.73 291.38 110.59 291.71 110.44 292.06L109.13 295.06L108.37 296.78L107.53 298.65L106.71 300.46L106 302.04L105.5 303L103.92 306.47L103.58 307.19L103.38 307.63C103.33 307.75 103.27 307.86 103.22 307.97L103.12 308.19C102.98 308.49 102.86 308.74 102.77 308.95L102.64 309.24L102.54 309.45L102.49 309.56L102.43 309.69L117.65 326.92V327L120.65 348.76L135.76 333.94L134.51 303.81Z" fill="#689DD4"/>
<path d="M135.84 420.67L116.28 381.76C116.28 381.76 116.28 381.35 116.18 380.62C116.24 379.36 120.67 356.45 120.67 356.45L110.1 336.07C110.1 335.82 106.7 324.21 102.55 309.88L117.77 327.11L120.67 348.75L151.92 417.16L155.87 447.87L135.84 420.67Z" fill="#3A3B44"/>
<path d="M120.67 356.41C120.67 356.41 116.24 379.32 116.18 380.58C115.59 373.58 110.1 336.66 110.1 336.07L120.67 356.41Z" fill="#6767AE"/>
<path d="M151.92 417.16L120.67 348.75L135.78 333.93L146.43 367.61L151.92 417.16Z" fill="#8193CA"/>
<path d="M161.13 460.21L138.17 452.78L136.25 421.51L135.84 420.67L155.87 447.87L161.13 460.21Z" fill="#689DD4"/>
<path d="M165.66 470.85L141.53 470.41C141.53 470.41 138.22 460.73 138.22 460.32V453.1L138.17 452.78L161.17 460.21L165.66 470.85Z" fill="#7DD1F0"/>
<path d="M167.2 474.46L153.69 478.82H141.69L136.03 471.82L138.21 460.7V460.29C138.21 460.7 141.52 470.38 141.52 470.38L165.65 470.82L167.2 474.46Z" fill="#40403E"/>
<path d="M153.1 154.36C153.1 154.36 146.96 159.46 142.77 162.81C141.77 161.58 136.28 151.99 134.77 150.58C137.2 151.57 152 154.24 153.1 154.36Z" fill="#3A3B44"/>
<path d="M154.16 218L144.26 180.87L142.91 163L142.77 162.81C146.96 159.46 153.1 154.36 153.1 154.36L154.16 218Z" fill="#7DD1F0"/>
<path d="M165.29 167.24L154.16 217.96L153.1 154.36L165.29 167.24Z" fill="#689DD4"/>
<path d="M105.21 69.8301L84.7301 82.2801L76.6801 87.1701C76.6801 87.1701 69.3101 83.3801 68.6801 82.7301V82.6401C68.9301 82.4701 65.99 75.4701 63.8 71.0901L66.5401 68.4401L66.9401 68.0601C67.2101 67.8201 67.4501 67.5901 67.6701 67.3801C68.1101 66.9701 68.4201 66.6501 68.5001 66.5501C72.0701 69.2701 78.2901 74.3801 78.5001 74.5501C78.5001 74.5501 78.5501 74.5501 78.6201 74.5501C79.9501 74.0201 92.0301 66.1101 96.7001 64.1201L97.9501 64.9701L105.21 69.8301Z" fill="#6767AE"/>
<path d="M74.2 99.1201L48.76 83.8501L68.69 82.6401L68.72 82.7301L74.2 99.1201Z" fill="#7DD1F0"/>
<path d="M33.6501 102.51L34.4901 118.95L30.8301 99.1201L48.7601 83.8501L33.6501 102.51Z" fill="#3A3B44"/>
<path d="M32.4501 138.38L18.3401 150.75L20.2401 131.64L25.1301 118.48L34.4901 118.95L32.4501 138.38Z" fill="#7DD1F0"/>
<path d="M33.7999 158.57L33.7499 158.67L17.1299 178.23L18.3399 150.75L33.7999 158.57Z" fill="#689DD4"/>
<path d="M17.77 241.31L6.72998 238.89L9.74997 235.24L19.88 237.34L17.77 241.31Z" fill="#804A1F"/>
<path d="M109.42 83.8498L76.5901 98.0898L84.7301 82.2798L109.42 83.8498Z" fill="#7DD1F0"/>
<path d="M123.27 103.33L117.13 117.54C117.13 117.54 102.58 126.05 102.23 126.41C101.88 126.77 74.8 121 74.8 121L76.5901 98.1101L109.42 83.8701L123.27 103.33Z" fill="#7DD1F0"/>
<path d="M148.25 238.3L147.76 242.71L142.46 243.86L148.25 238.3Z" fill="#4B1D11"/>
<path d="M92.2099 153.78L94.3599 180.09L91.1799 184.8L73.1899 186.95V129.7L95.7899 140.37L92.2099 153.78Z" fill="#7DD1F0"/>
<path d="M115.44 277.59L86.0701 225.81L95.7901 211L118.51 190.34C119.06 192.42 120.38 200.66 121.9 211.23C121.9 211.25 114.81 277 115.44 277.59Z" fill="#7DD1F0"/>
<path d="M86.0601 225.79C86.0601 226.43 64.9001 225.79 64.9001 225.79L52.5801 200.73L53.3501 177.73C53.3501 177.73 61.0601 196.46 61.5201 196.73C61.9801 197 86.3101 196.73 86.3101 196.73L103.6 171.5C103.6 171.5 106.6 192.45 107.09 192.95C107.58 193.45 85.5601 225.12 86.0601 225.79Z" fill="#689DD4"/>
<path d="M92.6999 13.5902L92.0999 23.5902L87.3999 25.2402L74.1699 30.6302L62.8599 24.4002L64.0999 13.2002C64.0999 13.2002 65.5399 23.8802 65.8999 24.0002C66.2599 24.1202 74.3099 28.5702 74.4999 28.4502C74.6899 28.3302 85.7999 23.1402 85.7999 23.1402L88.3599 14.3302L92.6999 13.5902Z" fill="#83491F"/>
<path d="M84.3599 49.6099L81.8799 50.1599L70.4299 49.8899C70.4299 49.8899 69.2299 49.5199 69.1799 49.5199L70.7999 48.3499C70.7999 48.3499 79.61 48.2899 79.92 48.3499C80.23 48.4099 84.3599 49.6099 84.3599 49.6099Z" fill="#8F5729"/>
<path d="M80.71 52C80.71 52 78.62 54.49 78.38 54.41C78.14 54.33 72.76 54.41 72.76 54.41L71.24 52H80.71Z" fill="#8F5729"/>
<path d="M92.3601 31.2699C92.3601 31.2699 90.1801 38.6099 89.9801 38.6799C89.7801 38.7499 77.6701 39.2399 77.3901 39.2399L79.3901 32.5599L89.5701 27.8999L92.3601 31.2699Z" fill="#FFFDFD" stroke="#231F20" stroke-linejoin="round"/>
<path d="M71.2399 39.2402L64.3699 37.5202L63.2699 37.2502L61.6599 31.7302L63.4099 28.2402L70.7099 32.7502L71.2399 39.2402Z" fill="#FFFDFD" stroke="#231F20" stroke-linejoin="round"/>
<path d="M77.73 42.5099L90.55 43.77L91.25 51.38L91.04 42.21L78.04 42.4299L77.73 42.5099Z" fill="#6A3F26"/>
<path d="M102.22 13.08L89.6 12.15L74.49 14.54L64.37 11.88L63.27 8.69L64.67 6.14999L85.35 8.53999L97.09 4L102.22 13.08Z" fill="#22201F"/>
<path d="M74.78 27.79L76.23 25.23V27.01L74.78 27.79Z" fill="#A46A33"/>
<path d="M67.6799 67.3798C67.4599 67.5898 67.22 67.8198 66.95 68.0598L68.5099 66.5298C68.4299 66.6498 68.1199 66.9998 67.6799 67.3798Z" fill="#643090"/>
<path d="M68.69 82.6399L48.76 83.8499C48.76 83.8499 47.04 80.5699 45.76 78.4299C45.57 78.1099 45.39 77.8199 45.23 77.5699L48.61 75.5699L48.74 75.4899V75.5499C52.05 75.1599 59.33 74.5499 59.33 74.5499C60.9106 73.5304 62.4025 72.3797 63.79 71.1099C66 75.4699 68.94 82.4699 68.69 82.6399Z" fill="#689DD4"/>
<path d="M48.7599 75.5V78.39H45.7599L33.1099 78.64L47.0499 75.73L48.7599 75.5Z" fill="#689DD4"/>
<path d="M92.2099 153.78L73.1899 150.43L71.9199 154.76L92.3499 155.44L94.1699 154.42L92.2099 153.78Z" fill="#689DD4"/>
<path d="M52.58 200.71L64.9 225.77L63.76 224L63.29 223.26L63.03 222.86L62.47 221.97L61.85 220.97L61.52 220.45L60.52 218.8L59.34 217L58.55 215.75L57.74 214.48L57.33 213.83L56.53 212.57L55.19 210.47L54.41 209.23L53.59 207.93C49.93 202.15 46.79 197.12 46.73 196.87L50.14 176.27C50.14 176.27 43.94 138.07 44.14 134.6L34.49 119L46.58 134.32L63.03 128.32L49.12 141.37L53.35 177.74L52.58 200.71Z" fill="#6767AE"/>
<path d="M97.09 4.00006V8.71007L74.39 13.1901L63.27 8.71007L64.67 6.17006C66.04 3.68006 67.95 0.170059 68.01 0.0600586C68.01 0.400059 75.12 4.80006 75.12 4.80006L78.95 2.37006L82.15 4.00006H97.09Z" fill="#22201F"/>
<path d="M92.7001 13.59C92.7001 13.59 96.8401 11.37 96.8001 11.52C96.7601 11.67 95.2401 24.91 95.2401 24.91L92.1001 23.56L92.7001 13.59Z" fill="#3E383E"/>
<path d="M101.62 30.1499L103.76 37.5299L100.77 40.9599L101.62 30.1499Z" fill="#5C3412"/>
<path d="M100.77 40.9599L98.9199 40.8099L101.62 30.1499L103.21 35.5599L100.77 40.9599Z" fill="#5C3412"/>
<path d="M76.23 16.9998C76.23 16.8198 66.23 9.4898 66.23 9.4898C66.23 9.4898 67.87 0.839789 68.05 1.08979C68.23 1.33979 74.32 8.5498 74.32 8.5498L76.23 16.9998Z" fill="#3E383E"/>
<path d="M62.4199 41.9102L70.4699 43.1201C70.4699 43.1201 73.1899 44.8202 73.0299 44.6602L70.6499 42.2402L62.4199 41.9102Z" fill="#6A3F26"/>
<path d="M124.05 75.5301L109.42 83.8501L84.73 82.2801L105.21 69.8301L106.46 70.6801L124.05 75.5301Z" fill="#689DD4"/>
<path d="M123.27 103.33L123.22 124.55L113.93 165.94L127.2 124.06L123.27 103.33Z" fill="#29272C"/>
<path d="M70.5999 137C70.9399 137.85 69.92 149.31 69.92 149.31L58.7 150.03L61.0699 139.19L70.5999 137Z" fill="#7DD1F0"/>
<path d="M102.49 309.57L102.43 309.7C95.1999 285.17 85.4799 252.38 85.4799 252.38L80.2199 288.79C80.2199 288.79 74.9699 314.27 74.9199 314.79C73.5121 316.261 71.9067 317.53 70.1499 318.56L76.3599 298.35L84.4899 249.14L77.3199 245.8L74.2699 237.31L80.7399 242.7H88.6599C88.6599 242.7 90.4499 251.01 90.9099 251.85C91.3699 252.69 101.61 305.07 102.49 309.57Z" fill="#6767AE"/>
<path d="M38.1201 449.49L48.1201 440.49C48.1201 440.49 57.1201 462.49 56.5401 461.93C55.9601 461.37 38.1201 449.49 38.1201 449.49Z" fill="#6767AE"/>
<path d="M163.9 218.6V219.03L154.17 218L167.07 189.65V189.8C167.26 192.36 163.9 218.6 163.9 218.6Z" fill="#689DD4"/>
<path d="M71.8201 61.5399C71.9501 61.3999 73.7201 58.4399 73.7201 58.4399L78.8801 58.1699L82.6501 61.5399L75.4501 62.4899L71.8201 61.5399Z" fill="#78421B"/>
<path d="M151.68 104.54V104.61L142 121.31L127.5 112.77L129.5 97.5801L141 80.1001H141.32L151.68 104.54Z" fill="#689DD4"/>
<path d="M135.25 126.49C135.25 126.49 134.05 149.19 134.44 150.35C133.78 150.27 126.99 125.59 126.99 125.59L121.36 104.74L109.73 83.8501L129.57 97.5201L127.9 112.68L142 121.31L135.25 126.49Z" fill="#3A3B44"/>
<path d="M165.29 167.24L153.1 154.36L142 121.31L151.74 104.41C151.64 105.47 154.55 119.41 154.74 120.06C154.93 120.71 155.36 133.68 155.36 133.68C155.36 133.68 156.05 153.27 156.12 152.61C156.19 151.95 165.29 167.24 165.29 167.24Z" fill="#3A3B44"/>
<path d="M153.1 154.36C152.02 154.24 137.2 151.57 134.76 150.58C134.61 150.44 134.51 150.35 134.45 150.35C134.06 149.19 135.26 126.49 135.26 126.49L142.04 121.31L153.1 154.36Z" fill="#7DD1F0"/>
<path d="M47.08 75.76L48.7601 75.5V75.56H48.6301L47.0701 75.75L47.08 75.76Z" fill="#662F8E"/>
</svg>
