<svg width="170" height="517" viewBox="0 0 170 517" fill="none" xmlns="http://www.w3.org/2000/svg">
<path d="M37.0701 142.18C36.4017 141.646 35.8704 140.961 35.5201 140.18C35.2781 139.254 35.3849 138.272 35.8201 137.42C36.554 135.875 37.7169 134.573 39.1701 133.67C40.6097 132.772 42.1777 132.097 43.8201 131.67C46.9993 130.661 50.3529 130.321 53.6701 130.67C54.8451 130.778 55.9871 131.118 57.0301 131.67C58.1771 132.407 59.0867 133.46 59.6491 134.702C60.2115 135.944 60.4029 137.322 60.2001 138.67C59.7297 141.386 58.2331 143.817 56.0201 145.46" fill="#689DD4"/>
<path d="M118.37 141.8C117.978 143.112 117.227 144.288 116.202 145.196C115.178 146.105 113.92 146.708 112.57 146.94C111.762 147.108 110.921 147.014 110.17 146.67C109.152 145.945 108.425 144.882 108.12 143.67C106.789 140.551 105.864 137.274 105.37 133.92C105.138 132.632 105.324 131.304 105.9 130.13C106.359 129.443 106.996 128.894 107.743 128.542C108.489 128.189 109.318 128.047 110.14 128.13C111.782 128.328 113.335 128.987 114.62 130.03C117.035 131.847 118.909 134.288 120.04 137.09C120.31 137.77 120.69 138.59 121.42 138.63" fill="#689DD4"/>
<path d="M106.76 164.25C109.604 161.264 111.966 157.853 113.76 154.14C114.2 153.324 114.494 152.437 114.63 151.52C114.692 151.062 114.653 150.597 114.515 150.156C114.377 149.715 114.143 149.31 113.83 148.97C113.282 148.497 112.601 148.207 111.88 148.14C110.53 148.003 109.166 148.156 107.88 148.59C105.523 149.301 103.343 150.502 101.482 152.114C99.6217 153.727 98.123 155.714 97.0844 157.946C96.0458 160.178 95.4906 162.605 95.4554 165.066C95.4202 167.528 95.9056 169.969 96.88 172.23C97.0175 172.651 97.2746 173.023 97.62 173.3C97.9619 173.464 98.3389 173.54 98.7175 173.522C99.0961 173.505 99.4645 173.394 99.79 173.2C106.65 170.25 104.39 171.2 106.14 169.01" fill="#4B5680"/>
<path d="M127.4 98.6798L114.05 104.81L112.47 104.74L120.61 90.6398L113.33 51.7598L108.17 66.7598L105.56 68.7598V57.7698L102.1 43.2198L99.5501 32.5498L98.2301 26.9998L76.5201 33.3198L60.4201 25.8998L56.4201 31.8498C56.4201 31.8498 56.4201 34.4798 56.4201 37.4898C55.7901 40.0198 54.1401 46.7198 54.1401 47.4298C54.1401 48.3198 55.2701 62.5998 55.6301 63.3398C55.9901 64.0798 51.0301 74.0998 51.0301 74.0998L56.6601 70.2698L60.4601 63.6698L63.0001 72.9998L67.2401 80.2998V100.56L56.4401 104.77L55.7601 104.53L44.6701 100.77L41.3401 62.7698L47.3901 25.9098L62.3901 5.25977L80.8401 0.259766L104.33 7.25977L118.75 33.2598L121.69 54.3998L118.27 57.4598L126.34 86.2398L127.4 98.6798Z" fill="#594422"/>
<path d="M54.0899 46.5601L47.4399 60.8201L46.3499 57.6801L44.4399 65.5301L51.6899 103.13C51.6899 103.13 60.8999 96.0101 61.5399 95.1301C62.1799 94.2501 59.89 70.4601 59.89 70.4601L57.2299 54.7001L54.0899 46.5601Z" fill="#392317"/>
<path d="M53.7699 72.2199L54.7699 80.2799L52.9699 84.7899L51.6699 103.13C51.6699 103.13 62.8999 110.28 63.1999 110.13C63.4999 109.98 71.1999 106.92 71.3599 106.52C71.5199 106.12 75.3599 95.7899 75.2399 94.1799C75.1199 92.5699 75.3699 78.5999 74.7999 78.2699C74.2299 77.9399 68.0099 71.9099 67.6099 71.6099C67.2099 71.3099 63.4999 62.6899 63.4999 62.6899L59.9999 60.6099L53.7699 72.2199Z" fill="#392317"/>
<path d="M97.2 80.0898L96.99 83.4698L79.45 100.74L79.74 122.17L69.74 127L45.86 117.66C45.86 117.66 45.54 114.66 45.86 114.23L55.76 104.53L56.44 104.77L67.24 100.56V80.2998L63 72.9998L60.51 63.6698V63.4098L59.51 58.0398L58.81 55.5298L61.64 58.7098C61.64 58.7098 74.46 62.7098 74.92 62.7098C75.38 62.7098 78.92 66.7098 78.92 66.7098V73.4498L71.5 72.0698L74.61 76.9198L78.92 78.3098V88.2498H84.05L97.2 80.0898Z" fill="#AE7136"/>
<path d="M76.5199 33.2901L72.7499 34.8101L72.3999 39.4401L56.4299 31.8201L60.42 25.8701L76.5199 33.2901Z" fill="#6767AE"/>
<path d="M99.55 32.5502L84.38 39.4602L83.03 40.0702L82.41 35.4802L76.52 33.2902L98.23 26.9702L99.55 32.5502Z" fill="#6767AE"/>
<path d="M102.1 43.2198L95.7901 40.0698C95.7901 40.0698 82.2201 48.8198 81.7901 49.1498C81.3601 49.4798 84.3501 39.4598 84.3501 39.4598L99.5201 32.5498L102.1 43.2198Z" fill="#689DD4"/>
<path d="M102.1 43.22L95.7899 40.07C95.7899 40.07 82.2199 48.8199 81.7899 49.1499C81.3599 49.4799 84.3499 39.46 84.3499 39.46L82.9999 40.07L77.7 48.33L78.4899 54.19L78.2999 63.38L82.9999 62.38L102.22 56.2L105.53 57.7899L102.1 43.22ZM79.0999 61.11L80.3499 55.5L82.7399 61.11H79.0999ZM102.1 50.4799L93.7199 56.1799L82.9999 51.6C83.6299 51.6 96.5699 42.7599 96.5699 42.7599L102.07 47.27L102.1 50.4799Z" fill="#7DD1F0"/>
<path d="M74.85 62.7498C74.38 62.7498 61.57 58.6998 61.57 58.6998L58.73 55.5298C57.8123 52.4308 57.0546 49.2867 56.46 46.1098C56.46 45.4198 56.46 41.1699 56.46 37.4799V31.8398L61.46 42.1299L61.64 42.7798L61.82 43.3698L57.89 47.9698L64.97 56.2099L65.63 55.8398L74.85 62.7498Z" fill="#689DD4"/>
<path d="M150 194.27L150.26 207.45L140.43 215.85L141.5 188.72L133.54 180L122.28 151.82L124 136C124.71 135.62 144.14 127.1 144.14 127.1L132.5 149.1C132.5 149.1 146.06 187.7 146.88 186.74C147.7 185.78 154.09 191.74 154.09 191.74L150 194.27Z" fill="#DC9159"/>
<path d="M24.78 163.41L26.57 198.77C26.57 198.77 24.01 193.54 23.87 193.9C23.73 194.26 23.87 200.22 23.87 202.02L14.23 197.82C14.23 197.82 16.31 175.55 16.31 173.98C16.31 172.41 20.14 135.53 20.14 135.53L27.97 139.84L34.67 137.84L24.78 163.41Z" fill="#DC9159"/>
<path d="M163.88 195.47L148.76 208.16L148.5 195L152.61 192.47C152.61 192.47 146.22 186.47 145.4 187.47C144.58 188.47 131 149.77 131 149.77L144.21 127.06L163.33 182.32L163.88 195.47Z" fill="#F1B280"/>
<path d="M108.89 111.07C109.662 112.683 110.517 114.255 111.45 115.78L72.32 128L69.76 127L79.76 122.18L79.47 100.74L97 83.5098L97.78 99.5798L112.48 104.77L114.07 104.85L108.89 111.07Z" fill="#C68650"/>
<path d="M36.8899 167.15L34.8299 189.41L33.6499 207.41L23.8599 202C23.8599 200.2 23.7599 194.18 23.8599 193.88C23.9599 193.58 26.5599 198.75 26.5599 198.75L24.7699 163.39L34.6499 137.81C35.3526 137.576 36.0711 137.392 36.7999 137.26L35.2699 139.38L32.2699 151.03L31.5999 152.26L36.8899 167.15Z" fill="#F1B280"/>
<path d="M76.71 51.7798L73.67 47.2999L62.28 42.7798H61.6L61.42 42.1299L56.46 31.8398L72.43 39.4599L75.72 44.9698L76.71 51.7798Z" fill="#689DD4"/>
<path d="M83.0299 40.07L77.7299 48.33L75.6999 44.95L72.3999 39.44L72.7499 34.81L76.5199 33.29L82.4099 35.48L83.0299 40.07Z" fill="#8193CA"/>
<path d="M120.61 90.6398L112.47 104.74L97.77 99.5398L96.99 83.4698L97.2 80.0898L100.54 73.5598L105.56 57.7698V68.7098L108.17 66.7098L113.33 51.7598L120.61 90.6398Z" fill="#392317"/>
<path d="M105.56 57.7702L100.54 73.5602L97.2001 80.0902L83.9301 88.2502H78.8V78.3102L82.7601 77.7302L86.9001 73.4602L91.0301 68.7102L86.9001 72.0702L78.8 73.4602V66.7102L83.0301 62.3602L102.25 56.1802L105.56 57.7702Z" fill="#C68650"/>
<path d="M91.0299 68.71L86.8999 73.46L82.7699 77.7299L78.7999 78.31L74.4899 76.92L71.3799 72.07L77.1299 75.05L81.1999 74.6199L86.8999 72.07L91.0299 68.71Z" fill="#A96739"/>
<path d="M86.8999 72.0698L81.1999 74.6198L77.1299 75.0498L71.3799 72.0698L78.7999 73.4598L86.8999 72.0698Z" fill="#9E5C28"/>
<path d="M82.7601 61.11H79.1201L80.3701 55.5L82.7601 61.11Z" fill="#8193CA"/>
<path d="M82.9999 62.3602L78.7699 66.7102C78.7699 66.7102 75.2499 62.7102 74.7699 62.7102L65.5199 55.8002C67.5199 54.6602 73.6999 51.2602 74.1099 51.2602L62.2 42.7402L73.5999 47.2502L76.5999 51.7402L75.5999 44.9302L77.5999 48.3102L78.39 54.1702L78.2 63.3602L82.9999 62.3602Z" fill="#7DD1F0"/>
<path d="M60.4801 63.64L56.6801 70.24L51.05 74.07C51.05 74.07 56.0501 64.07 55.6501 63.31C55.2501 62.55 54.1601 48.31 54.1601 47.4C54.1601 46.69 55.8101 39.99 56.4401 37.46C56.4401 41.14 56.4401 45.39 56.4401 46.09C57.0396 49.2633 57.8006 52.4041 58.7201 55.5L59.4201 58.01L60.4201 63.38L60.4801 63.64Z" fill="#6D542F"/>
<path d="M102.1 47.2698V50.4798L93.72 56.1798L83 51.5998C83.63 51.5998 96.57 42.7598 96.57 42.7598L102.1 47.2698Z" fill="white" stroke="#231F20" stroke-linejoin="round"/>
<path d="M74.1601 51.2799C73.7501 51.2799 67.6001 54.6799 65.5701 55.8199L64.9101 56.1799L57.8301 47.9399L60.9301 42.9399L61.3901 42.1299L74.1601 51.2799Z" fill="white" stroke="#231F20" stroke-linejoin="round"/>
<path d="M133.33 263L117.05 355L103 356.34L77.8501 274.05C77.8501 274.05 88.6001 265.25 99.3601 256.59C101.63 254.76 103.91 252.93 106.08 251.2C105.77 258.91 104.08 293.38 104.08 293.38C104.08 293.38 116.78 321.55 117.14 320.98C117.5 320.41 132.9 264.57 133.33 263Z" fill="#3A3B44"/>
<path d="M48.0001 510.66L20.4101 512.23C20.4101 512.23 10.41 513.44 9.61005 513.23C8.81005 513.02 0.810059 511.06 0.810059 511.06L1.58005 507.67L15.4401 508.38H15.8901L26.7001 509.07L40.5701 505.89L41.11 505.77H41.2701C41.6301 505.68 47.5001 504.11 47.6801 504.16C47.9301 507.78 48.0001 510.66 48.0001 510.66Z" fill="#3A3B44"/>
<path d="M26.64 508.96L40.6199 505.94L26.7499 509.12L15.9399 508.43L15.4899 508.41H15.4799L15.45 508.39L15.7499 508.41L26.64 508.96Z" fill="#001750"/>
<path d="M47.8101 504.15C47.6301 504.15 41.7601 505.67 41.4001 505.76L41.3501 505.63V505.49L41.0301 504.57C40.9401 504.32 40.8401 504.04 40.7201 503.73C40.6001 503.42 40.4901 503.08 40.3501 502.73L40.1901 502.32C40.1401 502.16 40.0801 501.98 40.0101 501.81L39.2501 499.81C39.1701 499.59 39.0901 499.38 39.0001 499.16L38.1001 496.81C37.9301 496.37 37.7701 495.93 37.6001 495.48C37.1701 494.38 36.7401 493.29 36.3501 492.27C36.2101 491.89 36.0701 491.53 35.9301 491.19C35.5301 490.19 35.1701 489.19 34.8601 488.46C34.8295 488.355 34.7928 488.251 34.7501 488.15L34.6001 487.77C34.5401 487.61 34.4801 487.46 34.4401 487.34L34.3001 486.99C34.1901 486.69 34.1201 486.52 34.1201 486.52L34.2501 485.74V486.74L49.3001 486.52C49.3301 486.5 47.6301 497.93 47.8101 504.15Z" fill="#7DD1F0"/>
<path d="M40.22 472.88H40V472.38L40.22 472.88Z" fill="#1C387F" stroke="#9BB8C8" stroke-miterlimit="10"/>
<path d="M41.2 505.81H41.15L40.62 505.94L26.75 509.12L15.94 508.43H15.49L6.98999 504.18L25.4 494.76L27.84 496.44L28.71 497.04L29.34 497.48L30.17 498.06C34.38 501 40.09 504.94 41.2 505.81Z" fill="#7DD1F0"/>
<path d="M15.4801 508.41L1.59009 507.69L6.94009 504.15H6.9501L15.4801 508.41Z" fill="#4B5680"/>
<path d="M137.21 501.55L119.38 495.62L118.38 486.54L118.45 486.9L132.85 486.72L137.21 501.55Z" fill="#689DD4"/>
<path d="M141.92 509.85L120.44 509.12C120.44 509.12 117.96 501.57 117.96 501.25L119.41 495.87V495.62L137.24 501.55L141.92 509.85Z" fill="#7DD1F0"/>
<path d="M143.07 512.67L131.63 516.07H122.63L116.3 510.24L117.94 501.57V501.25C117.94 501.57 120.42 509.12 120.42 509.12L141.9 509.85L143.07 512.67Z" fill="#3A3B44"/>
<path d="M41.4 505.76H41.24L30.24 497.98L29.41 497.4L28.78 496.96L27.91 496.36L25.47 494.68L34.17 486.45C34.17 486.45 34.24 486.62 34.35 486.92L34.49 487.27C34.49 487.39 34.59 487.54 34.65 487.7L34.8 488.08C34.8426 488.181 34.8793 488.285 34.91 488.39L40.24 502.26L40.4 502.67L41.4 505.38C41.4214 505.462 41.4381 505.546 41.45 505.63C41.45 505.63 41.39 505.72 41.4 505.76Z" fill="#4B5680"/>
<path d="M55.7501 104.5L45.8501 114.2L41.5601 117.2C41.5601 117.2 41.4101 117.95 41.1501 119.14C40.1001 124.05 37.4001 137.21 36.8301 137.21C36.1013 137.342 35.3828 137.526 34.6801 137.76L27.9801 139.76L20.1501 135.45L16.5901 121.02L26.2201 129.02L37.8701 116.54L48.2101 108.23L38.6101 98.8701L44.6801 100.62L55.7501 104.5Z" fill="#3A3B44"/>
<path d="M21.4299 255.14C21.4299 255.14 14.7799 259.22 14.6699 259.7C14.5599 260.18 5.75992 252.24 4.66992 251.29C4.36992 257.47 4.8399 281.55 4.8399 281.55L6.56991 282.99L17.5699 279.2L26.1399 269.85L21.4299 255.14ZM6.60989 279.37L7.60989 262.94L10.3499 276.42L6.60989 279.37Z" fill="#7DD1F0"/>
<path d="M18.47 199L16.34 218.76L14.34 203.71L10.34 197.86C10.3359 197.814 10.3359 197.767 10.34 197.72L14.23 197.79L18.47 199Z" fill="#8193CA"/>
<path d="M16.3999 250.77L21.3999 255.14C21.3999 255.14 14.7499 259.22 14.6399 259.7C14.5299 260.18 5.72992 252.24 4.63992 251.29C4.6318 250.811 4.68897 250.334 4.8099 249.87C5.3899 248.96 9.8699 200.87 10.2499 197.87L14.2499 203.72L16.2499 218.77L14.5799 234.31L21.6699 244.49L10.9999 246.82L7.56991 250.77H16.3999Z" fill="#689DD4"/>
<path d="M35.8399 210.52L21.7599 244.51L14.6699 234.33L18.4699 199.02L33.6499 207.45L35.8399 210.52Z" fill="#3A3B44"/>
<path d="M20.9001 253.52L21.4301 255.14L16.4001 250.77H7.58008L11.0101 246.82L21.7601 244.51L20.9001 253.52Z" fill="#8193CA"/>
<path d="M21.7599 287.26L13.9099 289.08L6.60986 282.99L17.6299 279.2L26.1999 269.85L26.3399 276.22L21.7599 287.26Z" fill="#689DD4"/>
<path d="M114 171.92C114 171.92 108.66 189.25 108.62 189.25L108.68 189.52C107.31 187.52 98.6801 185.24 98.2701 185.24C97.8601 185.24 92.0901 182.8 89.4601 181.79C89.4554 181.753 89.4554 181.716 89.4601 181.68C89.9101 179.58 90.2001 178.16 90.2001 178.16L92.7901 179.26L100.57 167.26L107.2 157.98L112.08 153.25L117.08 144.05C119.16 145.56 122.31 151.86 122.31 151.86L114 171.92Z" fill="#689DD4"/>
<path d="M112.05 153.25L106.05 159.53L100.53 167.26L92.7499 179.26L90.1599 178.16L71.42 170.16L57.2899 177.54L55.7399 178.36L46.9999 165.11L41.6799 165.47H55.7799L66.2799 145.15L70.95 161.45L75.5799 147.53C75.5799 147.53 93.5199 162.25 93.8799 162.1L112.05 153.25Z" fill="#3A3B44"/>
<path d="M90.1701 178.16C90.1701 178.16 89.8801 179.58 89.4301 181.68C89.4253 181.717 89.4253 181.754 89.4301 181.79C88.3101 187.42 87.4301 195.19 84.5101 199.03C83.5101 200.33 80.3901 203.73 71.2101 203.69L58.6901 199L57.3 177.56L71.4301 170.18L90.1701 178.16Z" fill="#7DD1F0"/>
<path d="M117.05 144L112.05 153.2L93.8701 162.05C93.5101 162.2 75.5701 147.48 75.5701 147.48L87.3701 133.08C87.3701 133.08 105 132.66 105.62 133.14C106.06 133.53 112.24 140.55 117.05 144Z" fill="#7DD1F0"/>
<path d="M49.3101 253.6L33.5601 240.33L39.86 223.71C40.3 224.01 41.6701 225.71 42.3801 226.2L49.3101 253.6Z" fill="#7DD1F0"/>
<path d="M58.4799 235.78C58.4799 235.78 46.3699 229.2 42.3799 226.2C41.6699 225.66 40.2999 224.01 39.8599 223.71L46.1199 211.64L57.2999 219.58L58.4799 235.78Z" fill="#3A3B44"/>
<path d="M70.11 243.34L58.48 235.78C60.34 234.28 67.92 228.47 69.72 227.47L69.87 227.39C69.9363 227.351 70.0132 227.334 70.09 227.34C70.14 228.07 70.11 243.34 70.11 243.34Z" fill="#7DD1F0"/>
<path d="M117.77 223.94L107.16 226.55L84.5 234.33V219.58L112.89 209.42L117.77 223.94Z" fill="#3A3B44"/>
<path d="M117.05 354.94C117.05 354.94 112.05 375.54 111.82 376.42C111.59 377.3 103 356.34 103 356.34L117.05 354.94Z" fill="#4B5680"/>
<path d="M79.1101 305.72C79.3701 304.34 70.1101 353.95 70.1101 353.95L64.6401 362.58C64.6401 362.58 67.5701 350.89 67.8201 350.09C68.0701 349.29 76.7001 301.57 76.7001 301.57C76.7001 301.57 67.3301 298.13 69.0001 298.38C71.5849 298.519 74.1753 298.519 76.7601 298.38L81.8301 296.85L94.2001 361.17C93.7401 359.55 78.8501 307.07 79.1101 305.72Z" fill="#4B5680"/>
<path d="M126.4 354.94L133.34 262.94L117.06 354.94C117.06 354.94 112.06 375.54 111.83 376.42C111.6 377.3 103 356.34 103 356.34L77.8499 274.05C77.8499 274.05 88.5999 265.25 99.3599 256.59L107.2 226.59L84.5399 234.37V236.85L79.8399 238.98L70.1599 243.38L58.6999 235.93L58.2399 235.58C56.8199 234.47 45.9399 228.88 42.4299 226.24L49.3599 253.64L51.3599 255.77L70.1699 275.84L53.9299 361.25L40.9899 353.25L28.4199 283.19L24.6699 326.73L30.8899 349.13L28.7399 376.5L33.5699 386.55L34.3299 472.93H39.9999V415.73C39.9999 414.58 58.1299 375.14 58.1299 375.14L66.4899 394L47.3999 472.88L53.2299 472.63L73.9999 391.94L64.5999 362.58C64.5999 362.58 67.5199 350.89 67.7799 350.09C68.0399 349.29 76.6699 301.57 76.6699 301.57C76.6699 301.57 67.2999 298.13 68.9599 298.38C71.5447 298.519 74.1351 298.519 76.7199 298.38L81.7899 296.85L94.1599 361.17L91.8799 386.88C91.8799 386.88 115.88 478.02 116.88 478.88C117.035 478.975 117.209 479.033 117.39 479.05C119.993 479.167 122.599 479.147 125.2 478.99H126.09L117.14 418.91C117.14 418.91 127.97 382.91 127.97 382.22C127.97 381.53 133.21 385.64 133.21 385.64L131.38 478.76L132.76 478.69L132.97 476.99C133.36 464.21 137.75 384.32 138.72 384.07C139.69 383.82 126.4 354.94 126.4 354.94ZM35.1499 371.76L38.6699 354.94C39.6699 355.37 49.4399 365.69 49.4399 365.69L35.1499 371.76Z" fill="#8193CA"/>
<path d="M125 239.46C118.318 242.779 111.958 246.709 106 251.2C103.83 252.93 101.55 254.76 99.28 256.59L107.12 226.59L117.73 223.98L124.53 238.47L125 239.46Z" fill="#7DD1F0"/>
<path d="M133.34 262.92C132.91 264.53 117.51 320.39 117.16 320.92C116.81 321.45 104.1 293.32 104.1 293.32C104.1 293.32 105.74 258.85 106.1 251.14C112.029 246.675 118.355 242.765 125 239.46L133.34 262.92Z" fill="#689DD4"/>
<path d="M168.29 204.24C168.1 204.45 160.89 212.56 154.51 219.58V249.82L150.9 256.54L145.42 249.4L134.89 264.9L133.96 271.2H140.41V283L151.49 285.76L162.58 279.1C162.58 279.1 162.32 246.94 162.58 245.84C162.79 245 166.55 217.19 168.29 204.24ZM151.49 281.11L153.3 274.05V261.93L156.66 276.42L151.49 281.11Z" fill="#7DD1F0"/>
<path d="M162.58 279.09L159.68 286.51L145.37 294L136.86 290.59L133.96 271.19H140.41V282.99L151.49 285.75L162.58 279.09Z" fill="#689DD4"/>
<path d="M154.51 219.58V249.82L150.9 256.54L145.42 249.4L138.29 216.68C138.29 216.68 144.61 229.14 144.82 229.77C144.91 230.05 149.45 225.16 154.51 219.58Z" fill="#3A3B44"/>
<path d="M169.18 197.71C169.18 197.71 168.83 200.27 168.3 204.23C168.11 204.44 160.9 212.55 154.52 219.57C149.46 225.15 144.92 230.04 144.83 229.76C144.62 229.13 138.3 216.67 138.3 216.67L140.42 215.84L150.24 207.44L165.36 194.75L166.55 193.58L169.18 197.71Z" fill="#689DD4"/>
<path d="M133.29 385.62L131.46 478.74C130.15 478.81 128.18 478.91 126.17 478.97L117.22 418.89C117.22 418.89 128.05 382.89 128.05 382.2C128.05 381.51 133.29 385.62 133.29 385.62Z" fill="#4B5680"/>
<path d="M113.52 119.27L79.5201 130.52L70.0701 144L61.0001 129.14L41.1401 119.24C41.4001 118.05 41.5501 117.31 41.5501 117.31L45.8401 114.31C45.5301 114.76 45.8401 117.73 45.8401 117.73L69.7301 127L72.2901 128L111.41 115.76L113.52 119.27Z" fill="#7DD1F0"/>
<path d="M66.27 145.16L55.76 165.47H41.67L39.6 164L32.23 151.06L35.28 139.41V139.4L38.58 135.92L55.75 134.53L66.27 145.16Z" fill="#7DD1F0"/>
<path d="M84.5 219.58V234.33V236.81L79.8 238.94L80.04 219.58H61.12C60.75 219.58 58.6 217.12 57.51 215.84L84.51 214.69V219.58H84.5Z" fill="#7DD1F0"/>
<path d="M52.9099 294.84C52.9099 294.84 42.4699 320.24 42.2999 319.38C42.1299 318.52 28.9999 285.45 28.3599 283V282.1L32.8599 241.89L33.5299 240.38L49.2799 253.65L51.2799 255.78L52.9099 294.84Z" fill="#689DD4"/>
<path d="M70.1099 275.8L53.8699 361.21L40.9299 353.21L28.3599 283.15V283C29.0199 285.48 42.1299 318.57 42.2999 319.41C42.4699 320.25 52.9099 294.87 52.9099 294.87L51.2999 255.76L70.1099 275.8Z" fill="#3A3B44"/>
<path d="M49.4401 365.69L35.1401 371.76L38.6701 354.94C39.7001 355.37 49.4401 365.69 49.4401 365.69Z" fill="#4B5680"/>
<path d="M124.12 135.83L122.28 151.83C122.28 151.83 118.42 146.19 117.05 144.02C113.7 138.71 106.05 133.51 105.62 133.17C105 132.69 87.37 133.11 87.37 133.11L75.57 147.51L70.94 161.43L66.28 145.14L55.75 134.51H38.59L35.28 139.38L36.81 137.26C37.38 137.26 40.08 124.1 41.13 119.19L61 129.13L70.07 144L79.51 130.46L113.51 119.2C118 126.66 123.68 136.06 124.12 135.83Z" fill="#689DD4"/>
<path d="M156.66 276.42L151.49 281.11L153.3 274.05V261.93L156.66 276.42Z" fill="#3A3B44"/>
<path d="M10.3199 276.42L6.60986 279.37L7.57986 262.94L10.3199 276.42Z" fill="#3A3B44"/>
<path d="M66.49 394L47.4 472.88H40.22L39.98 472.38V415.68C39.98 414.53 58.1 375.09 58.1 375.09L66.49 394Z" fill="#4B5680"/>
<path d="M53.2399 472.63L49.2399 486.5L34.1799 486.72L34.1899 485.73L34.2799 472.88L53.2399 472.63Z" fill="#3A3B44"/>
<path d="M132.85 478.67V486.72L118.45 486.9L118.38 486.54L117.47 479.05C120.073 479.167 122.679 479.147 125.28 478.99C127.59 478.99 129.96 478.82 131.45 478.74L132.85 478.67Z" fill="#3A3B44"/>
<path d="M148.45 108.22L108.89 111.07L114.18 104.69L127.53 98.55L129.71 97.23L148.45 108.22Z" fill="#7DD1F0"/>
<path d="M148.45 108.22L144.26 126.93L126.08 128.29L108.89 111.07L148.45 108.22Z" fill="#689DD4"/>
<path d="M144.26 126.93C144.26 126.93 124.83 135.46 124.12 135.83C123.68 136.06 117.9 126.61 113.45 119.19L111.36 115.7C110.439 114.211 109.614 112.664 108.89 111.07L126.08 128.29L144.26 126.93Z" fill="#3A3B44"/>
<path d="M44.44 108.35L24.46 105.71L38.59 98.9902L44.44 108.35Z" fill="#7DD1F0"/>
<path d="M48.1901 108.35L37.86 116.66L26.2001 129.14L16.5701 121.1L24.4601 105.71L44.4401 108.35L38.5901 98.9902L48.1901 108.35Z" fill="#689DD4"/>
<path d="M82.41 35.4802L98.23 26.9702L76.52 33.2902L82.41 35.4802Z" fill="#6767AE"/>
<path d="M80.02 65.4602L102.25 56.1802L105.2 59.1402L105.56 57.7702L102.25 56.1802L83.03 62.3602L80.02 65.4602Z" fill="#BC7645"/>
<path d="M77.73 65.5302L61.54 58.6802L74.82 62.7302L77.73 65.5302Z" fill="#9B5023"/>
<path d="M97.2001 80.0898L85.8401 88.8799L83.9101 89.8098L80.1001 88.9398L78.6001 88.4698L83.9301 88.2498L97.2001 80.0898Z" fill="#9B5023"/>
<path d="M67.21 81.42L78.6 88.47L67.21 80.27V81.42Z" fill="#9B5023"/>
<path d="M67.21 80.27C67.21 80.44 78.8 88.27 78.8 88.27H83.93L83.76 88.97L78.6 88.49C78.6 88.49 68.79 82.31 68.74 82.32C68.69 82.33 67.21 80.27 67.21 80.27Z" fill="#9B5023"/>
<path d="M76.52 33.2901C76.52 33.2901 71.45 24.7201 71.38 23.9701C71.31 23.2201 80.94 5.81006 80.94 5.81006C80.94 5.81006 75.94 21.5101 76.16 21.7001C76.38 21.8901 81.78 31.2301 81.78 31.2301L76.52 33.2901Z" fill="#392317"/>
<path d="M104.34 7.26016C103.71 7.07016 95.79 10.6902 95.79 10.6902C95.79 10.6902 89.37 27.2002 89.65 26.9702C89.93 26.7402 97 12.2102 97 12.2102L104.34 7.26016Z" fill="#392317"/>
<path d="M47.3799 25.8702L63.4799 17.1102L72.3999 19.5502L62.3999 5.22021L47.3799 25.8702Z" fill="#392317"/>
<path d="M99.3201 369.19C99.8401 370.11 114.23 408.07 114.23 408.07L95.3101 386.27L99.3201 369.19Z" fill="#4B5680"/>
<path d="M49.44 371.76L36.72 376.45L39.98 415.68L58.1 375.09L49.44 371.76Z" fill="#3A3B44"/>
<path d="M58.65 235.89L53.24 257.79L70.11 275.8L67.95 287.12L75.24 289.08L81.89 287.38L77.81 274.05L94.2 260.72L102.97 227.34L84.5 234.33L84.49 236.81L70.11 243.35L58.65 235.89Z" fill="#689DD4"/>
<path d="M144.26 126.93C144.26 126.93 155.68 156.01 155.65 155.93C155.62 155.85 132.49 149.08 132.49 149.08L144.26 126.93Z" fill="#3A3B44"/>
<path d="M132.49 149.06L122.28 151.85L124.12 135.83L144.26 126.93" fill="#4B5680"/>
<path d="M155.65 155.91L164.82 181.61L165.35 194.76L146.87 186.71L155.65 155.91Z" fill="#689DD4"/>
<path d="M122.28 151.85L133.54 180L141.47 188.69L140.41 215.82C140.41 215.82 150.25 208.82 150.23 207.42C150.21 206.02 146.87 186.68 146.87 186.68L155.65 155.89C155.65 155.89 133.88 147.89 133.01 148.05C132.14 148.21 122.28 151.85 122.28 151.85Z" fill="#7DD1F0"/>
<path d="M146.87 186.71L150.23 207.45C150.23 207.45 165.85 194.98 165.35 194.76L146.87 186.71Z" fill="#3A3B44"/>
<path d="M136.92 183.73C137.28 184.12 147.37 184.62 147.37 184.62L152.15 184.17L141.47 188.72L136.92 183.73Z" fill="#3A3B44"/>
<path d="M36.8101 137.28L35.2801 139.4L32.2801 151.06L31.6101 152.29C31.6101 152.29 37.6101 166.43 36.9401 167.15C36.2701 167.87 25.5201 177.15 25.5201 177.15L21.3901 151.06L28.0001 139.84L36.8101 137.28Z" fill="#4B5680"/>
<path d="M27.9599 139.84L20.1299 135.53L15.4299 184.62L25.4699 177.15L21.3399 151.06L27.9599 139.84Z" fill="#689DD4"/>
<path d="M36.8999 167.15L33.6499 207.45L22.3999 201.39L25.4799 177.15C25.4799 177.15 36.1799 167.63 36.8999 167.15Z" fill="#689DD4"/>
<path d="M25.48 177.15L22.4 201.39L18.47 199L14.22 197.79C14.22 197.79 17.22 166.33 17.14 166.72C17.06 167.11 25.48 177.15 25.48 177.15Z" fill="#7DD1F0"/>
<path d="M112.89 209.42L84.5001 219.58V214.69L57.3101 215.85V219.58L46.1301 211.64L44.0501 177.64L38.7501 169.64L36.9101 167.18L31.5801 152.32L32.2501 151.09L39.6001 164L41.6701 165.47L46.9901 165.11L55.7501 178.41L57.3001 177.59L58.6901 199L71.1901 203.66C73.6057 203.809 76.0268 203.474 78.3109 202.673C80.5949 201.873 82.6959 200.624 84.4901 199C91.6801 192.21 89.4901 182.21 89.4101 181.76C92.0401 182.76 97.7801 185.21 98.2201 185.21C98.6601 185.21 107.22 187.47 108.63 189.49C109.07 191.84 112.89 209.42 112.89 209.42Z" fill="#689DD4"/>
<path d="M113.52 166.84C113.39 167.27 102.52 179.91 102.52 179.91L102.19 185.32L113.52 166.84Z" fill="#4B5680"/>
<path d="M113.11 161.21C112.95 161.63 101.2 173.46 101.2 173.46L100.49 178.84L113.11 161.21Z" fill="#4B5680"/>
<path d="M112.89 209.42L84.5001 219.58V214.69L57.3101 215.85V219.58L46.1301 211.64L44.0501 177.64L38.7501 169.64L36.9101 167.18L31.5801 152.32L32.2501 151.09L39.6001 164L41.6701 165.47L46.9901 165.11L55.7501 178.41L57.3001 177.59C57.7667 184.743 58.2301 191.89 58.6901 199.03L71.1901 203.69L84.7001 198.93L89.4101 181.79C92.0401 182.79 97.7801 185.24 98.2201 185.24C98.6601 185.24 107.22 187.5 108.63 189.52C109.07 191.84 112.89 209.42 112.89 209.42Z" fill="#689DD4"/>
</svg>
