<svg width="193" height="497" viewBox="0 0 193 497" fill="none" xmlns="http://www.w3.org/2000/svg">
<path d="M96.2801 44.0501L82.8401 44.2801C82.5401 44.2801 77.6201 46.5901 77.6201 46.5901L75.1601 44.0901L67.3501 43.8201L68.7001 50.3901L71.1901 57.1201L75.4101 64.1201H87.5901L98.2801 53.5901L96.2801 44.0501ZM83.1701 56.6801C82.9201 56.6001 77.3501 56.6801 77.3501 56.6801L75.7701 54.1901H85.5801C85.5801 54.1901 83.4201 56.7701 83.1701 56.6801V56.6801ZM73.6401 51.6201L75.3201 50.4201C75.3201 50.4201 84.4401 50.3501 84.7601 50.4201C85.0801 50.4901 89.3601 51.7101 89.3601 51.7101L73.6401 51.6201Z" fill="#C68650"/>
<path d="M72.4299 0.370117L79.1199 2.24013L87.0699 0.370117L102.55 4.45012L88.8699 7.86012L76.3699 7.17012L72.4299 0.370117Z" fill="#3F383E"/>
<path d="M190.5 219.79V220.25H176.32L185.12 166.05C185.12 166.05 190.77 188.41 191.23 189.05V189.2C191.73 191.89 190.5 219.79 190.5 219.79Z" fill="#5A5755"/>
<path d="M185.12 220.25L179.9 248.24L174.72 234.24L168.72 232.22L168.87 231.76L176.31 220.25H185.12Z" fill="#C38750"/>
<path d="M179.9 248.24L169.54 251.74L167.21 248.24L172.53 246.46V241.86L167.21 248.24L164.81 244.62L168.72 232.22L174.72 234.24L179.9 248.24Z" fill="#A56933"/>
<path d="M192.57 247.11L187.84 251.74H169.54L179.9 248.24L192.57 247.11Z" fill="#6F3E2A"/>
<path d="M190.5 220.25L192.57 247.11L179.9 248.24L185.12 220.25H190.5Z" fill="#A56933"/>
<path d="M166.38 103.51V103.58L152.84 122.1L137.31 114.81V98.9999L155.9 82.6799L156.23 82.7299L166.38 103.51Z" fill="#29272C"/>
<path d="M155.9 82.6901L137.31 99.0101L115.33 87.1901L130.48 78.5701L130.71 78.6801L155.9 82.6901Z" fill="#C7C6C1"/>
<path d="M146.45 128.2C146.45 128.2 147.79 154.07 148.32 155.2C147.64 155.2 140.19 127.65 140.19 127.65L129.67 107.35L115.33 87.1699L137.33 98.9899V114.79L152.86 122.08L146.45 128.2Z" fill="#5A5755"/>
<path d="M105.69 67.4499C100.63 69.6099 83.6901 77.7599 83.3901 77.5399C83.0901 77.3199 76.1301 72.0599 72.3901 69.2399L82.4501 72.8999L104.06 62.4299V66.7099L105.69 67.4499Z" fill="#996B4A"/>
<path d="M104.14 56.21V62.42L82.4899 72.8999L72.4299 69.2399L73.1199 63.5L74.9999 65.77H87.67L104.14 56.21Z" fill="#8A562C"/>
<path d="M104.2 46.36L104.77 45.75L104.2 46.36L104.14 56.21L87.6401 65.7599L98.2801 53.55C98.2801 53.55 100.82 47.4799 103.39 41.3999C103.55 40.9999 104.2 46.18 104.2 46.36Z" fill="#6A3F26"/>
<path d="M98.2799 53.55L87.6399 65.76H74.9999L73.1299 63.49L70.9999 57.38L68.7399 50.56L66.6599 43.74L68.0199 43.82L69.3599 50.39L71.8599 57.12L75.4399 64.12H87.6199L98.2799 53.55Z" fill="#9C6636"/>
<path d="M110.49 29.25V39.56L104.2 46.36C104.2 46.18 103.55 41.04 103.39 41.36C105.96 35.28 108.55 29.21 108.64 29.21L110.49 29.25Z" fill="#A16938"/>
<path d="M107.87 13.8799L106.69 28.7199L97.38 24.7199L98 14.3999L93.51 15.1399L81.46 18.7199L68.37 13.9999L66.28 25.5999L67.51 9.35988C67.51 9.35988 78.84 11.8399 79.1 11.8399C79.36 11.8399 96.79 10.2099 97.18 10.0799C97.57 9.94988 102.7 7.91988 102.99 7.62988L107.87 13.8799Z" fill="#22201F"/>
<path d="M93.5101 15.14L90.8601 24.27C90.8601 24.27 79.3301 29.63 79.1401 29.76C78.9501 29.89 70.6201 25.28 70.2401 25.16C69.8601 25.04 68.3701 14 68.3701 14L80.9401 18.56L93.5101 15.14Z" fill="#C68650"/>
<path d="M108.88 29.25L102.74 31.35L97.6301 32.89L94.7701 29.4L92.3701 26.49L97.3801 24.73L106.69 28.72L106.64 29.15L108.88 29.25Z" fill="#A1A0A0"/>
<path d="M103.06 31.1601C103.06 31.1601 98.2 40.3601 96.74 43.2201L96.48 43.7001L96.32 44.0001V44.0501L82.88 44.2801C82.58 44.2801 77.66 46.5901 77.66 46.5901L75.2 44.0901L68.42 43.8201L66.67 43.7401L68.67 39.2001L75.79 40.9801L77.21 33.9201L67.68 29.5801L66 25.9401L66.28 25.5701L78.81 32.0001L92.51 26.4201L94.79 29.2101L80.94 34.2801L82.14 40.9601C82.43 40.9601 94.98 40.4501 95.19 40.3801C95.4 40.3101 97.65 32.7001 97.65 32.7001L103.06 31.1601Z" fill="#29272C"/>
<path d="M77.1899 33.9201L75.7699 40.9801L75.2199 34.2501L67.6599 29.5801L77.1899 33.9201Z" fill="#29272C"/>
<path d="M68.65 39.1899L66.63 43.7399L63.5 34.4899V29.2499L66 25.9399L67.66 29.5799L65.85 33.1999L67.51 38.9199L68.65 39.1899Z" fill="#A1A0A0"/>
<path d="M94.7899 29.23L84.2499 34.06L82.14 40.98L80.9399 34.29L94.7899 29.23Z" fill="#29272C"/>
<path d="M108.88 29.25C108.64 29.61 106.13 35.49 103.64 41.38L103.53 41.65C101.3 46.89 98.97 52.1 98.4 53.29C98.4 53.29 98.4 53.45 98.34 53.49C98.3159 53.5254 98.2854 53.5559 98.25 53.58L96.25 44.03C96.3088 43.933 96.3622 43.8328 96.41 43.73L96.67 43.25C98.2 40.4 102.99 31.19 102.99 31.19L108.5 29.38L108.8 29.28L108.88 29.25Z" fill="#5A5755"/>
<path d="M140.19 127.67L129.67 107.37L123.31 122.1C123.31 122.1 108.24 130.91 107.88 131.28C107.52 131.65 79.4599 125.66 79.4599 125.66L81.3099 102L89.7499 85.6201L81.4099 90.6801C81.4099 90.6801 73.7699 86.7601 73.1599 86.0801L78.8399 103.08L74.9999 126.16L50.8999 132.68L37.6799 123.56L50.2 139.43L67.2 133.24L52.7899 146.76L55.17 182.44C55.17 182.44 65.1699 203.85 65.6299 204.16C66.0899 204.47 91.3099 204.16 91.3099 204.16L109.3 178L124 171.21C124 171.09 124 171.03 124 171.03L140.19 127.67ZM99.7199 186.9L96.4299 191.78L77.7899 194V134.69L101.21 145.75L97.4999 159.64L99.7199 186.9ZM84.6299 133.3C84.6299 133.3 110.14 138.02 110.83 137.84C111.52 137.66 132.04 121.36 132.68 120.84L112.91 145.74L84.6299 133.3Z" fill="#40403E"/>
<path d="M132.68 120.85L112.91 145.75L84.6299 133.3C84.6299 133.3 110.14 138.02 110.83 137.84C111.52 137.66 132 121.36 132.68 120.85Z" fill="#29272C"/>
<path d="M78.8401 103.01L75.0101 126.16L50.9201 132.68L37.7001 123.56L36.8301 106.52L52.4801 87.1899L78.8401 103.01Z" fill="#A1A0A0"/>
<path d="M52.48 87.19L31.48 103.01L22.74 96.54L31.55 81.86L48.26 80.96L48.81 80.71C50.13 82.72 52.48 87.19 52.48 87.19Z" fill="#C7C6C1"/>
<path d="M25.67 123.07L25.72 122.93L22.78 96.54L31.52 103.01L37.7 123.56L25.67 123.07Z" fill="#40403E"/>
<path d="M53.9001 208.26L66.6701 234.26L65.4901 232.41L65.0001 231.64L64.7301 231.23L64.1501 230.3L63.5101 229.3L63.1701 228.76L62.0801 227L60.9101 225.16L60.0901 223.86L59.2501 222.55L58.8201 221.87L58.0001 220.57L56.6101 218.39L55.8001 217.11L54.9501 215.76C51.1601 209.76 47.9001 204.56 47.8401 204.3L51.9101 181C51.9101 181 48.0201 147 48.2401 143.36C47.3001 145.88 38.4901 163.36 37.7401 164.86L18.8901 155.45L38.7501 145.79L37.7001 123.6L50.2301 139.47L67.2301 133.28L52.8201 146.8L55.2001 182.48L53.9001 208.26Z" fill="#5A5755"/>
<path d="M18.89 155.41L19.7099 184.97L8.93994 220.65L2.68994 217.09L11.9399 166.74L18.89 155.41Z" fill="#C7C6C1"/>
<path d="M37.6899 164.92L36.2199 178.7L14.89 220.92L8.93994 220.65L19.7099 184.97L37.6899 164.92Z" fill="#5A5755"/>
<path d="M13.8499 236.67L4.24988 250.19L0.879883 235.82L2.68988 217.09L8.93988 220.65L13.8499 236.67Z" fill="#A86A32"/>
<path d="M22.6899 233.25L13.8499 236.67L8.93994 220.65L14.89 220.92L22.5599 232.89L22.6899 233.25Z" fill="#C58852"/>
<path d="M26.1701 243.5L22.5601 246.21L13.8501 236.67L22.6901 233.25L26.1701 243.5Z" fill="#A66834"/>
<path d="M22.56 246.21L20.38 250.32L19.62 251.74L4.26999 250.27L4.25 250.19L13.85 236.67L22.56 246.21Z" fill="#6E3D2F"/>
<path d="M126.55 195.72L101.21 218.94L91.1301 234.24C90.6101 233.55 113.43 200.74 112.91 200.24C112.39 199.74 109.3 178 109.3 178L124 171.21C124.23 173.41 126.46 194.33 126.46 195.21C126.478 195.382 126.508 195.552 126.55 195.72V195.72Z" fill="#5A5755"/>
<path d="M66.68 234.24L59.24 292L36.24 271.09L47.86 204.36C48.01 204.97 66.12 233.36 66.69 234.27L66.68 234.24Z" fill="#C7C6C1"/>
<path d="M143.35 251.74L141.35 315.07C141.35 315.07 131.89 326.54 128.35 331.61C130.94 325.83 136.35 311.35 136.35 311.08C136.35 310.81 123.11 293.42 121.65 289.87C121.75 289.44 121.75 289.21 121.65 289.23C121.55 289.25 121.53 289.48 121.65 289.87C120.65 294.16 109.16 319.03 108.23 321.04L108.17 321.17C100.68 295.76 90.61 261.79 90.61 261.79L87.22 299.49C87.22 299.49 81.17 325.79 81.12 326.36C81.12 326.36 78.18 328.22 74.72 330.36C69.99 333.36 64.28 336.95 63.83 337.25C63.03 337.78 74.38 315.61 74.38 315.61L59.24 292L66.68 234.29C66.68 234.29 91.14 234.98 91.14 234.29L121.56 287.94L143.35 251.74Z" fill="#5A5755"/>
<path d="M59.24 291.95L49.43 326.59L36.22 271.04L59.24 291.95Z" fill="#5A5755"/>
<path d="M80.5901 349.62L65.5901 364.46L45.5901 340.13L48.9301 328.31L49.2001 327.38L49.4301 326.59L59.2401 292L74.3001 315.68C74.3001 315.68 63.0001 337.8 63.7401 337.27C64.4801 336.74 81.0001 326.36 81.0001 326.36C81.2601 325.69 80.5901 349.62 80.5901 349.62Z" fill="#40403E"/>
<path d="M87.1401 387.78L65.5901 364.46L80.5901 349.62L87.1401 387.78Z" fill="#C7C6C1"/>
<path d="M87.1401 387.78L67.4901 460.26L65.5901 364.46L87.1401 387.78Z" fill="#29272C"/>
<path d="M49.7101 432.63C49.7101 432.63 49.8801 370.84 49.6501 370.17C49.4201 369.5 45.5901 340.82 45.5901 340.17L65.5901 364.5L67.4901 460.3L49.7101 432.63Z" fill="#5A5755"/>
<path d="M68.4 484.19L30.24 486C30.24 486 20.98 489.16 20.08 488.93C19.18 488.7 4.27002 486.46 4.27002 486.46L5.17004 480.81L24.91 481.66L43.12 482.45L60.51 478.61C60.51 478.61 67.93 476.71 68.16 476.77C68.29 480.9 68.4 484.19 68.4 484.19Z" fill="#40403E"/>
<path d="M68.16 476.76C67.93 476.7 60.51 478.6 60.51 478.6L51.8 456.6L49.71 432.38L67.49 460C67.61 460 67.94 469.66 68.16 476.76Z" fill="#40403E"/>
<path d="M60.51 478.6L43.12 482.67L24.91 481.88L14.22 476.76L41.45 466L60.51 478.6Z" fill="#C7C6C1"/>
<path d="M24.9099 481.88L5.16992 480.8L14.2099 476.76H14.2199L24.9099 481.88Z" fill="#29272C"/>
<path d="M143.35 251.74L121.56 287.91C120.91 287.27 132.44 215.68 132.44 215.68C137.3 231.87 143.35 251.74 143.35 251.74Z" fill="#40403E"/>
<path d="M141.32 315.07C141.32 315.07 131.86 326.54 128.32 331.61C130.91 325.83 136.32 311.35 136.32 311.08C136.32 310.81 123 293.42 121.57 289.87C120.57 294.34 108.08 321.17 108.08 321.17L123.85 339L127 361.63L144.5 344.42L141.32 315.07Z" fill="#40403E"/>
<path d="M140 436.13L119.88 394.56C119.88 394.56 119.88 394.14 119.78 393.38C119.84 392.08 126.99 369.61 126.99 369.61L115.99 348.53C115.99 348.27 112.47 336.25 108.17 321.4L124 339.21L127 361.63L161.77 431.63L163.47 464.31L140 436.13Z" fill="#5A5755"/>
<path d="M127 369.57C127 369.57 119.85 392.04 119.79 393.34C119.18 386.13 116.05 349.1 116.05 348.49L127 369.57Z" fill="#C7C6C1"/>
<path d="M161.75 431.64L126.98 361.63L144.48 344.42L159.16 381.68L161.75 431.64Z" fill="#29272C"/>
<path d="M168.9 477.1L145.11 469.4L140.42 437L139.99 436.13L163.45 464.32L168.9 477.1Z" fill="#40403E"/>
<path d="M173.59 488.13L148.59 487.67C148.59 487.67 145.16 477.67 145.16 477.22V469.74L145.11 469.4L168.9 477.1L173.59 488.13Z" fill="#C7C6C1"/>
<path d="M175.19 491.87L161.19 496.38H148.77L142.9 489.16L145.16 477.64V477.22C145.16 477.64 148.59 487.67 148.59 487.67L173.59 488.13L175.19 491.87Z" fill="#40403E"/>
<path d="M185.12 166.05L168 154.88L152.84 122.1L166.38 103.58C166.38 104.69 166.62 117.99 166.84 118.64C167.06 119.29 173.39 133.32 173.39 133.32C173.39 133.32 176.32 153.41 176.32 152.73C176.32 152.05 185.12 166.05 185.12 166.05Z" fill="#5A5755"/>
<path d="M168 154.88C168 154.88 162.26 160.82 158.32 164.75C157.17 163.59 150.4 156.7 148.69 155.42C151.31 156.16 166.87 154.88 168 154.88Z" fill="#40403E"/>
<path d="M176.32 220.25L159.83 187.25L158.49 164.89L158.32 164.72C162.26 160.79 168 154.85 168 154.85L176.32 220.25Z" fill="#C7C6C1"/>
<path d="M185.12 166.05L176.31 220.25L168 154.88L185.12 166.05Z" fill="#40403E"/>
<path d="M113.67 71L89.75 85.55L81.41 90.61C81.41 90.61 73.77 86.69 73.16 86.01V85.92C73.42 85.74 69.77 78.38 67.5 73.85C67.71 73.65 70.19 71.42 71.55 70.12C72 69.7 72.32 69.36 72.41 69.26C76.11 72.08 83.1 77.37 83.41 77.56C83.72 77.75 99.02 68.9 104.09 66.73L113.67 71Z" fill="#5A5755"/>
<path d="M78.84 103.01L52.48 87.1899L73.13 85.9399L73.16 86.0299L78.84 103.01Z" fill="#C7C6C1"/>
<path d="M36.83 106.52L37.7 123.56L31.52 103.01L52.48 87.1899L36.83 106.52Z" fill="#5A5755"/>
<path d="M38.7501 145.75L18.8901 155.41L21.2001 136.7L25.6701 123.07L37.7001 123.56L38.7501 145.75Z" fill="#C7C6C1"/>
<path d="M37.7401 164.82L37.6901 164.92L19.6901 184.97L18.8701 155.41L37.7401 164.82Z" fill="#40403E"/>
<path d="M20.3801 250.32L7.57007 247.81L12.0701 244.03L22.5601 246.21" fill="#A16B31"/>
<path d="M115.33 87.1901L81.3101 101.95L89.7501 85.5701L115.33 87.1901Z" fill="#C7C6C1"/>
<path d="M129.67 107.37L123.31 122.1C123.31 122.1 108.24 130.91 107.88 131.28C107.52 131.65 79.46 125.66 79.46 125.66L81.31 102L115.31 87.24L129.67 107.37Z" fill="#A1A0A0"/>
<path d="M168 154.88C166.87 154.88 151.31 156.16 148.69 155.42C148.591 155.327 148.471 155.258 148.34 155.22C147.81 154.07 146.47 128.22 146.47 128.22L152.86 122.12L168 154.88Z" fill="#A1A0A0"/>
<path d="M172.53 241.86V246.46L167.21 248.24L172.53 241.86Z" fill="#6E3C1A"/>
<path d="M97.5 159.64L99.72 186.9L96.43 191.78L77.79 194V134.69L101.2 145.75L97.5 159.64Z" fill="#A1A0A0"/>
<path d="M121.56 287.91L91.1401 234.26L101.22 218.96L126.56 195.74C127.13 197.9 129.56 206.16 132.45 215.74C132.44 215.68 120.91 287.27 121.56 287.91Z" fill="#C7C6C1"/>
<path d="M91.1299 234.24C91.1299 234.91 66.6699 234.24 66.6699 234.24L53.8999 208.24L55.2399 182.42C55.2399 182.42 65.2399 203.83 65.6999 204.14C66.1599 204.45 91.3799 204.14 91.3799 204.14L109.3 178C109.3 178 112.39 199.7 112.91 200.22C113.43 200.74 90.6099 233.55 91.1299 234.24Z" fill="#29272C"/>
<path d="M98 14.3999L97.38 24.7299L92.51 26.44L78.81 32L66.28 25.55L68.37 13.95C68.37 13.95 69.87 25.01 70.24 25.14C70.61 25.27 78.95 29.86 79.14 29.74C79.33 29.62 90.86 24.25 90.86 24.25L93.51 15.1199L98 14.3999Z" fill="#A46B32"/>
<path d="M89.3601 51.71L86.7901 52.28L74.9301 52C74.9301 52 73.6901 51.61 73.6401 51.61L75.3201 50.41C75.3201 50.41 84.4401 50.34 84.7601 50.41C85.0801 50.48 89.3601 51.71 89.3601 51.71Z" fill="#8E5828"/>
<path d="M85.58 54.1899C85.58 54.1899 83.42 56.7699 83.17 56.6799C82.92 56.5899 77.35 56.6799 77.35 56.6799L75.77 54.1899H85.58Z" fill="#8E5828"/>
<path d="M97.6501 32.72C97.6501 32.72 95.3901 40.32 95.1901 40.4C94.9901 40.48 82.4301 40.98 82.1401 40.98L84.2501 34.06L94.7901 29.23L97.6501 32.72Z" fill="white" stroke="#221F1F" stroke-linejoin="round"/>
<path d="M75.7701 40.9801L68.6501 39.1901L67.5101 38.9201L65.8501 33.2001L67.6601 29.5801L75.2201 34.2501L75.7701 40.9801Z" fill="white" stroke="#221F1F" stroke-linejoin="round"/>
<path d="M82.49 44.36L95.77 45.67L98.28 53.55L96.28 44.05L82.81 44.28" fill="#6A3F26"/>
<path d="M107.87 13.88L94.79 12.88L79.14 15.36L68.66 12.6L67.52 9.29996L69 6.69995L90.42 9.16995L102.58 4.44995L107.87 13.88Z" fill="#22201F"/>
<path d="M76.53 27.8699C77.3036 28.3323 78.1015 28.7529 78.92 29.13C78.7018 27.4489 78.398 25.7801 78.01 24.13C77.6112 23.771 77.2463 23.376 76.92 22.95L76.53 27.8699Z" fill="#A36B33"/>
<path d="M79.4399 29.11L80.9399 26.46V28.31L79.4399 29.11Z" fill="#A36B33"/>
<path d="M73.1301 85.94L52.4801 87.19C52.4801 87.19 50.1301 82.72 48.8501 80.69L65.6601 70.77L72.4001 69.23C72.3101 69.33 71.9901 69.67 71.5401 70.09C70.1801 71.39 67.7001 73.62 67.4901 73.82C69.7401 78.4 73.3901 85.76 73.1301 85.94Z" fill="#40403E"/>
<path d="M52.4801 78.54L31.5901 81.84L52.4801 81.53V78.54Z" fill="#40403E"/>
<path d="M97.5 159.64L77.79 156.16L76.48 160.65L97.64 161.36L99.53 160.3L97.5 159.64Z" fill="#5A5755"/>
<path d="M173.39 133.32L168 132.66L166.84 118.66C167.07 119.32 173.39 133.32 173.39 133.32Z" fill="#40403E"/>
<path d="M53.8999 208.26L66.67 234.26L65.4899 232.41L64.9999 231.64L64.7299 231.23L64.1499 230.3L63.5099 229.3L63.17 228.76L62.0799 227L60.9099 225.16L60.0899 223.86L59.2499 222.55L58.8199 221.87L57.9999 220.57L56.6099 218.39L55.7999 217.11L54.95 215.76C51.16 209.76 47.8999 204.56 47.8399 204.3L51.9099 181C51.9099 181 48.0199 147 48.2399 143.36L37.7 123.56L50.2299 139.43L67.2299 133.24L52.8199 146.76L55.2 182.44L53.8999 208.26Z" fill="#5A5755"/>
<path d="M96.1501 191.81L90.0001 200.66L77.8101 201.6V194C77.8101 194 84.81 185.33 85.11 185.19C85.41 185.05 96.1501 191.81 96.1501 191.81Z" fill="#5A5755"/>
<path d="M102.55 4.45012V9.33012L79 14.0001L67.48 9.36012L69 6.70012C70.42 4.12012 72.39 0.530117 72.46 0.370117C72.46 0.720117 79.82 5.28012 79.82 5.28012L83.82 2.76012L87.14 4.45012H102.55Z" fill="#22201F"/>
<path d="M97.9999 14.3999C97.9999 14.3999 102.29 12.1 102.25 12.25C102.21 12.4 100.63 26.1199 100.63 26.1199L97.3799 24.7299L97.9999 14.3999Z" fill="#3F383E"/>
<path d="M109.46 31.5601V39.2001L106.36 42.7601L109.46 31.5601Z" fill="#6A3F26"/>
<path d="M106.36 42.7601L104.45 42.6001L109.46 31.5601L108.88 37.1601L106.36 42.7601Z" fill="#6A3F26"/>
<path d="M80.94 17.8899C80.94 17.6999 70.54 10.1099 70.54 10.1099C70.54 10.1099 72.24 1.10992 72.43 1.40992C72.62 1.70992 78.92 9.12993 78.92 9.12993L80.94 17.8899Z" fill="#3F383E"/>
<path d="M66.6299 43.74L74.9999 45C74.9999 45 77.8199 46.76 77.6499 46.6L75.1899 44.1L66.6299 43.74Z" fill="#6A3F26"/>
<path d="M130.48 78.57L115.33 87.19L89.75 85.57L112.03 72.0199L104.07 66.71L114.54 69.81L130.48 78.57Z" fill="#40403E"/>
<path d="M130.71 137.07C130.53 137.49 117.83 147.58 117.83 147.58L116.94 154.02L130.71 137.07Z" fill="#29272C"/>
<path d="M130 144.37C129.87 144.81 118.93 157.64 118.93 157.64L118.6 163.15L130 144.37Z" fill="#29272C"/>
<path d="M129.68 107.38L136.06 128.17L123.96 171.21L140.19 127.67L129.68 107.38Z" fill="#29272C"/>
<path d="M75.11 142.3C75.46 143.18 74.4 155.04 74.4 155.04L62.78 155.79L65.23 144.57L75.11 142.3Z" fill="#A1A0A0"/>
<path d="M74.7399 167.62L74.3899 192.51L62.8799 188.8L64.8699 169.89L74.7399 167.62Z" fill="#A1A0A0"/>
<path d="M108.15 321L108.09 321.13C100.6 295.72 90.5301 261.75 90.5301 261.75L87.1401 299.45C87.1401 299.45 81.0901 325.75 81.0401 326.32C81.0401 326.32 78.1001 328.18 74.6401 330.32L81.0801 309.39L89.5001 258.39L82.0701 255L78.9101 246.21L85.6201 251.79H93.8201C93.8201 251.79 95.6701 260.4 96.1501 261.27C96.6301 262.14 107.24 316.38 108.15 321Z" fill="#29272C"/>
<path d="M41.45 466L51.7999 456.62C51.7999 456.62 61.0799 479.42 60.5199 478.83C59.9599 478.24 41.45 466 41.45 466Z" fill="#29272C"/>
<path d="M190.5 219.79V220.25H176.32L191.23 189.08V189.23C191.73 191.89 190.5 219.79 190.5 219.79Z" fill="#C7C6C1"/>
<path d="M75.4099 64.0801C75.5399 63.9301 77.4099 60.8701 77.4099 60.8701L83.7199 60.5801L87.6299 64.0801L80.1699 65.0801L75.4099 64.0801Z" fill="#9C6636"/>
</svg>
