<svg width="162" height="516" viewBox="0 0 162 516" fill="none" xmlns="http://www.w3.org/2000/svg">
<path d="M123.65 102.63L116 104.38L114.41 104.3L120.22 89.69L112.94 50.81L107.78 65.76L105.17 67.76V56.8201L101.71 42.2701L99.1701 31.6001L97.8101 26L76.1001 32.3201L60.0001 24.92L56.0001 30.92C56.0001 30.92 56.0001 33.55 56.0001 36.56C55.3701 39.09 53.7101 45.79 53.7101 46.5C53.7101 47.39 54.8401 61.67 55.2101 62.41C55.5801 63.15 50.6001 73.17 50.6001 73.17L56.2401 69.34L60.9001 61.9601L63.5901 72L68.9001 78.73L68.33 99.47L56.0001 103.79L55.3201 103.55L46.1501 100.77L43.3201 62.7701L47.0001 24.92L62.0001 6.00005L80.4601 0.540039L101.84 7.54004L116.2 32.3L119.14 53.44L117.86 56.5L123.55 86L123.65 102.63Z" fill="black"/>
<path d="M53.67 45.6001L49.45 60.8701L48.3599 57.7301L46.45 65.5701L51.2799 102.17C51.2799 102.17 60.4799 95.0601 61.1299 94.2201C61.7799 93.3801 59.4799 69.5501 59.4799 69.5501L56.8199 53.7801L53.67 45.6001Z" fill="#414141"/>
<path d="M53.36 71.2699L54.36 79.3299L52.55 83.8399L51.26 102.17C51.26 102.17 62.48 109.32 62.79 109.22C63.1 109.12 70.79 106.01 70.94 105.61C71.09 105.21 74.94 94.8799 74.82 93.2699C74.7 91.6599 74.96 77.6899 74.39 77.3599C73.82 77.0299 67.6 70.9999 67.2 70.6999C66.8 70.3999 63.09 61.7799 63.09 61.7799L59.61 59.6599L53.36 71.2699Z" fill="#414141"/>
<path d="M95.3801 79.09L95.1601 82.47L79.0001 99.79L79.2901 121.22L69.2901 126.04L45.4101 116.71C45.4101 116.71 45.0801 113.71 45.4101 113.28L55.3101 103.58L55.9901 103.82L70.7201 98.42L68.8701 78.78L63.5901 72L60.9301 61.89V61.62L59.0001 57.06C59.0001 57.06 58.7101 56.06 58.3101 54.55L61.1401 57.73C61.1401 57.73 73.9601 61.78 74.4201 61.78C74.8801 61.78 78.4201 65.78 78.4201 65.78V72.5201L71.0001 71.12L74.1101 75.97L78.4301 77.36V87.3H83.5501L95.3801 79.09Z" fill="#9E5B29"/>
<path d="M76.1 32.3399L72.33 33.8599L71.99 38.4899L56.02 30.8699L60 24.9199L76.1 32.3399Z" fill="#B6C158"/>
<path d="M99.1401 31.6L83.9701 38.51L82.6101 39.12L82.0001 34.53L76.1001 32.34L97.8101 26.02L99.1401 31.6Z" fill="#B6C158"/>
<path d="M101.68 42.2701L95.3799 39.1201C95.3799 39.1201 81.7999 47.8701 81.3799 48.1901C80.9599 48.5101 83.9399 38.5101 83.9399 38.5101L99.1099 31.6001L101.68 42.2701Z" fill="#69BE6A"/>
<path d="M101.69 42.28L95.38 39.13C95.38 39.13 81.81 47.87 81.38 48.2C80.95 48.53 83.94 38.51 83.94 38.51L82.59 39.13L77.29 47.39L78.09 53.25L77.89 62.43L82.59 61.43L101.81 55.26L105.12 56.84L101.69 42.28ZM78.69 60.17L79.95 54.56L82.33 60.17H78.69ZM101.69 49.53L93.31 55.24L82.62 50.66C83.25 50.66 96.19 41.81 96.19 41.81L101.69 46.33V49.53Z" fill="#26342E"/>
<path d="M74.43 61.7999C73.97 61.7999 61.15 57.7499 61.15 57.7499L58.32 54.5799C57.4003 51.4807 56.6393 48.3366 56.04 45.1599C56.04 44.4699 56.04 40.2099 56.04 36.5299C56.04 33.5299 56.04 30.8899 56.04 30.8899L61.04 41.1799L61.23 41.8299L61.4 42.4199L57.48 47.0199L64.56 55.2599C64.56 55.2599 64.8 55.1099 65.21 54.8899L74.43 61.7999Z" fill="#26342E"/>
<path d="M145.7 195.79L145.91 206.5L138.01 213.19L138.26 198.51V198.37L138.44 187.55V187.24L137.19 183.24L135.49 177.8L118.59 148.44V148.37L117.98 147.3L118.12 146.8L119.32 142.46L121.32 135.06C122.03 134.69 137.05 129.4 137.05 129.4L134.11 140.5L132.17 147.82L132.08 148.16C132.08 148.16 132.08 148.27 132.13 148.37V148.5C132.13 148.55 132.13 148.61 132.13 148.67C132.13 148.73 132.19 148.92 132.23 149.07L132.36 149.58C132.36 149.76 132.45 149.95 132.51 150.16C132.59 150.44 132.66 150.74 132.74 151.07C132.74 151.12 132.74 151.18 132.74 151.23C132.81 151.49 132.88 151.76 132.95 152.05C133.02 152.34 133.1 152.64 133.18 152.95C133.26 153.26 133.27 153.32 133.32 153.52C133.48 154.13 133.65 154.79 133.82 155.52C133.94 155.97 134.05 156.43 134.18 156.9C134.24 157.15 134.31 157.41 134.37 157.67C134.91 159.74 135.49 162.02 136.1 164.35C136.18 164.64 136.26 164.94 136.33 165.23L137.03 167.88C137.11 168.18 137.19 168.47 137.26 168.76C137.57 169.93 137.89 171.09 138.19 172.23C138.27 172.51 138.35 172.8 138.42 173.08L138.87 174.73C138.95 175 139.02 175.27 139.09 175.54C139.75 177.93 140.37 180.08 140.89 181.8C140.95 181.99 141 182.17 141.06 182.35C141.19 182.79 141.32 183.2 141.44 183.57C141.56 183.94 141.59 184.01 141.66 184.21L141.78 184.56C141.9 184.89 142.01 185.17 142.09 185.37C142.142 185.492 142.206 185.609 142.28 185.72C142.298 185.751 142.322 185.778 142.35 185.8C142.35 185.8 142.41 185.8 142.43 185.8C142.464 185.764 142.507 185.736 142.553 185.719C142.6 185.702 142.65 185.695 142.7 185.7C142.779 185.687 142.86 185.687 142.94 185.7L143.21 185.79H143.26L143.52 185.92C143.67 185.99 143.83 186.09 144 186.19C144.4 186.44 144.85 186.76 145.31 187.11C145.473 187.221 145.63 187.341 145.78 187.47C146.97 188.39 148.18 189.47 148.92 190.13C148.981 190.178 149.038 190.232 149.09 190.29L149.61 190.76L145.5 193.29V195.29L145.7 195.79Z" fill="#69BE6A"/>
<path d="M36.7501 136.87L35.4301 139.64L26.1301 159.2L26.2401 175.54L26.36 194.17C25.6757 193.765 24.9715 193.394 24.2501 193.06C23.8401 192.89 23.5201 192.79 23.4801 192.91C23.3601 193.21 23.4301 198.84 23.4801 200.84V201.03L21.6601 200L16.8 197C16.8 197 17.36 188.84 17.8 181.95C18.1 177.31 18.36 173.24 18.36 172.61C18.36 172.28 18.6701 170.35 19.1401 167.54C19.8701 163.3 20.9901 157.02 22.0601 151.12C22.2101 150.3 22.3501 149.49 22.5001 148.69C23.8501 141.27 25.0001 135 25.0001 135L28.4201 138.65L29.0901 139.37C31.4175 138.082 33.9765 137.266 36.6201 136.97L36.7501 136.87Z" fill="#DB9058"/>
<path d="M158.26 195.93L147.26 205.32L145.92 206.47L145.71 195.76V195.26V193.26L149.82 190.73L149.3 190.26C149.248 190.202 149.191 190.148 149.13 190.1C148.39 189.43 147.18 188.36 145.99 187.44C145.84 187.311 145.683 187.191 145.52 187.08C145.06 186.73 144.61 186.41 144.21 186.16C144.04 186.06 143.88 185.96 143.73 185.89L143.47 185.76H143.42L143.15 185.67C143.071 185.657 142.99 185.657 142.91 185.67C142.86 185.665 142.81 185.672 142.764 185.689C142.717 185.706 142.675 185.734 142.64 185.77C142.64 185.77 142.59 185.77 142.56 185.77C142.532 185.748 142.508 185.721 142.49 185.69C142.416 185.58 142.352 185.462 142.3 185.34C142.18 185.06 142.03 184.67 141.87 184.18C141.8 183.98 141.72 183.77 141.65 183.54C141.58 183.31 141.4 182.76 141.27 182.32C141.21 182.14 141.16 181.96 141.1 181.77C140.58 180.05 139.96 177.9 139.3 175.51C139.23 175.24 139.16 174.97 139.08 174.7L138.63 173.05C138.56 172.77 138.48 172.48 138.4 172.2C138.1 171.06 137.78 169.9 137.47 168.73C137.4 168.44 137.32 168.15 137.24 167.85L136.54 165.2C136.47 164.91 136.39 164.61 136.31 164.32C135.7 161.99 135.12 159.71 134.58 157.64C134.52 157.38 134.45 157.12 134.39 156.87C134.26 156.4 134.15 155.94 134.03 155.49C133.86 154.81 133.69 154.15 133.53 153.49C133.48 153.29 133.44 153.1 133.39 152.92C133.23 152.3 133.08 151.72 132.95 151.2C132.95 151.15 132.95 151.09 132.95 151.04C132.87 150.71 132.8 150.41 132.72 150.13C132.66 149.92 132.61 149.73 132.57 149.55L132.44 149.04C132.44 148.89 132.37 148.75 132.34 148.64C132.31 148.53 132.34 148.52 132.34 148.47V148.34C132.34 148.24 132.34 148.16 132.29 148.13L132.38 147.79L134.32 140.47L137.26 129.37L138.59 133.02L146.04 153.4L146.2 153.84L149.68 163.34L156.61 182.34L157.9 191.78L158.26 195.93Z" fill="#EFB180"/>
<path d="M107.75 109.7C107.75 109.7 109.2 111.79 111 114.82L71.8801 127.05L69.3201 126.05L79.3201 121.23L79.0001 99.79L95.1301 82.47L94.6601 98.8L114.35 104.3L115.94 104.38L107.75 109.7Z" fill="#A6662E"/>
<path d="M36.5599 137.27L35.4299 139.64L35.8099 138.06L36.6299 136.92V136.84C36.5679 136.767 36.5276 136.678 36.5138 136.583C36.5 136.489 36.5131 136.392 36.5518 136.304C36.5904 136.216 36.6529 136.141 36.7321 136.088C36.8114 136.034 36.9042 136.003 36.9999 136H37.0699H37.1499H37.2999L36.6799 136.87C36.6799 136.87 36.6799 136.87 36.6799 136.94L36.4999 137.33L36.5599 137.27Z" fill="#EFB180"/>
<path d="M36.8201 160.23L37.3001 161.16V161.23L36.7701 166.23V166.34L34.4401 188.43L30.9501 204.76L28.4001 203.49L23.4701 201.04V200.85C23.4701 200.46 23.4701 199.93 23.4701 199.33C23.4701 197.42 23.4701 194.79 23.4701 193.58C23.4701 193.42 23.4701 193.29 23.4701 193.18C23.4701 193.07 23.4701 193.06 23.4701 193.01C23.468 192.98 23.468 192.95 23.4701 192.92C23.4701 192.8 23.8301 192.92 24.2401 193.07L24.4601 193.17L24.6901 193.28L24.9301 193.4C25.4101 193.64 25.8801 193.91 26.1401 194.06L26.3001 194.15H26.3501L26.2301 175.52L26.1201 159.18L35.4201 139.62L32.9301 150.07L32.2501 151.29C32.2699 151.335 32.2933 151.379 32.3201 151.42L36.7901 160.13C36.7901 160.13 36.8101 160.22 36.8201 160.23Z" fill="#EFB180"/>
<path d="M76.3 50.8299L73.26 46.3499L61.86 41.8299H61.19L61 41.1799L56.04 30.8899L72.01 38.5099L75.31 44.0199L76.3 50.8299Z" fill="#69BE6A"/>
<path d="M82.61 39.1201L77.32 47.3801L75.29 44.0001L71.99 38.4901L72.33 33.8601L76.1 32.3401L82 34.5301L82.61 39.1201Z" fill="#26342E"/>
<path d="M120.19 89.6901L114.38 104.3L92.6299 98.8001L95.1599 82.4701L95.3799 79.0901L99.0499 72.6001L105.14 56.8101V67.7601L107.75 65.7601L112.91 50.8101L120.19 89.6901Z" fill="#414141"/>
<path d="M105.14 56.81L99.0501 72.6L95.3801 79.09L83.5101 87.3H78.3901V77.36L82.3501 76.78L86.4901 72.5L90.6101 67.76L86.4901 71.12L78.3901 72.5V65.76L82.6101 61.41L101.83 55.23L105.14 56.81Z" fill="#A6662E"/>
<path d="M90.62 67.76L86.49 72.5L82.35 76.78L78.39 77.36L74.08 75.97L70.96 71.12L76.71 74.09L80.79 73.67L86.49 71.12L90.62 67.76Z" fill="#A86739"/>
<path d="M86.49 71.1201L80.79 73.6701L76.71 74.0901L70.96 71.1201L78.39 72.5001L86.49 71.1201Z" fill="#9D5C27"/>
<path d="M82.35 60.16H78.71L79.96 54.55L82.35 60.16Z" fill="#3D6C45"/>
<path d="M82.61 61.41L78.3901 65.76C78.3901 65.76 74.8701 61.76 74.3901 61.76L65.1301 54.8501C67.1301 53.7101 73.3101 50.3 73.7201 50.3L61.8201 41.79L73.2101 46.3L76.2101 50.79L75.2101 43.98L77.2101 47.36L78.0001 53.22L77.8101 62.41L82.61 61.41Z" fill="#3D6C45"/>
<path d="M60.9299 61.91L56.2699 69.29L50.6299 73.12C50.6299 73.12 55.6299 63.12 55.2399 62.36C54.8499 61.6 53.7399 47.36 53.7399 46.45C53.7399 45.74 55.3999 39.04 56.0299 36.51C56.0299 40.19 56.0299 44.44 56.0299 45.14C56.6245 48.3145 57.3856 51.4555 58.3099 54.55C58.7099 56.02 58.9999 57.06 58.9999 57.06L60.9099 61.64L60.9299 61.91Z" fill="#50493F"/>
<path d="M101.68 46.3201V49.5301L93.2999 55.2301L82.6099 50.6501C83.2499 50.6501 96.1899 41.8101 96.1899 41.8101L101.68 46.3201Z" fill="white" stroke="#221F1F" stroke-linejoin="round"/>
<path d="M73.7399 50.3199C73.3299 50.3199 67.1899 53.7299 65.1499 54.8699L64.4899 55.2299L57.4099 46.9999L60.5199 41.9999L60.9799 41.1899L73.7399 50.3199Z" fill="white" stroke="#221F1F" stroke-linejoin="round"/>
<path d="M79.6199 218.63L79.3799 238L69.6899 242.4C69.6899 242.4 69.6899 227.13 69.6899 226.4C69.6132 226.393 69.5363 226.411 69.4699 226.45L69.3099 226.53L69.1199 226.64C66.7799 227.99 58.1199 234.84 58.1199 234.84L57.8199 234.6L56.9399 218.6V214.9H57.1499C58.2299 216.18 60.3899 218.64 60.7499 218.64L79.6199 218.63Z" fill="#26342E"/>
<path d="M128.28 266.54L116.63 354L102.55 355.4L77.3999 273.1C77.3999 273.1 88.1399 264.3 98.9099 255.64L105.62 250.25C105.31 257.96 103.67 292.43 103.67 292.43C103.67 292.43 116.38 320.59 116.73 320.03C117.08 319.47 127.85 268.15 128.28 266.54Z" fill="#26342E"/>
<path d="M47.5999 509.71L19.9999 511.28C19.9999 511.28 9.94992 512.49 9.19992 512.28C8.44992 512.07 0.399902 510.11 0.399902 510.11L1.15991 506.72L15.0299 507.42H15.4899L26.2999 508.11L40.2099 505L40.7499 504.88C40.8062 504.871 40.8636 504.871 40.9199 504.88V504.88C41.2799 504.78 47.1599 503.22 47.3399 503.27C47.5199 506.83 47.5999 509.71 47.5999 509.71Z" fill="#26342E"/>
<path d="M26.23 508.01L40.21 504.99L26.34 508.17L15.53 507.48L15.07 507.46L15.04 507.45L15.33 507.46L26.23 508.01Z" fill="#181E4D"/>
<path d="M47.3999 503.2C47.2199 503.15 41.3399 504.71 40.9799 504.81L40.9299 504.68L40.8799 504.54C40.8099 504.31 40.6999 503.99 40.5599 503.62C40.4199 503.25 40.3799 503.09 40.2599 502.78C40.1399 502.47 40.0299 502.13 39.8899 501.78L39.7299 501.37C39.6699 501.21 39.6099 501.03 39.5399 500.86C39.3133 500.227 39.0633 499.56 38.7899 498.86C38.7099 498.64 38.6199 498.43 38.5399 498.2L37.6399 495.86L37.1299 494.53C36.6999 493.43 36.2799 492.34 35.8899 491.32L35.4699 490.24C35.0599 489.19 34.6999 488.24 34.3999 487.51C34.366 487.404 34.3259 487.301 34.2799 487.2L34.1399 486.81C34.0699 486.66 34.0199 486.51 33.9699 486.39L33.8299 486.04C33.7199 485.74 33.6499 485.57 33.6499 485.57L33.7799 484.79V485.79H46.2599C46.3399 485.77 47.2199 497 47.3999 503.2Z" fill="#26342E"/>
<path d="M39.8 471.93H39.5701V471.43L39.8 471.93Z" fill="#253B7D" stroke="#9AB8C6" stroke-miterlimit="10"/>
<path d="M40.7901 504.85H40.7401L40.2101 504.98L26.3401 508.16L15.5301 507.47H15.0701L6.56006 503.23L24.9701 493.81L27.4201 495.49L28.2901 496.09L28.9201 496.53L29.7501 497.11C34.0001 500 39.6801 504 40.7901 504.85Z" fill="#3D6B4D"/>
<path d="M15.0699 507.46L1.16992 506.74L6.52991 503.2H6.53992L15.0699 507.46Z" fill="#68BD64"/>
<path d="M136.79 500.6L119.6 494.81L119.04 485.41L119.11 485.77H131.43L136.79 500.6Z" fill="#26342E"/>
<path d="M140.19 508.9L122.11 508.56C122.11 508.56 119.63 501.01 119.63 500.69V495.06V494.81L136.83 500.6L140.19 508.9Z" fill="#3D6B4D"/>
<path d="M141.34 511.72L131.22 515.12H122.22L118 509.68L119.63 501.01V500.69C119.63 501.01 122.11 508.56 122.11 508.56L140.19 508.9L141.34 511.72Z" fill="#26342E"/>
<path d="M41.0001 504.81C40.9438 504.801 40.8863 504.801 40.83 504.81V504.81L29.83 497.03L29.0001 496.45L28.3701 496.01L27.5001 495.41L25.05 493.73L33.7501 485.5C33.7501 485.5 33.8201 485.67 33.9301 485.97L34.0701 486.32C34.1201 486.44 34.1701 486.59 34.2401 486.74L34.3801 487.13C34.4261 487.231 34.4661 487.334 34.5001 487.44L39.83 501.31L39.9901 501.72L40.9901 504.43C40.9901 504.43 40.9901 504.63 41.0401 504.68C41.0176 504.72 41.0039 504.764 41.0001 504.81V504.81Z" fill="#68BD64"/>
<path d="M55.34 103.55L45.44 113.25L42.16 116.46C42.16 116.46 42 117.2 41.75 118.39C40.69 123.31 37.93 135.9 37.36 135.9C37.17 135.9 35.22 136.5 35.22 136.5L29.13 139.25L25 134.91L23.5 121.91L27.32 128.6L37.42 115.74L47.76 107.43L42.96 101.43L46.1 100.55L55.34 103.55Z" fill="#26342E"/>
<path d="M21 254.19C21 254.19 14.35 258.27 14.24 258.76C14.13 259.25 5.32998 251.29 4.28998 250.34C3.97998 256.53 6.02997 279.75 6.02997 279.75L7.75998 281.2L17.2 278.25L24.7 268.86L21 254.19ZM7.75998 277.58L7.16998 262L9.90997 275.49L7.75998 277.58Z" fill="#69BE6A"/>
<path d="M18.0499 198.07L15.9199 217.84L13.9199 202.84L14.1799 198.07C14.1749 198.023 14.1749 197.976 14.1799 197.93L16.7899 196.93L18.0499 198.07Z" fill="#69BE6A"/>
<path d="M15.9999 249.82L20.9999 254.19C20.9999 254.19 14.3499 258.27 14.2499 258.75C14.1499 259.23 5.33994 251.29 4.24994 250.34C4.24118 249.862 4.29498 249.384 4.40995 248.92C4.99995 248.01 13.7399 200.92 14.1199 198.02L13.8599 202.79L15.8599 217.79L14.2 233.33L21.29 243.51L10.54 245.82L7.09995 249.77L15.9999 249.82Z" fill="#26342E"/>
<path d="M31.99 207.14L21.35 243.56L14.25 233.38L15.93 217.84L18.06 198.08L21.65 199.95L21.73 199.99L23.44 200.89L24.14 201.26L30.93 204.79L30.99 204.92L31.99 207.14Z" fill="#3D6B4D"/>
<path d="M20.4899 252.57L21.0099 254.19L15.9899 249.82H7.15991L10.5999 245.87L21.3499 243.56L20.4899 252.57Z" fill="#3D6B4D"/>
<path d="M26.58 287.16L13.5 288.13L7.77002 281.19L17.21 278.25L24.71 268.86L26.89 275.54L26.58 287.16Z" fill="#26342E"/>
<path d="M107.52 172.56C107.52 172.56 99.68 189.89 99.64 189.89L99.7 190.16C98.33 188.16 98.19 184.29 97.81 184.29C97.43 184.29 91.62 181.85 88.99 180.84V180.73C89.44 178.63 89.73 177.21 89.73 177.21L92.32 178.31L96.87 166.67L103.5 157.39L108.38 152.66L116.59 144.71C118.67 146.21 117.89 147.28 117.89 147.28L107.52 172.56Z" fill="#26342E"/>
<path d="M105.68 208.86L84.0901 218.63V213.74L56.9001 214.9V218.63L51.1701 210.53L48.8101 175.43L38.7301 163.28L37.3101 161.17L32.3101 151.35L32.9801 150.12L39.2201 158.91L41.2901 160.38L46.6401 164.17L55.4001 177.47L56.9501 176.65L67.6301 191.89C69.0101 188.01 70.3834 184.133 71.7501 180.26L76.7501 190.85L89.08 180.85C91.71 181.85 97.4601 184.3 97.9001 184.3C98.3401 184.3 98.4201 188.15 99.7901 190.17C100.15 192.48 105.68 208.86 105.68 208.86Z" fill="#26342E"/>
<path d="M108.41 152.66L103.53 157.39L96.9 166.67L92.35 178.31L89.76 177.21L71 169.26L56.87 176.64L55.32 177.46L46.55 164.16L41.21 160.37L52.46 163.26L63.72 145.82L70.51 160.5L75.65 148.24C75.65 148.24 89.85 161.67 90.21 161.51C90.57 161.35 107.87 152.93 108.41 152.66Z" fill="#3D6B4D"/>
<path d="M89.7601 177.21C89.7601 177.21 89.4701 178.63 89.0201 180.73V180.8L78.7301 196C76.3901 191.333 74.0568 186.667 71.7301 182L66.6301 196.18C63.3835 189.673 60.1368 183.16 56.8901 176.64L71.0001 169.26L89.7601 177.21Z" fill="#6DB359"/>
<path d="M116.64 144.7L108.43 152.65C107.89 152.92 90.6099 161.34 90.2499 161.5C89.8899 161.66 75.6899 148.23 75.6899 148.23L90.0999 138.88C90.0999 138.88 102.73 134.51 103.35 135L116.64 144.7Z" fill="#69BE6A"/>
<path d="M48.8901 252.64L37.8901 240.89L45.0001 224.72C45.4401 225.02 46.0001 225.46 46.7501 226L48.8901 252.64Z" fill="#26342E"/>
<path d="M58.0699 234.83C58.0699 234.83 50.69 229 46.7 226C45.99 225.46 45.39 225 44.95 224.72L51.1599 210.53L56.89 218.63L58.0699 234.83Z" fill="#6DB359"/>
<path d="M69.6901 242.39L58.0701 234.83C59.9201 233.33 67.51 227.52 69.3 226.52L69.4601 226.44C69.5264 226.401 69.6033 226.383 69.6801 226.39V226.39C69.7301 227.12 69.6901 242.39 69.6901 242.39Z" fill="#6DB359"/>
<path d="M110.69 224.25L106.75 225.6L84.0801 233.38V218.63L105.68 208.86L110.69 224.25Z" fill="#6DB359"/>
<path d="M116.64 354C116.64 354 111.64 374.6 111.41 375.48C111.18 376.36 102.55 355.4 102.55 355.4L116.64 354Z" fill="#B6C158"/>
<path d="M78.6899 304.77C78.9599 303.39 64.2299 356.18 64.2299 356.18L59.4199 362.59C59.4199 362.59 61.6899 353.12 61.9499 352.32C62.2099 351.52 76.2899 300.62 76.2899 300.62C76.2899 300.62 66.9199 297.17 68.5799 297.43C71.1647 297.57 73.7551 297.57 76.3399 297.43L81.4099 295.91L97.9999 361C97.4999 359.4 78.4299 306.12 78.6899 304.77Z" fill="#26342E"/>
<path d="M124.69 352.89L128.29 266.56L116.64 354C116.64 354 111.64 374.59 111.41 375.47C111.18 376.35 102.56 355.39 102.56 355.39L81.4799 286.39L77.3999 273.1L77.6699 272.88L78.1499 272.49L79.2499 271.59L80.2499 270.8C82.9099 268.63 87.1899 265.14 91.9899 261.25L93.8199 259.77L98.9399 255.64L106.78 225.64L102.4 227.14L84.1199 233.42V235.91L79.3899 238L69.6999 242.4L58.2399 234.94L58.0799 234.82H58.0099L57.7899 234.65L56.9999 234L56.7599 233.81L56.4499 233.56L55.9099 233.14C54.5999 232.14 52.8299 230.73 51.0699 229.37L49.6799 228.29C48.5899 227.45 47.5499 226.65 46.6799 225.99L48.8699 252.63L50.8699 254.76L52.7999 256.82L69.6699 274.82L67.5199 286.15L53.4399 360.23L40.4999 352.23L34.4999 282.34L32.1099 330.16L34.7599 349.21L32.3899 375.61L34.7599 385.16L33.8299 471.92H39.5499V414.7C39.6199 414.24 41.0399 410.94 43.0399 406.41L43.7499 404.81C43.8699 404.54 43.9899 404.26 44.1199 403.98L45.2799 401.39C46.0699 399.61 46.9099 397.76 47.7599 395.88C48.0399 395.26 48.3299 394.64 48.6099 394.01C52.4299 385.57 56.2499 377.23 57.3599 374.84L57.4699 374.59L57.6199 374.26L57.6699 374.15L62.1299 393L46.9999 471.94H50.7699L68.2399 390.16L59.4299 362.59C59.4299 362.59 61.6999 353.12 61.9599 352.33C61.9599 352.26 62.1299 351.74 62.3699 350.87C62.4599 350.58 62.5499 350.25 62.6499 349.87C62.8599 349.14 63.0999 348.26 63.3799 347.26L63.8199 345.67C64.0599 344.83 64.3099 343.93 64.5699 342.98C64.8299 342.03 65.1099 340.98 65.3999 339.98C65.7899 338.59 66.1999 337.13 66.6099 335.61C70.8099 320.5 76.3099 300.61 76.3099 300.61C76.0499 300.51 66.9699 297.17 68.6099 297.43C71.1948 297.565 73.785 297.565 76.3699 297.43L81.4399 295.9L97.9599 360.9V361.01L96.3999 385.34C96.3999 385.34 117.01 476.82 118.07 477.65C118.226 477.742 118.4 477.8 118.58 477.82C120.662 478.043 122.759 478.099 124.85 477.99V477.99H125.71L116.76 417.91C116.76 417.91 127.59 381.91 127.59 381.22C127.59 380.53 130.75 385.43 130.75 385.43L131 477.77C131.65 477.77 132.15 477.7 132.39 477.7L132.6 475.99C132.98 463.22 131.74 384.16 132.71 383.91C133.68 383.66 124.69 352.89 124.69 352.89ZM34.7399 370.82L38.2599 354C39.2599 354.43 49.0299 364.75 49.0299 364.75L34.7399 370.82Z" fill="#3D6B4D"/>
<path d="M120.35 239C119.25 239.51 113.02 244.38 105.62 250.28L98.9099 255.67L106.75 225.67L110.69 224.32L120 237.94L120.35 239Z" fill="#26342E"/>
<path d="M128.29 266.5C127.86 268.11 117.1 319.44 116.74 319.99C116.38 320.54 103.68 292.39 103.68 292.39C103.68 292.39 105.32 257.92 105.63 250.21C113.03 244.31 119.26 239.44 120.36 238.93L128.29 266.5Z" fill="#6DB359"/>
<path d="M150.19 218.63V248.87L146.58 255.6L143.15 249.74L130.93 262.74L131.35 270.25H136.09V282L147.17 284.77L155.35 277.23C155.35 277.23 158 246 158.26 244.88C158.47 244.04 159.58 218.07 161.32 205.12C161.13 205.34 156.57 211.61 150.19 218.63ZM147.19 280.16L149 273.1V261L152.36 275.5L147.19 280.16Z" fill="#3D6B4D"/>
<path d="M155.35 277.26L152.45 284.68L140.27 291.73L133.26 290.09L131.35 270.25H136.08V282.04L147.17 284.8L155.35 277.26Z" fill="#26342E"/>
<path d="M150.19 218.63V248.87L146.58 255.59L143.15 249.74L135.15 214.64C135.15 214.64 140.31 228.19 140.52 228.82C140.58 229.1 145.12 224.21 150.19 218.63Z" fill="#69BE6A"/>
<path d="M130.8 385.46L131.04 477.79C129.74 477.86 127.76 477.96 125.75 478.02L116.8 417.94C116.8 417.94 127.63 381.94 127.63 381.25C127.63 380.56 130.8 385.46 130.8 385.46Z" fill="#26342E"/>
<path d="M113.09 118.32L79.09 129.57L69.64 143.09L60.57 128.19L41.71 118.45C41.96 117.26 42.12 116.52 42.12 116.52L45.4 113.32C45.1 113.77 45.4 116.74 45.4 116.74L69.28 126.07L71.84 127.07L111 114.82L113.09 118.32Z" fill="#26342E"/>
<path d="M63.7399 145.82L52.4799 163.26L41.2299 160.37L39.1599 158.9L32.9199 150.11L35.7999 138.06V138.05L39.1099 134.57L53.2199 135.2L63.7399 145.82Z" fill="#69BE6A"/>
<path d="M84.0901 218.63V233.38V235.86L79.3901 237.99L79.6301 218.63H60.7001C60.3401 218.63 58.1801 216.17 57.1001 214.89L84.1001 213.74V218.63H84.0901Z" fill="#6DB359"/>
<path d="M52.5 293.89C52.5 293.89 42.05 319.29 41.89 318.43C41.73 317.57 35.19 284.68 34.52 282.19V281.3L37.18 242.41L37.85 240.91L48.85 252.66L50.85 254.79L52.5 293.89Z" fill="#6DB359"/>
<path d="M69.69 274.85L53.46 360.26L40.51 352.26L34.51 282.38V282.21C35.18 284.7 41.71 317.61 41.88 318.45C42.05 319.29 52.49 293.91 52.49 293.91L50.88 254.79L69.69 274.85Z" fill="#26342E"/>
<path d="M49 364.74L34.71 370.81L38.25 354C39.29 354.42 49 364.74 49 364.74Z" fill="#B6C158"/>
<path d="M121.32 135L117.94 147.26C117.94 147.26 118.72 146.19 116.64 144.69L103.33 135C102.71 134.51 90.08 138.88 90.08 138.88L75.6701 148.23L70.5301 160.49L63.7501 145.81L53.2201 135.2L39.11 134.58L35.8 138.05L37.33 135.93C37.9 135.93 40.6601 123.34 41.7201 118.42L60.58 128.17L69.6501 143.09L79.1001 129.55L113.1 118.29C117.53 125.71 120.88 135.23 121.32 135Z" fill="#6DB359"/>
<path d="M152.34 275.47L147.17 280.16L148.97 273.1V260.98L152.34 275.47Z" fill="#26342E"/>
<path d="M9.90991 275.47L7.7699 277.57L7.15991 261.99L9.90991 275.47Z" fill="#26342E"/>
<path d="M62.1301 393L47.0001 471.93H39.8L39.5701 471.43V414.73C39.5701 413.58 57.6901 374.14 57.6901 374.14L62.1301 393Z" fill="#26342E"/>
<path d="M50.76 471.93L46.25 485.77H33.76L33.77 484.77L33.86 471.93H50.76Z" fill="#444C44"/>
<path d="M132.43 477.72L131.43 485.72H119.11L119.04 485.36L118.59 477.83C120.676 478.048 122.776 478.101 124.87 477.99C127.18 477.99 129.55 477.82 131.04 477.74L132.43 477.72Z" fill="#444C44"/>
<path d="M136.63 110.91L107.75 109.7L116.1 104.25L123.66 101.42L136.63 110.91Z" fill="#69BE6A"/>
<path d="M137.05 129.3V129.35L136.95 129.33L125.68 127.35L107.75 109.7L136.63 110.91L137.05 129.3Z" fill="#26342E"/>
<path d="M137.05 129.35L132.29 131L130.65 131.58C126.98 132.89 122.93 134.33 121.77 134.79L121.58 134.86L121.32 134.98C120.8 134.86 117.44 125.49 113.07 118.21L111 114.75C109.19 111.75 107.8 109.7 107.8 109.7L125.73 127.35L137 129.35H137.05Z" fill="#69BE6A"/>
<path d="M44.02 107.4L31.28 108.04L42.98 101.38L44.02 107.4Z" fill="#26342E"/>
<path d="M47.78 107.4L37.44 115.71L27.34 128.57L23.52 121.88L31.28 108.04L44.02 107.4L42.98 101.38L47.78 107.4Z" fill="#69BE6A"/>
<path d="M82.0001 34.53L97.8101 26.02L76.1001 32.34L82.0001 34.53Z" fill="#3D6C45"/>
<path d="M79.6099 64.5L101.83 55.23L104.78 58.19L105.14 56.81L101.83 55.23L82.6099 61.41L79.6099 64.5Z" fill="#BB7644"/>
<path d="M77.3199 64.57L61.1299 57.73L74.4099 61.78L77.3199 64.57Z" fill="#9A5124"/>
<path d="M95.3799 79.0901L85.4299 87.9301L83.4999 88.8601L79.6899 87.9901L78.1799 87.5201L83.5099 87.3001L95.3799 79.0901Z" fill="#9A5124"/>
<path d="M68.8999 79.9L78.1799 87.52L68.8999 78.75V79.9Z" fill="#9A5124"/>
<path d="M68.8999 78.75C68.8999 78.92 78.3899 87.3 78.3899 87.3H83.5099L83.3399 88L78.1799 87.52C78.1799 87.52 70.4799 80.77 70.4299 80.78C70.3799 80.79 68.8999 78.75 68.8999 78.75Z" fill="#9A5124"/>
<path d="M76.1 32.3401C76.1 32.3401 71 23.7701 71 23.0001C71 22.2301 80.57 4.84009 80.57 4.84009C80.57 4.84009 75.57 20.5401 75.79 20.7301C76.01 20.9201 81.41 30.2601 81.41 30.2601L76.1 32.3401Z" fill="#282A2A"/>
<path d="M101.82 7.5099C101.19 7.3199 95.3799 9.73991 95.3799 9.73991C95.3799 9.73991 88.9999 26.2499 89.2299 25.9999C89.4599 25.7499 96.5699 11.2399 96.5699 11.2399L101.82 7.5099Z" fill="#282A2A"/>
<path d="M46.97 24.92L63.06 16.16L71.99 18.6L61.98 6.01001L46.97 24.92Z" fill="#282A2A"/>
<path d="M98.9101 368.24C99.4301 369.16 113.82 407.12 113.82 407.12L97.5901 386L98.9101 368.24Z" fill="#B6C158"/>
<path d="M49.0301 370.81L36.3101 375.5L39.5701 414.73L57.6901 374.14L49.0301 370.81Z" fill="#B6C158"/>
<path d="M58.2401 234.94L52.8201 256.84L69.6901 274.85L67.5401 286.17L74.8201 288.13L81.4701 286.43L77.4001 273.1L93.7901 259.77L102.55 226.39L84.08 233.38V235.86L69.6901 242.39L58.2401 234.94Z" fill="#69BE6A"/>
<path d="M146 153.82C141.66 152.29 135.7 150.23 132.32 149.06L129.71 148.15L130.28 147.15L134.12 140.44L138.39 132.99L145.84 153.37L146 153.82Z" fill="#3D6B4D"/>
<path d="M121.32 135L121.61 134.88L121.32 135Z" fill="#612852"/>
<path d="M138.38 133L134.11 140.45L130.27 147.15L129.7 148.15L118.61 148.43V148.36L118 147.29V147.22L118.1 146.84L119.31 142.41L121.31 135.01C122.02 134.64 137.04 129.35 137.04 129.35L138.38 133Z" fill="#26342E"/>
<path d="M157.69 191.73L144.08 185.8L144.16 185.47L144.58 183.7L149.47 163.32L156.4 182.32L157.69 191.73Z" fill="#6DB359"/>
<path d="M147.29 205.32C147.38 205.94 147.44 206.32 147.44 206.53C147.44 207.91 137.62 214.93 137.62 214.93L138.26 198.51V198.37L138.67 187.8L138.44 187.55V187.24L137.19 183.24L135.49 177.8L118.59 148.44V148.37C121.38 148.09 129.52 147.27 130.24 147.17C130.888 147.33 131.523 147.537 132.14 147.79C135.23 148.96 141.32 151.5 145.8 153.39L145.96 153.83L149.44 163.33L144.55 183.71L144.13 185.48L144.05 185.81L144.12 186.24L144.19 186.64C144.46 188.19 145.05 191.64 145.66 195.3C146.34 199.21 147 203.3 147.29 205.32Z" fill="#69BE6A"/>
<path d="M147.29 205.32C147.38 205.94 147.44 206.32 147.44 206.53L147.25 205.35L145.7 195.79L144.22 186.63L144.15 186.23L144.08 185.8L157.69 191.73L158.26 195.93L147.29 205.32Z" fill="#3D6B4D"/>
<path d="M149.37 183.26L144.16 185.47L143.36 185.81L138.68 187.81L138.45 187.56V187.25L137.2 183.25C138.57 183.37 140.2 183.47 141.55 183.55L144.55 183.72L149.37 183.26Z" fill="#252C1A"/>
<path d="M32.9301 150.12L32.2501 151.34C32.2699 151.385 32.2933 151.429 32.3201 151.47C32.7601 152.28 35.1101 156.65 36.7901 160.18C36.7901 160.18 36.7901 160.18 36.7901 160.23L37.2601 161.23L36.7301 166.23V166.34C34.0201 168.74 28.9301 173.18 26.8701 174.96L26.2101 175.54C26.1496 175.586 26.0928 175.636 26.0401 175.69H25.9801L22.0801 151C22.2301 150.18 22.3701 149.37 22.5201 148.57L28.4401 138.57L28.4901 138.49L35.1601 136.55L35.4701 136.46L37.0001 136H37.0701H37.1501H37.3001L36.6901 136.85L36.6201 136.95L35.7901 138.1L35.4101 139.69L32.9301 150.12Z" fill="#3D6B4D"/>
<path d="M22.08 151L26.0001 175.78L17.8201 181.86C18.1201 177.22 18.3801 173.15 18.3801 172.52C18.3801 172.19 18.6901 170.26 19.1601 167.45C19.8901 163.21 21 156.93 22.08 151Z" fill="#69BE6A"/>
<path d="M28.49 138.48L28.44 138.56L22.52 148.56C23.87 141.14 25.02 134.87 25.02 134.87L28.49 138.48Z" fill="#69BE6A"/>
<path d="M36.76 166.26V166.37L34.43 188.46L30.94 204.79L31 204.92L28.39 203.52L24.16 201.26L23.46 200.88L24.25 193.1L26 175.78H26.06C26.1127 175.726 26.1695 175.676 26.23 175.63V175.63L26.89 175.05C28.94 173.16 34.05 168.62 36.76 166.26Z" fill="#69BE6A"/>
<path d="M26.0001 175.78L24.2401 193.1L23.4501 200.88L17.9801 198.08L16.8 196.91C16.8 196.91 17.36 188.75 17.8 181.86C18.1 177.22 18.36 173.15 18.36 172.52C18.36 172.19 18.6701 170.26 19.1401 167.45C21.5701 170.48 26.0001 175.78 26.0001 175.78Z" fill="#26342E"/>
<path d="M161.43 198.88C161.698 200.95 161.664 203.049 161.33 205.11V205.11C161.13 205.33 156.57 211.6 150.2 218.62C145.13 224.2 140.59 229.09 140.5 228.81C140.29 228.18 135.13 214.63 135.13 214.63L137.24 213.8L145.91 206.49L158.26 195.92C158.26 195.92 158.01 195.57 158.8 194.75C159.59 193.93 161.43 198.88 161.43 198.88Z" fill="#26342E"/>
</svg>
