<svg width="169" height="516" viewBox="0 0 169 516" fill="none" xmlns="http://www.w3.org/2000/svg">
<path d="M126.63 98.6L115.63 105.25L114.05 105.17L119.86 90.56L112.58 51.68L107.42 66.63L104.81 68.63V57.69L101.35 43.14L98.8 32.47L97.4801 26.89L75.7701 33.21L59.6701 25.79L55.6701 31.79C55.6701 31.79 55.6701 34.42 55.6701 37.43C55.0401 39.96 53.3901 46.66 53.3901 47.37C53.3901 48.26 54.5201 62.54 54.8901 63.28C55.2601 64.02 50.2801 74 50.2801 74L55.9101 70.17L60.58 62.79L62.2001 72.9L67.9701 80.2V100.37L55.6601 104.67L54.9801 104.43L43.8901 100.67L40.5701 62.67L46.5701 25.81L61.5701 5.16003L80.0201 0.160034L103.51 7.21004L117.94 33.21L120.87 54.35L117.45 57.41L125.52 86.19L126.63 98.6Z" fill="#D26D28"/>
<path d="M53.3199 46.47L46.6699 60.74L45.5799 57.6L43.6699 65.45L50.9199 103C50.9199 103 60.1299 95.89 60.7699 95.05C61.4099 94.21 59.1199 70.38 59.1199 70.38L56.4599 54.61L53.3199 46.47Z" fill="#9C4D23"/>
<path d="M52.9999 72.14L53.9999 80.2L52.1999 84.71L50.9199 103C50.9199 103 62.1499 110.15 62.4499 110.05C62.7499 109.95 70.4499 106.84 70.6099 106.44C70.7699 106.04 74.6099 95.71 74.4899 94.1C74.3699 92.49 74.6199 78.52 74.0499 78.19C73.4799 77.86 67.2699 71.83 66.8599 71.53C66.4499 71.23 62.7499 62.61 62.7499 62.61L59.2699 60.49L52.9999 72.14Z" fill="#9C4D23"/>
<path d="M95 80L94.7799 83.38L78.66 100.7L78.95 122.13L68.95 126.95L45.07 117.62C45.07 117.62 44.75 114.62 45.07 114.19L54.97 104.49L55.6499 104.73L67.9599 100.43V80.19L62.19 72.89L60.57 62.78V62.51L58.66 57.93L57.9599 55.42L60.79 58.6C60.79 58.6 73.61 62.65 74.07 62.65C74.53 62.65 78.07 66.65 78.07 66.65V73.39L70.6099 72L73.7199 76.85L78.0299 78.24V88.18H83.16L95 80Z" fill="#DC9159"/>
<path d="M75.7499 33.21L71.9799 34.73L71.6299 39.36L55.6599 31.74L59.6499 25.79L75.7499 33.21Z" fill="#E1C252"/>
<path d="M98.78 32.47L83.61 39.38L82.26 39.99L81.64 35.41L75.75 33.21L97.45 26.89L98.78 32.47Z" fill="#E1C252"/>
<path d="M101.33 43.14L95.0001 40C95.0001 40 81.4301 48.75 81.0001 49.07C80.5701 49.39 83.5601 39.39 83.5601 39.39L98.7301 32.48L101.33 43.14Z" fill="#F2914B"/>
<path d="M101.33 43.14L94.9999 40C94.9999 40 81.4299 48.75 80.9999 49.07C80.5699 49.39 83.5599 39.39 83.5599 39.39L82.2099 40L76.9099 48.26L77.6999 54.12L77.5099 63.31L82.2099 62.31L101.43 56.13L104.74 57.72L101.33 43.14ZM78.3299 61.03L79.5799 55.42L81.9999 61L78.3299 61.03ZM101.33 50.4L92.9999 56.1L82.3099 51.52C82.9399 51.52 95.8799 42.68 95.8799 42.68L101.38 47.19L101.33 50.4Z" fill="#F3EB50"/>
<path d="M74.08 62.67C73.61 62.67 60.8 58.67 60.8 58.67L58 55.45C57.0754 52.3522 56.3143 49.2078 55.72 46.03C55.72 45.34 55.72 41.08 55.72 37.4C55.72 34.4 55.72 31.76 55.72 31.76L60.72 42.05L60.9 42.7L61.08 43.29L57.15 47.89L64.23 56.13L64.89 55.76L74.08 62.67Z" fill="#F2914B"/>
<path d="M149.2 194.19L149.45 207.26V207.37L148.32 208.37L139.85 215.61L139.76 215.68L139.7 215.73L139.63 215.8L142 188.37V188.11L139.7 184.94L135.14 178.65L121.49 151.45L120.36 149.19L119.83 148.14L121.33 142.69L123.15 136.1L123.21 135.88C123.88 135.53 138.67 129.2 140.5 128.42H140.58H140.67L134.77 142V142.07V142.13L131.77 148.92V149.02C131.79 149.084 131.813 149.148 131.84 149.21C131.854 149.258 131.871 149.304 131.89 149.35C131.96 149.56 132.07 149.88 132.22 150.29L132.34 150.63C132.39 150.76 132.43 150.89 132.48 151.04L134.61 157.04C134.78 157.53 134.96 158.04 135.15 158.55C135.34 159.06 135.44 159.35 135.59 159.77L136.02 160.97L136.32 161.8L137.24 164.34C137.4 164.79 137.56 165.24 137.73 165.69C137.82 165.92 137.9 166.15 137.98 166.37L140.14 172.26C140.34 172.78 140.53 173.26 140.72 173.8L141.09 174.8C141.2 175.08 141.3 175.35 141.4 175.62C143 179.85 144.4 183.46 145.29 185.33L145.49 185.75C145.611 186 145.744 186.244 145.89 186.48L145.98 186.61C145.98 186.61 146.05 186.68 146.08 186.68H146.13L146.32 186.6C146.489 186.591 146.658 186.626 146.81 186.7C147.563 187.036 148.269 187.47 148.91 187.99L149.5 188.44L150.09 188.91L150.68 189.4C150.87 189.55 151.05 189.71 151.23 189.87L151.75 190.32C151.788 190.345 151.822 190.375 151.85 190.41C152.69 191.15 153.28 191.7 153.28 191.7L149.2 194.19Z" fill="#DC9159"/>
<path d="M25.25 180.36L25.99 195.07C25.99 195.07 25.61 194.85 25.12 194.59L24.81 194.42C24.53 194.27 24.24 194.13 23.98 194.02L23.79 193.94C23.6851 193.887 23.5743 193.847 23.46 193.82C23.26 193.75 23.13 193.75 23.1 193.82C23.07 193.89 23.04 195.33 23.04 196.94C23.04 198.79 23.04 200.94 23.04 201.94L22.38 201.57L15.48 197.74C15.48 197.74 15.77 190.68 16.03 184.15C16.1 182.15 16.18 180.27 16.24 178.62L17.57 167L17.49 166.89C17.57 166.38 17.67 165.89 17.76 165.29C19.7 154.1 23.1 135.4 23.1 135.4L27.19 139.77L28.19 139.45L29.12 139.15L31.79 138.3C32.86 137.96 33.94 137.63 34.85 137.36L24.2 159.71L24.79 171.39V171.46L25.04 176.23L25.1 177.44L25.24 180.29L25.25 180.36Z" fill="#DC9159"/>
<path d="M161.8 196.8L151.89 205.29L151.59 205.53L149.45 207.37V207.26L149.2 194.19L153.31 191.66C153.31 191.66 152.72 191.11 151.88 190.37C151.69 190.19 151.48 190.01 151.26 189.83C151.04 189.65 150.9 189.51 150.71 189.36L150.12 188.87L149.53 188.4L148.94 187.95C148.299 187.43 147.593 186.996 146.84 186.66C146.767 186.623 146.69 186.596 146.61 186.58H146.43H146.34C146.304 186.578 146.269 186.585 146.236 186.599C146.203 186.612 146.174 186.633 146.15 186.66V186.66H146.1C146.062 186.645 146.027 186.621 146 186.59L145.87 186.4L145.7 186.11L145.64 186L145.48 185.69L145.28 185.27C145.03 184.72 144.72 184.01 144.37 183.18L144.09 182.49L143.91 182.04C143.82 181.84 143.74 181.63 143.66 181.42L143.36 180.66L142.86 179.4L142.27 177.87C142.077 177.377 141.887 176.877 141.7 176.37C140.52 173.25 139.22 169.75 137.97 166.31C137.89 166.09 137.81 165.86 137.72 165.63C137.55 165.18 137.39 164.73 137.23 164.28L136.31 161.74C136.06 161.05 135.81 160.37 135.58 159.74L135.14 158.53L134.44 156.53L134 155.3L133.59 154.16C133.47 153.79 133.34 153.44 133.22 153.11C133.1 152.78 133 152.5 132.9 152.21C132.63 151.43 132.39 150.78 132.21 150.26L132.09 149.92C132.09 149.82 132.02 149.73 131.99 149.64L131.88 149.32C131.861 149.274 131.844 149.228 131.83 149.18L131.77 149.02V148.92L134.72 142.15V142.09V142.02L140.54 128.62V128.54L140.59 128.43V128.5L140.72 128.43L141.09 129.87L151 156.74V156.82L151.82 159.09L160 181.68L161.57 194.57L161.8 196.8Z" fill="#F1B280"/>
<path d="M107.4 110.57C107.4 110.57 108.65 112.71 110.46 115.74L71.52 127.92L68.96 126.92L78.96 122.1L78.67 100.67L94.79 83.35L94.33 99.68L114.02 105.18L115.6 105.26L107.4 110.57Z" fill="#E4B17B"/>
<path d="M37.8201 166.56L37.7001 167.29L34.0601 189.29L32.8801 207.34L24.8801 202.9L23.1001 201.9C23.1001 200.9 23.1001 198.79 23.1001 196.9C23.1001 195.3 23.1001 193.9 23.1601 193.79C23.2201 193.68 23.3201 193.72 23.5201 193.79C23.6344 193.817 23.7452 193.857 23.8501 193.91L24.0401 193.99C24.1701 194.04 24.3101 194.11 24.4501 194.18C24.5901 194.25 24.9501 194.43 25.1801 194.56L25.5201 194.74L25.8201 194.91L25.9601 194.99L26.0501 195.04L25.3101 180.33L25.1701 177.49L25.1101 176.28L25.0001 174.2V173.91L24.8801 171.58V171.44L24.2901 159.76L34.9201 137.4C35.6199 137.168 36.3349 136.984 37.0601 136.85L35.5301 138.97L31.5301 151.02L30.8601 152.25L37.8601 166.58L37.8201 166.56Z" fill="#F1B280"/>
<path d="M75.9399 51.7L72.8999 47.22L61.5099 42.7H60.8299L60.6499 42.05L55.6899 31.76L71.6599 39.38L74.95 44.89L75.9399 51.7Z" fill="#F2914B"/>
<path d="M82.2599 39.99L76.9599 48.25L74.9299 44.87L71.6299 39.36L71.9799 34.73L75.7499 33.21L81.6399 35.41L82.2599 39.99Z" fill="#F3EB50"/>
<path d="M119.84 90.56L114.02 105.17L94.3401 99.67L94.8001 83.34L95.0201 79.96L99.7701 73.47L104.79 57.69V68.63L107.4 66.63L112.56 51.68L119.84 90.56Z" fill="#9C4D23"/>
<path d="M104.79 57.69L99.77 73.47L95.02 79.96L83.15 88.17H78.03V78.23L81.99 77.65L86.13 73.37L90.26 68.63L86.13 71.99L78.03 73.37V66.63L82.26 62.28L101.48 56.1L104.79 57.69Z" fill="#E4B17B"/>
<path d="M90.2599 68.63L86.1299 73.37L81.9999 77.65L78.0399 78.23L73.7199 76.84L70.6099 71.99L76.3599 74.97L80.4299 74.54L86.1299 71.99L90.2599 68.63Z" fill="#A96739"/>
<path d="M86.1299 71.99L80.4299 74.54L76.3599 74.97L70.6099 71.99L78.0399 73.37L86.1299 71.99Z" fill="#9E5C28"/>
<path d="M81.9901 61.03H78.3501L79.6101 55.42L81.9901 61.03Z" fill="#F4A54B"/>
<path d="M82.2599 62.28L77.9999 66.63C77.9999 66.63 74.4799 62.63 73.9999 62.63L64.7499 55.72C66.7499 54.58 72.9299 51.17 73.3399 51.17L61.4299 42.66L72.8299 47.17L75.8299 51.66L74.8299 44.85L76.8299 48.23L77.6199 54.09L77.4299 63.28L82.2599 62.28Z" fill="#F3EB50"/>
<path d="M60.58 62.78L55.91 70.16L50.28 74C50.28 74 55.28 64 54.89 63.24C54.5 62.48 53.39 48.24 53.39 47.33C53.39 46.62 55.04 39.92 55.67 37.39C55.67 41.07 55.67 45.32 55.67 46.02C56.2696 49.1934 57.0306 52.3341 57.95 55.43L58.65 57.94L60.56 62.52L60.58 62.78Z" fill="#F79941"/>
<path d="M101.33 47.19V50.4L93.0001 56.1L82.3101 51.52C82.9401 51.52 95.8801 42.68 95.8801 42.68L101.33 47.19Z" fill="white" stroke="#231F20" stroke-linejoin="round"/>
<path d="M73.3901 51.19C72.9801 51.19 66.83 54.6 64.8 55.74L64.1401 56.1L57.0601 47.86L60.1601 42.86L60.6201 42.05L73.3901 51.19Z" fill="white" stroke="#231F20" stroke-linejoin="round"/>
<path d="M79.26 219.5L79 238.86L69.31 243.26C69.31 243.26 69.31 227.99 69.31 227.26C69.2333 227.253 69.1564 227.271 69.09 227.31L68.94 227.39L68.75 227.5C66.41 228.85 57.7 235.7 57.7 235.7L57.41 235.46L56.52 219.46V215.73H56.73C57.82 217.01 59.97 219.47 60.34 219.47L79.26 219.5Z" fill="#E7C053"/>
<path d="M130.67 267.41L116.28 354.86L102.2 356.26L77 274C77 274 87.75 265.2 98.51 256.54C100.78 254.71 103.06 252.88 105.23 251.15C104.92 258.86 103.28 293.33 103.28 293.33C103.28 293.33 115.98 321.49 116.34 320.93C116.7 320.37 130.24 269 130.67 267.41Z" fill="#827140"/>
<path d="M47.2401 510.58L19.6501 512.15C19.6501 512.15 9.65007 513.36 8.85007 513.15C8.05007 512.94 0.0500488 510.98 0.0500488 510.98L0.820068 507.59L14.6801 508.29H15.1301L26.0001 509L39.8701 505.82L40.4101 505.7C40.463 505.691 40.5171 505.691 40.5701 505.7V505.7C40.9301 505.6 46.8001 504.04 46.9801 504.09C47.1601 507.7 47.2401 510.58 47.2401 510.58Z" fill="#827140"/>
<path d="M25.8799 508.88L39.8599 505.86L25.9799 509.04L15.17 508.35L14.7199 508.33H14.7099L14.6799 508.32L14.9799 508.33L25.8799 508.88Z" fill="#001750"/>
<path d="M47.0001 504.07C46.8201 504.02 40.9501 505.58 40.5901 505.68L40.5401 505.55V505.41L40.2201 504.49C40.1301 504.24 40.0301 503.96 39.9101 503.65C39.7901 503.34 39.6801 503 39.5401 502.65L39.3801 502.24C39.3301 502.08 39.2701 501.9 39.2001 501.73L38.4401 499.73L38.1901 499.07L37.2901 496.73C37.1201 496.29 36.9601 495.84 36.7901 495.4C36.3601 494.3 35.94 493.21 35.55 492.19C35.4 491.81 35.2601 491.45 35.1201 491.11C34.7201 490.06 34.36 489.11 34.05 488.38C34.0194 488.275 33.9827 488.171 33.9401 488.07L33.7901 487.68C33.7301 487.53 33.6701 487.38 33.6301 487.26L33.4901 486.91C33.3801 486.61 33.3101 486.44 33.3101 486.44L33.4401 485.66V486.66H45.9201C46.0001 486.64 46.8601 497.85 47.0001 504.07Z" fill="#FDC050"/>
<path d="M39.45 472.8H39.21V472.3L39.45 472.8Z" fill="#1C387F" stroke="#9BB8C8" stroke-miterlimit="10"/>
<path d="M40.43 505.72L39.89 505.85L26 509L15.19 508.31H14.74L6.23999 504.07L24.65 494.65L27.09 496.33L27.96 496.93L28.59 497.37L29.42 497.95C33.61 500.89 39.32 504.86 40.43 505.72Z" fill="#FDC050"/>
<path d="M14.7101 508.33L0.820068 507.61L6.17007 504.07H6.18005L14.7101 508.33Z" fill="#FDC050"/>
<path d="M136.44 501.47L119.24 495.68L118.69 486.28L118.75 486.64H131.07L136.44 501.47Z" fill="#FDC050"/>
<path d="M139.83 509.77L121.76 509.43C121.76 509.43 119.28 501.88 119.28 501.56V495.93V495.68L136.48 501.47L139.83 509.77Z" fill="#F4A54B"/>
<path d="M141 512.59L130.86 516H121.86L117.62 510.56L119.26 501.89V501.57C119.26 501.89 121.74 509.44 121.74 509.44L139.81 509.78L141 512.59Z" fill="#827140"/>
<path d="M40.6299 505.68C40.577 505.671 40.5229 505.671 40.4699 505.68V505.68L29.4699 497.9L28.64 497.32L28.0099 496.88L27.14 496.28L24.7 494.6L33.3999 486.37C33.3999 486.37 33.4699 486.54 33.5799 486.84L33.7199 487.19C33.7199 487.31 33.8199 487.46 33.8799 487.61L34.0299 488C34.0726 488.101 34.1093 488.205 34.14 488.31L39.4699 502.18L39.6299 502.59L40.6299 505.3C40.6514 505.382 40.6681 505.466 40.6799 505.55C40.6799 505.55 40.6199 505.64 40.6299 505.68Z" fill="#F4A54B"/>
<path d="M55 104.42L45.1 114.12L41.81 117.33C41.81 117.33 41.66 118.07 41.4 119.26C40.35 124.18 37.59 136.77 37.02 136.77C36.2923 136.907 35.5742 137.091 34.87 137.32C31.98 138.18 27.23 139.73 27.23 139.73L23.15 135.36L19.22 121.25L25.47 129.03L37.13 116.55L47.46 108.24L40 99.24L43.93 100.58L55 104.42Z" fill="#827140"/>
<path d="M20.66 255.06C20.66 255.06 14.01 259.14 13.9 259.62C13.79 260.1 4.99003 252.16 3.95003 251.21C3.64003 257.39 4.11 281.47 4.11 281.47L5.84001 282.91L16.84 279.12L25.41 269.77L20.66 255.06ZM5.84001 279.29L6.84001 262.86L9.58 276.34L5.84001 279.29Z" fill="#E7C053"/>
<path d="M17.7 198.94L15.57 218.71L13.57 203.71L11 199.08C11 198.99 11 198.94 11 198.94L15.47 197.74L17.7 198.94Z" fill="#E7C053"/>
<path d="M15.6299 250.69L20.6299 255.06C20.6299 255.06 13.9799 259.14 13.8699 259.62C13.7599 260.1 4.95991 252.16 3.91991 251.21C3.90498 250.731 3.95884 250.253 4.07989 249.79C4.65989 248.88 10.6399 202.02 11.0099 199.08L13.5299 203.66L15.5299 218.66L13.8599 234.2L20.9999 244.43L10.2499 246.74L6.81991 250.69H15.6299Z" fill="#F3EB50"/>
<path d="M33.9299 209.73L20.9899 244.43L13.8999 234.25L17.6999 198.94L32.8799 207.37L33.9299 209.73Z" fill="#827140"/>
<path d="M20.1301 253.44L20.6601 255.06L15.6301 250.69H6.81006L10.2401 246.74L20.9901 244.43L20.1301 253.44Z" fill="#F4A54B"/>
<path d="M27.9001 289H13.1401L5.84009 282.91L16.8601 279.12L25.4301 269.77L27.6101 276.45L27.9001 289Z" fill="#F3EB50"/>
<path d="M107.16 173.43C107.16 173.43 101.82 190.76 101.78 190.76C101.806 190.849 101.826 190.939 101.84 191.03C100.47 189.03 97.84 185.16 97.45 185.16C97.06 185.16 91.27 182.72 88.64 181.71C88.6353 181.673 88.6353 181.637 88.64 181.6C89.09 179.5 89.38 178.08 89.38 178.08L91.97 179.18L96.53 167.54L103.16 158.26L108.03 153.53L116.24 145.58L119.8 148.15L107.16 173.43Z" fill="#E7C053"/>
<path d="M108.05 153.53L103.18 158.26L96.5499 167.54L91.9999 179.18L89.4099 178.08L70.6699 170.13L56.5399 177.51L54.9899 178.33L46.2199 165L40.8799 161.21L52.1299 164.1L63.3899 146.66L70.1699 161.34L75.3199 149.08C75.3199 149.08 89.5199 162.51 89.8699 162.35C90.2199 162.19 107.52 153.8 108.05 153.53Z" fill="#827140"/>
<path d="M89.4001 178.08C89.4001 178.08 89.1101 179.5 88.6601 181.6C88.6554 181.637 88.6554 181.673 88.6601 181.71C87.3601 187.71 84.7601 199.12 83.7401 198.94C82.3701 198.7 69.36 193.24 69.36 193.24L57.9401 198.94L56.55 177.51L70.6801 170.13L89.4001 178.08Z" fill="#F3EB50"/>
<path d="M116.28 145.57L108.07 153.52C107.54 153.79 90.2601 162.21 89.9001 162.37C89.5401 162.53 75.3301 149.1 75.3301 149.1L89.7401 139.75C89.7401 139.75 102.37 135.38 103 135.87C103.41 136.21 111.47 142.07 116.28 145.57Z" fill="#F3EB50"/>
<path d="M48.54 253.51L37.54 241.76L44.61 225.59C45.04 225.89 45.61 226.33 46.36 226.87L48.54 253.51Z" fill="#F4A54B"/>
<path d="M57.7101 235.7C57.7101 235.7 50.3301 229.88 46.3501 226.87C45.6401 226.33 45.0301 225.87 44.6001 225.59L50.8001 211.4L56.5301 219.5L57.7101 235.7Z" fill="#827140"/>
<path d="M69.34 243.26L57.71 235.7C59.57 234.2 67.15 228.39 68.95 227.39L69.1 227.31C69.1663 227.271 69.2432 227.253 69.32 227.26C69.32 227.26 69.32 227.26 69.32 227.26C69.38 228 69.34 243.26 69.34 243.26Z" fill="#F3EB50"/>
<path d="M110.33 225.12L106.39 226.47L83.73 234.25V219.5L105.32 209.73L110.33 225.12Z" fill="#827140"/>
<path d="M116.28 354.86C116.28 354.86 111.28 375.46 111.05 376.34C110.82 377.22 102.2 356.26 102.2 356.26L116.28 354.86Z" fill="#F4A54B"/>
<path d="M78.34 305.64C78.6 304.26 63.87 357.05 63.87 357.05L57.54 363.1C57.54 363.1 61.33 353.99 61.54 353.19C61.75 352.39 75.88 301.49 75.88 301.49C75.88 301.49 66.51 298.04 68.18 298.3C70.7648 298.44 73.3553 298.44 75.94 298.3L81.01 296.78L93.38 361.1C93 359.47 78.08 307 78.34 305.64Z" fill="#FDC050"/>
<path d="M124.33 353.75L130.68 267.37L116.29 354.82C116.29 354.82 111.29 375.42 111.06 376.3C110.83 377.18 102.21 356.22 102.21 356.22L77 274C77 274 87.75 265.2 98.51 256.54L106.35 226.54L83.69 234.32V236.8L79 238.86L69.31 243.26L57.85 235.81L57.39 235.46C55.97 234.35 49.83 229.52 46.32 226.87L48.51 253.51L50.51 255.64L69.32 275.72L53.1 361.13L40.16 353.13L32 283.23L30.59 330.89L34.48 350.1L30.29 376.6L34.48 386.04L33.55 472.8H39.27V415.6C39.27 414.45 57.39 375.01 57.39 375.01L65.77 393.88L46.63 472.8H50.4L71.82 391L57.54 363.1C57.54 363.1 61.33 353.99 61.54 353.19C61.75 352.39 75.89 301.49 75.89 301.49C75.89 301.49 66.52 298.04 68.18 298.3C70.7648 298.44 73.3553 298.44 75.94 298.3L81.01 296.78L93.38 361.1V386.27C93.38 386.27 116.61 477.76 117.67 478.59C117.823 478.681 117.993 478.739 118.17 478.76C120.256 478.978 122.356 479.031 124.45 478.92H125.34L116.39 418.84C116.39 418.84 127.22 382.84 127.22 382.15C127.22 381.46 132.46 385.57 132.46 385.57L130.63 478.69L132.01 478.62L132.23 476.92C132.61 464.14 135 384.29 135.97 384.04C136.94 383.79 124.33 353.75 124.33 353.75ZM34.38 371.68L37.9 354.86C38.9 355.29 48.67 365.61 48.67 365.61L34.38 371.68Z" fill="#FDC050"/>
<path d="M120 239.84C118.9 240.35 112.66 245.22 105.27 251.12C103.1 252.85 100.82 254.68 98.55 256.51L106.39 226.51L110.33 225.16L119.6 238.85L120 239.84Z" fill="#F4A54B"/>
<path d="M130.68 267.37C130.25 268.98 116.74 320.31 116.39 320.86C116.04 321.41 103.33 293.26 103.33 293.26C103.33 293.26 104.97 258.79 105.28 251.08C112.67 245.18 118.91 240.31 120.01 239.8L130.68 267.37Z" fill="#F3EB50"/>
<path d="M167.52 204.16C167.33 204.37 160.12 212.48 153.74 219.5V249.74L150.13 256.46L144.66 249.32L132.77 263.61L133.19 271.11H139.64V282.91L150.72 285.67L161.81 279C161.81 279 161.55 246.83 161.81 245.73C162 244.9 165.78 217.11 167.52 204.16ZM150.72 281L152.53 273.94V261.85L155.89 276.34L150.72 281Z" fill="#F3EB50"/>
<path d="M161.81 279.01L158.91 286.43L143.07 293.3L134.36 291.66L133.19 271.12H139.64V282.91L150.72 285.67L161.81 279.01Z" fill="#E7C053"/>
<path d="M153.74 219.5V249.74L150.13 256.46L144.66 249.32L137.52 216.6C137.52 216.6 143.84 229.06 144.05 229.69C144.14 230 148.68 225.08 153.74 219.5Z" fill="#827140"/>
<path d="M168.41 197.63C168.41 197.63 168.06 200.19 167.53 204.15C167.34 204.36 160.13 212.47 153.75 219.49C148.69 225.07 144.15 229.96 144.06 229.68C143.85 229.05 137.53 216.59 137.53 216.59L139.65 215.76L149.47 207.36L161.82 196.79C161.82 196.79 164.99 194.32 165.82 193.5C166.65 192.68 168.41 197.63 168.41 197.63Z" fill="#F4A54B"/>
<path d="M132.52 385.54L130.69 478.66C129.38 478.73 127.41 478.83 125.4 478.89L116.45 418.81C116.45 418.81 127.28 382.81 127.28 382.12C127.28 381.43 132.52 385.54 132.52 385.54Z" fill="#827140"/>
<path d="M112.56 119.27L78.7399 130.44L69.2999 144L60.2199 129.1L41.3599 119.36C41.6199 118.17 41.7699 117.43 41.7699 117.43L45.0599 114.23C44.7499 114.68 45.0599 117.65 45.0599 117.65L68.9999 126.94L71.5599 127.94L110.5 115.78L112.56 119.27Z" fill="#E7C053"/>
<path d="M83.73 219.5V234.25V236.73L79 238.86L79.23 219.5H60.35C59.98 219.5 57.83 217.04 56.74 215.76L83.74 214.61V219.5H83.73Z" fill="#F3EB50"/>
<path d="M52.14 294.76C52.14 294.76 41.6999 320.16 41.5299 319.3C41.3599 318.44 32.62 285.55 31.95 283.06V282.17L36.8399 243.28L37.4999 241.78L48.4999 253.53L50.4999 255.66L52.14 294.76Z" fill="#F3EB50"/>
<path d="M69.34 275.72L53.1 361.13L40.16 353.13L32 283.23V283.06C32.67 285.55 41.41 318.46 41.58 319.3C41.75 320.14 52.19 294.76 52.19 294.76L50.58 255.64L69.34 275.72Z" fill="#827140"/>
<path d="M48.6699 365.61L34.3799 371.68L37.8999 354.86C38.9299 355.29 48.6699 365.61 48.6699 365.61Z" fill="#F4A54B"/>
<path d="M155.89 276.34L150.72 281.03L152.53 273.97V261.85L155.89 276.34Z" fill="#827140"/>
<path d="M9.55008 276.34L5.84009 279.29L6.81009 262.86L9.55008 276.34Z" fill="#827140"/>
<path d="M65.72 393.88L46.63 472.8H39.45L39.21 472.3V415.6C39.21 414.45 57.33 375.01 57.33 375.01L65.72 393.88Z" fill="#827140"/>
<path d="M50.4099 472.8L45.8999 486.64H33.4099L33.4199 485.64L33.5099 472.8H50.4099Z" fill="#F4A54B"/>
<path d="M132.08 478.59L131.08 486.59H118.75L118.68 486.23L118.24 478.7C120.323 478.918 122.419 478.971 124.51 478.86C126.82 478.86 129.19 478.69 130.68 478.61L132.08 478.59Z" fill="#F4A54B"/>
<path d="M147.68 108.49L107.31 110.6L115.53 105.28L126.54 98.62L128.73 97.3L147.68 108.49Z" fill="#F3EB50"/>
<path d="M147.68 108.49L140.89 128.24V128.37L125.35 128.56L125.16 128.37L107.4 110.64L147.68 108.49Z" fill="#F4A54B"/>
<path d="M43.6701 108.27L27.3201 106.22L39.9601 99.32L43.6701 108.27Z" fill="#F3EB50"/>
<path d="M47.42 108.27L37.0799 116.58L25.4299 129.06L19.1799 121.28L27.3199 106.22L43.67 108.27L39.9599 99.32L47.42 108.27Z" fill="#F4A54B"/>
<path d="M81.64 35.41L97.45 26.89L75.75 33.21L81.64 35.41Z" fill="#F2914B"/>
<path d="M79.25 65.38L101.48 56.1L104.43 59.06L104.79 57.69L101.48 56.1L82.26 62.28L79.25 65.38Z" fill="#BC7645"/>
<path d="M76.96 65.44L60.77 58.6L74.05 62.65L76.96 65.44Z" fill="#9B5023"/>
<path d="M95.0201 79.96L85.0701 88.8L83.1401 89.73L79.3301 88.86L77.8301 88.39L83.1501 88.17L95.0201 79.96Z" fill="#9B5023"/>
<path d="M67.97 81.34L77.83 88.39L67.97 80.19V81.34Z" fill="#9B5023"/>
<path d="M68 80.19C68 80.36 78.06 88.19 78.06 88.19H83.19L83.02 88.89L77.86 88.41C77.86 88.41 69.58 82.23 69.53 82.24C69.48 82.25 68 80.19 68 80.19Z" fill="#9B5023"/>
<path d="M75.75 33.21C75.75 33.21 70.68 24.64 70.61 23.89C70.54 23.14 80.17 5.72998 80.17 5.72998C80.17 5.72998 75.17 21.43 75.39 21.62C75.61 21.81 81.01 31.15 81.01 31.15L75.75 33.21Z" fill="#9C4D23"/>
<path d="M103.57 7.17996C102.94 6.98996 95.02 10.61 95.02 10.61C95.02 10.61 88.6 27.12 88.88 26.89C89.16 26.66 96.22 12.13 96.22 12.13L103.57 7.17996Z" fill="#9C4D23"/>
<path d="M46.6099 25.79L62.7099 17.03L71.6299 19.47L61.6299 5.14001L46.6099 25.79Z" fill="#9C4D23"/>
<path d="M98.55 369.11C99.07 370.03 113.46 407.99 113.46 407.99L97.24 386.87L98.55 369.11Z" fill="#F4A54B"/>
<path d="M48.67 371.68L35.95 376.37L39.2099 415.6L57.3299 375.01L48.67 371.68Z" fill="#F4A54B"/>
<path d="M57.88 235.81L52.47 257.71L69.34 275.72L67.18 287.04L74.47 289L81.12 287.3L77.04 273.97L93.43 260.64L102.2 227.26L83.73 234.25L83.72 236.73L69.34 243.26L57.88 235.81Z" fill="#F4A54B"/>
<path d="M132.16 150.26L130.64 149.74L131.16 148.74L134.69 142.11V142.05V141.98L141.14 129.84L151 156.74V156.82C147.25 155.49 136.22 151.66 132.16 150.26Z" fill="#827140"/>
<path d="M161.53 194.57L151.88 190.37L145.05 187.37L145.13 187.04L145.46 185.67L145.55 185.27L151.83 159.08L160 181.68L161.53 194.57Z" fill="#F4A54B"/>
<path d="M145.16 188.21C145.8 191.94 148.35 206.9 148.38 208.11C148.375 208.19 148.355 208.268 148.32 208.34C147.71 209.71 142.32 213.74 139.85 215.58L139.76 215.65L139.7 215.7H139.63L142 188.37V188.11L139.7 184.94L135.14 178.65L121.49 151.45L121.43 151.33C124.3 150.53 130.48 148.83 131.15 148.74C131.346 148.773 131.54 148.819 131.73 148.88C131.73 148.88 146.91 155.03 150.93 156.74V156.82L151.75 159.09L145.47 185.28L145.38 185.68L145.05 187.05L144.97 187.38L145.16 188.21Z" fill="#F3EB50"/>
<path d="M161.8 196.8L151.89 205.29L151.59 205.53L149.45 207.26L148.38 208.11L145.16 188.21L145.02 187.38L151.85 190.38L161.5 194.58L161.8 196.8Z" fill="#827140"/>
<path d="M150.3 184.84L146.3 186.54L146.11 186.62H146.06L145.11 187.02L142 188.37V188.11L139.7 184.94C141.97 185.1 144.39 185.22 145.22 185.26H145.51L150.3 184.84Z" fill="#827140"/>
<path d="M141.22 129.81L134.77 142V142.07V142.13L131.24 148.76L121.58 151.47L119.92 148.16L121.42 142.71L123.21 135.92H123.27L123.43 135.84L123.83 135.67L124.12 135.54L124.54 135.36L124.75 135.27L125.12 135.11L125.68 134.87L126.02 134.72L128.02 133.87L135.91 130.47L137.21 129.91L140.26 128.6L140.59 128.46H140.67H140.72L140.92 128.35V128.48L141.22 129.81Z" fill="#E7C053"/>
<path d="M37.1501 136.56L35.4901 139.27L32.4401 150.93L31.7701 152.16C31.7701 152.16 38.4501 165.9 37.7701 166.62C37.0901 167.34 25.6801 177 25.6801 177L21.55 150.91L27.1901 139.74L37.1501 136.56Z" fill="#F4A54B"/>
<path d="M25.6701 177L25.0901 177.43L16.0901 184.13C16.1601 182.13 16.2401 180.25 16.3001 178.6L17.5701 167L17.7601 165.29C19.7001 154.1 23.1001 135.4 23.1001 135.4L27.1901 139.77L21.5501 150.94L24.7901 171.4V171.47L25.6701 176.99V177Z" fill="#E7C053"/>
<path d="M37.7699 166.62L37.7 167.29L34.0599 189.29L32.8799 207.34L24.8799 202.9L23.0999 201.9L22.4399 201.53C22.4399 201.53 22.4899 201.19 22.5599 200.6C22.5599 200.4 22.6199 200.17 22.6499 199.92C22.6799 199.67 22.7099 199.5 22.7399 199.26C22.8299 198.6 22.9299 197.81 23.0499 196.94C23.0499 196.76 23.0499 196.57 23.1299 196.37C23.2099 196.17 23.2199 195.72 23.2599 195.37C23.2551 195.287 23.2551 195.203 23.2599 195.12L23.4299 193.82C23.4999 193.28 23.5699 192.72 23.6499 192.14L23.7999 191.01C24.0199 189.3 24.2599 187.55 24.4799 185.88C24.5299 185.54 24.5699 185.2 24.6199 184.88C24.6699 184.56 24.6699 184.43 24.7099 184.21C24.7699 183.69 24.8399 183.21 24.8999 182.72C24.8999 182.39 24.9899 182.07 25.0299 181.72C25.0699 181.37 25.1099 181.11 25.1499 180.82V180.56V180.33L25.2399 179.62L25.3299 178.92C25.3299 178.7 25.3799 178.5 25.4099 178.31L25.4799 177.81L25.5899 176.99L25.7199 176.88L26.0699 176.58C28.1599 174.75 36.4099 167.58 37.5699 166.68H37.6199L37.7699 166.62Z" fill="#F3EB50"/>
<path d="M25.6899 177L25.5799 177.82C25.5799 177.97 25.5299 178.13 25.5099 178.32C25.4899 178.51 25.4599 178.71 25.4299 178.93C25.3999 179.15 25.3699 179.38 25.3399 179.63C25.3099 179.88 25.2799 180.06 25.2399 180.29V180.54V180.8C25.1999 181.087 25.1599 181.387 25.1199 181.7C25.1199 182.01 25.0299 182.33 24.9899 182.7C24.9299 183.18 24.8599 183.7 24.7999 184.19C24.7999 184.41 24.7299 184.64 24.7099 184.86C24.6899 185.08 24.6199 185.53 24.5699 185.86C24.3499 187.53 24.1099 189.28 23.8899 190.99L23.7399 192.12C23.6599 192.7 23.5899 193.26 23.5199 193.8L23.3499 195.1C23.3451 195.183 23.3451 195.267 23.3499 195.35C23.3499 195.69 23.2599 196.02 23.2199 196.35C23.1799 196.68 23.1699 196.75 23.1399 196.93C23.0199 197.8 22.9199 198.59 22.8299 199.25C22.8299 199.49 22.7999 199.71 22.7399 199.91C22.7399 200.16 22.6799 200.39 22.6499 200.59C22.5799 201.18 22.5299 201.52 22.5299 201.52L15.6299 197.69C15.6299 197.69 15.9199 190.63 16.1799 184.1C16.2499 182.1 16.3299 180.22 16.3899 178.57L17.5699 167C18.6399 168.53 23.3099 174.15 25.0399 176.23L25.6699 176.97L25.6899 177Z" fill="#F4A54B"/>
<path d="M140.85 128.37C140.85 128.37 140.85 128.37 140.73 128.43H140.63L140.46 128.51C138.76 129.22 132.46 131.87 127.95 133.78L125.95 134.63L125.61 134.78L125.05 135.02L124.68 135.18L124.47 135.27L124.05 135.45L123.76 135.58L123.36 135.75L123.2 135.83C122.65 135.83 116.96 126.52 112.56 119.19L110.46 115.7C108.81 112.92 107.62 110.89 107.46 110.57L125.25 128.35L140.85 128.37Z" fill="#827140"/>
<path d="M63.39 146.69L52.13 164.13L40.88 161.24L38.8 159.77L31.46 150.98L35.45 138.93V138.92L38.75 135.44L52.87 136.07L63.39 146.69Z" fill="#F3EB50"/>
<path d="M105.32 209.73L83.7301 219.5V214.61L56.5401 215.77V219.5L50.8101 211.4L48.0901 176.7L39.6601 170.29L37.8401 166.58L30.8401 152.23L31.5101 151L38.8501 159.79L40.9301 161.26L46.2701 165.05L55.0301 178.35L56.5801 177.53L57.9701 198.96L69.3901 193.26C69.3901 193.26 82.3901 198.72 83.7701 198.96C84.7701 199.14 87.3901 187.75 88.6901 181.73C91.3201 182.73 97.0701 185.18 97.5001 185.18C97.9301 185.18 100.5 189.03 101.89 191.05C102.29 193.35 105.32 209.73 105.32 209.73Z" fill="#E7C053"/>
<path d="M123.22 135.88L119.84 148.14L116.28 145.57C111.47 142.07 103.41 136.21 102.98 135.88C102.35 135.39 89.7199 139.76 89.7199 139.76L75.3099 149.11L70.17 161.37L63.39 146.69L52.8699 136.07L38.7499 135.45L35.45 138.92L36.9999 136.8C37.5699 136.8 40.3299 124.21 41.3799 119.29L60.2199 129L69.2999 144L78.7399 130.46L112.56 119.28C117 126.66 122.78 136.1 123.22 135.88Z" fill="#F4A54B"/>
<path d="M110.11 158.8C109.99 159.24 99.4601 172.17 99.4601 172.17L99.3 177.11" fill="#F4A54B"/>
</svg>
