<svg width="193" height="497" viewBox="0 0 193 497" fill="none" xmlns="http://www.w3.org/2000/svg">
<path d="M96.2999 44.28L82.8499 44.51C82.5499 44.51 77.6399 46.81 77.6399 46.81L75.1699 44.31L67.3599 44.04L68.7099 50.62L71.2099 57.34L75.4199 64.34H87.6099L98.2999 53.81L96.2999 44.28ZM83.1799 56.91C82.9299 56.83 77.3599 56.91 77.3599 56.91L75.7899 54.41H85.5999C85.5999 54.41 83.4299 57 83.1799 56.91ZM73.6499 51.8501L75.3299 50.64C75.3299 50.64 84.4599 50.58 84.7799 50.64C85.0999 50.7 89.3699 51.94 89.3699 51.94L73.6499 51.8501Z" fill="#A6662F"/>
<path d="M72.4399 0.589844L79.14 2.46985L87.0899 0.589844L102.57 4.66985L88.8799 8.08984L76.39 7.38985L72.4399 0.589844Z" fill="#3F383E"/>
<path d="M190.51 220V220.45H176.33L185.14 166.26C185.14 166.26 190.78 188.62 191.24 189.26V189.4V189.45C191.75 192.12 190.51 220 190.51 220Z" fill="#3A3B44"/>
<path d="M185.13 220.47L179.91 248.46L174.73 234.47L168.74 232.45L168.88 231.98L176.33 220.47H185.13Z" fill="#A4682F"/>
<path d="M179.91 248.46L169.55 251.97L167.22 248.46L172.55 246.68V242.08L167.22 248.46L164.82 244.85L168.74 232.45L174.73 234.47L179.91 248.46Z" fill="#85491F"/>
<path d="M192.58 247.33L187.85 251.97H169.55L179.91 248.46L192.58 247.33Z" fill="#4B1D11"/>
<path d="M190.51 220.47L192.58 247.33L179.91 248.46L185.13 220.47H190.51Z" fill="#85491F"/>
<path d="M166.39 103.74V103.81L152.85 122.32L137.32 115V99.2001L155.91 82.8701H156.24L166.39 103.74Z" fill="#689DD4"/>
<path d="M155.91 82.9098L137.32 99.2398L115.34 87.4198L130.5 78.7998L130.72 78.8998L155.91 82.9098Z" fill="#7DD1F0"/>
<path d="M146.46 128.42C146.46 128.42 147.81 154.29 148.34 155.42C147.65 155.42 140.2 127.87 140.2 127.87L129.69 107.6L115.34 87.4199L137.34 99.2399V115L152.87 122.28L146.46 128.42Z" fill="#3A3B44"/>
<path d="M105.71 67.6702C100.64 69.8402 83.7099 77.9802 83.3999 77.7602C83.0899 77.5402 76.1399 72.2801 72.3999 69.4601L82.4599 73.1201L104.07 62.6602V66.9402L105.71 67.6702Z" fill="#70411E"/>
<path d="M104.15 56.4302V62.6502L82.4999 73.1202L72.4399 69.4602L73.1299 63.7202L74.9999 66.0002H87.67L104.15 56.4302Z" fill="#622F13"/>
<path d="M104.21 46.59L104.78 45.98L104.21 46.59L104.15 56.43L87.6599 66L98.2999 53.8C98.2999 53.8 100.84 47.73 103.4 41.65C103.56 41.26 104.21 46.4 104.21 46.59Z" fill="#471E12"/>
<path d="M98.2999 53.78L87.6599 66H74.9999L73.1199 63.73L70.9999 57.6L68.7299 50.79L66.6499 44H67.9999L69.3499 50.58L71.8499 57.3L75.4199 64.3H87.6099L98.2999 53.78Z" fill="#78421B"/>
<path d="M110.5 29.4702V39.7802L104.21 46.5902C104.21 46.4002 103.56 41.2602 103.4 41.5902C105.97 35.5102 108.56 29.4302 108.66 29.4302L110.5 29.4702Z" fill="#70411E"/>
<path d="M107.88 14.0998L106.7 28.9998L97.4001 24.9998L98.0201 14.6698L93.5201 15.3998L81.5201 18.9798L68.4401 14.2298L66.3 25.7998L67.5301 9.54979C67.5301 9.54979 78.85 11.9998 79.11 11.9998C79.37 11.9998 96.8101 10.3598 97.1901 10.2398C97.5701 10.1198 102.71 8.06979 103 7.77979L107.88 14.0998Z" fill="#22201F"/>
<path d="M93.5201 15.3599L90.8701 24.4899C90.8701 24.4899 79.3401 29.8499 79.1601 29.9899C78.9801 30.1299 70.6401 25.5099 70.2501 25.3799C69.8601 25.2499 68.3901 14.1899 68.3901 14.1899L81.0001 18.7499L93.5201 15.3599Z" fill="#A6662F"/>
<path d="M108.9 29.47L102.75 31.57L97.6399 33.1199L94.7799 29.63L92.3799 26.72L97.3999 24.96L106.7 28.95L106.65 29.38L108.9 29.47Z" fill="#689DD4"/>
<path d="M103.07 31.3798C103.07 31.3798 98.21 40.5798 96.75 43.4398C96.65 43.6398 96.57 43.7898 96.49 43.9298L96.33 44.2298V44.2798L82.88 44.5098C82.58 44.5098 77.67 46.8098 77.67 46.8098L75.2 44.3098L68.4 43.9998L66.65 43.9298L68.65 39.3798L75.77 41.1598L77.18 34.1598L67.65 29.8198L66 26.1698L66.28 25.7998L78.8 32.2398L92.51 26.6698L94.79 29.4498L81 34.5198L82.21 41.1998C82.5 41.1998 95.04 40.6898 95.21 40.6198C95.38 40.5498 97.68 32.9498 97.68 32.9498L103.07 31.3798Z" fill="#7DD1F0"/>
<path d="M77.1999 34.1501L75.7899 41.2001L75.2399 34.4801L67.6699 29.8101L77.1999 34.1501Z" fill="#689DD4"/>
<path d="M68.67 39.4199L66.65 43.9699L63.51 34.7199V29.4699L66.02 26.1699L67.67 29.8099L65.86 33.4199L67.53 39.1399L68.67 39.4199Z" fill="#689DD4"/>
<path d="M94.8099 29.4502L84.2599 34.2802L82.1599 41.2002L80.95 34.5202L94.8099 29.4502Z" fill="#689DD4"/>
<path d="M108.9 29.4702C108.65 29.8302 106.14 35.7002 103.66 41.6002C103.614 41.6874 103.574 41.7776 103.54 41.8702C101.31 47.1102 98.99 52.3202 98.42 53.5102C98.42 53.5102 98.37 53.6602 98.35 53.7002C98.3312 53.7421 98.2997 53.7771 98.26 53.8002L96.26 44.2502V44.2002L96.43 43.9002L96.68 43.4102C98.22 40.5602 103 31.3502 103 31.3502L108.52 29.5502L108.82 29.4502L108.9 29.4702Z" fill="#4B5680"/>
<path d="M140.2 127.89L129.69 107.6L123.33 122.32C123.33 122.32 108.25 131.13 107.89 131.5C107.53 131.87 79.4699 125.89 79.4699 125.89L81.3299 102.17L89.7599 85.79L81.42 90.86C81.42 90.86 73.79 86.93 73.17 86.26L78.8499 103.26L74.9999 126.38L50.8999 132.91L37.6799 123.78L50.2099 139.65L67.2099 133.47L52.8699 147L55.2499 182.68C55.2499 182.68 65.2499 204.08 65.7199 204.39C66.1899 204.7 91.3999 204.39 91.3999 204.39L109.31 178.23L124 171.44C124 171.31 124 171.25 124 171.25L140.2 127.89ZM99.7399 187.12L96.4399 192L77.8099 194.23V134.92L101.22 146L97.5099 159.9L99.7399 187.12ZM84.64 133.52C84.64 133.52 110.15 138.24 110.84 138.07C111.53 137.9 132.05 121.59 132.69 121.07L112.93 146L84.64 133.52Z" fill="#689DD4"/>
<path d="M132.69 121.08L112.93 146L84.6401 133.55C84.6401 133.55 110.15 138.27 110.84 138.1C111.53 137.93 132.05 121.59 132.69 121.08Z" fill="#6767AE"/>
<path d="M78.8501 103.24L75.0301 126.38L50.9301 132.91L37.7101 123.78L36.8401 106.75L52.5001 87.4199L78.8501 103.24Z" fill="#7DD1F0"/>
<path d="M52.5 87.4202L31.5 103.24L22.75 96.7602L31.56 82.0802L48.27 81.1802L48.82 80.9302C50.14 82.9402 52.5 87.4202 52.5 87.4202Z" fill="#7DD1F0"/>
<path d="M25.68 123.3L25.74 123.15L22.79 96.7598L31.54 103.24L37.71 123.78L25.68 123.3Z" fill="#689DD4"/>
<path d="M53.92 208.49L66.6799 234.49L65.4999 232.63L65.0099 231.87L64.7399 231.45L64.1599 230.53L63.5199 229.53L63.1799 228.99L62.0899 227.28L60.92 225.43L60.0999 224.14L59.2599 222.82L58.8399 222.15L57.9999 220.8L56.6099 218.63L55.7999 217.34L54.9999 216C51.2099 210 47.9999 204.8 47.8999 204.54L51.9699 181.2C51.9699 181.2 48.0699 147.15 48.2899 143.56C47.3599 146.08 38.5399 163.56 37.7999 165.06L18.95 155.65L38.7599 146L37.7099 123.81L50.2399 139.68L67.2399 133.5L52.8699 147L55.2499 182.68L53.92 208.49Z" fill="#3A3B44"/>
<path d="M18.9 155.63L19.73 185.2L8.94998 220.88L2.70996 217.31L11.96 166.96L18.9 155.63Z" fill="#7DD1F0"/>
<path d="M37.7 165.15L36.2299 178.93L14.8999 221.14L8.94995 220.88L19.7299 185.2L37.7 165.15Z" fill="#3A3B44"/>
<path d="M13.8601 236.89L4.26013 250.41L0.890137 236.04L2.71011 217.31L8.95013 220.88L13.8601 236.89Z" fill="#874A20"/>
<path d="M22.7 233.47L13.8599 236.89L8.94995 220.88L14.8999 221.14L22.5799 233.11L22.7 233.47Z" fill="#A76931"/>
<path d="M26.1799 243.72L22.5799 246.43L13.8599 236.89L22.6999 233.47L26.1799 243.72Z" fill="#804A1F"/>
<path d="M22.58 246.43L20.39 250.55L19.63 251.97L4.28 250.5L4.26001 250.41L13.86 236.89L22.58 246.43Z" fill="#471914"/>
<path d="M126.56 196L101.22 219.22L91.1401 234.52C90.6201 233.82 113.44 201.01 112.93 200.52C112.42 200.03 109.31 178.29 109.31 178.29L124 171.44C124.24 173.63 126.47 194.55 126.47 195.44C126.488 195.628 126.518 195.815 126.56 196V196Z" fill="#6767AE"/>
<path d="M66.69 234.47L59.25 292.17L36.25 271.27L47.87 204.54C48.02 205.15 66.13 233.54 66.7 234.45L66.69 234.47Z" fill="#7DD1F0"/>
<path d="M143.37 252L141.37 315.33C141.37 315.33 131.92 326.8 128.37 331.86C130.96 326.08 136.37 311.61 136.37 311.34C136.37 311.07 123 293.64 121.59 290.09C121.68 289.67 121.68 289.44 121.59 289.46C121.5 289.48 121.46 289.71 121.59 290.09C120.59 294.38 109.09 319.25 108.16 321.26L108.1 321.4C100.61 296 90.54 262 90.54 262L87.15 299.7C87.15 299.7 81.15 326 81.05 326.57L74.66 330.57C69.92 333.57 64.21 337.16 63.76 337.46C62.96 337.99 74.32 315.82 74.32 315.82L59.25 292.13L66.69 234.43C66.69 234.43 91.15 235.11 91.15 234.43L121.58 288.07L143.37 252Z" fill="#3A3B44"/>
<path d="M59.25 292.17L49.44 326.82L36.23 271.27L59.25 292.17Z" fill="#3A3B44"/>
<path d="M80.6001 349.85L65.6001 364.68L45.6001 340.36L48.9301 328.54L49.2001 327.6L49.4301 326.82L59.2401 292.17L74.3001 315.86C74.3001 315.86 63.0001 338 63.7601 337.5C64.5201 337 81.0501 326.59 81.0501 326.59C81.2801 325.92 80.6001 349.85 80.6001 349.85Z" fill="#689DD4"/>
<path d="M87.1501 388L65.6001 364.68L80.6001 349.85L87.1501 388Z" fill="#6767AE"/>
<path d="M87.1501 388L67.5101 460.48L65.6001 364.68L87.1501 388Z" fill="#8193CA"/>
<path d="M49.7199 432.85C49.7199 432.85 49.8999 371.06 49.6699 370.39C49.4399 369.72 45.6099 341.04 45.6099 340.39L65.6099 364.71L67.5199 460.51L49.7199 432.85Z" fill="#3A3B44"/>
<path d="M68.41 484.41L30.25 486.22C30.25 486.22 20.99 489.38 20.09 489.15C19.19 488.92 4.28003 486.67 4.28003 486.67L5.18002 481.03L24.93 481.88L43.13 482.66L60.52 478.83C60.52 478.83 67.94 476.92 68.17 476.99C68.31 481.13 68.41 484.41 68.41 484.41Z" fill="#40403E"/>
<path d="M68.17 477C67.94 476.93 60.52 478.84 60.52 478.84L51.81 456.84L49.72 432.63L67.51 460.25C67.62 460.25 68 469.89 68.17 477Z" fill="#689DD4"/>
<path d="M60.52 478.83L43.13 482.89L24.93 482.1L14.24 476.99L41.47 466.22L60.52 478.83Z" fill="#7DD1F0"/>
<path d="M24.9299 482.1L5.17993 481.03L14.2299 476.99H14.2399L24.9299 482.1Z" fill="#6767AE"/>
<path d="M143.36 252L121.58 288.16C120.92 287.52 132.45 215.93 132.45 215.93C137.31 232.1 143.36 252 143.36 252Z" fill="#689DD4"/>
<path d="M141.33 315.3C141.33 315.3 131.87 326.77 128.33 331.83C130.92 326.05 136.33 311.58 136.33 311.31C136.33 311.04 123 293.64 121.59 290.09C120.59 294.57 108.1 321.4 108.1 321.4L123.87 339.25L126.99 361.85L144.49 344.65L141.33 315.3Z" fill="#689DD4"/>
<path d="M140 436.35L119.88 394.79C119.88 394.79 119.88 394.36 119.77 393.61C119.84 392.3 126.98 369.83 126.98 369.83L116 348.72C116 348.46 112.48 336.43 108.18 321.58L124 339.43L127 361.85L161.77 431.85L163.47 464.52L140 436.35Z" fill="#3A3B44"/>
<path d="M127 369.79C127 369.79 119.86 392.26 119.79 393.57C119.18 386.36 116.05 349.33 116.05 348.72L127 369.79Z" fill="#6767AE"/>
<path d="M161.76 431.87L127 361.86L144.49 344.65L159.17 381.9L161.76 431.87Z" fill="#8193CA"/>
<path d="M168.91 477.33L145.13 469.63L140.43 437.22L140.01 436.35L163.46 464.54L168.91 477.33Z" fill="#689DD4"/>
<path d="M173.6 488.35L148.6 487.89C148.6 487.89 145.17 477.89 145.17 477.44V470L145.11 469.67L168.9 477.37L173.6 488.35Z" fill="#7DD1F0"/>
<path d="M175.2 492.09L161.2 496.61H148.78L142.92 489.39L145.18 477.87V477.44C145.18 477.87 148.61 487.89 148.61 487.89L173.61 488.35L175.2 492.09Z" fill="#40403E"/>
<path d="M185.14 166.28L168 155.1L152.85 122.32L166.39 103.81C166.39 104.92 166.62 118.22 166.84 118.86C167.06 119.5 173.39 133.54 173.39 133.54C173.39 133.54 176.32 153.64 176.32 152.96C176.32 152.28 185.14 166.28 185.14 166.28Z" fill="#3A3B44"/>
<path d="M168 155.1C168 155.1 162.26 161.05 158.32 164.97C157.17 163.81 150.41 156.92 148.69 155.65C151.32 156.38 166.88 155.1 168 155.1Z" fill="#3A3B44"/>
<path d="M176.33 220.47L159.85 187.47L158.5 165.11L158.33 164.93C162.27 161.01 168.01 155.06 168.01 155.06L176.33 220.47Z" fill="#7DD1F0"/>
<path d="M185.13 166.28L176.33 220.47L168.01 155.1L185.13 166.28Z" fill="#689DD4"/>
<path d="M113.68 71.2502L89.76 85.7903L81.42 90.8602C81.42 90.8602 73.79 86.9303 73.18 86.2603V86.1602C73.43 85.9902 69.79 78.6203 67.52 74.1003C67.74 73.9003 70.21 71.6602 71.57 70.3702C72.03 69.9402 72.35 69.6103 72.43 69.5103C76.13 72.3303 83.12 77.6302 83.43 77.8102C83.74 77.9902 99.04 69.1502 104.11 66.9902L113.68 71.2502Z" fill="#6767AE"/>
<path d="M78.85 103.24L52.5 87.4199L73.14 86.1699L73.18 86.2599L78.85 103.24Z" fill="#7DD1F0"/>
<path d="M36.84 106.75L37.71 123.78L31.54 103.24L52.5 87.4199L36.84 106.75Z" fill="#3A3B44"/>
<path d="M38.7599 145.97L18.8999 155.63L21.2199 136.93L25.6799 123.3L37.7099 123.78L38.7599 145.97Z" fill="#7DD1F0"/>
<path d="M37.7501 165.05C37.7362 165.085 37.7195 165.118 37.7001 165.15L19.7001 185.2L18.8701 155.64L37.7501 165.05Z" fill="#689DD4"/>
<path d="M20.3901 250.55L7.58008 248.04L12.0801 244.26L22.5801 246.43" fill="#804A1F"/>
<path d="M115.34 87.42L81.3301 102.17L89.7601 85.79L115.34 87.42Z" fill="#7DD1F0"/>
<path d="M129.69 107.6L123.33 122.32C123.33 122.32 108.25 131.13 107.89 131.5C107.53 131.87 79.47 125.89 79.47 125.89L81.33 102.17L115.33 87.4199L129.69 107.6Z" fill="#7DD1F0"/>
<path d="M168 155.1C166.87 155.1 151.31 156.38 148.69 155.65C148.51 155.51 148.4 155.44 148.34 155.44C147.81 154.29 146.46 128.44 146.46 128.44L152.85 122.34L168 155.1Z" fill="#7DD1F0"/>
<path d="M172.55 242.08V246.68L167.22 248.46L172.55 242.08Z" fill="#4B1D11"/>
<path d="M97.5101 159.87L99.7401 187.12L96.4401 192L77.8101 194.23V134.92L101.22 145.97L97.5101 159.87Z" fill="#7DD1F0"/>
<path d="M121.58 288.13L91.1499 234.49L101.23 219.19L126.56 196C127.13 198.15 129.56 206.41 132.45 215.95C132.45 215.9 120.92 287.49 121.58 288.13Z" fill="#7DD1F0"/>
<path d="M91.1399 234.47C91.1399 235.13 66.6799 234.47 66.6799 234.47L53.9199 208.47L55.2499 182.65C55.2499 182.65 65.2499 204.05 65.7199 204.36C66.1899 204.67 91.3999 204.36 91.3999 204.36L109.31 178.2C109.31 178.2 112.41 199.91 112.93 200.43C113.45 200.95 90.6199 233.77 91.1399 234.47Z" fill="#689DD4"/>
<path d="M98.0001 14.6299L97.4001 24.9999L92.5301 26.7099L78.8201 32.2799L66.3 25.7999L68.3901 14.1899C68.3901 14.1899 69.8801 25.2599 70.2501 25.3799C70.6201 25.4999 78.9601 30.1099 79.1601 29.9899C79.3601 29.8699 90.8701 24.4899 90.8701 24.4899L93.5201 15.3599L98.0001 14.6299Z" fill="#83491F"/>
<path d="M89.3699 51.94L86.7999 52.5099L74.9999 52.2299C74.9999 52.2299 73.75 51.85 73.7 51.85L75.3799 50.6399C75.3799 50.6399 84.5099 50.5799 84.8299 50.6399C85.1499 50.6999 89.3699 51.94 89.3699 51.94Z" fill="#8E5828"/>
<path d="M85.6 54.4102C85.6 54.4102 83.43 56.9902 83.18 56.9102C82.93 56.8302 77.36 56.9102 77.36 56.9102L75.79 54.4102H85.6Z" fill="#8E5828"/>
<path d="M97.67 33C97.67 33 95.41 40.6 95.2 40.67C94.99 40.74 82.45 41.25 82.2 41.25L84.2999 34.33L94.8499 29.5L97.67 33Z" fill="white" stroke="#221F1F" stroke-linejoin="round"/>
<path d="M75.7899 41.2001L68.6699 39.4201L67.5299 39.1401L65.8599 33.4201L67.6699 29.8101L75.2399 34.4801L75.7899 41.2001Z" fill="white" stroke="#221F1F" stroke-linejoin="round"/>
<path d="M82.51 44.5898L95.79 45.8898L98.3 53.7798L96.3 44.2798L82.82 44.5098" fill="#6A3F26"/>
<path d="M107.88 14.0999L94.81 13.0999L79.15 15.5699L68.67 12.8199L67.53 9.50987L68.98 6.87988L90.4 9.35988L102.57 4.62988L107.88 14.0999Z" fill="#22201F"/>
<path d="M76.54 28.0899C77.3114 28.5592 78.1094 28.9833 78.93 29.3599C78.93 29.3599 78.21 24.4399 78.03 24.3599C77.6292 24.0067 77.2641 23.6148 76.94 23.1899L76.54 28.0899Z" fill="#A36B33"/>
<path d="M79.45 29.3399L80.95 26.6899V28.5299L79.45 29.3399Z" fill="#A36B33"/>
<path d="M73.1499 86.1602L52.4999 87.4202C52.4999 87.4202 50.1499 82.9402 48.8599 80.9102L65.6799 71.0002L72.4099 69.4502V69.5002C72.3299 69.6002 72.0099 69.9302 71.5499 70.3602C70.1899 71.6502 67.7199 73.8902 67.4999 74.0902C69.7599 78.6202 73.3999 86.0002 73.1499 86.1602Z" fill="#689DD4"/>
<path d="M52.5001 78.77L31.6001 82.06L52.5001 81.76V78.77Z" fill="#3A3B44"/>
<path d="M97.51 159.87L77.81 156.38L76.49 160.88L97.65 161.59L99.54 160.52L97.51 159.87Z" fill="#689DD4"/>
<path d="M173.4 133.54L168.01 132.89L166.85 118.89C167.08 119.54 173.4 133.54 173.4 133.54Z" fill="#689DD4"/>
<path d="M53.92 208.49L66.68 234.49L65.5 232.63L65.01 231.87L64.74 231.45L64.16 230.53L63.52 229.53L63.18 228.99L62.09 227.28L60.92 225.43L60.1 224.14L59.26 222.82L58.84 222.15L58 220.8L56.61 218.63L55.8 217.34L55 216C51.21 210 48 204.8 47.9 204.54L51.97 181.2C51.97 181.2 48.07 147.15 48.29 143.56L37.75 123.79L50.28 139.66L67.28 133.48L52.87 147L55.25 182.68L53.92 208.49Z" fill="#6767AE"/>
<path d="M102.57 4.66985V9.54985L79.05 14.1898L67.53 9.54985L68.98 6.91985C70.4 4.33985 72.38 0.759844 72.44 0.589844C72.44 0.939844 79.81 5.49985 79.81 5.49985L83.81 2.97984L87.13 4.66985H102.57Z" fill="#22201F"/>
<path d="M97.9999 14.6301C97.9999 14.6301 102.29 12.3201 102.25 12.4801C102.21 12.6401 100.62 26.3501 100.62 26.3501L97.3999 25.0001L97.9999 14.6301Z" fill="#3F383E"/>
<path d="M109.47 31.7798V39.4198L106.38 42.9798L109.47 31.7798Z" fill="#5C3412"/>
<path d="M106.38 42.9798L104.46 42.8198L109.47 31.7798L108.9 37.3798L106.38 42.9798Z" fill="#5C3412"/>
<path d="M81.0001 18.1199C81.0001 17.9199 70.6001 10.3299 70.6001 10.3299C70.6001 10.3299 72.3001 1.3299 72.4901 1.6299C72.6801 1.9299 78.9801 9.35989 78.9801 9.35989L81.0001 18.1199Z" fill="#3F383E"/>
<path d="M66.6499 44L74.9899 45.25C74.9899 45.25 77.7999 47 77.6399 46.84L75.1699 44.34L66.6499 44Z" fill="#6A3F26"/>
<path d="M130.5 78.7999L115.34 87.42L89.76 85.7899L112.05 72.2399L104.08 66.9399L114.55 70.0299L130.5 78.7999Z" fill="#689DD4"/>
<path d="M130.72 137.29C130.55 137.72 117.85 147.81 117.85 147.81L116.96 154.24L130.72 137.29Z" fill="#6767AE"/>
<path d="M130 144.59C129.86 145.03 118.92 157.87 118.92 157.87L118.6 163.37L130 144.59Z" fill="#6767AE"/>
<path d="M129.69 107.6L136.08 128.4L123.97 171.44L140.2 127.89L129.69 107.6Z" fill="#29272C"/>
<path d="M75.12 142.52C75.47 143.4 74.42 155.27 74.42 155.27L62.79 156.02L65.25 144.79L75.12 142.52Z" fill="#7DD1F0"/>
<path d="M74.7499 167.84L74.3999 192.74L62.8999 189.02L64.8799 170.11L74.7499 167.84Z" fill="#7DD1F0"/>
<path d="M108.16 321.26L108.1 321.4C100.61 296 90.5399 262 90.5399 262L87.1499 299.7C87.1499 299.7 81.1499 326 81.0499 326.57L74.6599 330.57L81.0899 309.63L89.5099 258.63L82.0899 255.17L78.9299 246.37L85.6299 251.96H93.8299C93.8299 251.96 95.6899 260.57 96.1699 261.44C96.6499 262.31 107.25 316.6 108.16 321.26Z" fill="#6767AE"/>
<path d="M41.47 466.22L51.81 456.84C51.81 456.84 61.09 479.65 60.54 479.06C59.99 478.47 41.47 466.22 41.47 466.22Z" fill="#6767AE"/>
<path d="M190.51 220V220.45H176.33L191.24 189.29V189.43V189.48C191.75 192.12 190.51 220 190.51 220Z" fill="#689DD4"/>
<path d="M75.4199 64.3101C75.5599 64.1601 77.4199 61.0901 77.4199 61.0901L83.7199 60.8101L87.6399 64.3101L80.1699 65.3101L75.4199 64.3101Z" fill="#78421B"/>
</svg>
