<svg width="193" height="497" viewBox="0 0 193 497" fill="none" xmlns="http://www.w3.org/2000/svg">
<path d="M95.88 44L82.43 44.23C82.13 44.23 77.22 46.53 77.22 46.53L74.76 44.03L66.95 43.76C66.9 43.76 68.29 50.34 68.29 50.34L70.79 57.06L75.01 64.06H87.19L97.88 53.53L95.88 44ZM82.77 56.63C82.52 56.55 76.94 56.63 76.94 56.63L75.37 54.13H85.18C85.18 54.13 83 56.69 82.77 56.61V56.63ZM73.23 51.57L74.91 50.36C74.91 50.36 84.04 50.3 84.36 50.36C84.68 50.42 88.95 51.66 88.95 51.66L73.23 51.57Z" fill="#E4B17B"/>
<path d="M72.02 0.289993L78.72 2.17L86.67 0.289993L102.15 4.37L88.47 7.78999L75.97 7.09L72.02 0.289993Z" fill="#3F383E"/>
<path d="M190.1 219.72V220.17H175.91L184.72 166C184.72 166 190.37 188.36 190.82 189V189.14V189.19C191.33 191.82 190.1 219.72 190.1 219.72Z" fill="#827140"/>
<path d="M184.72 220.17L179.5 248.17L174.32 234.17L168.32 232.15L168.46 231.68L175.91 220.17H184.72Z" fill="#E4B37C"/>
<path d="M179.5 248.17L169.14 251.67L166.81 248.17L172.13 246.38V241.78L166.81 248.17L164.4 244.55L168.32 232.15L174.32 234.17L179.5 248.17Z" fill="#D1925E"/>
<path d="M192.17 247.04L187.43 251.67H169.14L179.5 248.17L192.17 247.04Z" fill="#9E6F5A"/>
<path d="M190.1 220.17L192.17 247.04L179.5 248.17L184.72 220.17H190.1Z" fill="#D1925E"/>
<path d="M166 103.44V103.51L152.44 122L136.91 114.72V98.92L155.49 82.59L155.82 82.64L166 103.44Z" fill="#E7C053"/>
<path d="M155.49 82.61L136.91 98.94L114.92 87.12L130.08 78.5L130.31 78.6L155.49 82.61Z" fill="#F4A54B"/>
<path d="M146 128.12C146 128.12 147.35 153.99 147.88 155.12C147.2 155.12 139.75 127.58 139.75 127.58L129.23 107.28L114.88 87.1L136.88 98.92V114.72L152.44 122L146 128.12Z" fill="#827140"/>
<path d="M105.29 67.37C100.22 69.54 83.29 77.68 82.98 77.46C82.67 77.24 75.72 71.98 71.98 69.16L82.04 72.82L103.65 62.36V66.64L105.29 67.37Z" fill="#D0A17F"/>
<path d="M103.74 56.13L103.69 62.35L82.08 72.81L72 69.16L72.7 63.42L74.57 65.69H87.24L103.74 56.13Z" fill="#BB865E"/>
<path d="M103.8 46.29L104.37 45.68L103.8 46.29L103.73 56.13L87.24 65.68L97.88 53.48C97.88 53.48 100.42 47.41 102.99 41.33C103.14 41 103.8 46.1 103.8 46.29Z" fill="#966C54"/>
<path d="M97.88 53.48L87.24 65.68H74.57L72.7 63.41L70.57 57.3L68.3 50.49L66.23 43.67L67.59 43.74L68.93 50.32L71.43 57.04L75.01 64.04H87.19L97.88 53.48Z" fill="#C7915D"/>
<path d="M110.08 29.18V39.48L103.8 46.29C103.8 46.1 103.14 40.96 102.99 41.29C105.56 35.21 108.15 29.14 108.24 29.14L110.08 29.18Z" fill="#D0A17F"/>
<path d="M107.46 13.8L106.28 28.65L96.9799 24.65L97.5999 14.32L93.0999 15.05L81.0999 18.63L67.9999 13.89L65.9099 25.5L67.1399 9.25C67.1399 9.25 78.4699 11.74 78.7199 11.74C78.9699 11.74 96.4199 10.1 96.7999 9.98C97.1799 9.86 102.32 7.81 102.61 7.52L107.46 13.8Z" fill="#22201F"/>
<path d="M93.1 15.06L90.45 24.19C90.45 24.19 78.93 29.55 78.74 29.69C78.55 29.83 70.22 25.21 69.84 25.08C69.46 24.95 68 13.89 68 13.89L80.57 18.45L93.1 15.06Z" fill="#E4B17B"/>
<path d="M108.48 29.18L102.33 31.28L97.22 32.82L94.37 29.33L91.97 26.42L96.98 24.66L106.28 28.65L106.24 29.08L108.48 29.18Z" fill="#F3EB50"/>
<path d="M102.66 31.08C102.66 31.08 97.7999 40.28 96.3399 43.14L96.0799 43.63L95.9099 43.93L82.4599 44.16C82.1599 44.16 77.2499 46.46 77.2499 46.46L74.7899 43.96L68.0099 43.69L66.2599 43.62L68.2599 39.07L75.3799 40.85L76.7999 33.8L67.2699 29.46L65.6099 25.82L65.8899 25.45L78.4099 31.89L92.1199 26.32L94.3999 29.1L80.5499 34.17L81.7499 40.85C82.0399 40.85 94.5899 40.34 94.7499 40.27C94.9099 40.2 97.2199 32.6 97.2199 32.6L102.66 31.08Z" fill="#F3EB50"/>
<path d="M76.79 33.85L75.37 40.9L74.82 34.18L67.26 29.51L76.79 33.85Z" fill="#572D83"/>
<path d="M68.2501 39.12L66.2301 43.67L63.0901 34.42V29.18L65.6001 25.87L67.2601 29.51L65.4401 33.12L67.1101 38.84L68.2501 39.12Z" fill="#F3EB50"/>
<path d="M94.39 29.15L83.84 33.98L81.74 40.9L80.54 34.22L94.39 29.15Z" fill="#572D83"/>
<path d="M108.48 29.18C108.23 29.54 105.73 35.41 103.24 41.31L103.13 41.58C100.9 46.82 98.5701 52.03 98.0001 53.22C98.0001 53.22 97.9501 53.37 97.9301 53.41C97.9134 53.4502 97.8857 53.4849 97.8501 53.51L95.8501 43.96V43.91C95.8501 43.91 95.9501 43.75 96.0201 43.61L96.2801 43.12C97.8101 40.27 102.6 31.06 102.6 31.06L108.11 29.26L108.41 29.16L108.48 29.18Z" fill="#F3EB50"/>
<path d="M139.79 127.6L129.27 107.3L122.91 122C122.91 122 107.84 130.81 107.47 131.18C107.1 131.55 79.0601 125.57 79.0601 125.57L80.9101 101.85L89.3401 85.47L81.0001 90.56C81.0001 90.56 73.3701 86.63 72.7601 85.96L78.4401 102.96L74.61 126.1L50.5101 132.63L37.3 123.5L49.8201 139.37L66.8201 133.19L52.4101 146.71L54.7901 182.39C54.7901 182.39 64.7901 203.79 65.2601 204.1C65.7301 204.41 90.9401 204.1 90.9401 204.1L108.85 177.94L123.51 171.16C123.51 171.03 123.51 170.97 123.51 170.97L139.79 127.6ZM99.3201 186.82L96.0001 191.7L77.36 193.93V134.62L100.77 145.67L97.0601 159.57L99.3201 186.82ZM84.2301 133.22C84.2301 133.22 109.73 137.94 110.43 137.77C111.13 137.6 131.63 121.29 132.28 120.77L112.51 145.66L84.2301 133.22Z" fill="#E7C053"/>
<path d="M132.28 120.78L112.51 145.67L84.23 133.22C84.23 133.22 109.73 137.94 110.43 137.77C111.13 137.6 131.63 121.29 132.28 120.78Z" fill="#827140"/>
<path d="M78.4399 102.94L74.6099 126.08L50.5099 132.61L37.2999 123.48L36.4299 106.45L52.0799 87.12L78.4399 102.94Z" fill="#F3EB50"/>
<path d="M52.0801 87.12L31.0801 102.94L22.3401 96.46L31.1401 81.78L47.8501 80.88L48.4001 80.63C49.7301 82.64 52.0801 87.12 52.0801 87.12Z" fill="#F4A54B"/>
<path d="M25.2699 123L25.3199 122.85L22.3799 96.46L31.1199 102.94L37.2999 123.48L25.2699 123Z" fill="#E7C053"/>
<path d="M53.5 208.19L66.26 234.19L65.08 232.33L64.6 231.57L64.33 231.15L63.75 230.23L63.1 229.23L62.76 228.69L61.67 226.98L60.5 225.13L59.69 223.84L58.85 222.52L58.42 221.85L57.59 220.54L56.2 218.37L55.4 217.08L54.55 215.74C50.75 209.74 47.5 204.54 47.44 204.28L51.51 180.94C51.51 180.94 47.62 146.89 47.83 143.3C46.9 145.82 38.08 163.3 37.34 164.8L18.49 155.39L38.34 145.72L37.34 123.53L49.86 139.4L66.86 133.22L52.45 146.74L54.84 182.42L53.5 208.19Z" fill="#827140"/>
<path d="M18.49 155.34L19.31 184.9L8.54004 220.58L2.29004 217.01L11.54 166.66L18.49 155.34Z" fill="#F3EB50"/>
<path d="M37.29 164.85L35.81 178.63L14.48 220.85L8.54004 220.58L19.31 184.9L37.29 164.85Z" fill="#827140"/>
<path d="M13.45 236.59L3.83997 250.11L0.47998 235.74L2.28998 217.01L8.53998 220.58L13.45 236.59Z" fill="#D2935C"/>
<path d="M22.28 233.17L13.45 236.59L8.54004 220.58L14.48 220.85L22.16 232.81L22.28 233.17Z" fill="#E5B47E"/>
<path d="M25.7599 243.42L22.1599 246.13L13.45 236.59L22.2799 233.17L25.7599 243.42Z" fill="#CF975D"/>
<path d="M22.1601 246.13L19.9701 250.25L19.2201 251.67L3.86008 250.19L3.84009 250.11L13.4501 236.59L22.1601 246.13Z" fill="#9D6D5F"/>
<path d="M126.14 195.65L100.8 218.87L90.7199 234.17C90.1999 233.47 113.03 200.66 112.51 200.17C111.99 199.68 108.89 177.94 108.89 177.94L123.55 171.16C123.79 173.35 126.02 194.27 126.02 195.16C126.051 195.325 126.091 195.489 126.14 195.65Z" fill="#827140"/>
<path d="M66.2701 234.17L58.8301 291.87L35.8301 270.97L47.4601 204.24C47.6001 204.85 65.7101 233.24 66.2801 234.15L66.2701 234.17Z" fill="#F3EB50"/>
<path d="M143 251.67L141 315C141 315 131.54 326.47 128 331.53C130.59 325.75 136 311.28 136 311.01C136 310.74 122.76 293.34 121.31 289.79C121.41 289.37 121.41 289.14 121.31 289.16C121.21 289.18 121.19 289.41 121.31 289.79C120.31 294.08 108.82 318.95 107.89 320.96L107.82 321.1C100.33 295.69 90.26 261.72 90.26 261.72L86.88 299.42C86.88 299.42 80.82 325.72 80.77 326.29L74.38 330.29L63.48 337.18C62.68 337.71 74.04 315.54 74.04 315.54L58.98 291.85L66.41 234.15C66.41 234.15 90.87 234.83 90.87 234.15L121.3 287.79L143 251.67Z" fill="#827140"/>
<path d="M58.83 291.87L49.0201 326.52L35.8101 270.97L58.83 291.87Z" fill="#827140"/>
<path d="M80.1899 349.55L65.1899 364.38L45.1899 340.06L48.5299 328.24L48.7999 327.3L49.0199 326.52L58.8299 291.87L73.8999 315.56C73.8999 315.56 62.5399 337.73 63.3399 337.2C64.1399 336.67 80.6299 326.29 80.6299 326.29C80.8599 325.62 80.1899 349.55 80.1899 349.55Z" fill="#FDC050"/>
<path d="M86.7299 387.7L65.1899 364.38L80.1899 349.55L86.7299 387.7Z" fill="#F4A54B"/>
<path d="M86.7299 387.7L67.0899 460.18L65.1899 364.38L86.7299 387.7Z" fill="#E7C053"/>
<path d="M49.2999 432.55C49.2999 432.55 49.4799 370.76 49.2499 370.09C49.0199 369.42 45.1899 340.74 45.1899 340.09L65.1899 364.41L67.0999 460.21L49.2999 432.55Z" fill="#827140"/>
<path d="M68.0001 484.11L29.8501 485.92C29.8501 485.92 20.5801 489.08 19.6801 488.85C18.7801 488.62 3.87012 486.37 3.87012 486.37L4.78012 480.73L24.5201 481.58L42.7201 482.36L60.1201 478.53C60.1201 478.53 67.5401 476.62 67.7601 476.69C67.8901 480.83 68.0001 484.11 68.0001 484.11Z" fill="#827140"/>
<path d="M67.7501 476.69C67.5301 476.62 60.11 478.53 60.11 478.53L51.3901 456.53L49.3 432.32L67.0901 460C67.2001 460 67.5401 469.59 67.7501 476.69Z" fill="#F3EB50"/>
<path d="M60.11 478.53L42.7101 482.59L24.5101 481.8L13.8201 476.69L41.05 465.92L60.11 478.53Z" fill="#E7C053"/>
<path d="M24.51 481.8L4.76001 480.73L13.81 476.69H13.82L24.51 481.8Z" fill="#F4A54B"/>
<path d="M143 251.67L121.21 287.83C120.56 287.19 132.09 215.6 132.09 215.6C136.9 231.8 143 251.67 143 251.67Z" fill="#FDC050"/>
<path d="M140.92 315C140.92 315 131.46 326.47 127.92 331.53C130.51 325.75 135.92 311.28 135.92 311.01C135.92 310.74 122.68 293.34 121.23 289.79C120.23 294.27 107.74 321.1 107.74 321.1L123.45 339L126.58 361.6L144.08 344.4L140.92 315Z" fill="#FDC050"/>
<path d="M139.59 436.05L119.47 394.49C119.47 394.49 119.47 394.06 119.37 393.31C119.43 392 126.58 369.53 126.58 369.53L115.63 348.46C115.63 348.2 112.11 336.17 107.81 321.32L123.57 339.17L126.57 361.59L161.34 431.59L163.04 464.26L139.59 436.05Z" fill="#827140"/>
<path d="M126.58 369.49C126.58 369.49 119.43 391.96 119.37 393.27C118.76 386.06 115.63 349.03 115.63 348.42L126.58 369.49Z" fill="#F4A54B"/>
<path d="M161.35 431.57L126.58 361.55L144.08 344.35L158.76 381.6L161.35 431.57Z" fill="#E7C053"/>
<path d="M168.5 477.03L144.71 469.33L140.01 436.92L139.59 436.05L163.05 464.24L168.5 477.03Z" fill="#F4A54B"/>
<path d="M173.19 488.05L148.19 487.59C148.19 487.59 144.76 477.59 144.76 477.14V469.66L144.71 469.33L168.49 477.03L173.19 488.05Z" fill="#E7C053"/>
<path d="M174.78 491.79L160.78 496.31H148.37L142.5 489.09L144.76 477.57V477.14C144.76 477.57 148.19 487.59 148.19 487.59L173.19 488.05L174.78 491.79Z" fill="#827140"/>
<path d="M184.72 166L167.6 154.8L152.44 122L166 103.51C166 104.62 166.24 117.92 166.45 118.56C166.66 119.2 173 133.24 173 133.24C173 133.24 175.93 153.34 175.93 152.66C175.93 151.98 184.72 166 184.72 166Z" fill="#827140"/>
<path d="M167.59 154.8C167.59 154.8 161.85 160.75 157.92 164.67C156.77 163.51 150 156.62 148.28 155.35C150.9 156.09 166.46 154.8 167.59 154.8Z" fill="#827140"/>
<path d="M175.91 220.17L159.43 187.17L158.08 164.81L157.92 164.63C161.85 160.71 167.59 154.76 167.59 154.76L175.91 220.17Z" fill="#F3EB50"/>
<path d="M184.72 165.98L175.91 220.17L167.59 154.8L184.72 165.98Z" fill="#E7C053"/>
<path d="M113.27 71L89.3501 85.54L81.0001 90.56C81.0001 90.56 73.3601 86.63 72.7501 85.96V85.86C73.0101 85.69 69.3601 78.32 67.0901 73.8C67.3101 73.6 69.7901 71.36 71.1401 70.07C71.6001 69.64 71.9201 69.31 72.0001 69.21C75.7001 72.03 82.7001 77.33 83.0001 77.51C83.3001 77.69 98.6201 68.85 103.68 66.69L113.27 71Z" fill="#827140"/>
<path d="M78.4401 102.94L52.0801 87.12L72.7301 85.87L72.7601 85.96L78.4401 102.94Z" fill="#F3EB50"/>
<path d="M36.4301 106.45L37.3001 123.48L31.1201 102.94L52.0801 87.12L36.4301 106.45Z" fill="#827140"/>
<path d="M38.34 145.67L18.49 155.34L20.8 136.63L25.27 123L37.3 123.48L38.34 145.67Z" fill="#F3EB50"/>
<path d="M37.34 164.75V164.85L19.34 184.85L18.52 155.29L37.34 164.75Z" fill="#E7C053"/>
<path d="M19.9699 250.25L7.16992 247.74L11.6699 243.96L22.1599 246.13" fill="#CF975D"/>
<path d="M114.92 87.12L80.9099 101.87L89.3399 85.49L114.92 87.12Z" fill="#F3EB50"/>
<path d="M129.27 107.3L122.91 122C122.91 122 107.84 130.81 107.47 131.18C107.1 131.55 79.0601 125.57 79.0601 125.57L80.9101 101.85L114.91 87.1L129.27 107.3Z" fill="#F3EB50"/>
<path d="M167.59 154.8C166.46 154.8 150.9 156.09 148.28 155.35C148.183 155.251 148.063 155.179 147.93 155.14C147.4 153.99 146.05 128.14 146.05 128.14L152.45 122.04L167.59 154.8Z" fill="#F3EB50"/>
<path d="M172.13 241.78V246.38L166.81 248.17L172.13 241.78Z" fill="#9E6F5A"/>
<path d="M97.0901 159.57L99.3201 186.82L96.0301 191.7L77.3901 193.93V134.62L100.8 145.67L97.0901 159.57Z" fill="#F3EB50"/>
<path d="M121.16 287.83L90.73 234.19L100.81 218.89L126.15 195.67C126.72 197.82 129.15 206.08 132.05 215.67C132 215.6 120.51 287.19 121.16 287.83Z" fill="#F3EB50"/>
<path d="M90.72 234.17C90.72 234.83 66.26 234.17 66.26 234.17L53.5 208.17L54.83 182.35C54.83 182.35 64.83 203.75 65.3 204.06C65.77 204.37 90.98 204.06 90.98 204.06L108.89 177.9C108.89 177.9 111.99 199.61 112.51 200.13C113.03 200.65 90.2 233.47 90.72 234.17Z" fill="#E7C053"/>
<path d="M97.5999 14.33L96.9999 24.66L92.1299 26.37L78.4199 31.94L65.8999 25.5L67.9999 13.89C67.9999 13.89 69.4899 24.96 69.8699 25.08C70.2499 25.2 78.5699 29.81 78.7699 29.69C78.9699 29.57 90.4799 24.19 90.4799 24.19L93.1299 15.06L97.5999 14.33Z" fill="#C7915D"/>
<path d="M89 51.64L86.43 52.21L74.58 51.93C74.58 51.93 73.34 51.55 73.28 51.55L74.96 50.34C74.96 50.34 84.09 50.28 84.41 50.34C84.73 50.4 89 51.64 89 51.64Z" fill="#8E5828"/>
<path d="M85.1801 54.11C85.1801 54.11 83.0101 56.69 82.7701 56.61C82.5301 56.53 76.9401 56.61 76.9401 56.61L75.3701 54.11H85.1801Z" fill="#8E5828"/>
<path d="M97.25 32.65C97.25 32.65 94.99 40.25 94.78 40.32C94.57 40.39 82.03 40.9 81.78 40.9L83.88 33.98L94.43 29.15L97.25 32.65Z" fill="white" stroke="#221F1F" stroke-linejoin="round"/>
<path d="M75.3699 40.9L68.2499 39.12L67.1099 38.84L65.4399 33.12L67.2599 29.51L74.8199 34.18L75.3699 40.9Z" fill="white" stroke="#221F1F" stroke-linejoin="round"/>
<path d="M82.0901 44.29L95.3701 45.59L97.8801 53.48L95.8801 43.98L82.4101 44.21" fill="#6A3F26"/>
<path d="M107.47 13.8L94.3899 12.8L78.7399 15.27L68.2499 12.52L67.1099 9.21001C67.1099 9.21001 67.7499 8.06 68.5599 6.58L89.9999 9.10001L102.16 4.37L107.47 13.8Z" fill="#22201F"/>
<path d="M76.1201 27.79C76.8926 28.2573 77.6906 28.6813 78.5101 29.06C78.5101 29.06 77.7901 24.14 77.6101 24.06C77.2093 23.7067 76.8442 23.3148 76.5201 22.89L76.1201 27.79Z" fill="#A36B33"/>
<path d="M79.03 29.04L80.54 26.39V28.23L79.03 29.04Z" fill="#A36B33"/>
<path d="M72.7299 85.86L52.0799 87.12C52.0799 87.12 49.7299 82.64 48.4399 80.61L65.2599 70.7L71.9899 69.15V69.2C71.9099 69.3 71.5899 69.63 71.1299 70.06C69.7799 71.35 67.2999 73.59 67.0799 73.79C69.3399 78.32 73 85.69 72.7299 85.86Z" fill="#E7C053"/>
<path d="M52.0799 78.47L31.1799 81.76L52.0799 81.46V78.47Z" fill="#827140"/>
<path d="M97.0901 159.57L77.3901 156.08L76.0701 160.58L97.2301 161.29L99.1201 160.22L97.0901 159.57Z" fill="#E7C053"/>
<path d="M173 133.24L167.62 132.59L166.45 118.59C166.66 119.24 173 133.24 173 133.24Z" fill="#F4A54B"/>
<path d="M53.5001 208.19L66.2601 234.19L65.08 232.33L64.6001 231.57L64.33 231.15L63.7501 230.23L63.1001 229.23L62.7601 228.69L61.6701 226.98L60.5001 225.13L59.6901 223.84L58.8501 222.52L58.4201 221.85L57.5901 220.54L56.2001 218.37L55.4001 217.08L54.55 215.74C50.75 209.74 47.5001 204.54 47.4401 204.28L51.5101 180.94C51.5101 180.94 47.62 146.89 47.83 143.3L37.3 123.48L49.8201 139.35L66.8201 133.17L52.4101 146.69L54.8 182.37L53.5001 208.19Z" fill="#827140"/>
<path d="M95.7501 191.74L89.5701 200.58L77.3901 201.52V193.93C77.3901 193.93 84.3901 185.25 84.6901 185.12C84.9901 184.99 95.7501 191.74 95.7501 191.74Z" fill="#E7C053"/>
<path d="M102.15 4.37V9.25L78.6299 13.89L67.1099 9.25C67.1099 9.25 67.7499 8.1 68.5599 6.62C69.9799 4.04 71.9599 0.459993 72.0199 0.289993C72.0199 0.639993 79.3899 5.2 79.3899 5.2L83.3899 2.67999L86.6999 4.37H102.15Z" fill="#22201F"/>
<path d="M97.6 14.33C97.6 14.33 101.89 12.02 101.85 12.18C101.81 12.34 100.22 26.05 100.22 26.05L97 24.66L97.6 14.33Z" fill="#3F383E"/>
<path d="M109.06 31.49V39.12L105.96 42.68L109.06 31.49Z" fill="#AB8569"/>
<path d="M105.96 42.68L104.04 42.52L109.06 31.49L108.48 37.08L105.96 42.68Z" fill="#AB8569"/>
<path d="M80.5401 17.82C80.5401 17.62 70.1401 10.03 70.1401 10.03C70.1401 10.03 71.8401 1.03 72.0201 1.33C72.2001 1.63 78.5101 9.05999 78.5101 9.05999L80.5401 17.82Z" fill="#3F383E"/>
<path d="M66.23 43.67L74.57 44.92C74.57 44.92 77.38 46.67 77.22 46.51L74.76 44.01L66.23 43.67Z" fill="#6A3F26"/>
<path d="M130.08 78.5L114.93 87.12L89.3501 85.49L111.63 71.94L103.66 66.64L114.14 69.74L130.08 78.5Z" fill="#E7C053"/>
<path d="M130.31 137C130.13 137.43 117.43 147.52 117.43 147.52L116.54 153.95L130.31 137Z" fill="#827140"/>
<path d="M129.57 144.29C129.44 144.73 118.5 157.57 118.5 157.57L118.17 163.07L129.57 144.29Z" fill="#827140"/>
<path d="M129.27 107.3L135.66 128.1L123.55 171.14L139.79 127.6L129.27 107.3Z" fill="#F4A54B"/>
<path d="M74.6999 142.22C75.0599 143.1 73.9999 154.97 73.9999 154.97L62.3799 155.72L64.8299 144.49L74.6999 142.22Z" fill="#F3EB50"/>
<path d="M74.34 167.54L73.99 192.44L62.48 188.72L64.46 169.81L74.34 167.54Z" fill="#F3EB50"/>
<path d="M107.75 321L107.68 321.14C100.19 295.73 90.12 261.76 90.12 261.76L86.74 299.46C86.74 299.46 80.68 325.76 80.63 326.33L74.24 330.33L80.67 309.39L89.1 258.39L81.67 254.93L78.51 246.13L85.21 251.72H93.42C93.42 251.72 95.27 260.33 95.75 261.2C96.23 262.07 106.83 316.3 107.75 321Z" fill="#F4A54B"/>
<path d="M41.05 465.92L51.3901 456.54C51.3901 456.54 60.6801 479.35 60.1201 478.76C59.5601 478.17 41.05 465.92 41.05 465.92Z" fill="#F4A54B"/>
<path d="M190.1 219.72V220.17H175.91L190.82 189V189.14V189.19C191.33 191.82 190.1 219.72 190.1 219.72Z" fill="#827140"/>
<path d="M75 64C75.13 63.85 77 60.78 77 60.78L83.31 60.5L87.22 64L79.76 65L75 64Z" fill="#C7915D"/>
</svg>
