<svg width="193" height="497" viewBox="0 0 193 497" fill="none" xmlns="http://www.w3.org/2000/svg">
<path d="M96.2801 43.78L82.8401 44.01C82.5401 44.01 77.6201 46.31 77.6201 46.31L75.1601 43.81L67.3501 43.54L68.7001 50.12L71.1901 56.84L75.4101 63.84H87.5901L98.2801 53.31L96.2801 43.78ZM83.1701 56.41C82.9201 56.33 77.3501 56.41 77.3501 56.41L75.7701 53.91H85.5801C85.5801 53.91 83.4201 56.49 83.1701 56.41V56.41ZM73.6401 51.3501L75.3201 50.14C75.3201 50.14 84.4401 50.08 84.7601 50.14C85.0801 50.2 89.3601 51.44 89.3601 51.44L73.6401 51.3501Z" fill="#A6662F"/>
<path d="M72.4299 0.0900879L79.1199 1.97009L87.0699 0.0900879L102.55 4.17009L88.8699 7.59009L76.3699 6.89009L72.4299 0.0900879Z" fill="#3F383E"/>
<path d="M190.5 219.52V220H176.32L185.12 165.81C185.12 165.81 190.77 188.17 191.23 188.81V188.96C191.73 191.62 190.5 219.52 190.5 219.52Z" fill="#5A5755"/>
<path d="M185.12 219.97L179.9 247.97L174.72 233.97L168.72 231.95L168.87 231.48L176.31 219.97H185.12Z" fill="#A4682F"/>
<path d="M179.9 247.97L169.54 251.47L167.21 247.97L172.53 246.18V241.58L167.21 247.97L164.81 244.35L168.72 231.95L174.72 233.97L179.9 247.97Z" fill="#85491F"/>
<path d="M192.57 246.84L187.84 251.47H169.54L179.9 247.97L192.57 246.84Z" fill="#4B1D11"/>
<path d="M190.5 219.97L192.57 246.84L179.9 247.97L185.12 219.97H190.5Z" fill="#85491F"/>
<path d="M166.38 103.24V103.31L152.84 121.82L137.31 114.54V98.7399L155.9 82.4099H156.23L166.38 103.24Z" fill="#29272C"/>
<path d="M155.9 82.4101L137.31 98.7401L115.33 86.9201L130.48 78.3L130.71 78.4001L155.9 82.4101Z" fill="#C7C6C1"/>
<path d="M146.45 127.92C146.45 127.92 147.79 153.79 148.32 154.92C147.64 154.92 140.19 127.38 140.19 127.38L129.67 107.08L115.33 86.8999L137.33 98.7199V114.52L152.86 121.8L146.45 127.92Z" fill="#5A5755"/>
<path d="M105.69 67.1699C100.63 69.3399 83.6901 77.4799 83.3901 77.2599C83.0901 77.0399 76.1301 71.7799 72.3901 68.9699L82.4501 72.6199L104.06 62.1599V66.4399L105.69 67.1699Z" fill="#70411E"/>
<path d="M104.14 55.9299V62.1499L82.5299 72.6099L72.4299 68.9999L73.1199 63.2599L74.9999 65.5199H87.67L104.14 55.9299Z" fill="#622F13"/>
<path d="M104.2 46.0899L104.77 45.4799L104.2 46.0899L104.14 55.9299L87.6401 65.4799L98.2801 53.2799C98.2801 53.2799 100.82 47.2099 103.39 41.1299C103.55 40.7699 104.2 45.8999 104.2 46.0899Z" fill="#471E12"/>
<path d="M98.2799 53.28L87.6399 65.48H74.9999L73.1299 63.22L70.9999 57.1L68.7399 50.29L66.6599 43.47L68.0199 43.54L69.3599 50.12L71.8599 56.84L75.4399 63.84H87.6199L98.2799 53.28Z" fill="#78421B"/>
<path d="M110.49 29V39.3L104.2 46.11C104.2 45.92 103.55 40.79 103.39 41.11C105.96 35.03 108.55 28.96 108.64 28.96L110.49 29Z" fill="#70411E"/>
<path d="M107.87 13.6001L106.69 28.4501L97.38 24.4501L98 14.1201L93.51 14.8601L81.46 18.4301L68.37 13.6901L66.28 25.2901L67.51 9.04005C67.51 9.04005 78.84 11.5301 79.1 11.5301C79.36 11.5301 96.79 9.89007 97.18 9.77007C97.57 9.65007 102.7 7.60006 102.99 7.31006L107.87 13.6001Z" fill="#22201F"/>
<path d="M93.5101 14.8699L90.8601 24C90.8601 24 79.3301 29.36 79.1401 29.5C78.9501 29.64 70.6201 25.02 70.2401 24.89C69.8601 24.76 68.3701 13.71 68.3701 13.71L80.9401 18.27L93.5101 14.8699Z" fill="#A6662F"/>
<path d="M108.88 28.9799L102.74 31.08L97.6301 32.6199L94.7701 29.13L92.3701 26.22L97.3801 24.46L106.69 28.45L106.64 28.88L108.88 28.9799Z" fill="#A1A0A0"/>
<path d="M103.06 30.8801C103.06 30.8801 98.2 40.08 96.74 42.94C96.64 43.14 96.55 43.29 96.48 43.43C96.41 43.57 96.35 43.68 96.32 43.73V43.78L82.88 44.01C82.58 44.01 77.66 46.31 77.66 46.31L75.2 43.81L68.42 43.54L66.67 43.47L68.67 38.92L75.79 40.7L77.21 33.7L67.68 29.36L66 25.67L66.28 25.3L78.81 31.75L92.51 26.17L94.79 28.9601L80.94 34L82.14 40.68C82.43 40.68 94.98 40.1801 95.19 40.1001C95.4 40.0201 97.65 32.43 97.65 32.43L103.06 30.8801Z" fill="#29272C"/>
<path d="M77.1899 33.6501L75.7699 40.7001L75.2199 33.9801L67.6599 29.3101L77.1899 33.6501Z" fill="#29272C"/>
<path d="M68.65 38.9199L66.63 43.4699L63.5 34.2199V28.9799L66 25.6699L67.66 29.3099L65.85 32.9199L67.51 38.6399L68.65 38.9199Z" fill="#A1A0A0"/>
<path d="M94.7899 28.96L84.2499 33.78L82.14 40.7L80.9399 34.02L94.7899 28.96Z" fill="#29272C"/>
<path d="M108.88 29C108.64 29.36 106.13 35.23 103.64 41.13L103.53 41.4C101.3 46.64 98.97 51.85 98.4 53.04C98.4 53.04 98.4 53.19 98.34 53.24C98.3159 53.2754 98.2854 53.3059 98.25 53.33L96.25 43.78V43.73L96.41 43.43C96.48 43.29 96.57 43.14 96.67 42.94C98.2 40.09 102.99 30.88 102.99 30.88L108.5 29.08L108.8 28.98L108.88 29Z" fill="#5A5755"/>
<path d="M140.19 127.4L129.67 107.1L123.31 121.82C123.31 121.82 108.24 130.63 107.88 131.01C107.52 131.39 79.4599 125.39 79.4599 125.39L81.3099 101.67L89.7499 85.29L81.4099 90.36C81.4099 90.36 73.7699 86.43 73.1599 85.76L78.8399 102.76L74.9999 125.88L50.8999 132.41L37.6799 123.28L50.2 139.15L67.2 132.97L52.7899 146.49L55.17 182.17C55.17 182.17 65.1699 203.57 65.6299 203.88C66.0899 204.19 91.3099 203.88 91.3099 203.88L109.23 177.73L124 170.94C124 170.81 124 170.75 124 170.75L140.19 127.4ZM99.7199 186.62L96.4299 191.5L77.7899 193.73V134.42L101.21 145.47L97.4999 159.37L99.7199 186.62ZM84.6299 133C84.6299 133 110.14 137.73 110.83 137.55C111.52 137.37 132.04 121.07 132.68 120.55L112.91 145.44L84.6299 133Z" fill="#40403E"/>
<path d="M132.68 120.58L112.91 145.47L84.6299 133C84.6299 133 110.14 137.73 110.83 137.55C111.52 137.37 132 121.09 132.68 120.58Z" fill="#29272C"/>
<path d="M78.8401 102.74L75.0101 125.88L50.9201 132.41L37.7001 123.28L36.8301 106.25L52.4801 86.9199L78.8401 102.74Z" fill="#A1A0A0"/>
<path d="M52.48 86.92L31.48 102.74L22.74 96.2599L31.55 81.5799L48.26 80.6799L48.81 80.4299C50.13 82.4399 52.48 86.92 52.48 86.92Z" fill="#C7C6C1"/>
<path d="M25.67 122.8L25.72 122.65L22.78 96.26L31.52 102.74L37.7 123.28L25.67 122.8Z" fill="#40403E"/>
<path d="M53.8999 208L66.67 234L65.4899 232.14L64.9999 231.38L64.7299 230.96L64.1499 230.04L63.5099 229.04L63.17 228.5L62.0799 226.79L60.9099 224.94L60.0899 223.65L59.2499 222.33L58.8199 221.66L57.9999 220.3L56.6099 218.13L55.7999 216.84L54.9999 215.5C51.2099 209.5 47.95 204.3 47.89 204.04L51.9599 180.7C51.9599 180.7 48.0699 146.7 48.2899 143.06C47.3499 145.58 38.5399 163.06 37.7899 164.56L18.9399 155.15L38.7999 145.48L37.7499 123.29L50.2799 139.16L67.2799 132.98L52.8699 146.5L55.2499 182.18L53.8999 208Z" fill="#5A5755"/>
<path d="M18.89 155.14L19.7099 184.7L8.93994 220.38L2.68994 216.81L11.9399 166.46L18.89 155.14Z" fill="#C7C6C1"/>
<path d="M37.6899 164.65L36.2199 178.43L14.89 220.65L8.93994 220.38L19.7099 184.7L37.6899 164.65Z" fill="#5A5755"/>
<path d="M13.8499 236.39L4.24988 249.91L0.879883 235.54L2.68988 216.81L8.93988 220.38L13.8499 236.39Z" fill="#874A20"/>
<path d="M22.6899 232.98L13.8499 236.39L8.93994 220.38L14.89 220.65L22.5599 232.61L22.6899 232.98Z" fill="#A76931"/>
<path d="M26.1701 243.22L22.5601 245.94L13.8501 236.39L22.6901 232.98L26.1701 243.22Z" fill="#804A1F"/>
<path d="M22.56 245.94L20.38 250.05L19.62 251.47L4.26999 250L4.25 249.91L13.85 236.39L22.56 245.94Z" fill="#471914"/>
<path d="M126.55 195.45L101.21 218.67L91.1301 234C90.6101 233.31 113.43 200.5 112.91 200C112.39 199.5 109.3 177.78 109.3 177.78L124 170.94C124.23 173.14 126.46 194.05 126.46 194.94C126.478 195.112 126.508 195.282 126.55 195.45V195.45Z" fill="#5A5755"/>
<path d="M66.68 234L59.24 291.7L36.24 270.8L47.84 204C47.99 204.61 66.1 233 66.67 233.91L66.68 234Z" fill="#C7C6C1"/>
<path d="M143.35 251.47L141.35 314.8C141.35 314.8 131.89 326.27 128.35 331.33C130.94 325.55 136.35 311.08 136.35 310.81C136.35 310.54 123.11 293.15 121.65 289.59C121.75 289.17 121.75 288.94 121.65 288.96C121.55 288.98 121.53 289.21 121.65 289.59C120.65 293.88 109.16 318.76 108.23 320.77L108.17 320.9C100.68 295.49 90.61 261.52 90.61 261.52L87.2201 299.22C87.2201 299.22 81.1701 325.52 81.1201 326.09C81.1201 326.09 78.1801 327.95 74.7201 330.09C69.9901 333.09 64.28 336.68 63.83 336.98C63.03 337.51 74.3801 315.34 74.3801 315.34L59.3201 291.65L66.7601 233.95C66.7601 233.95 91.2201 234.63 91.2201 233.95L121.64 287.59L143.35 251.47Z" fill="#5A5755"/>
<path d="M59.24 291.68L49.43 326.32L36.22 270.77L59.24 291.68Z" fill="#5A5755"/>
<path d="M80.5901 349.35L65.5901 364.18L45.5901 339.86L48.9301 328L49.2001 327.07L49.4301 326.28L59.2401 291.63L74.3001 315.32C74.3001 315.32 63.0001 337.53 63.7401 337C64.4801 336.47 81.0001 326.09 81.0001 326.09C81.2601 325.42 80.5901 349.35 80.5901 349.35Z" fill="#40403E"/>
<path d="M87.1401 387.5L65.5901 364.18L80.5901 349.35L87.1401 387.5Z" fill="#C7C6C1"/>
<path d="M87.1401 387.5L67.4901 459.98L65.5901 364.18L87.1401 387.5Z" fill="#29272C"/>
<path d="M49.7101 432.35C49.7101 432.35 49.8801 370.57 49.6501 369.89C49.4201 369.21 45.5901 340.54 45.5901 339.89L65.5901 364.21L67.4901 460.01L49.7101 432.35Z" fill="#5A5755"/>
<path d="M68.4 483.91L30.24 485.72C30.24 485.72 20.98 488.88 20.08 488.65C19.18 488.42 4.27002 486.17 4.27002 486.17L5.17004 480.53L24.91 481.38L43.12 482.16L60.51 478.33C60.51 478.33 67.93 476.42 68.16 476.49C68.29 480.63 68.4 483.91 68.4 483.91Z" fill="#40403E"/>
<path d="M68.16 476.49C67.93 476.42 60.51 478.33 60.51 478.33L51.8 456.33L49.71 432.12L67.49 459.75C67.61 459.76 67.94 469.39 68.16 476.49Z" fill="#40403E"/>
<path d="M60.51 478.33L43.12 482.39L24.91 481.61L14.22 476.49L41.45 465.72L60.51 478.33Z" fill="#C7C6C1"/>
<path d="M24.9099 481.61L5.16992 480.53L14.2099 476.49H14.2199L24.9099 481.61Z" fill="#29272C"/>
<path d="M143.35 251.47L121.56 287.63C120.91 286.99 132.44 215.4 132.44 215.4C137.3 231.6 143.35 251.47 143.35 251.47Z" fill="#40403E"/>
<path d="M141.32 314.8C141.32 314.8 131.86 326.27 128.32 331.33C130.91 325.55 136.32 311.08 136.32 310.81C136.32 310.54 123 293.15 121.57 289.59C120.57 294.07 108.08 320.9 108.08 320.9L123.85 338.75L127 361.36L144.5 344.15L141.32 314.8Z" fill="#40403E"/>
<path d="M140 435.85L119.88 394.29C119.88 394.29 119.88 393.87 119.78 393.11C119.84 391.8 126.99 369.33 126.99 369.33L115.99 348.26C115.99 348 112.47 335.97 108.17 321.13L124 338.94L127 361.36L161.77 431.36L163.47 464.03L140 435.85Z" fill="#5A5755"/>
<path d="M127 369.29C127 369.29 119.85 391.76 119.79 393.07C119.18 385.86 116.05 348.83 116.05 348.22L127 369.29Z" fill="#C7C6C1"/>
<path d="M161.75 431.37L126.98 361.36L144.48 344.15L159.16 381.4L161.75 431.37Z" fill="#29272C"/>
<path d="M168.9 476.83L145.11 469.13L140.42 436.73L139.99 435.86L163.45 464.04L168.9 476.83Z" fill="#40403E"/>
<path d="M173.59 487.85L148.59 487.4C148.59 487.4 145.16 477.4 145.16 476.94V469.46L145.11 469.13L168.9 476.83L173.59 487.85Z" fill="#C7C6C1"/>
<path d="M175.19 491.59L161.19 496.11H148.77L142.9 488.89L145.16 477.37V476.94C145.16 477.37 148.59 487.4 148.59 487.4L173.59 487.85L175.19 491.59Z" fill="#40403E"/>
<path d="M185.12 165.78L168 154.6L152.84 121.82L166.38 103.31C166.38 104.42 166.62 117.72 166.84 118.36C167.06 119 173.39 133 173.39 133C173.39 133 176.32 153.1 176.32 152.42C176.32 151.74 185.12 165.78 185.12 165.78Z" fill="#5A5755"/>
<path d="M168 154.6C168 154.6 162.26 160.55 158.32 164.47C157.17 163.31 150.4 156.42 148.69 155.15C151.31 155.89 166.87 154.6 168 154.6Z" fill="#40403E"/>
<path d="M176.32 220L159.83 187L158.49 164.64C158.429 164.584 158.372 164.524 158.32 164.46C162.26 160.54 168 154.59 168 154.59L176.32 220Z" fill="#C7C6C1"/>
<path d="M185.12 165.78L176.31 219.97L168 154.6L185.12 165.78Z" fill="#40403E"/>
<path d="M113.67 70.75L89.75 85.29L81.41 90.36C81.41 90.36 73.77 86.43 73.16 85.76V85.67C73.42 85.49 69.77 78.12 67.5 73.6C67.71 73.4 70.19 71.16 71.55 69.87C72 69.44 72.32 69.11 72.41 69.01C76.11 71.82 83.1 77.12 83.41 77.3C83.72 77.48 99.02 68.64 104.09 66.48L113.67 70.75Z" fill="#5A5755"/>
<path d="M78.84 102.74L52.48 86.9199L73.13 85.6699L73.16 85.7599L78.84 102.74Z" fill="#C7C6C1"/>
<path d="M36.83 106.25L37.7 123.28L31.52 102.74L52.48 86.9199L36.83 106.25Z" fill="#5A5755"/>
<path d="M38.7501 145.47L18.8901 155.14L21.2001 136.43L25.6701 122.8L37.7001 123.28L38.7501 145.47Z" fill="#C7C6C1"/>
<path d="M37.7401 164.55L37.6901 164.65L19.6901 184.7L18.8701 155.14L37.7401 164.55Z" fill="#40403E"/>
<path d="M20.3801 250.05L7.57007 247.54L12.0701 243.76L22.5601 245.94" fill="#804A1F"/>
<path d="M115.33 86.92L81.3101 101.67L89.7501 85.29L115.33 86.92Z" fill="#C7C6C1"/>
<path d="M129.67 107.1L123.31 121.82C123.31 121.82 108.24 130.63 107.88 131.01C107.52 131.39 79.46 125.39 79.46 125.39L81.31 101.67L115.31 86.9199L129.67 107.1Z" fill="#A1A0A0"/>
<path d="M168 154.6C166.87 154.6 151.31 155.89 148.69 155.15C148.59 155.055 148.471 154.984 148.34 154.94C147.81 153.79 146.47 127.94 146.47 127.94L152.86 121.84L168 154.6Z" fill="#C7C6C1"/>
<path d="M172.53 241.58V246.18L167.21 247.97L172.53 241.58Z" fill="#4B1D11"/>
<path d="M97.5 159.37L99.72 186.62L96.43 191.5L77.79 193.73V134.42L101.2 145.47L97.5 159.37Z" fill="#A1A0A0"/>
<path d="M121.56 287.63L91.1401 234L101.22 218.7L126.56 195.48C127.13 197.64 129.56 205.89 132.45 215.43C132.44 215.4 120.91 287 121.56 287.63Z" fill="#C7C6C1"/>
<path d="M91.1299 234C91.1299 234.66 66.6699 234 66.6699 234L53.8999 208L55.2399 182.18C55.2399 182.18 65.2399 203.58 65.6999 203.89C66.1599 204.2 91.3799 203.89 91.3799 203.89L109.3 177.74C109.3 177.74 112.39 199.44 112.91 199.96C113.43 200.48 90.6099 233.28 91.1299 234Z" fill="#29272C"/>
<path d="M98 14.13L97.38 24.46L92.51 26.17L78.81 31.75L66.28 25.3L68.37 13.7C68.37 13.7 69.87 24.76 70.24 24.88C70.61 25 78.95 29.61 79.14 29.49C79.33 29.37 90.86 23.99 90.86 23.99L93.51 14.8699L98 14.13Z" fill="#83491F"/>
<path d="M89.3601 51.44L86.7901 52.0099L74.9301 51.7299C74.9301 51.7299 73.6901 51.35 73.6401 51.35L75.3201 50.1399C75.3201 50.1399 84.4401 50.0799 84.7601 50.1399C85.0801 50.1999 89.3601 51.44 89.3601 51.44Z" fill="#8E5828"/>
<path d="M85.58 53.9099C85.58 53.9099 83.42 56.4899 83.17 56.4099C82.92 56.3299 77.35 56.4099 77.35 56.4099L75.77 53.9099H85.58Z" fill="#8E5828"/>
<path d="M97.6501 32.45C97.6501 32.45 95.3901 40.05 95.1901 40.12C94.9901 40.19 82.4301 40.7 82.1401 40.7L84.2501 33.78L94.7901 29L97.6501 32.45Z" fill="white" stroke="#221F1F" stroke-linejoin="round"/>
<path d="M75.7701 40.7001L68.6501 38.9201L67.5101 38.6401L65.8501 32.9201L67.6601 29.3101L75.2201 33.9801L75.7701 40.7001Z" fill="white" stroke="#221F1F" stroke-linejoin="round"/>
<path d="M82.49 44.09L95.77 45.39L98.28 53.28L96.28 43.78L82.81 44.01" fill="#6A3F26"/>
<path d="M107.87 13.5999L94.79 12.5999L79.14 15.0699L68.66 12.3199L67.52 9.00987L68.97 6.37988L90.39 8.85988L102.55 4.12988L107.87 13.5999Z" fill="#22201F"/>
<path d="M76.53 27.5899C77.3014 28.0592 78.0994 28.4833 78.92 28.8599C78.92 28.8599 78.19 23.9399 78.01 23.8599C77.6092 23.5067 77.2441 23.1148 76.92 22.6899L76.53 27.5899Z" fill="#A36B33"/>
<path d="M79.4399 28.8399L80.9399 26.1899V28.0299L79.4399 28.8399Z" fill="#A36B33"/>
<path d="M73.1301 85.67L52.4801 86.92C52.4801 86.92 50.1301 82.44 48.8501 80.41L65.6601 70.5L72.4001 69C72.3101 69.1 71.9901 69.43 71.5401 69.86C70.1801 71.15 67.7001 73.39 67.4901 73.59C69.7401 78.12 73.3901 85.49 73.1301 85.67Z" fill="#40403E"/>
<path d="M52.4801 78.27L31.5901 81.56L52.4801 81.26V78.27Z" fill="#40403E"/>
<path d="M97.5 159.37L77.79 155.89L76.48 160.38L97.64 161.09L99.53 160.02L97.5 159.37Z" fill="#5A5755"/>
<path d="M173.39 133L168 132.35L166.84 118.35C167.07 119.05 173.39 133 173.39 133Z" fill="#40403E"/>
<path d="M53.8999 208L66.67 234L65.4899 232.14L64.9999 231.38L64.7299 230.96L64.1499 230.04L63.5099 229.04L63.17 228.5L62.0799 226.79L60.9099 224.94L60.0899 223.65L59.2499 222.33L58.8199 221.66L57.9999 220.3L56.6099 218.13L55.7999 216.84L54.9999 215.5C51.2099 209.5 47.95 204.3 47.89 204.04L51.9599 180.7C51.9599 180.7 48.0699 146.7 48.2899 143.06L37.7 123.28L50.2299 139.15L67.2299 132.97L52.8199 146.49L55.2 182.17L53.8999 208Z" fill="#5A5755"/>
<path d="M96.1501 191.54L90.0001 200.39L77.8101 201.32V193.73C77.8101 193.73 84.81 185.05 85.11 184.92C85.41 184.79 96.1501 191.54 96.1501 191.54Z" fill="#5A5755"/>
<path d="M102.55 4.17009V9.05009L79 13.7001L67.48 9.05009L68.93 6.42009C70.35 3.84009 72.32 0.260088 72.39 0.0900879C72.39 0.440088 79.75 5.00009 79.75 5.00009L83.75 2.4901L87.07 4.17009H102.55Z" fill="#22201F"/>
<path d="M97.9999 14.1301C97.9999 14.1301 102.29 11.8201 102.25 11.9801C102.21 12.1401 100.63 25.8501 100.63 25.8501L97.3799 24.4601L97.9999 14.1301Z" fill="#3F383E"/>
<path d="M109.46 31.29V38.92L106.36 42.48L109.46 31.29Z" fill="#5C3412"/>
<path d="M106.36 42.48L104.45 42.3201L109.46 31.29L108.88 36.8801L106.36 42.48Z" fill="#5C3412"/>
<path d="M80.94 17.6199C80.94 17.4299 70.54 9.82989 70.54 9.82989C70.54 9.82989 72.24 0.829895 72.43 1.1299C72.62 1.4299 78.92 8.85989 78.92 8.85989L80.94 17.6199Z" fill="#3F383E"/>
<path d="M66.6299 43.47L74.9699 44.72C74.9699 44.72 77.7899 46.48 77.6199 46.31L75.1599 43.81L66.6299 43.47Z" fill="#6A3F26"/>
<path d="M130.48 78.2999L115.33 86.92L89.75 85.2899L112.03 71.7399L104.07 66.4399L114.54 69.5399L130.48 78.2999Z" fill="#40403E"/>
<path d="M130.71 136.79C130.53 137.22 117.83 147.31 117.83 147.31L116.94 153.74L130.71 136.79Z" fill="#29272C"/>
<path d="M130 144.09C129.87 144.53 118.93 157.37 118.93 157.37L118.6 162.87L130 144.09Z" fill="#29272C"/>
<path d="M129.68 107.1L136.06 127.9L123.96 170.94L140.19 127.4L129.68 107.1Z" fill="#29272C"/>
<path d="M75.11 142C75.46 142.88 74.4 154.75 74.4 154.75L62.78 155.5L65.23 144.27L75.11 142Z" fill="#A1A0A0"/>
<path d="M74.7399 167.34L74.3899 192.24L62.8799 188.52L64.8699 169.62L74.7399 167.34Z" fill="#A1A0A0"/>
<path d="M108.15 320.77L108.09 320.9C100.6 295.49 90.5301 261.52 90.5301 261.52L87.1401 299.22C87.1401 299.22 81.0901 325.52 81.0401 326.09C81.0401 326.09 78.1001 327.95 74.6401 330.09L81.0801 309.15L89.5001 258.15L82.0701 254.69L78.9101 245.9L85.6201 251.48H93.8201C93.8201 251.48 95.6701 260.09 96.1501 260.96C96.6301 261.83 107.24 316.1 108.15 320.77Z" fill="#29272C"/>
<path d="M41.45 465.72L51.7999 456.34C51.7999 456.34 61.0799 479.15 60.5199 478.56C59.9599 477.97 41.45 465.72 41.45 465.72Z" fill="#29272C"/>
<path d="M190.5 219.52V220H176.32L191.23 188.84V188.99C191.73 191.62 190.5 219.52 190.5 219.52Z" fill="#C7C6C1"/>
<path d="M75.4099 63.8101C75.5399 63.6601 77.4099 60.5901 77.4099 60.5901L83.7199 60.3101L87.6299 63.8101L80.1699 64.8101L75.4099 63.8101Z" fill="#78421B"/>
</svg>
