<svg width="169" height="517" viewBox="0 0 169 517" fill="none" xmlns="http://www.w3.org/2000/svg">
<path d="M126.63 99.2298L115.63 105.88L114.05 105.81L119.86 91.1898L112.58 52.3098L107.42 67.3098L104.81 69.3098V58.3198L101.35 43.7798L98.8 33.0998L97.4801 27.5298L75.7701 33.8498L59.6701 26.4298L55.6701 32.3698C55.6701 32.3698 55.6701 34.9998 55.6701 38.0098C55.0401 40.5398 53.3901 47.2398 53.3901 47.9498C53.3901 48.8398 54.5201 63.1198 54.8901 63.8698C55.2601 64.6198 50.2801 74.6198 50.2801 74.6198L55.9101 70.7898L60.58 63.4098L62.2001 73.5198L67.9701 80.8298V101L55.6601 105.3L54.9801 105.07L43.8901 101.3L40.5701 63.2998L46.5701 26.4498L61.5701 5.7998L80.0201 0.799805L103.51 7.7998L117.94 33.7998L120.87 54.9398L117.51 57.9998L125.58 86.7898L126.63 99.2298Z" fill="#594422"/>
<path d="M53.32 47.1099L46.67 61.3699L45.58 58.2299L43.67 66.0799L50.92 103.68C50.92 103.68 60.13 96.5699 60.77 95.6799C61.41 94.7899 59.12 71.0099 59.12 71.0099L56.46 55.2499L53.32 47.1099Z" fill="#392317"/>
<path d="M53 72.7701L54 80.8301L52.2 85.3401L50.9 103.68C50.9 103.68 62.13 110.83 62.43 110.68C62.73 110.53 70.43 107.47 70.59 107.07C70.75 106.67 74.59 96.3301 74.47 94.7301C74.35 93.1301 74.6 79.1501 74.03 78.8101C73.46 78.4701 67.25 72.4501 66.84 72.1501C66.43 71.8501 62.73 63.2301 62.73 63.2301L59.25 61.1201L53 72.7701Z" fill="#392317"/>
<path d="M95 80.5901L94.8 84.0001L78.68 101.31L78.97 122.75L68.97 127.57L45.09 118.23C45.09 118.23 44.77 115.23 45.09 114.8L54.99 105.11L55.67 105.34L68 101V80.8301L62.23 73.5201L60.61 63.4101V63.1501L58.7 58.5601L58 56.0601L60.83 59.2301C60.83 59.2301 73.65 63.2801 74.11 63.2801C74.57 63.2801 78.11 67.2801 78.11 67.2801V74.0001L70.69 72.6101L73.8 77.4601L78.11 78.8501V88.8001H83.24L95 80.5901Z" fill="#AE7136"/>
<path d="M75.75 33.8502L71.98 35.3702L71.63 39.9902L55.66 32.3702L59.65 26.4302L75.75 33.8502Z" fill="#6767AE"/>
<path d="M98.78 33.1098L83.61 40.0098L82.26 40.6298L81.64 36.0398L75.75 33.8498L97.45 27.5298L98.78 33.1098Z" fill="#6767AE"/>
<path d="M101.33 43.7801L95.0001 40.6301C95.0001 40.6301 81.4301 49.3701 81.0001 49.7001C80.5701 50.0301 83.5601 40.0101 83.5601 40.0101L98.7301 33.1001L101.33 43.7801Z" fill="#689DD4"/>
<path d="M101.33 43.7798L95 40.6298C95 40.6298 81.43 49.3698 81 49.6998C80.57 50.0298 83.56 40.0098 83.56 40.0098L82.21 40.6298L76.91 48.8898L77.7 54.7498L77.51 63.9298L82.21 62.9298L101.43 56.7498L104.74 58.3398L101.33 43.7798ZM78.33 61.6698L79.58 56.0598L81.97 61.6698H78.33ZM101.33 51.0298L92.95 56.7298L82.26 52.1598C82.89 52.1598 95.83 43.3098 95.83 43.3098L101.33 47.8298V51.0298Z" fill="#7DD1F0"/>
<path d="M74.08 63.3001C73.61 63.3001 60.8 59.3001 60.8 59.3001L58 56.0801C57.0754 52.9823 56.3143 49.8379 55.72 46.6601C55.72 45.9701 55.72 41.7201 55.72 38.0401C55.72 35.0401 55.72 32.3901 55.72 32.3901L60.72 42.6801L60.9 43.3301L61.08 43.9301L57.15 48.5201L64.23 56.7601L64.89 56.3901L74.08 63.3001Z" fill="#689DD4"/>
<path d="M149.2 194.82L149.45 207.89V208L148.32 209L139.85 216.24L139.76 216.31L139.7 216.36L139.63 216.43L142 189V188.74L139.7 185.57L135.14 179.28L121.49 152.08L120.36 149.82L119.83 148.82L121.33 143.37L123.15 136.78L123.21 136.56C123.88 136.21 138.67 129.88 140.5 129.1H140.58H140.67L134.76 142.71V142.78V142.84L131.76 149.63V149.73C131.78 149.795 131.803 149.858 131.83 149.92C131.844 149.968 131.86 150.014 131.88 150.06C131.95 150.27 132.06 150.59 132.21 151L132.33 151.34C132.38 151.47 132.42 151.6 132.47 151.75L134.6 157.75C134.77 158.24 134.95 158.75 135.14 159.26C135.33 159.77 135.43 160.06 135.58 160.48L136.01 161.68L136.31 162.51L137.23 165.05C137.39 165.5 137.55 165.95 137.72 166.4C137.81 166.63 137.89 166.86 137.97 167.08L140.13 172.97C140.33 173.49 140.52 173.97 140.71 174.51L141.08 175.51C141.19 175.79 141.29 176.06 141.39 176.33C142.99 180.56 144.39 184.17 145.28 186.04L145.48 186.46C145.601 186.71 145.734 186.954 145.88 187.19L145.97 187.32C145.97 187.32 146.04 187.39 146.07 187.39H146.12L146.31 187.31C146.479 187.301 146.648 187.336 146.8 187.41C147.553 187.746 148.259 188.18 148.9 188.7L149.49 189.15L150.08 189.62L150.67 190.11C150.86 190.26 151.04 190.42 151.22 190.58L151.74 191.03C151.778 191.055 151.812 191.085 151.84 191.12V191.12C152.68 191.86 153.27 192.41 153.27 192.41L149.2 194.82Z" fill="#DC9159"/>
<path d="M25.2499 181L25.9999 195.7C25.9999 195.7 25.6199 195.48 25.1299 195.22L24.8199 195.05C24.5399 194.9 24.2499 194.76 23.9899 194.65L23.7999 194.57C23.695 194.517 23.5843 194.477 23.4699 194.45C23.2699 194.38 23.1399 194.38 23.1099 194.45C23.0799 194.52 22.9999 196 22.9999 197.57C22.9999 199.42 22.9999 201.57 22.9999 202.57L22.3399 202.2L15.4399 198.37C15.4399 198.37 15.7299 191.31 15.9899 184.78C16.0599 182.78 16.14 180.9 16.2 179.25L17.4799 167.63L17.3999 167.52C17.4799 167.01 17.58 166.52 17.67 165.92C19.7 154.72 23.0999 136 23.0999 136L27.1899 140.37L28.1899 140.05L29.1199 139.75L31.7899 138.9C32.8599 138.56 33.9399 138.23 34.8499 137.96L24.2 160.34L24.7899 172.02V172.09L25.0399 176.86L25.0999 178.07L25.2399 180.92L25.2499 181Z" fill="#DC9159"/>
<path d="M161.8 197.43L151.89 205.92L151.59 206.16L149.45 208V207.89L149.2 194.82L153.31 192.29C153.31 192.29 152.72 191.74 151.88 191C151.69 190.82 151.48 190.64 151.26 190.46C151.04 190.28 150.9 190.14 150.71 189.99L150.12 189.5L149.53 189.03L148.94 188.58C148.299 188.06 147.593 187.626 146.84 187.29C146.767 187.253 146.69 187.226 146.61 187.21H146.43H146.34C146.304 187.208 146.269 187.215 146.236 187.229C146.203 187.242 146.174 187.263 146.15 187.29V187.29H146.1C146.062 187.275 146.027 187.251 146 187.22L145.87 187.03L145.7 186.74L145.64 186.63L145.48 186.32L145.28 185.9C145.03 185.35 144.72 184.64 144.37 183.81L144.09 183.12L143.91 182.67C143.82 182.47 143.74 182.26 143.66 182.05L143.36 181.29L142.86 180.03L142.27 178.5C142.077 178.007 141.887 177.507 141.7 177C140.52 173.88 139.22 170.38 137.97 166.94C137.89 166.72 137.81 166.49 137.72 166.26C137.55 165.81 137.39 165.36 137.23 164.91L136.31 162.37C136.06 161.68 135.81 161 135.58 160.37L135.14 159.16L134.44 157.16L134 155.93L133.59 154.79C133.47 154.42 133.34 154.07 133.22 153.79C133.1 153.51 133 153.18 132.9 152.89C132.63 152.11 132.39 151.46 132.21 150.89L132.09 150.55C132.09 150.45 132.02 150.36 131.99 150.27L131.88 149.95C131.861 149.904 131.844 149.858 131.83 149.81L131.77 149.65V149.55L134.72 142.78V142.72V142.65L140.54 129.25V129.17L140.59 129.06V129.13L140.72 129.06L141.09 130.5L151 157.37V157.45L151.82 159.72L160 182.31L161.57 195.2L161.8 197.43Z" fill="#F1B280"/>
<path d="M107.4 111.2C107.4 111.2 108.65 113.34 110.46 116.38L71.52 128.55L68.96 127.55L78.96 122.73L78.67 101.29L94.8 84L94.34 100.33L114.03 105.83L115.61 105.9L107.4 111.2Z" fill="#C68650"/>
<path d="M37.82 167.19L37.7 167.92L34.06 189.92L32.88 208L24.88 203.56L23.1 202.56C23.1 201.56 23.1 199.45 23.1 197.56C23.1 195.96 23.1 194.56 23.16 194.45C23.22 194.34 23.32 194.38 23.52 194.45C23.6343 194.477 23.7451 194.517 23.85 194.57L24.04 194.65C24.17 194.7 24.31 194.77 24.45 194.84C24.59 194.91 24.95 195.09 25.18 195.22L25.52 195.4L25.82 195.57L25.96 195.65L26.05 195.7L25.25 181L25.11 178.16L25.05 176.95L24.94 174.87V174.58L24.82 172.25V172L24.23 160.32L34.83 138C35.5298 137.768 36.2448 137.584 36.97 137.45L35.44 139.57L31.44 151.62L30.77 152.85L37.77 167.18L37.82 167.19Z" fill="#F1B280"/>
<path d="M75.9399 52.3401L72.8999 47.8501L61.5099 43.3301H60.8299L60.6499 42.6901L55.6899 32.3901L71.6599 40.0201L74.95 45.5301L75.9399 52.3401Z" fill="#689DD4"/>
<path d="M82.26 40.6301L76.96 48.8901L74.93 45.5001L71.63 39.9901L71.98 35.3701L75.75 33.8501L81.64 36.0401L82.26 40.6301Z" fill="#8193CA"/>
<path d="M119.84 91.1901L114.02 105.81L94.34 100.31L94.8 83.9801V83.9701L95.02 80.5901L99.77 74.1101L104.79 58.3201V69.2601L107.4 67.2701L112.56 52.3101L119.84 91.1901Z" fill="#392317"/>
<path d="M104.79 58.3202L99.77 74.1102L95.02 80.5902L83.15 88.8102H78.03V78.8602L81.99 78.2802L86.13 74.0102L90.26 69.2602L86.13 72.6202L78.03 74.0102V67.2702L82.26 62.9102L101.48 56.7402L104.79 58.3202Z" fill="#C68650"/>
<path d="M90.26 69.2598L86.13 74.0098L82 78.2798L78.04 78.8598L73.72 77.4698L70.61 72.6198L76.36 75.5998L80.43 75.1698L86.13 72.6198L90.26 69.2598Z" fill="#A96739"/>
<path d="M86.13 72.6201L80.43 75.1701L76.36 75.6001L70.61 72.6201L78.04 74.0101L86.13 72.6201Z" fill="#9E5C28"/>
<path d="M81.99 61.6601H78.35L79.61 56.0601L81.99 61.6601Z" fill="#8193CA"/>
<path d="M82.2599 62.9098L77.9999 67.2698C77.9999 67.2698 74.4799 63.2698 73.9999 63.2698L64.7499 56.3598C66.7499 55.2198 72.9299 51.8198 73.3399 51.8198L61.4299 43.2998L72.8299 47.8198L75.8299 52.2998L74.8299 45.4898L76.8299 48.8798L77.6199 54.7398L77.4299 63.9198L82.2599 62.9098Z" fill="#7DD1F0"/>
<path d="M60.58 63.4098L55.91 70.7898L50.28 74.6198C50.28 74.6198 55.28 64.6198 54.89 63.8698C54.5 63.1198 53.39 48.8698 53.39 47.9498C53.39 47.2398 55.04 40.5398 55.67 38.0098C55.67 41.6898 55.67 45.9498 55.67 46.6398C56.2693 49.8165 57.0303 52.9606 57.95 56.0598L58.65 58.5598L60.56 63.1498L60.58 63.4098Z" fill="#6D542F"/>
<path d="M101.33 47.8298V50.9998L92.95 56.6998L82.26 52.1298C82.89 52.1298 95.83 43.2798 95.83 43.2798L101.33 47.8298Z" fill="white" stroke="#231F20" stroke-linejoin="round"/>
<path d="M73.3901 51.8302C72.9801 51.8302 66.83 55.2302 64.8 56.3702L64.1401 56.7302L57.0601 48.5002L60.1601 43.5002L60.6201 42.6802L73.3901 51.8302Z" fill="white" stroke="#231F20" stroke-linejoin="round"/>
<path d="M79.26 220.13L79 239.5L69.31 243.9C69.31 243.9 69.31 228.62 69.31 227.9C69.31 227.9 69.2 227.9 69.09 227.9L69 228L68.81 228.11C66.47 229.46 57.76 236.31 57.76 236.31C57.76 236.31 57.66 236.22 57.47 236.08L56.58 220.08V216.36H56.79C57.88 217.63 60.03 220.09 60.4 220.09L79.26 220.13Z" fill="#4B5680"/>
<path d="M130.67 268L116.28 355.5L102.2 356.89L77 274.6C77 274.6 87.75 265.8 98.51 257.14C100.78 255.31 103.06 253.48 105.23 251.75C104.92 259.46 103.28 293.93 103.28 293.93C103.28 293.93 115.98 322.1 116.34 321.54C116.7 320.98 130.24 269.65 130.67 268Z" fill="#3A3B44"/>
<path d="M47.2401 511.21L19.6501 512.79C19.6501 512.79 9.65007 514 8.85007 513.79L0.0500488 511.62L0.820068 508.24L14.6801 508.94H15.1301L25.9401 509.62L39.8101 506.44L40.3501 506.32H40.5101C40.8701 506.23 46.7401 504.66 46.9201 504.71C47.1601 508.33 47.2401 511.21 47.2401 511.21Z" fill="#3A3B44"/>
<path d="M25.8799 509.51L39.8599 506.49L25.9799 509.67L15.17 508.99L14.7199 508.96H14.7099L14.6799 508.95L14.9799 508.96L25.8799 509.51Z" fill="#001750"/>
<path d="M47.0001 504.7C46.8201 504.65 40.9501 506.22 40.5901 506.31L40.5401 506.18V506.04L40.2201 505.12C40.1301 504.87 40.0301 504.59 39.9101 504.28C39.7901 503.97 39.6801 503.63 39.5401 503.28L39.3801 502.86C39.3301 502.7 39.2701 502.53 39.2001 502.36L38.4401 500.36C38.3601 500.14 38.2801 499.93 38.1901 499.71C37.9001 498.95 37.6001 498.16 37.2901 497.37L36.7901 496.03C36.3601 494.93 35.94 493.84 35.55 492.82L35.1201 491.74C34.7201 490.74 34.36 489.74 34.05 489.01C34.0194 488.904 33.9827 488.801 33.9401 488.7L33.7901 488.32C33.7301 488.16 33.6701 488.01 33.6301 487.89L33.4901 487.55C33.3801 487.24 33.3101 487.08 33.3101 487.08L33.4401 486.3V487.3H45.9201C46.0001 487.28 46.8601 498.49 47.0001 504.7Z" fill="#7DD1F0"/>
<path d="M39.45 473.44H39.21V472.94L39.45 473.44Z" fill="#1C387F" stroke="#9BB8C8" stroke-miterlimit="10"/>
<path d="M40.43 506.36L39.89 506.48L26 509.67L15.17 509H14.72L6.21997 504.75L24.63 495.33L27 497L27.87 497.6L28.5 498.03L29.33 498.61C33.61 501.52 39.32 505.49 40.43 506.36Z" fill="#7DD1F0"/>
<path d="M14.7101 508.96L0.820068 508.25L6.17007 504.7H6.18005L14.7101 508.96Z" fill="#4B5680"/>
<path d="M136.44 502.11L119.24 496.31L118.69 486.92L118.75 487.28H131.07L136.44 502.11Z" fill="#689DD4"/>
<path d="M139.83 510.41L121.76 510.06C121.76 510.06 119.28 502.51 119.28 502.19V496.56V496.31L136.48 502.11L139.83 510.41Z" fill="#7DD1F0"/>
<path d="M141 513.22L130.88 516.62H121.88L117.64 511.19L119.28 502.51V502.19C119.28 502.51 121.76 510.06 121.76 510.06L139.83 510.41L141 513.22Z" fill="#3A3B44"/>
<path d="M40.6301 506.31H40.4701L29.4701 498.52L28.6401 497.94L28.0101 497.51L27.0001 497L24.5601 495.31L33.2601 487.09C33.2601 487.09 33.3301 487.25 33.4401 487.56L33.58 487.9C33.58 488.02 33.6801 488.17 33.7401 488.33L33.8901 488.71C33.9327 488.811 33.9694 488.914 34.0001 489.02L39.33 502.89L39.4901 503.31L40.4901 506.01C40.4901 506.01 40.4901 506.22 40.5401 506.26C40.5901 506.3 40.6201 506.27 40.6301 506.31Z" fill="#4B5680"/>
<path d="M54.9999 105.06L45.0999 114.75L41.7699 118C41.7699 118 41.6199 118.74 41.3599 119.94C40.3099 124.85 37.5499 137.44 36.9799 137.44C36.2514 137.578 35.5331 137.765 34.8299 138C31.9399 138.85 27.1899 140.41 27.1899 140.41L23.1099 136L19.1799 121.89L25.4299 129.66L37.0899 117.18L47.42 108.87L39.9999 100L43.9299 101.34L54.9999 105.06Z" fill="#3A3B44"/>
<path d="M20.66 255.69C20.66 255.69 14.01 259.77 13.9 260.26C13.79 260.75 4.99003 252.79 3.95003 251.84C3.64003 258.03 4.11 282.1 4.11 282.1L5.84001 283.54L16.84 279.75L25.41 270.41L20.66 255.69ZM5.84001 279.92L6.84001 263.49L9.55 277L5.84001 279.92Z" fill="#7DD1F0"/>
<path d="M17.7 199.58L15.57 219.34L13.57 204.34L11 199.72C10.9971 199.673 10.9971 199.626 11 199.58L15.47 198.38L17.7 199.58Z" fill="#8193CA"/>
<path d="M15.63 251.32L20.63 255.69C20.63 255.69 13.98 259.77 13.87 260.26C13.76 260.75 4.96001 252.79 3.92001 251.84C3.90603 251.365 3.95988 250.89 4.07998 250.43C4.65998 249.51 10.64 202.65 11.01 199.72L13.53 204.29L15.53 219.29L13.86 234.83L21 245.06L10.25 247.37L6.82 251.32H15.63Z" fill="#689DD4"/>
<path d="M33.93 210.36L20.99 245.06L13.9 234.88L17.7 199.58L32.88 208L33.93 210.36Z" fill="#3A3B44"/>
<path d="M20.1301 254.08L20.6601 255.69L15.6301 251.32H6.81006L10.2401 247.37L20.9901 245.06L20.1301 254.08Z" fill="#8193CA"/>
<path d="M27.9 289.63H13.14L5.83997 283.54L16.86 279.75L25.43 270.41L27.61 277.08L27.9 289.63Z" fill="#689DD4"/>
<path d="M107.16 174.07C107.16 174.07 101.82 191.39 101.78 191.39C101.805 191.482 101.825 191.576 101.84 191.67C100.47 189.67 97.84 185.79 97.45 185.79C97.06 185.79 91.27 183.35 88.64 182.34C88.6353 182.307 88.6353 182.273 88.64 182.24C89.09 180.14 89.38 178.72 89.38 178.72L91.97 179.82L96.5299 168.17L103.16 158.89L108.03 154.17L116.24 146.17L119.8 148.75L107.16 174.07Z" fill="#689DD4"/>
<path d="M108.05 154.17L103.18 158.89L96.55 168.17L92 179.82L89.41 178.72L70.67 170.72L56.54 178.11L55 179L46.24 165.71L40.9 161.91L52.15 164.8L63.41 147.36L70.17 162L75.32 149.74C75.32 149.74 89.52 163.17 89.87 163.01C90.22 162.85 107.52 154.43 108.05 154.17Z" fill="#3A3B44"/>
<path d="M89.4001 178.72C89.4001 178.72 89.1101 180.14 88.6601 182.24C88.6554 182.273 88.6554 182.307 88.6601 182.34C87.3601 188.34 84.7601 199.75 83.7401 199.58C82.3701 199.34 69.36 193.87 69.36 193.87L57.9401 199.58L56.55 178.15L70.6801 170.76L89.4001 178.72Z" fill="#7DD1F0"/>
<path d="M116.28 146.2L108.07 154.2C107.54 154.46 90.26 162.88 89.9 163.04C89.54 163.2 75.33 149.77 75.33 149.77L89.74 140.43C89.74 140.43 102.35 136 103 136.51C103.41 136.85 111.47 142.71 116.28 146.2Z" fill="#7DD1F0"/>
<path d="M48.54 254.15L37.54 242.39L44.61 226.22C45.04 226.52 45.61 226.97 46.36 227.51L48.54 254.15Z" fill="#7DD1F0"/>
<path d="M57.71 236.33C57.71 236.33 50.33 230.51 46.35 227.51C45.64 226.97 45.03 226.51 44.6 226.22L50.8 212L56.53 220.09L57.71 236.33Z" fill="#3A3B44"/>
<path d="M69.34 243.9L57.71 236.33C59.57 234.83 67.15 229.02 68.95 228.02L69.1 227.94C69.21 227.94 69.28 227.88 69.32 227.94C69.36 228 69.32 227.94 69.32 227.94C69.38 228.62 69.34 243.9 69.34 243.9Z" fill="#7DD1F0"/>
<path d="M110.33 225.75L106.39 227.1L83.73 234.88V220.13L105.32 210.36L110.33 225.75Z" fill="#3A3B44"/>
<path d="M116.28 355.5C116.28 355.5 111.28 376.09 111.05 376.97C110.82 377.85 102.2 356.89 102.2 356.89L116.28 355.5Z" fill="#4B5680"/>
<path d="M78.34 306.27C78.6 304.9 63.87 357.69 63.87 357.69L57.54 363.69C57.54 363.69 61.33 354.58 61.54 353.79C61.75 353 75.88 302.08 75.88 302.08C75.88 302.08 66.51 298.64 68.18 298.9C70.7649 299.035 73.3551 299.035 75.94 298.9L81.01 297.37L93.38 361.69C93 360.1 78.08 307.63 78.34 306.27Z" fill="#4B5680"/>
<path d="M124.33 354.39L130.68 268L116.28 355.5C116.28 355.5 111.28 376.09 111.05 376.97C110.82 377.85 102.2 356.89 102.2 356.89L77 274.6C77 274.6 87.75 265.8 98.51 257.14L106.35 227.14L83.69 234.92V237.41L79 239.5L69.31 243.9L57.85 236.44L57.39 236.1C55.97 234.98 49.83 230.1 46.32 227.51L48.51 254.15L50.51 256.28L69.32 276.35L53.1 361.76L40.16 353.76L32 283.86L30.59 331.52L34.48 350.73L30.29 377.23L34.48 386.68L33.55 473.44H39.27V416.23C39.27 415.08 57.39 375.65 57.39 375.65L65.77 394.52L46.68 473.44H50.45L71.87 391.66L57.59 363.73C57.59 363.73 61.38 354.62 61.59 353.83C61.8 353.04 75.94 302.12 75.94 302.12C75.94 302.12 66.57 298.68 68.23 298.94C70.815 299.075 73.4051 299.075 75.99 298.94L81.06 297.41L93.43 361.73V386.9C93.43 386.9 116.66 478.38 117.72 479.21C117.873 479.301 118.043 479.359 118.22 479.38C120.306 479.603 122.406 479.657 124.5 479.54H125.39L116.44 419.46C116.44 419.46 127.27 383.46 127.27 382.77C127.27 382.08 132.51 386.19 132.51 386.19L130.68 479.32L132.06 479.24L132.28 477.54C132.66 464.76 135.05 384.92 136.02 384.67C136.99 384.42 124.33 354.39 124.33 354.39ZM34.38 372.32L37.9 355.5C38.9 355.92 48.67 366.25 48.67 366.25L34.38 372.32Z" fill="#8193CA"/>
<path d="M120 240.47C118.9 240.99 112.66 245.86 105.27 251.75C103.1 253.48 100.82 255.31 98.55 257.14L106.39 227.14L110.33 225.79L119.6 239.48L120 240.47Z" fill="#7DD1F0"/>
<path d="M130.68 268C130.25 269.61 116.74 320.94 116.39 321.5C116.04 322.06 103.33 293.89 103.33 293.89C103.33 293.89 104.97 259.42 105.28 251.71C112.67 245.82 118.91 240.95 120.01 240.43L130.68 268Z" fill="#689DD4"/>
<path d="M167.52 204.79C167.33 205.01 160.12 213.11 153.74 220.13V250.37L150.13 257.1L144.66 250L132.77 264.29L133.19 271.8H139.64V283.59L150.72 286.36L161.81 279.69C161.81 279.69 161.55 247.53 161.81 246.43C162 245.54 165.78 217.74 167.52 204.79ZM150.72 281.66L152.53 274.6V262.48L155.89 277L150.72 281.66Z" fill="#7DD1F0"/>
<path d="M161.81 279.64L158.91 287.06L143.07 293.94L134.36 292.29L133.19 271.75H139.64V283.54L150.72 286.31L161.81 279.64Z" fill="#689DD4"/>
<path d="M153.74 220.13V250.37L150.13 257.1L144.66 250L137.52 217.28C137.52 217.28 143.84 229.74 144.05 230.37C144.14 230.6 148.68 225.71 153.74 220.13Z" fill="#3A3B44"/>
<path d="M168.41 198.26C168.41 198.26 168.06 200.83 167.53 204.78C167.34 205 160.13 213.1 153.75 220.12C148.69 225.7 144.15 230.59 144.06 230.31C143.85 229.68 137.53 217.22 137.53 217.22L139.65 216.4L149.47 207.99L161.82 197.42C161.82 197.42 164.99 194.95 165.82 194.13C166.65 193.31 168.41 198.26 168.41 198.26Z" fill="#689DD4"/>
<path d="M132.52 386.17L130.69 479.3C129.38 479.37 127.41 479.46 125.4 479.52L116.45 419.44C116.45 419.44 127.28 383.44 127.28 382.75C127.28 382.06 132.52 386.17 132.52 386.17Z" fill="#4B5680"/>
<path d="M112.56 119.9L78.74 131.07L69.3 144.59L60.22 129.7L41.36 120C41.62 118.81 41.77 118.07 41.77 118.07L45.06 114.86C44.75 115.32 45.06 118.28 45.06 118.28L69 127.57L71.56 128.57L110.5 116.4L112.56 119.9Z" fill="#7DD1F0"/>
<path d="M83.73 220.13V234.88V237.37L79 239.5L79.23 220.13H60.35C59.98 220.13 57.83 217.67 56.74 216.4L83.74 215.24V220.13H83.73Z" fill="#7DD1F0"/>
<path d="M52.14 295.39C52.14 295.39 41.6999 320.8 41.5299 319.93C41.3599 319.06 32.62 286.18 31.95 283.69V282.79L36.8399 243.91L37.4999 242.4L48.4999 254.16L50.4999 256.29L52.14 295.39Z" fill="#689DD4"/>
<path d="M69.34 276.35L53.1 361.76L40.16 353.76L32 283.86V283.69C32.67 286.18 41.41 319.09 41.58 319.93C41.75 320.77 52.19 295.39 52.19 295.39L50.58 256.28L69.34 276.35Z" fill="#3A3B44"/>
<path d="M48.67 366.25L34.38 372.32L37.9 355.5C38.93 355.92 48.67 366.25 48.67 366.25Z" fill="#4B5680"/>
<path d="M155.89 276.98L150.72 281.66L152.53 274.6V262.48L155.89 276.98Z" fill="#3A3B44"/>
<path d="M9.54996 276.98L5.83997 279.92L6.80997 263.49L9.54996 276.98Z" fill="#3A3B44"/>
<path d="M65.72 394.52L46.63 473.44H39.45L39.21 472.94V416.23C39.21 415.08 57.33 375.65 57.33 375.65L65.72 394.52Z" fill="#4B5680"/>
<path d="M50.41 473.44L45.9 487.28H33.41L33.42 486.28L33.51 473.44H50.41Z" fill="#3A3B44"/>
<path d="M132.08 479.22L131.08 487.28H118.75L118.68 486.92L118.24 479.38C120.322 479.603 122.419 479.656 124.51 479.54C126.82 479.54 129.19 479.37 130.68 479.3L132.08 479.22Z" fill="#3A3B44"/>
<path d="M147.68 109.12L107.31 111.23L115.53 105.91L126.54 99.2499L128.73 97.9399L147.68 109.12Z" fill="#7DD1F0"/>
<path d="M147.68 109.12L140.89 128.87V129L125.35 129.19L125.16 129L107.4 111.27L147.68 109.12Z" fill="#689DD4"/>
<path d="M43.6701 108.9L27.3201 106.86L39.9601 99.9502L43.6701 108.9Z" fill="#7DD1F0"/>
<path d="M47.42 108.9L37.0799 117.21L25.4299 129.69L19.1799 121.91L27.3199 106.86L43.67 108.9L39.9599 99.9502L47.42 108.9Z" fill="#689DD4"/>
<path d="M81.64 36.0398L97.45 27.5298L75.75 33.8498L81.64 36.0398Z" fill="#6767AE"/>
<path d="M79.25 66.0102L101.48 56.7402L104.43 59.6902L104.79 58.3202L101.48 56.7402L82.26 62.9102L79.25 66.0102Z" fill="#BC7645"/>
<path d="M76.96 66.08L60.77 59.23L74.05 63.28L76.96 66.08Z" fill="#9B5023"/>
<path d="M95.02 80.5898L85.07 89.4298L83.14 90.3698L79.33 89.4899L77.83 89.0199L83.15 88.8098L95.02 80.5898Z" fill="#9B5023"/>
<path d="M67.97 81.9698L77.83 89.0198L67.97 80.8198V81.9698Z" fill="#9B5023"/>
<path d="M68 80.8301C68 80.9901 78.06 88.8301 78.06 88.8301H83.19L83.02 89.5201L77.86 89.0401C77.86 89.0401 69.58 82.8601 69.53 82.8801C69.48 82.9001 68 80.8301 68 80.8301Z" fill="#9B5023"/>
<path d="M75.75 33.8501C75.75 33.8501 70.68 25.2801 70.61 24.5201C70.54 23.7601 80.17 6.37012 80.17 6.37012C80.17 6.37012 75.17 22.0601 75.39 22.2501C75.61 22.4401 81.01 31.7801 81.01 31.7801L75.75 33.8501Z" fill="#392317"/>
<path d="M103.57 7.81023C102.94 7.63023 95.02 11.2402 95.02 11.2402C95.02 11.2402 88.6 27.7602 88.88 27.5302C89.16 27.3002 96.22 12.7602 96.22 12.7602L103.57 7.81023Z" fill="#392317"/>
<path d="M46.61 26.4298L62.71 17.6698L71.63 20.1098L61.63 5.77979L46.61 26.4298Z" fill="#392317"/>
<path d="M98.55 369.75C99.07 370.67 113.46 408.63 113.46 408.63L97.24 387.5L98.55 369.75Z" fill="#4B5680"/>
<path d="M48.67 372.31L35.95 377L39.2099 416.23L57.3299 375.65L48.67 372.31Z" fill="#3A3B44"/>
<path d="M57.88 236.44L52.47 258.34L69.34 276.35L67.18 287.68L74.47 289.63L81.12 287.93L77.04 274.6L93.43 261.27L102.2 227.89L83.73 234.88L83.72 237.37L69.34 243.9L57.88 236.44Z" fill="#689DD4"/>
<path d="M132.16 150.89L130.64 150.37L131.16 149.37L134.69 142.74V142.68V142.61L141.14 130.47L151 157.37V157.45C147.25 156.12 136.22 152.29 132.16 150.89Z" fill="#3A3B44"/>
<path d="M161.53 195.2L151.88 191L145 188L145.08 187.67L145.41 186.3L145.5 185.9L151.78 159.71L160 182.31L161.53 195.2Z" fill="#689DD4"/>
<path d="M145.16 188.84C145.8 192.57 148.35 207.53 148.38 208.74C148.375 208.82 148.355 208.898 148.32 208.97C147.71 210.34 142.32 214.37 139.85 216.21L139.76 216.28L139.7 216.33H139.63L142 189V188.74L139.7 185.57L135.14 179.28L121.49 152.08L121.43 151.96C124.3 151.16 130.48 149.46 131.15 149.37C131.346 149.403 131.54 149.45 131.73 149.51C131.73 149.51 146.91 155.66 150.93 157.37V157.45L151.75 159.72L145.47 185.91L145.38 186.31L145.05 187.68L145 188L145.16 188.84Z" fill="#7DD1F0"/>
<path d="M161.8 197.43L151.89 205.92L151.59 206.16L149.45 207.89L148.38 208.74L145.16 188.84L145 188L151.83 191L161.48 195.2L161.8 197.43Z" fill="#3A3B44"/>
<path d="M150.3 185.47L146.3 187.17L146.11 187.25H146.06L145.11 187.65L142 189V188.74L139.7 185.57C141.97 185.73 144.39 185.85 145.22 185.89H145.51L150.3 185.47Z" fill="#3A3B44"/>
<path d="M141.22 130.44L134.77 142.58V142.65V142.71L131.24 149.34L121.58 152.05L119.92 148.74L121.42 143.29L123.21 136.5H123.27L123.43 136.42L123.83 136.25L124.12 136.12L124.54 135.94L124.75 135.85L125.12 135.69L125.68 135.45L126.02 135.3L128.02 134.45L135.91 131.05L137.21 130.49L140.26 129.18L140.59 129.04H140.67H140.72L140.92 128.93V129.06L141.22 130.44Z" fill="#4B5680"/>
<path d="M37.1501 137.2L35.4901 139.9L32.4401 151.56L31.7701 152.79C31.7701 152.79 38.4501 166.53 37.7701 167.25C37.0901 167.97 25.6801 177.65 25.6801 177.65L21.55 151.56L27.1901 140.4L37.1501 137.2Z" fill="#4B5680"/>
<path d="M25.67 177.62L25.09 178.05L16.09 184.75C16.16 182.75 16.24 180.87 16.3 179.22L17.58 167.6L17.77 165.89C19.7 154.72 23.1 136 23.1 136L27.19 140.37L21.55 151.54L24.79 172V172.07L25.67 177.59V177.62Z" fill="#689DD4"/>
<path d="M37.7699 167.25L37.7 167.92L34.0599 189.92L32.8799 208L24.8799 203.56L23.0999 202.56L22.4399 202.19C22.4399 202.19 22.4899 201.85 22.5599 201.26C22.5599 201.06 22.6199 200.83 22.6499 200.58C22.6799 200.33 22.7099 200.16 22.7399 199.92C22.8299 199.26 22.9299 198.47 23.0499 197.6C23.0499 197.42 23.0499 197.23 23.1299 197.03C23.2099 196.83 23.2199 196.38 23.2599 196.03C23.2551 195.947 23.2551 195.863 23.2599 195.78L23.4299 194.48C23.4999 193.94 23.5699 193.38 23.6499 192.8L23.7999 191.67C24.0199 189.96 24.2599 188.21 24.4799 186.54C24.5299 186.2 24.5699 185.86 24.6199 185.54C24.6699 185.22 24.6699 185.09 24.7099 184.87C24.7699 184.35 24.8399 183.87 24.8999 183.38C24.8999 183.05 24.9899 182.73 25.0299 182.38C25.0699 182.03 25.1099 181.77 25.1499 181.48V181.22V180.99L25.2399 180.28L25.3299 179.58C25.3299 179.36 25.3799 179.16 25.4099 178.97L25.4799 178.47L25.5899 177.65L25.7199 177.54L26.0699 177.24C28.1599 175.41 36.4099 168.24 37.5699 167.34H37.6199L37.7699 167.25Z" fill="#689DD4"/>
<path d="M25.69 177.64L25.58 178.46C25.58 178.61 25.53 178.77 25.51 178.96C25.49 179.15 25.46 179.35 25.43 179.57C25.4 179.79 25.37 180.02 25.34 180.27C25.31 180.52 25.28 180.7 25.24 180.93V181.18V181.44C25.2 181.727 25.16 182.027 25.12 182.34C25.12 182.65 25.03 182.97 24.99 183.34C24.93 183.82 24.86 184.34 24.8 184.83C24.8 185.05 24.73 185.28 24.71 185.5C24.69 185.72 24.62 186.17 24.57 186.5C24.35 188.17 24.11 189.92 23.89 191.63L23.74 192.76C23.66 193.34 23.59 193.9 23.52 194.44L23.35 195.74C23.3452 195.823 23.3452 195.907 23.35 195.99C23.35 196.33 23.26 196.66 23.22 196.99C23.18 197.32 23.17 197.39 23.14 197.57C23.02 198.44 22.92 199.23 22.83 199.89C22.83 200.13 22.8 200.35 22.74 200.55C22.74 200.8 22.68 201.03 22.65 201.23C22.58 201.82 22.53 202.16 22.53 202.16L15.63 198.33C15.63 198.33 15.92 191.27 16.18 184.74C16.25 182.74 16.33 180.86 16.39 179.21L17.67 167.59C18.74 169.12 23.41 174.74 25.14 176.82L25.77 177.56L25.69 177.64Z" fill="#7DD1F0"/>
<path d="M140.85 129C140.85 129 140.85 129 140.73 129.06H140.63L140.46 129.14C138.76 129.85 132.46 132.5 127.95 134.41L125.95 135.26L125.61 135.41L125.05 135.65L124.68 135.81L124.47 135.9L124.05 136.08L123.76 136.21L123.36 136.38L123.2 136.46C122.65 136.46 116.96 127.15 112.56 119.82L110.46 116.33C108.81 113.55 107.62 111.52 107.46 111.2L125.12 129H140.85Z" fill="#3A3B44"/>
<path d="M63.39 147.32L52.13 164.76L40.88 161.87L38.8 160.41L31.46 151.62L35.45 139.56L38.75 136.08L52.87 136.7L63.39 147.32Z" fill="#7DD1F0"/>
<path d="M105.32 210.36L83.73 220.13V215.24L56.54 216.41V220.13L50.8 212L48.08 177.3L39.65 170.88L37.83 167.17L30.83 152.82L31.5 151.59L38.84 160.39L40.92 161.85L46.26 165.65L55 179L56.55 178.19L57.94 199.62L69.36 193.91C69.36 193.91 82.36 199.38 83.74 199.62C84.74 199.79 87.36 188.4 88.66 182.38C91.29 183.38 97.04 185.83 97.47 185.83C97.9 185.83 100.47 189.68 101.86 191.71C102.29 194 105.32 210.36 105.32 210.36Z" fill="#689DD4"/>
<path d="M123.22 136.51L119.84 148.78L116.28 146.2C111.47 142.71 103.41 136.85 102.98 136.51C102.35 136.03 89.7199 140.4 89.7199 140.4L75.3099 149.74L70.17 162L63.39 147.32L52.8699 136.7L38.7499 136.08L35.45 139.55L36.9799 137.43C37.5499 137.43 40.3099 124.84 41.3599 119.93L60.2199 129.68L69.2999 144.59L78.7399 131.05L112.56 119.87C117 127.29 122.78 136.74 123.22 136.51Z" fill="#689DD4"/>
<path d="M109.38 160.76C109.26 161.2 98.7401 174.12 98.7401 174.12L98.5701 179.07" fill="#4B5680"/>
</svg>
