<svg width="169" height="517" viewBox="0 0 169 517" fill="none" xmlns="http://www.w3.org/2000/svg">
<path d="M126.63 98.8202L115.63 105.47L114.05 105.39L119.86 90.7802L112.58 51.9001L107.42 66.8502L104.81 68.8502V57.9102L101.35 43.3602L98.8 32.6902L97.4801 27.1102L75.7701 33.4301L59.6501 26.0002L55.6501 32.0002C55.6501 32.0002 55.6501 34.6302 55.6501 37.6402C55.0201 40.1702 53.3701 46.8702 53.3701 47.5802C53.3701 48.4702 54.5001 62.7502 54.8701 63.4902C55.2401 64.2302 50.2601 74.2502 50.2601 74.2502L55.8901 70.4202L60.5601 63.0401L62.1801 73.1501L67.9501 80.4501V100.62L55.6401 104.92L54.9601 104.68L43.8701 100.92L40.55 62.9202L46.55 26.0602L61.55 5.41016L80.0001 0.410156L103.49 7.46016L117.92 33.4602L120.85 54.6002L117.43 57.6602L125.5 86.4402L126.63 98.8202Z" fill="#F9DE2B"/>
<path d="M53.32 46.6899L46.67 60.9999L45.58 57.8599L43.67 65.7099L50.92 103.3C50.92 103.3 60.13 96.1899 60.77 95.3499C61.41 94.5099 59.12 70.6799 59.12 70.6799L56.46 54.9099L53.32 46.6899Z" fill="#97712D"/>
<path d="M53 72.36L54 80.42L52.2 84.93L50.9 103.26C50.9 103.26 62.13 110.41 62.43 110.31C62.73 110.21 70.43 107.1 70.59 106.7C70.75 106.3 74.59 95.97 74.47 94.36C74.35 92.75 74.6 78.78 74.03 78.45C73.46 78.12 67.25 72.09 66.84 71.79C66.43 71.49 62.73 62.87 62.73 62.87L59.25 60.75L53 72.36Z" fill="#97712D"/>
<path d="M95 80.1801L94.7799 83.5601L78.66 100.88L78.95 122.31L68.95 127.13L45.07 117.8C45.07 117.8 44.75 114.8 45.07 114.37L54.97 104.67L55.6499 104.91L67.9599 100.61V80.4101L62.19 73.1101L60.5799 63.0001V62.7301L58.67 58.1501L57.97 55.6401L60.7999 58.8201C60.7999 58.8201 73.6199 62.8701 74.0799 62.8701C74.5399 62.8701 78.0799 66.8701 78.0799 66.8701V73.6101L70.66 72.2301L73.7699 77.0801L78.0799 78.4701V88.4101H83.2099L95 80.1801Z" fill="#DC9159"/>
<path d="M75.75 33.4298L71.98 34.9498L71.63 39.5798L55.66 31.9598L59.65 26.0098L75.75 33.4298Z" fill="#F4831F"/>
<path d="M98.78 32.6899L83.61 39.5999L82.26 40.2099L81.64 35.6299L75.75 33.4299L97.45 27.1099L98.78 32.6899Z" fill="#F4831F"/>
<path d="M101.33 43.3599L95.0001 40.2099C95.0001 40.2099 81.4301 48.9599 81.0001 49.2799C80.5701 49.5999 83.5601 39.5999 83.5601 39.5999L98.7301 32.6899L101.33 43.3599Z" fill="#EE4023"/>
<path d="M101.33 43.3601L95 40.2101C95 40.2101 81.43 48.9601 81 49.2801C80.57 49.6001 83.56 39.6001 83.56 39.6001L82.21 40.2101L76.91 48.4701L77.7 54.3301L77.51 63.5201L82.21 62.5201L101.43 56.3401L104.74 57.9301L101.33 43.3601ZM78.33 61.2501L79.58 55.6401L81.97 61.2501H78.33ZM101.33 50.6201L92.95 56.3201L82.26 51.7401C82.89 51.7401 95.83 42.9001 95.83 42.9001L101.33 47.4101V50.6201Z" fill="#EE4023"/>
<path d="M74.08 62.89C73.61 62.89 60.8 58.89 60.8 58.89L58 55.67C57.0754 52.5721 56.3143 49.4278 55.72 46.25C55.72 45.56 55.72 41.3 55.72 37.62C55.72 34.62 55.72 31.98 55.72 31.98L60.72 42.27L60.9 42.92L61.08 43.51L57.15 48.11L64.23 56.35L64.89 55.98L74.08 62.89Z" fill="#EE4023"/>
<path d="M149.2 194.41L149.45 207.48V207.59L148.32 208.59L139.85 215.83L139.76 215.9L139.7 215.95L139.63 216.02L142 188.59V188.33L139.7 185.16L135.14 178.87L121.49 151.67L120.36 149.41L119.83 148.36L121.33 142.91L123.15 136.32L123.21 136.1C123.88 135.75 138.67 129.42 140.5 128.64H140.58H140.67L134.76 142.25V142.32V142.38L131.76 149.17V149.27C131.78 149.335 131.803 149.398 131.83 149.46C131.844 149.508 131.86 149.555 131.88 149.6C131.95 149.81 132.06 150.13 132.21 150.54L132.33 150.88C132.38 151.01 132.42 151.14 132.47 151.29L134.6 157.29C134.77 157.78 134.95 158.29 135.14 158.8C135.33 159.31 135.43 159.6 135.58 160.02L136.01 161.22L136.31 162.05L137.23 164.59C137.39 165.04 137.55 165.49 137.72 165.94C137.81 166.17 137.89 166.4 137.97 166.62L140.13 172.51C140.33 173.03 140.52 173.51 140.71 174.05L141.08 175.05C141.19 175.33 141.29 175.6 141.39 175.87C142.99 180.1 144.39 183.71 145.28 185.58L145.48 186C145.601 186.25 145.734 186.494 145.88 186.73L145.97 186.86C145.97 186.86 146.04 186.93 146.07 186.93H146.12L146.31 186.85C146.479 186.841 146.648 186.876 146.8 186.95C147.553 187.287 148.259 187.72 148.9 188.24L149.49 188.69L150.08 189.16L150.67 189.65C150.86 189.8 151.04 189.96 151.22 190.12L151.74 190.57C151.778 190.595 151.812 190.625 151.84 190.66V190.66C152.68 191.4 153.27 191.95 153.27 191.95L149.2 194.41Z" fill="#DC9159"/>
<path d="M25.25 180.58L25.99 195.29C25.99 195.29 25.61 195.07 25.12 194.81L24.81 194.64C24.53 194.49 24.24 194.35 23.98 194.24L23.79 194.16C23.6851 194.107 23.5743 194.067 23.46 194.04C23.26 193.97 23.13 193.97 23.1 194.04C23.07 194.11 23.04 195.55 23.04 197.16C23.04 199.01 23.04 201.16 23.04 202.16L22.38 201.79L15.48 197.96C15.48 197.96 15.77 190.9 16.03 184.37C16.1 182.37 16.18 180.49 16.24 178.84L17.52 167.22L17.44 167.11C17.52 166.6 17.62 166.11 17.71 165.51C19.65 154.32 23.05 135.62 23.05 135.62L27.14 139.99L28.14 139.67L29.07 139.37L31.74 138.52C32.81 138.18 33.89 137.85 34.8 137.58L24.2 159.93L24.79 171.61V171.68L25.04 176.45L25.1 177.66L25.24 180.51L25.25 180.58Z" fill="#DC9159"/>
<path d="M161.8 197L151.89 205.49C151.79 205.57 151.69 205.66 151.59 205.73L149.45 207.57V207.46L149.2 194.39L153.31 191.86C153.31 191.86 152.72 191.31 151.88 190.57C151.69 190.39 151.48 190.21 151.26 190.03C151.04 189.85 150.9 189.71 150.71 189.56L150.12 189.07L149.53 188.6L148.94 188.15C148.299 187.63 147.593 187.196 146.84 186.86C146.767 186.823 146.69 186.796 146.61 186.78H146.43H146.34C146.304 186.778 146.269 186.785 146.236 186.798C146.203 186.812 146.174 186.833 146.15 186.86H146.1C146.062 186.845 146.027 186.821 146 186.79L145.87 186.6L145.7 186.31L145.64 186.2L145.48 185.89L145.28 185.47C145.03 184.92 144.72 184.21 144.37 183.38L144.09 182.69L143.91 182.24C143.82 182.04 143.74 181.83 143.66 181.62L143.36 180.86L142.86 179.6L142.27 178.07C142.077 177.577 141.887 177.077 141.7 176.57C140.52 173.45 139.22 169.95 137.97 166.51C137.89 166.29 137.81 166.06 137.72 165.83C137.55 165.38 137.39 164.93 137.23 164.48L136.31 161.94C136.06 161.25 135.81 160.57 135.58 159.94L135.14 158.73L134.44 156.73L134 155.5L133.59 154.36C133.47 153.99 133.34 153.64 133.22 153.31C133.1 152.98 133 152.7 132.9 152.41C132.63 151.63 132.39 150.98 132.21 150.46L132.09 150.12C132.09 150.02 132.02 149.93 131.99 149.84L131.88 149.52C131.861 149.474 131.844 149.428 131.83 149.38L131.77 149.22V149.12L134.72 142.35V142.29V142.22L140.54 128.82V128.74L140.59 128.63V128.7L140.72 128.63L141.09 130.07L151 157V157.08L151.82 159.35L160 181.9L161.57 194.79L161.8 197Z" fill="#F1B280"/>
<path d="M107.4 110.79C107.4 110.79 108.65 112.93 110.46 115.96L71.52 128.14L68.96 127.14L78.96 122.32L78.67 100.89L94.79 83.5698L94.33 99.8998L114.02 105.4L115.6 105.48L107.4 110.79Z" fill="#F1B280"/>
<path d="M37.82 166.78L37.7 167.51L34.06 189.51L32.88 207.51L24.88 203.07L23.1 202.07C23.1 201.07 23.1 198.96 23.1 197.07C23.1 195.47 23.1 194.07 23.16 193.96C23.22 193.85 23.32 193.89 23.52 193.96C23.6343 193.987 23.7451 194.027 23.85 194.08L24.04 194.16C24.17 194.21 24.31 194.28 24.45 194.35C24.59 194.42 24.95 194.6 25.18 194.73L25.52 194.91L25.82 195.08L25.96 195.16L26.05 195.21L25.31 180.5L25.17 177.66L25.11 176.45L25 174.37V174.08L24.88 171.75V171.61L24.29 159.93L34.92 137.57C35.5997 137.333 36.2946 137.143 37 137L35.47 139.12L31.47 151.17L30.8 152.4L37.8 166.73L37.82 166.78Z" fill="#F1B280"/>
<path d="M75.9399 51.92L72.8999 47.44L61.5099 42.92H60.8299L60.6499 42.27L55.6899 31.98L71.6599 39.6L74.95 45.11L75.9399 51.92Z" fill="#EE4023"/>
<path d="M82.26 40.2102L76.96 48.4702L74.93 45.0902L71.63 39.5802L71.98 34.9502L75.75 33.4302L81.64 35.6302L82.26 40.2102Z" fill="#F4831F"/>
<path d="M119.84 90.7799L114.02 105.39L94.34 99.8899L94.8 83.5599L95.02 80.1799L99.77 73.6899L104.79 57.9099V68.8499L107.4 66.8499L112.56 51.8999L119.84 90.7799Z" fill="#97712D"/>
<path d="M104.79 57.9098L99.77 73.6898L95.02 80.1798L83.15 88.3898H78.03V78.4498L81.99 77.8698L86.13 73.5898L90.26 68.8498L86.13 72.2098L78.03 73.5898V66.8498L82.26 62.4998L101.48 56.3198L104.79 57.9098Z" fill="#F1B280"/>
<path d="M90.26 68.8501L86.13 73.5901L82 77.8701L78.04 78.4501L73.72 77.0601L70.61 72.2101L76.36 75.1901L80.43 74.7601L86.13 72.2101L90.26 68.8501Z" fill="#A96739"/>
<path d="M86.13 72.21L80.43 74.7599L76.36 75.19L70.61 72.21L78.04 73.59L86.13 72.21Z" fill="#9E5C28"/>
<path d="M81.99 61.2501H78.35L79.61 55.6401L81.99 61.2501Z" fill="#7C4B20"/>
<path d="M82.26 62.4999L78 66.8499C78 66.8499 74.48 62.8499 74 62.8499L64.8 55.9999C66.8 54.8599 72.98 51.4499 73.39 51.4499L61.48 42.9399L72.88 47.4499L75.88 51.9399L74.88 45.1299L76.88 48.5099L77.67 54.3699L77.48 63.5599L82.26 62.4999Z" fill="#EE4023"/>
<path d="M60.58 63.0001L55.91 70.3801L50.28 74.2101C50.28 74.2101 55.28 64.2101 54.89 63.4501C54.5 62.6901 53.39 48.4501 53.39 47.5401C53.39 46.8301 55.04 40.1301 55.67 37.6001C55.67 41.2801 55.67 45.5301 55.67 46.2301C56.2696 49.4035 57.0306 52.5442 57.95 55.6401L58.65 58.1501L60.56 62.7301L60.58 63.0001Z" fill="#DAA733"/>
<path d="M101.33 47.4099V50.6199L92.95 56.3199L82.26 51.7399C82.89 51.7399 95.83 42.8999 95.83 42.8999L101.33 47.4099Z" fill="white" stroke="#231F20" stroke-linejoin="round"/>
<path d="M73.3901 51.41C72.9801 51.41 66.83 54.82 64.8 55.96L64.1401 56.32L57.0601 48.08L60.1601 43.08L60.6201 42.27L73.3901 51.41Z" fill="white" stroke="#231F20" stroke-linejoin="round"/>
<path d="M79.26 219.72L79 239.08L69.31 243.48C69.31 243.48 69.31 228.21 69.31 227.48C69.2384 227.458 69.1617 227.458 69.09 227.48L68.94 227.56L68.75 227.67C66.41 229.02 57.7 235.87 57.7 235.87L57.41 235.63L56.52 219.63V216H56.73C57.82 217.28 59.97 219.74 60.34 219.74L79.26 219.72Z" fill="#EE4023"/>
<path d="M130.67 267.63L116.28 355.08L102.2 356.48L77 274.19C77 274.19 87.75 265.39 98.51 256.73C100.78 254.9 103.06 253.07 105.23 251.34C104.92 259.05 103.28 293.52 103.28 293.52C103.28 293.52 115.98 321.68 116.34 321.12C116.7 320.56 130.24 269.24 130.67 267.63Z" fill="#7C4B20"/>
<path d="M47.24 510.8L19.65 512.37C19.65 512.37 9.65001 513.58 8.85001 513.37C8.05001 513.16 0.0499878 511.2 0.0499878 511.2L0.820007 507.81L14.68 508.51H15.13L25.94 509.2L39.81 506.02L40.35 505.9C40.4029 505.891 40.4571 505.891 40.51 505.9V505.9C40.87 505.8 46.74 504.24 46.92 504.29C47.16 507.92 47.24 510.8 47.24 510.8Z" fill="#7C4B20"/>
<path d="M25.88 509.1L39.86 506.08L25.98 509.26L15.17 508.57L14.72 508.55H14.71L14.68 508.53L14.98 508.55L25.88 509.1Z" fill="#001750"/>
<path d="M47 504.29C46.82 504.29 40.95 505.8 40.59 505.9L40.54 505.77V505.63L40.22 504.71C40.13 504.46 40.03 504.18 39.91 503.87C39.79 503.56 39.68 503.22 39.54 502.87L39.38 502.46C39.33 502.3 39.27 502.12 39.2 501.95L38.44 499.95L38.19 499.29L37.29 496.95C37.12 496.51 36.96 496.06 36.79 495.62C36.36 494.52 35.94 493.43 35.55 492.41C35.4 492.03 35.26 491.67 35.12 491.33C34.72 490.33 34.36 489.33 34.05 488.6C34.0194 488.494 33.9826 488.391 33.94 488.29L33.79 487.9C33.73 487.75 33.67 487.6 33.63 487.48L33.49 487.13C33.38 486.83 33.31 486.66 33.31 486.66L33.44 485.88V486.88H45.92C46 486.86 46.86 498.07 47 504.29Z" fill="#EE4023"/>
<path d="M39.45 473H39.21V472.5L39.45 473Z" fill="#1C387F" stroke="#9BB8C8" stroke-miterlimit="10"/>
<path d="M40.43 505.94L39.89 506.07L26 509.26L15.19 508.57H14.74L6.23999 504.33L24.65 494.91L27.09 496.59L27.96 497.19L28.59 497.63L29.42 498.21C33.61 501.11 39.32 505.08 40.43 505.94Z" fill="#EE4023"/>
<path d="M14.71 508.55L0.820007 507.83L6.17001 504.29H6.17999L14.71 508.55Z" fill="#F8B517"/>
<path d="M136.44 501.69L119.24 495.9L118.69 486.5L118.75 486.86H131.07L136.44 501.69Z" fill="#EE4023"/>
<path d="M139.83 510L121.76 509.66C121.76 509.66 119.28 502.11 119.28 501.79V496.16V495.91L136.48 501.7L139.83 510Z" fill="#F8B517"/>
<path d="M141 512.81L130.88 516.21H121.88L117.64 510.77L119.28 502.1V501.78C119.28 502.1 121.76 509.65 121.76 509.65L139.83 509.99L141 512.81Z" fill="#7C4B20"/>
<path d="M40.63 505.9C40.5771 505.891 40.5229 505.891 40.47 505.9V505.9L29.47 498.12L28.64 497.54L28.01 497.1L27.14 496.5L24.7 494.82L33.4 486.59C33.4 486.59 33.47 486.76 33.58 487.06L33.72 487.41C33.72 487.53 33.82 487.68 33.88 487.83L34.03 488.22C34.0726 488.321 34.1094 488.424 34.14 488.53L39.47 502.4L39.63 502.81L40.63 505.52C40.6515 505.602 40.6682 505.686 40.68 505.77C40.68 505.77 40.62 505.86 40.63 505.9Z" fill="#F4831F"/>
<path d="M55 104.64L45.1 114.34L41.81 117.55C41.81 117.55 41.66 118.29 41.4 119.48C40.31 124.43 37.55 137 37 137C36.2724 137.138 35.5542 137.321 34.85 137.55C31.96 138.41 27.21 139.96 27.21 139.96L23.13 135.59L19.2 121.48L25.45 129.26L37.11 116.78L47.44 108.47L39.98 99.4702L43.91 100.81L55 104.64Z" fill="#7C4B20"/>
<path d="M20.66 255.28C20.66 255.28 14.01 259.36 13.9 259.84C13.79 260.32 4.99003 252.38 3.95003 251.43C3.64003 257.61 4.11 281.69 4.11 281.69L5.84001 283.13L16.84 279.34L25.41 269.99L20.66 255.28ZM5.84001 279.51L6.84001 263.08L9.58 276.56L5.84001 279.51Z" fill="#EE4023"/>
<path d="M17.7 199.16L15.57 218.93L13.57 203.88L11 199.3C11 199.21 11 199.16 11 199.16L15.47 197.96L17.7 199.16Z" fill="#F4831F"/>
<path d="M15.63 250.91L20.63 255.28C20.63 255.28 13.98 259.36 13.87 259.84C13.76 260.32 4.96003 252.38 3.92003 251.43C3.90511 250.951 3.95896 250.473 4.08001 250.01C4.66001 249.1 10.64 202.24 11.01 199.3L13.53 203.88L15.53 218.93L13.86 234.47L21 244.65L10.24 247L6.81002 251L15.63 250.91Z" fill="#F8B517"/>
<path d="M33.93 209.95L20.99 244.65L13.9 234.47L17.7 199.16L32.88 207.59L33.93 209.95Z" fill="#7C4B20"/>
<path d="M20.13 253.67L20.66 255.28L15.63 250.91H6.81L10.24 246.96L20.99 244.65L20.13 253.67Z" fill="#7C4B20"/>
<path d="M27.9 289.21H13.14L5.83997 283.13L16.86 279.34L25.43 269.99L27.61 276.67L27.9 289.21Z" fill="#F8B517"/>
<path d="M107.16 173.65C107.16 173.65 101.82 191 101.78 191C101.806 191.088 101.826 191.179 101.84 191.27C100.47 189.27 97.84 185.4 97.45 185.4C97.06 185.4 91.27 182.96 88.64 181.95C88.6353 181.913 88.6353 181.876 88.64 181.84C89.09 179.74 89.38 178.32 89.38 178.32L91.97 179.42L96.53 167.78L103.16 158.5L108.03 153.77L116.24 145.82L119.8 148.39L107.16 173.65Z" fill="#EE4023"/>
<path d="M108.05 153.75L103.18 158.48L96.55 167.76L92 179.4L89.41 178.3L70.67 170.35L56.54 177.73L54.99 178.55L46.23 165.25L40.89 161.46L52.14 164.35L63.4 146.91L70.18 161.59L75.33 149.33C75.33 149.33 89.53 162.76 89.88 162.6C90.23 162.44 107.52 154 108.05 153.75Z" fill="#7C4B20"/>
<path d="M89.4001 178.3C89.4001 178.3 89.1101 179.72 88.6601 181.82C88.6554 181.857 88.6554 181.894 88.6601 181.93C87.3601 187.93 84.7601 199.34 83.7401 199.16C82.3701 198.92 69.36 193.46 69.36 193.46L57.9401 199.16L56.55 177.73L70.6801 170.35L89.4001 178.3Z" fill="#F8B517"/>
<path d="M116.28 145.79L108.07 153.74C107.54 154.01 90.26 162.43 89.9 162.59C89.54 162.75 75.33 149.32 75.33 149.32L89.72 140C89.72 140 102.35 135.63 102.98 136.12C103.41 136.43 111.47 142.29 116.28 145.79Z" fill="#F8B517"/>
<path d="M48.54 253.73L37.54 241.98L44.61 225.81C45.04 226.11 45.61 226.55 46.36 227.09L48.54 253.73Z" fill="#F8B517"/>
<path d="M57.71 235.92C57.71 235.92 50.33 230.1 46.35 227.09C45.64 226.55 45.03 226.09 44.6 225.81L50.8 211.62L56.53 219.72L57.71 235.92Z" fill="#7C4B20"/>
<path d="M69.34 243.48L57.71 235.92C59.57 234.42 67.15 228.61 68.95 227.61L69.1 227.53C69.1716 227.508 69.2483 227.508 69.32 227.53V227.53C69.38 228.21 69.34 243.48 69.34 243.48Z" fill="#F8B517"/>
<path d="M110.33 225.34L106.39 226.69L83.73 234.47V219.72L105.32 209.95L110.33 225.34Z" fill="#7C4B20"/>
<path d="M116.28 355.08C116.28 355.08 111.28 375.68 111.05 376.56C110.82 377.44 102.2 356.48 102.2 356.48L116.28 355.08Z" fill="#F8B517"/>
<path d="M78.34 305.86C78.6 304.48 63.87 357.27 63.87 357.27L57.54 363.32C57.54 363.32 61.33 354.21 61.54 353.41C61.75 352.61 75.88 301.71 75.88 301.71C75.88 301.71 66.51 298.26 68.18 298.52C70.7648 298.66 73.3553 298.66 75.94 298.52L81.01 297L93.38 361.32C93 359.69 78.08 307.21 78.34 305.86Z" fill="#F8B517"/>
<path d="M124.33 354L130.68 267.62L116.29 355.07C116.29 355.07 111.29 375.67 111.06 376.55C110.83 377.43 102.21 356.47 102.21 356.47L77 274.19C77 274.19 87.75 265.39 98.51 256.73L106.35 226.73L83.69 234.51V237L79 239.08L69.31 243.48L57.88 236L57.42 235.65C56 234.54 49.86 229.71 46.35 227.06L48.54 253.7L50.54 255.83L69.35 275.91L53.1 361.35L40.16 353.35L32 283.45L30.59 331.11L34.48 350.32L30.29 376.82L34.48 386.26L33.5 473H39.22V415.8C39.22 414.65 57.34 375.21 57.34 375.21L65.72 394.08L46.63 473H50.4L71.82 391.23L57.54 363.3C57.54 363.3 61.33 354.19 61.54 353.39C61.75 352.59 75.89 301.69 75.89 301.69C75.89 301.69 66.52 298.24 68.18 298.5C70.7648 298.64 73.3553 298.64 75.94 298.5L81.01 296.98L93.38 361.3V386.47C93.38 386.47 116.67 478 117.73 478.8C117.883 478.891 118.053 478.949 118.23 478.97C120.316 479.188 122.416 479.241 124.51 479.13H125.4L116.45 419C116.45 419 127.28 383 127.28 382.31C127.28 381.62 132.52 385.73 132.52 385.73L130.69 478.85L132.07 478.78L132.29 477.08C132.67 464.3 135.06 384.45 136.03 384.2C137 383.95 124.33 354 124.33 354ZM34.38 371.9L37.9 355.08C38.9 355.51 48.67 365.83 48.67 365.83L34.38 371.9Z" fill="#F4831F"/>
<path d="M120 240.06C118.9 240.57 112.66 245.44 105.27 251.34C103.1 253.07 100.82 254.9 98.55 256.73L106.39 226.73L110.33 225.38L119.6 239L120 240.06Z" fill="#F8B517"/>
<path d="M130.68 267.59C130.25 269.2 116.74 320.53 116.39 321.08C116.04 321.63 103.33 293.48 103.33 293.48C103.33 293.48 104.97 259.01 105.28 251.3C112.67 245.4 118.91 240.53 120.01 240.02L130.68 267.59Z" fill="#EE4023"/>
<path d="M167.52 204.38C167.33 204.59 160.12 212.7 153.74 219.72V250L150.13 256.72L144.66 249.58L132.77 263.87L133.19 271.37H139.64V283.17L150.72 285.93L161.81 279.27C161.81 279.27 161.55 247.1 161.81 246C162 245.12 165.78 217.33 167.52 204.38ZM150.72 281.25L152.53 274.19V262.07L155.89 276.56L150.72 281.25Z" fill="#F8B517"/>
<path d="M161.81 279.23L158.91 286.65L143.07 293.52L134.36 291.88L133.19 271.33H139.64V283.13L150.72 285.89L161.81 279.23Z" fill="#EE4023"/>
<path d="M153.74 219.72V250L150.13 256.72L144.66 249.58L137.52 216.86C137.52 216.86 143.84 229.32 144.05 229.95C144.14 230.19 148.68 225.3 153.74 219.72Z" fill="#7C4B20"/>
<path d="M168.41 197.85C168.41 197.85 168.06 200.41 167.53 204.37C167.34 204.58 160.13 212.69 153.75 219.71C148.69 225.29 144.15 230.18 144.06 229.9C143.85 229.27 137.53 216.81 137.53 216.81L139.65 215.98L149.47 207.58L161.81 197C161.81 197 164.98 194.53 165.81 193.71C166.64 192.89 168.41 197.85 168.41 197.85Z" fill="#EE4023"/>
<path d="M132.52 385.76L130.69 478.88C129.38 478.95 127.41 479.05 125.4 479.11L116.45 419C116.45 419 127.28 383 127.28 382.31C127.28 381.62 132.52 385.76 132.52 385.76Z" fill="#F8B517"/>
<path d="M112.56 119.49L78.74 130.66L69.3 144.18L60.22 129.28L41.36 119.54C41.62 118.35 41.77 117.61 41.77 117.61L45.06 114.41C44.75 114.86 45.06 117.83 45.06 117.83L69 127.16L71.56 128.16L110.46 116L112.56 119.49Z" fill="#F4831F"/>
<path d="M83.73 219.72V234.47V237L79 239.08L79.23 219.72H60.35C59.98 219.72 57.83 217.26 56.74 215.98L83.74 214.83V219.72H83.73Z" fill="#F8B517"/>
<path d="M52.14 295C52.14 295 41.7 320.4 41.53 319.54C41.36 318.68 32.62 285.79 31.95 283.3V282.41L36.84 243.52L37.5 242.02L48.5 253.77L50.5 255.9L52.14 295Z" fill="#EE4023"/>
<path d="M69.34 275.94L53.1 361.35L40.16 353.35L32 283.45V283.28C32.67 285.77 41.41 318.68 41.58 319.52C41.75 320.36 52.14 295 52.14 295L50.53 255.88L69.34 275.94Z" fill="#7C4B20"/>
<path d="M48.67 365.83L34.38 371.9L37.9 355.08C38.93 355.51 48.67 365.83 48.67 365.83Z" fill="#F8B517"/>
<path d="M155.89 276.56L150.72 281.25L152.53 274.19V262.07L155.89 276.56Z" fill="#7C4B20"/>
<path d="M9.54996 276.56L5.83997 279.51L6.80997 263.08L9.54996 276.56Z" fill="#7C4B20"/>
<path d="M65.72 394.1L46.63 473H39.45L39.21 472.5V415.8C39.21 414.65 57.33 375.21 57.33 375.21L65.72 394.1Z" fill="#F8B517"/>
<path d="M50.41 473.02L45.9 486.86H33.41L33.42 485.86L33.51 473.02H50.41Z" fill="#7C4B20"/>
<path d="M132.08 478.81L131.08 486.86H118.75L118.68 486.5L118.24 478.97C120.323 479.188 122.419 479.242 124.51 479.13C126.82 479.13 129.19 478.96 130.68 478.88L132.08 478.81Z" fill="#7C4B20"/>
<path d="M147.68 108.71L107.31 110.82L115.53 105.5L126.54 98.84L128.73 97.52L147.68 108.71Z" fill="#F8B517"/>
<path d="M147.68 108.71L140.89 128.46V128.59L125.35 128.78L125.16 128.59L107.4 110.86L147.68 108.71Z" fill="#EE4023"/>
<path d="M43.67 108.49L27.32 106.44L39.96 99.54L43.67 108.49Z" fill="#F8B517"/>
<path d="M47.42 108.49L37.08 116.8L25.43 129.28L19.18 121.5L27.32 106.44L43.67 108.49L39.96 99.54L47.42 108.49Z" fill="#EE4023"/>
<path d="M81.64 35.6299L97.45 27.1099L75.75 33.4299L81.64 35.6299Z" fill="#F4831F"/>
<path d="M79.25 65.5898L101.48 56.3198L104.43 59.2798L104.79 57.9098L101.48 56.3198L82.26 62.4998L79.25 65.5898Z" fill="#BC7645"/>
<path d="M76.96 65.6598L60.77 58.8198L74.05 62.8698L76.96 65.6598Z" fill="#9B5023"/>
<path d="M95.02 80.1802L85.07 89.0202L83.14 89.9502L79.33 89.0802L77.83 88.6102L83.15 88.3902L95.02 80.1802Z" fill="#9B5023"/>
<path d="M67.97 81.5602L77.83 88.6102L67.97 80.4102V81.5602Z" fill="#9B5023"/>
<path d="M68 80.4102C68 80.5802 78.06 88.4102 78.06 88.4102H83.19L83.02 89.1102L77.86 88.6302C77.86 88.6302 69.58 82.4502 69.53 82.4602C69.48 82.4702 68 80.4102 68 80.4102Z" fill="#9B5023"/>
<path d="M75.75 33.43C75.75 33.43 70.68 24.86 70.61 24.11C70.54 23.36 80.17 6 80.17 6C80.17 6 75.17 21.7 75.39 21.89C75.61 22.08 81.01 31.42 81.01 31.42L75.75 33.43Z" fill="#97712D"/>
<path d="M103.57 7.3998C102.94 7.2098 95.02 10.8298 95.02 10.8298C95.02 10.8298 88.6 27.3398 88.88 27.1098C89.16 26.8798 96.22 12.3498 96.22 12.3498L103.57 7.3998Z" fill="#97712D"/>
<path d="M46.61 26.0099L62.71 17.2499L71.63 19.6899L61.63 5.35986L46.61 26.0099Z" fill="#97712D"/>
<path d="M98.55 369.33C99.07 370.25 113.46 408.21 113.46 408.21L97.24 387.09L98.55 369.33Z" fill="#7C4B20"/>
<path d="M48.67 371.9L35.95 376.59L39.21 415.82L57.33 375.23L48.67 371.9Z" fill="#7C4B20"/>
<path d="M57.88 236.03L52.47 257.93L69.34 275.94L67.18 287.26L74.47 289.21L81.12 287.52L77.04 274.19L93.43 260.86L102.2 227.48L83.73 234.47L83.72 236.95L69.34 243.48L57.88 236.03Z" fill="#F4831F"/>
<path d="M132.16 150.48L130.64 149.96L131.16 148.96L134.69 142.33V142.27V142.2L141.22 130L151 157V157.08C147.25 155.71 136.22 151.88 132.16 150.48Z" fill="#F8B517"/>
<path d="M161.53 194.79L151.88 190.59L145.05 187.59L145.13 187.26L145.46 185.89L145.55 185.49L151.83 159.3L160 181.9L161.53 194.79Z" fill="#EE4023"/>
<path d="M145.16 188.43C145.8 192.16 148.35 207.12 148.38 208.33C148.375 208.41 148.355 208.488 148.32 208.56C147.71 209.93 142.32 213.96 139.85 215.8L139.76 215.87L139.7 215.92H139.63L142 188.59V188.33L139.7 185.16L135.14 178.87L121.49 151.67L121.43 151.55C124.3 150.75 130.48 149.05 131.15 148.96C131.346 148.993 131.54 149.039 131.73 149.1C131.73 149.1 146.91 155.25 150.93 156.96V157.04L151.75 159.31L145.47 185.5L145.38 185.9L145.05 187.27L144.97 187.6L145.16 188.43Z" fill="#F4831F"/>
<path d="M161.8 197L151.89 205.49C151.79 205.57 151.69 205.66 151.59 205.73L149.45 207.46L148.38 208.31L145.16 188.41L145.02 187.58L151.85 190.58L161.5 194.78L161.8 197Z" fill="#EE4023"/>
<path d="M150.3 185.06L146.3 186.76L146.11 186.84H146.06L145.11 187.24L142 188.59V188.33L139.7 185.16C141.97 185.32 144.39 185.44 145.22 185.48H145.51L150.3 185.06Z" fill="#7C4B20"/>
<path d="M141.22 130L134.77 142.14V142.21V142.27L131.17 149L121.51 151.71L119.85 148.4L121.35 142.95L123.14 136.16H123.2L123.36 136.08L123.76 135.91L124.05 135.78L124.47 135.6L124.68 135.51L125.05 135.35L125.61 135.11L125.95 134.96L127.95 134.11L135.84 130.71L137.14 130.15L140.19 128.84L140.52 128.7H140.6H140.65L140.85 128.59V128.72L141.22 130Z" fill="#F4831F"/>
<path d="M37.15 136.78L35.49 139.49L32.44 151.15L31.77 152.38C31.77 152.38 38.45 166.12 37.77 166.84C37.09 167.56 25.68 177.24 25.68 177.24L21.55 151.15L27.19 140L37.15 136.78Z" fill="#F4831F"/>
<path d="M25.67 177.21L25.09 177.64L16.09 184.34C16.16 182.34 16.24 180.46 16.3 178.81L17.58 167.19L17.77 165.48C19.71 154.29 23.11 135.59 23.11 135.59L27.2 139.96L21.56 151.13L24.8 171.59V171.66L25.68 177.18L25.67 177.21Z" fill="#EE4023"/>
<path d="M37.77 166.84L37.7 167.51L34.06 189.51L32.88 207.51L24.88 203.07L23.1 202.07L22.44 201.7C22.44 201.7 22.49 201.36 22.56 200.77C22.56 200.57 22.62 200.34 22.65 200.09C22.68 199.84 22.71 199.67 22.74 199.43C22.83 198.77 22.93 197.98 23.05 197.11C23.05 196.93 23.05 196.74 23.13 196.54C23.21 196.34 23.22 195.89 23.26 195.54C23.2552 195.457 23.2552 195.373 23.26 195.29L23.43 193.99C23.5 193.45 23.57 192.89 23.65 192.31L23.8 191.18C24.02 189.47 24.26 187.72 24.48 186.05C24.53 185.71 24.57 185.37 24.62 185.05C24.67 184.73 24.67 184.6 24.71 184.38C24.77 183.86 24.84 183.38 24.9 182.89C24.9 182.56 24.99 182.24 25.03 181.89C25.07 181.54 25.11 181.28 25.15 180.99V180.73V180.5L25.24 179.79L25.33 179.09C25.33 178.87 25.38 178.67 25.41 178.48L25.48 177.98L25.59 177.16L25.72 177.05L26.07 176.75C28.16 174.92 36.41 167.75 37.57 166.85H37.62L37.77 166.84Z" fill="#EE4023"/>
<path d="M25.69 177.23L25.58 178.05C25.58 178.2 25.53 178.36 25.51 178.55C25.49 178.74 25.46 178.94 25.43 179.16C25.4 179.38 25.37 179.61 25.34 179.86C25.31 180.11 25.28 180.29 25.24 180.52V180.77V181.03C25.2 181.324 25.16 181.624 25.12 181.93C25.12 182.24 25.03 182.56 24.99 182.93C24.93 183.41 24.86 183.93 24.8 184.42C24.8 184.64 24.73 184.87 24.71 185.09C24.69 185.31 24.62 185.76 24.57 186.09C24.35 187.76 24.11 189.51 23.89 191.22L23.74 192.35C23.66 192.93 23.59 193.49 23.52 194.03L23.35 195.33C23.3452 195.413 23.3452 195.497 23.35 195.58C23.35 195.92 23.26 196.25 23.22 196.58C23.18 196.91 23.17 196.98 23.14 197.16C23.02 198.03 22.92 198.82 22.83 199.48C22.83 199.72 22.8 199.94 22.74 200.14C22.74 200.39 22.68 200.62 22.65 200.82C22.58 201.41 22.53 201.75 22.53 201.75L15.63 197.92C15.63 197.92 15.92 190.86 16.18 184.33C16.25 182.33 16.33 180.45 16.39 178.8L17.67 167.18C18.74 168.71 23.41 174.33 25.14 176.41L25.77 177.15L25.69 177.23Z" fill="#F8B517"/>
<path d="M140.85 128.59L140.73 128.65H140.63L140.46 128.73C138.76 129.44 132.46 132.09 127.95 134L125.95 134.85L125.61 135L125.05 135.24L124.68 135.4L124.47 135.49L124.05 135.67L123.76 135.8L123.36 135.97L123.2 136.05C122.65 136.05 116.96 126.74 112.56 119.41L110.46 115.92C108.81 113.14 107.62 111.11 107.46 110.79L125.25 128.57L140.85 128.59Z" fill="#7C4B20"/>
<path d="M63.39 146.91L52.13 164.35L40.88 161.46L38.8 159.99L31.46 151.2L35.45 139.15V139.14L38.75 135.67L52.87 136.29L63.39 146.91Z" fill="#F8B517"/>
<path d="M105.32 210L83.73 219.77V214.88L56.53 216V219.73L50.8 211.63L48.08 176.93L39.65 170.52L37.83 166.81L30.83 152.46L31.5 151.23L38.8 160L40.88 161.47L46.22 165.26L54.98 178.56L56.53 177.74L57.92 199.17L69.34 193.47C69.34 193.47 82.34 198.93 83.72 199.17C84.72 199.35 87.34 187.96 88.64 181.94C91.27 182.94 97.02 185.39 97.45 185.39C97.88 185.39 100.45 189.24 101.84 191.26C102.29 193.57 105.32 210 105.32 210Z" fill="#EE4023"/>
<path d="M123.22 136.1L119.84 148.36L116.28 145.79C111.47 142.29 103.41 136.43 102.98 136.1C102.35 135.61 89.72 139.98 89.72 139.98L75.31 149.33L70.17 161.59L63.39 146.91L52.87 136.29L38.75 135.67L35.45 139.14L37 137C37.57 137 40.33 124.41 41.38 119.49L60.24 129.24L69.32 144.16L78.76 130.62L112.58 119.44C117 126.88 122.78 136.32 123.22 136.1Z" fill="#EE4023"/>
<path d="M111.59 158.1C111.47 158.54 100.94 171.47 100.94 171.47L100.78 176.41" fill="#F8B517"/>
</svg>
