<svg width="193" height="489" viewBox="0 0 193 489" fill="none" xmlns="http://www.w3.org/2000/svg">
<path d="M89.1 47.61C89.9984 48.3016 90.6533 49.2613 90.97 50.35C91.0732 51.1107 90.922 51.8842 90.54 52.55C90.1578 53.2085 89.6904 53.8137 89.1499 54.35C86.3699 57.26 82.77 59.61 78.75 60.05C78.0154 60.1575 77.2667 60.1133 76.5499 59.92C75.7607 59.6383 75.0674 59.1391 74.5499 58.48C74.1117 57.9653 73.7512 57.3892 73.48 56.77C73.3289 56.3965 73.1552 56.0324 72.9599 55.68C72.2999 54.63 70.96 54.11 70.35 53.05C69.8469 51.9399 69.7341 50.6923 70.0299 49.51C70.0397 49.3572 70.0879 49.2093 70.17 49.08C70.2498 48.9736 70.3569 48.8907 70.48 48.84C73.0438 47.6122 75.8857 47.081 78.72 47.3C81.5437 47.5299 84.3782 47.6 87.2099 47.51C88.1599 47.43 89.3 47.35 89.91 48.08" fill="#E4B17B"/>
<path d="M95.9399 43.38L82.2599 43.61C81.9599 43.61 77.2099 45.87 77.2099 45.87L74.9199 43.41L64.9199 43.15L66.2599 49.62L68.7499 56.24L75.0099 63.09H87.2899L99.1899 52.81L95.9399 43.38ZM82.8899 55.81C82.6399 55.73 77.0999 55.81 77.0999 55.81L75.5299 53.35H85.2899C85.2899 53.35 83.1399 55.89 82.8899 55.81ZM73.4099 50.81L75.0799 49.62C75.0799 49.62 84.1599 49.56 84.4799 49.62C84.7999 49.68 89.0499 50.9 89.0499 50.9L73.4099 50.81Z" fill="#E4B17B"/>
<path d="M72.04 0.390015L78.7 2.23001L86.61 0.390015L102.01 4.41002L88.4 7.77002L75.97 7.08002L72.04 0.390015Z" fill="#3E383E"/>
<path d="M189.49 216.32V216.77H174.38L186.54 162.15C186.54 162.15 191.81 185.35 192.26 186.01V186.15C192.77 188.77 189.49 216.32 189.49 216.32Z" fill="#3C6A4C"/>
<path d="M184.13 216.77L178.94 244.32L173.79 230.54L167.82 228.55L167.97 228.1L174.38 216.77H184.13Z" fill="#E4B37C"/>
<path d="M178.94 244.32L168.64 247.76L166.32 244.32L171.62 242.56V238.04L166.32 244.32L163.93 240.76L167.82 228.55L173.79 230.54L178.94 244.32Z" fill="#D1925E"/>
<path d="M191.54 243.2L186.83 247.76H168.64L178.94 244.32L191.54 243.2Z" fill="#9E6F5A"/>
<path d="M189.48 216.77L191.54 243.2L178.94 244.32L184.13 216.77H189.48Z" fill="#D1925E"/>
<path d="M168.08 99.57V99.64L152 120.18L136.58 113V97.47L155.07 79.8L155.4 79.85L168.08 99.57Z" fill="#26342D"/>
<path d="M155.07 79.8L136.58 97.47L114.71 85.83L129.79 75.76L130.02 75.86L155.07 79.8Z" fill="#5ECC6B"/>
<path d="M105.13 66.4C100.13 68.53 83.2501 76.55 82.9401 76.33C82.6301 76.11 75.2501 70.75 71.5801 67.98L82.0501 71.76L105.77 61.48L105.83 65.33L105.13 66.4Z" fill="#D0A17F"/>
<path d="M105.17 55.34L105.77 61.47L82.0501 71.75L71.5801 68L72.7301 62.54L74.6001 64.77H87.2001L105.17 55.34Z" fill="#BB865E"/>
<path d="M103.64 45.66L104.21 45.05L103.64 45.66L105.16 55.34L87.1599 64.74L98.9999 52.81C99.9206 48.7074 101.195 44.6923 102.81 40.81C103 40.42 103.64 45.47 103.64 45.66Z" fill="#966C54"/>
<path d="M99 52.81L87.15 64.74H74.55L72.68 62.51L68.34 56.51L66.08 49.8L64.02 43.1L65.36 43.17L66.7 49.64L69.19 56.26L74.98 63.11H87.1L99 52.81Z" fill="#C7915D"/>
<path d="M109.9 28.81V39L103.64 45.7C103.64 45.51 103 40.46 102.84 40.81C105.4 34.81 107.97 28.81 108.07 28.81H109.9Z" fill="#D0A17F"/>
<path d="M108.32 13.68L108.18 28.68L97.89 24.33L98.51 14.16L94.04 14.89L81.04 18.41L68.04 13.74L65.96 25.15L67.19 9.15001C67.19 9.15001 78.45 11.59 78.71 11.59C78.97 11.59 96.31 9.98002 96.71 9.86002C97.11 9.74002 102.2 7.73001 102.49 7.45001L108.32 13.68Z" fill="#22201F"/>
<path d="M94 14.93L91.36 23.93C91.36 23.93 78.87 29.2 78.68 29.34C78.49 29.48 70.21 24.93 69.83 24.81C69.45 24.69 67.97 13.81 67.97 13.81L80.47 18.29L94 14.93Z" fill="#E4B17B"/>
<path d="M108.31 28.81L102.19 30.88L97.1099 32.4L94.2599 28.96L91.8799 26.1L97.8899 24.37L108.13 28.72L108.31 28.81Z" fill="#5ECC6B"/>
<path d="M102.51 30.69C102.51 30.69 97.6801 39.74 96.2301 42.56C96.1201 42.75 96.0401 42.9 95.9701 43.04L95.8 43.33L82.4301 43.56C82.1301 43.56 77.2401 45.82 77.2401 45.82L74.7901 43.36L65.7901 43.1L64.05 43.03L68.2901 38.55L75.3701 40.3L76.7801 33.36L67.3 29.09L65.6501 25.51L65.9301 25.14L78.3901 31.49L92.0001 26.05L94.2701 28.79L80.4901 33.79L81.6901 40.36C81.9701 40.36 94.4501 39.86 94.6901 39.79C94.9301 39.72 97.1401 32.24 97.1401 32.24L102.51 30.69Z" fill="#26342D"/>
<path d="M76.7801 33.41L75.3701 40.35L74.8201 33.74L67.3 29.14L76.7801 33.41Z" fill="#5ECC6B"/>
<path d="M68.2899 38.6L64.0499 43.08L63.1599 33.97V28.81L65.6499 25.56L67.2999 29.14L65.4999 32.7L67.1599 38.32L68.2899 38.6Z" fill="#5ECC6B"/>
<path d="M94.29 28.79L83.8 33.54L81.71 40.35L80.51 33.78L94.29 28.79Z" fill="#5ECC6B"/>
<path d="M108.3 28.81C108.06 29.17 105.56 34.95 103.09 40.75L103 41C100.78 46.16 99.73 51.36 99.16 52.53C99.16 52.53 99.16 52.69 99.1 52.73C99.0787 52.7676 99.0476 52.7987 99.01 52.82L95.74 43.34V43.29C95.8016 43.1963 95.8584 43.0995 95.91 43C95.98 42.86 96.06 42.71 96.17 42.52C97.69 39.71 102.45 30.65 102.45 30.65L107.93 28.88L108.23 28.77L108.3 28.81Z" fill="#3C6A4C"/>
<path d="M99.1899 184L95.9199 188.8L77.3799 190.99V132.58L100.67 143.46L96.9999 157.13L99.1899 184ZM84.1899 131.25C84.1899 131.25 109.56 135.9 110.25 135.73C110.94 135.56 131.33 119.46 132 119L112.34 143.5L84.1899 131.25ZM139.49 134.1L129 105.69L122.67 120.18C122.67 120.18 107.67 128.85 107.32 129.18C106.97 129.51 78.7399 125.18 78.7399 125.18L80.1399 99.31L89.2799 84.21L80.9899 89.21C80.9899 89.21 73.3899 85.34 72.7899 84.68L78.5799 100.14L74.4699 125.42L50.6599 133.08L33.6599 121.97L49.9999 137.24L66.9999 131.15L52.6699 144.46L54.9999 179.57C54.9999 179.57 64.9299 200.63 65.4099 200.94C65.8899 201.25 90.9499 200.94 90.9499 200.94L108.77 175.19L126.77 167.88C126.77 167.76 126.77 167.7 126.77 167.7L127.3 166.28L139.49 134.1Z" fill="#26342D"/>
<path d="M132 119L112.34 143.5L84.1799 131.2C84.1799 131.2 109.55 135.85 110.24 135.68C110.93 135.51 131.33 119.46 132 119Z" fill="#3C6A4C"/>
<path d="M78.5699 100.15L74.4599 125.43L50.6399 133.09L33.6299 121.98L36.6299 104.86L50.5999 85.83L78.5699 100.15Z" fill="#5ECC6B"/>
<path d="M50.6 85.83L31.36 101.4L17.21 95L31.36 79.9L48.04 79.67L48.59 79.42C49.86 81.43 50.6 85.83 50.6 85.83Z" fill="#5ECC6B"/>
<path d="M19.88 121.21L19.93 121.07L17.21 95.03L31.36 101.4L33.63 121.98L19.88 121.21Z" fill="#26342D"/>
<path d="M53.6201 205L66.3101 230.55L65.1401 228.73L64.6601 227.97L64.3901 227.56L63.8101 226.66L63.1701 225.66L62.83 225.13L61.7501 223.45L60.5901 221.63L59.7701 220.36L58.9401 219.06L58.5101 218.4L57.6901 217.12L56.3101 215L55.5001 213.74L54.6601 212.41C50.8901 206.52 41.0301 201.7 40.9601 201.41L50.0001 178.82C50.0001 178.82 47.7301 144.61 47.9401 141.07C47.6501 141.84 46.6201 144 45.3101 146.67C45.2201 147.24 43.8101 155.35 43.6701 155.67C43.5301 155.99 38.2401 162.27 38.2401 162.27L15.3 152L38.5401 143.51L33.6301 122L50.0001 137.24L67.0001 131.15L52.6701 144.46L55.0001 179.57L53.6201 205Z" fill="#3C6A4C"/>
<path d="M15.3 151.94L19.61 182.06L8.89005 217.17L1.29004 213.66L7.14005 163.01L15.3 151.94Z" fill="#5ECC6B"/>
<path d="M38.2201 162.38L37.5001 176.07L15.7301 217.43L8.89014 217.17L19.6101 182.06L38.2201 162.38Z" fill="#3C6A4C"/>
<path d="M13.7799 232.93L4.21988 246.23L0.879883 232.09L1.28989 213.66L8.88989 217.17L13.7799 232.93Z" fill="#D2935C"/>
<path d="M22.5701 229.56L13.7801 232.93L8.89014 217.17L15.7301 217.43L22.4401 229.21L22.5701 229.56Z" fill="#E5B47E"/>
<path d="M26.03 239.65L22.44 242.32L13.78 232.93L22.57 229.56L26.03 239.65Z" fill="#CF975D"/>
<path d="M22.44 242.32L20.27 246.37L19.52 247.76L4.24997 246.31L4.21997 246.23L13.78 232.93L22.44 242.32Z" fill="#9D6D5F"/>
<path d="M129.28 192L100.67 215.48L90.6699 230.54C90.1499 229.86 112.86 197.54 112.34 197.06C111.82 196.58 108.74 175.19 108.74 175.19L126.74 167.88C126.98 170.04 129.2 190.63 129.2 191.47C129.215 191.648 129.242 191.825 129.28 192V192Z" fill="#3C6A4C"/>
<path d="M66.3201 230.54L58.9201 287.33L30.0801 266.76L41.0001 201.39C41.1401 202 65.7701 229.65 66.3401 230.52L66.3201 230.54Z" fill="#26342D"/>
<path d="M146.27 249.71L140.57 310.08C140.57 310.08 131.16 321.37 127.62 326.36C130.19 320.67 135.54 306.42 135.54 306.16C135.54 305.9 122.37 288.78 120.93 285.28C121.02 284.86 121.02 284.64 120.93 284.66C120.84 284.68 120.8 284.9 120.93 285.28C119.93 289.5 102.75 316.11 101.83 318.09L101.76 318.22C94.3099 293.22 90.0399 257.65 90.0399 257.65L86.6699 294.75C86.6699 294.75 80.6699 320.64 80.6099 321.2L74.2499 325.15L63.4099 331.93C62.6099 332.45 73.9099 310.63 73.9099 310.63L58.9099 287.33L66.3099 230.54C66.3099 230.54 90.6399 231.22 90.6399 230.54L120.91 283.33L146.27 249.71Z" fill="#3C6A4C"/>
<path d="M58.9201 287.33L43.1801 321.42L30.0701 266.75L58.9201 287.33Z" fill="#3C6A4C"/>
<path d="M80.16 344.08L65.24 358.68L40.5 334.75L42.69 323.11L42.95 322.2L43.18 321.42L58.92 287.33L73.92 310.63C73.92 310.63 62.62 332.45 63.41 331.93C64.2 331.41 80.61 321.2 80.61 321.2C80.83 320.53 80.16 344.08 80.16 344.08Z" fill="#B7C259"/>
<path d="M86.67 381.63L65.24 358.68L80.16 344.09L86.67 381.63Z" fill="#5ECC6B"/>
<path d="M67.8 452.48C67.8 452.48 68.03 450.94 68.41 448.34L67.14 453L65.24 358.72L83.48 402.18L67.8 452.48Z" fill="#26342D"/>
<path d="M49.44 425.77C49.44 425.77 49.62 364.96 49.39 364.3C49.16 363.64 40.5 335.42 40.5 334.75L65.24 358.68L67.14 452.96L49.44 425.77Z" fill="#3C6A4C"/>
<path d="M68 476.51L30.05 478.28C30.05 478.28 20.84 481.39 19.94 481.17C19.04 480.95 4.21997 478.73 4.21997 478.73L5.10995 473.17L24.75 474.01L42.86 474.79L60.16 471.01C60.16 471.01 67.54 469.14 67.76 469.2C67.93 473.28 68 476.51 68 476.51Z" fill="#26342D"/>
<path d="M67.7899 469.2C67.5699 469.14 60.1899 471.01 60.1899 471.01L51.5199 449.37L49.4399 425.54L67.14 452.73C67.25 452.73 67.5799 462.21 67.7899 469.2Z" fill="#26342D"/>
<path d="M60.1899 471.01L42.8899 475.01L24.7799 474.24L14.1499 469.2L41.2299 458.61L60.1899 471.01Z" fill="#3C6A4C"/>
<path d="M24.7801 474.24L5.14014 473.17L14.1401 469.2H14.1501L24.7801 474.24Z" fill="#5ECC6B"/>
<path d="M146.26 249.71L120.92 283.35C120.27 282.72 138 210.88 138 210.88C142.84 226.81 146.26 249.71 146.26 249.71Z" fill="#3C6A4C"/>
<path d="M140.57 310.08C140.57 310.08 131.16 321.37 127.57 326.36C130.15 320.67 135.5 306.42 135.5 306.16C135.5 305.9 122.33 288.78 120.89 285.28C119.89 289.68 101.72 318.22 101.72 318.22L123.15 333.66L126.26 355.9L143.71 339L140.57 310.08Z" fill="#B7C259"/>
<path d="M139.25 429.21L116.58 388.31C116.58 388.31 116.58 387.89 116.48 387.15C116.54 385.86 126.3 363.75 126.3 363.75L112.19 345.21C112.19 344.96 107.33 333.21 101.89 318.44L123.32 333.88L126.32 355.94L160.91 424.84L162.58 457L139.25 429.21Z" fill="#3C6A4C"/>
<path d="M126.3 363.71C126.3 363.71 116.54 385.82 116.48 387.11C115.87 380.01 112.19 345.77 112.19 345.17L126.3 363.71Z" fill="#5ECC6B"/>
<path d="M160.89 424.8L126.31 355.9L143.71 338.97L158.31 375.63L160.89 424.8Z" fill="#26342D"/>
<path d="M168 469.53L144.34 461.96L139.67 430.07L139.25 429.21L162.58 456.95L168 469.53Z" fill="#26342D"/>
<path d="M172.67 480.38L147.8 479.93C147.8 479.93 144.39 470.06 144.39 469.65V462.29L144.34 461.96L168 469.53L172.67 480.38Z" fill="#3C6A4C"/>
<path d="M174.25 484.06L160.33 488.51H148L142.16 481.4L144.41 470.06V469.65C144.41 470.06 147.82 479.93 147.82 479.93L172.69 480.38L174.25 484.06Z" fill="#26342D"/>
<path d="M186.54 162.15L167.1 152.44L152 120.18L168.05 99.64C168.05 100.74 167.83 115.14 168.05 115.77C168.27 116.4 172.43 131.22 172.43 131.22C172.43 131.22 178 149.68 178 149C178 148.32 186.54 162.15 186.54 162.15Z" fill="#3C6A4C"/>
<path d="M167.1 152.44C167.1 152.44 159 159.93 155 163.8C153.86 162.66 144.93 154.96 143.22 153.7C145.86 154.43 166 152.44 167.1 152.44Z" fill="#26342D"/>
<path d="M174.38 216.77L157.48 184.6L155.2 164L155.04 163.83C158.96 159.96 167.1 152.47 167.1 152.47L174.38 216.77Z" fill="#5ECC6B"/>
<path d="M186.54 162.15L174.38 216.77L167.1 152.44L186.54 162.15Z" fill="#26342D"/>
<path d="M113.07 69.92L89.2699 84.23L80.9799 89.23C80.9799 89.23 73.3799 85.36 72.7699 84.7V84.61C73.0299 84.44 69.3999 77.19 67.1499 72.73C67.3599 72.54 71.4799 68.13 71.5699 68.03C75.2399 70.8 82.6699 76.2 82.9299 76.38C83.1899 76.56 100.76 66.38 105.8 64.21L113.07 69.92Z" fill="#5ECC6B"/>
<path d="M78.5701 100.15L50.6001 85.83L72.7401 84.6L72.7701 84.69L78.5701 100.15Z" fill="#3C6A4C"/>
<path d="M36.6299 104.86L33.6299 121.98L31.3599 101.4L50.5999 85.83L36.6299 104.86Z" fill="#3C6A4C"/>
<path d="M38.5401 143.46L15.3001 151.94L15.0901 133.32L19.8801 121.21L33.6301 121.98L38.5401 143.46Z" fill="#5ECC6B"/>
<path d="M38.2701 162.28C38.2725 162.313 38.2725 162.347 38.2701 162.38L19.6601 182.05L15.3501 151.94L38.2701 162.28Z" fill="#26342D"/>
<path d="M20.27 246.37L7.53003 243.9L12 240.18L22.44 242.32" fill="#CF975D"/>
<path d="M114.71 85.83L80.1299 99.33L89.2699 84.23L114.71 85.83Z" fill="#3C6A4C"/>
<path d="M129 105.69L125.15 121C125.15 121 109.36 130.89 109 131.25C108.64 131.61 78.73 125.25 78.73 125.25L80.13 99.38L114.71 85.88L129 105.69Z" fill="#5ECC6B"/>
<path d="M167.1 152.44C165.98 152.44 145.86 154.44 143.26 153.7C143.159 153.609 143.04 153.54 142.91 153.5C142.38 152.37 145.68 126.19 145.68 126.19L152.04 120.19L167.1 152.44Z" fill="#5ECC6B"/>
<path d="M171.62 238.04V242.56L166.32 244.32L171.62 238.04Z" fill="#9E6F5A"/>
<path d="M120.92 283.35L90.6499 230.56L100.65 215.5L129.28 192C129.85 194.12 134.44 201.65 138 210.88C138 210.88 120.27 282.72 120.92 283.35Z" fill="#26342D"/>
<path d="M90.6401 230.54C90.6401 231.2 66.3101 230.54 66.3101 230.54L53.6201 205L54.9401 179.6C54.9401 179.6 64.8801 200.66 65.3501 200.97C65.8201 201.28 90.9001 200.97 90.9001 200.97L108.71 175.22C108.71 175.22 111.8 196.58 112.31 197.09C112.82 197.6 90.1201 229.86 90.6401 230.54Z" fill="#5ECC6B"/>
<path d="M98.5099 14.2L97.8899 24.37L91.9999 26.05L78.3699 31.54L65.9099 25.19L67.9999 13.78C67.9999 13.78 69.4799 24.66 69.8599 24.78C70.2399 24.9 78.5199 29.43 78.7099 29.31C78.8999 29.19 91.3899 23.9 91.3899 23.9L94.0299 14.9L98.5099 14.2Z" fill="#C7915D"/>
<path d="M87.2101 50.92L84.6601 51.48L72.8601 51.21C72.8601 51.21 71.6301 50.83 71.5801 50.83L73.2501 49.64C73.2501 49.64 82.3201 49.58 82.6401 49.64C82.9601 49.7 87.2101 50.92 87.2101 50.92Z" fill="#8F5729"/>
<path d="M83.4599 53.35C83.4599 53.35 81.2999 55.89 81.0599 55.81C80.8199 55.73 75.2699 55.81 75.2699 55.81L73.7 53.35H83.4599Z" fill="#8F5729"/>
<path d="M97.1299 32.23C97.1299 32.23 94.8899 39.71 94.6799 39.78C94.4699 39.85 81.9899 40.35 81.6799 40.35L83.7699 33.54L94.2599 28.79L97.1299 32.23Z" fill="#FFFDFD" stroke="#231F20" stroke-linejoin="round"/>
<path d="M75.37 40.35L68.29 38.6L67.16 38.32L65.5 32.7L67.3 29.14L74.82 33.74L75.37 40.35Z" fill="#FFFDFD" stroke="#231F20" stroke-linejoin="round"/>
<path d="M82.0601 43.69L95.2601 44.97L99.0301 52.81L95.7701 43.38L82.3701 43.61" fill="#6A3F26"/>
<path d="M108.32 13.68L95.3199 12.74L78.7199 15.17L68.2899 12.46L67.1599 9.21004L68.5999 6.62003L89.9099 9.06003L102.01 4.41003L108.32 13.68Z" fill="#22201F"/>
<path d="M76.1201 27.45C76.8905 27.9091 77.6849 28.3263 78.5001 28.7C78.2829 27.0559 77.9826 25.4238 77.6001 23.81C77.2031 23.4632 76.8413 23.078 76.5201 22.66L76.1201 27.45Z" fill="#A46A33"/>
<path d="M79.01 28.68L80.51 26.07V27.88L79.01 28.68Z" fill="#A46A33"/>
<path d="M72.7401 84.6L50.6001 85.83C49.8043 83.2854 48.8009 80.8104 47.6001 78.43L64.8401 68.94L71.5201 67.94C71.4301 68.04 67.3101 72.45 67.1001 72.64C69.3701 77.18 73.0001 84.43 72.7401 84.6Z" fill="#26342D"/>
<path d="M51.6699 76.2L31.3599 79.91L52.1999 80.26L51.6699 76.2Z" fill="#26342D"/>
<path d="M172.46 131.22L167.1 130.58L168.1 115.77C168.31 116.45 172.46 131.22 172.46 131.22Z" fill="#5ECC6B"/>
<path d="M66.2799 230.47L40.9999 201.46L40.9299 201.39L49.9999 178.82C49.9999 178.82 44.7299 145.64 44.9399 142.1L33.6299 122L49.9999 137.24L66.9999 131.15L52.6699 144.46L54.9999 179.57L53.6199 205L66.2499 230.44L66.2799 230.47Z" fill="#3C6A4C"/>
<path d="M96.9799 157.13L99.1999 183.95L95.9199 188.75L95.6399 188.78L89.4999 197.49L77.3799 198.42V132.58L100.67 143.46L96.9799 157.13Z" fill="#5ECC6B"/>
<path d="M102 4.41002L103 9.21002L79.6101 13.78L67.1201 9.21002L68.5601 6.62001C69.9701 4.08001 71.9401 0.550015 72.0001 0.390015C72.0001 0.740015 79.3301 5.22002 79.3301 5.22002L83.2801 2.74002L86.5701 4.41002H102Z" fill="#22201F"/>
<path d="M98.5101 14.2C98.5101 14.2 102.78 11.93 102.74 12.09C102.7 12.25 100.09 25.3 100.09 25.3L97.8901 24.37L98.5101 14.2Z" fill="#3E383E"/>
<path d="M108.88 31.09V38.6L105.8 42.1L108.88 31.09Z" fill="#AB8569"/>
<path d="M105.8 42.1L103.89 41.95L108.88 31.09L108.31 36.59L105.8 42.1Z" fill="#AB8569"/>
<path d="M80.5099 17.64C80.5099 17.45 70.1599 9.97 70.1599 9.97C70.1599 9.97 71.8499 1.16001 72.0399 1.41001C72.2299 1.66001 78.4999 9 78.4999 9L80.5099 17.64Z" fill="#3E383E"/>
<path d="M64.05 43.08L74.5701 44.31C74.5701 44.31 77.3701 46.03 77.2101 45.87L74.7601 43.41L64.05 43.08Z" fill="#6A3F26"/>
<path d="M129.79 75.76L114.71 85.83L89.27 84.23L111.44 70.9L105.81 64.16L114 67.2L129.79 75.76Z" fill="#26342D"/>
<path d="M130 134.92C129.83 135.33 117.2 145.26 117.2 145.26L116.31 151.59L130 134.92Z" fill="#3C6A4C"/>
<path d="M129.28 142.1C129.15 142.53 118.28 155.16 118.28 155.16L117.95 160.58L129.28 142.1Z" fill="#3C6A4C"/>
<path d="M127.54 165.46L126.71 167.88L127.22 166.28L127.54 165.46Z" fill="#A02889"/>
<path d="M75.82 136.79C76.24 137.89 74.97 152.7 74.97 152.7L60.97 153.64L63.92 139.64L75.82 136.79Z" fill="#5ECC6B"/>
<path d="M74.3399 164.68L73.9199 190.36L60.1699 186.52L62.5399 167.02L74.3399 164.68Z" fill="#5ECC6B"/>
<path d="M101.83 318.09L101.76 318.22C94.31 293.22 90.89 263.14 90.89 263.14L86.67 294.75C86.67 294.75 80.67 320.64 80.61 321.2L74.25 325.15L80.65 304.55L89 254.38L81.28 252.13L77.79 245.48L83.57 249.57L90.89 249.28C90.89 249.28 95.15 256.28 95.62 257.14C96.09 258 100.92 313.5 101.83 318.09Z" fill="#26342D"/>
<path d="M41.23 458.61L51.52 449.37C51.52 449.37 60.75 471.82 60.2 471.24C59.65 470.66 41.23 458.61 41.23 458.61Z" fill="#5ECC6B"/>
<path d="M189.49 216.32V216.77H174.38L192.26 186V186.14C192.77 188.77 189.49 216.32 189.49 216.32Z" fill="#26342D"/>
<path d="M75 63.09C75.13 62.95 76.95 59.93 76.95 59.93L83.22 59.65L87.12 63.09L79.7 64.09L75 63.09Z" fill="#C7915D"/>
<path d="M140.81 132.58L136.58 147.98L126.71 167.88L127.54 165.46L127.22 166.28L134.27 142.65L135.14 127.95L128.99 105.69L139.45 125.67L140.81 132.58Z" fill="#5ECC6B"/>
<path d="M86.68 381.63L83.48 402.13L65.24 358.68L86.68 381.63Z" fill="#26342D"/>
<path d="M145.67 126.19C145.67 126.19 142.37 152.37 142.9 153.5C142.22 153.5 138.95 124.71 138.95 124.71L125.89 109L114.71 85.87L136.58 97.51V113L152 120.18L145.67 126.19Z" fill="#3C6A4C"/>
<path d="M74.3401 154.67V163.06L62.3201 163.8L67.2601 155.72L74.3401 154.67Z" fill="#5ECC6B"/>
<path d="M104.51 147C104.51 147 100.75 155.78 101.2 156.23C101.65 156.68 106.47 170.54 106.47 170.54L108.08 156.23L104.51 147Z" fill="#3C6A4C"/>
<path d="M96.9801 157.13L77.3801 153.7L76.0701 158.12L97.1201 158.82L99.0001 157.77L96.9801 157.13Z" fill="#26342D"/>
<path d="M100.09 171.32C100.41 171.21 100.51 175.19 100.51 175.19L75.8999 167.88V163.25C75.8999 163.25 99.7699 171.42 100.09 171.32Z" fill="#26342D"/>
</svg>
