<svg width="193" height="497" viewBox="0 0 193 497" fill="none" xmlns="http://www.w3.org/2000/svg">
<path d="M96.3799 44L82.9299 44.23C82.6299 44.23 77.7199 46.53 77.7199 46.53L75.2499 44.03L67.4399 43.76L68.7899 50.34L71.2899 57.07L75.4999 64.07H87.6899L98.3799 53.54L96.3799 44ZM83.2599 56.63C83.0099 56.55 77.4399 56.63 77.4399 56.63L75.8599 54.13H85.6799C85.6799 54.13 83.5099 56.67 83.2599 56.59V56.63ZM73.7299 51.57L75.4099 50.36C75.4099 50.36 84.5399 50.3 84.8599 50.36C85.1799 50.42 89.45 51.66 89.45 51.66L73.7299 51.57Z" fill="#C68650"/>
<path d="M72.52 0.27002L79.22 2.15001L87.17 0.27002L102.65 4.36002L88.96 7.77002L76.47 7.08002L72.52 0.27002Z" fill="#3F383E"/>
<path d="M190.59 219.7V220.16H176.41L185.22 165.96C185.22 165.96 190.86 188.32 191.32 188.96V189.11C191.83 191.8 190.59 219.7 190.59 219.7Z" fill="#3A3B44"/>
<path d="M185.21 220.15L179.99 248.15L174.81 234.15L168.81 232.13L168.96 231.67L176.41 220.15H185.21Z" fill="#C38750"/>
<path d="M179.99 248.15L169.63 251.65L167.3 248.15L172.63 246.37V241.77L167.3 248.15L164.9 244.53L168.81 232.13L174.81 234.15L179.99 248.15Z" fill="#A56933"/>
<path d="M192.66 247.02L187.93 251.65H169.63L179.99 248.15L192.66 247.02Z" fill="#6F3E2A"/>
<path d="M190.59 220.15L192.66 247.02L179.99 248.15L185.21 220.15H190.59Z" fill="#A56933"/>
<path d="M166.47 103.42V103.49L152.93 122L137.4 114.72V98.9201L156 82.5901L156.33 82.6501L166.47 103.42Z" fill="#689DD4"/>
<path d="M155.99 82.6L137.4 98.92L115.42 87.1L130.58 78.48L130.8 78.59L155.99 82.6Z" fill="#7DD1F0"/>
<path d="M146.54 128.11C146.54 128.11 147.89 153.98 148.42 155.11C147.73 155.11 140.28 127.56 140.28 127.56L129.77 107.26L115.42 87.1001L137.42 98.9201V114.72L152.93 122L146.54 128.11Z" fill="#3A3B44"/>
<path d="M105.79 67.3601C100.72 69.5201 83.79 77.6601 83.48 77.4501C83.17 77.2401 76.22 71.9701 72.48 69.1501L82.54 72.8001L104.15 62.3401V66.6201L105.79 67.3601Z" fill="#996B4A"/>
<path d="M104.23 56.1101V62.3301L82.58 72.8001L72.52 69.1501L73.21 63.4101L75.09 65.6801H87.76L104.23 56.1101Z" fill="#8A562C"/>
<path d="M104.29 46.27L104.86 45.66L104.29 46.27L104.23 56.11L87.74 65.67L98.38 53.46C98.38 53.46 100.92 47.39 103.48 41.31C103.64 41 104.29 46.09 104.29 46.27Z" fill="#6A3F26"/>
<path d="M98.38 53.4599L87.74 65.6699H75.07L73.19 63.3999L71.07 57.2899L68.8 50.4699L66.73 43.6499L68.08 43.7199L69.43 50.2999L71.93 57.0299L75.5 64.0299H87.69L98.38 53.4599Z" fill="#9C6636"/>
<path d="M110.58 29.1601V39.4701L104.29 46.2701C104.29 46.0901 103.64 40.9501 103.48 41.2701C106.05 35.1901 108.64 29.1201 108.74 29.1201L110.58 29.1601Z" fill="#A16938"/>
<path d="M108 13.78L106.82 28.63L97.5199 24.63L98.1399 14.3L93.6399 15.04L81.5899 18.62L68.5099 13.87L66.4199 25.47L67.6499 9.23C67.6499 9.23 78.9699 11.71 79.2299 11.71C79.4899 11.71 96.9299 10.08 97.3099 9.95C97.6899 9.82 102.83 7.79 103.12 7.5L108 13.78Z" fill="#22201F"/>
<path d="M93.6 15.0499L91 24.1699C91 24.1699 79.47 29.5299 79.29 29.6699C79.11 29.8099 70.77 25.1899 70.38 25.0699C69.99 24.9499 68.52 13.8799 68.52 13.8799L81 18.4399L93.6 15.0499Z" fill="#C68650"/>
<path d="M108.98 29.1599L102.83 31.2599L97.72 32.7999L94.86 29.3099L92.46 26.3999L97.48 24.6399L106.78 28.6299L106.73 29.0599L108.98 29.1599Z" fill="#689DD4"/>
<path d="M103.15 31.06C103.15 31.06 98.2899 40.26 96.8299 43.12C96.7299 43.32 96.6499 43.48 96.5699 43.61L96.4099 43.91V43.96L82.9599 44.19C82.6599 44.19 77.7499 46.49 77.7499 46.49L75.2799 43.99L68.5099 43.72L66.7599 43.65L68.7599 39.1L75.8699 40.89L77.2899 33.83L67.7599 29.49L66.1099 25.85L66.3899 25.48L78.9099 31.93L92.6199 26.35L94.8999 29.14L80.9999 34.2L82.2099 40.89C82.4999 40.89 95.0399 40.38 95.2099 40.31C95.3799 40.24 97.6799 32.63 97.6799 32.63L103.15 31.06Z" fill="#7DD1F0"/>
<path d="M77.28 33.83L75.87 40.89L75.32 34.16L67.75 29.49L77.28 33.83Z" fill="#689DD4"/>
<path d="M68.7501 39.1001L66.7301 43.6501L63.5901 34.4001V29.1601L66.1001 25.8501L67.7501 29.4901L65.9401 33.1001L67.6101 38.8201L68.7501 39.1001Z" fill="#689DD4"/>
<path d="M94.89 29.1399L84.34 33.9699L82.24 40.8899L81.04 34.1999L94.89 29.1399Z" fill="#689DD4"/>
<path d="M109 29.1599C108.75 29.5199 106.24 35.3999 103.76 41.2899C103.71 41.3799 103.68 41.4699 103.64 41.5599C101.41 46.7999 99.0899 52.0099 98.5199 53.1999C98.5199 53.1999 98.4699 53.3599 98.4499 53.3999C98.4285 53.4375 98.3974 53.4686 98.3599 53.4899L96.3599 43.9399C96.4186 43.8429 96.4721 43.7428 96.5199 43.6399C96.5999 43.5099 96.6799 43.3499 96.7799 43.1499C98.3199 40.3099 103.1 31.1499 103.1 31.1499L108.61 29.3399L108.91 29.2399L109 29.1599Z" fill="#4B5680"/>
<path d="M140.28 127.58L129.77 107.28L123.41 122C123.41 122 108.33 130.81 107.97 131.19C107.61 131.57 79.55 125.57 79.55 125.57L81.41 101.85L89.84 85.48L81.5 90.54C81.5 90.54 73.87 86.61 73.25 85.94L78.93 102.94L75.11 126.09L51 132.59L37.78 123.47L50.31 139.34L67.31 133.15L53 146.67L55.38 182.35C55.38 182.35 65.38 203.76 65.85 204.07C66.32 204.38 91.53 204.07 91.53 204.07L109.44 177.91L124.1 171.12C124.1 171 124.1 170.93 124.1 170.93L140.28 127.58ZM99.82 186.81L96.52 191.69L77.89 193.91V134.6L101.3 145.66L97.59 159.55L99.82 186.81ZM84.72 133.2C84.72 133.2 110.23 137.93 110.92 137.75C111.61 137.57 132.13 121.27 132.77 120.75L113 145.66L84.72 133.2Z" fill="#689DD4"/>
<path d="M132.77 120.76L113 145.66L84.72 133.2C84.72 133.2 110.23 137.93 110.92 137.75C111.61 137.57 132.13 121.27 132.77 120.76Z" fill="#6767AE"/>
<path d="M78.9299 102.92L75.1099 126.07L51.0099 132.59L37.7899 123.46L36.9199 106.43L52.5799 87.1001L78.9299 102.92Z" fill="#7DD1F0"/>
<path d="M52.5801 87.1001L31.5801 102.92L22.8301 96.4501L31.6401 81.7701L48.3501 80.8601L48.9001 80.6201C50.2201 82.6301 52.5801 87.1001 52.5801 87.1001Z" fill="#7DD1F0"/>
<path d="M25.7601 122.98L25.8201 122.83L22.8701 96.45L31.6201 102.92L37.7901 123.46L25.7601 122.98Z" fill="#689DD4"/>
<path d="M54 208.17L66.76 234.17L65.58 232.32L65.09 231.55L64.82 231.14L64.24 230.21L63.6 229.21L63.26 228.67L62.17 226.96L61 225.08L60.18 223.78L59.34 222.47L58.92 221.79L58.09 220.49L56.7 218.31L55.89 217.03L55.04 215.68C51.25 209.68 48.04 204.48 47.94 204.22L52 180.87C52 180.87 48.1 146.87 48.32 143.23C47.39 145.75 38.57 163.23 37.83 164.73L19 155.32L38.85 145.66L37.85 123.47L50.38 139.34L67.38 133.15L53 146.67L55.38 182.35L54 208.17Z" fill="#3A3B44"/>
<path d="M18.98 155.32L19.81 184.88L9.03003 220.56L2.79004 217L12.04 166.65L18.98 155.32Z" fill="#7DD1F0"/>
<path d="M37.78 164.83L36.31 178.61L14.98 220.83L9.03003 220.56L19.81 184.88L37.78 164.83Z" fill="#3A3B44"/>
<path d="M13.94 236.58L4.33997 250.1L0.969971 235.73L2.78998 217L9.02997 220.56L13.94 236.58Z" fill="#A86A32"/>
<path d="M22.78 233.16L13.94 236.58L9.03003 220.56L14.98 220.83L22.66 232.79L22.78 233.16Z" fill="#C58852"/>
<path d="M26.2599 243.4L22.6599 246.12L13.9399 236.58L22.7799 233.16L26.2599 243.4Z" fill="#A16B31"/>
<path d="M22.6601 246.12L20.4701 250.23L19.7101 251.65L4.36008 250.18L4.34009 250.1L13.9401 236.58L22.6601 246.12Z" fill="#6E3D2F"/>
<path d="M126.64 195.63L101.3 218.85L91.2199 234.15C90.6999 233.46 113.52 200.65 113.01 200.15C112.5 199.65 109.39 177.93 109.39 177.93L124.05 171.14C124.29 173.34 126.52 194.25 126.52 195.14C126.55 195.306 126.59 195.469 126.64 195.63V195.63Z" fill="#6767AE"/>
<path d="M66.7701 234.15L59.3301 291.86L36.3301 270.95L47.9501 204.22C48.1001 204.83 66.2101 233.22 66.7801 234.13L66.7701 234.15Z" fill="#7DD1F0"/>
<path d="M143.45 251.65L141.45 314.98C141.45 314.98 132 326.45 128.45 331.51C131.04 325.73 136.45 311.26 136.45 310.99C136.45 310.72 123.21 293.33 121.76 289.77C121.85 289.35 121.85 289.12 121.76 289.14C121.67 289.16 121.63 289.39 121.76 289.77C120.76 294.06 109.26 318.94 108.33 320.95L108.27 321.08C100.78 295.67 90.7099 261.7 90.7099 261.7L87.3199 299.4C87.3199 299.4 81.2699 325.7 81.2199 326.27C81.2199 326.27 78.2899 328.13 74.8299 330.27C70.0899 333.27 64.3799 336.86 63.9299 337.16C63.1299 337.69 74.4899 315.52 74.4899 315.52L59.4199 291.84L66.8599 234.13C66.8599 234.13 91.3199 234.82 91.3199 234.13L121.75 287.78L143.45 251.65Z" fill="#3A3B44"/>
<path d="M59.33 291.86L49.5201 326.5L36.3101 270.95L59.33 291.86Z" fill="#3A3B44"/>
<path d="M80.6799 349.53L65.6799 364.37L45.6799 340.04L48.9999 328.22L49.2699 327.29L49.4999 326.5L59.3099 291.86L74.3699 315.54C74.3699 315.54 62.9999 337.71 63.8399 337.18C64.6799 336.65 81.1299 326.27 81.1299 326.27C81.3599 325.6 80.6799 349.53 80.6799 349.53Z" fill="#689DD4"/>
<path d="M87.2299 387.69L65.6799 364.37L80.6799 349.53L87.2299 387.69Z" fill="#6767AE"/>
<path d="M87.2299 387.69L67.5899 460.16L65.6799 364.37L87.2299 387.69Z" fill="#8193CA"/>
<path d="M49.7999 432.54C49.7999 432.54 49.9799 370.75 49.7499 370.07C49.5199 369.39 45.6899 340.72 45.6899 340.07L65.6899 364.4L67.5999 460.2L49.7999 432.54Z" fill="#3A3B44"/>
<path d="M68.4899 484.1L30.3299 485.9C30.3299 485.9 21.0699 489.06 20.1699 488.83C19.2699 488.6 4.35986 486.36 4.35986 486.36L5.25989 480.71L25.0099 481.56L43.2099 482.35L60.5999 478.51C60.5999 478.51 68.0199 476.61 68.2499 476.67C68.3899 480.81 68.4899 484.1 68.4899 484.1Z" fill="#40403E"/>
<path d="M68.2501 476.67C68.0201 476.61 60.6001 478.51 60.6001 478.51L51.8901 456.51L49.8 432.3L67.5901 459.93C67.7001 459.94 68.0001 469.57 68.2501 476.67Z" fill="#689DD4"/>
<path d="M60.61 478.51L43.2101 482.57L25.0101 481.79L14.3201 476.67L41.55 465.9L60.61 478.51Z" fill="#7DD1F0"/>
<path d="M25.01 481.79L5.26001 480.71L14.31 476.67H14.32L25.01 481.79Z" fill="#6767AE"/>
<path d="M143.44 251.65L121.66 287.82C121 287.17 132.53 215.59 132.53 215.59C137.39 231.78 143.44 251.65 143.44 251.65Z" fill="#689DD4"/>
<path d="M141.41 315C141.41 315 131.95 326.47 128.41 331.53C131 325.75 136.41 311.28 136.41 311.01C136.41 310.74 123.17 293.35 121.72 289.79C120.72 294.27 108.23 321.1 108.23 321.1L124 338.93L127.12 361.54L144.62 344.33L141.41 315Z" fill="#689DD4"/>
<path d="M140.09 436L120 394.46C120 394.46 120 394.04 119.89 393.28C119.96 391.97 127.1 369.5 127.1 369.5L116.12 348.4C116.12 348.14 112.6 336.11 108.3 321.27L124.07 339.12L127.07 361.54L161.84 431.54L163.54 464.22L140.09 436Z" fill="#3A3B44"/>
<path d="M127.07 369.47C127.07 369.47 119.93 391.94 119.86 393.25C119.25 386.04 116.12 349.01 116.12 348.4L127.07 369.47Z" fill="#6767AE"/>
<path d="M161.84 431.55L127.07 361.54L144.57 344.33L159.25 381.59L161.84 431.55Z" fill="#8193CA"/>
<path d="M168.99 477.01L145.2 469.31L140.51 436.91L140.09 436.04L163.54 464.23L168.99 477.01Z" fill="#689DD4"/>
<path d="M173.68 488L148.68 487.55C148.68 487.55 145.25 477.55 145.25 477.09V469.61L145.19 469.28L169 477L173.68 488Z" fill="#7DD1F0"/>
<path d="M175.28 491.77L161.28 496.29H148.86L143 489.07L145.26 477.55V477.12C145.26 477.55 148.69 487.58 148.69 487.58L173.69 488.03L175.28 491.77Z" fill="#40403E"/>
<path d="M185.22 166L168.09 154.82L152.93 122L166.48 103.49C166.48 104.6 166.71 117.9 166.93 118.54C167.15 119.18 173.48 133.22 173.48 133.22C173.48 133.22 176.41 153.32 176.41 152.64C176.41 151.96 185.22 166 185.22 166Z" fill="#3A3B44"/>
<path d="M168.09 154.78C168.09 154.78 162.35 160.78 158.41 164.66C157.26 163.5 150.5 156.61 148.78 155.33C151.4 156.07 167 154.78 168.09 154.78Z" fill="#3A3B44"/>
<path d="M176.41 220.16L159.93 187.16L158.58 164.8L158.41 164.63C162.35 160.7 168.09 154.75 168.09 154.75L176.41 220.16Z" fill="#7DD1F0"/>
<path d="M185.21 165.96L176.41 220.15L168.09 154.78L185.21 165.96Z" fill="#689DD4"/>
<path d="M113.76 70.9299L89.8399 85.4799L81.4999 90.5399C81.4999 90.5399 73.8699 86.6099 73.2599 85.9399V85.8499C73.5199 85.6699 69.8799 78.3099 67.6099 73.7799C67.8299 73.5799 70.2999 71.3399 71.6599 70.0499C72.1199 69.6199 72.4399 69.2899 72.5199 69.1899C76.2199 72.0099 83.2099 77.2999 83.5199 77.4899C83.8299 77.6799 99.1299 68.8299 104.2 66.6599L113.76 70.9299Z" fill="#6767AE"/>
<path d="M78.9301 102.92L52.5801 87.1001L73.2201 85.8501L73.2501 85.9401L78.9301 102.92Z" fill="#7DD1F0"/>
<path d="M36.9201 106.43L37.7901 123.46L31.6201 102.92L52.5801 87.1001L36.9201 106.43Z" fill="#3A3B44"/>
<path d="M38.84 145.66L18.98 155.32L21.3 136.61L25.76 122.98L37.79 123.46L38.84 145.66Z" fill="#7DD1F0"/>
<path d="M37.83 164.73C37.8161 164.765 37.7993 164.798 37.78 164.83L19.78 184.88L19 155.32L37.83 164.73Z" fill="#689DD4"/>
<path d="M20.4699 250.23L7.66992 247.72L12.1599 243.94L22.6599 246.12" fill="#A16B31"/>
<path d="M115.42 87.1L81.4099 101.85L89.8399 85.48L115.42 87.1Z" fill="#7DD1F0"/>
<path d="M129.77 107.28L123.41 122C123.41 122 108.33 130.81 107.97 131.19C107.61 131.57 79.55 125.57 79.55 125.57L81.4101 101.85L115.41 87.1001L129.77 107.28Z" fill="#7DD1F0"/>
<path d="M168.09 154.78C166.96 154.78 151.4 156.07 148.78 155.33C148.679 155.239 148.56 155.17 148.43 155.13C147.9 153.98 146.55 128.13 146.55 128.13L152.94 122.02L168.09 154.78Z" fill="#7DD1F0"/>
<path d="M172.63 241.77V246.37L167.3 248.15L172.63 241.77Z" fill="#6E3C1A"/>
<path d="M97.5899 159.55L99.8199 186.81L96.5199 191.69L77.8799 193.91V134.6L101.3 145.66L97.5899 159.55Z" fill="#7DD1F0"/>
<path d="M121.66 287.82L91.23 234.17L101.31 218.87L126.65 195.65C127.22 197.81 129.65 206.06 132.54 215.65C132.53 215.59 121 287.17 121.66 287.82Z" fill="#7DD1F0"/>
<path d="M91.22 234.15C91.22 234.82 66.76 234.15 66.76 234.15L54 208.15L55.33 182.33C55.33 182.33 65.33 203.74 65.8 204.05C66.27 204.36 91.48 204.05 91.48 204.05L109.39 177.89C109.39 177.89 112.49 199.59 113.01 200.11C113.53 200.63 90.7 233.46 91.22 234.15Z" fill="#689DD4"/>
<path d="M98.0999 14.3099L97.4799 24.6399L92.6099 26.3499L78.8999 31.9299L66.3799 25.4799L68.4699 13.8799C68.4699 13.8799 69.9599 24.9399 70.3299 25.0699C70.6999 25.1999 79.0399 29.7899 79.2399 29.6699C79.4399 29.5499 90.9499 24.1699 90.9499 24.1699L93.5999 15.0499L98.0999 14.3099Z" fill="#A46B32"/>
<path d="M89.45 51.6201L86.8799 52.1901L74.9999 51.9201C74.9999 51.9201 73.75 51.5301 73.7 51.5301L75.3799 50.3201C75.3799 50.3201 84.5099 50.2601 84.8299 50.3201C85.1499 50.3801 89.45 51.6201 89.45 51.6201Z" fill="#8E5828"/>
<path d="M85.6799 54.0901C85.6799 54.0901 83.5099 56.6701 83.2599 56.5901C83.0099 56.5101 77.4399 56.5901 77.4399 56.5901L75.8599 54.0901H85.6799Z" fill="#8E5828"/>
<path d="M97.75 32.6299C97.75 32.6299 95.49 40.2299 95.28 40.3099C95.07 40.3899 82.53 40.8899 82.28 40.8899L84.38 33.9699L94.93 29.1399L97.75 32.6299Z" fill="white" stroke="#221F1F" stroke-linejoin="round"/>
<path d="M75.8699 40.89L68.7499 39.1L67.6099 38.82L65.9399 33.1L67.7499 29.49L75.3199 34.16L75.8699 40.89Z" fill="white" stroke="#221F1F" stroke-linejoin="round"/>
<path d="M82.5901 44.27L95.8701 45.57L98.3801 53.46L96.3801 43.96L82.9001 44.19" fill="#6A3F26"/>
<path d="M108 13.7801L94.9299 12.7801L79.2699 15.2601L68.7899 12.5001L67.6499 9.20006L69.0999 6.56006L90.5199 9.04005L102.69 4.32007L108 13.7801Z" fill="#22201F"/>
<path d="M76.6201 27.7699C77.3892 28.2252 78.1838 28.6359 79.0001 28.9999C79.0001 28.9999 78.2801 24.0799 78.1001 23.9999C77.6992 23.6692 77.3308 23.3008 77.0001 22.8999L76.6201 27.7699Z" fill="#A36B33"/>
<path d="M79.53 29.0201L81.04 26.3701V28.2201L79.53 29.0201Z" fill="#A36B33"/>
<path d="M73.2199 85.8501L52.5799 87.1001C52.5799 87.1001 50.2299 82.6301 48.9399 80.6001L65.7599 70.6801L72.4899 69.1401C72.4099 69.2401 72.0899 69.5701 71.6299 70.0001C70.2699 71.2901 67.7999 73.5301 67.5799 73.7301C69.8399 78.3101 73.4799 85.6701 73.2199 85.8501Z" fill="#689DD4"/>
<path d="M52.5799 78.45L31.6799 81.7499L52.5799 81.4399V78.45Z" fill="#3A3B44"/>
<path d="M97.5901 159.55L77.8801 156.07L76.5701 160.56L97.7301 161.27L99.6201 160.21L97.5901 159.55Z" fill="#689DD4"/>
<path d="M173.48 133.22L168.09 132.57L166.93 118.57C167.16 119.23 173.48 133.22 173.48 133.22Z" fill="#689DD4"/>
<path d="M54 208.17L66.76 234.17L65.58 232.32L65.09 231.55L64.82 231.14L64.24 230.21L63.6 229.21L63.26 228.67L62.17 226.96L61 225.08L60.18 223.78L59.34 222.47L58.92 221.79L58.09 220.49L56.7 218.31L55.89 217.03L55.04 215.68C51.25 209.68 48.04 204.48 47.94 204.22L52 180.87C52 180.87 48.1 146.87 48.32 143.23L37.78 123.47L50.31 139.34L67.31 133.15L53 146.67L55.38 182.35L54 208.17Z" fill="#6767AE"/>
<path d="M102.65 4.36002V9.24002L79.1299 13.88L67.6099 9.24002L69.0599 6.60002C70.4799 4.02002 72.4599 0.44002 72.5199 0.27002C72.5199 0.63002 79.8899 5.19002 79.8899 5.19002L83.8899 2.67001L87.2099 4.36002H102.65Z" fill="#22201F"/>
<path d="M98.1 14.31C98.1 14.31 102.39 12 102.35 12.16C102.31 12.32 100.72 26 100.72 26L97.48 24.61L98.1 14.31Z" fill="#3F383E"/>
<path d="M109.55 31.47V39.1L106.46 42.66L109.55 31.47Z" fill="#6A3F26"/>
<path d="M106.46 42.66L104.54 42.5L109.55 31.47L108.98 37.07L106.46 42.66Z" fill="#6A3F26"/>
<path d="M81.0001 17.8C81.0001 17.61 70.6001 10.01 70.6001 10.01C70.6001 10.01 72.3001 1.06001 72.4901 1.32001C72.6801 1.58001 79.0001 9 79.0001 9L81.0001 17.8Z" fill="#3F383E"/>
<path d="M66.73 43.6499L75.07 44.8999C75.07 44.8999 77.88 46.6599 77.72 46.4899L75.25 43.9899L66.73 43.6499Z" fill="#6A3F26"/>
<path d="M130.58 78.4801L115.42 87.1001L89.8401 85.4801L112.13 71.9201L104.16 66.6201L114.63 69.7201L130.58 78.4801Z" fill="#689DD4"/>
<path d="M130.8 137C130.63 137.42 117.93 147.51 117.93 147.51L117.04 153.94L130.8 137Z" fill="#6767AE"/>
<path d="M130.07 144.27C129.93 144.72 118.99 157.55 118.99 157.55L118.67 163.06L130.07 144.27Z" fill="#6767AE"/>
<path d="M129.77 107.28L136.16 128.08L124.05 171.12L140.28 127.58L129.77 107.28Z" fill="#29272C"/>
<path d="M75.2001 142.2C75.5501 143.08 74.5001 154.95 74.5001 154.95L62.8701 155.7L65.3301 144.48L75.2001 142.2Z" fill="#7DD1F0"/>
<path d="M74.83 167.53L74.48 192.42L62.98 188.71L64.96 169.8L74.83 167.53Z" fill="#7DD1F0"/>
<path d="M108.24 321L108.18 321.13C100.69 295.72 90.62 261.75 90.62 261.75L87.23 299.45C87.23 299.45 81.18 325.75 81.13 326.32C81.13 326.32 78.2 328.18 74.74 330.32L81.17 309.38L89.59 258.38L82.17 254.92L79 246.12L85.7 251.7H93.9C93.9 251.7 95.76 260.31 96.23 261.18C96.7 262.05 107.33 316.29 108.24 321Z" fill="#6767AE"/>
<path d="M41.55 465.91L51.8901 456.52C51.8901 456.52 61.1701 479.33 60.6201 478.74C60.0701 478.15 41.55 465.91 41.55 465.91Z" fill="#6767AE"/>
<path d="M190.59 219.7V220.16H176.41L191.32 189V189.15C191.83 191.8 190.59 219.7 190.59 219.7Z" fill="#689DD4"/>
<path d="M75.5 64C75.64 63.85 77.5 60.78 77.5 60.78L83.8 60.5L87.72 64L80.25 65L75.5 64Z" fill="#9C6636"/>
</svg>
