<svg width="168" height="480" viewBox="0 0 168 480" fill="none" xmlns="http://www.w3.org/2000/svg">
<path d="M91.7101 42.7399H90.5901L86.5901 42.8099H85.9901L81.4201 42.8899H80.0901H78.7901H78.6901L78.5101 42.9499L78.0701 43.1399L77.5101 43.3799L75.1701 44.4399L74.8201 44.5999L74.3601 44.8199L74.1201 44.9299L73.7701 45.0899L71.3901 42.6799L64.4801 42.4399H63.8501C63.9701 42.9799 65.6801 48.7499 65.6801 48.7499L68.2501 55.2399L72.5501 61.9599H83.3801L91.0001 52.9999L91.0701 52.9299L91.8401 52.0299L91.8901 51.9699V51.7799L91.7101 42.7399ZM80.5901 48.8799C80.9001 48.9499 85.0201 50.1299 85.0201 50.1299L69.8501 50.0499L71.4701 48.8799C71.4701 48.8799 80.2801 48.8199 80.5901 48.8799ZM71.9101 52.5199H81.3801C81.3801 52.5199 79.2901 55.0099 79.0501 54.9299C78.8101 54.8499 73.4301 54.9299 73.4301 54.9299L71.9101 52.5199Z" fill="#A6662F"/>
<path d="M68.6899 0.570068L75.1499 2.38007L82.8199 0.570068L97.7599 4.51006L84.5599 7.81006L72.4999 7.14006L68.6899 0.570068Z" fill="#3E383E"/>
<path d="M164.57 219.13L164.52 219.56L154.84 218.49L166 167.77C166 167.77 167.41 189.45 167.78 190.14V190.29C167.93 192.89 164.57 219.13 164.57 219.13Z" fill="#3C6A4C"/>
<path d="M160.3 219.1L155.31 245.73L151.82 231.75L146.28 229.18L146.47 228.75L154.83 218.49L160.3 219.1Z" fill="#A4682F"/>
<path d="M155.31 245.73L145 247.99L143.13 244.39L148.43 243.24L148.92 238.83L143.13 244.39L141.21 240.67L146.28 229.18L151.82 231.75L155.31 245.73Z" fill="#85491F"/>
<path d="M167.59 245.99L162.55 249.93L145 247.99L155.31 245.73L167.59 245.99Z" fill="#4B1D11"/>
<path d="M164.52 219.56L167.59 245.99L155.31 245.73L160.3 219.1L164.52 219.56Z" fill="#85491F"/>
<path d="M141.67 80.6301L130.21 98.11L110.09 84.3801L124.72 76.0601L124.94 76.1601L141.67 80.6301Z" fill="#5ECC6B"/>
<path d="M98.71 65.46C93.76 67.63 80.79 74.6 79.38 75.04C79.31 75.04 79.27 75.04 79.26 75.04C79 74.86 72.78 69.75 69.21 67.04L78.39 70.57L97.49 60.47V64.6L98.71 65.46Z" fill="#70411E"/>
<path d="M97.53 54.47V60.47L78.43 70.57L69.25 67.04L70.32 61.51L72.13 63.7H83.43L97.53 54.47Z" fill="#622F13"/>
<path d="M98.3001 44.9999L98.8501 44.4099L98.3001 44.9999L97.5401 54.4999L83.3701 63.7199L91.9701 51.7199C94.5502 48.1246 96.7613 44.2785 98.5701 40.2399C98.7201 39.8299 98.3001 44.7899 98.3001 44.9999Z" fill="#471E12"/>
<path d="M91.9101 51.7599L83.3701 63.6899H72.0701L70.2601 61.4999L68.0001 55.5999L65.6301 48.9999L63.0901 42.4199L64.4001 42.4899L66.2401 48.8399L68.8101 55.3299L72.4901 62.0499H83.3201L91.9101 51.7599Z" fill="#78421B"/>
<path d="M103.28 28.45L105.42 38.45L98.3 45C98.3 44.82 98.7201 39.86 98.5701 40.21C100.055 36.4446 101.04 32.5011 101.5 28.4799L103.28 28.45Z" fill="#70411E"/>
<path d="M102.89 13.61L101.72 28.36L92.72 24.09L93.32 14.09L88.98 14.8L77.35 18.26L64.72 13.67L63.48 24.87L63.89 9.19002C63.89 9.19002 74.82 11.59 75.07 11.59C75.32 11.59 92.15 10.01 92.52 9.89001C92.89 9.77001 97.85 7.80002 98.13 7.52002L102.89 13.61Z" fill="#22201F"/>
<path d="M89 14.83L86.44 23.64C86.44 23.64 75.32 28.82 75.14 28.95C74.96 29.08 66.91 24.62 66.54 24.5C66.17 24.38 64.74 13.7 64.74 13.7L76.87 18.11L89 14.83Z" fill="#A6662F"/>
<path d="M101.74 28.4601L97.9399 30.4801L93.0099 31.9701L90.2499 28.6001L87.9399 25.7901L92.7699 24.0901L101.73 28.3601H101.71L101.74 28.4601Z" fill="#5ECC6B"/>
<path d="M98.2499 30.2899C98.2499 30.2899 93.5599 39.1699 92.1499 41.9299L91.8999 42.3999L91.7399 42.6899V42.7399L78.7399 42.9599C78.4499 42.9599 73.7399 45.1899 73.7399 45.1899L71.3599 42.7699L64.8199 42.5099L63.1299 42.4399L65.1299 38.0499L71.9999 39.7699L73.3699 32.9599L64.1699 28.7699L63.3499 25.2599L63.6199 24.8999L74.9299 31.1299L88.1599 25.7399L90.3599 28.4299L76.9899 33.3199L78.1499 39.7699C78.4299 39.7699 90.5399 39.2799 90.7399 39.2099C90.9399 39.1399 92.9999 31.7999 92.9999 31.7999L98.2499 30.2899Z" fill="#26342D"/>
<path d="M73.2801 32.97L71.9101 39.78L71.3801 33.28L64.0801 28.78L73.2801 32.97Z" fill="#5ECC6B"/>
<path d="M65.0401 38.06L63.0901 42.44L60.8401 33.51V28.46L63.2601 25.26L64.0801 28.78L62.3301 32.26L63.9401 37.78L65.0401 38.06Z" fill="#5ECC6B"/>
<path d="M90.2699 28.4399L80.0899 33.0899L78.0599 39.7799L76.8999 33.3199L90.2699 28.4399Z" fill="#5ECC6B"/>
<path d="M101.74 28.45C101.5 28.8 101.22 34.45 98.8199 40.16L98.7099 40.42C96.5599 45.48 92.5899 50.51 92.0399 51.66C92.0399 51.66 92.0399 51.81 91.9699 51.85C91.9513 51.8863 91.9238 51.9172 91.8899 51.94L91.6699 42.72C91.6699 42.67 91.7599 42.5699 91.8299 42.4299L92.0799 41.96C93.5599 39.21 98.1799 30.32 98.1799 30.32L101.36 28.58L101.65 28.4799L101.74 28.45Z" fill="#3C6A4C"/>
<path d="M123.94 103.86L117.8 118.07C117.8 118.07 103.25 126.57 102.9 126.93C102.55 127.29 75.4699 121.51 75.4699 121.51L77.2599 98.6201L85.3999 82.8101L77.3999 87.7001C77.3999 87.7001 70.0299 83.9101 69.3999 83.2601L74.8799 99.6501L71.1799 122L47.9199 128.3L35.1599 119.49L47.2499 134.81L63.6999 128.81L49.7899 141.86L53.9999 178.25C53.9999 178.25 61.7099 196.98 62.1699 197.25C62.6299 197.52 86.9599 197.25 86.9599 197.25L104.27 172L114.6 166.44C114.6 166.32 114.6 166.26 114.6 166.26L114.88 165.5L127.24 125L123.94 103.86ZM92.8799 154.31L92.9999 156L94.9999 180.65L91.8199 185.36H91.5499L73.8299 187.48V130.23L96.4299 140.9L92.8799 154.31ZM80.4599 128.88C80.4599 128.88 105.08 133.44 105.75 133.27C106.42 133.1 126.22 117.36 126.84 116.87L107.76 140.87L80.4599 128.88Z" fill="#26342D"/>
<path d="M126.84 116.87L107.76 140.87L80.46 128.87C80.46 128.87 105.08 133.43 105.75 133.26C106.42 133.09 126.22 117.36 126.84 116.87Z" fill="#3C6A4C"/>
<path d="M74.8701 99.6499L71.1801 122L47.9201 128.29L35.1601 119.49L34.3201 103.05L49.4301 84.3799L74.8701 99.6499Z" fill="#5ECC6B"/>
<path d="M49.4301 84.3801L31.5001 99.6501L27.0901 94.3901L33.8001 79.2301L45.3901 78.3601L45.9201 78.1201C47.1601 80.0601 49.4301 84.3801 49.4301 84.3801Z" fill="#5ECC6B"/>
<path d="M25.8 119.01L25.8501 118.88L27.0901 94.3899L31.5001 99.6499L35.1601 119.49L25.8 119.01Z" fill="#26342D"/>
<path d="M53.25 201.24L65.57 226.3L64.43 224.51L63.96 223.77L63.7 223.37L63.14 222.48L62.52 221.48L62.19 220.96L61.14 219.31L60 217.56L59.21 216.31L58.4 215.04L57.99 214.39L57.19 213.13L55.85 211.03L55.07 209.79L54.25 208.49C50.59 202.71 47.45 197.68 47.39 197.43L50.8 176.83C50.8 176.83 44.6 138.63 44.8 135.16C43.9 137.59 35.17 157.69 34.45 159.16L19 151.28L33.11 138.91L35.11 119.48L47.2 134.8L63.65 128.8L49.74 141.85L54 178.25L53.25 201.24Z" fill="#3C6A4C"/>
<path d="M19.0101 151.28L17.8001 178.76L7.40012 213.2L1.37012 209.76L12.6101 163.47L19.0101 151.28Z" fill="#5ECC6B"/>
<path d="M34.4199 159.2L32.7199 172.89L13.1399 213.46L7.3999 213.2L17.7999 178.76L34.4199 159.2Z" fill="#3C6A4C"/>
<path d="M119.18 190.89L96.46 211.55L86.7301 226.32C86.2301 225.65 108.26 193.98 107.73 193.48C107.2 192.98 104.27 172 104.27 172L114.6 166.44C114.83 168.56 119.06 189.51 119.06 190.34C119.088 190.526 119.128 190.71 119.18 190.89Z" fill="#3C6A4C"/>
<path d="M65.5801 226.32L56.0001 282L40.8301 265.11L47.4501 197.41C47.5901 198 65.0701 225.41 65.6201 226.28L65.5801 226.32Z" fill="#26342D"/>
<path d="M131.84 247.83L135.18 304.34C135.18 304.34 126.05 315.41 122.61 320.34C125.11 314.76 130.3 300.79 130.3 300.53C130.3 300.27 117.52 283.44 116.12 280C116.21 279.59 116.21 279.37 116.12 279.39C116.03 279.41 116 279.63 116.12 280C115.12 284.14 104.06 308.15 103.12 310.09L103.06 310.22C95.83 285.69 86.06 252.9 86.06 252.9L80.8 289.31C80.8 289.31 75.55 314.79 75.5 315.31C74.0921 316.781 72.4868 318.05 70.73 319.08C66.16 321.96 60.65 325.44 60.21 325.73C59.44 326.24 70.4 304.84 70.4 304.84L56 282L65.63 226.3C65.63 226.3 86.79 226.96 86.79 226.3L116.16 278.08L131.84 247.83Z" fill="#3C6A4C"/>
<path d="M55.95 282.02L50.22 314.61L40.78 265.13L55.95 282.02Z" fill="#3C6A4C"/>
<path d="M73.88 337.69L62.08 352L46.52 327.67L49.74 316.26L50 315.36L50.22 314.6L56 282L70.54 304.86C70.54 304.86 59.54 326.26 60.35 325.75L75.64 315.33C75.81 314.7 73.88 337.69 73.88 337.69Z" fill="#B7C259"/>
<path d="M80.2001 374.52L62.0801 352.01L73.8801 337.69L80.2001 374.52Z" fill="#5ECC6B"/>
<path d="M80.2001 374.52L63.9201 444.49L62.0801 352.01L80.2001 374.52Z" fill="#26342D"/>
<path d="M52.5 419.29C52.5 419.29 50.27 358.29 50.05 357.62C49.83 356.95 46.52 328.34 46.52 327.68L62.08 352L63.92 444.47L52.5 419.29Z" fill="#3C6A4C"/>
<path d="M64.7899 467.58L27.9999 469.32C27.9999 469.32 19.0599 472.32 18.1899 472.15C17.3199 471.98 2.92993 469.76 2.92993 469.76L3.79994 464.31L22.8599 465.13L40.4299 465.89L57.2199 462.19C57.2199 462.19 64.3799 460.35 64.5999 460.41C64.6899 464.41 64.7899 467.58 64.7899 467.58Z" fill="#26342D"/>
<path d="M64.56 460.41C64.34 460.35 57.18 462.19 57.18 462.19L48.77 441L52.5 419.1L63.92 444.29C64 444.26 64.35 453.56 64.56 460.41Z" fill="#26342D"/>
<path d="M57.18 462.2L40.39 466.12L22.82 465.36L12.5 460.41L38.79 450.02L57.18 462.2Z" fill="#3C6A4C"/>
<path d="M22.82 465.36L3.76001 464.32L12.49 460.41H12.5L22.82 465.36Z" fill="#5ECC6B"/>
<path d="M131.84 247.83L116.11 278.12C115.48 277.5 122.57 211.78 122.57 211.78C127.26 227.41 131.84 247.83 131.84 247.83Z" fill="#3C6A4C"/>
<path d="M135.18 304.34C135.18 304.34 134.29 305.42 132.96 307.06L132.15 308.06C131.54 308.81 130.88 309.63 130.15 310.5C129.89 310.82 129.62 311.15 129.36 311.5C129.1 311.85 128.84 312.14 128.59 312.5L127.59 313.72C126.69 314.86 125.8 316.01 124.98 317.07L124.17 318.14C124.142 318.188 124.109 318.231 124.07 318.27C123.67 318.8 123.31 319.27 122.97 319.76L122.63 320.24C122.597 320.278 122.567 320.318 122.54 320.36L122.6 320.23C123.07 319.17 123.6 317.82 124.24 316.34L124.8 314.95L124.86 314.81C125.26 313.81 125.67 312.76 126.07 311.71C126.2 311.39 126.32 311.08 126.44 310.77C126.74 309.99 127.04 309.22 127.32 308.46C127.6 307.7 127.82 307.15 128.05 306.54C128.28 305.93 128.42 305.54 128.58 305.12C128.74 304.7 128.85 304.42 128.97 304.12C129.09 303.82 129.17 303.56 129.27 303.3C129.86 301.7 130.27 300.65 130.27 300.58C130.27 300.35 117.49 283.53 116.09 280.1C116.09 280.18 116.09 280.27 116.02 280.36C116.007 280.424 115.99 280.488 115.97 280.55C115.97 280.63 115.92 280.72 115.89 280.81C115.86 280.9 115.77 281.19 115.69 281.41L115.57 281.75C115.57 281.87 115.48 281.99 115.44 282.12C115.4 282.25 115.34 282.37 115.3 282.5C115.26 282.63 115.19 282.77 115.14 282.91L114.85 283.67L114.73 283.95C114.68 284.09 114.62 284.24 114.56 284.38C114.32 284.99 114.06 285.63 113.78 286.31C113.71 286.48 113.64 286.65 113.56 286.82C113.48 286.99 113.45 287.08 113.39 287.22C113.33 287.36 113.23 287.61 113.14 287.81C112.76 288.7 112.37 289.64 111.95 290.59C111.82 290.91 111.68 291.23 111.54 291.59C111.4 291.91 111.26 292.24 111.11 292.59L109.8 295.59L109.04 297.31L108.2 299.18L107.38 300.99L106.67 302.57L106.15 303.71L104.59 307L104.25 307.72L104.05 308.16C104 308.28 103.94 308.39 103.89 308.5L103.79 308.72C103.65 309.02 103.53 309.27 103.44 309.48L103.31 309.77L103.21 309.98V310.09L103.15 310.22L118.37 327.45V327.5L121.37 349.26L136.48 334.44L135.18 304.34Z" fill="#B7C259"/>
<path d="M136.51 421.2L117 382.28C117 382.28 117 381.87 116.9 381.14C116.96 379.88 121.39 356.97 121.39 356.97L110.77 336.6C110.77 336.35 107.37 324.74 103.22 310.41L118.44 327.64L121.34 349.28L152.59 417.69L156.59 448.4L136.51 421.2Z" fill="#3C6A4C"/>
<path d="M121.34 356.94C121.34 356.94 116.91 379.85 116.85 381.11C116.26 374.11 110.77 337.19 110.77 336.6L121.34 356.94Z" fill="#5ECC6B"/>
<path d="M152.59 417.69L121.34 349.29L136.45 334.46L147.1 368.14L152.59 417.69Z" fill="#26342D"/>
<path d="M161.8 460.75L138.84 453.32L136.92 422.04L136.51 421.21L156.54 448.4L161.8 460.75Z" fill="#26342D"/>
<path d="M166.33 471.38L142.2 470.94C142.2 470.94 138.89 461.26 138.89 460.85V453.63L138.84 453.31L161.84 460.74L166.33 471.38Z" fill="#3C6A4C"/>
<path d="M167.87 475L154.36 479.36H142.36L136.7 472.36L138.88 461.24V460.83C138.88 461.24 142.19 470.92 142.19 470.92L166.32 471.36L167.87 475Z" fill="#26342D"/>
<path d="M153.77 154.89C153.77 154.89 147.63 159.99 143.44 163.34C142.44 162.11 136.95 152.52 135.44 151.11C137.87 152.1 152.69 154.77 153.77 154.89Z" fill="#26342D"/>
<path d="M154.83 218.49L144.93 181.37L143.58 163.53L143.44 163.34C147.63 159.99 153.77 154.89 153.77 154.89L154.83 218.49Z" fill="#5ECC6B"/>
<path d="M165.96 167.77L154.83 218.49L153.77 154.89L165.96 167.77Z" fill="#26342D"/>
<path d="M105.88 70.3599L85.4 82.8099L77.4 87.6999C77.4 87.6999 70.03 83.9099 69.4 83.2599V83.1699C69.65 82.9999 66.71 75.9999 64.52 71.6199L67.26 68.9699L67.66 68.5899C67.93 68.3499 68.17 68.1199 68.39 67.9099C68.83 67.4999 69.14 67.1799 69.22 67.0799C72.79 69.7999 79.01 74.9099 79.27 75.0799C79.27 75.0799 79.32 75.0799 79.39 75.0799C80.72 74.5499 92.8 66.6399 97.47 64.6499L98.72 65.4999L105.88 70.3599Z" fill="#5ECC6B"/>
<path d="M74.8699 99.6499L49.4299 84.3799L69.3599 83.1799L69.39 83.2599L74.8699 99.6499Z" fill="#3C6A4C"/>
<path d="M34.32 103.05L35.16 119.49L31.5 99.6499L49.43 84.3799L34.32 103.05Z" fill="#3C6A4C"/>
<path d="M33.12 138.91L19.01 151.28L20.91 132.18L25.8 119.01L35.16 119.49L33.12 138.91Z" fill="#5ECC6B"/>
<path d="M34.4701 159.1L34.4201 159.2L17.8 178.76L19.0001 151.28L34.4701 159.1Z" fill="#26342D"/>
<path d="M110.09 84.3801L77.26 98.6301L85.4 82.8101L110.09 84.3801Z" fill="#3C6A4C"/>
<path d="M123.94 103.86L117.8 118.07C117.8 118.07 103.25 126.58 102.9 126.94C102.55 127.3 75.47 121.51 75.47 121.51L77.26 98.6199L110.09 84.3799L123.94 103.86Z" fill="#5ECC6B"/>
<path d="M148.92 238.83L148.43 243.24L143.13 244.39L148.92 238.83Z" fill="#4B1D11"/>
<path d="M92.8799 154.31L95.0299 180.63L91.8499 185.33L73.8599 187.49V130.24L96.4599 140.9L92.8799 154.31Z" fill="#5ECC6B"/>
<path d="M116.11 278.12L86.74 226.34L96.47 211.57L119.19 190.91C119.74 192.99 121.06 201.23 122.58 211.8C122.57 211.78 115.48 277.5 116.11 278.12Z" fill="#26342D"/>
<path d="M86.73 226.32C86.73 226.96 65.57 226.32 65.57 226.32L53.25 201.26L54.02 178.26C54.02 178.26 61.73 196.99 62.19 197.26C62.65 197.53 86.98 197.26 86.98 197.26L104.27 172C104.27 172 107.27 193 107.76 193.45C108.25 193.9 86.23 225.65 86.73 226.32Z" fill="#5ECC6B"/>
<path d="M93.37 14.12L92.77 24.12L88.07 25.77L74.84 31.16L63.53 24.93L64.77 13.73C64.77 13.73 66.21 24.41 66.57 24.53C66.93 24.65 74.98 29.1 75.17 28.98C75.36 28.86 86.47 23.67 86.47 23.67L89.03 14.86L93.37 14.12Z" fill="#83491F"/>
<path d="M85.0001 50.1399L82.5201 50.6899L71.0701 50.4199C71.0701 50.4199 69.8701 50.0499 69.8201 50.0499L71.4401 48.8799C71.4401 48.8799 80.2501 48.8199 80.5601 48.8799C80.8701 48.9399 85.0001 50.1399 85.0001 50.1399Z" fill="#8F5729"/>
<path d="M81.3799 52.52C81.3799 52.52 79.2899 55.01 79.0499 54.93C78.8099 54.85 73.4299 54.93 73.4299 54.93L71.9099 52.52H81.3799Z" fill="#8F5729"/>
<path d="M93 31.7999C93 31.7999 90.82 39.1399 90.62 39.2099C90.42 39.2799 78.31 39.7699 78.03 39.7699L80.03 33.0899L90.21 28.4299L93 31.7999Z" fill="#FFFDFD" stroke="#231F20" stroke-linejoin="round"/>
<path d="M71.9101 39.78L65.0401 38.06L63.9401 37.78L62.3301 32.26L64.0801 28.78L71.3801 33.28L71.9101 39.78Z" fill="#FFFDFD" stroke="#231F20" stroke-linejoin="round"/>
<path d="M78.3999 43L91.2199 44.2599L91.9199 51.8699L91.7099 42.7L78.7099 42.9299L78.3999 43Z" fill="#6A3F26"/>
<path d="M102.89 13.61L90.2699 12.68L75.1599 15.07L64.9999 12.41L63.8999 9.22002L65.2999 6.68001L85.9999 9.07002L97.7399 4.51001L102.89 13.61Z" fill="#22201F"/>
<path d="M75.45 28.32L76.8999 25.76V27.54L75.45 28.32Z" fill="#A46A33"/>
<path d="M68.3501 67.9101C68.1301 68.1201 67.8901 68.3501 67.6201 68.5901L69.1801 67.0601C69.1001 67.1801 68.7901 67.5001 68.3501 67.9101Z" fill="#643090"/>
<path d="M69.3599 83.1699L49.4299 84.3799C49.4299 84.3799 47.7099 81.0999 46.4299 78.9599C46.2399 78.6399 46.0599 78.3499 45.8999 78.0999L49.2799 76.0999L49.4099 76.0199V76.0799C52.7199 75.6899 59.9999 75.0799 59.9999 75.0799C61.5805 74.0605 63.0724 72.9097 64.4599 71.6399C66.6699 75.9999 69.6099 82.9999 69.3599 83.1699Z" fill="#26342D"/>
<path d="M49.43 76V78.89H46.43L33.78 79.14L47.72 76.23L49.43 76Z" fill="#26342D"/>
<path d="M92.8801 154.31L73.8601 150.95L72.5901 155.29L93.0201 155.98L94.8401 154.95L92.8801 154.31Z" fill="#26342D"/>
<path d="M53.2501 201.24L65.5701 226.3L64.4301 224.51L63.9601 223.77L63.7001 223.37L63.1401 222.48L62.5201 221.48L62.1901 220.96L61.1401 219.31L60.0001 217.56L59.2101 216.31L58.4001 215.04L57.9901 214.39L57.1901 213.13L55.8501 211.03L55.0701 209.79L54.2501 208.49C50.5901 202.71 47.4501 197.68 47.3901 197.43L50.8001 176.83C50.8001 176.83 44.6001 138.63 44.8001 135.16L35.1401 119.49L47.2301 134.81L63.6801 128.81L49.7701 141.86L54.0001 178.25L53.2501 201.24Z" fill="#3C6A4C"/>
<path d="M97.7599 4.51006V9.22006L75.0599 13.7001L63.9399 9.22006L65.3399 6.68005C66.7099 4.19005 68.6199 0.680068 68.6799 0.570068C68.6799 0.910068 75.7899 5.31006 75.7899 5.31006L79.6199 2.88007L82.8199 4.51006H97.7599Z" fill="#22201F"/>
<path d="M93.37 14.12C93.37 14.12 97.51 11.9 97.47 12.05C97.43 12.2 95.91 25.44 95.91 25.44L92.77 24.09L93.37 14.12Z" fill="#3E383E"/>
<path d="M102.29 30.6899L104.43 38.0599L101.44 41.4899L102.29 30.6899Z" fill="#5C3412"/>
<path d="M101.44 41.4899L99.5901 41.3399L102.29 30.6899L103.88 36.0899L101.44 41.4899Z" fill="#5C3412"/>
<path d="M76.8999 17.49C76.8999 17.31 66.8999 9.98002 66.8999 9.98002C66.8999 9.98002 68.5399 1.33002 68.7199 1.58002C68.8999 1.83002 74.9999 9.00002 74.9999 9.00002L76.8999 17.49Z" fill="#3E383E"/>
<path d="M63.0901 42.4399L71.1401 43.6499C71.1401 43.6499 73.8601 45.3499 73.7001 45.1899L71.3201 42.7699L63.0901 42.4399Z" fill="#6A3F26"/>
<path d="M124.72 76.0601L110.09 84.3801L85.3999 82.8101L105.88 70.3701L107.13 71.2201L124.72 76.0601Z" fill="#26342D"/>
<path d="M123.94 103.87L123.89 125.08L114.6 166.48L127.88 124.6L123.94 103.87Z" fill="#5ECC6B"/>
<path d="M71.2701 137.57C71.6101 138.42 70.5901 149.88 70.5901 149.88L59.3701 150.6L61.7401 139.76L71.2701 137.57Z" fill="#5ECC6B"/>
<path d="M103.16 310.1L103.1 310.23C95.87 285.7 86.1 252.91 86.1 252.91L80.84 289.32C80.84 289.32 75.59 314.8 75.54 315.32C74.1322 316.792 72.5268 318.06 70.77 319.09L77 298.91L85.13 249.7L78 246.36L74.95 237.87L81.42 243.26H89.34C89.34 243.26 91.13 251.57 91.59 252.41C92.05 253.25 102.28 305.6 103.16 310.1Z" fill="#26342D"/>
<path d="M38.79 450L48.79 440.94C48.79 440.94 57.79 462.94 57.21 462.38C56.63 461.82 38.79 450 38.79 450Z" fill="#5ECC6B"/>
<path d="M164.57 219.13L164.52 219.56L154.84 218.49L167.74 190.14V190.29C167.93 192.89 164.57 219.13 164.57 219.13Z" fill="#26342D"/>
<path d="M72.49 62.07C72.62 61.93 74.39 58.97 74.39 58.97L79.55 58.7L83.32 62.07L76.12 63.07L72.49 62.07Z" fill="#78421B"/>
<path d="M152.35 105.08V105.15L142.7 121.84L128.2 113.3L130.2 98.1099L141.66 80.6299L141.98 80.6799L152.35 105.08Z" fill="#26342D"/>
<path d="M135.92 127C135.92 127 134.72 149.7 135.11 150.86C134.45 150.79 127.66 126.1 127.66 126.1L122 105.27L110.06 84.3799L130.21 98.0499L128.54 113.21L142.67 121.84L135.92 127Z" fill="#3C6A4C"/>
<path d="M166 167.77L153.81 154.89L142.7 121.84L152.44 104.94C152.34 106 155.25 119.94 155.39 120.59C155.53 121.24 156.01 134.21 156.01 134.21C156.01 134.21 156.7 153.8 156.77 153.14C156.84 152.48 166 167.77 166 167.77Z" fill="#3C6A4C"/>
<path d="M153.77 154.89C152.69 154.77 137.87 152.1 135.43 151.11C135.28 150.97 135.18 150.88 135.12 150.88C134.73 149.72 135.93 127.02 135.93 127.02L142.71 121.84L153.77 154.89Z" fill="#5ECC6B"/>
<path d="M47.75 76.29L49.43 76.03V76.09H49.3L47.74 76.28L47.75 76.29Z" fill="#662F8E"/>
<path d="M12.14 228.66L4.18994 241.71L0.939941 227.84L1.36993 209.76L7.39993 213.2L12.14 228.66Z" fill="#874A20"/>
<path d="M19.7999 225.36L12.1399 228.66L7.3999 213.2L13.1399 213.46L19.6799 225.01L19.7999 225.36Z" fill="#A76931"/>
<path d="M23.1601 235.25L20.5501 237.87L12.1401 228.66L19.8001 225.36L23.1601 235.25Z" fill="#804A1F"/>
<path d="M20.5499 237.87L18.4399 241.84L17.7099 243.21L4.20995 241.79L4.18994 241.71L12.14 228.66L20.5499 237.87Z" fill="#471914"/>
<path d="M18.4399 241.84L7.3999 239.42L10.4199 235.77L20.5499 237.87L18.4399 241.84Z" fill="#804A1F"/>
</svg>
