<svg width="169" height="517" viewBox="0 0 169 517" fill="none" xmlns="http://www.w3.org/2000/svg">
<path d="M36.7701 142.91C36.102 142.378 35.5735 141.692 35.2301 140.91C34.9854 139.982 35.0885 138.997 35.5201 138.14C36.2578 136.597 37.4198 135.296 38.8701 134.39C40.314 133.499 41.8806 132.826 43.5201 132.39C46.7004 131.386 50.0529 131.046 53.3701 131.39C54.5454 131.497 55.6877 131.837 56.7301 132.39C57.879 133.125 58.7899 134.178 59.3526 135.42C59.9153 136.662 60.1054 138.041 59.9001 139.39C59.4263 142.102 57.9347 144.531 55.7301 146.18" fill="#EE4023"/>
<path d="M118.08 142.52C117.687 143.834 116.935 145.012 115.908 145.922C114.882 146.832 113.622 147.437 112.27 147.67C111.464 147.841 110.624 147.743 109.88 147.39C108.854 146.671 108.123 145.605 107.82 144.39C106.486 141.272 105.562 137.995 105.07 134.64C104.843 133.356 105.029 132.033 105.6 130.86C106.057 130.172 106.694 129.621 107.441 129.269C108.188 128.916 109.018 128.775 109.84 128.86C111.482 129.059 113.035 129.717 114.32 130.76C116.738 132.574 118.612 135.016 119.74 137.82C120.01 138.5 120.39 139.31 121.12 139.36" fill="#EE4023"/>
<path d="M106.46 165C109.304 162.01 111.666 158.596 113.46 154.88C113.901 154.068 114.195 153.184 114.33 152.27C114.393 151.812 114.354 151.346 114.216 150.905C114.078 150.464 113.843 150.06 113.53 149.72C112.982 149.247 112.301 148.957 111.58 148.89C110.23 148.747 108.865 148.901 107.58 149.34C105.225 150.053 103.047 151.256 101.188 152.869C99.3292 154.482 97.8317 156.469 96.7935 158.7C95.7553 160.931 95.1996 163.357 95.1628 165.817C95.1261 168.278 95.6089 170.719 96.58 172.98C96.7175 173.404 96.9788 173.776 97.33 174.05C97.6709 174.211 98.0459 174.286 98.4224 174.268C98.7989 174.251 99.1654 174.142 99.49 173.95C106.35 171 104.09 171.95 105.84 169.75" fill="#EE4023"/>
<path d="M127.1 99.4L113.76 105.54L112.17 105.46L120.31 91.37L113 52.49L107.84 67.44L105.23 69.44V58.49L101.8 44L99.25 33.33L97.93 27.75L76.22 34L60.12 26.58L56.12 32.58V38.22C55.49 40.75 53.84 47.45 53.84 48.16C53.84 49.05 54.97 63.33 55.34 64.07C55.71 64.81 50.73 74.83 50.73 74.83L56.36 71L60.16 64.4L62.66 73.73L66.9 81.03V101.29L56.11 105.5L55.42 105.26L44.33 101.49L41.01 63.49L47.01 26.63L62.01 5.97998L80.47 0.97998L104 7.99998L118.43 34L121.36 55.15L117.94 58.15L126.06 87L127.1 99.4Z" fill="#F9DE2B"/>
<path d="M53.79 47.2798L47.14 61.5498L46.05 58.4098L44.14 66.2498L51.39 103.85C51.39 103.85 60.6 96.7398 61.24 95.8998C61.88 95.0598 59.59 71.2298 59.59 71.2298L56.93 55.4598L53.79 47.2798Z" fill="#97712D"/>
<path d="M53.47 73.0001L54.47 81.0601L52.67 85.5701L51.37 103.9C51.37 103.9 62.6 111.05 62.9 110.95C63.2 110.85 70.9 107.74 71.06 107.34C71.22 106.94 75.06 96.6101 74.94 95.0001C74.82 93.3901 75.07 79.4201 74.51 79.0901C73.95 78.7601 67.72 72.7301 67.32 72.4301C66.92 72.1301 63.2 63.5101 63.2 63.5101L59.73 61.3901L53.47 73.0001Z" fill="#97712D"/>
<path d="M96.91 80.82L96.69 84.2L79.1499 101.46L79.44 122.9L69.44 127.72L45.5599 118.39C45.5599 118.39 45.2399 115.39 45.5599 114.96L55.4599 105.26L56.1499 105.5L66.94 101.29V81L62.7 73.7L60.2 64.37V64.11L59.2 58.74L58.4999 56.23L61.3299 59.41C61.3299 59.41 74.1499 63.46 74.6199 63.46C75.0899 63.46 78.6199 67.46 78.6199 67.46V74.2L71.2 72.81L74.3099 77.67L78.5 79V89H83.63L96.91 80.82Z" fill="#DC9159"/>
<path d="M76.22 34.0201L72.45 35.5401L72.11 40.1701L56.14 32.5501L60.12 26.6001L76.22 34.0201Z" fill="#F4831F"/>
<path d="M99.25 33.2802L84.08 40.1902L82.73 40.8002L82.11 36.2102L76.22 34.0202L97.93 27.7002L99.25 33.2802Z" fill="#F4831F"/>
<path d="M101.8 44.0001L95.4901 40.8501C95.4901 40.8501 81.9201 49.6001 81.4901 49.9201C81.0601 50.2401 84.0501 40.2301 84.0501 40.2301L99.2201 33.3301L101.8 44.0001Z" fill="#EE4023"/>
<path d="M101.8 44L95.49 40.85C95.49 40.85 81.92 49.6 81.49 49.92C81.06 50.24 84.05 40.23 84.05 40.23L82.7 40.85L77.4 49.11L78.2 54.97L78 64.16L82.7 63.16L102 56.91L105.31 58.49L101.8 44ZM78.8 61.89L80.05 56.28L82.44 61.89H78.8ZM101.8 51.26L93.42 56.96L82.73 52.38C83.37 52.38 96.3 43.53 96.3 43.53L101.8 48.05V51.26Z" fill="#EE4023"/>
<path d="M74.55 63.4801C74.09 63.4801 61.27 59.4801 61.27 59.4801L58.44 56.3101C57.5154 53.2123 56.7544 50.0679 56.16 46.8901C56.16 46.2001 56.16 41.8901 56.16 38.2601C56.16 35.2601 56.16 32.6201 56.16 32.6201L61.16 42.9101L61.35 43.5601L61.52 44.1501L57.59 48.7501L64.67 56.9801L65.33 56.6201L74.55 63.4801Z" fill="#EE4023"/>
<path d="M149.67 195L149.93 208.18L140.11 216.58L141.17 189.45L133.25 180.75L122 152.58L123.71 136.69C124.42 136.31 143.85 127.79 143.85 127.79L132.21 149.79C132.21 149.79 145.77 188.39 146.59 187.44C147.41 186.49 153.8 192.44 153.8 192.44L149.67 195Z" fill="#DC9159"/>
<path d="M24.4799 164.13L26.2699 199.5C26.2699 199.5 23.7099 194.27 23.5799 194.63C23.4499 194.99 23.5799 200.95 23.5799 202.75L13.9399 198.55C13.9399 198.55 15.9999 176.27 15.9999 174.71C15.9999 173.15 19.8299 136.25 19.8299 136.25L27.6599 140.57L34.3699 138.57L24.4799 164.13Z" fill="#DC9159"/>
<path d="M163.58 196.2L148.46 208.89L148.2 195.71L152.31 193.18C152.31 193.18 145.93 187.18 145.11 188.18C144.29 189.18 130.72 150.53 130.72 150.53L143.94 127.82L163.05 183.08L163.58 196.2Z" fill="#F1B280"/>
<path d="M108.59 111.8C109.361 113.41 110.216 114.979 111.15 116.5L71.9999 128.77L69.4399 127.77L79.4399 122.95L79.1499 101.51L96.6899 84.25L97.4699 100.32L112.17 105.51L113.76 105.59L108.59 111.8Z" fill="#F1B280"/>
<path d="M36.5901 167.88L34.5301 190.13L33.3501 208.18L23.5601 202.75C23.5601 200.95 23.4601 194.93 23.5601 194.63C23.6601 194.33 26.2501 199.5 26.2501 199.5L24.4601 164.13L34.3501 138.56C35.05 138.325 35.7649 138.138 36.4901 138L35.0001 140.13L31.9501 151.79L31.2801 153.02L36.5901 167.88Z" fill="#F1B280"/>
<path d="M76.42 52.5098L73.37 48.0298L61.98 43.5098H61.31L61.12 42.8598L56.16 32.5698L72.13 40.1898L75.43 45.6998L76.42 52.5098Z" fill="#EE4023"/>
<path d="M82.73 40.8L77.43 49.06L75.4 45.68L72.11 40.17L72.45 35.54L76.22 34.02L82.11 36.21L82.73 40.8Z" fill="#F4831F"/>
<path d="M120.31 91.3702L112.17 105.46L97.4699 100.27L96.6899 84.2002V84.1902L96.9099 80.8202L100.24 74.2802L105.26 58.4902V69.4402L107.87 67.4402L113.03 52.4902L120.31 91.3702Z" fill="#97712D"/>
<path d="M105.26 58.4902L100.24 74.2802L96.91 80.8202L83.63 88.9801H78.5V79.0302L82.47 78.4602L86.6 74.1801L90.73 69.4402L86.6 72.7901L78.5 74.1801V67.4402L82.73 63.0901L101.95 56.9102L105.26 58.4902Z" fill="#F1B280"/>
<path d="M90.73 69.4399L86.6 74.1799L82.47 78.4599L78.51 79.0299L74.19 77.6499L71.08 72.7899L76.83 75.7699L80.9 75.3399L86.6 72.7899L90.73 69.4399Z" fill="#A96739"/>
<path d="M86.6 72.79L80.9 75.34L76.83 75.7701L71.08 72.79L78.51 74.18L86.6 72.79Z" fill="#9E5C28"/>
<path d="M82.47 61.84H78.83L80.08 56.23L82.47 61.84Z" fill="#7C4B20"/>
<path d="M82.73 63.09L78.5 67.44C78.5 67.44 74.98 63.44 74.5 63.44L65.24 56.52C67.24 55.38 73.42 51.98 73.83 51.98L62 43.48L73.35 48L76.35 52.49L75.35 45.68L77.35 49.06L78.15 54.92L77.95 64.11L82.73 63.09Z" fill="#EE4023"/>
<path d="M60.18 64.3699L56.38 70.9699L50.75 74.7999C50.75 74.7999 55.75 64.7999 55.36 64.0399C54.97 63.2799 53.86 49.0399 53.86 48.1299C53.86 47.4199 55.51 40.7199 56.14 38.1899C56.14 41.8699 56.14 46.1199 56.14 46.8199C56.14 47.6799 57.53 52.9899 58.41 56.2299L59.11 58.7399L60.11 64.1099L60.18 64.3699Z" fill="#DAA733"/>
<path d="M101.8 48V51.21L93.42 56.91L82.73 52.33C83.37 52.33 96.3 43.48 96.3 43.48L101.8 48Z" fill="white" stroke="#231F20" stroke-linejoin="round"/>
<path d="M73.86 51.9999C73.45 51.9999 67.3 55.3999 65.27 56.5399L64.61 56.9099L57.53 48.6699L60.64 43.6699L61.09 42.8599L73.86 51.9999Z" fill="white" stroke="#231F20" stroke-linejoin="round"/>
<path d="M79.73 220.31L79.5 239.67L69.81 244.07C69.81 244.07 69.81 228.8 69.81 228.07C69.7333 228.063 69.6564 228.081 69.59 228.12L69.44 228.2L69.25 228.31C66.91 229.66 58.2 236.51 58.2 236.51L57.91 236.27L57.03 220.27V216.54H57.24C58.32 217.81 60.47 220.28 60.84 220.28L79.73 220.31Z" fill="#EE4023"/>
<path d="M133 263.69L116.72 355.69L102.64 357.09L77.49 274.8C77.49 274.8 88.23 266 98.99 257.34C101.26 255.51 103.54 253.68 105.71 251.95C105.4 259.66 103.76 294.13 103.76 294.13C103.76 294.13 116.46 322.29 116.82 321.73C117.18 321.17 132.61 265.3 133 263.69Z" fill="#7C4B20"/>
<path d="M47.71 511.39L20.12 513C20.12 513 10.12 514.21 9.32004 514C8.52004 513.79 0.52002 511.83 0.52002 511.83L1.29004 508.44L15.15 509.14H15.6L26.42 509.83L40.29 506.65L40.82 506.53H40.88C40.933 506.521 40.9871 506.521 41.04 506.53V506.53C41.4 506.43 47.27 504.87 47.45 504.92C47.64 508.51 47.71 511.39 47.71 511.39Z" fill="#7C4B20"/>
<path d="M26.35 509.68L40.33 506.67L26.46 509.85L15.64 509.16L15.19 509.14H15.18L15.15 509.12L15.45 509.14L26.35 509.68Z" fill="#001750"/>
<path d="M47.5101 504.88C47.3301 504.88 41.4601 506.39 41.1001 506.49V506.37L41.05 506.23L40.7301 505.31L40.4301 504.47C40.3201 504.15 40.19 503.82 40.05 503.47L39.9001 503.06C39.8401 502.89 39.7801 502.72 39.7101 502.55L38.9501 500.55L38.7001 499.89C38.4101 499.14 38.12 498.35 37.8 497.55C37.63 497.11 37.47 496.66 37.3 496.22C36.87 495.12 36.4501 494.03 36.0601 493C35.9101 492.63 35.7701 492.27 35.6401 491.93C35.2301 490.93 34.8701 489.93 34.5701 489.2C34.5361 489.094 34.4961 488.991 34.4501 488.89L34.3 488.5C34.24 488.35 34.1801 488.2 34.1401 488.07L34.0001 487.73C33.8901 487.43 33.8201 487.26 33.8201 487.26L33.9501 486.48V487.48L49.0001 487.26C49.0001 487.23 47.3301 498.66 47.5101 504.88Z" fill="#EE4023"/>
<path d="M39.92 473.61H39.6899V473.11L39.92 473.61Z" fill="#1C387F" stroke="#9BB8C8" stroke-miterlimit="10"/>
<path d="M40.9 506.53L40.37 506.66L26.5 509.84L15.68 509.15H15.23L6.72998 504.91L25.14 495.49L27.58 497.17L28.45 497.77L29.09 498.21L29.91 498.79C34.08 501.7 39.8 505.67 40.9 506.53Z" fill="#EE4023"/>
<path d="M15.18 509.14L1.29004 508.42L6.64005 504.88H6.65002L15.18 509.14Z" fill="#F8B517"/>
<path d="M136.91 502.28L119.08 496.35L118.08 487.27L118.15 487.63L132.55 487.45L136.91 502.28Z" fill="#EE4023"/>
<path d="M141.62 510.58L120.14 509.85C120.14 509.85 117.66 502.3 117.66 501.98L119.12 496.6V496.35L136.95 502.28L141.62 510.58Z" fill="#F8B517"/>
<path d="M142.77 513.4L131.34 516.8H122.34L116 511L117.63 502.33V502C117.63 502.32 120.11 509.87 120.11 509.87L141.59 510.6L142.77 513.4Z" fill="#7C4B20"/>
<path d="M41.1 506.49C41.0471 506.481 40.9929 506.481 40.94 506.49H40.88L29.88 498.71L29.06 498.13L28.42 497.69L27.55 497.09L25.11 495.41L33.81 487.18C33.81 487.18 33.88 487.35 33.99 487.65L34.13 487.99C34.13 488.12 34.23 488.27 34.29 488.42L34.44 488.81C34.486 488.911 34.5261 489.015 34.56 489.12L39.84 503L39.99 503.41L41.04 506.12C41.04 506.17 41.04 506.32 41.04 506.37C41.04 506.42 41.09 506.45 41.1 506.49Z" fill="#F4831F"/>
<path d="M55.45 105.23L45.55 114.93L41.26 117.93C41.26 117.93 41.11 118.67 40.85 119.87C39.8 124.78 37.1 137.93 36.53 137.93C35.8049 138.068 35.09 138.256 34.39 138.49L27.68 140.49L19.85 136.17L16.29 121.75L25.92 129.75L37.58 117.27L47.91 108.96L38.31 99.6001L44.38 101.34L55.45 105.23Z" fill="#7C4B20"/>
<path d="M21.13 255.87C21.13 255.87 14.48 259.95 14.37 260.43C14.26 260.91 5.46 252.97 4.42 252.01C4.11 258.2 4.57997 282.28 4.57997 282.28L6.30998 283.72L17.31 279.93L25.88 270.58L21.13 255.87ZM6.30998 280.1L7.30998 263.67L9.99999 277.15L6.30998 280.1Z" fill="#EE4023"/>
<path d="M18.17 199.75L16 219.51L14 204.51L10 198.66C10 198.57 10 198.52 10 198.52L13.89 198.59L18.17 199.75Z" fill="#F4831F"/>
<path d="M16.1 251.5L21.1 255.87C21.1 255.87 14.45 259.95 14.34 260.43C14.23 260.91 5.43 252.97 4.39 252.01C4.38166 251.535 4.43542 251.061 4.54997 250.6C5.13997 249.69 9.60998 201.6 9.98998 198.6L13.99 204.45L15.99 219.45L14.32 234.99L21.41 245.18L10.66 247.48L7.23 251.48L16.1 251.5Z" fill="#F8B517"/>
<path d="M35.54 211.25L21.46 245.24L14.37 235.05L18.17 199.75L33.35 208.18L35.54 211.25Z" fill="#7C4B20"/>
<path d="M20.61 254.25L21.13 255.87L16.1 251.5H7.28003L10.71 247.54L21.46 245.24L20.61 254.25Z" fill="#7C4B20"/>
<path d="M21.4601 287.99L13.6201 289.8L6.31006 283.72L17.33 279.93L25.9001 270.58L26.05 276.95L21.4601 287.99Z" fill="#F8B517"/>
<path d="M113.65 172.65C113.65 172.65 108.31 190 108.27 190L108.33 190.27C106.96 188.27 98.33 185.99 97.92 185.99C97.51 185.99 91.74 183.55 89.11 182.54C89.11 182.54 89.11 182.47 89.11 182.43C89.56 180.33 89.85 178.91 89.85 178.91L92.44 180.01L100.22 168.01L106.85 158.74L111.73 154.01L116.73 144.81C118.8 146.32 121.95 152.62 121.95 152.62L113.65 172.65Z" fill="#EE4023"/>
<path d="M111.75 154L103.65 159.09L100.25 168L92.47 180L89.87 178.9L71.13 170.95L57 178.32L55.45 179.13L46.69 165.84L41.38 166.2H55.47L66 145.88L70.68 162.17L75.3 148.26C75.3 148.26 93.24 162.98 93.6 162.83L111.75 154Z" fill="#7C4B20"/>
<path d="M89.87 178.89C89.87 178.89 89.58 180.31 89.13 182.41C89.13 182.41 89.13 182.48 89.13 182.52C87.83 188.52 85.24 199.92 84.21 199.75C82.84 199.51 69.83 194.05 69.83 194.05L58.41 199.75L57 178.32L71.12 170.94L89.87 178.89Z" fill="#F8B517"/>
<path d="M116.76 144.77L111.76 153.97L93.58 162.82C93.22 162.97 75.28 148.25 75.28 148.25L87.08 133.85C87.08 133.85 104.71 133.42 105.34 133.91C105.76 134.25 111.94 141.27 116.76 144.77Z" fill="#F8B517"/>
<path d="M49 254.32L33.25 241.06L39.55 224.44C39.99 224.74 41.37 226.39 42.08 226.93L49 254.32Z" fill="#F8B517"/>
<path d="M58.1801 236.51C58.1801 236.51 46.0701 229.93 42.0901 226.93C41.3801 226.39 40.0001 224.74 39.5601 224.44L45.83 212.37L57.0001 220.31L58.1801 236.51Z" fill="#7C4B20"/>
<path d="M69.8099 244.07L58.1799 236.51C60.0399 235.01 67.62 229.2 69.42 228.2L69.5699 228.12C69.6363 228.081 69.7132 228.064 69.7899 228.07C69.7899 228.07 69.7899 228.07 69.7899 228.07C69.8499 228.8 69.8099 244.07 69.8099 244.07Z" fill="#F8B517"/>
<path d="M117.47 224.67L106.86 227.28L84.2 235.05V220.31L112.59 210.14L117.47 224.67Z" fill="#7C4B20"/>
<path d="M116.75 355.67C116.75 355.67 111.75 376.27 111.52 377.15C111.29 378.03 102.67 357.07 102.67 357.07L116.75 355.67Z" fill="#F8B517"/>
<path d="M78.81 306.44C79.07 305.07 69.81 354.68 69.81 354.68L64.34 363.3C64.34 363.3 67.27 351.61 67.52 350.82C67.77 350.03 76.41 302.29 76.41 302.29C76.41 302.29 67.04 298.85 68.7 299.11C71.2848 299.25 73.8752 299.25 76.46 299.11L81.53 297.58L93.9 361.9C93.44 360.27 78.55 307.8 78.81 306.44Z" fill="#F8B517"/>
<path d="M126.1 355.67L133.04 263.67L116.76 355.67C116.76 355.67 111.76 376.27 111.53 377.15C111.3 378.03 102.68 357.07 102.68 357.07L77.5301 274.78C77.5301 274.78 88.2701 265.98 99.0301 257.32L106.87 227.32L84.2101 235.09V237.58L79.5201 239.71L69.83 244.11L58.3801 236.65L57.9101 236.31C56.5001 235.2 45.62 229.61 42.11 226.97L49.0001 254.32L51.0001 256.45L69.8 276.53L53.5601 361.94L40.6201 353.94L28.05 283.89L24.3 327.42L30.5201 349.83L28.3701 377.19L33.2001 387.25L33.9701 473.63H39.6801V416.4C39.6801 415.26 57.8 375.82 57.8 375.82L66.1801 394.69L47.1001 473.61L52.9401 473.36L73.7401 392.67L64.3401 363.3C64.3401 363.3 67.2701 351.61 67.5201 350.82C67.7701 350.03 76.4101 302.29 76.4101 302.29C76.4101 302.29 67.0401 298.85 68.7001 299.11C71.2849 299.25 73.8753 299.25 76.4601 299.11L81.5301 297.58L93.9101 361.91L91.6301 387.61C91.6301 387.61 115.63 478.75 116.63 479.61C116.78 479.707 116.952 479.766 117.13 479.78C119.736 479.897 122.346 479.877 124.95 479.72H125.83L116.88 419.64C116.88 419.64 127.71 383.64 127.71 382.95C127.71 382.26 132.95 386.37 132.95 386.37L131.12 479.49L132.51 479.42L132.72 477.72C133.1 464.94 137.5 385.04 138.46 384.79C139.42 384.54 126.1 355.67 126.1 355.67ZM34.8501 372.49L38.3701 355.67C39.3701 356.1 49.1401 366.42 49.1401 366.42L34.8501 372.49Z" fill="#F4831F"/>
<path d="M124.67 240.19C118.014 243.516 111.677 247.445 105.74 251.93C103.57 253.66 101.29 255.49 99.02 257.32L106.86 227.32L117.47 224.71L124.28 239.2L124.67 240.19Z" fill="#F8B517"/>
<path d="M133 263.65C132.58 265.26 117.17 321.12 116.82 321.65C116.47 322.18 103.76 294.05 103.76 294.05C103.76 294.05 105.4 259.58 105.71 251.87C111.647 247.385 117.984 243.455 124.64 240.13L133 263.65Z" fill="#EE4023"/>
<path d="M168 205C167.8 205.22 160.59 213.33 154.21 220.35V250.59L150.6 257.31L145.13 250.17L134.59 265.66L133.67 271.96H140.11V283.76L151.19 286.52L162.28 279.86C162.28 279.86 162.02 247.69 162.28 246.59C162.49 245.71 166.25 217.91 168 205ZM151.19 281.88L153 274.82V262.66L156.36 277.15L151.19 281.88Z" fill="#F8B517"/>
<path d="M162.28 279.82L159.38 287.24L145.07 294.72L136.56 291.32L133.67 271.92H140.11V283.72L151.19 286.48L162.28 279.82Z" fill="#EE4023"/>
<path d="M154.21 220.31V250.55L150.6 257.27L145.13 250.13L138 217.41C138 217.41 144.31 229.87 144.52 230.5C144.61 230.78 149.15 225.89 154.21 220.31Z" fill="#7C4B20"/>
<path d="M168.88 198.43C168.88 198.43 168.54 201 168 205C167.8 205.22 160.59 213.33 154.21 220.35C149.15 225.93 144.61 230.82 144.52 230.54C144.31 229.91 138 217.45 138 217.45L140.11 216.62L149.93 208.22L165.05 195.53L166.24 194.36L168.88 198.43Z" fill="#EE4023"/>
<path d="M133 386.35L131.17 479.47C129.86 479.54 127.89 479.63 125.88 479.7L116.93 419.62C116.93 419.62 127.76 383.62 127.76 382.93C127.76 382.24 133 386.35 133 386.35Z" fill="#F8B517"/>
<path d="M113.22 120L79.22 131.24L69.77 144.77L60.7 129.87L40.83 120C41.09 118.81 41.24 118.07 41.24 118.07L45.53 115.07C45.23 115.52 45.53 118.49 45.53 118.49L69.41 127.82L71.97 128.82L111.09 116.57L113.22 120Z" fill="#F4831F"/>
<path d="M65.9699 145.88L55.4699 166.2H41.3799L39.2999 164.73L31.9299 151.79L34.9799 140.13L38.2899 136.65L55.45 135.26L65.9699 145.88Z" fill="#F8B517"/>
<path d="M84.2 220.31V235.05V237.54L79.51 239.67L79.74 220.31H60.82C60.45 220.31 58.3 217.84 57.22 216.57L84.22 215.42V220.31H84.2Z" fill="#F8B517"/>
<path d="M52.61 295.57C52.61 295.57 42.1701 321 42.0001 320.1C41.8301 319.2 28.7301 286.18 28.0601 283.69V282.79L32.5701 242.58L33.2301 241.07L49.0001 254.32L51.0001 256.45L52.61 295.57Z" fill="#EE4023"/>
<path d="M69.8101 276.53L53.5701 361.94L40.6301 353.94L28.0601 283.89V283.71C28.7301 286.2 41.8301 319.29 42.0001 320.12C42.1701 320.95 52.61 295.59 52.61 295.59L51.0001 256.45L69.8101 276.53Z" fill="#7C4B20"/>
<path d="M49.14 366.42L34.85 372.49L38.37 355.67C39.4 356.1 49.14 366.42 49.14 366.42Z" fill="#F8B517"/>
<path d="M123.82 136.56L121.98 152.56C121.98 152.56 118.12 146.92 116.76 144.75C113.4 139.43 105.76 134.23 105.33 133.9C104.7 133.41 87.07 133.84 87.07 133.84L75.27 148.24L70.64 162.15L66 145.89L55.47 135.26H38.29L35 140.13L36.53 138C37.1 138 39.8 124.85 40.85 119.94L60.72 129.85L69.79 144.77L79.24 131.23L113.24 119.97C117.67 127.39 123.38 136.78 123.82 136.56Z" fill="#EE4023"/>
<path d="M156.36 277.15L151.19 281.84L153 274.78V262.66L156.36 277.15Z" fill="#7C4B20"/>
<path d="M10.0301 277.15L6.31006 280.1L7.28006 263.67L10.0301 277.15Z" fill="#7C4B20"/>
<path d="M66.1899 394.69L47.0999 473.61H39.92L39.6899 473.11V416.4C39.6899 415.26 57.8099 375.82 57.8099 375.82L66.1899 394.69Z" fill="#F8B517"/>
<path d="M52.94 473.36L48.94 487.23L33.88 487.45L33.89 486.45L33.98 473.61L52.94 473.36Z" fill="#7C4B20"/>
<path d="M132.55 479.4V487.45L118.15 487.63L118.08 487.27L117.17 479.78C119.773 479.897 122.38 479.877 124.98 479.72C127.29 479.67 129.67 479.55 131.16 479.47L132.55 479.4Z" fill="#EE4023"/>
<path d="M148.15 108.95L108.59 111.8L113.89 105.41L127.23 99.28L129.41 97.96L148.15 108.95Z" fill="#F8B517"/>
<path d="M148.15 108.95L143.96 127.66L125.79 129.02L108.59 111.8L148.15 108.95Z" fill="#EE4023"/>
<path d="M144 127.66C144 127.66 124.57 136.18 123.86 136.56C123.42 136.78 117.64 127.34 113.2 119.92L111.1 116.42C110.184 114.931 109.359 113.389 108.63 111.8L125.79 129L144 127.66Z" fill="#7C4B20"/>
<path d="M44.14 109.08L24.17 106.44L38.29 99.7202L44.14 109.08Z" fill="#F8B517"/>
<path d="M47.89 109.08L37.56 117.39L25.9 129.87L16.27 121.83L24.17 106.44L44.14 109.08L38.29 99.7202L47.89 109.08Z" fill="#EE4023"/>
<path d="M82.11 36.2102L97.93 27.7002L76.22 34.0202L82.11 36.2102Z" fill="#F4831F"/>
<path d="M79.73 66.1801L101.95 56.9102L104.9 59.8701L105.26 58.4902L101.95 56.9102L82.73 63.0901L79.73 66.1801Z" fill="#BC7645"/>
<path d="M77.43 66.2502L61.25 59.4102L74.53 63.4602L77.43 66.2502Z" fill="#9B5023"/>
<path d="M96.9101 80.8198L85.55 89.6098L83.61 90.5398L79.8101 89.6698L78.3 89.1998L83.6301 88.9798L96.9101 80.8198Z" fill="#9B5023"/>
<path d="M66.92 82.15L78.3 89.2L66.92 81V82.15Z" fill="#9B5023"/>
<path d="M66.92 81C66.92 81.17 78.5 89 78.5 89H83.63L83.46 89.7L78.3 89.22C78.3 89.22 68.5 83.04 68.44 83.05C68.38 83.06 66.92 81 66.92 81Z" fill="#9B5023"/>
<path d="M76.22 34C76.22 34 71.15 25.43 71.08 24.68C71.01 23.93 80.65 6.52002 80.65 6.52002C80.65 6.52002 75.65 22.22 75.86 22.41C76.07 22.6 81.48 31.94 81.48 31.94L76.22 34Z" fill="#97712D"/>
<path d="M104 7.99992C103.38 7.80992 95.4499 11.4199 95.4499 11.4199C95.4499 11.4199 89.0299 27.9399 89.3099 27.7099C89.5899 27.4799 96.6499 12.9499 96.6499 12.9499L104 7.99992Z" fill="#97712D"/>
<path d="M47.08 26.6002L63.18 17.8402L72.11 20.2802L62.1 5.9502L47.08 26.6002Z" fill="#97712D"/>
<path d="M99 369.92C99.53 370.84 113.91 408.8 113.91 408.8L95 387L99 369.92Z" fill="#7C4B20"/>
<path d="M49.14 372.49L36.42 377.18L39.69 416.4L57.81 375.82L49.14 372.49Z" fill="#7C4B20"/>
<path d="M58.3599 236.62L52.9399 258.51L69.8099 276.53L67.6499 287.85L74.9399 289.8L81.5899 288.11L77.5199 274.78L93.8999 261.45L102.67 228.07L84.2 235.05L84.1899 237.54L69.8099 244.07L58.3599 236.62Z" fill="#F4831F"/>
<path d="M144 127.66C144 127.66 155.42 156.74 155.39 156.66C155.36 156.58 132.23 149.81 132.23 149.81L144 127.66Z" fill="#F8B517"/>
<path d="M132.19 149.79L121.98 152.58L123.82 136.56L143.96 127.66" fill="#F4831F"/>
<path d="M155.35 156.64L164.52 182.34L165.05 195.49L146.57 187.44L155.35 156.64Z" fill="#EE4023"/>
<path d="M122 152.58L133.27 180.75L141.19 189.45L140.13 216.58C140.13 216.58 149.98 209.58 149.95 208.18C149.92 206.78 146.59 187.44 146.59 187.44L155.37 156.64C155.37 156.64 133.6 148.64 132.73 148.81C131.86 148.98 122 152.58 122 152.58Z" fill="#F4831F"/>
<path d="M146.57 187.44L149.93 208.18C149.93 208.18 165.55 195.71 165.05 195.49L146.57 187.44Z" fill="#F8B517"/>
<path d="M136.62 184.46C136.98 184.85 147.08 185.35 147.08 185.35L151.86 184.9L141.17 189.45L136.62 184.46Z" fill="#7C4B20"/>
<path d="M36.51 138L35 140.13L31.95 151.79L31.28 153.02C31.28 153.02 37.28 167.16 36.61 167.88C35.94 168.6 25.2 177.88 25.2 177.88L21 151.79L27.62 140.57L36.51 138Z" fill="#F4831F"/>
<path d="M27.67 140.57L19.83 136.25L15.13 185.35L25.18 177.88L21.04 151.79L27.67 140.57Z" fill="#EE4023"/>
<path d="M36.6 167.88L33.36 208.18L22.11 202.12L25.18 177.87C25.18 177.87 35.88 168.36 36.6 167.88Z" fill="#EE4023"/>
<path d="M25.18 177.87L22.11 202.12L18.17 199.75L13.92 198.55C13.92 198.55 16.92 167.09 16.84 167.48C16.76 167.87 25.18 177.87 25.18 177.87Z" fill="#F8B517"/>
<path d="M112.59 210.14L84.2 220.31V215.42L57 216.58V220.31L45.82 212.37L43.73 178.37L38.43 170.37L36.59 167.91L31.26 153L31.93 151.77L39.3 164.71L41.38 166.18L46.69 165.82L55.45 179.11L57.01 178.3L58.39 199.73L69.81 194.03L84.19 199.73L89.11 182.5C91.74 183.5 97.49 185.95 97.92 185.95C98.35 185.95 106.92 188.2 108.33 190.23C108.78 192.57 112.59 210.14 112.59 210.14Z" fill="#EE4023"/>
<path d="M113.22 167.57C113.09 168 102.22 180.63 102.22 180.63L101.9 186.05L113.22 167.57Z" fill="#F8B517"/>
<path d="M112.81 161.93C112.65 162.36 100.9 174.19 100.9 174.19L100.2 179.57L112.81 161.93Z" fill="#F8B517"/>
<path d="M89.87 178.71C89.87 178.71 89.58 180.13 89.13 182.23V182.34C88.79 183.92 86.31 192.44 84.21 199.57L70.91 204.23L58.41 199.57L57 178.14L71.12 170.75L89.87 178.71Z" fill="#F8B517"/>
</svg>
