<svg width="162" height="516" viewBox="0 0 162 516" fill="none" xmlns="http://www.w3.org/2000/svg">
<path d="M123.41 102.66L115.73 104.42L114.14 104.34L120 89.7301L112.72 50.8401L107.56 65.8401L104.95 67.8401V56.8401L101.49 42.3001L98.9501 31.6301L97.6201 26.0501L75.9101 32.3701L59.7601 25.0001L55.7601 30.9401C55.7601 30.9401 55.7601 33.5701 55.7601 36.5801C55.1301 39.1101 53.4701 45.8101 53.4701 46.5201C53.4701 47.4101 54.6001 61.7001 54.9701 62.4401C55.3401 63.1801 50.36 73.2001 50.36 73.2001L56.0001 69.3601L60.6601 61.9801L63.3201 72.0901L68.6301 78.8301L68.0601 99.5601L55.7501 103.86L55.0701 103.63L45.9001 100.85L43.0701 62.8501L46.7301 25.0001L61.7301 6.08012L80.1901 0.620117L101.57 7.62012L116 32.3301L118.94 53.4701L117.66 56.5301L123.35 86.0601L123.41 102.66Z" fill="#5A4422"/>
<path d="M53.43 45.6399L49.21 60.8999L48.12 57.7599L46.21 65.6099L51.04 102.21C51.04 102.21 60.24 95.0999 60.89 94.2099C61.54 93.3199 59.24 69.5399 59.24 69.5399L56.58 53.7799L53.43 45.6399Z" fill="#3B2418"/>
<path d="M53.12 71.2999L54.12 79.3599L52.31 83.8799L51 102.21C51 102.21 62.22 109.36 62.52 109.21C62.82 109.06 70.52 106 70.68 105.6C70.84 105.2 74.68 94.8599 74.56 93.2599C74.44 91.6599 74.7 77.6799 74.13 77.3399C73.56 76.9999 67.34 70.9899 66.94 70.6799C66.54 70.3699 62.83 61.7599 62.83 61.7599L59.35 59.6499L53.12 71.2999Z" fill="#3B2418"/>
<path d="M95.1399 79.1201L94.9199 82.5001L78.7899 99.8101L79.0799 121.25L69.0799 126.07L45.1999 116.73C45.1999 116.73 44.8699 113.73 45.1999 113.31L55.0999 103.61L55.7799 103.84L70.5099 98.4501L68.6599 78.8101L63.3499 72.0701L60.6899 61.9601V61.7001L58.7799 57.1101C58.7799 57.1101 58.4899 56.1101 58.0899 54.6101L60.9199 57.7801C60.9199 57.7801 73.7399 61.8301 74.1999 61.8301C74.6599 61.8301 78.1999 65.8301 78.1999 65.8301V72.5701L70.7699 71.1801L73.8799 76.0301L78.1999 77.4201V87.4201H83.3199L95.1399 79.1201Z" fill="#AD7135"/>
<path d="M75.86 32.38L72.1 33.8999L71.75 38.53L55.78 30.8999L59.76 24.96L75.86 32.38Z" fill="#B6C158"/>
<path d="M98.8999 31.6401L83.7299 38.5401L82.3699 39.1601L81.7599 34.5701L75.8599 32.3801L97.5699 26.0601L98.8999 31.6401Z" fill="#B6C158"/>
<path d="M101.44 42.3099L95.1399 39.1599C95.1399 39.1599 81.5599 47.8999 81.1399 48.2299C80.7199 48.5599 83.6999 38.5399 83.6999 38.5399L98.8699 31.6399L101.44 42.3099Z" fill="#69BE6A"/>
<path d="M101.45 42.31L95.1401 39.16C95.1401 39.16 81.5701 47.9 81.1401 48.23C80.7101 48.56 83.7001 38.54 83.7001 38.54L82.3501 39.16L77.05 47.42L77.8501 53.28L77.6501 62.4601L82.3501 61.4601L101.57 55.29L104.88 56.87L101.45 42.31ZM78.4501 60.2L79.7101 54.59L82.0901 60.2H78.4501ZM101.45 49.56L93.0701 55.2701L82.3801 50.69C83.0101 50.69 95.9501 41.84 95.9501 41.84L101.45 46.36V49.56Z" fill="#26342E"/>
<path d="M74.1901 61.8399C73.7301 61.8399 60.9101 57.7899 60.9101 57.7899L58.08 54.6099C57.1618 51.5138 56.4008 48.3731 55.8 45.1999C55.8 44.4999 55.8 40.2499 55.8 36.5699C55.8 33.5699 55.8 30.9299 55.8 30.9299L60.8 41.2199L60.9901 41.8599L61.1601 42.4599L57.2401 47.0499L64.3201 55.2899L64.9701 54.9199L74.1901 61.8399Z" fill="#26342E"/>
<path d="M145.46 195.82L145.67 206.53L137.77 213.22L138.02 198.54V198.4L138.2 187.58V187.27L136.95 183.27L135.25 177.83L118.35 148.47V148.4L117.74 147.33L117.88 146.83L119.08 142.49L121.08 135.09C121.79 134.72 136.81 129.43 136.81 129.43L133.87 140.53L131.93 147.85L131.84 148.19C131.84 148.19 131.84 148.3 131.84 148.4V148.53C131.84 148.58 131.84 148.64 131.84 148.7C131.84 148.76 131.9 148.95 131.94 149.1L132.07 149.61C132.07 149.79 132.16 149.98 132.22 150.19C132.3 150.47 132.37 150.77 132.45 151.1C132.45 151.15 132.45 151.21 132.45 151.26C132.52 151.52 132.59 151.79 132.66 152.08C132.73 152.37 132.81 152.67 132.89 152.98C132.97 153.29 132.98 153.35 133.03 153.55C133.19 154.16 133.36 154.82 133.53 155.5C133.65 155.95 133.76 156.41 133.89 156.88C133.95 157.13 134.02 157.39 134.08 157.65C134.62 159.72 135.2 162 135.81 164.33C135.89 164.62 135.97 164.92 136.04 165.21L136.74 167.86C136.82 168.16 136.9 168.45 136.97 168.74C137.28 169.91 137.6 171.07 137.9 172.21C137.98 172.49 138.06 172.78 138.13 173.06L138.58 174.71C138.66 174.98 138.73 175.25 138.8 175.52C139.46 177.91 140.08 180.06 140.6 181.78C140.66 181.97 140.71 182.15 140.77 182.33C140.9 182.77 141.03 183.18 141.15 183.55C141.27 183.92 141.3 183.99 141.37 184.19L141.49 184.54C141.61 184.87 141.72 185.15 141.8 185.35C141.852 185.472 141.916 185.59 141.99 185.7C142.008 185.731 142.032 185.758 142.06 185.78C142.06 185.78 142.12 185.78 142.14 185.78C142.175 185.744 142.217 185.716 142.264 185.699C142.31 185.682 142.36 185.675 142.41 185.68C142.489 185.667 142.571 185.667 142.65 185.68L142.92 185.77H142.97L143.23 185.9C143.38 185.97 143.54 186.07 143.71 186.17C144.11 186.42 144.56 186.74 145.02 187.09C145.183 187.201 145.34 187.321 145.49 187.45C146.68 188.37 147.89 189.45 148.63 190.11C148.691 190.158 148.748 190.212 148.8 190.27L149.32 190.74L145.21 193.27V195.27L145.46 195.82Z" fill="#69BE6A"/>
<path d="M36.5101 136.9L35.1901 139.67L25.8901 159.23L26.0001 175.6L26.1201 194.23C25.4357 193.825 24.7315 193.454 24.0101 193.12C23.6001 192.95 23.2801 192.85 23.2401 192.97C23.1201 193.27 23.1901 198.9 23.2401 200.9V201.09L21.4201 200L16.5601 197C16.5601 197 17.1201 188.84 17.5601 181.95C17.8601 177.31 18.1201 173.24 18.1201 172.61C18.1201 172.28 18.4301 170.35 18.9001 167.54C19.6301 163.3 20.7501 157.02 21.8201 151.12C21.9701 150.3 22.1101 149.49 22.2601 148.69C23.6101 141.27 24.7601 135 24.7601 135L28.1801 138.65L28.8501 139.37C31.1776 138.082 33.7365 137.266 36.3801 136.97L36.5101 136.9Z" fill="#DB9058"/>
<path d="M158 196L147 205.39L145.66 206.54L145.45 195.83V195.33V193.33L149.56 190.8L149.04 190.33C148.988 190.272 148.931 190.218 148.87 190.17C148.13 189.5 146.92 188.43 145.73 187.51C145.58 187.381 145.423 187.261 145.26 187.15C144.8 186.8 144.35 186.48 143.95 186.23C143.78 186.13 143.62 186.03 143.47 185.96L143.21 185.83H143.16L142.89 185.74C142.811 185.727 142.729 185.727 142.65 185.74C142.6 185.735 142.55 185.742 142.504 185.759C142.457 185.776 142.415 185.804 142.38 185.84C142.38 185.84 142.33 185.84 142.3 185.84C142.272 185.818 142.248 185.791 142.23 185.76C142.156 185.65 142.092 185.532 142.04 185.41C141.92 185.13 141.77 184.74 141.61 184.25C141.54 184.05 141.46 183.84 141.39 183.61C141.32 183.38 141.14 182.83 141.01 182.39C140.95 182.21 140.9 182.03 140.84 181.84C140.32 180.12 139.7 177.97 139.04 175.58C138.97 175.31 138.9 175.04 138.82 174.77L138.37 173.12C138.3 172.84 138.22 172.55 138.14 172.27C137.84 171.13 137.52 169.97 137.21 168.8C137.14 168.51 137.06 168.22 136.98 167.92L136.28 165.27C136.21 164.98 136.13 164.68 136.05 164.39C135.44 162.06 134.86 159.78 134.32 157.71C134.26 157.45 134.19 157.19 134.13 156.94C134 156.47 133.89 156.01 133.77 155.56C133.6 154.88 133.43 154.22 133.27 153.61C133.22 153.41 133.18 153.22 133.13 153.04C132.97 152.42 132.82 151.84 132.69 151.32C132.69 151.32 132.69 151.21 132.69 151.16C132.61 150.83 132.54 150.53 132.46 150.25C132.4 150.04 132.35 149.85 132.31 149.67L132.18 149.16C132.18 149.01 132.11 148.87 132.08 148.76C132.05 148.65 132.08 148.64 132.08 148.59V148.46C132.08 148.36 132.08 148.28 132.08 148.25L132.17 147.91L134.11 140.59L137.05 129.49L138.38 133.14L145.83 153.52L145.99 153.96L149.47 163.46L156.4 182.46L157.69 191.9L158 196Z" fill="#EFB180"/>
<path d="M107.51 109.74C107.51 109.74 108.96 111.82 110.76 114.86L71.6401 127.09L69.0801 126.09L79.0801 121.27L78.7901 99.83L94.9201 82.52L94.4501 98.85L114.14 104.35L115.73 104.43L107.51 109.74Z" fill="#C4854F"/>
<path d="M36.3199 137.3L35.1899 139.67L35.5699 138.09L36.39 136.95L36.4399 136.87C36.3941 136.8 36.3662 136.72 36.3587 136.636C36.3512 136.553 36.3644 136.469 36.397 136.392C36.4296 136.315 36.4807 136.247 36.5457 136.194C36.6108 136.142 36.6878 136.106 36.7699 136.09H36.8399H36.92H37.0699L36.45 136.96C36.45 136.96 36.45 136.96 36.45 137.03L36.2699 137.42L36.3199 137.3Z" fill="#EFB180"/>
<path d="M36.5801 160.26L37.0601 161.19V161.26L36.5301 166.26V166.37L34.2001 188.46L30.7101 204.79L28.1601 203.52L23.2301 201.07V200.88C23.2301 200.49 23.2301 199.96 23.2301 199.36C23.2301 197.45 23.2301 194.82 23.2301 193.61C23.2301 193.45 23.2301 193.32 23.2301 193.21C23.2301 193.1 23.2301 193.09 23.2301 193.04C23.228 193.01 23.228 192.98 23.2301 192.95C23.2301 192.83 23.5901 192.95 24.0001 193.1L24.2201 193.2L24.4501 193.31L24.6901 193.43C25.1701 193.67 25.6401 193.94 25.9001 194.09L26.0601 194.18H26.1101L26.0001 175.61L25.8901 159.27L35.1901 139.71L32.7001 150.16L32.0201 151.38C32.0399 151.425 32.0633 151.469 32.0901 151.51L36.5601 160.22C36.5601 160.22 36.5701 160.25 36.5801 160.26Z" fill="#EFB180"/>
<path d="M76.0601 50.8699L73.0201 46.3799L61.6201 41.8699H60.9501L60.7601 41.2199L55.8 30.9299L71.7701 38.5499L75.0701 44.0599L76.0601 50.8699Z" fill="#69BE6A"/>
<path d="M82.37 39.1599L77.08 47.4199L75.05 44.0299L71.75 38.5299L72.1 33.8999L75.86 32.3799L81.76 34.5699L82.37 39.1599Z" fill="#26342E"/>
<path d="M119.95 89.7301L114.14 104.34L92.3901 98.8401L94.9201 82.5101V82.5001L95.1401 79.1201L98.8101 72.6401L104.9 56.8501V67.8001L107.51 65.8001L112.67 50.8401L119.95 89.7301Z" fill="#3B2418"/>
<path d="M104.9 56.85L98.8099 72.64L95.1399 79.12L83.2699 87.34H78.1499V77.39L82.1099 76.81L86.2499 72.54L90.3699 67.8L86.2499 71.15L78.1499 72.54V65.8L82.3699 61.45L101.59 55.27L104.9 56.85Z" fill="#C4854F"/>
<path d="M90.38 67.8L86.25 72.54L82.11 76.81L78.15 77.39L73.84 76L70.72 71.15L76.47 74.1301L80.55 73.7L86.25 71.15L90.38 67.8Z" fill="#A86739"/>
<path d="M86.25 71.1499L80.55 73.6999L76.47 74.1299L70.72 71.1499L78.15 72.5399L86.25 71.1499Z" fill="#9D5C27"/>
<path d="M82.11 60.2001H78.47L79.72 54.5901L82.11 60.2001Z" fill="#3D6C45"/>
<path d="M82.3701 61.4501L78.1501 65.8001C78.1501 65.8001 74.6301 61.8001 74.1501 61.8001L64.8901 54.8901C66.8901 53.7501 73.0701 50.3501 73.4801 50.3501L61.5801 41.8301L73.0001 46.3601L76.0001 50.8401L75.0001 44.0301L77.0001 47.4201L77.7901 53.2801L77.6001 62.4601L82.3701 61.4501Z" fill="#3D6C45"/>
<path d="M60.6899 61.94L55.9999 69.3201L50.3599 73.16C50.3599 73.16 55.3599 63.16 54.9699 62.4C54.5799 61.64 53.4699 47.4 53.4699 46.48C53.4699 45.77 55.1299 39.07 55.7599 36.54C55.7599 40.23 55.7599 44.48 55.7599 45.17C56.3542 48.3478 57.1153 51.4922 58.0399 54.59C58.4399 56.05 58.7299 57.09 58.7299 57.09L60.6399 61.68L60.6899 61.94Z" fill="#6C532F"/>
<path d="M101.44 46.3601V49.5601L93.0601 55.2701L82.3701 50.6901C83.0101 50.6901 95.9501 41.8401 95.9501 41.8401L101.44 46.3601Z" fill="white" stroke="#221F1F" stroke-linejoin="round"/>
<path d="M73.4999 50.3599C73.0899 50.3599 66.9499 53.7599 64.9099 54.8999L64.2499 55.2699L57.1699 46.9999L60.2799 41.9999L60.7399 41.1799L73.4999 50.3599Z" fill="white" stroke="#221F1F" stroke-linejoin="round"/>
<path d="M79.3699 218.67L79.14 238L69.45 242.4C69.45 242.4 69.45 227.12 69.45 226.4C69.45 226.4 69.3399 226.4 69.2299 226.45L69.0699 226.52L68.8799 226.63C66.5399 227.98 57.8799 234.83 57.8799 234.83L57.5799 234.6L56.7 218.6V214.87H56.9099C57.9899 216.14 60.1499 218.61 60.5099 218.61L79.3699 218.67Z" fill="#26342E"/>
<path d="M128 266.57L116.39 354L102.31 355.39L77.1599 273.11C77.1599 273.11 87.8999 264.31 98.6699 255.65C100.94 253.81 103.22 251.99 105.38 250.26C105.07 257.96 103.43 292.44 103.43 292.44C103.43 292.44 116.13 320.6 116.49 320.04C116.85 319.48 127.61 268.18 128 266.57Z" fill="#26342E"/>
<path d="M47.3599 509.74L19.7599 511.32C19.7599 511.32 9.75991 512.53 8.96991 512.32L0.169922 510.15L0.929901 506.77L14.7999 507.47H15.2599L26.0699 508.16L39.9999 505L40.5399 504.89H40.5899H40.7599C41.1199 504.8 46.9999 503.23 47.1799 503.29C47.2799 506.86 47.3599 509.74 47.3599 509.74Z" fill="#26342E"/>
<path d="M25.9901 508.04L39.9701 505.02L26.1001 508.21L15.2901 507.52L14.83 507.5L14.8 507.48L15.0901 507.5L25.9901 508.04Z" fill="#181E4D"/>
<path d="M47.1599 503.24C46.9799 503.18 41.0999 504.75 40.7399 504.84L40.6899 504.72L40.6399 504.58C40.5699 504.34 40.4599 504.03 40.3199 503.66C40.1799 503.29 40.1399 503.12 40.0199 502.81C39.8999 502.5 39.7899 502.17 39.6399 501.81L39.4899 501.39C39.4299 501.23 39.3699 501.06 39.2999 500.89C39.0699 500.26 38.8199 499.59 38.5399 498.89C38.4699 498.67 38.3799 498.46 38.2999 498.23L37.3999 495.89L36.8899 494.56C36.4599 493.46 36.0399 492.36 35.6499 491.34C35.5032 490.973 35.3633 490.613 35.2299 490.26C34.8199 489.26 34.4599 488.26 34.1599 487.53C34.126 487.425 34.0859 487.321 34.0399 487.22L33.8999 486.84C33.8299 486.68 33.7799 486.54 33.7299 486.41L33.5899 486.07C33.4799 485.76 33.4099 485.6 33.4099 485.6L33.5399 484.82V485.82H45.9999C46.0999 485.81 46.9999 497 47.1599 503.24Z" fill="#26342E"/>
<path d="M39.5601 472H39.3301V471.5L39.5601 472Z" fill="#253B7D" stroke="#9AB8C6" stroke-miterlimit="10"/>
<path d="M40.5501 504.89H40.5001L40.0001 505L26.1301 508.19L15.3201 507.5H14.8601L6.3501 503.26L24.7601 493.83L27.2001 495.52L28.0801 496.12L28.7101 496.55L29.5401 497.13C33.7201 500.05 39.4401 504 40.5501 504.89Z" fill="#3D6B4D"/>
<path d="M14.8299 507.5L0.929932 506.78L6.28995 503.24H6.29993L14.8299 507.5Z" fill="#68BD64"/>
<path d="M136.55 500.64L119.35 494.84L118.8 485.45L118.87 485.81H131.19L136.55 500.64Z" fill="#26342E"/>
<path d="M140 508.94L121.92 508.6C121.92 508.6 119.44 501.04 119.44 500.72V495.09V494.84L136.64 500.64L140 508.94Z" fill="#3D6B4D"/>
<path d="M141.1 511.76L131 515.16H122L117.76 509.72L119.39 501.04V500.72C119.39 501.04 121.87 508.6 121.87 508.6L139.95 508.94L141.1 511.76Z" fill="#26342E"/>
<path d="M40.74 504.84H40.57H40.51L29.51 497.05L28.68 496.47L28.05 496.04L27.17 495.44L24.73 493.75L33.43 485.53C33.43 485.53 33.5 485.69 33.61 486L33.75 486.34C33.75 486.47 33.85 486.61 33.92 486.77L34.06 487.15C34.106 487.251 34.146 487.354 34.18 487.46L39.51 501.33L39.66 501.75L40.71 504.46C40.71 504.46 40.71 504.66 40.76 504.71C40.7444 504.752 40.7376 504.796 40.74 504.84V504.84Z" fill="#68BD64"/>
<path d="M55.1001 103.59L45.2001 113.29L41.9201 116.49C41.9201 116.49 41.7601 117.23 41.5101 118.43C40.4501 123.34 37.6901 135.93 37.1201 135.93C36.9301 135.93 34.9801 136.53 34.9801 136.53L28.8901 139.28L24.8101 134.91L23.3101 121.91L27.1301 128.6L37.2301 115.73L47.5701 107.42L42.7701 101.42L45.9101 100.54L55.1001 103.59Z" fill="#26342E"/>
<path d="M20.78 254.22C20.78 254.22 14.13 258.3 14.02 258.79C13.91 259.28 5.11001 251.32 4.07001 250.37C3.76001 256.56 5.81 279.78 5.81 279.78L7.54001 281.23L16.98 278.23L24.48 268.84L20.78 254.22ZM7.54001 277.61L6.92999 262L9.67001 275.49L7.54001 277.61Z" fill="#69BE6A"/>
<path d="M17.8099 198.11L15.6799 217.87L13.6799 202.82L13.9399 198.05C13.9358 198.003 13.9358 197.956 13.9399 197.91L16.5499 196.91L17.8099 198.11Z" fill="#69BE6A"/>
<path d="M15.7499 249.86L20.7499 254.22C20.7499 254.22 14.0999 258.3 13.9999 258.79C13.8999 259.28 5.08986 251.32 3.99986 250.37C3.99152 249.895 4.04531 249.421 4.15987 248.96C4.74987 248.05 13.4899 200.96 13.8699 198.05L13.6098 202.82L15.6098 217.87L13.9999 233.41L21.0899 243.59L10.3399 245.9L6.89986 249.9L15.7499 249.86Z" fill="#26342E"/>
<path d="M31.75 207.17L21.11 243.59L14.01 233.41L15.69 217.87L17.81 198.11L21.42 199.98L21.49 200.02L23.2 200.92L23.9 201.29L30.69 204.82L30.75 204.95L31.75 207.17Z" fill="#3D6B4D"/>
<path d="M20.2499 252.61L20.7699 254.23L15.7499 249.86H6.91992L10.3599 245.9L21.1099 243.59L20.2499 252.61Z" fill="#3D6B4D"/>
<path d="M26.34 287.19L13.26 288.16L7.53003 281.23L16.97 278.28L24.47 268.89L26.65 275.57L26.34 287.19Z" fill="#26342E"/>
<path d="M107.28 172.6C107.28 172.6 99.44 189.93 99.4 189.93L99.46 190.2C98.09 188.2 97.95 184.32 97.57 184.32C97.19 184.32 91.38 181.88 88.75 180.88V180.77C89.2 178.67 89.49 177.25 89.49 177.25L92.08 178.35L96.63 166.7L103.26 157.43L108.14 152.7L116.35 144.7C118.43 146.21 117.65 147.28 117.65 147.28L107.28 172.6Z" fill="#26342E"/>
<path d="M105.44 208.89L83.8501 218.67V213.77L56.6601 214.94V218.67L50.9301 210.57L48.5701 175.46L38.4901 163.31L37.0701 161.21L32.0701 151.39L32.7401 150.17L38.9801 158.96L41.05 160.43L46.4001 164.22L55.1601 177.51L56.7101 176.7L67.3901 191.94C68.7701 188.06 70.1434 184.18 71.5101 180.3L76.5101 190.9L88.8401 180.9C91.4701 181.9 97.2201 184.34 97.6601 184.34C98.1001 184.34 98.18 188.19 99.55 190.22C99.91 192.52 105.44 208.89 105.44 208.89Z" fill="#26342E"/>
<path d="M108.17 152.7L103.29 157.43L96.66 166.7L92.11 178.35L89.52 177.25L70.78 169.25L56.65 176.64L55.1 177.45L46.33 164.16L41 160.41L52.25 163.29L63.51 145.85L70.3 160.53L75.44 148.28C75.44 148.28 89.64 161.7 90 161.54C90.36 161.38 107.63 153 108.17 152.7Z" fill="#3D6B4D"/>
<path d="M89.5199 177.25C89.5199 177.25 89.2299 178.67 88.7799 180.77V180.84L78.4899 196C76.1499 191.333 73.8166 186.667 71.4899 182L66.3899 196.19C63.1433 189.677 59.8966 183.163 56.6499 176.65L70.7799 169.26L89.5199 177.25Z" fill="#6DB359"/>
<path d="M116.4 144.73L108.19 152.73C107.65 152.99 90.3699 161.41 90.0099 161.57C89.6499 161.73 75.45 148.31 75.45 148.31L89.8599 138.96C89.8599 138.96 102.49 134.59 103.11 135.07C103.53 135.38 111.59 141.24 116.4 144.73Z" fill="#69BE6A"/>
<path d="M48.6499 252.68L37.6499 240.92L44.7099 224.75C45.1499 225.06 45.7099 225.5 46.4599 226.04L48.6499 252.68Z" fill="#26342E"/>
<path d="M57.83 234.86C57.83 234.86 50.45 229 46.46 226C45.75 225.46 45.15 225 44.71 224.71L50.92 210.53L56.65 218.63L57.83 234.86Z" fill="#6DB359"/>
<path d="M69.4501 242.43L57.8301 234.86C59.6801 233.36 67.2701 227.55 69.0601 226.55L69.2201 226.48C69.3301 226.43 69.4001 226.41 69.4401 226.43C69.4801 226.45 69.4401 226.43 69.4401 226.43C69.4901 227.15 69.4501 242.43 69.4501 242.43Z" fill="#6DB359"/>
<path d="M110.45 224.28L106.51 225.63L83.8501 233.41V218.67L105.44 208.89L110.45 224.28Z" fill="#6DB359"/>
<path d="M116.4 354C116.4 354 111.4 374.59 111.17 375.47C110.94 376.35 102.31 355.39 102.31 355.39L116.4 354Z" fill="#B6C158"/>
<path d="M78.4499 304.8C78.7199 303.43 63.9899 356.22 63.9899 356.22L59.1699 362.63C59.1699 362.63 61.4499 353.15 61.7099 352.36C61.9699 351.57 76.0499 300.65 76.0499 300.65C76.0499 300.65 66.6799 297.21 68.3399 297.47C70.9248 297.604 73.515 297.604 76.0999 297.47L81.1699 295.94L97.7299 361.07C97.2599 359.44 78.1899 306.16 78.4499 304.8Z" fill="#26342E"/>
<path d="M124.45 352.92L128.05 266.59L116.4 354C116.4 354 111.4 374.59 111.17 375.47C110.94 376.35 102.32 355.39 102.32 355.39L81.2399 286.39L77.1599 273.06L77.4299 272.84L77.9099 272.45L79.0099 271.55L80.0099 270.76C82.6699 268.59 86.9499 265.1 91.7499 261.21L93.5799 259.73L98.6999 255.6L106.54 225.6L102.16 227.1L83.8799 233.38V235.87L79.1499 238L69.4599 242.4L57.9999 235L57.8399 234.88H57.7699L57.5499 234.71L56.8099 234.13L56.5699 233.94L56.2599 233.69L55.7199 233.27C54.4099 232.27 52.6399 230.86 50.8799 229.5L49.4899 228.42C48.3999 227.58 47.3599 226.78 46.4899 226.12L48.6799 252.76L50.6799 254.89L52.6099 256.95L69.4799 274.95L67.3299 286.28L53.2499 360.36L40.3099 352.36L34.3099 282.47L31.9199 330.29L34.5699 349.34L32.1999 375.74L34.5699 385.29L33.6199 472H39.3399V414.73C39.4099 414.27 40.8299 410.97 42.8299 406.44L43.5399 404.84C43.6599 404.57 43.7799 404.29 43.9099 404.01L45.0699 401.42C45.8599 399.64 46.6999 397.79 47.5499 395.91C47.8299 395.29 48.1199 394.67 48.3999 394.04C52.2199 385.6 56.0399 377.26 57.1499 374.87L57.2599 374.62L57.4099 374.29V374.18L61.8399 393.05L46.7499 472H50.5199L67.9999 390.19L59.1899 362.62C59.1899 362.62 61.4599 353.15 61.7199 352.36C61.7199 352.29 61.8899 351.77 62.1299 350.9C62.2199 350.61 62.3099 350.28 62.4099 349.9C62.6199 349.17 62.8599 348.29 63.1399 347.29L63.5799 345.7C63.8199 344.86 64.0699 343.96 64.3299 343.01C64.5899 342.06 64.8699 341.01 65.1599 340.01C65.5499 338.62 65.9599 337.16 66.3699 335.64C70.5699 320.53 76.0699 300.64 76.0699 300.64C75.8099 300.54 66.7299 297.2 68.3699 297.46C70.9548 297.595 73.545 297.595 76.1299 297.46L81.1999 295.93L97.7199 360.93V361.04L96.1599 385.37C96.1599 385.37 116.77 476.85 117.83 477.68C117.986 477.772 118.16 477.83 118.34 477.85C120.422 478.073 122.519 478.129 124.61 478.02V478.02H125.47L116.57 418C116.57 418 127.4 382 127.4 381.31C127.4 380.62 130.56 385.52 130.56 385.52L130.81 477.86C131.46 477.86 131.96 477.79 132.2 477.79L132.41 476.08C132.79 463.31 131.55 384.25 132.52 384C133.49 383.75 124.45 352.92 124.45 352.92ZM34.4999 370.85L37.9999 354C38.9999 354.43 48.7699 364.75 48.7699 364.75L34.4999 370.85Z" fill="#3D6B4D"/>
<path d="M120.11 239C119.01 239.52 112.78 244.39 105.38 250.29C103.22 252.02 100.94 253.84 98.6699 255.68L106.51 225.63L110.45 224.28L119.72 238L120.11 239Z" fill="#26342E"/>
<path d="M128.05 266.54C127.62 268.15 116.85 319.48 116.5 320.04C116.15 320.6 103.44 292.44 103.44 292.44C103.44 292.44 105.08 257.96 105.39 250.26C112.79 244.36 119.02 239.49 120.12 238.97L128.05 266.54Z" fill="#6DB359"/>
<path d="M150 218.66V248.9L146.39 255.63L142.96 249.77L130.74 262.77L131.16 270.28H135.9V282.07L146.98 284.84L155.16 277.3C155.16 277.3 157.76 246 158 244.91C158.21 244.07 159.32 218.1 161.06 205.15C160.89 205.37 156.33 211.64 150 218.66ZM147 280.19L148.81 273.13V261L152.17 275.5L147 280.19Z" fill="#3D6B4D"/>
<path d="M155.11 277.3L152.21 284.72L140.03 291.77L133.02 290.12L131.11 270.28H135.84V282.08L146.93 284.84L155.11 277.3Z" fill="#26342E"/>
<path d="M150 218.67V248.9L146.39 255.63L142.96 249.77L134.96 214.68C134.96 214.68 140.12 228.22 140.33 228.85C140.34 229.14 144.88 224.24 150 218.67Z" fill="#69BE6A"/>
<path d="M130.56 385.5L130.8 477.83C129.5 477.9 127.52 477.99 125.51 478.05L116.56 418C116.56 418 127.39 382 127.39 381.31C127.39 380.62 130.56 385.5 130.56 385.5Z" fill="#26342E"/>
<path d="M112.85 118.35L78.85 129.6L69.4 143.13L60.33 128.23L41.47 118.49C41.72 117.3 41.88 116.56 41.88 116.56L45.16 113.36C44.86 113.81 45.16 116.78 45.16 116.78L69.04 126.1L71.6 127.1L110.72 114.85L112.85 118.35Z" fill="#26342E"/>
<path d="M63.4999 145.85L52.2399 163.29L40.9899 160.41L38.92 158.94L32.6799 150.15L35.5599 138.1V138.09L38.8699 134.61L52.9799 135.23L63.4999 145.85Z" fill="#69BE6A"/>
<path d="M83.8499 218.67V233.41V235.9L79.1499 238.03L79.3799 218.67H60.4599C60.0999 218.67 57.9399 216.2 56.8599 214.93L83.8599 213.77V218.67H83.8499Z" fill="#6DB359"/>
<path d="M52.26 293.93C52.26 293.93 41.81 319.33 41.65 318.46C41.49 317.59 34.95 284.71 34.28 282.22V281.32L37 242.43L37.67 240.92L48.67 252.68L50.67 254.81L52.26 293.93Z" fill="#6DB359"/>
<path d="M69.45 274.88L53.22 360.29L40.22 352.29L34.22 282.41V282.23C34.89 284.72 41.42 317.64 41.59 318.47C41.76 319.3 52.2 293.94 52.2 293.94L50.59 254.82L69.45 274.88Z" fill="#26342E"/>
<path d="M48.78 364.78L34.49 370.85L38 354C39.05 354.46 48.78 364.78 48.78 364.78Z" fill="#B6C158"/>
<path d="M121.08 135L117.7 147.27C117.7 147.27 118.48 146.2 116.4 144.69C111.59 141.2 103.53 135.34 103.09 135C102.47 134.52 89.8401 138.89 89.8401 138.89L75.4301 148.23L70.2901 160.49L63.5101 145.82L53.0001 135.23L38.8901 134.61L35.5801 138.09L37.1101 135.96C37.6801 135.96 40.4401 123.37 41.5001 118.46L60.3601 128.21L69.4301 143.13L78.8801 129.58L112.88 118.32C117.29 125.74 120.64 135.27 121.08 135Z" fill="#6DB359"/>
<path d="M152.1 275.51L146.93 280.19L148.73 273.13V261.01L152.1 275.51Z" fill="#26342E"/>
<path d="M9.66992 275.51L7.52991 277.61L6.91992 262.03L9.66992 275.51Z" fill="#26342E"/>
<path d="M61.8801 393.05L46.7501 472H39.5601L39.3301 471.5V414.76C39.3301 413.61 57.4501 374.18 57.4501 374.18L61.8801 393.05Z" fill="#26342E"/>
<path d="M50.52 471.97L46.01 485.81H33.52L33.53 484.81L33.62 471.97H50.52Z" fill="#464C45"/>
<path d="M132.19 477.76L131.19 485.76H118.87L118.8 485.4L118.35 477.86C120.436 478.082 122.536 478.139 124.63 478.03C126.94 477.97 129.31 477.86 130.8 477.78C131.46 477.8 132 477.76 132.19 477.76Z" fill="#464C45"/>
<path d="M136.39 110.95L107.51 109.74L115.86 104.29L123.42 101.46L136.39 110.95Z" fill="#69BE6A"/>
<path d="M136.81 129.33V129.38L136.71 129.36L125.44 127.38L107.51 109.74L136.39 110.94L136.81 129.33Z" fill="#26342E"/>
<path d="M136.81 129.38L132.05 131.06L130.41 131.65C126.74 132.96 122.69 134.39 121.53 134.85L121.34 134.92L121.08 135.05C120.56 134.93 117.2 125.55 112.83 118.27L110.74 114.78C108.93 111.78 107.54 109.78 107.54 109.78L125.47 127.42L136.74 129.42L136.81 129.38Z" fill="#69BE6A"/>
<path d="M43.79 107.44L31.04 108.07L42.74 101.42L43.79 107.44Z" fill="#26342E"/>
<path d="M47.54 107.44L37.2 115.74L27.1 128.61L23.28 121.92L31.04 108.07L43.79 107.44L42.74 101.42L47.54 107.44Z" fill="#69BE6A"/>
<path d="M81.7599 34.5701L97.5699 26.0601L75.8599 32.3801L81.7599 34.5701Z" fill="#3D6C45"/>
<path d="M79.3701 64.54L101.59 55.27L104.54 58.22L104.9 56.85L101.59 55.27L82.3701 61.45L79.3701 64.54Z" fill="#BB7644"/>
<path d="M77.0801 64.61L60.8901 57.76L74.1701 61.81L77.0801 64.61Z" fill="#9A5124"/>
<path d="M95.14 79.1201L85.1899 87.9601L83.2599 88.9001L79.45 88.0301L77.9399 87.5501L83.2699 87.3401L95.14 79.1201Z" fill="#9A5124"/>
<path d="M68.6599 79.94L77.9399 87.55L68.6599 78.79V79.94Z" fill="#9A5124"/>
<path d="M68.6599 78.79C68.6599 78.96 78.1499 87.34 78.1499 87.34H83.2699L83.0999 88.04L77.9399 87.55C77.9399 87.55 70.2399 80.8101 70.1899 80.8201C70.1399 80.8301 68.6599 78.79 68.6599 78.79Z" fill="#9A5124"/>
<path d="M75.86 32.3799C75.86 32.3799 70.8 23.8099 70.72 23.0499C70.64 22.2899 80.29 4.8999 80.29 4.8999C80.29 4.8999 75.29 20.5899 75.51 20.7799C75.73 20.9699 81.13 30.3099 81.13 30.3099L75.86 32.3799Z" fill="#3B2418"/>
<path d="M101.58 7.54998C100.95 7.35998 95.1401 9.76998 95.1401 9.76998C95.1401 9.76998 88.7101 26.29 88.9901 26.06C89.2701 25.83 96.3301 11.29 96.3301 11.29L101.58 7.54998Z" fill="#3B2418"/>
<path d="M46.73 24.9601L62.82 16.2L71.75 18.64L61.74 6.04004L46.73 24.9601Z" fill="#3B2418"/>
<path d="M98.6701 368.28C99.1901 369.2 113.58 407.16 113.58 407.16L97.3501 386L98.6701 368.28Z" fill="#B6C158"/>
<path d="M48.7901 370.85L36.0601 375.53L39.33 414.76L57.4501 374.18L48.7901 370.85Z" fill="#B6C158"/>
<path d="M58.0001 234.97L52.5801 256.87L69.4501 274.88L67.3001 286.21L74.5801 288.16L81.2301 286.46L77.1601 273.13L93.5501 259.81L102.31 226.42L83.8501 233.41L83.8401 235.9L69.4501 242.43L58.0001 234.97Z" fill="#69BE6A"/>
<path d="M145.75 153.85C141.41 152.32 135.45 150.26 132.07 149.09L129.46 148.18L130.03 147.18L133.87 140.47L138.14 133.02L145.59 153.4L145.75 153.85Z" fill="#3D6B4D"/>
<path d="M121.08 135.05L121.37 134.92L121.08 135.05Z" fill="#612852"/>
<path d="M138.14 133L133.87 140.45L130.03 147.15L129.46 148.15L118.37 148.43V148.36L117.76 147.29V147.22L117.86 146.84L119.07 142.41L121.07 135.01C121.78 134.64 136.8 129.35 136.8 129.35L138.14 133Z" fill="#26342E"/>
<path d="M157.45 191.76L143.84 185.83L143.92 185.5L144.34 183.73L149.23 163.35L156.16 182.35L157.45 191.76Z" fill="#6DB359"/>
<path d="M147.05 205.35C147.14 205.97 147.2 206.35 147.2 206.56C147.2 207.94 137.38 214.96 137.38 214.96L138.02 198.54V198.4L138.43 187.83L138.2 187.58V187.27L136.95 183.27L135.25 177.83L118.35 148.47V148.4C121.14 148.12 129.28 147.3 130 147.2C130.648 147.36 131.283 147.567 131.9 147.82C134.99 148.99 141.08 151.53 145.56 153.42L145.72 153.86L149.2 163.36L144.31 183.74L143.89 185.51L143.81 185.84L143.88 186.27L143.95 186.67C144.22 188.22 144.81 191.67 145.42 195.33C146.1 199.24 146.77 203.33 147.05 205.35Z" fill="#69BE6A"/>
<path d="M147.05 205.35C147.14 205.97 147.2 206.35 147.2 206.56L147.01 205.38L145.46 195.82L144 186.66L143.93 186.26L143.86 185.83L157.47 191.76L158 196L147.05 205.35Z" fill="#3D6B4D"/>
<path d="M149.13 183.29L143.92 185.5L143.12 185.84L138.44 187.84L138.21 187.59V187.28L136.96 183.28C138.33 183.4 139.96 183.5 141.31 183.58L144.31 183.75L149.13 183.29Z" fill="#252C1A"/>
<path d="M32.6901 150.15L32.0101 151.37C32.0299 151.415 32.0533 151.459 32.08 151.5C32.52 152.31 34.87 156.68 36.55 160.21C36.55 160.21 36.55 160.21 36.55 160.26L37.0201 161.26L36.4901 166.26V166.37C33.7801 168.77 28.6901 173.21 26.6301 174.99L25.9701 175.57C25.9096 175.616 25.8528 175.666 25.8 175.72L25.7401 175.77L21.8201 151.02C21.9701 150.2 22.1101 149.39 22.2601 148.59L28.1801 138.59L28.2301 138.51L34.9001 136.57L35.2101 136.48L36.7501 136.04H36.8201H36.9001H37.05L36.4401 136.89L36.3701 136.99L35.5401 138.14L35.1601 139.73L32.6901 150.15Z" fill="#3D6B4D"/>
<path d="M21.8401 151.06L25.7601 175.81L17.5801 181.89C17.8801 177.25 18.1401 173.18 18.1401 172.55C18.1401 172.22 18.4501 170.29 18.9201 167.48C19.6501 163.24 20.7701 157 21.8401 151.06Z" fill="#69BE6A"/>
<path d="M28.25 138.51L28.2 138.59L22.28 148.59C23.63 141.17 24.78 134.9 24.78 134.9L28.25 138.51Z" fill="#69BE6A"/>
<path d="M36.52 166.29V166.4L34.19 188.49L30.7 204.82L30.76 204.95L28.15 203.55L23.92 201.29L23.22 200.91L24.01 193.13L25.77 175.81L25.83 175.76C25.8827 175.706 25.9395 175.656 26 175.61V175.61L26.66 175.03C28.7 173.19 33.81 168.65 36.52 166.29Z" fill="#69BE6A"/>
<path d="M25.7601 175.81L24.0001 193.13L23.2101 200.91L17.7401 198.11L16.5601 196.94C16.5601 196.94 17.1201 188.78 17.5601 181.89C17.8601 177.25 18.1201 173.18 18.1201 172.55C18.1201 172.22 18.4301 170.29 18.9001 167.48C21.3301 170.51 25.7601 175.81 25.7601 175.81Z" fill="#26342E"/>
<path d="M161.19 198.91C161.458 200.984 161.425 203.086 161.09 205.15C160.89 205.37 156.33 211.64 149.96 218.67C144.89 224.24 140.35 229.14 140.26 228.85C140.05 228.22 134.89 214.68 134.89 214.68L137 213.85L145.67 206.54L158 196C158 196 157.75 195.65 158.54 194.83C159.33 194.01 161.19 198.91 161.19 198.91Z" fill="#26342E"/>
</svg>
