<svg width="169" height="517" viewBox="0 0 169 517" fill="none" xmlns="http://www.w3.org/2000/svg">
<path d="M126.63 99L115.63 105.66L114.05 105.58L119.84 91L112.56 52.1199L107.4 67.1199L104.79 69.1199V58.1199L101.33 43.58L98.7801 32.91L97.4601 27.33L75.7501 33.6499L59.6501 26.2299L55.6501 32.1799C55.6501 32.1799 55.6501 34.81 55.6501 37.82C55.0201 40.35 53.3701 47.0499 53.3701 47.7599C53.3701 48.6499 54.5001 62.93 54.8701 63.67C55.2401 64.41 50.2601 74.4299 50.2601 74.4299L55.8901 70.6L60.5601 63.22L62.1801 73.33L67.9501 80.63V100.8L55.6401 105.1L54.9601 104.86L43.8701 101.09L40.55 63.09L46.55 26.2299L61.55 5.57996L80.0001 0.579956L103.49 7.57996L117.92 33.58L120.85 54.7299L117.43 57.78L125.5 86.57L126.63 99Z" fill="#FADD2F"/>
<path d="M53.3199 46.92L46.6699 61.19L45.5799 58.05L43.6699 65.89L50.9199 103.49C50.9199 103.49 60.1299 96.3801 60.7699 95.4901C61.4099 94.6001 59.1199 70.8201 59.1199 70.8201L56.4599 55.05L53.3199 46.92Z" fill="#96702C"/>
<path d="M52.9999 72.59L53.9999 80.65L52.1999 85.16L50.8999 103.49C50.8999 103.49 62.1299 110.64 62.4299 110.49C62.7299 110.34 70.4299 107.28 70.5899 106.88C70.7499 106.48 74.5899 96.15 74.4699 94.54C74.3499 92.93 74.5999 78.96 74.0299 78.63C73.4599 78.3 67.2499 72.27 66.8399 71.97C66.4299 71.67 62.7299 63.05 62.7299 63.05L59.2699 61L52.9999 72.59Z" fill="#96702C"/>
<path d="M95 80.41L94.78 83.79L78.68 101.1L78.97 122.54L68.97 127.36L45.08 118C45.08 118 44.76 115 45.08 114.57L54.98 104.87L55.66 105.11L67.97 100.81V80.64L62.2 73.34L60.58 63.23V62.96L58.67 58.38L57.97 55.87L60.8 59.05C60.8 59.05 73.62 63.05 74.08 63.05C74.54 63.05 78.08 67.05 78.08 67.05V73.79L70.66 72.4L73.77 77.26L78.08 78.65V88.59H83.21L95 80.41Z" fill="#DB9058"/>
<path d="M75.7499 33.66L71.9799 35.18L71.6299 39.81L55.6599 32.19L59.6499 26.24L75.7499 33.66Z" fill="#B6C158"/>
<path d="M98.78 32.92L83.61 39.82L82.26 40.44L81.64 35.85L75.75 33.66L97.45 27.34L98.78 32.92Z" fill="#B6C158"/>
<path d="M101.33 43.59L95.0001 40.44C95.0001 40.44 81.4301 49.19 81.0001 49.51C80.5701 49.83 83.5601 39.8201 83.5601 39.8201L98.7301 32.92L101.33 43.59Z" fill="#69BE6A"/>
<path d="M101.33 43.5901L95 40.4401C95 40.4401 81.43 49.1901 81 49.5101C80.57 49.8301 83.56 39.8201 83.56 39.8201L82.21 40.4401L77 48.7001L77.79 54.5601L77.6 63.7501L82.3 62.7501L101.52 56.5701L104.83 58.1501L101.33 43.5901ZM78.33 61.4801L79.58 55.8701L81.97 61.4801H78.33ZM101.33 50.8501L92.95 56.5501L82.26 52.0001C82.89 52.0001 95.83 43.1501 95.83 43.1501L101.33 47.6701V50.8501Z" fill="#26342E"/>
<path d="M74.08 63.1199C73.61 63.1199 60.8 59.07 60.8 59.07L58 55.8999C57.0754 52.8021 56.3143 49.6577 55.72 46.4799C55.72 45.7899 55.72 41.53 55.72 37.85C55.72 34.85 55.72 32.21 55.72 32.21L60.72 42.5L60.9 43.1499L61.08 43.74L57.15 48.34L64.23 56.57L64.89 56.21L74.08 63.1199Z" fill="#26342E"/>
<path d="M149.2 194.64L149.45 207.71V207.82L148.32 208.82L139.85 216L139.76 216.07H139.7L139.63 216.14L142 188.82V188.56L139.7 185.39L135.14 179.1L121.5 151.9L120.37 149.64L119.84 148.59L121.34 143.14L123.16 136.55L123.22 136.33C123.89 135.98 138.68 129.65 140.51 128.87H140.59H140.68L134.77 142.48V142.55V142.61L131.77 149.4V149.5C131.79 149.565 131.813 149.628 131.84 149.69C131.854 149.738 131.871 149.784 131.89 149.83C131.96 150.04 132.07 150.36 132.22 150.77L132.34 151.11C132.39 151.24 132.43 151.37 132.48 151.52L134.61 157.52C134.78 158.01 134.96 158.52 135.15 159.03C135.34 159.54 135.44 159.83 135.59 160.25L136.02 161.45L136.32 162.28L137.24 164.82C137.4 165.27 137.56 165.72 137.73 166.17C137.82 166.4 137.9 166.63 137.98 166.85L140.14 172.74C140.34 173.26 140.53 173.74 140.72 174.28L141.09 175.28C141.2 175.56 141.3 175.83 141.4 176.1C143 180.33 144.4 183.94 145.29 185.81L145.49 186.23C145.611 186.48 145.744 186.724 145.89 186.96L145.98 187.09C145.98 187.09 146.05 187.16 146.08 187.16H146.13L146.32 187.08C146.489 187.071 146.658 187.106 146.81 187.18C147.563 187.516 148.269 187.95 148.91 188.47L149.5 188.92L150.09 189.39L150.68 189.88C150.87 190.03 151.05 190.19 151.23 190.35L151.75 190.8C151.788 190.825 151.822 190.855 151.85 190.89V190.89C152.69 191.63 153.28 192.18 153.28 192.18L149.2 194.64Z" fill="#DB9058"/>
<path d="M25.25 180.81L25.99 195.52C25.99 195.52 25.61 195.3 25.12 195.04L24.81 194.87C24.53 194.72 24.24 194.58 23.98 194.47L23.79 194.39C23.6851 194.337 23.5743 194.297 23.46 194.27C23.26 194.2 23.13 194.2 23.1 194.27C23.07 194.34 23.04 195.78 23.04 197.39C23.04 199.24 23.04 201.39 23.04 202.39L22.38 202.02L15.48 198.19C15.48 198.19 15.77 191.13 16.03 184.6C16.1 182.6 16.18 180.72 16.24 179.07L17.52 167.45L17.44 167.34C17.52 166.83 17.62 166.34 17.71 165.74C19.65 154.55 23.05 135.85 23.05 135.85L27.14 140.22L28.14 139.9L29.07 139.6L31.74 138.75C32.81 138.41 33.89 138.08 34.8 137.81L24.2 160.16L24.79 171.84V171.91L25.04 176.68L25.1 177.89L25.24 180.74L25.25 180.81Z" fill="#DB9058"/>
<path d="M161.8 197.25L151.89 205.74C151.79 205.82 151.69 205.91 151.59 205.98L149.45 207.82V207.71L149.2 194.64L153.31 192.11C153.31 192.11 152.72 191.56 151.88 190.82C151.69 190.64 151.48 190.46 151.26 190.28C151.04 190.1 150.9 189.96 150.71 189.81L150.12 189.32L149.53 188.85L148.94 188.4C148.299 187.88 147.593 187.446 146.84 187.11C146.767 187.073 146.69 187.046 146.61 187.03H146.43H146.34C146.304 187.028 146.269 187.035 146.236 187.049C146.203 187.062 146.174 187.083 146.15 187.11V187.11H146.1C146.062 187.095 146.027 187.071 146 187.04L145.87 186.85L145.7 186.56L145.64 186.45L145.48 186.14L145.28 185.72C145.03 185.17 144.72 184.46 144.37 183.63L144.09 182.94L143.91 182.49C143.82 182.29 143.74 182.08 143.66 181.87L143.36 181.11L142.86 179.85L142.27 178.32C142.077 177.827 141.887 177.327 141.7 176.82C140.52 173.7 139.22 170.2 137.97 166.76C137.89 166.54 137.81 166.31 137.72 166.08C137.55 165.63 137.39 165.18 137.23 164.73L136.31 162.19C136.06 161.5 135.81 160.82 135.58 160.19L135.14 158.98L134.44 156.98L134 155.75L133.59 154.61C133.47 154.24 133.34 153.89 133.22 153.56C133.1 153.23 133 152.95 132.9 152.66C132.63 151.88 132.39 151.23 132.21 150.66L132.09 150.32C132.09 150.22 132.02 150.13 131.99 150.04L131.88 149.72C131.861 149.674 131.844 149.628 131.83 149.58L131.77 149.42V149.32L134.72 142.55V142.49V142.42L140.54 129.02V128.94L140.59 128.83V128.9L140.72 128.83L141.09 130.27L151 157.19V157.27L151.82 159.54L160 182.13L161.53 195L161.8 197.25Z" fill="#EFB180"/>
<path d="M107.4 111C107.4 111 108.65 113.14 110.46 116.17L71.52 128.35L68.96 127.35L78.96 122.53L78.67 101.09L94.79 83.78L94.33 100.11L114.02 105.61L115.6 105.69L107.4 111Z" fill="#EFB180"/>
<path d="M37.8201 167L37.7001 167.73L34.0601 189.73L32.8801 207.78L24.8801 203.34L23.1001 202.34C23.1001 201.34 23.1001 199.23 23.1001 197.34C23.1001 195.74 23.1001 194.34 23.1601 194.23C23.2201 194.12 23.3201 194.16 23.5201 194.23C23.6344 194.257 23.7452 194.297 23.8501 194.35L24.0401 194.43C24.1701 194.43 24.3101 194.55 24.4501 194.62C24.5901 194.69 24.9501 194.87 25.1801 195L25.5201 195.18L25.8201 195.35L25.9601 195.43H26.0501L25.3101 180.72L25.1701 177.88L25.1101 176.67L25.0001 174.59V174.3L24.8001 172V171.86L24.2101 160.18L34.8401 137.82C35.5399 137.588 36.2549 137.404 36.9801 137.27L35.4501 139.39L31.4501 151.44L30.7801 152.67L37.7801 167H37.8201Z" fill="#EFB180"/>
<path d="M75.9399 52.1499L72.8999 47.66L61.5099 43.1499H60.8299L60.6499 42.5L55.6899 32.21L71.6599 39.83L74.95 45.34L75.9399 52.1499Z" fill="#69BE6A"/>
<path d="M82.2599 40.44L76.9599 48.7L74.9299 45.32L71.6299 39.81L71.9799 35.18L75.7499 33.66L81.6399 35.85L82.2599 40.44Z" fill="#26342E"/>
<path d="M119.84 91.01L114.02 105.62L94.3401 100.12L94.8001 83.79V83.78L95.0201 80.41L99.7701 73.92L104.79 58.13V69.08L107.4 67.08L112.56 52.13L119.84 91.01Z" fill="#96702C"/>
<path d="M104.79 58.1301L99.77 73.92L95.02 80.41L83.15 88.62H78.03V78.68L81.99 78.1001L86.13 73.8201L90.26 69.08L86.13 72.43L78.03 73.8201V67.08L82.26 62.73L101.48 56.55L104.79 58.1301Z" fill="#EFB180"/>
<path d="M90.2599 69.08L86.1299 73.82L81.9999 78.1L78.0399 78.6799L73.7199 77.2899L70.6099 72.4299L76.3599 75.41L80.4299 74.99L86.1299 72.4299L90.2599 69.08Z" fill="#A86739"/>
<path d="M86.1299 72.4299L80.4299 74.9899L76.3599 75.4099L70.6099 72.4299L78.0399 73.8199L86.1299 72.4299Z" fill="#9D5C27"/>
<path d="M81.9901 61.48H78.3501L79.6101 55.87L81.9901 61.48Z" fill="#3D6C45"/>
<path d="M82.2599 62.73L77.9999 67.08C77.9999 67.08 74.4799 63.08 73.9999 63.08L64.7499 56.16C66.7499 55.03 72.9299 51.62 73.3399 51.62L61.4299 43.1L72.8299 47.62L75.8299 52.11L74.8299 45.3L76.8299 48.68L77.6199 54.54L77.4299 63.73L82.2599 62.73Z" fill="#3D6C45"/>
<path d="M60.58 63.2299L55.91 70.61L50.28 74.44C50.28 74.44 55.28 64.4399 54.89 63.6799C54.5 62.9199 53.39 48.68 53.39 47.77C53.39 47.06 55.04 40.36 55.67 37.83C55.67 41.51 55.67 45.76 55.67 46.46C56.2708 49.6331 57.0318 52.7738 57.95 55.8699L58.65 58.38L60.56 62.96L60.58 63.2299Z" fill="#EFBB53"/>
<path d="M101.33 47.64V50.85L92.95 56.55L82.26 52C82.89 52 95.83 43.15 95.83 43.15L101.33 47.64Z" fill="white" stroke="#221F1F" stroke-linejoin="round"/>
<path d="M73.3901 51.64C72.9801 51.64 66.83 55.05 64.8 56.18L64.1401 56.55L57.0601 48.31L60.1601 43.31L60.6201 42.5L73.3901 51.64Z" fill="white" stroke="#221F1F" stroke-linejoin="round"/>
<path d="M79.26 220L79 239.31L69.31 243.71C69.31 243.71 69.31 228.44 69.31 227.71C69.2333 227.703 69.1564 227.721 69.09 227.76L68.94 227.84L68.75 227.95C66.41 229.3 57.7 236.15 57.7 236.15L57.41 235.91L56.52 219.91V216.18H56.73C57.82 217.45 59.97 219.92 60.34 219.92L79.26 220Z" fill="#26342E"/>
<path d="M130.67 267.86L116.28 355.31L102.2 356.71L77 274.42C77 274.42 87.75 265.62 98.51 256.96C100.78 255.13 103.06 253.3 105.23 251.57C104.92 259.28 103.28 293.75 103.28 293.75C103.28 293.75 115.98 321.91 116.34 321.35C116.7 320.79 130.24 269.47 130.67 267.86Z" fill="#26342E"/>
<path d="M47.2401 511L19.6501 512.57C19.6501 512.57 9.65007 513.78 8.85007 513.57C8.05007 513.36 0.0500488 511.4 0.0500488 511.4L0.820068 508.01L14.6801 508.71H15.1301L25.9401 509.4L39.8101 506.22L40.3501 506.1H40.4101C40.463 506.091 40.5171 506.091 40.5701 506.1V506.1C40.9301 506 46.8001 504.44 46.9801 504.49C47.1601 508.15 47.2401 511 47.2401 511Z" fill="#26342E"/>
<path d="M25.8799 509.33L39.8599 506.31L25.9799 509.49L15.17 508.8L14.7199 508.78H14.7099L14.6799 508.76L14.9799 508.78L25.8799 509.33Z" fill="#181E4D"/>
<path d="M47.0001 504.52C46.8201 504.52 40.9501 506.03 40.5901 506.13L40.5401 506.01V505.87L40.2201 504.95C40.1301 504.7 40.0301 504.42 39.9101 504.11C39.7901 503.8 39.6801 503.46 39.5401 503.11L39.3801 502.7C39.329 502.527 39.2689 502.357 39.2001 502.19L38.4401 500.19L38.1901 499.53L37.2901 497.19C37.1201 496.75 36.9601 496.3 36.7901 495.86C36.3601 494.76 35.94 493.67 35.55 492.64L35.1201 491.57C34.7201 490.57 34.36 489.57 34.05 488.84C34.0194 488.735 33.9827 488.631 33.9401 488.53L33.7901 488.14C33.7301 487.99 33.6701 487.84 33.6301 487.71L33.4901 487.37C33.3801 487.07 33.3101 486.9 33.3101 486.9L33.4401 486.12V487.12H45.9201C46.0001 487.09 46.8601 498.3 47.0001 504.52Z" fill="#26342E"/>
<path d="M39.45 473.25H39.21V472.75L39.45 473.25Z" fill="#253B7D" stroke="#9BB7C7" stroke-miterlimit="10"/>
<path d="M40.43 506.17L39.89 506.3L26 509.49L15.19 508.8H14.74L6.23999 504.56L24.65 495.14L27.09 496.82L27.96 497.42L28.59 497.86L29.42 498.44C33.61 501.34 39.32 505.31 40.43 506.17Z" fill="#3D6B4D"/>
<path d="M14.7101 508.78L0.820068 508.06L6.17007 504.52H6.18005L14.7101 508.78Z" fill="#69BE6A"/>
<path d="M136.44 501.92L119.24 496.13L118.69 486.73L118.75 487.09H131.07L136.44 501.92Z" fill="#26342E"/>
<path d="M139.83 510.22L121.76 509.88C121.76 509.88 119.28 502.33 119.28 502.01V496.38V496.13L136.48 501.92L139.83 510.22Z" fill="#3D6B4D"/>
<path d="M141 513L130.88 516.4H121.88L117.64 511L119.28 502.33V502C119.28 502.32 121.76 509.87 121.76 509.87L139.83 510.21L141 513Z" fill="#26342E"/>
<path d="M40.6301 506.13C40.5772 506.121 40.5231 506.121 40.4701 506.13H40.4101L29.4101 498.35L28.5801 497.77L27.9501 497.33L27.0801 496.73L24.6401 495.05L33.3401 486.82C33.3401 486.82 33.4101 486.99 33.5201 487.29L33.6601 487.63C33.6601 487.76 33.7601 487.91 33.8201 488.06L33.9701 488.45C34.0128 488.551 34.0495 488.655 34.0801 488.76L39.4101 502.63L39.5701 503.04L40.5701 505.75C40.5916 505.832 40.6083 505.916 40.6201 506C40.6201 506 40.6201 506.09 40.6301 506.13Z" fill="#69BE6A"/>
<path d="M55 104.87L45.1 114.57L41.81 117.78C41.81 117.78 41.66 118.52 41.4 119.71C40.35 124.63 37.59 137.22 37.02 137.22C36.2912 137.352 35.5727 137.536 34.87 137.77C31.98 138.63 27.23 140.18 27.23 140.18L23.15 135.81L19.22 121.7L25.47 129.48L37.09 117L47.42 108.69L40 99.77L43.93 101.1L55 104.87Z" fill="#26342E"/>
<path d="M20.66 255.51C20.66 255.51 14.01 259.59 13.9 260.07C13.79 260.55 4.99003 252.61 3.95003 251.65C3.64003 257.84 4.11 281.92 4.11 281.92L5.84001 283.36L16.84 279.57L25.41 270.22L20.66 255.51ZM5.84001 279.74L6.84001 263.31L9.58 276.79L5.84001 279.74Z" fill="#69BE6A"/>
<path d="M17.7 199.39L15.57 219.15L13.57 204.15L11 199.53C11 199.44 11 199.39 11 199.39L15.47 198.19L17.7 199.39Z" fill="#69BE6A"/>
<path d="M15.6301 251.14L20.6301 255.51C20.6301 255.51 13.9801 259.59 13.8701 260.07C13.7601 260.55 4.96013 252.61 3.92013 251.65C3.90616 251.175 3.96001 250.7 4.0801 250.24C4.6601 249.33 10.6401 202.47 11.0101 199.53L13.5301 204.11L15.5301 219.11L13.8601 234.65L21.0001 244.88L10.2501 247.18L6.82012 251.18L15.6301 251.14Z" fill="#26342E"/>
<path d="M33.9299 210.18L20.9899 244.88L13.8999 234.69L17.6999 199.39L32.8799 207.82L33.9299 210.18Z" fill="#3D6B4D"/>
<path d="M20.1301 253.89L20.6601 255.51L15.6301 251.14H6.81006L10.2401 247.19L20.9901 244.88L20.1301 253.89Z" fill="#3D6B4D"/>
<path d="M27.9001 289.44H13.1401L5.84009 283.36L16.8601 279.57L25.4301 270.22L27.6101 276.9L27.9001 289.44Z" fill="#26342E"/>
<path d="M107.16 173.88C107.16 173.88 101.82 191.21 101.78 191.21C101.806 191.298 101.826 191.389 101.84 191.48C100.47 189.48 97.84 185.61 97.45 185.61C97.06 185.61 91.27 183.17 88.64 182.16C88.6353 182.123 88.6353 182.087 88.64 182.05C89.09 179.95 89.38 178.53 89.38 178.53L91.97 179.63L96.55 168L103.18 158.72L108.05 153.99L116.26 145.99L119.82 148.56L107.16 173.88Z" fill="#26342E"/>
<path d="M108.05 154L103.18 158.73L96.5499 168L91.9999 179.63L89.4099 178.53L70.6699 170.58L56.5299 178L54.9799 178.81L46.2199 165.52L40.8799 161.73L52.1299 164.62L63.3899 147.18L70.1699 161.85L75.3199 149.6C75.3199 149.6 89.5199 163.02 89.8699 162.87C90.2199 162.72 107.52 154.25 108.05 154Z" fill="#3D6B4D"/>
<path d="M89.4 178.53C89.4 178.53 89.11 179.95 88.66 182.05C88.6553 182.087 88.6553 182.123 88.66 182.16C87.36 188.16 84.76 199.57 83.74 199.39C82.37 199.15 69.36 193.69 69.36 193.69L57.94 199.39L56.53 178L70.66 170.62L89.4 178.53Z" fill="#6DB359"/>
<path d="M116.28 146L108.07 154C107.54 154.27 90.2601 162.68 89.9001 162.85C89.5401 163.02 75.3301 149.58 75.3301 149.58L89.7401 140.23C89.7401 140.23 102.37 135.86 103 136.35C103.41 136.66 111.47 142.52 116.28 146Z" fill="#69BE6A"/>
<path d="M48.54 254L37.54 242.25L44.6 226C45.03 226.3 45.6 226.74 46.35 227.28L48.54 254Z" fill="#26342E"/>
<path d="M57.7101 236.15C57.7101 236.15 50.3301 230.33 46.3501 227.32C45.6401 226.78 45.0301 226.32 44.6001 226.04L50.8001 211.85L56.5301 219.95L57.7101 236.15Z" fill="#6DB359"/>
<path d="M69.34 243.71L57.71 236.15C59.57 234.65 67.15 228.84 68.95 227.84L69.1 227.76C69.1663 227.721 69.2432 227.703 69.32 227.71V227.71C69.38 228.44 69.34 243.71 69.34 243.71Z" fill="#6DB359"/>
<path d="M110.33 225.57L106.39 226.92L83.73 234.69V219.95L105.32 210.18L110.33 225.57Z" fill="#6DB359"/>
<path d="M116.28 355.31C116.28 355.31 111.28 375.91 111.05 376.79C110.82 377.67 102.2 356.71 102.2 356.71L116.28 355.31Z" fill="#B6C158"/>
<path d="M78.34 306.08C78.6 304.71 63.87 357.5 63.87 357.5L57.54 363.55C57.54 363.55 61.33 354.44 61.54 353.64C61.75 352.84 75.88 301.93 75.88 301.93C75.88 301.93 66.51 298.49 68.18 298.75C70.7648 298.89 73.3553 298.89 75.94 298.75L81.01 297.22L93.38 361.55C93 359.91 78.08 307.44 78.34 306.08Z" fill="#26342E"/>
<path d="M124.33 354.2L130.68 267.82L116.29 355.27C116.29 355.27 111.29 375.87 111.06 376.75C110.83 377.63 102.21 356.67 102.21 356.67L77 274.42C77 274.42 87.75 265.62 98.51 256.96L106.35 226.96L83.69 234.73V237.22L79 239.31L69.31 243.71L57.85 236.25L57.39 235.91C55.97 234.8 49.83 229.97 46.32 227.32L48.54 254L50.54 256.13L69.35 276.21L53.1 361.58L40.16 353.58L32 283.68L30.59 331.34L34.48 350.54L30.29 377.05L34.48 386.49L33.55 473.25H39.27V416C39.27 414.86 57.39 375.42 57.39 375.42L65.77 394.29L46.68 473.21H50.45L71.87 391.44L57.59 363.51C57.59 363.51 61.38 354.4 61.59 353.6C61.8 352.8 75.94 301.89 75.94 301.89C75.94 301.89 66.57 298.45 68.23 298.71C70.8148 298.85 73.4052 298.85 75.99 298.71L81.06 297.18L93.43 361.51V386.68C93.43 386.68 116.67 478.2 117.73 479C117.883 479.091 118.053 479.149 118.23 479.17C120.316 479.388 122.416 479.441 124.51 479.33H125.4L116.45 419.25C116.45 419.25 127.28 383.25 127.28 382.56C127.28 381.87 132.52 385.98 132.52 385.98L130.69 479.1L132.07 479.03L132.29 477.33C132.67 464.55 135.06 384.7 136.03 384.45C137 384.2 124.33 354.2 124.33 354.2ZM34.38 372.13L37.9 355.31C38.9 355.74 48.67 366.06 48.67 366.06L34.38 372.13Z" fill="#3D6B4D"/>
<path d="M120 240.29C118.9 240.8 112.66 245.67 105.27 251.57C103.1 253.3 100.82 255.13 98.55 256.96L106.39 226.96L110.33 225.61L119.6 239.3L120 240.29Z" fill="#26342E"/>
<path d="M130.68 267.82C130.25 269.43 116.74 320.76 116.39 321.31C116.04 321.86 103.33 293.71 103.33 293.71C103.33 293.71 104.97 259.24 105.28 251.53C112.67 245.63 118.91 240.76 120.01 240.25L130.68 267.82Z" fill="#6DB359"/>
<path d="M167.52 204.6C167.33 204.82 160.12 212.93 153.74 219.95V250.19L150.13 256.91L144.66 249.77L132.77 264.06L133.19 271.56H139.64V283.36L150.72 286.12L161.81 279.46C161.81 279.46 161.55 247.29 161.81 246.19C162 245.35 165.78 217.55 167.52 204.6ZM150.72 281.48L152.53 274.42V262.3L155.89 276.79L150.72 281.48Z" fill="#3D6B4D"/>
<path d="M161.81 279.46L158.91 286.88L143.07 293.75L134.36 292.11L133.19 271.56H139.64V283.36L150.72 286.12L161.81 279.46Z" fill="#26342E"/>
<path d="M153.74 220V250.24L150.13 256.96L144.66 249.82L137.52 217.1C137.52 217.1 143.84 229.56 144.05 230.19C144.14 230.42 148.68 225.53 153.74 220Z" fill="#69BE6A"/>
<path d="M168.41 198.08C168.41 198.08 168.06 200.64 167.53 204.6C167.34 204.82 160.13 212.93 153.75 219.95C148.69 225.53 144.15 230.42 144.06 230.14C143.85 229.51 137.53 217.05 137.53 217.05L139.65 216.22L149.47 207.82L161.82 197.25C161.82 197.25 164.99 194.78 165.82 193.96C166.65 193.14 168.41 198.08 168.41 198.08Z" fill="#26342E"/>
<path d="M132.52 386L130.69 479.12C129.38 479.19 127.41 479.28 125.4 479.35L116.45 419.27C116.45 419.27 127.28 383.27 127.28 382.58C127.28 381.89 132.52 386 132.52 386Z" fill="#26342E"/>
<path d="M112.56 119.72L78.7399 130.88L69.2999 144.41L60.2199 129.51L41.3599 119.77C41.6199 118.58 41.7699 117.84 41.7699 117.84L45.0599 114.64C44.7499 115.09 45.0599 118.06 45.0599 118.06L68.9999 127.39L71.5599 128.39L110.5 116.23L112.56 119.72Z" fill="#26342E"/>
<path d="M83.73 220V234.74V237.23L79 239.31L79.23 219.95H60.35C59.98 219.95 57.83 217.48 56.74 216.21L83.74 215.06V220H83.73Z" fill="#6DB359"/>
<path d="M52.14 295.21C52.14 295.21 41.7 320.61 41.53 319.74C41.36 318.87 32.62 286 32 283.51V282.61L36.89 243.73L37.55 242.23L48.55 253.98L50.55 256.11L52.14 295.21Z" fill="#6DB359"/>
<path d="M69.34 276.17L53.1 361.58L40.16 353.58L32 283.68V283.51C32.67 286 41.41 318.91 41.58 319.74C41.75 320.57 52.19 295.21 52.19 295.21L50.58 256.09L69.34 276.17Z" fill="#26342E"/>
<path d="M48.6699 366.06L34.3799 372.13L37.8999 355.31C38.9299 355.74 48.6699 366.06 48.6699 366.06Z" fill="#B6C158"/>
<path d="M155.89 276.79L150.72 281.48L152.53 274.42V262.3L155.89 276.79Z" fill="#26342E"/>
<path d="M9.55008 276.79L5.84009 279.74L6.81009 263.31L9.55008 276.79Z" fill="#26342E"/>
<path d="M65.72 394.33L46.63 473.25H39.45L39.21 472.75V416C39.21 414.86 57.33 375.42 57.33 375.42L65.72 394.33Z" fill="#26342E"/>
<path d="M50.4099 473.25L45.8999 487.09H33.4099L33.4199 486.09L33.5099 473.25H50.4099Z" fill="#464C45"/>
<path d="M132.08 479L131.08 487.05H118.75L118.68 486.69L118.24 479.16C120.323 479.378 122.419 479.431 124.51 479.32C126.82 479.27 129.19 479.15 130.68 479.07L132.08 479Z" fill="#464C45"/>
<path d="M147.68 108.94L107.31 111.04L115.53 105.72L126.54 99.07L128.73 97.75L147.68 108.94Z" fill="#69BE6A"/>
<path d="M147.68 108.94L140.89 128.69V128.82L125.35 129.01L125.16 128.82L107.4 111.09L147.68 108.94Z" fill="#26342E"/>
<path d="M43.6701 108.72L27.3201 106.67L39.9601 99.77L43.6701 108.72Z" fill="#26342E"/>
<path d="M47.42 108.72L37.0799 117.03L25.4299 129.51L19.1799 121.73L27.3199 106.67L43.67 108.72L39.9599 99.77L47.42 108.72Z" fill="#69BE6A"/>
<path d="M81.64 35.85L97.45 27.34L75.75 33.66L81.64 35.85Z" fill="#3D6C45"/>
<path d="M79.25 65.8201L101.48 56.55L104.43 59.51L104.79 58.1301L101.48 56.55L82.26 62.73L79.25 65.8201Z" fill="#BB7644"/>
<path d="M76.96 65.89L60.77 59.05L74.05 63.1001L76.96 65.89Z" fill="#9A5124"/>
<path d="M95.0201 80.41L85.0701 89.25L83.1401 90.18L79.3301 89.31L77.8301 88.84L83.1501 88.62L95.0201 80.41Z" fill="#9A5124"/>
<path d="M67.97 81.79L77.83 88.84L67.97 80.64V81.79Z" fill="#9A5124"/>
<path d="M68 80.64C68 80.81 78.06 88.64 78.06 88.64H83.19L83.02 89.34L77.86 88.86C77.86 88.86 69.58 82.68 69.53 82.69C69.48 82.7 68 80.64 68 80.64Z" fill="#9A5124"/>
<path d="M75.75 33.6599C75.75 33.6599 70.68 25.0899 70.61 24.3399C70.54 23.5899 80.17 6.17993 80.17 6.17993C80.17 6.17993 75.17 21.8799 75.39 22.0699C75.61 22.2599 81 31.5999 81 31.5999L75.75 33.6599Z" fill="#96702C"/>
<path d="M103.57 7.63005C102.94 7.44005 95.02 11.05 95.02 11.05C95.02 11.05 88.6 27.57 88.88 27.34C89.16 27.11 96.22 12.58 96.22 12.58L103.57 7.63005Z" fill="#96702C"/>
<path d="M46.6099 26.24L62.7099 17.48L71.6299 19.92L61.6299 5.58997L46.6099 26.24Z" fill="#96702C"/>
<path d="M98.55 369.56C99.07 370.48 113.46 408.44 113.46 408.44L97.24 387.32L98.55 369.56Z" fill="#B6C158"/>
<path d="M48.67 372.13L35.95 376.82L39.2099 416.04L57.3299 375.46L48.67 372.13Z" fill="#B6C158"/>
<path d="M57.88 236.25L52.47 258.15L69.34 276.17L67.18 287.49L74.47 289.44L81.12 287.75L77.04 274.42L93.43 261.09L102.2 227.71L83.73 234.69L83.72 237.18L69.34 243.71L57.88 236.25Z" fill="#69BE6A"/>
<path d="M132.16 150.71L130.64 150.19L131.16 149.19L134.69 142.56V142.5V142.43L141.14 130.29L151 157.19V157.27C147.25 155.94 136.22 152.11 132.16 150.71Z" fill="#3D6B4D"/>
<path d="M161.53 195L151.88 190.8L145.05 187.8L145.13 187.47L145.46 186.1L145.55 185.7L151.83 159.51L160 182.13L161.53 195Z" fill="#6DB359"/>
<path d="M145.16 188.66C145.8 192.39 148.35 207.35 148.38 208.56C148.375 208.64 148.355 208.718 148.32 208.79C147.71 210.16 142.32 214.19 139.85 216.03L139.76 216.1H139.7H139.63L142 188.82V188.56L139.7 185.39L135.14 179.1L121.5 151.9L121.44 151.78C124.31 150.98 130.49 149.28 131.16 149.19C131.356 149.223 131.55 149.269 131.74 149.33C131.74 149.33 146.92 155.48 150.94 157.19V157.27L151.76 159.54L145.48 185.73L145.39 186.13L145.06 187.5L144.98 187.83L145.16 188.66Z" fill="#69BE6A"/>
<path d="M161.8 197.25L151.89 205.74C151.79 205.82 151.69 205.91 151.59 205.98L149.45 207.71L148.38 208.56L145.16 188.66L145.02 187.83L151.85 190.83L161.5 195.03L161.8 197.25Z" fill="#3D6B4D"/>
<path d="M150.3 185.29L146.3 186.99L146.11 187.07H146.06L145.11 187.47L142 188.82V188.56L139.7 185.39C141.97 185.55 144.39 185.67 145.22 185.71H145.51L150.3 185.29Z" fill="#2B0C38"/>
<path d="M141.22 130.26L134.77 142.4V142.47V142.53L131.24 149.16L121.58 151.87L119.92 148.56L121.42 143.11L123.21 136.32H123.27L123.43 136.24L123.83 136.07L124.12 135.94L124.54 135.76L124.75 135.67L125.12 135.51L125.68 135.27L126.02 135.12L128.02 134.27L135.91 130.87L137.21 130.31L140.26 129L140.59 128.86H140.67H140.72L140.92 128.75V128.88L141.22 130.26Z" fill="#26342E"/>
<path d="M37.1501 137L35.4901 139.7L32.4401 151.37L31.7701 152.59C31.7701 152.59 38.4501 166.34 37.7701 167.05C37.0901 167.76 25.6801 177.46 25.6801 177.46L21.55 151.37L27.1901 140.2L37.1501 137Z" fill="#3D6B4D"/>
<path d="M25.6701 177.44L25.0901 177.87L16.0901 184.57C16.1601 182.57 16.2401 180.69 16.3001 179.04L17.5801 167.42L17.7701 165.71C19.7101 154.52 23.1101 135.82 23.1101 135.82L27.2001 140.19L21.5601 151.36L24.8001 171.82V171.89L25.6801 177.41L25.6701 177.44Z" fill="#69BE6A"/>
<path d="M37.7699 167.07L37.7 167.74L34.0599 189.74L32.8799 207.79L24.8799 203.35L23.0999 202.35L22.4399 201.98C22.4399 201.98 22.4899 201.64 22.5599 201.05C22.5599 200.85 22.6199 200.62 22.6499 200.37C22.6799 200.12 22.7099 199.95 22.7399 199.71C22.8299 199.05 22.9299 198.26 23.0499 197.39C23.0499 197.21 23.0499 197.02 23.1299 196.82C23.2099 196.62 23.2199 196.17 23.2599 195.82C23.2551 195.737 23.2551 195.653 23.2599 195.57L23.4299 194.27C23.4999 193.73 23.5699 193.17 23.6499 192.59L23.7999 191.46C24.0199 189.75 24.2599 188 24.4799 186.33C24.5299 185.99 24.5699 185.65 24.6199 185.33C24.6699 185.01 24.6699 184.88 24.7099 184.66C24.7699 184.14 24.8399 183.66 24.8999 183.17C24.9599 182.68 24.9899 182.52 25.0299 182.17C25.0699 181.82 25.1099 181.56 25.1499 181.27V181.01V180.78L25.2399 180.07L25.3299 179.37C25.3299 179.15 25.3799 178.95 25.4099 178.76L25.4799 178.26L25.5899 177.44L25.7199 177.33L26.0699 177.03C28.1599 175.2 36.4099 168.03 37.5699 167.13H37.6199L37.7699 167.07Z" fill="#69BE6A"/>
<path d="M25.6899 177.46L25.5799 178.28C25.5799 178.43 25.5299 178.59 25.5099 178.78C25.4899 178.97 25.4599 179.17 25.4299 179.39C25.3999 179.61 25.3699 179.84 25.3399 180.09C25.3099 180.34 25.2799 180.52 25.2399 180.75V181V181.26C25.1999 181.547 25.1599 181.847 25.1199 182.16C25.1199 182.47 25.0299 182.79 24.9899 183.16C24.9499 183.53 24.8599 184.16 24.7999 184.65C24.7999 184.87 24.7299 185.1 24.7099 185.32C24.6899 185.54 24.6199 185.99 24.5699 186.32C24.3499 187.99 24.1099 189.74 23.8899 191.45L23.7399 192.58C23.6599 193.16 23.5899 193.72 23.5199 194.26L23.3499 195.56C23.3451 195.643 23.3451 195.727 23.3499 195.81C23.3499 196.15 23.2599 196.48 23.2199 196.81C23.1799 197.14 23.1699 197.21 23.1399 197.39C23.0199 198.26 22.9199 199.05 22.8299 199.71C22.8299 199.95 22.7999 200.17 22.7399 200.37C22.7399 200.62 22.6799 200.85 22.6499 201.05C22.5799 201.64 22.5299 201.98 22.5299 201.98L15.6299 198.15C15.6299 198.15 15.9199 191.09 16.1799 184.56C16.2499 182.56 16.3299 180.68 16.3899 179.03L17.6699 167.41C18.7399 168.94 23.4099 174.56 25.1399 176.64L25.7699 177.38L25.6899 177.46Z" fill="#26342E"/>
<path d="M140.85 128.82C140.85 128.82 140.85 128.82 140.73 128.88H140.63L140.46 128.96C138.76 129.67 132.46 132.32 127.95 134.23L125.95 135.08L125.61 135.23L125.05 135.47L124.68 135.63L124.47 135.72L124.05 135.9L123.76 136.03L123.36 136.2L123.2 136.28C122.65 136.28 116.96 126.97 112.56 119.64L110.46 116.15C108.81 113.37 107.62 111.34 107.46 111.02L125.25 128.8L140.85 128.82Z" fill="#69BE6A"/>
<path d="M63.39 147.14L52.13 164.58L40.88 161.69L38.8 160.22L31.46 151.43L35.45 139.38V139.37L38.75 135.89L52.87 136.52L63.39 147.14Z" fill="#69BE6A"/>
<path d="M105.32 210.17L83.7301 220V215.11L56.5401 216.27V220L50.8101 211.9L48.0901 177.2L39.6601 170.79L37.8301 167L30.8301 152.65L31.5001 151.42L38.8401 160.21L40.9201 161.68L46.2601 165.47L55.0001 178.77L56.5501 177.96L57.9401 199.39L69.3601 193.69C69.3601 193.69 82.3601 199.15 83.7401 199.39C84.7401 199.57 87.3601 188.18 88.6601 182.16C91.2901 183.16 97.0401 185.61 97.4701 185.61C97.9001 185.61 100.47 189.45 101.86 191.48C102.29 193.8 105.32 210.17 105.32 210.17Z" fill="#26342E"/>
<path d="M123.22 136.33L119.84 148.59L116.28 146C111.47 142.5 103.41 136.64 102.98 136.31C102.35 135.82 89.7199 140.19 89.7199 140.19L75.3099 149.54L70.17 161.79L63.39 147.12L52.8699 136.49L38.7499 135.88L35.45 139.35L36.9799 137.23C37.5499 137.23 40.3099 124.64 41.3599 119.72L60.2199 129.47L69.2999 144.39L78.7399 130.85L112.56 119.67C117 127.11 122.78 136.55 123.22 136.33Z" fill="#6DB359"/>
<path d="M60.8301 216L69.1901 211L81.7101 215.14L60.8301 216Z" fill="#26342E"/>
<path d="M111.41 159.18C111.29 159.62 100.76 172.54 100.76 172.54L100.6 177.49" fill="#6DB359"/>
</svg>
