<svg width="169" height="517" viewBox="0 0 169 517" fill="none" xmlns="http://www.w3.org/2000/svg">
<path d="M36.5401 142.26C35.8713 141.727 35.3398 141.041 34.9901 140.26C34.7437 139.331 34.8506 138.344 35.2901 137.49C36.0278 135.947 37.1899 134.646 38.6401 133.74C40.084 132.85 41.6507 132.176 43.2901 131.74C46.4714 130.741 49.823 130.401 53.1401 130.74C54.311 130.853 55.4488 131.193 56.4901 131.74C57.6408 132.474 58.5538 133.526 59.1183 134.768C59.6828 136.011 59.8745 137.391 59.6701 138.74C59.1993 141.453 57.7025 143.881 55.4901 145.52" fill="#6DB359"/>
<path d="M117.84 141.87C117.441 143.184 116.683 144.361 115.651 145.268C114.619 146.174 113.355 146.774 112 147C111.191 147.165 110.35 147.067 109.6 146.72C108.579 145.998 107.851 144.934 107.55 143.72C106.216 140.602 105.292 137.325 104.8 133.97C104.567 132.686 104.753 131.361 105.33 130.19C105.787 129.502 106.424 128.951 107.171 128.599C107.918 128.246 108.748 128.105 109.57 128.19C111.212 128.389 112.765 129.047 114.05 130.09C116.455 131.892 118.328 134.31 119.47 137.09C119.74 137.77 120.12 138.59 120.85 138.64" fill="#6DB359"/>
<path d="M106.23 164.32C109.076 161.335 111.438 157.924 113.23 154.21C113.671 153.398 113.965 152.514 114.1 151.6C114.163 151.142 114.124 150.676 113.986 150.235C113.847 149.794 113.613 149.39 113.3 149.05C112.742 148.563 112.039 148.271 111.3 148.22C109.95 148.071 108.583 148.225 107.3 148.67C104.945 149.383 102.767 150.586 100.908 152.199C99.0491 153.812 97.5517 155.799 96.5135 158.03C95.4753 160.261 94.9196 162.686 94.8828 165.147C94.846 167.608 95.3289 170.049 96.3 172.31C96.4498 172.727 96.7088 173.097 97.05 173.38C97.3926 173.541 97.7692 173.616 98.1473 173.598C98.5254 173.581 98.8936 173.472 99.22 173.28C106.07 170.28 103.82 171.28 105.57 169.08" fill="#3D6B4D"/>
<path d="M126.87 98.7501L113.52 104.89L111.94 104.81L120.08 90.7201L112.8 51.8301L107.63 66.8301L105.03 68.8301V57.8401L101.57 43.3001L99 32.6301L97.67 27.0501L76 33.3701L59.89 26.0001L55.89 31.9401C55.89 31.9401 55.89 34.5701 55.89 37.5801C55.26 40.1101 53.61 46.8101 53.61 47.5201C53.61 48.4101 54.74 62.7001 55.1 63.4401C55.46 64.1801 50.5 74.2001 50.5 74.2001L56.13 70.3701L59.93 63.7701L62.42 73.1001L66.66 80.4001V100.66L55.86 104.86L55.18 104.63L44.09 100.86L40.76 62.8601L46.85 26.0001L61.85 5.3501L80.3 0.350098L103.79 7.40009L118.21 33.4001L121.15 54.5401L117.73 57.6001L125.8 86.3901L126.87 98.7501Z" fill="black"/>
<path d="M53.5599 46.6299L46.9099 60.8899L45.8199 57.7599L43.9099 65.5999L51.1599 103.2C51.1599 103.2 60.3599 96.0899 61.0099 95.1999C61.6599 94.3099 59.3599 70.5299 59.3599 70.5299L56.6999 54.7699L53.5599 46.6299Z" fill="#414141"/>
<path d="M53.2401 72.2899L54.2401 80.3499L52.4301 84.8699L51.1401 103.2C51.1401 103.2 62.3701 110.35 62.6701 110.25C62.9701 110.15 70.6701 107.04 70.8301 106.64C70.9901 106.24 74.8301 95.8999 74.7101 94.2999C74.5901 92.6999 74.8401 78.7199 74.2701 78.3799C73.7001 78.0399 67.4801 72.0299 67.0801 71.7299C66.6801 71.4299 63.0001 62.7999 63.0001 62.7999L59.5201 60.6899L53.2401 72.2899Z" fill="#414141"/>
<path d="M96.67 80.1601L96.46 83.5401L78.91 100.8L79.21 122.24L69.21 127.06L45.33 117.72C45.33 117.72 45.01 114.72 45.33 114.3L55.23 104.6L55.91 104.83L66.71 100.63V80.3701L62.47 73.0701L60 63.7201V63.4501L59 58.0801C59 58.0801 58.7 57.0801 58.3 55.5801L61.13 58.7501C61.13 58.7501 73.95 62.8001 74.41 62.8001C74.87 62.8001 78.41 66.8001 78.41 66.8001V73.5401L70.99 72.1501L74 77.0001L78.31 78.3901V88.3901H83.43L96.67 80.1601Z" fill="#9E5B29"/>
<path d="M75.9899 33.3699L72.2199 34.89L71.8699 39.52L55.8999 31.89L59.8899 25.95L75.9899 33.3699Z" fill="#B6C158"/>
<path d="M99.02 32.6301L83.85 39.53L82.5 40.15L81.88 35.56L75.99 33.37L97.69 27.05L99.02 32.6301Z" fill="#B6C158"/>
<path d="M101.57 43.2999L95.2601 40.1499C95.2601 40.1499 81.6901 48.8899 81.2601 49.2199C80.8301 49.5499 83.8201 39.5299 83.8201 39.5299L98.9901 32.6299L101.57 43.2999Z" fill="#69BE6A"/>
<path d="M101.57 43.3L95.2599 40.15C95.2599 40.15 81.6899 48.89 81.2599 49.22C80.8299 49.55 83.8199 39.53 83.8199 39.53L82.4699 40.15L77.1699 48.41L77.9599 54.27L77.7699 63.45L82.4699 62.45L101.69 56.27L105 57.85L101.57 43.3ZM78.5699 61.19L79.8199 55.58L82.2099 61.19H78.5699ZM101.57 50.56L93.1799 56.26L82.4999 51.68C83.1299 51.68 96.0699 42.83 96.0699 42.83L101.57 47.35V50.56Z" fill="#26342E"/>
<path d="M74.3199 62.8299C73.8499 62.8299 61.0399 58.7799 61.0399 58.7799L58.1999 55.5999C57.3199 52.3699 55.8999 47.0499 55.9299 46.1899C55.9299 45.4899 55.9299 41.2399 55.9299 37.5599V31.9199L60.9299 42.2099L61.1099 42.8599L61.2899 43.4499L57.3199 47.9999L64.3999 56.2399L65.0599 55.8799L74.3199 62.8299Z" fill="#26342E"/>
<path d="M149.44 194.35L149.69 207.53L139.87 215.93L140.94 188.8L133 180.1L121.73 151.93L123.45 136.03C124.16 135.66 143.59 127.14 143.59 127.14L131.94 149.14C131.94 149.14 145.51 187.74 146.33 186.79C147.15 185.84 153.54 191.79 153.54 191.79L149.44 194.35Z" fill="#DB9058"/>
<path d="M24.2499 163.48L25.9999 198.84C25.9999 198.84 23.4399 193.62 23.2999 193.98C23.1599 194.34 23.2999 200.29 23.2999 202.1L13.6599 197.9C13.6599 197.9 15.7399 175.62 15.7399 174.05C15.7399 172.48 19.5699 135.6 19.5699 135.6L27.3999 139.92C27.3999 139.92 31.2099 138.76 34.0999 137.92L24.2499 163.48Z" fill="#DB9058"/>
<path d="M163.35 195.55L148.23 208.23L148 195.06L152.11 192.53C152.11 192.53 145.72 186.53 144.9 187.53C144.08 188.53 130.52 149.88 130.52 149.88L143.73 127.17L162.85 182.42L163.35 195.55Z" fill="#EFB180"/>
<path d="M108.36 111.15C109.13 112.759 109.981 114.328 110.91 115.85L71.79 128.11L69.23 127.11L79.23 122.29L79 100.85L96.54 83.5901L97.32 99.6501L112.02 104.85L113.6 104.93L108.36 111.15Z" fill="#A6662E"/>
<path d="M36.3601 167.23L34.3001 189.48L33.1201 207.48L23.3301 202.05C23.3301 200.24 23.2301 194.23 23.3301 193.93C23.4301 193.63 26.0301 198.79 26.0301 198.79L24.2401 163.43L34.1201 137.85C34.8243 137.621 35.5425 137.437 36.2701 137.3L34.7401 139.42L31.6901 151.08L31.0201 152.3L36.3601 167.23Z" fill="#EFB180"/>
<path d="M76.1799 51.8599L73.14 47.3699L61.7499 42.8599H61.0699L60.8799 42.2099L55.9299 31.9199L71.8999 39.5399L75.1899 45.0499L76.1799 51.8599Z" fill="#69BE6A"/>
<path d="M82.5001 40.1501L77.2001 48.4101L75.1701 45.0201L71.8701 39.5201L72.2201 34.8901L75.9901 33.3701L81.8801 35.5601L82.5001 40.1501Z" fill="#26342E"/>
<path d="M120.08 90.7201L111.94 104.81L97.24 99.6201L96.46 83.5501V83.5401L96.67 80.1601L100.01 73.6301L105.03 57.8401V68.7901L107.63 66.7901L112.8 51.8401L120.08 90.7201Z" fill="#414141"/>
<path d="M105.03 57.84L100.01 73.63L96.67 80.16L83.39 88.33H78.27V78.38L82.23 77.81L86.37 73.53L90.5 68.79L86.37 72.14L78.27 73.53V66.79L82.5 62.44L101.72 56.26L105.03 57.84Z" fill="#A6662E"/>
<path d="M90.5001 68.79L86.3701 73.53L82.2401 77.81L78.2701 78.3801L73.9601 76.9901L70.8501 72.14L76.6001 75.12L80.6701 74.69L86.3701 72.14L90.5001 68.79Z" fill="#A86739"/>
<path d="M86.3701 72.1399L80.6701 74.6899L76.6001 75.1199L70.8501 72.1399L78.2701 73.5299L86.3701 72.1399Z" fill="#9D5C27"/>
<path d="M82.2301 61.1901H78.5901L79.8401 55.5801L82.2301 61.1901Z" fill="#3D6C45"/>
<path d="M82.4999 62.4401L78.2699 66.7901C78.2699 66.7901 74.7499 62.7901 74.2699 62.7901L64.9999 55.8901C66.9999 54.7501 73.1799 51.3501 73.5999 51.3501L61.6899 42.8301L73.0899 47.3501L76.0899 51.8301L75.0899 45.0201L77.0899 48.4101L77.8799 54.2701L77.6899 63.4501L82.4999 62.4401Z" fill="#3D6C45"/>
<path d="M60.0001 63.72L56.2001 70.32L50.5701 74.15C50.5701 74.15 55.5701 64.15 55.1701 63.39C54.7701 62.63 53.6801 48.39 53.6801 47.47C53.6801 46.76 55.3301 40.06 55.9601 37.53C55.9601 41.22 55.9601 45.47 55.9601 46.16C56.5593 49.3368 57.3203 52.4809 58.2401 55.58C58.6401 57.05 58.9401 58.08 58.9401 58.08L59.9401 63.45L60.0001 63.72Z" fill="#50493F"/>
<path d="M101.57 47.3501V50.5601L93.18 56.2601L82.5 51.6801C83.13 51.6801 96.07 42.8301 96.07 42.8301L101.57 47.3501Z" fill="white" stroke="#221F1F" stroke-linejoin="round"/>
<path d="M73.6301 51.3499C73.2101 51.3499 67.0701 54.7499 65.0301 55.8899L64.3701 56.2599L57.3 47.9999L60.4001 42.9999L60.86 42.1799L73.6301 51.3499Z" fill="white" stroke="#221F1F" stroke-linejoin="round"/>
<path d="M79.5 219.66L79.26 239L69.57 243.4C69.57 243.4 69.57 228.13 69.57 227.4C69.57 227.4 69.46 227.4 69.35 227.45L69.19 227.52L69.01 227.63C66.67 228.98 57.96 235.83 57.96 235.83L57.66 235.6L56.78 219.6V215.87H57C58.09 217.14 60.24 219.61 60.61 219.61L79.5 219.66Z" fill="#26342E"/>
<path d="M132.8 263L116.52 355L102.43 356.4L77.28 274.11C77.28 274.11 88.02 265.31 98.79 256.65C101.06 254.81 103.34 252.99 105.51 251.26C105.2 258.96 103.56 293.44 103.56 293.44C103.56 293.44 116.26 321.6 116.62 321.04C116.98 320.48 132.37 264.64 132.8 263Z" fill="#26342E"/>
<path d="M47.4801 510.73L19.8901 512.31C19.8901 512.31 9.89004 513.52 9.09004 513.31L0.290039 511.14L1.06004 507.76L14.92 508.46H15.37L26.18 509.15L40.09 506L40.6301 505.89H40.69C40.743 505.88 40.7971 505.88 40.8501 505.89C41.2001 505.8 47.0801 504.23 47.2601 504.29C47.4001 507.85 47.4801 510.73 47.4801 510.73Z" fill="#26342E"/>
<path d="M26.1099 509.03L40.0899 506.01L26.2199 509.2L15.4099 508.51L14.9599 508.49H14.9499L14.9199 508.47L15.2199 508.49L26.1099 509.03Z" fill="#181E4D"/>
<path d="M47.2801 504.23C47.1001 504.17 41.2201 505.74 40.8701 505.83L40.8201 505.71V505.57L40.5001 504.65L40.1901 503.8C40.0801 503.49 39.9601 503.16 39.8201 502.8L39.6601 502.39C39.6056 502.217 39.5422 502.047 39.4701 501.88C39.2368 501.247 38.9868 500.58 38.7201 499.88C38.6401 499.66 38.5501 499.45 38.4701 499.22L37.5701 496.88C37.4001 496.44 37.2401 495.99 37.0601 495.55C36.6301 494.45 36.2101 493.35 35.8201 492.33C35.6801 491.96 35.5401 491.6 35.4001 491.26C35.0001 490.26 34.6401 489.26 34.3301 488.53C34.2995 488.421 34.2628 488.315 34.2201 488.21L34.0701 487.83L33.9001 487.4L33.7601 487.06C33.6501 486.75 33.5801 486.59 33.5801 486.59L33.7201 485.81V486.81L48.7701 486.59C48.7901 486.58 47.1001 498 47.2801 504.23Z" fill="#26342E"/>
<path d="M39.6899 473H39.45V472.5L39.6899 473Z" fill="#253B7D" stroke="#9BB7C7" stroke-miterlimit="10"/>
<path d="M40.67 505.88H40.6199L40.09 506L26.22 509.19L15.41 508.5H14.96L6.44995 504.26L24.8699 494.83L27.31 496.52L28.1799 497.12L28.81 497.56L29.64 498.13C33.84 501 39.56 505 40.67 505.88Z" fill="#3D6B4D"/>
<path d="M14.9501 508.49L1.06006 507.77L6.41006 504.23H6.42006L14.9501 508.49Z" fill="#69BE6A"/>
<path d="M136.68 501.63L118.85 495.7L117.85 486.62L117.92 486.98L132.32 486.8L136.68 501.63Z" fill="#26342E"/>
<path d="M141.39 509.93L119.9 509.2C119.9 509.2 117.43 501.64 117.43 501.33L118.88 495.95V495.7L136.71 501.63L141.39 509.93Z" fill="#3D6B4D"/>
<path d="M142.54 512.75L131.1 516.15H122.1L115.77 510.32L117.41 501.64V501.33C117.41 501.64 119.88 509.2 119.88 509.2L141.37 509.93L142.54 512.75Z" fill="#26342E"/>
<path d="M40.8701 505.83C40.8172 505.82 40.763 505.82 40.7101 505.83H40.6401L29.6401 498.04L28.8101 497.47L28.1801 497.03L27.3101 496.43L24.8701 494.74L33.5601 486.52C33.5601 486.52 33.6301 486.68 33.7401 486.99L33.8801 487.33L34.0501 487.76L34.2001 488.14C34.2428 488.245 34.2795 488.351 34.3101 488.46L39.6401 502.33L39.8001 502.74L40.8001 505.45C40.8001 505.45 40.8001 505.65 40.8501 505.7C40.9001 505.75 40.8601 505.8 40.8701 505.83Z" fill="#69BE6A"/>
<path d="M55.22 104.58L45.32 114.28L41.03 117.28C41.03 117.28 40.87 118.02 40.62 119.21C39.56 124.13 36.87 137.28 36.3 137.28C35.5723 137.417 34.8542 137.601 34.15 137.83C31.26 138.69 27.45 139.83 27.45 139.83L19.62 135.51L16 121.18L25.63 129.18L37.28 116.69L47.62 108.39L38.02 99.03L44.09 100.77L55.22 104.58Z" fill="#26342E"/>
<path d="M20.8899 255.22C20.8899 255.22 14.2499 259.3 14.1399 259.78C14.0299 260.26 5.22989 252.31 4.13989 251.36C3.83989 257.55 4.30988 281.62 4.30988 281.62L6.03988 283.07L17.0399 279.28L25.6199 269.93L20.8899 255.22ZM6.07989 279.45L7.07989 263.02L9.81989 276.5L6.07989 279.45Z" fill="#69BE6A"/>
<path d="M17.94 199.1L15.81 218.86L13.81 203.81L9.80999 197.97C9.80585 197.924 9.80585 197.877 9.80999 197.83L13.7 197.9L17.94 199.1Z" fill="#69BE6A"/>
<path d="M15.8701 250.85L20.8701 255.22C20.8701 255.22 14.2301 259.3 14.1201 259.78C14.0101 260.26 5.21005 252.31 4.12005 251.36C4.11247 250.884 4.16966 250.41 4.29005 249.95C4.87005 249.04 9.35005 200.9 9.73005 197.95L13.7301 203.79L15.7301 218.84L14.0601 234.38L21.15 244.56L10.4 246.87L6.97006 250.87L15.8701 250.85Z" fill="#26342E"/>
<path d="M35.3099 210.6L21.2299 244.58L14.1399 234.4L17.9399 199.1L33.1199 207.53L35.3099 210.6Z" fill="#3D6B4D"/>
<path d="M20.37 253.6L20.8901 255.22L15.87 250.85H7.05005L10.48 246.89L21.2301 244.58L20.37 253.6Z" fill="#3D6B4D"/>
<path d="M21.2301 287.34L13.3801 289.15L6.08008 283.07L17.1001 279.27L25.6701 269.93L25.8101 276.29L21.2301 287.34Z" fill="#26342E"/>
<path d="M113.42 172C113.42 172 108.08 189.33 108.04 189.33L108.1 189.6C106.73 187.6 98.1 185.32 97.69 185.32C97.28 185.32 91.5 182.87 88.88 181.87C88.8753 181.834 88.8753 181.797 88.88 181.76C89.33 179.66 89.62 178.24 89.62 178.24L92.21 179.34L99.99 167.34L106.62 158.06L111.5 153.34L116.5 144.14C118.58 145.64 121.72 151.95 121.72 151.95L113.42 172Z" fill="#26342E"/>
<path d="M111.52 153.33L103.42 158.42L99.9999 167.33L92.2199 179.33L89.6299 178.23L70.8899 170.23L56.7599 177.62L55.2099 178.43L46.4499 165.14L41.1299 165.5H55.2199L65.7299 145.18L70.3999 161.47L74.9999 147.61C74.9999 147.61 92.9399 162.33 93.2999 162.17C93.6599 162.01 111 153.59 111.52 153.33Z" fill="#3D6B4D"/>
<path d="M116.52 144.12L111.52 153.32C110.98 153.58 93.7 162 93.34 162.16C92.98 162.32 75 147.61 75 147.61L86.8 133.21C86.8 133.21 104.43 132.78 105.05 133.27C105.53 133.6 111.71 140.62 116.52 144.12Z" fill="#69BE6A"/>
<path d="M48.78 253.67L33 240.41L39.3 223.78C39.74 224.09 41.11 225.78 41.82 226.27L48.78 253.67Z" fill="#26342E"/>
<path d="M57.9999 235.85C57.9999 235.85 45.8899 229.28 41.8999 226.27C41.1899 225.74 39.8199 224.09 39.3799 223.78L45.6399 211.71L56.8199 219.71L57.9999 235.85Z" fill="#6DB359"/>
<path d="M69.57 243.42L58 235.85C59.86 234.36 67.44 228.54 69.23 227.54L69.39 227.47C69.5 227.42 69.57 227.4 69.61 227.42C69.61 228.15 69.57 243.42 69.57 243.42Z" fill="#6DB359"/>
<path d="M117.24 224.02L106.63 226.62L83.97 234.4V219.66L112.36 209.49L117.24 224.02Z" fill="#6DB359"/>
<path d="M116.52 355C116.52 355 111.52 375.59 111.29 376.48C111.06 377.37 102.44 356.4 102.44 356.4L116.52 355Z" fill="#B6C158"/>
<path d="M78.5801 305.79C78.8401 304.42 69.5801 354.03 69.5801 354.03L64.1201 362.65C64.1201 362.65 67.0001 351 67.2901 350.17C67.5801 349.34 76.1701 301.64 76.1701 301.64C76.1701 301.64 66.8001 298.2 68.4601 298.46C71.0484 298.594 73.6419 298.594 76.2301 298.46L81.3001 296.93L93.6701 361.25C93.2101 359.62 78.3201 307.15 78.5801 305.79Z" fill="#26342E"/>
<path d="M125.87 355L132.81 263L116.53 355C116.53 355 111.53 375.59 111.3 376.48C111.07 377.37 102.44 356.4 102.44 356.4L77.2901 274.11C77.2901 274.11 88.0301 265.31 98.8001 256.65L106.64 226.6L84.0001 234.4V236.89L79.3001 239.02L69.6101 243.42L58.1201 236L57.6501 235.66C56.2401 234.54 45.3601 228.96 41.8501 226.31L48.7801 253.71L50.7801 255.84L69.5801 275.91L53.3501 361.32L40.4101 353.32L27.8401 283.26L24.0901 326.8L30.3101 349.2L28.1501 376.57L33.0001 386.57L33.7601 472.96H39.4701V415.75C39.4701 414.61 57.6001 375.17 57.6001 375.17L66.0001 394L46.8601 473L52.7001 472.75L73.5001 392L64.1101 362.63C64.1101 362.63 67.0001 351 67.2901 350.17C67.5801 349.34 76.1701 301.64 76.1701 301.64C76.1701 301.64 66.8101 298.2 68.4701 298.46C71.055 298.595 73.6452 298.595 76.2301 298.46L81.3001 296.93L93.6701 361.25L91.4001 387C91.4001 387 115.4 478.14 116.4 479C116.557 479.091 116.73 479.148 116.91 479.17C119.513 479.287 122.12 479.267 124.72 479.11H125.61L116.69 419C116.69 419 127.52 383 127.52 382.31C127.52 381.62 132.76 385.72 132.76 385.72L130.92 478.85L132.31 478.78L132.52 477.08C132.91 464.3 137.3 384.4 138.27 384.15C139.24 383.9 125.87 355 125.87 355ZM34.6201 371.82L38.1401 355C39.1401 355.43 48.9101 365.75 48.9101 365.75L34.6201 371.82Z" fill="#3D6B4D"/>
<path d="M124.44 239.54C117.782 242.863 111.446 246.793 105.51 251.28C103.34 253.01 101.06 254.83 98.79 256.67L106.63 226.62L117.24 224.02L124.04 238.51L124.44 239.54Z" fill="#26342E"/>
<path d="M132.81 263C132.38 264.6 116.98 320.47 116.63 321C116.28 321.53 103.57 293.4 103.57 293.4C103.57 293.4 105.21 258.92 105.52 251.22C111.456 246.733 117.793 242.803 124.45 239.48L132.81 263Z" fill="#6DB359"/>
<path d="M167.76 204.31C167.57 204.53 160.35 212.64 153.98 219.66V249.9L150.37 256.62L144.89 249.47L134.35 265L133.43 271.3H139.87V283.1L151 285.83L162.09 279.17C162.09 279.17 161.83 247 162.09 245.9C162.26 245.06 166 217.26 167.76 204.31ZM151 281.19L152.81 274.13V262L156.17 276.5L151 281.19Z" fill="#3D6B4D"/>
<path d="M162.05 279.17L159.15 286.58L144.84 294.07L136.33 290.67L133.43 271.27H139.88V283.07L150.96 285.83L162.05 279.17Z" fill="#26342E"/>
<path d="M154 219.66V249.9L150.39 256.62L144.91 249.47L137.78 216.76C137.78 216.76 144.1 229.21 144.31 229.85C144.38 230.13 148.92 225.24 154 219.66Z" fill="#69BE6A"/>
<path d="M168.65 197.78C168.65 197.78 168.3 200.35 167.77 204.3C167.58 204.52 160.36 212.63 153.99 219.65C148.93 225.23 144.39 230.12 144.3 229.84C144.09 229.2 137.77 216.75 137.77 216.75L139.88 215.92L149.71 207.52L164.83 194.83L166.02 193.65L168.65 197.78Z" fill="#26342E"/>
<path d="M132.76 385.69L130.92 478.82C129.62 478.89 127.65 478.98 125.64 479.04L116.69 419C116.69 419 127.52 383 127.52 382.31C127.52 381.62 132.76 385.69 132.76 385.69Z" fill="#26342E"/>
<path d="M113 119.35L79.0001 130.59L69.5601 144.12L60.4801 129.22L40.6201 119.32C40.8701 118.12 41.0301 117.38 41.0301 117.38L45.3201 114.38C45.0101 114.83 45.3201 117.8 45.3201 117.8L69.2001 127.12L71.7601 128.12L110.88 115.87L113 119.35Z" fill="#26342E"/>
<path d="M65.7399 145.23L55.2299 165.55H41.14L39.0699 164.08L31.7 151.14L34.7499 139.48V139.47L38.0499 136L55.2199 134.61L65.7399 145.23Z" fill="#69BE6A"/>
<path d="M84 219.66V234.4V236.89L79.3 239.02L79.54 219.66H60.59C60.22 219.66 58.07 217.19 56.98 215.92L83.98 214.77V219.66H84Z" fill="#6DB359"/>
<path d="M52.3801 294.92C52.3801 294.92 41.9301 320.32 41.7701 319.45C41.6101 318.58 28.4901 285.53 27.8301 283V282.1L32.3301 241.88L33.0001 240.38L48.7501 253.64L50.7501 255.77L52.3801 294.92Z" fill="#6DB359"/>
<path d="M69.5701 275.87L53.3401 361.28L40.4001 353.28L27.8301 283.22V283C28.4901 285.49 41.6001 318.58 41.7701 319.41C41.9401 320.24 52.3801 294.88 52.3801 294.88L50.7701 255.76L69.5701 275.87Z" fill="#26342E"/>
<path d="M48.9099 365.77L34.6099 371.84L38.1299 355C39.1699 355.45 48.9099 365.77 48.9099 365.77Z" fill="#B6C158"/>
<path d="M123.59 135.91L121.74 151.91C121.74 151.91 117.89 146.27 116.52 144.1C113.17 138.78 105.52 133.58 105.09 133.25C104.47 132.76 86.84 133.19 86.84 133.19L75 147.6L70.37 161.52L65.7 145.23L55.18 134.61H38.06L34.75 139.47L36.28 137.35C36.85 137.35 39.54 124.2 40.6 119.28L60.46 129.2L69.54 144.12L79 130.57L113 119.32C117.44 126.74 123.15 136.13 123.59 135.91Z" fill="#6DB359"/>
<path d="M156.13 276.5L150.96 281.19L152.77 274.13V262L156.13 276.5Z" fill="#26342E"/>
<path d="M9.79007 276.5L6.08008 279.45L7.05008 263.02L9.79007 276.5Z" fill="#26342E"/>
<path d="M65.9999 394L46.8699 473H39.6899L39.45 472.5V415.75C39.45 414.61 57.5699 375.17 57.5699 375.17L65.9999 394Z" fill="#26342E"/>
<path d="M52.7099 472.71L48.6999 486.58L33.6499 486.8V485.8L33.7499 472.96L52.7099 472.71Z" fill="#444C44"/>
<path d="M132.32 478.75V486.75L117.92 486.93L117.85 486.57L116.94 479.08C119.543 479.197 122.149 479.177 124.75 479.02C127.06 478.96 129.43 478.85 130.92 478.77L132.32 478.75Z" fill="#444C44"/>
<path d="M147.92 108.3L108.36 111.15L113.65 104.76L127 98.6201L129.18 97.3101L147.92 108.3Z" fill="#69BE6A"/>
<path d="M147.92 108.3L143.73 127.01L125.55 128.37L108.36 111.15L147.92 108.3Z" fill="#26342E"/>
<path d="M143.73 127C143.73 127 124.3 135.52 123.59 135.9C123.15 136.12 117.37 126.67 112.92 119.26L110.82 115.76C109.903 114.273 109.082 112.73 108.36 111.14L125.55 128.36L143.73 127Z" fill="#69BE6A"/>
<path d="M43.9099 108.43L23.9299 105.79L38.0599 99.0701L43.9099 108.43Z" fill="#26342E"/>
<path d="M47.66 108.43L37.32 116.73L25.67 129.22L16.04 121.18L23.93 105.79L43.91 108.43L38.06 99.0701L47.66 108.43Z" fill="#69BE6A"/>
<path d="M81.88 35.56L97.69 27.05L75.99 33.37L81.88 35.56Z" fill="#3D6C45"/>
<path d="M79.49 65.53L101.72 56.26L104.67 59.21L105.03 57.84L101.72 56.26L82.5 62.44L79.49 65.53Z" fill="#BB7644"/>
<path d="M77.2 65.6L61.01 58.75L74.29 62.8L77.2 65.6Z" fill="#9A5124"/>
<path d="M96.6701 80.1599L85.3101 88.9499L83.3801 89.8899L79.5701 89.0199L78.0601 88.5499L83.3901 88.3299L96.6701 80.1599Z" fill="#9A5124"/>
<path d="M66.6799 81.5001L78.0599 88.5501L66.6799 80.3501V81.5001Z" fill="#9A5124"/>
<path d="M66.6799 80.3501C66.6799 80.5201 78.2699 88.3501 78.2699 88.3501H83.39L83.2299 89.0501L78.0699 88.5701C78.0699 88.5701 68.2599 82.3901 68.2099 82.4001C68.1599 82.4101 66.6799 80.3501 66.6799 80.3501Z" fill="#9A5124"/>
<path d="M76 33.3699C76 33.3699 70.93 24.7999 70.86 24.0399C70.79 23.2799 80.42 5.88989 80.42 5.88989C80.42 5.88989 75.42 21.5799 75.64 21.7699C75.86 21.9599 81.26 31.3099 81.26 31.3099L76 33.3699Z" fill="#282A2A"/>
<path d="M103.81 7.34001C103.18 7.15001 95.2601 10.76 95.2601 10.76C95.2601 10.76 88.8401 27.28 89.1101 27.05C89.3801 26.82 96.4601 12.29 96.4601 12.29L103.81 7.34001Z" fill="#282A2A"/>
<path d="M46.8501 25.95L62.9401 17.19L71.8701 19.6301L61.8701 5.30005L46.8501 25.95Z" fill="#282A2A"/>
<path d="M98.79 369.27C99.31 370.19 113.7 408.15 113.7 408.15L94.78 386.35L98.79 369.27Z" fill="#B6C158"/>
<path d="M48.9099 371.84L36.1899 376.52L39.45 415.75L57.5699 375.17L48.9099 371.84Z" fill="#B6C158"/>
<path d="M58.1199 235.96L52.7 257.86L69.5699 275.87L67.42 287.2L74.7 289.15L81.3599 287.45L77.2799 274.13L93.67 260.8L102.44 227.41L83.9699 234.4L83.9599 236.89L69.5699 243.42L58.1199 235.96Z" fill="#69BE6A"/>
<path d="M143.73 127C143.73 127 155.15 156.08 155.12 156C155.09 155.92 132 149.14 132 149.14L143.73 127Z" fill="#3D6B4D"/>
<path d="M131.95 149.14L121.75 151.93L123.59 135.91L143.73 127.01" fill="#26342E"/>
<path d="M155.12 155.99L164.29 181.69L164.82 194.84L146.34 186.79L155.12 155.99Z" fill="#6DB359"/>
<path d="M121.74 151.93L133 180.1L140.93 188.8L139.86 215.93C139.86 215.93 149.71 208.93 149.69 207.53C149.67 206.13 146.33 186.79 146.33 186.79L155.11 155.99C155.11 155.99 133.34 147.99 132.47 148.15C131.6 148.31 121.74 151.93 121.74 151.93Z" fill="#69BE6A"/>
<path d="M146.34 186.79L149.7 207.53C149.7 207.53 165.32 195.06 164.82 194.84L146.34 186.79Z" fill="#3D6B4D"/>
<path d="M136.39 183.81C136.75 184.2 146.84 184.69 146.84 184.69L151.62 184.25L140.94 188.8L136.39 183.81Z" fill="#26342E"/>
<path d="M36.2801 137.35L34.7501 139.47L31.7001 151.14L31.0301 152.36C31.0301 152.36 37.03 166.51 36.36 167.23C35.69 167.95 24.9401 177.23 24.9401 177.23L20.8101 151.14L27.4301 139.92L36.2801 137.35Z" fill="#3D6B4D"/>
<path d="M27.4299 139.92L19.5999 135.6L14.8999 184.69L24.9399 177.23L20.8099 151.14L27.4299 139.92Z" fill="#69BE6A"/>
<path d="M36.3601 167.23L33.1201 207.53L21.8701 201.47L25.0001 177.22C25.0001 177.22 35.6401 167.71 36.3601 167.23Z" fill="#69BE6A"/>
<path d="M25 177.22L21.92 201.47L17.99 199.1L13.74 197.9C13.74 197.9 16.74 166.43 16.66 166.83C16.58 167.23 25 177.22 25 177.22Z" fill="#26342E"/>
<path d="M112.36 209.49L84 219.66V214.77L56.81 215.93V219.66L45.63 211.66L43.55 177.66L38.25 169.61L36.41 167.15L31 152.36L31.67 151.14L39.04 164.08L41.11 165.55L46.43 165.19L55.19 178.48L56.74 177.67L58.13 199.1L69.54 193.4L84 199.1L88.92 181.87C91.54 182.87 97.29 185.32 97.73 185.32C98.17 185.32 106.73 187.57 108.14 189.6C108.54 191.92 112.36 209.49 112.36 209.49Z" fill="#26342E"/>
<path d="M59.9299 209.23L69.8299 208.08L81.0399 208.68L83.9599 214.77L69.8299 214.08L57.6599 215.33C58.4199 213.3 59.1699 211.26 59.9299 209.23Z" fill="#26342E"/>
<path d="M61.4899 201.72C64.1599 201.6 66.9499 201.54 69.8799 201.56C73.1499 201.56 76.2699 201.72 79.2199 201.92L83.9999 208L69.9999 207.44L57.6899 208.57L61.4899 201.72Z" fill="#26342E"/>
<path d="M58 196.48L70 194.64L83.83 195.85L84.01 201.79L69.93 200.34L57.71 202.34L58 196.48Z" fill="#26342E"/>
<path d="M113 166.91C112.87 167.35 102 179.98 102 179.98L101.67 185.4L113 166.91Z" fill="#6DB359"/>
<path d="M112.58 161.28C112.42 161.71 100.67 173.54 100.67 173.54L99.96 178.92L112.58 161.28Z" fill="#6DB359"/>
<path d="M89.64 178.24C89.64 178.24 89.35 179.66 88.9 181.76V181.87C88.55 183.5 85.9 192.43 83.98 199.1L69.59 193.4L58.18 199.1L56.79 177.67L70.92 170.28L89.64 178.24Z" fill="#6DB359"/>
<path d="M89.6401 178.24L89.4401 179.24L88.9001 181.79V181.9L84.0001 199.1L70.7001 203.77L58.2001 199.1L56.8101 177.67L70.9401 170.28L89.6401 178.24Z" fill="#6DB359"/>
</svg>
