<svg width="169" height="517" viewBox="0 0 169 517" fill="none" xmlns="http://www.w3.org/2000/svg">
<path d="M101.42 43.76L95.11 40.6C95.11 40.6 81.54 49.35 81.11 49.68C80.68 50.01 83.7001 40 83.7001 40L82.3501 40.61L77.05 48.88L77.8401 54.73L77.6501 63.92L82.3501 62.92L101.57 56.74L104.88 58.33L101.42 43.76Z" fill="#F3EB50"/>
<path d="M36.3901 142.72C35.7248 142.183 35.194 141.498 34.8401 140.72C34.5982 139.794 34.705 138.812 35.1401 137.96C35.8778 136.417 37.0398 135.116 38.4901 134.21C39.9316 133.315 41.499 132.641 43.1401 132.21C46.3204 131.206 49.6729 130.866 52.9901 131.21C54.1633 131.328 55.3036 131.667 56.3501 132.21C57.4963 132.948 58.4051 134.001 58.9674 135.242C59.5298 136.484 59.7217 137.862 59.5201 139.21C59.0497 141.926 57.5531 144.357 55.3401 146" fill="#E7C053"/>
<path d="M117.7 142.33C117.306 143.643 116.554 144.819 115.527 145.728C114.501 146.636 113.241 147.239 111.89 147.47C111.082 147.638 110.241 147.544 109.49 147.2C108.472 146.475 107.745 145.412 107.44 144.2C106.107 141.082 105.183 137.805 104.69 134.45C104.463 133.162 104.649 131.836 105.22 130.66C105.679 129.973 106.316 129.424 107.063 129.072C107.81 128.72 108.638 128.577 109.46 128.66C111.103 128.859 112.656 129.517 113.94 130.56C116.355 132.377 118.229 134.818 119.36 137.62C119.63 138.3 120.01 139.12 120.74 139.16" fill="#E7C053"/>
<path d="M106.08 164.78C108.924 161.794 111.286 158.383 113.08 154.67C113.521 153.854 113.815 152.967 113.95 152.05C114.013 151.592 113.973 151.126 113.835 150.686C113.697 150.245 113.463 149.84 113.15 149.5C112.6 149.031 111.92 148.741 111.2 148.67C109.85 148.533 108.486 148.686 107.2 149.12C104.844 149.832 102.665 151.034 100.805 152.646C98.9455 154.259 97.4475 156.246 96.409 158.478C95.3706 160.71 94.8152 163.135 94.7792 165.597C94.7432 168.058 95.2274 170.499 96.2001 172.76C96.34 173.183 96.5965 173.557 96.9401 173.84C97.2835 173.999 97.6606 174.073 98.0387 174.053C98.4168 174.034 98.7845 173.923 99.1101 173.73C105.97 170.73 103.71 171.73 105.46 169.54" fill="#827140"/>
<path d="M126.72 99.21L113.37 105.35L111.79 105.27L119.93 91.17L112.65 52.29L107.49 67.29L104.88 69.29V58.3L101.42 43.76L98.8699 33.08L97.5499 27.51L75.8399 33.82L59.7399 26.41L55.7399 32.35C55.7399 32.35 55.7399 34.98 55.7399 37.99C55.1099 40.52 53.4599 47.22 53.4599 47.93C53.4599 48.82 54.5899 63.1 54.9599 63.84C55.3299 64.58 50.3499 74.6 50.3499 74.6L55.9799 70.77L59.7799 64.17L62.2699 73.5L66.5099 80.8V101.06L55.7099 105.27L55.0299 105.04L43.9999 101.27L40.6799 63.27L46.6799 26.42L61.6799 5.77002L80.1299 0.77002L103.62 7.77002L118.05 33.77L121 54.92L117.6 58L125.67 86.78L126.72 99.21Z" fill="black"/>
<path d="M53.41 47.09L46.76 61.35L45.67 58.21L43.76 66.06L51.01 103.66C51.01 103.66 60.22 96.55 60.86 95.66C61.5 94.77 59.21 71 59.21 71L56.55 55.24L53.41 47.09Z" fill="#404041"/>
<path d="M53.09 72.75L54.09 80.81L52.29 85.32L51 103.66C51 103.66 62.23 110.81 62.53 110.71C62.83 110.61 70.53 107.5 70.69 107.09C70.85 106.68 74.69 96.36 74.57 94.75C74.45 93.14 74.7 79.18 74.13 78.84C73.56 78.5 67.35 72.48 66.94 72.18C66.53 71.88 62.83 63.26 62.83 63.26L59.35 61.14L53.09 72.75Z" fill="#404041"/>
<path d="M96.5201 80.62L96.3101 84L78.7701 101.26L79.0601 122.7L69.0601 127.52L45.1801 118.18C45.1801 118.18 44.8601 115.18 45.1801 114.75L55.0801 105.06L55.7601 105.29L66.5601 101.08V80.82L62.3201 73.52L59.8301 64.19V63.93L58.8301 58.56L58.0001 56L60.8301 59.18C60.8301 59.18 73.6501 63.18 74.1101 63.18C74.5701 63.18 78.1101 67.18 78.1101 67.18V74L70.6901 72.61L73.8001 77.46L78.1101 78.85V88.8H83.2401L96.5201 80.62Z" fill="#9F5A2A"/>
<path d="M75.84 33.82L72.07 35.35L71.73 39.97L55.75 32.35L59.74 26.41L75.84 33.82Z" fill="#E1C252"/>
<path d="M98.8701 33.08L83.7001 39.99L82.3501 40.6L81.7301 36.02L75.8401 33.82L97.5501 27.5L98.8701 33.08Z" fill="#E1C252"/>
<path d="M101.42 43.76L95.11 40.6C95.11 40.6 81.54 49.35 81.11 49.68C80.68 50.01 83.7001 40 83.7001 40L98.87 33.09L101.42 43.76Z" fill="#F2914B"/>
<path d="M78.4399 61.64L79.6899 56.03L82.0799 61.64H78.4399Z" fill="#602852"/>
<path d="M101.42 51L93.0401 56.7L82.3501 52.12C82.9801 52.12 95.9201 43.28 95.9201 43.28L101.42 47.79V51Z" fill="#602852"/>
<path d="M74.17 63.28C73.7 63.28 60.89 59.23 60.89 59.23L58.06 56.06C57.1354 52.9621 56.3744 49.8178 55.78 46.64C55.78 45.95 55.78 41.7 55.78 38.01C55.78 35.01 55.78 32.37 55.78 32.37L60.78 42.66L60.96 43.31L61.14 43.9L57.21 48.5L64.29 56.74L64.95 56.37L74.17 63.28Z" fill="#F2914B"/>
<path d="M149.29 194.81L149.55 207.98L139.72 216.38L140.79 189.25L132.86 180.56L121.6 152.38L123.31 136.49C124.02 136.12 143.45 127.59 143.45 127.59L131.81 149.59C131.81 149.59 145.37 188.19 146.19 187.24C147.01 186.29 153.4 192.24 153.4 192.24L149.29 194.81Z" fill="#DC9159"/>
<path d="M24.1001 163.94L25.8901 199.3C25.8901 199.3 23.3301 194.07 23.2001 194.43C23.0701 194.79 23.2001 200.75 23.2001 202.55L13.5601 198.36C13.5601 198.36 15.6401 176.08 15.6401 174.51C15.6401 172.94 19.4701 136.06 19.4701 136.06L27.3 140.38C27.3 140.38 31.1101 139.22 34.0001 138.38L24.1001 163.94Z" fill="#DC9159"/>
<path d="M163.2 196L148.08 208.69L147.82 195.51L151.93 192.99C151.93 192.99 145.54 186.99 144.72 187.99C143.9 188.99 130.34 150.34 130.34 150.34L143.55 127.63L162.67 182.89L163.2 196Z" fill="#F1B280"/>
<path d="M108.21 111.6C108.982 113.213 109.837 114.785 110.77 116.31L71.6401 128.57L69.0801 127.57L79.0801 122.75L78.7901 101.31L96.3401 84L97.1201 100.07L111.82 105.26L113.41 105.34L108.21 111.6Z" fill="#A6662F"/>
<path d="M36.21 167.68L34.15 189.94L33 208L23.21 202.57C23.21 200.77 23.11 194.76 23.21 194.45C23.31 194.14 25.9 199.32 25.9 199.32L24.11 163.96L34 138.36C34.7027 138.126 35.4212 137.942 36.15 137.81L34.62 139.93L31.57 151.58L30.9 152.81L36.21 167.68Z" fill="#F1B280"/>
<path d="M76.03 52.31L72.99 47.83L61.6 43.31H60.92L60.74 42.66L55.78 32.37L71.75 40L75.04 45.5L76.03 52.31Z" fill="#F2914B"/>
<path d="M119.93 91.17L111.79 105.27L97.0901 100.07L96.3101 84.01V84L96.5201 80.62L99.86 74.09L104.88 58.3V69.24L107.49 67.25L112.65 52.29L119.93 91.17Z" fill="#404041"/>
<path d="M104.88 58.3L99.8601 74.09L96.5201 80.62L83.2501 88.78H78.1201V78.84L82.0801 78.26L86.2201 73.99L90.3501 69.24L86.2201 72.6L78.1201 73.99V67.25L82.3501 62.89L101.57 56.71L104.88 58.3Z" fill="#A6662F"/>
<path d="M90.3499 69.24L86.2199 73.99L82.0899 78.26L78.1299 78.84L73.8099 77.45L70.7 72.6L76.45 75.58L80.5199 75.15L86.2199 72.6L90.3499 69.24Z" fill="#A96739"/>
<path d="M86.2199 72.6L80.5199 75.15L76.45 75.58L70.7 72.6L78.1299 73.99L86.2199 72.6Z" fill="#9E5C28"/>
<path d="M59.8001 64.17L56.0001 70.77L50.3701 74.6C50.3701 74.6 55.3701 64.6 54.9801 63.84C54.5901 63.08 53.4801 48.84 53.4801 47.93C53.4801 47.22 55.1301 40.52 55.7601 37.99C55.7601 41.67 55.7601 45.92 55.7601 46.62C56.3475 49.7826 57.0951 52.9133 58.0001 56L58.7001 58.51L59.7001 63.88L59.8001 64.17Z" fill="#50493F"/>
<path d="M101.42 47.8V51L93.0401 56.7L82.3501 52.12C82.9801 52.12 95.9201 43.28 95.9201 43.28L101.42 47.8Z" fill="white" stroke="#231F20" stroke-linejoin="round"/>
<path d="M79.3501 220.11L79.1201 239.48L69.4301 243.88C69.4301 243.88 69.4301 228.6 69.4301 227.88C69.4301 227.88 69.3201 227.88 69.2101 227.88L69.0001 228L68.8101 228.11C66.4701 229.46 57.7601 236.31 57.7601 236.31L57.4701 236.07L56.5801 220.07V216.34H56.7901C57.8801 217.61 60.0301 220.07 60.4001 220.07L79.3501 220.11Z" fill="#E7C053"/>
<path d="M132.65 263.49L116.37 355.49L102.29 356.89L77.1299 274.6C77.1299 274.6 87.8799 265.8 98.6399 257.14C100.91 255.31 103.19 253.48 105.36 251.75C105.05 259.46 103.41 293.93 103.41 293.93C103.41 293.93 116.11 322.1 116.47 321.53C116.83 320.96 132.22 265.1 132.65 263.49Z" fill="#827140"/>
<path d="M47.3301 511.19L19.7401 512.76C19.7401 512.76 9.74012 513.97 8.94012 513.76C8.14012 513.55 0.140137 511.59 0.140137 511.59L0.910126 508.2L14.7701 508.91H15.2201L26.0301 509.59L39.9001 506.41L40.4401 506.29H40.6001C40.9601 506.2 46.8301 504.63 47.0101 504.68C47.2501 508.31 47.3301 511.19 47.3301 511.19Z" fill="#827140"/>
<path d="M25.96 509.49L39.94 506.47L26.07 509.65L15.26 508.97L14.81 508.94H14.8L14.77 508.93L15.07 508.94L25.96 509.49Z" fill="#001750"/>
<path d="M47.1299 504.68C46.9499 504.68 41.0799 506.2 40.7199 506.29L40.67 506.16V506.02L40.3499 505.1C40.2599 504.85 40.1599 504.57 40.0399 504.26C39.9199 503.95 39.81 503.61 39.67 503.26L39.5099 502.84C39.4633 502.68 39.4033 502.51 39.3299 502.33L38.5699 500.33C38.4899 500.11 38.4099 499.9 38.3199 499.68C38.0299 498.92 37.73 498.13 37.42 497.34L36.92 496C36.49 494.9 36.0699 493.81 35.6799 492.79C35.5299 492.41 35.3899 492.05 35.2499 491.71C34.8499 490.71 34.4899 489.71 34.1799 488.98C34.1493 488.875 34.1126 488.771 34.0699 488.67L33.92 488.29C33.86 488.13 33.7999 487.98 33.7599 487.86L33.6199 487.51C33.5099 487.21 33.4399 487.05 33.4399 487.05L33.5699 486.27V487.27L48.6199 487.06C48.6499 487 46.9999 498.47 47.1299 504.68Z" fill="#FDC050"/>
<path d="M39.5401 473.41H39.3V472.92L39.5401 473.41Z" fill="#1C387F" stroke="#9BB8C8" stroke-miterlimit="10"/>
<path d="M40.5201 506.34L39.9801 506.47L26.11 509.65L15.2601 509H14.8101L6.31006 504.75L24.7201 495.33L27.1601 497.01L28.0301 497.61L28.6601 498.05L29.4901 498.63C33.7001 501.5 39.4101 505.47 40.5201 506.34Z" fill="#FDC050"/>
<path d="M14.7999 508.94L0.909912 508.23L6.25992 504.68H6.2699L14.7999 508.94Z" fill="#FDC050"/>
<path d="M136.53 502.09L118.7 496.15L117.7 487.08L117.77 487.43L132.17 487.25L136.53 502.09Z" fill="#FDC050"/>
<path d="M141.24 510.39L119.76 509.65C119.76 509.65 117.28 502.1 117.28 501.78L118.73 496.4V496.15L136.56 502.08L141.24 510.39Z" fill="#F4A54B"/>
<path d="M142.39 513.2L131 516.6H122L115.67 510.78L117.31 502.1V501.78C117.31 502.1 119.79 509.65 119.79 509.65L141.27 510.39L142.39 513.2Z" fill="#827140"/>
<path d="M40.72 506.29H40.56L29.56 498.51L28.73 497.93L28.1 497.49L27.23 496.89L24.79 495.21L33.49 486.99C33.49 486.99 33.56 487.15 33.67 487.45L33.81 487.8C33.81 487.92 33.91 488.07 33.97 488.23L34.12 488.61C34.1627 488.711 34.1994 488.815 34.23 488.92L39.56 502.79L39.72 503.21L40.72 505.91C40.72 505.91 40.72 506.12 40.77 506.16C40.82 506.2 40.71 506.25 40.72 506.29Z" fill="#F4A54B"/>
<path d="M55.0699 105L45.1699 114.69L40.8799 117.74C40.8799 117.74 40.7299 118.48 40.4699 119.67C39.4199 124.59 36.7199 137.74 36.1499 137.74C35.4211 137.872 34.7026 138.056 33.9999 138.29C31.1099 139.15 27.2999 140.29 27.2999 140.29L19.4699 135.97L15.9099 121.54L25.5399 129.54L37.1999 117.06L47.5299 108.75L37.9299 99.39L43.9999 101.14L55.0699 105Z" fill="#827140"/>
<path d="M20.7501 255.67C20.7501 255.67 14.1001 259.75 13.9901 260.24C13.8801 260.73 5.08011 252.77 4.04011 251.82C3.73011 258 4.20012 282.08 4.20012 282.08L5.9301 283.52L16.9301 279.73L25.5001 270.38L20.7501 255.67ZM5.9301 279.9L6.9301 263.47L9.64012 277L5.9301 279.9Z" fill="#E7C053"/>
<path d="M17.7901 199.56L15.6601 219.32L13.6601 204.27L9.66005 198.43C9.65563 198.38 9.65563 198.33 9.66005 198.28L13.55 198.36L17.7901 199.56Z" fill="#E7C053"/>
<path d="M35.16 211.05L21.08 245.04L13.99 234.86L17.79 199.56L32.97 207.98L35.16 211.05Z" fill="#827140"/>
<path d="M20.2199 254.06L20.7499 255.67L15.7199 251.3H6.8999L10.3299 247.35L21.0799 245.04L20.2199 254.06Z" fill="#F4A54B"/>
<path d="M113.27 172.45C113.27 172.45 107.93 189.78 107.89 189.78L107.95 190.05C106.58 188.05 97.9501 185.77 97.5401 185.77C97.1301 185.77 91.3601 183.33 88.7301 182.32C88.7254 182.284 88.7254 182.247 88.7301 182.21C89.1801 180.12 89.4701 178.7 89.4701 178.7L92.0601 179.8L99.8401 167.8L106.47 158.52L111.35 153.79L116.35 144.58C118.43 146.09 121.58 152.39 121.58 152.39L113.27 172.45Z" fill="#E7C053"/>
<path d="M111.37 153.78L103.27 158.87L99.86 167.79L92.08 179.79L89.49 178.69L70.75 170.69L56.62 178.08L55.07 178.89L46.31 165.59L41 166H55.1L65.6 145.69L70.26 162L74.89 148.08C74.89 148.08 92.83 162.81 93.19 162.65C93.55 162.49 110.83 154.05 111.37 153.78Z" fill="#827140"/>
<path d="M48.6299 254.13L32.8799 240.86L39.1799 224.24C39.6199 224.54 40.9899 226.19 41.6999 226.73L48.6299 254.13Z" fill="#F4A54B"/>
<path d="M57.7999 236.31C57.7999 236.31 45.69 229.73 41.7 226.73C40.99 226.19 39.6199 224.54 39.1799 224.24L45.4399 212.17L56.6199 220.11L57.7999 236.31Z" fill="#827140"/>
<path d="M117.09 224.48L106.48 227.08L83.8201 234.86V220.11L112.21 209.95L117.09 224.48Z" fill="#827140"/>
<path d="M116.37 355.47C116.37 355.47 111.37 376.07 111.14 376.95C110.91 377.83 102.29 356.87 102.29 356.87L116.37 355.47Z" fill="#F4A54B"/>
<path d="M78.43 306.25C78.69 304.87 69.43 354.48 69.43 354.48L64 363.11C64 363.11 66.93 351.42 67.18 350.62C67.43 349.82 76 302.1 76 302.1C76 302.1 66.63 298.66 68.3 298.91C70.8848 299.049 73.4752 299.049 76.06 298.91L81.13 297.38L93.5 361.7C93.06 360.08 78.17 307.61 78.43 306.25Z" fill="#FDC050"/>
<path d="M125.72 355.47L132.66 263.47L116.38 355.47C116.38 355.47 111.38 376.07 111.15 376.95C110.92 377.83 102.3 356.87 102.3 356.87L77.14 274.58C77.14 274.58 87.89 265.78 98.65 257.12L106.49 227.12L83.83 234.9V237.39L79.14 239.52L69.45 243.92L58 236.42L57.54 236.07C56.12 234.96 45.24 229.38 41.73 226.73L48.66 254.13L50.66 256.26L69.47 276.33L53.23 361.74L40.29 353.74L27.72 283.68L23.97 327.22L30.19 349.62L28 377L32.83 387L33.59 473.38H39.31V416.18C39.31 415.03 57.43 375.6 57.43 375.6L65.81 394.47L46.72 473.38L52.55 473.14L73.36 392.44L64 363.11C64 363.11 66.92 351.42 67.18 350.62C67.44 349.82 76 302.1 76 302.1C76 302.1 66.63 298.66 68.29 298.91C70.8748 299.048 73.4651 299.048 76.05 298.91L81.12 297.38L93.49 361.7L91.21 387.41C91.21 387.41 115.21 478.55 116.21 479.41C116.366 479.505 116.539 479.566 116.72 479.59C119.323 479.703 121.93 479.679 124.53 479.52H125.42L116.47 419.44C116.47 419.44 127.3 383.44 127.3 382.75C127.3 382.06 132.54 386.17 132.54 386.17L130.71 479.29L132.09 479.22L132.31 477.52C132.69 464.74 137.08 384.85 138.05 384.6C139.02 384.35 125.72 355.47 125.72 355.47ZM34.47 372.29L38 355.47C39 355.9 48.77 366.22 48.77 366.22L34.47 372.29Z" fill="#FDC050"/>
<path d="M124.29 240C117.635 243.327 111.298 247.257 105.36 251.74C103.19 253.47 100.91 255.3 98.6401 257.13L106.48 227.13L117.09 224.53L123.89 239.01L124.29 240Z" fill="#F4A54B"/>
<path d="M161.9 279.62L159 287.04L144.69 294.53L136.18 291.12L133.28 271.73H139.73V283.52L150.81 286.28L161.9 279.62Z" fill="#E7C053"/>
<path d="M153.83 220.11V250.35L150.22 257.08L144.75 249.93L137.61 217.21C137.61 217.21 143.93 229.67 144.14 230.3C144.23 230.58 148.77 225.69 153.83 220.11Z" fill="#827140"/>
<path d="M168.5 198.24C168.5 198.24 168.15 200.8 167.62 204.76C167.43 204.98 160.22 213.08 153.84 220.1C148.78 225.68 144.24 230.57 144.15 230.29C143.94 229.66 137.62 217.2 137.62 217.2L139.74 216.37L149.56 207.97L164.68 195.29L165.87 194.11L168.5 198.24Z" fill="#F4A54B"/>
<path d="M132.61 386.15L130.78 479.27C129.47 479.34 127.5 479.44 125.49 479.5L116.54 419.42C116.54 419.42 127.37 383.42 127.37 382.73C127.37 382.04 132.61 386.15 132.61 386.15Z" fill="#827140"/>
<path d="M112.84 119.81L78.84 131.05L69.4 144.57L60.32 129.68L40.46 119.77C40.72 118.58 40.87 117.84 40.87 117.84L45.16 114.84C44.85 115.29 45.16 118.26 45.16 118.26L69.04 127.59L71.6 128.59L110.72 116.35L112.84 119.81Z" fill="#E7C053"/>
<path d="M69.4299 276.33L53.1899 361.74L40.2499 353.74L27.6799 283.68V283.51C28.3399 286 41.4499 319.08 41.6199 319.92C41.7899 320.76 52.2299 295.38 52.2299 295.38L50.6199 256.27L69.4299 276.33Z" fill="#827140"/>
<path d="M48.76 366.22L34.47 372.29L38 355.47C39 355.9 48.76 366.22 48.76 366.22Z" fill="#F4A54B"/>
<path d="M123.44 136.36L121.6 152.36C121.6 152.36 117.74 146.72 116.37 144.55C113.02 139.24 105.37 134.04 104.95 133.7C104.32 133.22 86.6901 133.65 86.6901 133.65L74.8901 148.04L70.2601 162L65.6001 145.71L55.0701 135.08H37.9101L34.6001 139.95L36.1301 137.83C36.7001 137.83 39.4001 124.68 40.4501 119.76L60.3101 129.68L69.3901 144.59L78.8301 131L112.83 119.74C117.29 127.19 123 136.59 123.44 136.36Z" fill="#F4A54B"/>
<path d="M155.98 276.95L150.81 281.64L152.62 274.58V262.46L155.98 276.95Z" fill="#827140"/>
<path d="M9.63995 276.95L5.92993 279.9L6.89993 263.47L9.63995 276.95Z" fill="#827140"/>
<path d="M65.8101 394.5L46.7201 473.41H39.5401L39.3 472.92V416.21C39.3 415.06 57.4201 375.63 57.4201 375.63L65.8101 394.5Z" fill="#827140"/>
<path d="M52.56 473.16L48.56 487.04L33.5 487.25L33.51 486.26L33.6 473.41L52.56 473.16Z" fill="#F4A54B"/>
<path d="M132.17 479.2V487.2L117.77 487.38L117.7 487.03L116.79 479.54C119.393 479.653 122 479.629 124.6 479.47C126.91 479.47 129.28 479.3 130.77 479.22L132.17 479.2Z" fill="#F4A54B"/>
<path d="M147.77 108.75L143.58 127.46L125.4 128.82L108.21 111.6L147.77 108.75Z" fill="#F4A54B"/>
<path d="M143.58 127.46C143.58 127.46 124.15 135.99 123.44 136.36C123 136.59 117.22 127.14 112.77 119.72L110.68 116.23C109.759 114.741 108.934 113.194 108.21 111.6L125.4 128.83L143.58 127.46Z" fill="#827140"/>
<path d="M47.5101 108.88L37.1801 117.19L25.5201 129.67L15.8901 121.63L23.7801 106.24L43.7601 108.88L37.9101 99.53L47.5101 108.88Z" fill="#F4A54B"/>
<path d="M81.7301 36.02L97.5501 27.5L75.8401 33.82L81.7301 36.02Z" fill="#F2914B"/>
<path d="M79.3401 65.99L101.57 56.71L104.52 59.67L104.88 58.3L101.57 56.71L82.3501 62.89L79.3401 65.99Z" fill="#BC7645"/>
<path d="M77.0499 66.06L60.8599 59.21L74.1399 63.26L77.0499 66.06Z" fill="#9B5023"/>
<path d="M96.5199 80.62L85.1699 89.41L83.2299 90.35L79.4199 89.47L77.9199 89L83.2499 88.78L96.5199 80.62Z" fill="#9B5023"/>
<path d="M66.53 81.95L77.92 89L66.53 80.8V81.95Z" fill="#9B5023"/>
<path d="M66.53 80.8C66.53 80.97 78.12 88.8 78.12 88.8H83.25L83.08 89.49L77.92 89.01C77.92 89.01 68.11 82.83 68.06 82.85C68.01 82.87 66.53 80.8 66.53 80.8Z" fill="#9B5023"/>
<path d="M75.8401 33.82C75.8401 33.82 70.7701 25.25 70.7001 24.5C70.6301 23.75 80.2601 6.34998 80.2601 6.34998C80.2601 6.34998 75.2601 22.04 75.4801 22.23C75.7001 22.42 81.1001 31.76 81.1001 31.76L75.8401 33.82Z" fill="#282A2A"/>
<path d="M103.66 7.79C103.03 7.6 95.1101 11.22 95.1101 11.22C95.1101 11.22 88.6901 27.74 88.9701 27.51C89.2501 27.28 96.3101 12.74 96.3101 12.74L103.66 7.79Z" fill="#282A2A"/>
<path d="M46.7 26.41L62.7999 17.65L71.7299 20.08L61.7199 5.75L46.7 26.41Z" fill="#282A2A"/>
<path d="M98.6399 369.73C99.1599 370.64 113.55 408.6 113.55 408.6L94.6299 386.8L98.6399 369.73Z" fill="#F4A54B"/>
<path d="M48.76 372.29L36.04 376.98L39.3 416.21L57.43 375.63L48.76 372.29Z" fill="#F4A54B"/>
<path d="M57.9701 236.42L52.5601 258.32L69.4301 276.33L67.2701 287.65L74.5601 289.61L81.2101 287.91L77.1301 274.58L93.5201 261.25L102.29 227.87L83.8201 234.86L83.8101 237.35L69.4301 243.88L57.9701 236.42Z" fill="#F4A54B"/>
<path d="M143.58 127.46C143.58 127.46 155 156.54 154.97 156.46C154.94 156.38 131.81 149.61 131.81 149.61L143.58 127.46Z" fill="#827140"/>
<path d="M131.81 149.6L121.6 152.38L123.44 136.36L143.58 127.46" fill="#E7C053"/>
<path d="M154.97 156.45L164.14 182.14L164.67 195.3L146.19 187.25L154.97 156.45Z" fill="#F4A54B"/>
<path d="M146.19 187.25L149.55 208C149.55 208 165.17 195.53 164.67 195.32L146.19 187.25Z" fill="#827140"/>
<path d="M36.1299 137.81L34.5999 139.93L31.5499 151.59L30.8799 152.82C30.8799 152.82 36.8799 166.96 36.2099 167.68C35.5399 168.4 24.7899 177.68 24.7899 177.68L20.6599 151.59L27.2799 140.38L36.1299 137.81Z" fill="#F4A54B"/>
<path d="M27.28 140.38L19.45 136.06L14.75 185.15L24.79 177.68L20.66 151.59L27.28 140.38Z" fill="#E7C053"/>
<path d="M82.35 40.6L77.05 48.87L75.02 45.48L71.73 39.97L72.07 35.35L75.84 33.82L81.73 36.02L82.35 40.6Z" fill="#F3EB50"/>
<path d="M82.3501 62.89L78.1201 67.25C78.1201 67.25 74.6001 63.25 74.1201 63.25L64.8701 56.34C66.8701 55.2 73.0501 51.8 73.4601 51.8L61.55 43.28L73.0001 47.8L76.0001 52.29L75.0001 45.48L77.0001 48.87L77.7901 54.72L77.6001 63.91L82.3501 62.89Z" fill="#F3EB50"/>
<path d="M15.72 251.3L20.72 255.67C20.72 255.67 14.07 259.75 13.96 260.24C13.85 260.73 5.05005 252.77 4.01005 251.82C3.99411 251.345 4.04803 250.87 4.17006 250.41C4.75006 249.49 9.23003 201.36 9.61003 198.41L13.61 204.25L15.61 219.3L14 234.86L21.08 245L10.33 247.31L6.90004 251.26L15.72 251.3Z" fill="#F3EB50"/>
<path d="M21.0799 287.8L13.2299 289.61L5.92993 283.52L16.95 279.73L25.5199 270.38L25.6599 276.75L21.0799 287.8Z" fill="#F3EB50"/>
<path d="M89.4899 178.7C89.4899 178.7 89.1999 180.12 88.7499 182.21C88.7452 182.247 88.7452 182.283 88.7499 182.32C87.4499 188.32 84.8499 199.73 83.8299 199.56C82.4599 199.31 69.4499 193.85 69.4499 193.85L57.9999 199.56L56.6099 178.13L70.7399 170.74L89.4899 178.7Z" fill="#F3EB50"/>
<path d="M116.37 144.57L111.37 153.78C110.83 154.05 93.5501 162.47 93.1901 162.63C92.8301 162.79 74.8901 148.06 74.8901 148.06L86.6901 133.67C86.6901 133.67 104.32 133.24 104.95 133.72C105.38 134.06 111.56 141.08 116.37 144.57Z" fill="#F3EB50"/>
<path d="M69.4301 243.88L57.8 236.31C59.66 234.81 67.2401 229 69.0401 228L69.1901 227.92C69.3001 227.92 69.3701 227.86 69.4101 227.92C69.4501 227.98 69.4101 227.92 69.4101 227.92C69.4701 228.6 69.4301 243.88 69.4301 243.88Z" fill="#F3EB50"/>
<path d="M132.66 263.45C132.23 265.06 116.83 320.92 116.48 321.45C116.13 321.98 103.42 293.85 103.42 293.85C103.42 293.85 105.06 259.38 105.37 251.67C111.308 247.212 117.641 243.305 124.29 240L132.66 263.45Z" fill="#F3EB50"/>
<path d="M167.61 204.77C167.42 204.99 160.21 213.09 153.83 220.11V250.35L150.22 257.08L144.75 249.93L134.21 265.43L133.28 271.73H139.73V283.52L150.81 286.28L161.9 279.62C161.9 279.62 161.64 247.46 161.9 246.36C162.11 245.51 165.87 217.72 167.61 204.77ZM150.81 281.64L152.62 274.58V262.46L156 277L150.81 281.64Z" fill="#F3EB50"/>
<path d="M65.5901 145.69L55.08 166H40.9901L38.9201 164.53L31.55 151.59L34.6001 139.94V139.93L37.9001 136.45L55.0701 135.06L65.5901 145.69Z" fill="#F3EB50"/>
<path d="M83.8201 220.11V234.86V237.35L79.1301 239.48L79.3601 220.11H60.4401C60.0701 220.11 57.9201 217.65 56.8301 216.38L83.8301 215.22V220.11H83.8201Z" fill="#F3EB50"/>
<path d="M52.2299 295.37C52.2299 295.37 41.7899 320.77 41.6199 319.91C41.4499 319.05 28.3399 286 27.6799 283.5V282.6L32.1799 242.39L32.8499 240.88L48.5999 254.15L50.5999 256.28L52.2299 295.37Z" fill="#F3EB50"/>
<path d="M147.77 108.75L108.21 111.6L113.5 105.22L126.85 99.08L129.03 97.76L147.77 108.75Z" fill="#F3EB50"/>
<path d="M43.76 108.88L23.78 106.24L37.91 99.53L43.76 108.88Z" fill="#F3EB50"/>
<path d="M121.6 152.38L132.86 180.56L140.79 189.25L139.73 216.38C139.73 216.38 149.57 209.38 149.55 207.98C149.53 206.58 146.19 187.25 146.19 187.25L154.97 156.45C154.97 156.45 133.2 148.45 132.33 148.61C131.46 148.77 121.6 152.38 121.6 152.38Z" fill="#F3EB50"/>
<path d="M36.22 167.69L33 208L21.75 201.94L24.83 177.7C24.83 177.7 35.5 168.17 36.22 167.69Z" fill="#F3EB50"/>
<path d="M24.8 177.68L21.72 201.92L17.79 199.56L13.54 198.36C13.54 198.36 16.54 166.89 16.46 167.28C16.38 167.67 24.8 177.68 24.8 177.68Z" fill="#F4A54B"/>
<path d="M112.21 210L83.8199 220.16V215.27L56.6299 216.43V220.16L45.4499 212.22L43.3699 178.22L38.0699 170.22L36.2299 167.76L30.8999 152.9L31.5699 151.67L38.9399 164.61L40.9999 166L46.3199 165.64L55.0799 178.94L56.6299 178.13L57.9999 199.56L69.4199 193.85L83.7999 199.56L88.7199 182.32C91.3499 183.32 97.0999 185.77 97.5299 185.77C97.9599 185.77 106.53 188.03 107.94 190.05C108.39 192.37 112.21 210 112.21 210Z" fill="#E7C053"/>
<path d="M112.84 167.37C112.71 167.81 101.84 180.44 101.84 180.44L101.51 185.85L112.84 167.37Z" fill="#F4A54B"/>
<path d="M112.43 161.74C112.27 162.16 100.52 173.99 100.52 173.99L99.8101 179.37L112.43 161.74Z" fill="#F4A54B"/>
<path d="M82.0799 61.64H78.4399L79.6899 56.03L82.0799 61.64Z" fill="#F4A54B"/>
<path d="M73.4799 51.81C73.0699 51.81 66.9199 55.21 64.8899 56.35L64.2299 56.71L57.1499 48.48L60.2499 43.48L60.7099 42.66L73.4799 51.81Z" fill="white" stroke="#231F20" stroke-linejoin="round"/>
<path d="M136.24 184.26C136.6 184.66 146.69 185.15 146.69 185.15L151.47 184.71L140.79 189.25L136.24 184.26Z" fill="#827140"/>
<path d="M89.4899 178.7C89.4199 179.02 89.3599 179.48 89.2899 179.81L88.7499 182.35V182.46L83.8299 199.7L70.5299 204.36L57.9999 199.7L56.6099 178.13L70.7399 170.74L89.4899 178.7Z" fill="#F3EB50"/>
</svg>
