<svg width="162" height="516" viewBox="0 0 162 516" fill="none" xmlns="http://www.w3.org/2000/svg">
<path d="M123.47 102.73L115.79 104.48L114.2 104.4L120 89.79L112.72 50.91L107.56 65.91L104.95 67.91V56.91L101.49 42.37L98.9999 31.7L97.6799 26.12L75.9699 32.44L59.8299 25L55.8299 30.95C55.8299 30.95 55.8299 33.58 55.8299 36.59C55.1999 39.12 53.5499 45.82 53.5499 46.53C53.5499 47.42 54.6799 61.7 55.0399 62.44C55.3999 63.18 50.4399 73.2 50.4399 73.2L56.0699 69.37L60.7399 61.99L63.3999 72.1L68.6999 78.83L68.1299 99.57L55.8199 103.87L55.1399 103.63L45.9999 100.87L43.1699 62.87L46.7899 25L61.7899 6.09L80.2399 0.630005L101.62 7.63L116 32.4L119 53.54L117.73 56.59L123.42 86.13L123.47 102.73Z" fill="black"/>
<path d="M53.5 45.7L49.27 61L48.18 57.86L46.27 65.7L51.1 102.3C51.1 102.3 60.31 95.19 60.95 94.3C61.59 93.41 59.3 69.63 59.3 69.63L56.64 53.86L53.5 45.7Z" fill="#404041"/>
<path d="M53.1801 71.37L54.1801 79.43L52.3801 83.94L51.0801 102.27C51.0801 102.27 62.3101 109.42 62.6101 109.27C62.9101 109.12 70.6101 106.06 70.7701 105.66C70.9301 105.26 74.7701 94.93 74.6501 93.32C74.5301 91.71 74.7801 77.74 74.2101 77.41C73.6401 77.08 67.4201 71.05 67.0201 70.75C66.6201 70.45 62.9101 61.83 62.9101 61.83L59.4301 59.71L53.1801 71.37Z" fill="#404041"/>
<path d="M95.1999 79.19L94.9799 82.57L78.8599 99.88L79.1499 121.32L69.1499 126.14L45.2699 116.81C45.2699 116.81 44.9499 113.81 45.2699 113.38L55.1699 103.68L55.8499 103.92L70.5899 98.52L68.7299 78.88L63.4299 72.15L60.7599 62V61.73L58.8499 57.15L58.1499 54.64L60.9799 57.82C60.9799 57.82 73.7999 61.82 74.2599 61.82C74.7199 61.82 78.2599 65.82 78.2599 65.82V72.56L70.8399 71.17L73.9499 76.03L78.2599 77.42V87.36H83.3899L95.1999 79.19Z" fill="#9F5A2A"/>
<path d="M75.9301 32.44L72.1601 33.96L71.8101 38.59L55.8401 30.97L59.8301 25.02L75.9301 32.44Z" fill="#E1C252"/>
<path d="M98.9599 31.7L83.7899 38.6L82.4399 39.22L81.8199 34.63L75.9299 32.44L97.6299 26.12L98.9599 31.7Z" fill="#E1C252"/>
<path d="M101.51 42.37L95.2 39.22C95.2 39.22 81.63 47.97 81.2 48.29C80.77 48.61 83.76 38.6 83.76 38.6L99 31.7L101.51 42.37Z" fill="#F2914B"/>
<path d="M101.51 42.38L95.1999 39.23C95.1999 39.23 81.6299 47.97 81.1999 48.3C80.7699 48.63 83.7599 38.61 83.7599 38.61L82.4099 39.23L77.1099 47.49L77.9099 53.35L77.7099 62.53L82.4099 61.53L101.63 55.36L104.94 56.94L101.51 42.38ZM78.5099 60.27L79.7699 54.66L82.1499 60.27H78.5099ZM101.51 49.63L93.1299 55.34L82.4399 50.76C83.0699 50.76 96.0099 41.91 96.0099 41.91L101.51 46.43V49.63Z" fill="#F3EB50"/>
<path d="M74.2601 61.9C73.7901 61.9 60.9801 57.85 60.9801 57.85L58.1401 54.68C57.2224 51.581 56.4648 48.4368 55.8701 45.26C55.8701 44.57 55.8701 40.31 55.8701 36.63V31L60.8701 41.29L61.0501 41.94L61.2301 42.53L57.3001 47.13L64.3801 55.36L65.0001 55L74.2601 61.9Z" fill="#F2914B"/>
<path d="M145.52 195.89L145.73 206.6L137.83 213.29L138.08 198.61V198.47L138.26 187.65V187.34L137.01 183.34L135.31 177.9L118.41 148.54V148.47L117.8 147.4L117.94 146.9L119.14 142.56L121.14 135.16C121.85 134.79 136.87 129.5 136.87 129.5L133.93 140.6L132 147.88L131.91 148.22C131.91 148.22 131.91 148.33 131.91 148.43V148.56C131.91 148.61 131.91 148.67 131.91 148.73C131.91 148.79 131.97 148.98 132.01 149.13L132.14 149.64C132.14 149.82 132.23 150.01 132.29 150.22C132.37 150.5 132.44 150.8 132.52 151.13C132.52 151.18 132.52 151.24 132.52 151.29C132.59 151.55 132.66 151.82 132.73 152.11C132.8 152.4 132.88 152.7 132.96 153.01C133.04 153.32 133.05 153.38 133.1 153.58C133.26 154.19 133.43 154.85 133.6 155.53C133.72 155.98 133.83 156.44 133.96 156.91C134.02 157.16 134.09 157.42 134.15 157.68C134.69 159.75 135.27 162.03 135.88 164.36C135.96 164.65 136.04 164.95 136.11 165.24L136.81 167.89C136.89 168.19 136.97 168.48 137.04 168.77C137.35 169.94 137.67 171.1 137.97 172.24C138.05 172.52 138.13 172.81 138.2 173.09L138.65 174.74C138.73 175.01 138.8 175.28 138.87 175.55C139.53 177.94 140.15 180.09 140.67 181.81C140.73 182 140.78 182.18 140.84 182.36C140.97 182.8 141.1 183.21 141.22 183.58C141.34 183.95 141.37 184.02 141.44 184.22L141.56 184.57C141.68 184.9 141.79 185.18 141.87 185.38C141.922 185.502 141.986 185.62 142.06 185.73C142.078 185.761 142.102 185.788 142.13 185.81C142.13 185.81 142.19 185.81 142.21 185.81C142.245 185.774 142.287 185.746 142.334 185.729C142.38 185.712 142.43 185.705 142.48 185.71C142.56 185.697 142.641 185.697 142.72 185.71L142.99 185.8H143.04L143.3 185.93C143.45 186 143.61 186.1 143.78 186.2C144.18 186.45 144.63 186.77 145.09 187.12C145.253 187.231 145.41 187.351 145.56 187.48C146.75 188.4 147.96 189.48 148.7 190.14C148.761 190.188 148.818 190.242 148.87 190.3L149.39 190.77L145.28 193.3V195.3L145.52 195.89Z" fill="#DC9159"/>
<path d="M36.5699 137L35.2499 139.77L25.9499 159.33L26.0599 175.67L26.1799 194.3C25.4956 193.895 24.7914 193.524 24.0699 193.19C23.6599 193.02 23.3399 192.92 23.2999 193.04C23.1799 193.34 23.2499 198.97 23.2999 200.97V201.16L21.5099 200.04L16.6499 197.04C16.6499 197.04 17.2099 188.88 17.6499 181.99C17.9499 177.35 18.2099 173.28 18.2099 172.65C18.2099 172.32 18.5199 170.39 18.9899 167.58C19.7199 163.34 20.8399 157.06 21.9099 151.16C22.0599 150.34 22.1999 149.53 22.3499 148.73C23.6999 141.31 24.8499 135.04 24.8499 135.04L28.2699 138.69L28.9399 139.41C31.2674 138.122 33.8264 137.306 36.4699 137.01L36.5699 137Z" fill="#DC9159"/>
<path d="M158.08 196L147.08 205.39L145.74 206.54L145.53 195.83V195.33V193.33L149.64 190.8L149.12 190.33C149.068 190.272 149.011 190.218 148.95 190.17C148.21 189.5 147 188.43 145.81 187.51C145.66 187.381 145.503 187.261 145.34 187.15C144.88 186.8 144.43 186.48 144.03 186.23C143.86 186.13 143.7 186.03 143.55 185.96L143.29 185.83H143.24L142.97 185.74C142.891 185.727 142.81 185.727 142.73 185.74C142.68 185.735 142.63 185.742 142.584 185.759C142.537 185.776 142.495 185.804 142.46 185.84C142.46 185.84 142.41 185.84 142.38 185.84C142.352 185.818 142.328 185.791 142.31 185.76C142.236 185.65 142.172 185.532 142.12 185.41C142 185.13 141.85 184.74 141.69 184.25C141.62 184.05 141.54 183.84 141.47 183.61C141.4 183.38 141.22 182.83 141.09 182.39C141.03 182.21 140.98 182.03 140.92 181.84C140.4 180.12 139.78 177.97 139.12 175.58C139.05 175.31 138.98 175.04 138.9 174.77L138.45 173.12C138.38 172.84 138.3 172.55 138.22 172.27C137.92 171.13 137.6 169.97 137.29 168.8C137.22 168.51 137.14 168.22 137.06 167.92L136.36 165.27C136.29 164.98 136.21 164.68 136.13 164.39C135.52 162.06 134.94 159.78 134.4 157.71C134.34 157.45 134.27 157.19 134.21 156.94C134.08 156.47 133.97 156.01 133.85 155.56C133.68 154.88 133.51 154.22 133.35 153.61C133.3 153.41 133.26 153.22 133.21 153.04C133.05 152.42 132.9 151.84 132.77 151.32C132.77 151.32 132.77 151.21 132.77 151.16C132.69 150.83 132.62 150.53 132.54 150.25C132.48 150.04 132.43 149.85 132.39 149.67L132.26 149.16C132.26 149.01 132.19 148.87 132.16 148.76C132.13 148.65 132.16 148.64 132.16 148.59V148.46C132.16 148.36 132.16 148.28 132.16 148.25L132.25 147.91L134.19 140.59L137.13 129.49L138.46 133.14L145.91 153.52L146.07 153.96L149.55 163.46L156.48 182.46L157.77 191.9L158.08 196Z" fill="#F1B280"/>
<path d="M107.58 109.8C107.58 109.8 109.02 111.88 110.83 114.92L71.7001 127.15L69.1401 126.15L79.1401 121.33L78.8501 99.89L95.0001 82.57L94.5401 98.9L114.22 104.4L115.81 104.48L107.58 109.8Z" fill="#A6662F"/>
<path d="M36.38 137.37L35.25 139.74L35.63 138.16L36.45 137.02V136.94C36.4042 136.87 36.3763 136.79 36.3688 136.706C36.3613 136.623 36.3744 136.539 36.407 136.462C36.4397 136.385 36.4907 136.317 36.5558 136.264C36.6208 136.212 36.6978 136.176 36.78 136.16H36.85H36.93H37.08L36.46 137.03C36.46 137.03 36.46 137.03 36.46 137.1L36.28 137.49L36.38 137.37Z" fill="#F1B280"/>
<path d="M36.6399 160.33L37.1199 161.26V161.33L36.5899 166.33V166.44L34.2599 188.53L30.7699 204.86L28.2199 203.59L23.2899 201.14V201C23.2899 200.61 23.2899 200.08 23.2899 199.48C23.2899 197.57 23.2899 194.94 23.2899 193.73C23.2899 193.57 23.2899 193.44 23.2899 193.33C23.2899 193.22 23.2899 193.21 23.2899 193.16C23.2878 193.13 23.2878 193.1 23.2899 193.07C23.2899 192.95 23.6499 193.07 24.0599 193.22L24.2799 193.32L24.5099 193.43L24.7499 193.55C25.2299 193.79 25.6999 194.06 25.9599 194.21L26.1199 194.3H26.1699L26.0499 175.67L25.9399 159.33L35.2399 139.77L32.7499 150.22L32.0699 151.44C32.0897 151.485 32.1131 151.529 32.1399 151.57L36.6099 160.28C36.6099 160.28 36.6299 160.32 36.6399 160.33Z" fill="#F1B280"/>
<path d="M76.1201 50.93L73.0801 46.45L61.6901 41.93H61.0101L60.8301 41.28L55.8701 30.99L71.8401 38.61L75.1301 44.12L76.1201 50.93Z" fill="#F2914B"/>
<path d="M82.4401 39.22L77.1401 47.48L75.11 44.1L71.8101 38.59L72.1601 33.96L75.9301 32.44L81.8201 34.63L82.4401 39.22Z" fill="#F3EB50"/>
<path d="M120.02 89.79L114.2 104.4L92.45 98.9L94.9799 82.57V82.56L95.2 79.19L98.8799 72.71L104.97 56.91V67.86L107.57 65.86L112.74 50.91L120.02 89.79Z" fill="#404041"/>
<path d="M104.97 56.91L98.88 72.71L95.2 79.19L83.33 87.4H78.21V77.46L82.17 76.88L86.31 72.6L90.44 67.86L86.31 71.22L78.21 72.6V65.86L82.44 61.51L101.66 55.33L104.97 56.91Z" fill="#A6662F"/>
<path d="M90.44 67.86L86.31 72.6L82.18 76.88L78.21 77.46L73.9 76.07L70.79 71.22L76.54 74.19L80.61 73.77L86.31 71.22L90.44 67.86Z" fill="#A96739"/>
<path d="M86.31 71.22L80.61 73.77L76.54 74.19L70.79 71.22L78.21 72.6L86.31 71.22Z" fill="#9E5C28"/>
<path d="M82.17 60.26H78.53L79.79 54.65L82.17 60.26Z" fill="#F4A54B"/>
<path d="M82.4399 61.51L78.2099 65.86C78.2099 65.86 74.6899 61.86 74.2099 61.86L64.9999 55C66.9999 53.87 73.1799 50.46 73.5899 50.46L61.6799 41.94L73.0799 46.46L76.0799 50.95L75.0799 44.14L77.0799 47.52L77.8699 53.38L77.6799 62.57L82.4399 61.51Z" fill="#F3EB50"/>
<path d="M60.76 62L56.09 69.38L50.46 73.21C50.46 73.21 55.46 63.21 55.06 62.45C54.66 61.69 53.57 47.45 53.57 46.54C53.57 45.83 55.22 39.13 55.85 36.6C55.85 40.28 55.85 44.53 55.85 45.23C56.4507 48.4031 57.2117 51.5438 58.13 54.64L58.83 57.15L60.74 61.73L60.76 62Z" fill="#50493F"/>
<path d="M101.51 46.42V49.63L93.1299 55.33L82.4399 50.75C83.0699 50.75 96.0099 41.9 96.0099 41.9L101.51 46.42Z" fill="white" stroke="#231F20" stroke-linejoin="round"/>
<path d="M73.57 50.42C73.16 50.42 67.01 53.83 64.98 54.96L64.32 55.33L57.24 47.09L60.34 42.09L60.8 41.28L73.57 50.42Z" fill="white" stroke="#231F20" stroke-linejoin="round"/>
<path d="M79.44 218.73L79.21 238.09L69.52 242.49C69.52 242.49 69.52 227.22 69.52 226.49C69.4432 226.483 69.3663 226.501 69.3 226.54L69.15 226.62L68.96 226.73C66.62 228.08 57.91 234.93 57.91 234.93L57.62 234.69L56.73 218.69V215H56.94C58.03 216.28 60.18 218.74 60.55 218.74L79.44 218.73Z" fill="#E7C053"/>
<path d="M128.11 266.64L116.46 354.09L102.37 355.49L77.22 273.2C77.22 273.2 87.97 264.4 98.73 255.74C101 253.91 103.28 252.08 105.45 250.35C105.14 258.06 103.5 292.53 103.5 292.53C103.5 292.53 116.2 320.69 116.56 320.13C116.92 319.57 127.68 268.25 128.11 266.64Z" fill="#827140"/>
<path d="M47.42 509.81L19.83 511.38C19.83 511.38 9.82997 512.59 9.02997 512.38C8.22997 512.17 0.22998 510.21 0.22998 510.21L0.999969 506.82L14.86 507.52H15.31L26.12 508.21L40 505.09L40.54 504.97C40.5929 504.961 40.647 504.961 40.7 504.97V504.97C41.06 504.87 46.93 503.31 47.11 503.36C47.34 506.93 47.42 509.81 47.42 509.81Z" fill="#827140"/>
<path d="M26.0499 508.11L40.0299 505.09L26.1599 508.27L15.3499 507.58L14.8999 507.56H14.8899L14.8599 507.54L15.1599 507.56L26.0499 508.11Z" fill="#001750"/>
<path d="M47.22 503.3C47.04 503.3 41.17 504.81 40.81 504.91L40.76 504.78V504.64L40.44 503.72C40.35 503.47 40.25 503.19 40.13 502.88C40.01 502.57 39.9 502.23 39.76 501.88L39.6 501.47C39.55 501.31 39.49 501.13 39.42 500.96L38.66 498.96L38.41 498.3L37.51 495.96C37.34 495.52 37.18 495.07 37.01 494.63C36.58 493.53 36.15 492.44 35.76 491.42C35.62 491.04 35.48 490.68 35.34 490.34C34.94 489.29 34.58 488.34 34.27 487.61C34.2394 487.505 34.2027 487.401 34.16 487.3L34.01 486.91C33.95 486.76 33.89 486.61 33.85 486.48L33.71 486.14C33.6 485.84 33.53 485.67 33.53 485.67L33.66 484.89V485.89H46.14C46.17 485.87 47 497.08 47.22 503.3Z" fill="#FDC050"/>
<path d="M39.6301 472H39.3901V471.5L39.6301 472Z" fill="#1C387F" stroke="#9AB8C7" stroke-miterlimit="10"/>
<path d="M40.6099 505H40.5599L40.0299 505.13L26.1599 508.31L15.3499 507.62H14.8999L6.3999 503.38L24.8099 493.96L27.2499 495.64L28.1199 496.24L28.7499 496.68L29.5799 497.26C33.7899 500.12 39.4999 504.09 40.6099 505Z" fill="#FDC050"/>
<path d="M14.89 507.56L1 506.84L6.35001 503.3H6.35999L14.89 507.56Z" fill="#FDC050"/>
<path d="M136.62 500.7L119.42 494.91L118.86 485.51L118.93 485.87H131.25L136.62 500.7Z" fill="#FDC050"/>
<path d="M140 509L121.93 508.66C121.93 508.66 119.45 501.11 119.45 500.79V495.16V494.91L136.65 500.7L140 509Z" fill="#F4A54B"/>
<path d="M141.16 511.82L131 515.22H122L117.76 509.78L119.4 501.11V500.79C119.4 501.11 121.88 508.66 121.88 508.66L140 509L141.16 511.82Z" fill="#827140"/>
<path d="M40.8099 504.91C40.7569 504.901 40.7028 504.901 40.6499 504.91V504.91L29.6499 497.13L28.8199 496.55L28.1899 496.11L27.3199 495.51L24.8799 493.83L33.5799 485.6C33.5799 485.6 33.6499 485.77 33.7599 486.07L33.8999 486.41C33.8999 486.54 33.9999 486.69 34.0599 486.84L34.2099 487.23C34.2525 487.331 34.2893 487.435 34.3199 487.54L39.6499 501.41L39.8099 501.82L40.8099 504.53C40.8313 504.612 40.848 504.696 40.8599 504.78C40.8599 504.78 40.7999 504.87 40.8099 504.91Z" fill="#F4A54B"/>
<path d="M55.1601 103.65L45.2601 113.35L42.0001 116.59C42.0001 116.59 41.8501 117.33 41.5901 118.52C40.5401 123.44 37.7801 136.03 37.2101 136.03C37.0101 136.03 35.0601 136.63 35.0601 136.63L28.9801 139.38L24.8401 135L23.3401 122L27.1701 128.69L37.2601 115.83L47.6001 107.52L42.8001 101.52L45.9501 100.64L55.1601 103.65Z" fill="#827140"/>
<path d="M20.8401 254.29C20.8401 254.29 14.19 258.37 14.08 258.86C13.97 259.35 5.17007 251.39 4.13007 250.44C3.82007 256.63 5.87006 279.85 5.87006 279.85L7.60007 281.3L17.0401 278.35L24.5401 268.96L20.8401 254.29ZM7.60007 277.68L7.00006 262.09L9.74005 275.58L7.60007 277.68Z" fill="#E7C053"/>
<path d="M17.88 198.17L15.75 217.93L13.75 202.93L14 198.16C13.9971 198.113 13.9971 198.067 14 198.02L16.61 197.02L17.88 198.17Z" fill="#E7C053"/>
<path d="M15.81 249.92L20.81 254.29C20.81 254.29 14.16 258.37 14.05 258.85C13.94 259.33 5.13998 251.39 4.04998 250.43C4.0424 249.954 4.0996 249.48 4.22 249.02C4.8 248.11 13.55 201.02 13.92 198.12L13.67 202.89L15.67 217.89L14 233.43L21.09 243.62L10.42 246L6.98998 250L15.81 249.92Z" fill="#F3EB50"/>
<path d="M31.8101 207.24L21.1701 243.65L14.0801 233.48L15.7501 217.94L17.8801 198.18L21.4801 200.05L21.5501 200.08L23.2701 200.99L23.9701 201.36L30.7501 204.88L30.8101 205.01L31.8101 207.24Z" fill="#827140"/>
<path d="M20.31 252.67L20.83 254.29L15.81 249.92H6.98999L10.42 245.96L21.17 243.66L20.31 252.67Z" fill="#F4A54B"/>
<path d="M26.4101 287.26L13.3201 288.23L7.6001 281.29L17.0401 278.35L24.5401 268.96L26.7101 275.63L26.4101 287.26Z" fill="#F3EB50"/>
<path d="M107.34 172.66C107.34 172.66 99.4999 190 99.4599 190C99.4199 190 99.4599 190.09 99.5299 190.27C98.1499 188.27 98.0099 184.4 97.6299 184.4C97.2499 184.4 91.4499 181.96 88.8199 180.95C88.8152 180.913 88.8152 180.877 88.8199 180.84C89.2699 178.74 89.5599 177.32 89.5599 177.32L92.1499 178.42L96.7099 166.78L103.34 157.5L108.21 152.77L116.42 144.82C118.5 146.32 117.72 147.39 117.72 147.39L107.34 172.66Z" fill="#E7C053"/>
<path d="M105.5 209L83.9101 218.77V213.88L56.7101 215V218.73L50.9801 210.63L48.6201 175.53L38.5401 163.38L37.1201 161.27L32.0701 151.45L32.7401 150.22L39.0001 159L41.08 160.47L46.4201 164.26L55.1801 177.55L56.7301 176.74L67.4001 192C68.7734 188.12 70.1467 184.243 71.5201 180.37L76.5201 190.96L88.8501 180.96C91.4801 181.96 97.2201 184.41 97.6601 184.41C98.1001 184.41 98.1801 188.25 99.5601 190.28C100 192.58 105.5 209 105.5 209Z" fill="#E7C053"/>
<path d="M108.23 152.76L103.36 157.49L96.7301 166.77L92.1701 178.41L89.58 177.31L70.8401 169.36L56.7101 176.74L55.1601 177.55L46.4001 164.26L41.0601 160.47L52.3101 163.36L63.5701 145.92L70.3501 160.6L75.5001 148.34C75.5001 148.34 89.69 161.76 90.05 161.61C90.41 161.46 107.7 153 108.23 152.76Z" fill="#827140"/>
<path d="M89.58 177.31C89.58 177.31 89.29 178.73 88.84 180.83V180.94C85.4066 185.987 81.9833 191.04 78.57 196.1C76.2433 191.433 73.91 186.767 71.57 182.1C69.87 186.82 68.1733 191.547 66.48 196.28L56.73 176.74L70.86 169.36L89.58 177.31Z" fill="#F3EB50"/>
<path d="M116.46 144.8L108.25 152.75C107.72 153.02 90.44 161.43 90.08 161.6C89.72 161.77 75.51 148.33 75.51 148.33L89.9 139C89.9 139 102.53 134.63 103.16 135.12C103.59 135.44 111.65 141.3 116.46 144.8Z" fill="#F3EB50"/>
<path d="M48.72 252.74L37.72 240.99L44.79 224.82C45.22 225.12 45.79 225.56 46.54 226.1L48.72 252.74Z" fill="#F4A54B"/>
<path d="M57.89 234.93C57.89 234.93 50.51 229.11 46.53 226.1C45.82 225.56 45.21 225.1 44.78 224.82L50.98 210.63L56.71 218.73L57.89 234.93Z" fill="#827140"/>
<path d="M69.5201 242.49L57.8901 234.93C59.7501 233.43 67.3301 227.62 69.1301 226.62L69.2801 226.54C69.3465 226.501 69.4234 226.483 69.5001 226.49V226.49C69.5501 227.22 69.5201 242.49 69.5201 242.49Z" fill="#F3EB50"/>
<path d="M110.51 224.35L106.57 225.7L83.9099 233.48V218.73L105.5 208.95L110.51 224.35Z" fill="#827140"/>
<path d="M116.46 354.09C116.46 354.09 111.46 374.69 111.23 375.57C111 376.45 102.38 355.49 102.38 355.49L116.46 354.09Z" fill="#F4A54B"/>
<path d="M78.52 304.87C78.78 303.49 64.05 356.28 64.05 356.28L59.24 362.69C59.24 362.69 61.51 353.22 61.77 352.42C62.03 351.62 76.11 300.71 76.11 300.71C76.11 300.71 66.74 297.27 68.41 297.53C70.9948 297.67 73.5852 297.67 76.17 297.53L81.24 296L97.79 361.13C97.33 359.5 78.26 306.22 78.52 304.87Z" fill="#FDC050"/>
<path d="M124.51 353L128.11 266.67L116.46 354.1C116.46 354.1 111.46 374.69 111.23 375.57C111 376.45 102.38 355.49 102.38 355.49L81.3 286.49L77.22 273.16L77.49 272.94L77.97 272.55L79.07 271.65L80.07 270.86C82.73 268.69 87.01 265.2 91.81 261.31L93.64 259.83L98.76 255.7L106.6 225.7L102.22 227.2L83.94 233.48V236L79.25 238.13L69.56 242.53L58.06 235L57.9 234.88H57.83L57.61 234.71L56.87 234.13L56.63 233.94L56.32 233.69L55.78 233.27C54.47 232.27 52.7 230.86 50.94 229.5L49.55 228.42C48.46 227.58 47.42 226.78 46.55 226.12L48.74 252.76L50.74 254.89L52.67 256.95L69.54 274.95L67.39 286.28L53.31 360.36L40.37 352.36L34.37 282.47L32 330.28L34.65 349.33L32.28 375.73L34.65 385.28L33.68 472H39.4V414.8C39.47 414.34 40.89 411.04 42.89 406.51L43.6 404.91C43.72 404.64 43.84 404.36 43.97 404.08L45.13 401.49C45.92 399.71 46.76 397.86 47.61 395.98C47.89 395.36 48.18 394.74 48.46 394.11C52.28 385.67 56.1 377.33 57.21 374.94L57.32 374.69L57.47 374.36V374.25L62 393.12L46.81 472H50.58L68.05 390.22L59.24 362.65C59.24 362.65 61.51 353.18 61.77 352.39C61.77 352.32 61.94 351.8 62.18 350.93C62.27 350.64 62.36 350.31 62.46 349.93C62.67 349.2 62.91 348.32 63.19 347.32L63.63 345.73C63.87 344.89 64.12 343.99 64.38 343.04C64.64 342.09 64.92 341.04 65.21 340.04C65.6 338.65 66.01 337.19 66.42 335.67C70.62 320.56 76.12 300.67 76.12 300.67C75.86 300.57 66.78 297.23 68.42 297.49C71.0049 297.624 73.5951 297.624 76.18 297.49L81.25 295.96L97.77 360.96V361.07L96.21 385.4C96.21 385.4 116.82 476.88 117.88 477.71C118.036 477.802 118.21 477.86 118.39 477.88C120.472 478.102 122.569 478.159 124.66 478.05V478.05H125.52L116.63 418C116.63 418 127.46 382 127.46 381.31C127.46 380.62 130.62 385.52 130.62 385.52L130.87 477.86C131.52 477.86 132.02 477.79 132.26 477.79L132.47 476.08C132.85 463.31 131.61 384.25 132.58 384C133.55 383.75 124.51 353 124.51 353ZM34.56 370.93L38.08 354.11C39.08 354.54 48.85 364.86 48.85 364.86L34.56 370.93Z" fill="#FDC050"/>
<path d="M120.18 239.07C119.08 239.58 112.84 244.45 105.45 250.35C103.28 252.08 101 253.91 98.73 255.74L106.57 225.74L110.51 224.39L119.78 238L120.18 239.07Z" fill="#F4A54B"/>
<path d="M128.11 266.6C127.68 268.21 116.91 319.54 116.56 320.09C116.21 320.64 103.5 292.49 103.5 292.49C103.5 292.49 105.14 258.02 105.45 250.31C112.84 244.41 119.08 239.54 120.18 239.03L128.11 266.6Z" fill="#F3EB50"/>
<path d="M150 218.73V249L146.39 255.73L143 249.84L130.78 262.84L131.2 270.35H135.94V282.14L147 284.91L155.18 277.37C155.18 277.37 157.83 246.08 158.09 244.98C158.3 244.14 159.41 218.17 161.15 205.22C161 205.44 156.39 211.71 150 218.73ZM147 280.26L148.81 273.2V261.08L152.17 275.58L147 280.26Z" fill="#F3EB50"/>
<path d="M155.17 277.36L152.27 284.78L140.09 291.83L133.08 290.19L131.17 270.34H135.91V282.14L146.99 284.9L155.17 277.36Z" fill="#E7C053"/>
<path d="M150 218.73V249L146.39 255.72L143 249.83L135 214.74C135 214.74 140.17 228.29 140.38 228.92C140.41 229.2 145 224.31 150 218.73Z" fill="#827140"/>
<path d="M130.62 385.56L130.87 477.89C129.56 477.96 127.59 478.05 125.58 478.12L116.63 418C116.63 418 127.46 382 127.46 381.31C127.46 380.62 130.62 385.56 130.62 385.56Z" fill="#827140"/>
<path d="M112.91 118.42L78.91 129.66L69.47 143.19L60.39 128.29L41.53 118.55C41.79 117.36 41.94 116.62 41.94 116.62L45.23 113.42C44.92 113.87 45.23 116.84 45.23 116.84L69.11 126.17L71.67 127.17L110.8 114.92L112.91 118.42Z" fill="#E7C053"/>
<path d="M63.57 145.92L52.31 163.36L41.06 160.47L38.98 159L32.74 150.21L35.63 138.16V138.15L38.93 134.68L53.05 135.3L63.57 145.92Z" fill="#F3EB50"/>
<path d="M83.9099 218.73V233.47V236L79.2199 238.13L79.4499 218.77H60.5299C60.1599 218.77 58.0099 216.31 56.9199 215.03L83.9199 213.88V218.77L83.9099 218.73Z" fill="#F3EB50"/>
<path d="M52.3201 294C52.3201 294 41.8801 319.4 41.7101 318.54C41.5401 317.68 35.0101 284.79 34.3501 282.3V281.41L37.0201 242.52L37.6801 241.02L48.6801 252.77L50.6801 254.9L52.3201 294Z" fill="#F3EB50"/>
<path d="M69.5201 275L53.2801 360.41L40.3401 352.41L34.3401 282.53V282.36C35.0001 284.85 41.5301 317.76 41.7001 318.6C41.8701 319.44 52.3201 294 52.3201 294L50.7101 254.88L69.5201 275Z" fill="#827140"/>
<path d="M48.8501 364.84L34.55 370.91L38.08 354.09C39.11 354.52 48.8501 364.84 48.8501 364.84Z" fill="#F4A54B"/>
<path d="M121.14 135.11L117.76 147.37C117.76 147.37 118.54 146.3 116.46 144.8C111.65 141.3 103.59 135.44 103.16 135.11C102.53 134.62 89.8999 138.99 89.8999 138.99L75.4899 148.34L70.3499 160.59L63.5699 145.92L53.0499 135.29L38.9299 134.68L35.6299 138.15L37.1599 136.03C37.7299 136.03 40.4899 123.44 41.5399 118.52L60.3999 128.27L69.4799 143.19L78.9199 129.65L112.92 118.39C117.36 125.81 120.71 135.33 121.14 135.11Z" fill="#F4A54B"/>
<path d="M152.16 275.57L146.99 280.26L148.8 273.2V261.08L152.16 275.57Z" fill="#827140"/>
<path d="M9.73001 275.57L7.60001 277.67L6.98999 262.09L9.73001 275.57Z" fill="#827140"/>
<path d="M62.0001 393.11L46.8101 472H39.6301L39.3901 471.5V414.8C39.3901 413.65 57.5101 374.21 57.5101 374.21L62.0001 393.11Z" fill="#827140"/>
<path d="M50.5801 472.03L46.0801 485.87H33.5901L33.6001 484.87L33.6901 472.03H50.5801Z" fill="#F4A54B"/>
<path d="M132.26 477.82L131.26 485.82H118.93L118.86 485.46L118.41 477.93C120.496 478.148 122.596 478.201 124.69 478.09C127 478.09 129.37 477.92 130.86 477.84L132.26 477.82Z" fill="#F4A54B"/>
<path d="M136.45 111.01L107.57 109.8L115.92 104.35L123.49 101.52L136.45 111.01Z" fill="#F3EB50"/>
<path d="M136.87 129.39V129.44L136.77 129.43L125.5 127.44L107.58 109.8L136.46 111L136.87 129.39Z" fill="#F4A54B"/>
<path d="M136.87 129.45L132.12 131.13L130.47 131.71C126.8 133.02 122.76 134.46 121.6 134.92L121.41 134.99L121.14 135.11C120.62 134.99 117.26 125.62 112.89 118.34L110.8 114.85C108.99 111.85 107.61 109.85 107.61 109.85L125.53 127.5L136.8 129.5L136.87 129.45Z" fill="#827140"/>
<path d="M43.8499 107.5L31.1099 108.14L42.7999 101.48L43.8499 107.5Z" fill="#F3EB50"/>
<path d="M47.6001 107.5L37.2601 115.81L27.1701 128.67L23.3401 121.98L31.1101 108.14L43.8501 107.5L42.8001 101.48L47.6001 107.5Z" fill="#F4A54B"/>
<path d="M81.8199 34.63L97.6299 26.12L75.9299 32.44L81.8199 34.63Z" fill="#F2914B"/>
<path d="M79.4299 64.6L101.66 55.33L104.61 58.29L104.97 56.91L101.66 55.33L82.4399 61.51L79.4299 64.6Z" fill="#BC7645"/>
<path d="M77.14 64.68L60.95 57.83L74.2299 61.88L77.14 64.68Z" fill="#9B5023"/>
<path d="M95.2 79.19L85.25 88.03L83.32 88.96L79.51 88.09L78.01 87.62L83.33 87.4L95.2 79.19Z" fill="#9B5023"/>
<path d="M68.72 80L78.01 87.62L68.72 78.85V80Z" fill="#9B5023"/>
<path d="M68.72 78.85C68.72 79.02 78.21 87.4 78.21 87.4H83.34L83.17 88.1L78.01 87.62C78.01 87.62 70.3 80.87 70.25 80.88C70.2 80.89 68.72 78.85 68.72 78.85Z" fill="#9B5023"/>
<path d="M75.9299 32.44C75.9299 32.44 70.8599 23.87 70.7899 23.12C70.7199 22.37 80.3499 5 80.3499 5C80.3499 5 75.3499 20.7 75.5699 20.89C75.7899 21.08 81.1899 30.42 81.1899 30.42L75.9299 32.44Z" fill="#282A2A"/>
<path d="M101.64 7.61C101.02 7.42 95.1999 9.83999 95.1999 9.83999C95.1999 9.83999 88.7799 26.35 89.0599 26.12C89.3399 25.89 96.3999 11.36 96.3999 11.36L101.64 7.61Z" fill="#282A2A"/>
<path d="M46.79 25.02L62.89 16.26L71.81 18.7L61.81 6.09998L46.79 25.02Z" fill="#282A2A"/>
<path d="M98.7299 368.34C99.2499 369.26 113.64 407.22 113.64 407.22L97.4199 386.1L98.7299 368.34Z" fill="#F4A54B"/>
<path d="M48.8499 370.91L36.1299 375.6L39.3899 414.83L57.5099 374.24L48.8499 370.91Z" fill="#F4A54B"/>
<path d="M58.0601 235.04L52.6401 256.94L69.5201 274.95L67.3601 286.27L74.6501 288.23L81.3001 286.53L77.2201 273.2L93.6101 259.87L102.38 226.49L83.9101 233.48L83.9001 235.96L69.5201 242.49L58.0601 235.04Z" fill="#F4A54B"/>
<path d="M145.81 153.92C141.47 152.39 135.51 150.33 132.13 149.16L129.52 148.25L130.09 147.25L133.93 140.54L138.2 133.09L145.65 153.47L145.81 153.92Z" fill="#827140"/>
<path d="M121.14 135.11L121.44 134.99L121.14 135.11Z" fill="#602852"/>
<path d="M138.2 133.1L133.93 140.55L130.09 147.25L129.52 148.25L118.43 148.53V148.46L117.82 147.39V147.32L117.92 146.94L119.13 142.51L121.13 135.11C121.84 134.74 136.86 129.45 136.86 129.45L138.2 133.1Z" fill="#E7C053"/>
<path d="M157.51 191.83L143.9 185.9L143.98 185.57L144.4 183.8L149.29 163.42L156.22 182.42L157.51 191.83Z" fill="#F4A54B"/>
<path d="M147.11 205.42C147.2 206.04 147.26 206.42 147.26 206.63C147.26 208.01 137.44 215.03 137.44 215.03L138.08 198.61V198.47L138.49 187.9L138.26 187.65V187.34L137.01 183.34L135.31 177.9L118.41 148.54V148.47C121.2 148.19 129.34 147.37 130.06 147.27C130.708 147.43 131.343 147.637 131.96 147.89C135.05 149.06 141.14 151.6 145.62 153.49L145.78 153.93L149.26 163.43L144.4 183.8L143.98 185.57L143.9 185.9L143.97 186.33L144.04 186.73C144.31 188.28 144.9 191.73 145.51 195.39C146.16 199.31 146.83 203.4 147.11 205.42Z" fill="#F3EB50"/>
<path d="M147.11 205.42C147.2 206.04 147.26 206.42 147.26 206.63L147.07 205.45L145.52 195.89L144 186.73L143.93 186.33L143.86 185.9L157.47 191.83L158.04 196.03L147.11 205.42Z" fill="#827140"/>
<path d="M149.19 183.36L144 185.57L143.2 185.91L138.52 187.91L138.29 187.66V187.35L137.04 183.35C138.41 183.47 140.04 183.57 141.39 183.65L144.39 183.82L149.19 183.36Z" fill="#827140"/>
<path d="M32.7499 150.22L32.0699 151.44C32.0897 151.485 32.1131 151.529 32.1399 151.57C32.5799 152.38 34.9299 156.75 36.6099 160.28C36.6099 160.28 36.6099 160.28 36.6099 160.33L37.0799 161.33L36.5499 166.33V166.44C33.8399 168.84 28.7499 173.28 26.6899 175.06L26.0299 175.64C25.9694 175.686 25.9126 175.736 25.8599 175.79L25.7999 175.84L21.8799 151.09C22.0299 150.27 22.1699 149.46 22.3199 148.66L28.2399 138.66L28.2899 138.58L34.9599 136.64L35.2699 136.55L36.8099 136.11H36.8799H36.9599H37.1099L36.4999 136.96L36.4299 137.06L35.5999 138.21L35.2199 139.8L32.7499 150.22Z" fill="#F4A54B"/>
<path d="M21.9001 151.13L25.8201 175.88L17.6401 182C17.9401 177.36 18.2001 173.29 18.2001 172.66C18.2001 172.33 18.5101 170.4 18.9801 167.59C19.7101 163.31 20.8301 157 21.9001 151.13Z" fill="#E7C053"/>
<path d="M28.3101 138.58L28.2601 138.66L22.3401 148.66C23.6901 141.24 24.8401 134.97 24.8401 134.97L28.3101 138.58Z" fill="#E7C053"/>
<path d="M36.58 166.36V166.47L34.2501 188.56L30.7601 204.89L30.8201 205.02L28.2101 203.62L24.0001 201.36L23.3 200.98L24.0901 193.2L25.8501 175.88L25.9101 175.83C25.9628 175.776 26.0196 175.726 26.08 175.68V175.68L26.7401 175.1C28.7601 173.26 33.87 168.72 36.58 166.36Z" fill="#F3EB50"/>
<path d="M25.8201 175.88L24.0601 193.2L23.2701 200.98L17.8001 198.18L16.6201 197C16.6201 197 17.1801 188.84 17.6201 181.95C17.9201 177.31 18.1801 173.24 18.1801 172.61C18.1801 172.28 18.4901 170.35 18.9601 167.54C21.3901 170.58 25.8201 175.88 25.8201 175.88Z" fill="#F4A54B"/>
<path d="M161.25 199C161.518 201.071 161.484 203.169 161.15 205.23C160.96 205.45 156.4 211.72 150.02 218.74C144.96 224.32 140.42 229.21 140.33 228.93C140.12 228.3 134.95 214.75 134.95 214.75L137.07 213.92L145.74 206.61L158.08 196C158.08 196 157.82 195.65 158.61 194.83C159.4 194.01 161.25 199 161.25 199Z" fill="#F4A54B"/>
</svg>
