<svg width="169" height="516" viewBox="0 0 169 516" fill="none" xmlns="http://www.w3.org/2000/svg">
<path d="M127.21 98.6399L116.21 105.3L114.62 105.22L120.43 90.6099L113.15 51.7299L107.99 66.7299L105.38 68.7299V57.7299L101.92 43.1899L99.3801 32.5199L98.0001 26.9399L76.2901 33.2599L60.1901 25.8399L56.1901 31.7899C56.1901 31.7899 56.1901 34.4199 56.1901 37.4299C55.5601 39.9599 53.9001 46.6599 53.9001 47.3699C53.9001 48.2599 55.0301 62.5399 55.4001 63.2799C55.7701 64.0199 50.8501 73.9999 50.8501 73.9999L56.4901 70.1699L61.1501 62.7899L62.7801 72.8999L68.5501 80.1999V100.37L56.2401 104.67L55.5601 104.43L44.4601 100.66L41.1401 62.6599L47.1901 25.7999L62.1901 5.1499L80.6501 0.149902L104.13 7.1499L118.56 33.1499L121.5 54.2999L118.07 57.2999L126.15 86.0899L127.21 98.6399Z" fill="#5A4422"/>
<path d="M53.89 46.52L47.24 60.79L46.15 57.65L44.24 65.49L51.5 103.09C51.5 103.09 60.7 95.98 61.35 95.09C62 94.2 59.7 70.42 59.7 70.42L57 54.7L53.89 46.52Z" fill="#3B2418"/>
<path d="M53.58 72.19L54.58 80.25L52.77 84.76L51.48 103.09C51.48 103.09 62.7 110.24 63 110.09C63.3 109.94 71 106.88 71.16 106.48C71.32 106.08 75.16 95.75 75.04 94.14C74.92 92.53 75.18 78.56 74.61 78.23C74.04 77.9 67.82 71.87 67.42 71.57C67.02 71.27 63.3 62.65 63.3 62.65L59.83 60.53L53.58 72.19Z" fill="#3B2418"/>
<path d="M95.6 80L95.38 83.38L79.25 100.7L79.5401 122.14L69.54 126.96L45.66 117.63C45.66 117.63 45.34 114.63 45.66 114.2L55.57 104.5L56.25 104.74L68.56 100.44V80.24L62.79 72.94L61.16 62.83V62.56L59.21 58C59.21 58 58.92 57 58.52 55.49L61.35 58.67C61.35 58.67 74.16 62.67 74.63 62.67C75.1 62.67 78.63 66.67 78.63 66.67V73.41L71.18 72L74.29 76.86L78.61 78.25V88.19H83.7301L95.6 80Z" fill="#AD7135"/>
<path d="M76.32 33.2601L72.55 34.7801L72.21 39.4101L56.24 31.7901L60.22 25.8401L76.32 33.2601Z" fill="#B6C158"/>
<path d="M99.36 32.5199L84.1901 39.4299L82.83 40.0399L82.2201 35.4499L76.3201 33.2599L98.0301 26.9399L99.36 32.5199Z" fill="#B6C158"/>
<path d="M101.9 43.19L95.6 40C95.6 40 82.02 48.75 81.6 49.07C81.18 49.39 84.17 39.38 84.17 39.38L99.34 32.48L101.9 43.19Z" fill="#69BE6A"/>
<path d="M101.9 43.1899L95.6 39.9999C95.6 39.9999 82.02 48.7499 81.6 49.0699C81.18 49.3899 84.17 39.3799 84.17 39.3799L82.81 39.9999L77.51 48.2599L78.31 54.1199L78.12 63.3099L82.81 62.3099L102.03 56.1299L105.34 57.7099L101.9 43.1899ZM78.9 61.0799L80.15 55.4699L82.54 61.0799H78.9ZM101.9 50.4499L93.52 56.1499L82.83 51.5699C83.47 51.5699 96.4 42.7199 96.4 42.7199L101.9 47.2399V50.4499Z" fill="#26342E"/>
<path d="M74.65 62.7201C74.19 62.7201 61.37 58.6701 61.37 58.6701L58.54 55.5001C57.6202 52.4009 56.8592 49.2568 56.26 46.0801C56.26 45.3901 56.26 41.0801 56.26 37.4501C56.26 34.4501 56.26 31.8101 56.26 31.8101L61.26 42.1001L61.45 42.7501L61.62 43.3401L57.7 47.9401L64.77 56.1701L65.43 55.8101L74.65 62.7201Z" fill="#26342E"/>
<path d="M149.78 194.24L150.03 207.31V207.42L148.9 208.42L140.43 215.66L140.34 215.73L140.28 215.78L140.21 215.85L142.57 188.48V188.22L140.27 185.05L135.71 178.76L122.06 151.56L121 149.24L120.47 148.19L121.97 142.74L123.79 136.15L123.85 135.93C124.52 135.58 139.31 129.25 141.14 128.47H141.22H141.31L135.35 142V142.07V142.13L132.35 148.92V149.02C132.37 149.084 132.393 149.148 132.42 149.21C132.434 149.258 132.45 149.304 132.47 149.35C132.54 149.56 132.65 149.88 132.8 150.29L132.92 150.63C132.97 150.76 133.01 150.89 133.06 151.04L135.19 157.04C135.36 157.53 135.54 158.04 135.73 158.55C135.92 159.06 136.02 159.35 136.17 159.77L136.6 160.97L136.9 161.8L137.82 164.34C137.98 164.79 138.14 165.24 138.31 165.69C138.4 165.92 138.48 166.15 138.56 166.37L140.72 172.26C140.92 172.78 141.11 173.26 141.3 173.8L141.67 174.8C141.78 175.08 141.88 175.35 141.98 175.62C143.58 179.85 144.98 183.46 145.87 185.33L146.07 185.75C146.191 186 146.324 186.244 146.47 186.48L146.56 186.61C146.56 186.61 146.63 186.68 146.66 186.68H146.71L146.9 186.6C147.069 186.591 147.238 186.626 147.39 186.7C148.143 187.036 148.849 187.47 149.49 187.99L150.08 188.44L150.67 188.91L151.26 189.4C151.45 189.55 151.63 189.71 151.81 189.87L152.33 190.32C152.368 190.345 152.402 190.375 152.43 190.41C153.27 191.15 153.86 191.7 153.86 191.7L149.78 194.24Z" fill="#DB9058"/>
<path d="M25.8299 180.41L26.5699 195.12C26.5699 195.12 26.1899 194.9 25.6999 194.64L25.3899 194.47C25.1099 194.32 24.8199 194.18 24.5599 194.07L24.3699 193.99C24.265 193.937 24.1542 193.897 24.0399 193.87C23.8399 193.8 23.7099 193.8 23.6799 193.87C23.6499 193.94 23.6199 195.38 23.6199 196.99C23.6199 198.84 23.6199 200.99 23.6699 201.99L23.0099 201.62L16.1099 197.79C16.1099 197.79 16.3999 190.73 16.6599 184.2C16.7299 182.2 16.8099 180.32 16.8699 178.67L18.1499 167.05L18.0699 166.94C18.1499 166.43 18.2499 165.94 18.3399 165.34C20.2799 154.15 23.6799 135.45 23.6799 135.45L27.7699 139.82L28.7699 139.5L29.6999 139.2L32.3699 138.35C33.4399 138.01 34.5199 137.68 35.4299 137.41L24.7999 159.77L25.3899 171.45V171.52L25.6399 176.29L25.6999 177.5L25.8399 180.35L25.8299 180.41Z" fill="#DB9058"/>
<path d="M162.38 196.85L152.47 205.34L152.17 205.58L150 207.42V207.31L149.75 194.24L153.86 191.71C153.86 191.71 153.27 191.16 152.43 190.42C152.24 190.24 152.03 190.06 151.81 189.88C151.59 189.7 151.45 189.56 151.26 189.41L150.67 188.92L150.08 188.45L149.49 188C148.849 187.48 148.143 187.046 147.39 186.71C147.317 186.673 147.24 186.646 147.16 186.63H146.98H146.89C146.854 186.628 146.819 186.635 146.786 186.649C146.753 186.662 146.724 186.683 146.7 186.71H146.65C146.612 186.695 146.577 186.671 146.55 186.64L146.42 186.45L146.25 186.16L146.19 186.05L146.03 185.74L145.83 185.32C145.58 184.77 145.27 184.06 144.92 183.23L144.64 182.54L144.46 182.09C144.37 181.89 144.29 181.68 144.21 181.47L143.91 180.71L143.41 179.45L142.82 177.92L142.25 176.42C141.07 173.3 139.77 169.8 138.52 166.36C138.44 166.14 138.36 165.91 138.27 165.68C138.1 165.23 137.94 164.78 137.78 164.33L136.86 161.79C136.61 161.1 136.36 160.42 136.13 159.79L135.69 158.58L134.99 156.58L134.55 155.35L134.14 154.21C134.02 153.84 133.89 153.49 133.77 153.21C133.65 152.93 133.55 152.6 133.45 152.31C133.18 151.53 132.94 150.88 132.76 150.36L132.64 150.02C132.64 149.92 132.57 149.83 132.54 149.74L132.43 149.42C132.411 149.374 132.394 149.328 132.38 149.28L132.32 149.12V149.02L135.27 142.25V142.19V142.12L141.09 128.72V128.64L141.14 128.53V128.6L141.27 128.53L141.64 129.97L151.37 156.89V156.97L152.19 159.24L160.35 181.83L161.92 194.72L162.38 196.85Z" fill="#EFB180"/>
<path d="M108 110.62C108 110.62 109.26 112.76 111.06 115.79L72.1 128L69.53 127L79.53 122.18L79.24 100.74L95.37 83.4299L94.9 99.7599L114.59 105.26L116.18 105.34L108 110.62Z" fill="#C4854F"/>
<path d="M38.3999 166.61L38.2799 167.34L34.6399 189.34L33.4599 207.39L25.4599 202.95L23.6799 201.95C23.6799 200.95 23.6799 198.84 23.6299 196.95C23.6299 195.35 23.6299 193.95 23.6899 193.84C23.7499 193.73 23.8499 193.77 24.0499 193.84C24.1642 193.867 24.275 193.907 24.3799 193.96L24.5699 194.04C24.6999 194.09 24.8399 194.16 24.9799 194.23C25.1199 194.3 25.4799 194.48 25.7099 194.61L26.0499 194.79L26.3499 194.96L26.4899 195.04L26.5799 195.09L25.8399 180.38L25.6999 177.54L25.6399 176.33L25.5299 174.25V173.96L25.4099 171.63V171.49L24.8199 159.81L35.4499 137.45C36.1497 137.217 36.8647 137.034 37.5899 136.9L35.9999 139L31.9999 151L31.3299 152.23L38.3299 166.56L38.3999 166.61Z" fill="#EFB180"/>
<path d="M76.52 51.7501L73.48 47.2601L62.08 42.7501H61.41L61.22 42.1001L56.26 31.8101L72.23 39.4301L75.53 44.9401L76.52 51.7501Z" fill="#69BE6A"/>
<path d="M82.83 40.04L77.54 48.3L75.5 44.92L72.21 39.41L72.55 34.78L76.32 33.26L82.22 35.45L82.83 40.04Z" fill="#26342E"/>
<path d="M120.41 90.61L114.6 105.22L94.9099 99.72L95.3799 83.39V83.38L95.5999 80.01L100.35 73.52L105.36 57.73V68.68L107.97 66.68L113.13 51.73L120.41 90.61Z" fill="#3B2418"/>
<path d="M105.36 57.7299L100.35 73.5199L95.5999 80.0099L83.7299 88.2199H78.6099V78.2799L82.5699 77.6999L86.6999 73.4199L90.8299 68.6799L86.6999 72.0299L78.6099 73.4199V66.6799L82.8299 62.3299L102.05 56.1499L105.36 57.7299Z" fill="#C4854F"/>
<path d="M90.8299 68.6799L86.7099 73.4199L82.5699 77.6999L78.6099 78.2799L74.2999 76.8899L71.1799 72.0299L76.9299 75.0099L80.9999 74.5899L86.7099 72.0299L90.8299 68.6799Z" fill="#A86739"/>
<path d="M86.7099 72.03L80.9999 74.59L76.9299 75.01L71.1799 72.03L78.6099 73.42L86.7099 72.03Z" fill="#9D5C27"/>
<path d="M82.5699 61.08H78.9299L80.1799 55.47L82.5699 61.08Z" fill="#3D6C45"/>
<path d="M82.83 62.33L78.61 66.6799C78.61 66.6799 75.09 62.6799 74.61 62.6799L65.35 55.7599C67.35 54.6299 73.53 51.22 73.94 51.22L62.04 42.7L73.43 47.22L76.43 51.71L75.43 44.8999L77.43 48.28L78.23 54.14L78.04 63.33L82.83 62.33Z" fill="#3D6C45"/>
<path d="M61.1501 62.8299L56.4901 70.2099L50.8501 73.9999C50.8501 73.9999 55.8501 63.9999 55.4601 63.2399C55.0701 62.4799 53.9601 48.2399 53.9601 47.3299C53.9601 46.6199 55.6201 39.9199 56.2501 37.3899C56.2501 41.0699 56.2501 45.3199 56.2501 46.0199C56.8459 49.1941 57.6069 52.335 58.5301 55.4299C58.9301 56.8999 59.2201 57.9399 59.2201 57.9399L61.1301 62.5199L61.1501 62.8299Z" fill="#6C532F"/>
<path d="M101.9 47.24V50.45L93.5201 56.15L82.8301 51.57C83.4701 51.57 96.4001 42.72 96.4001 42.72L101.9 47.24Z" fill="white" stroke="#221F1F" stroke-linejoin="round"/>
<path d="M73.9999 51.2401C73.5899 51.2401 67.4499 54.6501 65.4099 55.7801L64.7499 56.1501L57.6699 47.9101L60.7799 42.9101L61.2399 42.1001L73.9999 51.2401Z" fill="white" stroke="#221F1F" stroke-linejoin="round"/>
<path d="M79.8299 219.55L79.5999 238.91L69.9099 243.31C69.9099 243.31 69.9099 228.04 69.9099 227.31C69.8364 227.305 69.7632 227.322 69.6999 227.36L69.5399 227.44L69.3499 227.55C67.0099 228.9 58.3499 235.75 58.3499 235.75L58.0499 235.51L57.1699 219.51V215.78H57.3799C58.4599 217.05 60.6199 219.52 60.9799 219.52L79.8299 219.55Z" fill="#26342E"/>
<path d="M131.24 267.46L116.85 354.91L102.77 356.31L77.6201 274C77.6201 274 88.3601 265.2 99.1301 256.54C101.4 254.71 103.67 252.88 105.84 251.15C105.53 258.86 103.89 293.33 103.89 293.33C103.89 293.33 116.59 321.51 117 321C117.41 320.49 130.82 269.07 131.24 267.46Z" fill="#26342E"/>
<path d="M47.8199 510.63L20.2199 512.2C20.2199 512.2 10.2199 513.41 9.42987 513.2C8.63987 512.99 0.629883 511.03 0.629883 511.03L1.38989 507.64L15.2499 508.34H15.7099L26.5199 509.03L40.3899 505.85L40.9299 505.73C40.9862 505.721 41.0436 505.721 41.0999 505.73V505.73C41.4599 505.63 47.3299 504.07 47.5099 504.12C47.7399 507.75 47.8199 510.63 47.8199 510.63Z" fill="#26342E"/>
<path d="M26.45 508.92L40.43 505.91L26.56 509.09L15.75 508.4L15.29 508.38L15.25 508.36L15.55 508.38L26.45 508.92Z" fill="#181E4D"/>
<path d="M47.6101 504.12C47.4301 504.12 41.5601 505.63 41.2001 505.73L41.1501 505.61L41.1001 505.47L40.7801 504.55C40.7001 504.3 40.5901 504.02 40.4801 503.71C40.3701 503.4 40.2401 503.06 40.1001 502.71L39.9501 502.3C39.8901 502.13 39.8301 501.96 39.7601 501.79C39.5301 501.16 39.2801 500.49 39.0001 499.79C38.9301 499.57 38.8401 499.36 38.7501 499.13C38.4701 498.38 38.1701 497.59 37.8601 496.79C37.6801 496.35 37.5201 495.9 37.3501 495.46C36.9201 494.36 36.5001 493.27 36.1101 492.25L35.6901 491.17C35.2801 490.17 34.9201 489.17 34.6201 488.44C34.5862 488.334 34.5461 488.231 34.5001 488.13L34.3501 487.74C34.2901 487.59 34.2401 487.44 34.1901 487.31L34.0501 486.97C33.9401 486.67 33.8701 486.5 33.8701 486.5L34.0001 485.72V486.72H46.4901C46.5601 486.69 47.4301 497.9 47.6101 504.12Z" fill="#26342E"/>
<path d="M40 472.85H39.77V472.35L40 472.85Z" fill="#253B7D" stroke="#9BB7C7" stroke-miterlimit="10"/>
<path d="M41.0001 505.77L40.4701 505.9L26.6001 509.08L15.7901 508.39H15.3301L6.83008 504.15L25.2401 494.73L27.6801 496.41L28.5601 497.01L29.1901 497.45L30.0201 498.03C34.1801 500.94 39.9001 504.91 41.0001 505.77Z" fill="#3D6B4D"/>
<path d="M15.2901 508.38L1.39014 507.66L6.75012 504.12L15.2901 508.38Z" fill="#69BE6A"/>
<path d="M137.01 501.52L119.81 495.73L119.26 486.33L119.33 486.69H131.65L137.01 501.52Z" fill="#26342E"/>
<path d="M140.41 509.82L122.33 509.48C122.33 509.48 119.85 501.93 119.85 501.61V496V495.75L137.05 501.54L140.41 509.82Z" fill="#3D6B4D"/>
<path d="M141.56 512.64L131.44 516H122.44L118.2 510.56L119.83 501.89V501.57C119.83 501.89 122.31 509.44 122.31 509.44L140.39 509.78L141.56 512.64Z" fill="#26342E"/>
<path d="M41.2 505.73C41.1437 505.721 41.0863 505.721 41.03 505.73H41L30 497.95L29.17 497.37L28.54 496.93L27.66 496.33L25.22 494.65L33.92 486.42C33.92 486.42 33.99 486.59 34.1 486.89L34.24 487.23C34.29 487.36 34.34 487.51 34.4 487.66L34.55 488.05C34.596 488.151 34.636 488.254 34.67 488.36L40 502.23L40.15 502.64L41.2 505.35C41.2118 505.434 41.2285 505.518 41.25 505.6C41.224 505.639 41.2069 505.683 41.2 505.73Z" fill="#69BE6A"/>
<path d="M55.56 104.47L45.66 114.17L42.38 117.38L41.96 119.31C40.91 124.23 38.15 136.82 37.58 136.82C36.8515 136.953 36.1331 137.137 35.43 137.37C32.54 138.23 27.8 139.78 27.8 139.78L23.71 135.41L19.79 121.3L26.03 129.08L37.69 116.6L48 108.32L40.54 99.3701L44.46 100.7L55.56 104.47Z" fill="#26342E"/>
<path d="M21.23 255.11C21.23 255.11 14.58 259.19 14.47 259.67C14.36 260.15 5.55999 252.21 4.46999 251.25C4.16999 257.44 4.63 281.52 4.63 281.52L6.35998 282.96L17.36 279.17L25.93 269.82L21.23 255.11ZM6.41 279.34L7.41 262.91L10.16 276.39L6.41 279.34Z" fill="#69BE6A"/>
<path d="M18.2699 199L16.1399 218.76L14.1399 203.76L11.6299 199.18C11.6299 199.09 11.6299 199.04 11.6299 199.04L16.0999 197.84L18.2699 199Z" fill="#69BE6A"/>
<path d="M16.21 250.74L21.21 255.11C21.21 255.11 14.5601 259.19 14.4501 259.67C14.3401 260.15 5.54006 252.21 4.45006 251.25C4.44172 250.775 4.49548 250.301 4.61003 249.84C5.20003 248.93 11.17 202.07 11.55 199.13L14.06 203.71L16.06 218.71L14.3901 234.25L21.49 244.44L10.7301 246.74L7.30004 250.74H16.21Z" fill="#26342E"/>
<path d="M34.51 209.77L21.56 244.48L14.47 234.3L18.27 198.99L33.45 207.42L34.51 209.77Z" fill="#3D6B4D"/>
<path d="M20.7099 253.49L21.2299 255.11L16.2099 250.74H7.37988L10.8099 246.79L21.5599 244.48L20.7099 253.49Z" fill="#3D6B4D"/>
<path d="M28.4799 289.04H13.7199L6.41992 282.96L17.4299 279.17L25.9999 269.82L28.1799 276.5L28.4799 289.04Z" fill="#26342E"/>
<path d="M107.74 173.48C107.74 173.48 102.4 190.81 102.36 190.81L102.42 191.08C101.05 189.08 98.42 185.21 98.03 185.21C97.64 185.21 91.84 182.77 89.21 181.76C89.2147 181.723 89.2147 181.686 89.21 181.65C89.67 179.55 89.96 178.13 89.96 178.13L92.55 179.23L97.1 167.59L103.73 158.31L108.61 153.58L116.83 145.63L120.39 148.2L107.74 173.48Z" fill="#26342E"/>
<path d="M108.63 153.58L103.75 158.31L97.1199 167.59L92.5699 179.23L89.9799 178.13L71.2299 170.18L57.1099 177.56L55.5599 178.37L46.7899 165.08L41.45 161.29L52.7 164.18L63.9999 146.74L70.7899 161.41L75.9299 149.16C75.9299 149.16 90.1299 162.58 90.4899 162.43L108.63 153.58Z" fill="#3D6B4D"/>
<path d="M89.9999 178.13C89.9999 178.13 89.7099 179.55 89.2499 181.65C89.2546 181.686 89.2546 181.723 89.2499 181.76C87.9599 187.76 85.3599 199.17 84.3399 198.99C82.9599 198.75 69.9499 193.29 69.9499 193.29L58.4999 199L57.1099 177.57L71.2399 170.19L89.9999 178.13Z" fill="#6DB359"/>
<path d="M116.86 145.62L108.64 153.57L90.4599 162.42C90.0999 162.57 75.8999 149.15 75.8999 149.15L90.3099 139.8C90.3099 139.8 102.94 135.43 103.56 135.92L116.86 145.62Z" fill="#69BE6A"/>
<path d="M49.1099 253.56L38.1099 241.81L45.1799 225.64C45.6199 225.94 46.1799 226.38 46.9299 226.92L49.1099 253.56Z" fill="#26342E"/>
<path d="M58.2899 235.75C58.2899 235.75 50.9099 229.93 46.9199 226.92C46.2099 226.38 45.6099 225.92 45.1699 225.64L51.3699 211.45L57.1099 219.55L58.2899 235.75Z" fill="#6DB359"/>
<path d="M69.91 243.31L58.29 235.75C60.14 234.25 67.73 228.44 69.52 227.44L69.68 227.36C69.7433 227.322 69.8166 227.305 69.89 227.31V227.31C70 228 69.91 243.31 69.91 243.31Z" fill="#6DB359"/>
<path d="M110.91 225.17L106.97 226.52L84.3 234.3V219.55L105.9 209.77L110.91 225.17Z" fill="#6DB359"/>
<path d="M116.85 354.91C116.85 354.91 111.85 375.51 111.63 376.39C111.41 377.27 102.77 356.31 102.77 356.31L116.85 354.91Z" fill="#B6C158"/>
<path d="M78.9099 305.68C79.1799 304.31 64.4499 357.1 64.4499 357.1L58.1099 363.1C58.1099 363.1 61.9099 353.99 62.1599 353.19C62.4099 352.39 76.5099 301.48 76.5099 301.48C76.5099 301.48 67.1399 298.04 68.7999 298.3C71.3846 298.44 73.9751 298.44 76.5599 298.3L81.6299 296.77L93.9999 361.14C93.5399 359.51 78.6499 307 78.9099 305.68Z" fill="#26342E"/>
<path d="M124.9 353.8L131.25 267.42L116.86 354.87C116.86 354.87 111.86 375.47 111.63 376.35C111.4 377.23 102.78 356.27 102.78 356.27L77.6201 274C77.6201 274 88.3601 265.2 99.1301 256.54L106.97 226.54L84.3 234.31V236.8L79.6001 238.93L69.9101 243.33L58.4601 235.87L57.9901 235.53C56.5801 234.42 50.4301 229.59 46.9201 226.94L49.11 253.58L51.11 255.71L69.9101 275.79L53.6801 361.2L40.7301 353.2L32.5301 283.32L31.11 330.98L35.0101 350.18L30.8101 376.69L35.0101 386.13L34.08 472.89H39.7901V415.64C39.7901 414.5 57.9101 375.06 57.9101 375.06L66.2901 393.93L47.2001 472.85H51.0001L72.4101 391.08L58.1301 363.15C58.1301 363.15 61.9301 354.04 62.1801 353.24C62.4301 352.44 76.5301 301.53 76.5301 301.53C76.5301 301.53 67.1601 298.09 68.8201 298.35C71.4048 298.49 73.9953 298.49 76.58 298.35L81.6601 296.82L94.0001 361.14V386.31C94.0001 386.31 117.22 477.8 118.28 478.63C118.437 478.721 118.61 478.778 118.79 478.8C120.876 479.018 122.976 479.071 125.07 478.96H125.95L116.95 418.88C116.95 418.88 127.78 382.88 127.78 382.19C127.78 381.5 133.02 385.61 133.02 385.61L131.19 478.73L132.58 478.66L132.79 476.96C133.17 464.18 135.57 384.33 136.53 384.08C137.49 383.83 124.9 353.8 124.9 353.8ZM35.0001 371.73L38.5201 354.91C39.5201 355.34 49.2901 365.66 49.2901 365.66L35.0001 371.73Z" fill="#3D6B4D"/>
<path d="M120.57 239.89C119.47 240.4 113.24 245.27 105.84 251.17C103.67 252.9 101.4 254.73 99.1299 256.56L106.97 226.56L110.91 225.21L120.17 238.9L120.57 239.89Z" fill="#26342E"/>
<path d="M131.25 267.42C130.82 269.07 117.3 320.4 117 321C116.7 321.6 103.94 293.4 103.94 293.4C103.94 293.4 105.58 258.93 105.89 251.22C113.29 245.32 119.52 240.45 120.62 239.94L131.25 267.42Z" fill="#6DB359"/>
<path d="M168.1 204.2C167.9 204.42 160.69 212.53 154.32 219.55V249.79L150.71 256.51L145.23 249.37L133.35 263.66L133.77 271.16H140.21V283L151.3 285.76L162.38 279.1C162.38 279.1 162.12 246.93 162.38 245.83C162.59 245 166.35 217.16 168.1 204.2ZM151.3 281.08L153.1 274.02V261.9L156.47 276.39L151.3 281.08Z" fill="#3D6B4D"/>
<path d="M162.38 279.06L159.48 286.48L143.64 293.35L134.93 291.7L133.77 271.16H140.21V282.96L151.3 285.72L162.38 279.06Z" fill="#26342E"/>
<path d="M154.32 219.55V249.79L150.71 256.51L145.23 249.37L138.1 216.65C138.1 216.65 144.41 229.11 144.62 229.74C144.71 230 149.25 225.13 154.32 219.55Z" fill="#69BE6A"/>
<path d="M169 197.68C169 197.68 168.66 200.24 168.13 204.2C167.93 204.42 160.72 212.53 154.35 219.55C149.28 225.13 144.74 230.02 144.65 229.74C144.44 229.11 138.13 216.65 138.13 216.65L140.24 215.82L150.06 207.42L162.41 196.85C162.41 196.85 165.58 194.38 166.41 193.56C167.24 192.74 169 197.68 169 197.68Z" fill="#26342E"/>
<path d="M133.09 385.59L131.26 478.71C129.96 478.78 127.98 478.87 125.97 478.94L116.97 418.86C116.97 418.86 127.8 382.86 127.8 382.17C127.8 381.48 133.09 385.59 133.09 385.59Z" fill="#26342E"/>
<path d="M113.13 119.32L79.3199 130.48L69.8699 144L60.7999 129.1L41.9299 119.36L42.3499 117.43L45.6299 114.23C45.3299 114.68 45.6299 117.65 45.6299 117.65L69.5399 127L72.0899 128L111 115.83L113.13 119.32Z" fill="#26342E"/>
<path d="M84.3 219.55V234.29V236.78L79.6001 238.91L79.83 219.55H60.9201C60.5601 219.55 58.4001 217.08 57.3201 215.81L84.3201 214.66V219.55H84.3Z" fill="#6DB359"/>
<path d="M52.72 294.81C52.72 294.81 42.27 320.21 42.11 319.34C41.95 318.47 33.19 285.6 32.53 283.11V282.21L37.41 243.33L38.07 241.83L49.07 253.58L51.07 255.71L52.72 294.81Z" fill="#6DB359"/>
<path d="M69.91 275.77L53.68 361.18L40.73 353.18L32.53 283.3V283.13C33.19 285.62 41.93 318.53 42.11 319.36C42.29 320.19 52.72 294.83 52.72 294.83L51.11 255.71L69.91 275.77Z" fill="#26342E"/>
<path d="M49.24 365.66L35 371.73L38.52 354.91C39.5 355.34 49.24 365.66 49.24 365.66Z" fill="#B6C158"/>
<path d="M156.47 276.39L151.3 281.08L153.1 274.02V261.9L156.47 276.39Z" fill="#26342E"/>
<path d="M10.1299 276.39L6.41992 279.34L7.37991 262.91L10.1299 276.39Z" fill="#26342E"/>
<path d="M66.29 393.93L47.2 472.85H40L39.77 472.35V415.64C39.77 414.5 57.89 375.06 57.89 375.06L66.29 393.93Z" fill="#26342E"/>
<path d="M50.98 472.85L46.47 486.69H33.98L33.99 485.69L34.08 472.85H50.98Z" fill="#464C45"/>
<path d="M132.65 478.64L131.65 486.69H119.33L119.26 486.33L118.81 478.8C120.896 479.018 122.996 479.072 125.09 478.96C127.39 478.91 129.77 478.79 131.26 478.71L132.65 478.64Z" fill="#464C45"/>
<path d="M148.25 108.54L107.89 110.65L116.1 105.32L127.12 98.6701L129.3 97.3501L148.25 108.54Z" fill="#69BE6A"/>
<path d="M148.26 108.54L141.47 128.29V128.42L125.93 128.61L125.74 128.42L107.98 110.69L148.26 108.54Z" fill="#26342E"/>
<path d="M44.2401 108.32L27.8901 106.27L40.5401 99.3701L44.2401 108.32Z" fill="#26342E"/>
<path d="M48 108.32L37.66 116.63L26 129.11L19.75 121.33L27.89 106.27L44.24 108.32L40.54 99.3701L48 108.32Z" fill="#69BE6A"/>
<path d="M82.2201 35.4499L98.0301 26.9399L76.3201 33.2599L82.2201 35.4499Z" fill="#3D6C45"/>
<path d="M79.8301 65.4199L102.05 56.1499L105 59.1099L105.36 57.7299L102.05 56.1499L82.8301 62.3299L79.8301 65.4199Z" fill="#BB7644"/>
<path d="M77.5401 65.4899L61.3501 58.6499L74.6301 62.6999L77.5401 65.4899Z" fill="#9A5124"/>
<path d="M95.5999 80.01L85.6499 88.85L83.7099 89.78L79.9099 88.91L78.3999 88.44L83.7299 88.22L95.5999 80.01Z" fill="#9A5124"/>
<path d="M68.55 81.39L78.4001 88.44L68.55 80.24V81.39Z" fill="#9A5124"/>
<path d="M68.55 80.24C68.55 80.41 78.61 88.24 78.61 88.24H83.7301L83.5601 88.94L78.4001 88.46C78.4001 88.46 70.1301 82.28 70.0701 82.29C70.0101 82.3 68.55 80.24 68.55 80.24Z" fill="#9A5124"/>
<path d="M76.32 33.26C76.32 33.26 71.2599 24.69 71.1799 23.94C71.0999 23.19 80.7499 5.78003 80.7499 5.78003C80.7499 5.78003 75.7499 21.48 75.9599 21.67C76.1699 21.86 81.5899 31.2 81.5899 31.2L76.32 33.26Z" fill="#3B2418"/>
<path d="M104.14 7.22988C103.52 7.03988 95.6 10.6599 95.6 10.6599C95.6 10.6599 89.17 27.1699 89.45 26.9399C89.73 26.7099 96.79 12.1799 96.79 12.1799L104.14 7.22988Z" fill="#3B2418"/>
<path d="M47.1899 25.8399L63.2799 17.0799L72.2099 19.5199L62.2 5.18994L47.1899 25.8399Z" fill="#3B2418"/>
<path d="M99.13 369.16C99.65 370.08 114 408 114 408L97.77 386.88L99.13 369.16Z" fill="#B6C158"/>
<path d="M49.24 371.73L36.52 376.41L39.79 415.64L57.91 375.06L49.24 371.73Z" fill="#B6C158"/>
<path d="M58.46 235.86L53.04 257.75L69.91 275.77L67.76 287.09L75.04 289.04L81.69 287.35L77.62 274.02L94.01 260.69L102.77 227.31L84.3 234.3V236.78L69.91 243.31L58.46 235.86Z" fill="#69BE6A"/>
<path d="M132.74 150.31L131.22 149.79L131.74 148.79L135.27 142.16V142.1V142.03L141.72 129.89L151.45 156.81V156.89C147.83 155.54 136.8 151.71 132.74 150.31Z" fill="#3D6B4D"/>
<path d="M162.11 194.62L152.46 190.42L145.63 187.42L145.71 187.09L146.04 185.72L146.13 185.32L152.41 159.13L160.57 181.72L162.11 194.62Z" fill="#6DB359"/>
<path d="M145.74 188.26C146.38 191.99 148.93 206.95 148.96 208.16C148.956 208.24 148.935 208.318 148.9 208.39C148.29 209.76 142.9 213.79 140.43 215.63L140.34 215.7L140.28 215.75H140.21L142.57 188.38V188.12L140.27 184.95L135.71 178.66L122.06 151.46L122 151.34C124.87 150.54 131.05 148.84 131.72 148.75C131.916 148.783 132.11 148.829 132.3 148.89C132.3 148.89 147.48 155.04 151.5 156.75V156.83L152.32 159.1L146.04 185.29L145.95 185.69L145.62 187.06L145.54 187.39L145.74 188.26Z" fill="#69BE6A"/>
<path d="M162.38 196.85L152.47 205.34L152.17 205.58L150 207.31L148.93 208.16L145.71 188.26L145.57 187.43L152.4 190.43L162.05 194.63L162.38 196.85Z" fill="#3D6B4D"/>
<path d="M150.88 184.89L146.88 186.59L146.69 186.67H146.64L145.69 187.07L142.58 188.39V188.13L140.28 184.96C142.55 185.12 144.97 185.24 145.8 185.28H146.09L150.88 184.89Z" fill="#2B0C38"/>
<path d="M141.8 129.86L135.35 142V142.07V142.13L131.82 148.76L122.16 151.47L120.5 148.16L122 142.71L123.79 135.92H123.85L124.01 135.84L124.41 135.67L124.7 135.54L125.12 135.36L125.33 135.27L125.7 135.11L126.26 134.87L126.6 134.72L128.6 133.87L136.49 130.47L137.79 129.91L140.84 128.6L141.17 128.46H141.25H141.3L141.5 128.35V128.48L141.8 129.86Z" fill="#26342E"/>
<path d="M37.7301 136.61L36.0701 139.31L33.0001 151L32.3301 152.22C32.3301 152.22 39.0201 165.97 38.3301 166.68C37.6401 167.39 26.2501 177.09 26.2501 177.09L22.1201 151L27.7701 139.83L37.7301 136.61Z" fill="#3D6B4D"/>
<path d="M26.2499 177L25.6699 177.43L16.6699 184.13C16.7399 182.13 16.8199 180.25 16.8799 178.6L18.1599 166.98L18.3499 165.27C20.2899 154.08 23.6899 135.38 23.6899 135.38L27.7799 139.75L22.1299 151L25.3699 171.46V171.53L26.2499 177.05V177Z" fill="#69BE6A"/>
<path d="M38.35 166.67L38.28 167.34L34.64 189.34L33.46 207.39L25.46 202.95L23.68 201.95L23.02 201.58C23.02 201.58 23.07 201.24 23.14 200.65C23.14 200.45 23.2 200.22 23.23 199.97C23.26 199.72 23.29 199.55 23.32 199.31C23.41 198.65 23.51 197.86 23.63 196.99C23.63 196.81 23.68 196.62 23.71 196.42C23.74 196.22 23.8 195.77 23.84 195.42C23.8352 195.337 23.8352 195.253 23.84 195.17L24.01 193.87C24.08 193.33 24.15 192.77 24.23 192.19L24.38 191.06C24.6 189.35 24.84 187.6 25.06 185.93C25.11 185.59 25.15 185.25 25.2 184.93C25.25 184.61 25.2 184.48 25.29 184.26C25.35 183.74 25.42 183.26 25.48 182.77C25.48 182.44 25.57 182.12 25.61 181.77L25.73 180.87V180.61V180.38L25.82 179.67L25.91 178.97C25.91 178.75 25.96 178.55 25.99 178.36L26.06 177.86L26.17 177.04L26.3 176.93L26.65 176.63C28.74 174.8 36.99 167.63 38.15 166.73H38.2L38.35 166.67Z" fill="#69BE6A"/>
<path d="M26.27 177.06L26.16 177.88C26.16 178.03 26.11 178.19 26.09 178.38C26.07 178.57 26.09 178.77 26.01 178.99C25.93 179.21 25.95 179.44 25.92 179.69C25.89 179.94 25.86 180.12 25.82 180.35V180.6V180.86L25.7 181.76C25.7 182.07 25.61 182.39 25.57 182.76C25.51 183.24 25.44 183.76 25.38 184.25C25.38 184.47 25.31 184.7 25.29 184.92C25.27 185.14 25.2 185.59 25.15 185.92C24.93 187.59 24.69 189.34 24.47 191.05L24.32 192.18C24.24 192.76 24.17 193.32 24.1 193.86L23.93 195.16C23.9252 195.243 23.9252 195.327 23.93 195.41C23.93 195.75 23.84 196.08 23.8 196.41C23.76 196.74 23.75 196.81 23.72 196.99C23.6 197.86 23.5 198.65 23.41 199.31C23.41 199.55 23.38 199.77 23.32 199.97C23.32 200.22 23.26 200.45 23.23 200.65C23.16 201.24 23.11 201.58 23.11 201.58L16.21 197.75C16.21 197.75 16.5 190.69 16.76 184.16C16.83 182.16 16.91 180.28 16.97 178.63L18.25 167.01C19.32 168.54 23.99 174.16 25.72 176.24L26.35 176.98L26.27 177.06Z" fill="#26342E"/>
<path d="M141.43 128.42C141.43 128.42 141.43 128.42 141.31 128.48H141.21L141.04 128.56C139.34 129.27 133.04 131.92 128.53 133.83L126.53 134.68L126.19 134.83L125.63 135.07L125.26 135.23L125.05 135.32L124.63 135.5L124.34 135.63L123.94 135.8L123.78 135.88C123.23 135.88 117.54 126.57 113.14 119.24L111.04 115.75C109.39 112.97 108.2 110.94 108.04 110.62L125.83 128.4L141.43 128.42Z" fill="#69BE6A"/>
<path d="M63.96 146.74L52.7 164.18L41.45 161.29L39.38 159.82L32.04 151.03L36.02 138.98V138.97L39.32 135.49L53.44 136.12L63.96 146.74Z" fill="#69BE6A"/>
<path d="M105.9 209.77L84.2999 219.55V214.66L57.1099 215.82V219.55L51.3699 211.45L48.6499 176.75L40.2299 170.34L38.3999 166.63L31.3999 152.28L31.9999 151L39.3499 159.79L41.4199 161.26L46.7599 165.05L55.5299 178.34L57.0799 177.53L58.4999 199L69.9099 193.3C69.9099 193.3 82.9099 198.76 84.2999 199C85.2999 199.18 87.9199 187.79 89.2099 181.77C91.8399 182.77 97.5899 185.22 98.0299 185.22C98.4699 185.22 101.03 189.06 102.42 191.09C102.86 193.4 105.9 209.77 105.9 209.77Z" fill="#26342E"/>
<path d="M123.79 135.93L120.42 148.19L116.86 145.62L103.55 135.93C102.93 135.44 90.3 139.81 90.3 139.81L75.89 149.16L70.74 161.41L64 146.74L53.47 136.11L39.36 135.5L36 139L37.53 136.88C38.1 136.88 40.86 124.29 41.91 119.37L60.78 129.12L69.87 144L79.32 130.46L113.13 119.28C117.58 126.71 123.36 136.15 123.79 135.93Z" fill="#6DB359"/>
<path d="M61.4099 215.64L69.7599 210.64L82.2799 214.78L61.4099 215.64Z" fill="#26342E"/>
<path d="M111.34 158.14C111.22 158.58 100.69 171.51 100.69 171.51L100.53 176.45" fill="#6DB359"/>
</svg>
