<svg width="193" height="489" viewBox="0 0 193 489" fill="none" xmlns="http://www.w3.org/2000/svg">
<path d="M89 47.9201C89.904 48.6022 90.5606 49.5608 90.87 50.6501C90.9725 51.4096 90.8251 52.1818 90.45 52.8501C90.0703 53.5159 89.599 54.1252 89.05 54.6601C86.27 57.5701 82.68 59.9101 78.65 60.3601C77.9188 60.4676 77.1733 60.4234 76.46 60.2301C75.6733 59.9437 74.9812 59.4453 74.46 58.7901C74.0284 58.2669 73.6686 57.6885 73.39 57.0701C73.2453 56.6938 73.0714 56.3294 72.87 55.9801C72.21 54.9801 70.87 54.4201 70.27 53.3601C69.7622 52.2513 69.6493 51.002 69.95 49.8201C69.9587 49.6653 70.0032 49.5147 70.08 49.3801C70.1674 49.284 70.2727 49.2059 70.39 49.1501C72.954 47.9118 75.802 47.3802 78.64 47.6101C81.4605 47.8398 84.2917 47.91 87.12 47.8201C88.12 47.7401 89.21 47.6501 89.83 48.3901" fill="#C68651"/>
<path d="M95.83 43.69L82.4601 43.91C82.1601 43.91 77.2701 46.1799 77.2701 46.1799L74.8201 43.72L64.8201 43.45L66.1601 49.9299L68.6401 56.5399L75.0701 63.3999H87.1901L99.0901 53.1199L95.83 43.69ZM82.83 56.1199C82.58 56.0399 77.0401 56.1199 77.0401 56.1199L75.4701 53.66H85.2301C85.2301 53.66 83.0001 56.1999 82.7901 56.1199H82.83ZM73.3501 51.1199L75.0001 50C75.0001 50 84.0701 49.94 84.3901 50C84.7101 50.06 88.9601 51.27 88.9601 51.27L73.3501 51.1199Z" fill="#E4B17B"/>
<path d="M71.9399 0.699951L78.5999 2.53995L86.5099 0.699951L101.9 4.70996L88.2899 8.06996L75.8699 7.38995L71.9399 0.699951Z" fill="#3E383E"/>
<path d="M189.38 216.63V217.08H174.28L186.44 162.46C186.44 162.46 191.7 185.65 192.16 186.32V186.46C192.66 189.08 189.38 216.63 189.38 216.63Z" fill="#5A5755"/>
<path d="M184.03 217.08L178.84 244.62L173.69 230.85L167.72 228.86L167.86 228.4L174.28 217.08H184.03Z" fill="#E4B37C"/>
<path d="M178.84 244.62L168.53 248.07L166.21 244.62L171.51 242.87V238.34L166.21 244.62L163.82 241.06L167.72 228.86L173.69 230.85L178.84 244.62Z" fill="#D1925E"/>
<path d="M191.44 243.51L186.73 248.07H168.53L178.84 244.62L191.44 243.51Z" fill="#9E6F5A"/>
<path d="M189.38 217.08L191.44 243.51L178.84 244.62L184.03 217.08H189.38Z" fill="#D1925E"/>
<path d="M168 99.8799V99.9999L151.94 120.54L136.5 113.37V97.7699L155 80.1099L155.33 80.1599L168 99.8799Z" fill="#29272C"/>
<path d="M154.96 80.11L136.48 97.7701L114.61 86.1401L129.69 76.0601L129.91 76.1701L154.96 80.11Z" fill="#A1A0A0"/>
<path d="M105 66.71C99.9999 68.84 83.1199 76.85 82.8099 76.64C82.4999 76.43 75.1199 71.06 71.4399 68.29L81.9099 72.07L105.64 61.78L105.7 65.63L105 66.71Z" fill="#D0A17F"/>
<path d="M105.06 55.6499L105.67 61.7699L81.94 72.0599L71.47 68.2799L72.63 62.8099L74.49 65.0499H87.1L105.06 55.6499Z" fill="#BB865E"/>
<path d="M103.54 45.9999L104.11 45.3999L103.54 45.9999L105.06 55.6899L87.0601 65.0899L98.9101 53.1599C99.8301 49.0559 101.108 45.0405 102.73 41.1599C102.89 40.7199 103.54 45.7799 103.54 45.9999Z" fill="#966C54"/>
<path d="M98.92 53.1199L87.0699 65.0499H74.4699L72.6099 62.8099L68.2599 56.8099L65.9999 50.0899L63.9399 43.3799L65.2899 43.4499L66.6299 49.9299L69.1099 56.5399L74.8999 63.3999H86.9999L98.92 53.1199Z" fill="#C7915D"/>
<path d="M109.8 29.1201V39.2601L103.54 45.9601C103.54 45.7801 102.89 40.7201 102.74 41.0801C105.29 35.0801 107.87 29.0801 107.96 29.0801L109.8 29.1201Z" fill="#D0A17F"/>
<path d="M108.22 14.0001L108.08 29.0001L97.7899 24.6601L98.4099 14.4901L93.9399 15.2101L80.9399 18.7401L67.9399 14.0601L65.8599 25.4801L67.0799 9.48009C67.0799 9.48009 78.3199 12.0001 78.5699 12.0001C78.8199 12.0001 96.1699 10.3901 96.5699 10.2701C96.9699 10.1501 102.07 8.1401 102.36 7.8501L108.22 14.0001Z" fill="#22201F"/>
<path d="M93.9399 15.2301L91.2999 24.2301C91.2999 24.2301 78.7999 29.5001 78.6199 29.6301C78.4399 29.7601 70.1399 25.2301 69.7599 25.1001C69.3799 24.9701 67.9099 14.1001 67.9099 14.1001L80.4099 18.5901L93.9399 15.2301Z" fill="#E4B17B"/>
<path d="M108.2 29.1199L102.08 31.1899L97 32.7099L94.16 29.2699L91.78 26.4099L97.79 24.6799L108.03 29.0199L108.2 29.1199Z" fill="#A1A0A0"/>
<path d="M102.41 31C102.41 31 97.5699 40.05 96.1199 42.86C96.0199 43.06 95.9399 43.21 95.8599 43.34C95.7799 43.47 95.73 43.59 95.7 43.64V43.69L82.3199 43.91C82.0199 43.91 77.14 46.18 77.14 46.18L74.6899 43.72L65.6899 43.45L63.9399 43.38L68.1899 38.91L75.2699 40.66L76.6799 33.72L67.2 29.45L65.5499 25.87L65.8299 25.5L78.2799 31.85L91.92 26.36L94.1799 29.1L80.4099 34.1L81.5999 40.67C81.8899 40.67 94.3699 40.17 94.5999 40.1C94.8299 40.03 97.0499 32.55 97.0499 32.55L102.41 31Z" fill="#29272C"/>
<path d="M76.6799 33.72L75.2599 40.66L74.7199 34.0399L67.2 29.45L76.6799 33.72Z" fill="#29272C"/>
<path d="M68.1901 38.9101L63.9401 43.3801L63.05 34.2801V29.1201L65.55 25.8701L67.2001 29.4501L65.3901 33.0001L67.05 38.6301L68.1901 38.9101Z" fill="#A1A0A0"/>
<path d="M94.1899 29.1001L83.6899 33.8501L81.5999 40.6601L80.4099 34.0901L94.1899 29.1001Z" fill="#29272C"/>
<path d="M108.2 29.1201C107.95 29.4801 105.46 35.2601 102.99 41.0601L102.87 41.3201C100.66 46.4801 99.6101 51.6901 99.0401 52.8601C99.0401 52.8601 99.0401 53.0101 98.9701 53.0501C98.9505 53.0885 98.9233 53.1225 98.8901 53.1501L95.6201 43.6701V43.6201C95.6789 43.5231 95.7323 43.423 95.7801 43.3201C95.8601 43.1901 95.9401 43.0401 96.0401 42.8401C97.5701 40.0401 102.33 30.9801 102.33 30.9801L107.81 29.2001L108.11 29.1001L108.2 29.1201Z" fill="#5A5755"/>
<path d="M99.0901 184.26L95.8101 189.06L77.2701 191.25V132.89L100.56 143.76L96.8701 157.43L99.0901 184.26ZM84.0901 131.51C84.0901 131.51 109.46 136.16 110.15 135.98C110.84 135.8 131.24 119.76 131.88 119.26L112.22 143.76L84.0901 131.51ZM139.39 134.36L128.88 106L122.56 120.49C122.56 120.49 107.56 129.15 107.2 129.49C106.84 129.83 78.6301 125.49 78.6301 125.49L80.0301 99.61L89.1701 84.52L80.8701 89.52C80.8701 89.52 73.2801 85.65 72.6701 84.99L78.4701 100.45L74.36 125.73L50.55 133.39L33.55 122.28L49.8801 137.53L66.83 131.45L52.4901 144.75L54.8701 179.86C54.8701 179.86 64.8001 200.93 65.2701 201.23C65.7401 201.53 90.8201 201.23 90.8201 201.23L108.64 175.49L126.64 168.18C126.64 168.06 126.64 168 126.64 168L127.18 166.58L139.39 134.36Z" fill="#40403E"/>
<path d="M131.87 119.26L112.21 143.76L84.0801 131.51C84.0801 131.51 109.45 136.16 110.14 135.98C110.83 135.8 131.23 119.76 131.87 119.26Z" fill="#29272C"/>
<path d="M78.47 100.46L74.36 125.74L50.54 133.4L33.52 122.29L36.53 105.17L50.5 86.1401L78.47 100.46Z" fill="#A1A0A0"/>
<path d="M50.4999 86.14L31.2499 101.71L17.1099 95.34L31.2499 80.24L47.9399 80L48.4799 79.76C49.7599 81.74 50.4999 86.14 50.4999 86.14Z" fill="#A1A0A0"/>
<path d="M19.7799 121.52L19.8299 121.38L17.1099 95.3401L31.2499 101.71L33.5199 122.29L19.7799 121.52Z" fill="#40403E"/>
<path d="M53.5199 205.28L66.2099 230.83L64.9999 229L64.5099 228.25L64.2399 227.84L63.67 226.93L63.0299 225.93L62.6899 225.4L61.6099 223.71L60.4399 221.9L59.6299 220.62L58.7899 219.33L58.3699 218.67L57.5499 217.38L56.17 215.24L55.3999 214L54.5599 212.67C50.7799 206.78 40.9199 201.96 40.8599 201.67L49.9399 179.11C49.9399 179.11 47.6599 144.9 47.8799 141.36C47.5899 142.12 46.5599 144.28 45.2499 146.95C45.1599 147.52 43.7499 155.63 43.5999 155.95C43.4499 156.27 38.1799 162.54 38.1799 162.54L15.1799 152.21L38.42 143.72L33.5099 122.25L49.8399 137.5L66.7899 131.42L52.45 144.72L54.8299 179.83L53.5199 205.28Z" fill="#5A5755"/>
<path d="M15.2 152.25L19.5099 182.36L8.78995 217.47L1.18994 213.97L7.02994 163.32L15.2 152.25Z" fill="#A1A0A0"/>
<path d="M38.11 162.69L37.4 176.38L15.63 217.74L8.79004 217.47L19.51 182.36L38.11 162.69Z" fill="#5A5755"/>
<path d="M13.67 233.24L4.12003 246.54L0.77002 232.4L1.19003 213.97L8.79004 217.47L13.67 233.24Z" fill="#D2935C"/>
<path d="M22.46 229.87L13.67 233.24L8.79004 217.47L15.63 217.74L22.34 229.51L22.46 229.87Z" fill="#E5B47E"/>
<path d="M25.9299 239.95L22.3399 242.63L13.6699 233.24L22.4599 229.87L25.9299 239.95Z" fill="#CF975D"/>
<path d="M22.3401 242.63L20.1701 246.67L19.4101 248.07L4.14014 246.62L4.12012 246.54L13.6701 233.24L22.3401 242.63Z" fill="#9D6D5F"/>
<path d="M129.18 192.31L100.56 215.79L90.5601 230.85C90.0401 230.17 112.74 197.85 112.23 197.37C111.72 196.89 108.63 175.5 108.63 175.5L126.63 168.19C126.87 170.35 129.08 190.93 129.08 191.78C129.099 191.959 129.133 192.136 129.18 192.31V192.31Z" fill="#5A5755"/>
<path d="M66.22 230.85L58.82 287.64L30 267.06L40.89 201.7C41.04 202.3 65.67 229.95 66.24 230.83L66.22 230.85Z" fill="#A1A0A0"/>
<path d="M146.16 250L140.47 310.37C140.47 310.37 131.06 321.66 127.47 326.64C130.05 320.95 135.4 306.71 135.4 306.45C135.4 306.19 122.23 289.06 120.78 285.57C120.88 285.15 120.88 284.92 120.78 284.94C120.68 284.96 120.66 285.19 120.78 285.57C119.78 289.79 102.61 316.4 101.68 318.38L101.62 318.51C94.17 293.51 89.9 257.94 89.9 257.94L86.53 295.04C86.53 295.04 80.53 320.92 80.46 321.48C80.46 321.48 77.55 323.31 74.1 325.48C69.39 328.42 63.72 331.96 63.26 332.26C62.47 332.78 73.76 310.96 73.76 310.96L58.76 287.66L66.16 230.87C66.16 230.87 90.49 231.54 90.49 230.87L120.75 283.66L146.16 250Z" fill="#5A5755"/>
<path d="M58.82 287.64L43.08 321.73L29.97 267.06L58.82 287.64Z" fill="#5A5755"/>
<path d="M80.0599 344.39L65.1399 359L40.3999 335.05L42.5799 323.42L42.8499 322.5L43.0799 321.73L58.8199 287.64L73.8199 310.94C73.8199 310.94 62.5299 332.76 63.3199 332.24C64.1099 331.72 80.5199 321.5 80.5199 321.5C80.7299 320.84 80.0599 344.39 80.0599 344.39Z" fill="#40403E"/>
<path d="M86.5701 381.94L65.1401 358.99L80.0601 344.39L86.5701 381.94Z" fill="#C7C6C1"/>
<path d="M67.7001 452.79C67.7001 452.79 67.9201 451.25 68.3001 448.65L67.0001 453.26L65.1401 359L83.3801 402.45L67.7001 452.79Z" fill="#29272C"/>
<path d="M49.3399 426.08C49.3399 426.08 49.5099 365.27 49.3399 364.61C49.1699 363.95 40.45 335.73 40.45 335.05L65.14 359L66.9999 453.26L49.3399 426.08Z" fill="#5A5755"/>
<path d="M67.9301 476.82L30.0001 478.59C30.0001 478.59 20.7801 481.7 19.8901 481.47C19.0001 481.24 4.14014 479 4.14014 479L5.04013 473.44L24.6801 474.28L42.7801 475.05L60.0901 471.28C60.0901 471.28 67.4601 469.4 67.6901 469.47C67.8301 473.58 67.9301 476.82 67.9301 476.82Z" fill="#40403E"/>
<path d="M67.6901 469.51C67.4601 469.44 60.0901 471.32 60.0901 471.32L51.4201 449.68L49.3401 425.85L67.0001 453C67.1401 453 67.4701 462.52 67.6901 469.51Z" fill="#40403E"/>
<path d="M60.0901 471.32L42.7801 475.32L24.6801 474.54L14.05 469.5L41.1301 458.91L60.0901 471.32Z" fill="#C7C6C1"/>
<path d="M24.68 474.54L5.04004 473.48L14.03 469.5H14.05L24.68 474.54Z" fill="#29272C"/>
<path d="M146.16 250L120.81 283.64C120.16 283.01 137.9 211.16 137.9 211.16C142.73 227.12 146.16 250 146.16 250Z" fill="#40403E"/>
<path d="M140.46 310.39C140.46 310.39 131.06 321.68 127.51 326.66C130.09 320.97 135.43 306.73 135.43 306.47C135.43 306.21 122.27 289.08 120.82 285.59C119.82 289.99 101.66 318.53 101.66 318.53L123.09 334L126.2 356.25L143.61 339.31L140.46 310.39Z" fill="#40403E"/>
<path d="M139.14 429.52L116.48 388.62C116.48 388.62 116.48 388.2 116.38 387.46C116.44 386.18 126.2 364.07 126.2 364.07L112.08 345.53C112.08 345.28 107.22 333.53 101.78 318.76L123.21 334.19L126.21 356.26L160.79 425.16L162.48 457.31L139.14 429.52Z" fill="#5A5755"/>
<path d="M126.2 364C126.2 364 116.44 386.11 116.38 387.39C115.77 380.3 112.08 346.06 112.08 345.46L126.2 364Z" fill="#C7C6C1"/>
<path d="M160.78 425.11L126.2 356.21L143.61 339.27L158.21 375.93L160.78 425.11Z" fill="#29272C"/>
<path d="M167.89 469.84L144.24 462.27L139.57 430.38L139.14 429.52L162.47 457.26L167.89 469.84Z" fill="#40403E"/>
<path d="M172.56 480.69L147.7 480.24C147.7 480.24 144.29 470.37 144.29 469.95V462.59L144.23 462.27L167.89 469.84L172.56 480.69Z" fill="#C7C6C1"/>
<path d="M174.15 484.37L160.23 488.81H147.87L142.04 481.71L144.29 470.37V470C144.29 470.42 147.7 480.29 147.7 480.29L172.56 480.74L174.15 484.37Z" fill="#40403E"/>
<path d="M186.44 162.46L167 152.75L151.92 120.49L168 100C168 101.09 167.78 115.5 168 116.13C168.22 116.76 172.38 131.58 172.38 131.58C172.38 131.58 177.88 150.03 177.88 149.36C177.88 148.69 186.44 162.46 186.44 162.46Z" fill="#5A5755"/>
<path d="M167 152.75C167 152.75 158.85 160.24 154.94 164.1C153.79 162.96 144.87 155.26 143.15 154.01C145.76 154.73 165.87 152.75 167 152.75Z" fill="#40403E"/>
<path d="M174.28 217.08L157.37 184.91L155.1 164.28L154.94 164.1C158.85 160.24 167 152.75 167 152.75L174.28 217.08Z" fill="#A1A0A0"/>
<path d="M186.44 162.46L174.28 217.08L167 152.75L186.44 162.46Z" fill="#40403E"/>
<path d="M113 70.23L89.2101 84.54L80.9101 89.54C80.9101 89.54 73.3201 85.67 72.7101 85.01V84.92C72.9701 84.74 69.3401 77.5 67.0801 73.04C67.3001 72.85 71.4201 68.44 71.5001 68.34C75.1801 71.11 82.6001 76.51 82.8701 76.69C83.1401 76.87 100.7 66.69 105.74 64.52L113 70.23Z" fill="#5A5755"/>
<path d="M78.47 100.46L50.5 86.1399L72.64 84.9099L72.67 84.9999L78.47 100.46Z" fill="#C7C6C1"/>
<path d="M36.53 105.17L33.52 122.29L31.25 101.71L50.5 86.1401L36.53 105.17Z" fill="#5A5755"/>
<path d="M38.44 143.76L15.2 152.25L14.99 133.63L19.78 121.52L33.52 122.29L38.44 143.76Z" fill="#A1A0A0"/>
<path d="M38.17 162.58L38.1099 162.69L19.5099 182.36L15.2 152.25L38.17 162.58Z" fill="#40403E"/>
<path d="M20.17 246.67L7.42993 244.2L11.8999 240.48L22.3399 242.63" fill="#CF975D"/>
<path d="M114.61 86.14L80.02 99.63L89.17 84.54L114.61 86.14Z" fill="#C7C6C1"/>
<path d="M128.88 106L125.05 121.27C125.05 121.27 109.26 131.16 108.9 131.53C108.54 131.9 78.6201 125.53 78.6201 125.53L80.0201 99.6499L114.61 86.1599L128.88 106Z" fill="#A1A0A0"/>
<path d="M167 152.75C165.87 152.75 145.76 154.75 143.15 154.01C143.052 153.915 142.932 153.846 142.8 153.81C142.28 152.67 145.57 126.49 145.57 126.49L151.93 120.49L167 152.75Z" fill="#A1A0A0"/>
<path d="M171.51 238.34V242.87L166.21 244.62L171.51 238.34Z" fill="#966445"/>
<path d="M120.81 283.66L90.55 230.87L100.55 215.81L129.17 192.33C129.73 194.45 134.33 201.97 137.89 211.2C137.9 211.18 120.16 283 120.81 283.66Z" fill="#A1A0A0"/>
<path d="M90.54 230.85C90.54 231.5 66.21 230.85 66.21 230.85L53.51 205.3L54.84 179.89C54.84 179.89 64.77 200.96 65.25 201.26C65.73 201.56 90.79 201.26 90.79 201.26L108.61 175.52C108.61 175.52 111.69 196.88 112.21 197.39C112.73 197.9 90 230.17 90.54 230.85Z" fill="#29272C"/>
<path d="M98.4101 14.5101L97.7901 24.6801L91.9201 26.3601L78.2801 31.8501L65.8301 25.5001L67.9101 14.0801C67.9101 14.0801 69.3901 24.9701 69.7601 25.0801C70.1301 25.1901 78.4201 29.7301 78.6201 29.6101C78.8201 29.4901 91.3001 24.2101 91.3001 24.2101L93.9401 15.2101L98.4101 14.5101Z" fill="#D0965D"/>
<path d="M87.11 51.22L84.55 51.79L72.76 51.52C72.76 51.52 71.52 51.14 71.47 51.14L73.14 49.95C73.14 49.95 82.22 49.89 82.54 49.95C82.86 50.01 87.11 51.22 87.11 51.22Z" fill="#8F5729"/>
<path d="M83.3501 53.6599C83.3501 53.6599 81.2001 56.1999 80.9501 56.1199C80.7001 56.0399 75.1601 56.1199 75.1601 56.1199L73.6001 53.6599H83.3501Z" fill="#8F5729"/>
<path d="M97.0001 32.5401C97.0001 32.5401 94.75 40.0201 94.55 40.0901C94.35 40.1601 81.86 40.6601 81.55 40.6601L83.6401 33.8501L94.1301 29.1001L97.0001 32.5401Z" fill="#FFFDFD" stroke="#231F20" stroke-linejoin="round"/>
<path d="M75.2601 40.66L68.1901 38.91L67.0501 38.63L65.3901 33L67.2001 29.45L74.7201 34.0399L75.2601 40.66Z" fill="#FFFDFD" stroke="#231F20" stroke-linejoin="round"/>
<path d="M82 44L95.21 45.28L98.97 53.13L95.72 43.7L82.32 43.92" fill="#6A3F26"/>
<path d="M108.22 13.9999L95.2201 12.9999L78.6201 15.4399L68.1901 12.7299L67.05 9.47992C67.05 9.47992 67.6801 8.33992 68.5001 6.88992L89.8101 9.31993L101.9 4.66992L108.22 13.9999Z" fill="#22201F"/>
<path d="M76 27.7599C76.7715 28.214 77.5659 28.6279 78.38 29C78.38 29 77.66 24.1599 77.49 24.1199C77.0919 23.7675 76.727 23.3792 76.4 22.96L76 27.7599Z" fill="#A46A33"/>
<path d="M78.9099 28.9799L80.4099 26.3799V28.1899L78.9099 28.9799Z" fill="#A46A33"/>
<path d="M72.64 84.91L50.5 86.14C49.7013 83.5932 48.698 81.1151 47.5 78.73L64.75 69.25L71.42 68.25C71.34 68.35 67.22 72.76 67 72.95C69.27 77.49 72.9 84.73 72.64 84.91Z" fill="#40403E"/>
<path d="M51.57 76.51L31.25 80.22L52.1 80.57L51.57 76.51Z" fill="#40403E"/>
<path d="M172.36 131.53L167 130.89L168 116.08C168.2 116.75 172.36 131.53 172.36 131.53Z" fill="#40403E"/>
<path d="M66.18 230.78L40.9 201.72L40.84 201.66L49.92 179.1C49.92 179.1 44.64 145.92 44.86 142.38L33.51 122.26L49.84 137.51L66.79 131.43L52.45 144.73L54.83 179.84L53.5 205.25L66.13 230.69L66.18 230.78Z" fill="#5A5755"/>
<path d="M96.88 157.44L99.09 184.26L95.82 189.06L95.54 189.09L89.4 197.8L77.28 198.73V132.88L100.57 143.76L96.88 157.44Z" fill="#A1A0A0"/>
<path d="M101.9 4.70996L102.9 9.51996L79.5 14.08L67.01 9.51996C67.01 9.51996 67.64 8.37995 68.46 6.92995C69.87 4.38995 71.84 0.859951 71.9 0.699951C71.9 1.03995 79.23 5.52995 79.23 5.52995L83.17 3.04996L86.47 4.70996H101.9Z" fill="#22201F"/>
<path d="M98.4101 14.5099C98.4101 14.5099 102.68 12.2399 102.64 12.3899C102.6 12.5399 100 25.5999 100 25.5999L97.8 24.6799L98.4101 14.5099Z" fill="#3E383E"/>
<path d="M108.77 31.3899V38.9099L105.69 42.4099L108.77 31.3899Z" fill="#AB8569"/>
<path d="M105.69 42.4099L103.79 42.2499L108.77 31.3899L108.2 36.8999L105.69 42.4099Z" fill="#AB8569"/>
<path d="M80.4101 18.0001C80.4101 17.8001 70.0601 10.3301 70.0601 10.3301C70.0601 10.3301 71.7501 1.52011 71.9401 1.77011C72.1301 2.02011 78.3901 9.37011 78.3901 9.37011L80.4101 18.0001Z" fill="#3E383E"/>
<path d="M63.9399 43.3799L74.4699 44.6099C74.4699 44.6099 77.2699 46.3399 77.1099 46.1799L74.6599 43.7199L63.9399 43.3799Z" fill="#6A3F26"/>
<path d="M129.69 76.06L114.61 86.14L89.1699 84.54L111.33 71.2L105.71 64.47L113.9 67.51L129.69 76.06Z" fill="#40403E"/>
<path d="M129.91 135.22C129.73 135.64 117.1 145.57 117.1 145.57L116.22 151.9L129.91 135.22Z" fill="#29272C"/>
<path d="M129.18 142.4C129.04 142.84 118.18 155.47 118.18 155.47L117.86 160.89L129.18 142.4Z" fill="#29272C"/>
<path d="M127.44 165.76L126.6 168.19L127.12 166.59L127.44 165.76Z" fill="#A02889"/>
<path d="M75.7101 137.1C76.1401 138.19 74.8701 153.01 74.8701 153.01L60.8701 153.94L63.8201 139.94L75.7101 137.1Z" fill="#A1A0A0"/>
<path d="M74.2401 164.98L73.8201 190.66L60.0701 186.83L62.4401 167.33L74.2401 164.98Z" fill="#A1A0A0"/>
<path d="M101.72 318.4L101.66 318.53C94.2101 293.53 90.7901 263.45 90.7901 263.45L86.5701 295.06C86.5701 295.06 80.5701 320.94 80.5001 321.5C80.5001 321.5 77.5901 323.33 74.1401 325.5L80.5401 304.9L88.9201 254.73L81.1901 252.48L77.7101 245.83L83.4801 249.92L90.8101 249.62C90.8101 249.62 95.0601 256.62 95.5401 257.49C96.0201 258.36 100.82 313.81 101.72 318.4Z" fill="#29272C"/>
<path d="M41.1299 458.91L51.4199 449.68C51.4199 449.68 60.6499 472.12 60.0999 471.54C59.5499 470.96 41.1299 458.91 41.1299 458.91Z" fill="#29272C"/>
<path d="M189.38 216.63V217.08H174.28L192.16 186.32V186.46C192.66 189.08 189.38 216.63 189.38 216.63Z" fill="#A1A0A0"/>
<path d="M74.8999 63.3999C75.0399 63.2499 76.8999 60.2299 76.8999 60.2299L83.1699 59.96L86.9999 63.3999L79.5799 64.3999L74.8999 63.3999Z" fill="#C7915D"/>
<path d="M140.7 132.88L136.48 148.29L126.6 168.19L127.44 165.76L127.12 166.59L134.17 142.96L135.04 128.25L128.88 106L139.34 125.97L140.7 132.88Z" fill="#29272C"/>
<path d="M86.5701 381.94L83.3801 402.44L65.1401 358.99L86.5701 381.94Z" fill="#C7C6C1"/>
<path d="M145.56 126.49C145.56 126.49 142.27 152.67 142.79 153.81C142.11 153.81 138.79 125.02 138.79 125.02L125.73 109.27L114.56 86.1401L136.43 97.7701V113.32L151.87 120.49L145.56 126.49Z" fill="#5A5755"/>
<path d="M74.24 154.98V163.36L62.22 164.1L67.15 156.02L74.24 154.98Z" fill="#A1A0A0"/>
<path d="M104.41 147.33C104.41 147.33 100.64 156.12 101.09 156.57C101.54 157.02 106.36 170.87 106.36 170.87L107.97 156.57L104.41 147.33Z" fill="#29272C"/>
<path d="M96.87 157.44L77.27 154.01L75.96 158.43L97.01 159.13L98.89 158.08L96.87 157.44Z" fill="#5A5755"/>
<path d="M100 171.62C100.32 171.52 100.41 175.5 100.41 175.5L75.8101 168.19V163.56C75.8101 163.56 99.6701 171.73 100 171.62Z" fill="#5A5755"/>
</svg>
