<svg width="162" height="516" viewBox="0 0 162 516" fill="none" xmlns="http://www.w3.org/2000/svg">
<path d="M123.65 103L116 104.72L114.41 104.64L120.19 90L112.91 51.11L107.75 66.11L105.14 68.11V57.15L101.68 42.61L99.1401 31.94L97.8101 26.36L76.1001 32.68L60.0001 25.26L56.0001 31.2C56.0001 31.2 56.0001 33.83 56.0001 36.84C55.3701 39.37 53.7101 46.07 53.7101 46.78C53.7101 47.67 54.8401 61.96 55.2101 62.7C55.5801 63.44 50.6001 73.46 50.6001 73.46L56.2401 69.63L60.9001 62.24L63.5601 72.35L68.8701 79.09L68.3 99.82L56.0001 104.12L55.3201 103.89L46.1501 101.11L43.3201 63.11L47.0001 25.26L62.0001 6.34L80.4601 0.880005L101.84 7.88L116.22 32.66L119.16 53.8L117.88 56.86L123.57 86.39L123.65 103Z" fill="#D26D28"/>
<path d="M53.67 45.94L49.45 61.2L48.3599 58.06L46.45 65.91L51.2799 102.51C51.2799 102.51 60.4799 95.4 61.1299 94.51C61.7799 93.62 59.4799 69.84 59.4799 69.84L56.8199 54.08L53.67 45.94Z" fill="#9C4D23"/>
<path d="M53.36 71.6L54.36 79.66L52.55 84.18L51.26 102.51C51.26 102.51 62.48 109.66 62.79 109.56C63.1 109.46 70.79 106.35 70.94 105.95C71.09 105.55 74.94 95.21 74.82 93.61C74.7 92.01 74.96 78.03 74.39 77.69C73.82 77.35 67.6 71.34 67.2 71.03C66.8 70.72 63.09 62.11 63.09 62.11L59.63 60L53.36 71.6Z" fill="#9C4D23"/>
<path d="M95.3801 79.42L95.1601 82.8L79.0001 100.12L79.2901 121.56L69.2901 126.38L45.4401 117C45.4401 117 45.1101 114 45.4401 113.58L55.3401 103.88L56.0201 104.11L70.7501 98.72L68.9001 79.08L63.5901 72.34L60.9301 62.23V61.97L59.0001 57.39C59.0001 57.39 58.7101 56.39 58.3101 54.89L61.1401 58.06C61.1401 58.06 73.9601 62.11 74.4201 62.11C74.8801 62.11 78.4201 66.11 78.4201 66.11V72.85L71.0001 71.45L74.1101 76.3L78.4301 77.69V87.64H83.5501L95.3801 79.42Z" fill="#DC9159"/>
<path d="M76.1 32.68L72.33 34.2L71.99 38.82L56.02 31.2L60 25.26L76.1 32.68Z" fill="#E1C252"/>
<path d="M99.1401 31.94L83.9701 38.84L82.6101 39.46L82.0001 34.87L76.1001 32.68L97.8101 26.36L99.1401 31.94Z" fill="#E1C252"/>
<path d="M101.68 42.61L95.3799 39.46C95.3799 39.46 81.7999 48.2 81.3799 48.53C80.9599 48.86 83.9399 38.84 83.9399 38.84L99.1099 31.94L101.68 42.61Z" fill="#F2914B"/>
<path d="M101.69 42.61L95.38 39.46C95.38 39.46 81.81 48.2 81.38 48.53C80.95 48.86 83.94 38.84 83.94 38.84L82.59 39.46L77.29 47.72L78.09 53.58L77.89 62.76L82.59 61.76L101.81 55.59L105.12 57.17L101.69 42.61ZM78.69 60.5L79.95 54.89L82.33 60.5H78.69ZM101.69 49.86L93.31 55.57L82.62 51C83.25 51 96.19 42.15 96.19 42.15L101.69 46.67V49.86Z" fill="#F3EB50"/>
<path d="M74.43 62.14C73.97 62.14 61.15 58.14 61.15 58.14L58.32 54.96C57.3866 51.8481 56.6123 48.6907 56 45.5C56 44.8 56 40.55 56 36.87C56 33.87 56 31.23 56 31.23L61 41.52L61.19 42.16L61.36 42.76L57.44 47.35L64.52 55.59L65.17 55.22L74.43 62.14Z" fill="#F2914B"/>
<path d="M145.7 196.12L145.91 206.83L138.01 213.52L138.26 198.84V198.7L138.44 187.88V187.57L137.19 183.57L135.49 178.13L118.59 148.77V148.7L117.98 147.63L118.12 147.13L119.32 142.79L121.32 135.39C122.03 135.02 137.05 129.73 137.05 129.73L134.11 140.83L132.17 148.15L132.08 148.49C132.08 148.49 132.08 148.6 132.13 148.7V148.83C132.13 148.88 132.13 148.94 132.13 149C132.13 149.06 132.19 149.25 132.23 149.4L132.36 149.91C132.36 150.09 132.45 150.28 132.51 150.49C132.59 150.77 132.66 151.07 132.74 151.4C132.74 151.4 132.74 151.51 132.74 151.56C132.81 151.82 132.88 152.09 132.95 152.38C133.02 152.67 133.1 152.97 133.18 153.28C133.26 153.59 133.27 153.65 133.32 153.85C133.48 154.46 133.65 155.12 133.82 155.8C133.94 156.25 134.05 156.71 134.18 157.18C134.24 157.43 134.31 157.69 134.37 157.95C134.91 160.02 135.49 162.3 136.1 164.63C136.18 164.92 136.26 165.22 136.33 165.51L137.03 168.16C137.11 168.46 137.19 168.75 137.26 169.04C137.57 170.21 137.89 171.37 138.19 172.51C138.27 172.79 138.35 173.08 138.42 173.36L139 175C139.08 175.27 139.15 175.54 139.22 175.81C139.88 178.2 140.5 180.35 141.02 182.07C141.08 182.26 141.13 182.44 141.19 182.62C141.32 183.06 141.45 183.47 141.57 183.84C141.69 184.21 141.72 184.28 141.79 184.48L141.91 184.83C142.03 185.16 142.14 185.44 142.22 185.64C142.272 185.762 142.336 185.88 142.41 185.99C142.428 186.021 142.452 186.048 142.48 186.07C142.48 186.07 142.54 186.07 142.56 186.07C142.594 186.034 142.637 186.006 142.684 185.989C142.73 185.972 142.78 185.965 142.83 185.97C142.909 185.957 142.99 185.957 143.07 185.97L143.34 186.06H143.39L143.65 186.19C143.8 186.26 143.96 186.36 144.13 186.46C144.53 186.71 144.98 187.03 145.44 187.38C145.603 187.491 145.76 187.611 145.91 187.74C147.1 188.66 148.31 189.74 149.05 190.4C149.111 190.448 149.168 190.502 149.22 190.56L149.74 191.03L145.63 193.56V195.56L145.7 196.12Z" fill="#DC9159"/>
<path d="M36.7501 137.2L35.4301 140L26.1301 159.56L26.2401 175.9L26.3601 194.53C25.6758 194.125 24.9716 193.754 24.2501 193.42C23.8401 193.25 23.5201 193.15 23.4801 193.27C23.3601 193.57 23.4301 199.2 23.4801 201.2V201.39L21.6901 200.27L16.8301 197.27C16.8301 197.27 17.3901 189.11 17.8301 182.22C18.1301 177.58 18.3901 173.51 18.3901 172.88C18.3901 172.55 18.7001 170.62 19.1701 167.81C19.9001 163.57 21.0201 157.29 22.0901 151.39C22.2401 150.57 22.3801 149.76 22.5301 148.96C23.8801 141.54 25.0301 135.27 25.0301 135.27L28.4501 138.92L29.1201 139.64C31.4476 138.352 34.0065 137.536 36.6501 137.24L36.7501 137.2Z" fill="#DC9159"/>
<path d="M158.26 196.26L147.26 205.65L145.92 206.8L145.71 196.09V195.59V193.59L149.82 191.06L149.3 190.59C149.248 190.532 149.191 190.478 149.13 190.43C148.39 189.76 147.18 188.69 145.99 187.77C145.84 187.641 145.683 187.521 145.52 187.41C145.06 187.06 144.61 186.74 144.21 186.49C144.04 186.39 143.88 186.29 143.73 186.22L143.47 186.09H143.42L143.15 186C143.071 185.987 142.99 185.987 142.91 186C142.86 185.995 142.81 186.002 142.764 186.019C142.717 186.036 142.675 186.064 142.64 186.1C142.64 186.1 142.59 186.1 142.56 186.1C142.532 186.078 142.508 186.051 142.49 186.02C142.416 185.91 142.352 185.792 142.3 185.67C142.18 185.39 142.03 185 141.87 184.51C141.8 184.31 141.72 184.1 141.65 183.87C141.58 183.64 141.4 183.09 141.27 182.65C141.21 182.47 141.16 182.29 141.1 182.1C140.58 180.38 139.96 178.23 139.3 175.84C139.23 175.57 139.16 175.3 139.08 175.03L138.63 173.38C138.56 173.1 138.48 172.81 138.4 172.53C138.1 171.39 137.78 170.23 137.47 169.06C137.4 168.77 137.32 168.48 137.24 168.18L136.54 165.53C136.47 165.24 136.39 164.94 136.31 164.65C135.7 162.32 135.12 160.04 134.58 157.97C134.52 157.71 134.45 157.45 134.39 157.2C134.26 156.73 134.15 156.27 134.03 155.82C133.86 155.14 133.69 154.48 133.53 153.87C133.48 153.67 133.44 153.48 133.39 153.3C133.23 152.68 133.08 152.1 132.95 151.58C132.95 151.53 132.95 151.47 132.95 151.42C132.87 151.09 132.8 150.79 132.72 150.51C132.66 150.3 132.61 150.11 132.57 149.93L132.44 149.42C132.44 149.27 132.37 149.13 132.34 149.02C132.31 148.91 132.34 148.9 132.34 148.85V148.72C132.34 148.62 132.34 148.54 132.29 148.51L132.38 148.17L134.32 140.85L137.26 129.75L138.59 133.4L146.04 153.78L146.2 154.22L149.68 163.72L156.61 182.72L157.9 192.16L158.26 196.26Z" fill="#F1B280"/>
<path d="M107.75 110C107.75 110 109.2 112.08 111 115.12L71.8801 127.35L69.3201 126.35L79.3201 121.53L79.0001 100.12L95.1301 82.81L94.6601 99.14L114.35 104.64L115.94 104.72L107.75 110Z" fill="#E4B17B"/>
<path d="M36.5599 137.6L35.4299 140L35.8099 138.42L36.6299 137.28V137.2C36.5841 137.13 36.5562 137.05 36.5487 136.966C36.5412 136.883 36.5544 136.799 36.587 136.722C36.6196 136.645 36.6707 136.577 36.7357 136.524C36.8008 136.472 36.8778 136.436 36.9599 136.42H37.0299H37.1099H37.2599L36.64 137.29C36.64 137.29 36.64 137.29 36.64 137.36L36.4599 137.75L36.5599 137.6Z" fill="#F1B280"/>
<path d="M36.8201 160.56L37.3001 161.49V161.56L36.7701 166.56V166.67L34.4401 188.76L30.9501 205.09L28.4001 203.82L23.4701 201.37V201.18C23.4701 200.79 23.4701 200.26 23.4701 199.66C23.4701 197.75 23.4701 195.12 23.4701 193.91C23.4701 193.75 23.4701 193.62 23.4701 193.51C23.4701 193.4 23.4701 193.39 23.4701 193.34C23.468 193.31 23.468 193.28 23.4701 193.25C23.4701 193.13 23.8301 193.25 24.2401 193.4L24.4601 193.5L24.6901 193.61L24.9301 193.73C25.4101 193.97 25.8801 194.24 26.1401 194.39L26.3001 194.48H26.3501L26.2301 175.85L26.1201 159.51L35.4201 139.95L32.9301 150.4L32.2501 151.62C32.2699 151.665 32.2933 151.709 32.3201 151.75L36.7901 160.46C36.7901 160.46 36.8101 160.55 36.8201 160.56Z" fill="#F1B280"/>
<path d="M76.3 51.17L73.26 46.68L61.86 42.16H61.19L61 41.52L56.04 31.23L72.01 38.85L75.31 44.36L76.3 51.17Z" fill="#F2914B"/>
<path d="M82.61 39.46L77.32 47.72L75.29 44.33L71.99 38.82L72.33 34.2L76.1 32.68L82 34.87L82.61 39.46Z" fill="#F3EB50"/>
<path d="M120.19 90.03L114.38 104.64L92.6299 99.14L95.1599 82.81V82.8L95.3799 79.42L99.0499 72.94L105.14 57.15V68.1L107.75 66.1L112.91 51.14L120.19 90.03Z" fill="#9C4D23"/>
<path d="M105.14 57.15L99.0501 72.94L95.3801 79.42L83.5101 87.64H78.3901V77.69L82.3501 77.11L86.4901 72.84L90.6101 68.1L86.4901 71.45L78.3901 72.84V66.1L82.6101 61.75L101.83 55.57L105.14 57.15Z" fill="#E4B17B"/>
<path d="M90.62 68.1L86.49 72.84L82.35 77.11L78.39 77.69L74.08 76.3L70.96 71.45L76.71 74.43L80.79 74L86.49 71.45L90.62 68.1Z" fill="#A96739"/>
<path d="M86.49 71.45L80.79 74L76.71 74.43L70.96 71.45L78.39 72.84L86.49 71.45Z" fill="#9E5C28"/>
<path d="M82.35 60.5H78.71L79.96 54.89L82.35 60.5Z" fill="#F4A54B"/>
<path d="M82.61 61.75L78.3901 66.1C78.3901 66.1 74.8701 62.1 74.3901 62.1L65.1301 55.19C67.1301 54.05 73.3101 50.65 73.7201 50.65L61.8201 42.13L73.2101 46.65L76.2101 51.13L75.2101 44.32L77.2101 47.71L78.0001 53.57L77.8101 62.75L82.61 61.75Z" fill="#F3EB50"/>
<path d="M60.9299 62.24L56.2699 69.63L50.6299 73.46C50.6299 73.46 55.6299 63.46 55.2399 62.7C54.8499 61.94 53.7399 47.7 53.7399 46.78C53.7399 46.07 55.3999 39.37 56.0299 36.84C56.0299 40.53 56.0299 44.78 56.0299 45.47C56.6242 48.6478 57.3853 51.7921 58.3099 54.89C58.7099 56.35 58.9999 57.39 58.9999 57.39L60.8999 62L60.9299 62.24Z" fill="#F79941"/>
<path d="M101.68 46.66V49.86L93.2999 55.57L82.6099 51C83.2499 51 96.1899 42.15 96.1899 42.15L101.68 46.66Z" fill="white" stroke="#231F20" stroke-linejoin="round"/>
<path d="M73.7399 50.66C73.3299 50.66 67.1899 54.06 65.1499 55.2L64.4899 55.57L57.4099 47.33L60.5199 42.33L60.9799 41.51L73.7399 50.66Z" fill="white" stroke="#231F20" stroke-linejoin="round"/>
<path d="M79.6199 219L79.3799 238.36L69.6899 242.76C69.6899 242.76 69.6899 227.48 69.6899 226.76C69.6899 226.76 69.5799 226.76 69.4699 226.76L69.3099 226.83L69.1199 226.94C66.7799 228.29 58.1199 235.14 58.1199 235.14L57.8199 234.91L56.9399 218.91V215.18H57.1499C58.2299 216.45 60.3899 218.92 60.7499 218.92L79.6199 219Z" fill="#E7C053"/>
<path d="M128.28 266.87L116.63 354.33L102.55 355.72L77.3999 273.44C77.3999 273.44 88.1399 264.64 98.9099 255.98C101.18 254.14 103.46 252.32 105.62 250.59C105.31 258.29 103.67 292.77 103.67 292.77C103.67 292.77 116.38 320.93 116.73 320.37C117.08 319.81 127.85 268.48 128.28 266.87Z" fill="#827140"/>
<path d="M47.5999 510L19.9999 511.62C19.9999 511.62 9.94992 512.83 9.19992 512.62L0.399902 510.45L1.15991 507.07L15.0299 507.77H15.4899L26.2999 508.46L40.1699 505.27L40.7099 505.16H40.7599H40.9299C41.2899 505.07 47.1699 503.5 47.3499 503.56C47.5199 507.16 47.5999 510 47.5999 510Z" fill="#827140"/>
<path d="M26.23 508.34L40.21 505.32L26.34 508.51L15.53 507.82L15.07 507.8L15.04 507.78L15.33 507.8L26.23 508.34Z" fill="#001750"/>
<path d="M47.3999 503.54C47.2199 503.48 41.3399 505.05 40.9799 505.14L40.9299 505.02L40.8799 504.88C40.8099 504.64 40.6999 504.33 40.5599 503.96C40.4199 503.59 40.3799 503.42 40.2599 503.11C40.1399 502.8 40.0299 502.47 39.8899 502.11L39.7299 501.7C39.6699 501.53 39.6099 501.36 39.5399 501.19C39.3133 500.557 39.0633 499.89 38.7899 499.19C38.7099 498.97 38.6199 498.76 38.5399 498.53L37.6399 496.19L37.1299 494.86C36.6999 493.76 36.2799 492.66 35.8899 491.64C35.7433 491.273 35.6032 490.913 35.4699 490.56C35.0599 489.56 34.6999 488.56 34.3999 487.83C34.366 487.724 34.3259 487.621 34.2799 487.52L34.1399 487.14C34.0699 486.98 34.0199 486.84 33.9699 486.71L33.8299 486.37C33.7199 486.06 33.6499 485.9 33.6499 485.9L33.7799 485.12V486.12H46.2599C46.3399 486.11 47.2199 497.32 47.3999 503.54Z" fill="#FDC050"/>
<path d="M39.8 472.27H39.5701V471.77L39.8 472.27Z" fill="#1C387F" stroke="#9AB8C7" stroke-miterlimit="10"/>
<path d="M40.7901 505.19H40.7401L40.2101 505.31L26.3401 508.5L15.5301 507.81H15.0701L6.56006 503.57L24.9701 494.14L27.4201 495.83L28.2901 496.43L28.9201 496.86L29.7501 497.44C34.0001 500.35 39.6801 504.32 40.7901 505.19Z" fill="#FDC050"/>
<path d="M15.0699 507.8L1.16992 507.08L6.52991 503.54H6.53992L15.0699 507.8Z" fill="#FDC050"/>
<path d="M136.79 500.94L119.6 495.14L119.04 485.75L119.11 486.11H131.43L136.79 500.94Z" fill="#FDC050"/>
<path d="M140.19 509.24L122.11 508.9C122.11 508.9 119.63 501.34 119.63 501.02V495.39V495.14L136.83 500.94L140.19 509.24Z" fill="#F4A54B"/>
<path d="M141.34 512.06L131.22 515.46H122.22L118 510L119.63 501.32V501C119.63 501.32 122.11 508.88 122.11 508.88L140.19 509.22L141.34 512.06Z" fill="#827140"/>
<path d="M41 505.14H40.83H40.77L29.77 497.35L28.94 496.77L28.31 496.34L27.44 495.74L24.99 494.05L33.69 485.83C33.69 485.83 33.76 485.99 33.87 486.3L34.01 486.64C34.06 486.77 34.11 486.91 34.18 487.07L34.32 487.45C34.366 487.551 34.4061 487.654 34.44 487.76L39.77 501.64L39.93 502.05L40.93 504.76C40.93 504.76 40.93 504.96 40.98 505.01C40.9776 505.054 40.9844 505.099 41 505.14Z" fill="#F4A54B"/>
<path d="M55.34 103.89L45.44 113.59L42.16 116.79C42.16 116.79 42 117.53 41.75 118.73C40.69 123.64 37.93 136.23 37.36 136.23C37.17 136.23 35.22 136.83 35.22 136.83L29.13 139.58L25 135.24L23.5 122.24L27.32 128.93L37.44 116L47.78 107.69L42.98 101.69L46.12 100.81L55.34 103.89Z" fill="#827140"/>
<path d="M21 254.52C21 254.52 14.35 258.6 14.24 259.09C14.13 259.58 5.32998 251.62 4.28998 250.67C3.97998 256.86 6.02997 280.08 6.02997 280.08L7.75998 281.53L17.2 278.58L24.7 269.19L21 254.52ZM7.75998 277.91L7.14996 262.32L9.88998 275.81L7.75998 277.91Z" fill="#E7C053"/>
<path d="M18.0499 198.41L15.9199 218.17L13.9199 203.12L14.1799 198.35C14.1758 198.303 14.1758 198.257 14.1799 198.21L16.7899 197.21L18.0499 198.41Z" fill="#E7C053"/>
<path d="M15.9999 250.16L20.9999 254.52C20.9999 254.52 14.3499 258.6 14.2499 259.09C14.1499 259.58 5.33986 251.62 4.24986 250.67C4.24152 250.195 4.29531 249.721 4.40987 249.26C4.99987 248.35 13.7399 201.26 14.1199 198.35L13.8598 203.12L15.8598 218.17L14.1999 233.71L21.2899 243.89L10.5999 246.2L7.15987 250.2L15.9999 250.16Z" fill="#F3EB50"/>
<path d="M31.99 207.47L21.35 243.89L14.25 233.71L15.93 218.17L18.06 198.41L21.65 200.28L21.73 200.32L23.44 201.22L24.14 201.59L30.93 205.12L30.99 205.25L31.99 207.47Z" fill="#827140"/>
<path d="M20.4899 252.91L21.0099 254.52L15.9899 250.16H7.15991L10.5999 246.2L21.3499 243.89L20.4899 252.91Z" fill="#F4A54B"/>
<path d="M26.58 287.49L13.5 288.46L7.77002 281.53L17.21 278.58L24.71 269.19L26.89 275.87L26.58 287.49Z" fill="#F3EB50"/>
<path d="M107.52 172.9C107.52 172.9 99.68 190.23 99.64 190.23L99.7 190.5C98.33 188.5 98.19 184.62 97.81 184.62C97.43 184.62 91.62 182.18 88.99 181.18V181.07C89.44 178.97 89.73 177.55 89.73 177.55L92.32 178.65L96.9 167L103.53 157.73L108.41 153L116.62 145C118.7 146.51 117.92 147.58 117.92 147.58L107.52 172.9Z" fill="#E7C053"/>
<path d="M105.68 209.19L84.0901 219V214.1L56.9001 215.27V219L51.1701 210.9L48.8101 175.79L38.7301 163.64L37.3101 161.54L32.3101 151.72L32.9801 150.5L39.2201 159.29L41.2901 160.76L46.6401 164.55L55.4001 177.84L56.9501 177.03L67.6301 192.27C69.0101 188.39 70.3834 184.51 71.7501 180.63L76.7501 191.23L89.08 181.23C91.71 182.23 97.4601 184.67 97.9001 184.67C98.3401 184.67 98.4201 188.52 99.7901 190.55C100.15 192.82 105.68 209.19 105.68 209.19Z" fill="#E7C053"/>
<path d="M108.41 153L103.53 157.73L96.9 167L92.35 178.65L89.76 177.55L71.02 169.55L56.89 177L55.34 177.81L46.57 164.52L41.23 160.73L52.48 163.61L63.74 146.17L70.53 160.85L75.67 148.6C75.67 148.6 89.87 162.02 90.23 161.86C90.59 161.7 107.87 153.26 108.41 153Z" fill="#827140"/>
<path d="M89.7599 177.55C89.7599 177.55 89.4699 178.97 89.0199 181.07V181.14L78.7599 196.29C76.4199 191.623 74.0866 186.957 71.7599 182.29L66.6599 196.48C63.4132 189.973 60.1666 183.46 56.9199 176.94L70.9999 169.59L89.7599 177.55Z" fill="#F3EB50"/>
<path d="M116.64 145L108.43 153C107.89 153.26 90.6099 161.68 90.2499 161.84C89.8899 162 75.6899 148.58 75.6899 148.58L90.0999 139.23C90.0999 139.23 102.73 134.86 103.35 135.34C103.77 135.68 111.83 141.54 116.64 145Z" fill="#F3EB50"/>
<path d="M48.8901 253L37.8901 241.24L45.0001 225.05C45.4401 225.36 46.0001 225.8 46.7501 226.34L48.8901 253Z" fill="#F4A54B"/>
<path d="M58.0699 235.16C58.0699 235.16 50.69 229.34 46.7 226.34C45.99 225.8 45.39 225.34 44.95 225.05L51.1599 210.87L56.89 218.97L58.0699 235.16Z" fill="#827140"/>
<path d="M69.6901 242.73L58.0701 235.16C59.9201 233.66 67.51 227.85 69.3 226.85L69.4601 226.78C69.5701 226.78 69.6401 226.71 69.6801 226.78C69.7201 226.85 69.6801 226.78 69.6801 226.78C69.7301 227.45 69.6901 242.73 69.6901 242.73Z" fill="#F3EB50"/>
<path d="M110.69 224.58L106.75 225.93L84.0801 233.71V218.97L105.68 209.19L110.69 224.58Z" fill="#827140"/>
<path d="M116.64 354.33C116.64 354.33 111.64 374.92 111.41 375.8C111.18 376.68 102.55 355.72 102.55 355.72L116.64 354.33Z" fill="#F4A54B"/>
<path d="M78.6899 305.1C78.9599 303.73 64.2299 356.52 64.2299 356.52L59.4199 362.93C59.4199 362.93 61.6899 353.45 61.9499 352.66C62.2099 351.87 76.2899 301 76.2899 301C76.2899 301 66.9199 297.56 68.5799 297.82C71.1648 297.955 73.755 297.955 76.3399 297.82L81.4099 296.29L97.9999 361.36C97.4999 359.74 78.4299 306.46 78.6899 305.1Z" fill="#FDC050"/>
<path d="M124.69 353.22L128.29 266.89L116.64 354.33C116.64 354.33 111.64 374.92 111.41 375.8C111.18 376.68 102.56 355.72 102.56 355.72L81.4801 286.72L77.4001 273.39L77.6701 273.17L78.1501 272.78L79.2501 271.88L80.2501 271.09C82.9101 268.92 87.1901 265.43 91.9901 261.54L93.8201 260.06L98.9401 255.93L106.78 225.93L102.4 227.43L84.1201 233.71V236.2L79.4301 238.33L69.7401 242.73L58.2801 235.27L58.1201 235.15H58.0501L57.8301 234.98L57.0901 234.4L56.8501 234.21L56.5401 233.96L56.0001 233.54C54.6901 232.54 52.9201 231.13 51.1601 229.77L49.7701 228.69C48.6801 227.85 47.6401 227.05 46.7701 226.39L48.9001 253L50.9001 255.13L52.8301 257.19L69.7001 275.19L67.5501 286.52L53.4701 360.6L40.5301 352.6L34.5301 282.71L32.1401 330.53L34.7901 349.58L32.4201 376L34.7901 385.55L33.8601 472.31H39.5801V415C39.6501 414.54 41.0701 411.24 43.0701 406.71L43.7801 405.11C43.9001 404.84 44.0201 404.56 44.1501 404.28L45.3101 401.69C46.1001 399.91 46.9401 398.06 47.7901 396.18C48.0701 395.56 48.3601 394.94 48.6401 394.31C52.4601 385.87 56.2801 377.53 57.3901 375.14L57.5001 374.89L57.6501 374.56L57.7001 374.45L62.1301 393.32L47.0001 472.27H50.7701L68.2401 390.49L59.4301 362.92C59.4301 362.92 61.7001 353.45 61.9601 352.66C61.9601 352.59 62.1301 352.07 62.3701 351.2C62.4601 350.91 62.5501 350.58 62.6501 350.2C62.8601 349.47 63.1001 348.59 63.3801 347.59L63.8201 346C64.0601 345.16 64.3101 344.26 64.5701 343.31C64.8301 342.36 65.1101 341.31 65.4001 340.31C65.7901 338.92 66.2001 337.46 66.6101 335.94C70.8101 320.83 76.3101 300.94 76.3101 300.94C76.0501 300.84 66.9701 297.5 68.6101 297.76C71.195 297.894 73.7852 297.894 76.3701 297.76L81.4401 296.23L97.9601 361.23V361.34L96.4001 385.67C96.4001 385.67 117 477.21 118.09 478C118.246 478.092 118.42 478.15 118.6 478.17C120.682 478.392 122.779 478.449 124.87 478.34V478.34H125.73L116.78 418.26C116.78 418.26 127.61 382.26 127.61 381.57C127.61 380.88 130.77 385.78 130.77 385.78L131.02 478.12C131.67 478.12 132.17 478.05 132.41 478.05L132.62 476.34C133 463.57 131.76 384.51 132.73 384.26C133.7 384.01 124.69 353.22 124.69 353.22ZM34.7401 371.15L38.2601 354.33C39.2601 354.76 49.0301 365.08 49.0301 365.08L34.7401 371.15Z" fill="#FDC050"/>
<path d="M120.35 239.3C119.25 239.82 113.02 244.69 105.62 250.59C103.46 252.32 101.18 254.14 98.9099 255.98L106.75 225.93L110.69 224.58L120 238.27L120.35 239.3Z" fill="#F4A54B"/>
<path d="M128.29 266.84C127.86 268.45 117.1 319.78 116.74 320.34C116.38 320.9 103.68 292.74 103.68 292.74C103.68 292.74 105.32 258.26 105.63 250.56C113.03 244.66 119.26 239.79 120.36 239.27L128.29 266.84Z" fill="#F3EB50"/>
<path d="M150.19 219V249.2L146.58 255.93L143.15 250.07L130.93 263.07L131.35 270.58H136.09V282.37L147.17 285.14L155.35 277.6C155.35 277.6 158 246.31 158.26 245.21C158.47 244.37 159.58 218.4 161.32 205.45C161.13 205.67 156.57 211.94 150.19 219ZM147.19 280.53L149 273.47V261.31L152.36 275.81L147.19 280.53Z" fill="#F3EB50"/>
<path d="M155.35 277.6L152.45 285.02L140.27 292.07L133.26 290.42L131.35 270.58H136.08V282.38L147.17 285.14L155.35 277.6Z" fill="#E7C053"/>
<path d="M150.19 219V249.2L146.58 255.93L143.15 250.07L135.15 214.98C135.15 214.98 140.31 228.52 140.52 229.15C140.58 229.44 145.12 224.54 150.19 219Z" fill="#827140"/>
<path d="M130.8 385.8L131.04 478.13C129.74 478.2 127.76 478.29 125.75 478.35L116.8 418.28C116.8 418.28 127.63 382.28 127.63 381.59C127.63 380.9 130.8 385.8 130.8 385.8Z" fill="#827140"/>
<path d="M113.09 118.65L79.09 129.9L69.64 143.43L60.57 128.53L41.71 118.79C41.96 117.6 42.12 116.86 42.12 116.86L45.4 113.66C45.1 114.11 45.4 117.08 45.4 117.08L69.28 126.4L71.84 127.4L111 115.16L113.09 118.65Z" fill="#E7C053"/>
<path d="M63.7399 146.15L52.4799 163.59L41.2299 160.71L39.1599 159.24L32.9199 150.45L35.7999 138.39L39.1099 134.91L53.2199 135.53L63.7399 146.15Z" fill="#F3EB50"/>
<path d="M84.0901 219V233.74V236.23L79.3901 238.36L79.6301 219H60.7001C60.3401 219 58.1801 216.53 57.1001 215.26L84.1001 214.1V219H84.0901Z" fill="#F3EB50"/>
<path d="M52.5 294.23C52.5 294.23 42.05 319.63 41.89 318.76C41.73 317.89 35.19 285.01 34.52 282.52V281.62L37.18 242.74L37.85 241.23L48.85 252.99L50.85 255.12L52.5 294.23Z" fill="#F3EB50"/>
<path d="M69.69 275.18L53.46 360.59L40.51 352.59L34.51 282.71V282.53C35.18 285.02 41.71 317.94 41.88 318.77C42.05 319.6 52.49 294.24 52.49 294.24L50.88 255.12L69.69 275.18Z" fill="#827140"/>
<path d="M49 365.08L34.71 371.15L38.23 354.33C39.29 354.76 49 365.08 49 365.08Z" fill="#F4A54B"/>
<path d="M121.32 135.34L117.94 147.61C117.94 147.61 118.72 146.54 116.64 145.03C111.83 141.54 103.77 135.68 103.33 135.34C102.71 134.86 90.08 139.23 90.08 139.23L75.6701 148.57L70.5301 160.83L63.7501 146.16L53.2201 135.53L39.11 134.91L35.8 138.39L37.33 136.26C37.9 136.26 40.6601 123.67 41.7201 118.76L60.58 128.51L69.6501 143.43L79.1001 129.88L113.1 118.62C117.53 126 120.88 135.57 121.32 135.34Z" fill="#F4A54B"/>
<path d="M152.34 275.81L147.17 280.5L148.97 273.44V261.31L152.34 275.81Z" fill="#827140"/>
<path d="M9.90991 275.81L7.7699 277.91L7.15991 262.33L9.90991 275.81Z" fill="#827140"/>
<path d="M62.1301 393.35L47.0001 472.27H39.8L39.5701 471.77V415.06C39.5701 413.91 57.6901 374.48 57.6901 374.48L62.1301 393.35Z" fill="#827140"/>
<path d="M50.76 472.27L46.25 486.11H33.76L33.77 485.11L33.86 472.27H50.76Z" fill="#F4A54B"/>
<path d="M132.43 478.06L131.43 486.11H119.11L119.04 485.75L118.59 478.21C120.676 478.432 122.776 478.489 124.87 478.38C127.18 478.32 129.55 478.21 131.04 478.13C131.7 478.1 132.19 478.06 132.43 478.06Z" fill="#F4A54B"/>
<path d="M136.63 111.25L107.75 110.03L116.1 104.59L123.66 101.75L136.63 111.25Z" fill="#F3EB50"/>
<path d="M137.05 129.63V129.68L136.95 129.66L125.68 127.68L107.75 110.04L136.63 111.24L137.05 129.63Z" fill="#F4A54B"/>
<path d="M137.05 129.68L132.29 131.36L130.65 131.95C126.98 133.26 122.93 134.69 121.77 135.15L121.58 135.22L121.32 135.35C120.8 135.23 117.44 125.85 113.07 118.57L111 115.08C109.19 112.08 107.8 110.08 107.8 110.08L125.73 127.72L137 129.72L137.05 129.68Z" fill="#827140"/>
<path d="M44.02 107.74L31.28 108.37L42.98 101.72L44.02 107.74Z" fill="#F3EB50"/>
<path d="M47.78 107.74L37.44 116.04L27.34 128.91L23.52 122.22L31.28 108.37L44.02 107.74L42.98 101.72L47.78 107.74Z" fill="#F4A54B"/>
<path d="M82.0001 34.87L97.8101 26.36L76.1001 32.68L82.0001 34.87Z" fill="#F2914B"/>
<path d="M79.6099 64.84L101.83 55.57L104.78 58.52L105.14 57.15L101.83 55.57L82.6099 61.75L79.6099 64.84Z" fill="#BC7645"/>
<path d="M77.3199 64.91L61.1299 58.06L74.4099 62.11L77.3199 64.91Z" fill="#9B5023"/>
<path d="M95.3799 79.42L85.4299 88.26L83.4999 89.2L79.6899 88.33L78.1799 87.85L83.5099 87.64L95.3799 79.42Z" fill="#9B5023"/>
<path d="M68.8999 80.24L78.1799 87.85L68.8999 79.09V80.24Z" fill="#9B5023"/>
<path d="M68.8999 79.09C68.8999 79.26 78.3899 87.64 78.3899 87.64H83.5099L83.3399 88.34L78.1799 87.85C78.1799 87.85 70.4799 81.11 70.4299 81.12C70.3799 81.13 68.8999 79.09 68.8999 79.09Z" fill="#9B5023"/>
<path d="M76.1 32.68C76.1 32.68 71.04 24.11 70.96 23.35C70.88 22.59 80.53 5.20001 80.53 5.20001C80.53 5.20001 75.53 20.89 75.75 21.08C75.97 21.27 81.37 30.61 81.37 30.61L76.1 32.68Z" fill="#9C4D23"/>
<path d="M101.82 7.85003C101.19 7.66003 95.3801 10.07 95.3801 10.07C95.3801 10.07 88.9501 26.59 89.2301 26.36C89.5101 26.13 96.5701 11.59 96.5701 11.59L101.82 7.85003Z" fill="#9C4D23"/>
<path d="M46.97 25.26L63.06 16.5L71.99 18.94L61.98 6.33997L46.97 25.26Z" fill="#9C4D23"/>
<path d="M98.9101 368.58C99.4301 369.5 113.82 407.46 113.82 407.46L97.5901 386.33L98.9101 368.58Z" fill="#F4A54B"/>
<path d="M49.0301 371.15L36.3101 375.83L39.5701 415.06L57.6901 374.48L49.0301 371.15Z" fill="#F4A54B"/>
<path d="M58.2401 235.27L52.8201 257.17L69.6901 275.18L67.5401 286.51L74.8201 288.46L81.4701 286.76L77.4001 273.44L93.7901 260.11L102.55 226.72L84.08 233.71V236.2L69.6901 242.73L58.2401 235.27Z" fill="#F4A54B"/>
<path d="M146 154.15C141.66 152.62 135.7 150.56 132.32 149.39L129.71 148.48L130.28 147.48L134.12 140.77L138.39 133.32L145.84 153.7L146 154.15Z" fill="#827140"/>
<path d="M121.32 135.35L121.61 135.22L121.32 135.35Z" fill="#602852"/>
<path d="M138.38 133.33L134.11 140.78L130.27 147.48L129.7 148.48L118.61 148.76V148.69L118 147.62V147.55L118.1 147.17L119.31 142.74L121.31 135.34C122.02 134.97 137.04 129.68 137.04 129.68L138.38 133.33Z" fill="#E7C053"/>
<path d="M157.69 192.06L144.08 186.13L144.16 185.8L144.58 184.03L149.47 163.65L156.4 182.65L157.69 192.06Z" fill="#F4A54B"/>
<path d="M147.29 205.65C147.38 206.27 147.44 206.65 147.44 206.86C147.44 208.24 137.62 215.26 137.62 215.26L138.26 198.84V198.7L138.67 188.13L138.44 187.88V187.57L137.19 183.57L135.49 178.13L118.59 148.77V148.7C121.38 148.42 129.52 147.6 130.24 147.5C130.888 147.66 131.523 147.867 132.14 148.12C135.23 149.29 141.32 151.83 145.8 153.72L145.96 154.16L149.44 163.66L144.58 184L144.16 185.77L144.08 186.1L144.15 186.53L144.22 186.93C144.49 188.48 145.08 191.93 145.69 195.59C146.34 199.54 147 203.63 147.29 205.65Z" fill="#F3EB50"/>
<path d="M147.29 205.65C147.38 206.27 147.44 206.65 147.44 206.86L147.25 205.68L145.7 196.12L144.22 187L144.15 186.6L144.08 186.17L157.69 192.1L158.26 196.3L147.29 205.65Z" fill="#827140"/>
<path d="M149.37 183.59L144.16 185.8L143.36 186.14L138.68 188.14L138.45 187.89V187.58L137.2 183.58C138.57 183.7 140.2 183.8 141.55 183.88L144.55 184.05L149.37 183.59Z" fill="#827140"/>
<path d="M32.9301 150.45L32.2501 151.67C32.2699 151.715 32.2933 151.759 32.3201 151.8C32.7601 152.61 35.1101 156.98 36.7901 160.51C36.7901 160.51 36.7901 160.51 36.7901 160.56L37.2601 161.56L36.7301 166.56V166.67C34.0201 169.07 28.9301 173.51 26.8701 175.29L26.2101 175.87C26.1496 175.916 26.0928 175.966 26.0401 176.02L25.9801 176.07L22.0601 151.32C22.2101 150.5 22.3501 149.69 22.5001 148.89L28.4201 138.89L28.4701 138.81L35.1401 136.87L35.4501 136.78L36.9901 136.34H37.0601H37.1401H37.2901L36.6801 137.19L36.61 137.29L35.7801 138.44L35.4001 140.03L32.9301 150.45Z" fill="#F4A54B"/>
<path d="M22.08 151.36L26.0001 176.11L17.8201 182.19C18.1201 177.55 18.3801 173.48 18.3801 172.85C18.3801 172.52 18.6901 170.59 19.1601 167.78C19.8901 163.54 21 157.26 22.08 151.36Z" fill="#E7C053"/>
<path d="M28.49 138.81L28.44 138.89L22.52 148.89C23.87 141.47 25.02 135.2 25.02 135.2L28.49 138.81Z" fill="#E7C053"/>
<path d="M36.76 166.59V166.7L34.43 188.79L30.94 205.12L31 205.25L28.39 203.85L24.16 201.59L23.46 201.21L24.25 193.43L26 176.11L26.06 176.06C26.1127 176.006 26.1695 175.956 26.23 175.91V175.91L26.89 175.33C28.94 173.49 34.05 169 36.76 166.59Z" fill="#F3EB50"/>
<path d="M26.0001 176.11L24.2401 193.43L23.4501 201.21L17.9801 198.41L16.8 197.24C16.8 197.24 17.36 189.08 17.8 182.19C18.1 177.55 18.36 173.48 18.36 172.85C18.36 172.52 18.6701 170.59 19.1401 167.78C21.5701 170.81 26.0001 176.11 26.0001 176.11Z" fill="#F4A54B"/>
<path d="M161.43 199.21C161.698 201.284 161.665 203.386 161.33 205.45V205.45C161.13 205.67 156.57 211.95 150.2 218.97C145.13 224.54 140.59 229.44 140.5 229.15C140.29 228.52 135.13 214.98 135.13 214.98L137.24 214.15L145.91 206.84L158.26 196.26C158.26 196.26 158.01 195.91 158.8 195.09C159.59 194.27 161.43 199.21 161.43 199.21Z" fill="#F4A54B"/>
</svg>
