<svg width="169" height="516" viewBox="0 0 169 516" fill="none" xmlns="http://www.w3.org/2000/svg">
<path d="M36.57 141.94C35.9017 141.406 35.3703 140.72 35.02 139.94C34.7793 139.011 34.886 138.026 35.32 137.17C36.0577 135.627 37.2197 134.326 38.67 133.42C40.1139 132.53 41.6806 131.856 43.32 131.42C46.5003 130.416 49.8528 130.076 53.17 130.42C54.3451 130.528 55.4871 130.868 56.53 131.42C57.6771 132.157 58.5866 133.21 59.149 134.452C59.7115 135.694 59.9028 137.072 59.7 138.42C59.2296 141.136 57.733 143.567 55.52 145.21" fill="#A1A0A0"/>
<path d="M117.88 141.56C117.485 142.872 116.732 144.048 115.706 144.956C114.68 145.864 113.42 146.468 112.07 146.7C111.262 146.868 110.421 146.774 109.67 146.43C108.652 145.705 107.925 144.642 107.62 143.43C106.289 140.312 105.364 137.035 104.87 133.68C104.638 132.393 104.824 131.065 105.4 129.89C105.859 129.203 106.496 128.654 107.243 128.302C107.989 127.95 108.818 127.807 109.64 127.89C111.282 128.089 112.835 128.747 114.12 129.79C116.535 131.607 118.409 134.048 119.54 136.85C119.81 137.53 120.19 138.35 120.92 138.39" fill="#A1A0A0"/>
<path d="M106.26 164C109.104 161.01 111.466 157.596 113.26 153.88C113.701 153.068 113.995 152.184 114.13 151.27C114.192 150.812 114.153 150.347 114.015 149.906C113.877 149.465 113.643 149.06 113.33 148.72C112.782 148.247 112.101 147.957 111.38 147.89C110.03 147.753 108.666 147.906 107.38 148.34C105.023 149.051 102.843 150.252 100.982 151.864C99.1217 153.477 97.623 155.464 96.5844 157.696C95.5458 159.928 94.9906 162.355 94.9554 164.816C94.9202 167.278 95.4056 169.719 96.38 171.98C96.5175 172.401 96.7746 172.773 97.12 173.05C97.4626 173.211 97.8392 173.286 98.2173 173.269C98.5954 173.251 98.9636 173.142 99.29 172.95C106.15 170 103.89 170.95 105.64 168.75" fill="#5A5755"/>
<path d="M126.9 98.44L113.55 104.57L112 104.5L120.14 90.4L112.86 51.52L107.7 66.47L105.09 68.47V57.53L101.6 43L99.05 32.33L97.73 26.75L76 33.05L59.9 25.63L55.9 31.63C55.9 31.63 55.9 34.26 55.9 37.27C55.27 39.8 53.62 46.5 53.62 47.21C53.62 48.1 54.75 62.38 55.12 63.12C55.49 63.86 50.51 73.88 50.51 73.88L56.14 70.05L59.94 63.45L62.43 72.78L66.67 80.08V100.34L55.87 104.55L55.19 104.31L44.1 100.55L40.78 62.55L46.78 25.69L61.78 5.04004L80.23 0.0400391L103.72 7.04004L118.15 33.04L121.08 54.18L117.66 57.24L125.85 86L126.9 98.44Z" fill="#594422"/>
<path d="M53.5899 46.3101L46.9399 60.5801L45.8499 57.4401L43.9399 65.2901L51.1899 102.88C51.1899 102.88 60.3999 95.7701 61.0399 94.9301C61.6799 94.0901 59.39 70.2601 59.39 70.2601L56.7299 54.4901L53.5899 46.3101Z" fill="#392317"/>
<path d="M53.2699 71.9999L54.2699 80.0599L52.4699 84.5699L51.1699 102.9C51.1699 102.9 62.3999 110.05 62.6999 109.95C62.9999 109.85 70.6999 106.74 70.8599 106.34C71.0199 105.94 74.8599 95.6099 74.7399 93.9999C74.6199 92.3899 74.8699 78.4199 74.2999 78.0899C73.7299 77.7599 67.5199 71.7299 67.1099 71.4299C66.6999 71.1299 62.9999 62.5099 62.9999 62.5099L59.5199 60.3899L53.2699 71.9999Z" fill="#392317"/>
<path d="M96.7001 79.85L96.49 83.23L79 100.5L79.2901 121.93L69.29 126.75L45.41 117.42C45.41 117.42 45.09 114.42 45.41 113.99L55.31 104.29L55.99 104.53L66.79 100.32V80.06L62.55 72.76L60 63.4V63.14L59 57.77L58.3 55.26L61.13 58.44C61.13 58.44 73.95 62.49 74.41 62.49C74.87 62.49 78.41 66.49 78.41 66.49V73.23L70.99 71.85L74.1 76.7L78.41 78.09V88H83.5401L96.7001 79.85Z" fill="#AE7136"/>
<path d="M76.0199 33.0499L72.2499 34.5699L71.8999 39.1999L55.9299 31.5799L59.92 25.6299L76.0199 33.0499Z" fill="#C7C6C1"/>
<path d="M99.05 32.31L83.88 39.22L82.53 39.83L81.91 35.25L76.02 33.05L97.73 26.73L99.05 32.31Z" fill="#C7C6C1"/>
<path d="M101.6 43.0001L95.2901 39.8501C95.2901 39.8501 81.7201 48.6001 81.2901 48.9201C80.8601 49.2401 83.8501 39.2401 83.8501 39.2401L99.0201 32.3301L101.6 43.0001Z" fill="#29272C"/>
<path d="M101.6 43L95.2899 39.85C95.2899 39.85 81.7199 48.6 81.2899 48.92C80.8599 49.24 83.8499 39.24 83.8499 39.24L82.4999 39.85L77.2 48.11L77.9999 54L77.8099 63.19L82.5099 62.19L101.73 56.01L105.04 57.6L101.6 43ZM78.5999 60.89L79.8499 55.28L82.2399 60.89H78.5999ZM101.6 50.26L93.2199 55.96L82.5299 51.38C83.1599 51.38 96.0999 42.54 96.0999 42.54L101.6 47.05V50.26Z" fill="#5A5755"/>
<path d="M74.35 62.5099C73.88 62.5099 61.07 58.5099 61.07 58.5099L58.24 55.3399C57.3154 52.242 56.5543 49.0977 55.96 45.9199C55.96 45.2299 55.96 40.9199 55.96 37.2899C55.96 34.2899 55.96 31.6499 55.96 31.6499L60.96 41.9399L61.14 42.5899L61.32 43.1799L57.39 47.7799L64.47 56.0199L65.13 55.6499L74.35 62.5099Z" fill="#5A5755"/>
<path d="M149.47 194L149.73 207.18L139.9 215.58L141 188.48L133.07 179.78L121.81 151.61L123.52 135.72C124.23 135.34 143.66 126.82 143.66 126.82L132.02 148.82C132.02 148.82 145.58 187.43 146.4 186.47C147.22 185.51 153.61 191.47 153.61 191.47L149.47 194Z" fill="#DC9159"/>
<path d="M24.28 163.17L26.07 198.53C26.07 198.53 23.51 193.3 23.38 193.66C23.25 194.02 23.38 199.98 23.38 201.78L13.74 197.58C13.74 197.58 15.82 175.31 15.82 173.74C15.82 172.17 19.65 135.29 19.65 135.29L27.48 139.6L34.18 137.6L24.28 163.17Z" fill="#DC9159"/>
<path d="M163.38 195.23L148.26 207.92L148 194.74L152.11 192.21C152.11 192.21 145.72 186.21 144.9 187.21C144.08 188.21 130.52 149.56 130.52 149.56L143.73 126.85L162.85 182.11L163.38 195.23Z" fill="#F1B280"/>
<path d="M108.39 110.83C109.162 112.443 110.017 114.015 110.95 115.54L71.82 127.8L69.26 126.8L79.26 121.98L79 100.53L96.54 83.27L97.32 99.34L112.02 104.53L113.61 104.61L108.39 110.83Z" fill="#C68650"/>
<path d="M36.3899 166.91L34.3299 189.17L33.1499 207.17L23.3599 201.74C23.3599 199.94 23.2599 193.92 23.3599 193.62C23.4599 193.32 26.0499 198.49 26.0499 198.49L24.2599 163.13L34.1399 137.55C34.8431 137.315 35.5614 137.128 36.2899 136.99L34.7599 139.12L31.7599 150.77L31.0899 152L36.3899 166.91Z" fill="#F1B280"/>
<path d="M76.21 51.5401L73.17 47.0601L61.78 42.5401H61.1L60.92 41.8901L55.96 31.6001L71.93 39.2201L75.22 44.7301L76.21 51.5401Z" fill="#5A5755"/>
<path d="M82.5299 39.83L77.2299 48.09L75.1999 44.7101L71.8999 39.2L72.2499 34.5701L76.0199 33.05L81.9099 35.25L82.5299 39.83Z" fill="#29272C"/>
<path d="M120.11 90.4L111.97 104.5L97.27 99.3L96.49 83.23L96.7 79.85L100.04 73.31L105.06 57.53V68.47L107.67 66.47L112.83 51.52L120.11 90.4Z" fill="#392317"/>
<path d="M105.06 57.5299L100.04 73.3099L96.7001 79.8499L83.4301 88.0099H78.3V78.0699L82.2601 77.4899L86.4001 73.2099L90.5301 68.4699L86.4001 71.8199L78.3 73.2099V66.4699L82.5301 62.1199L101.75 55.9399L105.06 57.5299Z" fill="#C68650"/>
<path d="M90.5299 68.47L86.3999 73.21L82.2699 77.49L78.3099 78.07L73.9899 76.68L70.8799 71.82L76.6299 74.81L80.6999 74.38L86.3999 71.82L90.5299 68.47Z" fill="#A96739"/>
<path d="M86.3999 71.8201L80.6999 74.3801L76.6299 74.8101L70.8799 71.8201L78.3099 73.2101L86.3999 71.8201Z" fill="#9E5C28"/>
<path d="M82.2601 60.87H78.6201L79.8801 55.26L82.2601 60.87Z" fill="#29272C"/>
<path d="M82.53 62.12L78.3 66.47C78.3 66.47 74.78 62.47 74.3 62.47L65.05 55.56C67.05 54.42 73.23 51.01 73.64 51.01L61.73 42.5L73.13 47.01L76.13 51.5L75.13 44.69L77.13 48.07L78 54L77.81 63.19L82.53 62.12Z" fill="#C7C6C1"/>
<path d="M60.0001 63.4L56.2001 70L50.5701 73.83C50.5701 73.83 55.5701 63.83 55.1801 63.07C54.7901 62.31 53.6801 48.07 53.6801 47.16C53.6801 46.45 55.3301 39.75 55.9601 37.22C55.9601 40.9 55.9601 45.15 55.9601 45.85C56.5596 49.0234 57.3206 52.1641 58.2401 55.26L58.9401 57.77L59.9401 63.14L60.0001 63.4Z" fill="#6D542F"/>
<path d="M101.6 47V50.21L93.22 55.91L82.53 51.33C83.16 51.33 96.1 42.49 96.1 42.49L101.6 47Z" fill="white" stroke="#231F20" stroke-linejoin="round"/>
<path d="M73.6601 51.0001C73.2501 51.0001 67.1001 54.4101 65.0701 55.5501L64.4101 55.9101L57.3301 47.6701L60.4301 42.6701L60.8901 41.8601L73.6601 51.0001Z" fill="white" stroke="#231F20" stroke-linejoin="round"/>
<path d="M79.5301 219.34L79.3001 238.7L69.6101 243.1C69.6101 243.1 69.6101 227.83 69.6101 227.1C69.5385 227.078 69.4618 227.078 69.3901 227.1L69.2401 227.18L69.0501 227.29C66.7101 228.64 58.0501 235.49 58.0501 235.49L57.7601 235.25L56.8701 219.25V215.52H57.0001C58.0901 216.8 60.2401 219.26 60.6101 219.26L79.5301 219.34Z" fill="#40403E"/>
<path d="M132.83 262.72L116.55 354.72L102.47 356.12L77.3101 273.83C77.3101 273.83 88.0601 265.03 98.8201 256.37C101.09 254.54 103.37 252.71 105.54 250.98C105.23 258.69 103.54 293.16 103.54 293.16C103.54 293.16 116.24 321.32 116.6 320.76C116.96 320.2 132.4 264.33 132.83 262.72Z" fill="#40403E"/>
<path d="M47.5101 510.42L19.9201 512C19.9201 512 9.92006 513.21 9.12006 513C8.32006 512.79 0.320068 510.83 0.320068 510.83L1.09006 507.44L14.9501 508.14H15.4001L26.2101 508.83L40.08 505.65L40.6201 505.53C40.673 505.521 40.7271 505.521 40.7801 505.53V505.53C41.1401 505.43 47.0101 503.87 47.1901 503.92C47.4301 507.54 47.5101 510.42 47.5101 510.42Z" fill="#5A5755"/>
<path d="M26.14 508.72L40.1299 505.7L26.2499 508.88L15.4399 508.19L14.9899 508.17H14.9799L14.95 508.15L15.2499 508.17L26.14 508.72Z" fill="#001750"/>
<path d="M47.3101 503.91C47.1301 503.91 41.2601 505.42 40.9001 505.52L40.8501 505.39V505.25L40.5301 504.33C40.4401 504.08 40.3401 503.8 40.2201 503.49C40.1001 503.18 39.9901 502.84 39.8501 502.49L39.6901 502.08C39.6401 501.92 39.5801 501.74 39.5101 501.57L38.7501 499.57L38.5001 498.91L37.6001 496.57C37.4301 496.13 37.2701 495.68 37.1001 495.24C36.6701 494.14 36.2501 493.05 35.8601 492.03C35.7101 491.65 35.5701 491.29 35.4301 490.95C35.0301 489.95 34.6701 488.95 34.3601 488.22C34.3295 488.115 34.2928 488.011 34.2501 487.91L34.1001 487.52C34.0401 487.37 33.9801 487.22 33.9401 487.1L33.8001 486.75C33.6901 486.45 33.6201 486.28 33.6201 486.28L33.7501 485.5V486.5L48.8001 486.28C48.8301 486.26 47.1301 497.69 47.3101 503.91Z" fill="#C7C6C1"/>
<path d="M39.72 472.64H39.48V472.14L39.72 472.64Z" fill="#1C387F" stroke="#9BB8C8" stroke-miterlimit="10"/>
<path d="M40.7 505.56L40.16 505.69L26.29 508.87L15.48 508.18H15.03L6.53003 503.94L24.94 494.52L27.38 496.2L28.25 496.8L28.88 497.24L29.71 497.82C33.88 500.73 39.59 504.7 40.7 505.56Z" fill="#C7C6C1"/>
<path d="M14.9801 508.17L1.09009 507.45L6.44009 503.91H6.4501L14.9801 508.17Z" fill="#29272C"/>
<path d="M136.71 501.31L118.88 495.38L117.88 486.3L117.95 486.66L132.35 486.48L136.71 501.31Z" fill="#29272C"/>
<path d="M141.42 509.61L119.94 508.88C119.94 508.88 117.46 501.33 117.46 501.01L118.91 495.63V495.38L136.74 501.31L141.42 509.61Z" fill="#C7C6C1"/>
<path d="M142.57 512.43L131.13 515.83H122.13L115.82 510L117.46 501.33V501C117.46 501.32 119.94 508.87 119.94 508.87L141.42 509.6L142.57 512.43Z" fill="#5A5755"/>
<path d="M40.9 505.52C40.847 505.511 40.7929 505.511 40.74 505.52V505.52L29.74 497.74L28.91 497.16L28.28 496.72L27.41 496.12L24.97 494.44L33.67 486.21C33.67 486.21 33.74 486.38 33.85 486.68L33.99 487.03C33.99 487.15 34.09 487.3 34.15 487.45L34.3 487.84C34.3426 487.941 34.3793 488.045 34.41 488.15L39.74 502.02L39.9 502.43L40.9 505.14C40.9214 505.222 40.9381 505.306 40.95 505.39C40.95 505.39 40.89 505.48 40.9 505.52Z" fill="#29272C"/>
<path d="M55.25 104.26L45.35 113.96L41 117C41 117 40.85 117.74 40.59 118.94C39.54 123.85 36.84 137 36.27 137C35.5415 137.138 34.8232 137.325 34.12 137.56L27.42 139.56L19.59 135.25L16.03 120.82L25.66 128.82L37.32 116.34L47.65 108.03L38.05 98.6699L44.12 100.42L55.25 104.26Z" fill="#40403E"/>
<path d="M20.93 254.9C20.93 254.9 14.2801 258.98 14.1701 259.46C14.0601 259.94 5.26004 252 4.22004 251.05C3.91004 257.23 4.38005 281.31 4.38005 281.31L6.11003 282.75L17.11 278.96L25.68 269.61L20.93 254.9ZM6.11003 279.13L7.11003 262.7L9.85005 276.18L6.11003 279.13Z" fill="#A1A0A0"/>
<path d="M18.0001 198.78L15.8701 218.55L13.8701 203.5L9.87005 197.65C9.86591 197.603 9.86591 197.557 9.87005 197.51L13.7601 197.58L18.0001 198.78Z" fill="#29272C"/>
<path d="M15.8999 250.53L20.8999 254.9C20.8999 254.9 14.2499 258.98 14.1399 259.46C14.0299 259.94 5.22993 252 4.18993 251.05C4.175 250.571 4.22889 250.093 4.34993 249.63C4.92993 248.72 9.40994 200.63 9.78994 197.63L13.7899 203.48L15.7899 218.53L14.1199 234.07L21.2099 244.25L10.4599 246.56L7.02993 250.51L15.8999 250.53Z" fill="#C7C6C1"/>
<path d="M35.3399 210.28L21.2599 244.27L14.1699 234.09L17.9699 198.78L33.1499 207.21L35.3399 210.28Z" fill="#40403E"/>
<path d="M20.4001 253.29L20.9301 254.9L15.9001 250.53H7.08008L10.5101 246.57L21.2601 244.27L20.4001 253.29Z" fill="#40403E"/>
<path d="M21.2599 287.02L13.4099 288.83L6.10986 282.75L17.1299 278.96L25.6999 269.61L25.8399 275.98L21.2599 287.02Z" fill="#C7C6C1"/>
<path d="M113.45 171.68C113.45 171.68 108.11 189 108.07 189L108.13 189.27C106.76 187.27 98.13 184.99 97.72 184.99C97.31 184.99 91.54 182.55 88.91 181.54C88.9053 181.504 88.9053 181.467 88.91 181.43C89.36 179.33 89.65 177.91 89.65 177.91L92.24 179.01L100 167L106.63 157.73L111.51 153L116.51 143.8C118.59 145.31 121.74 151.61 121.74 151.61L113.45 171.68Z" fill="#40403E"/>
<path d="M111.55 153L103.45 158.09L99.9999 167L92.2199 179L89.6299 177.9L70.9299 170L56.7999 177.38L55.2499 178.2L46.4899 164.9L41.1699 165.26H55.2699L65.7699 144.94L70.4399 161.24L75.0699 147.32C75.0699 147.32 92.9999 162 93.3699 161.86L111.55 153Z" fill="#5A5755"/>
<path d="M89.6701 177.92C89.6701 177.92 89.3801 179.34 88.9301 181.44C88.9253 181.477 88.9253 181.513 88.9301 181.55C87.6301 187.55 85.0301 198.96 84.0101 198.78C82.6401 198.54 69.6301 193.08 69.6301 193.08L58.2101 198.78L56.8201 177.35L70.9301 170L89.6701 177.92Z" fill="#A1A0A0"/>
<path d="M116.55 143.8L111.55 153L93.3701 161.85C93.0101 162 75.0701 147.28 75.0701 147.28L86.8701 132.88C86.8701 132.88 104.5 132.46 105.13 132.94C105.56 133.28 111.74 140.31 116.55 143.8Z" fill="#A1A0A0"/>
<path d="M48.8101 253.35L33.0601 240.09L39.36 223.47C39.8 223.77 41.1701 225.42 41.8801 225.96L48.8101 253.35Z" fill="#29272C"/>
<path d="M57.9999 235.54C57.9999 235.54 45.8699 229 41.8799 226C41.1699 225.46 39.7999 223.81 39.3599 223.51L45.6199 211.44L56.7999 219.38L57.9999 235.54Z" fill="#A1A0A0"/>
<path d="M69.61 243.1L58 235.54C59.86 234.04 67.44 228.23 69.24 227.23L69.39 227.15C69.4617 227.128 69.5383 227.128 69.61 227.15V227.15C69.65 227.83 69.61 243.1 69.61 243.1Z" fill="#C7C6C1"/>
<path d="M117.27 223.7L106.66 226.31L84 234.09V219.34L112.39 209.17L117.27 223.7Z" fill="#A1A0A0"/>
<path d="M116.55 354.7C116.55 354.7 111.55 375.3 111.32 376.18C111.09 377.06 102.47 356.1 102.47 356.1L116.55 354.7Z" fill="#C7C6C1"/>
<path d="M78.6101 305.48C78.8701 304.1 69.6101 353.71 69.6101 353.71L64.1401 362.34C64.1401 362.34 67.0701 350.64 67.3201 349.85C67.5701 349.06 76.2001 301.33 76.2001 301.33C76.2001 301.33 66.8301 297.88 68.5001 298.14C71.0849 298.28 73.6753 298.28 76.2601 298.14L81.3301 296.62L93.7001 360.94C93.2401 359.31 78.3501 306.83 78.6101 305.48Z" fill="#29272C"/>
<path d="M125.9 354.7L132.84 262.7L116.56 354.7C116.56 354.7 111.56 375.3 111.33 376.18C111.1 377.06 102.48 356.1 102.48 356.1L77.3199 273.81C77.3199 273.81 88.0699 265.01 98.8299 256.35L106.67 226.35L83.9999 234.09V236.57L79.3099 238.7L69.6199 243.1L58.1599 235.65L57.6999 235.3C56.2799 234.19 45.3999 228.6 41.8899 225.96L48.8199 253.35L50.8199 255.48L69.6299 275.56L53.3699 361L40.4299 353L27.8599 282.9L24.1099 326.44L30.3299 348.84L28.1799 376.21L32.9999 386.26L33.7599 472.64H39.4799V415.44C39.4799 414.29 57.5999 374.85 57.5999 374.85L65.9999 393.72L46.8999 472.64L52.7299 472.39L73.5399 391.7L64.1399 362.34C64.1399 362.34 67.0599 350.64 67.3199 349.85C67.5799 349.06 76.2099 301.33 76.2099 301.33C76.2099 301.33 66.8399 297.88 68.4999 298.14C71.0847 298.28 73.6751 298.28 76.2599 298.14L81.3299 296.62L93.6999 360.94L91.4199 386.65C91.4199 386.65 115.42 477.79 116.42 478.65C116.575 478.745 116.749 478.803 116.93 478.82C119.532 478.937 122.139 478.917 124.74 478.76H125.63L116.68 418.68C116.68 418.68 127.51 382.68 127.51 381.99C127.51 381.3 132.75 385.41 132.75 385.41L131 478.5L132.38 478.43L132.6 476.73C132.98 463.95 137.37 384.06 138.34 383.81C139.31 383.56 125.9 354.7 125.9 354.7ZM34.6499 371.52L38.1699 354.7C39.1699 355.13 48.9399 365.45 48.9399 365.45L34.6499 371.52Z" fill="#5A5755"/>
<path d="M124.47 239.22C117.811 242.556 111.474 246.499 105.54 251C103.37 252.73 101.09 254.56 98.8201 256.39L106.66 226.39L117.27 223.78L124.07 238.27L124.47 239.22Z" fill="#29272C"/>
<path d="M132.84 262.68C132.41 264.29 117.01 320.15 116.66 320.68C116.31 321.21 103.6 293.08 103.6 293.08C103.6 293.08 105.24 258.61 105.6 250.9C111.536 246.413 117.873 242.483 124.53 239.16L132.84 262.68Z" fill="#C7C6C1"/>
<path d="M167.79 204C167.6 204.21 160.39 212.32 154.01 219.34V249.58L150.4 256.3L144.93 249.16L134.39 264.66L133.46 270.95H139.91V282.75L151 285.51L162.09 278.85C162.09 278.85 161.83 246.68 162.09 245.58C162.29 244.74 166.05 217 167.79 204ZM151 280.87L152.81 273.81V261.69L156.17 276.18L151 280.87Z" fill="#A1A0A0"/>
<path d="M162.08 278.85L159.18 286.27L144.87 293.75L136.36 290.35L133.46 270.95H139.91V282.75L150.99 285.51L162.08 278.85Z" fill="#C7C6C1"/>
<path d="M154 219.34V249.58L150.39 256.3L144.92 249.16L137.78 216.44C137.78 216.44 144.1 228.9 144.31 229.53C144.41 229.81 149 224.92 154 219.34Z" fill="#C7C6C1"/>
<path d="M168.68 197.47C168.68 197.47 168.33 200.03 167.8 203.99C167.61 204.2 160.4 212.31 154.02 219.33C148.96 224.91 144.42 229.8 144.33 229.52C144.12 228.89 137.8 216.43 137.8 216.43L139.92 215.6L149.74 207.2L164.86 194.51L166.05 193.34L168.68 197.47Z" fill="#29272C"/>
<path d="M132.79 385.38L131 478.5C129.69 478.57 127.72 478.67 125.71 478.73L116.76 418.65C116.76 418.65 127.59 382.65 127.59 381.96C127.59 381.27 132.79 385.38 132.79 385.38Z" fill="#29272C"/>
<path d="M113 119L78.9999 130.25L69.5599 143.77L60.4799 128.87L40.6299 119C40.8899 117.81 41.0399 117.07 41.0399 117.07L45.3299 114.07C45.0199 114.52 45.3299 117.49 45.3299 117.49L69.2099 126.82L71.7699 127.82L110.89 115.58L113 119Z" fill="#29272C"/>
<path d="M65.77 144.91L55.26 165.23H41.17L39.1 163.76L31.73 150.82L34.78 139.16L38.08 135.68L55.25 134.29L65.77 144.91Z" fill="#A1A0A0"/>
<path d="M84 219.34V234.09V236.57L79.31 238.7L79.54 219.34H60.62C60.25 219.34 58.1 216.88 57.01 215.6L84.01 214.45V219.34H84Z" fill="#C7C6C1"/>
<path d="M52.4099 294.6C52.4099 294.6 41.9999 320 41.7999 319.14C41.5999 318.28 28.5199 285.21 27.8599 282.73V281.83L32.3599 241.62L33.0299 240.11L48.7799 253.37L50.7799 255.5L52.4099 294.6Z" fill="#C7C6C1"/>
<path d="M69.6099 275.56L53.3699 361L40.4299 353L27.8599 282.9V282.73C28.5199 285.21 41.6299 318.3 41.7999 319.14C41.9699 319.98 52.4099 294.6 52.4099 294.6L50.7999 255.48L69.6099 275.56Z" fill="#40403E"/>
<path d="M48.9399 365.45L34.6499 371.52L38.1699 354.7C39.1999 355.13 48.9399 365.45 48.9399 365.45Z" fill="#C7C6C1"/>
<path d="M123.62 135.59L121.78 151.59C121.78 151.59 117.92 145.95 116.55 143.78C113.2 138.47 105.55 133.26 105.13 132.93C104.5 132.45 86.87 132.87 86.87 132.87L75.07 147.27L70.44 161.19L65.78 144.9L55.25 134.27H38.09L34.78 139.14L36.31 137.01C36.88 137.01 39.58 123.86 40.63 118.95L60.49 128.86L69.57 143.78L79 130.26L113 119C117.47 126.42 123.18 135.82 123.62 135.59Z" fill="#C7C6C1"/>
<path d="M156.16 276.18L150.99 280.87L152.8 273.81V261.69L156.16 276.18Z" fill="#40403E"/>
<path d="M9.81989 276.18L6.10986 279.13L7.07986 262.7L9.81989 276.18Z" fill="#40403E"/>
<path d="M66 393.72L46.9 472.64H39.72L39.48 472.14V415.44C39.48 414.29 57.6 374.85 57.6 374.85L66 393.72Z" fill="#29272C"/>
<path d="M52.7399 472.39L48.7399 486.26L33.6799 486.48L33.6899 485.48L33.7799 472.64L52.7399 472.39Z" fill="#40403E"/>
<path d="M132.35 478.43V486.48L117.95 486.66L117.88 486.3L116.97 478.81C119.573 478.927 122.179 478.907 124.78 478.75C127.09 478.75 129.46 478.58 130.95 478.5L132.35 478.43Z" fill="#40403E"/>
<path d="M147.95 107.98L108.39 110.83L113.68 104.44L127.03 98.31L129.21 96.99L147.95 107.98Z" fill="#C7C6C1"/>
<path d="M147.95 107.98L143.76 126.69L125.58 128.05L108.39 110.83L147.95 107.98Z" fill="#5A5755"/>
<path d="M143.76 126.69C143.76 126.69 124.33 135.22 123.62 135.59C123.18 135.82 117.4 126.37 112.95 118.95L110.86 115.45C109.938 113.965 109.113 112.421 108.39 110.83L125.58 128.05L143.76 126.69Z" fill="#A1A0A0"/>
<path d="M43.94 108.11L23.96 105.47L38.09 98.75L43.94 108.11Z" fill="#5A5755"/>
<path d="M47.6901 108.11L37.36 116.42L25.7001 128.9L16.0701 120.86L23.9601 105.47L43.9401 108.11L38.0901 98.75L47.6901 108.11Z" fill="#C7C6C1"/>
<path d="M81.91 35.25L97.73 26.73L76.02 33.05L81.91 35.25Z" fill="#C7C6C1"/>
<path d="M79.52 65.2099L101.75 55.9399L104.7 58.8999L105.06 57.5299L101.75 55.9399L82.53 62.1199L79.52 65.2099Z" fill="#BC7645"/>
<path d="M77.23 65.2799L61.04 58.4399L74.32 62.4899L77.23 65.2799Z" fill="#9B5023"/>
<path d="M96.7001 79.8501L85.3501 88.6401L83.4101 89.5701L79.6001 88.7001L78.1001 88.2301L83.4301 88.0101L96.7001 79.8501Z" fill="#9B5023"/>
<path d="M66.71 81.18L78.1 88.23L66.71 80.03V81.18Z" fill="#9B5023"/>
<path d="M66.71 80C66.71 80.17 78.3 88 78.3 88H83.43L83.26 88.7L78.1 88.22C78.1 88.22 68.29 82.04 68.24 82.05C68.19 82.06 66.71 80 66.71 80Z" fill="#9B5023"/>
<path d="M76 33.0501C76 33.0501 70.93 24.4801 70.86 23.7301C70.79 22.9801 80.42 5.57007 80.42 5.57007C80.42 5.57007 75.42 21.2701 75.64 21.4601C75.86 21.6501 81.26 30.9901 81.26 30.9901L76 33.0501Z" fill="#392317"/>
<path d="M103.84 6.9999C103.21 6.8099 95.29 10.4299 95.29 10.4299C95.29 10.4299 88.87 26.9399 89.15 26.7099C89.43 26.4799 96.49 11.9999 96.49 11.9999L103.84 6.9999Z" fill="#392317"/>
<path d="M46.8799 25.63L62.9799 16.87L71.8999 19.31L61.8999 4.97998L46.8799 25.63Z" fill="#392317"/>
<path d="M98.8201 369C99.3401 369.92 113.73 407.88 113.73 407.88L94.8101 386L98.8201 369Z" fill="#C7C6C1"/>
<path d="M48.94 371.52L36.22 376.21L39.48 415.44L57.61 374.85L48.94 371.52Z" fill="#40403E"/>
<path d="M58.15 235.65L52.74 257.55L69.61 275.56L67.45 286.88L74.74 288.83L81.39 287.14L77.31 273.81L93.7 260.48L102.47 227.1L84 234.09L83.99 236.57L69.61 243.1L58.15 235.65Z" fill="#29272C"/>
<path d="M143.76 126.69C143.76 126.69 155.18 155.77 155.15 155.69C155.12 155.61 132 148.82 132 148.82L143.76 126.69Z" fill="#5A5755"/>
<path d="M131.99 148.82L121.78 151.61L123.62 135.59L143.76 126.69" fill="#40403E"/>
<path d="M155.15 155.68L164.32 181.37L164.85 194.52L146.37 186.47L155.15 155.68Z" fill="#40403E"/>
<path d="M121.78 151.61L133 179.78L140.93 188.48L139.87 215.61C139.87 215.61 149.71 208.61 149.69 207.21C149.67 205.81 146.33 186.47 146.33 186.47L155.11 155.67C155.11 155.67 133.34 147.72 132.47 147.84C131.6 147.96 121.78 151.61 121.78 151.61Z" fill="#C7C6C1"/>
<path d="M146.37 186.47L149.73 207.21C149.73 207.21 165.35 194.74 164.85 194.52L146.37 186.47Z" fill="#5A5755"/>
<path d="M136.42 183.49C136.78 183.88 146.87 184.38 146.87 184.38L151.65 183.93L141 188.48L136.42 183.49Z" fill="#29272C"/>
<path d="M36.3101 137L34.7801 139.13L31.7801 150.79L31.1101 152.02C31.1101 152.02 37.1101 166.16 36.4401 166.88C35.7701 167.6 25.0201 176.88 25.0201 176.88L20.8901 150.79L27.5101 139.57L36.3101 137Z" fill="#5A5755"/>
<path d="M27.4599 139.6L19.6299 135.28L14.9299 184.38L24.9699 176.91L20.8399 150.82L27.4599 139.6Z" fill="#40403E"/>
<path d="M36.3999 166.91L33.1499 207.21L21.8999 201.15L24.9999 176.9C24.9999 176.9 35.6799 167.39 36.3999 166.91Z" fill="#29272C"/>
<path d="M25 176.9L21.92 201.15L18 198.78L13.75 197.58C13.75 197.58 16.75 166.12 16.67 166.51C16.59 166.9 25 176.9 25 176.9Z" fill="#C7C6C1"/>
<path d="M112.39 209.17L84.0001 219.34V214.45L56.8101 215.61V219.34L45.6301 211.4L43.5501 177.4L38.2501 169.4L36.4101 166.93L31.0801 152.07L31.7501 150.84L39.1201 163.78L41.1901 165.25L46.5101 164.89L55.2701 178.19L56.8201 177.37L58.2101 198.8L69.6301 193.1L84.0101 198.8C81.0701 189.33 83.0101 181.11 87.3301 179.03C91.2501 177.16 96.9201 180.38 99.8301 182.03C103.057 183.879 105.885 186.35 108.15 189.3C108.57 191.6 112.39 209.17 112.39 209.17Z" fill="#40403E"/>
<path d="M113 166.6C112.87 167.03 102 179.66 102 179.66L101.67 185.08L113 166.6Z" fill="#A1A0A0"/>
<path d="M112.61 161C112.45 161.42 100.7 173.25 100.7 173.25L100 178.6L112.61 161Z" fill="#A1A0A0"/>
<path d="M24.9101 138.2L27.4601 139.6C25.2601 143.34 23.0534 147.08 20.8401 150.82L18.0601 150.89C18.5267 146.423 18.9801 141.94 19.4201 137.44L19.6301 135.29L24.9101 138.2Z" fill="#C7C6C1"/>
<path d="M89.6701 178.28L89.4701 179.28L88.9301 181.83V181.94L84.0001 199.14L70.7001 203.8L58.2001 199.14L56.8101 177.71L70.9401 170.32L89.6701 178.28Z" fill="#A1A0A0"/>
</svg>
