<svg width="168" height="480" viewBox="0 0 168 480" fill="none" xmlns="http://www.w3.org/2000/svg">
<path d="M91.3099 43.1001H91.2599H90.1399L86.1399 43.17H85.5399L80.9699 43.25H79.6399H78.3399H78.2399L78.0599 43.31L77.6199 43.5L77.0599 43.7401L74.7199 44.8L74.3699 44.9601L73.9099 45.18L73.6699 45.29L73.3199 45.45L70.9399 43.04L64.0299 42.8H63.3999C63.5199 43.34 65.2299 49.11 65.2299 49.11L67.7999 55.6001L72.0999 62.3201H82.9299L90.6399 53.2101L90.7099 53.14L91.4799 52.2401V52.18V51.9901L91.3099 43.1001ZM80.1899 49.2401C80.4999 49.3101 84.6199 50.4901 84.6199 50.4901L69.4499 50.41L71.0699 49.2401C71.0699 49.2401 79.8799 49.1801 80.1899 49.2401V49.2401ZM71.5099 52.8801H80.9999C80.9999 52.8801 78.9099 55.37 78.6699 55.29C78.4299 55.21 73.0499 55.29 73.0499 55.29L71.5099 52.8801Z" fill="#C68650"/>
<path d="M68.28 0.929932L74.74 2.73994L82.42 0.929932L97.36 4.86993L84.15 8.15994L72.09 7.48994L68.28 0.929932Z" fill="#3E383E"/>
<path d="M164.16 219.48V219.91L154.47 218.85L165.59 168.13C165.59 168.13 167 189.8 167.37 190.49V190.64C167.52 193.24 164.16 219.48 164.16 219.48Z" fill="#5A5755"/>
<path d="M159.89 219.45L154.9 246.08L151.41 232.11L145.87 229.53L146.06 229.1L154.43 218.85L159.89 219.45Z" fill="#C58851"/>
<path d="M154.9 246.08L144.59 248.35L142.73 244.74L148.02 243.59L148.51 239.18L142.73 244.74L140.8 241.02L145.87 229.53L151.41 232.11L154.9 246.08Z" fill="#A66933"/>
<path d="M167.18 246.34L162.15 250.28L144.59 248.35L154.9 246.08L167.18 246.34Z" fill="#6F3E2A"/>
<path d="M164.12 219.91L167.18 246.34L154.9 246.08L159.89 219.45L164.12 219.91Z" fill="#A66933"/>
<path d="M141.26 80.9799L129.8 98.4599L109.69 84.7399L124.31 76.4199L124.54 76.5199L141.26 80.9799Z" fill="#C7C6C1"/>
<path d="M98.3101 65.8201C93.3601 68.0001 80.3901 75.0001 79.0001 75.4001C78.9301 75.4001 78.8901 75.4001 78.8801 75.4001C78.6201 75.2201 72.4001 70.1101 68.8301 67.4001L78.0101 70.9301L97.1101 60.8301V64.9601L98.3101 65.8201Z" fill="#996B4A"/>
<path d="M97.1301 54.8301V60.8301L78.0001 70.9401L68.8201 67.4101L69.8901 61.8801L71.7001 64.0701H83.0001L97.1301 54.8301Z" fill="#8A562C"/>
<path d="M97.89 45.3301L98.44 44.7401L97.89 45.3301L97.13 54.8301L83 64.0501L91.59 52.0501C94.1752 48.4563 96.3898 44.61 98.2 40.5701C98.32 40.1901 97.89 45.1501 97.89 45.3301Z" fill="#6A3F26"/>
<path d="M91.5 52.12L83 64.05H71.7L69.89 61.86L67.61 55.9601L65.26 49.3801L62.72 42.8L64.02 42.87L65.86 49.22L68.44 55.7101L72.12 62.43H82.95L91.5 52.12Z" fill="#9C6636"/>
<path d="M102.88 28.8101L105.02 38.7601L97.8901 45.3301C97.8901 45.1501 98.3201 40.1901 98.1701 40.5401C99.6547 36.7747 100.64 32.8312 101.1 28.8101H102.88Z" fill="#A26938"/>
<path d="M102.49 13.9999L101.32 28.7399L92.3699 24.4799L92.9699 14.4799L88.6299 15.1899L76.9999 18.6399L64.3699 14.0599L63.1299 25.2599L63.5399 9.57991C63.5399 9.57991 74.4699 11.9799 74.7199 11.9799C74.9699 11.9799 91.7999 10.3999 92.1699 10.2799C92.5399 10.1599 97.4999 8.18991 97.7799 7.90991L102.49 13.9999Z" fill="#22201F"/>
<path d="M88.6301 15.1901L86.0701 24.0001C86.0701 24.0001 74.9401 29.1701 74.7601 29.3001C74.5801 29.4301 66.5401 24.9801 66.1701 24.8601C65.8001 24.7401 64.3701 14.0601 64.3701 14.0601L76.5001 18.4601L88.6301 15.1901Z" fill="#C68650"/>
<path d="M101.33 28.81L97.53 30.83L92.6 32.32L89.84 28.95L87.53 26.14L92.37 24.45L101.32 28.71H101.3L101.33 28.81Z" fill="#A1A0A0"/>
<path d="M97.85 30.6499C97.85 30.6499 93.16 39.5299 91.75 42.2899L91.5 42.7599L91.34 43.05L78.34 43.27C78.05 43.27 73.34 45.49 73.34 45.49L70.97 43.08L64.43 42.82L62.74 42.75L64.69 38.36L71.56 40.08L72.93 33.27L63.73 29.08L62.91 25.57L63.18 25.21L74.49 31.4299L87.72 26.05L89.92 28.74L76.55 33.63L77.71 40.08C77.99 40.08 90.1 39.59 90.3 39.52C90.5 39.45 92.68 32.11 92.68 32.11L97.85 30.6499Z" fill="#29272C"/>
<path d="M72.8799 33.3199L71.4999 40.1299L70.9799 33.6399L63.6799 29.1299L72.8799 33.3199Z" fill="#29272C"/>
<path d="M64.6299 38.4101L62.6899 42.8001L60.4299 33.8701V28.8101L62.8599 25.6201L63.6799 29.1301L61.9299 32.6201L63.5399 38.1401L64.6299 38.4101Z" fill="#A1A0A0"/>
<path d="M89.87 28.79L79.69 33.45L77.65 40.1301L76.5 33.68L89.87 28.79Z" fill="#29272C"/>
<path d="M101.33 28.81C101.09 29.16 100.81 34.8101 98.41 40.5201L98.3 40.78C96.15 45.84 92.18 50.86 91.63 52.01C91.63 52.01 91.58 52.16 91.56 52.2C91.5414 52.2364 91.5139 52.2673 91.48 52.29L91.26 43.08V43.03C91.26 43.03 91.35 42.8801 91.42 42.7401L91.67 42.2701C93.15 39.5201 97.77 30.6301 97.77 30.6301L100.95 28.89L101.24 28.79L101.33 28.81Z" fill="#5A5755"/>
<path d="M123.54 104.22L117.4 118.43C117.4 118.43 102.85 126.93 102.5 127.29C102.15 127.65 75.07 121.87 75.07 121.87L76.86 98.9999L85 83.1699L77 88.0599C77 88.0599 69.63 84.2699 69 83.6199L74.47 99.9999L70.78 122.34L47.52 128.64L34.76 119.83L46.85 135.15L63.3 129.15L49.39 142.2L53.61 178.56C53.61 178.56 61.33 197.3 61.79 197.56C62.25 197.82 86.58 197.56 86.58 197.56L103.87 172.31L114.19 166.75C114.19 166.63 114.19 166.57 114.19 166.57L114.47 165.81V165.76L126.83 125.31L123.54 104.22ZM92.48 154.67L92.62 156.32L94.62 180.97L91.44 185.68H91.17L73.45 187.8V130.59L96.05 141.26L92.48 154.67ZM80.06 129.24C80.06 129.24 104.68 133.8 105.35 133.63C106.02 133.46 125.82 117.72 126.44 117.23L107.36 141.23L80.06 129.24Z" fill="#40403E"/>
<path d="M126.44 117.23L107.36 141.23L80.0601 129.23C80.0601 129.23 104.68 133.79 105.35 133.62C106.02 133.45 125.82 117.72 126.44 117.23Z" fill="#29272C"/>
<path d="M74.4599 100.01L70.7699 122.35L47.5099 128.64L34.7499 119.84L33.9199 103.4L49.0199 84.74L74.4599 100.01Z" fill="#A1A0A0"/>
<path d="M48.9999 84.74L31.0899 100L26.6799 94.73L33.39 79.58L44.9899 78.71L45.5199 78.47C46.7599 80.42 48.9999 84.74 48.9999 84.74Z" fill="#C7C6C1"/>
<path d="M25.3901 119.37L25.4401 119.23L26.6801 94.74L31.0901 100.01L34.7501 119.84L25.3901 119.37Z" fill="#40403E"/>
<path d="M52.8501 201.6L65.1701 226.66L64.0001 224.87L63.5301 224.13L63.2701 223.73L62.7101 222.84L62.0901 221.84L61.7601 221.32L60.7101 219.67L59.5801 217.89L58.7901 216.64L58.0001 215.4L57.5901 214.75L56.7901 213.49L55.4501 211.39L54.6701 210.15L53.8501 208.85C50.1901 203.07 47.0501 198.04 46.9901 197.79L50.3901 177.18C50.3901 177.18 44.1901 138.98 44.3901 135.51C43.4901 137.94 34.7601 158.04 34.0401 159.46L18.5801 151.64L32.6901 139.27L34.7401 119.85L46.8301 135.17L63.2801 129.17L49.3701 142.22L53.5901 178.58L52.8501 201.6Z" fill="#5A5755"/>
<path d="M18.6 151.63L17.39 179.12L6.99997 213.56L0.959961 210.12L12.2 163.82L18.6 151.63Z" fill="#C7C6C1"/>
<path d="M34.01 159.55L32.31 173.25L12.74 213.82L7 213.56L17.39 179.12L34.01 159.55Z" fill="#5A5755"/>
<path d="M11.74 229.02L3.79004 242.07L0.540039 228.2L0.960022 210.12L7.00003 213.56L11.74 229.02Z" fill="#A86A33"/>
<path d="M19.39 225.72L11.74 229.02L7 213.56L12.74 213.82L19.27 225.37L19.39 225.72Z" fill="#C78953"/>
<path d="M22.75 235.61L20.14 238.23L11.74 229.02L19.39 225.72L22.75 235.61Z" fill="#A66834"/>
<path d="M20.14 238.23L18.04 242.2L17.31 243.57L3.81003 242.15L3.79004 242.07L11.74 229.02L20.14 238.23Z" fill="#6D3D2E"/>
<path d="M118.77 191.24L96.0599 211.91L86.3299 226.68C85.8299 226.01 107.86 194.34 107.33 193.84C106.8 193.34 103.84 172.39 103.84 172.39L114.16 166.83C114.39 168.95 118.62 189.89 118.62 190.72C118.659 190.896 118.709 191.07 118.77 191.24V191.24Z" fill="#5A5755"/>
<path d="M65.1699 226.68L55.5499 282.38L40.3799 265.48L46.9999 197.79C47.1399 198.38 64.6199 225.79 65.1699 226.66V226.68Z" fill="#C7C6C1"/>
<path d="M131.43 248.18L134.78 304.7C134.78 304.7 125.65 315.77 122.21 320.7C124.71 315.12 129.9 301.15 129.9 300.89C129.9 300.63 117.12 283.84 115.72 280.41C115.81 280 115.81 279.78 115.72 279.8C115.63 279.82 115.6 280.04 115.72 280.41C114.72 284.55 103.66 308.56 102.72 310.5L102.66 310.63C95.43 286.1 85.71 253.31 85.71 253.31L80.45 289.71C80.45 289.71 75.19 315.19 75.14 315.71C73.7397 317.188 72.1371 318.461 70.38 319.49C65.81 322.37 60.3 325.85 59.86 326.14C59.09 326.65 70.05 305.25 70.05 305.25L55.51 282.39L65.14 226.69C65.14 226.69 86.3 227.35 86.3 226.69L115.67 278.47L131.43 248.18Z" fill="#5A5755"/>
<path d="M55.5499 282.38L49.8099 314.96L40.3799 265.48L55.5499 282.38Z" fill="#5A5755"/>
<path d="M73.4699 338.05L61.6799 352.37L46.1099 328L49.3299 316.59L49.5899 315.69L49.8099 314.93L55.5499 282.35L70.0899 305.21C70.0899 305.21 59.0899 326.61 59.8999 326.1L75.1799 315.67C75.3999 315.05 73.4699 338.05 73.4699 338.05Z" fill="#40403E"/>
<path d="M79.7899 374.88L61.6799 352.37L73.4699 338.05L79.7899 374.88Z" fill="#C7C6C1"/>
<path d="M79.7899 374.88L63.5099 444.84L61.6799 352.37L79.7899 374.88Z" fill="#29272C"/>
<path d="M52.0899 419.64C52.0899 419.64 49.8599 358.64 49.6399 357.97C49.4199 357.3 46.1099 328.69 46.1099 328.03L61.6799 352.37L63.5199 444.84L52.0899 419.64Z" fill="#5A5755"/>
<path d="M64.39 467.94L27.56 469.68C27.56 469.68 18.62 472.73 17.75 472.51C16.88 472.29 2.48999 470.12 2.48999 470.12L3.35999 464.67L22.42 465.49L39.99 466.25L56.78 462.55C56.78 462.55 63.94 460.71 64.16 460.77C64.29 464.77 64.39 467.94 64.39 467.94Z" fill="#40403E"/>
<path d="M64.1599 460.77C63.9399 460.71 56.7799 462.55 56.7799 462.55L48.3599 441.32L52.0899 419.42L63.5199 444.62C63.6299 444.62 63.9999 453.92 64.1599 460.77Z" fill="#40403E"/>
<path d="M56.7701 462.55L39.9901 466.47L22.4201 465.71L12.1001 460.77L38.3801 450.38L56.7701 462.55Z" fill="#C7C6C1"/>
<path d="M22.4199 465.71L3.35986 464.67L12.0799 460.77H12.0999L22.4199 465.71Z" fill="#29272C"/>
<path d="M131.43 248.18L115.71 278.48C115.08 277.86 122.16 212.13 122.16 212.13C126.85 227.76 131.43 248.18 131.43 248.18Z" fill="#40403E"/>
<path d="M134.78 304.7C134.78 304.7 133.89 305.78 132.56 307.42L131.75 308.42C131.14 309.17 130.48 309.99 129.75 310.86C129.49 311.18 129.22 311.51 128.96 311.86C128.7 312.21 128.44 312.5 128.19 312.86L127.19 314.08C126.29 315.22 125.4 316.37 124.58 317.43L123.77 318.5C123.742 318.547 123.709 318.591 123.67 318.63C123.27 319.16 122.91 319.63 122.57 320.12L122.23 320.6C122.197 320.637 122.167 320.678 122.14 320.72L122.2 320.59C122.67 319.53 123.2 318.18 123.84 316.7L124.4 315.31L124.46 315.17C124.86 314.17 125.27 313.12 125.67 312.07C125.8 311.75 125.92 311.44 126.04 311.13C126.34 310.35 126.64 309.58 126.92 308.82C127.2 308.06 127.42 307.51 127.65 306.9C127.88 306.29 128.02 305.9 128.18 305.48C128.34 305.06 128.45 304.78 128.57 304.48C128.69 304.18 128.77 303.92 128.87 303.66C129.46 302.06 129.87 301.01 129.87 300.94C129.87 300.71 117.09 283.89 115.69 280.46C115.69 280.54 115.69 280.63 115.62 280.72C115.623 280.783 115.623 280.847 115.62 280.91C115.62 280.99 115.57 281.08 115.54 281.17C115.51 281.26 115.42 281.55 115.34 281.77L115.22 282.11C115.22 282.23 115.13 282.35 115.09 282.48C115.05 282.61 114.99 282.73 114.95 282.86C114.91 282.99 114.84 283.13 114.79 283.27L114.5 284.03L114.38 284.31C114.33 284.45 114.27 284.6 114.21 284.74C113.97 285.35 113.71 285.99 113.43 286.67C113.36 286.84 113.29 287.01 113.21 287.18C113.13 287.35 113.1 287.44 113.04 287.58C112.98 287.72 112.88 287.97 112.79 288.17C112.41 289.06 112.02 290 111.6 290.95C111.47 291.27 111.33 291.59 111.19 291.95C111.05 292.27 110.91 292.6 110.76 292.95L109.45 295.95L108.69 297.67L107.85 299.54L107.03 301.35L106.32 302.93L105.8 304.07L104.22 307.54L103.88 308.26L103.68 308.7C103.68 308.82 103.57 308.93 103.52 309.04L103.42 309.26C103.28 309.56 103.16 309.81 103.07 310.02L102.94 310.31L102.84 310.52L102.79 310.63L102.73 310.76L117.95 327.99L120.95 349.75L136 334.81L134.78 304.7Z" fill="#40403E"/>
<path d="M136.1 421.56L116.54 382.64C116.54 382.64 116.54 382.23 116.44 381.5C116.5 380.24 120.94 357.34 120.94 357.34L110.37 337C110.37 336.75 106.97 325.14 102.82 310.8L118 328L120.9 349.65L152.18 418L156.18 448.72L136.1 421.56Z" fill="#5A5755"/>
<path d="M120.94 357.3C120.94 357.3 116.5 380.2 116.44 381.46C115.85 374.46 110.37 337.55 110.37 336.96L120.94 357.3Z" fill="#C7C6C1"/>
<path d="M152.18 418.04L120.94 349.64L136.04 334.81L146.69 368.49L152.18 418.04Z" fill="#29272C"/>
<path d="M161.39 461.1L138.44 453.67L136.51 422.4L136.1 421.56L156.13 448.76L161.39 461.1Z" fill="#40403E"/>
<path d="M165.93 471.74L141.8 471.3C141.8 471.3 138.49 461.62 138.49 461.21V454L138.44 453.68L161.44 461.11L165.93 471.74Z" fill="#C7C6C1"/>
<path d="M167.47 475.35L154 479.71H142L136.34 472.71L138.52 461.59V461.18C138.52 461.59 141.83 471.27 141.83 471.27L165.96 471.71L167.47 475.35Z" fill="#40403E"/>
<path d="M153.36 155.25C153.36 155.25 147.23 160.34 143.03 163.69C142.03 162.46 136.54 152.87 135.03 151.47C137.46 152.45 152.28 155.13 153.36 155.25Z" fill="#40403E"/>
<path d="M154.43 218.85L144.53 181.72L143.17 163.88L143.03 163.69C147.23 160.34 153.36 155.25 153.36 155.25L154.43 218.85Z" fill="#C7C6C1"/>
<path d="M165.55 168.13L154.43 218.85L153.36 155.25L165.55 168.13Z" fill="#40403E"/>
<path d="M105.48 70.72L85.0001 83.17L77.0001 88.06C77.0001 88.06 69.6301 84.27 69.0001 83.62V83.53C69.2501 83.36 66.3101 76.36 64.1201 71.98L66.8601 69.33L67.2601 68.95C67.5301 68.71 67.7701 68.48 67.9901 68.27C68.4301 67.86 68.7401 67.54 68.8201 67.44C72.3901 70.16 78.6101 75.27 78.8701 75.44C78.8701 75.44 78.9201 75.44 78.9901 75.44C80.3201 74.91 92.4001 67 97.0701 65.01L98.3201 65.86L105.48 70.72Z" fill="#5A5755"/>
<path d="M74.46 100.01L49.02 84.74L68.95 83.53L68.99 83.62L74.46 100.01Z" fill="#C7C6C1"/>
<path d="M33.9201 103.4L34.7501 119.84L31.0901 100.01L49.0201 84.74L33.9201 103.4Z" fill="#5A5755"/>
<path d="M32.7101 139.26L18.6001 151.63L20.5101 132.53L25.3901 119.37L34.7501 119.84L32.7101 139.26Z" fill="#C7C6C1"/>
<path d="M34.0599 159.45L34.0099 159.55L17.3999 179.12L18.5999 151.63L34.0599 159.45Z" fill="#40403E"/>
<path d="M18.04 242.2L7 239.78L10.01 236.13L20.14 238.23L18.04 242.2Z" fill="#A26B32"/>
<path d="M109.69 84.7399L76.8599 98.9799L84.9999 83.1699L109.69 84.7399Z" fill="#C7C6C1"/>
<path d="M123.54 104.22L117.4 118.43C117.4 118.43 102.85 126.93 102.5 127.29C102.15 127.65 75.0701 121.87 75.0701 121.87L76.86 99L109.69 84.76L123.54 104.22Z" fill="#A1A0A0"/>
<path d="M148.51 239.18L148.02 243.59L142.73 244.74L148.51 239.18Z" fill="#6E3B1A"/>
<path d="M92.4799 154.67L94.6299 180.98L91.4399 185.69L73.45 187.84V130.59L96.0599 141.26L92.4799 154.67Z" fill="#A1A0A0"/>
<path d="M115.71 278.48L86.3401 226.7L96.0701 211.93L118.78 191.26C119.33 193.34 120.65 201.58 122.17 212.15C122.16 212.13 115.08 277.86 115.71 278.48Z" fill="#C7C6C1"/>
<path d="M86.3301 226.68C86.3301 227.32 65.1601 226.68 65.1601 226.68L52.8401 201.6L53.6101 178.6C53.6101 178.6 61.3301 197.34 61.7901 197.6C62.2501 197.86 86.5801 197.6 86.5801 197.6L103.87 172.35C103.87 172.35 106.87 193.3 107.36 193.8C107.85 194.3 85.8301 226 86.3301 226.68Z" fill="#29272C"/>
<path d="M92.9999 14.4801L92.3999 24.4801L87.6999 26.1301L74.4699 31.5101L63.1599 25.2901L64.3999 14.0901C64.3999 14.0901 65.8399 24.7701 66.1999 24.8901C66.5599 25.0101 74.5999 29.4501 74.7899 29.3301C74.9799 29.2101 86.0999 24.0301 86.0999 24.0301L88.6599 15.2201L92.9999 14.4801Z" fill="#A46B32"/>
<path d="M84.6199 50.49L82.14 51.04L70.6899 50.77C70.6899 50.77 69.5 50.4 69.45 50.4L71.0699 49.24C71.0699 49.24 79.8799 49.18 80.1899 49.24C80.4999 49.3 84.6199 50.49 84.6199 50.49Z" fill="#8F5729"/>
<path d="M81 52.8799C81 52.8799 78.91 55.3699 78.67 55.2899C78.43 55.2099 73.05 55.2899 73.05 55.2899L71.53 52.8799H81Z" fill="#8F5729"/>
<path d="M92.6299 32.16C92.6299 32.16 90.4499 39.5001 90.2499 39.5701C90.0499 39.6401 77.9399 40.1301 77.6599 40.1301L79.6599 33.45L89.8399 28.79L92.6299 32.16Z" fill="#FFFDFD" stroke="#231F20" stroke-linejoin="round"/>
<path d="M71.4999 40.1299L64.6299 38.4099L63.5399 38.1399L61.9299 32.6199L63.6799 29.1299L70.9799 33.6399L71.4999 40.1299Z" fill="#FFFDFD" stroke="#231F20" stroke-linejoin="round"/>
<path d="M78 43.3901L90.82 44.6501L91.52 52.2701L91.32 43.1001L78.32 43.3201L78 43.3901Z" fill="#6A3F26"/>
<path d="M102.49 14.0001L89.87 13.0001L74.76 15.3901L64.64 12.7301L63.54 9.54007L64.94 7.00008L85.62 9.39008L97.36 4.83008L102.49 14.0001Z" fill="#22201F"/>
<path d="M75.04 28.6701L76.5 26.1201V27.9001L75.04 28.6701Z" fill="#A46A33"/>
<path d="M68 68.2699C67.78 68.4799 67.54 68.7099 67.27 68.9499L68.83 67.4199C68.7 67.5399 68.39 67.8599 68 68.2699Z" fill="#643090"/>
<path d="M69 83.53L49 84.74C49 84.74 47.28 81.46 46 79.32C45.81 79 45.63 78.71 45.47 78.46L48.85 76.46L48.98 76.38V76.44C52.29 76.05 59.57 75.44 59.57 75.44C61.1506 74.4206 62.6425 73.2698 64.03 72C66.27 76.36 69.21 83.36 69 83.53Z" fill="#40403E"/>
<path d="M49.0001 76.3901V79.2801H46.0001L33.3401 79.5301L47.2901 76.6201L49.0001 76.3901Z" fill="#40403E"/>
<path d="M92.4799 154.67L73.45 151.31L72.1799 155.64L92.6099 156.33L94.4399 155.3L92.4799 154.67Z" fill="#5A5755"/>
<path d="M52.85 201.6L65.17 226.66L64 224.87L63.53 224.13L63.27 223.73L62.71 222.84L62.09 221.84L61.76 221.32L60.71 219.67L59.58 217.89L58.79 216.64L58 215.4L57.59 214.75L56.79 213.49L55.45 211.39L54.67 210.15L53.85 208.85C50.19 203.07 47.05 198.04 46.99 197.79L50.39 177.18C50.39 177.18 44.19 138.98 44.39 135.51L34.74 119.85L46.83 135.17L63.28 129.17L49.37 142.22L53.59 178.58L52.85 201.6Z" fill="#5A5755"/>
<path d="M97.36 4.86993V9.57994L74.66 14.0599L63.54 9.57994L64.94 7.03993C66.31 4.54993 68.22 1.08993 68.28 0.929932C68.28 1.26993 75.39 5.66994 75.39 5.66994L79.22 3.23994L82.42 4.86993H97.36Z" fill="#22201F"/>
<path d="M92.9999 14.4801C92.9999 14.4801 97.1299 12.2501 97.0999 12.4001C97.0699 12.5501 95.5299 25.7901 95.5299 25.7901L92.3999 24.4501L92.9999 14.4801Z" fill="#3E383E"/>
<path d="M101.88 31.04L104.02 38.41L101.04 41.84L101.88 31.04Z" fill="#6A3F26"/>
<path d="M101.04 41.84L99.1799 41.69L101.88 31.04L103.47 36.44L101.04 41.84Z" fill="#6A3F26"/>
<path d="M76.4999 17.8401C76.4999 17.6601 66.45 10.3301 66.45 10.3301C66.45 10.3301 68.0899 1.68012 68.2799 1.93012C68.4699 2.18012 74.5399 9.39013 74.5399 9.39013L76.4999 17.8401Z" fill="#3E383E"/>
<path d="M62.6899 42.8L70.6899 44C70.6899 44 73.4099 45.7 73.2499 45.54L70.8799 43.1301L62.6899 42.8Z" fill="#6A3F26"/>
<path d="M124.32 76.42L109.69 84.74L85 83.17L105.48 70.72L106.73 71.57L124.32 76.42Z" fill="#40403E"/>
<path d="M123.54 104.22L123.48 125.43L114.19 166.83L127.47 124.95L123.54 104.22Z" fill="#29272C"/>
<path d="M70.86 137.92C71.2 138.77 70.18 150.23 70.18 150.23L59 151L61.37 140.17L70.86 137.92Z" fill="#A1A0A0"/>
<path d="M102.76 310.46L102.7 310.59C95.4699 286.06 85.7499 253.27 85.7499 253.27L80.4899 289.67C80.4899 289.67 75.2299 315.15 75.1799 315.67C73.7796 317.148 72.1771 318.421 70.4199 319.45L76.6299 299.24L84.7599 250.03L77.5899 246.69L74.5899 238.2L81.0599 243.59H88.9799C88.9799 243.59 90.7699 251.9 91.2299 252.74C91.6899 253.58 101.88 306 102.76 310.46Z" fill="#29272C"/>
<path d="M38.3799 450.38L48.3799 441.32C48.3799 441.32 57.3799 463.32 56.8099 462.77C56.2399 462.22 38.3799 450.38 38.3799 450.38Z" fill="#29272C"/>
<path d="M164.16 219.48V219.91L154.47 218.85L167.37 190.49V190.64C167.52 193.24 164.16 219.48 164.16 219.48Z" fill="#A1A0A0"/>
<path d="M72.0901 62.43C72.2101 62.28 73.9801 59.3201 73.9801 59.3201L79.1401 59.05L82.9201 62.43L75.7101 63.37L72.0901 62.43Z" fill="#9C6636"/>
<path d="M152 105.43V105.5L142.34 122.19L127.84 113.65L129.84 98.46L141.27 81H141.59L152 105.43Z" fill="#29272C"/>
<path d="M135.51 127.37C135.51 127.37 134.31 150.07 134.7 151.23C134.04 151.16 127.25 126.47 127.25 126.47L121.62 105.62L110 84.74L129.84 98.4L128.17 113.56L142.3 122.19L135.51 127.37Z" fill="#5A5755"/>
<path d="M165.55 168.13L153.36 155.25L142.29 122.19L152.03 105.29C151.93 106.35 154.84 120.29 155.03 120.94C155.22 121.59 155.65 134.56 155.65 134.56C155.65 134.56 156.34 154.15 156.41 153.49C156.48 152.83 165.55 168.13 165.55 168.13Z" fill="#5A5755"/>
<path d="M153.36 155.25C152.28 155.13 137.46 152.45 135.03 151.47C134.94 151.373 134.831 151.295 134.71 151.24C134.32 150.08 135.52 127.38 135.52 127.38L142.3 122.2L153.36 155.25Z" fill="#A1A0A0"/>
<path d="M47.3501 76.6501L49.0301 76.3901V76.4501H48.9001L47.3401 76.6401L47.3501 76.6501Z" fill="#662F8E"/>
</svg>
