<svg width="192" height="489" viewBox="0 0 192 489" fill="none" xmlns="http://www.w3.org/2000/svg">
<path d="M88.4701 47.79C89.3665 48.4835 90.0209 49.4425 90.3401 50.53C90.4441 51.2907 90.2929 52.0644 89.9101 52.73C89.5306 53.3933 89.063 54.0022 88.5201 54.54C85.7401 57.45 82.1401 59.79 78.1201 60.23C77.3865 60.3457 76.6367 60.3048 75.9201 60.11C75.1327 59.825 74.4401 59.3263 73.9201 58.67C73.4819 58.1515 73.1215 57.5722 72.8501 56.95C72.6971 56.5773 72.5234 56.2134 72.3301 55.86C71.6701 54.86 70.3301 54.29 69.7201 53.24C69.217 52.1299 69.1042 50.8823 69.4001 49.7C69.4118 49.5444 69.4597 49.3937 69.5401 49.26C69.6266 49.1603 69.7319 49.0787 69.8501 49.02C72.4132 47.7906 75.2564 47.2627 78.0901 47.49C80.9139 47.7197 83.7484 47.7898 86.5801 47.7C87.5301 47.62 88.6701 47.53 89.2801 48.27" fill="#C68651"/>
<path d="M95.31 43.5701L81.93 43.7901C81.63 43.7901 76.74 46.0601 76.74 46.0601L74.29 43.6001L64.29 43.3301L65.63 49.8101L68.12 56.4201L74.54 63.2701H86.66L98.56 53.0001L95.31 43.5701ZM82.26 56.0001C82.01 55.9101 76.47 56.0001 76.47 56.0001L74.9 53.5401H84.66C84.66 53.5401 82.51 56.0801 82.26 56.0001ZM72.78 51.0001L74.45 49.8101C74.45 49.8101 83.53 49.7501 83.85 49.8101C84.17 49.8701 88.42 51.0801 88.42 51.0801L72.78 51.0001Z" fill="#E4B17B"/>
<path d="M71.41 0.569824L78.07 2.41982L85.98 0.569824L101.38 4.58981L87.77 7.94981L75.34 7.26982L71.41 0.569824Z" fill="#3E383E"/>
<path d="M188.86 216.51V217H173.75L185.91 162.39C185.91 162.39 191.18 185.58 191.63 186.25V186.39C192.14 189 188.86 216.51 188.86 216.51Z" fill="#7C4B20"/>
<path d="M183.5 216.95L178.31 244.5L173.16 230.73L167.19 228.74L167.34 228.28L173.75 216.95H183.5Z" fill="#E4B37C"/>
<path d="M178.31 244.5L168.01 247.95L165.69 244.5L170.99 242.75V238.22L165.69 244.5L163.3 240.94L167.19 228.74L173.16 230.73L178.31 244.5Z" fill="#D1925E"/>
<path d="M190.92 243.39L186.2 247.95H168.01L178.31 244.5L190.92 243.39Z" fill="#9E6F5A"/>
<path d="M188.85 216.95L190.92 243.39L178.31 244.5L183.5 216.95H188.85Z" fill="#D1925E"/>
<path d="M167.45 99.76V99.83L151.4 120.37L136 113.2V97.65L154.44 80L154.77 80.05L167.45 99.76Z" fill="#EE4023"/>
<path d="M154.44 79.9899L135.95 97.6499L114.08 86.0199L129.16 75.9399L129.39 76.0399L154.44 79.9899Z" fill="#F8B517"/>
<path d="M104.5 66.59C99.4999 68.72 82.6199 76.7299 82.3099 76.5199C81.9999 76.3099 74.63 70.94 70.95 68.17L81.42 72L105.14 61.71L105.2 65.56L104.5 66.59Z" fill="#D0A17F"/>
<path d="M104.54 55.5298L105.14 61.6498L81.42 71.9998L71 68.1698L72.15 62.6998L74.02 64.9398H86.62L104.54 55.5298Z" fill="#BB865E"/>
<path d="M103 45.8401L103.57 45.2401L103 45.8401L104.52 55.5301L86.52 64.93L98.4 53.0001C99.3193 48.897 100.594 44.8819 102.21 41.0001C102.37 40.6001 103 45.6601 103 45.8401Z" fill="#966C54"/>
<path d="M98.4 53L86.55 64.93H74L72.13 62.69L67.79 56.69L65.48 50L63.42 43.29L64.76 43.36L66.1 49.84L68.59 56.45L74.38 63.3H86.5L98.4 53Z" fill="#C7915D"/>
<path d="M109.27 29V39.14L103.01 45.84C103.01 45.66 102.37 40.6 102.21 40.96C104.77 34.96 107.34 28.96 107.44 28.96L109.27 29Z" fill="#D0A17F"/>
<path d="M107.69 13.8699L107.55 28.8699L97.26 24.5199L97.88 14.3599L93.41 15.0799L80.41 18.5999L67.41 13.9299L65.33 25.3499L66.56 9.34991C66.56 9.34991 77.82 11.7999 78.08 11.7999C78.34 11.7999 95.68 10.1899 96.08 10.0699C96.48 9.94992 101.57 7.9399 101.86 7.6499L107.69 13.8699Z" fill="#22201F"/>
<path d="M93.41 15.11L90.77 24.11C90.77 24.11 78.28 29.38 78.09 29.51C77.9 29.64 69.62 25.1 69.24 24.98C68.86 24.86 67.38 13.98 67.38 13.98L79.88 18.47L93.41 15.11Z" fill="#E4B17B"/>
<path d="M107.68 28.9998L101.56 31.0598L96.48 32.5798L93.63 29.1498L91.25 26.2798L97.26 24.5498L107.5 28.8998L107.68 28.9998Z" fill="#EE4023"/>
<path d="M101.88 30.8699C101.88 30.8699 97.05 39.9299 95.6 42.7399L95.34 43.2199L95.17 43.5199L81.8 43.7399C81.5 43.7399 76.61 46.0099 76.61 46.0099L74.16 43.5499L65.16 43.2799L63.42 43.2099L67.66 38.7399L74.74 40.4899L76.15 33.5499L66.67 29.2799L65 25.7499L65.28 25.3799L77.74 31.7199L91.37 26.2399L93.64 28.9799L79.86 33.9799L81.06 40.5599C81.34 40.5599 93.82 40.0599 94.06 39.9899C94.3 39.9199 96.51 32.4299 96.51 32.4299L101.88 30.8699Z" fill="#EE4023"/>
<path d="M76.15 33.5998L74.74 40.5398L74.19 33.9198L66.67 29.3198L76.15 33.5998Z" fill="#EE4023"/>
<path d="M67.66 38.79L63.42 43.26L62.53 34.16V29L65.02 25.75L66.67 29.32L64.87 32.88L66.53 38.51L67.66 38.79Z" fill="#EE4023"/>
<path d="M93.66 28.98L83.17 33.73L81.08 40.54L79.88 33.96L93.66 28.98Z" fill="#EE4023"/>
<path d="M107.68 29C107.44 29.36 104.94 35.14 102.47 40.94L102.36 41.2C100.14 46.36 99.09 51.57 98.53 52.74C98.53 52.74 98.48 52.89 98.46 52.93C98.4386 52.9675 98.4075 52.9986 98.37 53.02L95.1 43.55V43.5C95.1 43.5 95.2 43.34 95.27 43.2L95.53 42.72C97.05 39.92 101.81 30.86 101.81 30.86L107.29 29.08L107.59 28.98L107.68 29Z" fill="#EE4023"/>
<path d="M98.56 184.14L95.29 188.94L76.75 191.13V132.76L100 143.64L96.31 157.31L98.56 184.14ZM83.56 131.39C83.56 131.39 108.93 136.04 109.62 135.86C110.31 135.68 130.71 119.64 131.35 119.14L111.69 143.64L83.56 131.39ZM138.86 134.23L128.37 105.88L122 120.37C122 120.37 107 129.03 106.65 129.37C106.3 129.71 78.07 125.37 78.07 125.37L79.47 99.4899L88.61 84.3999L80.32 89.3999C80.32 89.3999 72.72 85.5399 72.12 84.8799L77.91 100.34L73.8 125.61L50 133.28L33 122.17L49.33 137.42L66.28 131.34L52 144.64L54.37 179.75C54.37 179.75 64.3 200.82 64.78 201.12C65.26 201.42 90.32 201.12 90.32 201.12L108.14 175.38L126.14 168.07C126.14 167.95 126.14 167.88 126.14 167.88L126.67 166.47L138.86 134.23Z" fill="#EE4023"/>
<path d="M131.34 119.14L111.68 143.64L83.55 131.39C83.55 131.39 108.92 136.04 109.61 135.86C110.3 135.68 130.7 119.64 131.34 119.14Z" fill="#7C4B20"/>
<path d="M77.94 100.34L73.83 125.61L50.01 133.28L33 122.17L36 105.04L49.97 86.02L77.94 100.34Z" fill="#F8B517"/>
<path d="M50 86.0001L30.76 101.57L16.61 95.2001L30.76 80.0901L47.44 79.8601L47.99 79.6201C49.23 81.6201 50 86.0001 50 86.0001Z" fill="#F8B517"/>
<path d="M19.25 121.4L19.3 121.25L16.58 95.2202L30.73 101.59L33 122.17L19.25 121.4Z" fill="#EE4023"/>
<path d="M53 205.16L65.69 230.71L64.52 228.88L64.04 228.13L63.77 227.72L63.19 226.81L62.55 225.81L62.21 225.28L61.13 223.6L60 221.8L59.18 220.52L58.35 219.23L57.92 218.57L57.1 217.28L55.72 215.14L54.92 213.88L54.07 212.55C50.3 206.66 40.44 201.84 40.38 201.55L49.41 179C49.41 179 47.14 144.78 47.35 141.25C47.06 142.01 46.03 144.17 44.72 146.84C44.63 147.42 43.22 155.53 43.08 155.84C42.94 156.15 37.65 162.43 37.65 162.43L14.65 152.1L37.89 143.61L33 122.17L49.33 137.42L66.28 131.34L52 144.64L54.37 179.75L53 205.16Z" fill="#7C4B20"/>
<path d="M14.67 152.13L18.98 182.24L8.26004 217.35L0.660034 213.85L6.51004 163.2L14.67 152.13Z" fill="#F8B517"/>
<path d="M37.59 162.56L36.87 176.26L15.1 217.62L8.26001 217.35L18.98 182.24L37.59 162.56Z" fill="#7C4B20"/>
<path d="M13.15 233.11L3.60001 246.42L0.25 232.28L0.660004 213.85L8.26001 217.35L13.15 233.11Z" fill="#D2935C"/>
<path d="M21.94 229.75L13.15 233.11L8.26001 217.35L15.1 217.62L21.81 229.39L21.94 229.75Z" fill="#E5B47E"/>
<path d="M25.4 239.83L21.81 242.5L13.15 233.11L21.94 229.75L25.4 239.83Z" fill="#CF975D"/>
<path d="M21.81 242.5L19.64 246.55L18.89 247.95L3.61996 246.5L3.59998 246.42L13.15 233.11L21.81 242.5Z" fill="#9D6D5F"/>
<path d="M128.65 192.19L100 215.67L90 230.73C89.49 230.05 112.19 197.73 111.67 197.25C111.15 196.77 108.07 175.38 108.07 175.38L126.07 168.07C126.31 170.23 128.53 190.81 128.53 191.66C128.559 191.839 128.6 192.016 128.65 192.19V192.19Z" fill="#7C4B20"/>
<path d="M65.6899 230.73L58.2899 287.51L29.45 266.94L40.3399 201.58C40.4799 202.18 65.1099 229.83 65.6799 230.71L65.6899 230.73Z" fill="#F8B517"/>
<path d="M145.64 249.9L139.94 310.27C139.94 310.27 130.53 321.56 126.99 326.54C129.56 320.85 134.91 306.61 134.91 306.34C134.91 306.07 121.74 289 120.3 285.47C120.39 285.05 120.39 284.82 120.3 284.84C120.21 284.86 120.17 285.09 120.3 285.47C119.3 289.69 102.12 316.3 101.2 318.27L101.13 318.41C93.68 293.41 89.41 257.84 89.41 257.84L86 294.94C86 294.94 80 320.82 79.94 321.38C79.94 321.38 77.02 323.21 73.58 325.38C68.87 328.31 63.19 331.86 62.74 332.16C61.94 332.68 73.24 310.86 73.24 310.86L58.24 287.55L65.64 230.77C65.64 230.77 89.97 231.44 89.97 230.77L120.24 283.56L145.64 249.9Z" fill="#7C4B20"/>
<path d="M58.2899 287.51L42.5499 321.61L29.45 266.94L58.2899 287.51Z" fill="#7C4B20"/>
<path d="M79.53 344.27L64.61 358.87L39.87 334.93L42.06 323.3L42.32 322.38L42.55 321.61L58.29 287.51L73.29 310.82C73.29 310.82 61.99 332.64 62.78 332.12C63.57 331.6 80 321.38 80 321.38C80.2 320.72 79.53 344.27 79.53 344.27Z" fill="#EE4023"/>
<path d="M86.04 381.82L64.61 358.87L79.53 344.27L86.04 381.82Z" fill="#F4831F"/>
<path d="M67.17 452.66C67.17 452.66 67.4 451.12 67.78 448.53L66.51 453.14L64.61 358.87L82.85 402.32L67.17 452.66Z" fill="#F4831F"/>
<path d="M48.81 426C48.81 426 48.99 365.2 48.76 364.54C48.53 363.88 39.87 335.65 39.87 334.98L64.61 358.92L66.51 453.19L48.81 426Z" fill="#7C4B20"/>
<path d="M67.4 476.69L29.45 478.47C29.45 478.47 20.24 481.58 19.34 481.35C18.44 481.12 3.62 478.92 3.62 478.92L4.51001 473.36L24.15 474.2L42.26 474.97L59.56 471.2C59.56 471.2 66.94 469.32 67.16 469.38C67.3 473.46 67.4 476.69 67.4 476.69Z" fill="#7C4B20"/>
<path d="M67.1601 469.38C66.9401 469.32 59.5601 471.2 59.5601 471.2L50.8901 449.56L48.8101 425.73L66.5101 452.92C66.6201 452.92 67.0001 462.4 67.1601 469.38Z" fill="#EE4023"/>
<path d="M59.56 471.2L42.26 475.2L24.15 474.42L13.52 469.38L40.6 458.79L59.56 471.2Z" fill="#F4831F"/>
<path d="M24.15 474.42L4.51001 473.36L13.51 469.38H13.52L24.15 474.42Z" fill="#EE4023"/>
<path d="M145.64 249.9L120.29 283.54C119.64 282.91 137.37 211.06 137.37 211.06C142.21 227 145.64 249.9 145.64 249.9Z" fill="#EE4023"/>
<path d="M139.94 310.27C139.94 310.27 130.53 321.56 126.94 326.54C129.52 320.85 134.87 306.61 134.87 306.34C134.87 306.07 121.74 289 120.3 285.47C119.3 289.87 101.13 318.41 101.13 318.41L122.56 333.84L125.68 356.09L143.08 339.15L139.94 310.27Z" fill="#EE4023"/>
<path d="M138.62 429.4L116 388.49C116 388.49 116 388.07 115.9 387.32C115.96 386.04 125.73 363.93 125.73 363.93L111.61 345.39C111.61 345.13 106.75 333.34 101.31 318.62L122.69 334L125.69 356.07L160.26 425L162 457.14L138.62 429.4Z" fill="#7C4B20"/>
<path d="M125.68 363.9C125.68 363.9 115.91 386.01 115.85 387.29C115.24 380.2 111.56 345.96 111.56 345.36L125.68 363.9Z" fill="#F4831F"/>
<path d="M160.26 424.99L125.68 356.09L143.08 339.15L157.68 375.81L160.26 424.99Z" fill="#F4831F"/>
<path d="M167.37 469.72L143.71 462.15L139.04 430.26L138.62 429.4L161.95 457.14L167.37 469.72Z" fill="#EE4023"/>
<path d="M172 480.57L147.13 480.12C147.13 480.12 143.72 470.25 143.72 469.83V462.47L143.67 462.15L167.33 469.72L172 480.57Z" fill="#F8B517"/>
<path d="M173.62 484.25L159.7 488.69H147.35L141.51 481.59L143.76 470.25V469.83C143.76 470.25 147.17 480.12 147.17 480.12L172.04 480.57L173.62 484.25Z" fill="#7C4B20"/>
<path d="M185.91 162.34L166.47 152.62L151.4 120.37L167.45 99.8301C167.45 100.92 167.24 115.33 167.45 115.96C167.66 116.59 171.83 131.41 171.83 131.41C171.83 131.41 177.33 149.86 177.33 149.19C177.33 148.52 185.91 162.34 185.91 162.34Z" fill="#7C4B20"/>
<path d="M166.47 152.62C166.47 152.62 158.33 160.12 154.41 163.98C153.27 162.84 144.34 155.14 142.63 153.89C145.24 154.61 165.35 152.62 166.47 152.62Z" fill="#7C4B20"/>
<path d="M173.75 217L156.85 184.84L154.57 164.21L154.41 164.03C158.33 160.17 166.47 152.67 166.47 152.67L173.75 217Z" fill="#F4831F"/>
<path d="M185.91 162.34L173.75 216.95L166.47 152.62L185.91 162.34Z" fill="#EE4023"/>
<path d="M112.44 70.1101L88.64 84.4202L80.35 89.4202C80.35 89.4202 72.75 85.5601 72.14 84.9001V84.8102C72.4 84.6302 68.77 77.3801 66.52 72.9301C66.73 72.7401 70.85 68.3301 70.94 68.2301C74.62 71.0001 82.04 76.3901 82.3 76.5801C82.56 76.7701 100.13 66.5802 105.17 64.4102L112.44 70.1101Z" fill="#7C4B20"/>
<path d="M77.94 100.34L49.97 86.02L72.11 84.79L72.14 84.88L77.94 100.34Z" fill="#F8B517"/>
<path d="M36 105.04L33 122.17L30.73 101.59L49.97 86.02L36 105.04Z" fill="#7C4B20"/>
<path d="M37.91 143.64L14.67 152.13L14.46 133.5L19.25 121.4L33 122.17L37.91 143.64Z" fill="#F8B517"/>
<path d="M37.64 162.46C37.626 162.495 37.6093 162.528 37.5899 162.56L18.9999 182.24L14.6899 152.13L37.64 162.46Z" fill="#EE4023"/>
<path d="M19.64 246.55L6.90002 244.08L11.38 240.36L21.81 242.5" fill="#CF975D"/>
<path d="M114.08 86.0199L79.5 99.5099L88.64 84.4199L114.08 86.0199Z" fill="#F8B517"/>
<path d="M128.35 105.88L124.52 121.15C124.52 121.15 108.73 131.04 108.37 131.41C108.01 131.78 78.1 125.41 78.1 125.41L79.5 99.53L114.08 86L128.35 105.88Z" fill="#F8B517"/>
<path d="M166.47 152.62C165.35 152.62 145.24 154.62 142.63 153.89C142.45 153.76 142.34 153.68 142.28 153.68C141.75 152.55 145.05 126.37 145.05 126.37L151.41 120.37L166.47 152.62Z" fill="#F8B517"/>
<path d="M170.99 238.22V242.75L165.69 244.5L170.99 238.22Z" fill="#966445"/>
<path d="M120.29 283.54L90 230.75L100 215.69L128.61 192.21C129.18 194.33 133.77 201.85 137.33 211.08C137.37 211.06 119.64 282.91 120.29 283.54Z" fill="#F8B517"/>
<path d="M90 230.73C90 231.38 65.67 230.73 65.67 230.73L53 205.16L54.32 179.75C54.32 179.75 64.26 200.82 64.73 201.12C65.2 201.42 90.28 201.12 90.28 201.12L108.09 175.38C108.09 175.38 111.18 196.74 111.69 197.25C112.2 197.76 89.5 230.05 90 230.73Z" fill="#EE4023"/>
<path d="M97.8801 14.39L97.2601 24.55L91.3901 26.24L77.7601 31.72L65.3 25.38L67.3801 14C67.3801 14 68.8701 24.89 69.2401 25C69.6101 25.11 77.9001 29.65 78.0901 29.53C78.2801 29.41 90.7701 24.13 90.7701 24.13L93.4101 15.13L97.8801 14.39Z" fill="#D0965D"/>
<path d="M88.42 51.0999L85.86 51.6699L74.07 51.3899C74.07 51.3899 72.83 51.0199 72.78 51.0199L74.45 49.8299C74.45 49.8299 83.53 49.7699 83.85 49.8299C84.17 49.8899 88.42 51.0999 88.42 51.0999Z" fill="#8F5729"/>
<path d="M84.66 53.54C84.66 53.54 82.51 56.08 82.26 56C82.01 55.92 76.47 56 76.47 56L74.9 53.54H84.66Z" fill="#8F5729"/>
<path d="M96.5001 32.41C96.5001 32.41 94.26 39.9 94.05 39.97C93.84 40.04 81.36 40.54 81.05 40.54L83.1401 33.73L93.6601 29L96.5001 32.41Z" fill="#FFFDFD" stroke="#231F20" stroke-linejoin="round"/>
<path d="M74.74 40.5398L67.66 38.7898L66.53 38.5098L64.87 32.8798L66.67 29.3198L74.19 33.9198L74.74 40.5398Z" fill="#FFFDFD" stroke="#231F20" stroke-linejoin="round"/>
<path d="M81.4299 43.8698L94.6299 45.1498L98.3999 52.9998L95.14 43.5698L81.7399 43.7898" fill="#6A3F26"/>
<path d="M107.7 13.8698L94.7 12.8698L78.1 15.3098L67.67 12.5999L66.54 9.33984L68 6.79985L89.31 9.23985L101.41 4.58984L107.7 13.8698Z" fill="#22201F"/>
<path d="M75.49 27.6398C76.2604 28.0958 77.0549 28.5098 77.87 28.8799C77.6636 27.2394 77.3732 25.6106 77 23.9998C76.6048 23.6475 76.2433 23.2592 75.92 22.8398L75.49 27.6398Z" fill="#D0965D"/>
<path d="M78.38 28.8598L79.88 26.2598V28.0698L78.38 28.8598Z" fill="#D0965D"/>
<path d="M72.11 84.7899L50 85.9999C49.203 83.4524 48.1997 80.9742 47 78.5899L64.25 69.1099L70.92 68.1099C70.83 68.2099 66.71 72.6199 66.5 72.8099C68.74 77.3599 72.37 84.6099 72.11 84.7899Z" fill="#EE4023"/>
<path d="M51.04 76.3901L30.73 80.1001L51.57 80.4501L51.04 76.3901Z" fill="#EE4023"/>
<path d="M171.83 131.41L166.47 130.77L167.47 115.96C167.68 116.63 171.83 131.41 171.83 131.41Z" fill="#F8B517"/>
<path d="M65.65 230.66L40.4 201.64L40.34 201.58L49.41 179C49.41 179 44.14 145.81 44.35 142.28L33 122.17L49.33 137.42L66.28 131.34L52 144.64L54.37 179.75L53 205.16L65.63 230.6L65.65 230.66Z" fill="#7C4B20"/>
<path d="M96.35 157.31L98.57 184.14L95.29 188.94L95.01 188.97L88.87 197.68L76.75 198.6V132.76L100.04 143.64L96.35 157.31Z" fill="#F8B517"/>
<path d="M101.38 4.59007L102.38 9.39008L79 14.0001L66.51 9.43007L68 6.80008C69.41 4.27008 71.38 0.740078 71.44 0.580078C71.44 0.920078 78.77 5.41008 78.77 5.41008L82.72 2.93007L86.01 4.59007H101.38Z" fill="#22201F"/>
<path d="M97.88 14.3898C97.88 14.3898 102.15 12.1198 102.11 12.2698C102.07 12.4198 99.46 25.4798 99.46 25.4798L97.26 24.5498L97.88 14.3898Z" fill="#3E383E"/>
<path d="M108.25 31.27V38.79L105.17 42.29L108.25 31.27Z" fill="#AB8569"/>
<path d="M105.17 42.29L103.26 42.13L108.25 31.27L107.68 36.78L105.17 42.29Z" fill="#AB8569"/>
<path d="M79.88 17.82C79.88 17.63 69.53 10.1599 69.53 10.1599C69.53 10.1599 71.22 1.34995 71.41 1.59995C71.6 1.84995 77.87 9.19994 77.87 9.19994L79.88 17.82Z" fill="#3E383E"/>
<path d="M63.42 43.2598L73.94 44.4898C73.94 44.4898 76.74 46.2198 76.58 46.0598L74.13 43.5998L63.42 43.2598Z" fill="#6A3F26"/>
<path d="M129.16 75.9401L114.08 86.0201L88.64 84.4201L110.81 71.0801L105.18 64.3501L113.37 67.3901L129.16 75.9401Z" fill="#EE4023"/>
<path d="M129.38 135.1C129.21 135.52 116.58 145.45 116.58 145.45L115.69 151.78L129.38 135.1Z" fill="#7C4B20"/>
<path d="M128.65 142.28C128.52 142.72 117.65 155.35 117.65 155.35L117.32 160.76L128.65 142.28Z" fill="#7C4B20"/>
<path d="M126.91 165.64L126.08 168.07L126.59 166.47L126.91 165.64Z" fill="#A02889"/>
<path d="M75.19 137C75.61 138.1 74.34 152.92 74.34 152.92L60.34 153.85L63.29 139.85L75.19 137Z" fill="#F8B517"/>
<path d="M73.71 164.86L73.29 190.54L59.54 186.71L61.91 167.21L73.71 164.86Z" fill="#F8B517"/>
<path d="M101.2 318.27L101.13 318.41C93.68 293.41 90.26 263.33 90.26 263.33L86 294.94C86 294.94 80 320.82 79.94 321.38C79.94 321.38 77.02 323.21 73.58 325.38L79.98 304.77L88.35 254.6L80.63 252.36L77.14 245.71L82.92 249.8L90.24 249.5C90.24 249.5 94.5 256.5 94.97 257.37C95.44 258.24 100.29 313.69 101.2 318.27Z" fill="#F4831F"/>
<path d="M40.6 458.79L50.89 449.56C50.89 449.56 60.12 472 59.57 471.42C59.02 470.84 40.6 458.79 40.6 458.79Z" fill="#DC5526"/>
<path d="M188.86 216.51V217H173.75L191.63 186.25V186.39C192.14 189 188.86 216.51 188.86 216.51Z" fill="#F8B517"/>
<path d="M74.38 63.2701C74.51 63.1301 76.33 60.1101 76.33 60.1101L82.6 59.8301L86.5 63.2701L79.08 64.2701L74.38 63.2701Z" fill="#C7915D"/>
<path d="M140.18 132.76L135.95 148.17L126.08 168.07L126.91 165.64L126.59 166.47L133.65 142.84L134.51 128.13L128.36 105.88L138.82 125.85L140.18 132.76Z" fill="#F4831F"/>
<path d="M86.05 381.82L82.85 402.32L64.61 358.87L86.05 381.82Z" fill="#F4831F"/>
<path d="M145 126.37C145 126.37 141.7 152.55 142.23 153.68C141.55 153.68 138.28 124.9 138.28 124.9L125.22 109.15L114.08 86L136 97.65V113.2L151.45 120.37L145 126.37Z" fill="#7C4B20"/>
<path d="M73.7099 154.86V163.24L61.6899 163.98L66.6299 155.9L73.7099 154.86Z" fill="#F8B517"/>
<path d="M103.88 147.21C103.88 147.21 100.12 156 100.57 156.45C101.02 156.9 105.84 170.75 105.84 170.75L107.45 156.45L103.88 147.21Z" fill="#7C4B20"/>
<path d="M96.3499 157.31L76.7499 153.89L75.4399 158.31L96.4899 159.01L98.3699 157.96L96.3499 157.31Z" fill="#EE4023"/>
<path d="M99.46 171.5C99.78 171.4 99.88 175.38 99.88 175.38L75.27 168.07V163.44C75.27 163.44 99.14 171.61 99.46 171.5Z" fill="#EE4023"/>
</svg>
