<svg width="193" height="489" viewBox="0 0 193 489" fill="none" xmlns="http://www.w3.org/2000/svg">
<path d="M88.8399 47.6001C89.7441 48.2863 90.4004 49.248 90.7099 50.3401C90.8177 51.0997 90.67 51.8736 90.2899 52.5401C89.9051 53.2025 89.4343 53.8111 88.8899 54.3501C86.1099 57.2501 82.5199 59.6001 78.4999 60.0401C77.7656 60.1529 77.0158 60.1086 76.2999 59.9101C75.5139 59.6274 74.8216 59.1324 74.2999 58.4801C73.8683 57.9569 73.5085 57.3785 73.2299 56.7601C73.0864 56.385 72.916 56.0207 72.7199 55.6701C72.0499 54.6701 70.7199 54.1001 70.1099 53.0401C69.6021 51.9348 69.4891 50.6887 69.7899 49.5101C69.795 49.3547 69.8397 49.2033 69.9199 49.0701C70.0064 48.9704 70.1118 48.8889 70.2299 48.8301C72.797 47.6017 75.6431 47.0739 78.4799 47.3001C81.3006 47.5248 84.1315 47.5949 86.9599 47.5101C87.9599 47.4301 89.0499 47.3401 89.6699 48.0701" fill="#A6662F"/>
<path d="M95.6799 43.3699L81.9999 43.5999C81.6999 43.5999 76.9499 45.8699 76.9499 45.8699L74.6599 43.4099L64.6599 43.1399L65.9999 49.6099L68.4799 56.2299L74.7399 63.0799H86.9999L98.8999 52.7999L95.6799 43.3699ZM82.6799 55.7999C82.4299 55.7199 76.8899 55.7999 76.8899 55.7999L75.3199 53.3499H84.9999C84.9999 53.3499 82.8799 55.8799 82.6399 55.7999H82.6799ZM73.1999 50.7999L74.8699 49.6099C74.8699 49.6099 83.9399 49.5499 84.2599 49.6099L88.8299 50.8899L73.1999 50.7999Z" fill="#A6662F"/>
<path d="M71.79 0.379883L78.45 2.22987L86.36 0.379883L101.75 4.39987L88.14 7.75987L75.71 7.07988L71.79 0.379883Z" fill="#3E383E"/>
<path d="M189.23 216.31V216.76H174.13L186.29 162.15C186.29 162.15 191.55 185.34 192 186V186.15C192.51 188.77 189.23 216.31 189.23 216.31Z" fill="#3C6A4C"/>
<path d="M183.88 216.76L178.69 244.31L173.54 230.54L167.57 228.55L167.71 228.09L174.13 216.76H183.88Z" fill="#A4682F"/>
<path d="M178.69 244.31L168.38 247.75L166.06 244.31L171.36 242.56V238.03L166.06 244.31L163.67 240.75L167.57 228.55L173.54 230.54L178.69 244.31Z" fill="#85491F"/>
<path d="M191.29 243.2L186.58 247.75H168.38L178.69 244.31L191.29 243.2Z" fill="#4B1D11"/>
<path d="M189.23 216.76L191.29 243.2L178.69 244.31L183.88 216.76H189.23Z" fill="#85491F"/>
<path d="M167.83 99.5701V99.6401L151.77 120.17L136.33 113V97.4601L154.81 79.8L155.14 79.8501L167.83 99.5701Z" fill="#26342D"/>
<path d="M154.81 79.8L136.32 97.46L114.46 85.83L129.54 75.75L129.76 75.85L154.81 79.8Z" fill="#5ECC6B"/>
<path d="M104.88 66.4C99.8801 68.53 83.0001 76.54 82.6901 76.33C82.3801 76.12 75.0001 70.75 71.3201 68L81.7901 71.78L105.52 61.49L105.58 65.34L104.88 66.4Z" fill="#70411E"/>
<path d="M104.91 55.3301L105.52 61.4601L81.7901 71.7501L71.3201 68.0001L72.4801 62.5401L74.3401 64.7701H86.9501L104.91 55.3301Z" fill="#622F13"/>
<path d="M103.39 45.65L103.96 45.05L103.39 45.65L104.91 55.33L86.9099 64.73L98.7599 52.8C99.6803 48.6961 100.959 44.6807 102.58 40.8C102.74 40.41 103.39 45.47 103.39 45.65Z" fill="#471E12"/>
<path d="M98.77 52.8001L86.92 64.7301H74.32L72.46 62.5001L68.11 56.5001L65.86 49.7901L63.79 43.0801L65.14 43.1501L66.48 49.6201L68.96 56.2401L74.75 63.0901H86.87L98.77 52.8001Z" fill="#78421B"/>
<path d="M109.65 28.8101V39.0001L103.39 45.7001C103.39 45.5201 102.74 40.4601 102.59 40.8201C105.14 34.8201 107.72 28.8201 107.81 28.8201L109.65 28.8101Z" fill="#70411E"/>
<path d="M108.07 13.6799L107.93 28.6799L97.64 24.33L98.26 14.17L93.79 14.89L80.79 18.41L67.79 13.74L65.71 25.16L66.93 9.15996C66.93 9.15996 78.2 11.61 78.45 11.61C78.7 11.61 96.05 9.99995 96.45 9.86995C96.85 9.73995 101.95 7.73996 102.24 7.45996L108.07 13.6799Z" fill="#22201F"/>
<path d="M93.79 14.92L91.15 23.92C91.15 23.92 78.65 29.2 78.47 29.33C78.29 29.46 69.99 24.92 69.61 24.8C69.23 24.68 67.76 13.8 67.76 13.8L80.26 18.29L93.79 14.92Z" fill="#A6662F"/>
<path d="M108.05 28.8101L101.94 30.8701L96.8499 32.3901L94.0099 28.9601L91.6299 26.0901L97.6399 24.3601L107.88 28.7101L108.05 28.8101Z" fill="#5ECC6B"/>
<path d="M102.26 30.6799C102.26 30.6799 97.43 39.7399 95.97 42.5499C95.87 42.7399 95.79 42.8999 95.71 43.0299L95.55 43.3199V43.3699L82.17 43.5999C81.87 43.5999 76.99 45.8699 76.99 45.8699L74.54 43.4099L65.54 43.1399L63.79 43.0699L68.04 38.5899L75.12 40.3499L76.53 33.3999L67.05 29.1299L65.4 25.5499L65.68 25.1899L78.13 31.5299L91.77 25.9999L94.03 28.7499L80.26 33.7499L81.45 40.3299C81.74 40.3299 94.22 39.8299 94.45 39.7599C94.68 39.6899 96.9 32.1999 96.9 32.1999L102.26 30.6799Z" fill="#26342D"/>
<path d="M76.5301 33.3999L75.1201 40.3499L74.5701 33.7299L67.05 29.1299L76.5301 33.3999Z" fill="#5ECC6B"/>
<path d="M68.0399 38.59L63.7899 43.0701L62.8999 33.97V28.81L65.3999 25.55L67.0499 29.1301L65.2399 32.69L66.8999 38.3201L68.0399 38.59Z" fill="#5ECC6B"/>
<path d="M94.04 28.79L83.55 33.54L81.45 40.3501L80.26 33.7701L94.04 28.79Z" fill="#5ECC6B"/>
<path d="M108.05 28.81C107.8 29.16 105.31 34.94 102.84 40.75C102.84 40.84 102.77 40.92 102.72 41.01C100.51 46.17 99.46 51.37 98.89 52.55C98.89 52.55 98.84 52.7001 98.82 52.7401C98.8014 52.7764 98.7738 52.8073 98.74 52.83L95.47 43.36V43.3L95.64 43.01L95.89 42.53C97.42 39.73 102.18 30.66 102.18 30.66L107.66 28.89L107.96 28.79L108.05 28.81Z" fill="#3C6A4C"/>
<path d="M98.9399 183.94L95.6599 188.75L77.1199 190.94V132.57L100.41 143.45L96.7199 157.12L98.9399 183.94ZM83.9399 131.2C83.9399 131.2 109.31 135.84 110 135.67C110.69 135.5 131.09 119.45 131.73 118.95L112.07 143.45L83.9399 131.2ZM139.24 134.04L128.74 105.69L122.42 120.17C122.42 120.17 107.42 128.84 107.06 129.17C106.7 129.5 78.4899 125.17 78.4899 125.17L79.8899 99.3L88.9999 84.23L80.7099 89.23C80.7099 89.23 73.1099 85.37 72.4999 84.71L78.2999 100.16L74.1899 125.44L50.3799 133.1L33.3799 122L49.7099 137.25L66.7099 131.16L52.3799 144.47L54.7499 179.58C54.7499 179.58 64.6799 200.64 65.1499 200.95C65.6199 201.26 90.6999 200.95 90.6999 200.95L108.52 175.21L126.52 167.9C126.52 167.77 126.52 167.71 126.52 167.71L127.06 166.3L139.24 134.04Z" fill="#26342D"/>
<path d="M131.72 119L112.06 143.5L83.9299 131.2C83.9299 131.2 109.3 135.84 109.99 135.67C110.68 135.5 131.08 119.45 131.72 119Z" fill="#3C6A4C"/>
<path d="M78.3199 100.14L74.2099 125.42L50.3899 133.08L33.3799 121.98L36.3799 104.85L50.3499 85.8301L78.3199 100.14Z" fill="#5ECC6B"/>
<path d="M50.35 85.8299L31.1 101.4L17 94.9999L31.14 79.8999L47.83 79.6699L48.37 79.4199C49.61 81.4199 50.35 85.8299 50.35 85.8299Z" fill="#5ECC6B"/>
<path d="M19.63 121.2L19.68 121.06L16.96 95.02L31.1 101.39L33.38 121.98L19.63 121.2Z" fill="#26342D"/>
<path d="M53.37 205L66.06 230.55L64.89 228.72L64.4 227.97L64.13 227.56L63.56 226.65L62.92 225.65L62.58 225.12L61.5 223.44L60.33 221.62L59.52 220.35L58.68 219.06L58.26 218.39L57.44 217.11L56.06 215L55.25 213.73L54.41 212.41C50.64 206.52 40.77 201.69 40.71 201.41L49.79 178.85C49.79 178.85 47.51 144.63 47.73 141.09C47.44 141.86 46.41 144.02 45.1 146.69C45.01 147.26 43.6 155.38 43.45 155.69C43.3 156 38.03 162.29 38.03 162.29L15.03 151.96L38.27 143.47L33.38 122L49.71 137.25L66.71 131.16L52.38 144.47L54.75 179.58L53.37 205Z" fill="#3C6A4C"/>
<path d="M15.05 151.94L19.36 182.05L8.64005 217.16L1.04004 213.65L6.88004 163.01L15.05 151.94Z" fill="#5ECC6B"/>
<path d="M37.9601 162.37L37.2501 176.06L15.4801 217.43L8.64014 217.16L19.3601 182.05L37.9601 162.37Z" fill="#3C6A4C"/>
<path d="M13.5201 232.92L3.97012 246.23L0.620117 232.08L1.04013 213.65L8.64014 217.16L13.5201 232.92Z" fill="#874A20"/>
<path d="M22.3101 229.56L13.5201 232.92L8.64014 217.16L15.4801 217.43L22.1901 229.2L22.3101 229.56Z" fill="#A76931"/>
<path d="M25.78 239.64L22.19 242.31L13.52 232.92L22.31 229.56L25.78 239.64Z" fill="#804A1F"/>
<path d="M22.19 242.31L20.02 246.36L19.26 247.75L3.98996 246.31L3.96997 246.23L13.52 232.92L22.19 242.31Z" fill="#471914"/>
<path d="M129 192L100.38 215.48L90.3799 230.54C89.8599 229.85 112.56 197.54 112.05 197.06C111.54 196.58 108.45 175.19 108.45 175.19L126.45 167.88C126.69 170.04 128.9 190.62 128.9 191.47C128.92 191.649 128.954 191.826 129 192V192Z" fill="#3C6A4C"/>
<path d="M66.0701 230.54L58.6701 287.32L29.8201 266.75L40.7101 201.39C40.8601 201.99 65.4901 229.64 66.0601 230.52L66.0701 230.54Z" fill="#26342D"/>
<path d="M146 249.71L140.31 310.08C140.31 310.08 130.9 321.36 127.31 326.35C129.89 320.66 135.24 306.42 135.24 306.15C135.24 305.88 122.07 288.77 120.62 285.27C120.72 284.85 120.72 284.63 120.62 284.65C120.52 284.67 120.5 284.9 120.62 285.27C119.62 289.49 102.45 316.1 101.52 318.08L101.46 318.21C94.0101 293.21 89.7401 257.64 89.7401 257.64L86.3701 294.74C86.3701 294.74 80.3701 320.63 80.3001 321.19L73.9401 325.19C69.2301 328.12 63.5601 331.67 63.1001 331.97C62.3101 332.49 73.6001 310.67 73.6001 310.67L58.6001 287.36L66.0001 230.58C66.0001 230.58 90.3301 231.25 90.3301 230.58L120.59 283.37L146 249.71Z" fill="#3C6A4C"/>
<path d="M58.6701 287.32L42.9301 321.41L29.8201 266.75L58.6701 287.32Z" fill="#3C6A4C"/>
<path d="M79.91 344.08L65 358.68L40.26 334.74L42.44 323.11L42.71 322.19L42.94 321.41L58.68 287.32L73.68 310.63C73.68 310.63 62.39 332.45 63.18 331.93C63.97 331.41 80.38 321.19 80.38 321.19C80.58 320.53 79.91 344.08 79.91 344.08Z" fill="#B7C259"/>
<path d="M86.42 381.63L64.99 358.68L79.91 344.08L86.42 381.63Z" fill="#5ECC6B"/>
<path d="M67.55 452.47C67.55 452.47 67.77 450.93 68.15 448.33L66.89 453L65 358.68L83.24 402.13L67.55 452.47Z" fill="#26342D"/>
<path d="M49.19 425.76C49.19 425.76 49.36 364.96 49.14 364.29C48.92 363.62 40.25 335.41 40.25 334.74L65 358.68L66.88 453L49.19 425.76Z" fill="#3C6A4C"/>
<path d="M67.78 476.5L29.83 478.28C29.83 478.28 20.61 481.38 19.72 481.16C18.83 480.94 4 478.72 4 478.72L4.89999 473.17L24.54 474L42.64 474.78L59.94 471C59.94 471 67.31 469.12 67.54 469.18C67.68 473.27 67.78 476.5 67.78 476.5Z" fill="#26342D"/>
<path d="M67.5399 469.19C67.3099 469.13 59.9399 471.01 59.9399 471.01L51.2699 449.37L49.1899 425.54L66.8799 452.73C66.9999 452.73 67.3199 462.21 67.5399 469.19Z" fill="#26342D"/>
<path d="M59.9401 471.01L42.6301 475L24.5301 474.23L13.8901 469.19L40.9801 458.6L59.9401 471.01Z" fill="#3C6A4C"/>
<path d="M24.5301 474.23L4.89014 473.17L13.8801 469.19H13.8901L24.5301 474.23Z" fill="#5ECC6B"/>
<path d="M146 249.71L120.65 283.35C120 282.71 137.74 210.87 137.74 210.87C142.58 226.8 146 249.71 146 249.71Z" fill="#3C6A4C"/>
<path d="M140.31 310.08C140.31 310.08 130.91 321.36 127.36 326.35C129.94 320.66 135.28 306.42 135.28 306.15C135.28 305.88 122.12 288.77 120.67 285.27C119.67 289.68 101.51 318.21 101.51 318.21L122.94 333.65L126.05 355.89L143.46 339L140.31 310.08Z" fill="#B7C259"/>
<path d="M139 429.21L116.34 388.3C116.34 388.3 116.34 387.89 116.24 387.14C116.3 385.86 126.06 363.74 126.06 363.74L111.94 345.21C111.94 344.95 107.08 333.21 101.64 318.44L123.07 333.87L126.07 355.93L160.65 424.83L162.32 457L139 429.21Z" fill="#3C6A4C"/>
<path d="M126.05 363.7C126.05 363.7 116.29 385.82 116.23 387.1C115.62 380.01 111.93 345.77 111.93 345.17L126.05 363.7Z" fill="#5ECC6B"/>
<path d="M160.63 424.79L126.05 355.89L143.46 338.96L158.06 375.62L160.63 424.79Z" fill="#26342D"/>
<path d="M167.75 469.53L144.08 461.95L139.42 430.06L138.99 429.21L162.32 456.95L167.75 469.53Z" fill="#26342D"/>
<path d="M172.41 480.38L147.55 479.93C147.55 479.93 144.14 470.06 144.14 469.64V462.28L144.08 461.95L167.74 469.53L172.41 480.38Z" fill="#3C6A4C"/>
<path d="M174 484.06L160.08 488.5H147.72L141.89 481.39L144.14 470.06V469.64C144.14 470.06 147.55 479.93 147.55 479.93L172.41 480.38L174 484.06Z" fill="#26342D"/>
<path d="M186.29 162.15L166.85 152.43L151.77 120.17L167.83 99.6401C167.83 100.73 167.61 115.13 167.83 115.77C168.05 116.41 172.21 131.22 172.21 131.22C172.21 131.22 177.71 149.67 177.71 149C177.71 148.33 186.29 162.15 186.29 162.15Z" fill="#3C6A4C"/>
<path d="M166.85 152.43C166.85 152.43 158.7 159.93 154.79 163.79C153.64 162.65 144.72 154.95 143 153.7C145.61 154.42 165.72 152.43 166.85 152.43Z" fill="#26342D"/>
<path d="M174.13 216.76L157.22 184.6L155 164L154.84 163.83C158.75 159.97 166.9 152.47 166.9 152.47L174.13 216.76Z" fill="#5ECC6B"/>
<path d="M186.29 162.15L174.13 216.76L166.85 152.43L186.29 162.15Z" fill="#26342D"/>
<path d="M112.81 69.91L89.0001 84.23L80.7001 89.23C80.7001 89.23 73.1101 85.37 72.5001 84.71V84.61C72.7601 84.44 69.1301 77.19 66.8701 72.74C67.0901 72.54 71.2101 68.14 71.2901 68.04C74.9701 70.81 82.3901 76.2 82.6601 76.39C82.9301 76.58 100.49 66.39 105.53 64.22L112.81 69.91Z" fill="#5ECC6B"/>
<path d="M78.3201 100.14L50.3501 85.8301L72.4901 84.5901L72.5201 84.6901L78.3201 100.14Z" fill="#3C6A4C"/>
<path d="M36.3801 104.85L33.3801 121.98L31.1001 101.39L50.3501 85.8301L36.3801 104.85Z" fill="#3C6A4C"/>
<path d="M38.2901 143.45L15.0501 151.94L14.8401 133.31L19.6301 121.2L33.3801 121.98L38.2901 143.45Z" fill="#5ECC6B"/>
<path d="M38 162.27C37.9859 162.306 37.9656 162.34 37.94 162.37L19.34 182.05L15.03 151.94L38 162.27Z" fill="#26342D"/>
<path d="M20.02 246.36L7.28003 243.89L11.75 240.17L22.19 242.31" fill="#804A1F"/>
<path d="M114.46 85.83L79.8701 99.32L89.0201 84.23L114.46 85.83Z" fill="#3C6A4C"/>
<path d="M128.73 105.69L124.9 121C124.9 121 109.11 130.89 108.75 131.26C108.39 131.63 78.47 125.26 78.47 125.26L79.87 99.3899L114.46 85.8999L128.73 105.69Z" fill="#5ECC6B"/>
<path d="M166.85 152.43C165.72 152.43 145.61 154.43 143 153.7C142.83 153.56 142.72 153.49 142.65 153.49C142.13 152.36 145.42 126.18 145.42 126.18L151.78 120.18L166.85 152.43Z" fill="#5ECC6B"/>
<path d="M171.36 238.03V242.56L166.06 244.31L171.36 238.03Z" fill="#4B1D11"/>
<path d="M120.66 283.35L90.3999 230.56L100.4 215.5L129 192C129.56 194.12 134.16 201.64 137.72 210.87C137.75 210.87 120 282.71 120.66 283.35Z" fill="#26342D"/>
<path d="M90.3899 230.54C90.3899 231.19 66.0599 230.54 66.0599 230.54L53.3599 205L54.6899 179.59C54.6899 179.59 64.6299 200.65 65.0999 200.96C65.5699 201.27 90.6399 200.96 90.6399 200.96L108.46 175.22C108.46 175.22 111.54 196.58 112.06 197.09C112.58 197.6 89.8699 229.85 90.3899 230.54Z" fill="#5ECC6B"/>
<path d="M98.2599 14.2L97.64 24.36L91.7699 26L78.1299 31.49L65.6799 25.15L67.7599 13.73C67.7599 13.73 69.2399 24.62 69.6099 24.73C69.9799 24.84 78.2699 29.38 78.4699 29.26C78.6699 29.14 91.1499 23.85 91.1499 23.85L93.7899 14.85L98.2599 14.2Z" fill="#83491F"/>
<path d="M86.9999 50.9099L84.4399 51.4699L72.6499 51.1999C72.6499 51.1999 71.4199 50.8199 71.3599 50.8199L73.0299 49.6299C73.0299 49.6299 82.1099 49.5699 82.4299 49.6299L86.9999 50.9099Z" fill="#8F5729"/>
<path d="M83.2 53.3501C83.2 53.3501 81.0499 55.8801 80.7999 55.8001C80.5499 55.7201 75.0099 55.8001 75.0099 55.8001L73.45 53.3501H83.2Z" fill="#8F5729"/>
<path d="M96.8799 32.22C96.8799 32.22 94.6299 39.7 94.4299 39.78C94.2299 39.86 81.7399 40.3501 81.4299 40.3501L83.5199 33.54L93.9999 28.79L96.8799 32.22Z" fill="#FFFDFD" stroke="#231F20" stroke-linejoin="round"/>
<path d="M75.12 40.3499L68.04 38.5899L66.9 38.3199L65.24 32.6899L67.05 29.1299L74.57 33.7299L75.12 40.3499Z" fill="#FFFDFD" stroke="#231F20" stroke-linejoin="round"/>
<path d="M81.8 43.6799L95.0001 44.9999L98.7601 52.8399L95.5101 43.4099L82.11 43.6399" fill="#6A3F26"/>
<path d="M108.07 13.6799L95.0699 12.6799L78.4699 15.1199L67.9999 12.4499L66.8599 9.19991L68.3099 6.60991L89.6199 9.04991L101.71 4.3999L108.07 13.6799Z" fill="#22201F"/>
<path d="M75.8701 27.4399C76.6349 27.9028 77.4263 28.3201 78.2401 28.6899C78.0264 27.0459 77.7293 25.4138 77.3501 23.7999C76.95 23.4532 76.585 23.068 76.2601 22.6499L75.8701 27.4399Z" fill="#A46A33"/>
<path d="M78.76 28.6701L80.26 26.0601V27.8801L78.76 28.6701Z" fill="#A46A33"/>
<path d="M72.4901 84.5899L50.3501 85.8299C49.5532 83.2825 48.5498 80.8043 47.3501 78.42L64.6001 68.9299L71.2701 67.9299C71.1901 68.0299 67.0701 72.4299 66.8501 72.6299C69.1201 77.1699 72.7501 84.4199 72.4901 84.5899Z" fill="#26342D"/>
<path d="M51.4201 76.2L31.1001 79.8999L51.9501 80.2599L51.4201 76.2Z" fill="#26342D"/>
<path d="M172.21 131.22L166.85 130.57L167.85 115.77C168.05 116.44 172.21 131.22 172.21 131.22Z" fill="#5ECC6B"/>
<path d="M65.9999 230.46C65.9999 230.46 65.9999 230.46 65.9999 230.51L40.7199 201.45L40.6599 201.39L49.7399 178.83C49.7399 178.83 44.4599 145.64 44.6799 142.1L33.3799 122L49.7099 137.25L66.7099 131.16L52.3799 144.47L54.7499 179.58L53.3699 205L65.9999 230.4C65.9961 230.42 65.9961 230.44 65.9999 230.46V230.46Z" fill="#3C6A4C"/>
<path d="M96.7299 157.12L98.9399 183.94L95.6699 188.75L95.3899 188.78L89.2499 197.48L77.1299 198.41V132.57L100.42 143.45L96.7299 157.12Z" fill="#5ECC6B"/>
<path d="M101.75 4.39987L102.75 9.19987L79.3499 13.7699L66.8999 9.19987L68.3499 6.60988C69.7599 4.06988 71.7299 0.549883 71.7899 0.379883C71.7899 0.729883 79.1199 5.20988 79.1199 5.20988L83.0599 2.73988L86.3599 4.39987H101.75Z" fill="#22201F"/>
<path d="M98.2601 14.1999C98.2601 14.1999 102.53 11.9299 102.49 12.0799C102.45 12.2299 99.8401 25.2899 99.8401 25.2899L97.6401 24.3599L98.2601 14.1999Z" fill="#3E383E"/>
<path d="M108.63 31.0801V38.5901L105.55 42.1001L108.63 31.0801Z" fill="#5C3412"/>
<path d="M105.55 42.1001L103.64 41.9401L108.63 31.0801L108.05 36.5901L105.55 42.1001Z" fill="#5C3412"/>
<path d="M80.2599 17.6299C80.2599 17.4399 69.9099 9.96993 69.9099 9.96993C69.9099 9.96993 71.5999 1.14993 71.7899 1.40993C71.9799 1.66993 78.2399 9.00992 78.2399 9.00992L80.2599 17.6299Z" fill="#3E383E"/>
<path d="M63.79 43.0701L74.32 44.3001C74.32 44.3001 77.12 46.0301 76.96 45.8701L74.51 43.4101L63.79 43.0701Z" fill="#6A3F26"/>
<path d="M129.54 75.7499L114.46 85.8299L89.02 84.2299L111.18 70.8899L105.56 64.1599L113.75 67.1999L129.54 75.7499Z" fill="#26342D"/>
<path d="M129.76 134.91C129.58 135.33 116.95 145.25 116.95 145.25L116.07 151.59L129.76 134.91Z" fill="#3C6A4C"/>
<path d="M129 142.09C128.86 142.52 118 155.16 118 155.16L117.68 160.57L129 142.09Z" fill="#3C6A4C"/>
<path d="M127.29 165.45L126.45 167.88L126.97 166.27L127.29 165.45Z" fill="#A02889"/>
<path d="M75.56 136.78C75.99 137.88 74.72 152.69 74.72 152.69L60.72 153.63L63.67 139.63L75.56 136.78Z" fill="#5ECC6B"/>
<path d="M74.0899 164.67L73.6699 190.35L59.9199 186.52L62.2899 167.01L74.0899 164.67Z" fill="#5ECC6B"/>
<path d="M101.57 318.08L101.51 318.21C94.06 293.21 90.64 263.13 90.64 263.13L86.42 294.74C86.42 294.74 80.42 320.63 80.35 321.19L73.99 325.19L80.39 304.58L88.77 254.41L81 252.13L77.52 245.48L83.29 249.57L90.62 249.27C90.62 249.27 94.87 256.27 95.35 257.13C95.83 257.99 100.67 313.49 101.57 318.08Z" fill="#26342D"/>
<path d="M41 458.6L51.29 449.37C51.29 449.37 60.52 471.81 59.97 471.23C59.42 470.65 41 458.6 41 458.6Z" fill="#5ECC6B"/>
<path d="M189.23 216.31V216.76H174.13L192 186V186.15C192.51 188.77 189.23 216.31 189.23 216.31Z" fill="#26342D"/>
<path d="M74.75 63.0799C74.89 62.9399 76.75 59.9199 76.75 59.9199L83.02 59.6399L86.91 63.0799L79.49 64.0799L74.75 63.0799Z" fill="#78421B"/>
<path d="M140.55 132.57L136.33 147.98L126.45 167.88L127.29 165.45L126.97 166.27L134.02 142.65L134.89 127.94L128.74 105.69L139.19 125.66L140.55 132.57Z" fill="#5ECC6B"/>
<path d="M86.42 381.63L83.23 402.13L64.99 358.68L86.42 381.63Z" fill="#26342D"/>
<path d="M145.41 126.18C145.41 126.18 142.12 152.36 142.64 153.49C141.96 153.49 138.69 124.7 138.69 124.7L125.64 109L114.46 85.8701L136.33 97.5001V113L151.77 120.16L145.41 126.18Z" fill="#3C6A4C"/>
<path d="M74.0901 154.66V163.05L62.0701 163.79L67.0001 155.71L74.0901 154.66Z" fill="#5ECC6B"/>
<path d="M104.26 147C104.26 147 100.49 155.79 100.94 156.24C101.39 156.69 106.21 170.54 106.21 170.54L107.82 156.24L104.26 147Z" fill="#3C6A4C"/>
<path d="M96.7201 157.12L77.1301 153.7L75.8101 158.12L96.86 158.81L98.7401 157.77L96.7201 157.12Z" fill="#26342D"/>
<path d="M99.8399 171.31C100.16 171.2 100.25 175.19 100.25 175.19L75.6499 167.88V163.25C75.6499 163.25 99.5199 171.42 99.8399 171.31Z" fill="#26342D"/>
</svg>
