<svg width="169" height="517" viewBox="0 0 169 517" fill="none" xmlns="http://www.w3.org/2000/svg">
<path d="M126.63 99.38L115.63 106.03L114 106L119.81 91.38L112.53 52.5L107.37 67.5L104.76 69.5V58.47L101.3 43.93L98.7501 33.26L97.4301 27.68L75.7501 34L59.6501 26.58L55.6501 32.52C55.6501 32.52 55.6501 35.15 55.6501 38.16C55.0201 40.69 53.3701 47.39 53.3701 48.1C53.3701 48.99 54.5001 63.28 54.8701 64.02C55.2401 64.76 50.2601 74.77 50.2601 74.77L55.8901 70.94L60.5601 63.56L62.1801 73.67L68.0001 81V101.16L55.6901 105.46L55.0101 105.23L43.9201 101.46L40.6001 63.46L46.6001 26.61L61.6001 5.96001L80.0501 0.960007L103.54 7.96001L118 34L120.93 55.14L117.51 58.2L125.58 86.99L126.63 99.38Z" fill="#594422"/>
<path d="M53.3199 47.26L46.6699 61.52L45.5799 58.38L43.6699 66.23L50.9199 103.83C50.9199 103.83 60.1299 96.72 60.7699 95.83C61.4099 94.94 59.1199 71.16 59.1199 71.16L56.4599 55.4L53.3199 47.26Z" fill="#392317"/>
<path d="M52.9999 72.92L53.9999 80.98L52.1999 85.5L50.8999 103.83C50.8999 103.83 62.1299 110.98 62.4299 110.83C62.7299 110.68 70.4299 107.62 70.5899 107.22C70.7499 106.82 74.5899 96.48 74.4699 94.88C74.3499 93.28 74.5999 79.3 74.0299 78.96C73.4599 78.62 67.2499 72.6 66.8399 72.3C66.4299 72 62.7299 63.38 62.7299 63.38L59.2499 61.27L52.9999 72.92Z" fill="#392317"/>
<path d="M95 80.74L94.7799 84.12L78.66 101.43L78.95 122.87L68.95 127.69L45.07 118.35C45.07 118.35 44.75 115.35 45.07 114.93L54.97 105.24L55.6499 105.47L67.9599 101.17V81L62.19 73.69L60.57 63.58V63.32L58.66 58.73L57.9599 56.23L60.79 59.4C60.79 59.4 73.61 63.45 74.07 63.45C74.53 63.45 78.07 67.45 78.07 67.45V74.19L70.6499 72.8L73.76 77.65L78 79V89H83.13L95 80.74Z" fill="#AE7136"/>
<path d="M75.7499 34L71.9799 35.52L71.6299 40.14L55.6599 32.52L59.6499 26.58L75.7499 34Z" fill="#E1C252"/>
<path d="M98.78 33.26L83.61 40.16L82.26 40.78L81.64 36.19L75.75 34L97.45 27.68L98.78 33.26Z" fill="#E1C252"/>
<path d="M101.33 43.93L95.0001 40.78C95.0001 40.78 81.4301 49.52 81.0001 49.85C80.5701 50.18 83.5601 40.16 83.5601 40.16L98.7301 33.26L101.33 43.93Z" fill="#F2914B"/>
<path d="M101.33 43.93L95 40.78C95 40.78 81.43 49.52 81 49.85C80.57 50.18 83.56 40.16 83.56 40.16L82.21 40.78L77 49L77.79 54.86L77.6 64.04L82.3 63.04L101.52 56.87L104.83 58.45L101.33 43.93ZM78.33 61.82L79.58 56.21L81.97 61.82H78.33ZM101.33 51.18L93 56.89L82.31 52.31C82.94 52.31 95.88 43.46 95.88 43.46L101.38 47.98L101.33 51.18Z" fill="#F3EB50"/>
<path d="M74.08 63.45C73.61 63.45 60.8 59.45 60.8 59.45L58 56.23C57.0754 53.1321 56.3143 49.9878 55.72 46.81C55.72 46.12 55.72 41.87 55.72 38.19C55.72 35.19 55.72 32.55 55.72 32.55L60.72 42.84L60.9 43.48L61.08 44.08L57.15 48.67L64.23 56.91L64.89 56.54L74.08 63.45Z" fill="#F2914B"/>
<path d="M149.2 195L149.45 208.07V208.18L148.32 209.18L139.85 216.42L139.76 216.49L139.7 216.54L139.63 216.61L142 189.16V188.9L139.7 185.73L135.14 179.44L121.49 152.24L120.37 150L119.84 148.95L121.34 143.5L123.16 136.91L123.22 136.69C123.89 136.34 138.68 130.01 140.51 129.23H140.59H140.68L134.77 142.84V142.91V142.97L131.77 149.76V149.86C131.79 149.924 131.813 149.988 131.84 150.05C131.854 150.098 131.871 150.144 131.89 150.19C131.96 150.4 132.07 150.72 132.22 151.13L132.34 151.47C132.39 151.6 132.43 151.73 132.48 151.88L134.61 157.88C134.78 158.37 134.96 158.88 135.15 159.39C135.34 159.9 135.44 160.19 135.59 160.61L136.02 161.81L136.32 162.64L137.24 165.18C137.4 165.63 137.56 166.08 137.73 166.53C137.82 166.76 137.9 166.99 137.98 167.21L140.14 173.1C140.34 173.62 140.53 174.1 140.72 174.64L141.09 175.64C141.2 175.92 141.3 176.19 141.4 176.46C143 180.69 144.4 184.3 145.29 186.17L145.49 186.59C145.611 186.84 145.744 187.084 145.89 187.32L145.98 187.45C145.98 187.45 146.05 187.52 146.08 187.52H146.13L146.32 187.44C146.489 187.431 146.658 187.466 146.81 187.54C147.563 187.876 148.269 188.31 148.91 188.83L149.5 189.28L150.09 189.75L150.68 190.24C150.87 190.39 151.05 190.55 151.23 190.71L151.75 191.16C151.788 191.185 151.822 191.215 151.85 191.25V191.25C152.69 191.99 153.28 192.54 153.28 192.54L149.2 195Z" fill="#DC9159"/>
<path d="M25.25 181.15L25.99 195.86C25.99 195.86 25.61 195.64 25.12 195.38L24.81 195.21C24.53 195.06 24.24 194.92 23.98 194.81L23.79 194.73C23.6851 194.677 23.5743 194.637 23.46 194.61C23.26 194.54 23.13 194.54 23.1 194.61C23.07 194.68 23.04 196.12 23.04 197.73C23.04 199.58 23.04 201.73 23.04 202.73L22.38 202.36L15.48 198.53C15.48 198.53 15.77 191.47 16.03 184.94C16.1 182.94 16.18 181.06 16.24 179.41L17.52 167.79L17.44 167.68C17.52 167.17 17.62 166.68 17.71 166.08C19.65 154.89 23.05 136.19 23.05 136.19L27.14 140.56L28.14 140.24L29.07 139.94L31.74 139.09C32.81 138.75 33.89 138.42 34.8 138.15L24.2 160.5L24.79 172.18V172.25L25 177L25.06 178.21L25.2 181.06L25.25 181.15Z" fill="#DC9159"/>
<path d="M161.8 197.59L151.89 206.08C151.79 206.16 151.69 206.25 151.59 206.32L149.45 208.16V208.05L149.2 195L153.31 192.47C153.31 192.47 152.72 191.92 151.88 191.18C151.69 191 151.48 190.82 151.26 190.64C151.04 190.46 150.9 190.32 150.71 190.17L150.12 189.68L149.53 189.21L148.94 188.76C148.299 188.24 147.593 187.806 146.84 187.47C146.767 187.433 146.69 187.406 146.61 187.39H146.43H146.34C146.304 187.388 146.269 187.395 146.236 187.409C146.203 187.422 146.174 187.443 146.15 187.47H146.1C146.062 187.455 146.027 187.431 146 187.4L145.87 187.21L145.7 186.92L145.64 186.81L145.48 186.5L145.28 186.08C145.03 185.53 144.72 184.82 144.37 183.99L144.09 183.3L143.91 182.85C143.82 182.65 143.74 182.44 143.66 182.23L143.36 181.47L142.86 180.21L142.27 178.68C142.077 178.193 141.887 177.693 141.7 177.18C140.52 174.06 139.22 170.56 137.97 167.12C137.89 166.9 137.81 166.67 137.72 166.44C137.55 165.99 137.39 165.54 137.23 165.09L136.31 162.55C136.06 161.86 135.81 161.18 135.58 160.55L135.14 159.34L134.44 157.34L134 156.11L133.59 154.97C133.47 154.6 133.34 154.25 133.22 153.92C133.1 153.59 133 153.31 132.9 153.02C132.63 152.24 132.39 151.59 132.21 151.07L132.09 150.73C132.09 150.63 132.02 150.54 131.99 150.45L131.88 150.13C131.861 150.084 131.844 150.038 131.83 149.99L131.77 149.83V149.73L134.72 142.96V142.9V142.83L140.54 129.43V129.35L140.59 129.24V129.31L140.72 129.23L141.09 130.68L151 157.53V157.61L151.82 159.88L160 182.47L161.57 195.36L161.8 197.59Z" fill="#F1B280"/>
<path d="M107.4 111.35C107.4 111.35 108.65 113.49 110.46 116.53L71.52 128.71L68.96 127.71L78.96 122.89L78.67 101.45L94.79 84.14L94.33 100.47L114 106L115.58 106.07L107.4 111.35Z" fill="#C68650"/>
<path d="M37.8201 167.35L37.7001 168.08L34.0601 190.08L32.8801 208.13L24.8801 203.69L23.1001 202.69C23.1001 201.69 23.1001 199.58 23.1001 197.69C23.1001 196.09 23.1001 194.69 23.1601 194.58C23.2201 194.47 23.3201 194.51 23.5201 194.58C23.6344 194.607 23.7452 194.647 23.8501 194.7L24.0401 194.78C24.1701 194.83 24.3101 194.9 24.4501 194.97C24.5901 195.04 24.9501 195.22 25.1801 195.35L25.5201 195.53L25.8201 195.7L25.9601 195.78L26.0501 195.83L25.3101 181.12L25.1701 178.28L25.0001 177L24.8901 174.92V174.63L24.7701 172.3V172.16L24.1801 160.48L34.8101 138.12C35.5099 137.888 36.2249 137.704 36.9501 137.57L35.4201 139.69L31.4201 151.69L30.7501 152.92L37.7501 167.25L37.8201 167.35Z" fill="#F1B280"/>
<path d="M75.9399 52.49L72.8999 48L61.5099 43.48H60.8299L60.6499 42.84L55.6899 32.55L71.6599 40.17L74.95 45.68L75.9399 52.49Z" fill="#F2914B"/>
<path d="M82.2599 40.78L76.9599 49.04L74.9299 45.65L71.6299 40.14L71.9799 35.52L75.7499 34L81.6399 36.19L82.2599 40.78Z" fill="#F3EB50"/>
<path d="M119.84 91.34L114.02 105.96L94.3401 100.46L94.8001 84.13V84.12L95.0201 80.74L99.7701 74.26L104.79 58.47V69.41L107.4 67.42L112.56 52.46L119.84 91.34Z" fill="#392317"/>
<path d="M104.79 58.47L99.77 74.26L95.02 80.74L83.15 88.96H78.03V79.01L81.99 78.43L86.13 74.16L90.26 69.41L86.13 72.77L78.03 74.16V67.42L82.26 63.06L101.48 56.89L104.79 58.47Z" fill="#C68650"/>
<path d="M90.2599 69.41L86.1299 74.16L81.9999 78.43L78.0399 79.01L73.7199 77.62L70.6099 72.77L76.3599 75.75L80.4299 75.32L86.1299 72.77L90.2599 69.41Z" fill="#A96739"/>
<path d="M86.1299 72.77L80.4299 75.32L76.3599 75.75L70.6099 72.77L78.0399 74.16L86.1299 72.77Z" fill="#9E5C28"/>
<path d="M81.9901 61.82H78.3501L79.6101 56.21L81.9901 61.82Z" fill="#F4A54B"/>
<path d="M82.2599 63.06L77.9999 67.42C77.9999 67.42 74.4799 63.42 73.9999 63.42L64.7499 56.51C66.7499 55.37 72.9299 51.97 73.3399 51.97L61.4299 43.45L72.8299 47.97L75.8299 52.45L74.8299 45.64L76.8299 49.03L77.6199 54.89L77.4299 64.07L82.2599 63.06Z" fill="#F3EB50"/>
<path d="M60.58 63.56L55.91 70.94L50.28 74.77C50.28 74.77 55.28 64.77 54.89 64.02C54.5 63.27 53.39 49.02 53.39 48.1C53.39 47.39 55.04 40.69 55.67 38.16C55.67 41.84 55.67 46.1 55.67 46.79C56.2693 49.9667 57.0303 53.1108 57.95 56.21L58.65 58.71L60.56 63.3L60.58 63.56Z" fill="#6D542F"/>
<path d="M101.33 48V51.2L93.0001 56.89L82.3101 52.31C82.9401 52.31 95.8801 43.46 95.8801 43.46L101.33 48Z" fill="white" stroke="#231F20" stroke-linejoin="round"/>
<path d="M73.3901 52C72.9801 52 66.83 55.4 64.8 56.54L64.1401 56.91L57.0601 48.67L60.1601 43.67L60.6201 42.85L73.3901 52Z" fill="white" stroke="#231F20" stroke-linejoin="round"/>
<path d="M79.26 220.29L79 239.65L69.31 244.05C69.31 244.05 69.31 228.77 69.31 228.05C69.31 228.05 69.2 228.05 69.09 228.05L68.94 228.13L68.75 228.24C66.41 229.59 57.7 236.44 57.7 236.44C57.7 236.44 57.6 236.35 57.41 236.21L56.52 220.21V216.48H56.73C57.82 217.75 59.97 220.22 60.34 220.22L79.26 220.29Z" fill="#E7C053"/>
<path d="M130.67 268.19L116.28 355.65L102.2 357L77 274.75C77 274.75 87.75 265.95 98.51 257.29L105.23 251.9C104.92 259.61 103.28 294.09 103.28 294.09C103.28 294.09 115.98 322.25 116.34 321.69C116.7 321.13 130.24 269.8 130.67 268.19Z" fill="#827140"/>
<path d="M47.2401 511.36L19.6501 512.94C19.6501 512.94 9.65007 514.15 8.85007 513.94L0.0500488 511.77L0.820068 508.39L14.6801 509.09H15.1301L25.9401 509.77L39.8101 506.59L40.3501 506.47H40.5101C40.8701 506.38 46.7401 504.81 46.9201 504.87C47.1601 508.48 47.2401 511.36 47.2401 511.36Z" fill="#827140"/>
<path d="M25.8799 509.66L39.8599 506.64L25.9799 509.82L15.17 509.14L14.7199 509.12H14.7099L14.6799 509.1L14.9799 509.12L25.8799 509.66Z" fill="#001750"/>
<path d="M47.0001 504.86C46.8201 504.8 40.9501 506.37 40.5901 506.46L40.5401 506.34V506.19L40.2201 505.27C40.1301 505.02 40.0301 504.74 39.9101 504.43C39.7901 504.12 39.6801 503.78 39.5401 503.43L39.3801 503.01C39.3301 502.85 39.2701 502.68 39.2001 502.51L38.4401 500.51L38.1901 499.86C37.9001 499.1 37.6001 498.31 37.2901 497.52L36.7901 496.18C36.3601 495.08 35.94 493.99 35.55 492.97L35.1201 491.89C34.7201 490.89 34.36 489.89 34.05 489.16C34.0194 489.055 33.9827 488.951 33.9401 488.85L33.7901 488.47C33.7301 488.31 33.6701 488.16 33.6301 488.04L33.4901 487.7C33.3801 487.39 33.3101 487.23 33.3101 487.23L33.4401 486.45V487.45H45.9201C46.0001 487.43 46.8601 498.64 47.0001 504.86Z" fill="#FDC050"/>
<path d="M39.45 473.59H39.21V473.09L39.45 473.59Z" fill="#1C387F" stroke="#9BB8C8" stroke-miterlimit="10"/>
<path d="M40.43 506.51L39.89 506.63L26 509.82L15.19 509.14H14.74L6.23999 504.9L24.65 495.47L27.09 497.16L27.96 497.76L28.59 498.19L29.42 498.77C33.61 501.67 39.32 505.64 40.43 506.51Z" fill="#FDC050"/>
<path d="M14.7101 509.12L0.820068 508.4L6.17007 504.86H6.18005L14.7101 509.12Z" fill="#FDC050"/>
<path d="M136.44 502.26L119.24 496.46L118.69 487.07L118.75 487.43H131.07L136.44 502.26Z" fill="#FDC050"/>
<path d="M139.83 510.56L121.76 510.21C121.76 510.21 119.28 502.66 119.28 502.34V496.71V496.46L136.48 502.26L139.83 510.56Z" fill="#F4A54B"/>
<path d="M141 513.37L130.88 516.78H121.88L117.64 511.34L119.28 502.66V502.34C119.28 502.66 121.76 510.21 121.76 510.21L139.83 510.56L141 513.37Z" fill="#827140"/>
<path d="M40.6299 506.46H40.4699L29.4699 498.67L28.64 498.09L28.0099 497.66L27.14 497.06L24.7 495.37L33.3999 487.15C33.3999 487.15 33.4699 487.31 33.5799 487.62L33.7199 487.96C33.7199 488.08 33.8199 488.23 33.8799 488.39L34.0299 488.77C34.0726 488.871 34.1093 488.975 34.14 489.08L39.3599 503L39.5199 503.42L40.5199 506.12C40.5199 506.12 40.5199 506.33 40.5699 506.37C40.6199 506.41 40.6199 506.42 40.6299 506.46Z" fill="#F4A54B"/>
<path d="M55 105.21L45.1 114.9L41.81 118.1C41.81 118.1 41.66 118.84 41.4 120.04C40.35 124.95 37.59 137.54 37.02 137.54C36.2914 137.678 35.5731 137.865 34.87 138.1C31.98 138.96 27.23 140.51 27.23 140.51L23.15 136.14L19.22 122.03L25.47 129.8L37.13 117.32L47.46 109.01L40 100.11L43.93 101.44L55 105.21Z" fill="#827140"/>
<path d="M20.6601 255.84C20.6601 255.84 14.0101 259.92 13.9001 260.41C13.7901 260.9 5.00007 252.94 4.00007 252C3.69007 258.19 4.16008 282.26 4.16008 282.26L5.89009 283.7L16.8901 279.91L25.4601 270.57L20.6601 255.84ZM5.84007 280.07L6.84007 263.65L9.58006 277.13L5.84007 280.07Z" fill="#E7C053"/>
<path d="M17.7 199.73L15.57 219.49L13.57 204.44L11 199.87C11 199.78 11 199.73 11 199.73L15.47 198.53L17.7 199.73Z" fill="#E7C053"/>
<path d="M15.63 251.48L20.63 255.84C20.63 255.84 13.98 259.92 13.87 260.41C13.76 260.9 4.99996 252.94 3.99996 252C3.98599 251.525 4.03987 251.05 4.15997 250.59C4.73997 249.68 10.72 202.81 11.09 199.88L13.6099 204.45L15.6099 219.5L13.9 235L21 245.21L10.25 247.52L6.81997 251.52L15.63 251.48Z" fill="#F3EB50"/>
<path d="M33.9299 210.51L20.9899 245.21L13.8999 235.03L17.6999 199.73L32.8799 208.15L33.9299 210.51Z" fill="#827140"/>
<path d="M20.1301 254.23L20.6601 255.84L15.6301 251.48H6.81006L10.2401 247.52L20.9901 245.21L20.1301 254.23Z" fill="#F4A54B"/>
<path d="M27.9001 289.78H13.1401L5.84009 283.69L16.8601 279.9L25.4301 270.56L27.6101 277.24L27.9001 289.78Z" fill="#F3EB50"/>
<path d="M107.16 174.22C107.16 174.22 101.82 191.55 101.78 191.55C101.806 191.638 101.826 191.729 101.84 191.82C100.47 189.82 97.84 185.94 97.45 185.94C97.06 185.94 91.27 183.5 88.64 182.5C88.6353 182.463 88.6353 182.427 88.64 182.39C89.09 180.29 89.38 178.87 89.38 178.87L92 180L96.56 168.35L103.19 159.07L108.06 154.35L116.27 146.35L119.83 148.93L107.16 174.22Z" fill="#E7C053"/>
<path d="M108.05 154.32L103.18 159L96.5501 168.28L92.0001 180L89.4101 178.9L70.6701 170.9L56.5401 178.29L54.9901 179.1L46.2301 165.81L40.8901 162.01L52.1401 164.9L63.4001 147.46L70.1801 162.14L75.3301 149.89C75.3301 149.89 89.5301 163.31 89.8801 163.15C90.2301 162.99 107.52 154.58 108.05 154.32Z" fill="#827140"/>
<path d="M89.4001 178.87C89.4001 178.87 89.1101 180.29 88.6601 182.39C88.6554 182.427 88.6554 182.463 88.6601 182.5C87.3601 188.5 84.7601 199.9 83.7401 199.73C82.3701 199.49 69.36 194.03 69.36 194.03L57.9401 199.73L56.55 178.3L70.6801 170.91L89.4001 178.87Z" fill="#F3EB50"/>
<path d="M116.28 146.35L108.07 154.35C107.54 154.61 90.2601 163.03 89.9001 163.19C89.5401 163.35 75.3301 149.93 75.3301 149.93L89.7401 140.58C89.7401 140.58 102.37 136.21 103 136.69C103.41 137 111.47 142.86 116.28 146.35Z" fill="#F3EB50"/>
<path d="M48.54 254.3L37.54 242.54L44.61 226.37C45.04 226.67 45.61 227.12 46.36 227.66L48.54 254.3Z" fill="#F4A54B"/>
<path d="M57.7101 236.48C57.7101 236.48 50.3301 230.66 46.3501 227.66C45.6401 227.12 45.0301 226.66 44.6001 226.37L50.8001 212.19L56.5301 220.29L57.7101 236.48Z" fill="#827140"/>
<path d="M69.34 244.05L57.71 236.48C59.57 234.98 67.15 229.17 68.95 228.17L69.1 228.09C69.21 228.09 69.28 228.03 69.32 228.09C69.36 228.15 69.32 228.09 69.32 228.09C69.38 228.77 69.34 244.05 69.34 244.05Z" fill="#F3EB50"/>
<path d="M110.33 225.9L106.39 227.25L83.73 235.03V220.29L105.32 210.51L110.33 225.9Z" fill="#827140"/>
<path d="M116.28 355.65C116.28 355.65 111.28 376.24 111.05 377.12C110.82 378 102.2 357 102.2 357L116.28 355.65Z" fill="#F4A54B"/>
<path d="M78.34 306.42C78.6 305.05 63.87 357.84 63.87 357.84L57.54 363.84C57.54 363.84 61.33 354.73 61.54 353.94C61.75 353.15 75.88 302.23 75.88 302.23C75.88 302.23 66.51 298.79 68.18 299.05C70.7649 299.184 73.3551 299.184 75.94 299.05L81.01 297.52L93.38 361.84C93 360.25 78.08 307.78 78.34 306.42Z" fill="#FDC050"/>
<path d="M124.33 354.54L130.68 268.15L116.29 355.61C116.29 355.61 111.29 376.2 111.06 377.08C110.83 377.96 102.2 357 102.2 357L77 274.75C77 274.75 87.75 265.95 98.51 257.29L106.35 227.29L83.73 235V237.49L79 239.65L69.31 244.05L57.85 236.59L57.39 236.25C55.97 235.13 49.83 230.3 46.32 227.66L48.51 254.3L50.51 256.43L69.32 276.5L53.1 361.91L40.16 353.91L32 284L30.59 331.66L34.48 350.87L30.29 377.37L34.48 386.82L33.55 473.58H39.27V416.38C39.27 415.23 57.39 375.8 57.39 375.8L65.77 394.67L46.68 473.59H50.45L71.87 391.81L57.59 363.88C57.59 363.88 61.38 354.77 61.59 353.98C61.8 353.19 75.94 302.27 75.94 302.27C75.94 302.27 66.57 298.83 68.23 299.09C70.815 299.224 73.4051 299.224 75.99 299.09L81.06 297.56L93.43 361.88V387.06C93.43 387.06 116.66 478.54 117.72 479.37C117.871 479.465 118.042 479.524 118.22 479.54C120.306 479.762 122.405 479.819 124.5 479.71H125.39L116.44 419.63C116.44 419.63 127.27 383.63 127.27 382.94C127.27 382.25 132.51 386.36 132.51 386.36L130.68 479.49C131.33 479.49 131.83 479.42 132.06 479.42L132.28 477.72C132.66 464.95 135.05 385.1 136.02 384.85C136.99 384.6 124.33 354.54 124.33 354.54ZM34.38 372.47L37.9 355.65C38.9 356.08 48.67 366.4 48.67 366.4L34.38 372.47Z" fill="#FDC050"/>
<path d="M120 240.62C118.9 241.14 112.66 246.01 105.27 251.9L98.55 257.29L106.39 227.29L110.33 225.94L119.6 239.63L120 240.62Z" fill="#F4A54B"/>
<path d="M130.68 268.15C130.25 269.76 116.74 321.09 116.39 321.65C116.04 322.21 103.33 294.05 103.33 294.05C103.33 294.05 104.97 259.57 105.28 251.86C112.67 245.97 118.91 241.1 120.01 240.58L130.68 268.15Z" fill="#F3EB50"/>
<path d="M167.52 204.94C167.33 205.16 160.12 213.26 153.74 220.29V250.52L150.13 257.25L144.66 250.1L132.77 264.39L133.19 271.9H139.64V283.69L150.72 286.46L161.81 279.79C161.81 279.79 161.55 247.63 161.81 246.53C162 245.69 165.78 217.89 167.52 204.94ZM150.72 281.81L152.53 274.75V262.63L155.89 277.13L150.72 281.81Z" fill="#F3EB50"/>
<path d="M161.81 279.79L158.91 287.21L143.07 294.09L134.36 292.44L133.19 271.9H139.64V283.69L150.72 286.46L161.81 279.79Z" fill="#E7C053"/>
<path d="M153.74 220.29V250.52L150.13 257.25L144.66 250.1L137.52 217.38C137.52 217.38 143.84 229.84 144.05 230.47C144.14 230.75 148.68 225.86 153.74 220.29Z" fill="#827140"/>
<path d="M168.41 198.41C168.41 198.41 168.06 200.98 167.53 204.93C167.34 205.15 160.13 213.25 153.75 220.28C148.69 225.85 144.15 230.74 144.06 230.46C143.85 229.83 137.53 217.37 137.53 217.37L139.65 216.55L149.47 208.14L161.82 197.57C161.82 197.57 164.99 195.1 165.82 194.28C166.65 193.46 168.41 198.41 168.41 198.41Z" fill="#F4A54B"/>
<path d="M132.52 386.32L130.69 479.45C129.38 479.52 127.41 479.61 125.4 479.67L116.45 419.59C116.45 419.59 127.28 383.59 127.28 382.9C127.28 382.21 132.52 386.32 132.52 386.32Z" fill="#827140"/>
<path d="M112.56 120.05L78.7399 131.22L69.2999 144.74L60.2199 129.85L41.3599 120.11C41.6199 118.92 41.7699 118.18 41.7699 118.18L45.0599 114.97C44.7499 115.43 45.0599 118.4 45.0599 118.4L68.9999 127.72L71.5599 128.72L110.5 116.55L112.56 120.05Z" fill="#E7C053"/>
<path d="M83.73 220.29V235V237.49L79 239.65L79.23 220.29H60.35C59.98 220.29 57.83 217.82 56.74 216.55L83.74 215.39V220.29H83.73Z" fill="#F3EB50"/>
<path d="M52.14 295.54C52.14 295.54 41.6999 321 41.5299 320.08C41.3599 319.16 32.62 286.33 31.95 283.84V282.94L36.8399 244.06L37.4999 242.55L48.4999 254.31L50.4999 256.44L52.14 295.54Z" fill="#F3EB50"/>
<path d="M69.34 276.5L53.1 361.91L40.16 353.91L32 284V283.83C32.67 286.32 41.41 319.24 41.58 320.07C41.75 320.9 52.19 295.53 52.19 295.53L50.58 256.42L69.34 276.5Z" fill="#827140"/>
<path d="M48.6699 366.4L34.3799 372.47L37.8999 355.65C38.9299 356.08 48.6699 366.4 48.6699 366.4Z" fill="#F4A54B"/>
<path d="M155.89 277.13L150.72 281.81L152.53 274.75V262.63L155.89 277.13Z" fill="#827140"/>
<path d="M9.55008 277.13L5.84009 280.07L6.81009 263.64L9.55008 277.13Z" fill="#827140"/>
<path d="M65.72 394.67L46.63 473.59H39.45L39.21 473.09V416.38C39.21 415.23 57.33 375.8 57.33 375.8L65.72 394.67Z" fill="#827140"/>
<path d="M50.4099 473.59L45.8999 487.43H33.4099L33.4199 486.43L33.5099 473.59H50.4099Z" fill="#F4A54B"/>
<path d="M132.08 479.38L131.08 487.38H118.75L118.68 487.02L118.24 479.48C120.322 479.702 122.419 479.759 124.51 479.65C126.82 479.59 129.19 479.47 130.68 479.4C131.34 479.41 131.84 479.38 132.08 479.38Z" fill="#F4A54B"/>
<path d="M147.68 109.27L107.31 111.38L115.53 106.06L126.54 99.41L128.73 98.09L147.68 109.27Z" fill="#F3EB50"/>
<path d="M147.68 109.28L140.89 129V129.13L125.35 129.33L125.16 129.14L107.4 111.41L147.68 109.28Z" fill="#F4A54B"/>
<path d="M43.6701 109.05L27.3201 107.01L39.9601 100.1L43.6701 109.05Z" fill="#F3EB50"/>
<path d="M47.42 109.05L37.0799 117.36L25.4299 129.84L19.1799 122.07L27.3199 107.01L43.67 109.05L39.9599 100.1L47.42 109.05Z" fill="#F4A54B"/>
<path d="M81.64 36.19L97.45 27.68L75.75 34L81.64 36.19Z" fill="#F2914B"/>
<path d="M79.25 66.16L101.48 56.89L104.43 59.84L104.79 58.47L101.48 56.89L82.26 63.06L79.25 66.16Z" fill="#BC7645"/>
<path d="M76.96 66.23L60.77 59.38L74.05 63.43L76.96 66.23Z" fill="#9B5023"/>
<path d="M95.0201 80.74L85.0701 89.58L83.1401 90.52L79.3301 89.64L77.8301 89.17L83.1501 88.96L95.0201 80.74Z" fill="#9B5023"/>
<path d="M67.97 82.13L77.83 89.17L67.97 80.98V82.13Z" fill="#9B5023"/>
<path d="M68 81C68 81.16 78.06 89 78.06 89H83.19L83.02 89.69L77.86 89.21C77.86 89.21 69.55 83 69.5 83C69.45 83 68 81 68 81Z" fill="#9B5023"/>
<path d="M75.75 34C75.75 34 70.68 25.43 70.61 24.67C70.54 23.91 80.17 6.52 80.17 6.52C80.17 6.52 75.17 22.21 75.39 22.4C75.61 22.59 81.01 31.93 81.01 31.93L75.75 34Z" fill="#392317"/>
<path d="M103.57 8C102.94 7.82 95.02 11.43 95.02 11.43C95.02 11.43 88.6 27.95 88.88 27.72C89.16 27.49 96.22 12.95 96.22 12.95L103.57 8Z" fill="#392317"/>
<path d="M46.6099 26.58L62.7099 17.82L71.6299 20.26L61.6299 5.92999L46.6099 26.58Z" fill="#392317"/>
<path d="M98.55 369.9C99.07 370.82 113.46 408.78 113.46 408.78L97.24 387.65L98.55 369.9Z" fill="#F4A54B"/>
<path d="M48.67 372.47L35.95 377.15L39.2099 416.38L57.3299 375.8L48.67 372.47Z" fill="#F4A54B"/>
<path d="M57.88 236.59L52.47 258.49L69.34 276.5L67.18 287.83L74.47 289.78L81.12 288.08L77.04 274.75L93.43 261.42L102.2 228.04L83.73 235.03L83.72 237.52L69.34 244.05L57.88 236.59Z" fill="#F4A54B"/>
<path d="M132.16 151.05L130.64 150.53L131.16 149.53L134.69 142.9V142.84V142.77L141.14 130.63L151 157.53V157.61C147.25 156.28 136.22 152.45 132.16 151.05Z" fill="#827140"/>
<path d="M161.53 195.36L151.88 191.16L145.05 188.16L145.13 187.83L145.46 186.46L145.55 186.06L151.83 159.87L160 182.47L161.53 195.36Z" fill="#F4A54B"/>
<path d="M145.16 189C145.8 192.73 148.35 207.69 148.38 208.9C148.375 208.98 148.355 209.058 148.32 209.13C147.71 210.5 142.32 214.53 139.85 216.37L139.76 216.44L139.7 216.49H139.63L142 189.16V188.9L139.7 185.73L135.14 179.44L121.49 152.24L121.43 152.12C124.3 151.32 130.48 149.62 131.15 149.53C131.346 149.563 131.54 149.609 131.73 149.67C131.73 149.67 146.91 155.82 150.93 157.53V157.61L151.75 159.88L145.47 186.07L145.38 186.47L145.05 187.84L144.97 188.17L145.16 189Z" fill="#F3EB50"/>
<path d="M161.8 197.59L151.89 206.08C151.79 206.16 151.69 206.25 151.59 206.32L149.45 208.05L148.38 208.9L145.16 189L145.02 188.17L151.85 191.17L161.5 195.37L161.8 197.59Z" fill="#827140"/>
<path d="M150.3 185.63L146.3 187.33L146.11 187.41H146.06L145.11 187.81L142 189.16V188.9L139.7 185.73C141.97 185.89 144.39 186.01 145.22 186.05H145.51L150.3 185.63Z" fill="#827140"/>
<path d="M141.22 130.6L134.77 142.74V142.81V142.87L131.24 149.5L121.58 152.21L119.92 148.9L121.42 143.45L123.21 136.66H123.27L123.43 136.58L123.83 136.41L124.12 136.28L124.54 136.1L124.75 136.01L125.12 135.85L125.68 135.61L126.02 135.46L128.02 134.61L135.91 131.21L137.21 130.65L140.26 129.34L140.59 129.2H140.67H140.72L140.92 129.09V129.22L141.22 130.6Z" fill="#E7C053"/>
<path d="M37.1501 137.35L35.4901 140.05L32.4401 151.72L31.7701 152.94C31.7701 152.94 38.4501 166.68 37.7701 167.4C37.0901 168.12 25.6801 177.8 25.6801 177.8L21.55 151.72L27.1901 140.55L37.1501 137.35Z" fill="#F4A54B"/>
<path d="M25.6701 177.78L25.0901 178.21L16.0901 184.91C16.1601 182.91 16.2401 181.03 16.3001 179.38L17.5801 167.76L17.7701 166.05C19.7101 154.86 23.1101 136.16 23.1101 136.16L27.2001 140.53L21.5601 151.7L24.8001 172.16V172.23L25.6801 177.75L25.6701 177.78Z" fill="#E7C053"/>
<path d="M37.7699 167.41L37.7 168.08L34.0599 190.08L32.8799 208.13L24.8799 203.69L23.0999 202.69L22.4399 202.32C22.4399 202.32 22.4899 201.98 22.5599 201.39C22.5599 201.19 22.6199 200.96 22.6499 200.71C22.6799 200.46 22.7099 200.29 22.7399 200.05C22.8299 199.39 22.9299 198.6 23.0499 197.73C23.0499 197.55 23.0499 197.36 23.1299 197.16C23.2099 196.96 23.2199 196.51 23.2599 196.16C23.2551 196.077 23.2551 195.993 23.2599 195.91L23.4299 194.61C23.4999 194.07 23.5699 193.51 23.6499 192.93L23.7999 191.8C24.0199 190.09 24.2599 188.34 24.4799 186.67C24.5299 186.33 24.5699 185.99 24.6199 185.67C24.6699 185.35 24.6699 185.22 24.7099 185C24.7699 184.48 24.8399 184 24.8999 183.51C24.8999 183.18 24.9899 182.86 25.0299 182.51C25.0699 182.16 25.1099 181.9 25.1499 181.61V181.35V181.12L25.2399 180.41L25.3299 179.71C25.3299 179.49 25.3799 179.29 25.4099 179.1L25.4799 178.6L25.5899 177.78L25.7199 177.67L26.0699 177.37C28.1599 175.54 36.4099 168.37 37.5699 167.47H37.6199L37.7699 167.41Z" fill="#F3EB50"/>
<path d="M25.6899 177.8L25.5799 178.62C25.5799 178.77 25.5299 178.93 25.5099 179.12C25.4899 179.31 25.4599 179.51 25.4299 179.73C25.3999 179.95 25.3699 180.18 25.3399 180.43C25.3099 180.68 25.2799 180.86 25.2399 181.09V181.34V181.6C25.1999 181.893 25.1599 182.193 25.1199 182.5C25.1199 182.81 25.0299 183.13 24.9899 183.5C24.9299 183.98 24.8599 184.5 24.7999 184.99C24.7999 185.21 24.7299 185.44 24.7099 185.66C24.6899 185.88 24.6199 186.33 24.5699 186.66C24.3499 188.33 24.1099 190.08 23.8899 191.79L23.7399 192.92C23.6599 193.5 23.5899 194.06 23.5199 194.6L23.3499 195.9C23.3451 195.983 23.3451 196.067 23.3499 196.15C23.3499 196.49 23.2599 196.82 23.2199 197.15C23.1799 197.48 23.1699 197.55 23.1399 197.73C23.0199 198.6 22.9199 199.39 22.8299 200.05C22.8299 200.29 22.7999 200.51 22.7399 200.71C22.7399 200.96 22.6799 201.19 22.6499 201.39C22.5799 201.98 22.5299 202.32 22.5299 202.32L15.6299 198.49C15.6299 198.49 15.9199 191.43 16.1799 184.9C16.2499 182.9 16.3299 181.02 16.3899 179.37L17.6699 167.75C18.7399 169.28 23.4099 174.9 25.1399 176.98L25.7699 177.72L25.6899 177.8Z" fill="#F4A54B"/>
<path d="M140.85 129.16L140.73 129.22H140.63L140.46 129.3C138.76 130.01 132.46 132.66 127.95 134.57L125.95 135.42L125.61 135.57L125.05 135.81L124.68 135.97L124.47 136.06L124.05 136.24L123.76 136.37L123.36 136.54L123.2 136.62C122.65 136.62 116.96 127.31 112.56 119.98L110.46 116.49C108.81 113.71 107.62 111.68 107.46 111.36L125.25 129.14L140.85 129.16Z" fill="#827140"/>
<path d="M63.39 147.47L52.13 164.91L40.88 162.02L38.8 160.56L31.46 151.77L35.45 139.71L38.75 136.23L52.87 136.85L63.39 147.47Z" fill="#F3EB50"/>
<path d="M105.32 210.51L83.7301 220.29V215.39L56.5401 216.56V220.29L50.8101 212.19L48.0901 177.49L39.6601 171.07L37.8401 167.36L30.8401 153L31.5101 151.78L38.8501 160.57L40.9301 162.03L46.2701 165.83L55.0001 179.11L56.5501 178.3L57.9401 199.73L69.3601 194.03C69.3601 194.03 82.3601 199.49 83.7401 199.73C84.7401 199.9 87.3601 188.51 88.6601 182.5C91.2901 183.5 97.0401 185.94 97.4701 185.94C97.9001 185.94 100.47 189.79 101.86 191.82C102.29 194.14 105.32 210.51 105.32 210.51Z" fill="#E7C053"/>
<path d="M123.22 136.66L119.84 148.93L116.28 146.35C111.47 142.86 103.41 137 102.98 136.66C102.35 136.18 89.7199 140.55 89.7199 140.55L75.3099 149.89L70.17 162.15L63.39 147.48L52.8699 136.85L38.7499 136.23L35.45 139.71L36.9799 137.58C37.5499 137.58 40.3099 124.99 41.3599 120.08L60.2199 129.83L69.2999 144.74L78.7399 131.2L112.56 120C117 127.44 122.78 136.89 123.22 136.66Z" fill="#F4A54B"/>
<path d="M110.38 159.59C110.26 160.02 99.7301 172.95 99.7301 172.95L99.5701 177.89" fill="#F4A54B"/>
</svg>
