<svg width="170" height="517" viewBox="0 0 170 517" fill="none" xmlns="http://www.w3.org/2000/svg">
<path d="M102.08 43.78L95.7699 40.63C95.7699 40.63 82.1999 49.37 81.7699 49.7C81.3399 50.03 84.3399 40.01 84.3399 40.01L82.9799 40.63L77.6799 48.89L78.4799 54.75L78.2899 63.93L82.9799 62.93L102.2 56.76L105.51 58.34L102.08 43.78Z" fill="#F3EB50"/>
<path d="M37.0599 142.74C36.387 142.211 35.8547 141.524 35.5099 140.74C35.2631 139.815 35.3701 138.831 35.8099 137.98C36.5448 136.438 37.7033 135.138 39.1499 134.23C40.5973 133.34 42.1673 132.666 43.8099 132.23C46.9877 131.231 50.336 130.891 53.6499 131.23C54.8242 131.342 55.9655 131.682 57.0099 132.23C58.1634 132.96 59.078 134.012 59.6413 135.256C60.2045 136.5 60.3917 137.881 60.1799 139.23C59.7008 141.937 58.2055 144.359 55.9999 146" fill="#E7C053"/>
<path d="M118.36 142.35C117.965 143.663 117.212 144.84 116.186 145.749C115.16 146.659 113.901 147.265 112.55 147.5C111.744 147.661 110.907 147.563 110.16 147.22C109.136 146.499 108.405 145.434 108.1 144.22C106.766 141.102 105.842 137.825 105.35 134.47C105.123 133.182 105.309 131.856 105.88 130.68C106.343 129.995 106.982 129.447 107.73 129.095C108.478 128.743 109.307 128.6 110.13 128.68C111.771 128.88 113.321 129.543 114.6 130.59C117.022 132.395 118.898 134.835 120.02 137.64C120.29 138.32 120.67 139.14 121.4 139.18" fill="#E7C053"/>
<path d="M106.74 164.8C109.584 161.814 111.945 158.403 113.74 154.69C114.178 153.877 114.473 152.994 114.61 152.08C114.678 151.622 114.642 151.155 114.503 150.713C114.364 150.271 114.127 149.867 113.81 149.53C113.263 149.054 112.581 148.76 111.86 148.69C110.51 148.552 109.146 148.705 107.86 149.14C105.506 149.855 103.328 151.058 101.471 152.671C99.6127 154.285 98.1159 156.271 97.0779 158.502C96.0399 160.733 95.4839 163.158 95.4464 165.618C95.4088 168.078 95.8904 170.519 96.8599 172.78C96.9994 173.205 97.2601 173.581 97.6099 173.86C97.9514 174.018 98.3261 174.092 98.7021 174.074C99.0781 174.057 99.4444 173.949 99.7699 173.76C106.63 170.76 104.37 171.76 106.12 169.56" fill="#827140"/>
<path d="M127.39 99.23L114 105.37L112.41 105.29L120.55 91.19L113.27 52.31L108.11 67.31L105.5 69.31V58.32L102.04 43.78L99.5 33.1L98.17 27.53L76.46 33.85L60.36 26.43L56.36 32.37C56.36 32.37 56.36 35 56.36 38.01C55.73 40.54 54.07 47.24 54.07 47.95C54.07 48.84 55.2 63.12 55.57 63.87C55.94 64.62 51 74.62 51 74.62L56.64 70.79L60.44 64.2L62.93 73.52L67.17 80.83V101.08L56.37 105.29L55.69 105.06L44.59 101.29L41.27 63.29L47.32 26.44L62.32 5.78998L80.78 0.789978L104.26 7.78998L118.69 33.79L121.63 54.93L118.26 58L126.34 86.79L127.39 99.23Z" fill="#D26D28"/>
<path d="M54.0699 47.11L47.4199 61.37L46.3299 58.23L44.4199 66.08L51.6799 103.68C51.6799 103.68 60.8799 96.57 61.5299 95.68C62.1799 94.79 59.8799 71.01 59.8799 71.01L57.2199 55.25L54.0699 47.11Z" fill="#9C4D23"/>
<path d="M53.76 72.77L54.76 80.83L53 85.35L51.71 103.68C51.71 103.68 62.93 110.83 63.23 110.68C63.53 110.53 71.23 107.47 71.39 107.07C71.55 106.67 75.39 96.33 75.27 94.73C75.15 93.13 75.41 79.15 74.84 78.81C74.27 78.47 68.05 72.45 67.65 72.15C67.25 71.85 63.53 63.23 63.53 63.23L60 61.17L53.76 72.77Z" fill="#9C4D23"/>
<path d="M97.19 80.64L97 84L79.46 101.26L79.75 122.7L69.75 127.52L45.87 118.18C45.87 118.18 45.55 115.18 45.87 114.76L55.78 105.07L56.46 105.3L67.26 101.09V80.84L63 73.52L60.51 64.2V63.93L59.46 58.56C59.46 58.56 59.17 57.56 58.77 56.06L61.6 59.23C61.6 59.23 74.41 63.28 74.88 63.28C75.35 63.28 78.88 67.28 78.88 67.28V74L71.45 72.61L74.56 77.46L78.88 78.85V88.8H84L97.19 80.64Z" fill="#DC9159"/>
<path d="M76.4999 33.85L72.7299 35.37L72.3899 39.99L56.4199 32.37L60.3999 26.43L76.4999 33.85Z" fill="#E1C252"/>
<path d="M99.54 33.1L84.37 40.01L83.01 40.63L82.4 36.04L76.5 33.85L98.21 27.53L99.54 33.1Z" fill="#E1C252"/>
<path d="M102.08 43.78L95.77 40.63C95.77 40.63 82.2 49.37 81.77 49.7C81.34 50.03 84.34 40.01 84.34 40.01L99.51 33.1L102.08 43.78Z" fill="#F2914B"/>
<path d="M79.1099 61.67L80.3599 56.06L82.7499 61.67H79.1099Z" fill="#602852"/>
<path d="M102.08 51L93.7 56.71L83 52.16C83.64 52.16 96.57 43.31 96.57 43.31L102.07 47.83L102.08 51Z" fill="#602852"/>
<path d="M74.8299 63.3C74.3699 63.3 61.5499 59.3 61.5499 59.3L58.7199 56.12C57.8002 53.0208 57.0392 49.8767 56.4399 46.7C56.4399 46.01 56.4399 41.76 56.4399 38.08C56.4399 35.08 56.4399 32.44 56.4399 32.44L61.4399 42.73L61.6299 43.37L61.7999 43.97L57.8799 48.56L64.95 56.8L65.6099 56.43L74.8299 63.3Z" fill="#F2914B"/>
<path d="M150 194.83L150.26 208L140.44 216.41L141.5 189.27L133.58 180.58L122.26 152.4L124 136.51C124.71 136.14 144.15 127.61 144.15 127.61L132.5 149.61C132.5 149.61 146.07 188.21 146.89 187.26C147.71 186.31 154.09 192.26 154.09 192.26L150 194.83Z" fill="#DC9159"/>
<path d="M24.76 164L26.55 199.36C26.55 199.36 23.99 194.13 23.86 194.49C23.73 194.85 23.86 200.81 23.86 202.61L14.23 198.42C14.23 198.42 16.3 176.14 16.3 174.57C16.3 173 20.13 136.12 20.13 136.12L28 140.4C28 140.4 31.8 139.24 34.7 138.4L24.76 164Z" fill="#DC9159"/>
<path d="M163.86 196L148.74 208.69L148.49 195.51L152.6 193C152.6 193 146.21 187 145.39 188C144.57 189 131 150.33 131 150.33L144.22 127.61L163.33 182.87L163.86 196Z" fill="#F1B280"/>
<path d="M108.87 111.62C109.642 113.233 110.497 114.805 111.43 116.33L72.31 128.59L69.74 127.59L79.74 122.76L79.45 101.33L97 84.06L97.78 100.13L112.48 105.33L114.07 105.4L108.87 111.62Z" fill="#E4B17B"/>
<path d="M36.8801 167.7L34.8101 190L33.6301 208L23.8401 202.57C23.8401 200.77 23.7401 194.76 23.8401 194.45C23.9401 194.14 26.5301 199.32 26.5301 199.32L24.7601 164L34.6501 138.42C35.3499 138.188 36.065 138.004 36.7901 137.87L35.2701 140L32.2101 151.66L31.5401 152.88L36.8801 167.7Z" fill="#F1B280"/>
<path d="M76.7 52.34L73.6599 47.85L62.2599 43.33H61.5899L61.3999 42.69L56.4399 32.4L72.4099 40.02L75.7099 45.53L76.7 52.34Z" fill="#F2914B"/>
<path d="M120.59 91.19L112.45 105.29L97.75 100.09L96.97 84.03V84.02L97.19 80.64L100.53 74.11L105.54 58.32V69.26L108.15 67.27L113.31 52.31L120.59 91.19Z" fill="#9C4D23"/>
<path d="M105.54 58.32L100.53 74.11L97.19 80.64L83.91 88.81H78.79V78.86L82.75 78.28L86.88 74.01L91.01 69.26L86.88 72.62L78.79 74.01V67.27L83.01 62.91L102.23 56.74L105.54 58.32Z" fill="#E4B17B"/>
<path d="M91.0099 69.26L86.8899 74.01L82.7499 78.28L78.7899 78.86L74.4699 77.47L71.3599 72.62L77.1099 75.6L81.1799 75.17L86.8899 72.62L91.0099 69.26Z" fill="#A96739"/>
<path d="M86.8899 72.62L81.1799 75.17L77.1099 75.6L71.3599 72.62L78.7899 74.01L86.8899 72.62Z" fill="#9E5C28"/>
<path d="M60.47 64.2L56.67 70.79L51 74.62C51 74.62 56 64.62 55.61 63.87C55.22 63.12 54.11 48.87 54.11 47.95C54.11 47.24 55.77 40.54 56.4 38.01C56.4 41.69 56.4 45.95 56.4 46.64C56.9943 49.8178 57.7554 52.9622 58.68 56.06C59.08 57.52 59.37 58.56 59.37 58.56L60.42 63.93L60.47 64.2Z" fill="#F79941"/>
<path d="M102.08 47.83V51L93.7 56.71L83 52.16C83.64 52.16 96.57 43.31 96.57 43.31L102.08 47.83Z" fill="white" stroke="#231F20" stroke-linejoin="round"/>
<path d="M80.0001 220.13L79.7701 239.5L70.0801 243.9C70.0801 243.9 70.0801 228.62 70.0801 227.9C70.0801 227.9 69.9801 227.9 69.8701 227.9L69.7101 227.98L69.5201 228.09C67.1801 229.44 58.5201 236.29 58.5201 236.29L58.2201 236.06L57.3401 220.06V216.34H57.5501C58.6301 217.61 60.7901 220.07 61.1501 220.07L80.0001 220.13Z" fill="#E7C053"/>
<path d="M133.32 263.51L117 355.5L103 356.89L77.8 274.6C77.8 274.6 88.5401 265.8 99.3101 257.14L106.02 251.75C105.71 259.46 104.07 293.94 104.07 293.94C104.07 293.94 116.77 322.1 117.13 321.54C117.49 320.98 132.89 265.12 133.32 263.51Z" fill="#827140"/>
<path d="M48.0001 511.21L20.4001 512.79C20.4001 512.79 10.4 514 9.61005 513.79L0.810059 511.62L1.57007 508.24L15.4301 508.94H15.8901L26.7001 509.62L40.5701 506.44L41.11 506.32H41.2801C41.6401 506.23 47.5101 504.66 47.6901 504.71C47.9201 508.33 48.0001 511.21 48.0001 511.21Z" fill="#827140"/>
<path d="M26.6299 509.51L40.6099 506.49L26.7399 509.67L15.9299 508.99L15.4699 508.96H15.4599L15.4299 508.95L15.7299 508.96L26.6299 509.51Z" fill="#001750"/>
<path d="M47.7901 504.7C47.6101 504.65 41.7401 506.22 41.3801 506.31L41.33 506.18L41.2801 506.04L40.9601 505.12C40.8801 504.87 40.7701 504.59 40.6601 504.28C40.5501 503.97 40.4201 503.63 40.2801 503.28L40.1301 502.86C40.0701 502.7 40.0101 502.53 39.9401 502.36C39.7101 501.72 39.4601 501.05 39.1801 500.36C39.1101 500.14 39.0201 499.93 38.9301 499.71C38.6401 498.95 38.3501 498.16 38.0401 497.37C37.8601 496.92 37.7001 496.48 37.5301 496.03C37.1001 494.93 36.6801 493.84 36.2901 492.82C36.1434 492.447 36.0034 492.087 35.8701 491.74C35.4601 490.74 35.1 489.74 34.8 489.01C34.7661 488.904 34.7261 488.801 34.6801 488.7L34.5301 488.32C34.4701 488.16 34.4201 488.01 34.3701 487.89L34.2301 487.55C34.1201 487.24 34.05 487.08 34.05 487.08L34.1801 486.3V487.3L49.2401 487.08C49.3101 487.06 47.6101 498.49 47.7901 504.7Z" fill="#FDC050"/>
<path d="M40.2 473.44H40V472.94L40.2 473.44Z" fill="#1C387F" stroke="#9BB8C8" stroke-miterlimit="10"/>
<path d="M41.19 506.36H41.14L40.61 506.48L26.74 509.66L15.93 509H15.47L6.96997 504.75L25.38 495.33L27.82 497.02L28.7 497.62L29.33 498.05L30.16 498.63C34.36 501.52 40.08 505.49 41.19 506.36Z" fill="#FDC050"/>
<path d="M15.4701 508.96L1.57007 508.25L6.93005 504.7L15.4701 508.96Z" fill="#FDC050"/>
<path d="M137.19 502.11L119.36 496.17L118.36 487.1L118.43 487.46L132.83 487.28L137.19 502.11Z" fill="#FDC050"/>
<path d="M141.9 510.41L120.42 509.67C120.42 509.67 117.94 502.12 117.94 501.8L119.4 496.42V496.17L137.23 502.11L141.9 510.41Z" fill="#F4A54B"/>
<path d="M143.05 513.22L131.62 516.62H122.62L116.29 510.8L117.92 502.12V501.8C117.92 502.12 120.4 509.67 120.4 509.67L141.88 510.41L143.05 513.22Z" fill="#827140"/>
<path d="M41.3799 506.31H41.2099L30.2099 498.52L29.3799 497.94L28.7499 497.51L27.8699 496.91L25.4299 495.22L34.1299 487C34.1299 487 34.1999 487.16 34.3099 487.47L34.45 487.81C34.5 487.93 34.5499 488.08 34.6099 488.24L34.7599 488.62C34.8059 488.721 34.846 488.824 34.8799 488.93L40.2099 502.8L40.3599 503.22L41.4099 505.92C41.4208 506.004 41.4375 506.088 41.4599 506.17C41.4218 506.209 41.3942 506.257 41.3799 506.31V506.31Z" fill="#F4A54B"/>
<path d="M55.7401 105.06L45.8401 114.75L41.5601 117.75L41.1401 119.68C40.0901 124.6 37.3901 137.75 36.8201 137.75C36.0949 137.884 35.3799 138.068 34.6801 138.3C31.7801 139.16 27.9801 140.3 27.9801 140.3L20.1401 135.98L16.5901 121.56L26.2101 129.56L37.8701 117.08L48.2101 108.77L38.6001 99.42L44.6701 101.16L55.7401 105.06Z" fill="#827140"/>
<path d="M21.41 255.69C21.41 255.69 14.76 259.77 14.65 260.26C14.54 260.75 5.74003 252.79 4.70003 251.84C4.39003 258.03 4.86 282.1 4.86 282.1L6.59001 283.54L17.59 279.75L26.16 270.41L21.41 255.69ZM6.59001 279.92L7.59001 263.49L10.31 277L6.59001 279.92Z" fill="#E7C053"/>
<path d="M18.45 199.58L16.32 219.34L14.32 204.34L10.32 198.5C10.3171 198.453 10.3171 198.407 10.32 198.36L14.21 198.43L18.45 199.58Z" fill="#E7C053"/>
<path d="M35.8199 211.08L21.7499 245.06L14.6499 234.88L18.4499 199.58L33.6299 208L35.8199 211.08Z" fill="#827140"/>
<path d="M20.8901 254.08L21.4101 255.69L16.3801 251.32H7.56006L11.0001 247.37L21.7501 245.06L20.8901 254.08Z" fill="#F4A54B"/>
<path d="M113.93 172.48C113.93 172.48 108.59 189.8 108.55 189.8L108.61 190.08C107.24 188.08 98.6101 185.79 98.2101 185.79C97.8101 185.79 92.0201 183.35 89.3901 182.34C89.3948 182.307 89.3948 182.273 89.3901 182.24C89.8501 180.14 90.1301 178.72 90.1301 178.72L92.7301 179.82L100.51 167.82L107.14 158.54L112 153.8L117 144.59C119.07 146.1 122.22 152.4 122.22 152.4L113.93 172.48Z" fill="#E7C053"/>
<path d="M112 153.8L103.9 158.89L100.5 167.81L92.7199 179.81L90.1299 178.71L71.3799 170.71L57.2599 178.1L55.7099 178.91L46.9999 165.67L41.6899 166.02H55.7799L66.2799 145.71L70.9299 162L75.5599 148.08C75.5599 148.08 93.4899 162.81 93.8499 162.65C94.2099 162.49 111.49 154.07 112 153.8Z" fill="#827140"/>
<path d="M49.29 254.15L33.54 240.89L39.85 224.26C40.28 224.56 41.66 226.21 42.37 226.75L49.29 254.15Z" fill="#F4A54B"/>
<path d="M58.4701 236.33C58.4701 236.33 46.3501 229.76 42.3701 226.75C41.6601 226.21 40.2801 224.56 39.8501 224.26L46.1101 212.19L57.2901 220.13L58.4701 236.33Z" fill="#827140"/>
<path d="M117.75 224.5L107.15 227.1L84.48 234.88V220.13L112.87 209.97L117.75 224.5Z" fill="#827140"/>
<path d="M117 355.5C117 355.5 112 376.09 111.78 376.97C111.56 377.85 103 356.89 103 356.89L117 355.5Z" fill="#F4A54B"/>
<path d="M79.0901 306.27C79.3501 304.9 70.0901 354.5 70.0901 354.5L64.6201 363.13C64.6201 363.13 67.5501 351.44 67.8101 350.64C68.0701 349.84 76.6901 302.12 76.6901 302.12C76.6901 302.12 67.3201 298.68 68.9801 298.94C71.5651 299.075 74.1552 299.075 76.7401 298.94L81.8101 297.41L94.1901 361.73C93.7201 360.1 78.8301 307.63 79.0901 306.27Z" fill="#FDC050"/>
<path d="M126.38 355.5L133.32 263.5L117 355.5C117 355.5 112 376.09 111.77 376.97C111.54 377.85 103 356.89 103 356.89L77.8001 274.6C77.8001 274.6 88.5401 265.8 99.3101 257.14L107.15 227.14L84.4801 234.92V237.41L79.7801 239.54L70.0901 243.94L58.6401 236.48L58.1701 236.14C56.7601 235.02 45.8801 229.44 42.3701 226.79L49.2901 254.19L51.2901 256.32L70.0901 276.39L53.8601 361.8L40.9101 353.8L28.3401 283.74L24.5901 327.28L30.8201 349.68L28.6601 377L33.4901 387.05L34.2601 473.44H40.0001V416.23C40.0001 415.08 58.1201 375.65 58.1201 375.65L66.5001 394.52L47.4101 473.44L53.2501 473.19L74.0001 392.5L64.6101 363.13C64.6101 363.13 67.5301 351.44 67.7901 350.64C68.0501 349.84 76.6701 302.12 76.6701 302.12C76.6701 302.12 67.3001 298.68 68.9601 298.94C71.545 299.075 74.1352 299.075 76.7201 298.94L81.8001 297.41L94.1701 361.73L91.8801 387.44C91.8801 387.44 115.88 478.58 116.88 479.44C117.036 479.532 117.21 479.59 117.39 479.61C119.993 479.727 122.6 479.707 125.2 479.55H126.08L117.13 419.47C117.13 419.47 127.96 383.47 127.96 382.78C127.96 382.09 133.2 386.2 133.2 386.2L131.37 479.33C132.02 479.33 132.52 479.26 132.76 479.26L132.97 477.55C133.35 464.77 137.75 384.88 138.72 384.63C139.69 384.38 126.38 355.5 126.38 355.5ZM35.1301 372.32L38.6501 355.5C39.6501 355.92 49.4201 366.25 49.4201 366.25L35.1301 372.32Z" fill="#FDC050"/>
<path d="M125 240C118.324 243.333 111.964 247.266 106 251.75L99.29 257.14L107.13 227.14L117.73 224.54L124.56 239L125 240Z" fill="#F4A54B"/>
<path d="M162.56 279.64L159.66 287.06L145.35 294.55L136.85 291.14L133.95 271.75H140.39V283.54L151.48 286.31L162.56 279.64Z" fill="#E7C053"/>
<path d="M154.5 220.13V250.37L150.88 257.1L145.41 250L138.28 217.28C138.28 217.28 144.59 229.74 144.8 230.37C144.89 230.6 149.43 225.71 154.5 220.13Z" fill="#827140"/>
<path d="M169.16 198.26C169.16 198.26 168.82 200.83 168.29 204.78C168.09 205 160.88 213.1 154.51 220.12C149.44 225.7 144.9 230.59 144.81 230.31C144.6 229.68 138.29 217.22 138.29 217.22L140.4 216.4L150.22 207.99L165.35 195.31L166.54 194.13L169.16 198.26Z" fill="#F4A54B"/>
<path d="M133.27 386.17L131.44 479.3C130.14 479.37 128.16 479.46 126.15 479.52L117.2 419.44C117.2 419.44 128.03 383.44 128.03 382.75C128.03 382.06 133.27 386.17 133.27 386.17Z" fill="#827140"/>
<path d="M113.51 119.83L79.5099 131.07L70.0599 144.59L60.9999 129.7L41.1299 119.79L41.5499 117.86L45.8299 114.86C45.5299 115.32 45.8299 118.28 45.8299 118.28L69.7099 127.61L72.2599 128.61L111.39 116.36L113.51 119.83Z" fill="#E7C053"/>
<path d="M70.0901 276.35L53.8601 361.76L40.9101 353.76L28.3401 283.7V283.53C29.0101 286.02 42.1101 319.1 42.3401 319.94C42.5701 320.78 52.9501 295.4 52.9501 295.4L51.3401 256.29L70.0901 276.35Z" fill="#827140"/>
<path d="M49.4199 366.25L35.1299 372.32L38.6499 355.5C39.6799 355.92 49.4199 366.25 49.4199 366.25Z" fill="#F4A54B"/>
<path d="M124.1 136.38L122.26 152.38C122.26 152.38 118.41 146.74 117.04 144.57C113.69 139.26 106.04 134.06 105.61 133.72C104.98 133.24 87.36 133.67 87.36 133.67L75.55 148.06L70.92 162L66.26 145.71L55.74 135.08H38.57L35.26 140L36.79 137.88C37.36 137.88 40.06 124.73 41.11 119.81L61 129.68L70.07 144.59L79.52 131.05L113.52 119.8C118 127.21 123.67 136.61 124.1 136.38Z" fill="#F4A54B"/>
<path d="M156.64 276.98L151.48 281.66L153.28 274.6V262.48L156.64 276.98Z" fill="#827140"/>
<path d="M10.3101 276.98L6.6001 279.92L7.56009 263.49L10.3101 276.98Z" fill="#827140"/>
<path d="M66.47 394.52L47.38 473.44H40.2L39.97 472.94V416.23C39.97 415.08 58.09 375.65 58.09 375.65L66.47 394.52Z" fill="#827140"/>
<path d="M53.2199 473.19L49.2199 487.06L34.1599 487.28L34.1699 486.28L34.2599 473.44L53.2199 473.19Z" fill="#F4A54B"/>
<path d="M132.83 479.23V487.23L118.43 487.41L118.36 487.05L117.46 479.56C120.063 479.677 122.669 479.657 125.27 479.5C127.57 479.44 129.95 479.32 131.44 479.25C132.1 479.26 132.59 479.23 132.83 479.23Z" fill="#F4A54B"/>
<path d="M148.44 108.77L144.25 127.48L126.07 128.85L108.88 111.62L148.44 108.77Z" fill="#F4A54B"/>
<path d="M144.24 127.48C144.24 127.48 124.81 136.01 124.1 136.38C123.67 136.61 117.88 127.16 113.44 119.74L111.34 116.25C110.425 114.758 109.6 113.212 108.87 111.62L126.07 128.85L144.24 127.48Z" fill="#827140"/>
<path d="M48.1801 108.9L37.8401 117.21L26.1801 129.69L16.5601 121.66L24.4501 106.27L44.4201 108.9L38.5701 99.55L48.1801 108.9Z" fill="#F4A54B"/>
<path d="M82.4 36.04L98.21 27.53L76.5 33.85L82.4 36.04Z" fill="#F2914B"/>
<path d="M80.01 66.01L102.23 56.74L105.18 59.69L105.54 58.32L102.23 56.74L83.01 62.91L80.01 66.01Z" fill="#BC7645"/>
<path d="M77.71 66.08L61.53 59.23L74.81 63.28L77.71 66.08Z" fill="#9B5023"/>
<path d="M97.1901 80.64L85.8301 89.43L83.8901 90.37L80.0901 89.49L78.5801 89.02L83.9101 88.81L97.1901 80.64Z" fill="#9B5023"/>
<path d="M67.2 81.97L78.5799 89.02L67.2 80.83V81.97Z" fill="#9B5023"/>
<path d="M67.2 80.83C67.2 80.99 78.7899 88.83 78.7899 88.83H83.9099L83.7399 89.52L78.5799 89.04C78.5799 89.04 68.7799 82.86 68.7299 82.88C68.6799 82.9 67.2 80.83 67.2 80.83Z" fill="#9B5023"/>
<path d="M76.4999 33.85C76.4999 33.85 71.4399 25.28 71.3599 24.52C71.2799 23.76 80.9299 6.37 80.9299 6.37C80.9299 6.37 75.9299 22.06 76.1399 22.25C76.3499 22.44 81.7699 31.78 81.7699 31.78L76.4999 33.85Z" fill="#9C4D23"/>
<path d="M104.32 7.80998C103.7 7.62998 95.77 11.24 95.77 11.24C95.77 11.24 89.35 27.76 89.63 27.53C89.91 27.3 97 12.76 97 12.76L104.32 7.80998Z" fill="#9C4D23"/>
<path d="M47.3701 26.43L63.4601 17.67L72.3901 20.11L62.3801 5.78003L47.3701 26.43Z" fill="#9C4D23"/>
<path d="M99.3101 369.75C99.8301 370.67 114.22 408.63 114.22 408.63L95.3 386.82L99.3101 369.75Z" fill="#F4A54B"/>
<path d="M49.42 372.31L36.7 377L39.9699 416.23L58.0899 375.65L49.42 372.31Z" fill="#F4A54B"/>
<path d="M58.64 236.44L53.22 258.34L70.09 276.35L67.94 287.68L75.22 289.63L81.87 287.93L77.8 274.6L94.19 261.27L102.95 227.89L84.48 234.88V237.37L70.09 243.9L58.64 236.44Z" fill="#F4A54B"/>
<path d="M144.24 127.48C144.24 127.48 155.66 156.56 155.63 156.48C155.6 156.4 132.47 149.63 132.47 149.63L144.24 127.48Z" fill="#827140"/>
<path d="M132.47 149.62L122.26 152.4L124.1 136.38L144.25 127.48" fill="#E7C053"/>
<path d="M155.63 156.47L164.8 182.16L165.34 195.32L146.86 187.27L155.63 156.47Z" fill="#F4A54B"/>
<path d="M146.86 187.27L150.21 208C150.21 208 165.84 195.53 165.34 195.32L146.86 187.27Z" fill="#827140"/>
<path d="M36.7901 137.83L35.2601 140L32.2101 151.67L31.5401 152.89C31.5401 152.89 37.5401 167.04 36.8801 167.75C36.2201 168.46 25.4601 177.75 25.4601 177.75L21.3201 151.67L28.0001 140.4L36.7901 137.83Z" fill="#F4A54B"/>
<path d="M27.9499 140.4L20.1099 136.08L15.4099 185.17L25.4599 177.7L21.3199 151.62L27.9499 140.4Z" fill="#E7C053"/>
<path d="M83.0101 40.63L77.7101 48.89L75.6801 45.5L72.3901 39.99L72.7301 35.37L76.5001 33.85L82.4001 36.04L83.0101 40.63Z" fill="#F3EB50"/>
<path d="M83 62.91L78.78 67.27C78.78 67.27 75.25 63.27 74.78 63.27L65.52 56.36C67.52 55.22 73.7 51.82 74.11 51.82L62.21 43.3L73.6 47.82L76.6 52.3L75.6 45.49L77.6 48.88L78.4 54.74L78.21 63.92L83 62.91Z" fill="#F3EB50"/>
<path d="M16.3901 251.32L21.3901 255.69C21.3901 255.69 14.7401 259.77 14.6301 260.26C14.5201 260.75 5.72004 252.79 4.68004 251.84C4.6717 251.365 4.72549 250.891 4.84004 250.43C5.43004 249.51 9.91005 201.38 10.28 198.43L14.28 204.27L16.28 219.27L14.61 234.81L21.7001 244.99L11 247.37L7.57005 251.32H16.3901Z" fill="#F3EB50"/>
<path d="M21.7501 287.82L13.9001 289.63L6.6001 283.54L17.6101 279.75L26.1801 270.41L26.3301 276.77L21.7501 287.82Z" fill="#F3EB50"/>
<path d="M90.1501 178.72C90.1501 178.72 89.8701 180.14 89.4101 182.24C89.4147 182.273 89.4147 182.307 89.4101 182.34C88.1201 188.34 85.5201 199.75 84.5001 199.58C83.1201 199.34 70.11 193.88 70.11 193.88L58.7001 199.58L57.3101 178.15L71.4401 170.76L90.1501 178.72Z" fill="#F3EB50"/>
<path d="M117 144.59L112 153.8C111.46 154.07 94.18 162.49 93.83 162.65C93.48 162.81 75.52 148.08 75.52 148.08L87.33 133.69C87.33 133.69 104.95 133.26 105.58 133.74C106.05 134.08 112.22 141.1 117 144.59Z" fill="#F3EB50"/>
<path d="M70.09 243.9L58.47 236.33C60.32 234.83 67.91 229.02 69.7 228.02L69.86 227.94C69.97 227.94 70.04 227.88 70.07 227.94C70.1 228 70.07 227.94 70.07 227.94C70.13 228.62 70.09 243.9 70.09 243.9Z" fill="#F3EB50"/>
<path d="M133.32 263.47C132.89 265.08 117.48 320.94 117.13 321.47C116.78 322 104.07 293.87 104.07 293.87C104.07 293.87 105.71 259.39 106.02 251.68C111.981 247.221 118.333 243.312 125 240L133.32 263.47Z" fill="#F3EB50"/>
<path d="M168.28 204.79C168.08 205.01 160.87 213.11 154.5 220.13V250.37L150.88 257.1L145.41 250L134.87 265.5L133.95 271.8H140.39V283.59L151.48 286.36L162.56 279.69C162.56 279.69 162.3 247.53 162.56 246.43C162.77 245.54 166.53 217.74 168.28 204.79ZM151.48 281.66L153.28 274.6V262.48L156.65 276.98L151.48 281.66Z" fill="#F3EB50"/>
<path d="M66.26 145.71L55.75 166.02H41.66L39.58 164.56L32.21 151.62L35.27 139.96V139.95L38.57 136.47L55.74 135.09L66.26 145.71Z" fill="#F3EB50"/>
<path d="M84.48 220.13V234.88V237.37L79.78 239.5L80.01 220.13H61.1C60.74 220.13 58.58 217.67 57.5 216.4L84.5 215.24V220.13H84.48Z" fill="#F3EB50"/>
<path d="M52.9001 295.39C52.9001 295.39 42.4501 320.8 42.2901 319.93C42.1301 319.06 29.0001 286 28.3401 283.52V282.63L32.8401 242.41L33.5001 240.91L49.2501 254.17L51.2501 256.3L52.9001 295.39Z" fill="#F3EB50"/>
<path d="M148.44 108.77L108.88 111.62L114.17 105.24L127.51 99.1L129.7 97.78L148.44 108.77Z" fill="#F3EB50"/>
<path d="M44.42 108.9L24.45 106.27L38.5699 99.55L44.42 108.9Z" fill="#F3EB50"/>
<path d="M122.26 152.4L133.53 180.58L141.45 189.27L140.39 216.41C140.39 216.41 150.24 209.41 150.21 208C150.18 206.59 146.86 187.27 146.86 187.27L155.63 156.47C155.63 156.47 133.86 148.47 132.99 148.63C132.12 148.79 122.26 152.4 122.26 152.4Z" fill="#F3EB50"/>
<path d="M36.8801 167.71L33.6401 208L22.3901 201.94L25.4601 177.7C25.4601 177.7 36.1601 168.19 36.8801 167.71Z" fill="#F3EB50"/>
<path d="M25.46 177.7L22.39 201.94L18.45 199.58L14.21 198.38C14.21 198.38 17.21 166.91 17.12 167.3C17.03 167.69 25.46 177.7 25.46 177.7Z" fill="#F4A54B"/>
<path d="M112.87 210L84.48 220.16V215.27L57.29 216.44V220.16L46.11 212.22L44.02 178.22L38.73 170.17L36.88 167.71L31.54 152.85L32.21 151.63L39.58 164.57L41.66 166.03L46.97 165.68L55.74 179L57.29 178.19L58.68 199.62L70.09 193.92L84.48 199.62L89.39 182.38C92.02 183.38 97.77 185.83 98.21 185.83C98.65 185.83 107.21 188.09 108.61 190.12C109.06 192.39 112.87 210 112.87 210Z" fill="#E7C053"/>
<path d="M60.4499 209.71L70.3399 208.55L81.5499 209.16L84.4799 215.24L70.3399 214.55L58.1699 215.8L60.4499 209.71Z" fill="#E7C053"/>
<path d="M113.51 167.39C113.37 167.83 102.51 180.46 102.51 180.46L102.19 185.87L113.51 167.39Z" fill="#F4A54B"/>
<path d="M113.1 161.76C112.93 162.18 101.19 174.01 101.19 174.01L100.48 179.39L113.1 161.76Z" fill="#F4A54B"/>
<path d="M82.7499 61.67H79.1099L80.3599 56.06L82.7499 61.67Z" fill="#F4A54B"/>
<path d="M74.1401 51.83C73.7301 51.83 67.59 55.23 65.55 56.37L64.8901 56.74L57.8101 48.5L60.9201 43.5L61.3801 42.68L74.1401 51.83Z" fill="white" stroke="#231F20" stroke-linejoin="round"/>
<path d="M136.91 184.29C137.26 184.68 147.36 185.17 147.36 185.17L152.14 184.73L141.45 189.27L136.91 184.29Z" fill="#827140"/>
<path d="M90.15 178.5L89.95 179.5L89.41 182.04V182.11L84.5 199.35L71.17 204L58.68 199.34L57.29 177.91L71.42 170.52L90.15 178.5Z" fill="#F3EB50"/>
</svg>
