<svg width="169" height="517" viewBox="0 0 169 517" fill="none" xmlns="http://www.w3.org/2000/svg">
<path d="M36.5701 142.32C35.9028 141.785 35.3717 141.1 35.0201 140.32C34.7781 139.394 34.8849 138.412 35.3201 137.56C36.0578 136.017 37.2198 134.716 38.6701 133.81C40.1116 132.915 41.6789 132.241 43.3201 131.81C46.5003 130.806 49.8529 130.466 53.1701 130.81C54.3442 130.923 55.4852 131.263 56.5301 131.81C57.678 132.546 58.5883 133.599 59.1509 134.841C59.7134 136.083 59.9042 137.462 59.7001 138.81C59.2263 141.522 57.7301 143.949 55.5201 145.59" fill="#EE4023"/>
<path d="M117.88 141.93C117.486 143.243 116.734 144.42 115.707 145.328C114.681 146.236 113.421 146.839 112.07 147.07C111.262 147.238 110.421 147.144 109.67 146.8C108.652 146.075 107.925 145.012 107.62 143.8C106.286 140.682 105.362 137.405 104.87 134.05C104.638 132.763 104.824 131.435 105.4 130.26C105.861 129.576 106.498 129.029 107.245 128.676C107.991 128.324 108.819 128.181 109.64 128.26C111.285 128.458 112.839 129.12 114.12 130.17C116.537 131.981 118.411 134.419 119.54 137.22C119.81 137.9 120.19 138.72 120.92 138.76" fill="#EE4023"/>
<path d="M106.26 164.38C109.104 161.394 111.466 157.983 113.26 154.27C113.699 153.457 113.993 152.574 114.13 151.66C114.193 151.202 114.154 150.736 114.016 150.295C113.878 149.854 113.643 149.45 113.33 149.11C112.783 148.634 112.102 148.34 111.38 148.27C110.03 148.133 108.666 148.286 107.38 148.72C105.024 149.432 102.845 150.634 100.985 152.247C99.1255 153.859 97.6274 155.846 96.589 158.078C95.5506 160.31 94.9952 162.736 94.9591 165.197C94.9231 167.658 95.4073 170.099 96.38 172.36C96.4484 172.66 96.5924 172.939 96.7983 173.168C97.0042 173.397 97.2652 173.57 97.5567 173.67C97.8481 173.77 98.1602 173.794 98.4636 173.74C98.7669 173.686 99.0514 173.555 99.29 173.36C106.15 170.36 103.89 171.36 105.64 169.16" fill="#EE4023"/>
<path d="M126.9 98.8099L113.55 105L111.97 104.92L120.11 90.8199L112.83 51.9399L107.67 66.9399L105.06 68.9399V57.8999L101.6 43.3599L99.05 32.6799L97.7301 27.1099L76.0001 33.4299L59.9201 25.9999L55.9201 31.9399C55.9201 31.9399 55.9201 34.5699 55.9201 37.5799C55.2901 40.1099 53.6401 46.8099 53.6401 47.5199C53.6401 48.4099 54.7701 62.6899 55.1401 63.4399C55.5101 64.1899 50.5301 74.1899 50.5301 74.1899L56.1601 70.3599L59.9601 63.7599L62.4501 73.0899L66.6901 80.3999V100.65L55.8901 104.86L55.2101 104.63L44.1201 100.86L40.8 62.8599L46.8 26.0099L61.8 5.35986L80.2501 0.359863L103.74 7.35986L118.17 33.3599L121.1 54.4999L117.68 57.5599L125.75 86.3499L126.9 98.8099Z" fill="black"/>
<path d="M53.5899 46.6899L46.9399 60.9999L45.8499 57.8599L43.9399 65.7099L51.1899 103.31C51.1899 103.31 60.3999 96.1999 61.0399 95.3099C61.6799 94.4199 59.39 70.6399 59.39 70.6399L56.7299 54.8799L53.5899 46.6899Z" fill="#404041"/>
<path d="M53.27 72.35L54.27 80.41L52.47 84.92L51.17 103.26C51.17 103.26 62.4 110.41 62.7 110.31C63 110.21 70.7 107.1 70.86 106.7C71.02 106.3 74.86 95.96 74.74 94.36C74.62 92.76 74.87 78.78 74.3 78.44C73.73 78.1 67.52 72.08 67.11 71.78C66.7 71.48 63 62.86 63 62.86L59.52 60.75L53.27 72.35Z" fill="#404041"/>
<path d="M96.7001 80.2201L96.49 83.6001L79 100.87L79.2901 122.31L69.29 127.13L45.41 117.79C45.41 117.79 45.09 114.79 45.41 114.36L55.31 104.67L55.99 104.9L66.79 100.69V80.4401L62.55 73.1301L60 63.7701V63.5101L59 58.1401L58.3 55.6401L61.13 58.8101C61.13 58.8101 73.95 62.8601 74.41 62.8601C74.87 62.8601 78.41 66.8601 78.41 66.8601V73.6001L70.99 72.2101L74.1 77.0601L78.41 78.4501V88.4001H83.5401L96.7001 80.2201Z" fill="#9F5A2A"/>
<path d="M76.0199 33.4298L72.2499 34.9498L71.8999 39.5698L55.9299 31.9498L59.92 26.0098L76.0199 33.4298Z" fill="#F4831F"/>
<path d="M99.05 32.6899L83.88 39.5899L82.53 40.2099L81.91 35.6199L76.02 33.4299L97.73 27.1099L99.05 32.6899Z" fill="#F4831F"/>
<path d="M101.6 43.3602L95.29 40.2102C95.29 40.2102 81.72 48.9502 81.29 49.2802C80.86 49.6102 83.85 39.5902 83.85 39.5902L99.02 32.6802L101.6 43.3602Z" fill="#EE4023"/>
<path d="M101.6 43.3598L95.2899 40.2099C95.2899 40.2099 81.7199 48.9498 81.2899 49.2798C80.8599 49.6098 83.8499 39.5898 83.8499 39.5898L82.4999 40.2099L77.2 48.4698L77.9899 54.3298L77.7999 63.5098L82.4999 62.5098L101.72 56.3398L105.03 57.9198L101.6 43.3598ZM78.5999 61.2498L79.8499 55.6398L82.2399 61.2498H78.5999ZM101.6 50.6098L93.2199 56.3199L82.5299 51.7399C83.1599 51.7399 96.0999 42.8898 96.0999 42.8898L101.6 47.4099V50.6098Z" fill="#EE4023"/>
<path d="M74.35 62.88C73.88 62.88 61.07 58.88 61.07 58.88L58.24 55.7C57.3154 52.6022 56.5543 49.4578 55.96 46.28C55.96 45.59 55.96 41.34 55.96 37.66C55.96 34.66 55.96 32.02 55.96 32.02L60.96 42.31L61.14 42.95L61.32 43.55L57.39 48.14L64.47 56.38L65.13 56.01L74.35 62.88Z" fill="#EE4023"/>
<path d="M149.47 194.41L149.73 207.58L139.9 216L141 188.85L133 180.16L121.78 152L123.49 136.11C124.2 135.74 143.63 127.21 143.63 127.21L132 149.2C132 149.2 145.56 187.8 146.38 186.85C147.2 185.9 153.59 191.85 153.59 191.85L149.47 194.41Z" fill="#DC9159"/>
<path d="M24.28 163.54L26.07 198.9C26.07 198.9 23.51 193.67 23.38 194.03C23.25 194.39 23.38 200.35 23.38 202.15L13.72 198C13.72 198 15.8 175.72 15.8 174.15C15.8 172.58 19.63 135.7 19.63 135.7L27.46 140.02C27.46 140.02 31.27 138.86 34.16 138.02L24.28 163.54Z" fill="#DC9159"/>
<path d="M163.38 195.6L148.26 208.29L148 195.11L152.11 192.59C152.11 192.59 145.72 186.59 144.9 187.59C144.08 188.59 130.52 149.94 130.52 149.94L143.73 127.22L162.85 182.48L163.38 195.6Z" fill="#F1B280"/>
<path d="M108.39 111.2C109.162 112.813 110.017 114.385 110.95 115.91L71.82 128.17L69.26 127.17L79.26 122.35L79 100.91L96.54 83.6401L97.32 99.7101L112.02 104.91L113.61 104.98L108.39 111.2Z" fill="#A6662F"/>
<path d="M36.39 167.28L34.33 189.54L33.15 207.54L23.36 202.11C23.36 200.31 23.26 194.3 23.36 193.99C23.46 193.68 26.05 198.86 26.05 198.86L24.26 163.5L34.16 138C34.8627 137.766 35.5812 137.582 36.31 137.45L34.78 139.57L31.78 151.23L31.11 152.45L36.39 167.28Z" fill="#F1B280"/>
<path d="M76.21 51.9102L73.17 47.4302L61.78 42.9102H61.1L60.92 42.2602L55.96 31.9702L71.93 39.6002L75.22 45.1002L76.21 51.9102Z" fill="#EE4023"/>
<path d="M82.53 40.2102L77.23 48.4702L75.2 45.0802L71.9 39.5702L72.25 34.9502L76.02 33.4302L81.91 35.6202L82.53 40.2102Z" fill="#F4831F"/>
<path d="M120.11 90.7701L111.97 104.87L97.27 99.6701L96.49 83.6101V83.6001L96.7 80.2201L100.04 73.6901L105.06 57.9001V68.8401L107.67 66.8501L112.83 51.8901L120.11 90.7701Z" fill="#404041"/>
<path d="M105.06 57.9001L100.04 73.6901L96.7001 80.2201L83.4301 88.3901H78.3V78.4401L82.2601 77.8601L86.4001 73.5901L90.5301 68.8401L86.4001 72.2001L78.3 73.5901V66.8501L82.5301 62.4901L101.75 56.3101L105.06 57.9001Z" fill="#A6662F"/>
<path d="M90.53 68.8398L86.4 73.5898L82.27 77.8598L78.31 78.4398L73.99 77.0499L70.88 72.1998L76.63 75.1798L80.7 74.7498L86.4 72.1998L90.53 68.8398Z" fill="#A96739"/>
<path d="M86.4 72.2002L80.7 74.7502L76.63 75.1802L70.88 72.2002L78.31 73.5902L86.4 72.2002Z" fill="#9E5C28"/>
<path d="M82.26 61.2501H78.62L79.88 55.6401L82.26 61.2501Z" fill="#7C4B20"/>
<path d="M82.53 62.4899L78.3 66.8499C78.3 66.8499 74.78 62.8499 74.3 62.8499L65.07 55.9999C67.07 54.8599 73.25 51.4599 73.66 51.4599L61.75 42.9399L73.15 47.4599L76.15 51.9399L75.15 45.1299L77.15 48.5199L77.94 54.3799L77.75 63.5599L82.53 62.4899Z" fill="#EE4023"/>
<path d="M60.0001 63.7699L56.2001 70.3698L50.5701 74.1998C50.5701 74.1998 55.5701 64.1998 55.1801 63.4498C54.7901 62.6998 53.6801 48.4498 53.6801 47.5298C53.6801 46.8198 55.3301 40.1198 55.9601 37.5898C55.9601 41.2698 55.9601 45.5298 55.9601 46.2198C56.5593 49.3966 57.3203 52.5407 58.2401 55.6398L58.9401 58.1398L59.9401 63.5098L60.0001 63.7699Z" fill="#50493F"/>
<path d="M101.6 47.4101V50.6101L93.22 56.3201L82.53 51.7401C83.16 51.7401 96.1 42.8901 96.1 42.8901L101.6 47.4101Z" fill="white" stroke="#231F20" stroke-linejoin="round"/>
<path d="M73.66 51.4098C73.25 51.4098 67.1 54.8098 65.07 55.9498C64.65 56.1698 64.41 56.3198 64.41 56.3198L57.33 48.0798L60.43 43.0798L60.89 42.2598L73.66 51.4098Z" fill="white" stroke="#231F20" stroke-linejoin="round"/>
<path d="M79.53 219.71L79.3 239.08L69.61 243.48C69.61 243.48 69.61 228.2 69.61 227.48C69.61 227.48 69.5 227.48 69.39 227.48L69.24 227.56L69.05 227.67C66.71 229.02 58.05 235.87 58.05 235.87C58.05 235.87 57.95 235.78 57.76 235.64L56.87 219.64V216H57C58.09 217.27 60.24 219.73 60.61 219.73L79.53 219.71Z" fill="#EE4023"/>
<path d="M132.83 263.09L116.55 355.09L102.47 356.48L77.3101 274.19C77.3101 274.19 88.0601 265.39 98.8201 256.73L105.54 251.34C105.23 259.05 103.54 293.53 103.54 293.53C103.54 293.53 116.24 321.69 116.6 321.13C116.96 320.57 132.4 264.7 132.83 263.09Z" fill="#7C4B20"/>
<path d="M47.5101 510.79L19.9201 512.37C19.9201 512.37 9.92006 513.58 9.12006 513.37L0.320068 511.2L1.09006 507.82L14.9501 508.52H15.4001L26.2101 509.2L40.08 506.02L40.6201 505.9H40.7801C41.1401 505.81 47.0101 504.24 47.1901 504.29C47.4301 507.91 47.5101 510.79 47.5101 510.79Z" fill="#7C4B20"/>
<path d="M26.14 509.09L40.1299 506.07L26.2499 509.25L15.4399 508.57L14.9899 508.54H14.9799L14.95 508.53L15.2499 508.54L26.14 509.09Z" fill="#001750"/>
<path d="M47.31 504.28C47.13 504.28 41.26 505.8 40.9 505.89L40.85 505.76V505.62L40.53 504.7C40.44 504.45 40.34 504.17 40.22 503.86C40.1 503.55 39.99 503.21 39.85 502.86L39.69 502.44C39.64 502.28 39.58 502.11 39.51 501.94L38.75 499.94C38.67 499.72 38.59 499.51 38.5 499.29C38.21 498.53 37.91 497.74 37.6 496.95L37.1 495.61C36.67 494.51 36.25 493.42 35.86 492.4L35.43 491.32C35.03 490.32 34.67 489.32 34.36 488.59C34.3294 488.485 34.2926 488.381 34.25 488.28L34.1 487.9C34.04 487.74 33.98 487.59 33.94 487.47L33.8 487.13C33.69 486.82 33.62 486.66 33.62 486.66L33.75 485.88V486.88L48.8 486.66C48.83 486.64 47.13 498.07 47.31 504.28Z" fill="#EE4023"/>
<path d="M39.72 473H39.48V472.5L39.72 473Z" fill="#1C387F" stroke="#9BB8C8" stroke-miterlimit="10"/>
<path d="M40.7 505.94L40.16 506.06L26.29 509.24L15.48 508.56H15.03L6.53003 504.31L24.94 494.89L27.38 496.58L28.25 497.18L28.88 497.61L29.71 498.19C33.88 501.1 39.59 505.07 40.7 505.94Z" fill="#EE4023"/>
<path d="M14.98 508.54L1.08997 507.83L6.43997 504.28H6.44998L14.98 508.54Z" fill="#F8B517"/>
<path d="M136.71 501.69L118.88 495.75L117.88 486.68L117.95 487.03L132.35 486.86L136.71 501.69Z" fill="#EE4023"/>
<path d="M141.42 510L119.94 509.26C119.94 509.26 117.46 501.71 117.46 501.39L118.91 496.01V495.76L136.74 501.7L141.42 510Z" fill="#F8B517"/>
<path d="M142.57 512.8L131.13 516.2H122.13L115.8 510.38L117.44 501.7V501.38C117.44 501.7 119.92 509.25 119.92 509.25L141.4 509.99L142.57 512.8Z" fill="#7C4B20"/>
<path d="M40.9 505.89H40.74L29.74 498.1L28.91 497.52L28.28 497.09L27.41 496.49L24.97 494.8L33.67 486.58C33.67 486.58 33.74 486.74 33.85 487.05L33.99 487.39C33.99 487.51 34.09 487.66 34.15 487.82L34.3 488.2C34.3426 488.301 34.3793 488.405 34.41 488.51L39.74 502.38L39.9 502.8L40.9 505.5C40.9 505.55 40.9 505.71 40.95 505.75C41 505.79 40.89 505.85 40.9 505.89Z" fill="#F4831F"/>
<path d="M55.25 104.64L45.35 114.33L41.06 117.33C41.06 117.33 40.91 118.07 40.65 119.26C39.6 124.18 36.9 137.33 36.33 137.33C35.6011 137.462 34.8827 137.646 34.18 137.88C31.29 138.74 27.48 139.88 27.48 139.88L19.65 135.56L16.09 121.13L25.72 129.13L37.38 116.65L47.71 108.34L38.11 98.9902L44.18 100.73L55.25 104.64Z" fill="#7C4B20"/>
<path d="M20.93 255.27C20.93 255.27 14.2801 259.35 14.1701 259.84C14.0601 260.33 5.26004 252.37 4.22004 251.42C3.91004 257.61 4.38005 281.68 4.38005 281.68L6.11003 283.12L17.11 279.33L25.7001 270L20.93 255.27ZM6.11003 279.5L7.11003 263.07L9.85005 276.55L6.11003 279.5Z" fill="#EE4023"/>
<path d="M17.9999 199.16L15.8699 218.92L13.8699 203.87L9.86993 198.03C9.86497 197.984 9.86497 197.937 9.86993 197.89L13.7599 197.96L17.9999 199.16Z" fill="#F4831F"/>
<path d="M15.9 250.9L20.9 255.27C20.9 255.27 14.25 259.35 14.14 259.84C14.03 260.33 5.23003 252.37 4.19003 251.42C4.17605 250.945 4.22993 250.47 4.35003 250.01C4.93003 249.09 9.41003 200.96 9.79003 198.01L13.79 203.85L15.79 218.9L14.12 234.44L21.21 244.62L10.51 247L7.08001 250.95L15.9 250.9Z" fill="#F8B517"/>
<path d="M35.34 210.65L21.26 244.64L14.17 234.46L17.97 199.16L33.15 207.58L35.34 210.65Z" fill="#7C4B20"/>
<path d="M20.4 253.66L20.93 255.27L15.9 250.9H7.07996L10.51 246.95L21.26 244.64L20.4 253.66Z" fill="#7C4B20"/>
<path d="M21.26 287.4L13.41 289.21L6.10999 283.12L17.13 279.33L25.7 269.99L25.84 276.35L21.26 287.4Z" fill="#F8B517"/>
<path d="M113.45 172.06C113.45 172.06 108.11 189.38 108.07 189.38L108.13 189.66C106.76 187.66 98.13 185.37 97.72 185.37C97.31 185.37 91.54 182.93 88.91 181.92C88.9053 181.887 88.9053 181.853 88.91 181.82C89.36 179.72 89.65 178.3 89.65 178.3L92.24 179.4L100.02 167.4L106.65 158.12L111.53 153.39L116.53 144.18C118.61 145.69 121.76 151.99 121.76 151.99L113.45 172.06Z" fill="#EE4023"/>
<path d="M111.55 153.38L103.45 158.47L100 167.39L92.22 179.39L89.63 178.29L70.89 170.29L56.76 177.68L55.21 178.49L46.45 165.2L41.13 165.55H55.23L65.73 145.24L70.4 161.53L75.03 147.61C75.03 147.61 92.97 162.34 93.33 162.18C93.69 162.02 111 153.65 111.55 153.38Z" fill="#7C4B20"/>
<path d="M89.6701 178.3C89.6701 178.3 89.3801 179.72 88.9301 181.82C88.9254 181.853 88.9254 181.887 88.9301 181.92C87.6301 187.92 85.0301 199.33 84.0101 199.16C82.6401 198.92 69.6301 193.45 69.6301 193.45L58.2101 199.16L56.8201 177.73L70.9501 170.34L89.6701 178.3Z" fill="#F8B517"/>
<path d="M116.55 144.17L111.55 153.38C111.01 153.65 93.7301 162.07 93.3701 162.23C93.0101 162.39 75.0701 147.66 75.0701 147.66L86.8701 133.27C86.8701 133.27 104.5 132.84 105.13 133.27C105.56 133.66 111.74 140.68 116.55 144.17Z" fill="#F8B517"/>
<path d="M48.8101 253.73L33.0601 240.47L39.36 223.84C39.8 224.14 41.1701 225.84 41.8801 226.33L48.8101 253.73Z" fill="#F8B517"/>
<path d="M58 235.91C58 235.91 45.89 229.34 41.9 226.33C41.19 225.79 39.82 224.14 39.38 223.84L45.64 211.77L56.82 219.71L58 235.91Z" fill="#7C4B20"/>
<path d="M69.61 243.48L58 235.91C59.86 234.41 67.44 228.6 69.24 227.6L69.39 227.52C69.5 227.52 69.57 227.46 69.61 227.52C69.65 227.58 69.61 227.52 69.61 227.52C69.65 228.2 69.61 243.48 69.61 243.48Z" fill="#F8B517"/>
<path d="M117.27 224.08L106.66 226.68L84 234.46V219.71L112.39 209.55L117.27 224.08Z" fill="#7C4B20"/>
<path d="M116.55 355.08C116.55 355.08 111.55 375.67 111.32 376.55C111.09 377.43 102.47 356.47 102.47 356.47L116.55 355.08Z" fill="#F8B517"/>
<path d="M78.61 305.85C78.87 304.48 69.61 354.08 69.61 354.08L64.14 362.71C64.14 362.71 67.07 351.02 67.32 350.22C67.57 349.42 76.2 301.7 76.2 301.7C76.2 301.7 66.83 298.26 68.5 298.52C71.0849 298.655 73.6751 298.655 76.26 298.52L81.33 296.99L93.7 361.3C93.24 359.68 78.35 307.21 78.61 305.85Z" fill="#F8B517"/>
<path d="M125.9 355.08L132.84 263.08L116.56 355.08C116.56 355.08 111.56 375.67 111.33 376.55C111.1 377.43 102.48 356.47 102.48 356.47L77.32 274.18C77.32 274.18 88.07 265.38 98.83 256.72L106.67 226.72L84 234.46V237L79.31 239.13L69.62 243.53L58.15 236L57.69 235.66C56.27 234.54 45.39 228.96 41.88 226.31L48.81 253.71L50.81 255.84L69.62 275.91L53.38 361.32L40.44 353.32L27.87 283.26L24.12 326.8L30.34 349.2L28.19 376.57L33 386.63L33.76 473.02H39.48V415.81C39.48 414.66 57.6 375.23 57.6 375.23L66 394.1L46.9 473L52.73 472.75L73.54 392.06L64.14 362.69C64.14 362.69 67.06 351 67.32 350.2C67.58 349.4 76.21 301.68 76.21 301.68C76.21 301.68 66.84 298.24 68.5 298.5C71.0849 298.635 73.6751 298.635 76.26 298.5L81.33 296.97L93.7 361.3L91.42 387.01C91.42 387.01 115.42 478.15 116.42 479.01C116.577 479.101 116.75 479.158 116.93 479.18C119.533 479.298 122.14 479.275 124.74 479.11H125.63L116.72 419C116.72 419 127.55 383 127.55 382.31C127.55 381.62 132.79 385.73 132.79 385.73L131 478.88L132.38 478.8L132.6 477.1C132.98 464.32 137.37 384.43 138.34 384.18C139.31 383.93 125.9 355.08 125.9 355.08ZM34.65 371.9L38.17 355.08C39.17 355.5 48.94 365.83 48.94 365.83L34.65 371.9Z" fill="#F4831F"/>
<path d="M124.47 239.59C117.817 242.921 111.481 246.851 105.54 251.33L98.8201 256.72L106.66 226.72L117.27 224.12L124.07 238.6L124.47 239.59Z" fill="#F8B517"/>
<path d="M132.84 263.05C132.41 264.66 117.01 320.52 116.66 321.05C116.31 321.58 103.6 293.45 103.6 293.45C103.6 293.45 105.24 258.97 105.6 251.26C111.541 246.781 117.877 242.851 124.53 239.52L132.84 263.05Z" fill="#EE4023"/>
<path d="M167.79 204.37C167.6 204.59 160.39 212.69 154.01 219.71V250L150.4 256.73L144.93 249.58L134.39 265L133.46 271.3H139.91V283.09L151 285.89L162.09 279.22C162.09 279.22 161.83 247.06 162.09 245.96C162.29 245.12 166.05 217.32 167.79 204.37ZM151 281.24L152.81 274.18V262.06L156.17 276.55L151 281.24Z" fill="#F8B517"/>
<path d="M162.08 279.22L159.18 286.64L144.87 294.13L136.36 290.72L133.46 271.33H139.91V283.12L150.99 285.88L162.08 279.22Z" fill="#EE4023"/>
<path d="M154 219.71V250L150.39 256.73L144.92 249.58L137.78 216.86C137.78 216.86 144.1 229.32 144.31 229.95C144.41 230.18 149 225.29 154 219.71Z" fill="#7C4B20"/>
<path d="M168.68 197.84C168.68 197.84 168.33 200.41 167.8 204.36C167.61 204.58 160.4 212.68 154.02 219.7C148.96 225.28 144.42 230.17 144.33 229.89C144.12 229.26 137.8 216.8 137.8 216.8L139.92 215.98L149.74 207.57L164.86 194.89L166.05 193.71L168.68 197.84Z" fill="#EE4023"/>
<path d="M132.79 385.75L131 478.88C129.69 478.95 127.72 479.04 125.71 479.1L116.72 419C116.72 419 127.55 383 127.55 382.31C127.55 381.62 132.79 385.75 132.79 385.75Z" fill="#F8B517"/>
<path d="M113 119.41L79 130.65L69.56 144.17L60.48 129.28L40.62 119.37C40.88 118.18 41.03 117.44 41.03 117.44L45.32 114.44C45.01 114.9 45.32 117.86 45.32 117.86L69.2 127.19L71.76 128.19L110.88 115.94L113 119.41Z" fill="#F4831F"/>
<path d="M65.77 145.29L55.26 165.6H41.17L39.1 164.14L31.73 151.19L34.78 139.54V139.53L38.08 136.05L55.25 134.67L65.77 145.29Z" fill="#F8B517"/>
<path d="M84 219.71V234.46V237L79.31 239.13L79.54 219.76H60.62C60.25 219.76 58.1 217.3 57.01 216.03L84.01 214.87V219.76L84 219.71Z" fill="#F8B517"/>
<path d="M52.41 295C52.41 295 42 320.38 41.8 319.51C41.6 318.64 28.52 285.59 27.86 283.1V282.21L32.36 241.99L33.03 240.49L48.78 253.75L50.78 255.88L52.41 295Z" fill="#EE4023"/>
<path d="M69.61 275.93L53.37 361.34L40.43 353.34L27.86 283.28V283.11C28.52 285.6 41.63 318.68 41.8 319.52C41.97 320.36 52.41 295 52.41 295L50.8 255.89L69.61 275.93Z" fill="#7C4B20"/>
<path d="M48.94 365.83L34.65 371.9L38.17 355.08C39.2 355.5 48.94 365.83 48.94 365.83Z" fill="#F8B517"/>
<path d="M123.62 136L121.78 152C121.78 152 117.92 146.36 116.55 144.19C113.2 138.88 105.55 133.68 105.13 133.34C104.5 132.86 86.87 133.34 86.87 133.34L75.07 147.73L70.44 161.65L65.78 145.36L55.25 134.73H38.09L34.78 139.59L36.31 137.47C36.88 137.47 39.58 124.32 40.63 119.4L60.49 129.32L69.57 144.23L79 130.63L113 119.37C117.47 126.79 123.18 136.19 123.62 136Z" fill="#EE4023"/>
<path d="M156.16 276.56L150.99 281.24L152.8 274.18V262.06L156.16 276.56Z" fill="#7C4B20"/>
<path d="M9.82001 276.56L6.10999 279.5L7.07999 263.07L9.82001 276.56Z" fill="#7C4B20"/>
<path d="M66 394.1L46.9 473H39.72L39.48 472.5V415.81C39.48 414.66 57.6 375.23 57.6 375.23L66 394.1Z" fill="#F8B517"/>
<path d="M52.7399 472.77L48.7399 486.64L33.6799 486.86L33.6899 485.86L33.7799 473.02L52.7399 472.77Z" fill="#7C4B20"/>
<path d="M132.35 478.8V486.86L118 487L117.93 486.64L117.02 479.15C119.623 479.268 122.23 479.244 124.83 479.08C127.14 479.08 129.51 478.91 131 478.84L132.35 478.8Z" fill="#EE4023"/>
<path d="M147.95 108.35L108.39 111.2L113.68 104.82L127.03 98.6799L129.21 97.3599L147.95 108.35Z" fill="#F8B517"/>
<path d="M147.95 108.35L143.76 127.06L125.58 128.43L108.39 111.2L147.95 108.35Z" fill="#EE4023"/>
<path d="M143.76 127.06C143.76 127.06 124.33 135.59 123.62 135.96C123.18 136.19 117.4 126.74 112.95 119.32L110.86 115.83C109.939 114.341 109.114 112.794 108.39 111.2L125.58 128.43L143.76 127.06Z" fill="#7C4B20"/>
<path d="M43.94 108.48L23.96 105.85L38.09 99.1299L43.94 108.48Z" fill="#F8B517"/>
<path d="M47.6901 108.48L37.36 116.79L25.7001 129.27L16.0701 121.24L23.9601 105.85L43.9401 108.48L38.0901 99.1299L47.6901 108.48Z" fill="#EE4023"/>
<path d="M81.91 35.6199L97.73 27.1099L76.02 33.4299L81.91 35.6199Z" fill="#F4831F"/>
<path d="M79.52 65.5901L101.75 56.3101L104.7 59.2701L105.06 57.9001L101.75 56.3101L82.53 62.4901L79.52 65.5901Z" fill="#A6662F"/>
<path d="M77.23 65.6601L61.04 58.8101L74.32 62.8601L77.23 65.6601Z" fill="#9B5023"/>
<path d="M96.7 80.2202L85.35 89.0102L83.41 89.9502L79.6 89.0702L78.1 88.6002L83.43 88.3902L96.7 80.2202Z" fill="#9B5023"/>
<path d="M66.71 81.5502L78.1 88.6002L66.71 80.4102V81.5502Z" fill="#9B5023"/>
<path d="M66.71 80.4102C66.71 80.5702 78.3 88.4102 78.3 88.4102H83.43L83.26 89.1002L78.1 88.6201C78.1 88.6201 68.29 82.4402 68.24 82.4602C68.19 82.4802 66.71 80.4102 66.71 80.4102Z" fill="#9B5023"/>
<path d="M76 33.43C76 33.43 70.93 24.86 70.86 24.1C70.79 23.34 80.44 6 80.44 6C80.44 6 75.44 21.69 75.66 21.88C75.88 22.07 81.28 31.41 81.28 31.41L76 33.43Z" fill="#282A2A"/>
<path d="M103.84 7.38982C103.21 7.20982 95.29 10.8198 95.29 10.8198C95.29 10.8198 88.87 27.3398 89.15 27.1098C89.43 26.8798 96.49 12.3398 96.49 12.3398L103.84 7.38982Z" fill="#282A2A"/>
<path d="M46.88 26.0099L62.98 17.2499L71.9 19.6899L61.9 5.35986L46.88 26.0099Z" fill="#282A2A"/>
<path d="M98.8201 369.33C99.3401 370.25 113.73 408.21 113.73 408.21L94.8101 386.4L98.8201 369.33Z" fill="#7C4B20"/>
<path d="M48.94 371.89L36.22 376.58L39.48 415.81L57.61 375.23L48.94 371.89Z" fill="#7C4B20"/>
<path d="M58.15 236.02L52.74 257.92L69.61 275.93L67.45 287.25L74.74 289.21L81.39 287.51L77.31 274.18L93.7 260.85L102.47 227.47L84 234.46L83.99 236.95L69.61 243.48L58.15 236.02Z" fill="#F4831F"/>
<path d="M143.76 127.06C143.76 127.06 155.18 156.14 155.15 156.06C155.12 155.98 132 149.2 132 149.2L143.76 127.06Z" fill="#F8B517"/>
<path d="M131.99 149.2L121.78 151.98L123.62 135.96L143.76 127.06" fill="#F4831F"/>
<path d="M155.15 156.05L164.32 181.74L164.85 194.9L146.37 186.85L155.15 156.05Z" fill="#EE4023"/>
<path d="M121.78 152L133 180.16L140.93 188.85L139.91 216C139.91 216 149.75 209 149.73 207.59C149.71 206.18 146.37 186.86 146.37 186.86L155.15 156.06C155.15 156.06 133.38 148.06 132.51 148.22C131.64 148.38 121.78 152 121.78 152Z" fill="#F4831F"/>
<path d="M146.37 186.85L149.73 207.58C149.73 207.58 165.35 195.11 164.85 194.9L146.37 186.85Z" fill="#F8B517"/>
<path d="M136.42 183.87C136.78 184.26 146.87 184.75 146.87 184.75L151.65 184.31L141 188.85L136.42 183.87Z" fill="#7C4B20"/>
<path d="M36.31 137.41L34.78 139.53L31.78 151.2L31.11 152.42C31.11 152.42 37.11 166.57 36.44 167.28C35.77 167.99 25.02 177.28 25.02 177.28L20.89 151.2L27.46 140L36.31 137.41Z" fill="#F4831F"/>
<path d="M27.4599 139.98L19.6299 135.66L14.9299 184.75L24.9699 177.28L20.8399 151.19L27.4599 139.98Z" fill="#EE4023"/>
<path d="M36.4 167.29L33.15 207.58L21.9 201.52L25 177.28C25 177.28 35.68 167.77 36.4 167.29Z" fill="#EE4023"/>
<path d="M25 177.28L21.92 201.52L18 199.16L13.75 197.96C13.75 197.96 16.75 166.49 16.67 166.88C16.59 167.27 25 177.28 25 177.28Z" fill="#F8B517"/>
<path d="M112.39 209.55L84.0001 219.71V214.82L56.8 216V219.72L45.6201 211.78L43.5401 177.78L38.2401 169.73L36.4001 167.27L31.0701 152.41L31.7401 151.19L39.11 164.13L41.1801 165.59L46.5001 165.24L55.2601 178.53L56.8101 177.72L58.2001 199.15L69.6201 193.44L84.0001 199.16L88.9201 181.92C91.5501 182.92 97.3001 185.37 97.7301 185.37C98.1601 185.37 106.73 187.63 108.14 189.66C108.57 192 112.39 209.55 112.39 209.55Z" fill="#EE4023"/>
<path d="M113 167C112.87 167.44 102 180.07 102 180.07L101.67 185.48L113 167Z" fill="#F8B517"/>
<path d="M112.61 161.34C112.45 161.76 100.7 173.59 100.7 173.59L100 179L112.61 161.34Z" fill="#F8B517"/>
<path d="M89.6701 178.3C89.6701 178.3 89.3801 179.72 88.9301 181.82V181.92C88.5901 183.51 86.1101 192.03 84.0101 199.16L70.7101 203.82L58.2101 199.16L56.8201 177.73L70.9501 170.34L89.6701 178.3Z" fill="#F8B517"/>
</svg>
