<svg width="193" height="497" viewBox="0 0 193 497" fill="none" xmlns="http://www.w3.org/2000/svg">
<path d="M96.0001 44.24L82.5501 44.47C82.2501 44.47 77.3401 46.77 77.3401 46.77L74.8801 44.27L67.0001 44C66.9501 44 68.3401 50.58 68.3401 50.58L70.8401 57.31L75.0601 64.31H87.2401L98.0001 53.74L96.0001 44.24ZM82.8901 56.87C82.6401 56.79 77.0601 56.87 77.0601 56.87L75.4901 54.37H85.3001C85.3001 54.37 83.1001 57 82.8601 56.87H82.8901ZM73.3501 51.81L75.0001 50.6C75.0001 50.6 84.1301 50.54 84.4501 50.6C84.7701 50.66 89.0401 51.9 89.0401 51.9L73.3501 51.81Z" fill="#E4B17B"/>
<path d="M72.1099 0.550049L78.8099 2.43004L86.7599 0.550049L102.24 4.63005L88.5599 8.05005L76.0599 7.35005L72.1099 0.550049Z" fill="#3F383E"/>
<path d="M190.19 220V220.45H176L184.81 166.26C184.81 166.26 190.46 188.62 190.91 189.26V189.41C191.42 192.08 190.19 220 190.19 220Z" fill="#5A5755"/>
<path d="M184.81 220.43L179.59 248.43L174.41 234.43L168.41 232.41L168.55 231.94L176 220.43H184.81Z" fill="#E4B37C"/>
<path d="M179.59 248.43L169.23 251.93L166.9 248.43L172.22 246.64V242.05L166.9 248.43L164.49 244.81L168.41 232.41L174.41 234.43L179.59 248.43Z" fill="#D1925E"/>
<path d="M192.26 247.3L187.52 251.93H169.23L179.59 248.43L192.26 247.3Z" fill="#9E6F5A"/>
<path d="M190.19 220.43L192.26 247.3L179.59 248.43L184.81 220.43H190.19Z" fill="#D1925E"/>
<path d="M166.07 103.7V103.77L152.53 122.28L137 115V99.2001L155.58 82.8701L155.91 82.9301L166.07 103.7Z" fill="#29272C"/>
<path d="M155.58 82.87L137 99.2L115.01 87.38L130.17 78.76L130.4 78.87L155.58 82.87Z" fill="#C7C6C1"/>
<path d="M146.13 128.39C146.13 128.39 147.48 154.25 148.01 155.39C147.33 155.39 139.88 127.85 139.88 127.85L129.36 107.55L115 87.3799L137 99.1999V115L152.53 122.28L146.13 128.39Z" fill="#5A5755"/>
<path d="M105.38 67.6301C100.31 69.8001 83.3801 77.9401 83.0701 77.7301L72.0701 69.4301L82.1301 73.0801L103.74 62.6201V66.9001L105.38 67.6301Z" fill="#D0A17F"/>
<path d="M103.83 56.3899L103.78 62.6099L82.1699 73.0699L72.1099 69.4199L72.8099 63.6799L74.6799 65.9499H87.3499L103.83 56.3899Z" fill="#BB865E"/>
<path d="M103.89 46.5501L104.46 45.9401L103.89 46.5501L103.82 56.3901L87.3301 66.0001L98.0001 53.7401C98.0001 53.7401 100.54 47.6701 103.11 41.5901C103.23 41.2301 103.89 46.3701 103.89 46.5501Z" fill="#966C54"/>
<path d="M98.0001 53.74L87.33 66H74.6601L72.7901 63.73L70.6601 57.61L68.3901 50.8L66.3201 43.98L67.6701 44.05L69.0201 50.63L71.5201 57.36L75.1001 64.36H87.2801L98.0001 53.74Z" fill="#C7915D"/>
<path d="M110.17 29.4399V39.7499L103.89 46.5499C103.89 46.3699 103.23 41.2299 103.08 41.5499C105.65 35.4699 108.24 29.3999 108.33 29.3999L110.17 29.4399Z" fill="#D0A17F"/>
<path d="M107.55 14.06L106.37 28.91L97.07 24.91L97.69 14.58L93.19 15.32L81.19 18.9L68.1 14.15L66 25.76L67.23 9.52003C67.23 9.52003 78.52 12 78.78 12C79.04 12 96.48 10.36 96.86 10.24C97.24 10.12 102.38 8.07003 102.67 7.78003L107.55 14.06Z" fill="#22201F"/>
<path d="M93.1901 15.33L90.5401 24.45C90.5401 24.45 79 29.81 78.83 30C78.66 30.19 70.3101 25.5199 69.9301 25.3999C69.5501 25.2799 68.0601 14.21 68.0601 14.21L80.6301 18.77L93.1901 15.33Z" fill="#E4B17B"/>
<path d="M108.57 29.4399L102.42 31.5399L97.3101 33.0799L94.4501 29.5899L92.0601 26.6799L97.0701 24.9199L106.37 28.9099L106.33 29.3399L108.57 29.4399Z" fill="#A1A0A0"/>
<path d="M102.75 31.3401C102.75 31.3401 97.8899 40.5401 96.4299 43.4001L96.17 43.8901L95.9999 44.1901V44.2401L82.5499 44.4701C82.2499 44.4701 77.3399 46.7701 77.3399 46.7701L74.8799 44.2701L68.0999 44.0001L66.3499 43.9301L68.3499 39.3801L75.4699 41.1601L76.89 34.1601L67.3599 29.8201L65.7 26.1801L65.9799 25.8101L78.4999 32.2601L92.2099 26.6801L94.4899 29.4701L80.64 34.5301L81.8399 41.2101C82.1299 41.2101 94.6799 40.7101 94.8399 40.6301C94.9999 40.5501 97.3099 32.9601 97.3099 32.9601L102.75 31.3401Z" fill="#29272C"/>
<path d="M76.8801 34.11L75.4601 41.16L74.9101 34.44L67.3501 29.77L76.8801 34.11Z" fill="#29272C"/>
<path d="M68.3399 39.3799L66.3199 43.9299L63.1799 34.6799V29.4399L65.6899 26.1299L67.3499 29.7699L65.5299 33.3799L67.2 39.0999L68.3399 39.3799Z" fill="#A1A0A0"/>
<path d="M94.4799 29.4199L83.9299 34.2399L81.8299 41.1599L80.6299 34.4799L94.4799 29.4199Z" fill="#29272C"/>
<path d="M108.57 29.4399C108.32 29.7999 105.82 35.6699 103.33 41.5699C103.33 41.6599 103.26 41.7499 103.21 41.8399C100.99 47.0799 98.6599 52.2899 98.0899 53.4799C98.0899 53.4799 98.0399 53.6399 98.0199 53.6799C98.0013 53.7162 97.9738 53.7472 97.9399 53.7699L95.9399 44.2199C96.0032 44.1238 96.06 44.0236 96.1099 43.9199L96.3699 43.4299C97.8999 40.5799 102.69 31.3699 102.69 31.3699L108.2 29.5699L108.5 29.4699L108.57 29.4399Z" fill="#5A5755"/>
<path d="M139.88 127.86L129.36 107.56L123 122.28C123 122.28 107.93 131.09 107.56 131.47C107.19 131.85 79.1501 125.85 79.1501 125.85L81.0001 102.13L89.4301 85.75L81.0901 90.82C81.0901 90.82 73.4601 86.89 72.8501 86.22L78.5201 103.22L74.7001 126.36L50.6001 132.89L37.3901 123.76L49.9101 139.64L66.9101 133.45L52.5401 147L54.9201 182.68C54.9201 182.68 64.9201 204.08 65.3901 204.4C65.8601 204.72 91.0701 204.4 91.0701 204.4L109 178.19L123.66 171.4C123.66 171.28 123.66 171.21 123.66 171.21L139.88 127.86ZM99.4101 187.09L96.1201 192L77.4801 194.23V134.88L100.89 145.94L97.1801 159.83L99.4101 187.09ZM84.3201 133.48C84.3201 133.48 109.82 138.21 110.52 138.03C111.22 137.85 131.72 121.55 132.37 121.03L112.6 145.93L84.3201 133.48Z" fill="#40403E"/>
<path d="M132.37 121L112.6 145.9L84.3201 133.44C84.3201 133.44 109.82 138.17 110.52 137.99C111.22 137.81 131.72 121.55 132.37 121Z" fill="#29272C"/>
<path d="M78.52 103.2L74.7 126.35L50.61 132.87L37.38 123.74L36.51 106.71L52.17 87.3799L78.52 103.2Z" fill="#A1A0A0"/>
<path d="M52.17 87.3799L31.17 103.2L22.4299 96.7299L31.2299 82.0499L47.9399 81.1499L48.4899 80.8999C49.8199 82.9099 52.17 87.3799 52.17 87.3799Z" fill="#C7C6C1"/>
<path d="M25.36 123.26L25.41 123.11L22.47 96.73L31.21 103.2L37.38 123.74L25.36 123.26Z" fill="#40403E"/>
<path d="M53.5901 208.45L66.3501 234.45L65.1701 232.6L64.6901 231.83L64.4201 231.41L63.8401 230.49L63.1901 229.49L62.8501 228.95L61.7601 227.24L60.5901 225.4L59.7801 224.1L58.9401 222.78L58.5101 222.11L57.6801 220.81L56.2901 218.63C56.0201 218.21 55.7601 217.77 55.4901 217.35L54.6401 216C50.8401 210 47.5901 204.8 47.5301 204.54L51.6001 181.2C51.6001 181.2 47.7101 147.2 47.9201 143.56C46.9901 146.08 38.1701 163.56 37.4301 165.06L18.5801 155.65L38.4301 145.99L37.4301 123.79L49.9501 139.67L66.9501 133.48L52.5401 147L54.9301 182.68L53.5901 208.45Z" fill="#5A5755"/>
<path d="M18.5799 155.6L19.3999 185.16L8.62988 220.84L2.37988 217.27L11.6299 166.93L18.5799 155.6Z" fill="#C7C6C1"/>
<path d="M37.3799 165.11L35.8999 178.89L14.5699 221.11L8.62988 220.84L19.3999 185.16L37.3799 165.11Z" fill="#5A5755"/>
<path d="M13.5401 236.86L3.93005 250.38L0.570068 236L2.38007 217.27L8.63007 220.84L13.5401 236.86Z" fill="#D2935C"/>
<path d="M22.3699 233.44L13.5399 236.86L8.62988 220.84L14.5699 221.11L22.2499 233.07L22.3699 233.44Z" fill="#E5B47E"/>
<path d="M25.86 243.68L22.25 246.4L13.54 236.86L22.37 233.44L25.86 243.68Z" fill="#CF975D"/>
<path d="M22.2499 246.4L20.0599 250.51L19.3099 251.93L3.94995 250.46L3.92993 250.38L13.5399 236.86L22.2499 246.4Z" fill="#9D6D5F"/>
<path d="M126.23 195.91L100.89 219.13L90.81 234.43C90.29 233.74 113.12 200.93 112.6 200.43C112.08 199.93 109 178.19 109 178.19L123.66 171.4C123.9 173.6 126.13 194.51 126.13 195.4C126.153 195.572 126.187 195.742 126.23 195.91V195.91Z" fill="#5A5755"/>
<path d="M66.3599 234.43L58.9199 292.14L35.9199 271.23L47.5499 204.5C47.6899 205.11 65.7999 233.5 66.3699 234.41L66.3599 234.43Z" fill="#C7C6C1"/>
<path d="M143 251.93L141 315.26C141 315.26 131.54 326.73 128 331.79C130.59 326.01 136 311.54 136 311.27C136 311 122.76 293.61 121.31 290.05C121.4 289.63 121.4 289.4 121.31 289.42C121.22 289.44 121.19 289.67 121.31 290.05C120.31 294.34 108.82 319.22 107.89 321.23L107.82 321.36C100.28 296 90.2099 262 90.2099 262L86.8299 299.7C86.8299 299.7 80.7699 326 80.7199 326.57C80.7199 326.57 77.7899 328.43 74.3299 330.57L63.4299 337.46C62.6299 337.99 73.9899 315.82 73.9899 315.82L58.9299 292.14L66.3599 234.43C66.3599 234.43 90.8199 235.11 90.8199 234.43L121.25 288.08L143 251.93Z" fill="#5A5755"/>
<path d="M58.9199 292.14L49.1099 326.78L35.8999 271.23L58.9199 292.14Z" fill="#5A5755"/>
<path d="M80.28 349.81L65.28 364.65L45.28 340.32L48.62 328.5L48.88 327.57L49.11 326.78L58.92 292.14L74 315.82C74 315.82 62.63 338 63.43 337.46C64.23 336.92 80.72 326.55 80.72 326.55C81 325.88 80.28 349.81 80.28 349.81Z" fill="#40403E"/>
<path d="M86.82 387.97L65.27 364.64L80.28 349.81L86.82 387.97Z" fill="#C7C6C1"/>
<path d="M86.82 387.97L67.18 460.44L65.27 364.64L86.82 387.97Z" fill="#29272C"/>
<path d="M49.39 432.82C49.39 432.82 49.57 371.03 49.34 370.35C49.11 369.67 45.28 341 45.28 340.35L65.28 364.68L67.19 460.47L49.39 432.82Z" fill="#5A5755"/>
<path d="M68.08 484.38L29.93 486.18C29.93 486.18 20.66 489.34 19.76 489.11C18.86 488.88 4 486.63 4 486.63L4.89999 480.99L24.65 481.84L42.85 482.63L60.25 478.79C60.25 478.79 67.67 476.89 67.89 476.95C68 481.09 68.08 484.38 68.08 484.38Z" fill="#40403E"/>
<path d="M67.8401 477C67.6201 476.94 60.2001 478.84 60.2001 478.84L51.4801 456.84L49.3901 432.63L67.1801 460.26C67.2901 460.22 67.6301 469.85 67.8401 477Z" fill="#40403E"/>
<path d="M60.1999 478.79L42.7999 482.85L24.5999 482.07L13.9099 476.95L41.1399 466.18L60.1999 478.79Z" fill="#C7C6C1"/>
<path d="M24.5999 482.07L4.85986 480.99L13.8999 476.95H13.9099L24.5999 482.07Z" fill="#29272C"/>
<path d="M143 251.93L121.25 288.1C120.6 287.45 132.13 215.87 132.13 215.87C137 232.06 143 251.93 143 251.93Z" fill="#40403E"/>
<path d="M141 315.26C141 315.26 131.54 326.73 128 331.79C130.59 326.01 136 311.54 136 311.27C136 311 122.76 293.61 121.31 290.05C120.31 294.53 107.82 321.36 107.82 321.36L123.59 339.21L126.72 361.82L144.22 344.61L141 315.26Z" fill="#40403E"/>
<path d="M139.68 436.32L119.56 394.75C119.56 394.75 119.56 394.33 119.46 393.57C119.52 392.26 126.67 369.79 126.67 369.79L115.72 348.72C115.72 348.46 112.19 336.43 107.9 321.59L123.66 339.44L126.66 361.86L161.43 431.86L163.13 464.54L139.68 436.32Z" fill="#5A5755"/>
<path d="M126.67 369.75C126.67 369.75 119.52 392.22 119.46 393.53C118.85 386.32 115.72 349.29 115.72 348.68L126.67 369.75Z" fill="#C7C6C1"/>
<path d="M161.44 431.83L126.67 361.82L144.17 344.61L158.85 381.86L161.44 431.83Z" fill="#29272C"/>
<path d="M168.58 477.29L144.8 469.59L140.11 437.19L139.68 436.32L163.13 464.51L168.58 477.29Z" fill="#40403E"/>
<path d="M173.28 488.31L148.28 487.86C148.28 487.86 144.85 477.86 144.85 477.4V469.92L144.8 469.59L168.58 477.29L173.28 488.31Z" fill="#C7C6C1"/>
<path d="M174.87 492.05L160.87 496.57H148.45L142.59 489.35L144.85 477.83V477.4C144.85 477.83 148.28 487.86 148.28 487.86L173.28 488.31L174.87 492.05Z" fill="#40403E"/>
<path d="M184.81 166.24L167.68 155.06L152.53 122.28L166.07 103.77C166.07 104.88 166.31 118.18 166.52 118.82C166.73 119.46 173.07 133.5 173.07 133.5C173.07 133.5 176 153.6 176 152.92C176 152.24 184.81 166.24 184.81 166.24Z" fill="#5A5755"/>
<path d="M167.68 155.06C167.68 155.06 161.94 161.01 158.01 164.94C156.86 163.78 150.09 156.89 148.37 155.61C151 156.35 166.55 155.06 167.68 155.06Z" fill="#40403E"/>
<path d="M176 220.43L159.52 187.43L158.17 165.07L158.01 164.9C161.94 160.97 167.68 155.02 167.68 155.02L176 220.43Z" fill="#C7C6C1"/>
<path d="M184.81 166.24L176 220.43L167.68 155.06L184.81 166.24Z" fill="#40403E"/>
<path d="M113.36 71.2099L89.4399 85.7499L81.0999 90.8199C81.0999 90.8199 73.4599 86.8899 72.8499 86.2199V86.1299C73.1099 85.9499 69.4599 78.5899 67.1899 74.0599C67.4099 73.8599 69.8899 71.6199 71.2399 70.3299C71.6999 69.8999 72.0199 69.5699 72.0999 69.4699L83.0999 77.7699C83.4199 77.9799 98.7199 69.0999 103.78 66.9399L113.36 71.2099Z" fill="#5A5755"/>
<path d="M78.5199 103.2L52.1699 87.3799L72.8199 86.1299L72.8499 86.2199L78.5199 103.2Z" fill="#C7C6C1"/>
<path d="M36.51 106.71L37.38 123.74L31.21 103.2L52.17 87.3799L36.51 106.71Z" fill="#5A5755"/>
<path d="M38.4301 145.94L18.5801 155.6L20.8901 136.89L25.3601 123.26L37.3801 123.74L38.4301 145.94Z" fill="#C7C6C1"/>
<path d="M37.4301 165L37.3801 165.1L19.3801 185.15L18.5601 155.59L37.4301 165Z" fill="#40403E"/>
<path d="M20.06 250.51L7.26001 248L11.75 244.22L22.25 246.4" fill="#CF975D"/>
<path d="M115.01 87.38L81 102.13L89.43 85.75L115.01 87.38Z" fill="#C7C6C1"/>
<path d="M129.36 107.56L123 122.28C123 122.28 107.93 131.09 107.56 131.47C107.19 131.85 79.1499 125.85 79.1499 125.85L80.9999 102.13L115 87.3799L129.36 107.56Z" fill="#A1A0A0"/>
<path d="M167.68 155.06C166.55 155.06 150.99 156.35 148.37 155.61C148.27 155.515 148.151 155.444 148.02 155.4C147.49 154.25 146.14 128.4 146.14 128.4L152.54 122.29L167.68 155.06Z" fill="#C7C6C1"/>
<path d="M172.22 242.05V246.64L166.9 248.43L172.22 242.05Z" fill="#966445"/>
<path d="M97.18 159.83L99.41 187.08L96.12 191.96L77.48 194.19V134.88L100.89 145.94L97.18 159.83Z" fill="#A1A0A0"/>
<path d="M121.25 288.1L90.8201 234.45L100.9 219.15L126.24 195.93C126.81 198.09 129.24 206.34 132.14 215.93C132.13 215.87 120.6 287.45 121.25 288.1Z" fill="#C7C6C1"/>
<path d="M90.8101 234.43C90.8101 235.09 66.3501 234.43 66.3501 234.43L53.5901 208.43L54.9201 182.61C54.9201 182.61 64.9201 204.01 65.3901 204.33C65.8601 204.65 91.0701 204.33 91.0701 204.33L109 178.19C109 178.19 112.1 199.89 112.62 200.41C113.14 200.93 90.2901 233.74 90.8101 234.43Z" fill="#29272C"/>
<path d="M97.69 14.5899L97.07 24.9199L92.2 26.6299L78.49 32.2099L66 25.7599L68.09 14.1599C68.09 14.1599 69.58 25.2199 69.96 25.3499C70.34 25.4799 78.66 30.0699 78.86 29.9499C79.06 29.8299 90.57 24.4499 90.57 24.4499L93.22 15.3299L97.69 14.5899Z" fill="#D0965D"/>
<path d="M89 51.8999L86.43 52.4699L74.58 52.1999C74.58 52.1999 73.34 51.8099 73.28 51.8099L75 50.5999C75 50.5999 84.13 50.5399 84.45 50.5999C84.77 50.6599 89 51.8999 89 51.8999Z" fill="#8E5828"/>
<path d="M85.27 54.3701C85.27 54.3701 83.1 56.9501 82.86 56.8701C82.62 56.7901 77.03 56.8701 77.03 56.8701L75.46 54.3701H85.27Z" fill="#8E5828"/>
<path d="M97.3401 32.9099C97.3401 32.9099 95.0801 40.5099 94.8701 40.5799C94.6601 40.6499 82.1201 41.1599 81.8701 41.1599L83.9701 34.2399L94.5201 29.4199L97.3401 32.9099Z" fill="white" stroke="#221F1F" stroke-linejoin="round"/>
<path d="M75.46 41.16L68.34 39.38L67.2 39.1L65.53 33.38L67.35 29.77L74.91 34.44L75.46 41.16Z" fill="white" stroke="#221F1F" stroke-linejoin="round"/>
<path d="M82.1799 44.55L95.4599 45.85L97.9699 53.74L95.9699 44.24L82.4999 44.47" fill="#6A3F26"/>
<path d="M107.56 14.0601L94.4799 13.0601L78.8299 15.5401L68.3399 12.7801L67.2 9.48009C67.2 9.48009 67.8399 8.33009 68.6499 6.84009L90.0799 9.3201L102.24 4.6001L107.56 14.0601Z" fill="#22201F"/>
<path d="M76.21 28.0499C76.9825 28.5172 77.7804 28.9412 78.6 29.3199C78.6 29.3199 77.88 24.3999 77.7 24.3199C77.2991 23.9666 76.934 23.5747 76.61 23.1499L76.21 28.0499Z" fill="#A36B33"/>
<path d="M79.1201 29.2999L80.6301 26.6499V28.4899L79.1201 29.2999Z" fill="#A36B33"/>
<path d="M72.82 86.13L52.17 87.38C52.17 87.38 49.82 82.91 48.53 80.87L65.35 71L72.08 69.46C72 69.56 71.68 69.89 71.22 70.32C69.87 71.61 67.39 73.85 67.17 74.05C69.43 78.59 73.08 86 72.82 86.13Z" fill="#40403E"/>
<path d="M52.17 78.73L31.27 82.02L52.17 81.72V78.73Z" fill="#40403E"/>
<path d="M97.1799 159.83L77.4799 156.35L76.1599 160.84L97.3199 161.55L99.2099 160.49L97.1799 159.83Z" fill="#5A5755"/>
<path d="M173.07 133.5L167.68 132.85L166.52 118.85C166.75 119.51 173.07 133.5 173.07 133.5Z" fill="#40403E"/>
<path d="M53.5901 208.45L66.3501 234.45L65.1701 232.6L64.6901 231.83L64.4201 231.41L63.8401 230.49L63.1901 229.49L62.8501 228.95L61.7601 227.24L60.5901 225.4L59.7801 224.1L58.9401 222.78L58.5101 222.11L57.6801 220.81L56.2901 218.63L55.4901 217.35L54.6401 216C50.8401 210 47.5901 204.8 47.5301 204.54L51.6001 181.2C51.6001 181.2 47.7101 147.2 47.9201 143.56L37.3901 123.79L49.9101 139.67L66.9101 133.48L52.5401 147L54.9301 182.68L53.5901 208.45Z" fill="#5A5755"/>
<path d="M95.84 192L89.66 200.85L77.48 201.78V194.19C77.48 194.19 84.48 185.51 84.78 185.38C85.08 185.25 95.84 192 95.84 192Z" fill="#5A5755"/>
<path d="M102.24 4.64005V9.52005L78.7199 14.16L67.2 9.52005C67.2 9.52005 67.8399 8.37005 68.6499 6.88005C70.0699 4.30005 72.0499 0.720049 72.1099 0.550049C72.1099 0.910049 79.4799 5.46005 79.4799 5.46005L83.4799 2.95004L86.7899 4.64005H102.24Z" fill="#22201F"/>
<path d="M97.6901 14.5901C97.6901 14.5901 101.98 12.2801 101.94 12.4401C101.9 12.6001 100.31 26.3101 100.31 26.3101L97.0701 24.9201L97.6901 14.5901Z" fill="#3F383E"/>
<path d="M109.15 31.75V39.38L106.05 42.94L109.15 31.75Z" fill="#AB8569"/>
<path d="M106.05 42.94L104.13 42.78L109.15 31.75L108.57 37.34L106.05 42.94Z" fill="#AB8569"/>
<path d="M80.63 18.08C80.63 17.89 70.23 10.29 70.23 10.29C70.23 10.29 71.93 1.34004 72.11 1.60004C72.29 1.86004 78.6 9.32004 78.6 9.32004L80.63 18.08Z" fill="#3F383E"/>
<path d="M66.3201 43.9299L74.6601 45.1799C74.6601 45.1799 77.4701 46.9399 77.3101 46.7699L74.8501 44.2699L66.3201 43.9299Z" fill="#6A3F26"/>
<path d="M130.17 78.7599L115.01 87.3799L89.4399 85.7499L111.72 72.1999L103.75 66.8999L114.23 69.9999L130.17 78.7599Z" fill="#40403E"/>
<path d="M130.4 137.26C130.22 137.68 117.52 147.77 117.52 147.77L116.63 154.2L130.4 137.26Z" fill="#29272C"/>
<path d="M129.66 144.55C129.53 145 118.59 157.83 118.59 157.83L118.26 163.33L129.66 144.55Z" fill="#29272C"/>
<path d="M129.36 107.56L135.75 128.36L123.64 171.4L139.88 127.86L129.36 107.56Z" fill="#29272C"/>
<path d="M74.79 142.48C75.15 143.36 74.09 155.23 74.09 155.23L62.47 155.98L64.92 144.75L74.79 142.48Z" fill="#A1A0A0"/>
<path d="M74.4301 167.81L74.08 192.7L62.5701 188.99L64.55 170.08L74.4301 167.81Z" fill="#A1A0A0"/>
<path d="M107.84 321.23L107.77 321.36C100.28 296 90.2101 262 90.2101 262L86.8301 299.7C86.8301 299.7 80.7701 326 80.7201 326.57C80.7201 326.57 77.7901 328.43 74.3301 330.57L80.7601 309.63L89.1901 258.63L81.7601 255.17L78.6001 246.38L85.3001 251.96H93.5101C93.5101 251.96 95.3601 260.57 95.8401 261.44C96.3201 262.31 106.92 316.56 107.84 321.23Z" fill="#29272C"/>
<path d="M41.1401 466.18L51.4801 456.8C51.4801 456.8 60.7701 479.61 60.2101 479.02C59.6501 478.43 41.1401 466.18 41.1401 466.18Z" fill="#29272C"/>
<path d="M190.19 220V220.45H176L190.91 189.29V189.44C191.42 192.08 190.19 220 190.19 220Z" fill="#C7C6C1"/>
<path d="M75.1001 64.27C75.2301 64.12 77.1001 61.05 77.1001 61.05L83.4101 60.77L87.3201 64.27L79.8601 65.27L75.1001 64.27Z" fill="#C7915D"/>
</svg>
