<svg width="171" height="490" viewBox="0 0 171 490" fill="none" xmlns="http://www.w3.org/2000/svg">
<path d="M93 43.86H91.86L87.78 43.93H87.16L82.5 44.01H79.72L79.53 44.08L79.09 44.27L78.51 44.51L76.13 45.6L75.77 45.76L75.3 45.98L75.06 46.09L74.7 46.26L72.2 43.89L65.15 43.65H64.51C64.63 44.2 66.38 50.08 66.38 50.08L69 56.7L73.38 63.56H84.44L92.3 54.27L92.38 54.19L93.16 53.28V53L93 43.86ZM81.66 50.12L86.17 51.4L70.7 51.32L72.35 50.12C72.35 50.12 81.37 50.06 81.65 50.12H81.66ZM72.8 53.84H82.46C82.46 53.84 80.33 56.38 80.09 56.29C79.85 56.2 74.35 56.29 74.35 56.29L72.8 53.84Z" fill="#C68650"/>
<path d="M69.5 0.850006L76.1 2.69L83.92 0.850006L99.16 4.87L85.69 8.22L73.38 7.53999L69.5 0.850006Z" fill="#3E383E"/>
<path d="M167.31 223.77L167.25 224.21L157.37 223.13L168.72 171.39C168.72 171.39 170.16 193.5 170.53 194.2V194.35C170.72 197 167.31 223.77 167.31 223.77Z" fill="#827140"/>
<path d="M162.95 223.74L157.86 250.9L154.3 236.65L148.65 234.02L148.84 233.58L157.37 223.13L162.95 223.74Z" fill="#E4B37C"/>
<path d="M157.86 250.9L147.34 253.22L145.44 249.53L150.84 248.36L151.34 243.86L145.44 249.53L143.48 245.74L148.65 234.02L154.3 236.65L157.86 250.9Z" fill="#D1925E"/>
<path d="M170.38 251.17L165.25 255.19L147.34 253.22L157.86 250.9L170.38 251.17Z" fill="#9E6F5A"/>
<path d="M167.25 224.21L170.38 251.17L157.86 250.9L162.95 223.74L167.25 224.21Z" fill="#D1925E"/>
<path d="M143.95 82.5L132.26 100.33L111.74 86.33L126.66 77.85L126.88 77.95L143.95 82.5Z" fill="#F4A54B"/>
<path d="M100.13 67C95.0801 69.21 81.8501 76.32 80.4101 76.77H80.2901C80.0201 76.58 73.6801 71.37 70.0901 68.61L79.4501 72.21L98.9301 62V66.21L100.13 67Z" fill="#996B4A"/>
<path d="M98.9201 55.83V62L79.4401 72.3L70.0801 68.7L71.1701 63.06L73.0201 65.29H84.5401L98.9201 55.83Z" fill="#8A562C"/>
<path d="M99.73 46.14L100.29 45.53L99.73 46.14L98.95 55.83L84.48 65.23L93.24 53C95.8821 49.3309 98.147 45.4043 100 41.28C100.14 40.89 99.73 46 99.73 46.14Z" fill="#6A3F26"/>
<path d="M93.1801 53.06L84.4801 65.23H73.0001L71.11 63L68.7801 57L66.3901 50.29L63.8 43.58L65.1301 43.65L67.0001 50.1L69.6201 56.72L73.3701 63.58H84.4201L93.1801 53.06Z" fill="#9C6636"/>
<path d="M104.83 29.29L107.01 39.49L99.73 46.14C99.73 45.95 100.16 40.89 100.01 41.25C101.529 37.3981 102.538 33.3638 103.01 29.25L104.83 29.29Z" fill="#D0A17F"/>
<path d="M104.39 14.15L103.2 29.15L94 24.84L94.61 14.64L90.18 15.36L78.32 18.88L65.49 14.23L64.22 25.65L64.64 9.64999C64.64 9.64999 75.79 12.1 76.05 12.1C76.31 12.1 93.47 10.49 93.85 10.36C94.23 10.23 99.28 8.23 99.57 7.95L104.39 14.15Z" fill="#22201F"/>
<path d="M90.25 15.39L87.64 24.39C87.64 24.39 76.3 29.66 76.12 29.8C75.94 29.94 67.72 25.39 67.35 25.27C66.98 25.15 65.51 14.27 65.51 14.27L77.88 18.76L90.25 15.39Z" fill="#C68650"/>
<path d="M103.21 29.28L99.3399 31.35L94.3099 32.87L91.4999 29.43L89.1299 26.56L94.0699 24.84L103.2 29.18H103.19L103.21 29.28Z" fill="#FDE34F"/>
<path d="M99.6601 31.16C99.6601 31.16 94.8801 40.22 93.4401 43.03L93.1801 43.51L93.0201 43.81V43.86L79.7601 44.09C79.4601 44.09 74.6601 46.35 74.6601 46.35L72.1901 43.89L65.5201 43.63L63.8 43.56L65.8 39.08L72.8 40.83L74.2001 33.89L64.8201 29.61L64.0001 26L64.2801 25.63L75.83 32L89.33 26.51L91.5701 29.25L77.9301 34.25L79.1201 40.83C79.4001 40.83 91.7501 40.33 91.9601 40.26C92.1701 40.19 94.3901 32.7 94.3901 32.7L99.6601 31.16Z" fill="#FDE34F"/>
<path d="M74.1901 33.88L72.7901 40.83L72.2501 34.21L64.8101 29.61L74.1901 33.88Z" fill="#572D83"/>
<path d="M65.79 39.08L63.8 43.56L61.5 34.45V29.28L63.97 26.03L64.81 29.61L63.02 33.17L64.66 38.8L65.79 39.08Z" fill="#FDE34F"/>
<path d="M91.5199 29.26L81.1399 34.02L79.0599 40.83L77.8799 34.25L91.5199 29.26Z" fill="#572D83"/>
<path d="M103.21 29.29C102.96 29.64 102.68 35.41 100.21 41.23L100.1 41.49C97.9099 46.66 93.8599 51.78 93.2899 52.95C93.2899 52.95 93.2899 53.1 93.2299 53.14C93.2144 53.1783 93.1861 53.2101 93.1499 53.23L92.9199 43.84C92.9662 43.7364 93.0197 43.6362 93.0799 43.54L93.3399 43.07C94.8499 40.26 99.5599 31.19 99.5599 31.19L102.8 29.42L103.1 29.32L103.21 29.29Z" fill="#FDE34F"/>
<path d="M125.86 106.2L119.6 120.7C119.6 120.7 104.76 129.37 104.4 129.7C104.04 130.03 76.4001 124.18 76.4001 124.18L78.2301 100.83L86.5301 84.7L78.2901 89.7C78.2901 89.7 70.7701 85.83 70.1301 85.17L75.8101 102L72.05 124.79L48.3201 131.17L35.3201 122.17L47.6501 137.79L64.4301 131.67L50.2301 145L54.5401 182.09C54.5401 182.09 62.4101 201.21 62.8801 201.47C63.3501 201.73 88.1601 201.47 88.1601 201.47L105.85 175.76L116.39 170.09V169.9L116.67 169.13L129.28 127.87L125.86 106.2ZM94.1801 157.66L94.3201 159.35L96.3201 184.49L93.08 189.29H92.8101L74.7301 191.46V133.1L97.8201 144L94.1801 157.66ZM81.5101 131.72C81.5101 131.72 106.63 136.38 107.31 136.2C107.99 136.02 128.19 119.97 128.82 119.47L109.36 144L81.5101 131.72Z" fill="#E7C053"/>
<path d="M128.82 119.47L109.36 144L81.51 131.76C81.51 131.76 106.63 136.41 107.31 136.24C107.99 136.07 128.19 120 128.82 119.47Z" fill="#827140"/>
<path d="M75.8099 101.91L72.0499 124.7L48.3199 131.12L35.3099 122.14L34.45 105.37L49.8599 86.33L75.8099 101.91Z" fill="#F3EB50"/>
<path d="M49.86 86.33L31.5601 102L27.0701 96.62L33.9201 81.17L45.7401 80.28L46.2801 80.04C47.5501 81.93 49.86 86.33 49.86 86.33Z" fill="#F4A54B"/>
<path d="M25.75 121.66L25.8 121.51L27.07 96.53L31.56 101.91L35.31 122.14L25.75 121.66Z" fill="#E7C053"/>
<path d="M53.7601 205.53L66.33 231.09L65.1601 229.27L64.6801 228.51L64.4201 228.1L63.8501 227.2L63.2101 226.2L62.8801 225.67L61.8101 224L60.6501 222.19L59.8501 220.91L59.0201 219.62L58.6001 218.95L57.7901 217.67L56.4201 215.53L55.6301 214.26L54.7901 212.94C51.0601 207.04 47.8501 201.94 47.7901 201.65L51.2701 180.65C51.2701 180.65 44.9501 141.65 45.1501 138.15C44.2301 140.63 35.3301 161.15 34.5901 162.58L18.8201 154.58L33.2301 141.98L35.2301 122.18L47.5601 137.8L64.3401 131.68L50.2301 145L54.5401 182.09L53.7601 205.53Z" fill="#827140"/>
<path d="M18.8301 154.56L17.6001 182.6L6.99008 217.73L0.840088 214.22L12.3101 167L18.8301 154.56Z" fill="#F3EB50"/>
<path d="M34.54 162.64L32.82 176.61L12.85 218L6.98999 217.73L17.6 182.6L34.54 162.64Z" fill="#827140"/>
<path d="M11.8299 233.5L3.71991 246.81L0.399902 232.66L0.839905 214.22L6.9899 217.73L11.8299 233.5Z" fill="#D2935C"/>
<path d="M19.63 230.13L11.83 233.5L6.98999 217.73L12.85 218L19.52 229.78L19.63 230.13Z" fill="#E5B47E"/>
<path d="M23.0601 240.22L20.4001 242.89L11.8301 233.5L19.6301 230.13L23.0601 240.22Z" fill="#CF975D"/>
<path d="M20.4 242.89L18.25 246.94L17.51 248.34L3.73996 246.89L3.71997 246.81L11.83 233.5L20.4 242.89Z" fill="#9D6D5F"/>
<path d="M121 195L97.8199 216.09L87.8999 231.15C87.3899 230.47 109.9 198.15 109.32 197.66C108.74 197.17 105.84 175.78 105.84 175.78L116.38 170.11C116.61 172.27 120.93 193.63 120.93 194.47C120.938 194.648 120.961 194.826 121 195Z" fill="#827140"/>
<path d="M66.34 231.11L56.51 287.93L41 270.69L47.75 201.64C47.89 202.25 65.75 230.2 66.29 231.09L66.34 231.11Z" fill="#F3EB50"/>
<path d="M133.92 253L137.33 310.65C137.33 310.65 128 322 124.51 327C127.06 321.31 132.35 307.06 132.35 306.8C132.35 306.54 119.35 289.41 117.89 285.91C117.98 285.49 117.98 285.26 117.89 285.29C117.8 285.32 117.76 285.53 117.89 285.91C116.89 290.13 105.59 314.62 104.63 316.6L104.57 316.73C97.19 291.73 87.28 258.27 87.28 258.27L81.91 295.39C81.91 295.39 76.55 321.39 76.49 321.91C75.0653 323.421 73.4322 324.721 71.64 325.77L60.91 332.55C60.12 333.07 71.3 311.24 71.3 311.24L56.47 287.93L66.29 231.11C66.29 231.11 87.88 231.79 87.88 231.11L117.88 283.93L133.92 253Z" fill="#827140"/>
<path d="M56.51 287.93L50.67 321.16L41.04 270.69L56.51 287.93Z" fill="#827140"/>
<path d="M74.7999 344.71L62.7999 359.32L46.9199 334.51L50.2099 322.87L50.4699 321.95L50.6999 321.18L56.5099 288L71.3399 311.31C71.3399 311.31 60.1199 333.09 60.9999 332.57L76.5899 321.93C76.7599 321.25 74.7999 344.71 74.7999 344.71Z" fill="#FDC050"/>
<path d="M81.25 382.28L62.77 359.32L74.8 344.71L81.25 382.28Z" fill="#F4A54B"/>
<path d="M81.25 382.28L64.64 453.64L62.77 359.32L81.25 382.28Z" fill="#E7C053"/>
<path d="M52.9999 427.93C52.9999 427.93 50.7299 365.71 50.5099 365.03C50.2899 364.35 46.8999 335.16 46.8999 334.51L62.7799 359.34L64.6499 453.66L52.9999 427.93Z" fill="#827140"/>
<path d="M65.5299 477.2L27.9999 479C27.9999 479 18.8799 482.06 17.9999 481.89C17.1199 481.72 2.42993 479.45 2.42993 479.45L3.31995 473.89L22.7599 474.73L40.6799 475.5L57.8099 471.73C57.8099 471.73 65.1099 469.85 65.3399 469.91C65.4299 474 65.5299 477.2 65.5299 477.2Z" fill="#827140"/>
<path d="M65.2999 469.88C65.0699 469.82 57.7699 471.7 57.7699 471.7L49.1899 450.05L52.9899 427.71L64.64 453.41C64.75 453.41 65.0499 462.9 65.2999 469.88Z" fill="#F3EB50"/>
<path d="M57.7699 471.7L40.64 475.7L22.7199 474.92L12.1899 469.88L38.9999 459.29L57.7699 471.7Z" fill="#E7C053"/>
<path d="M22.72 474.92L3.28003 473.86L12.18 469.88H12.19L22.72 474.92Z" fill="#F4A54B"/>
<path d="M133.92 253L117.92 283.91C117.27 283.28 124.51 216.23 124.51 216.23C129.25 232.21 133.92 253 133.92 253Z" fill="#FDC050"/>
<path d="M137.33 310.69C137.33 310.69 136.42 311.79 135.06 313.47L134.24 314.47C133.61 315.23 132.94 316.07 132.24 316.96C131.973 317.28 131.703 317.613 131.43 317.96C131.17 318.31 130.9 318.61 130.65 318.96L129.65 320.2C128.73 321.36 127.82 322.54 126.98 323.62L126.16 324.71C126.132 324.757 126.099 324.801 126.06 324.84C125.65 325.38 125.28 325.84 124.93 326.36L124.59 326.85L124.49 326.97L124.56 326.84C125.04 325.76 125.56 324.38 126.23 322.84L126.8 321.43L126.86 321.28C127.27 320.28 127.69 319.19 128.1 318.12L128.47 317.12C128.78 316.33 129.08 315.54 129.37 314.77C129.66 314 129.88 313.43 130.12 312.77C130.36 312.11 130.49 311.77 130.66 311.32C130.83 310.87 130.93 310.6 131.05 310.32C131.17 310.04 131.26 309.75 131.36 309.48C131.96 307.85 132.36 306.78 132.36 306.71C132.36 306.47 119.36 289.32 117.9 285.82C117.905 285.866 117.9 285.913 117.886 285.958C117.873 286.003 117.85 286.044 117.82 286.08C117.83 286.146 117.83 286.214 117.82 286.28C117.805 286.37 117.778 286.457 117.74 286.54C117.74 286.63 117.62 286.93 117.54 287.15L117.42 287.5C117.42 287.62 117.32 287.75 117.28 287.88C117.24 288.01 117.18 288.13 117.14 288.27C117.1 288.41 117.03 288.54 116.98 288.68L116.68 289.46L116.56 289.75C116.56 289.89 116.45 290.04 116.39 290.18C116.14 290.81 115.88 291.46 115.59 292.18C115.52 292.36 115.45 292.53 115.37 292.7C115.29 292.87 115.25 292.97 115.19 293.11C115.13 293.25 115.03 293.51 114.94 293.71C114.55 294.62 114.15 295.58 113.72 296.55C113.59 296.87 113.45 297.2 113.31 297.55C113.16 297.87 113.02 298.21 112.87 298.55L111.53 301.61L110.76 303.36L109.9 305.27L109.06 307.12L108.34 308.73L107.81 309.89L106.2 313.43L105.85 314.16L105.65 314.61C105.65 314.74 105.53 314.85 105.48 314.96L105.38 315.18L105.02 315.96L104.89 316.26L104.79 316.47V316.58L104.73 316.71L120.17 334.12V334.17L123.23 356.36L138.6 341.4L137.33 310.69Z" fill="#FDC050"/>
<path d="M138.68 429.89L118.73 390.19C118.72 389.802 118.687 389.414 118.63 389.03C118.69 387.74 123.21 364.39 123.21 364.39L112.43 343.64C112.43 343.38 108.96 331.54 104.73 316.92L120.25 334.51L123.25 356.58L155.13 426.31L159.13 457.64L138.68 429.89Z" fill="#827140"/>
<path d="M123.19 364.35C123.19 364.35 118.67 387.7 118.61 388.99C118.01 381.85 112.41 344.2 112.41 343.6L123.19 364.35Z" fill="#F4A54B"/>
<path d="M155.09 426.3L123.21 356.53L138.62 341.4L149.49 375.76L155.09 426.3Z" fill="#E7C053"/>
<path d="M164.48 470.22L141.06 462.64L139.1 430.75L138.68 429.89L159.12 457.63L164.48 470.22Z" fill="#F4A54B"/>
<path d="M169.09 481.07L144.48 480.63C144.48 480.63 141.1 470.75 141.1 470.33V462.64L164.56 470.22L169.09 481.07Z" fill="#E7C053"/>
<path d="M170.67 484.76L156.85 489.2H144.61L138.84 482.06L141.06 470.72V470.3C141.06 470.72 144.44 480.59 144.44 480.59L169.05 481.04L170.67 484.76Z" fill="#827140"/>
<path d="M156.29 158.25C156.29 158.25 150.03 163.45 145.75 166.86C144.75 165.61 139.13 155.86 137.59 154.4C140.07 155.4 155.18 158.13 156.29 158.25Z" fill="#827140"/>
<path d="M157.37 223.13L147.27 185.25L145.9 167.06L145.75 166.86C150.03 163.45 156.29 158.25 156.29 158.25L157.37 223.13Z" fill="#F3EB50"/>
<path d="M168.72 171.39L157.37 223.13L156.29 158.25L168.72 171.39Z" fill="#E7C053"/>
<path d="M107.44 72L86.5499 84.7L78.3099 89.7C78.3099 89.7 70.7899 85.83 70.1499 85.17V85.08C70.4099 84.91 67.4099 77.77 65.1499 73.3L67.9499 70.6L68.3599 70.21C68.6299 69.96 68.8799 69.73 69.0999 69.51C69.3983 69.2457 69.6821 68.9653 69.9499 68.67C73.5899 71.44 79.9499 76.67 80.1499 76.83H80.2699C81.6299 76.29 93.9499 68.22 98.7099 66.19L99.9899 67.06L107.44 72Z" fill="#827140"/>
<path d="M75.8099 101.91L49.8599 86.33L70.1899 85.1L70.2199 85.19L75.8099 101.91Z" fill="#F3EB50"/>
<path d="M34.4501 105.37L35.3101 122.14L31.5601 101.91L49.86 86.33L34.4501 105.37Z" fill="#827140"/>
<path d="M33.2301 141.94L18.8301 154.56L20.7701 135.08L25.7501 121.66L35.3101 122.14L33.2301 141.94Z" fill="#F3EB50"/>
<path d="M34.5901 162.54C34.6001 162.573 34.6001 162.607 34.5901 162.64L17.5901 182.64L18.8201 154.64L34.5901 162.54Z" fill="#E7C053"/>
<path d="M18.25 246.94L6.98999 244.48L10.07 240.75L20.4 242.89L18.25 246.94Z" fill="#CF975D"/>
<path d="M111.74 86.33L78.25 100.86L86.55 84.73L111.74 86.33Z" fill="#F3EB50"/>
<path d="M125.86 106.2L119.6 120.7C119.6 120.7 104.76 129.37 104.4 129.7C104.04 130.03 76.3999 124.18 76.3999 124.18L78.2299 100.83L111.72 86.3L125.86 106.2Z" fill="#F3EB50"/>
<path d="M151.34 243.86L150.84 248.36L145.44 249.53L151.34 243.86Z" fill="#9E6F5A"/>
<path d="M94.18 157.66L96.38 184.5L93.13 189.3L74.78 191.5V133.1L97.83 143.98L94.18 157.66Z" fill="#F3EB50"/>
<path d="M117.88 284L87.8799 231.18L97.7999 216.12L121 195C121.56 197.13 122.91 205.53 124.46 216.31C124.47 216.27 117.23 283.32 117.88 284Z" fill="#F3EB50"/>
<path d="M87.91 231.11C87.91 231.77 66.33 231.11 66.33 231.11L53.76 205.53L54.54 182.07C54.54 182.07 62.41 201.19 62.88 201.45C63.35 201.71 88.16 201.45 88.16 201.45L105.85 175.74C105.85 175.74 108.91 197.16 109.41 197.62C109.91 198.08 87.4 230.47 87.91 231.11Z" fill="#E7C053"/>
<path d="M94.68 14.67L94.07 24.87L89.28 26.55L75.78 32L64.24 25.65L65.51 14.23C65.51 14.23 66.98 25.12 67.35 25.23C67.72 25.34 75.92 29.88 76.12 29.76C76.32 29.64 87.64 24.35 87.64 24.35L90.25 15.35L94.68 14.67Z" fill="#A46B32"/>
<path d="M86.16 51.4L83.63 51.96L72 51.68C72 51.68 70.77 51.31 70.72 51.31L72.37 50.12C72.37 50.12 81.37 50.06 81.68 50.12C81.99 50.18 86.16 51.4 86.16 51.4Z" fill="#8F5729"/>
<path d="M82.45 53.84C82.45 53.84 80.32 56.38 80.08 56.29C79.84 56.2 74.34 56.29 74.34 56.29L72.79 53.84H82.45Z" fill="#8F5729"/>
<path d="M94.33 32.7C94.33 32.7 92.1101 40.19 91.9101 40.26C91.7101 40.33 79.3501 40.83 79.0701 40.83L81.0701 34.02L91.5301 29.26L94.33 32.7Z" fill="#FFFDFD" stroke="#231F20" stroke-linejoin="round"/>
<path d="M72.79 40.83L65.79 39.08L64.66 38.8L63.02 33.17L64.81 29.61L72.25 34.21L72.79 40.83Z" fill="#FFFDFD" stroke="#231F20" stroke-linejoin="round"/>
<path d="M79.4099 44.16L92.4899 45.44L93.1999 53.21L92.9899 43.86L79.7299 44.09L79.4099 44.16Z" fill="#6A3F26"/>
<path d="M104.39 14.15L91.57 13.21L76.16 15.65L65.84 12.93L64.71 9.67999L66.07 7.09L87.16 9.53L99.16 4.88L104.39 14.15Z" fill="#22201F"/>
<path d="M76.3999 29.14L77.8799 26.54V28.36L76.3999 29.14Z" fill="#A46A33"/>
<path d="M69.1301 69.53C68.9101 69.75 68.6601 69.98 68.3901 70.23L69.9801 68.67C69.7384 68.995 69.4523 69.2845 69.1301 69.53Z" fill="#643090"/>
<path d="M70.15 85.1L49.82 86.33C49.82 86.33 48.07 82.99 46.76 80.81C46.57 80.48 46.38 80.18 46.22 79.93L49.67 77.93L49.8 77.85V77.91C53.18 77.51 60.6 76.91 60.6 76.91C62.2135 75.8713 63.7357 74.697 65.15 73.4C67.45 77.79 70.45 84.93 70.15 85.1Z" fill="#E7C053"/>
<path d="M49.8599 77.82V80.76H46.7999L33.8999 81.02L48.1199 78.02L49.8599 77.82Z" fill="#827140"/>
<path d="M94.18 157.66L74.78 154.24L73.49 158.65L94.32 159.36L96.18 158.31L94.18 157.66Z" fill="#E7C053"/>
<path d="M53.7601 205.53L66.33 231.09L65.1601 229.27L64.6801 228.51L64.4201 228.1L63.8501 227.2L63.2101 226.2L62.8801 225.67L61.8101 224L60.6501 222.19L59.8501 220.91L59.0201 219.62L58.6001 218.95L57.7901 217.67L56.4201 215.53L55.6301 214.26L54.7901 212.94C51.0601 207.04 47.8501 201.94 47.7901 201.65L51.2701 180.65C51.2701 180.65 44.9501 141.65 45.1501 138.15L35.3 122.15L47.6301 137.77L64.4101 131.65L50.2301 145L54.5401 182.09L53.7601 205.53Z" fill="#827140"/>
<path d="M99.1599 4.87V9.67L75.9999 14.23L64.6499 9.66L66.0599 7.09C67.4599 4.55 69.4099 0.970001 69.4699 0.860001C69.4699 1.2 76.7199 5.69 76.7199 5.69L80.6299 3.21001L83.8899 4.88L99.1599 4.87Z" fill="#22201F"/>
<path d="M94.6801 14.67C94.6801 14.67 98.9 12.39 98.86 12.55C98.82 12.71 97.2601 26.2 97.2601 26.2L94.0701 24.84L94.6801 14.67Z" fill="#3E383E"/>
<path d="M103.78 31.56L105.96 39.08L102.91 42.58L103.78 31.56Z" fill="#AB8569"/>
<path d="M102.91 42.58L101.03 42.42L103.78 31.56L105.39 37.07L102.91 42.58Z" fill="#AB8569"/>
<path d="M77.8799 18.1C77.8799 17.91 67.6799 10.44 67.6799 10.44C67.6799 10.44 69.3499 1.61 69.5399 1.87C69.7299 2.13 75.9299 9.48 75.9299 9.48L77.8799 18.1Z" fill="#3E383E"/>
<path d="M63.8 43.56L71.9601 44.78C71.9601 44.78 74.7201 46.51 74.5701 46.35L72.1901 43.89L63.8 43.56Z" fill="#6A3F26"/>
<path d="M126.66 77.85L111.74 86.33L86.55 84.73L107.44 72.03L108.72 72.9L126.66 77.85Z" fill="#E7C053"/>
<path d="M125.86 106.2L125.81 127.84L116.34 170.07L129.87 127.35L125.86 106.2Z" fill="#F4A54B"/>
<path d="M72.1901 140.58C72.5401 141.44 71.5001 153.13 71.5001 153.13L60.05 153.87L62.4701 142.82L72.1901 140.58Z" fill="#F3EB50"/>
<path d="M104.67 316.57L104.61 316.7C97.23 291.7 87.32 258.23 87.32 258.23L82 295.36C82 295.36 76.64 321.36 76.59 321.88C75.1597 323.389 73.5236 324.688 71.73 325.74L78 305.12L86.3 254.95L79 251.54L75.94 242.88L82.54 248.38H90.54C90.54 248.38 92.37 256.86 92.84 257.71C93.31 258.56 103.81 312 104.67 316.57Z" fill="#F4A54B"/>
<path d="M39 459.29L49.2 450.05C49.2 450.05 58.38 472.49 57.79 471.92C57.2 471.35 39 459.29 39 459.29Z" fill="#F4A54B"/>
<path d="M167.31 223.77L167.25 224.21L157.37 223.13L170.53 194.2V194.35C170.72 197 167.31 223.77 167.31 223.77Z" fill="#827140"/>
<path d="M73.3799 63.58C73.5199 63.43 75.3199 60.41 75.3199 60.41L80.5699 60.13L84.4299 63.58L77.0899 64.58L73.3799 63.58Z" fill="#9C6636"/>
<path d="M154.81 107.44V107.51L144.96 124.51L130.17 115.8L132.17 100.31L143.9 82.5L144.22 82.55L154.81 107.44Z" fill="#E7C053"/>
<path d="M138.08 129.82C138.08 129.82 136.86 152.97 137.26 154.15C136.58 154.08 129.66 128.9 129.66 128.9L123.91 107.63L112.05 86.33L132.29 100.27L130.59 115.73L144.99 124.53L138.08 129.82Z" fill="#827140"/>
<path d="M168.72 171.39L156.29 158.25L145 124.53L154.93 107.29C154.83 108.38 157.8 122.59 157.93 123.29C158.06 123.99 158.56 137.18 158.56 137.18C158.56 137.18 159.27 157.18 159.34 156.49C159.41 155.8 168.72 171.39 168.72 171.39Z" fill="#827140"/>
<path d="M156.29 158.25C155.18 158.13 140.07 155.4 137.58 154.4C137.494 154.297 137.389 154.212 137.27 154.15C136.87 152.97 138.09 129.82 138.09 129.82L145 124.53L156.29 158.25Z" fill="#F3EB50"/>
<path d="M48.1501 78.08L49.8601 77.82V77.88H49.7301L48.1401 78.07L48.1501 78.08Z" fill="#662F8E"/>
</svg>
