<svg width="162" height="516" viewBox="0 0 162 516" fill="none" xmlns="http://www.w3.org/2000/svg">
<path d="M123.43 102.8L115.75 104.55L114.16 104.47L120 89.86L112.69 51L107.53 66L104.92 68V57L101.46 42.46L98.92 31.79L97.59 26.21L75.88 32.53L59.78 25.11L55.78 31.06C55.78 31.06 55.78 33.69 55.78 36.7C55.15 39.23 53.49 45.93 53.49 46.64C53.49 47.53 54.62 61.81 54.99 62.55C55.36 63.29 50.38 73.31 50.38 73.31L56.02 69.48L60.68 62.1L63.34 72.21L68.65 78.94L68.08 99.68L55.8 104L55.12 103.76L46 100.94L43.17 62.94L46.8 25.08L61.8 6.16996L80.26 0.709961L101.64 7.70996L116 32.47L118.94 53.61L117.66 56.67L123.35 86.2L123.43 102.8Z" fill="#F9DE2B"/>
<path d="M53.45 45.77L49.23 61L48.14 57.86L46.23 65.7L51.06 102.3C51.06 102.3 60.26 95.19 60.91 94.3C61.56 93.41 59.26 69.63 59.26 69.63L56.6 54L53.45 45.77Z" fill="#97712D"/>
<path d="M53.1401 71.44L54.1401 79.5L52.3501 84L51.0601 102.33C51.0601 102.33 62.28 109.48 62.58 109.33C62.88 109.18 70.5801 106.12 70.7401 105.72C70.9001 105.32 74.7401 94.99 74.6201 93.38C74.5001 91.77 74.7601 77.8 74.1901 77.47C73.6201 77.14 67.4001 71.11 67.0001 70.81C66.6001 70.51 62.8901 61.89 62.8901 61.89L59.4101 59.77L53.1401 71.44Z" fill="#97712D"/>
<path d="M95.16 79.26L94.94 82.64L78.81 100L79.1 121.44L69.1 126.26L45.21 116.93C45.21 116.93 44.89 113.93 45.21 113.5L55.12 103.8L55.8 104.04L70.53 98.64L68.68 79L63.37 72.2701L60.71 62.16V61.89L58.8 57.31C58.8 57.31 58.51 56.31 58.11 54.8L60.94 57.98C60.94 57.98 73.75 61.98 74.22 61.98C74.69 61.98 78.22 65.98 78.22 65.98V72.72L70.79 71.33L73.9 76.19L78.22 77.58V87.5201H83.34L95.16 79.26Z" fill="#DE9159"/>
<path d="M75.8801 32.5101L72.11 34.0301L71.7701 38.6601L55.8 31.0401L59.7801 25.0901L75.8801 32.5101Z" fill="#6767AE"/>
<path d="M98.92 31.7699L83.75 38.6799L82.39 39.2899L81.78 34.6999L75.88 32.5099L97.59 26.1899L98.92 31.7699Z" fill="#6767AE"/>
<path d="M101.46 42.44L95.1599 39.29C95.1599 39.29 81.5799 48.04 81.1599 48.36C80.7399 48.68 83.7199 38.68 83.7199 38.68L98.89 31.77L101.46 42.44Z" fill="#689DD4"/>
<path d="M101.46 42.4499L95.1501 39.2999C95.1501 39.2999 81.5801 48.0399 81.1501 48.3699C80.7201 48.6999 83.7101 38.6799 83.7101 38.6799L82.36 39.2999L77.0601 47.5599L77.86 53.4199L77.6601 62.5999L82.36 61.5999L101.58 55.4299L104.89 57.0099L101.46 42.4499ZM78.4601 60.3399L79.7201 54.7299L82.1001 60.3399H78.4601ZM101.46 49.6999L93.08 55.4099L82.3901 50.8299C83.0001 50.8099 96.0001 41.9999 96.0001 41.9999L101.5 46.5199L101.46 49.6999Z" fill="#7DD1F0"/>
<path d="M74.2101 62.0001C73.7501 62.0001 60.9301 57.9501 60.9301 57.9501L58.1001 54.7801C57.1803 51.6809 56.4193 48.5368 55.8201 45.3601C55.8201 44.6701 55.8201 40.3601 55.8201 36.7301C55.8201 33.7301 55.8201 31.0901 55.8201 31.0901L60.8201 41.3801L61.0101 42.0301L61.1801 42.6201L57.2601 47.2201L64.3401 55.4601C64.3401 55.4601 64.5801 55.3101 64.9901 55.0901L74.2101 62.0001Z" fill="#689DD4"/>
<path d="M145.47 196L145.68 206.71L137.78 213.4L138.03 198.72V198.58L138.21 187.76V187.45L136.96 183.45L135.26 178.01L118.36 148.65V148.58L117.75 147.51L117.89 147.01L119.09 142.67L121.09 135.27C121.8 134.9 136.82 129.61 136.82 129.61L133.88 140.71L131.94 148L131.85 148.34C131.85 148.34 131.85 148.45 131.9 148.55V148.68C131.9 148.68 131.9 148.79 131.9 148.85L132 149.25L132.13 149.76C132.13 149.94 132.22 150.13 132.28 150.34C132.36 150.62 132.43 150.92 132.51 151.25C132.51 151.3 132.51 151.36 132.51 151.41C132.58 151.67 132.65 151.94 132.72 152.23C132.79 152.52 132.87 152.82 132.95 153.13C133.03 153.44 133.04 153.5 133.09 153.7C133.25 154.31 133.42 154.97 133.59 155.65C133.71 156.1 133.82 156.56 133.95 157.03C134.01 157.28 134.08 157.54 134.14 157.8C134.68 159.87 135.26 162.15 135.87 164.48C135.95 164.77 136.03 165.07 136.1 165.36L136.8 168.01C136.88 168.31 136.96 168.6 137.03 168.89C137.34 170.06 137.66 171.22 137.96 172.36C138.04 172.64 138.12 172.93 138.19 173.21L138.64 174.86C138.72 175.13 138.79 175.4 138.86 175.67C139.52 178.06 140.14 180.21 140.66 181.93C140.72 182.12 140.77 182.3 140.83 182.48C140.96 182.92 141.09 183.33 141.21 183.7C141.33 184.07 141.36 184.14 141.43 184.34L141.55 184.69C141.67 185.02 141.78 185.3 141.86 185.5C141.912 185.622 141.976 185.74 142.05 185.85C142.068 185.881 142.092 185.908 142.12 185.93C142.12 185.93 142.18 185.93 142.2 185.93C142.235 185.894 142.277 185.866 142.324 185.849C142.37 185.832 142.42 185.825 142.47 185.83C142.549 185.817 142.631 185.817 142.71 185.83L142.98 185.92H143.03L143.29 186.05C143.44 186.12 143.6 186.22 143.77 186.32C144.17 186.57 144.62 186.89 145.08 187.24C145.243 187.351 145.4 187.471 145.55 187.6C146.74 188.52 147.95 189.6 148.69 190.26C148.751 190.308 148.808 190.362 148.86 190.42L149.38 190.89L145.27 193.42V195.42L145.47 196Z" fill="#DC9159"/>
<path d="M36.52 137L35.2 139.77L25.9 159.33L26.01 175.67L26.13 194.3C25.4457 193.895 24.7414 193.524 24.02 193.19C23.61 193.02 23.29 192.92 23.25 193.04C23.13 193.34 23.2 198.97 23.25 200.97V201.16L21.46 200.04L16.6 197.04C16.6 197.04 17.16 188.88 17.6 181.99C17.9 177.35 18.16 173.28 18.16 172.65C18.16 172.32 18.47 170.39 18.94 167.58C19.67 163.34 20.79 157.06 21.86 151.16C22.01 150.34 22.15 149.53 22.3 148.73C23.65 141.31 24.8 135.04 24.8 135.04L28.22 138.69L28.89 139.41C31.2175 138.122 33.7764 137.306 36.42 137.01L36.52 137Z" fill="#DC9159"/>
<path d="M158 196.1L147 205.49L145.66 206.64L145.47 196V195.5V193.5L149.58 190.97L149.06 190.5C149.008 190.442 148.951 190.388 148.89 190.34C148.15 189.67 146.94 188.6 145.75 187.68C145.6 187.551 145.443 187.431 145.28 187.32C144.82 186.97 144.37 186.65 143.97 186.4C143.8 186.3 143.64 186.2 143.49 186.13L143.23 186H143.18L142.91 185.91C142.831 185.897 142.75 185.897 142.67 185.91C142.62 185.905 142.57 185.912 142.524 185.929C142.477 185.946 142.435 185.974 142.4 186.01C142.4 186.01 142.35 186.01 142.32 186.01C142.292 185.988 142.268 185.961 142.25 185.93C142.176 185.819 142.112 185.702 142.06 185.58C141.94 185.3 141.79 184.91 141.63 184.42C141.56 184.22 141.48 184.01 141.41 183.78C141.34 183.55 141.16 183 141.03 182.56C140.97 182.38 140.92 182.2 140.86 182.01C140.34 180.29 139.72 178.14 139.06 175.75C138.99 175.48 138.92 175.21 138.84 174.94L138.39 173.29C138.32 173.01 138.24 172.72 138.16 172.44C137.86 171.3 137.54 170.14 137.23 168.97C137.16 168.68 137.08 168.39 137 168.09L136.3 165.44C136.23 165.15 136.15 164.85 136.07 164.56C135.46 162.23 134.88 159.95 134.34 157.88C134.28 157.62 134.21 157.36 134.15 157.11C134.02 156.64 133.91 156.18 133.79 155.73C133.62 155.05 133.45 154.39 133.29 153.78C133.29 153.58 133.2 153.39 133.15 153.21C132.99 152.59 132.84 152.01 132.71 151.49C132.71 151.44 132.71 151.38 132.71 151.33C132.63 151 132.56 150.7 132.48 150.42C132.42 150.21 132.37 150.02 132.33 149.84L132.2 149.33L132.1 148.93C132.1 148.87 132.1 148.81 132.1 148.76V148.63C132.1 148.53 132.1 148.45 132.05 148.42L132.14 148.08L134.08 140.76L137.02 129.66L138.35 133.31L145.8 153.69L145.96 154.13L149.44 163.63L156.37 182.63L157.66 192.07L158 196.1Z" fill="#F1B280"/>
<path d="M107.53 109.87C107.53 109.87 109 112 110.78 115L71.66 127.23L69.1 126.23L79.1 121.41L78.81 99.9999L94.94 82.6899L94.47 98.9999L114.16 104.5L115.75 104.58L107.53 109.87Z" fill="#F1B380"/>
<path d="M36.3299 137.44L35.2 139.81L35.5799 138.23L36.3999 137.09L36.45 137.01C36.4041 136.94 36.3762 136.86 36.3687 136.776C36.3613 136.693 36.3744 136.609 36.407 136.532C36.4396 136.455 36.4907 136.387 36.5557 136.334C36.6208 136.282 36.6978 136.246 36.7799 136.23H36.8499H36.9299H37.0799L36.4599 137.1C36.4599 137.1 36.4599 137.1 36.4599 137.17L36.2799 137.56L36.3299 137.44Z" fill="#F1B280"/>
<path d="M36.59 160.4L37.07 161.33V161.4L36.54 166.4V166.51L34.21 188.6L30.7 205L28.15 203.73L23.22 201.28V201.09C23.22 200.7 23.22 200.17 23.22 199.57C23.22 197.66 23.22 195.03 23.22 193.82C23.22 193.66 23.22 193.53 23.22 193.42C23.22 193.31 23.22 193.3 23.22 193.25C23.2179 193.22 23.2179 193.19 23.22 193.16C23.22 193.04 23.58 193.16 23.99 193.31L24.21 193.41L24.44 193.52L24.68 193.64C25.16 193.88 25.63 194.15 25.89 194.3L26.05 194.39H26.1L26 175.75L25.89 159.41L35.19 139.85L32.7 150.3L32.02 151.52C32.0398 151.565 32.0632 151.609 32.09 151.65L36.56 160.36C36.56 160.36 36.58 160.39 36.59 160.4Z" fill="#F1B280"/>
<path d="M76.08 51.0001L73.0401 46.5201L61.6401 42.0001H60.9701L60.7801 41.3501L55.8201 31.0601L71.7901 38.6801L75.0901 44.1901L76.08 51.0001Z" fill="#689DD4"/>
<path d="M82.39 39.29L77.1 47.55L75.07 44.17L71.77 38.66L72.11 34.03L75.88 32.51L81.78 34.7L82.39 39.29Z" fill="#8193CA"/>
<path d="M119.97 89.86L114.16 104.47L92.41 98.97L94.94 82.64L95.16 79.26L98.83 72.78L104.92 56.99V67.93L107.53 65.93L112.69 50.98L119.97 89.86Z" fill="#97712D"/>
<path d="M104.92 56.9899L98.83 72.7799L95.16 79.2599L83.29 87.4699H78.17V77.5299L82.13 76.9499L86.26 72.6699L90.39 67.9299L86.26 71.2799L78.17 72.6699V65.9299L82.39 61.5799L101.61 55.3999L104.92 56.9899Z" fill="#F1B380"/>
<path d="M90.39 67.9299L86.27 72.6699L82.13 76.9499L78.17 77.5299L73.86 76.1399L70.74 71.2799L76.49 74.2599L80.56 73.8399L86.27 71.2799L90.39 67.9299Z" fill="#A96739"/>
<path d="M86.27 71.28L80.56 73.84L76.49 74.26L70.74 71.28L78.17 72.67L86.27 71.28Z" fill="#9E5C28"/>
<path d="M82.13 60.33H78.49L79.74 54.72L82.13 60.33Z" fill="#8193CA"/>
<path d="M82.39 61.58L78.17 65.93C78.17 65.93 74.65 61.93 74.17 61.93L64.93 55C66.93 53.87 73.11 50.46 73.52 50.46L61.62 42L73 46.49L76 50.98L75 44.17L77 47.55L77.79 53.41L77.6 62.6L82.39 61.58Z" fill="#7DD1F0"/>
<path d="M60.71 62.0799L56.05 69.4599L50.41 73.2899C50.41 73.2899 55.41 63.2899 55.02 62.5299C54.63 61.7699 53.52 47.5299 53.52 46.6199C53.52 45.9099 55.18 39.2099 55.81 36.6799C55.81 40.3599 55.81 44.6099 55.81 45.3099C56.4047 48.4844 57.1657 51.6254 58.09 54.7199C58.49 56.1899 58.78 57.2299 58.78 57.2299L60.69 61.8099L60.71 62.0799Z" fill="#DAA733"/>
<path d="M101.46 46.49V49.7L93.08 55.4L82.39 50.82C83 50.81 96 42 96 42L101.46 46.49Z" fill="white" stroke="#231F20" stroke-linejoin="round"/>
<path d="M73.5199 50.4901C73.1099 50.4901 66.9699 53.9001 64.9299 55.0301L64.2699 55.4001L57.1899 47.1601L60.2999 42.1601L60.7599 41.3501L73.5199 50.4901Z" fill="white" stroke="#231F20" stroke-linejoin="round"/>
<path d="M79.39 218.8L79.16 238.16L69.47 242.56C69.47 242.56 69.47 227.29 69.47 226.56C69.3932 226.553 69.3163 226.571 69.25 226.61L69.09 226.69L68.9 226.8C66.56 228.15 57.9 235 57.9 235L57.6 234.76L56.72 218.76V215.03H56.93C58.01 216.31 60.17 218.77 60.53 218.77L79.39 218.8Z" fill="#4B5680"/>
<path d="M128.06 266.71L116.41 354.16L102.33 355.56L77.1799 273.27C77.1799 273.27 87.9199 264.47 98.6899 255.81L105.4 250.42C105.09 258.13 103.45 292.6 103.45 292.6C103.45 292.6 116.15 320.76 116.51 320.2C116.87 319.64 127.63 268.32 128.06 266.71Z" fill="#3A3B44"/>
<path d="M47.3799 509.88L19.7799 511.45C19.7799 511.45 9.77993 512.66 8.98993 512.45C8.19993 512.24 0.189941 510.28 0.189941 510.28L0.949951 506.89L14.8099 507.59H15.2699L26.0799 508.28L39.9999 505.16L40.5399 505.04C40.5962 505.031 40.6536 505.031 40.7099 505.04C41.0699 504.94 46.9499 503.38 47.1199 503.43C47.2999 507 47.3799 509.88 47.3799 509.88Z" fill="#3A3B44"/>
<path d="M26.0101 508.18L39.9901 505.16L26.1201 508.34L15.3101 507.65L14.8501 507.63L14.8101 507.61L15.11 507.63L26.0101 508.18Z" fill="#001750"/>
<path d="M47.17 503.37C47 503.37 41.1199 504.88 40.7599 504.98L40.7099 504.85L40.6599 504.71C40.5799 504.48 40.4799 504.16 40.3399 503.79C40.1999 503.42 40.1599 503.26 40.0399 502.95C39.9199 502.64 39.7999 502.3 39.6599 501.95L39.5099 501.54C39.4499 501.38 39.3899 501.2 39.3199 501.03C39.0899 500.4 38.8399 499.73 38.5599 499.03C38.4899 498.81 38.3999 498.6 38.3099 498.37C38.0299 497.62 37.73 496.83 37.42 496.03L36.9099 494.7C36.4799 493.6 36.06 492.51 35.67 491.49L35.2499 490.41C34.8399 489.41 34.4799 488.41 34.1799 487.68C34.146 487.574 34.1059 487.471 34.0599 487.37L33.9099 486.98C33.8499 486.83 33.7999 486.68 33.7499 486.56L33.6099 486.21C33.4999 485.91 33.4299 485.74 33.4299 485.74L33.5599 484.96V485.96H45.9999C46.1199 485.94 47 497.15 47.17 503.37Z" fill="#7DD1F0"/>
<path d="M39.58 472.1H39.35V471.6L39.58 472.1Z" fill="#1C387F" stroke="#9AB8C7" stroke-miterlimit="10"/>
<path d="M40.57 505H40.52L39.99 505.13L26.12 508.31L15.31 507.62H14.85L6.34998 503.38L24.72 494L27.16 495.68L28.04 496.28L28.67 496.72L29.5 497.3C33.74 500.19 39.46 504.16 40.57 505Z" fill="#7DD1F0"/>
<path d="M14.8499 507.63L0.949951 506.91L6.30994 503.37L14.8499 507.63Z" fill="#4B5680"/>
<path d="M136.57 500.77L119.37 494.98L118.82 485.58L118.89 485.94H131.21L136.57 500.77Z" fill="#689DD4"/>
<path d="M140 509.07L121.92 508.73C121.92 508.73 119.44 501.18 119.44 500.86V495.23V494.98L136.64 500.77L140 509.07Z" fill="#7DD1F0"/>
<path d="M141.12 511.89L131 515.29H122L117.76 509.85L119.39 501.18V500.86C119.39 501.18 121.87 508.73 121.87 508.73L139.95 509.07L141.12 511.89Z" fill="#3A3B44"/>
<path d="M40.76 505C40.7037 504.991 40.6463 504.991 40.59 505V505L29.59 497.22L28.76 496.64L28.13 496.2L27.25 495.6L24.72 494L33.42 485.77C33.42 485.77 33.49 485.94 33.6 486.24L33.74 486.59C33.79 486.71 33.84 486.86 33.9 487.01L34.05 487.4C34.096 487.501 34.136 487.604 34.17 487.71L39.5 501.58L39.65 501.99L40.7 504.7C40.7 504.75 40.7 504.9 40.75 504.95C40.752 504.967 40.7553 504.984 40.76 505V505Z" fill="#4B5680"/>
<path d="M55.12 103.72L45.22 113.42L41.94 116.63C41.94 116.63 41.78 117.37 41.53 118.56C40.47 123.48 37.71 136.07 37.14 136.07C36.95 136.07 35 136.67 35 136.67L28.91 139.42L24.83 135.05L23.33 122.05L27.15 128.74L37.25 115.88L47.59 107.57L42.79 101.57L45.93 100.69L55.12 103.72Z" fill="#3A3B44"/>
<path d="M20.79 254.36C20.79 254.36 14.14 258.44 14.03 258.93C13.92 259.42 5.12002 251.46 4.08002 250.51C3.77002 256.7 5.82004 279.92 5.82004 279.92L7.55002 281.37L16.99 278.42L24.49 269.03L20.79 254.36ZM7.55002 277.75L6.94003 262.16L9.68002 275.65L7.55002 277.75Z" fill="#7DD1F0"/>
<path d="M17.8299 198.24L15.7 218L13.7 203L13.9599 198.23C13.955 198.184 13.955 198.137 13.9599 198.09L16.5699 197.09L17.8299 198.24Z" fill="#8193CA"/>
<path d="M15.77 250L20.77 254.37C20.77 254.37 14.12 258.45 14.01 258.93C13.9 259.41 5.11 251.47 4.06 250.52C4.05124 250.042 4.10504 249.564 4.22001 249.1C4.81001 248.19 13.55 201.1 13.93 198.2L13.67 202.97L15.67 217.97L14 233.55L21.1 243.73L10.38 246L6.94001 250H15.77Z" fill="#689DD4"/>
<path d="M31.76 207.31L21.13 243.73L14.04 233.55L15.7 218.01L17.83 198.25L21.44 200.12L21.5 200.16L23.23 201.06L23.93 201.43L30.7 204.96L30.76 205.09L31.76 207.31Z" fill="#3A3B44"/>
<path d="M20.2699 252.74L20.7899 254.36L15.7699 249.99H6.93994L10.3799 246.04L21.1299 243.73L20.2699 252.74Z" fill="#8193CA"/>
<path d="M26.36 287.33L13.2801 288.3L7.55005 281.36L16.9901 278.42L24.4901 269.03L26.6701 275.7L26.36 287.33Z" fill="#689DD4"/>
<path d="M107.3 172.73C107.3 172.73 99.46 190.06 99.42 190.06L99.48 190.33C98.11 188.33 97.97 184.46 97.59 184.46C97.21 184.46 91.4 182 88.77 181V180.89C89.22 178.79 89.51 177.37 89.51 177.37L92.1 178.47L96.65 166.83L103.28 157.55L108.16 152.82L116.38 144.87C118.45 146.37 117.68 147.44 117.68 147.44L107.3 172.73Z" fill="#689DD4"/>
<path d="M105.46 209L83.86 218.77V213.88L56.67 215.04V218.77L50.94 210.67L48.58 175.57L38.5 163.45L37.08 161.34L32.08 151.52L32.75 150.29L38.99 159.08L41.06 160.55L46.41 164.34L55.17 177.64L56.72 176.82L67.4 192.06C68.78 188.18 70.1533 184.303 71.52 180.43L76.52 191.02L88.85 181.02C91.48 182.02 97.23 184.47 97.67 184.47C98.11 184.47 98.19 188.32 99.56 190.34C99.93 192.65 105.46 209 105.46 209Z" fill="#689DD4"/>
<path d="M108.19 152.83L103.31 157.56L96.68 166.84L92.13 178.48L89.54 177.38L70.8 169.43L56.67 176.81L55.12 177.63L46.35 164.33L41 160.54L52.25 163.43L63.52 146L70.31 160.68L75.45 148.42C75.45 148.42 89.65 161.85 90.01 161.69C90.37 161.53 107.65 153.1 108.19 152.83Z" fill="#3A3B44"/>
<path d="M89.54 177.38C89.54 177.38 89.25 178.8 88.8 180.9V180.97L78.5 196.17C76.1667 191.503 73.8334 186.837 71.5 182.17C69.8134 186.89 68.1167 191.617 66.41 196.35C63.1634 189.837 59.9167 183.323 56.67 176.81L70.8 169.43L89.54 177.38Z" fill="#7DD1F0"/>
<path d="M116.42 144.87L108.2 152.82C107.66 153.09 90.38 161.51 90.02 161.67C89.66 161.83 75.46 148.4 75.46 148.4L89.87 139.05C89.87 139.05 102.5 134.68 103.12 135.17L116.42 144.87Z" fill="#7DD1F0"/>
<path d="M48.67 252.81L37.67 241.06L44.73 224.89C45.17 225.19 45.73 225.63 46.48 226.17L48.67 252.81Z" fill="#7DD1F0"/>
<path d="M57.85 235C57.85 235 50.47 229.18 46.48 226.17C45.77 225.63 45.17 225.17 44.73 224.89L50.94 210.7L56.67 218.8L57.85 235Z" fill="#3A3B44"/>
<path d="M69.47 242.56L57.85 235C59.7 233.5 67.29 227.69 69.08 226.69L69.24 226.61C69.3063 226.571 69.3832 226.553 69.46 226.56C69.51 227.29 69.47 242.56 69.47 242.56Z" fill="#7DD1F0"/>
<path d="M110.47 224.42L106.53 225.77L83.87 233.55V218.8L105.46 209.03L110.47 224.42Z" fill="#3A3B44"/>
<path d="M116.42 354.16C116.42 354.16 111.42 374.76 111.19 375.64C110.96 376.52 102.33 355.56 102.33 355.56L116.42 354.16Z" fill="#4B5680"/>
<path d="M78.4699 304.94C78.7399 303.56 64.0099 356.35 64.0099 356.35L59.1899 362.76C59.1899 362.76 61.4699 353.29 61.7199 352.49C61.9699 351.69 76.0699 300.79 76.0699 300.79C76.0699 300.79 66.6999 297.34 68.3599 297.6C70.9447 297.74 73.5352 297.74 76.1199 297.6L81.1899 296.08L97.7499 361.2C97.2799 359.57 78.2099 306.29 78.4699 304.94Z" fill="#4B5680"/>
<path d="M124.46 353.06L128.06 266.73L116.41 354.17C116.41 354.17 111.41 374.76 111.18 375.64C110.95 376.52 102.33 355.56 102.33 355.56L81.25 286.56L77.17 273.23L77.44 273.01L77.92 272.62L79.02 271.72L80.02 270.93C82.68 268.76 86.96 265.27 91.76 261.38L93.59 259.9L98.71 255.77L106.55 225.77L102.17 227.27L83.89 233.55V236L79.2 238.13L69.51 242.53L58 235.11L57.84 234.99H57.77L57.55 234.82L56.81 234.24L56.57 234.05L56.26 233.8L55.72 233.38C54.41 232.38 52.64 230.97 50.88 229.61L49.49 228.53C48.4 227.69 47.36 226.89 46.49 226.23L48.68 252.87L50.68 255L52.6 257L69.47 275L67.32 286.33L53.24 360.41L40.3 352.41L34.3 282.52L31.91 330.34L34.56 349.34L32.19 375.74L34.56 385.29L33.63 472.05H39.35V414.87C39.42 414.41 40.84 411.11 42.84 406.58L43.55 404.98C43.67 404.71 43.79 404.43 43.92 404.15L45.08 401.56C45.87 399.78 46.71 397.93 47.56 396.05C47.84 395.43 48.13 394.81 48.41 394.18C52.23 385.74 56.05 377.4 57.16 375.01L57.27 374.76L57.42 374.43L57.47 374.32L61.9 393.19L46.76 472.11H50.53L68 390.33L59.19 362.76C59.19 362.76 61.46 353.29 61.72 352.5C61.72 352.43 61.89 351.91 62.13 351.04C62.22 350.75 62.31 350.42 62.41 350.04C62.62 349.31 62.86 348.43 63.14 347.43L63.58 345.84C63.82 345 64.07 344.1 64.33 343.15C64.59 342.2 64.87 341.15 65.16 340.15C65.55 338.76 65.96 337.3 66.37 335.78C70.57 320.67 76.07 300.78 76.07 300.78C75.81 300.68 66.73 297.34 68.37 297.6C70.9549 297.735 73.5451 297.735 76.13 297.6L81.2 296.07L97.72 361.07V361.18L96.16 385.51C96.16 385.51 116.77 476.99 117.83 477.82C117.986 477.912 118.16 477.97 118.34 477.99C120.422 478.213 122.519 478.269 124.61 478.16V478.16H125.47L116.52 418.08C116.52 418.08 127.35 382.08 127.35 381.39C127.35 380.7 130.51 385.6 130.51 385.6L130.76 477.94C131.41 477.94 131.91 477.87 132.15 477.87L132.36 476.16C132.74 463.39 131.5 384.33 132.47 384.08C133.44 383.83 124.46 353.06 124.46 353.06ZM34.51 371L38 354.17C39 354.6 48.77 364.92 48.77 364.92L34.51 371Z" fill="#8193CA"/>
<path d="M120.13 239.14C119.03 239.65 112.8 244.52 105.4 250.42L98.6899 255.81L106.53 225.81L110.47 224.46L119.74 238.15L120.13 239.14Z" fill="#7DD1F0"/>
<path d="M128.07 266.67C127.64 268.28 116.87 319.61 116.52 320.16C116.17 320.71 103.46 292.56 103.46 292.56C103.46 292.56 105.1 258.09 105.41 250.38C112.81 244.48 119.04 239.61 120.14 239.1L128.07 266.67Z" fill="#689DD4"/>
<path d="M150 218.8V249L146.39 255.73L142.96 249.87L130.74 262.87L131.16 270.38H135.9V282.17L146.94 285L155.12 277.46C155.12 277.46 157.77 246.17 158.03 245.07C158.24 244.23 159.35 218.26 161.09 205.31C160.9 205.51 156.34 211.78 150 218.8ZM147 280.33L148.81 273.27V261.15L152.17 275.65L147 280.33Z" fill="#7DD1F0"/>
<path d="M155.13 277.43L152.23 284.85L140.05 291.9L133.04 290.26L131.13 270.41H135.86V282.21L146.95 284.97L155.13 277.43Z" fill="#689DD4"/>
<path d="M150 218.8V249L146.39 255.72L142.96 249.86L134.96 214.77C134.96 214.77 140.12 228.32 140.33 228.95C140.36 229.27 144.9 224.38 150 218.8Z" fill="#3A3B44"/>
<path d="M130.58 385.63L130.82 477.96C129.52 478.03 127.54 478.13 125.53 478.19L116.58 418.11C116.58 418.11 127.41 382.11 127.41 381.42C127.41 380.73 130.58 385.63 130.58 385.63Z" fill="#4B5680"/>
<path d="M112.86 118.49L78.86 129.73L69.41 143.26L60.34 128.36L41.48 118.62C41.73 117.43 41.89 116.69 41.89 116.69L45.17 113.49C44.87 113.94 45.17 116.91 45.17 116.91L69.05 126.24L71.61 127.24L110.78 115L112.86 118.49Z" fill="#7DD1F0"/>
<path d="M63.5199 145.99L52.2599 163.43L41.0099 160.54L38.9399 159.07L32.7 150.28L35.5799 138.23V138.22L38.89 134.75L52.9999 135.37L63.5199 145.99Z" fill="#7DD1F0"/>
<path d="M83.86 218.8V233.55V236L79.16 238.13L79.39 218.77H60.48C60.12 218.77 57.96 216.31 56.88 215.03L83.88 213.88V218.77L83.86 218.8Z" fill="#7DD1F0"/>
<path d="M52.2801 294.06C52.2801 294.06 41.8301 319.46 41.6701 318.6C41.5101 317.74 34.97 284.85 34.3 282.36V281.47L37.0001 242.56L37.6701 241.06L48.6701 252.81L50.6701 254.94L52.2801 294.06Z" fill="#689DD4"/>
<path d="M69.47 275L53.24 360.41L40.29 352.41L34.29 282.53V282.36C34.96 284.85 41.49 317.76 41.66 318.6C41.83 319.44 52.27 294.06 52.27 294.06L50.66 254.94L69.47 275Z" fill="#3A3B44"/>
<path d="M48.8 364.91L34.51 371L38 354.16C39.06 354.59 48.8 364.91 48.8 364.91Z" fill="#4B5680"/>
<path d="M121.1 135.18L117.72 147.44C117.72 147.44 118.49 146.37 116.42 144.87L103.11 135.18C102.49 134.69 89.86 139.06 89.86 139.06L75.45 148.41L70.31 160.66L63.53 146L53 135.37L38.89 134.75L35.58 138.22L37.11 136.1C37.68 136.1 40.44 123.51 41.5 118.59L60.36 128.34L69.43 143.26L78.88 129.72L112.88 118.46C117.31 125.88 120.66 135.4 121.1 135.18Z" fill="#689DD4"/>
<path d="M152.12 275.64L146.95 280.33L148.75 273.27V261.15L152.12 275.64Z" fill="#3A3B44"/>
<path d="M9.68994 275.64L7.54993 277.74L6.93994 262.16L9.68994 275.64Z" fill="#3A3B44"/>
<path d="M61.9 393.18L46.77 472.1H39.58L39.35 471.6V414.9C39.35 413.75 57.47 374.31 57.47 374.31L61.9 393.18Z" fill="#4B5680"/>
<path d="M50.54 472.1L46.03 485.94H33.54L33.55 484.94L33.64 472.1H50.54Z" fill="#3A3B44"/>
<path d="M132.21 477.89L131.21 485.94H118.89L118.82 485.58L118.37 478.05C120.456 478.268 122.556 478.322 124.65 478.21C126.95 478.16 129.33 478.04 130.82 477.96L132.21 477.89Z" fill="#3A3B44"/>
<path d="M136.41 111.08L107.53 109.87L115.88 104.42L123.44 101.59L136.41 111.08Z" fill="#7DD1F0"/>
<path d="M136.83 129.47V129.52L136.73 129.5L125.45 127.52L107.53 109.87L136.42 111.08L136.83 129.47Z" fill="#689DD4"/>
<path d="M136.83 129.52L132.07 131.2L130.43 131.78C126.76 133.09 122.71 134.53 121.55 134.99L121.36 135.06L121.1 135.18C120.58 135.06 117.21 125.69 112.84 118.41L110.75 114.92C108.94 111.92 107.56 109.92 107.56 109.92L125.48 127.57L136.76 129.57L136.83 129.52Z" fill="#3A3B44"/>
<path d="M43.8101 107.57L31.0601 108.21L42.7601 101.55L43.8101 107.57Z" fill="#7DD1F0"/>
<path d="M47.5601 107.57L37.2201 115.88L27.1201 128.74L23.3 122.05L31.0601 108.21L43.8101 107.57L42.7601 101.55L47.5601 107.57Z" fill="#689DD4"/>
<path d="M81.78 34.6999L97.59 26.1899L75.88 32.5099L81.78 34.6999Z" fill="#6767AE"/>
<path d="M79.39 64.6699L101.61 55.3999L104.56 58.3599L104.92 56.9899L101.61 55.3999L82.39 61.5799L79.39 64.6699Z" fill="#BC7645"/>
<path d="M77.1 64.7499L60.91 57.8999L74.19 61.9499L77.1 64.7499Z" fill="#9B5023"/>
<path d="M95.16 79.26L85.21 88.1L83.27 89.03L79.47 88.16L77.96 87.69L83.29 87.47L95.16 79.26Z" fill="#9B5023"/>
<path d="M68.6799 80.0699L77.9599 87.6899L68.6799 78.9199V80.0699Z" fill="#9B5023"/>
<path d="M68.6799 78.9199C68.6799 79.0899 78.17 87.4699 78.17 87.4699H83.2899L83.1199 88.1699L77.9599 87.6899C77.9599 87.6899 70.26 80.9399 70.2 80.9499C70.14 80.9599 68.6799 78.9199 68.6799 78.9199Z" fill="#9B5023"/>
<path d="M75.88 32.51C75.88 32.51 70.82 23.94 70.74 23.19C70.66 22.44 80.31 5 80.31 5C80.31 5 75.31 20.7 75.53 20.89C75.75 21.08 81.15 30.42 81.15 30.42L75.88 32.51Z" fill="#97712D"/>
<path d="M101.6 7.68006C100.97 7.49006 95.16 9.91007 95.16 9.91007C95.16 9.91007 88.73 26.4201 89.01 26.1901C89.29 25.9601 96.35 11.4301 96.35 11.4301L101.6 7.68006Z" fill="#97712D"/>
<path d="M46.75 25.0899L62.84 16.3299L71.77 18.7699L61.76 6.17993L46.75 25.0899Z" fill="#97712D"/>
<path d="M98.69 368.41C99.21 369.33 113.6 407.29 113.6 407.29L97.37 386.17L98.69 368.41Z" fill="#4B5680"/>
<path d="M48.81 370.98L36.08 375.67L39.35 414.89L57.47 374.31L48.81 370.98Z" fill="#3A3B44"/>
<path d="M58.02 235.11L52.6 257.01L69.47 275.02L67.32 286.34L74.6 288.3L81.25 286.6L77.18 273.27L93.57 259.94L102.33 226.56L83.87 233.55L83.86 236.03L69.47 242.56L58.02 235.11Z" fill="#689DD4"/>
<path d="M145.76 154C141.42 152.47 135.46 150.41 132.08 149.24L129.47 148.33L130.04 147.33L133.88 140.62L138.15 133.17L145.6 153.55L145.76 154Z" fill="#3A3B44"/>
<path d="M121.1 135.18L121.39 135.06L121.1 135.18Z" fill="#602852"/>
<path d="M138.15 133.17L133.88 140.62L130.04 147.32L129.47 148.32L118.38 148.6V148.53L117.77 147.46V147.39L117.87 147.01L119.08 142.58L121.08 135.18C121.79 134.81 136.81 129.52 136.81 129.52L138.15 133.17Z" fill="#4B5680"/>
<path d="M157.46 191.9L143.85 186L143.93 185.67L144.35 183.9L149.24 163.52L156.17 182.52L157.46 191.9Z" fill="#689DD4"/>
<path d="M147.06 205.49C147.15 206.11 147.21 206.49 147.21 206.7C147.21 208.08 137.39 215.1 137.39 215.1L138.03 198.68V198.54L138.44 187.97L138.21 187.72V187.41L136.96 183.41L135.26 177.97L118.36 148.61V148.54C121.15 148.26 129.29 147.44 130.01 147.34H130C130.648 147.5 131.283 147.707 131.9 147.96C134.99 149.13 141.08 151.67 145.56 153.56L145.72 154L149.2 163.5L144.31 183.88L143.89 185.65L143.81 185.98L143.88 186.41L143.95 186.81C144.22 188.36 144.81 191.81 145.42 195.47C146.11 199.38 146.78 203.47 147.06 205.49Z" fill="#7DD1F0"/>
<path d="M147.06 205.49C147.15 206.11 147.21 206.49 147.21 206.7L147.02 205.52L145.47 196L144 186.8L143.93 186.4L143.86 185.97L157.47 191.9L158.04 196.1L147.06 205.49Z" fill="#3A3B44"/>
<path d="M149.14 183.43L143.93 185.64L143.13 185.98L138.45 187.98L138.22 187.73V187.42L136.97 183.42C138.34 183.54 139.97 183.64 141.32 183.72L144.32 183.89L149.14 183.43Z" fill="#3A3B44"/>
<path d="M32.7 150.29L32.02 151.51C32.0398 151.555 32.0632 151.599 32.09 151.64C32.53 152.45 34.88 156.82 36.56 160.35L37.03 161.35L36.5 166.35V166.46C33.79 168.86 28.7 173.3 26.64 175.08L25.98 175.66C25.9195 175.705 25.8627 175.756 25.81 175.81L25.75 175.86L21.83 151.11C21.98 150.29 22.12 149.48 22.27 148.68L28.19 138.68L28.24 138.6L34.91 136.66L35.22 136.57L36.76 136.13H36.83H36.91H37.06L36.45 136.98L36.38 137.08L35.55 138.23L35.17 139.82L32.7 150.29Z" fill="#4B5680"/>
<path d="M21.85 151.2L25.77 176L17.59 182C17.89 177.36 18.15 173.29 18.15 172.66C18.15 172.33 18.46 170.4 18.93 167.59C19.66 163.38 20.78 157.1 21.85 151.2Z" fill="#689DD4"/>
<path d="M28.26 138.65L28.21 138.73L22.29 148.73C23.64 141.31 24.79 135.04 24.79 135.04L28.26 138.65Z" fill="#44193C"/>
<path d="M36.53 166.43V166.54L34.2 188.63L30.7 205L30.76 205.13L28.15 203.73L23.92 201.47L23.22 201.09L24.01 193.31L25.77 176L25.83 175.95C25.8827 175.896 25.9395 175.845 26 175.8V175.8L26.66 175.22C28.71 173.33 33.82 168.79 36.53 166.43Z" fill="#689DD4"/>
<path d="M25.7701 176L24.0001 193.27L23.2101 201.05L17.7401 198.25L16.5601 197.08C16.5601 197.08 17.1201 188.92 17.5601 182.03C17.8601 177.39 18.1201 173.32 18.1201 172.69C18.1201 172.36 18.4301 170.43 18.9001 167.62C21.3401 170.65 25.7701 176 25.7701 176Z" fill="#7DD1F0"/>
<path d="M161.21 199.05C161.478 201.121 161.445 203.219 161.11 205.28V205.28C160.91 205.5 156.35 211.77 149.98 218.79C144.91 224.37 140.37 229.26 140.28 228.98C140.07 228.35 134.91 214.8 134.91 214.8L137 214L145.67 206.69L158 196.1C158 196.1 157.75 195.75 158.54 194.93C159.33 194.11 161.21 199.05 161.21 199.05Z" fill="#689DD4"/>
</svg>
