<svg width="168" height="480" viewBox="0 0 168 480" fill="none" xmlns="http://www.w3.org/2000/svg">
<path d="M91.39 42.8101H91.34H90.22L86.22 42.8801H85.62L81 43.0001H79.67H78.37H78.27L78.09 43.0601L77.65 43.2501L77.09 43.4901L74.75 44.5501L74.4 44.7101L74 45.0001L73.76 45.1101L73.41 45.2701L71 42.8401L64.09 42.6001H63.46C63.58 43.1401 65.29 48.9101 65.29 48.9101L67.86 55.4001L72.16 62.1201H83L90.71 53.0101L90.78 52.9401L91.55 52.0401L91.6 51.9801V51.7901L91.39 42.8101ZM80.27 49.0001C80.58 49.0701 84.7 50.2501 84.7 50.2501L69.53 50.1701L71.15 49.0001C71.15 49.0001 80 48.8901 80.27 49.0001ZM71.59 52.6401H81.06C81.06 52.6401 78.97 55.1301 78.73 55.0501C78.49 54.9701 73.11 55.0501 73.11 55.0501L71.59 52.6401Z" fill="#A6662F"/>
<path d="M68.3599 0.639893L74.8299 2.44989L82.4999 0.639893L97.4399 4.5799L84.2399 7.8799L72.1699 7.2099L68.3599 0.639893Z" fill="#3E383E"/>
<path d="M164.25 219.19L164.2 219.63L154.51 218.56L165.64 167.84C165.64 167.84 167.05 189.52 167.42 190.21V190.35C167.61 193 164.25 219.19 164.25 219.19Z" fill="#5A5755"/>
<path d="M159.98 219.17L154.99 245.8L151.5 231.82L145.96 229.25L146.15 228.82L154.51 218.56L159.98 219.17Z" fill="#A4682F"/>
<path d="M154.99 245.8L144.68 248.06L142.81 244.46L148.11 243.31L148.6 238.9L142.81 244.46L140.89 240.73L145.96 229.25L151.5 231.82L154.99 245.8Z" fill="#85491F"/>
<path d="M167.27 246.06L162.23 250L144.68 248.06L154.99 245.8L167.27 246.06Z" fill="#4B1D11"/>
<path d="M164.2 219.63L167.27 246.06L154.99 245.8L159.98 219.17L164.2 219.63Z" fill="#85491F"/>
<path d="M141.35 80.6999L129.89 98.1799L109.77 84.4499L124.4 76.1299L124.62 76.2299L141.35 80.6999Z" fill="#A1A0A0"/>
<path d="M98.3901 65.53C93.4401 67.7 80.4701 74.67 79.0601 75.11C78.9901 75.11 78.9501 75.11 78.9401 75.11C78.6801 74.93 72.4601 69.82 68.8901 67.11L78.0701 70.64L97.1701 60.54V64.67L98.3901 65.53Z" fill="#70411E"/>
<path d="M97.2099 54.54V60.54L78.1099 70.64L68.9299 67.11L69.9999 61.58L71.8099 63.77H83.1099L97.2099 54.54Z" fill="#622F13"/>
<path d="M98.0001 45.0001L98.55 44.4101L98.0001 45.0001L97.2401 54.5001L83.0701 63.7201L91.6601 51.7201C94.2452 48.1263 96.4598 44.2801 98.2701 40.2401C98.4001 39.9001 98.0001 44.8601 98.0001 45.0001Z" fill="#471E12"/>
<path d="M91.59 51.83L83.05 63.76H71.75L69.94 61.57L67.67 55.67L65.31 49.09L62.77 42.51L64.08 42.58L65.92 48.93L68.49 55.42L72.17 62.14H83L91.59 51.83Z" fill="#78421B"/>
<path d="M103 28.52L105.14 38.47L98 45C98 44.82 98.42 39.86 98.27 40.21C99.7545 36.4447 100.74 32.5011 101.2 28.48L103 28.52Z" fill="#70411E"/>
<path d="M102.57 13.6799L101.4 28.4299L92.45 24.1599L93.05 14.1599L88.71 14.8699L77.08 18.3299L64.45 13.7399L63.21 24.9999L63.62 9.31992C63.62 9.31992 74.55 11.7199 74.8 11.7199C75.05 11.7199 91.88 10.1399 92.25 10.0199C92.62 9.89991 97.58 7.9299 97.86 7.6499L102.57 13.6799Z" fill="#22201F"/>
<path d="M88.7099 14.9L86.1499 23.71C86.1499 23.71 74.9999 28.89 74.8499 29C74.6999 29.11 66.6199 24.67 66.2499 24.55C65.8799 24.43 64.45 13.75 64.45 13.75L76.5799 18.15L88.7099 14.9Z" fill="#A6662F"/>
<path d="M101.42 28.5199L97.6201 30.5499L92.6901 32.0399L89.9301 28.6699L87.6201 25.8599L92.4501 24.1599L101.4 28.4299H101.39L101.42 28.5199Z" fill="#A1A0A0"/>
<path d="M97.93 30.3599C97.93 30.3599 93.24 39.2399 91.83 41.9999L91.58 42.4699L91.42 42.7599V42.8099L78.42 43.0299C78.13 43.0299 73.42 45.2599 73.42 45.2599L71 42.8399L64.46 42.5799L62.77 42.5099L64.77 38.1199L71.64 39.8399L73 32.9999L63.8 28.8099L62.98 25.2999L63.25 24.9399L74.56 31.1699L87.79 25.7799L89.99 28.4699L76.62 33.3599L77.78 39.8099C78.06 39.8099 90.17 39.3199 90.37 39.2499C90.57 39.1799 92.75 31.8399 92.75 31.8399L97.93 30.3599Z" fill="#29272C"/>
<path d="M72.96 33.0301L71.59 39.8401L71.06 33.3501L63.76 28.8401L72.96 33.0301Z" fill="#29272C"/>
<path d="M64.72 38.1201L62.77 42.5101L60.52 33.5801V28.5201L62.94 25.3301L63.76 28.8401L62.01 32.3301L63.62 37.8501L64.72 38.1201Z" fill="#A1A0A0"/>
<path d="M89.9501 28.5L79.7701 33.16L77.7401 39.84L76.5801 33.39L89.9501 28.5Z" fill="#29272C"/>
<path d="M101.42 28.52C101.18 28.87 100.9 34.52 98.5001 40.23L98.3901 40.49C96.2401 45.55 92.2701 50.58 91.7201 51.73C91.7201 51.73 91.7201 51.88 91.6501 51.92C91.6315 51.9563 91.604 51.9873 91.5701 52.01L91.3501 42.79V42.74C91.3501 42.69 91.4401 42.59 91.5101 42.45L91.7601 41.98C93.2401 39.23 97.8601 30.34 97.8601 30.34L101.04 28.6L101.33 28.5L101.42 28.52Z" fill="#5A5755"/>
<path d="M123.62 103.93L117.48 118.14C117.48 118.14 102.93 126.64 102.58 127C102.23 127.36 75.15 121.58 75.15 121.58L76.94 98.6899L85.08 82.8799L77 87.7699C77 87.7699 69.63 83.9799 69 83.3299L74.48 99.7199L70.79 122.06L47.53 128.36L34.77 119.55L46.86 134.87L63.31 128.87L49.47 142L53.7 178.37C53.7 178.37 61.41 197.1 61.87 197.37C62.33 197.64 86.66 197.37 86.66 197.37L104 172.1L114.33 166.54C114.33 166.42 114.33 166.36 114.33 166.36L114.61 165.6V165.55L126.97 125.1L123.62 103.93ZM92.56 154.38L92.7 156.03L94.7 180.68L91.52 185.39H91.25L73.53 187.51V130.3L96.14 141L92.56 154.38ZM80.14 129C80.14 129 104.76 133.56 105.43 133.39C106.1 133.22 125.9 117.48 126.52 116.99L107.44 140.99L80.14 129Z" fill="#40403E"/>
<path d="M126.52 116.94L107.44 140.94L80.1401 128.94C80.1401 128.94 104.76 133.5 105.43 133.33C106.1 133.16 125.9 117.43 126.52 116.94Z" fill="#29272C"/>
<path d="M74.55 99.7199L70.86 122.06L47.6 128.36L34.84 119.55L34 103.11L49.11 84.45L74.55 99.7199Z" fill="#A1A0A0"/>
<path d="M49.11 84.45L31.18 99.7199L26.77 94.4599L33.48 79.2999L45.07 78.4299L45.6 78.1899C46.84 80.1299 49.11 84.45 49.11 84.45Z" fill="#A1A0A0"/>
<path d="M25.48 119.08L25.52 118.94L26.77 94.46L31.18 99.72L34.84 119.55L25.48 119.08Z" fill="#40403E"/>
<path d="M52.9299 201.31L65.2499 226.37L64.1099 224.58L63.64 223.84L63.3799 223.44L62.8199 222.55L62.2 221.55L61.8699 221.03L60.8199 219.38L59.6899 217.6L58.8999 216.35L58.0899 215.08L57.6799 214.43L56.8799 213.17L55.5399 211.07L54.7599 209.83L53.9399 208.53C50.2799 202.75 47.1399 197.72 47.0799 197.47L50.4899 176.87C50.4899 176.87 44.2899 138.67 44.4899 135.2C43.5899 137.63 34.86 157.73 34.14 159.15L18.6799 151.33L32.7999 139L34.7999 119.57L46.89 134.89L63.3399 128.89L49.4699 142L53.7 178.37L52.9299 201.31Z" fill="#5A5755"/>
<path d="M18.6901 151.35L17.4801 178.83L7.08005 213.27L1.05005 209.83L12.2901 163.54L18.6901 151.35Z" fill="#A1A0A0"/>
<path d="M34.1001 159.27L32.4001 172.96L12.8201 213.53L7.08008 213.27L17.4801 178.83L34.1001 159.27Z" fill="#5A5755"/>
<path d="M11.8201 228.73L3.87012 241.78L0.620117 227.91L1.05011 209.83L7.08011 213.27L11.8201 228.73Z" fill="#874A20"/>
<path d="M19.4801 225.43L11.8201 228.73L7.08008 213.27L12.8201 213.53L19.3601 225.08L19.4801 225.43Z" fill="#A76931"/>
<path d="M22.8401 235.32L20.2301 237.94L11.8201 228.73L19.4801 225.43L22.8401 235.32Z" fill="#804A1F"/>
<path d="M20.2301 237.94L18.1201 241.91L17.3901 243.28L3.89014 241.86L3.87012 241.78L11.8201 228.73L20.2301 237.94Z" fill="#471914"/>
<path d="M118.86 191L96.14 211.67L86.41 226.44C85.91 225.77 107.94 194.1 107.41 193.6C106.88 193.1 104 172.1 104 172.1L114.33 166.54C114.56 168.66 118.79 189.6 118.79 190.43C118.798 190.622 118.821 190.812 118.86 191Z" fill="#5A5755"/>
<path d="M65.26 226.39L55.63 282.09L40.46 265.2L47.08 197.5C47.22 198.09 64.7 225.5 65.25 226.37L65.26 226.39Z" fill="#A1A0A0"/>
<path d="M131.52 247.9L134.86 304.41C134.86 304.41 125.73 315.48 122.29 320.41C124.79 314.83 129.98 300.86 129.98 300.6C129.98 300.34 117.2 283.55 115.8 280.12C115.89 279.71 115.89 279.49 115.8 279.51C115.71 279.53 115.68 279.75 115.8 280.12C114.8 284.26 103.74 308.27 102.8 310.21L102.74 310.34C95.5499 285.77 85.8299 253 85.8299 253L80.5699 289.41C80.5699 289.41 75.3199 314.88 75.2699 315.41C73.8641 316.887 72.2585 318.159 70.4999 319.19C65.9299 322.07 60.4199 325.55 59.9799 325.84C59.2099 326.35 70.1699 304.95 70.1699 304.95L55.6299 282.09L65.2599 226.39C65.2599 226.39 86.4199 227.05 86.4199 226.39L115.79 278.17L131.52 247.9Z" fill="#5A5755"/>
<path d="M55.63 282.09L49.9 314.67L40.46 265.2L55.63 282.09Z" fill="#5A5755"/>
<path d="M73.5599 337.76L61.7599 352.08L46.2 327.74L49.42 316.33L49.6799 315.43L49.8999 314.67L55.6299 282.09L70.17 305C70.17 305 59.1699 326.4 59.9799 325.89L75.2599 315.46C75.4799 314.76 73.5599 337.76 73.5599 337.76Z" fill="#40403E"/>
<path d="M79.88 374.59L61.76 352.08L73.56 337.76L79.88 374.59Z" fill="#C7C6C1"/>
<path d="M79.88 374.59L63.6 444.55L61.76 352.08L79.88 374.59Z" fill="#29272C"/>
<path d="M52.1799 419.35C52.1799 419.35 49.9499 358.35 49.7299 357.69C49.5099 357.03 46.2 328.4 46.2 327.69L61.7599 352.03L63.5999 444.5L52.1799 419.35Z" fill="#5A5755"/>
<path d="M64.4701 467.65L27.6401 469.39C27.6401 469.39 18.7 472.44 17.83 472.22C16.96 472 2.57007 469.83 2.57007 469.83L3.44006 464.38L22.5001 465.2L40.0701 465.96L56.86 462.26C56.86 462.26 64.0201 460.42 64.2401 460.48C64.3701 464.48 64.4701 467.65 64.4701 467.65Z" fill="#40403E"/>
<path d="M64.2399 460.48C64.0199 460.42 56.8599 462.26 56.8599 462.26L48.45 441L52.1799 419.09L63.5999 444.29C63.7099 444.33 63.9999 453.63 64.2399 460.48Z" fill="#40403E"/>
<path d="M56.8599 462.26L40.0699 466.18L22.4999 465.42L12.1799 460.48L38.4699 450.09L56.8599 462.26Z" fill="#C7C6C1"/>
<path d="M22.4999 465.42L3.43994 464.38L12.17 460.48H12.1799L22.4999 465.42Z" fill="#29272C"/>
<path d="M131.52 247.9L115.79 278.19C115.16 277.57 122.25 211.84 122.25 211.84C126.94 227.47 131.52 247.9 131.52 247.9Z" fill="#40403E"/>
<path d="M134.86 304.41C134.86 304.41 133.97 305.49 132.64 307.13L131.83 308.13C131.22 308.88 130.56 309.7 129.83 310.57C129.57 310.89 129.3 311.22 129.04 311.57C128.78 311.92 128.52 312.21 128.27 312.57L127.27 313.79C126.37 314.93 125.48 316.08 124.66 317.14L123.85 318.21C123.822 318.257 123.789 318.301 123.75 318.34C123.35 318.87 122.99 319.34 122.65 319.83L122.31 320.31C122.277 320.347 122.247 320.388 122.22 320.43L122.28 320.3C122.75 319.24 123.28 317.89 123.92 316.41L124.48 315.02L124.54 314.88C124.94 313.88 125.35 312.83 125.75 311.78C125.88 311.46 126 311.15 126.12 310.84C126.42 310.06 126.72 309.29 127 308.53C127.28 307.77 127.5 307.22 127.73 306.61C127.96 306 128.1 305.61 128.26 305.19C128.42 304.77 128.53 304.49 128.65 304.19C128.77 303.89 128.85 303.63 128.95 303.37C129.54 301.77 129.95 300.72 129.95 300.65C129.95 300.42 117.17 283.6 115.77 280.17C115.77 280.25 115.77 280.34 115.7 280.43C115.687 280.494 115.67 280.558 115.65 280.62C115.65 280.7 115.6 280.79 115.57 280.88C115.54 280.97 115.45 281.26 115.37 281.48L115.25 281.82C115.25 281.94 115.16 282.06 115.12 282.19C115.08 282.32 115.02 282.44 114.98 282.57C114.94 282.7 114.87 282.84 114.82 282.98L114.53 283.74L114.41 284.02C114.36 284.16 114.3 284.31 114.24 284.45C114 285.06 113.74 285.7 113.46 286.38C113.39 286.55 113.32 286.72 113.24 286.89C113.16 287.06 113.13 287.15 113.07 287.29C113.01 287.43 112.91 287.68 112.82 287.88C112.44 288.77 112.05 289.71 111.63 290.66C111.5 290.98 111.36 291.3 111.22 291.66C111.08 291.98 110.94 292.31 110.79 292.66L109.48 295.66L108.72 297.38L107.88 299.25L107.06 301.06L106.35 302.64L105.83 303.78L104.25 307.25L103.91 307.97L103.71 308.41C103.66 308.53 103.6 308.64 103.55 308.75L103.45 308.97C103.31 309.27 103.19 309.52 103.1 309.73L102.97 310.02L102.87 310.23L102.82 310.34L102.76 310.47L118 327.53V327.58L121 349.34L136.11 334.52L134.86 304.41Z" fill="#40403E"/>
<path d="M136.19 421.27L116.63 382.36C116.63 382.36 116.63 381.95 116.53 381.22C116.59 379.92 121 357 121 357L110.43 336.66C110.43 336.41 107.03 324.8 102.88 310.47L118.1 327.7L121 349.34L152.25 417.74L156.25 448.46L136.19 421.27Z" fill="#5A5755"/>
<path d="M121 357C121 357 116.57 379.91 116.51 381.17C115.92 374.17 110.43 337.25 110.43 336.66L121 357Z" fill="#C7C6C1"/>
<path d="M152.27 417.75L121.02 349.35L136.13 334.53L146.78 368.21L152.27 417.75Z" fill="#29272C"/>
<path d="M161.48 460.81L138.52 453.38L136.6 422.11L136.19 421.27L156.22 448.47L161.48 460.81Z" fill="#40403E"/>
<path d="M166 471.45L141.88 471C141.88 471 138.57 461.32 138.57 460.91V453.7L138.52 453.38L161.52 460.81L166 471.45Z" fill="#C7C6C1"/>
<path d="M167.55 475.06L154 479.42H142L136.34 472.42L138.52 461.3V460.89C138.52 461.3 141.83 470.98 141.83 470.98L165.96 471.42L167.55 475.06Z" fill="#40403E"/>
<path d="M153.45 155C153.45 155 147.31 160.1 143.12 163.45C142.12 162.22 136.63 152.63 135.12 151.22C137.55 152.17 152.37 154.84 153.45 155Z" fill="#40403E"/>
<path d="M154.51 218.56L144.61 181.43L143.26 163.6L143.12 163.41C147.31 160.06 153.45 154.96 153.45 154.96L154.51 218.56Z" fill="#A1A0A0"/>
<path d="M165.64 167.84L154.51 218.56L153.45 154.96L165.64 167.84Z" fill="#40403E"/>
<path d="M105.56 70.4299L85.0801 82.8799L77.0001 87.7699C77.0001 87.7699 69.6301 83.9799 69.0001 83.3299V83.2399C69.2501 83.0699 66.3101 76.0699 64.1201 71.6899L66.9001 68.9999L67.3001 68.6199C67.5701 68.3799 67.8101 68.1499 68.0301 67.9399C68.4701 67.5299 68.7801 67.2099 68.8601 67.1099C72.4301 69.8299 78.6501 74.9399 78.9101 75.1099C78.9101 75.1099 78.9601 75.1099 79.0301 75.1099C80.3601 74.5799 92.4401 66.6699 97.1101 64.6799L98.3601 65.5299L105.56 70.4299Z" fill="#5A5755"/>
<path d="M74.5499 99.72L49.1099 84.45L69.0399 83.24L69.0699 83.33L74.5499 99.72Z" fill="#C7C6C1"/>
<path d="M33.9999 103.11L34.8399 119.55L31.1799 99.7199L49.1099 84.45L33.9999 103.11Z" fill="#5A5755"/>
<path d="M32.7999 138.98L18.6899 151.35L20.5899 132.24L25.4799 119.08L34.8399 119.55L32.7999 138.98Z" fill="#C7C6C1"/>
<path d="M34.15 159.17V159.27L17.53 178.83L18.74 151.35L34.15 159.17Z" fill="#40403E"/>
<path d="M18.1201 241.91L7.08008 239.49L10.1001 235.84L20.2301 237.94L18.1201 241.91Z" fill="#804A1F"/>
<path d="M109.77 84.4499L76.9399 98.6899L85.0799 82.8799L109.77 84.4499Z" fill="#C7C6C1"/>
<path d="M123.62 103.93L117.48 118.14C117.48 118.14 102.93 126.65 102.58 127.01C102.23 127.37 75.1499 121.58 75.1499 121.58L76.9399 98.6899L109.77 84.45L123.62 103.93Z" fill="#A1A0A0"/>
<path d="M148.6 238.9L148.11 243.31L142.81 244.46L148.6 238.9Z" fill="#4B1D11"/>
<path d="M92.56 154.38L94.71 180.69L91.53 185.4L73.54 187.55V130.3L96.14 140.97L92.56 154.38Z" fill="#A1A0A0"/>
<path d="M115.79 278.19L86.4199 226.41L96.1499 211.64L118.86 191C119.41 193.09 120.73 201.33 122.25 211.89C122.25 211.84 115.16 277.57 115.79 278.19Z" fill="#A1A0A0"/>
<path d="M86.4099 226.39C86.4099 227.03 65.2499 226.39 65.2499 226.39L52.9299 201.33L53.7 178.33C53.7 178.33 61.4099 197.06 61.8699 197.33C62.3299 197.6 86.6599 197.33 86.6599 197.33L104 172.1C104 172.1 107 193.05 107.49 193.55C107.98 194.05 85.9099 225.72 86.4099 226.39Z" fill="#29272C"/>
<path d="M93.05 14.19L92.45 24.19L87.75 25.84L74.52 31.23L63.21 25L64.45 13.8C64.45 13.8 65.89 24.4801 66.25 24.6001C66.61 24.7201 74.66 29.17 74.85 29.05C75.04 28.93 86.15 23.7401 86.15 23.7401L88.71 14.93L93.05 14.19Z" fill="#83491F"/>
<path d="M84.71 50.2L82.23 50.76L70.78 50.49C70.78 50.49 69.58 50.12 69.53 50.12L71.15 48.95C71.15 48.95 79.96 48.89 80.27 48.95C80.58 49.01 84.71 50.2 84.71 50.2Z" fill="#8F5729"/>
<path d="M81.0601 52.5901C81.0601 52.5901 78.9701 55.0801 78.7301 55.0001C78.4901 54.9201 73.1101 55.0001 73.1101 55.0001L71.5901 52.5901H81.0601Z" fill="#8F5729"/>
<path d="M92.71 31.87C92.71 31.87 90.53 39.21 90.33 39.28C90.13 39.35 78.02 39.84 77.74 39.84L79.74 33.16L90 28.5L92.71 31.87Z" fill="#FFFDFD" stroke="#231F20" stroke-linejoin="round"/>
<path d="M71.59 39.8401L64.72 38.1201L63.62 37.8501L62.01 32.3301L63.76 28.8401L71.06 33.3501L71.59 39.8401Z" fill="#FFFDFD" stroke="#231F20" stroke-linejoin="round"/>
<path d="M78.0801 43.1101L90.9001 44.3701L91.6001 51.9801L91.3901 42.8101L78.3901 43.0301L78.0801 43.1101Z" fill="#6A3F26"/>
<path d="M102.57 13.6801L89.9999 12.7501L74.8899 15.1401L64.7699 12.4801L63.6699 9.29007L65.0699 6.75008L85.7499 9.14008L97.4899 4.58008L102.57 13.6801Z" fill="#22201F"/>
<path d="M75.1299 28.3901L76.5799 25.8301V27.6101L75.1299 28.3901Z" fill="#A46A33"/>
<path d="M68 67.9999C67.78 68.2099 67.54 68.4399 67.27 68.6799L68.83 67.1499C68.78 67.2499 68.47 67.5699 68 67.9999Z" fill="#643090"/>
<path d="M69 83.24L49.07 84.45C49.07 84.45 47.35 81.17 46.07 79.03C45.88 78.71 45.7 78.42 45.54 78.17L48.92 76.17L49.05 76.09V76.15C52.36 75.76 59.64 75.15 59.64 75.15C61.2206 74.1305 62.7126 72.9798 64.1 71.71C66.35 76.07 69.29 83.07 69 83.24Z" fill="#40403E"/>
<path d="M49.11 76.1001V79.0001H46.11L33.46 79.2501L47.4 76.3401L49.11 76.1001Z" fill="#40403E"/>
<path d="M92.56 154.38L73.54 151.02L72.27 155.36L92.7 156.04L94.52 155.02L92.56 154.38Z" fill="#5A5755"/>
<path d="M52.9301 201.31L65.2501 226.37L64.1101 224.58L63.6401 223.84L63.3801 223.44L62.8201 222.55L62.2001 221.55L61.8701 221.03L60.8201 219.38L59.6901 217.6L58.9001 216.35L58.0901 215.08L57.6801 214.43L56.8801 213.17L55.5401 211.07L54.7601 209.83L53.9401 208.53C50.2801 202.75 47.1401 197.72 47.0801 197.47L50.4901 176.87C50.4901 176.87 44.2901 138.67 44.4901 135.2L34.8301 119.53L46.9201 134.85L63.3701 128.85L49.4701 142L53.7001 178.37L52.9301 201.31Z" fill="#5A5755"/>
<path d="M97.4401 4.5799V9.28989L74.7401 13.7699L63.6201 9.28989L65.0201 6.74989C66.3901 4.25989 68.3001 0.799893 68.3601 0.639893C68.3601 0.979893 75.4701 5.3799 75.4701 5.3799L79.3001 2.99989L82.5001 4.6299L97.4401 4.5799Z" fill="#22201F"/>
<path d="M93.0499 14.19C93.0499 14.19 97.1899 11.96 97.1499 12.12C97.1099 12.28 95.5899 25.51 95.5899 25.51L92.45 24.16L93.0499 14.19Z" fill="#3E383E"/>
<path d="M101.97 30.75L104.11 38.12L101.12 41.56L101.97 30.75Z" fill="#5C3412"/>
<path d="M101.12 41.56L99.27 41.41L101.97 30.75L103.56 36.16L101.12 41.56Z" fill="#5C3412"/>
<path d="M76.5801 17.5601C76.5801 17.3701 66.5801 10.0401 66.5801 10.0401C66.5801 10.0401 68.2201 1.4001 68.4001 1.6501C68.5801 1.9001 74.6701 9.10011 74.6701 9.10011L76.5801 17.5601Z" fill="#3E383E"/>
<path d="M62.77 42.51L70.82 43.72C70.82 43.72 73.54 45.41 73.38 45.26L71 42.84L62.77 42.51Z" fill="#6A3F26"/>
<path d="M124.4 76.1299L109.77 84.45L85.0801 82.8799L105.56 70.4299L106.81 71.2799L124.4 76.1299Z" fill="#40403E"/>
<path d="M123.62 103.93L123.57 125.15L114.28 166.54L127.55 124.66L123.62 103.93Z" fill="#29272C"/>
<path d="M71.0001 137.64C71.3401 138.49 70.3201 149.95 70.3201 149.95L59.1001 150.67L61.4701 139.83L71.0001 137.64Z" fill="#A1A0A0"/>
<path d="M102.84 310.17L102.78 310.3C95.55 285.77 85.83 253 85.83 253L80.57 289.41C80.57 289.41 75.32 314.88 75.27 315.41C73.8642 316.886 72.2586 318.159 70.5 319.19L76.71 299L84.84 249.79L77.67 246.45L74.62 237.96L81.09 243.35H89C89 243.35 90.79 251.66 91.25 252.5C91.71 253.34 102 305.67 102.84 310.17Z" fill="#29272C"/>
<path d="M38.47 450.09L48.47 441.04C48.47 441.04 57.47 463.04 56.89 462.48C56.31 461.92 38.47 450.09 38.47 450.09Z" fill="#29272C"/>
<path d="M164.25 219.19L164.2 219.63L154.51 218.56L167.42 190.21V190.35C167.61 193 164.25 219.19 164.25 219.19Z" fill="#A1A0A0"/>
<path d="M72.1699 62.14C72.2999 62 74.0699 59.04 74.0699 59.04L79.2299 58.77L82.9999 62.14L75.7999 63.09L72.1699 62.14Z" fill="#78421B"/>
<path d="M152 105.14V105.21L142.35 121.91L127.84 113.37L129.84 98.17L141.3 80.7L141.62 80.7499L152 105.14Z" fill="#29272C"/>
<path d="M135.6 127.09C135.6 127.09 134.4 149.79 134.79 150.95C134.13 150.87 127.34 126.19 127.34 126.19L121.71 105.33L110.08 84.45L129.92 98.1199L128.25 113.28L142.38 121.91L135.6 127.09Z" fill="#5A5755"/>
<path d="M165.64 167.84L153.45 155L142.38 122L152.12 105.1C152.02 106.16 154.93 120.1 155.07 120.75C155.21 121.4 155.69 134.36 155.69 134.36C155.69 134.36 156.38 153.96 156.45 153.3C156.52 152.64 165.64 167.84 165.64 167.84Z" fill="#5A5755"/>
<path d="M153.45 155C152.37 154.88 137.55 152.21 135.11 151.22C134.96 151.07 134.86 150.99 134.8 150.99C134.41 149.83 135.61 127.13 135.61 127.13L142.39 121.95L153.45 155Z" fill="#A1A0A0"/>
<path d="M47.4299 76.3601L49.1099 76.1001V76.1601H48.9799L47.4199 76.3501L47.4299 76.3601Z" fill="#662F8E"/>
</svg>
