<svg width="162" height="515" viewBox="0 0 162 515" fill="none" xmlns="http://www.w3.org/2000/svg">
<path d="M123.88 102.24L116.21 104L114.62 103.92L120.43 89.3102L113.15 50.4302L107.99 65.4302L105.38 67.4302V56.4302L101.92 41.8802L99.37 31.2102L98.05 25.6302L76.34 32.0002L60.24 24.5802L56.24 30.5302V36.1702C55.62 38.7002 53.96 45.4002 53.96 46.1102C53.96 47.0002 55.09 61.2802 55.46 62.0202C55.83 62.7602 50.85 72.7802 50.85 72.7802L56.48 68.9502L61.15 61.5702L63.81 71.6802L69.11 78.4102L68.54 99.1502L56.24 103.45L55.56 103.21L46.39 100.43L43.56 62.4302L47.19 24.5702L62.19 5.6602L80.65 0.200195L102.02 7.2002L116.41 31.9902L119.34 53.1302L118.07 56.1902L123.76 85.7202L123.88 102.24Z" fill="black"/>
<path d="M53.91 45.2202L49.68 60.4802L48.6 57.3402L46.69 65.1802L51.52 101.78C51.52 101.78 60.72 94.6702 61.37 93.8302C62.02 92.9902 59.72 69.1602 59.72 69.1602L57.05 53.3902L53.91 45.2202Z" fill="#404041"/>
<path d="M53.6 70.88L54.6 78.94L52.79 83.45L51.5 101.78C51.5 101.78 62.72 108.93 63.02 108.83C63.32 108.73 71.02 105.62 71.18 105.22C71.34 104.82 75.18 94.49 75.06 92.88C74.94 91.27 75.2 77.3 74.63 76.97C74.06 76.64 67.84 70.61 67.44 70.31C67.04 70.01 63.32 61.39 63.32 61.39L59.85 59.27L53.6 70.88Z" fill="#404041"/>
<path d="M95.61 78.6999L95.4 82.0799L79.27 99.3999L79.56 120.83L69.56 125.65L45.68 116.32C45.68 116.32 45.36 113.32 45.68 112.89L55.59 103.19L56.27 103.43L71 97.9999L69.14 78.3499L63.84 71.6199L61.18 61.5099V61.2399L59.27 56.6599L58.57 54.1499L61.41 57.3299C61.41 57.3299 74.22 61.3299 74.69 61.3299C75.16 61.3299 78.69 65.3299 78.69 65.3299V72.0699L71.26 70.6899L74.37 75.5399L78.69 76.9299V86.8699H83.81L95.61 78.6999Z" fill="#9F5A2A"/>
<path d="M76.34 31.9498L72.57 33.4698L72.23 38.0998L56.26 30.4798L60.24 24.5298L76.34 31.9498Z" fill="#F4831F"/>
<path d="M99.38 31.2099L84.21 38.1199L82.85 38.7299L82.24 34.1499L76.34 31.9499L98.05 25.6299L99.38 31.2099Z" fill="#F4831F"/>
<path d="M101.92 41.88L95.61 38.7299C95.61 38.7299 82.04 47.48 81.61 47.81C81.18 48.14 84.18 38.1199 84.18 38.1199L99.34 31.21L101.92 41.88Z" fill="#EE4023"/>
<path d="M101.92 41.8901L95.61 38.7401C95.61 38.7401 82.04 47.4801 81.61 47.8101C81.18 48.1401 84.17 38.1201 84.17 38.1201L82.82 38.7401L77.52 47.0001L78.32 52.8601L78.12 62.0401L82.82 61.0401L102.04 54.8701L105.35 56.4501L101.92 41.8901ZM78.92 59.7801L80.18 54.1701L82.56 59.7801H78.92ZM101.92 49.1401L93.54 54.8501L82.85 50.2701C83.48 50.2701 96.42 41.4201 96.42 41.4201L101.92 45.9401V49.1401Z" fill="#EE4023"/>
<path d="M74.67 61.4098C74.21 61.4098 61.39 57.4098 61.39 57.4098L58.56 54.2398C57.6354 51.1419 56.8744 47.9976 56.28 44.8198C56.28 44.1298 56.28 39.8198 56.28 36.1898C56.28 33.1898 56.28 30.5498 56.28 30.5498L61.28 40.8398L61.47 41.4898L61.64 42.0798L57.71 46.6798L64.79 54.9198L65.45 54.5498L74.67 61.4098Z" fill="#EE4023"/>
<path d="M145.93 195.4L146.14 206.11L138.24 212.8L138.49 198.12V198L138.67 187.18V186.87L137.42 182.87L135.72 177.43L118.84 148V147.93L118.23 146.86L118.37 146.36L119.57 142.02L121.57 134.62C122.28 134.25 137.3 128.96 137.3 128.96L134.36 140.06L132.42 147.38L132.33 147.72C132.33 147.72 132.33 147.83 132.38 147.93V148.06C132.38 148.06 132.38 148.17 132.38 148.23C132.38 148.29 132.44 148.48 132.48 148.63L132.61 149.14C132.61 149.32 132.7 149.51 132.76 149.72C132.84 150 132.91 150.3 132.99 150.63V150.79C133.06 151.05 133.13 151.32 133.2 151.61C133.27 151.9 133.35 152.2 133.43 152.51C133.51 152.82 133.52 152.88 133.57 153.08C133.73 153.69 133.9 154.35 134.07 155.03C134.19 155.48 134.3 155.94 134.43 156.41C134.49 156.66 134.56 156.92 134.62 157.18C135.16 159.25 135.74 161.53 136.35 163.86C136.43 164.15 136.51 164.45 136.58 164.74L137.28 167.39C137.36 167.69 137.44 167.98 137.51 168.27C137.82 169.44 138.14 170.6 138.44 171.74C138.52 172.02 138.6 172.31 138.67 172.59L139.12 174.24C139.2 174.51 139.27 174.78 139.34 175.05C140 177.44 140.62 179.59 141.14 181.31C141.2 181.5 141.25 181.68 141.31 181.86C141.44 182.3 141.57 182.71 141.69 183.08C141.81 183.45 141.84 183.52 141.91 183.72L142.03 184.07C142.15 184.4 142.26 184.68 142.34 184.88C142.392 185.002 142.456 185.12 142.53 185.23C142.548 185.261 142.572 185.288 142.6 185.31C142.6 185.31 142.66 185.31 142.68 185.31C142.714 185.274 142.757 185.246 142.803 185.229C142.85 185.212 142.9 185.205 142.95 185.21C143.029 185.197 143.11 185.197 143.19 185.21L143.46 185.3H143.51L143.77 185.43C143.92 185.5 144.08 185.6 144.25 185.7C144.65 185.95 145.1 186.27 145.56 186.62C145.723 186.731 145.88 186.851 146.03 186.98C147.22 187.9 148.43 188.98 149.17 189.64C149.231 189.688 149.288 189.742 149.34 189.8L149.86 190.27L145.75 192.8V194.8L145.93 195.4Z" fill="#DC9159"/>
<path d="M37 136.48L35.68 139.25L26.38 158.81L26.49 175.15L26.61 193.78C25.9256 193.375 25.2214 193.004 24.5 192.67C24.09 192.5 23.77 192.4 23.73 192.52C23.61 192.82 23.68 198.45 23.73 200.45V200.64L21.94 199.52L17.08 196.52C17.08 196.52 17.64 188.36 18.08 181.52C18.38 176.88 18.64 172.81 18.64 172.18C18.64 171.85 18.95 169.92 19.42 167.11C20.15 162.87 21.27 156.59 22.34 150.69C22.49 149.87 22.63 149.06 22.78 148.26C24.13 140.84 25.28 134.57 25.28 134.57L28.7 138.22L29.37 138.94C31.6975 137.652 34.2564 136.836 36.9 136.54L37 136.48Z" fill="#DC9159"/>
<path d="M158.49 195.54L147.49 204.93L146.15 206.08L145.94 195.37V194.87V192.87L150.05 190.34L149.53 189.87C149.478 189.811 149.421 189.758 149.36 189.71C148.62 189.04 147.41 187.97 146.22 187.05C146.07 186.921 145.913 186.801 145.75 186.69C145.29 186.34 144.84 186.02 144.44 185.77C144.27 185.67 144.11 185.57 143.96 185.5L143.7 185.37H143.65L143.38 185.28C143.301 185.267 143.22 185.267 143.14 185.28C143.09 185.275 143.04 185.281 142.994 185.299C142.947 185.316 142.905 185.344 142.87 185.38C142.87 185.38 142.87 185.38 142.79 185.38C142.762 185.358 142.738 185.331 142.72 185.3C142.646 185.189 142.582 185.072 142.53 184.95C142.41 184.67 142.26 184.28 142.1 183.79C142.03 183.59 141.95 183.38 141.88 183.15C141.81 182.92 141.63 182.37 141.5 181.93C141.44 181.75 141.39 181.57 141.33 181.38C140.81 179.66 140.19 177.51 139.53 175.12C139.46 174.85 139.39 174.58 139.31 174.31L138.86 172.66C138.79 172.38 138.71 172.09 138.63 171.81C138.33 170.67 138.01 169.51 137.7 168.34C137.63 168.05 137.55 167.76 137.47 167.46L136.77 164.81C136.7 164.52 136.62 164.22 136.54 163.93C135.93 161.6 135.35 159.32 134.81 157.25C134.75 156.99 134.68 156.73 134.62 156.48C134.49 156.01 134.38 155.55 134.26 155.1C134.09 154.42 133.92 153.76 133.76 153.15C133.71 152.95 133.67 152.76 133.62 152.58C133.46 151.96 133.31 151.38 133.18 150.86V150.7C133.1 150.37 133.03 150.07 132.95 149.79C132.89 149.58 132.84 149.39 132.8 149.21L132.67 148.7C132.67 148.55 132.6 148.41 132.57 148.3C132.54 148.19 132.57 148.18 132.57 148.13V148C132.57 147.9 132.57 147.82 132.52 147.79L132.61 147.45L134.55 140.13L137.49 129.03L138.82 132.68L146.06 153L146.22 153.44L149.7 162.94L156.63 181.94L157.92 191.38L158.49 195.54Z" fill="#F1B280"/>
<path d="M108 109.31C108 109.31 109.45 111.4 111.25 114.43L72.13 126.66L69.56 125.66L79.56 120.84L79.27 99.4099L95.4 82.0898L94.93 98.4198L114.62 103.92L116.21 104L108 109.31Z" fill="#A6662F"/>
<path d="M36.79 136.88L35.66 139.25L36.04 137.67L36.86 136.53L36.91 136.45C36.8642 136.38 36.8363 136.3 36.8288 136.216C36.8213 136.133 36.8345 136.049 36.8671 135.972C36.8997 135.895 36.9508 135.827 37.0158 135.774C37.0808 135.722 37.1578 135.686 37.24 135.67H37.31H37.39H37.54L36.92 136.54C36.92 136.54 36.92 136.54 36.92 136.61L36.74 137L36.79 136.88Z" fill="#F1B280"/>
<path d="M37.05 159.84L37.53 160.77V160.84L37 165.84V166L34.67 188.09L31.18 204.42L28.63 203.15L23.7 200.7V200.51C23.7 200.12 23.7 199.59 23.7 198.99C23.7 197.08 23.7 194.45 23.7 193.24C23.7 193.08 23.7 192.95 23.7 192.84C23.7 192.73 23.7 192.72 23.7 192.67C23.6979 192.64 23.6979 192.61 23.7 192.58C23.7 192.46 24.06 192.58 24.47 192.73L24.69 192.83L24.92 192.94L25.16 193.06C25.64 193.3 26.11 193.57 26.37 193.72L26.53 193.81H26.58L26.46 175.18L26.35 158.84L35.65 139.28L33.16 149.73L32.48 150.95C32.4998 150.995 32.5232 151.038 32.55 151.08L37.02 159.79C37.02 159.79 37 159.83 37.05 159.84Z" fill="#F1B280"/>
<path d="M76.54 50.44L73.5 45.96L62.1 41.44H61.43L61.24 40.79L56.28 30.5L72.25 38.12L75.55 43.63L76.54 50.44Z" fill="#EE4023"/>
<path d="M82.85 38.7302L77.55 46.9902L75.52 43.6102L72.23 38.1002L72.57 33.4702L76.34 31.9502L82.24 34.1502L82.85 38.7302Z" fill="#F4831F"/>
<path d="M120.43 89.2999L114.62 103.91L92.87 98.4099L95.4 82.0799L95.61 78.6999L99.29 72.2199L105.38 56.4299V67.3699L107.99 65.3699L113.15 50.4199L120.43 89.2999Z" fill="#404041"/>
<path d="M105.38 56.4298L99.29 72.2198L95.61 78.6998L83.75 86.9099H78.63V76.9698L82.59 76.3898L86.72 72.1098L90.85 67.3698L86.72 70.7298L78.63 72.1098V65.3698L82.85 61.0199L102.07 54.8398L105.38 56.4298Z" fill="#A6662F"/>
<path d="M90.85 67.3701L86.73 72.1101L82.59 76.3901L78.63 76.9701L74.31 75.5801L71.2 70.7301L76.95 73.7101L81.02 73.2801L86.73 70.7301L90.85 67.3701Z" fill="#A96739"/>
<path d="M86.73 70.73L81.02 73.28L76.95 73.71L71.2 70.73L78.63 72.11L86.73 70.73Z" fill="#9E5C28"/>
<path d="M82.59 59.7702H78.95L80.2 54.1602L82.59 59.7702Z" fill="#7C4B20"/>
<path d="M82.85 60.9999L78.63 65.3499C78.63 65.3499 75.1 61.3499 74.63 61.3499L65.37 54.4399C67.37 53.2999 73.55 49.8899 73.96 49.8899L62.06 41.3799L73.45 45.8899L76.45 50.3799L75.45 43.5699L77.45 46.9499L78.25 52.8099L78.06 61.9999L82.85 60.9999Z" fill="#EE4023"/>
<path d="M61.17 61.5201L56.5 68.9001L50.87 72.7301C50.87 72.7301 55.87 62.7301 55.48 61.9701C55.09 61.2101 53.98 46.9701 53.98 46.0601C53.98 45.3501 55.64 38.6501 56.26 36.1201C56.26 39.8001 56.26 44.0501 56.26 44.7501C56.26 45.6101 57.65 50.9301 58.53 54.1601L59.23 56.6701L61.14 61.2501L61.17 61.5201Z" fill="#50493F"/>
<path d="M101.92 45.9299V49.1399L93.54 54.8399L82.85 50.2599C83.49 50.2599 96.42 41.4199 96.42 41.4199L101.92 45.9299Z" fill="white" stroke="#231F20" stroke-linejoin="round"/>
<path d="M74 49.93C73.59 49.93 67.45 53.34 65.41 54.48L64.75 54.84L57.67 46.6001L60.78 41.6001L61.24 40.79L74 49.93Z" fill="white" stroke="#231F20" stroke-linejoin="round"/>
<path d="M79.85 218.24L79.62 237.6L69.93 242C69.93 242 69.93 226.73 69.93 226C69.8564 225.994 69.7827 226.011 69.72 226.05L69.56 226.13L69.37 226.24C67.03 227.59 58.37 234.44 58.37 234.44L58.07 234.2L57.19 218.2V214.47H57.4C58.48 215.75 60.64 218.21 61 218.21L79.85 218.24Z" fill="#EE4023"/>
<path d="M128.52 266.15L116.87 353.6L102.79 355L77.64 272.71C77.64 272.71 88.38 263.91 99.15 255.25C101.42 253.42 103.69 251.59 105.86 249.86C105.55 257.57 103.91 292.04 103.91 292.04C103.91 292.04 116.61 320.2 116.97 319.64C117.33 319.08 128.09 267.76 128.52 266.15Z" fill="#7C4B20"/>
<path d="M47.84 509.32L20.24 510.89C20.24 510.89 10.24 512.1 9.45004 511.89C8.66004 511.68 0.650024 509.72 0.650024 509.72L1.41003 506.33L15.27 507.03H15.72L26.54 507.72L40.41 504.54L40.95 504.42C41.0031 504.412 41.057 504.412 41.11 504.42V504.42C41.47 504.32 47.34 502.76 47.52 502.81C47.76 506.44 47.84 509.32 47.84 509.32Z" fill="#7C4B20"/>
<path d="M26.47 507.62L40.45 504.6L26.58 507.78L15.76 507.09L15.31 507.07H15.3L15.27 507.05L15.57 507.07L26.47 507.62Z" fill="#001750"/>
<path d="M47.63 502.81C47.45 502.81 41.58 504.32 41.22 504.42V504.29L41.17 504.15L40.85 503.23C40.77 502.98 40.66 502.7 40.55 502.39C40.44 502.08 40.31 501.74 40.17 501.39L40 501C39.94 500.84 39.88 500.66 39.81 500.49C39.58 499.86 39.33 499.19 39.05 498.49L38.8 497.83C38.51 497.08 38.22 496.29 37.91 495.49C37.73 495.05 37.57 494.61 37.4 494.16C36.97 493.06 36.55 491.97 36.16 490.95L35.74 489.87C35.33 488.82 34.97 487.87 34.67 487.14C34.6361 487.034 34.596 486.931 34.55 486.83L34.4 486.44C34.34 486.29 34.29 486.14 34.24 486.02L34.1 485.67C33.99 485.37 33.92 485.2 33.92 485.2L34.05 484.42V485.42H46.54C46.58 485.38 47.45 496.59 47.63 502.81Z" fill="#EE4023"/>
<path d="M40 471.54H39.77V471L40 471.54Z" fill="#1C387F" stroke="#9AB8C7" stroke-miterlimit="10"/>
<path d="M41 504.46L40.47 504.59L26.6 507.77L15.78 507.08H15.33L6.82996 502.84L25.24 493.42L27.68 495.1L28.56 495.7L29.19 496.14L30.02 496.72C34.2 499.63 39.92 503.6 41 504.46Z" fill="#EE4023"/>
<path d="M15.31 507.07L1.41003 506.35L6.77002 502.81L15.31 507.07Z" fill="#F8B517"/>
<path d="M137.03 500.21L119.83 494.42L119.28 485.02L119.35 485.38H131.67L137.03 500.21Z" fill="#EE4023"/>
<path d="M140.42 508.51L122.35 508.17C122.35 508.17 119.87 500.62 119.87 500.3V494.67V494.42L137.07 500.21L140.42 508.51Z" fill="#F8B517"/>
<path d="M141.58 511.33L131.46 514.73H122.46L118.22 509.29L119.85 500.62V500.3C119.85 500.62 122.33 508.17 122.33 508.17L140.4 508.51L141.58 511.33Z" fill="#7C4B20"/>
<path d="M41.22 504.42C41.167 504.412 41.1131 504.412 41.06 504.42V504.42L30.06 496.64L29.23 496.06L28.6 495.62L27.72 495.02L25.28 493.34L33.98 485.11C33.98 485.11 34.05 485.28 34.16 485.58L34.3 485.93C34.35 486.05 34.4 486.2 34.46 486.35L34.61 486.74C34.656 486.841 34.6961 486.944 34.73 487.05L40 501L40.15 501.41L41.2 504.12C41.2 504.12 41.2 504.32 41.2 504.37C41.2 504.42 41.21 504.38 41.22 504.42Z" fill="#F4831F"/>
<path d="M55.57 103.16L45.67 112.86L42.39 116.07L42 118C40.95 122.92 38.19 135.51 37.62 135.51C37.42 135.51 35.47 136.11 35.47 136.11L29.39 138.86L25.3 134.49L23.81 121.49L27.63 128.18L37.73 115.32L48 107L43.19 101L46.34 100.12L55.57 103.16Z" fill="#7C4B20"/>
<path d="M21.25 253.8C21.25 253.8 14.6 257.88 14.49 258.37C14.38 258.86 5.57998 250.9 4.53998 249.95C4.22998 256.14 6.27997 279.36 6.27997 279.36L8.00998 280.81L17.45 277.86L24.95 268.47L21.25 253.8ZM7.99997 277.19L7.38998 261.6L10.13 275.09L7.99997 277.19Z" fill="#EE4023"/>
<path d="M18.29 197.68L16.16 217.45L14.16 202.4L14.41 197.63C14.4071 197.584 14.4071 197.537 14.41 197.49L17.02 196.49L18.29 197.68Z" fill="#F4831F"/>
<path d="M16.22 249.43L21.22 253.8C21.22 253.8 14.57 257.88 14.46 258.36C14.35 258.84 5.55001 250.9 4.51001 249.95C4.50126 249.472 4.55505 248.994 4.67002 248.53C5.26002 247.62 14 200.53 14.37 197.63L14.12 202.4L16.12 217.45L14.49 233L21.58 243.18L10.83 245.49L7.4 249.44L16.22 249.43Z" fill="#F8B517"/>
<path d="M32.22 206.75L21.58 243.17L14.49 232.99L16.16 217.45L18.29 197.69L21.89 199.56L21.96 199.6L23.68 200.5L24.38 200.87L31.16 204.4L31.22 204.53L32.22 206.75Z" fill="#7C4B20"/>
<path d="M20.73 252.19L21.25 253.8L16.23 249.43H7.40002L10.83 245.48L21.58 243.17L20.73 252.19Z" fill="#7C4B20"/>
<path d="M26.82 286.77L13.74 287.74L8.01001 280.8L17.45 277.86L24.95 268.47L27.13 275.14L26.82 286.77Z" fill="#F8B517"/>
<path d="M107.76 172.17C107.76 172.17 99.92 189.5 99.88 189.5L99.94 189.77C98.57 187.77 98.43 183.9 98.05 183.9C97.67 183.9 91.86 181.46 89.23 180.45C89.2347 180.414 89.2347 180.377 89.23 180.34C89.69 178.24 89.97 176.82 89.97 176.82L92.56 177.92L97.12 166.28L103.75 157L108.63 152.27L116.85 144.27C118.92 145.77 118.15 146.84 118.15 146.84L107.76 172.17Z" fill="#EE4023"/>
<path d="M105.92 208.47L84.32 218.24V213.35L57.13 214.51V218.24L51.39 210.14L49 175L39 162.89L37.59 160.78L32.59 150.96L33.26 149.73L39.49 158.52L41.57 159.99L46.91 163.78L55.67 177.08L57.23 176.26L67.91 191.5C69.29 187.62 70.6633 183.743 72.03 179.87L77.03 190.46L89.36 180.46C91.99 181.46 97.74 183.91 98.18 183.91C98.62 183.91 98.7 187.76 100.07 189.78C100.38 192.09 105.92 208.47 105.92 208.47Z" fill="#EE4023"/>
<path d="M108.65 152.27L103.77 157L97.14 166.28L92.59 177.92L90 176.82L71.25 168.87L57.13 176.25L55.58 177.07L46.81 163.77L41.47 160L52.72 162.89L64 145.43L70.79 160.11L75.93 147.85C75.93 147.85 90.13 161.28 90.49 161.12C90.85 160.96 108.11 152.54 108.65 152.27Z" fill="#7C4B20"/>
<path d="M90 176.82C90 176.82 89.72 178.24 89.26 180.34V180.45L79 195.61C76.6733 190.943 74.34 186.277 72 181.61L66.91 195.79C63.6367 189.263 60.3767 182.75 57.13 176.25L71.26 168.87L90 176.82Z" fill="#F8B517"/>
<path d="M116.88 144.31L108.66 152.31C108.12 152.58 90.84 161 90.48 161.16C90.12 161.32 75.92 147.89 75.92 147.89L90.32 138.54C90.32 138.54 102.95 134.17 103.58 134.66L116.88 144.31Z" fill="#F8B517"/>
<path d="M49.13 252.26L38.13 240.5L45.2 224.33C45.64 224.63 46.2 225.08 46.95 225.61L49.13 252.26Z" fill="#F8B517"/>
<path d="M58.31 234.44C58.31 234.44 50.93 228.62 46.94 225.61C46.23 225.08 45.63 224.61 45.19 224.33L51.39 210.14L57.13 218.24L58.31 234.44Z" fill="#7C4B20"/>
<path d="M69.93 242L58.31 234.44C60.16 232.94 67.74 227.13 69.54 226.13L69.7 226.05C69.7627 226.011 69.8364 225.993 69.91 226C70 226.73 69.93 242 69.93 242Z" fill="#F8B517"/>
<path d="M110.93 223.86L106.99 225.21L84.32 232.99V218.24L105.92 208.47L110.93 223.86Z" fill="#7C4B20"/>
<path d="M116.87 353.6C116.87 353.6 111.87 374.2 111.64 375.08C111.41 375.96 102.79 355 102.79 355L116.87 353.6Z" fill="#F8B517"/>
<path d="M78.93 304.38C79.19 303 64.47 355.79 64.47 355.79L59.65 362.2C59.65 362.2 61.93 352.73 62.18 351.93C62.43 351.13 76.53 300.23 76.53 300.23C76.53 300.23 67.16 296.79 68.82 297.04C71.4048 297.18 73.9952 297.18 76.58 297.04L81.65 295.52L98.21 360.64C97.74 359 78.67 305.73 78.93 304.38Z" fill="#F8B517"/>
<path d="M124.92 352.5L128.52 266.17L116.87 353.61C116.87 353.61 111.87 374.2 111.64 375.08C111.41 375.96 102.79 355 102.79 355L81.71 286L77.63 272.67L77.9 272.45L78.38 272.06L79.48 271.16L80.48 270.37C83.14 268.2 87.42 264.71 92.22 260.82L94.05 259.34L99.17 255.21L107.01 225.21L102.63 226.71L84.32 233V235.49L79.63 237.62L69.94 242.02L58.48 234.56L58.32 234.44H58.25L58.03 234.27L57.29 233.69L57.05 233.5L56.74 233.25L56.2 232.83C54.89 231.83 53.12 230.42 51.36 229.06L50 227.92C48.91 227.08 47.87 226.28 47 225.62L49.19 252.26L51.19 254.39L53.12 256.45L69.99 274.45L67.84 285.78L53.76 359.86L40.82 351.86L34.82 281.97L32.43 329.79L35.08 348.79L32.71 375.19L35.08 384.74L34.15 471.5H39.87V414.31C39.94 413.85 41.36 410.55 43.36 406.02L44.07 404.42C44.19 404.15 44.31 403.87 44.44 403.59L45.6 401C46.39 399.22 47.23 397.37 48.08 395.49C48.36 394.87 48.65 394.25 48.93 393.62C52.75 385.18 56.57 376.84 57.68 374.45L57.79 374.2L57.94 373.87L57.99 373.76L62.42 392.63L47.28 471.55H51L68.47 389.77L59.66 362.2C59.66 362.2 61.93 352.73 62.19 351.94C62.19 351.87 62.36 351.35 62.6 350.48C62.69 350.19 62.78 349.86 62.88 349.48C63.09 348.75 63.33 347.87 63.61 346.87L64.05 345.28C64.29 344.44 64.54 343.54 64.8 342.59C65.06 341.64 65.34 340.59 65.63 339.59C66.02 338.2 66.43 336.74 66.84 335.22C71.04 320.11 76.54 300.22 76.54 300.22C76.28 300.12 67.2 296.78 68.84 297.04C71.4249 297.174 74.0151 297.174 76.6 297.04L81.67 295.51L98.19 360.51V360.62L96.65 385C96.65 385 117.26 476.48 118.32 477.31C118.476 477.402 118.65 477.46 118.83 477.48C120.912 477.702 123.009 477.759 125.1 477.65H125.96L117 417.55C117 417.55 127.83 381.55 127.83 380.86C127.83 380.17 130.99 385.07 130.99 385.07L131.24 477.41C131.89 477.41 132.39 477.34 132.63 477.34L132.84 475.63C133.22 462.86 131.98 383.8 132.95 383.55C133.92 383.3 124.92 352.5 124.92 352.5ZM35 370.43L38.52 353.61C39.52 354.04 49.29 364.36 49.29 364.36L35 370.43Z" fill="#F4831F"/>
<path d="M120.59 238.58C119.49 239.09 113.26 243.96 105.86 249.86C103.69 251.59 101.42 253.42 99.15 255.25L106.99 225.25L110.93 223.9L120.19 237.59L120.59 238.58Z" fill="#F8B517"/>
<path d="M128.53 266.11C128.1 267.72 117.33 319.05 116.98 319.6C116.63 320.15 103.91 292 103.91 292C103.91 292 105.55 257.53 105.86 249.82C113.26 243.92 119.49 239.05 120.59 238.54L128.53 266.11Z" fill="#EE4023"/>
<path d="M150.42 218.24V248.48L146.81 255.21L143.38 249.35L131.16 262.35L131.58 269.86H136.32V281.65L147.4 284.42L155.58 276.88C155.58 276.88 158.23 245.59 158.49 244.49C158.7 243.65 159.81 217.68 161.55 204.73C161.36 205 156.8 211.22 150.42 218.24ZM147.42 279.77L149.23 272.71V260.59L152.59 275.09L147.42 279.77Z" fill="#F8B517"/>
<path d="M155.58 276.87L152.69 284.29L140.5 291.34L133.5 289.7L131.58 269.86H136.32V281.65L147.41 284.41L155.58 276.87Z" fill="#EE4023"/>
<path d="M150.42 218.24V248.48L146.81 255.2L143.39 249.35L135.39 214.25C135.39 214.25 140.55 227.8 140.76 228.43C140.82 228.71 145.36 223.82 150.42 218.24Z" fill="#7C4B20"/>
<path d="M131 385.07L131.24 477.4C129.94 477.47 127.96 477.57 125.95 477.63L117 417.55C117 417.55 127.83 381.55 127.83 380.86C127.83 380.17 131 385.07 131 385.07Z" fill="#F8B517"/>
<path d="M113.32 117.93L79.32 129.18L69.87 142.7L60.8 127.8L42 118.07L42.42 116.13L45.7 112.93C45.4 113.38 45.7 116.35 45.7 116.35L69.58 125.68L72.14 126.68L111.27 114.43L113.32 117.93Z" fill="#F4831F"/>
<path d="M63.98 145.43L52.72 162.87L41.47 159.98L39.39 158.51L33.16 149.72L36.04 137.67V137.66L39.34 134.19L53.46 134.81L63.98 145.43Z" fill="#F8B517"/>
<path d="M84.32 218.24V233V235.48L79.63 237.61L79.86 218.25H60.94C60.58 218.25 58.42 215.79 57.34 214.51L84.34 213.36V218.25L84.32 218.24Z" fill="#F8B517"/>
<path d="M52.74 293.5C52.74 293.5 42.29 318.9 42.13 318C41.97 317.1 35.43 284.25 34.76 281.76V280.87L37.46 242L38.12 240.5L49.12 252.26L51.12 254.38L52.74 293.5Z" fill="#EE4023"/>
<path d="M69.93 274.46L53.69 359.87L40.75 351.87L34.75 281.99V281.82C35.42 284.31 41.94 317.22 42.12 318.06C42.3 318.9 52.73 293.52 52.73 293.52L51.12 254.4L69.93 274.46Z" fill="#7C4B20"/>
<path d="M49.26 364.35L35 370.42L38.52 353.6C39.52 354 49.26 364.35 49.26 364.35Z" fill="#F8B517"/>
<path d="M121.56 134.62L118.18 146.88C118.18 146.88 118.95 145.81 116.88 144.31L103.57 134.62C102.94 134.13 90.31 138.5 90.31 138.5L75.91 147.85L70.76 160.11L64 145.43L53.48 134.81L39.37 134.19L36 137.66L37.53 135.54C38.1 135.54 40.86 122.95 41.91 118.03L60.78 127.78L69.85 142.7L79.3 129.16L113.3 117.9C117.77 125.32 121.12 134.84 121.56 134.62Z" fill="#EE4023"/>
<path d="M152.57 275.08L147.41 279.77L149.21 272.71V260.59L152.57 275.08Z" fill="#7C4B20"/>
<path d="M10.15 275.08L8.01004 277.18L7.40002 261.6L10.15 275.08Z" fill="#7C4B20"/>
<path d="M62.36 392.62L47.22 471.54H40L39.77 471.04V414.34C39.77 413.19 57.89 373.75 57.89 373.75L62.36 392.62Z" fill="#F8B517"/>
<path d="M51 471.54L46.49 485.38H34L34.01 484.38L34.1 471.54H51Z" fill="#7C4B20"/>
<path d="M132.67 477.33L131.67 485.33H119.35L119.28 484.97L118.83 477.44C120.916 477.658 123.016 477.711 125.11 477.6C127.41 477.6 129.79 477.43 131.28 477.35L132.67 477.33Z" fill="#7C4B20"/>
<path d="M136.87 110.52L107.99 109.31L116.34 103.86L123.9 101.03L136.87 110.52Z" fill="#F8B517"/>
<path d="M137.28 128.91V128.96L137.19 128.94L125.91 126.96L107.99 109.31L136.87 110.52L137.28 128.91Z" fill="#EE4023"/>
<path d="M137.28 129L132.53 130.68L130.88 131.26C127.21 132.57 123.17 134.01 122.01 134.47L121.82 134.54L121.56 134.66C121.04 134.54 117.67 125.17 113.3 117.89L111.21 114.4C109.4 111.4 108.02 109.35 108.02 109.35L125.91 127L137.18 129H137.28Z" fill="#7C4B20"/>
<path d="M44.26 107.01L31.52 107.65L43.21 100.99L44.26 107.01Z" fill="#F8B517"/>
<path d="M48.01 107.01L37.68 115.32L27.58 128.18L23.76 121.49L31.52 107.65L44.26 107.01L43.21 100.99L48.01 107.01Z" fill="#EE4023"/>
<path d="M82.24 34.1499L98.05 25.6299L76.34 31.9499L82.24 34.1499Z" fill="#F4831F"/>
<path d="M79.85 64.1198L102.07 54.8398L105.02 57.7999L105.38 56.4298L102.07 54.8398L82.85 61.0199L79.85 64.1198Z" fill="#A6662F"/>
<path d="M77.55 64.1898L61.37 57.3398L74.65 61.3898L77.55 64.1898Z" fill="#9B5023"/>
<path d="M95.61 78.7002L85.67 87.5402L83.73 88.4702L79.93 87.6002L78.42 87.1302L83.75 86.9102L95.61 78.7002Z" fill="#9B5023"/>
<path d="M69.13 79.5099L78.42 87.1299L69.13 78.3599V79.5099Z" fill="#9B5023"/>
<path d="M69.13 78.3599C69.13 78.5299 78.63 86.9099 78.63 86.9099H83.75L83.58 87.6099L78.42 87.1299C78.42 87.1299 70.72 80.3799 70.66 80.3899C70.6 80.3999 69.13 78.3599 69.13 78.3599Z" fill="#9B5023"/>
<path d="M76.34 32C76.34 32 71.28 23.43 71.2 22.68C71.12 21.93 80.77 4.52002 80.77 4.52002C80.77 4.52002 75.77 20.22 75.98 20.41C76.19 20.6 81.61 29.94 81.61 29.94L76.34 32Z" fill="#282A2A"/>
<path d="M102.05 7.11995C101.43 6.93995 95.6099 9.34997 95.6099 9.34997C95.6099 9.34997 89.19 25.86 89.47 25.63C89.75 25.4 96.81 10.87 96.81 10.87L102.05 7.11995Z" fill="#282A2A"/>
<path d="M47.2 24.5301L63.3 15.7701L72.23 18.2101L62.22 5.62012L47.2 24.5301Z" fill="#282A2A"/>
<path d="M99.15 367.85C99.67 368.77 114.05 406.73 114.05 406.73L97.83 385.61L99.15 367.85Z" fill="#7C4B20"/>
<path d="M49.26 370.42L36.54 375.11L39.81 414.34L57.93 373.75L49.26 370.42Z" fill="#7C4B20"/>
<path d="M58.48 234.55L53.06 256.45L69.93 274.46L67.78 285.78L75.06 287.74L81.71 286.04L77.64 272.71L94.03 259.38L102.79 226L84.32 232.99L84.31 235.47L69.93 242L58.48 234.55Z" fill="#F4831F"/>
<path d="M146.22 153.43C141.88 151.9 135.92 149.84 132.54 148.67L129.93 147.76L130.5 146.76L134.34 140.05L138.61 132.6L146.06 153L146.22 153.43Z" fill="#F8B517"/>
<path d="M121.56 134.62L121.85 134.5L121.56 134.62Z" fill="#602852"/>
<path d="M138.61 132.61L134.34 140.06L130.5 146.76L129.93 147.76L118.84 148.04V147.97L118.23 146.9V146.83L118.33 146.45L119.54 142.02L121.54 134.62C122.25 134.25 137.27 128.96 137.27 128.96L138.61 132.61Z" fill="#F4831F"/>
<path d="M157.92 191.34L144.31 185.41L144.39 185.08L144.81 183.31L149.7 162.93L156.63 181.93L157.92 191.34Z" fill="#EE4023"/>
<path d="M147.52 204.93C147.61 205.55 147.67 205.93 147.67 206.14C147.67 207.52 137.85 214.54 137.85 214.54L138.49 198.12V198L138.9 187.43L138.67 187.18V186.87L137.42 182.87L135.72 177.43L118.84 148V147.93C121.63 147.65 129.77 146.83 130.49 146.73H130.54C131.188 146.89 131.823 147.097 132.44 147.35C135.53 148.52 141.62 151.06 146.1 152.95L146.26 153.39L149.74 162.89L144.85 183.27L144.43 185.04L144.35 185.37L144.42 185.8L144.49 186.2C144.76 187.75 145.35 191.2 145.96 194.86C146.57 198.82 147.24 202.91 147.52 204.93Z" fill="#F4831F"/>
<path d="M147.52 204.93C147.61 205.55 147.67 205.93 147.67 206.14L147.48 204.96L145.93 195.4L144.45 186.24L144.38 185.84L144.31 185.41L157.92 191.34L158.49 195.54L147.52 204.93Z" fill="#F8B517"/>
<path d="M149.6 182.87L144.39 185.08L143.59 185.42L138.91 187.42L138.68 187.17V186.86L137.43 182.86C138.8 182.98 140.43 183.08 141.78 183.16L144.78 183.33L149.6 182.87Z" fill="#7C4B20"/>
<path d="M33.16 149.73L32.48 150.95C32.4999 150.995 32.5232 151.039 32.55 151.08C32.99 151.89 35.34 156.26 37.02 159.79L37.49 160.79L36.96 165.79V166C34.25 168.4 29.16 172.84 27.1 174.62L26.44 175.2C26.3796 175.245 26.3227 175.296 26.27 175.35L26.21 175.4L22.29 150.65C22.44 149.83 22.58 149.02 22.73 148.22L28.65 138.22L28.7 138.14L35.37 136.2L35.68 136.11L37.22 135.67H37.29H37.37H37.52L36.91 136.52L36.84 136.62L36.01 137.77L35.63 139.36L33.16 149.73Z" fill="#F4831F"/>
<path d="M22.31 150.64L26.23 175.39L18.05 181.47C18.35 176.83 18.61 172.76 18.61 172.13C18.61 171.8 18.92 169.87 19.39 167.06C20.12 162.82 21.24 156.54 22.31 150.64Z" fill="#EE4023"/>
<path d="M28.72 138.09L28.67 138.17L22.75 148.17C24.1 140.75 25.25 134.48 25.25 134.48L28.72 138.09Z" fill="#EE4023"/>
<path d="M37 165.87V166L34.67 188.09L31.18 204.42L31.24 204.55L28.63 203.15L24.4 200.89L23.7 200.51L24.49 192.73L26.25 175.41L26.31 175.36C26.3627 175.306 26.4196 175.256 26.48 175.21V175.21L27.14 174.63C29.17 172.77 34.28 168.23 37 165.87Z" fill="#EE4023"/>
<path d="M26.23 175.39L24.47 192.71L23.68 200.49L18.21 197.69L17 196.52C17 196.52 17.56 188.36 18 181.52C18.3 176.88 18.56 172.81 18.56 172.18C18.56 171.85 18.87 169.92 19.34 167.11C21.8 170.09 26.23 175.39 26.23 175.39Z" fill="#F8B517"/>
<path d="M161.66 198.49C161.935 200.56 161.901 202.66 161.56 204.72V204.72C161.36 204.94 156.8 211.21 150.42 218.23C145.36 223.81 140.82 228.7 140.73 228.42C140.52 227.79 135.36 214.24 135.36 214.24L137.47 213.41L146.14 206.1L158.49 195.53C158.49 195.53 158.23 195.18 159.03 194.36C159.83 193.54 161.66 198.49 161.66 198.49Z" fill="#EE4023"/>
</svg>
