<svg width="169" height="517" viewBox="0 0 169 517" fill="none" xmlns="http://www.w3.org/2000/svg">
<path d="M36.5301 142.56C35.862 142.028 35.3335 141.342 34.9901 140.56C34.7454 139.632 34.8485 138.647 35.2801 137.79C36.0178 136.247 37.1798 134.946 38.6301 134.04C40.0749 133.151 41.6413 132.477 43.2801 132.04C46.4604 131.036 49.8129 130.696 53.1301 131.04C54.3054 131.147 55.4477 131.486 56.4901 132.04C57.639 132.775 58.55 133.827 59.1126 135.07C59.6753 136.312 59.8655 137.691 59.6601 139.04C59.1888 141.75 57.6964 144.177 55.4901 145.82" fill="#A1A0A0"/>
<path d="M117.84 142.17C117.447 143.484 116.694 144.662 115.668 145.572C114.642 146.482 113.382 147.087 112.03 147.32C111.224 147.491 110.384 147.393 109.64 147.04C108.614 146.321 107.883 145.255 107.58 144.04C106.246 140.922 105.322 137.645 104.83 134.29C104.603 133.006 104.789 131.682 105.36 130.51C105.817 129.822 106.454 129.271 107.201 128.919C107.948 128.566 108.778 128.425 109.6 128.51C111.242 128.708 112.795 129.367 114.08 130.41C116.498 132.224 118.372 134.666 119.5 137.47C119.77 138.14 120.15 138.96 120.88 139.01" fill="#A1A0A0"/>
<path d="M106.22 164.63C109.064 161.64 111.426 158.226 113.22 154.51C113.661 153.698 113.955 152.814 114.09 151.9C114.153 151.442 114.114 150.976 113.976 150.535C113.838 150.094 113.603 149.69 113.29 149.35C112.742 148.877 112.061 148.586 111.34 148.52C109.99 148.377 108.625 148.531 107.34 148.97C104.985 149.683 102.807 150.886 100.948 152.499C99.0892 154.112 97.5918 156.099 96.5536 158.33C95.5153 160.561 94.9596 162.986 94.9229 165.447C94.8861 167.908 95.369 170.349 96.34 172.61C96.4798 173.032 96.7406 173.404 97.09 173.68C97.4309 173.841 97.806 173.916 98.1825 173.898C98.559 173.881 98.9255 173.771 99.25 173.58C106.11 170.63 103.85 171.58 105.6 169.38" fill="#5A5755"/>
<path d="M126.86 99.0501L113.52 105.19L111.93 105.11L120.07 91.0001L112.79 52.1201L107.63 67.1201L105.02 69.1201V58.1201L101.56 43.5801L99 32.9301L97.68 27.3501L76 33.6701L59.9 26.2501L55.9 32.2001V37.8401C55.27 40.3601 53.62 47.0701 53.62 47.7801C53.62 48.6701 54.75 62.9501 55.12 63.6901C55.49 64.4301 50.51 74.4501 50.51 74.4501L56.14 70.6201L59.94 64.0201L62.44 73.3501L66.68 80.6501V100.91L55.89 105.12L55.2 104.88L44.11 101.11L40.79 63.1101L46.79 26.2501L61.79 5.6001L80.25 0.600098L103.73 7.6001L118.16 33.6001L121.09 54.7501L117.67 57.7501L125.75 86.5401L126.86 99.0501Z" fill="black"/>
<path d="M53.5499 46.9302L46.8999 61.2002L45.8099 58.0602L43.8999 65.9002L51.1599 103.5C51.1599 103.5 60.3599 96.3902 61.0099 95.5502C61.6599 94.7102 59.3499 70.8802 59.3499 70.8802L56.6899 55.1102L53.5499 46.9302Z" fill="#404041"/>
<path d="M53.2399 72.6L54.2399 80.66L52.4399 85.17L51.1499 103.5C51.1499 103.5 62.3699 110.65 62.6699 110.55C62.9699 110.45 70.6699 107.34 70.8299 106.94C70.9899 106.54 74.8299 96.21 74.7099 94.6C74.5899 92.99 74.8499 79.02 74.2799 78.68C73.7099 78.34 67.4899 72.33 67.0899 72.03C66.6899 71.73 62.9699 63.11 62.9699 63.11L59.5099 61L53.2399 72.6Z" fill="#404041"/>
<path d="M96.67 80.4699L96.45 83.8399L78.91 101.1L79.2 122.54L69.2 127.36L45.3099 118C45.3099 118 44.9899 115 45.3099 114.58L55.2099 104.88L55.8999 105.12L66.69 100.91V80.6499L62.45 73.3499L59.95 64.0199V63.7499L58.95 58.3899L58.2499 55.8799L61.0899 59.0599C61.0899 59.0599 73.8999 63.1099 74.3699 63.1099C74.8399 63.1099 78.3699 67.1099 78.3699 67.1099V73.8499L70.95 72.4599L73.9999 77.2999L78.3099 78.6799V88.6299H83.44L96.67 80.4699Z" fill="#9E5929"/>
<path d="M75.9799 33.67L72.2099 35.19L71.8699 39.82L55.8999 32.2L59.8799 26.25L75.9799 33.67Z" fill="#C7C6C1"/>
<path d="M99.01 32.9301L83.85 39.8301L82.49 40.4501L81.88 35.8601L75.98 33.6701L97.69 27.3501L99.01 32.9301Z" fill="#C7C6C1"/>
<path d="M101.56 43.6002L95.2501 40.4502C95.2501 40.4502 81.6801 49.2002 81.2501 49.5202C80.8201 49.8402 83.8101 39.8302 83.8101 39.8302L98.9801 32.9302L101.56 43.6002Z" fill="#29272C"/>
<path d="M101.56 43.6001L95.2499 40.4501C95.2499 40.4501 81.6799 49.2001 81.2499 49.5201C80.8199 49.8401 83.8099 39.8301 83.8099 39.8301L82.4599 40.4501L77.1599 48.7101L77.9599 54.5701L77.7599 63.7501L82.4599 62.7501L101.68 56.5701L104.99 58.1501L101.56 43.6001ZM78.5599 61.4901L79.8099 55.8801L82.1999 61.4901H78.5599ZM101.56 50.8601L93.1799 56.5601L82.4899 52.0001C83.1299 52.0001 96.0599 43.1501 96.0599 43.1501L101.56 47.6701V50.8601Z" fill="#5A5755"/>
<path d="M74.3099 63.13C73.8499 63.13 61.0299 59.13 61.0299 59.13L58.1999 55.96C57.2764 52.8619 56.5154 49.7176 55.9199 46.54C55.9199 45.84 55.9199 41.54 55.9199 37.91C55.9199 34.91 55.9199 32.27 55.9199 32.27L60.9199 42.56L61.1099 43.21L61.2799 43.8L57.3499 48.4L64.4299 56.63L65.0899 56.27L74.3099 63.13Z" fill="#5A5755"/>
<path d="M149.43 194.65L149.69 207.83L139.87 216.23L140.93 189.1L133 180.4L121.73 152.23L123.44 136.34C124.15 135.96 143.58 127.44 143.58 127.44L131.94 149.44C131.94 149.44 145.5 188.04 146.32 187.09C147.14 186.14 153.53 192.09 153.53 192.09L149.43 194.65Z" fill="#DC9159"/>
<path d="M24.2399 163.78L25.9999 199.15C25.9999 199.15 23.4399 193.92 23.3099 194.28C23.1799 194.64 23.3099 200.6 23.3099 202.4L13.6699 198.2C13.6699 198.2 15.7499 175.92 15.7499 174.36C15.7499 172.8 19.5799 135.9 19.5799 135.9L27.4199 140.22C27.4199 140.22 31.2199 139.06 34.1199 138.22L24.2399 163.78Z" fill="#DC9159"/>
<path d="M163.34 195.85L148.22 208.54L148 195.36L152.11 192.83C152.11 192.83 145.73 186.83 144.91 187.83C144.09 188.83 130.52 150.18 130.52 150.18L143.74 127.47L162.85 182.73L163.34 195.85Z" fill="#F1B280"/>
<path d="M108.35 111.45C109.121 113.06 109.976 114.629 110.91 116.15L71.79 128.42L69.22 127.42L79.22 122.6L78.93 101.16L96.47 83.8999L97.25 99.9599L111.95 105.16L113.54 105.24L108.35 111.45Z" fill="#A6662F"/>
<path d="M36.3501 167.53L34.2901 189.78L33.1101 207.83L23.3201 202.4C23.3201 200.6 23.2201 194.58 23.3201 194.28C23.4201 193.98 26.0101 199.15 26.0101 199.15L24.2201 163.78L34.1101 138.21C34.81 137.975 35.525 137.788 36.2501 137.65L34.7201 139.78L31.6701 151.44L31.0001 152.66L36.3501 167.53Z" fill="#F1B280"/>
<path d="M76.1799 52.1602L73.1299 47.6802L61.7399 43.1602H61.0699L60.8799 42.5102L55.9199 32.2202L71.8899 39.8402L75.1899 45.3502L76.1799 52.1602Z" fill="#5A5755"/>
<path d="M82.4901 40.4499L77.1901 48.7099L75.1601 45.3299L71.8701 39.8199L72.2101 35.1899L75.9801 33.6699L81.8801 35.8599L82.4901 40.4499Z" fill="#29272C"/>
<path d="M120.07 91.0201L111.93 105.11L97.2299 99.9201L96.45 83.8501V83.8401L96.67 80.4701L99.9999 73.9301L105.02 58.1401V69.0901L107.63 67.0901L112.79 52.1401L120.07 91.0201Z" fill="#404041"/>
<path d="M105.02 58.1401L100 73.9301L96.67 80.4701L83.39 88.6301H78.26V78.6901L82.23 78.1101L86.36 73.8301L90.49 69.0901L86.36 72.4401L78.26 73.8301V67.0901L82.49 62.7401L101.71 56.5601L105.02 58.1401Z" fill="#A6662F"/>
<path d="M90.4901 69.0898L86.3701 73.8298L82.2301 78.1098L78.2701 78.6898L73.9501 77.2999L70.8401 72.4398L76.5901 75.4198L80.6601 74.9998L86.3701 72.4398L90.4901 69.0898Z" fill="#A96739"/>
<path d="M86.3701 72.4399L80.6601 74.9999L76.5901 75.4199L70.8401 72.4399L78.2701 73.8299L86.3701 72.4399Z" fill="#9E5C28"/>
<path d="M82.2301 61.4899H78.5901L79.8401 55.8799L82.2301 61.4899Z" fill="#29272C"/>
<path d="M82.4899 62.7399L78.2599 67.0899C78.2599 67.0899 74.7399 63.0899 74.2599 63.0899L64.9999 56.1899C66.9999 55.0499 73.1799 51.6499 73.5899 51.6499L61.6899 43.1299L73.0799 47.6499L76.0799 52.1399L75.0799 45.3299L77.0799 48.7099L77.8799 54.5699L77.6799 63.7499L82.4899 62.7399Z" fill="#C7C6C1"/>
<path d="M59.94 63.9998L56.14 70.5998L50.51 74.4298C50.51 74.4298 55.51 64.4298 55.12 63.6698C54.73 62.9098 53.62 48.6698 53.62 47.7598C53.62 47.0498 55.27 40.3398 55.9 37.8198C55.9 41.4998 55.9 45.7498 55.9 46.4498C55.9 47.3098 57.29 52.6198 58.17 55.8598L58.87 58.3698L59.87 63.7298L59.94 63.9998Z" fill="#50493F"/>
<path d="M101.56 47.6499V50.8599L93.18 56.5599L82.49 51.9999C83.13 51.9999 96.06 43.1499 96.06 43.1499L101.56 47.6499Z" fill="white" stroke="#231F20" stroke-linejoin="round"/>
<path d="M73.62 51.6498C73.21 51.6498 67.07 55.0498 65.03 56.1898L64.37 56.5598L57.29 48.3198L60.4 43.3198L60.86 42.5098L73.62 51.6498Z" fill="white" stroke="#231F20" stroke-linejoin="round"/>
<path d="M79.49 220L79.26 239.36L69.57 243.76C69.57 243.76 69.57 228.49 69.57 227.76C69.4984 227.738 69.4217 227.738 69.35 227.76L69.2 227.84L69 228C66.66 229.35 57.95 236.19 57.95 236.19L57.66 235.96L56.78 219.96V216.23H57C58.08 217.5 60.23 219.97 60.6 219.97L79.49 220Z" fill="#40403E"/>
<path d="M132.8 263.34L116.51 355.34L102.43 356.74L77.28 274.45C77.28 274.45 88.02 265.65 98.78 256.99C101.05 255.16 103.33 253.33 105.5 251.6C105.19 259.31 103.55 293.78 103.55 293.78C103.55 293.78 116.25 321.94 116.61 321.38C116.97 320.82 132.37 265 132.8 263.34Z" fill="#40403E"/>
<path d="M47.47 511L19.88 512.57C19.88 512.57 9.88002 513.78 9.08002 513.57C8.28002 513.36 0.280029 511.4 0.280029 511.4L1.05002 508.01L14.91 508.71H15.36L26.18 509.4L40.05 506.22L40.59 506.1H40.64C40.693 506.091 40.7471 506.091 40.8 506.1V506.1C41.16 506 47.03 504.43 47.21 504.49C47.4 508.16 47.47 511 47.47 511Z" fill="#5A5755"/>
<path d="M26.1099 509.34L40.0899 506.32L26.2199 509.5L15.3999 508.81L14.9499 508.79H14.9399L14.9099 508.77L15.2099 508.79L26.1099 509.34Z" fill="#001750"/>
<path d="M47.2701 504.53C47.0901 504.47 41.2701 506.04 40.8601 506.14V506.02L40.8101 505.88C40.7301 505.64 40.6201 505.33 40.4901 504.96L40.1901 504.12C40.0801 503.8 39.9501 503.47 39.8101 503.12L39.6601 502.71C39.6001 502.54 39.5401 502.37 39.4701 502.2L38.7101 500.2L38.4601 499.54C38.1701 498.79 37.8801 498 37.5601 497.2C37.3901 496.76 37.2301 496.31 37.0601 495.87C36.6301 494.77 36.2101 493.68 35.8201 492.65C35.6701 492.28 35.5301 491.92 35.4001 491.58C34.9901 490.58 34.6301 489.58 34.3301 488.85C34.2961 488.744 34.2561 488.641 34.2101 488.54L34.0601 488.15C34.0001 488 33.9401 487.85 33.9001 487.72L33.7601 487.38C33.6501 487.08 33.5801 486.91 33.5801 486.91L33.7101 486.13V487.13L48.7601 486.91C48.7901 486.88 47.0901 498.31 47.2701 504.53Z" fill="#C7C6C1"/>
<path d="M39.6799 473.26H39.45V472.76L39.6799 473.26Z" fill="#1C387F" stroke="#9BB8C8" stroke-miterlimit="10"/>
<path d="M40.66 506.18L40.13 506.31L26.26 509.49L15.44 508.8H14.99L6.48999 504.56L24.9 495.14L27.34 496.82L28.22 497.42L28.85 497.86L29.67 498.44C33.84 501.35 39.56 505.32 40.66 506.18Z" fill="#C7C6C1"/>
<path d="M14.9401 508.79L1.05005 508.07L6.40005 504.53H6.41006L14.9401 508.79Z" fill="#29272C"/>
<path d="M136.67 501.93L118.84 496L117.84 486.92L117.91 487.28L132.31 487.1L136.67 501.93Z" fill="#29272C"/>
<path d="M141.38 510.23L119.9 509.5C119.9 509.5 117.42 501.95 117.42 501.63L118.88 496.25V496L136.71 501.93L141.38 510.23Z" fill="#C7C6C1"/>
<path d="M142.53 513.05L131.1 516.45H122.1L115.77 510.62L117.4 501.95V501.63C117.4 501.95 119.88 509.5 119.88 509.5L141.36 510.23L142.53 513.05Z" fill="#5A5755"/>
<path d="M40.8601 506.14C40.8072 506.131 40.7531 506.131 40.7001 506.14H40.6401L29.6401 498.36L28.8201 497.78L28.1901 497.34L27.3101 496.74L24.8701 495.06L33.5701 486.83C33.5701 486.83 33.6401 487 33.7501 487.3L33.8901 487.64C33.8901 487.77 33.9901 487.92 34.0501 488.07L34.2001 488.46C34.2461 488.561 34.2862 488.665 34.3201 488.77L39.6501 502.64L39.8001 503.05L40.8501 505.76C40.8501 505.81 40.8501 505.96 40.8501 506.01C40.8501 506.06 40.8501 506.1 40.8601 506.14Z" fill="#29272C"/>
<path d="M55.21 104.88L45.31 114.58L41.02 117.58C41.02 117.58 40.87 118.32 40.61 119.52C39.61 124.43 36.86 137.58 36.29 137.58C35.5649 137.718 34.8499 137.905 34.15 138.14C31.25 138.99 27.45 140.14 27.45 140.14L19.61 135.82L16 121.48L25.63 129.48L37.32 117L47.65 108.69L38.05 99.3301L44.12 101.07L55.21 104.88Z" fill="#40403E"/>
<path d="M20.89 255.52C20.89 255.52 14.24 259.6 14.13 260.08C14.02 260.56 5.22001 252.62 4.18001 251.66C3.87001 257.85 4.34001 281.93 4.34001 281.93L6.07002 283.37L17.07 279.58L25.64 270.23L20.89 255.52ZM6.07002 279.75L7.07002 263.32L9.82002 276.8L6.07002 279.75Z" fill="#A1A0A0"/>
<path d="M17.9301 199.4L15.8 219.16L13.8 204.11L9.80005 198.27C9.80005 198.18 9.80005 198.13 9.80005 198.13L13.6901 198.2L17.9301 199.4Z" fill="#29272C"/>
<path d="M15.86 251.15L20.86 255.52C20.86 255.52 14.21 259.6 14.1 260.08C13.99 260.56 5.19001 252.62 4.15001 251.66C4.14167 251.185 4.19546 250.711 4.31001 250.25C4.90001 249.34 9.37002 201.2 9.75002 198.25L13.75 204.09L15.75 219.14L14.08 234.68L21.17 244.86L10.42 247.17L6.99001 251.17L15.86 251.15Z" fill="#C7C6C1"/>
<path d="M35.2999 210.9L21.2199 244.88L14.1299 234.7L17.9299 199.4L33.1099 207.83L35.2999 210.9Z" fill="#40403E"/>
<path d="M20.37 253.9L20.89 255.52L15.86 251.15H7.04004L10.47 247.19L21.22 244.88L20.37 253.9Z" fill="#40403E"/>
<path d="M21.2201 287.64L13.3801 289.45L6.07007 283.37L17.0901 279.58L25.6601 270.23L25.8101 276.6L21.2201 287.64Z" fill="#C7C6C1"/>
<path d="M113.41 172.3C113.41 172.3 108.07 189.63 108.03 189.63L108.09 189.9C106.72 187.9 98.0901 185.62 97.6801 185.62C97.2701 185.62 91.5001 183.18 88.8701 182.17C88.8701 182.17 88.8701 182.1 88.8701 182.06C89.3201 179.96 89.6101 178.54 89.6101 178.54L92.2001 179.64L99.9801 167.64L106.62 158.37L111.49 153.64L116.49 144.44C118.56 145.94 121.71 152.25 121.71 152.25L113.41 172.3Z" fill="#40403E"/>
<path d="M111.51 153.63L103.41 158.72L100.01 167.63L92.2301 179.63L89.6401 178.53L70.8901 170.53L56.7701 178L55.2101 178.81L46.4501 165.52L41.1401 165.88H55.2301L65.7301 145.56L70.4101 161.85L75.0001 147.91C75.0001 147.91 92.9401 162.63 93.3001 162.48L111.51 153.63Z" fill="#5A5755"/>
<path d="M89.63 178.54C89.63 178.54 89.34 179.96 88.89 182.06C88.89 182.06 88.89 182.13 88.89 182.17C87.77 187.8 86.89 195.56 83.97 199.4C82.97 200.71 79.85 204.11 70.67 204.07L58.17 199.4L56.77 178L70.89 170.61L89.63 178.54Z" fill="#A1A0A0"/>
<path d="M116.52 144.42L111.52 153.62L93.34 162.47C92.99 162.62 75.04 147.9 75.04 147.9L86.84 133.5C86.84 133.5 104.47 133.07 105.1 133.56C105.52 133.9 111.7 140.92 116.52 144.42Z" fill="#A1A0A0"/>
<path d="M48.77 254L33 240.71L39.3 224.09C39.74 224.39 41.12 226.09 41.83 226.58L48.77 254Z" fill="#29272C"/>
<path d="M57.9401 236.15C57.9401 236.15 45.8301 229.58 41.8501 226.58C41.1401 226.04 39.7601 224.39 39.3201 224.09L45.5901 212L56.7701 220L57.9401 236.15Z" fill="#A1A0A0"/>
<path d="M69.5699 243.72L57.9399 236.15C59.7999 234.66 67.3799 228.85 69.1799 227.85L69.3299 227.77C69.4016 227.748 69.4783 227.748 69.5499 227.77V227.77C69.6099 228.45 69.5699 243.72 69.5699 243.72Z" fill="#C7C6C1"/>
<path d="M117.23 224.32L106.63 226.93L83.96 234.7V219.96L112.35 209.79L117.23 224.32Z" fill="#A1A0A0"/>
<path d="M116.51 355.32C116.51 355.32 111.51 375.92 111.28 376.8C111.05 377.68 102.43 356.72 102.43 356.72L116.51 355.32Z" fill="#C7C6C1"/>
<path d="M78.5701 306.09C78.8301 304.72 69.5701 354.33 69.5701 354.33L64.1001 363C64.1001 363 67.0301 351.31 67.2801 350.52C67.5301 349.73 76.1701 301.99 76.1701 301.99C76.1701 301.99 66.8001 298.55 68.4601 298.81C71.0449 298.949 73.6353 298.949 76.2201 298.81L81.2901 297.28L93.6701 361.61C93.2001 359.92 78.3101 307.45 78.5701 306.09Z" fill="#29272C"/>
<path d="M125.86 355.32L132.8 263.32L116.51 355.32C116.51 355.32 111.51 375.92 111.28 376.8C111.05 377.68 102.43 356.72 102.43 356.72L77.2801 274.43C77.2801 274.43 88.0201 265.63 98.7801 256.97L106.62 226.97L84.0001 234.7V237.19L79.3101 239.32L69.6201 243.72L58.1701 236.26L57.7001 235.92C56.2901 234.81 45.4101 229.22 41.9001 226.58L48.7701 254L50.7701 256.13L69.5701 276.21L53.33 361.62L40.3901 353.62L27.8201 283.57L24.0701 327.1L30.2901 349.51L28.1401 376.87L33.0001 386.88L33.7701 473.26H39.4801V416.05C39.4801 414.91 57.6001 375.47 57.6001 375.47L66.0001 394.34L46.9101 473.26L52.7501 473.01L73.55 392.32L64.11 363C64.11 363 67.0301 351.31 67.2801 350.52C67.5301 349.73 76.1701 301.99 76.1701 301.99C76.1701 301.99 66.8001 298.55 68.4601 298.81C71.0448 298.95 73.6353 298.95 76.2201 298.81L81.2901 297.28L93.6701 361.61L91.3901 387.31C91.3901 387.31 115.39 478.45 116.39 479.31C116.54 479.407 116.712 479.466 116.89 479.48C119.496 479.597 122.106 479.577 124.71 479.42H125.59L116.64 419.34C116.64 419.34 127.47 383.34 127.47 382.65C127.47 381.96 132.71 386.07 132.71 386.07L130.88 479.19L132.27 479.12L132.48 477.42C132.86 464.64 137.26 384.74 138.22 384.49C139.18 384.24 125.86 355.32 125.86 355.32ZM34.61 372.14L38.1301 355.32C39.1301 355.75 48.9001 366.07 48.9001 366.07L34.61 372.14Z" fill="#5A5755"/>
<path d="M124.43 239.84C117.774 243.165 111.437 247.095 105.5 251.58C103.33 253.31 101.05 255.14 98.78 256.97L106.62 226.97L117.23 224.36L124 238.81L124.43 239.84Z" fill="#29272C"/>
<path d="M132.8 263.3C132.37 264.91 116.96 320.77 116.61 321.3C116.26 321.83 103.55 293.7 103.55 293.7C103.55 293.7 105.19 259.23 105.5 251.52C111.437 247.035 117.774 243.105 124.43 239.78L132.8 263.3Z" fill="#C7C6C1"/>
<path d="M167.76 204.61C167.56 204.83 160.35 212.94 153.97 219.96V250.2L150.36 256.92L144.89 249.78L134.35 265.27L133.43 271.57H139.87V283.37L151 286.13L162 279.47C162 279.47 161.74 247.3 162 246.2C162.25 245.36 166 217.56 167.76 204.61ZM151 281.49L152.81 274.43V262.31L156.17 276.8L151 281.49Z" fill="#A1A0A0"/>
<path d="M162.04 279.47L159.14 286.89L144.83 294.37L136.32 290.97L133.43 271.57H139.87V283.37L150.95 286.13L162.04 279.47Z" fill="#C7C6C1"/>
<path d="M154 220V250.2L150.39 256.92L144.92 249.78L137.79 217.06C137.79 217.06 144.1 229.52 144.31 230.15C144.37 230.43 148.91 225.54 154 220Z" fill="#C7C6C1"/>
<path d="M168.64 198.08C168.64 198.08 168.3 200.65 167.76 204.61C167.56 204.83 160.35 212.94 153.97 219.96C148.91 225.54 144.37 230.43 144.28 230.15C144.07 229.52 137.76 217.06 137.76 217.06L139.87 216.23L149.69 207.83L164.81 195.14L166 194L168.64 198.08Z" fill="#29272C"/>
<path d="M132.75 386L130.92 479.12C129.62 479.19 127.64 479.28 125.63 479.35L116.68 419.27C116.68 419.27 127.51 383.27 127.51 382.58C127.51 381.89 132.75 386 132.75 386Z" fill="#29272C"/>
<path d="M113 119.65L78.9999 130.89L69.5499 144.42L60.4799 129.52L40.6099 119.62C40.8699 118.43 41.0199 117.69 41.0199 117.69L45.3099 114.69C45.0099 115.14 45.3099 118.11 45.3099 118.11L69.1899 127.44L71.7499 128.44L110.87 116.19L113 119.65Z" fill="#29272C"/>
<path d="M65.7299 145.53L55.2299 165.85H41.14L39.0599 164.38L31.6899 151.44L34.7399 139.78L38.0499 136.3L55.2099 134.91L65.7299 145.53Z" fill="#A1A0A0"/>
<path d="M84 220V234.7V237.19L79.31 239.32L79.54 219.96H60.58C60.21 219.96 58.06 217.49 56.98 216.22L83.98 215.07V220H84Z" fill="#C7C6C1"/>
<path d="M52.3701 295.22C52.3701 295.22 41.9301 320.62 41.7601 319.75C41.5901 318.88 28.4901 285.83 27.8201 283.34V282.44L32.33 242.23L32.9901 240.72L48.7701 254L50.7701 256.13L52.3701 295.22Z" fill="#C7C6C1"/>
<path d="M69.5701 276.18L53.33 361.59L40.3901 353.59L27.8201 283.54V283.36C28.4901 285.85 41.5901 318.94 41.7601 319.77C41.9301 320.6 52.3701 295.24 52.3701 295.24L50.7701 256.12L69.5701 276.18Z" fill="#40403E"/>
<path d="M48.8999 366.07L34.6099 372.14L38.1299 355.32C39.1599 355.75 48.8999 366.07 48.8999 366.07Z" fill="#C7C6C1"/>
<path d="M123.58 136.21L121.74 152.21C121.74 152.21 117.88 146.57 116.52 144.4C113.17 139.08 105.52 133.88 105.09 133.55C104.46 133.06 86.83 133.49 86.83 133.49L75 147.91L70.37 161.82L65.71 145.53L55.18 134.91H38.05L34.74 139.77L36.27 137.65C36.84 137.65 39.54 124.5 40.59 119.59L60.46 129.5L69.53 144.42L79 130.88L113 119.62C117.43 127 123.14 136.43 123.58 136.21Z" fill="#C7C6C1"/>
<path d="M156.12 276.8L150.95 281.49L152.76 274.43V262.31L156.12 276.8Z" fill="#40403E"/>
<path d="M9.79007 276.8L6.07007 279.75L7.04007 263.32L9.79007 276.8Z" fill="#40403E"/>
<path d="M66 394.34L46.91 473.26H39.73L39.5 472.76V416.05C39.5 414.91 57.62 375.47 57.62 375.47L66 394.34Z" fill="#29272C"/>
<path d="M52.7001 473.01L48.7001 486.88L33.6401 487.1L33.6501 486.1L33.7401 473.26L52.7001 473.01Z" fill="#40403E"/>
<path d="M132.31 479.05V487.1L117.91 487.28L117.84 486.92L116.93 479.43C119.533 479.547 122.139 479.527 124.74 479.37C127.05 479.37 129.43 479.2 130.92 479.12L132.31 479.05Z" fill="#40403E"/>
<path d="M147.91 108.6L108.35 111.45L113.65 105.06L126.99 98.9299L129.17 97.6099L147.91 108.6Z" fill="#C7C6C1"/>
<path d="M147.91 108.6L143.72 127.31L125.55 128.67L108.35 111.45L147.91 108.6Z" fill="#5A5755"/>
<path d="M143.72 127.31C143.72 127.31 124.29 135.83 123.58 136.21C123.14 136.43 117.36 126.99 112.92 119.57L110.82 116.07C109.904 114.582 109.079 113.039 108.35 111.45L125.55 128.67L143.72 127.31Z" fill="#A1A0A0"/>
<path d="M43.8999 108.73L23.9299 106.09L38.0499 99.3701L43.8999 108.73Z" fill="#5A5755"/>
<path d="M47.65 108.73L37.32 117.04L25.66 129.52L16.04 121.48L23.93 106.09L43.9 108.73L38.05 99.3701L47.65 108.73Z" fill="#C7C6C1"/>
<path d="M81.88 35.8601L97.69 27.3501L75.98 33.6701L81.88 35.8601Z" fill="#C7C6C1"/>
<path d="M79.49 65.8301L101.71 56.5601L104.66 59.5101L105.02 58.1401L101.71 56.5601L82.49 62.7401L79.49 65.8301Z" fill="#BC7645"/>
<path d="M77.19 65.9001L61 59.0601L74.29 63.1001L77.19 65.9001Z" fill="#9B5023"/>
<path d="M96.6701 80.4702L85.3101 89.2602L83.3701 90.1902L79.5701 89.3202L78.0601 88.8502L83.3901 88.6302L96.6701 80.4702Z" fill="#9B5023"/>
<path d="M66.6799 81.7999L78.0599 88.8499L66.6799 80.6499V81.7999Z" fill="#9B5023"/>
<path d="M66.6799 80.6499C66.6799 80.8199 78.2599 88.6499 78.2599 88.6499H83.39L83.2199 89.3499L78.0599 88.8699C78.0599 88.8699 68.26 82.6899 68.2 82.6999C68.14 82.7099 66.6799 80.6499 66.6799 80.6499Z" fill="#9B5023"/>
<path d="M76 33.6699C76 33.6699 70.93 25.0999 70.86 24.3399C70.79 23.5799 80.43 6.18994 80.43 6.18994C80.43 6.18994 75.43 21.8899 75.64 22.0799C75.85 22.2699 81.26 31.6099 81.26 31.6099L76 33.6699Z" fill="#282A2A"/>
<path d="M103.8 7.64006C103.18 7.45006 95.25 11.0601 95.25 11.0601C95.25 11.0601 88.83 27.5801 89.11 27.3501C89.39 27.1201 96.45 12.5901 96.45 12.5901L103.8 7.64006Z" fill="#282A2A"/>
<path d="M46.8401 26.2501L62.9401 17.4901L71.8701 19.9301L61.8601 5.6001L46.8401 26.2501Z" fill="#282A2A"/>
<path d="M98.78 369.57C99.31 370.49 113.69 408.45 113.69 408.45L94.78 386.65L98.78 369.57Z" fill="#C7C6C1"/>
<path d="M48.8999 372.14L36.1799 376.82L39.45 416.05L57.5699 375.47L48.8999 372.14Z" fill="#40403E"/>
<path d="M58.1199 236.26L52.7 258.16L69.5699 276.18L67.42 287.5L74.7 289.45L81.3499 287.76L77.2799 274.43L93.67 261.1L102.43 227.72L83.9599 234.7L83.95 237.19L69.5699 243.72L58.1199 236.26Z" fill="#29272C"/>
<path d="M143.72 127.31C143.72 127.31 155.14 156.39 155.11 156.31C155.08 156.23 132 149.44 132 149.44L143.72 127.31Z" fill="#5A5755"/>
<path d="M131.95 149.44L121.74 152.23L123.58 136.21L143.72 127.31" fill="#40403E"/>
<path d="M155.11 156.29L164.28 181.99L164.81 195.14L146.33 187.09L155.11 156.29Z" fill="#40403E"/>
<path d="M121.74 152.23L133 180.4L140.92 189.1L139.86 216.23C139.86 216.23 149.71 209.23 149.68 207.83C149.65 206.43 146.32 187.09 146.32 187.09L155.1 156.29C155.1 156.29 133.33 148.29 132.46 148.46C131.59 148.63 121.74 152.23 121.74 152.23Z" fill="#C7C6C1"/>
<path d="M146.33 187.09L149.69 207.83C149.69 207.83 165.31 195.36 164.81 195.14L146.33 187.09Z" fill="#5A5755"/>
<path d="M136.38 184.11C136.74 184.5 146.84 184.99 146.84 184.99L151.62 184.55L140.93 189.1L136.38 184.11Z" fill="#29272C"/>
<path d="M36.2701 137.65L34.7401 139.77L31.6901 151.44L31.0201 152.66C31.0201 152.66 37.0201 166.81 36.3501 167.53C35.6801 168.25 24.9401 177.53 24.9401 177.53L20.8 151.44L27.4301 140.22L36.2701 137.65Z" fill="#5A5755"/>
<path d="M27.4301 140.22L19.5901 135.9L14.8901 185L24.9401 177.53L20.8001 151.44L27.4301 140.22Z" fill="#40403E"/>
<path d="M36.3601 167.53L33.1201 207.83L21.8701 201.77L24.9401 177.52C24.9401 177.52 35.6401 168 36.3601 167.53Z" fill="#29272C"/>
<path d="M24.9399 177.52L21.8699 201.77L17.9299 199.4L13.6799 198.2C13.6799 198.2 16.6799 166.73 16.5999 167.13C16.5199 167.53 24.9399 177.52 24.9399 177.52Z" fill="#C7C6C1"/>
<path d="M112.35 209.79L84 220V215.11L56.82 216.27V220L45.59 212L43.5 178L38.21 170L36.36 167.54L31 152.66L31.67 151.44L39.04 164.38L41.12 165.85L46.43 165.49L55.19 178.78L56.75 177.97L58.13 199.4L70.63 204.07C73.0577 204.226 75.4918 203.893 77.7884 203.09C80.085 202.288 82.1972 201.033 84 199.4C91.19 192.62 89 182.62 88.92 182.17C91.55 183.17 97.3 185.62 97.73 185.62C98.16 185.62 106.73 187.87 108.14 189.9C108.54 192.22 112.35 209.79 112.35 209.79Z" fill="#40403E"/>
<path d="M113 167.22C112.87 167.65 102 180.28 102 180.28L101.68 185.7L113 167.22Z" fill="#A1A0A0"/>
<path d="M112.57 161.58C112.41 162.01 100.67 173.84 100.67 173.84L99.96 179.22L112.57 161.58Z" fill="#A1A0A0"/>
<path d="M24.87 138.82L27.43 140.22L20.8 151.44L18.03 151.5C18.5034 147.04 18.9534 142.56 19.38 138.06L19.59 135.9L24.87 138.82Z" fill="#C7C6C1"/>
<path d="M83.7701 209.69L78.8901 219.41L60.3901 217.85C58.8101 215.497 57.2268 213.163 55.6401 210.85L68.3901 216.1L83.7701 209.69Z" fill="#C7C6C1"/>
<path d="M112.35 209.79L84 220V215.11L56.82 216.27V220L45.59 212L43.5 178L38.21 170L36.36 167.54L31 152.66L31.67 151.44L39.04 164.38L41.12 165.85L46.43 165.49L55.19 178.78L56.75 177.97L57.89 195.66L70.63 204.07L85.07 196L88.87 182.15C91.5 183.15 97.25 185.6 97.68 185.6C98.11 185.6 106.68 187.85 108.09 189.88C108.54 192.22 112.35 209.79 112.35 209.79Z" fill="#40403E"/>
</svg>
