<svg width="169" height="517" viewBox="0 0 169 517" fill="none" xmlns="http://www.w3.org/2000/svg">
<path d="M36.37 142.75C35.6988 142.219 35.1669 141.532 34.82 140.75C34.5736 139.821 34.6805 138.834 35.12 137.98C35.8577 136.437 37.0197 135.136 38.47 134.23C39.9139 133.34 41.4805 132.666 43.12 132.23C46.3002 131.226 49.6528 130.886 52.97 131.23C54.1419 131.338 55.2806 131.678 56.32 132.23C57.4698 132.965 58.382 134.017 58.9464 135.259C59.5108 136.501 59.703 137.881 59.5 139.23C59.0295 141.946 57.533 144.377 55.32 146.02" fill="#6DB359"/>
<path d="M117.67 142.37C117.277 143.681 116.526 144.857 115.501 145.765C114.477 146.673 113.219 147.278 111.87 147.51C111.061 147.681 110.218 147.583 109.47 147.23C108.446 146.512 107.717 145.446 107.42 144.23C106.084 141.113 105.16 137.836 104.67 134.48C104.438 133.193 104.624 131.865 105.2 130.69C105.659 130.003 106.296 129.454 107.043 129.102C107.79 128.75 108.618 128.607 109.44 128.69C111.082 128.889 112.635 129.547 113.92 130.59C116.335 132.407 118.209 134.848 119.34 137.65C119.61 138.33 119.99 139.15 120.72 139.19" fill="#6DB359"/>
<path d="M106.06 164.82C108.904 161.83 111.266 158.416 113.06 154.7C113.496 153.886 113.791 153.003 113.93 152.09C113.993 151.632 113.954 151.166 113.816 150.725C113.678 150.284 113.443 149.88 113.13 149.54C112.569 149.057 111.868 148.766 111.13 148.71C109.78 148.572 108.416 148.725 107.13 149.16C104.775 149.874 102.597 151.076 100.738 152.689C98.8792 154.302 97.3818 156.289 96.3436 158.52C95.3053 160.751 94.7497 163.177 94.7129 165.637C94.6761 168.098 95.159 170.539 96.1301 172.8C96.2749 173.22 96.5347 173.591 96.8801 173.87C97.2227 174.031 97.5993 174.106 97.9774 174.088C98.3555 174.071 98.7237 173.962 99.0501 173.77C105.9 170.82 103.65 171.77 105.4 169.57" fill="#3D6B4D"/>
<path d="M126.7 99.25L113.35 105.38L111.77 105.31L119.91 91.2101L112.63 52.33L107.46 67.28L104.86 69.28V58.34L101.4 43.79L98.8499 33.12L97.5199 27.54L75.8199 33.86L59.7199 26.44L55.7199 32.39C55.7199 32.39 55.7199 35.02 55.7199 38.03C55.0899 40.56 53.4399 47.26 53.4399 47.97C53.4399 48.86 54.5699 63.1401 54.9299 63.8801C55.2899 64.6201 50.3299 74.64 50.3299 74.64L55.9599 70.81L59.7599 64.2101L62.2499 73.54L66.4899 80.84V101.1L55.6899 105.31L55.0099 105.07L43.9999 101.31L40.6699 63.31L46.7199 26.45L61.7199 5.80005L80.1799 0.800049L103.67 7.85005L118.09 33.8501L121 55L117.58 58L125.65 86.78L126.7 99.25Z" fill="#FADD2F"/>
<path d="M53.39 47.12L46.73 61.39L45.65 58.25L43.74 66.1L51 103.69C51 103.69 60.2 96.58 60.85 95.74C61.5 94.9 59.2 71.07 59.2 71.07L56.54 55.3L53.39 47.12Z" fill="#96702C"/>
<path d="M53.07 72.7899L54.07 80.8499L52.26 85.3599L51 103.69C51 103.69 62.23 110.84 62.53 110.74C62.83 110.64 70.53 107.53 70.69 107.13C70.85 106.73 74.69 96.3999 74.57 94.7899C74.45 93.1799 74.7 79.2099 74.13 78.8799C73.56 78.5499 67.34 72.5199 66.94 72.2199C66.54 71.9199 62.83 63.2999 62.83 63.2999L59.35 61.1799L53.07 72.7899Z" fill="#96702C"/>
<path d="M96.5 80.66L96.2901 84.04L78.74 101.31L79.0401 122.74L69.04 127.56L45.16 118.23C45.16 118.23 44.84 115.23 45.16 114.8L55.06 105.1L55.74 105.34L66.54 101.13V80.87L62.3 73.57L59.81 64.24V63.98L58.81 58.61C58.81 58.61 58.51 57.61 58.11 56.1L60.94 59.28C60.94 59.28 73.76 63.33 74.22 63.33C74.68 63.33 78.22 67.33 78.22 67.33V74L70.8 72.62L73.91 77.47L78.22 78.86V88.8H83.34L96.5 80.66Z" fill="#DB9058"/>
<path d="M75.81 33.8599L72.05 35.3799L71.7 40.0099L55.73 32.3899L59.72 26.4399L75.81 33.8599Z" fill="#B6C158"/>
<path d="M98.8501 33.12L83.6801 40.03L82.3201 40.64L81.7101 36.06L75.8101 33.86L97.5201 27.54L98.8501 33.12Z" fill="#B6C158"/>
<path d="M101.4 43.79L95.0899 40.64C95.0899 40.64 81.5199 49.39 81.0899 49.71C80.6599 50.03 83.6499 40.03 83.6499 40.03L98.8199 33.12L101.4 43.79Z" fill="#69BE6A"/>
<path d="M101.4 43.79L95.09 40.64C95.09 40.64 81.52 49.39 81.09 49.71C80.66 50.03 83.65 40.03 83.65 40.03L82.29 40.64L77 48.9L77.79 54.76L77.6 63.95L82.29 62.95L101.52 56.77L104.83 58.36L101.4 43.79ZM78.4 61.68L79.65 56.07L82.04 61.68H78.4ZM101.4 51.05L93.01 56.75L82.32 52.17C82.96 52.17 95.9 43.33 95.9 43.33L101.4 47.84V51.05Z" fill="#26342E"/>
<path d="M74.1499 63.32C73.6799 63.32 60.8599 59.32 60.8599 59.32L57.9999 56.1C57.1199 52.86 55.7 47.55 55.73 46.68C55.73 45.99 55.73 41.68 55.73 38.05V32.41L60.6799 42.7L60.8699 43.35L61.04 43.94L57.1199 48.54L64.2 56.78L64.8599 56.41L74.1499 63.32Z" fill="#26342E"/>
<path d="M149.27 194.84L149.52 208.02L139.7 216.42L140.76 189.29L132.84 180.59L121.57 152.42L123.29 136.53C124 136.15 143.43 127.63 143.43 127.63L131.78 149.63C131.78 149.63 145.35 188.24 146.17 187.28C146.99 186.32 153.38 192.28 153.38 192.28L149.27 194.84Z" fill="#DB9058"/>
<path d="M24.08 164L25.86 199.37C25.86 199.37 23.31 194.14 23.17 194.5C23.03 194.86 23.17 200.82 23.17 202.62L13.53 198.42C13.53 198.42 15.61 176.15 15.61 174.58C15.61 173.01 19.44 136.13 19.44 136.13L27.27 140.44L33.97 138.44L24.08 164Z" fill="#DB9058"/>
<path d="M163.18 196L148.06 208.69L147.8 195.51L151.91 192.98C151.91 192.98 145.52 186.98 144.7 187.98C143.88 188.98 130.32 150.33 130.32 150.33L143.53 127.62L162.65 182.88L163.18 196Z" fill="#EFB180"/>
<path d="M108.19 111.64C108.961 113.252 109.812 114.824 110.74 116.35L71.6201 128.61L69.0601 127.61L79.0601 122.79L78.7601 101.35L96.3101 84.09L97.0901 100.16L111.79 105.35L113.37 105.43L108.19 111.64Z" fill="#EFB180"/>
<path d="M36.19 167.72L34.13 190L33 208L23.21 202.57C23.21 200.77 23.11 194.75 23.21 194.45C23.31 194.15 25.9 199.32 25.9 199.32L24.08 164L34 138.4C34.7031 138.165 35.4215 137.978 36.15 137.84L34.58 140L31.53 151.65L30.86 152.88L36.19 167.72Z" fill="#EFB180"/>
<path d="M76.01 52.35L72.97 47.87L61.58 43.35H60.9L60.71 42.7L55.76 32.41L71.73 40.03L75.02 45.54L76.01 52.35Z" fill="#69BE6A"/>
<path d="M82.3199 40.64L77.0299 48.9L74.9999 45.52L71.7 40.01L72.0499 35.38L75.8099 33.86L81.7099 36.06L82.3199 40.64Z" fill="#26342E"/>
<path d="M119.91 91.21L111.76 105.31L97.07 100.11L96.29 84.0399L96.5 80.66L99.84 74.13L104.86 58.34V69.28L107.46 67.28L112.63 52.33L119.91 91.21Z" fill="#96702C"/>
<path d="M104.86 58.34L99.8401 74.13L96.5001 80.66L83.2201 88.82H78.1001V78.88L82.0601 78.3L86.2001 74.02L90.3201 69.28L86.2001 72.63L78.1001 74.02V67.28L82.3201 62.93L101.55 56.75L104.86 58.34Z" fill="#EFB180"/>
<path d="M90.3299 69.28L86.2 74.02L82.0699 78.3L78.0999 78.88L73.7899 77.49L70.6799 72.63L76.4299 75.62L80.4999 75.19L86.2 72.63L90.3299 69.28Z" fill="#A86739"/>
<path d="M86.2 72.63L80.4999 75.19L76.4299 75.62L70.6799 72.63L78.0999 74.02L86.2 72.63Z" fill="#9D5C27"/>
<path d="M82.0599 61.6801H78.4199L79.6699 56.0701L82.0599 61.6801Z" fill="#3D6C45"/>
<path d="M82.32 62.9301L78.1 67.2801C78.1 67.2801 74.58 63.2801 74.1 63.2801L64.84 56.3601C66.84 55.2301 73.02 51.8201 73.44 51.8201L61.53 43.3101L72.93 47.8201L75.93 52.3101L74.93 45.5001L76.93 48.8801L77.72 54.7401L77.53 63.9301L82.32 62.9301Z" fill="#3D6C45"/>
<path d="M59.7801 64.21L55.9801 70.81L50.3501 74.64C50.3501 74.64 55.3501 64.64 54.9501 63.88C54.5501 63.12 53.4601 48.88 53.4601 47.97C53.4601 47.26 55.1101 40.56 55.7401 38.03C55.7401 41.71 55.7401 45.96 55.7401 46.66C56.3396 49.8334 57.1006 52.9742 58.0201 56.07C58.4201 57.54 58.7201 58.58 58.7201 58.58L59.7201 63.95L59.7801 64.21Z" fill="#EFBB53"/>
<path d="M101.4 47.84V51.05L93.0101 56.75L82.3201 52.17C82.9601 52.17 95.9001 43.33 95.9001 43.33L101.4 47.84Z" fill="white" stroke="#221F1F" stroke-linejoin="round"/>
<path d="M73.4599 51.84C73.0399 51.84 66.8999 55.25 64.8599 56.38L64.1999 56.75L57.1299 48.5099L60.2299 43.5099L60.6899 42.7L73.4599 51.84Z" fill="white" stroke="#221F1F" stroke-linejoin="round"/>
<path d="M132.63 263.53L116.34 355.53L102.26 356.93L77.1099 274.64C77.1099 274.64 87.8499 265.84 98.6199 257.18C100.89 255.35 103.17 253.52 105.34 251.79C105.03 259.5 103.39 293.97 103.39 293.97C103.39 293.97 116.09 322.13 116.45 321.57C116.81 321.01 132.2 265.14 132.63 263.53Z" fill="#26342E"/>
<path d="M47.3101 511.23L19.7201 512.8C19.7201 512.8 9.72014 514.01 8.92014 513.8C8.12014 513.59 0.120117 511.63 0.120117 511.63L0.880127 508.24L14.7501 508.94H15.2001L26.0101 509.63L39.8801 506.45L40.4201 506.33C40.473 506.32 40.5273 506.32 40.5801 506.33C40.9301 506.23 46.8101 504.67 46.9901 504.72C47.2301 508.35 47.3101 511.23 47.3101 511.23Z" fill="#26342E"/>
<path d="M25.94 509.53L39.92 506.51L26.05 509.69L15.24 509L14.79 508.98H14.78L14.75 508.97L15.04 508.98L25.94 509.53Z" fill="#181E4D"/>
<path d="M47.1099 504.72C46.9299 504.67 41.0499 506.23 40.6999 506.33L40.6499 506.2V506.06L40.3299 505.14C40.2399 504.89 40.1399 504.61 40.0199 504.3C39.8999 503.99 39.7899 503.65 39.6499 503.3L39.4899 502.89C39.4399 502.73 39.3699 502.55 39.2999 502.38C39.0666 501.747 38.8166 501.08 38.5499 500.38C38.4699 500.16 38.3799 499.95 38.2999 499.72L37.3999 497.38C37.2299 496.94 37.0699 496.49 36.8899 496.05C36.4599 494.95 36.0399 493.86 35.6499 492.84L35.2299 491.76C34.8299 490.76 34.4699 489.76 34.1599 489.03C34.1293 488.925 34.0925 488.821 34.0499 488.72L33.8999 488.33L33.7299 487.91L33.5899 487.56C33.4799 487.26 33.4099 487.09 33.4099 487.09L33.5499 486.31V487.31L48.5499 487.09C48.6199 487.07 46.9299 498.5 47.1099 504.72Z" fill="#26342E"/>
<path d="M39.51 473.45H39.28V473L39.51 473.45Z" fill="#253B7D" stroke="#9BB7C7" stroke-miterlimit="10"/>
<path d="M40.5 506.37H40.45L39.92 506.5L26.05 509.68L15.24 509H14.79L6.28003 504.76L24.7 495.34L27.1 497L27.97 497.6L28.6 498.04L29.43 498.62C33.67 501.54 39.39 505.51 40.5 506.37Z" fill="#3D6B4D"/>
<path d="M14.7799 508.98L0.879883 508.26L6.23987 504.72H6.24988L14.7799 508.98Z" fill="#69BE6A"/>
<path d="M136.51 502.12L118.68 496.19L117.68 487.11L117.75 487.47L132.15 487.29L136.51 502.12Z" fill="#26342E"/>
<path d="M141.22 510.42L119.73 509.69C119.73 509.69 117.25 502.14 117.25 501.82L118.71 496.44V496.19L136.55 502.12L141.22 510.42Z" fill="#3D6B4D"/>
<path d="M142.37 513.24L130.93 516.64H121.93L115.6 510.81L117.23 502.14V501.82C117.23 502.14 119.71 509.69 119.71 509.69L141.2 510.42L142.37 513.24Z" fill="#26342E"/>
<path d="M40.7 506.33C40.6472 506.32 40.5929 506.32 40.54 506.33V506.33L29.54 498.55L28.71 497.97L28.08 497.53L27.21 496.93L24.77 495.25L33.46 487.02C33.46 487.02 33.53 487.19 33.64 487.49L33.78 487.84L33.95 488.26L34.1 488.65C34.1427 488.751 34.1794 488.855 34.21 488.96L39.54 502.83L39.7 503.24L40.7 505.95C40.7 505.95 40.7 506.15 40.75 506.2C40.8 506.25 40.69 506.29 40.7 506.33Z" fill="#69BE6A"/>
<path d="M55.0501 105.07L45.1501 114.77L40.8601 117.77C40.8601 117.77 40.7001 118.51 40.4501 119.71C39.3901 124.62 36.7001 137.77 36.1301 137.77C35.4016 137.908 34.6833 138.095 33.9801 138.33L27.2801 140.33L19.4501 136.02L15.8901 121.59L25.5201 129.59L37.1701 117.11L47.5101 108.8L37.9101 99.4399L43.9801 101.19L55.0501 105.07Z" fill="#26342E"/>
<path d="M20.72 255.71C20.72 255.71 14.08 259.79 13.97 260.27C13.86 260.75 5.05996 252.81 3.96996 251.86C3.66996 258.04 4.13998 282.12 4.13998 282.12L5.86996 283.56L16.87 279.77L25.45 270.42L20.72 255.71ZM5.90996 279.94L6.90996 263.51L9.61996 277L5.90996 279.94Z" fill="#69BE6A"/>
<path d="M17.7701 199.59L15.6401 219.36L13.6401 204.31L9.64014 198.46C9.64014 198.37 9.64014 198.32 9.64014 198.32L13.5301 198.39L17.7701 199.59Z" fill="#69BE6A"/>
<path d="M15.7 251.34L20.7 255.71C20.7 255.71 14.06 259.79 13.95 260.27C13.84 260.75 5.03998 252.81 3.94998 251.86C3.94186 251.381 3.99903 250.903 4.11996 250.44C4.69996 249.53 9.17995 201.44 9.54995 198.44L13.55 204.29L15.55 219.34L14 234.9L21.09 245.08L10.34 247.39L6.90997 251.34H15.7Z" fill="#26342E"/>
<path d="M35.14 211.09L21.06 245.08L13.97 234.89L17.77 199.59L32.95 208.02L35.14 211.09Z" fill="#3D6B4D"/>
<path d="M20.1999 254.09L20.7199 255.71L15.6999 251.34H6.87988L10.3099 247.38L21.0599 245.08L20.1999 254.09Z" fill="#3D6B4D"/>
<path d="M21.0599 287.83L13.2099 289.64L5.90991 283.56L16.9199 279.77L25.4999 270.42L25.6399 276.79L21.0599 287.83Z" fill="#26342E"/>
<path d="M113.25 172.49C113.25 172.49 107.9 189.82 107.87 189.82L107.93 190.09C106.55 188.09 97.9299 185.81 97.5199 185.81C97.1099 185.81 91.33 183.37 88.7 182.36V182.25C89.15 180.15 89.4399 178.73 89.4399 178.73L92.0299 179.83L99.8099 167.83L106.44 158.56L111.32 153.83L116.32 144.63C118.4 146.14 121.54 152.44 121.54 152.44L113.25 172.49Z" fill="#26342E"/>
<path d="M111.35 153.82L103.25 158.91L99.84 167.82L92.06 179.82L89.47 178.72L70.73 170.72L56.6 178.1L55.05 178.92L46.29 165.62L41 166H55.09L65.6 145.68L70.27 161.98L74.9 148.06C74.9 148.06 92.84 162.78 93.2 162.63L111.35 153.82Z" fill="#3D6B4D"/>
<path d="M116.35 144.61L111.35 153.81L93.1701 162.66C92.8101 162.81 74.8701 148.09 74.8701 148.09L86.6701 133.69C86.6701 133.69 104.3 133.27 104.92 133.75C105.36 134.09 111.54 141.12 116.35 144.61Z" fill="#69BE6A"/>
<path d="M48.6101 254.16L32.8501 240.9L39.1601 224.28C39.6001 224.58 40.9701 226.28 41.6801 226.77L48.6101 254.16Z" fill="#26342E"/>
<path d="M57.7799 236.35C57.7799 236.35 45.6699 229.77 41.6799 226.77C40.9699 226.23 39.5999 224.58 39.1599 224.28L45.4199 212.21L56.5999 220.15L57.7799 236.35Z" fill="#6DB359"/>
<path d="M69.4 243.91L57.78 236.35C59.64 234.85 67.22 229.04 69.01 228.04L69.17 227.96C69.2417 227.938 69.3184 227.938 69.39 227.96C69.44 228.64 69.4 243.91 69.4 243.91Z" fill="#6DB359"/>
<path d="M117.07 224.51L106.46 227.12L83.8 234.89V220.15L112.19 209.98L117.07 224.51Z" fill="#6DB359"/>
<path d="M116.35 355.51C116.35 355.51 111.35 376.11 111.12 376.99C110.89 377.87 102.27 356.91 102.27 356.91L116.35 355.51Z" fill="#B6C158"/>
<path d="M78.4099 306.29C78.6699 304.91 69.4099 354.52 69.4099 354.52L63.95 363.15C63.95 363.15 66.8699 351.45 67.1299 350.66C67.3899 349.87 75.9999 302.14 75.9999 302.14C75.9999 302.14 66.6299 298.69 68.2899 298.95C70.8747 299.09 73.4651 299.09 76.0499 298.95L81.1299 297.43L93.4999 361.75C92.9999 360.11 78.1399 307.64 78.4099 306.29Z" fill="#26342E"/>
<path d="M125.7 355.51L132.64 263.51L116.35 355.51C116.35 355.51 111.35 376.11 111.13 376.99C110.91 377.87 102.27 356.91 102.27 356.91L77.12 274.62C77.12 274.62 87.86 265.82 98.63 257.16L106.47 227.16L83.8 234.9V237.38L79.1 239.51L69.41 243.91L58 236.46L57.53 236.11C56.12 235 45.24 229.41 41.73 226.77L48.66 254.16L50.66 256.29L69.46 276.37L53.23 361.78L40.29 353.78L27.72 283.73L23.97 327.26L30.19 349.67L28 377L32.84 387.05L33.6 473.43H39.31V416.23C39.31 415.08 57.44 375.64 57.44 375.64L65.81 394.51L46.72 473.43L52.56 473.18L73.36 392.49L63.97 363.13C63.97 363.13 66.89 351.43 67.15 350.64C67.41 349.85 76 302.14 76 302.14C76 302.14 66.63 298.69 68.3 298.95C70.8847 299.09 73.4752 299.09 76.06 298.95L81.13 297.43L93.5 361.75L91.22 387.45C91.22 387.45 115.22 478.6 116.22 479.45C116.375 479.545 116.549 479.603 116.73 479.62C119.333 479.737 121.94 479.717 124.54 479.56H125.42L116.48 419.48C116.48 419.48 127.3 383.48 127.3 382.79C127.3 382.1 132.55 386.21 132.55 386.21L130.71 479.33L132.1 479.26L132.31 477.56C132.7 464.78 137.09 384.89 138.06 384.64C139.03 384.39 125.7 355.51 125.7 355.51ZM34.45 372.33L38 355.51C39 355.94 48.78 366.26 48.78 366.26L34.45 372.33Z" fill="#3D6B4D"/>
<path d="M124.27 240C117.613 243.323 111.276 247.253 105.34 251.74C103.17 253.47 100.89 255.3 98.6201 257.13L106.46 227.13L117.07 224.52L123.87 239.01L124.27 240Z" fill="#26342E"/>
<path d="M132.64 263.49C132.21 265.1 116.81 320.96 116.46 321.49C116.11 322.02 103.39 294 103.39 294C103.39 294 105.03 259.53 105.34 251.82C111.273 247.305 117.609 243.348 124.27 240L132.64 263.49Z" fill="#6DB359"/>
<path d="M167.59 204.81C167.4 205.02 160.18 213.13 153.81 220.15V250.39L150.2 257.11L144.72 250L134.18 265.49L133.26 271.79H139.7V283.59L150.79 286.35L161.88 279.69C161.88 279.69 161.62 247.52 161.88 246.42C162.09 245.55 165.85 217.76 167.59 204.81ZM150.79 281.68L152.6 274.62V262.5L156 277L150.79 281.68Z" fill="#3D6B4D"/>
<path d="M161.88 279.66L158.98 287.08L144.67 294.56L136.16 291.16L133.26 271.76H139.7V283.56L150.79 286.32L161.88 279.66Z" fill="#26342E"/>
<path d="M153.81 220.15V250.39L150.2 257.11L144.72 250L137.59 217.28C137.59 217.28 143.91 229.74 144.12 230.37C144.21 230.62 148.75 225.73 153.81 220.15Z" fill="#69BE6A"/>
<path d="M168.48 198.28C168.48 198.28 168.13 200.84 167.6 204.8C167.41 205.01 160.19 213.12 153.82 220.14C148.76 225.72 144.22 230.61 144.13 230.33C143.92 229.7 137.6 217.24 137.6 217.24L139.71 216.41L149.53 208.01L164.66 195.32L165.85 194.15L168.48 198.28Z" fill="#26342E"/>
<path d="M132.59 386.19L130.75 479.31C129.45 479.38 127.48 479.48 125.46 479.54L116.52 419.46C116.52 419.46 127.34 383.46 127.34 382.77C127.34 382.08 132.59 386.19 132.59 386.19Z" fill="#26342E"/>
<path d="M112.82 119.84L78.8199 131.08L69.3799 144.61L60.2999 129.71L40.4399 119.81C40.6899 118.62 40.8499 117.88 40.8499 117.88L45.14 114.88C44.83 115.33 45.14 118.3 45.14 118.3L68.9999 127.59L71.5599 128.59L110.68 116.35L112.82 119.84Z" fill="#26342E"/>
<path d="M65.57 145.72L55.06 166.04H40.97L38.9 164.57L31.53 151.63L34.58 139.98V139.97L37.88 136.49L55.05 135.1L65.57 145.72Z" fill="#69BE6A"/>
<path d="M83.8 220.15V234.9V237.38L79.1001 239.51L79.3401 220.15H60.4201C60.0501 220.15 57.9001 217.69 56.8101 216.41L83.8101 215.26V220.15H83.8Z" fill="#6DB359"/>
<path d="M52.2099 295.41C52.2099 295.41 41.7599 320.81 41.5999 320C41.4399 319.19 28.3199 286 27.6599 283.54V282.64L32.1599 242.43L32.8199 240.92L48.5799 254.18L50.5799 256.31L52.2099 295.41Z" fill="#6DB359"/>
<path d="M69.3999 276.37L53.1699 361.78L40.2299 353.78L27.6599 283.73V283.56C28.3199 286.04 41.4299 319.13 41.5999 319.97C41.7699 320.81 52.2099 295.43 52.2099 295.43L50.5999 256.31L69.3999 276.37Z" fill="#26342E"/>
<path d="M48.7399 366.26L34.4399 372.33L37.9999 355.51C38.9999 355.94 48.7399 366.26 48.7399 366.26Z" fill="#B6C158"/>
<path d="M123.42 136.4L121.57 152.4C121.57 152.4 117.72 146.76 116.35 144.59C113 139.28 105.35 134.07 104.92 133.74C104.3 133.26 86.6701 133.68 86.6701 133.68L74.8701 148.08L70.2401 162L65.5701 145.71L55.0501 135.1H37.8901L34.5801 140L36.1101 137.87C36.6801 137.87 39.3701 124.72 40.4301 119.81L60.2901 129.72L69.3701 144.64L78.8101 131.1L112.81 119.84C117.27 127.23 123 136.63 123.42 136.4Z" fill="#6DB359"/>
<path d="M155.96 276.99L150.79 281.68L152.6 274.62V262.5L155.96 276.99Z" fill="#26342E"/>
<path d="M9.6199 276.99L5.90991 279.94L6.87991 263.51L9.6199 276.99Z" fill="#26342E"/>
<path d="M65.79 394.53L46.7 473.45H39.51L39.28 472.95V416.25C39.28 415.1 57.4 375.66 57.4 375.66L65.79 394.53Z" fill="#26342E"/>
<path d="M52.54 473.2L48.53 487.07L33.48 487.29L33.49 486.29L33.57 473.45L52.54 473.2Z" fill="#464C45"/>
<path d="M132.15 479.24V487.24L117.75 487.42L117.68 487.06L116.77 479.57C119.373 479.687 121.98 479.667 124.58 479.51C126.89 479.51 129.26 479.34 130.75 479.26L132.15 479.24Z" fill="#464C45"/>
<path d="M147.75 108.79L108.19 111.64L113.48 105.25L126.83 99.12L129.01 97.8L147.75 108.79Z" fill="#69BE6A"/>
<path d="M147.75 108.79L143.56 127.5L125.38 128.86L108.19 111.64L147.75 108.79Z" fill="#26342E"/>
<path d="M143.56 127.5C143.56 127.5 124.13 136.02 123.42 136.4C122.98 136.63 117.2 127.18 112.75 119.76L110.65 116.26C109.733 114.773 108.912 113.23 108.19 111.64L125.38 128.86L143.56 127.5Z" fill="#69BE6A"/>
<path d="M43.74 108.92L23.76 106.28L37.89 99.5601L43.74 108.92Z" fill="#26342E"/>
<path d="M47.4901 108.92L37.1501 117.23L25.5001 129.71L15.8701 121.67L23.7601 106.28L43.7401 108.92L37.8901 99.5601L47.4901 108.92Z" fill="#69BE6A"/>
<path d="M81.7101 36.06L97.5201 27.54L75.8101 33.86L81.7101 36.06Z" fill="#3D6C45"/>
<path d="M79.3201 66.02L101.55 56.75L104.5 59.71L104.86 58.34L101.55 56.75L82.3201 62.93L79.3201 66.02Z" fill="#BB7644"/>
<path d="M77.0301 66.09L60.8401 59.25L74.1201 63.3L77.0301 66.09Z" fill="#9A5124"/>
<path d="M96.5001 80.66L85.1401 89.45L83.2101 90.38L79.4001 89.51L77.8901 89.04L83.2201 88.82L96.5001 80.66Z" fill="#9A5124"/>
<path d="M66.51 81.99L77.89 89.04L66.51 80.84V81.99Z" fill="#9A5124"/>
<path d="M66.51 80.84C66.51 81.01 78.1 88.84 78.1 88.84H83.22L83.06 89.54L77.89 89.06C77.89 89.06 68.09 82.88 68.04 82.89C67.99 82.9 66.51 80.84 66.51 80.84Z" fill="#9A5124"/>
<path d="M75.8201 33.86C75.8201 33.86 70.7501 25.29 70.6801 24.54C70.6101 23.79 80.2401 6.38 80.2401 6.38C80.2401 6.38 75.2401 22.08 75.4601 22.27C75.6801 22.46 81.0801 31.8 81.0801 31.8L75.8201 33.86Z" fill="#96702C"/>
<path d="M103.64 7.82998C103.01 7.63998 95.0899 11.26 95.0899 11.26C95.0899 11.26 88.6699 27.77 88.9399 27.54C89.2099 27.31 96.2899 12.78 96.2899 12.78L103.64 7.82998Z" fill="#96702C"/>
<path d="M46.6799 26.44L62.7699 17.68L71.7 20.12L61.6899 5.79004L46.6799 26.44Z" fill="#96702C"/>
<path d="M98.6199 369.76C99.1399 370.68 113.53 408.64 113.53 408.64L94.6099 386.84L98.6199 369.76Z" fill="#B6C158"/>
<path d="M48.74 372.33L36.02 377.02L39.28 416.25L57.4 375.66L48.74 372.33Z" fill="#B6C158"/>
<path d="M57.95 236.46L52.53 258.36L69.4 276.37L67.25 287.69L74.53 289.64L81.19 287.95L77.11 274.62L93.5 261.29L102.26 227.91L83.8 234.89L83.79 237.38L69.4 243.91L57.95 236.46Z" fill="#69BE6A"/>
<path d="M143.56 127.5C143.56 127.5 154.98 156.58 154.95 156.5C154.92 156.42 131.78 149.65 131.78 149.65L143.56 127.5Z" fill="#3D6B4D"/>
<path d="M131.78 149.63L121.57 152.42L123.42 136.4L143.56 127.5" fill="#26342E"/>
<path d="M154.95 156.48L164.12 182.18L164.65 195.33L146.17 187.28L154.95 156.48Z" fill="#6DB359"/>
<path d="M121.57 152.42L132.84 180.59L140.76 189.29L139.7 216.42C139.7 216.42 149.55 209.42 149.52 208.02C149.49 206.62 146.17 187.28 146.17 187.28L154.95 156.48C154.95 156.48 133.18 148.48 132.31 148.65C131.44 148.82 121.57 152.42 121.57 152.42Z" fill="#69BE6A"/>
<path d="M146.17 187.28L149.52 208C149.52 208 165.15 195.53 164.65 195.31L146.17 187.28Z" fill="#3D6B4D"/>
<path d="M136.22 184.3C136.58 184.69 146.67 185.19 146.67 185.19L151.45 184.74L140.76 189.29L136.22 184.3Z" fill="#26342E"/>
<path d="M36.1101 137.84L34.5801 140L31.5301 151.66L30.8601 152.89C30.8601 152.89 36.8601 167.03 36.1901 167.75C35.5201 168.47 24.7701 177.75 24.7701 177.75L20.6401 151.66L27.2601 140.44L36.1101 137.84Z" fill="#3D6B4D"/>
<path d="M27.26 140.41L19.43 136.1L14.73 185.19L24.77 177.72L20.64 151.63L27.26 140.41Z" fill="#69BE6A"/>
<path d="M36.1899 167.72L32.9999 208L21.7 202L24.7799 177.75C24.7799 177.75 35.4699 168.2 36.1899 167.72Z" fill="#69BE6A"/>
<path d="M24.78 177.71L21.7 202L17.77 199.63L13.52 198.43C13.52 198.43 16.52 166.97 16.44 167.36C16.36 167.75 24.78 177.71 24.78 177.71Z" fill="#26342E"/>
<path d="M112.19 210L83.7999 220.15V215.26L56.6099 216.42V220.15L45.4299 212.21L43.3499 178.21L38.0499 170.21L36.2099 167.74L30.8799 152.88L31.5499 151.65L38.9199 164.59L40.9999 166L46.3199 165.64L55.0799 178.94L56.6299 178.12L57.9999 199.59L69.4099 193.89L83.7999 199.59C85.4399 193.85 87.0765 188.107 88.7099 182.36C91.3399 183.36 97.0899 185.81 97.5299 185.81C97.9699 185.81 106.53 188.06 107.94 190.09C108.37 192.41 112.19 210 112.19 210Z" fill="#26342E"/>
<path d="M59.76 209.72L69.66 208.57L80.87 209.17L83.79 215.26L69.66 214.57L57.49 215.82C58.2433 213.793 59 211.76 59.76 209.72Z" fill="#26342E"/>
<path d="M61.32 202.21C63.99 202.09 66.78 202.03 69.71 202.06C72.98 202.06 76.1 202.21 79.05 202.41L83.79 208.53L69.79 207.96L57.48 209.09L61.32 202.21Z" fill="#26342E"/>
<path d="M57.86 197L69.78 195.16L83.61 196.37L83.79 202.31L69.71 200.87L57.49 202.87L57.86 197Z" fill="#26342E"/>
<path d="M112.82 167.41C112.69 167.84 101.82 180.47 101.82 180.47L101.49 185.89L112.82 167.41Z" fill="#6DB359"/>
<path d="M112.41 161.78C112.25 162.2 100.5 174.03 100.5 174.03L99.79 179.41L112.41 161.78Z" fill="#6DB359"/>
<path d="M89.4699 178.73C89.4699 178.73 89.1799 180.15 88.7299 182.25V182.36C88.3799 183.99 85.7799 192.92 83.8199 199.59L69.4299 193.89L57.9999 199.59L56.6099 178.16L70.7399 170.78L89.4699 178.73Z" fill="#6DB359"/>
<path d="M89.4699 178.73L89.2699 179.73L88.7299 182.27V182.34L83.8199 199.57L70.5199 204.24L57.9999 199.59L56.6099 178.16L70.7399 170.78L89.4699 178.73Z" fill="#6DB359"/>
</svg>
