<svg width="192" height="489" viewBox="0 0 192 489" fill="none" xmlns="http://www.w3.org/2000/svg">
<path d="M88.48 47.67C89.3842 48.3562 90.0405 49.3179 90.35 50.41C90.4526 51.1695 90.3051 51.9417 89.93 52.61C89.5475 53.271 89.0765 53.8766 88.53 54.41C85.75 57.32 82.15 59.67 78.13 60.11C77.3991 60.2226 76.6525 60.1783 75.94 59.98C75.154 59.6973 74.4618 59.2023 73.94 58.55C73.5049 58.0293 73.1448 57.4504 72.87 56.83C72.7273 56.4529 72.5533 56.0883 72.35 55.74C71.69 54.69 70.35 54.17 69.74 53.11C69.2403 51.9988 69.131 50.7512 69.43 49.57C69.4245 49.4264 69.4639 49.2847 69.5427 49.1646C69.6216 49.0444 69.736 48.952 69.87 48.9C72.4367 47.6707 75.2832 47.1428 78.12 47.37C80.9407 47.5947 83.7716 47.6648 86.6 47.58C87.6 47.5 88.69 47.41 89.3 48.14" fill="#A6662F"/>
<path d="M95.3201 43.44L81.9401 43.67C81.6501 43.67 76.7601 45.93 76.7601 45.93L74.3101 43.47L64.3101 43.21L65.6501 49.68L68.1301 56.3L74.5601 63.15H86.6701L98.5701 52.87L95.3201 43.44ZM82.2701 55.87C82.0301 55.79 76.4801 55.87 76.4801 55.87L74.9201 53.41H84.6801C84.6801 53.41 82.5201 56 82.2701 55.87ZM72.7901 50.87L74.4601 49.68C74.4601 49.68 83.54 49.62 83.86 49.68C84.18 49.74 88.4301 50.96 88.4301 50.96L72.7901 50.87Z" fill="#E4B17B"/>
<path d="M71.4299 0.449997L78.0899 2.28999L85.9999 0.449997L101.39 4.47L87.7799 7.83L75.3499 7.14L71.4299 0.449997Z" fill="#3E383E"/>
<path d="M188.87 216.38V216.83H173.77L185.93 162.22C185.93 162.22 191.19 185.41 191.65 186.07V186.21V186.26C192.15 188.83 188.87 216.38 188.87 216.38Z" fill="#827140"/>
<path d="M183.52 216.83L178.33 244.38L173.17 230.6L167.21 228.62L167.35 228.16L173.76 216.83H183.52Z" fill="#E4B37C"/>
<path d="M178.33 244.38L168.02 247.82L165.7 244.38L171 242.62V238.1L165.7 244.38L163.31 240.82L167.21 228.62L173.17 230.6L178.33 244.38Z" fill="#D1925E"/>
<path d="M190.93 243.27L186.22 247.82H168.02L178.33 244.38L190.93 243.27Z" fill="#9E6F5A"/>
<path d="M188.87 216.83L190.93 243.27L178.33 244.38L183.52 216.83H188.87Z" fill="#D1925E"/>
<path d="M167.47 99.63V99.71L151.41 120.24L136 113.08V97.53L154.49 79.87L154.82 79.92L167.47 99.63Z" fill="#E7C053"/>
<path d="M154.45 79.87L135.96 97.53L114.1 85.9L129.17 75.82L129.4 75.92L154.45 79.87Z" fill="#F4A54B"/>
<path d="M104.51 66.46C99.51 68.59 82.64 76.61 82.33 76.39C82.02 76.17 74.64 70.82 71 68L81.47 71.79L105.19 61.5L105.25 65.35L104.51 66.46Z" fill="#D0A17F"/>
<path d="M104.55 55.4L105.15 61.53L81.43 71.82L71 68L72.16 62.54L74 64.8H86.6L104.55 55.4Z" fill="#BB865E"/>
<path d="M103 45.72L103.57 45.12L103 45.72L104.52 55.4L86.52 64.8L98.37 52.87C99.2915 48.7664 100.57 44.7511 102.19 40.87C102.38 40.48 103 45.53 103 45.72Z" fill="#966C54"/>
<path d="M98.41 52.87L86.56 64.8H74L72.13 62.57L67.79 56.57L65.53 49.87L63.47 43.16L64.82 43.23L66.16 49.7L68.64 56.32L74.43 63.17H86.55L98.41 52.87Z" fill="#C7915D"/>
<path d="M109.28 28.87V39L103.03 45.7C103.03 45.51 102.38 40.46 102.23 40.81C104.78 34.81 107.36 28.81 107.45 28.81L109.28 28.87Z" fill="#D0A17F"/>
<path d="M107.71 13.75L107.56 28.75L97.2801 24.4L97.9001 14.24L93.4201 14.96L80.4201 18.48L67.4201 13.81L65.3301 25.23L66.5601 9.23C66.5601 9.23 77.8201 11.68 78.0801 11.68C78.3401 11.68 95.6801 10.07 96.0801 9.94C96.4801 9.81 101.57 7.81 101.86 7.53L107.71 13.75Z" fill="#22201F"/>
<path d="M93.4199 15L90.7899 24C90.7899 24 78.2899 29.27 78.1099 29.41C77.9299 29.55 69.6299 25 69.2499 24.88C68.8699 24.76 67.3999 13.88 67.3999 13.88L79.8899 18.36L93.4199 15Z" fill="#E4B17B"/>
<path d="M107.69 28.88L101.57 30.94L96.49 32.46L93.65 29.02L91.26 26.16L97.28 24.43L107.52 28.78L107.69 28.88Z" fill="#F3EB50"/>
<path d="M101.9 30.75C101.9 30.75 97.0599 39.8 95.6099 42.62C95.5099 42.81 95.4199 42.96 95.3499 43.1L95.1899 43.39V43.44L81.8099 43.67C81.5099 43.67 76.6199 45.93 76.6199 45.93L74.17 43.47L65.17 43.21L63.4299 43.14L67.67 38.66L74.7499 40.42L76.1599 33.47L66.6799 29.2L64.9999 25.62L65.2699 25.26L77.7299 31.6L91.3699 26.11L93.6299 28.85L79.8499 33.85L81.0499 40.43C81.3399 40.43 93.8199 39.93 94.0499 39.85C94.2799 39.77 96.5099 32.3 96.5099 32.3L101.9 30.75Z" fill="#F3EB50"/>
<path d="M76.1599 33.47L74.7499 40.42L74.2099 33.8L66.6799 29.2L76.1599 33.47Z" fill="#29272C"/>
<path d="M67.67 38.66L63.43 43.14L62.54 34.03V28.88L65.04 25.62L66.68 29.2L64.88 32.76L66.54 38.39L67.67 38.66Z" fill="#F3EB50"/>
<path d="M93.6701 28.85L83.1801 33.6L81.0901 40.42L79.8901 33.84L93.6701 28.85Z" fill="#29272C"/>
<path d="M107.69 28.87C107.44 29.22 104.95 35 102.47 40.8L102.36 41.07C100.15 46.23 99.0999 51.43 98.5299 52.6C98.5101 52.6679 98.4867 52.7346 98.4599 52.8C98.4413 52.8363 98.4138 52.8673 98.3799 52.89L95.1099 43.41V43.36C95.1099 43.36 95.1999 43.21 95.2699 43.07C95.3399 42.93 95.4299 42.78 95.5299 42.59C97.0599 39.78 101.82 30.72 101.82 30.72L107.3 28.95L107.6 28.85L107.69 28.87Z" fill="#F3EB50"/>
<path d="M98.58 184L95.3 188.8L76.76 191V132.64L100.05 143.52L96.36 157.19L98.58 184ZM83.58 131.25C83.58 131.25 108.95 135.9 109.64 135.73C110.33 135.56 130.74 119.51 131.38 119.01L111.72 143.51L83.58 131.25ZM138.88 134.1L128.39 105.75L122.07 120.23C122.07 120.23 107.07 128.9 106.71 129.23C106.35 129.56 78.13 125.23 78.13 125.23L79.54 99.36L88.68 84.26L80.38 89.26C80.38 89.26 72.79 85.4 72.18 84.73L77.98 100.19L73.87 125.47L50 133.15L33 122L49.33 137.26L66.28 131.17L52 144.52L54.37 179.63C54.37 179.63 64.31 200.69 64.78 201C65.25 201.31 90.33 201 90.33 201L108.14 175.26L126.14 167.94C126.14 167.82 126.14 167.76 126.14 167.76L126.68 166.34L138.88 134.1Z" fill="#E7C053"/>
<path d="M131.36 119L111.7 143.5L83.5601 131.24C83.5601 131.24 108.93 135.89 109.62 135.72C110.31 135.55 130.72 119.52 131.36 119Z" fill="#827140"/>
<path d="M77.95 100.21L73.84 125.49L50.03 133.15L33.01 122.04L36.02 104.92L49.98 85.9L77.95 100.21Z" fill="#F3EB50"/>
<path d="M50.0001 85.9L30.7601 101.46L16.6201 95.09L30.7401 80L47.4201 79.77L47.9701 79.52C49.2501 81.49 50.0001 85.9 50.0001 85.9Z" fill="#F4A54B"/>
<path d="M19.2601 121.27L19.3201 121.13L16.6001 95.09L30.7401 101.46L33.0101 122.04L19.2601 121.27Z" fill="#E7C053"/>
<path d="M52.9999 205L65.6999 230.55L64.5199 228.73L63.9999 228L63.7299 227.6L63.1499 226.69L62.5199 225.69L62.1799 225.16L61.0899 223.48L59.9999 221.67L59.1899 220.4L58.3499 219.1L57.9299 218.44L57.0999 217.16L55.6899 215L54.8899 213.73L54.0399 212.41C50.2699 206.51 40.4099 201.69 40.3499 201.41L49.4299 178.84C49.4299 178.84 47.1499 144.63 47.3699 141.09C47.0799 141.86 46.0499 144.02 44.7399 146.69C44.6499 147.26 43.2299 155.38 43.0899 155.69C42.9499 156 37.6699 162.29 37.6699 162.29L14.6699 151.96L37.9099 143.47L32.9999 122L49.3299 137.26L66.2799 131.17L51.9999 144.52L54.3699 179.63L52.9999 205Z" fill="#827140"/>
<path d="M14.6899 152L18.9899 182.12L8.27994 217.23L0.679932 213.72L6.51993 163.07L14.6899 152Z" fill="#F3EB50"/>
<path d="M37.6 162.44L36.89 176.13L15.11 217.49L8.28003 217.23L18.99 182.12L37.6 162.44Z" fill="#827140"/>
<path d="M13.16 232.99L3.60999 246.29L0.26001 232.15L0.679993 213.72L8.28 217.23L13.16 232.99Z" fill="#D2935C"/>
<path d="M21.95 229.63L13.16 232.99L8.28003 217.23L15.11 217.49L21.83 229.27L21.95 229.63Z" fill="#E5B47E"/>
<path d="M25.4099 239.71L21.8299 242.38L13.1599 232.99L21.9499 229.63L25.4099 239.71Z" fill="#CF975D"/>
<path d="M21.8299 242.38L19.6499 246.43L18.8999 247.82L3.62988 246.38L3.60986 246.29L13.1599 232.99L21.8299 242.38Z" fill="#9D6D5F"/>
<path d="M128.66 192.07L100.05 215.55L89.9999 230.6C89.4899 229.92 112.19 197.6 111.68 197.12C111.17 196.64 108.08 175.26 108.08 175.26L126.08 167.94C126.32 170.11 128.53 190.69 128.53 191.54C128.563 191.719 128.606 191.896 128.66 192.07Z" fill="#827140"/>
<path d="M65.71 230.6L58.31 287.39L29.46 266.82L40.35 201.46C40.5 202.06 65.13 229.71 65.69 230.58L65.71 230.6Z" fill="#F3EB50"/>
<path d="M145.65 249.78L140 310.15C140 310.15 130.59 321.43 127.05 326.42C129.63 320.73 134.97 306.49 134.97 306.22C134.97 305.95 121.8 288.84 120.36 285.34C120.45 284.92 120.45 284.7 120.36 284.72C120.27 284.74 120.24 284.96 120.36 285.34C119.36 289.56 102.19 316.17 101.26 318.15L101.2 318.28C93.75 293.28 89.48 257.71 89.48 257.71L86.11 294.81C86.11 294.81 80.11 320.7 80.04 321.26L73.68 325.21L62.79 332C62 332.52 73.29 310.71 73.29 310.71L58.29 287.4L65.69 230.61C65.69 230.61 90.02 231.29 90.02 230.61L120.28 283.4L145.65 249.78Z" fill="#827140"/>
<path d="M58.31 287.39L42.56 321.48L29.46 266.82L58.31 287.39Z" fill="#827140"/>
<path d="M79.5399 344.15L64.6199 358.75L39.8799 334.81L42.0699 323.18L42.3399 322.26L42.5699 321.48L58.3099 287.39L73.3099 310.7C73.3099 310.7 61.9999 332.51 62.7899 332C63.5799 331.49 79.9999 321.26 79.9999 321.26C80.2099 320.6 79.5399 344.15 79.5399 344.15Z" fill="#FDC050"/>
<path d="M86.0601 381.7L64.6201 358.75L79.5401 344.15L86.0601 381.7Z" fill="#F4A54B"/>
<path d="M67.1799 452.54C67.1799 452.54 67.4099 451 67.7899 448.4L66.5199 453L64.6299 358.73L82.8699 402.18L67.1799 452.54Z" fill="#E7C053"/>
<path d="M48.8299 425.83C48.8299 425.83 48.9999 365.03 48.7699 364.36C48.5399 363.69 39.8799 335.48 39.8799 334.81L64.6199 358.75L66.5199 453.02L48.8299 425.83Z" fill="#827140"/>
<path d="M67.4201 476.57L29.4201 478.34C29.4201 478.34 20.2101 481.45 19.3101 481.23C18.4101 481.01 3.59009 478.79 3.59009 478.79L4.49008 473.24L24.1301 474.07L42.2301 474.85L59.5301 471.07C59.5301 471.07 66.9101 469.2 67.1401 469.26C67.3101 473.34 67.4201 476.57 67.4201 476.57Z" fill="#827140"/>
<path d="M67.1801 469.26C66.9501 469.2 59.5701 471.07 59.5701 471.07L50.9001 449.44L48.8301 425.61L66.5201 452.79C66.6301 452.79 67.0001 462.28 67.1801 469.26Z" fill="#F3EB50"/>
<path d="M59.57 471.08L42.27 475.07L24.17 474.3L13.53 469.26L40.62 458.67L59.57 471.08Z" fill="#E7C053"/>
<path d="M24.17 474.3L4.53003 473.24L13.52 469.26H13.53L24.17 474.3Z" fill="#F4A54B"/>
<path d="M145.65 249.78L120.3 283.41C119.65 282.78 137.39 210.94 137.39 210.94C142.22 226.87 145.65 249.78 145.65 249.78Z" fill="#FDC050"/>
<path d="M140 310.15C140 310.15 130.59 321.43 127.05 326.42C129.62 320.73 134.97 306.49 134.97 306.22C134.97 305.95 121.8 288.84 120.36 285.34C119.36 289.75 101.2 318.28 101.2 318.28L122.63 333.72L125.69 356L143.09 339L140 310.15Z" fill="#FDC050"/>
<path d="M138.63 429.27L116 388.36C116 388.36 116 387.94 115.89 387.2C115.96 385.91 125.72 363.8 125.72 363.8L111.6 345.26C111.6 345.01 106.74 333.26 101.3 318.5L122.7 333.9L125.7 355.96L160.28 424.86L162 457L138.63 429.27Z" fill="#827140"/>
<path d="M125.69 363.77C125.69 363.77 115.93 385.88 115.86 387.17C115.26 380.07 111.57 345.84 111.57 345.23L125.69 363.77Z" fill="#F4A54B"/>
<path d="M160.27 424.86L125.69 355.96L143.09 339.03L157.7 375.69L160.27 424.86Z" fill="#E7C053"/>
<path d="M167.38 469.6L143.72 462.02L139.05 430.13L138.63 429.27L161.96 457.02L167.38 469.6Z" fill="#F4A54B"/>
<path d="M172.05 480.44L147.18 480C147.18 480 143.77 470.13 143.77 469.71V462.35V462.02L167.43 469.6L172.05 480.44Z" fill="#E7C053"/>
<path d="M173.64 484.12L159.72 488.57H147.36L141.53 481.46L143.77 470.13V469.71C143.77 470.13 147.18 480 147.18 480L172.05 480.44L173.64 484.12Z" fill="#827140"/>
<path d="M185.93 162.22L166.49 152.5L151.41 120.24L167.47 99.71C167.47 100.8 167.25 115.2 167.47 115.84C167.69 116.48 171.85 131.28 171.85 131.28C171.85 131.28 177.35 149.74 177.35 149.06C177.35 148.38 185.93 162.22 185.93 162.22Z" fill="#827140"/>
<path d="M166.49 152.5C166.49 152.5 158.34 160 154.42 163.86C153.28 162.72 144.35 155.02 142.64 153.76C145.25 154.49 165.36 152.5 166.49 152.5Z" fill="#827140"/>
<path d="M173.77 216.83L156.86 184.67L154.59 164L154.42 163.83C158.34 159.97 166.49 152.47 166.49 152.47L173.77 216.83Z" fill="#F3EB50"/>
<path d="M185.93 162.22L173.76 216.83L166.49 152.5L185.93 162.22Z" fill="#E7C053"/>
<path d="M112.45 70L88.66 84.31L80.36 89.31C80.36 89.31 72.77 85.45 72.16 84.78V84.69C72.41 84.52 68.79 77.27 66.53 72.81C66.75 72.62 70.87 68.22 70.95 68.11C74.63 70.89 82.05 76.28 82.32 76.46C82.59 76.64 100.15 66.46 105.19 64.3L112.45 70Z" fill="#827140"/>
<path d="M77.95 100.21L49.98 85.9L72.13 84.66L72.16 84.75L77.95 100.21Z" fill="#F3EB50"/>
<path d="M36.02 104.92L33.01 122.04L30.74 101.46L49.98 85.9L36.02 104.92Z" fill="#827140"/>
<path d="M37.92 143.52L14.69 152L14.47 133.38L19.26 121.27L33.01 122.04L37.92 143.52Z" fill="#F3EB50"/>
<path d="M37.6499 162.34C37.6524 162.373 37.6524 162.407 37.6499 162.44L18.9999 182.12L14.6899 152L37.6499 162.34Z" fill="#E7C053"/>
<path d="M19.6499 246.43L6.91992 243.96L11.3899 240.24L21.8299 242.38" fill="#CF975D"/>
<path d="M114.1 85.9L79.51 99.39L88.65 84.3L114.1 85.9Z" fill="#F3EB50"/>
<path d="M128.37 105.76L124.54 121C124.54 121 108.75 130.89 108.38 131.25C108.01 131.61 78.1099 125.25 78.1099 125.25L79.5099 99.38L114.1 85.9L128.37 105.76Z" fill="#F3EB50"/>
<path d="M166.49 152.5C165.36 152.5 145.25 154.5 142.64 153.76C142.541 153.667 142.421 153.598 142.29 153.56C141.77 152.43 145.06 126.25 145.06 126.25L151.42 120.25L166.49 152.5Z" fill="#F3EB50"/>
<path d="M171 238.1V242.62L165.7 244.38L171 238.1Z" fill="#9E6F5A"/>
<path d="M120.3 283.41L90 230.62L100 215.57L128.61 192.09C129.18 194.21 133.78 201.73 137.34 210.96C137.39 210.94 119.65 282.78 120.3 283.41Z" fill="#F3EB50"/>
<path d="M90 230.6C90 231.26 65.68 230.6 65.68 230.6L53 205L54.33 179.6C54.33 179.6 64.26 200.66 64.74 200.97C65.22 201.28 90.28 200.97 90.28 200.97L108.1 175.23C108.1 175.23 111.18 196.58 111.7 197.09C112.22 197.6 89.51 229.92 90 230.6Z" fill="#E7C053"/>
<path d="M97.9001 14.27L97.2801 24.43L91.4101 26.11L77.7701 31.6L65.3101 25.26L67.4001 13.84C67.4001 13.84 68.8801 24.73 69.2501 24.84C69.6201 24.95 77.91 29.49 78.11 29.37C78.31 29.25 90.7901 24 90.7901 24L93.4201 15L97.9001 14.27Z" fill="#C7915D"/>
<path d="M86.6 51L84.04 51.56L72.25 51.29C72.25 51.29 71.01 50.91 70.96 50.91L72.63 49.72C72.63 49.72 81.71 49.66 82.03 49.72C82.35 49.78 86.6 51 86.6 51Z" fill="#8F5729"/>
<path d="M82.8401 53.41C82.8401 53.41 80.6901 55.95 80.4401 55.87C80.1901 55.79 74.6501 55.87 74.6501 55.87L73.0801 53.41H82.8401Z" fill="#8F5729"/>
<path d="M96.5201 32.29C96.5201 32.29 94.2701 39.77 94.0601 39.84C93.8501 39.91 81.3801 40.42 81.0601 40.42L83.1501 33.61L93.6401 28.85L96.5201 32.29Z" fill="#FFFDFD" stroke="#231F20" stroke-linejoin="round"/>
<path d="M74.7499 40.42L67.6699 38.66L66.5399 38.39L64.8799 32.76L66.6799 29.2L74.2099 33.8L74.7499 40.42Z" fill="#FFFDFD" stroke="#231F20" stroke-linejoin="round"/>
<path d="M81.4399 43.75L94.6499 45L98.4099 52.84L95.1599 43.41L81.7499 43.64" fill="#6A3F26"/>
<path d="M107.71 13.75L94.7101 12.8L78.11 15.23L67.6901 12.52L66.55 9.27L67.9901 6.67999L89.3 9.12L101.4 4.47L107.71 13.75Z" fill="#22201F"/>
<path d="M75.5 27.51C76.2693 27.9709 77.0639 28.3883 77.88 28.76C77.6628 27.1158 77.3624 25.4837 76.98 23.87C76.583 23.5232 76.2212 23.138 75.9 22.72L75.5 27.51Z" fill="#A46A33"/>
<path d="M78.3999 28.74L79.8899 26.13V27.95L78.3999 28.74Z" fill="#A46A33"/>
<path d="M72.13 84.66L50 85.9C49.2031 83.3526 48.1997 80.8743 47 78.49L64.26 69L70.93 68C70.85 68.11 66.73 72.51 66.51 72.7C68.76 77.24 72.38 84.49 72.13 84.66Z" fill="#E7C053"/>
<path d="M51.05 76.26L30.74 79.97L51.59 80.33L51.05 76.26Z" fill="#827140"/>
<path d="M171.85 131.28L166.49 130.64L167.49 115.84C167.69 116.51 171.85 131.28 171.85 131.28Z" fill="#F4A54B"/>
<path d="M65.67 230.53L40.39 201.48L40.33 201.42L49.41 178.85C49.41 178.85 44.13 145.67 44.35 142.13L33 122L49.33 137.26L66.28 131.17L52 144.52L54.37 179.63L53 205L65.64 230.44C65.6407 230.472 65.6511 230.504 65.67 230.53Z" fill="#827140"/>
<path d="M96.37 157.19L98.58 184.01L95.3 188.81L95.03 188.85L88.88 197.55L76.77 198.48V132.64L100.06 143.52L96.37 157.19Z" fill="#F3EB50"/>
<path d="M101.39 4.47L102.39 9.27L79 13.84L66.51 9.27L67.95 6.67999C69.37 4.13999 71.33 0.609997 71.4 0.449997C71.4 0.799997 78.72 5.28 78.72 5.28L82.67 2.81L85.97 4.47H101.39Z" fill="#22201F"/>
<path d="M97.9 14.27C97.9 14.27 102.16 11.99 102.12 12.15C102.08 12.31 99.48 25.36 99.48 25.36L97.28 24.43L97.9 14.27Z" fill="#3E383E"/>
<path d="M108.26 31.15V38.66L105.18 42.17L108.26 31.15Z" fill="#AB8569"/>
<path d="M105.18 42.17L103.27 42.01L108.26 31.15L107.69 36.66L105.18 42.17Z" fill="#AB8569"/>
<path d="M79.8901 17.7C79.8901 17.51 69.55 10.04 69.55 10.04C69.55 10.04 71.2401 1.22 71.4301 1.48C71.6201 1.74 77.8801 9.08001 77.8801 9.08001L79.8901 17.7Z" fill="#3E383E"/>
<path d="M63.4299 43.14L73.9999 44.37C73.9999 44.37 76.7999 46.1 76.6299 45.93L74.1799 43.47L63.4299 43.14Z" fill="#6A3F26"/>
<path d="M129.18 75.82L114.1 85.9L88.6599 84.3L110.82 70.96L105.2 64.23L113.39 67.26L129.18 75.82Z" fill="#E7C053"/>
<path d="M129.4 135C129.22 135.42 116.59 145.34 116.59 145.34L115.7 151.67L129.4 135Z" fill="#827140"/>
<path d="M128.66 142.16C128.53 142.59 117.66 155.22 117.66 155.22L117.34 160.64L128.66 142.16Z" fill="#827140"/>
<path d="M126.93 165.52L126.09 167.94L126.61 166.34L126.93 165.52Z" fill="#A02889"/>
<path d="M75.2001 136.85C75.6201 137.95 74.3501 152.76 74.3501 152.76L60.3501 153.7L63.3501 139.7L75.2001 136.85Z" fill="#F3EB50"/>
<path d="M73.7301 164.74L73.3101 190.42L59.55 186.59L61.9301 167.08L73.7301 164.74Z" fill="#F3EB50"/>
<path d="M101.21 318.15L101.15 318.28C93.6999 293.28 90.2799 263.2 90.2799 263.2L86.0599 294.81C86.0599 294.81 80.0599 320.7 79.9899 321.26L73.6299 325.21L80.0299 304.61L88.4099 254.44L80.6799 252.2L77.1999 245.54L82.9699 249.63L90.2899 249.34C90.2899 249.34 94.5499 256.34 95.0199 257.2C95.4899 258.06 100.3 313.56 101.21 318.15Z" fill="#F4A54B"/>
<path d="M40.6201 458.67L50.9001 449.44C50.9001 449.44 60.1401 471.88 59.5801 471.3C59.0201 470.72 40.6201 458.67 40.6201 458.67Z" fill="#F4A54B"/>
<path d="M188.87 216.38V216.83H173.77L191.65 186.07V186.21V186.26C192.15 188.83 188.87 216.38 188.87 216.38Z" fill="#827140"/>
<path d="M74.3901 63.15C74.5201 63.01 76.3401 59.99 76.3401 59.99L82.6201 59.71L86.5101 63.15L79.0901 64.15L74.3901 63.15Z" fill="#C7915D"/>
<path d="M140.19 132.64L135.97 148.05L126.09 167.94L126.93 165.52L126.61 166.34L133.66 142.72L134.53 128.01L128.37 105.76L138.83 125.73L140.19 132.64Z" fill="#F4A54B"/>
<path d="M86.0599 381.7L82.8699 402.2L64.6299 358.75L86.0599 381.7Z" fill="#F4A54B"/>
<path d="M145.05 126.25C145.05 126.25 141.76 152.43 142.28 153.56C141.6 153.56 138.33 124.77 138.33 124.77L125.27 109L114.1 85.9L136 97.53V113.08L151.45 120.24L145.05 126.25Z" fill="#827140"/>
<path d="M73.73 154.73V163.12L61.71 163.86L66.64 155.78L73.73 154.73Z" fill="#F3EB50"/>
<path d="M103.89 147.09C103.89 147.09 100.13 155.87 100.58 156.32C101.03 156.77 105.85 170.63 105.85 170.63L107.46 156.32L103.89 147.09Z" fill="#827140"/>
<path d="M96.3599 157.19L76.7599 153.76L75.45 158.19L96.4999 158.88L98.3799 157.84L96.3599 157.19Z" fill="#E7C053"/>
<path d="M99.48 171.38C99.8 171.27 99.89 175.26 99.89 175.26L75.29 167.94V163.32C75.29 163.32 99.15 171.48 99.48 171.38Z" fill="#E7C053"/>
</svg>
