<svg width="169" height="516" viewBox="0 0 169 516" fill="none" xmlns="http://www.w3.org/2000/svg">
<path d="M126.63 98.6099L115.63 105.26L114.05 105.18L119.86 90.5699L112.58 51.6899L107.42 66.6899L104.81 68.6899V57.6999L101.35 43.1599L98.8 32.4799L97.48 26.9099L75.77 33.2299L59.67 25.8099L55.67 31.7499C55.67 31.7499 55.67 34.3799 55.67 37.3899C55.04 39.9199 53.39 46.6199 53.39 47.3299C53.39 48.2199 54.52 62.4999 54.89 63.2399C55.26 63.9799 50.28 73.9999 50.28 73.9999L55.91 70.1699L60.58 62.7899L62.2 72.8999L67.97 80.1999V100.37L55.66 104.67L54.98 104.44L43.89 100.67L40.57 62.6699L46.57 25.8199L61.57 5.16992L80.02 0.169922L103.51 7.16992L117.94 33.1699L120.87 54.3099L117.45 57.3699L125.52 86.1499L126.63 98.6099Z" fill="black"/>
<path d="M53.32 46.4902L46.67 60.7502L45.58 57.6102L43.67 65.4602L50.92 103.06C50.92 103.06 60.13 95.9502 60.77 95.0602C61.41 94.1702 59.12 70.3902 59.12 70.3902L56.46 54.6302L53.32 46.4902Z" fill="#404041"/>
<path d="M53 72.1498L54 80.2098L52.2 84.7198L50.9 103.06C50.9 103.06 62.13 110.21 62.43 110.11C62.73 110.01 70.43 106.9 70.59 106.49C70.75 106.08 74.59 95.7598 74.47 94.1498C74.35 92.5398 74.6 78.5798 74.03 78.2398C73.46 77.8998 67.25 71.8798 66.84 71.5798C66.43 71.2798 62.73 62.6598 62.73 62.6598L59.25 60.5498L53 72.1498Z" fill="#404041"/>
<path d="M95 79.9999L94.78 83.3799L78.66 100.69L78.95 122.13L68.95 126.95L45.07 117.61C45.07 117.61 44.75 114.61 45.07 114.18L54.97 104.49L55.65 104.72L67.96 100.42V80.1999L62.19 72.8999L60.57 62.7899V62.5299L58.66 57.9399L57.96 55.4399L60.79 58.6099C60.79 58.6099 73.61 62.6099 74.07 62.6099C74.53 62.6099 78.07 66.6099 78.07 66.6099V73.3499L70.61 71.9999L73.72 76.8499L78.03 78.2399V88.1899H83.16L95 79.9999Z" fill="#9F5A2A"/>
<path d="M75.75 33.2201L71.98 34.7501L71.63 39.3701L55.66 31.7501L59.65 25.8101L75.75 33.2201Z" fill="#F4831F"/>
<path d="M98.78 32.4801L83.61 39.3902L82.26 40.0002L81.64 35.4202L75.75 33.2202L97.45 26.9102L98.78 32.4801Z" fill="#F4831F"/>
<path d="M101.33 43.16L95 40C95 40 81.43 48.75 81 49.08C80.57 49.41 83.56 39.39 83.56 39.39L98.73 32.48L101.33 43.16Z" fill="#EE4023"/>
<path d="M101.33 43.1601L95 40.0001C95 40.0001 81.43 48.7501 81 49.0801C80.57 49.4101 83.56 39.3901 83.56 39.3901L82.21 40.0001L76.91 48.2701L77.7 54.1201L77.51 63.3101L82.21 62.3101L101.43 56.1301L104.74 57.7201L101.33 43.1601ZM78.33 61.0401L79.58 55.4401L82 61.0001L78.33 61.0401ZM101.33 50.4101L92.95 56.1101L82.26 51.5301C82.89 51.5301 95.83 42.6901 95.83 42.6901L101.33 47.2101V50.4101Z" fill="#EE4023"/>
<path d="M74.08 62.68C73.61 62.68 60.8 58.63 60.8 58.63L58 55.46C57.0754 52.3622 56.3143 49.2178 55.72 46.04C55.72 45.35 55.72 41.1 55.72 37.41C55.72 34.41 55.72 31.77 55.72 31.77L60.72 42.06L60.9 42.71L61.08 43.3L57.15 47.9L64.23 56.14L64.89 55.77L74.08 62.68Z" fill="#EE4023"/>
<path d="M149.2 194.2L149.45 207.27V207.38L148.32 208.38L139.85 215.62L139.76 215.69H139.7L139.63 215.76L142 188.38V188.12L139.7 184.95L135.14 178.66L121.49 151.46L120.36 149.2L119.83 148.15L121.33 142.7L123.15 136.11L123.21 135.89C123.88 135.54 138.67 129.21 140.5 128.43H140.58H140.67L134.77 142V142.07V142.13L131.77 148.92V149.02C131.79 149.085 131.813 149.148 131.84 149.21C131.854 149.258 131.87 149.305 131.89 149.35C131.96 149.56 132.07 149.88 132.22 150.29L132.34 150.63C132.39 150.76 132.43 150.89 132.48 151.04L134.61 157.04C134.78 157.53 134.96 158.04 135.15 158.55C135.34 159.06 135.44 159.35 135.59 159.77L136.02 160.97L136.32 161.8L137.24 164.34C137.4 164.79 137.56 165.24 137.73 165.69C137.82 165.92 137.9 166.15 137.98 166.37L140.14 172.26C140.34 172.78 140.53 173.26 140.72 173.8L141.09 174.8C141.2 175.08 141.3 175.35 141.4 175.62C143 179.85 144.4 183.46 145.29 185.33L145.49 185.75C145.611 186 145.744 186.244 145.89 186.48L145.98 186.61C145.98 186.61 146.05 186.68 146.08 186.68H146.13L146.32 186.6C146.489 186.591 146.658 186.626 146.81 186.7C147.563 187.037 148.269 187.47 148.91 187.99L149.5 188.44L150.09 188.91L150.68 189.4C150.87 189.55 151.05 189.71 151.23 189.87L151.75 190.32C151.788 190.345 151.822 190.375 151.85 190.41V190.41C152.69 191.15 153.28 191.7 153.28 191.7L149.2 194.2Z" fill="#DC9159"/>
<path d="M25.25 180.37L25.99 195.08C25.99 195.08 25.61 194.86 25.12 194.6L24.81 194.43C24.53 194.28 24.24 194.14 23.98 194.03L23.79 193.95C23.6851 193.897 23.5743 193.857 23.46 193.83C23.26 193.76 23.13 193.76 23.1 193.83C23.07 193.9 23 195.34 23 197C23 198.85 23 201 23 202L22.34 201.63L15.44 197.8C15.44 197.8 15.73 190.74 15.99 184.21C16.06 182.21 16.14 180.33 16.2 178.68L17.57 167L17.49 166.89C17.57 166.38 17.67 165.89 17.76 165.29C19.7 154.1 23.1 135.4 23.1 135.4L27.19 139.77L28.19 139.45L29.12 139.15L31.79 138.3C32.86 137.96 33.94 137.63 34.85 137.36L24.2 159.72L24.79 171.4V171.47L25.04 176.24L25.1 177.45L25.24 180.3L25.25 180.37Z" fill="#DC9159"/>
<path d="M161.8 196.81L151.89 205.3C151.79 205.38 151.69 205.47 151.59 205.54L149.45 207.38V207.27L149.2 194.2L153.31 191.67C153.31 191.67 152.72 191.12 151.88 190.38C151.69 190.2 151.48 190.02 151.26 189.84C151.04 189.66 150.9 189.52 150.71 189.37L150.12 188.88L149.53 188.41L148.94 187.96C148.299 187.44 147.593 187.007 146.84 186.67C146.767 186.633 146.69 186.606 146.61 186.59H146.43H146.34C146.304 186.589 146.269 186.595 146.236 186.609C146.203 186.623 146.174 186.644 146.15 186.67H146.1C146.062 186.655 146.027 186.631 146 186.6L145.87 186.41L145.7 186.12L145.64 186.01L145.48 185.7L145.28 185.28C145.03 184.73 144.72 184.02 144.37 183.19L144.09 182.5L143.91 182.05C143.82 181.85 143.74 181.64 143.66 181.43L143.36 180.67L142.86 179.41L142.27 177.88C142.077 177.387 141.887 176.887 141.7 176.38C140.52 173.26 139.22 169.76 137.97 166.32C137.89 166.1 137.81 165.87 137.72 165.64C137.55 165.19 137.39 164.74 137.23 164.29L136.31 161.75C136.06 161.06 135.81 160.38 135.58 159.75L135.14 158.54L134.44 156.54L134 155.31L133.59 154.17C133.47 153.8 133.34 153.45 133.22 153.12C133.1 152.79 133 152.51 132.9 152.22C132.63 151.44 132.39 150.79 132.21 150.22L132.09 149.88C132.09 149.78 132.02 149.69 131.99 149.6L131.88 149.28C131.861 149.235 131.844 149.188 131.83 149.14L131.77 148.98V148.88L134.72 142.11V142.05V141.98L140.54 128.58V128.5L140.59 128.39V128.46L140.72 128.39L141.09 129.83L151 156.75V156.83L151.82 159.1L160 181.69L161.57 194.58L161.8 196.81Z" fill="#F1B280"/>
<path d="M107.4 110.58C107.4 110.58 108.65 112.72 110.46 115.76L71.52 127.93L68.96 126.93L78.96 122.11L78.67 100.67L94.79 83.3599L94.33 99.6899L114 105.18L115.58 105.26L107.4 110.58Z" fill="#A6662F"/>
<path d="M37.82 166.57L37.7 167.3L34.06 189.3L32.88 207.35L24.88 202.91L23.1 201.91C23.1 200.91 23.1 198.8 23.1 196.91C23.1 195.31 23.1 193.91 23.16 193.8C23.22 193.69 23.32 193.73 23.52 193.8C23.6343 193.827 23.7451 193.867 23.85 193.92L24.04 194C24.17 194.05 24.31 194.12 24.45 194.19C24.59 194.26 24.95 194.44 25.18 194.57L25.52 194.75L25.82 194.92L25.96 195L26.05 195.05L25.31 180.34L25.17 177.5L25.11 176.29L25 174.21V173.92L24.88 171.59V171.45L24.29 159.77L34.92 137.41C35.6198 137.177 36.3348 136.994 37.06 136.86L35.53 138.98L31.53 151.03L30.86 152.26L37.86 166.59L37.82 166.57Z" fill="#F1B280"/>
<path d="M75.94 51.72L72.9 47.23L61.51 42.71H60.83L60.65 42.06L55.69 31.77L71.66 39.4L74.95 44.9L75.94 51.72Z" fill="#EE4023"/>
<path d="M82.26 40.0002L76.96 48.2702L74.93 44.8802L71.63 39.3702L71.98 34.7502L75.75 33.2202L81.64 35.4202L82.26 40.0002Z" fill="#F4831F"/>
<path d="M119.84 90.5699L114.02 105.19L94.34 99.6899L94.8 83.3599V83.3499L95.02 79.9699L99.77 73.4899L104.79 57.6999V68.6399L107.4 66.6499L112.56 51.6899L119.84 90.5699Z" fill="#404041"/>
<path d="M104.79 57.6999L99.77 73.4899L95.02 79.9699L83.15 88.1899H78.03V78.2399L81.99 77.6599L86.13 73.3899L90.26 68.6399L86.13 71.9999L78.03 73.3899V66.6499L82.26 62.2899L101.48 56.1099L104.79 57.6999Z" fill="#A6662F"/>
<path d="M90.26 68.6401L86.13 73.3901L82 77.6601L78.04 78.2401L73.72 76.8501L70.61 72.0001L76.36 74.9801L80.43 74.5501L86.13 72.0001L90.26 68.6401Z" fill="#A96739"/>
<path d="M86.13 72L80.43 74.55L76.36 74.98L70.61 72L78.04 73.39L86.13 72Z" fill="#9E5C28"/>
<path d="M81.99 61.0399H78.35L79.61 55.4399L81.99 61.0399Z" fill="#7C4B20"/>
<path d="M82.26 62.2902L78 66.6502C78 66.6502 74.48 62.6502 74 62.6502L64.75 55.7402C66.75 54.6002 72.93 51.2002 73.34 51.2002L61.43 42.6802L72.83 47.2002L75.83 51.6802L74.83 44.8702L76.83 48.2602L77.62 54.1102L77.43 63.3002L82.26 62.2902Z" fill="#EE4023"/>
<path d="M60.58 62.7901L55.91 70.1701L50.28 74.0001C50.28 74.0001 55.28 64.0001 54.89 63.2401C54.5 62.4801 53.39 48.2401 53.39 47.3301C53.39 46.6201 55.04 39.9201 55.67 37.3901C55.67 41.0701 55.67 45.3201 55.67 46.0201C56.2693 49.1969 57.0303 52.341 57.95 55.4401L58.65 57.9401L60.56 62.5301L60.58 62.7901Z" fill="#50493F"/>
<path d="M101.33 47.2099V50.4099L92.95 56.1099L82.26 51.5299C82.89 51.5299 95.83 42.6899 95.83 42.6899L101.33 47.2099Z" fill="white" stroke="#231F20" stroke-linejoin="round"/>
<path d="M73.39 51.2101C72.98 51.2101 66.83 54.6101 64.8 55.7501L64.14 56.1101L57.06 47.8801L60.16 42.8801L60.62 42.0601L73.39 51.2101Z" fill="white" stroke="#231F20" stroke-linejoin="round"/>
<path d="M79.26 219.51L79 238.88L69.31 243.28C69.31 243.28 69.31 228 69.31 227.28C69.31 227.28 69.2 227.28 69.09 227.28L68.94 227.36L68.75 227.47C66.41 228.82 57.7 235.67 57.7 235.67C57.7 235.67 57.6 235.58 57.41 235.44L56.52 219.44V215.71H56.73C57.82 216.98 59.97 219.44 60.34 219.44L79.26 219.51Z" fill="#EE4023"/>
<path d="M130.67 267.42L116.28 354.87L102.2 356.27L77 274C77 274 87.75 265.2 98.51 256.54C100.78 254.71 103.06 252.88 105.23 251.15C104.92 258.86 103.28 293.33 103.28 293.33C103.28 293.33 115.98 321.5 116.34 320.94C116.7 320.38 130.24 269 130.67 267.42Z" fill="#7C4B20"/>
<path d="M47.24 510.59L19.65 512.17C19.65 512.17 9.65001 513.37 8.85001 513.17C8.05001 512.97 0.0499878 511 0.0499878 511L0.820007 507.62L14.68 508.32H15.13L25.94 509L39.81 505.82L40.35 505.7H40.51C40.87 505.61 46.74 504.04 46.92 504.09C47.16 507.71 47.24 510.59 47.24 510.59Z" fill="#7C4B20"/>
<path d="M25.88 508.89L39.86 505.87L25.98 509.05L15.17 508.37L14.72 508.34H14.71L14.68 508.33L14.98 508.34L25.88 508.89Z" fill="#001750"/>
<path d="M47 504.08C46.82 504.03 40.95 505.6 40.59 505.69L40.54 505.56V505.42L40.22 504.5C40.13 504.25 40.03 503.97 39.91 503.66C39.79 503.35 39.68 503.01 39.54 502.66L39.38 502.24C39.33 502.08 39.27 501.91 39.2 501.74L38.44 499.74C38.36 499.52 38.28 499.31 38.19 499.09C37.9 498.33 37.6 497.54 37.29 496.75L36.79 495.41C36.36 494.31 35.94 493.22 35.55 492.2L35.12 491.12C34.72 490.12 34.36 489.12 34.05 488.39C34.0194 488.285 33.9826 488.181 33.94 488.08L33.79 487.7C33.73 487.54 33.67 487.39 33.63 487.27L33.49 486.92C33.38 486.62 33.31 486.46 33.31 486.46L33.44 485.68V486.68H45.92C46 486.66 46.86 497.87 47 504.08Z" fill="#EE4023"/>
<path d="M39.45 472.82H39.21V472.32L39.45 472.82Z" fill="#1C387F" stroke="#9BB8C8" stroke-miterlimit="10"/>
<path d="M40.43 505.74L39.89 505.86L26 509.05L15.19 508.37H14.74L6.23999 504.12L24.65 494.7L27.09 496.38L27.96 496.99L28.59 497.42L29.42 498C33.61 500.9 39.32 504.87 40.43 505.74Z" fill="#EE4023"/>
<path d="M14.71 508.34L0.820007 507.63L6.17001 504.08H6.17999L14.71 508.34Z" fill="#F8B517"/>
<path d="M136.44 501.49L119.24 495.69L118.69 486.3L118.75 486.65H131.07L136.44 501.49Z" fill="#EE4023"/>
<path d="M139.83 509.79L121.76 509.44C121.76 509.44 119.28 501.89 119.28 501.57V495.94V495.69L136.48 501.49L139.83 509.79Z" fill="#F8B517"/>
<path d="M141 512.6L130.86 516H121.86L117.62 510.57L119.26 501.89V501.57C119.26 501.89 121.74 509.44 121.74 509.44L139.81 509.79L141 512.6Z" fill="#7C4B20"/>
<path d="M40.63 505.69H40.47L29.47 497.9L28.64 497.32L28.01 496.89L27.14 496.28L24.7 494.6L33.4 486.38C33.4 486.38 33.47 486.54 33.58 486.84L33.72 487.19C33.72 487.31 33.82 487.46 33.88 487.62L34.03 488C34.0726 488.101 34.1094 488.204 34.14 488.31L39.47 502.18L39.63 502.6L40.63 505.3C40.63 505.3 40.63 505.51 40.68 505.55C40.73 505.59 40.62 505.65 40.63 505.69Z" fill="#F4831F"/>
<path d="M55 104.44L45.1 114.13L41.81 117.34C41.81 117.34 41.66 118.08 41.4 119.28C40.35 124.19 37.59 136.78 37.02 136.78C36.2914 136.918 35.5731 137.105 34.87 137.34C31.98 138.19 27.23 139.75 27.23 139.75L23.15 135.38L19.22 121.26L25.47 129.04L37.13 116.56L47.46 108.25L40 99.3301L43.93 100.67L55 104.44Z" fill="#7C4B20"/>
<path d="M20.66 255.07C20.66 255.07 14.01 259.15 13.9 259.64C13.79 260.13 4.99003 252.17 3.95003 251.22C3.64003 257.4 4.11 281.48 4.11 281.48L5.84001 282.92L16.84 279.13L25.41 269.79L20.66 255.07ZM5.84001 279.3L6.84001 262.87L9.58 276.35L5.84001 279.3Z" fill="#EE4023"/>
<path d="M17.7 199L15.57 218.76L13.57 203.71L11 199.1C10.9971 199.053 10.9971 199.006 11 198.96L15.47 197.76L17.7 199Z" fill="#F4831F"/>
<path d="M15.63 250.7L20.63 255.07C20.63 255.07 13.98 259.15 13.87 259.64C13.76 260.13 4.96004 252.17 3.92004 251.22C3.9051 250.745 3.95896 250.27 4.08001 249.81C4.66001 248.89 10.64 202.03 11.01 199.1L13.53 203.67L15.53 218.72L13.86 234.26L21 244.44L10.25 246.75L6.82003 250.7H15.63Z" fill="#F8B517"/>
<path d="M33.93 209.74L20.99 244.44L13.9 234.26L17.7 198.96L32.88 207.38L33.93 209.74Z" fill="#7C4B20"/>
<path d="M20.13 253.46L20.66 255.07L15.63 250.7H6.81L10.24 246.75L20.99 244.44L20.13 253.46Z" fill="#7C4B20"/>
<path d="M27.9 289.01H13.14L5.83997 282.92L16.86 279.13L25.43 269.79L27.61 276.46L27.9 289.01Z" fill="#F8B517"/>
<path d="M107.16 173.45C107.16 173.45 101.82 190.77 101.78 190.77C101.805 190.862 101.825 190.955 101.84 191.05C100.47 189.05 97.84 185.17 97.45 185.17C97.06 185.17 91.27 182.73 88.64 181.72C88.6353 181.683 88.6353 181.646 88.64 181.61C89.09 179.52 89.38 178.1 89.38 178.1L91.97 179.2L96.53 167.55L103.16 158.27L108.03 153.55L116.24 145.55L119.8 148.12L107.16 173.45Z" fill="#EE4023"/>
<path d="M108.05 153.55L103.18 158.27L96.55 167.55L92 179.2L89.41 178.1L70.67 170.1L56.54 177.49L54.99 178.3L46.22 165L40.88 161.21L52.13 164.1L63.39 146.66L70.17 161.34L75.32 149.08C75.32 149.08 89.52 162.51 89.87 162.35C90.22 162.19 107.52 153.81 108.05 153.55Z" fill="#7C4B20"/>
<path d="M89.4 178.1C89.4 178.1 89.11 179.52 88.66 181.61C88.6553 181.647 88.6553 181.684 88.66 181.72C87.36 187.72 84.76 199.13 83.74 198.96C82.37 198.72 69.36 193.25 69.36 193.25L57.92 199L56.53 177.57L70.66 170.18L89.4 178.1Z" fill="#F8B517"/>
<path d="M116.28 145.58L108.07 153.58C107.54 153.84 90.26 162.26 89.9 162.42C89.54 162.58 75.33 149.15 75.33 149.15L89.74 139.81C89.74 139.81 102.37 135.44 103 135.92C103.41 136.23 111.47 142.09 116.28 145.58Z" fill="#F8B517"/>
<path d="M48.54 253.53L37.54 241.77L44.61 225.6C45.04 225.9 45.61 226.35 46.36 226.89L48.54 253.53Z" fill="#F8B517"/>
<path d="M57.71 235.71C57.71 235.71 50.33 229.89 46.35 226.89C45.64 226.35 45.03 225.89 44.6 225.6L50.8 211.42L56.53 219.51L57.71 235.71Z" fill="#7C4B20"/>
<path d="M69.34 243.28L57.71 235.71C59.57 234.21 67.15 228.4 68.95 227.4L69.1 227.32C69.21 227.32 69.28 227.26 69.32 227.32C69.36 227.38 69.32 227.32 69.32 227.32C69.38 228 69.34 243.28 69.34 243.28Z" fill="#F8B517"/>
<path d="M110.33 225.13L106.39 226.48L83.73 234.26V219.51L105.32 209.74L110.33 225.13Z" fill="#7C4B20"/>
<path d="M116.28 354.87C116.28 354.87 111.28 375.47 111.05 376.35C110.82 377.23 102.2 356.27 102.2 356.27L116.28 354.87Z" fill="#F8B517"/>
<path d="M78.34 305.65C78.6 304.28 63.87 357.07 63.87 357.07L57.54 363.07C57.54 363.07 61.33 353.96 61.54 353.17C61.75 352.38 75.88 301.46 75.88 301.46C75.88 301.46 66.51 298.02 68.18 298.27C70.7648 298.409 73.3552 298.409 75.94 298.27L81.01 296.74L93.38 361.06C93 359.48 78.08 307 78.34 305.65Z" fill="#F8B517"/>
<path d="M124.33 353.77L130.68 267.38L116.29 354.83C116.29 354.83 111.29 375.43 111.06 376.31C110.83 377.19 102.21 356.23 102.21 356.23L77 274C77 274 87.75 265.2 98.51 256.54L106.35 226.54L83.69 234.32V236.81L79 238.88L69.31 243.28L57.85 235.82L57.39 235.48C55.97 234.36 49.83 229.48 46.32 226.89L48.51 253.53L50.51 255.66L69.32 275.73L53.1 361.14L40.16 353.14L32 283.24L30.59 330.9L34.48 350.11L30.29 376.61L34.48 386.06L33.55 472.82H39.27V415.61C39.27 414.46 57.39 375.03 57.39 375.03L65.77 393.9L46.68 472.82H50.45L71.82 391L57.54 363.07C57.54 363.07 61.33 353.96 61.54 353.17C61.75 352.38 75.89 301.46 75.89 301.46C75.89 301.46 66.52 298.02 68.18 298.27C70.7648 298.409 73.3552 298.409 75.94 298.27L81.01 296.74L93.38 361.06V386.24C93.38 386.24 116.61 477.72 117.67 478.55C117.823 478.641 117.993 478.699 118.17 478.72C120.256 478.943 122.356 478.997 124.45 478.88H125.34L116.39 418.8C116.39 418.8 127.22 382.8 127.22 382.11C127.22 381.42 132.46 385.53 132.46 385.53L130.63 478.65L132.01 478.58L132.23 476.88C132.61 464.1 135 384.26 135.97 384.01C136.94 383.76 124.33 353.77 124.33 353.77ZM34.38 371.69L37.9 354.87C38.9 355.3 48.67 365.62 48.67 365.62L34.38 371.69Z" fill="#F4831F"/>
<path d="M120 239.85C118.9 240.37 112.66 245.23 105.27 251.13C103.1 252.86 100.82 254.69 98.55 256.52L106.39 226.52L110.33 225.17L119.6 238.86L120 239.85Z" fill="#F8B517"/>
<path d="M130.68 267.38C130.25 268.99 116.74 320.32 116.39 320.88C116.04 321.44 103.33 293.27 103.33 293.27C103.33 293.27 104.97 258.8 105.28 251.09C112.67 245.19 118.91 240.33 120.01 239.81L130.68 267.38Z" fill="#EE4023"/>
<path d="M167.52 204.17C167.33 204.39 160.12 212.49 153.74 219.51V249.75L150.13 256.48L144.66 249.33L132.77 263.62L133.19 271.13H139.64V282.92L150.72 285.68L161.81 279C161.81 279 161.55 246.84 161.81 245.74C162 244.91 165.78 217.12 167.52 204.17ZM150.72 281L152.53 273.94V261.86L155.89 276.35L150.72 281Z" fill="#F8B517"/>
<path d="M161.81 279.02L158.91 286.44L143.07 293.31L134.36 291.67L133.19 271.13H139.64V282.92L150.72 285.69L161.81 279.02Z" fill="#EE4023"/>
<path d="M153.74 219.51V249.75L150.13 256.48L144.66 249.33L137.52 216.61C137.52 216.61 143.84 229.07 144.05 229.7C144.14 230 148.68 225.09 153.74 219.51Z" fill="#7C4B20"/>
<path d="M168.41 197.64C168.41 197.64 168.06 200.21 167.53 204.16C167.34 204.38 160.13 212.48 153.75 219.5C148.69 225.08 144.15 229.97 144.06 229.69C143.85 229.06 137.53 216.6 137.53 216.6L139.65 215.77L149.47 207.37L161.82 196.8C161.82 196.8 164.99 194.33 165.82 193.51C166.65 192.69 168.41 197.64 168.41 197.64Z" fill="#EE4023"/>
<path d="M132.52 385.55L130.69 478.67C129.38 478.74 127.41 478.84 125.4 478.9L116.45 418.82C116.45 418.82 127.28 382.82 127.28 382.13C127.28 381.44 132.52 385.55 132.52 385.55Z" fill="#F8B517"/>
<path d="M112.56 119.28L78.74 130.45L69.3 144L60.22 129.11L41.36 119.37C41.62 118.18 41.77 117.44 41.77 117.44L45.06 114.23C44.75 114.68 45.06 117.65 45.06 117.65L69 127L71.56 128L110.5 115.84L112.56 119.28Z" fill="#F4831F"/>
<path d="M83.73 219.51V234.26V236.75L79 238.88L79.23 219.51H60.35C59.98 219.51 57.83 217.05 56.74 215.78L83.74 214.62V219.51H83.73Z" fill="#F8B517"/>
<path d="M52.14 294.77C52.14 294.77 41.7 320.17 41.53 319.31C41.36 318.45 32.62 285.56 31.95 283.07V282.17L36.84 243.29L37.5 241.78L48.5 253.54L50.5 255.67L52.14 294.77Z" fill="#EE4023"/>
<path d="M69.34 275.73L53.1 361.14L40.16 353.14L32 283.24V283.07C32.67 285.56 41.41 318.47 41.58 319.31C41.75 320.15 52.19 294.77 52.19 294.77L50.58 255.66L69.34 275.73Z" fill="#7C4B20"/>
<path d="M48.67 365.62L34.38 371.69L37.9 354.87C38.93 355.3 48.67 365.62 48.67 365.62Z" fill="#F8B517"/>
<path d="M155.89 276.35L150.72 281.04L152.53 273.98V261.86L155.89 276.35Z" fill="#7C4B20"/>
<path d="M9.54996 276.35L5.83997 279.3L6.80997 262.87L9.54996 276.35Z" fill="#7C4B20"/>
<path d="M65.72 393.9L46.63 472.82H39.45L39.21 472.32V415.61C39.21 414.46 57.33 375.03 57.33 375.03L65.72 393.9Z" fill="#F8B517"/>
<path d="M50.41 472.82L45.9 486.65H33.41L33.42 485.66L33.51 472.82H50.41Z" fill="#7C4B20"/>
<path d="M132.08 478.6L131.08 486.66H118.75L118.68 486.3L118.24 478.76C120.322 478.983 122.419 479.037 124.51 478.92C126.82 478.92 129.19 478.75 130.68 478.67L132.08 478.6Z" fill="#7C4B20"/>
<path d="M147.68 108.5L107.31 110.61L115.53 105.29L126.54 98.6301L128.73 97.3101L147.68 108.5Z" fill="#F8B517"/>
<path d="M147.68 108.5L140.89 128.25V128.38L125.35 128.57L125.16 128.38L107.4 110.65L147.68 108.5Z" fill="#EE4023"/>
<path d="M43.67 108.28L27.32 106.24L39.96 99.3301L43.67 108.28Z" fill="#F8B517"/>
<path d="M47.42 108.28L37.08 116.59L25.43 129.07L19.18 121.29L27.32 106.24L43.67 108.28L39.96 99.3301L47.42 108.28Z" fill="#EE4023"/>
<path d="M81.64 35.4202L97.45 26.9102L75.75 33.2202L81.64 35.4202Z" fill="#F4831F"/>
<path d="M79.25 65.3899L101.48 56.1099L104.43 59.0699L104.79 57.6999L101.48 56.1099L82.26 62.2899L79.25 65.3899Z" fill="#A6662F"/>
<path d="M76.96 65.4599L60.77 58.6099L74.05 62.6599L76.96 65.4599Z" fill="#9B5023"/>
<path d="M95.02 79.9702L85.07 88.8102L83.14 89.7502L79.33 88.8702L77.83 88.4002L83.15 88.1902L95.02 79.9702Z" fill="#9B5023"/>
<path d="M67.97 81.35L77.83 88.3999L67.97 80.21V81.35Z" fill="#9B5023"/>
<path d="M68 80.2002C68 80.3702 78.06 88.2002 78.06 88.2002H83.19L83.02 88.8902L77.86 88.4102C77.86 88.4102 69.58 82.2302 69.53 82.2502C69.48 82.2702 68 80.2002 68 80.2002Z" fill="#9B5023"/>
<path d="M75.75 33.23C75.75 33.23 70.68 24.66 70.61 23.9C70.54 23.14 80.17 5.75 80.17 5.75C80.17 5.75 75.17 21.44 75.39 21.63C75.61 21.82 81.01 31.16 81.01 31.16L75.75 33.23Z" fill="#282A2A"/>
<path d="M103.57 7.18984C102.94 6.99984 95.02 10.6198 95.02 10.6198C95.02 10.6198 88.6 27.1398 88.88 26.9098C89.16 26.6798 96.22 12.1398 96.22 12.1398L103.57 7.18984Z" fill="#282A2A"/>
<path d="M46.61 25.8102L62.71 17.0502L71.63 19.4902L61.63 5.16016L46.61 25.8102Z" fill="#282A2A"/>
<path d="M98.55 369.13C99.07 370.04 113.46 408 113.46 408L97.24 386.88L98.55 369.13Z" fill="#7C4B20"/>
<path d="M48.67 371.69L35.95 376.38L39.21 415.61L57.33 375.03L48.67 371.69Z" fill="#7C4B20"/>
<path d="M57.88 235.82L52.47 257.72L69.34 275.73L67.18 287.05L74.47 289.01L81.12 287.31L77.04 273.98L93.43 260.65L102.2 227.27L83.73 234.26L83.72 236.75L69.34 243.28L57.88 235.82Z" fill="#F4831F"/>
<path d="M132.16 150.27L130.64 149.75L131.16 148.75L134.69 142.12V142.06V141.99L141.14 129.85L151 156.75V156.83C147.25 155.5 136.22 151.67 132.16 150.27Z" fill="#F8B517"/>
<path d="M161.53 194.58L151.88 190.38L145.05 187.38L145.13 187.05L145.46 185.68L145.55 185.28L151.83 159.09L160 181.69L161.53 194.58Z" fill="#EE4023"/>
<path d="M145.16 188.22C145.8 191.95 148.35 206.91 148.38 208.12C148.375 208.2 148.355 208.278 148.32 208.35C147.71 209.72 142.32 213.75 139.85 215.59L139.76 215.66H139.7H139.63L142 188.38V188.12L139.7 184.95L135.14 178.66L121.49 151.46L121.43 151.34C124.3 150.54 130.48 148.84 131.15 148.75C131.346 148.783 131.54 148.829 131.73 148.89C131.73 148.89 146.91 155.04 150.93 156.75V156.83L151.75 159.1L145.47 185.29L145.38 185.69L145.05 187.06L144.97 187.39L145.16 188.22Z" fill="#F4831F"/>
<path d="M161.8 196.81L151.89 205.3C151.79 205.38 151.69 205.47 151.59 205.54L149.45 207.27L148.38 208.12L145.16 188.22L145.02 187.39L151.85 190.39L161.5 194.59L161.8 196.81Z" fill="#EE4023"/>
<path d="M150.3 184.85L146.3 186.55L146.11 186.63H146.06L145.11 187.03L142 188.38V188.12L139.7 184.95C141.97 185.11 144.39 185.23 145.22 185.27H145.51L150.3 184.85Z" fill="#7C4B20"/>
<path d="M141.22 129.82L134.77 142V142.07V142.13L131.24 148.76L121.58 151.47L119.92 148.16L121.42 142.71L123.21 135.92H123.27L123.43 135.84L123.83 135.67L124.12 135.54L124.54 135.36L124.75 135.27L125.12 135.11L125.68 134.87L126.02 134.72L128.02 133.87L135.91 130.47L137.21 129.91L140.26 128.6L140.59 128.46H140.67H140.72L140.92 128.35V128.48L141.22 129.82Z" fill="#F4831F"/>
<path d="M37.15 136.58L35.49 139.28L32.44 150.94L31.77 152.17C31.77 152.17 38.45 165.91 37.77 166.63C37.09 167.35 25.68 177 25.68 177L21.55 150.91L27.19 139.75L37.15 136.58Z" fill="#F4831F"/>
<path d="M25.67 177L25.09 177.43L16.09 184.13C16.16 182.13 16.24 180.25 16.3 178.6L17.57 167L17.76 165.29C19.7 154.1 23.1 135.4 23.1 135.4L27.19 139.77L21.55 150.94L24.79 171.4V171.47L25.67 176.99V177Z" fill="#EE4023"/>
<path d="M37.77 166.63L37.7 167.3L34.06 189.3L32.88 207.35L24.88 202.91L23.1 201.91L22.44 201.54C22.44 201.54 22.49 201.2 22.56 200.61C22.56 200.41 22.62 200.18 22.65 199.93C22.68 199.68 22.71 199.51 22.74 199.27C22.83 198.61 22.93 197.82 23.05 196.95C23.05 196.77 23.05 196.58 23.13 196.38C23.21 196.18 23.22 195.73 23.26 195.38C23.2552 195.297 23.2552 195.213 23.26 195.13L23.43 193.83C23.5 193.29 23.57 192.73 23.65 192.15L23.8 191.02C24.02 189.31 24.26 187.56 24.48 185.89C24.53 185.55 24.57 185.21 24.62 184.89C24.67 184.57 24.67 184.44 24.71 184.22C24.77 183.7 24.84 183.22 24.9 182.73C24.96 182.24 24.99 182.08 25.03 181.73C25.07 181.38 25.11 181.12 25.15 180.83V180.57V180.34L25.24 179.63L25.33 178.93C25.33 178.71 25.38 178.51 25.41 178.32L25.48 177.82L25.59 177L25.72 176.89L26.07 176.59C28.16 174.76 36.41 167.59 37.57 166.69H37.62L37.77 166.63Z" fill="#EE4023"/>
<path d="M25.69 177L25.58 177.82C25.58 177.97 25.53 178.13 25.51 178.32C25.49 178.51 25.46 178.71 25.43 178.93C25.4 179.15 25.37 179.38 25.34 179.63C25.31 179.88 25.28 180.06 25.24 180.29V180.54V180.8C25.2 181.087 25.16 181.387 25.12 181.7C25.12 182.01 25.03 182.33 24.99 182.7C24.95 183.07 24.86 183.7 24.8 184.19C24.8 184.41 24.73 184.64 24.71 184.86C24.69 185.08 24.62 185.53 24.57 185.86C24.35 187.53 24.11 189.28 23.89 190.99L23.74 192.12C23.66 192.7 23.59 193.26 23.52 193.8L23.35 195.1C23.3452 195.183 23.3452 195.267 23.35 195.35C23.35 195.69 23.26 196.02 23.22 196.35C23.18 196.68 23.17 196.75 23.14 196.93C23.02 197.8 22.92 198.59 22.83 199.25C22.83 199.49 22.8 199.71 22.74 199.91C22.74 200.16 22.68 200.39 22.65 200.59C22.58 201.18 22.53 201.52 22.53 201.52L15.63 197.69C15.63 197.69 15.92 190.63 16.18 184.1C16.25 182.1 16.33 180.22 16.39 178.57L17.57 167C18.64 168.53 23.31 174.15 25.04 176.23L25.67 176.97L25.69 177Z" fill="#F8B517"/>
<path d="M140.85 128.38C140.85 128.38 140.85 128.38 140.73 128.44H140.63L140.46 128.52C138.76 129.23 132.46 131.88 127.95 133.79L125.95 134.64L125.61 134.79L125.05 135.03L124.68 135.19L124.47 135.28L124.05 135.46L123.76 135.59L123.36 135.76L123.2 135.84C122.65 135.84 116.96 126.53 112.56 119.2L110.46 115.71C108.81 112.93 107.62 110.9 107.46 110.58L125.25 128.36L140.85 128.38Z" fill="#7C4B20"/>
<path d="M63.39 146.7L52.13 164.14L40.88 161.25L38.8 159.79L31.46 150.99L35.45 138.94L38.75 135.46L52.87 136.08L63.39 146.7Z" fill="#F8B517"/>
<path d="M105.32 209.74L83.73 219.51V214.62L56.54 215.78V219.51L50.81 211.42L48.09 176.72L39.66 170.3L37.84 166.59L30.84 152.24L31.51 151.01L38.85 159.81L40.93 161.27L46.27 165.06L55.03 178.36L56.58 177.55L57.92 199L69.34 193.29C69.34 193.29 82.34 198.76 83.72 199C84.72 199.17 87.34 187.78 88.64 181.76C91.27 182.76 97.02 185.21 97.45 185.21C97.88 185.21 100.45 189.06 101.84 191.09C102.29 193.36 105.32 209.74 105.32 209.74Z" fill="#EE4023"/>
<path d="M123.22 135.89L119.84 148.15L116.28 145.58C111.47 142.09 103.41 136.23 102.98 135.89C102.35 135.41 89.72 139.78 89.72 139.78L75.31 149.12L70.17 161.38L63.39 146.7L52.87 136.08L38.75 135.46L35.45 138.93L36.98 136.81C37.55 136.81 40.31 124.22 41.36 119.31L60.22 129.06L69.3 144L78.74 130.46L112.56 119.28C117 126.67 122.78 136.12 123.22 135.89Z" fill="#EE4023"/>
<path d="M110.44 157.47C110.32 157.91 99.8 170.83 99.8 170.83L99.63 175.77" fill="#F8B517"/>
</svg>
