<svg width="168" height="480" viewBox="0 0 168 480" fill="none" xmlns="http://www.w3.org/2000/svg">
<path d="M91.35 43.15H91.3H90.18L86.18 43.22H85.58L81.01 43.3H79.68H78.38H78.28L78.1 43.36L77.66 43.55L77.1 43.79L74.76 44.85L74.41 45.01L73.95 45.23L73.71 45.34L73.36 45.5L71 43.18L64.09 42.94H63.46C63.58 43.48 65.29 49.25 65.29 49.25L67.86 55.74L72.16 62.46H83L90.71 53.35L90.78 53.28L91.55 52.38L91.6 52.32V52.13L91.35 43.15ZM80.23 49.29C80.54 49.36 84.66 50.54 84.66 50.54L69.49 50.46L71.11 49.29C71.11 49.29 79.92 49.23 80.23 49.29V49.29ZM71.55 52.93H81C81 52.93 78.91 55.42 78.67 55.34C78.43 55.26 73.05 55.34 73.05 55.34L71.55 52.93Z" fill="#E4B17B"/>
<path d="M68.3201 0.97998L74.7801 2.77998L82.4601 0.97998L97.4001 4.91998L84.1901 8.20999L72.1301 7.53998L68.3201 0.97998Z" fill="#3E383E"/>
<path d="M164.21 219.53V219.96L154.52 218.9L165.65 168.18C165.65 168.18 167.05 189.85 167.42 190.54V190.69C167.56 193.29 164.21 219.53 164.21 219.53Z" fill="#3C6A4C"/>
<path d="M159.93 219.5L154.94 246.13L151.45 232.15L145.91 229.58L146.1 229.15L154.47 218.9L159.93 219.5Z" fill="#E4B37C"/>
<path d="M154.94 246.13L144.63 248.39L142.77 244.79L148.06 243.64L148.55 239.23L142.77 244.79L140.84 241.07L145.91 229.58L151.45 232.15L154.94 246.13Z" fill="#D1925E"/>
<path d="M167.22 246.39L162.19 250.33L144.63 248.39L154.94 246.13L167.22 246.39Z" fill="#9E6F5A"/>
<path d="M164.16 219.96L167.22 246.39L154.94 246.13L159.93 219.5L164.16 219.96Z" fill="#D1925E"/>
<path d="M141.31 81.03L129.84 98.51L109.73 84.79L124.36 76.47L124.58 76.57L141.31 81.03Z" fill="#5ECC6B"/>
<path d="M98.3499 65.87C93.3499 68.04 80.4299 75.01 79.0199 75.45C78.9499 75.45 78.9099 75.45 78.8999 75.45C78.6399 75.27 72.4199 70.16 68.8999 67.45L77.9999 71L97.0999 60.9V65.03L98.3499 65.87Z" fill="#D0A17F"/>
<path d="M97.1701 54.88V60.88L78.0001 71L68.8201 67.47L69.8901 61.94L71.7001 64.13H83.0001L97.1701 54.88Z" fill="#BB865E"/>
<path d="M97.93 45.38L98.48 44.79L97.93 45.38L97.17 54.88L83 64.1L91.59 52.1C94.1752 48.5063 96.3898 44.66 98.2 40.62C98.36 40.24 97.93 45.2 97.93 45.38Z" fill="#966C54"/>
<path d="M91.54 52.17L83 64.1H71.7L69.89 61.91L67.61 56.01L65.26 49.43L62.72 42.85L64.02 42.92L65.86 49.27L68.44 55.76L72.12 62.48H83L91.54 52.17Z" fill="#C7915D"/>
<path d="M102.92 28.86L105.06 38.81L97.9299 45.38C97.9299 45.2 98.3599 40.24 98.2099 40.59C99.6944 36.8246 100.68 32.8811 101.14 28.86H102.92Z" fill="#D0A17F"/>
<path d="M102.53 14L101.36 28.74L92.4099 24.48L93.0099 14.48L88.6699 15.19L76.9999 18.69L64.3699 14.11L63.1299 25.31L63.5399 9.63002C63.5399 9.63002 74.4699 12.03 74.7199 12.03C74.9699 12.03 91.7999 10.45 92.1699 10.33C92.5399 10.21 97.4999 8.24002 97.7799 7.96002L102.53 14Z" fill="#22201F"/>
<path d="M88.6699 15.24L86.1099 24.05C86.1099 24.05 74.9799 29.22 74.7999 29.35C74.6199 29.48 66.5799 25.03 66.2099 24.91C65.8399 24.79 64.4099 14.11 64.4099 14.11L76.5399 18.51L88.6699 15.24Z" fill="#E4B17B"/>
<path d="M101.37 28.86L97.5701 30.88L92.6401 32.37L89.8801 29L87.5701 26.19L92.4101 24.5L101.36 28.76H101.34L101.37 28.86Z" fill="#5ECC6B"/>
<path d="M97.89 30.7C97.89 30.7 93.2 39.58 91.79 42.34L91.54 42.81L91.38 43.1L78.38 43.32C78.09 43.32 73.38 45.54 73.38 45.54L71 43.18L64.46 42.92L62.77 42.85L64.72 38.46L71.59 40.18L72.96 33.37L63.76 29.18L62.94 25.67L63.21 25.31L74.52 31.53L87.75 26.15L89.95 28.84L76.58 33.73L77.74 40.18C78.02 40.18 90.13 39.69 90.33 39.62C90.53 39.55 92.71 32.21 92.71 32.21L97.89 30.7Z" fill="#26342D"/>
<path d="M72.92 33.37L71.55 40.18L71.02 33.69L63.72 29.18L72.92 33.37Z" fill="#5ECC6B"/>
<path d="M64.68 38.46L62.73 42.85L60.47 33.92V28.86L62.9 25.67L63.72 29.18L61.97 32.67L63.58 38.19L64.68 38.46Z" fill="#5ECC6B"/>
<path d="M89.91 28.84L79.73 33.5L77.7 40.18L76.54 33.73L89.91 28.84Z" fill="#5ECC6B"/>
<path d="M101.37 28.86C101.13 29.21 100.85 34.86 98.4501 40.57L98.3401 40.83C96.1901 45.89 92.2201 50.91 91.6701 52.06C91.6701 52.06 91.6201 52.21 91.6001 52.25C91.5815 52.2863 91.5539 52.3173 91.5201 52.34L91.3 43.13V43.08C91.3 43.03 91.3901 42.93 91.4601 42.79L91.7101 42.32C93.1901 39.57 97.8101 30.68 97.8101 30.68L101 29L101.29 28.9L101.37 28.86Z" fill="#3C6A4C"/>
<path d="M123.58 104.27L117.44 118.48C117.44 118.48 102.89 126.98 102.54 127.34C102.19 127.7 75.11 121.92 75.11 121.92L76.9 99L85 83.22L77 88.11C77 88.11 69.63 84.32 69 83.67L74.48 100.06L70.79 122.4L47.53 128.7L34.77 119.89L46.86 135.21L63.31 129.21L49.4 142.26L53.62 178.62C53.62 178.62 61.34 197.36 61.8 197.62C62.26 197.88 86.59 197.62 86.59 197.62L103.88 172.37L114.2 166.81C114.2 166.69 114.2 166.63 114.2 166.63L114.48 165.87V165.82L126.84 125.37L123.58 104.27ZM92.52 154.72L92.66 156.37L94.66 181.02L91.48 185.73H91.21L73.49 187.85V130.64L96.09 141.31L92.52 154.72ZM80.1 129.29C80.1 129.29 104.72 133.85 105.39 133.68C106.06 133.51 125.86 117.77 126.48 117.28L107.4 141.28L80.1 129.29Z" fill="#26342D"/>
<path d="M126.48 117.28L107.4 141.28L80.1001 129.28C80.1001 129.28 104.72 133.84 105.39 133.67C106.06 133.5 125.86 117.77 126.48 117.28Z" fill="#3C6A4C"/>
<path d="M74.51 100.06L70.82 122.4L47.56 128.69L34.8 119.89L33.96 103.45L49.07 84.79L74.51 100.06Z" fill="#5ECC6B"/>
<path d="M49.07 84.79L31.13 100.06L26.72 94.79L33.43 79.64L45.03 78.77L45.56 78.53C46.8 80.47 49.07 84.79 49.07 84.79Z" fill="#5ECC6B"/>
<path d="M25.4299 119.42L25.4799 119.28L26.7199 94.79L31.1299 100.06L34.7999 119.89L25.4299 119.42Z" fill="#26342D"/>
<path d="M52.8899 201.65L65.2099 226.71L64.0699 224.92L63.5999 224.18L63.3399 223.78L62.7799 222.89L62.1599 221.89L61.8299 221.37L60.7799 219.72L59.6499 218L58.8599 216.75L58.0499 215.48L57.6399 214.83L56.8399 213.57L55.4999 211.47L54.7199 210.23L53.8999 208.93C50.2399 203.15 47.0999 198.12 47.0399 197.87L50.4399 177.26C50.4399 177.26 44.2499 139.06 44.4399 135.59C43.5399 138.02 34.7999 158.12 34.0799 159.54L18.6299 151.72L32.7299 139.35L34.7799 119.93L46.8699 135.25L63.3199 129.25L49.4099 142.3L53.6299 178.66L52.8899 201.65Z" fill="#3C6A4C"/>
<path d="M18.64 151.68L17.44 179.17L7.04001 213.61L1.01001 210.17L12.24 163.87L18.64 151.68Z" fill="#5ECC6B"/>
<path d="M34.05 159.6L32.36 173.3L12.78 213.87L7.04004 213.61L17.44 179.17L34.05 159.6Z" fill="#3C6A4C"/>
<path d="M11.7801 229.07L3.83008 242.12L0.580078 228.25L1.0101 210.17L7.0401 213.61L11.7801 229.07Z" fill="#D2935C"/>
<path d="M19.43 225.77L11.78 229.07L7.04004 213.61L12.78 213.87L19.31 225.42L19.43 225.77Z" fill="#E5B47E"/>
<path d="M22.79 235.66L20.19 238.28L11.78 229.07L19.43 225.77L22.79 235.66Z" fill="#CF975D"/>
<path d="M20.1901 238.28L18.0801 242.25L17.3501 243.62L3.8501 242.2L3.83008 242.12L11.7801 229.07L20.1901 238.28Z" fill="#9D6D5F"/>
<path d="M118.81 191.29L96.1 212L86.37 226.77C85.87 226.1 107.9 194.43 107.37 193.93C106.84 193.43 103.88 172.48 103.88 172.48L114.2 166.92C114.43 169.04 118.66 189.98 118.66 190.81C118.7 190.973 118.75 191.133 118.81 191.29V191.29Z" fill="#3C6A4C"/>
<path d="M65.2099 226.73L55.5899 282.43L40.4199 265.53L46.9999 197.84C47.1399 198.43 64.6099 225.84 65.1599 226.71L65.2099 226.73Z" fill="#26342D"/>
<path d="M131.48 248.23L134.82 304.75C134.82 304.75 125.69 315.82 122.25 320.75C124.75 315.17 129.94 301.2 129.94 300.94C129.94 300.68 117.16 283.94 115.76 280.46C115.85 280.05 115.85 279.83 115.76 279.85C115.67 279.87 115.64 280.09 115.76 280.46C114.76 284.6 103.7 308.61 102.76 310.55L102.7 310.68C95.4701 286.15 85.7501 253.36 85.7501 253.36L80.4901 289.76C80.4901 289.76 75.2301 315.24 75.1801 315.76C73.7798 317.238 72.1772 318.511 70.4201 319.54C65.8501 322.42 60.3401 325.9 59.9001 326.19C59.1301 326.7 70.0901 305.3 70.0901 305.3L55.55 282.44L65.1801 226.74C65.1801 226.74 86.3401 227.4 86.3401 226.74L115.71 278.52L131.48 248.23Z" fill="#3C6A4C"/>
<path d="M55.5899 282.43L49.8499 315.01L40.4199 265.53L55.5899 282.43Z" fill="#3C6A4C"/>
<path d="M73.5099 338.1L61.7199 352.42L46.1499 328.08L49.3699 316.67L49.6299 315.77L49.8499 315.01L55.5899 282.43L70.1299 305.29C70.1299 305.29 59.1299 326.69 59.9399 326.18L75.2199 315.75C75.4399 315.1 73.5099 338.1 73.5099 338.1Z" fill="#B7C259"/>
<path d="M79.83 374.93L61.72 352.42L73.51 338.1L79.83 374.93Z" fill="#5ECC6B"/>
<path d="M79.83 374.93L63.56 444.89L61.72 352.42L79.83 374.93Z" fill="#26342D"/>
<path d="M52.1299 419.69C52.1299 419.69 49.8999 358.69 49.6799 358.02C49.4599 357.35 46.1499 328.74 46.1499 328.08L61.7199 352.42L63.5599 444.89L52.1299 419.69Z" fill="#3C6A4C"/>
<path d="M64.43 468L27.6 469.74C27.6 469.74 18.66 472.74 17.79 472.57C16.92 472.4 2.53003 470.18 2.53003 470.18L3.40002 464.73L22.46 465.55L40.03 466.31L56.82 462.61C56.82 462.61 63.98 460.77 64.2 460.83C64.33 464.82 64.43 468 64.43 468Z" fill="#26342D"/>
<path d="M64.1999 460.82C63.9799 460.76 56.8199 462.6 56.8199 462.6L48.3999 441.37L52.1299 419.47L63.5599 444.67C63.6699 444.67 63.9999 454 64.1999 460.82Z" fill="#26342D"/>
<path d="M56.8201 462.6L40.0301 466.52L22.4601 465.76L12.1401 460.82L38.4201 450.43L56.8201 462.6Z" fill="#3C6A4C"/>
<path d="M22.4599 465.76L3.3999 464.72L12.1299 460.82H12.1399L22.4599 465.76Z" fill="#5ECC6B"/>
<path d="M131.47 248.23L115.75 278.53C115.12 277.91 122.21 212.18 122.21 212.18C126.9 227.81 131.47 248.23 131.47 248.23Z" fill="#3C6A4C"/>
<path d="M134.82 304.75C134.82 304.75 133.93 305.83 132.6 307.47L131.79 308.47C131.18 309.22 130.52 310.04 129.79 310.91C129.53 311.23 129.26 311.56 129 311.91C128.74 312.26 128.48 312.55 128.23 312.91L127.23 314.13C126.33 315.27 125.44 316.42 124.62 317.48L123.81 318.55C123.782 318.597 123.749 318.641 123.71 318.68C123.31 319.21 122.95 319.68 122.61 320.17L122.27 320.65C122.237 320.688 122.207 320.728 122.18 320.77L122.24 320.64C122.71 319.58 123.24 318.23 123.88 316.75L124.44 315.36L124.5 315.22C124.9 314.22 125.31 313.22 125.71 312.12C125.84 311.8 125.96 311.49 126.08 311.18C126.38 310.4 126.68 309.63 126.96 308.87C127.24 308.11 127.46 307.56 127.69 306.95C127.92 306.34 128.06 305.95 128.22 305.53C128.38 305.11 128.49 304.83 128.61 304.53C128.73 304.23 128.81 303.97 128.91 303.71C129.5 302.11 129.91 301.06 129.91 300.99C129.91 300.76 117.13 283.99 115.73 280.51C115.73 280.59 115.73 280.68 115.66 280.77C115.647 280.834 115.63 280.898 115.61 280.96C115.61 281.04 115.56 281.13 115.53 281.22C115.5 281.31 115.41 281.6 115.33 281.82L115.21 282.16C115.21 282.28 115.12 282.4 115.08 282.53C115.04 282.66 114.98 282.78 114.94 282.91C114.9 283.04 114.83 283.18 114.78 283.32L114.49 284.08L114.37 284.36C114.37 284.5 114.26 284.65 114.2 284.79C113.96 285.4 113.7 286.04 113.42 286.72C113.35 286.89 113.28 287.06 113.2 287.23C113.12 287.4 113.09 287.49 113.03 287.63C112.97 287.77 112.87 288.02 112.78 288.22C112.4 289.11 112.01 290.05 111.59 291C111.46 291.32 111.32 291.64 111.18 292C111.04 292.32 110.9 292.65 110.75 293L109.44 296L108.68 297.72L107.84 299.59L107.02 301.4L106.31 302.98L105.79 304.12L104.21 307.59L103.87 308.31L103.67 308.75C103.62 308.87 103.56 308.98 103.51 309.09L103.41 309.31C103.27 309.61 103.15 309.86 103.06 310.07L102.93 310.36L102.83 310.57L102.78 310.68L102.72 310.81L118 327.87L121 349.63L136.1 334.8L134.82 304.75Z" fill="#B7C259"/>
<path d="M136.14 421.61L116.58 382.69C116.58 382.69 116.58 382.28 116.48 381.55C116.54 380.29 120.98 357.39 120.98 357.39L110.41 337C110.41 336.75 107.01 325.14 102.86 310.8L118.08 328L120.98 349.65L152.22 418.05L156.22 448.77L136.14 421.61Z" fill="#3C6A4C"/>
<path d="M121 357.35C121 357.35 116.56 380.25 116.5 381.51C115.91 374.51 110.43 337.6 110.43 337.01L121 357.35Z" fill="#5ECC6B"/>
<path d="M152.22 418.09L120.98 349.69L136.08 334.86L146.73 368.54L152.22 418.09Z" fill="#26342D"/>
<path d="M161.44 461.15L138.48 453.72L136.55 422.45L136.14 421.61L156.18 448.81L161.44 461.15Z" fill="#26342D"/>
<path d="M166 471.79L141.87 471.35C141.87 471.35 138.56 461.67 138.56 461.26V454V453.68L161.56 461.11L166 471.79Z" fill="#3C6A4C"/>
<path d="M167.51 475.4L154 479.76H142L136.34 472.76L138.52 461.64V461.23C138.52 461.64 141.83 471.32 141.83 471.32L165.96 471.76L167.51 475.4Z" fill="#26342D"/>
<path d="M153.4 155.3C153.4 155.3 147.27 160.39 143.07 163.74C142.07 162.51 136.58 152.92 135.07 151.52C137.5 152.5 152.32 155.18 153.4 155.3Z" fill="#26342D"/>
<path d="M154.47 218.9L144.57 181.77L143.22 163.93L143.07 163.74C147.27 160.39 153.4 155.3 153.4 155.3L154.47 218.9Z" fill="#5ECC6B"/>
<path d="M165.6 168.18L154.47 218.9L153.4 155.3L165.6 168.18Z" fill="#26342D"/>
<path d="M105.52 70.77L85.0001 83.22L77.0001 88.11C77.0001 88.11 69.6301 84.32 69.0001 83.67V83.58C69.2501 83.41 66.3101 76.41 64.1201 72.03L66.8601 69.38L67.2601 69C67.5301 68.76 67.7701 68.53 67.9901 68.32C68.4301 67.91 68.7401 67.59 68.8201 67.49C72.3901 70.21 78.6101 75.32 78.8201 75.49C78.8201 75.49 78.8701 75.49 78.9401 75.49C80.2701 74.96 92.3501 67.05 97.0201 65.06L98.2701 65.91L105.52 70.77Z" fill="#5ECC6B"/>
<path d="M74.5101 100.06L49.0701 84.79L69.0001 83.58L69.0301 83.67L74.5101 100.06Z" fill="#3C6A4C"/>
<path d="M33.9599 103.45L34.7999 119.89L31.1299 100.06L49.0699 84.79L33.9599 103.45Z" fill="#3C6A4C"/>
<path d="M32.7501 139.31L18.6401 151.68L20.5501 132.58L25.4301 119.42L34.8001 119.89L32.7501 139.31Z" fill="#5ECC6B"/>
<path d="M34.0999 159.5L34.0499 159.6L17.4399 179.17L18.64 151.68L34.0999 159.5Z" fill="#26342D"/>
<path d="M18.08 242.25L7.04004 239.83L10.06 236.18L20.19 238.28L18.08 242.25Z" fill="#CF975D"/>
<path d="M109.73 84.79L76.8999 99.03L85.0399 83.22L109.73 84.79Z" fill="#3C6A4C"/>
<path d="M123.58 104.27L117.44 118.48C117.44 118.48 102.89 126.98 102.54 127.34C102.19 127.7 75.1099 121.92 75.1099 121.92L76.8999 99L109.73 84.76L123.58 104.27Z" fill="#5ECC6B"/>
<path d="M148.55 239.23L148.06 243.64L142.77 244.79L148.55 239.23Z" fill="#9E6F5A"/>
<path d="M92.52 154.72L94.67 181.03L91.49 185.74L73.5 187.89V130.64L96.1 141.31L92.52 154.72Z" fill="#5ECC6B"/>
<path d="M115.75 278.53L86.3799 226.75L96.0999 212L118.81 191.33C119.36 193.41 120.68 201.65 122.21 212.22C122.21 212.18 115.12 277.91 115.75 278.53Z" fill="#26342D"/>
<path d="M86.3701 226.73C86.3701 227.37 65.2001 226.73 65.2001 226.73L52.8901 201.67L53.6501 178.67C53.6501 178.67 61.3701 197.41 61.8301 197.67C62.2901 197.93 86.6201 197.67 86.6201 197.67L103.91 172.42C103.91 172.42 106.91 193.37 107.4 193.87C107.89 194.37 85.8701 226.06 86.3701 226.73Z" fill="#5ECC6B"/>
<path d="M92.9999 14.53L92.3999 24.53L87.6999 26.18L74.4699 31.56L63.1599 25.34L64.3999 14.14C64.3999 14.14 65.8399 24.82 66.1999 24.94C66.5599 25.06 74.5999 29.5 74.7899 29.38C74.9799 29.26 86.0999 24.08 86.0999 24.08L88.6599 15.27L92.9999 14.53Z" fill="#C7915D"/>
<path d="M84.66 50.54L82.18 51.09L70.74 50.82C70.74 50.82 69.54 50.45 69.49 50.45L71.11 49.29C71.11 49.29 79.92 49.23 80.23 49.29C80.54 49.35 84.66 50.54 84.66 50.54Z" fill="#8F5729"/>
<path d="M81 52.93C81 52.93 78.91 55.42 78.67 55.34C78.43 55.26 73.05 55.34 73.05 55.34L71.53 52.93H81Z" fill="#8F5729"/>
<path d="M92.67 32.21C92.67 32.21 90.4899 39.55 90.2899 39.62C90.0899 39.69 77.98 40.18 77.7 40.18L79.7 33.5L89.8799 28.84L92.67 32.21Z" fill="#FFFDFD" stroke="#231F20" stroke-linejoin="round"/>
<path d="M71.55 40.18L64.68 38.46L63.58 38.19L61.97 32.67L63.72 29.18L71.02 33.69L71.55 40.18Z" fill="#FFFDFD" stroke="#231F20" stroke-linejoin="round"/>
<path d="M78 43.44L90.81 44.7L91.51 52.32L91.31 43.15L78.31 43.37L78 43.44Z" fill="#6A3F26"/>
<path d="M102.53 14L89.9101 13.07L74.8001 15.46L64.6801 12.8L63.5801 9.61003L64.9801 7.07004L85.6601 9.46004L97.4001 4.90002L102.53 14Z" fill="#22201F"/>
<path d="M75.0801 28.72L76.5401 26.17V27.94L75.0801 28.72Z" fill="#A46A33"/>
<path d="M68 68.32C67.78 68.53 67.54 68.76 67.27 69L68.83 67.47C68.74 67.59 68.43 67.91 68 68.32Z" fill="#643090"/>
<path d="M69 83.58L49.07 84.79C49.07 84.79 47.35 81.51 46.07 79.37C45.88 79.05 45.7 78.76 45.54 78.51L48.92 76.51L49.05 76.43V76.49C52.36 76.1 59.64 75.49 59.64 75.49C61.2206 74.4706 62.7126 73.3198 64.1 72.05C66.31 76.41 69.25 83.41 69 83.58Z" fill="#26342D"/>
<path d="M49.0699 76.44V79.33H46.0699L33.4099 79.58L47.3599 76.67L49.0699 76.44Z" fill="#26342D"/>
<path d="M92.52 154.72L73.5 151.36L72.23 155.69L92.65 156.38L94.48 155.35L92.52 154.72Z" fill="#26342D"/>
<path d="M52.89 201.65L65.21 226.71L64.07 224.92L63.6 224.18L63.34 223.78L62.78 222.89L62.16 221.89L61.83 221.37L60.78 219.72L59.65 218L58.86 216.75L58.05 215.48L57.64 214.83L56.84 213.57L55.5 211.47L54.72 210.23L53.9 208.93C50.24 203.15 47.1 198.12 47.04 197.87L50.44 177.26C50.44 177.26 44.25 139.06 44.44 135.59L34.78 119.93L46.87 135.25L63.32 129.25L49.41 142.3L53.63 178.66L52.89 201.65Z" fill="#3C6A4C"/>
<path d="M97.4001 4.91998V9.62999L74.7001 14.11L63.5801 9.62999L64.9801 7.08998C66.3501 4.59998 68.2601 1.08998 68.3201 0.97998C68.3201 1.31998 75.4301 5.71999 75.4301 5.71999L79.2601 3.28998L82.4601 4.91998H97.4001Z" fill="#22201F"/>
<path d="M92.9999 14.53C92.9999 14.53 97.1399 12.3 97.0999 12.45C97.0599 12.6 95.5299 25.84 95.5299 25.84L92.3999 24.5L92.9999 14.53Z" fill="#3E383E"/>
<path d="M101.93 31.09L104.06 38.46L101.08 41.89L101.93 31.09Z" fill="#AB8569"/>
<path d="M101.08 41.89L99.23 41.74L101.93 31.09L103.51 36.49L101.08 41.89Z" fill="#AB8569"/>
<path d="M76.54 17.89C76.54 17.71 66.54 10.38 66.54 10.38C66.54 10.38 68.18 1.72999 68.36 1.97999C68.54 2.22999 74.62 9.43999 74.62 9.43999L76.54 17.89Z" fill="#3E383E"/>
<path d="M62.73 42.85L70.73 44.05C70.73 44.05 73.44 45.75 73.28 45.59L71 43.18L62.73 42.85Z" fill="#6A3F26"/>
<path d="M124.36 76.47L109.73 84.79L85.04 83.22L105.52 70.77L106.77 71.62L124.36 76.47Z" fill="#26342D"/>
<path d="M123.58 104.27L123.52 125.48L114.23 166.88L127.51 125L123.58 104.27Z" fill="#5ECC6B"/>
<path d="M70.9 138C71.24 138.85 70.22 150.31 70.22 150.31L59 151L61.37 140.17L70.9 138Z" fill="#5ECC6B"/>
<path d="M102.8 310.51L102.74 310.64C95.51 286.11 85.79 253.32 85.79 253.32L80.53 289.72C80.53 289.72 75.27 315.2 75.22 315.72C73.8197 317.198 72.2171 318.471 70.46 319.5L76.67 299.29L84.8 250.08L77.63 246.74L74.58 238.25L81.05 243.64H89C89 243.64 90.79 251.95 91.25 252.79C91.71 253.63 101.92 306 102.8 310.51Z" fill="#26342D"/>
<path d="M38.4199 450.43L48.4199 441.37C48.4199 441.37 57.4199 463.37 56.8499 462.82C56.2799 462.27 38.4199 450.43 38.4199 450.43Z" fill="#5ECC6B"/>
<path d="M164.21 219.53V219.96L154.52 218.9L167.42 190.54V190.69C167.56 193.29 164.21 219.53 164.21 219.53Z" fill="#26342D"/>
<path d="M72.1299 62.48C72.2599 62.33 74.0199 59.37 74.0199 59.37L79.1799 59.1L82.9599 62.48L75.7499 63.42L72.1299 62.48Z" fill="#C7915D"/>
<path d="M152 105.48V105.55L142.34 122.24L127.84 113.7L129.84 98.51L141.31 81L141.63 81.05L152 105.48Z" fill="#26342D"/>
<path d="M135.55 127.42C135.55 127.42 134.36 150.12 134.74 151.28C134.08 151.21 127.29 126.52 127.29 126.52L121.66 105.67L109.73 84.79L129.87 98.45L128.2 113.61L142.33 122.24L135.55 127.42Z" fill="#3C6A4C"/>
<path d="M165.6 168.18L153.4 155.3L142.33 122.24L152.07 105.34C151.98 106.4 154.88 120.34 155.02 120.99C155.16 121.64 155.65 134.61 155.65 134.61C155.65 134.61 156.33 154.2 156.4 153.54C156.47 152.88 165.6 168.18 165.6 168.18Z" fill="#3C6A4C"/>
<path d="M153.4 155.3C152.32 155.18 137.5 152.5 135.07 151.52C134.98 151.423 134.871 151.345 134.75 151.29C134.37 150.13 135.56 127.43 135.56 127.43L142.34 122.25L153.4 155.3Z" fill="#5ECC6B"/>
<path d="M47.3899 76.7L49.0699 76.44V76.5H48.9399L47.3799 76.69L47.3899 76.7Z" fill="#662F8E"/>
</svg>
