<svg width="162" height="515" viewBox="0 0 162 515" fill="none" xmlns="http://www.w3.org/2000/svg">
<path d="M123.59 102.4L115.91 104.15L114.32 104.07L120.14 89.4601L112.86 50.5801L107.69 65.5301L105.09 67.5301V56.5901L101.63 42.0001L99.08 31.3301L97.75 25.7501L76.05 32.0701L60 24.6901L56 30.6401C56 30.6401 56 33.2701 56 36.2801C55.37 38.8101 53.72 45.5101 53.72 46.2201C53.72 47.1101 54.85 61.3901 55.21 62.1301C55.57 62.8701 50.61 72.8901 50.61 72.8901L56.24 69.0601L60.91 61.6801L63.57 71.7901L68.87 78.5201L68.3 99.2601L56 103.56L55.32 103.32L46.15 100.54L43.33 62.5401L46.95 24.6801L61.95 5.77007L80.4 0.310059L101.78 7.31006L116.16 32.1001L119.1 53.2401L117.83 56.3001L123.52 85.8301L123.59 102.4Z" fill="black"/>
<path d="M53.62 45.3799L49.39 60.6399L48.3 57.4999L46.39 65.3399L51.22 102C51.22 102 60.42 94.8799 61.07 93.9999C61.72 93.1199 59.42 69.3299 59.42 69.3299L56.76 53.5699L53.62 45.3799Z" fill="#404041"/>
<path d="M53.3 71L54.3 79.06L52.49 83.57L51.22 102C51.22 102 62.45 109.15 62.75 109.05C63.05 108.95 70.75 105.83 70.91 105.43C71.07 105.03 74.91 94.7 74.79 93.09C74.67 91.48 74.92 77.51 74.35 77.18C73.78 76.85 67.56 70.82 67.16 70.52C66.76 70.22 63.05 61.6 63.05 61.6L59.57 59.48L53.3 71Z" fill="#404041"/>
<path d="M95.32 78.8601L95.1 82.2401L79 99.5601L79.3 120.99L69.3 125.82L45.4201 116.48C45.4201 116.48 45.1001 113.48 45.4201 113.05L55.32 103.35L56 103.59L70.74 98.2001L68.88 78.5501L63.58 71.8201L60.9201 61.7101V61.4501L59.0101 56.8601C59.0101 56.8601 58.71 55.8601 58.31 54.3501L61.1401 57.5301C61.1401 57.5301 73.9601 61.5801 74.4201 61.5801C74.8801 61.5801 78.4201 65.5801 78.4201 65.5801V72.3201L71 70.9401L74.11 75.7901L78.4201 77.1801V87.1201H83.5401L95.32 78.8601Z" fill="#9E5929"/>
<path d="M76.05 32.1099L72.28 33.6299L71.93 38.2599L55.96 30.6399L59.95 24.6899L76.05 32.1099Z" fill="#C7C6C1"/>
<path d="M99.08 31.37L83.9101 38.28L82.5601 38.89L81.9401 34.31L76.05 32.11L97.7501 25.79L99.08 31.37Z" fill="#C7C6C1"/>
<path d="M101.63 42.0001L95.32 38.8501C95.32 38.8501 81.75 47.6001 81.32 47.9301C80.89 48.2601 83.88 38.2401 83.88 38.2401L99.05 31.3301L101.63 42.0001Z" fill="#29272C"/>
<path d="M101.63 42.0498L95.32 38.8998C95.32 38.8998 81.75 47.6398 81.32 47.9698C80.89 48.2998 83.88 38.2798 83.88 38.2798L82.53 38.8998L77.23 47.1598L78.03 53.0198L77.83 62.1998L82.53 61.1998L101.78 54.9998L105.09 56.5798L101.63 42.0498ZM78.63 59.9398L79.89 54.3298L82.27 59.9398H78.63ZM101.63 49.2998L93.25 54.9998L82.56 50.4198C83.19 50.4198 96.13 41.5698 96.13 41.5698L101.63 46.0898V49.2998Z" fill="#5A5755"/>
<path d="M74.38 61.57C73.91 61.57 61.1 57.57 61.1 57.57L58.26 54.3999C57.38 51.1599 55.96 45.8499 55.99 44.9799C55.99 44.2899 55.99 40.04 55.99 36.35V30.71L61 41L61.18 41.6499L61.36 42.24L57.43 46.84L64.51 55.08L65.17 54.71L74.38 61.57Z" fill="#5A5755"/>
<path d="M145.64 195.56L145.85 206.27L138 213L138.25 198.32V198.18L138.43 187.36V187L137.18 183L135.48 177.56L118.58 148.2V148.13L117.97 147.06L118.11 146.56L119.31 142.22L121.31 134.82C122.02 134.45 137.04 129.16 137.04 129.16L134.1 140.26L132.16 147.58L132.07 147.92C132.07 147.92 132.07 148.03 132.12 148.13V148.26C132.12 148.31 132.12 148.37 132.12 148.43C132.12 148.49 132.18 148.68 132.22 148.83L132.35 149.34C132.35 149.52 132.44 149.71 132.5 149.92C132.58 150.2 132.65 150.5 132.73 150.83C132.73 150.83 132.73 150.94 132.73 150.99C132.8 151.25 132.87 151.52 132.94 151.81C133.01 152.1 133.09 152.4 133.17 152.71C133.25 153.02 133.26 153.08 133.31 153.28C133.47 153.89 133.64 154.55 133.81 155.23C133.93 155.68 134.04 156.14 134.17 156.61C134.23 156.86 134.3 157.12 134.36 157.38C134.9 159.45 135.48 161.73 136.09 164.06C136.17 164.35 136.25 164.65 136.32 164.94L137.02 167.59C137.1 167.89 137.18 168.18 137.25 168.47C137.56 169.64 137.88 170.8 138.18 171.94C138.26 172.22 138.34 172.51 138.41 172.79L138.86 174.44C138.94 174.71 139.01 174.98 139.08 175.25C139.74 177.64 140.36 179.79 140.88 181.51C140.94 181.7 140.99 181.88 141.05 182.06C141.18 182.5 141.31 182.91 141.43 183.28C141.55 183.65 141.58 183.72 141.65 183.92L141.77 184.27C141.89 184.6 142 184.88 142.08 185.08C142.132 185.203 142.196 185.32 142.27 185.43C142.288 185.461 142.312 185.488 142.34 185.51C142.34 185.51 142.4 185.51 142.42 185.51C142.455 185.474 142.497 185.446 142.543 185.429C142.59 185.412 142.64 185.405 142.69 185.41C142.769 185.397 142.85 185.397 142.93 185.41L143.2 185.5H143.25L143.51 185.63C143.66 185.7 143.82 185.8 143.99 185.9C144.39 186.15 144.84 186.47 145.3 186.82C145.463 186.931 145.62 187.052 145.77 187.18C146.96 188.1 148.17 189.18 148.91 189.84C148.971 189.888 149.028 189.942 149.08 190L149.6 190.47L145.49 193V195L145.64 195.56Z" fill="#DC9159"/>
<path d="M36.69 136.64L35.37 139.41L26.06 159L26.17 175.34L26.29 193.97C25.6057 193.565 24.9015 193.195 24.18 192.86C23.77 192.69 23.45 192.59 23.41 192.71C23.29 193.01 23.36 198.64 23.41 200.64V200.83L21.62 199.71L16.76 196.71C16.76 196.71 17.32 188.55 17.76 181.66C18.06 177.02 18.32 172.95 18.32 172.32C18.32 171.99 18.63 170.06 19.1 167.25C19.83 163 21 156.7 22 150.8C22.15 149.98 22.29 149.17 22.44 148.37C23.79 140.95 24.94 134.68 24.94 134.68L28.36 138.33L29.03 139.05C31.3575 137.762 33.9165 136.947 36.56 136.65L36.69 136.64Z" fill="#DC9159"/>
<path d="M158.2 195.7L147.2 205.09L145.86 206.24L145.65 195.53V195.03V193.03L149.76 190.5L149.24 190.03C149.188 189.972 149.131 189.918 149.07 189.87C148.33 189.2 147.12 188.13 145.93 187.21C145.78 187.081 145.623 186.961 145.46 186.85C145 186.5 144.55 186.18 144.15 185.93C143.98 185.83 143.82 185.73 143.67 185.66L143.41 185.53H143.36L143.09 185.44C143.01 185.427 142.929 185.427 142.85 185.44C142.8 185.435 142.75 185.442 142.703 185.459C142.657 185.476 142.614 185.504 142.58 185.54C142.58 185.54 142.53 185.54 142.5 185.54C142.472 185.518 142.448 185.491 142.43 185.46C142.356 185.349 142.292 185.232 142.24 185.11C142.12 184.83 141.97 184.44 141.81 183.95C141.74 183.75 141.66 183.54 141.59 183.31C141.52 183.08 141.34 182.53 141.21 182.09C141.15 181.91 141.1 181.73 141.04 181.54C140.52 179.82 139.9 177.67 139.24 175.28C139.17 175.01 139.1 174.74 139.02 174.47L138.57 172.82C138.5 172.54 138.42 172.25 138.34 171.97C138.04 170.83 137.72 169.67 137.41 168.5C137.34 168.21 137.26 167.92 137.18 167.62L136.48 164.97C136.41 164.68 136.33 164.38 136.25 164.09C135.64 161.76 135.06 159.48 134.52 157.41C134.46 157.15 134.39 156.89 134.33 156.64C134.2 156.17 134.09 155.71 133.97 155.26C133.8 154.58 133.63 153.92 133.47 153.31C133.42 153.11 133.38 152.92 133.33 152.74C133.17 152.12 133.02 151.54 132.89 151.02C132.89 150.97 132.89 150.91 132.89 150.86C132.81 150.53 132.74 150.23 132.66 149.95C132.6 149.74 132.55 149.55 132.51 149.37L132.38 148.86C132.38 148.71 132.31 148.57 132.28 148.46C132.25 148.35 132.28 148.34 132.28 148.29V148.16C132.28 148.06 132.28 147.98 132.23 147.95L132.32 147.61L134.26 140.29L137.2 129.19L138.53 132.84L145.98 153.22L146.14 153.66L149.62 163.16L156.55 182.16L157.84 191.6L158.2 195.7Z" fill="#F1B280"/>
<path d="M107.69 109.47C107.69 109.47 109.14 111.56 110.95 114.59L71.82 126.82L69.26 125.82L79.26 120.99L78.96 99.5602L95.09 82.2402L94.62 98.5702L114.31 104.07L115.9 104.15L107.69 109.47Z" fill="#A6662F"/>
<path d="M36.5 137L35.37 139.37L35.75 137.79L36.57 136.65V136.57C36.5242 136.5 36.4963 136.42 36.4888 136.336C36.4813 136.253 36.4945 136.169 36.5271 136.092C36.5597 136.015 36.6107 135.947 36.6758 135.894C36.7408 135.842 36.8178 135.806 36.9 135.79H36.97H37.05H37.2L36.58 136.66C36.58 136.66 36.58 136.66 36.58 136.73L36.4 137.12L36.5 137Z" fill="#F1B280"/>
<path d="M36.76 160L37.24 160.93V161L36.71 166V166.11L34.38 188.2L30.89 204.53L28.34 203.26L23.41 200.81V200.62C23.41 200.23 23.41 199.7 23.41 199.1C23.41 197.19 23.41 194.56 23.41 193.35C23.41 193.19 23.41 193.06 23.41 192.95C23.41 192.84 23.41 192.83 23.41 192.78C23.4079 192.75 23.4079 192.72 23.41 192.69C23.41 192.57 23.77 192.69 24.18 192.84L24.4 192.94L24.63 193.05L24.87 193.17C25.35 193.41 25.82 193.68 26.08 193.83L26.24 193.92H26.29L26.17 175.29L26.06 159L35.36 139.44L32.87 149.89L32.19 151.11C32.2098 151.155 32.2333 151.199 32.26 151.24L36.73 159.95C36.73 159.95 36.75 160 36.76 160Z" fill="#F1B280"/>
<path d="M76.24 50.6002L73.2 46.1201L61.81 41.6002H61.13L60.95 40.9501L55.99 30.6602L71.96 38.2802L75.25 43.7901L76.24 50.6002Z" fill="#5A5755"/>
<path d="M82.5599 38.8899L77.2599 47.1499L75.2299 43.7699L71.9299 38.2599L72.2799 33.6299L76.0499 32.1099L81.9399 34.3099L82.5599 38.8899Z" fill="#29272C"/>
<path d="M120.14 89.4601L114.32 104.07L92.5701 98.5701L95.1001 82.2501V82.2401L95.3201 78.8601L99.0001 72.3801L105.09 56.5901V67.5301L107.69 65.5301L112.86 50.5801L120.14 89.4601Z" fill="#404041"/>
<path d="M105.09 56.59L99 72.38L95.32 78.86L83.45 87.07H78.33V77.13L82.29 76.55L86.43 72.28L90.56 67.53L86.43 70.89L78.33 72.28V65.53L82.56 61.18L101.78 55L105.09 56.59Z" fill="#A6662F"/>
<path d="M90.56 67.5298L86.43 72.2798L82.3 76.5498L78.33 77.1298L74.02 75.7398L70.91 70.8898L76.66 73.8698L80.73 73.4398L86.43 70.8898L90.56 67.5298Z" fill="#A96739"/>
<path d="M86.43 70.8901L80.73 73.4401L76.66 73.8701L70.91 70.8901L78.33 72.2801L86.43 70.8901Z" fill="#9E5C28"/>
<path d="M82.29 59.9298H78.65L79.9 54.3198L82.29 59.9298Z" fill="#29272C"/>
<path d="M82.56 61.1801L78.33 65.5301C78.33 65.5301 74.81 61.5301 74.33 61.5301L65.07 54.6201C67.07 53.4801 73.25 50.0801 73.67 50.0801L61.76 41.5601L73.16 46.0701L76.16 50.5601L75.16 43.7501L77.16 47.1301L77.95 52.9901L77.76 62.1801L82.56 61.1801Z" fill="#C7C6C1"/>
<path d="M60.88 61.6798L56.21 69.0598L50.58 72.8898C50.58 72.8898 55.58 62.8898 55.18 62.1298C54.78 61.3698 53.69 47.1298 53.69 46.2198C53.69 45.5098 55.34 38.8098 55.97 36.2798C55.97 39.9598 55.97 44.2098 55.97 44.9098C56.5695 48.0832 57.3305 51.2239 58.25 54.3198C58.65 55.7898 58.95 56.8298 58.95 56.8298L60.86 61.4198L60.88 61.6798Z" fill="#50493F"/>
<path d="M101.63 46.0901V49.3001L93.2401 55.0001L82.5601 50.4201C83.1901 50.4201 96.1301 41.5801 96.1301 41.5801L101.63 46.0901Z" fill="white" stroke="#231F20" stroke-linejoin="round"/>
<path d="M73.69 50.1002C73.27 50.1002 67.13 53.5002 65.09 54.6402L64.44 55.0002L57.36 46.7602L60.46 41.7602L60.92 40.9502L73.69 50.1002Z" fill="white" stroke="#231F20" stroke-linejoin="round"/>
<path d="M79.56 218.4L79.32 237.76L69.63 242.16C69.63 242.16 69.63 226.89 69.63 226.16C69.5583 226.138 69.4816 226.138 69.41 226.16L69.25 226.24L69.07 226.35C66.73 227.7 58.02 234.55 58.02 234.55C58.02 234.55 57.92 234.46 57.72 234.31L56.84 218.31V214.58H57C58.09 215.86 60.24 218.32 60.61 218.32L79.56 218.4Z" fill="#40403E"/>
<path d="M128.22 266.31L116.58 353.76L102.49 355.16L77.34 272.87C77.34 272.87 88.09 264.07 98.85 255.41C101.12 253.58 103.4 251.75 105.57 250.02C105.26 257.73 103.62 292.2 103.62 292.2C103.62 292.2 116.32 320.37 116.68 319.8C117.04 319.23 127.8 267.92 128.22 266.31Z" fill="#40403E"/>
<path d="M47.54 509.48L20 511.05C20 511.05 10 512.26 9.20004 512.05C8.40004 511.84 0.400024 509.88 0.400024 509.88L1.17004 506.49L15.03 507.2H15.48L26.29 507.89L40.16 504.71L40.7 504.59H40.86C41.21 504.5 47.09 502.93 47.27 502.98C47.46 506.6 47.54 509.48 47.54 509.48Z" fill="#5A5755"/>
<path d="M26.17 507.78L40.15 504.76L26.28 507.94L15.47 507.25L15.02 507.23H15.01L14.98 507.22L15.27 507.23L26.17 507.78Z" fill="#001750"/>
<path d="M47.34 503C47.16 502.95 41.28 504.52 40.93 504.61L40.88 504.48V504.34L40.56 503.42C40.47 503.17 40.37 502.89 40.25 502.58C40.13 502.27 40.02 501.93 39.88 501.58L39.72 501.17C39.67 501.01 39.6 500.84 39.53 500.66C39.2967 500.026 39.0467 499.36 38.78 498.66C38.7 498.44 38.61 498.23 38.53 498.01C38.24 497.25 37.94 496.46 37.63 495.67C37.46 495.22 37.3 494.78 37.12 494.33C36.7 493.23 36.27 492.14 35.88 491.12C35.74 490.74 35.6 490.38 35.46 490.04C35.06 489.04 34.7 488.04 34.39 487.31C34.3594 487.204 34.3226 487.101 34.28 487L34.13 486.62L33.96 486.19L33.82 485.84C33.71 485.54 33.64 485.38 33.64 485.38L33.78 484.59V485.59H46.26C46.29 485.54 47.16 496.75 47.34 503Z" fill="#C7C6C1"/>
<path d="M39.75 471.7H39.51V471.2L39.75 471.7Z" fill="#1C387F" stroke="#9AB8C7" stroke-miterlimit="10"/>
<path d="M40.73 504.63H40.68L40.15 504.76L26.28 507.94L15.47 507.25H15.02L6.52002 503L24.93 493.58L27.37 495.26L28.24 495.86L28.87 496.3L29.7 496.88C33.9 499.79 39.62 503.76 40.73 504.63Z" fill="#C7C6C1"/>
<path d="M15.01 507.23L1.12 506.51L6.47 502.97H6.48001L15.01 507.23Z" fill="#29272C"/>
<path d="M136.74 500.37L119.54 494.58L118.98 485.18L119.05 485.54H131.37L136.74 500.37Z" fill="#29272C"/>
<path d="M140.13 508.67L122.05 508.33C122.05 508.33 119.58 500.78 119.58 500.46V494.83V494.58L136.78 500.37L140.13 508.67Z" fill="#C7C6C1"/>
<path d="M141.28 511.49L131.16 514.89H122.16L117.92 509.45L119.56 500.78V500.46C119.56 500.78 122.03 508.33 122.03 508.33L140.11 508.67L141.28 511.49Z" fill="#5A5755"/>
<path d="M40.93 504.58H40.77L29.77 496.8L28.94 496.22L28.31 495.78L27.44 495.18L25 493.5L33.69 485.28C33.69 485.28 33.76 485.44 33.87 485.74L34.01 486.09L34.18 486.52L34.33 486.9C34.3726 487.001 34.4094 487.105 34.44 487.21L39.77 501.08L39.93 501.49L40.93 504.2C40.93 504.2 40.93 504.4 40.98 504.45C41.03 504.5 40.92 504.54 40.93 504.58Z" fill="#29272C"/>
<path d="M55.28 103.32L45.38 113.02L42.09 116.23C42.09 116.23 41.94 116.97 41.68 118.16C40.63 123.08 37.86 135.67 37.29 135.67C37.1 135.67 35.15 136.27 35.15 136.27L29.07 139.02L25 134.68L23.5 121.68L27.32 128.37L37.42 115.51L47.76 107.2L42.96 101.2L46.11 100.31L55.28 103.32Z" fill="#40403E"/>
<path d="M21 254C21 254 14.35 258.08 14.24 258.57C14.13 259.06 5.32998 251.1 4.28998 250.15C3.97998 256.34 6.02997 279.56 6.02997 279.56L7.75998 281.01L17.2 278.01L24.7 268.62L21 254ZM7.75998 277.39L7.14996 261.8L9.88998 275.29L7.75998 277.39Z" fill="#A1A0A0"/>
<path d="M18 197.85L15.87 217.61L13.87 202.56L14.12 197.79C14.12 197.69 14.12 197.65 14.12 197.65L16.74 196.65L18 197.85Z" fill="#29272C"/>
<path d="M15.93 249.59L20.93 253.96C20.93 253.96 14.29 258.04 14.18 258.52C14.07 259 5.26996 251.06 4.17996 250.11C4.17184 249.631 4.22904 249.153 4.34997 248.69C4.92997 247.78 13.67 200.69 14.05 197.79L13.8 202.56L15.8 217.61L14.13 233.15L21.22 243.33L10.47 245.64L7.03997 249.59H15.93Z" fill="#C7C6C1"/>
<path d="M31.9299 206.91L21.2899 243.33L14.2 233.15L15.8699 217.61L17.9999 197.85L21.5999 199.72L21.67 199.76L23.39 200.66L24.0899 201.03L30.8699 204.56L30.9299 204.69L31.9299 206.91Z" fill="#40403E"/>
<path d="M20.43 252.35L20.95 253.96L15.93 249.59H7.10999L10.54 245.64L21.29 243.33L20.43 252.35Z" fill="#40403E"/>
<path d="M26.53 286.93L13.44 287.9L7.71997 280.96L17.15 278.02L24.65 268.63L26.83 275.31L26.53 286.93Z" fill="#C7C6C1"/>
<path d="M107.46 172.33C107.46 172.33 99.62 189.66 99.58 189.66C99.54 189.66 99.58 189.76 99.65 189.93C98.27 187.93 98.1301 184.06 97.7501 184.06C97.3701 184.06 91.5601 181.62 88.9401 180.61C88.9353 180.574 88.9353 180.537 88.9401 180.5C89.3901 178.4 89.68 176.98 89.68 176.98L92.27 178.08L96.83 166.44L103.46 157.16L108.33 152.43L116.54 144.43C118.62 145.93 117.84 147 117.84 147L107.46 172.33Z" fill="#40403E"/>
<path d="M105.62 208.63L84 218.4V213.51L56.81 214.67V218.4L51.08 210.3L48.72 175.2L38.64 163.05L37.22 160.94L32.17 151.12L32.84 149.89L39.08 158.68L41.16 160.15L46.5 163.94L55.26 177.24L56.81 176.42L67.5 191.66C68.8734 187.787 70.2467 183.91 71.62 180.03L76.62 190.62L88.95 180.62C91.57 181.62 97.32 184.07 97.76 184.07C98.2 184.07 98.28 187.92 99.66 189.94C100.09 192.25 105.62 208.63 105.62 208.63Z" fill="#40403E"/>
<path d="M108.35 152.43L103.48 157.16L96.85 166.44L92.29 178.08L89.7 177L71 169L56.87 176.38L55.32 177.2L46.56 163.9L41.22 160.11L52.43 163L63.69 145.56L70.47 160.24L75.62 148C75.62 148 89.81 161.43 90.17 161.27C90.53 161.11 107.81 152.7 108.35 152.43Z" fill="#5A5755"/>
<path d="M89.7 177C89.7 177 89.41 178.42 88.96 180.52V180.63C85.5266 185.683 82.1033 190.737 78.69 195.79C76.35 191.123 74.0166 186.457 71.69 181.79L66.57 196C63.33 189.493 60.0833 182.98 56.83 176.46L71 169L89.7 177Z" fill="#A1A0A0"/>
<path d="M116.58 144.47L108.37 152.47C107.83 152.74 90.55 161.16 90.2 161.32C89.85 161.48 75.61 148 75.61 148L90 138.66C90 138.66 102.63 134.3 103.25 134.78L116.58 144.47Z" fill="#A1A0A0"/>
<path d="M48.84 252.42L37.84 240.66L44.91 224.49C45.34 224.79 45.91 225.24 46.65 225.77L48.84 252.42Z" fill="#29272C"/>
<path d="M58 234.6C58 234.6 50.62 228.78 46.63 225.77C45.92 225.24 45.32 224.77 44.89 224.49L51.09 210.3L56.82 218.4L58 234.6Z" fill="#A1A0A0"/>
<path d="M69.63 242.16L58 234.6C59.86 233.1 67.44 227.29 69.23 226.29L69.39 226.21C69.4617 226.188 69.5383 226.188 69.61 226.21C69.61 226.21 69.61 226.21 69.61 226.21C69.67 226.89 69.63 242.16 69.63 242.16Z" fill="#C7C6C1"/>
<path d="M110.63 224.02L106.69 225.37L84.03 233.15V218.4L105.62 208.63L110.63 224.02Z" fill="#A1A0A0"/>
<path d="M116.58 353.76C116.58 353.76 111.58 374.36 111.35 375.24C111.12 376.12 102.5 355.16 102.5 355.16L116.58 353.76Z" fill="#C7C6C1"/>
<path d="M78.64 304.54C78.9 303.16 64.17 355.96 64.17 355.96L59.36 362.36C59.36 362.36 61.63 352.89 61.89 352.09C62.15 351.29 76.23 300.39 76.23 300.39C76.23 300.39 66.86 296.95 68.52 297.2C71.1081 297.338 73.7019 297.338 76.29 297.2L81.36 295.67L97.91 360.79C97.45 359.17 78.38 305.89 78.64 304.54Z" fill="#29272C"/>
<path d="M124.63 352.66L128.23 266.33L116.58 353.77C116.58 353.77 111.58 374.36 111.35 375.24C111.12 376.12 102.5 355.16 102.5 355.16L81.42 286.16L77.34 272.83L77.61 272.61L78.09 272.22L79.19 271.32L80.19 270.53C82.85 268.36 87.13 264.87 91.93 260.98L93.76 259.5L98.88 255.37L106.72 225.37L102.34 226.87L84 233.15V235.64L79.31 237.77L69.62 242.17L58.16 234.71L58 234.59H57.93L57.71 234.42L56.97 233.84L56.73 233.65L56.42 233.4L55.88 232.98C54.57 231.98 52.8 230.57 51.04 229.21L49.65 228.13C48.56 227.29 47.52 226.49 46.65 225.83L48.84 252.47L50.84 254.6L52.77 256.66L69.64 274.66L67.49 286L53.4 360L40.46 352L34.46 282.11L32.08 330L34.73 349L32.36 375.4L34.73 384.95L33.8 471.71H39.52V414.47C39.59 414.01 41.01 410.71 43.01 406.18L43.72 404.58C43.84 404.31 43.96 404.03 44.09 403.75L45.25 401.16C46.04 399.38 46.88 397.53 47.73 395.65C48.01 395.03 48.3 394.41 48.58 393.78C52.4 385.34 56.22 377 57.33 374.61L57.44 374.36L57.59 374.03L57.64 373.92L62.07 392.79L46.93 471.71H50.7L68.17 389.93L59.36 362.36C59.36 362.36 61.63 352.89 61.89 352.1C61.89 352.03 62.06 351.51 62.3 350.64C62.39 350.35 62.48 350.02 62.58 349.64C62.79 348.91 63.03 348.03 63.31 347.03L63.75 345.44C63.99 344.6 64.24 343.7 64.5 342.75C64.76 341.8 65.04 340.75 65.33 339.75C65.72 338.36 66.13 336.9 66.54 335.38C70.74 320.27 76.24 300.38 76.24 300.38C75.98 300.28 66.9 296.94 68.54 297.2C71.1249 297.335 73.715 297.335 76.3 297.2L81.37 295.67L97.89 360.67V360.78L96.33 385.11C96.33 385.11 117 476.65 118 477.48C118.156 477.572 118.33 477.63 118.51 477.65C120.592 477.873 122.689 477.929 124.78 477.82V477.82H125.64L116.69 417.74C116.69 417.74 127.52 381.74 127.52 381.05C127.52 380.36 130.68 385.26 130.68 385.26L130.93 477.6C131.58 477.6 132.08 477.53 132.32 477.53L132.53 475.82C132.91 463.05 131.67 383.99 132.64 383.74C133.61 383.49 124.63 352.66 124.63 352.66ZM34.68 370.59L38.2 353.77C39.2 354.2 48.97 364.52 48.97 364.52L34.68 370.59Z" fill="#5A5755"/>
<path d="M120.3 238.74C119.2 239.25 112.96 244.12 105.57 250.02C103.4 251.75 101.12 253.58 98.85 255.41L106.69 225.41L110.63 224.06L119.9 237.75L120.3 238.74Z" fill="#29272C"/>
<path d="M128.23 266.27C127.81 267.88 117.04 319.21 116.69 319.76C116.34 320.31 103.63 292.16 103.63 292.16C103.63 292.16 105.27 257.69 105.58 249.98C112.97 244.08 119.21 239.21 120.31 238.7L128.23 266.27Z" fill="#C7C6C1"/>
<path d="M150.13 218.4V248.64L146.52 255.37L143.09 249.51L130.87 262.51L131.29 270.02H136V281.81L147.08 284.58L155.26 277.04C155.26 277.04 157.91 245.75 158.17 244.65C158.38 243.81 159.49 217.84 161.23 204.89C161.07 205.11 156.51 211.38 150.13 218.4ZM147.13 279.93L148.94 272.87V260.75L152.3 275.25L147.13 279.93Z" fill="#A1A0A0"/>
<path d="M155.29 277.03L152.39 284.45L140.21 291.5L133.2 289.86L131.29 270.02H136.02V281.81L147.11 284.57L155.29 277.03Z" fill="#C7C6C1"/>
<path d="M150.13 218.4V248.64L146.52 255.36L143.09 249.51L135.09 214.41C135.09 214.41 140.26 227.96 140.47 228.59C140.53 228.87 145.07 224 150.13 218.4Z" fill="#C7C6C1"/>
<path d="M130.74 385.23L130.98 477.56C129.68 477.63 127.71 477.73 125.7 477.79L116.75 417.71C116.75 417.71 127.58 381.71 127.58 381.02C127.58 380.33 130.74 385.23 130.74 385.23Z" fill="#29272C"/>
<path d="M113 118.09L79 129.34L69.56 142.86L60.52 128L41.66 118.27C41.92 117.07 42.07 116.33 42.07 116.33L45.36 113.13C45.05 113.58 45.36 116.55 45.36 116.55L69.24 125.88L71.8 126.88L111 114.59L113 118.09Z" fill="#29272C"/>
<path d="M63.69 145.59L52.43 163.03L41.18 160.14L39.1 158.68L32.86 149.88L35.75 137.83V137.82L39.05 134.35L53.17 134.97L63.69 145.59Z" fill="#A1A0A0"/>
<path d="M84 218.4V233.15V235.64L79.3 237.76L79.54 218.4H60.65C60.28 218.4 58.13 215.94 57.04 214.66L84.04 213.51V218.4H84Z" fill="#C7C6C1"/>
<path d="M52.44 293.66C52.44 293.66 42 319.06 41.83 318.2C41.66 317.34 35.13 284.45 34.47 281.96V281.07L37.14 242.18L37.8 240.68L48.8 252.44L50.8 254.57L52.44 293.66Z" fill="#C7C6C1"/>
<path d="M69.63 274.62L53.4 360L40.46 352L34.46 282.11V282C35.12 284.49 41.65 317.4 41.82 318.24C41.99 319.08 52.43 293.7 52.43 293.7L50.82 254.59L69.63 274.62Z" fill="#40403E"/>
<path d="M48.9999 364.51L34.7 370.58L38.2199 353.76C39.2299 354.19 48.9999 364.51 48.9999 364.51Z" fill="#C7C6C1"/>
<path d="M121.26 134.78L117.88 147C117.88 147 118.66 145.93 116.58 144.43L103.27 134.74C102.65 134.26 90.02 138.62 90.02 138.62L75.61 148L70.47 160.26L63.69 145.58L53.17 135L39.05 134.38L35.75 137.85L37.27 135.73C37.84 135.73 40.61 123.14 41.66 118.22L60.52 128L69.6 142.91L79 129.32L113 118.06C117.48 125.48 120.82 135 121.26 134.78Z" fill="#C7C6C1"/>
<path d="M152.28 275.24L147.11 279.93L148.92 272.87V260.75L152.28 275.24Z" fill="#40403E"/>
<path d="M9.85001 275.24L7.72 277.34L7.10999 261.76L9.85001 275.24Z" fill="#40403E"/>
<path d="M62.07 392.79L46.93 471.7H39.75L39.51 471.2V414.5C39.51 413.35 57.63 373.91 57.63 373.91L62.07 392.79Z" fill="#29272C"/>
<path d="M50.7 471.7L46.19 485.54H33.71V484.54L33.81 471.7H50.7Z" fill="#40403E"/>
<path d="M132.38 477.49L131.38 485.49H119.05L118.98 485.13L118.53 477.6C120.616 477.818 122.716 477.872 124.81 477.76C127.12 477.76 129.49 477.59 130.98 477.51L132.38 477.49Z" fill="#40403E"/>
<path d="M136.57 110.68L107.69 109.47L116.04 104.02L123.61 101.19L136.57 110.68Z" fill="#C7C6C1"/>
<path d="M136.99 129.07V129.12L136.89 129.1L125.62 127.12L107.69 109.47L136.58 110.68L136.99 129.07Z" fill="#5A5755"/>
<path d="M137 129.12L132.25 130.8L130.6 131.38C126.93 132.69 122.89 134.13 121.73 134.59L121.54 134.66L121.27 134.78C120.75 134.66 117.39 125.29 113.02 118.01L110.93 114.52C109.12 111.52 107.73 109.47 107.73 109.47L125.66 127.12L136.93 129.12H137Z" fill="#A1A0A0"/>
<path d="M43.97 107.17L31.23 107.81L42.92 101.16L43.97 107.17Z" fill="#5A5755"/>
<path d="M47.72 107.17L37.38 115.48L27.29 128.34L23.46 121.65L31.23 107.81L43.97 107.17L42.92 101.16L47.72 107.17Z" fill="#C7C6C1"/>
<path d="M81.9401 34.31L97.7501 25.79L76.05 32.11L81.9401 34.31Z" fill="#C7C6C1"/>
<path d="M79.55 64.28L101.78 55L104.73 57.96L105.09 56.59L101.78 55L82.5601 61.18L79.55 64.28Z" fill="#BC7645"/>
<path d="M77.2601 64.35L61.0701 57.5L74.3501 61.55L77.2601 64.35Z" fill="#9B5023"/>
<path d="M95.32 78.8599L85.37 87.6999L83.44 88.6299L79.63 87.7599L78.13 87.2899L83.45 87.0699L95.32 78.8599Z" fill="#9B5023"/>
<path d="M68.84 79.67L78.13 87.29L68.84 78.52V79.67Z" fill="#9B5023"/>
<path d="M68.84 78.52C68.84 78.69 78.33 87.07 78.33 87.07H83.45L83.29 87.77L78.13 87.29C78.13 87.29 70.42 80.54 70.37 80.55C70.32 80.56 68.84 78.52 68.84 78.52Z" fill="#9B5023"/>
<path d="M76.05 32.1099C76.05 32.1099 70.98 23.5399 70.91 22.7899C70.84 22.0399 80.47 4.62988 80.47 4.62988C80.47 4.62988 75.47 20.3299 75.69 20.5199C75.91 20.7099 81.31 30.0499 81.31 30.0499L76.05 32.1099Z" fill="#282A2A"/>
<path d="M101.76 7.28011C101.14 7.10011 95.32 9.51011 95.32 9.51011C95.32 9.51011 88.9 26.0201 89.17 25.7901C89.44 25.5601 96.52 11.0001 96.52 11.0001L101.76 7.28011Z" fill="#282A2A"/>
<path d="M46.91 24.69L63 15.94L71.93 18.37L61.93 5.78003L46.91 24.69Z" fill="#282A2A"/>
<path d="M98.85 368C99.37 368.92 113.76 406.88 113.76 406.88L97.54 385.76L98.85 368Z" fill="#C7C6C1"/>
<path d="M48.97 370.58L36.25 375.27L39.51 414.5L57.63 373.91L48.97 370.58Z" fill="#40403E"/>
<path d="M58.18 234.71L52.76 256.61L69.63 274.62L67.48 285.94L74.76 287.9L81.42 286.2L77.34 272.87L93.73 259.54L102.5 226.16L84.03 233.15L84.02 235.63L69.63 242.17L58.18 234.71Z" fill="#29272C"/>
<path d="M145.93 153.59C141.59 152.06 135.63 150 132.25 148.83L129.64 147.92L130.21 146.92L134.05 140.21L138.32 132.76L145.77 153.14L145.93 153.59Z" fill="#5A5755"/>
<path d="M121.26 134.78L121.56 134.66L121.26 134.78Z" fill="#602852"/>
<path d="M138.32 132.77L134.05 140.22L130.21 146.92L129.64 147.92L118.55 148.2V148.13L117.94 147.06V147L118.04 146.62L119.25 142.19L121.25 134.79C121.96 134.42 136.98 129.13 136.98 129.13L138.32 132.77Z" fill="#40403E"/>
<path d="M157.63 191.5L144 185.57L144.08 185.24L144.5 183.47L149.39 163.09L156.32 182.09L157.63 191.5Z" fill="#40403E"/>
<path d="M147.23 205.09C147.32 205.71 147.38 206.09 147.38 206.3C147.38 207.68 137.56 214.7 137.56 214.7L138.2 198.28V198.14L138.61 187.57L138.38 187.32V187L137.13 183L135.43 177.56L118.53 148.2V148.13C121.32 147.85 129.46 147.03 130.18 146.93C130.828 147.09 131.463 147.297 132.08 147.55C135.17 148.72 141.26 151.26 145.74 153.15L145.9 153.59L149.38 163.09L144.49 183.47L144.07 185.24L143.99 185.57L144.06 186L144.13 186.4C144.4 187.95 144.99 191.4 145.6 195.06C146.28 199 147 203.07 147.23 205.09Z" fill="#C7C6C1"/>
<path d="M147.23 205.09C147.32 205.71 147.38 206.09 147.38 206.3L147.19 205.12L145.64 195.56L144.16 186.4L144.09 186L144.02 185.57L157.63 191.5L158.2 195.7L147.23 205.09Z" fill="#5A5755"/>
<path d="M149.31 183L144.1 185.21L143.3 185.55L138.62 187.55L138.39 187.3V187L137.14 183C138.51 183.12 140.14 183.22 141.49 183.3L144.49 183.47L149.31 183Z" fill="#29272C"/>
<path d="M32.87 149.89L32.19 151.11C32.2098 151.155 32.2332 151.198 32.26 151.24C32.7 152.05 35.05 156.42 36.73 159.95C36.73 159.95 36.73 159.95 36.73 160L37.2 161L36.67 166V166.11C33.96 168.51 28.87 172.95 26.81 174.73L26.15 175.31C26.0896 175.355 26.0327 175.406 25.98 175.46L25.92 175.51L22 150.8C22.15 149.98 22.29 149.17 22.44 148.37L28.36 138.37L28.41 138.29L35.08 136.35L35.39 136.26L36.93 135.82H37H37.08H37.23L36.62 136.67L36.55 136.77L35.72 137.92L35.34 139.51L32.87 149.89Z" fill="#5A5755"/>
<path d="M22 150.8L25.92 175.55L17.74 181.63C18.04 176.99 18.3 172.92 18.3 172.29C18.3 171.96 18.61 170.03 19.08 167.22C19.83 163 21 156.7 22 150.8Z" fill="#40403E"/>
<path d="M28.43 138.25L28.38 138.33L22.46 148.33C23.81 140.91 24.96 134.64 24.96 134.64L28.43 138.25Z" fill="#C7C6C1"/>
<path d="M36.7 166V166.11L34.37 188.2L30.88 204.53L30.94 204.66L28.33 203.26L24.09 201L23.39 200.62L24.18 192.84L25.94 175.52L26 175.47C26.0527 175.416 26.1096 175.366 26.17 175.32L26.83 174.74C28.88 172.93 34 168.39 36.7 166Z" fill="#29272C"/>
<path d="M25.94 175.55L24.18 192.87L23.39 200.65L17.92 197.85L16.74 196.68C16.74 196.68 17.3 188.52 17.74 181.63C18.04 176.99 18.3 172.92 18.3 172.29C18.3 171.96 18.61 170.03 19.08 167.22C21.51 170.25 25.94 175.55 25.94 175.55Z" fill="#C7C6C1"/>
<path d="M161.37 198.65C161.638 200.72 161.605 202.819 161.27 204.88V204.88C161.08 205.1 156.52 211.37 150.14 218.39C145.08 223.97 140.54 228.86 140.45 228.58C140.24 227.95 135.07 214.4 135.07 214.4L137.19 213.58L145.86 206.26L158.2 195.7C158.2 195.7 157.94 195.35 158.73 194.53C159.52 193.71 161.37 198.65 161.37 198.65Z" fill="#29272C"/>
</svg>
