<svg width="168" height="480" viewBox="0 0 168 480" fill="none" xmlns="http://www.w3.org/2000/svg">
<path d="M91.72 43H91.67H90.55L86.55 43.07H85.95L81.38 43.15H80.05H78.75H78.65L78.47 43.21L78.03 43.4L77.47 43.64L75.13 44.7L74.78 44.86L74.32 45.08L74.08 45.19L73.73 45.35L71.33 43L64.42 42.76H63.79C63.91 43.3 65.62 49.07 65.62 49.07L68.19 55.56L72.49 62.28H83.32L91.03 53.17L91.1 53.1L91.87 52.2L91.92 52.14V51.95L91.72 43ZM80.6 49.1C80.91 49.17 85.03 50.35 85.03 50.35L69.86 50.27L71.48 49.1C71.48 49.1 80.29 49 80.6 49.1ZM71.92 52.74H81.39C81.39 52.74 79.3 55.23 79.06 55.15C78.82 55.07 73.44 55.15 73.44 55.15L71.92 52.74Z" fill="#E4B17B"/>
<path d="M68.7 0.789993L75.1599 2.59L82.8299 0.789993L97.7799 4.73L84.5699 8.02L72.5099 7.35001L68.7 0.789993Z" fill="#3E383E"/>
<path d="M164.58 219.34V219.77L154.89 218.71L166 168C166 168 167.41 189.67 167.78 190.36V190.51C167.94 193.1 164.58 219.34 164.58 219.34Z" fill="#827140"/>
<path d="M160.31 219.31L155.32 245.94L151.83 231.97L146.29 229.39L146.48 228.96L154.85 218.71L160.31 219.31Z" fill="#E4B37C"/>
<path d="M155.32 245.94L145.01 248.21L143.14 244.6L148.44 243.45L148.93 239.04L143.14 244.6L141.22 240.88L146.29 229.39L151.83 231.97L155.32 245.94Z" fill="#D1925E"/>
<path d="M167.6 246.2L162.56 250.14L145.01 248.21L155.32 245.94L167.6 246.2Z" fill="#9E6F5A"/>
<path d="M164.53 219.77L167.6 246.2L155.32 245.94L160.31 219.31L164.53 219.77Z" fill="#D1925E"/>
<path d="M141.68 80.84L130.22 98.32L110.1 84.6L124.73 76.28L124.95 76.38L141.68 80.84Z" fill="#F4A54B"/>
<path d="M98.72 65.68C93.72 67.85 80.8 74.82 79.39 75.26C79.32 75.26 79.28 75.26 79.27 75.26C79.01 75.08 72.8 69.97 69.27 67.26L78.44 70.79L97.54 60.69V64.82L98.72 65.68Z" fill="#D0A17F"/>
<path d="M97.54 54.69V60.69L78.44 70.79L69.27 67.26L70.33 61.73L72.14 63.92H83.44L97.54 54.69Z" fill="#BB865E"/>
<path d="M98.31 45.19L98.86 44.6L98.31 45.19L97.55 54.69L83.38 63.91L91.98 51.91C94.56 48.3148 96.7712 44.4686 98.58 40.43C98.73 40.05 98.31 45 98.31 45.19Z" fill="#966C54"/>
<path d="M91.92 52L83.38 63.93H72.08L70.27 61.74L68 55.84L65.64 49.26L63.1 42.68L64.41 42.75L66.25 49.1L68.82 55.59L72.5 62.31H83.33L91.92 52Z" fill="#C7915D"/>
<path d="M103.29 28.67L105.43 38.67L98.3101 45.24C98.3101 45.06 98.73 40.1 98.58 40.45C100.065 36.6847 101.05 32.7411 101.51 28.72L103.29 28.67Z" fill="#D0A17F"/>
<path d="M102.9 13.83L101.74 28.57L92.74 24.31L93.34 14.31L89 15.02L77.38 18.47L64.74 13.89L63.51 25.09L63.91 9.41C63.91 9.41 74.84 11.81 75.09 11.81C75.34 11.81 92.17 10.23 92.54 10.11C92.91 9.99 97.87 8.02001 98.15 7.74001L102.9 13.83Z" fill="#22201F"/>
<path d="M89 15.05L86.44 23.86C86.44 23.86 75.32 29.03 75.14 29.16C74.96 29.29 66.91 24.84 66.54 24.72C66.17 24.6 64.74 13.92 64.74 13.92L76.87 18.32L89 15.05Z" fill="#E4B17B"/>
<path d="M101.75 28.67L97.95 30.69L93.0199 32.18L90.2599 28.81L87.95 26L92.7799 24.31L101.74 28.57H101.72L101.75 28.67Z" fill="#FDE34F"/>
<path d="M98.26 30.51C98.26 30.51 93.57 39.39 92.16 42.15L91.91 42.62L91.75 42.91V42.96L78.75 43.18C78.46 43.18 73.75 45.4 73.75 45.4L71.33 43L64.79 42.74L63.1 42.67L65.05 38.28L71.92 40L73.29 33.19L64.09 29L63.28 25.49L63.55 25.13L74.85 31.35L88.08 26L90.28 28.69L76.91 33.58L78.07 40.03C78.35 40.03 90.46 39.54 90.66 39.47C90.86 39.4 93 32 93 32L98.26 30.51Z" fill="#FDE34F"/>
<path d="M73.29 33.18L71.92 39.99L71.39 33.5L64.09 28.99L73.29 33.18Z" fill="#572D83"/>
<path d="M65.05 38.27L63.1 42.66L60.85 33.73V28.67L63.27 25.48L64.09 28.99L62.34 32.48L63.95 38L65.05 38.27Z" fill="#FDE34F"/>
<path d="M90.28 28.65L80.1 33.31L78.07 39.99L76.91 33.54L90.28 28.65Z" fill="#572D83"/>
<path d="M101.75 28.67C101.51 29.02 101.23 34.67 98.8299 40.38L98.7199 40.64C96.5699 45.7 92.5999 50.72 92.0499 51.87C92.0499 51.87 91.9999 52.02 91.9799 52.06C91.9614 52.0963 91.9338 52.1273 91.8999 52.15L91.6799 42.94C91.6799 42.89 91.7699 42.79 91.8399 42.65L92.0899 42.18C93.5699 39.43 98.1899 30.54 98.1899 30.54L101.37 28.8L101.66 28.7L101.75 28.67Z" fill="#FDE34F"/>
<path d="M124 104.08L117.86 118.29C117.86 118.29 103.31 126.79 102.96 127.15C102.61 127.51 75.53 121.73 75.53 121.73L77.32 98.84L85.41 83L77.36 87.89C77.36 87.89 69.99 84.1 69.36 83.45L74.84 99.84L71.15 122.18L47.89 128.48L35.13 119.67L47.26 135L63.71 129L49.8 142.1L54 178.46C54 178.46 61.71 197.2 62.17 197.46C62.63 197.72 86.96 197.46 86.96 197.46L104.25 172.21L114.58 166.65C114.58 166.53 114.58 166.47 114.58 166.47L114.86 165.71V165.66L127.22 125.21L124 104.08ZM92.94 154.53L93.08 156.18L95.08 180.83L91.9 185.54H91.63L73.91 187.66V130.45L96.51 141.12L92.94 154.53ZM80.47 129.1C80.47 129.1 105.09 133.66 105.76 133.49C106.43 133.32 126.23 117.58 126.85 117.09L107.77 141.09L80.47 129.1Z" fill="#E7C053"/>
<path d="M126.85 117.09L107.77 141.09L80.47 129.09C80.47 129.09 105.09 133.65 105.76 133.48C106.43 133.31 126.23 117.58 126.85 117.09Z" fill="#827140"/>
<path d="M74.88 99.87L71.19 122.21L47.93 128.5L35.17 119.7L34.33 103.26L49.44 84.6L74.88 99.87Z" fill="#F3EB50"/>
<path d="M49.44 84.6L31.51 99.87L27.1 94.6L33.81 79.45L45.4 78.58L45.93 78.34C47.17 80.28 49.44 84.6 49.44 84.6Z" fill="#F4A54B"/>
<path d="M25.8101 119.23L25.86 119.09L27.1001 94.6L31.5101 99.87L35.1701 119.7L25.8101 119.23Z" fill="#E7C053"/>
<path d="M53.26 201.46L65.58 226.52L64.44 224.73L64 224L63.74 223.6L63.18 222.71L62.56 221.71L62.23 221.19L61.18 219.54L60 217.78L59.21 216.53L58.4 215.26L57.99 214.61L57.19 213.35L55.85 211.25L55.07 210.01L54.25 208.71C50.59 202.93 47.45 197.9 47.39 197.65L50.82 177C50.82 177 44.62 138.8 44.82 135.33C43.92 137.76 35.19 157.86 34.47 159.28L19 151.49L33.11 139.12L35.16 119.7L47.27 135L63.72 129L49.81 142.1L54 178.46L53.26 201.46Z" fill="#827140"/>
<path d="M19.02 151.49L17.81 178.98L7.41 213.42L1.38 209.98L12.62 163.68L19.02 151.49Z" fill="#F3EB50"/>
<path d="M34.43 159.41L32.73 173.11L13.15 213.68L7.41003 213.42L17.81 178.98L34.43 159.41Z" fill="#827140"/>
<path d="M12.1499 228.88L4.19995 241.93L0.949951 228.06L1.37994 209.98L7.40994 213.42L12.1499 228.88Z" fill="#D2935C"/>
<path d="M19.81 225.58L12.15 228.88L7.41003 213.42L13.15 213.68L19.69 225.23L19.81 225.58Z" fill="#E5B47E"/>
<path d="M23.17 235.47L20.56 238.09L12.15 228.88L19.81 225.58L23.17 235.47Z" fill="#CF975D"/>
<path d="M20.5599 238.09L18.45 242.06L17.7199 243.43L4.21994 242.01L4.19995 241.93L12.1499 228.88L20.5599 238.09Z" fill="#9D6D5F"/>
<path d="M119.19 191.1L96.47 211.77L86.74 226.54C86.24 225.87 108.27 194.2 107.74 193.7C107.21 193.2 104.25 172.25 104.25 172.25L114.58 166.69C114.81 168.81 119.04 189.75 119.04 190.58C119.079 190.756 119.129 190.93 119.19 191.1Z" fill="#827140"/>
<path d="M65.59 226.54L56 282.24L40.83 265.34L47.45 197.65C47.59 198.24 65.07 225.65 65.62 226.52L65.59 226.54Z" fill="#F3EB50"/>
<path d="M131.85 248L135.2 304.52C135.2 304.52 126.07 315.59 122.63 320.52C125.13 314.94 130.32 300.97 130.32 300.71C130.32 300.45 117.54 283.71 116.14 280.23C116.23 279.82 116.23 279.6 116.14 279.62C116.05 279.64 116.02 279.86 116.14 280.23C115.14 284.37 104.08 308.38 103.14 310.32L103.08 310.45C95.85 285.92 86.13 253.13 86.13 253.13L80.86 289.53C80.86 289.53 75.61 315.01 75.56 315.53C74.1597 317.008 72.5571 318.281 70.8 319.31C66.23 322.19 60.72 325.67 60.28 325.96C59.51 326.47 70.47 305.07 70.47 305.07L56 282.24L65.62 226.54C65.62 226.54 86.79 227.2 86.79 226.54L116.16 278.32L131.85 248Z" fill="#827140"/>
<path d="M55.9601 282.24L50.2301 314.82L40.8 265.34L55.9601 282.24Z" fill="#827140"/>
<path d="M73.89 337.91L62.09 352.23L46.53 327.89L49.75 316.48L50.01 315.58L50.23 314.82L56 282.24L70.5 305.1C70.5 305.1 59.5 326.5 60.31 325.99L75.6 315.56C75.82 314.91 73.89 337.91 73.89 337.91Z" fill="#FDC050"/>
<path d="M80.21 374.74L62.09 352.23L73.89 337.91L80.21 374.74Z" fill="#F4A54B"/>
<path d="M80.21 374.74L63.93 444.7L62.09 352.23L80.21 374.74Z" fill="#E7C053"/>
<path d="M52.51 419.5C52.51 419.5 50.28 358.5 50.06 357.83C49.84 357.16 46.53 328.55 46.53 327.89L62.09 352.23L63.93 444.7L52.51 419.5Z" fill="#827140"/>
<path d="M64.8 467.8L28 469.54C28 469.54 19.06 472.59 18.19 472.37C17.32 472.15 2.90002 470 2.90002 470L3.77002 464.55L22.83 465.37L40.4 466.13L57.19 462.43C57.19 462.43 64.35 460.59 64.57 460.65C64.7 464.63 64.8 467.8 64.8 467.8Z" fill="#827140"/>
<path d="M64.57 460.63C64.35 460.57 57.19 462.41 57.19 462.41L48.78 441.18L52.51 419.28L63.93 444.48C64 444.48 64.36 453.78 64.57 460.63Z" fill="#F3EB50"/>
<path d="M57.19 462.41L40.4 466.33L22.83 465.57L12.51 460.63L38.8 450.24L57.19 462.41Z" fill="#E7C053"/>
<path d="M22.83 465.57L3.77002 464.53L12.5 460.63H12.51L22.83 465.57Z" fill="#F4A54B"/>
<path d="M131.85 248L116.12 278.3C115.49 277.68 122.58 211.95 122.58 211.95C127.27 227.62 131.85 248 131.85 248Z" fill="#FDC050"/>
<path d="M135.19 304.56C135.19 304.56 134.3 305.64 132.97 307.28L132.16 308.28C131.55 309.03 130.89 309.85 130.16 310.72C129.9 311.04 129.63 311.37 129.37 311.72C129.11 312.07 128.85 312.36 128.6 312.72L127.6 313.94C126.7 315.08 125.81 316.23 124.99 317.29L124.18 318.36C124.152 318.407 124.119 318.451 124.08 318.49C123.68 319.02 123.32 319.49 122.98 319.98L122.64 320.46C122.607 320.498 122.577 320.538 122.55 320.58L122.61 320.45C123.08 319.39 123.61 318.04 124.25 316.56L124.81 315.17L124.87 315.03C125.27 314.03 125.68 312.98 126.08 311.93C126.21 311.61 126.33 311.3 126.45 310.99C126.75 310.21 127.05 309.44 127.33 308.68C127.61 307.92 127.83 307.37 128.06 306.76C128.29 306.15 128.43 305.76 128.59 305.34C128.75 304.92 128.86 304.64 128.98 304.34C129.1 304.04 129.18 303.78 129.28 303.52C129.87 301.92 130.28 300.87 130.28 300.8C130.28 300.57 117.5 283.8 116.1 280.32C116.1 280.4 116.1 280.49 116.03 280.58C116.017 280.644 116 280.708 115.98 280.77C115.98 280.85 115.93 280.94 115.9 281.03C115.87 281.12 115.78 281.41 115.7 281.63L115.58 281.97C115.58 282.09 115.49 282.21 115.45 282.34C115.41 282.47 115.35 282.59 115.31 282.72C115.27 282.85 115.2 282.99 115.15 283.13L114.86 283.89L114.74 284.17C114.74 284.31 114.63 284.46 114.57 284.6C114.33 285.21 114.07 285.85 113.79 286.53C113.72 286.7 113.65 286.87 113.57 287.04C113.49 287.21 113.46 287.3 113.4 287.44C113.34 287.58 113.24 287.83 113.15 288.03C112.77 288.92 112.38 289.86 111.96 290.81C111.83 291.13 111.69 291.45 111.55 291.81C111.41 292.13 111.27 292.46 111.12 292.81L109.81 295.81L109.05 297.53L108.21 299.4L107.39 301.21L106.68 302.79L106.16 303.93L104.58 307.4L104.24 308.12L104.04 308.56C103.99 308.68 103.93 308.79 103.88 308.9L103.78 309.12C103.64 309.42 103.52 309.67 103.43 309.88L103.3 310.17L103.2 310.38L103.15 310.49L103.09 310.62L118.31 327.85V327.9L121.31 349.66L136.42 334.83L135.19 304.56Z" fill="#FDC050"/>
<path d="M136.52 421.42L117 382.49C117 382.49 117 382.08 116.9 381.35C116.96 380.09 121.39 357.19 121.39 357.19L110.82 336.85C110.82 336.6 107.42 324.99 103.28 310.65L118.5 327.88L121.39 349.53L152.64 417.93L156.59 448.65L136.52 421.42Z" fill="#827140"/>
<path d="M121.35 357.16C121.35 357.16 116.92 380.06 116.86 381.32C116.27 374.32 110.78 337.41 110.78 336.82L121.35 357.16Z" fill="#F4A54B"/>
<path d="M152.6 417.9L121.35 349.5L136.46 334.67L147.11 368.35L152.6 417.9Z" fill="#E7C053"/>
<path d="M161.81 460.96L138.85 453.53L136.93 422.26L136.52 421.42L156.55 448.62L161.81 460.96Z" fill="#F4A54B"/>
<path d="M166.34 471.6L142.21 471.16C142.21 471.16 138.9 461.48 138.9 461.07V453.85V453.53L161.9 460.96L166.34 471.6Z" fill="#E7C053"/>
<path d="M167.88 475.21L154.37 479.57H142.37L136.71 472.57L138.89 461.45V461.04C138.89 461.45 142.2 471.13 142.2 471.13L166.33 471.57L167.88 475.21Z" fill="#827140"/>
<path d="M153.78 155.11C153.78 155.11 147.64 160.2 143.45 163.55C142.45 162.32 136.96 152.73 135.45 151.33C137.88 152.31 152.7 155 153.78 155.11Z" fill="#827140"/>
<path d="M154.84 218.71L145 181.58L143.64 163.74L143.5 163.55C147.69 160.2 153.83 155.11 153.83 155.11L154.84 218.71Z" fill="#F3EB50"/>
<path d="M165.97 167.99L154.85 218.71L153.78 155.11L165.97 167.99Z" fill="#E7C053"/>
<path d="M105.89 70.58L85.41 83L77.36 87.89C77.36 87.89 69.99 84.1 69.36 83.45V83.36C69.61 83.19 66.68 76.19 64.49 71.81L67.23 69.16L67.63 68.78C67.9 68.54 68.14 68.31 68.36 68.1C68.8 67.69 69.11 67.37 69.19 67.27C72.76 69.99 78.97 75.1 79.19 75.27C79.19 75.27 79.24 75.27 79.31 75.27C80.64 74.74 92.72 66.83 97.39 64.84L98.64 65.69L105.89 70.58Z" fill="#827140"/>
<path d="M74.8799 99.87L49.4399 84.6L69.3699 83.39L69.3999 83.48L74.8799 99.87Z" fill="#F3EB50"/>
<path d="M34.33 103.26L35.17 119.7L31.51 99.87L49.44 84.6L34.33 103.26Z" fill="#827140"/>
<path d="M33.13 139.13L19.02 151.49L20.93 132.39L25.81 119.23L35.17 119.7L33.13 139.13Z" fill="#F3EB50"/>
<path d="M34.4801 159.31L34.4301 159.41L17.8101 179L19.0001 151.49L34.4801 159.31Z" fill="#E7C053"/>
<path d="M18.45 242.06L7.41003 239.64L10.43 235.99L20.56 238.09L18.45 242.06Z" fill="#CF975D"/>
<path d="M110.1 84.6L77.27 98.84L85.41 83.03L110.1 84.6Z" fill="#F3EB50"/>
<path d="M124 104.08L117.86 118.29C117.86 118.29 103.31 126.79 102.96 127.15C102.61 127.51 75.53 121.73 75.53 121.73L77.32 98.84L110.1 84.6L124 104.08Z" fill="#F3EB50"/>
<path d="M148.93 239.04L148.44 243.45L143.14 244.6L148.93 239.04Z" fill="#9E6F5A"/>
<path d="M92.89 154.53L95.04 180.84L91.86 185.55L73.87 187.7V130.45L96.47 141.12L92.89 154.53Z" fill="#F3EB50"/>
<path d="M116.12 278.34L86.75 226.56L96.48 211.79L119.2 191.12C119.75 193.2 121.07 201.44 122.59 212.01C122.58 212 115.49 277.72 116.12 278.34Z" fill="#F3EB50"/>
<path d="M86.74 226.54C86.74 227.18 65.58 226.54 65.58 226.54L53.26 201.48L54.03 178.48C54.03 178.48 61.74 197.22 62.2 197.48C62.66 197.74 86.99 197.48 86.99 197.48L104.28 172.23C104.28 172.23 107.28 193.18 107.77 193.68C108.26 194.18 86.24 225.87 86.74 226.54Z" fill="#E7C053"/>
<path d="M93.3801 14.34L92.7801 24.34L88.08 25.99L74.8501 31.37L63.55 25.15L64.7801 13.95C64.7801 13.95 66.22 24.63 66.58 24.75C66.94 24.87 74.9901 29.31 75.1801 29.19C75.3701 29.07 86.4801 23.89 86.4801 23.89L89.0401 15.08L93.3801 14.34Z" fill="#C7915D"/>
<path d="M85.0001 50.35L82.5201 50.9L71.0701 50.63C71.0701 50.63 69.8701 50.26 69.8201 50.26L71.4401 49.1C71.4401 49.1 80.2501 49.04 80.5601 49.1C80.8701 49.16 85.0001 50.35 85.0001 50.35Z" fill="#8F5729"/>
<path d="M81.39 52.74C81.39 52.74 79.3 55.23 79.06 55.15C78.82 55.07 73.44 55.15 73.44 55.15L71.92 52.74H81.39Z" fill="#8F5729"/>
<path d="M93 32C93 32 90.82 39.34 90.62 39.41C90.42 39.48 78.31 39.97 78.03 39.97L80.03 33.29L90.21 28.63L93 32Z" fill="#FFFDFD" stroke="#231F20" stroke-linejoin="round"/>
<path d="M71.92 39.99L65.05 38.27L63.95 38L62.34 32.48L64.09 28.99L71.39 33.5L71.92 39.99Z" fill="#FFFDFD" stroke="#231F20" stroke-linejoin="round"/>
<path d="M78.41 43.25L91.23 44.51L91.93 52.13L91.72 42.96L78.72 43.18L78.41 43.25Z" fill="#6A3F26"/>
<path d="M102.91 13.83L90.29 12.9L75.18 15.29L65.06 12.63L63.96 9.44L65.36 6.89999L86 9.28999L97.74 4.73L102.91 13.83Z" fill="#22201F"/>
<path d="M75.46 28.53L76.91 25.98V27.76L75.46 28.53Z" fill="#A46A33"/>
<path d="M68.37 68.13C68.15 68.34 67.91 68.57 67.64 68.81L69.2 67.28C69.12 67.4 68.81 67.72 68.37 68.13Z" fill="#643090"/>
<path d="M69.37 83.39L49.44 84.6C49.44 84.6 47.72 81.32 46.44 79.18C46.25 78.86 46.07 78.57 45.91 78.32L49.29 76.32L49.42 76.24V76.3C52.73 75.91 60.01 75.3 60.01 75.3C61.5948 74.282 63.0901 73.1312 64.48 71.86C66.69 76.22 69.62 83.22 69.37 83.39Z" fill="#E7C053"/>
<path d="M49.44 76.25V79.14H46.44L33.79 79.39L47.73 76.48L49.44 76.25Z" fill="#827140"/>
<path d="M92.89 154.53L73.87 151.17L72.6 155.5L93.03 156.19L94.85 155.16L92.89 154.53Z" fill="#E7C053"/>
<path d="M53.26 201.46L65.58 226.52L64.44 224.73L64 224L63.74 223.6L63.18 222.71L62.56 221.71L62.23 221.19L61.18 219.54L60 217.78L59.21 216.53L58.4 215.26L57.99 214.61L57.19 213.35L55.85 211.25L55.07 210.01L54.25 208.71C50.59 202.93 47.45 197.9 47.39 197.65L50.82 177C50.82 177 44.62 138.8 44.82 135.33L35.17 119.67L47.27 135L63.72 129L49.81 142.1L54 178.46L53.26 201.46Z" fill="#827140"/>
<path d="M97.78 4.73V9.44L75.08 13.92L64 9.44L65.4 6.89999C66.77 4.40999 68.68 0.899993 68.74 0.789993C68.74 1.12999 75.85 5.53 75.85 5.53L79.68 3.10001L82.88 4.73H97.78Z" fill="#22201F"/>
<path d="M93.38 14.34C93.38 14.34 97.52 12.11 97.49 12.26C97.46 12.41 95.92 25.65 95.92 25.65L92.78 24.31L93.38 14.34Z" fill="#3E383E"/>
<path d="M102.3 30.9L104.44 38.27L101.45 41.7L102.3 30.9Z" fill="#AB8569"/>
<path d="M101.45 41.7L99.6 41.55L102.3 30.9L103.89 36.3L101.45 41.7Z" fill="#AB8569"/>
<path d="M76.91 17.7C76.91 17.52 66.91 10.19 66.91 10.19C66.91 10.19 68.55 1.54 68.74 1.79C68.93 2.04 75 9.25001 75 9.25001L76.91 17.7Z" fill="#3E383E"/>
<path d="M63.1 42.66L71.1 43.86C71.1 43.86 73.82 45.56 73.66 45.4L71.33 43L63.1 42.66Z" fill="#6A3F26"/>
<path d="M124.74 76.28L110.11 84.6L85.42 83.03L105.89 70.58L107.14 71.43L124.74 76.28Z" fill="#E7C053"/>
<path d="M123.95 104.08L123.9 125.29L114.61 166.69L127.89 124.81L123.95 104.08Z" fill="#F4A54B"/>
<path d="M71.28 137.78C71.62 138.63 70.6 150.09 70.6 150.09L59.38 150.81L61.75 140L71.28 137.78Z" fill="#F3EB50"/>
<path d="M103.18 310.32L103.12 310.45C95.89 285.92 86.17 253.13 86.17 253.13L80.9 289.53C80.9 289.53 75.65 315.01 75.6 315.53C74.1997 317.008 72.5971 318.281 70.84 319.31L77.05 299.1L85.18 249.89L78 246.58L75 238.09L81.47 243.48H89.39C89.39 243.48 91.18 251.79 91.64 252.63C92.1 253.47 102.3 305.82 103.18 310.32Z" fill="#F4A54B"/>
<path d="M38.8 450.24L48.8 441.18C48.8 441.18 57.8001 463.18 57.2201 462.63C56.6401 462.08 38.8 450.24 38.8 450.24Z" fill="#F4A54B"/>
<path d="M164.58 219.34V219.77L154.89 218.71L167.79 190.35V190.5C167.94 193.1 164.58 219.34 164.58 219.34Z" fill="#827140"/>
<path d="M72.5 62.29C72.63 62.15 74.4 59.18 74.4 59.18L79.56 58.91L83.33 62.29L76.13 63.23L72.5 62.29Z" fill="#C7915D"/>
<path d="M152.36 105.29V105.36L142.71 122.05L128.21 113.51L130.21 98.32L141.67 80.84L141.99 80.89L152.36 105.29Z" fill="#E7C053"/>
<path d="M135.93 127.23C135.93 127.23 134.73 149.93 135.12 151.09C134.46 151.02 127.67 126.33 127.67 126.33L122 105.48L110.41 84.6L130.25 98.26L128.58 113.42L142.71 122.05L135.93 127.23Z" fill="#827140"/>
<path d="M166 168L153.81 155.12L142.74 122.06L152.48 105.16C152.38 106.22 155.29 120.16 155.43 120.81C155.57 121.46 156.05 134.43 156.05 134.43C156.05 134.43 156.74 154.02 156.81 153.36C156.88 152.7 166 168 166 168Z" fill="#827140"/>
<path d="M153.78 155.11C152.7 154.99 137.88 152.31 135.44 151.33C135.357 151.227 135.251 151.145 135.13 151.09C134.74 149.93 135.94 127.23 135.94 127.23L142.72 122.05L153.78 155.11Z" fill="#F3EB50"/>
<path d="M47.76 76.51L49.44 76.25V76.31H49.31L47.75 76.5L47.76 76.51Z" fill="#662F8E"/>
<rect x="0.5" y="0.5" width="167" height="479" stroke="black"/>
</svg>
