<svg width="193" height="489" viewBox="0 0 193 489" fill="none" xmlns="http://www.w3.org/2000/svg">
<path d="M89.05 47.9999C89.9542 48.6861 90.6106 49.6478 90.92 50.7399C91.0278 51.4995 90.8801 52.2734 90.5 52.9399C90.1152 53.6023 89.6444 54.2109 89.1 54.7499C86.32 57.6499 82.73 59.9999 78.71 60.4399C77.9762 60.5509 77.2274 60.5101 76.51 60.3199C75.7234 60.0335 75.0312 59.5351 74.51 58.8799C74.0784 58.3567 73.7186 57.7783 73.44 57.1599C73.2965 56.7847 73.1261 56.4204 72.93 56.0699C72.26 55.0699 70.93 54.4999 70.32 53.4399C69.8329 52.3609 69.7203 51.1501 70 49.9999C70.0064 49.8447 70.051 49.6935 70.13 49.5599C70.2199 49.4638 70.3245 49.3828 70.44 49.3199C73.0071 48.0915 75.8532 47.5636 78.69 47.7899C81.5107 48.0146 84.3417 48.0847 87.17 47.9999C88.17 47.9199 89.26 47.8299 89.88 48.5599" fill="#C68651"/>
<path d="M95.89 43.8201L82.52 44.0401C82.22 44.0401 77.33 46.3101 77.33 46.3101L74.88 43.8501L64.88 43.5801L66.22 50.0601L68.7 56.6701L75.13 63.5201H87.25L99.15 53.2501L95.89 43.8201ZM82.89 56.2401C82.64 56.1601 77.1 56.2401 77.1 56.2401L75.53 53.7901H85.29C85.29 53.7901 83.09 56.3301 82.85 56.2401H82.89ZM73.41 51.2401L75.08 50.0501C75.08 50.0501 84.15 49.9801 84.47 50.0501C84.79 50.1201 89.04 51.3201 89.04 51.3201L73.41 51.2401Z" fill="#A6662F"/>
<path d="M72 0.819824L78.66 2.66982L86.57 0.819824L101.96 4.83981L88.35 8.19981L75.93 7.51982L72 0.819824Z" fill="#3E383E"/>
<path d="M189.44 216.75V217.2H174.34L186.5 162.59C186.5 162.59 191.77 185.78 192.22 186.44V186.59C192.72 189.21 189.44 216.75 189.44 216.75Z" fill="#7C4B20"/>
<path d="M184.09 217.2L178.9 244.75L173.75 230.98L167.78 228.99L167.92 228.53L174.34 217.2H184.09Z" fill="#A4682F"/>
<path d="M178.9 244.75L168.59 248.2L166.27 244.75L171.57 243V238.47L166.27 244.75L163.88 241.19L167.78 228.99L173.75 230.98L178.9 244.75Z" fill="#85491F"/>
<path d="M191.5 243.64L186.79 248.2H168.59L178.9 244.75L191.5 243.64Z" fill="#4B1D11"/>
<path d="M189.44 217.2L191.5 243.64L178.9 244.75L184.09 217.2H189.44Z" fill="#85491F"/>
<path d="M168 100V100.07L152 120.62L136.56 113.45V97.9002L155 80.2402L155.33 80.2903L168 100Z" fill="#EE4023"/>
<path d="M155.02 80.2399L136.54 97.8999L114.67 86.2699L129.75 76.1899L129.97 76.2899L155.02 80.2399Z" fill="#F8B517"/>
<path d="M105.09 66.8401C100.09 68.9701 83.21 76.9802 82.9 76.7702C82.59 76.5602 75.21 71.1902 71.53 68.4202L82 72.2001L105.73 61.9102L105.79 65.7601L105.09 66.8401Z" fill="#70411E"/>
<path d="M105.12 55.77L105.73 61.9L82 72.2L71.53 68.42L72.69 62.95L74.55 65.18H87.16L105.12 55.77Z" fill="#622F13"/>
<path d="M103.6 46.0901L104.17 45.4901L103.6 46.0901L105.12 55.7701L87.12 65.1701L99 53.2501C99.92 49.1461 101.198 45.1307 102.82 41.2501C103 40.8501 103.6 45.9101 103.6 46.0901Z" fill="#471E12"/>
<path d="M99 53.2498L87.15 65.1698H74.55L72.69 62.9398L68.34 56.9398L66.09 50.2298L64 43.5098L65.35 43.5798L66.69 50.0598L69.17 56.6698L74.96 63.5198H87.08L99 53.2498Z" fill="#78421B"/>
<path d="M109.86 29.25V39.39L103.6 46.09C103.6 45.91 102.95 40.85 102.8 41.21C105.35 35.21 107.93 29.21 108.02 29.21L109.86 29.25Z" fill="#70411E"/>
<path d="M108.28 14.1199L108.14 29.1199L97.85 24.7699L98.47 14.6099L94 15.3299L81 18.8499L68 14.1799L65.92 25.5999L67.14 9.59991C67.14 9.59991 78.41 12.0499 78.66 12.0499C78.91 12.0499 96.26 10.4399 96.66 10.3199C97.06 10.1999 102.15 8.1799 102.44 7.8999L108.28 14.1199Z" fill="#22201F"/>
<path d="M94 15.3602L91.36 24.3602C91.36 24.3602 78.87 29.6402 78.68 29.7702C78.49 29.9002 70.2 25.3602 69.82 25.2402C69.44 25.1202 67.97 14.2402 67.97 14.2402L80.47 18.7302L94 15.3602Z" fill="#A6662F"/>
<path d="M108.26 29.2498L102.14 31.3098L97.06 32.8298L94.22 29.3998L91.84 26.5298L97.85 24.7998L108.09 29.1498L108.26 29.2498Z" fill="#EE4023"/>
<path d="M102.47 31.1201C102.47 31.1201 97.64 40.1801 96.18 42.9901C96.08 43.1801 96 43.3401 95.92 43.4701L95.76 43.7601V43.8201L82.38 44.0401C82.08 44.0401 77.2 46.3101 77.2 46.3101L74.75 43.8501L65.75 43.5801L64 43.5101L68.25 39.0301L75.33 40.7901L76.74 33.8501L67.26 29.5701L65.61 26.0001L65.89 25.6401L78.35 32.0001L92 26.4801L94.27 29.2301L80.49 34.2301L81.68 40.8101C81.97 40.8101 94.45 40.3101 94.68 40.2401C94.91 40.1701 97.13 32.6801 97.13 32.6801L102.47 31.1201Z" fill="#EE4023"/>
<path d="M76.74 33.8398L75.33 40.7898L74.78 34.1698L67.26 29.5698L76.74 33.8398Z" fill="#EE4023"/>
<path d="M68.25 39.03L64 43.51L63.11 34.41V29.25L65.61 26L67.26 29.57L65.45 33.13L67.11 38.76L68.25 39.03Z" fill="#EE4023"/>
<path d="M94.25 29.23L83.75 33.98L81.66 40.79L80.47 34.21L94.25 29.23Z" fill="#EE4023"/>
<path d="M108.26 29.25C108.01 29.6 105.52 35.38 103.05 41.19C103.05 41.28 102.98 41.36 102.93 41.45C100.72 46.61 99.6699 51.81 99.0999 52.99C99.0999 52.99 99.0999 53.14 99.0299 53.18C99.0114 53.2163 98.9838 53.2473 98.95 53.27L95.6799 43.8V43.75L95.8499 43.45L96.0999 42.97C97.6299 40.17 102.39 31.1 102.39 31.1L107.87 29.33L108.17 29.23L108.26 29.25Z" fill="#EE4023"/>
<path d="M99.15 184.39L95.87 189.19L77.33 191.38V133L100.62 143.88L96.93 157.55L99.15 184.39ZM84.15 131.64C84.15 131.64 109.52 136.28 110.21 136.11C110.9 135.94 131.3 119.89 131.94 119.39L112.28 143.89L84.15 131.64ZM139.45 134.48L129 106.13L122.67 120.62C122.67 120.62 107.67 129.28 107.31 129.62C106.95 129.96 78.74 125.62 78.74 125.62L80.14 99.7502L89.28 84.6602L80.99 89.6602C80.99 89.6602 73.39 85.8002 72.78 85.1402L78.58 100.59L74.47 125.87L50.66 133.54L33.66 122.43L49.99 137.68L66.94 131.59L52.61 144.9L54.91 180C54.91 180 64.84 201.06 65.31 201.37C65.78 201.68 90.86 201.37 90.86 201.37L108.68 175.63L126.68 168.32C126.68 168.19 126.68 168.13 126.68 168.13L127.22 166.72L139.45 134.48Z" fill="#EE4023"/>
<path d="M131.93 119.39L112.27 143.89L84.14 131.64C84.14 131.64 109.51 136.28 110.2 136.11C110.89 135.94 131.29 119.89 131.93 119.39Z" fill="#7C4B20"/>
<path d="M78.53 100.58L74.42 125.86L50.6 133.52L33.58 122.42L36.59 105.29L50.56 86.27L78.53 100.58Z" fill="#F8B517"/>
<path d="M50.56 86.2701L31.31 101.84L17.17 95.4601L31.31 80.3601L48 80.1301L48.54 79.8901C49.82 81.8601 50.56 86.2701 50.56 86.2701Z" fill="#F8B517"/>
<path d="M19.84 121.64L19.89 121.5L17.17 95.46L31.31 101.84L33.58 122.42L19.84 121.64Z" fill="#EE4023"/>
<path d="M53.58 205.41L66.27 231L65.1 229.17L64.61 228.42L64.34 228.01L63.77 227.1L63.13 226.1L62.79 225.57L61.71 223.89L60.54 222.08L59.73 220.8L58.89 219.51L58.47 218.84L57.65 217.56L56.27 215.42L55.46 214.15L54.62 212.83C50.85 206.94 40.98 202.11 40.92 201.83L50 179.26C50 179.26 47.72 145.04 47.94 141.5C47.65 142.27 46.62 144.43 45.31 147.1C45.22 147.67 43.81 155.79 43.66 156.1C43.51 156.41 38.24 162.7 38.24 162.7L15.24 152.37L38.48 143.88L33.57 122.41L49.9 137.66L66.85 131.57L52.52 144.88L54.91 180L53.58 205.41Z" fill="#7C4B20"/>
<path d="M15.26 152.38L19.57 182.49L8.85001 217.6L1.25 214.09L7.09 163.45L15.26 152.38Z" fill="#F8B517"/>
<path d="M38.18 162.81L37.46 176.5L15.69 217.87L8.84998 217.6L19.57 182.49L38.18 162.81Z" fill="#7C4B20"/>
<path d="M13.73 233.36L4.17996 246.67L0.829956 232.53L1.24997 214.09L8.84998 217.6L13.73 233.36Z" fill="#874A20"/>
<path d="M22.52 230L13.73 233.36L8.84998 217.6L15.69 217.87L22.4 229.64L22.52 230Z" fill="#A76931"/>
<path d="M25.99 240.08L22.4 242.75L13.73 233.36L22.52 230L25.99 240.08Z" fill="#804A1F"/>
<path d="M22.3999 242.75L20.2299 246.8L19.4699 248.2L4.19995 246.75L4.17993 246.67L13.7299 233.36L22.3999 242.75Z" fill="#471914"/>
<path d="M129.24 192.44L100.62 215.92L90.6 231C90.08 230.31 112.78 198 112.27 197.52C111.76 197.04 108.67 175.65 108.67 175.65L126.67 168.34C126.91 170.5 129.12 191.08 129.12 191.93C129.148 192.102 129.188 192.273 129.24 192.44Z" fill="#7C4B20"/>
<path d="M66.28 231L58.88 287.78L30 267.19L40.9 201.83C41.04 202.43 65.67 230.08 66.24 230.96L66.28 231Z" fill="#F8B517"/>
<path d="M146.22 250.15L140.53 310.52C140.53 310.52 131.12 321.8 127.53 326.79C130.11 321.1 135.46 306.86 135.46 306.59C135.46 306.32 122.29 289.21 120.84 285.71C120.94 285.3 120.94 285.07 120.84 285.09C120.74 285.11 120.72 285.34 120.84 285.71C119.84 289.93 102.67 316.55 101.74 318.52L101.68 318.66C94.2301 293.66 89.9601 258.09 89.9601 258.09L86.5901 295.18C86.5901 295.18 80.5901 321.07 80.5201 321.63C80.5201 321.63 77.6101 323.46 74.1601 325.63C69.4501 328.56 63.7801 332.11 63.3201 332.41C62.5301 332.93 73.8201 311.11 73.8201 311.11L58.8201 287.8L66.2201 231.02C66.2201 231.02 90.55 231.69 90.55 231.02L120.81 283.81L146.22 250.15Z" fill="#7C4B20"/>
<path d="M58.88 287.76L43.14 321.86L30.03 267.19L58.88 287.76Z" fill="#7C4B20"/>
<path d="M80.12 344.52L65.2 359.12L40.46 335.18L42.64 323.55L42.91 322.63L43.14 321.86L58.88 287.76L73.88 311.07C73.88 311.07 62.59 332.89 63.38 332.37C64.17 331.85 80.58 321.63 80.58 321.63C80.79 321 80.12 344.52 80.12 344.52Z" fill="#EE4023"/>
<path d="M86.6299 382.07L65.2 359.12L80.1199 344.52L86.6299 382.07Z" fill="#F4831F"/>
<path d="M67.7599 452.91C67.7599 452.91 67.9799 451.37 68.3599 448.77L67.0999 453.39L65.2 359.12L83.4399 402.57L67.7599 452.91Z" fill="#F4831F"/>
<path d="M49.4 426.2C49.4 426.2 49.57 365.4 49.4 364.74C49.23 364.08 40.51 335.85 40.51 335.18L65.25 359.12L67.14 453.39L49.4 426.2Z" fill="#7C4B20"/>
<path d="M68 476.94L30 478.72C30 478.72 20.78 481.83 19.89 481.6C19 481.37 4.16003 479.16 4.16003 479.16L5.06003 473.61L24.7 474.44L42.8 475.22L60.11 471.45C60.11 471.45 67.48 469.57 67.71 469.63C67.89 473.71 68 476.94 68 476.94Z" fill="#7C4B20"/>
<path d="M67.75 469.63C67.52 469.57 60.15 471.45 60.15 471.45L51.48 449.81L49.4 426L67.09 453.19C67.21 453.17 67.54 462.65 67.75 469.63Z" fill="#EE4023"/>
<path d="M60.15 471.45L42.85 475.44L24.74 474.67L14.11 469.63L41.19 459.04L60.15 471.45Z" fill="#F4831F"/>
<path d="M24.74 474.67L5.09998 473.61L14.1 469.63H14.11L24.74 474.67Z" fill="#EE4023"/>
<path d="M146.22 250.15L120.87 283.79C120.22 283.15 137.96 211.31 137.96 211.31C142.79 227.25 146.22 250.15 146.22 250.15Z" fill="#EE4023"/>
<path d="M140.52 310.52C140.52 310.52 131.12 321.8 127.57 326.79C130.15 321.1 135.5 306.86 135.5 306.59C135.5 306.32 122.33 289.21 120.88 285.71C119.88 290.12 101.72 318.71 101.72 318.71L123.15 334.14L126.26 356.38L143.67 339.45L140.52 310.52Z" fill="#EE4023"/>
<path d="M139.2 429.65L116.54 388.74C116.54 388.74 116.54 388.33 116.44 387.58C116.5 386.3 126.26 364.18 126.26 364.18L112.14 345.65C112.14 345.39 107.28 333.6 101.84 318.88L123.27 334.31L126.27 356.37L160.85 425.27L162.54 457.43L139.2 429.65Z" fill="#7C4B20"/>
<path d="M126.26 364.14C126.26 364.14 116.5 386.26 116.44 387.54C115.83 380.45 112.14 346.21 112.14 345.61L126.26 364.14Z" fill="#F4831F"/>
<path d="M160.85 425.23L126.26 356.34L143.67 339.4L158.27 376.06L160.85 425.23Z" fill="#F4831F"/>
<path d="M167.95 469.97L144.3 462.39L139.63 430.5L139.2 429.65L162.54 457.39L167.95 469.97Z" fill="#EE4023"/>
<path d="M172.62 480.82L147.76 480.37C147.76 480.37 144.35 470.5 144.35 470.08V462.72L144.3 462.39L168 470L172.62 480.82Z" fill="#F8B517"/>
<path d="M174.21 484.5L160.29 488.94H147.93L142.1 481.84L144.35 470.5V470.08C144.35 470.5 147.76 480.37 147.76 480.37L172.62 480.82L174.21 484.5Z" fill="#7C4B20"/>
<path d="M186.5 162.59L167.06 152.87L152 120.62L168 100.08C168 101.17 167.78 115.58 168 116.21C168.22 116.84 172.38 131.66 172.38 131.66C172.38 131.66 177.88 150.11 177.88 149.44C177.88 148.77 186.5 162.59 186.5 162.59Z" fill="#7C4B20"/>
<path d="M167.06 152.87C167.06 152.87 158.91 160.37 155 164.23C153.85 163.09 144.93 155.39 143.21 154.14C145.82 154.86 165.94 152.87 167.06 152.87Z" fill="#7C4B20"/>
<path d="M174.34 217.2L157.43 185L155.16 164.36L155 164.19C158.91 160.33 167.06 152.83 167.06 152.83L174.34 217.2Z" fill="#F4831F"/>
<path d="M186.5 162.59L174.34 217.2L167.06 152.87L186.5 162.59Z" fill="#EE4023"/>
<path d="M113 70.3502L89.21 84.6702L80.91 89.6702C80.91 89.6702 73.32 85.8101 72.71 85.1501V85.0501C72.97 84.8801 69.34 77.6301 67.08 73.1801C67.3 72.9801 71.42 68.5801 71.5 68.4801C75.18 71.2501 82.6 76.6402 82.87 76.8302C83.14 77.0202 100.7 66.8302 105.74 64.6602L113 70.3502Z" fill="#7C4B20"/>
<path d="M78.5301 100.58L50.5601 86.2698L72.7001 85.0298L72.7301 85.1298L78.5301 100.58Z" fill="#F8B517"/>
<path d="M36.5901 105.29L33.58 122.42L31.3101 101.84L50.5601 86.27L36.5901 105.29Z" fill="#7C4B20"/>
<path d="M38.5001 143.89L15.2601 152.38L15.05 133.75L19.8401 121.64L33.58 122.42L38.5001 143.89Z" fill="#F8B517"/>
<path d="M38.23 162.71C38.2159 162.746 38.1956 162.78 38.17 162.81L19.57 182.49L15.26 152.38L38.23 162.71Z" fill="#EE4023"/>
<path d="M20.23 246.8L7.48999 244.33L11.96 240.61L22.4 242.75" fill="#804A1F"/>
<path d="M114.67 86.2699L80.08 99.7599L89.23 84.6699L114.67 86.2699Z" fill="#F8B517"/>
<path d="M128.94 106.13L125.11 121.4C125.11 121.4 109.32 131.29 108.96 131.66C108.6 132.03 78.6799 125.66 78.6799 125.66L80.0799 99.7898L114.67 86.2998L128.94 106.13Z" fill="#F8B517"/>
<path d="M167.06 152.87C165.94 152.87 145.82 154.87 143.21 154.14C143.04 154 142.93 153.93 142.86 153.93C142.34 152.8 145.63 126.62 145.63 126.62L151.99 120.62L167.06 152.87Z" fill="#F8B517"/>
<path d="M171.57 238.47V243L166.27 244.75L171.57 238.47Z" fill="#4B1D11"/>
<path d="M120.87 283.79L90.61 231L100.61 215.94L129.23 192.46C129.79 194.58 134.39 202.1 137.95 211.33C138 211.31 120.22 283.15 120.87 283.79Z" fill="#F8B517"/>
<path d="M90.6001 231C90.6001 231.65 66.2701 231 66.2701 231L53.5701 205.45L54.9001 180C54.9001 180 64.8401 201.06 65.3101 201.37C65.7801 201.68 90.8501 201.37 90.8501 201.37L108.67 175.63C108.67 175.63 111.75 196.99 112.27 197.5C112.79 198.01 90.0801 230.29 90.6001 231Z" fill="#EE4023"/>
<path d="M98.47 14.64L97.85 24.8L92 26.4799L78.35 32L65.89 25.66L68 14.21C68 14.21 69.48 25.1 69.85 25.21C70.22 25.32 78.51 29.86 78.71 29.74C78.91 29.62 91.39 24.33 91.39 24.33L94.03 15.33L98.47 14.64Z" fill="#83491F"/>
<path d="M89 51.3499L86.45 51.9099L74.65 51.6399C74.65 51.6399 73.42 51.2699 73.37 51.2699L75.04 50.0799C75.04 50.0799 84.11 50.0099 84.43 50.0799C84.75 50.1499 89 51.3499 89 51.3499Z" fill="#8F5729"/>
<path d="M85.25 53.79C85.25 53.79 83.09 56.3301 82.85 56.2401C82.61 56.1501 77.06 56.2401 77.06 56.2401L75.49 53.79H85.25Z" fill="#8F5729"/>
<path d="M97.09 32.66C97.09 32.66 94.84 40.15 94.64 40.22C94.44 40.29 81.95 40.79 81.64 40.79L83.73 33.98L94.23 29.23L97.09 32.66Z" fill="#FFFDFD" stroke="#231F20" stroke-linejoin="round"/>
<path d="M75.3299 40.7898L68.2499 39.0298L67.1099 38.7598L65.45 33.1298L67.2599 29.5698L74.7799 34.1698L75.3299 40.7898Z" fill="#FFFDFD" stroke="#231F20" stroke-linejoin="round"/>
<path d="M82 44.1198L95.21 45.3998L98.97 53.2498L95.72 43.8198L82.32 44.0398" fill="#6A3F26"/>
<path d="M108.28 14.12L95.28 13.12L78.68 15.56L68.25 12.84L67.11 9.59004L68.56 7.00005L89.87 9.44005L101.97 4.79004L108.28 14.12Z" fill="#22201F"/>
<path d="M76.08 27.8799C76.8447 28.3427 77.6361 28.7601 78.45 29.1299C78.2362 27.4858 77.9392 25.8537 77.56 24.2399C77.1599 23.8931 76.7948 23.5079 76.47 23.0898L76.08 27.8799Z" fill="#83491F"/>
<path d="M78.97 29.11L80.47 26.5V28.32L78.97 29.11Z" fill="#83491F"/>
<path d="M72.7001 84.9998L50.5601 86.2398C49.7631 83.6924 48.7598 81.2142 47.5601 78.8298L64.8101 69.3398L71.4801 68.3398C71.4001 68.4398 67.2801 72.8398 67.0601 73.0398C69.3301 77.6098 73.0001 84.8598 72.7001 84.9998Z" fill="#EE4023"/>
<path d="M51.6301 76.6401L31.3101 80.3401L52.1601 80.7001L51.6301 76.6401Z" fill="#EE4023"/>
<path d="M172.42 131.66L167.06 131.01L168.06 116.21C168.26 116.88 172.42 131.66 172.42 131.66Z" fill="#F8B517"/>
<path d="M66.24 230.91L41 201.89L40.94 201.83L50 179.26C50 179.26 44.72 146.07 44.94 142.53L33.59 122.42L49.92 137.67L66.87 131.58L52.54 144.89L54.91 180L53.58 205.41L66.21 230.84L66.24 230.91Z" fill="#7C4B20"/>
<path d="M96.94 157.56L99.15 184.38L95.88 189.19L95.6 189.22L89.46 197.92L77.34 198.85V133.01L100.63 143.89L96.94 157.56Z" fill="#F8B517"/>
<path d="M102 4.83981L103 9.63982L79.6 14.2098L67.11 9.63982L68.56 7.04982C69.97 4.50982 71.94 0.989824 72 0.819824C72 1.16982 79.33 5.65982 79.33 5.65982L83.27 3.17981L86.57 4.83981H102Z" fill="#22201F"/>
<path d="M98.47 14.6398C98.47 14.6398 102.74 12.3698 102.7 12.5198C102.66 12.6698 100.05 25.7298 100.05 25.7298L97.85 24.7998L98.47 14.6398Z" fill="#3E383E"/>
<path d="M108.83 31.52V39.04L105.75 42.54L108.83 31.52Z" fill="#5C3412"/>
<path d="M105.75 42.54L103.85 42.38L108.83 31.52L108.26 37.03L105.75 42.54Z" fill="#5C3412"/>
<path d="M80.47 18.0699C80.47 17.8799 70.12 10.4099 70.12 10.4099C70.12 10.4099 71.81 1.58988 72 1.84988C72.19 2.10988 78.45 9.44987 78.45 9.44987L80.47 18.0699Z" fill="#3E383E"/>
<path d="M64 43.5098L74.53 44.7398C74.53 44.7398 77.33 46.4698 77.17 46.3098L74.72 43.8498L64 43.5098Z" fill="#6A3F26"/>
<path d="M129.75 76.1901L114.67 86.2701L89.23 84.6701L111.39 71.3301L105.77 64.6001L113.96 67.6401L129.75 76.1901Z" fill="#EE4023"/>
<path d="M130 135.35C129.82 135.77 117.19 145.69 117.19 145.69L116.31 152.03L130 135.35Z" fill="#7C4B20"/>
<path d="M129.24 142.53C129.1 142.97 118.24 155.6 118.24 155.6L117.9 161L129.24 142.53Z" fill="#7C4B20"/>
<path d="M127.5 165.89L126.67 168.32L127.18 166.72L127.5 165.89Z" fill="#A02889"/>
<path d="M75.7699 137.22C76.1999 138.32 74.9299 153.14 74.9299 153.14L60.9299 154.07L63.8799 140.07L75.7699 137.22Z" fill="#F8B517"/>
<path d="M74.3 165.11L73.88 190.79L60.13 186.96L62.5 167.45L74.3 165.11Z" fill="#F8B517"/>
<path d="M101.78 318.52L101.72 318.66C94.2699 293.66 90.8499 263.57 90.8499 263.57L86.6299 295.18C86.6299 295.18 80.6299 321.07 80.5599 321.63C80.5599 321.63 77.65 323.46 74.2 325.63L80.5999 305L88.9999 254.81L81.2699 252.57L77.7899 245.92L83.5599 250.01L90.89 249.71C90.89 249.71 95.1399 256.71 95.6199 257.58C96.0999 258.45 100.88 313.94 101.78 318.52Z" fill="#F4831F"/>
<path d="M41.1899 459L51.4799 449.77C51.4799 449.77 60.7099 472.21 60.1599 471.63C59.6099 471.05 41.1899 459 41.1899 459Z" fill="#DC5526"/>
<path d="M189.44 216.75V217.2H174.34L192.22 186.44V186.59C192.72 189.21 189.44 216.75 189.44 216.75Z" fill="#F8B517"/>
<path d="M75 63.5201C75.14 63.3801 77 60.3601 77 60.3601L83.27 60.0801L87.16 63.5201L79.74 64.5201L75 63.5201Z" fill="#78421B"/>
<path d="M140.76 133.01L136.54 148.42L126.67 168.32L127.5 165.89L127.18 166.72L134.23 143.09L135.1 128.38L128.94 106.13L139.4 126.1L140.76 133.01Z" fill="#F4831F"/>
<path d="M86.6299 382.07L83.4399 402.57L65.2 359.12L86.6299 382.07Z" fill="#F4831F"/>
<path d="M145.62 126.62C145.62 126.62 142.33 152.8 142.85 153.93C142.17 153.93 138.85 125.15 138.85 125.15L125.85 109.4L114.67 86.27L136.54 97.9V113.45L152 120.62L145.62 126.62Z" fill="#7C4B20"/>
<path d="M74.3 155.1V163.49L62.28 164.23L67.21 156.15L74.3 155.1Z" fill="#F8B517"/>
<path d="M104.47 147.46C104.47 147.46 100.7 156.25 101.15 156.7C101.6 157.15 106.43 171 106.43 171L108.03 156.7L104.47 147.46Z" fill="#7C4B20"/>
<path d="M96.94 157.56L77.33 154.14L76.03 158.56L97.07 159.25L98.95 158.21L96.94 157.56Z" fill="#EE4023"/>
<path d="M100.05 171.75C100.37 171.64 100.46 175.63 100.46 175.63L75.86 168.32V163.69C75.86 163.69 99.73 171.86 100.05 171.75Z" fill="#EE4023"/>
</svg>
