<svg width="169" height="517" viewBox="0 0 169 517" fill="none" xmlns="http://www.w3.org/2000/svg">
<path d="M36.32 142.61C35.6517 142.076 35.1203 141.39 34.77 140.61C34.5293 139.681 34.636 138.696 35.07 137.84C35.8077 136.297 36.9697 134.996 38.42 134.09C39.8639 133.2 41.4306 132.526 43.07 132.09C46.2503 131.086 49.6028 130.746 52.92 131.09C54.0951 131.198 55.2371 131.538 56.28 132.09C57.4271 132.827 58.3366 133.88 58.899 135.122C59.4615 136.364 59.6528 137.742 59.45 139.09C58.9796 141.806 57.483 144.237 55.27 145.88" fill="#A1A0A0"/>
<path d="M117.63 142.23C117.235 143.542 116.482 144.718 115.456 145.626C114.43 146.534 113.17 147.138 111.82 147.37C111.011 147.54 110.168 147.442 109.42 147.09C108.398 146.369 107.67 145.304 107.37 144.09C106.036 140.972 105.112 137.695 104.62 134.34C104.388 133.056 104.574 131.731 105.15 130.56C105.609 129.873 106.246 129.324 106.992 128.972C107.739 128.62 108.568 128.477 109.39 128.56C111.032 128.759 112.585 129.417 113.87 130.46C116.285 132.277 118.159 134.718 119.29 137.52C119.56 138.2 119.94 139.01 120.67 139.06" fill="#A1A0A0"/>
<path d="M106 164.68C108.844 161.69 111.206 158.276 113 154.56C113.441 153.748 113.735 152.864 113.87 151.95C113.933 151.492 113.894 151.026 113.756 150.585C113.617 150.144 113.383 149.74 113.07 149.4C112.522 148.927 111.841 148.636 111.12 148.57C109.77 148.427 108.405 148.581 107.12 149.02C104.763 149.731 102.583 150.932 100.722 152.544C98.8617 154.156 97.363 156.144 96.3244 158.376C95.2858 160.608 94.7306 163.034 94.6954 165.496C94.6602 167.958 95.1456 170.399 96.12 172.66C96.2575 173.081 96.5146 173.453 96.8599 173.73C97.2026 173.891 97.5792 173.966 97.9573 173.948C98.3354 173.931 98.7036 173.822 99.03 173.63C105.89 170.68 103.63 171.63 105.38 169.43" fill="#5A5755"/>
<path d="M126.65 99.1099L113.3 105.24L111.72 105.16L119.86 91.0699L112.58 52.1899L107.42 67.1399L104.81 69.1399V58.1899L101.35 43.6499L98.8 32.9999L97.4801 27.4199L75.7701 33.7399L59.6701 26.3199L55.6701 32.2699C55.6701 32.2699 55.6701 34.8999 55.6701 37.9099C55.0401 40.4399 53.3901 47.1399 53.3901 47.8499C53.3901 48.7399 54.5201 63.0199 54.8901 63.7599C55.2601 64.4999 50.2801 74.5199 50.2801 74.5199L55.9101 70.6899L59.7101 64.0899L62.2001 73.4199L66.4401 80.7199V100.98L55.6401 105.19L54.9601 104.95L43.8701 101.18L40.55 63.1799L46.55 26.3199L61.55 5.66992L80.0001 0.669922L103.49 7.66992L117.92 33.6699L121 54.8199L117.58 57.8799L125.65 86.6599L126.65 99.1099Z" fill="#F9DE2B"/>
<path d="M53.3399 47L46.6899 61.27L45.5999 58.13L43.6899 66L50.9399 103.6C50.9399 103.6 60.1499 96.49 60.7899 95.6C61.4299 94.71 59.14 70.93 59.14 70.93L56.4799 55.16L53.3399 47Z" fill="#97712D"/>
<path d="M52.9999 72.65L53.9999 80.71L52.1999 85.22L50.8999 103.55C50.8999 103.55 62.1299 110.7 62.4299 110.55C62.7299 110.4 70.4299 107.34 70.5899 106.94C70.7499 106.54 74.5899 96.21 74.4699 94.6C74.3499 92.99 74.5999 79.02 74.0299 78.69C73.4599 78.36 67.2499 72.33 66.8399 72.03C66.4299 71.73 62.7299 63.11 62.7299 63.11L59.2899 61L52.9999 72.65Z" fill="#97712D"/>
<path d="M96.45 80.52L96.24 83.8999L78.7 101.16L79 122.6L69 127.42L45.12 118.09C45.12 118.09 44.8 115.09 45.12 114.66L55.02 104.96L55.7 105.2L66.5 100.99V80.7299L62.26 73.4299L59.77 64.1V63.84L58.77 58.47L58.07 55.96L60.9 59.14C60.9 59.14 73.72 63.14 74.18 63.14C74.64 63.14 78.18 67.14 78.18 67.14V73.88L70.76 72.49L73.87 77.35L78.18 78.74V88.6799H83.31L96.45 80.52Z" fill="#DE9159"/>
<path d="M75.7699 33.72L71.9999 35.2401L71.6499 39.87L55.6799 32.25L59.67 26.3L75.7699 33.72Z" fill="#C7C6C1"/>
<path d="M98.8 32.9799L83.63 39.8799L82.28 40.4999L81.66 35.9099L75.77 33.7199L97.48 27.3999L98.8 32.9799Z" fill="#C7C6C1"/>
<path d="M101.35 43.65L95.0001 40.5C95.0001 40.5 81.4301 49.25 81.0001 49.57C80.5701 49.89 83.5601 39.89 83.5601 39.89L98.8001 33L101.35 43.65Z" fill="#29272C"/>
<path d="M101.35 43.6499L94.9999 40.4999C94.9999 40.4999 81.4299 49.2499 80.9999 49.5699C80.5699 49.8899 83.5599 39.8899 83.5599 39.8899L82.2099 40.4999L76.9099 48.7599L77.6999 54.6199L77.5099 63.8099L82.2099 62.8099L101.43 56.6299L104.74 58.2099L101.35 43.6499ZM78.3499 61.5399L79.5999 55.9299L81.9899 61.5399H78.3499ZM101.35 50.9099L92.9699 56.6099L82.2799 51.9999C82.9099 51.9999 95.8499 43.1599 95.8499 43.1599L101.35 47.6699V50.9099Z" fill="#5A5755"/>
<path d="M74.1 63.1801C73.63 63.1801 60.82 59.1301 60.82 59.1301L58 56.0001C57.0754 52.9022 56.3143 49.7579 55.72 46.5801C55.72 45.8901 55.72 41.6301 55.72 37.9501C55.72 34.9501 55.72 32.3101 55.72 32.3101L60.72 42.6001L60.9 43.2501L61.08 43.8401L57.15 48.4401L64.23 56.6701L64.89 56.3101L74.1 63.1801Z" fill="#5A5755"/>
<path d="M149.22 194.7L149.48 207.88L139.65 216.28L140.72 189.15L132.79 180.45L121.53 152.28L123.24 136.39C123.95 136.01 143.38 127.49 143.38 127.49L131.74 149.49C131.74 149.49 145.3 188.1 146.12 187.14C146.94 186.18 153.33 192.14 153.33 192.14L149.22 194.7Z" fill="#DC9159"/>
<path d="M24 163.83L25.79 199.2C25.79 199.2 23.23 193.97 23.1 194.33C22.97 194.69 23.1 200.65 23.1 202.45L13.46 198.25C13.46 198.25 15.5399 175.97 15.5399 174.41C15.5399 172.85 19.38 136 19.38 136L27.2099 140.32L33.91 138.32L24 163.83Z" fill="#DC9159"/>
<path d="M163.13 195.9L148 208.59L147.74 195.41L151.85 192.88C151.85 192.88 145.46 186.88 144.64 187.88C143.82 188.88 130.26 150.23 130.26 150.23L143.47 127.52L162.59 182.78L163.13 195.9Z" fill="#F1B280"/>
<path d="M108.14 111.5C108.912 113.113 109.767 114.685 110.7 116.21L71.57 128.47L69.01 127.47L79.01 122.65L78.72 101.21L96.26 83.95L97.04 100.02L111.74 105.21L113.33 105.29L108.14 111.5Z" fill="#F1B380"/>
<path d="M36.1399 167.58L34.0799 189.83L32.8999 207.88L23.1099 202.45C23.1099 200.65 23.0099 194.63 23.1099 194.33C23.2099 194.03 25.7999 199.2 25.7999 199.2L23.9999 163.83L33.8799 138.26C34.5831 138.025 35.3014 137.838 36.0299 137.7L34.4999 139.83L31.4999 151.49L30.8299 152.72L36.1399 167.58Z" fill="#F1B280"/>
<path d="M75.96 52.21L72.92 47.73L61.53 43.21H60.85L60.67 42.56L55.71 32.27L71.68 39.89L74.97 45.4L75.96 52.21Z" fill="#5A5755"/>
<path d="M82.2799 40.5L76.9799 48.76L74.9499 45.38L71.6499 39.87L71.9999 35.24L75.7699 33.72L81.6599 35.91L82.2799 40.5Z" fill="#29272C"/>
<path d="M119.86 91.0699L111.72 105.16L97.02 99.9699L96.24 83.8999L96.45 80.5199L99.79 73.9899L104.81 58.1899V69.1399L107.42 67.1399L112.58 52.1899L119.86 91.0699Z" fill="#97712D"/>
<path d="M104.81 58.1901L99.7901 73.9901L96.4501 80.5201L83.1801 88.6801H78.05V78.7401L82.0101 78.1601L86.1501 73.8801L90.2801 69.1401L86.1501 72.5001L78.05 73.8801V67.1401L82.2801 62.7901L101.5 56.6101L104.81 58.1901Z" fill="#F1B380"/>
<path d="M90.2799 69.1399L86.1499 73.8799L82.0199 78.1599L78.0599 78.7399L73.7399 77.3499L70.6299 72.4999L76.3799 75.4699L80.4499 75.0499L86.1499 72.4999L90.2799 69.1399Z" fill="#A96739"/>
<path d="M86.1499 72.5L80.4499 75.05L76.3799 75.47L70.6299 72.5L78.0599 73.88L86.1499 72.5Z" fill="#9E5C28"/>
<path d="M82.0101 61.5399H78.3701L79.6301 55.9299L82.0101 61.5399Z" fill="#29272C"/>
<path d="M82.28 62.7899L78.05 67.1399C78.05 67.1399 74.53 63.1399 74.05 63.1399L64.8 56.2199C66.8 55.0899 72.98 51.6799 73.39 51.6799L61.48 43.1699L72.88 47.6799L75.88 52.1699L74.88 45.3599L76.88 48.7399L77.67 54.5999L77.48 63.7899L82.28 62.7899Z" fill="#C7C6C1"/>
<path d="M59.7301 64.0699L55.9301 70.6699L50.3 74.4999C50.3 74.4999 55.3001 64.4999 54.9101 63.7399C54.5201 62.9799 53.4101 48.7399 53.4101 47.8299C53.4101 47.1199 55.0601 40.4199 55.6901 37.8899C55.6901 41.5699 55.6901 45.8199 55.6901 46.5199C56.2908 49.693 57.0518 52.8337 57.9701 55.9299L58.6701 58.4399L59.6701 63.8099L59.7301 64.0699Z" fill="#F0BC53"/>
<path d="M101.35 47.6999V50.9099L92.97 56.6099L82.28 51.9999C82.91 51.9999 95.85 43.1599 95.85 43.1599L101.35 47.6999Z" fill="white" stroke="#231F20" stroke-linejoin="round"/>
<path d="M73.4101 51.7001C73.0001 51.7001 66.8501 55.1101 64.8201 56.2401L64.1601 56.6101L57.0801 48.3701L60.1801 43.3701L60.6401 42.5601L73.4101 51.7001Z" fill="white" stroke="#231F20" stroke-linejoin="round"/>
<path d="M79.2801 220L79.0501 239.36L69.3601 243.76C69.3601 243.76 69.3601 228.49 69.3601 227.76C69.2834 227.753 69.2065 227.771 69.1401 227.81L68.9901 227.89L68.8001 228C66.4601 229.35 57.8001 236.2 57.8001 236.2L57.5101 235.96L56.6201 219.96V216.23H56.8301C57.9201 217.51 60.0701 219.97 60.4401 219.97L79.2801 220Z" fill="#40403E"/>
<path d="M132.58 263.39L116.3 355.39L102.22 356.79L77.0601 274.5C77.0601 274.5 87.8101 265.7 98.5701 257.04C100.84 255.21 103.12 253.38 105.29 251.65C104.98 259.36 103.29 293.83 103.29 293.83C103.29 293.83 116 322 116.4 321.41C116.8 320.82 132.15 265 132.58 263.39Z" fill="#40403E"/>
<path d="M47.2601 511.09L19.6701 512.66C19.6701 512.66 9.67006 513.87 8.87006 513.66C8.07006 513.45 0.0700684 511.49 0.0700684 511.49L0.840057 508.1L14.7001 508.8H15.1501L25.9601 509.49L39.83 506.31L40.3701 506.19C40.423 506.181 40.4771 506.181 40.5301 506.19V506.19C40.8901 506.09 46.7601 504.53 46.9401 504.58C47.1801 508.21 47.2601 511.09 47.2601 511.09Z" fill="#5A5755"/>
<path d="M25.89 509.39L39.88 506.37L26 509.55L15.19 508.86L14.74 508.84H14.7299L14.7 508.82L15 508.84L25.89 509.39Z" fill="#001750"/>
<path d="M47.0601 504.58C46.8801 504.53 41.0101 506.09 40.6501 506.19L40.6001 506.06V505.92L40.2801 505C40.1901 504.75 40.0901 504.47 39.9701 504.16C39.8501 503.85 39.7401 503.51 39.6001 503.16L39.4401 502.75C39.3901 502.59 39.3301 502.41 39.2601 502.24L38.5001 500.24L38.2501 499.58L37.3501 497.24C37.1801 496.8 37.0201 496.35 36.8501 495.91C36.4201 494.81 36.0001 493.72 35.6101 492.7C35.4601 492.32 35.3201 491.96 35.1801 491.62C34.7801 490.57 34.4201 489.62 34.1101 488.89C34.0795 488.785 34.0428 488.681 34.0001 488.58L33.8501 488.19C33.7901 488.04 33.7301 487.89 33.6901 487.76L33.5501 487.42C33.4401 487.12 33.3701 486.95 33.3701 486.95L33.5001 486.17V487.17L48.5501 486.95C48.5801 486.93 46.8801 498.36 47.0601 504.58Z" fill="#C7C6C1"/>
<path d="M39.47 473.31H39.23V472.81L39.47 473.31Z" fill="#1C387F" stroke="#9BB8C8" stroke-miterlimit="10"/>
<path d="M40.45 506.23L39.91 506.36L26 509.55L15.19 508.86H14.74L6.23999 504.62L24.65 495.2L27.09 496.88L27.96 497.48L28.59 497.92L29.42 498.5C33.63 501.4 39.34 505.37 40.45 506.23Z" fill="#C7C6C1"/>
<path d="M14.7301 508.84L0.840088 508.12L6.19009 504.58H6.20009L14.7301 508.84Z" fill="#29272C"/>
<path d="M136.46 501.98L118.63 496.05L117.63 486.97L117.7 487.33L132.1 487.15L136.46 501.98Z" fill="#29272C"/>
<path d="M141.17 510.28L119.69 509.55C119.69 509.55 117.21 502 117.21 501.68L118.66 496.3V496.05L136.46 502L141.17 510.28Z" fill="#C7C6C1"/>
<path d="M142.32 513.1L130.88 516.5H121.88L115.55 510.67L117.19 502V501.68C117.19 502 119.67 509.55 119.67 509.55L141.15 510.28L142.32 513.1Z" fill="#5A5755"/>
<path d="M40.65 506.19C40.597 506.181 40.5429 506.181 40.49 506.19V506.19L29.49 498.41L28.66 497.83L28.03 497.39L27.16 496.79L24.72 495.11L33.42 486.88C33.42 486.88 33.49 487.05 33.6 487.35L33.74 487.69C33.74 487.82 33.84 487.97 33.9 488.12L34.05 488.51C34.0926 488.611 34.1293 488.715 34.16 488.82L39.49 502.69L39.65 503.1L40.65 505.81C40.6714 505.892 40.6881 505.976 40.7 506.06C40.7 506.06 40.64 506.15 40.65 506.19Z" fill="#29272C"/>
<path d="M55.0001 104.93L45.1001 114.63L40.8101 117.63C40.8101 117.63 40.6601 118.37 40.4001 119.57C39.3501 124.48 36.65 137.63 36.08 137.63C35.3515 137.768 34.6332 137.955 33.9301 138.19L27.2301 140.19L19.3801 136L15.8201 121.58L25.4501 129.58L37.11 117.1L47.4401 108.79L37.8401 99.4299L43.9101 101.17L55.0001 104.93Z" fill="#40403E"/>
<path d="M20.68 255.57C20.68 255.57 14.03 259.65 13.92 260.13C13.81 260.61 5.01004 252.67 3.97004 251.72C3.66004 257.9 4.13005 281.98 4.13005 281.98L5.86004 283.42L16.86 279.63L25.43 270.28L20.68 255.57ZM5.86004 279.8L6.86004 263.37L9.60005 276.85L5.86004 279.8Z" fill="#A1A0A0"/>
<path d="M17.72 199.45L15.59 219.21L13.59 204.21L9.59002 198.36C9.58588 198.313 9.58588 198.267 9.59002 198.22L13.48 198.29L17.72 199.45Z" fill="#29272C"/>
<path d="M15.6499 251.2L20.6499 255.57C20.6499 255.57 13.9999 259.65 13.8899 260.13C13.7799 260.61 4.97993 252.67 3.93993 251.72C3.925 251.242 3.97889 250.763 4.09993 250.3C4.67993 249.39 9.15992 201.3 9.53992 198.3L13.5399 204.15L15.5399 219.15L13.8699 234.69L20.9999 244.94L10.2499 247.24L6.81994 251.24L15.6499 251.2Z" fill="#C7C6C1"/>
<path d="M35.0899 210.95L21.0099 244.94L13.9199 234.75L17.7199 199.45L32.8999 207.88L35.0899 210.95Z" fill="#40403E"/>
<path d="M20.1501 253.95L20.6801 255.57L15.6501 251.2H6.83008L10.2601 247.25L21.0101 244.94L20.1501 253.95Z" fill="#40403E"/>
<path d="M21.0101 287.69L13.1601 289.5L5.86011 283.42L16.8801 279.63L25.4501 270.28L25.5901 276.65L21.0101 287.69Z" fill="#C7C6C1"/>
<path d="M113.2 172.35C113.2 172.35 107.86 189.68 107.82 189.68L107.88 189.95C106.51 187.95 97.88 185.67 97.47 185.67C97.06 185.67 91.29 183.23 88.66 182.22C88.6553 182.183 88.6553 182.147 88.66 182.11C89.11 180.01 89.4 178.59 89.4 178.59L91.99 179.69L99.77 167.69L106.4 158.42L111.28 153.69L116.28 144.49C118.36 146 121.51 152.3 121.51 152.3L113.2 172.35Z" fill="#40403E"/>
<path d="M111.3 153.68L103.2 158.77L99.7899 167.68L92.0099 179.68L89.4199 178.58L70.6799 170.63L56.5499 178L54.9999 178.81L46.2399 165.52L40.9199 165.88H54.9999L65.4999 145.56L70.1699 161.86L74.8199 148C74.8199 148 92.7599 162.72 93.1199 162.57L111.3 153.68Z" fill="#5A5755"/>
<path d="M89.4201 178.59C89.4201 178.59 89.1301 180.01 88.6801 182.11C88.6753 182.147 88.6753 182.184 88.6801 182.22C87.3801 188.22 84.7801 199.63 83.7601 199.45C82.3901 199.21 69.3801 193.75 69.3801 193.75L57.9601 199.45L56.55 178L70.6801 170.62L89.4201 178.59Z" fill="#A1A0A0"/>
<path d="M116.3 144.47L111.3 153.67L93.1201 162.52C92.7601 162.67 74.8201 147.95 74.8201 147.95L86.6201 133.55C86.6201 133.55 104.25 133.12 104.88 133.61C105.31 134 111.49 141 116.3 144.47Z" fill="#A1A0A0"/>
<path d="M48.5601 254L32.8101 240.74L39.11 224.12C39.55 224.42 40.9201 226.07 41.6301 226.61L48.5601 254Z" fill="#29272C"/>
<path d="M57.7299 236.21C57.7299 236.21 45.6199 229.63 41.6299 226.63C40.9199 226.09 39.5499 224.44 39.1099 224.14L45.3699 212.07L56.5499 220L57.7299 236.21Z" fill="#A1A0A0"/>
<path d="M69.36 243.77L57.73 236.21C59.59 234.71 67.17 228.9 68.97 227.9L69.12 227.82C69.1863 227.781 69.2632 227.763 69.34 227.77V227.77C69.4 228.5 69.36 243.77 69.36 243.77Z" fill="#C7C6C1"/>
<path d="M117.02 224.37L106.41 226.98L83.75 234.75V220.01L112.14 209.84L117.02 224.37Z" fill="#A1A0A0"/>
<path d="M116.3 355.37C116.3 355.37 111.3 375.97 111.07 376.85C110.84 377.73 102.22 356.77 102.22 356.77L116.3 355.37Z" fill="#C7C6C1"/>
<path d="M78.3601 306.15C78.6201 304.77 69.3601 354.38 69.3601 354.38L63.8901 363C63.8901 363 66.8201 351.31 67.0701 350.52C67.3201 349.73 76.0001 302 76.0001 302C76.0001 302 66.6301 298.56 68.3001 298.82C70.8849 298.96 73.4753 298.96 76.0601 298.82L81.1301 297.3L93.5001 361.62C93.0001 360 78.1001 307.5 78.3601 306.15Z" fill="#29272C"/>
<path d="M125.65 355.37L132.59 263.37L116.31 355.37C116.31 355.37 111.31 375.97 111.08 376.85C110.85 377.73 102.23 356.77 102.23 356.77L77.0701 274.48C77.0701 274.48 87.8201 265.68 98.5801 257.02L106.42 227.02L83.7601 234.79V237.28L79.0701 239.41L69.3801 243.81L57.9201 236.36L57.4601 236.01C56.0401 234.9 45.1601 229.31 41.6501 226.67L48.5601 254L50.5601 256.13L69.3701 276.21L53.1301 361.62L40.1901 353.62L27.6201 283.57L23.8701 327.1L30.0901 349.51L27.9401 376.88L32.7701 386.93L33.5301 473.31H39.2501V416.11C39.2501 414.96 57.3701 375.52 57.3701 375.52L65.7501 394.39L46.6601 473.31L52.4901 473.06L73.3001 392.37L63.8901 363C63.8901 363 66.8101 351.31 67.0701 350.52C67.3301 349.73 76.0001 302 76.0001 302C76.0001 302 66.6301 298.56 68.2901 298.82C70.8749 298.96 73.4653 298.96 76.0501 298.82L81.1201 297.3L93.4901 361.62L91.2101 387.32C91.2101 387.32 115.21 478.46 116.21 479.32C116.365 479.415 116.539 479.473 116.72 479.49C119.323 479.607 121.93 479.587 124.53 479.43H125.42L116.47 419.35C116.47 419.35 127.3 383.35 127.3 382.66C127.3 381.97 132.54 386.08 132.54 386.08L130.71 479.2L132.09 479.13L132.31 477.43C132.69 464.65 137.08 384.76 138.05 384.51C139.02 384.26 125.65 355.37 125.65 355.37ZM34.4001 372.19L37.9201 355.37C38.9201 355.8 48.6901 366.12 48.6901 366.12L34.4001 372.19Z" fill="#5A5755"/>
<path d="M124.22 239.89C117.563 243.213 111.226 247.143 105.29 251.63C103.12 253.36 100.84 255.19 98.5701 257.02L106.41 227.02L117 224.37L123.8 238.86L124.22 239.89Z" fill="#29272C"/>
<path d="M132.59 263.35C132.16 264.96 116.76 320.82 116.41 321.35C116.06 321.88 103.35 293.75 103.35 293.75C103.35 293.75 104.99 259.28 105.35 251.57C111.286 247.083 117.623 243.153 124.28 239.83L132.59 263.35Z" fill="#C7C6C1"/>
<path d="M167.54 204.67C167.35 204.88 160.14 212.99 153.76 220.01V250.25L150.15 257L144.68 249.86L134.14 265.35L133.21 271.65H139.66V283.45L150.74 286.21L161.83 279.55C161.83 279.55 161.57 247.38 161.83 246.28C162 245.41 165.8 217.62 167.54 204.67ZM150.74 281.54L152.55 274.48V262.36L155.91 276.85L150.74 281.54Z" fill="#A1A0A0"/>
<path d="M161.83 279.52L158.93 286.94L144.62 294.42L136.11 291.02L133.21 271.62H139.66V283.42L150.74 286.18L161.83 279.52Z" fill="#C7C6C1"/>
<path d="M153.76 220V250.24L150.15 257L144.68 249.86L137.54 217.14C137.54 217.14 143.86 229.6 144.07 230.23C144.16 230.48 148.7 225.59 153.76 220Z" fill="#C7C6C1"/>
<path d="M168.43 198.14C168.43 198.14 168.08 200.7 167.55 204.66C167.36 204.87 160.15 212.98 153.77 220C148.71 225.58 144.17 230.47 144.08 230.19C143.87 229.56 137.55 217.1 137.55 217.1L139.67 216.27L149.49 207.87L164.61 195.18L165.8 194.01L168.43 198.14Z" fill="#29272C"/>
<path d="M132.54 386.05L130.71 479.17C129.4 479.24 127.43 479.34 125.42 479.4L116.47 419.32C116.47 419.32 127.3 383.32 127.3 382.63C127.3 381.94 132.54 386.05 132.54 386.05Z" fill="#29272C"/>
<path d="M112.77 119.7L78.7701 130.94L69.3301 144.47L60.2501 129.57L40.3901 119.67C40.6501 118.48 40.8001 117.74 40.8001 117.74L45.0901 114.74C44.7801 115.19 45.0901 118.16 45.0901 118.16L69.0001 127.45L71.5601 128.45L110.68 116.21L112.77 119.7Z" fill="#29272C"/>
<path d="M65.52 145.58L55.01 165.9H40.92L38.85 164.43L31.48 151.49L34.53 139.83L37.83 136.35L55 134.96L65.52 145.58Z" fill="#A1A0A0"/>
<path d="M83.75 220V234.74V237.23L79.06 239.36L79.29 220H60.37C60 220 57.85 217.54 56.76 216.26L83.76 215.11V220H83.75Z" fill="#C7C6C1"/>
<path d="M52.1599 295.27C52.1599 295.27 41.7199 320.67 41.5499 319.81C41.3799 318.95 28.2699 285.88 27.6099 283.39V282.49L32.1099 242.28L32.7799 240.77L48.5599 254L50.5599 256.13L52.1599 295.27Z" fill="#C7C6C1"/>
<path d="M69.3599 276.23L53.1199 361.64L40.1799 353.64L27.6099 283.59V283.41C28.2699 285.9 41.3799 318.99 41.5499 319.83C41.7199 320.67 52.1599 295.29 52.1599 295.29L50.5499 256.17L69.3599 276.23Z" fill="#40403E"/>
<path d="M48.6899 366.12L34.3999 372.19L37.9199 355.37C38.9999 355.8 48.6899 366.12 48.6899 366.12Z" fill="#C7C6C1"/>
<path d="M123.37 136.26L121.53 152.26C121.53 152.26 117.67 146.62 116.3 144.45C112.95 139.14 105.3 133.93 104.88 133.6C104.25 133.11 86.62 133.54 86.62 133.54L74.82 148L70.19 161.91L65.53 145.63L55 135H37.84L34.53 139.87L36.06 137.74C36.63 137.74 39.33 124.59 40.38 119.68L60.24 129.59L69.32 144.51L78.76 130.97L112.76 119.71C117.22 127.09 122.93 136.49 123.37 136.26Z" fill="#C7C6C1"/>
<path d="M155.91 276.85L150.74 281.54L152.55 274.48V262.36L155.91 276.85Z" fill="#40403E"/>
<path d="M9.57011 276.85L5.86011 279.8L6.83011 263.37L9.57011 276.85Z" fill="#40403E"/>
<path d="M65.74 394.39L46.65 473.31H39.47L39.23 472.81V416.11C39.23 414.96 57.35 375.52 57.35 375.52L65.74 394.39Z" fill="#29272C"/>
<path d="M52.4899 473.06L48.4899 486.93L33.4299 487.15L33.4399 486.15L33.5299 473.31L52.4899 473.06Z" fill="#40403E"/>
<path d="M132.1 479.1V487.1L117.7 487.28L117.63 486.92L116.72 479.43C119.323 479.547 121.929 479.527 124.53 479.37C126.84 479.37 129.21 479.2 130.7 479.12L132.1 479.1Z" fill="#40403E"/>
<path d="M147.7 108.65L108.14 111.5L113.43 105.11L126.78 98.9799L128.96 97.6599L147.7 108.65Z" fill="#C7C6C1"/>
<path d="M147.7 108.65L143.51 127.36L125.33 128.72L108.14 111.5L147.7 108.65Z" fill="#5A5755"/>
<path d="M143.51 127.36C143.51 127.36 124.08 135.88 123.37 136.26C122.93 136.49 117.15 127.04 112.7 119.62L110.61 116.12C109.688 114.635 108.863 113.091 108.14 111.5L125.33 128.72L143.51 127.36Z" fill="#A1A0A0"/>
<path d="M43.69 108.78L23.71 106.14L37.84 99.4199L43.69 108.78Z" fill="#5A5755"/>
<path d="M47.4401 108.78L37.11 117.09L25.4501 129.57L15.8201 121.53L23.7101 106.14L43.6901 108.78L37.8401 99.4199L47.4401 108.78Z" fill="#C7C6C1"/>
<path d="M81.66 35.9099L97.48 27.3999L75.77 33.7199L81.66 35.9099Z" fill="#C7C6C1"/>
<path d="M79.27 65.8801L101.5 56.6101L104.45 59.5701L104.81 58.1901L101.5 56.6101L82.28 62.7901L79.27 65.8801Z" fill="#BC7645"/>
<path d="M76.98 65.9601L60.79 59.1101L74.07 63.1601L76.98 65.9601Z" fill="#9B5023"/>
<path d="M96.4501 80.52L85.1001 89.31L83.1601 90.24L79.3501 89.37L77.8501 88.9L83.1801 88.68L96.4501 80.52Z" fill="#9B5023"/>
<path d="M66.46 81.85L77.85 88.8999L66.46 80.7V81.85Z" fill="#9B5023"/>
<path d="M66.46 80.7C66.46 80.87 78.05 88.7 78.05 88.7H83.18L83.01 89.3999L77.85 88.92C77.85 88.92 68.04 82.74 67.99 82.75C67.94 82.76 66.46 80.7 66.46 80.7Z" fill="#9B5023"/>
<path d="M75.77 33.72C75.77 33.72 70.7 25.15 70.63 24.4C70.56 23.65 80.19 6.23999 80.19 6.23999C80.19 6.23999 75.19 21.94 75.41 22.13C75.63 22.32 81.03 31.66 81.03 31.66L75.77 33.72Z" fill="#97712D"/>
<path d="M103.59 7.69009C102.96 7.50009 95.04 11.1201 95.04 11.1201C95.04 11.1201 88.62 27.6301 88.9 27.4001C89.18 27.1701 96.24 12.6401 96.24 12.6401L103.59 7.69009Z" fill="#97712D"/>
<path d="M46.6299 26.2999L62.7299 17.5399L71.6499 19.9799L61.6499 5.6499L46.6299 26.2999Z" fill="#97712D"/>
<path d="M98.5701 369.62C99.0901 370.54 113.48 408.5 113.48 408.5L94.5601 386.7L98.5701 369.62Z" fill="#C7C6C1"/>
<path d="M48.69 372.19L35.97 376.88L39.23 416.11L57.36 375.52L48.69 372.19Z" fill="#40403E"/>
<path d="M57.9 236.31L52.49 258.21L69.36 276.23L67.2 287.55L74.49 289.5L81.14 287.81L77.06 274.48L93.45 261.15L102.22 227.77L83.75 234.75L83.74 237.24L69.36 243.77L57.9 236.31Z" fill="#29272C"/>
<path d="M143.51 127.36C143.51 127.36 154.93 156.44 154.9 156.36C154.87 156.28 131.74 149.51 131.74 149.51L143.51 127.36Z" fill="#5A5755"/>
<path d="M131.74 149.49L121.53 152.28L123.37 136.26L143.51 127.36" fill="#40403E"/>
<path d="M154.9 156.34L164.07 182.04L164.6 195.19L146.12 187.14L154.9 156.34Z" fill="#40403E"/>
<path d="M121.53 152.28L132.79 180.45L140.72 189.15L139.66 216.28C139.66 216.28 149.5 209.28 149.48 207.88C149.46 206.48 146.12 187.14 146.12 187.14L154.9 156.34C154.9 156.34 133.13 148.39 132.26 148.51C131.39 148.63 121.53 152.28 121.53 152.28Z" fill="#C7C6C1"/>
<path d="M146.12 187.14L149.48 207.88C149.48 207.88 165.1 195.41 164.6 195.19L146.12 187.14Z" fill="#5A5755"/>
<path d="M136.17 184.16C136.53 184.55 146.62 185.05 146.62 185.05L151.4 184.6L140.72 189.15L136.17 184.16Z" fill="#29272C"/>
<path d="M36.0601 137.7L34.5301 139.83L31.5301 151.49L30.8601 152.72C30.8601 152.72 36.8601 166.86 36.1901 167.58C35.5201 168.3 24.7701 177.58 24.7701 177.58L20.6401 151.49L27.2601 140.27L36.0601 137.7Z" fill="#5A5755"/>
<path d="M27.2099 140.27L19.3799 135.95L14.6799 185.05L24.7199 177.58L20.5899 151.49L27.2099 140.27Z" fill="#40403E"/>
<path d="M36.1499 167.58L32.8999 207.88L21.6499 201.82L24.7299 177.57C24.7299 177.57 35.4299 168.06 36.1499 167.58Z" fill="#29272C"/>
<path d="M24.73 177.57L21.65 201.82L17.72 199.45L13.47 198.25C13.47 198.25 16.47 166.79 16.39 167.18C16.31 167.57 24.73 177.57 24.73 177.57Z" fill="#C7C6C1"/>
<path d="M89.4201 179C89.4201 179 89.1301 180.42 88.6801 182.52C88.6753 182.557 88.6753 182.593 88.6801 182.63C87.5601 188.26 86.6801 196.02 83.7601 199.86C82.7601 201.16 79.6401 204.56 70.4601 204.52L57.9601 199.86L56.5701 178.43L70.6801 171L89.4201 179Z" fill="#A1A0A0"/>
<path d="M112.14 209.84L83.7501 220V215.11L56.5601 216.27V220L45.3801 212.06L43.3001 178.06L38.0001 170.06L36.1601 167.59L30.8301 152.73L31.5001 151.5L38.8701 164.44L40.9401 165.91L46.2601 165.55L55.0001 178.83L56.5501 178.02L57.9401 199.45L70.4401 204.45L83.7401 199.45L88.6601 182.22C91.2901 183.22 97.0401 185.67 97.4701 185.67C97.9001 185.67 106.47 187.92 107.88 189.95C108.32 192.27 112.14 209.84 112.14 209.84Z" fill="#40403E"/>
<path d="M112.77 167.27C112.64 167.7 101.77 180.33 101.77 180.33L101.44 185.75L112.77 167.27Z" fill="#A1A0A0"/>
<path d="M112.36 161.63C112.2 162.06 100.45 173.89 100.45 173.89L99.74 179.27L112.36 161.63Z" fill="#A1A0A0"/>
</svg>
