<svg width="193" height="489" viewBox="0 0 193 489" fill="none" xmlns="http://www.w3.org/2000/svg">
<path d="M89 48.12C89.9042 48.8062 90.5605 49.7679 90.87 50.86C90.9718 51.6195 90.8244 52.3914 90.45 53.06C90.0676 53.721 89.5965 54.3266 89.05 54.86C86.27 57.77 82.68 60.12 78.65 60.56C77.9188 60.6675 77.1733 60.6233 76.46 60.43C75.6716 60.1469 74.9786 59.6479 74.46 58.99C74.0286 58.4704 73.6687 57.8952 73.39 57.28C73.2473 56.9029 73.0733 56.5383 72.87 56.19C72.21 55.14 70.87 54.62 70.27 53.56C69.7622 52.4512 69.6493 51.2019 69.95 50.02C69.9445 49.8764 69.9839 49.7347 70.0628 49.6146C70.1416 49.4945 70.2561 49.402 70.39 49.35C72.9577 48.1231 75.8026 47.5921 78.64 47.81C81.4605 48.0397 84.2917 48.1098 87.12 48.02C88.12 47.94 89.21 47.86 89.82 48.59" fill="#A6662F"/>
<path d="M95.81 43.89L82.44 44.12C82.14 44.12 77.25 46.38 77.25 46.38L74.8 43.92L64.8 43.66L66.14 50.13L68.62 56.75L75.05 63.6H87.17L99.07 53.32L95.81 43.89ZM82.81 56.32C82.56 56.24 77.01 56.32 77.01 56.32L75.45 53.86H85.21C85.21 53.86 83 56.4 82.77 56.32H82.81ZM73.33 51.32L75 50.13C75 50.13 84.07 50.07 84.39 50.13C84.71 50.19 88.96 51.41 88.96 51.41L73.33 51.32Z" fill="#A6662F"/>
<path d="M71.92 0.899994L78.58 2.74001L86.49 0.899994L101.88 4.92L88.27 8.28L75.84 7.59L71.92 0.899994Z" fill="#3E383E"/>
<path d="M189.36 216.83V217.28H174.26L186.42 162.66C186.42 162.66 191.68 185.86 192.14 186.52V186.66C192.64 189.28 189.36 216.83 189.36 216.83Z" fill="#827140"/>
<path d="M184.01 217.28L178.82 244.83L173.67 231.05L167.7 229.06L167.84 228.61L174.26 217.28H184.01Z" fill="#A4682F"/>
<path d="M178.82 244.83L168.51 248.27L166.19 244.83L171.49 243.07V238.55L166.19 244.83L163.8 241.27L167.7 229.06L173.67 231.05L178.82 244.83Z" fill="#85491F"/>
<path d="M191.42 243.71L186.71 248.27H168.51L178.82 244.83L191.42 243.71Z" fill="#4B1D11"/>
<path d="M189.36 217.28L191.42 243.71L178.82 244.83L184.01 217.28H189.36Z" fill="#85491F"/>
<path d="M168 100.08V100.15L151.9 120.69L136.46 113.52V98L154.94 80.33L155.27 80.38L168 100.08Z" fill="#E7C053"/>
<path d="M154.94 80.31L136.45 97.98L114.59 86.34L129.67 76.27L129.89 76.37L154.94 80.31Z" fill="#F4A54B"/>
<path d="M105 66.91C100 69.04 83.12 77.06 82.81 76.84C82.5 76.62 75.12 71.27 71.44 68.49L81.91 72.28L105.65 62L105.71 65.85L105 66.91Z" fill="#70411E"/>
<path d="M105 55.85L105.61 61.98L81.88 72.27L71.41 68.48L72.57 63.02L74.43 65.25H87.04L105 55.85Z" fill="#622F13"/>
<path d="M103.52 46.17L104.09 45.56L103.52 46.17L105.04 55.85L87.04 65.25L98.89 53.32C99.8115 49.2164 101.09 45.2011 102.71 41.32C102.87 40.93 103.52 46 103.52 46.17Z" fill="#471E12"/>
<path d="M98.9 53.32L87.05 65.25H74.45L72.59 63L68.24 57L66 50.29L63.94 43.59L65.29 43.66L66.63 50.13L69.11 56.75L74.9 63.6H87L98.9 53.32Z" fill="#78421B"/>
<path d="M109.78 29.32V39.47L103.52 46.17C103.52 45.98 102.87 40.93 102.72 41.28C105.27 35.28 107.85 29.28 107.94 29.28L109.78 29.32Z" fill="#70411E"/>
<path d="M108.2 14.19L108.06 29.19L97.77 24.84L98.39 14.67L93.92 15.4L80.92 18.92L67.92 14.25L65.84 25.66L67.06 9.66C67.06 9.66 78.33 12.11 78.58 12.11C78.83 12.11 96.18 10.49 96.58 10.37C96.98 10.25 102.08 8.24001 102.37 7.96001L108.2 14.19Z" fill="#22201F"/>
<path d="M93.92 15.44L91.28 24.44C91.28 24.44 78.78 29.71 78.6 29.85C78.42 29.99 70.12 25.44 69.74 25.32C69.36 25.2 67.89 14.32 67.89 14.32L80.39 18.8L93.92 15.44Z" fill="#A6662F"/>
<path d="M108.18 29.32L102.06 31.39L96.98 32.91L94.14 29.47L91.76 26.61L97.77 24.88L108.01 29.23L108.18 29.32Z" fill="#F3EB50"/>
<path d="M102.39 31.2C102.39 31.2 97.55 40.25 96.1 43.07L95.84 43.55L95.68 43.84L82.3 44.07C82 44.07 77.12 46.33 77.12 46.33L74.67 43.87L65.67 43.61L63.92 43.54L68.17 39.06L75.24 40.81L76.66 33.87L67.18 29.6L65.53 26.02L65.81 25.65L78.26 32L91.9 26.51L94.16 29.25L80.39 34.25L81.58 40.82C81.87 40.82 94.35 40.32 94.58 40.25C94.81 40.18 97.03 32.7 97.03 32.7L102.39 31.2Z" fill="#F3EB50"/>
<path d="M76.66 33.92L75.25 40.86L74.7 34.25L67.18 29.65L76.66 33.92Z" fill="#29272C"/>
<path d="M68.17 39.11L63.92 43.59L63.03 34.48V29.32L65.53 26.07L67.18 29.65L65.37 33.21L67.03 38.84L68.17 39.11Z" fill="#F3EB50"/>
<path d="M94.16 29.3L83.67 34.05L81.58 40.86L80.39 34.29L94.16 29.3Z" fill="#29272C"/>
<path d="M108.18 29.32C107.93 29.68 105.44 35.46 102.97 41.26L102.85 41.53C100.64 46.69 99.59 51.89 99.02 53.06C99.02 53.06 98.97 53.22 98.95 53.26C98.9314 53.2963 98.9038 53.3273 98.87 53.35L95.6 43.87C95.6 43.82 95.69 43.72 95.76 43.58L96.02 43.1C97.55 40.29 102.31 31.23 102.31 31.23L107.79 29.46L108.09 29.35L108.18 29.32Z" fill="#F3EB50"/>
<path d="M99.07 184.46L95.79 189.26L77.25 191.46V133.09L100.54 144L96.85 157.67L99.07 184.46ZM84.07 131.71C84.07 131.71 109.44 136.36 110.13 136.19C110.82 136.02 131.22 119.97 131.86 119.47L112.19 144L84.07 131.71ZM139.37 134.56L128.87 106.2L122.55 120.69C122.55 120.69 107.55 129.36 107.19 129.69C106.83 130.02 78.62 125.69 78.62 125.69L80.02 99.82L89.16 84.72L80.86 89.72C80.86 89.72 73.27 85.86 72.66 85.19L78.46 100.65L74.35 125.93L50.53 133.59L33.53 122.48L49.86 137.74L66.86 131.65L52.45 145L54.82 180.11C54.82 180.11 64.76 201.17 65.23 201.48C65.7 201.79 90.78 201.48 90.78 201.48L108.6 175.7L126.6 168.39C126.6 168.27 126.6 168.21 126.6 168.21L127.14 166.79L139.37 134.56Z" fill="#E7C053"/>
<path d="M131.85 119.47L112.19 144L84.06 131.74C84.06 131.74 109.43 136.39 110.12 136.22C110.81 136.05 131.21 120 131.85 119.47Z" fill="#827140"/>
<path d="M78.45 100.66L74.34 125.94L50.52 133.6L33.5 122.49L36.51 105.37L50.48 86.34L78.45 100.66Z" fill="#F3EB50"/>
<path d="M50.48 86.34L31.23 101.91L17.09 95.54L31.23 80.44L47.92 80.21L48.46 79.96C49.74 81.94 50.48 86.34 50.48 86.34Z" fill="#F4A54B"/>
<path d="M19.76 121.72L19.81 121.58L17.09 95.54L31.23 101.91L33.5 122.49L19.76 121.72Z" fill="#E7C053"/>
<path d="M53.5 205.48L66.19 231L65 229.21L64.51 228.45L64.24 228.05L63.67 227.14L63.03 226.14L62.69 225.61L61.61 223.93L60.44 222.11L59.63 220.84L58.79 219.54L58.37 218.88L57.55 217.6L56.17 215.45L55.36 214.19L54.52 212.86C50.74 206.97 40.88 202.15 40.82 201.86L49.9 179.3C49.9 179.3 47.62 145.09 47.84 141.55C47.55 142.32 46.52 144.48 45.21 147.15C45.12 147.72 43.71 155.83 43.56 156.15C43.41 156.47 38.14 162.75 38.14 162.75L15.14 152.42L38.42 144L33.51 122.52L49.84 137.78L66.84 131.69L52.45 145L54.82 180.11L53.5 205.48Z" fill="#827140"/>
<path d="M15.18 152.45L19.49 182.56L8.76999 217.68L1.17001 214.17L7.01001 163.52L15.18 152.45Z" fill="#F3EB50"/>
<path d="M38.09 162.89L37.38 176.58L15.61 217.94L8.76999 217.68L19.49 182.56L38.09 162.89Z" fill="#827140"/>
<path d="M13.65 233.44L4.10001 246.74L0.75 232.6L1.17001 214.17L8.76999 217.68L13.65 233.44Z" fill="#874A20"/>
<path d="M22.44 230.07L13.65 233.44L8.76999 217.68L15.61 217.94L22.32 229.72L22.44 230.07Z" fill="#A76931"/>
<path d="M25.91 240.16L22.32 242.83L13.65 233.44L22.44 230.07L25.91 240.16Z" fill="#804A1F"/>
<path d="M22.32 242.83L20.14 246.88L19.39 248.27L4.12 246.82L4.10001 246.74L13.65 233.44L22.32 242.83Z" fill="#471914"/>
<path d="M129.16 192.51L100.54 216L90.5401 231.06C90.0201 230.38 112.72 198.06 112.21 197.58C111.7 197.1 108.61 175.71 108.61 175.71L126.61 168.4C126.85 170.56 129.06 191.15 129.06 191.99C129.08 192.166 129.113 192.34 129.16 192.51Z" fill="#827140"/>
<path d="M66.2 231.05L58.8 287.84L30 267.27L40.89 201.91C41.04 202.51 65.67 230.16 66.24 231.03L66.2 231.05Z" fill="#F3EB50"/>
<path d="M146.14 250.22L140.44 310.59C140.44 310.59 131.04 321.88 127.49 326.87C130.07 321.18 135.42 306.93 135.42 306.67C135.42 306.41 122.25 289.29 120.8 285.79C120.9 285.37 120.9 285.15 120.8 285.17C120.7 285.19 120.68 285.41 120.8 285.79C119.8 290.01 102.63 316.62 101.7 318.6L101.64 318.73C94.19 293.73 89.92 258.16 89.92 258.16L86.55 295.26C86.55 295.26 80.55 321.15 80.48 321.71C80.48 321.71 77.57 323.53 74.12 325.71L63.28 332.49C62.49 333.01 73.78 311.19 73.78 311.19L58.78 287.89L66.18 231.1C66.18 231.1 90.51 231.78 90.51 231.1L120.77 283.89L146.14 250.22Z" fill="#827140"/>
<path d="M58.8 287.84L43.06 321.93L29.95 267.26L58.8 287.84Z" fill="#827140"/>
<path d="M80 344.59L65.08 359.19L40.34 335.26L42.52 323.62L42.79 322.71L43.02 321.93L58.76 287.84L73.76 311.14C73.76 311.14 62.47 332.96 63.26 332.44C64.05 331.92 80.46 321.71 80.46 321.71C80.71 321 80 344.59 80 344.59Z" fill="#FDC050"/>
<path d="M86.55 382.14L65.12 359.19L80.04 344.6L86.55 382.14Z" fill="#F4A54B"/>
<path d="M67.67 453C67.67 453 67.9 451.46 68.28 448.86L67 453.47L65.1 359.19L83.34 402.65L67.67 453Z" fill="#E7C053"/>
<path d="M49.32 426.28C49.32 426.28 49.49 365.47 49.27 364.81C49.05 364.15 40.38 335.93 40.38 335.26L65.12 359.19L67 453.47L49.32 426.28Z" fill="#827140"/>
<path d="M67.91 477L29.91 478.77C29.91 478.77 20.69 481.88 19.8 481.66C18.91 481.44 4.07001 479.22 4.07001 479.22L4.97 473.66L24.61 474.5L42.71 475.28L60.02 471.5C60.02 471.5 67.39 469.63 67.62 469.69C67.8 473.79 67.91 477 67.91 477Z" fill="#827140"/>
<path d="M67.67 469.71C67.44 469.65 60.07 471.52 60.07 471.52L51.4 449.88L49.32 426.05L67 453.24C67.12 453.24 67.45 462.72 67.67 469.71Z" fill="#F3EB50"/>
<path d="M60.07 471.52L42.76 475.52L24.66 474.75L14.02 469.71L41.11 459.12L60.07 471.52Z" fill="#E7C053"/>
<path d="M24.66 474.75L5.01999 473.68L14.01 469.71H14.02L24.66 474.75Z" fill="#F4A54B"/>
<path d="M146.14 250.22L120.79 283.86C120.14 283.23 137.88 211.39 137.88 211.39C142.71 227.32 146.14 250.22 146.14 250.22Z" fill="#FDC050"/>
<path d="M140.44 310.59C140.44 310.59 131.03 321.88 127.49 326.87C130.07 321.18 135.41 306.93 135.41 306.67C135.41 306.41 122.24 289.29 120.8 285.79C119.8 290.19 101.64 318.73 101.64 318.73L123.07 334.17L126.18 356.41L143.59 339.48L140.44 310.59Z" fill="#FDC050"/>
<path d="M139.12 429.72L116.46 388.82C116.46 388.82 116.46 388.4 116.36 387.66C116.42 386.37 126.18 364.26 126.18 364.26L112.06 345.72C112.06 345.47 107.2 333.72 101.76 318.95L123.19 334.39L126.19 356.45L160.77 425.35L162.46 457.5L139.12 429.72Z" fill="#827140"/>
<path d="M126.18 364.22C126.18 364.22 116.42 386.33 116.36 387.62C115.75 380.52 112.06 346.28 112.06 345.68L126.18 364.22Z" fill="#F4A54B"/>
<path d="M160.76 425.31L126.18 356.41L143.59 339.48L158.19 376.14L160.76 425.31Z" fill="#E7C053"/>
<path d="M167.87 470.04L144.21 462.47L139.55 430.58L139.12 429.72L162.45 457.46L167.87 470.04Z" fill="#F4A54B"/>
<path d="M172.54 480.89L147.68 480.44C147.68 480.44 144.27 470.58 144.27 470.16V462.8L144.21 462.47L167.87 470L172.54 480.89Z" fill="#E7C053"/>
<path d="M174.13 484.57L160.21 489H147.85L142 481.91L144.25 470.58V470.16C144.25 470.58 147.66 480.44 147.66 480.44L172.52 480.89L174.13 484.57Z" fill="#827140"/>
<path d="M186.42 162.66L167 153L151.9 120.69L168 100.15C168 101.25 167.78 115.65 168 116.28C168.22 116.91 172.38 131.73 172.38 131.73C172.38 131.73 177.88 150.19 177.88 149.51C177.88 148.83 186.42 162.66 186.42 162.66Z" fill="#827140"/>
<path d="M167 153C167 153 158.85 160.49 154.94 164.36C153.79 163.22 144.86 155.52 143.15 154.26C145.74 154.94 165.85 153 167 153Z" fill="#827140"/>
<path d="M174.26 217.28L157.35 185.11L155.08 164.48L154.92 164.31C158.83 160.44 167 153 167 153L174.26 217.28Z" fill="#F3EB50"/>
<path d="M186.42 162.66L174.26 217.28L166.98 152.95L186.42 162.66Z" fill="#E7C053"/>
<path d="M112.94 70.43L89.15 84.74L80.85 89.74C80.85 89.74 73.26 85.88 72.65 85.21V85.12C72.91 84.95 69.28 77.7 67.02 73.24C67.24 73.05 71.36 68.64 71.44 68.54C75.12 71.32 82.54 76.71 82.81 76.89C83.08 77.07 100.64 66.89 105.68 64.72L112.94 70.43Z" fill="#827140"/>
<path d="M78.45 100.66L50.48 86.34L72.62 85.11L72.65 85.2L78.45 100.66Z" fill="#F3EB50"/>
<path d="M36.51 105.37L33.5 122.49L31.23 101.91L50.48 86.34L36.51 105.37Z" fill="#827140"/>
<path d="M38.42 143.97L15.18 152.45L14.97 133.83L19.76 121.72L33.5 122.49L38.42 143.97Z" fill="#F3EB50"/>
<path d="M38.15 162.79L38.09 162.89L19.49 182.57L15.18 152.45L38.15 162.79Z" fill="#E7C053"/>
<path d="M20.14 246.88L7.41 244.41L11.88 240.69L22.32 242.83" fill="#804A1F"/>
<path d="M114.59 86.34L80 99.84L89.15 84.74L114.59 86.34Z" fill="#F3EB50"/>
<path d="M128.86 106.2L125 121.48C125 121.48 109.21 131.37 108.85 131.73C108.49 132.09 78.57 125.73 78.57 125.73L79.97 99.86L114.56 86.36L128.86 106.2Z" fill="#F3EB50"/>
<path d="M167 153C165.87 153 145.76 155 143.15 154.26C143.052 154.165 142.932 154.096 142.8 154.06C142.28 152.93 145.57 126.75 145.57 126.75L151.93 120.75L167 153Z" fill="#F3EB50"/>
<path d="M171.49 238.55V243.07L166.19 244.83L171.49 238.55Z" fill="#4B1D11"/>
<path d="M120.79 283.86L90.53 231.07L100.53 216.01L129.15 192.53C129.71 194.65 134.31 202.18 137.87 211.41C137.88 211.39 120.14 283.23 120.79 283.86Z" fill="#F3EB50"/>
<path d="M90.52 231.05C90.52 231.71 66.19 231.05 66.19 231.05L53.49 205.5L54.82 180.1C54.82 180.1 64.75 201.16 65.23 201.47C65.71 201.78 90.77 201.47 90.77 201.47L108.59 175.72C108.59 175.72 111.67 197.08 112.19 197.59C112.71 198.1 90 230.37 90.52 231.05Z" fill="#E7C053"/>
<path d="M98.39 14.71L97.77 24.88L91.9 26.56L78.26 32.05L65.81 25.7L67.89 14.29C67.89 14.29 69.37 25.17 69.74 25.29C70.11 25.41 78.4 29.94 78.6 29.82C78.8 29.7 91.28 24.41 91.28 24.41L93.92 15.41L98.39 14.71Z" fill="#83491F"/>
<path d="M87.09 51.43L84.53 51.99L72.74 51.72C72.74 51.72 71.5 51.34 71.45 51.34L73.12 50.15C73.12 50.15 82.2 50.09 82.52 50.15C82.84 50.21 87.09 51.43 87.09 51.43Z" fill="#8F5729"/>
<path d="M83.33 53.86C83.33 53.86 81.18 56.4 80.93 56.32C80.68 56.24 75.14 56.32 75.14 56.32L73.58 53.86H83.33Z" fill="#8F5729"/>
<path d="M97 32.74C97 32.74 94.75 40.22 94.55 40.29C94.35 40.36 81.86 40.86 81.55 40.86L83.64 34.05L94.13 29.3L97 32.74Z" fill="#FFFDFD" stroke="#231F20" stroke-linejoin="round"/>
<path d="M75.25 40.86L68.17 39.11L67.03 38.84L65.37 33.21L67.18 29.65L74.7 34.25L75.25 40.86Z" fill="#FFFDFD" stroke="#231F20" stroke-linejoin="round"/>
<path d="M81.93 44.2L95.14 45.48L98.9 53.32L95.65 43.89L82.25 44.12" fill="#6A3F26"/>
<path d="M108.2 14.19L95.2 13.25L78.6 15.68L68.17 13L67 9.72L68.45 7.13L89.76 9.57001L101.85 4.92L108.2 14.19Z" fill="#22201F"/>
<path d="M76 28C76.7714 28.4571 77.5658 28.8743 78.38 29.25C78.38 29.25 77.66 24.41 77.49 24.36C77.0899 24.0133 76.7248 23.6281 76.4 23.21L76 28Z" fill="#A46A33"/>
<path d="M78.89 29.19L80.39 26.58V28.4L78.89 29.19Z" fill="#A46A33"/>
<path d="M72.62 85.11L50.48 86.34C49.6825 83.796 48.6791 81.3212 47.48 78.94L64.73 69.45L71.4 68.45C71.32 68.55 67.2 72.96 66.98 73.15C69.25 77.69 72.88 84.94 72.62 85.11Z" fill="#E7C053"/>
<path d="M51.55 76.71L31.23 80.42L52.08 80.77L51.55 76.71Z" fill="#827140"/>
<path d="M172.34 131.73L166.98 131.09L167.98 116.28C168.18 117 172.34 131.73 172.34 131.73Z" fill="#F4A54B"/>
<path d="M66.16 231L40.9 202L40.84 201.94L49.92 179.38C49.92 179.38 44.64 146.2 44.86 142.66L33.51 122.54L49.84 137.8L66.84 131.71L52.45 145L54.82 180.11L53.5 205.51L66.13 230.95C66.1369 230.968 66.147 230.985 66.16 231Z" fill="#827140"/>
<path d="M96.86 157.64L99.07 184.46L95.8 189.26L95.52 189.29L89.38 198L77.26 198.93V133.09L100.55 143.97L96.86 157.64Z" fill="#F3EB50"/>
<path d="M101.88 4.92L102.88 9.72L79.49 14.29L67 9.72L68.45 7.13C69.86 4.59 71.83 1.05999 71.89 0.899994C71.89 1.24999 79.21 5.73 79.21 5.73L83.16 3.25L86.46 4.92H101.88Z" fill="#22201F"/>
<path d="M98.39 14.71C98.39 14.71 102.66 12.44 102.62 12.6C102.58 12.76 100 25.81 100 25.81L97.8 24.88L98.39 14.71Z" fill="#3E383E"/>
<path d="M108.75 31.6V39.11L105.67 42.61L108.75 31.6Z" fill="#5C3412"/>
<path d="M105.67 42.61L103.77 42.46L108.75 31.6L108.18 37.1L105.67 42.61Z" fill="#5C3412"/>
<path d="M80.39 18.15C80.39 17.96 70.04 10.48 70.04 10.48C70.04 10.48 71.73 1.67 71.92 1.92C72.11 2.17 78.37 9.53 78.37 9.53L80.39 18.15Z" fill="#3E383E"/>
<path d="M63.92 43.59L74.45 44.82C74.45 44.82 77.25 46.54 77.09 46.38L74.64 43.92L63.92 43.59Z" fill="#6A3F26"/>
<path d="M129.67 76.27L114.59 86.34L89.15 84.74L111.31 71.41L105.69 64.68L113.88 67.71L129.67 76.27Z" fill="#E7C053"/>
<path d="M129.89 135.43C129.71 135.84 117.08 145.77 117.08 145.77L116.2 152.1L129.89 135.43Z" fill="#827140"/>
<path d="M129.16 142.61C129.02 143.04 118.16 155.67 118.16 155.67L117.84 161.09L129.16 142.61Z" fill="#827140"/>
<path d="M127.42 165.97L126.58 168.39L127.1 166.79L127.42 165.97Z" fill="#A02889"/>
<path d="M75.69 137.3C76.12 138.4 74.84 153.21 74.84 153.21L60.84 154.15L63.79 140.15L75.69 137.3Z" fill="#F3EB50"/>
<path d="M74.22 165.19L73.8 190.87L60.05 187.04L62.42 167.53L74.22 165.19Z" fill="#F3EB50"/>
<path d="M101.7 318.6L101.64 318.73C94.19 293.73 90.77 263.65 90.77 263.65L86.55 295.26C86.55 295.26 80.55 321.15 80.48 321.71C80.48 321.71 77.57 323.53 74.12 325.71L80.52 305.11L88.9 254.94L81.17 252.69L77.69 246L83.46 250.09L90.79 249.8C90.79 249.8 95.04 256.8 95.52 257.66C96 258.52 100.8 314 101.7 318.6Z" fill="#F4A54B"/>
<path d="M41.11 459.12L51.4 449.88C51.4 449.88 60.63 472.33 60.08 471.75C59.53 471.17 41.11 459.12 41.11 459.12Z" fill="#F4A54B"/>
<path d="M189.36 216.83V217.28H174.26L192.14 186.52V186.66C192.64 189.28 189.36 216.83 189.36 216.83Z" fill="#827140"/>
<path d="M74.88 63.6C75.02 63.46 76.88 60.44 76.88 60.44L83.15 60.16L87 63.6L79.58 64.6L74.88 63.6Z" fill="#78421B"/>
<path d="M140.68 133.09L136.46 148.49L126.58 168.39L127.42 165.97L127.1 166.79L134.15 143.17L135.02 128.46L128.87 106.2L139.32 126.18L140.68 133.09Z" fill="#F4A54B"/>
<path d="M86.55 382.14L83.36 402.64L65.12 359.19L86.55 382.14Z" fill="#F4A54B"/>
<path d="M145.54 126.7C145.54 126.7 142.25 152.88 142.77 154.01C142.09 154.01 138.82 125.22 138.82 125.22L125.76 109.47L114.59 86.34L136.46 98V113.54L151.9 120.71L145.54 126.7Z" fill="#827140"/>
<path d="M74.22 155.18V163.57L62.2 164.31L67.13 156.23L74.22 155.18Z" fill="#F3EB50"/>
<path d="M104.39 147.54C104.39 147.54 100.62 156.32 101.07 156.77C101.52 157.22 106.34 171.08 106.34 171.08L108 156.77L104.39 147.54Z" fill="#827140"/>
<path d="M96.85 157.64L77.25 154.21L75.94 158.63L96.99 159.33L98.87 158.29L96.85 157.64Z" fill="#E7C053"/>
<path d="M100 171.83C100.32 171.72 100.41 175.7 100.41 175.7L75.81 168.39V163.76C75.81 163.76 99.65 171.93 100 171.83Z" fill="#E7C053"/>
</svg>
