<svg width="167" height="479" viewBox="0 0 167 479" fill="none" xmlns="http://www.w3.org/2000/svg">
<path d="M90.7899 42.18H90.7399H89.6199L85.6199 42.25H84.9999L80.4299 42.33H79.0999H77.7999H77.6999L77.5199 42.39L77.0799 42.58L76.5199 42.82L74.1799 44L73.8299 44.16L73.3699 44.38L73.1299 44.49L72.7799 44.65L70.3999 42.24L63.4899 42H62.8599C62.9799 42.54 64.6899 48.31 64.6899 48.31L67.2599 54.8L71.5599 61.52H82.3999L90.1099 52.41L90.1799 52.34L90.9499 51.44L90.9999 51.38V51.19L90.7899 42.18ZM79.6699 48.32C79.9799 48.39 84.0999 49.57 84.0999 49.57L68.9299 49.49L70.5499 48.32C70.5499 48.32 79.3599 48.26 79.6699 48.32ZM70.9999 52H80.4699C80.4699 52 78.3799 54.49 78.1399 54.41C77.8999 54.33 72.5199 54.41 72.5199 54.41L70.9999 52Z" fill="#E4B17B"/>
<path d="M67.77 0.0100098L74.23 1.81001L81.9 0.0100098L96.85 3.95001L83.64 7.24002L71.58 6.57002L67.77 0.0100098Z" fill="#3E383E"/>
<path d="M163.65 218.56V218.99L153.96 217.93L165 167.21C165 167.21 166.41 188.88 166.78 189.57V189.72C167 192.32 163.65 218.56 163.65 218.56Z" fill="#3A3B44"/>
<path d="M159.38 218.53L154.39 245.16L150.9 231.19L145.36 228.61L145.55 228.18L153.91 217.93L159.38 218.53Z" fill="#E4B37C"/>
<path d="M154.39 245.16L144.08 247.43L142.21 243.82L147.51 242.67L148 238.26L142.21 243.82L140.29 240.1L145.36 228.61L150.9 231.19L154.39 245.16Z" fill="#D1925E"/>
<path d="M166.67 245.42L161.63 249.36L144.08 247.43L154.39 245.16L166.67 245.42Z" fill="#9E6F5A"/>
<path d="M163.6 218.99L166.67 245.42L154.39 245.16L159.38 218.53L163.6 218.99Z" fill="#D1925E"/>
<path d="M140.75 80.06L129.29 97.54L109.17 83.82L123.8 75.5L124.02 75.6L140.75 80.06Z" fill="#7DD1F0"/>
<path d="M97.7901 64.8999C92.7901 67.0699 79.8701 74.0399 78.4601 74.4799C78.3901 74.4799 78.3501 74.4799 78.3401 74.4799C78.0801 74.2999 71.8701 69.1899 68.3401 66.4799L77.5101 70.0099L96.6101 59.9099V64.0399L97.7901 64.8999Z" fill="#D0A17F"/>
<path d="M96.61 53.9099V59.9099L77.4701 69.9999L68.3 66.4699L69.36 60.9399L71.1701 63.1299H82.4701L96.61 53.9099Z" fill="#BB865E"/>
<path d="M97.3799 44.4099L97.9299 43.8199L97.3799 44.4099L96.6199 53.9099L82.45 63.1299L91.0499 51.1299C93.63 47.5347 95.8411 43.6886 97.6499 39.6499C97.7999 39.2699 97.3799 44.2299 97.3799 44.4099Z" fill="#966C54"/>
<path d="M90.9999 51.1999L82.4599 63.1299H71.1599L69.3499 60.9399L67.0799 55.0399L64.7199 48.4599L62.1799 41.8799L63.4899 41.9499L65.3299 48.2999L67.8999 54.7899L71.5799 61.5099H82.3999L90.9999 51.1999Z" fill="#C7915D"/>
<path d="M102.36 27.8899L104.5 37.8899L97.3799 44.4599C97.3799 44.2799 97.7999 39.3199 97.6499 39.6699C99.1344 35.9046 100.119 31.961 100.58 27.9399L102.36 27.8899Z" fill="#D0A17F"/>
<path d="M102 13.05L100.84 27.7899L91.8401 23.53L92.4401 13.53L88.1001 14.24L76.4801 17.69L63.8401 13.11L62.6001 24.31L63.0101 8.62996C63.0101 8.62996 73.9401 11.03 74.1901 11.03C74.4401 11.03 91.2701 9.44996 91.6401 9.32996C92.0101 9.20996 96.9701 7.23996 97.2501 6.95996L102 13.05Z" fill="#22201F"/>
<path d="M88.1101 14.2699L85.5501 23.0799C85.5501 23.0799 74.4301 28.2499 74.2501 28.3799C74.0701 28.5099 66.0201 24.0599 65.6501 23.9399C65.2801 23.8199 63.8501 13.1399 63.8501 13.1399L75.9801 17.5399L88.1101 14.2699Z" fill="#E4B17B"/>
<path d="M100.82 27.89L97.02 29.91L92.09 31.4L89.33 28.03L87.02 25.22L91.85 23.53L100.81 27.79H100.79L100.82 27.89Z" fill="#689DD4"/>
<path d="M97.33 29.7301C97.33 29.7301 92.64 38.6101 91.23 41.3701L90.98 41.8401L90.82 42.1301V42.1801L77.82 42.4001C77.53 42.4001 72.82 44.6201 72.82 44.6201L70.44 42.2101L63.9 41.9501L62.21 41.8801L64.16 37.4901L71.03 39.2101L72.4 32.4001L63.2 28.2101L62.38 24.7001L62.65 24.3401L73.96 30.5601L87.19 25.1801L89.39 27.8701L76 32.7601L77.16 39.2101C77.44 39.2101 89.55 38.7201 89.75 38.6501C89.95 38.5801 92.13 31.2401 92.13 31.2401L97.33 29.7301Z" fill="#7DD1F0"/>
<path d="M72.3599 32.3999L70.9899 39.21L70.4599 32.72L63.1599 28.21L72.3599 32.3999Z" fill="#689DD4"/>
<path d="M64.1199 37.49L62.1699 41.88L59.9199 32.95V27.89L62.3499 24.7L63.1599 28.21L61.4099 31.7L63.0199 37.22L64.1199 37.49Z" fill="#689DD4"/>
<path d="M89.35 27.8701L79.17 32.5301L77.14 39.2101L75.98 32.7601L89.35 27.8701Z" fill="#689DD4"/>
<path d="M100.82 27.8899C100.58 28.2399 100.3 33.8899 97.9 39.5999L97.79 39.8599C95.64 44.9199 91.67 49.9399 91.12 51.0899C91.12 51.0899 91.07 51.2399 91.05 51.2799C91.0314 51.3162 91.0039 51.3472 90.97 51.3699L90.75 42.1599C90.75 42.1099 90.84 42.0099 90.91 41.8699L91.16 41.3999C92.64 38.6499 97.26 29.7599 97.26 29.7599L100.44 28.0199L100.73 27.9199L100.82 27.8899Z" fill="#4B5680"/>
<path d="M123 103.3L116.86 117.51C116.86 117.51 102.31 126.01 101.96 126.37C101.61 126.73 74.55 121 74.55 121L76.34 98.11L84.48 82.3L76.43 87.1901C76.43 87.1901 69.06 83.4001 68.43 82.7501L74 99.0901L70.31 121.43L47 127.73L34.24 118.92L46.33 134.24L62.78 128.24L48.87 141.29L53.1 177.65C53.1 177.65 60.81 196.39 61.27 196.65C61.73 196.91 86.06 196.65 86.06 196.65L103.35 171.4L113.68 165.84C113.68 165.72 113.68 165.66 113.68 165.66L113.96 164.9V164.85L126.32 124.4L123 103.3ZM92 153.75L92.14 155.4L94.14 180.05L90.96 184.76H90.69L72.97 186.88V129.67L95.57 140.34L92 153.75ZM79.58 128.32C79.58 128.32 104.2 132.88 104.87 132.71C105.54 132.54 125.34 116.8 125.96 116.31L106.88 140.31L79.58 128.32Z" fill="#689DD4"/>
<path d="M125.92 116.31L106.84 140.31L79.54 128.31C79.54 128.31 104.16 132.87 104.83 132.7C105.5 132.53 125.3 116.8 125.92 116.31Z" fill="#6767AE"/>
<path d="M73.9499 99.0901L70.2599 121.43L46.9999 127.73L34.2399 118.92L33.3999 102.48L48.5099 83.8201L73.9499 99.0901Z" fill="#7DD1F0"/>
<path d="M48.5099 83.8201L30.5799 99.0901L26.1699 93.8201L32.8799 78.6701L44.4699 77.8L44.9999 77.5601C46.2399 79.5001 48.5099 83.8201 48.5099 83.8201Z" fill="#7DD1F0"/>
<path d="M24.8799 118.45L24.9299 118.31L26.1699 93.8201L30.5799 99.0901L34.2399 118.92L24.8799 118.45Z" fill="#689DD4"/>
<path d="M52.3301 200.68L64.6501 225.74L63.5101 224L63.0401 223.26L62.7801 222.86L62.2201 221.97L61.6001 220.97L61.2701 220.45L60.2701 218.8L59.0901 217L58.3001 215.75L57.4901 214.48L57.0801 213.83L56.2801 212.57L54.9401 210.47L54.1601 209.23L53.3401 207.93C49.6801 202.15 46.5401 197.12 46.4801 196.87L49.8901 176.26C49.8901 176.26 43.6901 138.06 43.8901 134.59C42.9901 137.02 34.2601 157.12 33.5401 158.54L18.0801 150.72L32.1901 138.35L34.2401 118.93L46.3301 134.25L62.7801 128.25L48.8701 141.3L53.0901 177.66L52.3301 200.68Z" fill="#3A3B44"/>
<path d="M18.0899 150.71L16.8799 178.2L6.47995 212.64L0.449951 209.2L11.6899 162.9L18.0899 150.71Z" fill="#7DD1F0"/>
<path d="M33.5 158.63L31.8 172.33L12.22 212.9L6.47998 212.64L16.88 178.2L33.5 158.63Z" fill="#3A3B44"/>
<path d="M11.22 228.1L3.27002 241.15L0.0200195 227.28L0.450043 209.2L6.48004 212.64L11.22 228.1Z" fill="#D2935C"/>
<path d="M18.88 224.8L11.22 228.1L6.47998 212.64L12.22 212.9L18.76 224.45L18.88 224.8Z" fill="#E5B47E"/>
<path d="M22.24 234.69L19.63 237.31L11.22 228.1L18.88 224.8L22.24 234.69Z" fill="#CF975D"/>
<path d="M19.63 237.31L17.52 241.28L16.79 242.65L3.29004 241.23L3.27002 241.15L11.22 228.1L19.63 237.31Z" fill="#9E6F5A"/>
<path d="M118.26 190.32L95.5399 211L85.8099 225.77C85.3099 225.1 107.34 193.43 106.81 192.93C106.28 192.43 103.32 171.48 103.32 171.48L113.65 165.92C113.88 168.04 118.11 188.98 118.11 189.81C118.149 189.983 118.199 190.153 118.26 190.32V190.32Z" fill="#6767AE"/>
<path d="M64.6601 225.76L55.0001 281.46L39.8301 264.56L46.4501 196.87C46.5901 197.46 64.0701 224.87 64.6201 225.74L64.6601 225.76Z" fill="#7DD1F0"/>
<path d="M130.92 247.26L134.27 303.78C134.27 303.78 125.14 314.85 121.7 319.78C124.2 314.2 129.39 300.23 129.39 299.97C129.39 299.71 116.61 282.92 115.21 279.49C115.3 279.08 115.3 278.86 115.21 278.88C115.12 278.9 115.09 279.12 115.21 279.49C114.21 283.63 103.15 307.64 102.21 309.58L102.15 309.71C94.92 285.18 85.2 252.39 85.2 252.39L80 288.75C80 288.75 74.75 314.23 74.7 314.75C73.2997 316.228 71.6971 317.501 69.94 318.53C65.37 321.41 59.86 324.89 59.42 325.18C58.65 325.69 69.61 304.29 69.61 304.29L55 281.46L64.62 225.76C64.62 225.76 85.79 226.42 85.79 225.76L115.16 277.54L130.92 247.26Z" fill="#3A3B44"/>
<path d="M55.0299 281.46L49.2999 314.04L39.8599 264.56L55.0299 281.46Z" fill="#3A3B44"/>
<path d="M73.0001 337.13L61.2001 351.45L45.6001 327.11L48.8201 315.7L49.0801 314.8L49.3001 314.04L55.0001 281.46L69.5401 304.32C69.5401 304.32 58.5401 325.72 59.3501 325.21L74.6401 314.78C74.8901 314.13 73.0001 337.13 73.0001 337.13Z" fill="#689DD4"/>
<path d="M79.2799 373.96L61.1599 351.45L72.9599 337.13L79.2799 373.96Z" fill="#6767AE"/>
<path d="M79.2799 373.96L62.9999 443.92L61.1599 351.45L79.2799 373.96Z" fill="#8193CA"/>
<path d="M51.5801 418.72C51.5801 418.72 49.3501 357.72 49.1301 357.05C48.9101 356.38 45.6001 327.77 45.6001 327.11L61.1601 351.45L63.0001 443.92L51.5801 418.72Z" fill="#3A3B44"/>
<path d="M63.87 467L27 468.76C27 468.76 18.06 471.76 17.19 471.59C16.32 471.42 2 469.2 2 469.2L2.87 463.75L21.93 464.57L39.5 465.33L56.29 461.63C56.29 461.63 63.45 459.79 63.67 459.85C63.77 463.85 63.87 467 63.87 467Z" fill="#40403E"/>
<path d="M63.6401 459.85C63.4201 459.79 56.2601 461.63 56.2601 461.63L47.8501 440.4L51.5801 418.5L63.0001 443.7C63.1101 443.7 63.4301 453 63.6401 459.85Z" fill="#689DD4"/>
<path d="M56.2601 461.63L39.4701 465.55L21.9001 464.79L11.5801 459.85L37.8701 449.46L56.2601 461.63Z" fill="#7DD1F0"/>
<path d="M21.9001 464.79L2.84009 463.75L11.5701 459.85H11.5801L21.9001 464.79Z" fill="#6767AE"/>
<path d="M130.92 247.26L115.19 277.56C114.56 276.94 121.65 211.21 121.65 211.21C126.34 226.84 130.92 247.26 130.92 247.26Z" fill="#689DD4"/>
<path d="M134.26 303.78C134.26 303.78 133.37 304.86 132.04 306.5L131.23 307.5C130.62 308.25 129.96 309.07 129.23 309.94C128.97 310.26 128.7 310.59 128.44 310.94C128.18 311.29 127.92 311.58 127.67 311.94L126.67 313.16C125.77 314.3 124.88 315.45 124.06 316.51L123.25 317.58C123.222 317.627 123.189 317.671 123.15 317.71C122.75 318.24 122.39 318.71 122.05 319.2L121.71 319.68C121.677 319.718 121.647 319.758 121.62 319.8L121.68 319.67C122.15 318.61 122.68 317.26 123.32 315.78L123.88 314.39L123.94 314.25C124.34 313.25 124.75 312.2 125.15 311.15C125.28 310.83 125.4 310.52 125.52 310.21C125.82 309.43 126.12 308.66 126.4 307.9C126.68 307.14 126.9 306.59 127.13 305.98C127.36 305.37 127.5 304.98 127.66 304.56C127.82 304.14 127.93 303.86 128.05 303.56C128.17 303.26 128.25 303 128.35 302.74C128.94 301.14 129.35 300.09 129.35 300.02C129.35 299.79 116.57 282.97 115.17 279.54C115.17 279.62 115.17 279.71 115.1 279.8C115.087 279.864 115.07 279.928 115.05 279.99C115.05 280.07 115 280.16 114.97 280.25C114.94 280.34 114.85 280.63 114.77 280.85L114.65 281.19C114.65 281.31 114.56 281.43 114.52 281.56C114.48 281.69 114.42 281.81 114.38 281.94C114.34 282.07 114.27 282.21 114.22 282.35L114 283L113.88 283.28C113.88 283.42 113.77 283.57 113.71 283.71C113.47 284.32 113.21 284.96 112.93 285.64C112.86 285.81 112.79 285.98 112.71 286.15C112.63 286.32 112.6 286.41 112.54 286.55C112.48 286.69 112.38 286.94 112.29 287.14C111.91 288.03 111.52 288.97 111.1 289.92C110.97 290.24 110.83 290.56 110.69 290.92C110.55 291.24 110.41 291.57 110.26 291.92L108.95 294.92L108.19 296.64L107.35 298.51L106.53 300.32L105.82 301.9L105.3 303.04L103.72 306.51L103.38 307.23L103.18 307.67C103.13 307.79 103.07 307.9 103.02 308.01L102.92 308.23C102.78 308.53 102.66 308.78 102.57 308.99L102.44 309.28L102.34 309.49L102.29 309.6L102.23 309.73L117.4 326.9V327L120.4 348.76L135.51 333.93L134.26 303.78Z" fill="#689DD4"/>
<path d="M135.59 420.64L116 381.71C116 381.71 116 381.3 115.9 380.57C115.96 379.31 120.39 356.41 120.39 356.41L109.85 336C109.85 335.75 106.45 324.14 102.3 309.8L117.52 327.03L120.42 348.68L151.67 417.08L155.62 447.8L135.59 420.64Z" fill="#3A3B44"/>
<path d="M120.42 356.38C120.42 356.38 115.99 379.28 115.93 380.54C115.34 373.54 109.85 336.63 109.85 336.04L120.42 356.38Z" fill="#6767AE"/>
<path d="M151.67 417.12L120.42 348.72L135.53 333.89L146.18 367.57L151.67 417.12Z" fill="#8193CA"/>
<path d="M160.88 460.18L137.92 452.75L136 421.48L135.59 420.64L155.62 447.84L160.88 460.18Z" fill="#689DD4"/>
<path d="M165.41 470.82L141.28 470.38C141.28 470.38 138 460.7 138 460.29V453.07L137.95 452.75L160.95 460.18L165.41 470.82Z" fill="#7DD1F0"/>
<path d="M167 474.43L153.49 478.79H141.49L135.83 471.79L138 460.7V460.29C138 460.7 141.31 470.38 141.31 470.38L165.44 470.82L167 474.43Z" fill="#40403E"/>
<path d="M152.85 154.33C152.85 154.33 146.71 159.42 142.52 162.77C141.52 161.54 136.03 151.95 134.52 150.55C137 151.53 151.77 154.21 152.85 154.33Z" fill="#3A3B44"/>
<path d="M153.91 217.93L144 180.8L142.66 163L142.52 162.81C146.71 159.46 152.85 154.37 152.85 154.37L153.91 217.93Z" fill="#7DD1F0"/>
<path d="M165.04 167.21L153.91 217.93L152.85 154.33L165.04 167.21Z" fill="#689DD4"/>
<path d="M105 69.8001L84.5201 82.2501L76.4701 87.1401C76.4701 87.1401 69.1001 83.3501 68.4701 82.7001V82.6101C68.7201 82.4401 65.7901 75.4401 63.6001 71.0601L66.3401 68.4101L66.7401 68.0301C67.0101 67.7901 67.2501 67.5601 67.4701 67.3501C67.9101 66.9401 68.2201 66.6201 68.3001 66.5201C71.8701 69.2401 78.0801 74.3501 78.3001 74.5201C78.3001 74.5201 78.3501 74.5201 78.4201 74.5201C79.7501 73.9901 91.8301 66.0801 96.5001 64.0901L97.7501 64.9401L105 69.8001Z" fill="#6767AE"/>
<path d="M73.95 99.0899L48.51 83.8199L68.44 82.6099L68.47 82.6999L73.95 99.0899Z" fill="#7DD1F0"/>
<path d="M33.4001 102.48L34.2401 118.92L30.5801 99.0901L48.5101 83.8201L33.4001 102.48Z" fill="#3A3B44"/>
<path d="M32.2001 138.35L18.0901 150.71L20.0001 131.61L24.8801 118.45L34.2401 118.92L32.2001 138.35Z" fill="#7DD1F0"/>
<path d="M33.5499 158.53L33.4999 158.63L16.8799 178.2L18.0899 150.71L33.5499 158.53Z" fill="#689DD4"/>
<path d="M17.52 241.28L6.47998 238.86L9.49997 235.21L19.63 237.31L17.52 241.28Z" fill="#CF975D"/>
<path d="M109.17 83.82L76.3401 98.06L84.4801 82.25L109.17 83.82Z" fill="#7DD1F0"/>
<path d="M123 103.3L116.86 117.51C116.86 117.51 102.31 126.01 101.96 126.37C101.61 126.73 74.55 121 74.55 121L76.3401 98.1101L109.17 83.8701L123 103.3Z" fill="#7DD1F0"/>
<path d="M148 238.26L147.51 242.67L142.21 243.82L148 238.26Z" fill="#966445"/>
<path d="M91.9599 153.75L94.1099 180.06L90.9299 184.77L72.9399 186.92V129.67L95.5399 140.34L91.9599 153.75Z" fill="#7DD1F0"/>
<path d="M115.19 277.56L85.8201 225.78L95.5401 211L118.26 190.33C118.81 192.41 120.13 200.65 121.65 211.22C121.65 211.21 114.56 276.94 115.19 277.56Z" fill="#7DD1F0"/>
<path d="M85.8101 225.76C85.8101 226.4 64.6501 225.76 64.6501 225.76L52.3301 200.7L53.1001 177.7C53.1001 177.7 60.8101 196.44 61.2701 196.7C61.7301 196.96 86.0601 196.7 86.0601 196.7L103.35 171.45C103.35 171.45 106.35 192.4 106.84 192.9C107.33 193.4 85.3101 225.09 85.8101 225.76Z" fill="#689DD4"/>
<path d="M92.4499 13.5599L91.8499 23.5599L87.1499 25.2099L73.9199 30.5899L62.6099 24.3699L63.8499 13.1699C63.8499 13.1699 65.2899 23.8499 65.6499 23.9699C66.0099 24.0899 74.0599 28.5299 74.2499 28.4099C74.4399 28.2899 85.5499 23.1099 85.5499 23.1099L88.1099 14.2999L92.4499 13.5599Z" fill="#D0965D"/>
<path d="M84.1099 49.5701L81.6299 50.1201L70.1799 49.8501C70.1799 49.8501 68.9799 49.4801 68.9299 49.4801L70.5499 48.3201C70.5499 48.3201 79.36 48.2601 79.67 48.3201C79.98 48.3801 84.1099 49.5701 84.1099 49.5701Z" fill="#8F5729"/>
<path d="M80.46 52C80.46 52 78.37 54.49 78.13 54.41C77.89 54.33 72.51 54.41 72.51 54.41L71 52H80.46Z" fill="#8F5729"/>
<path d="M92.1101 31.2401C92.1101 31.2401 89.9301 38.5801 89.7301 38.6501C89.5301 38.7201 77.4201 39.2101 77.1401 39.2101L79.1401 32.5301L89.3201 27.8701L92.1101 31.2401Z" fill="#FFFDFD" stroke="#231F20" stroke-linejoin="round"/>
<path d="M70.9899 39.21L64.1199 37.49L63.0199 37.22L61.4099 31.7L63.1599 28.21L70.4599 32.72L70.9899 39.21Z" fill="#FFFDFD" stroke="#231F20" stroke-linejoin="round"/>
<path d="M77.48 42.4699L90.3 43.7299L91 51.3499L90.79 42.1799L77.79 42.3999L77.48 42.4699Z" fill="#6A3F26"/>
<path d="M102 13.05L89.3801 12.12L74.2701 14.51L64.1501 11.85L63.05 8.66L64.4501 6.12L85.1301 8.50999L96.8501 4L102 13.05Z" fill="#22201F"/>
<path d="M74.53 27.75L75.98 25.2V26.9799L74.53 27.75Z" fill="#A46A33"/>
<path d="M67.44 67.35C67.22 67.56 66.98 67.79 66.71 68.03L68.27 66.5C68.19 66.62 67.88 66.94 67.44 67.35Z" fill="#643090"/>
<path d="M68.44 82.6101L48.51 83.8201C48.51 83.8201 46.79 80.5401 45.51 78.4001C45.32 78.0801 45.14 77.7901 44.98 77.5401L48.36 75.5401L48.49 75.4601V75.5201C51.8 75.1301 59.08 74.5201 59.08 74.5201C60.6647 73.5021 62.16 72.3512 63.55 71.0801C65.76 75.4401 68.69 82.4401 68.44 82.6101Z" fill="#689DD4"/>
<path d="M48.5099 75.47V78.36H45.5099L32.8599 78.61L46.7999 75.7L48.5099 75.47Z" fill="#689DD4"/>
<path d="M91.9599 153.75L72.9399 150.39L71.6699 154.72L92.0999 155.41L93.9199 154.38L91.9599 153.75Z" fill="#689DD4"/>
<path d="M52.33 200.68L64.65 225.74L63.51 224L63.04 223.26L62.78 222.86L62.22 221.97L61.6 220.97L61.27 220.45L60.27 218.8L59.09 217L58.3 215.75L57.49 214.48L57.08 213.83L56.28 212.57L54.94 210.47L54.16 209.23L53.34 207.93C49.68 202.15 46.54 197.12 46.48 196.87L49.89 176.26C49.89 176.26 43.69 138.06 43.89 134.59L34.24 118.93L46.33 134.25L62.78 128.25L48.87 141.3L53.09 177.66L52.33 200.68Z" fill="#6767AE"/>
<path d="M96.85 4.00002V8.71002L74.15 13.19L63 8.66002L64.4 6.12001C65.77 3.63001 67.68 0.12001 67.74 0.0100098C67.74 0.35001 74.85 4.75002 74.85 4.75002L78.68 2.32002L81.88 3.95001L96.85 4.00002Z" fill="#22201F"/>
<path d="M92.4499 13.5599C92.4499 13.5599 96.5899 11.3299 96.5599 11.4799C96.5299 11.6299 94.9999 24.8699 94.9999 24.8699L91.8599 23.5299L92.4499 13.5599Z" fill="#3E383E"/>
<path d="M101.37 30.1201L103.51 37.4901L100.52 40.9201L101.37 30.1201Z" fill="#AB8569"/>
<path d="M100.52 40.9201L98.6699 40.7701L101.37 30.1201L102.96 35.5201L100.52 40.9201Z" fill="#AB8569"/>
<path d="M76 16.92C76 16.74 66 9.40996 66 9.40996C66 9.40996 67.64 0.759955 67.83 1.00996C68.02 1.25996 74.09 8.46996 74.09 8.46996L76 16.92Z" fill="#3E383E"/>
<path d="M62.1699 41.8799L70.2199 43.0799C70.2199 43.0799 72.9399 44.7799 72.7799 44.6199L70.3999 42.2099L62.1699 41.8799Z" fill="#6A3F26"/>
<path d="M123.81 75.5001L109.18 83.8201L84.49 82.2501L104.96 69.8L106.21 70.6501L123.81 75.5001Z" fill="#689DD4"/>
<path d="M123.02 103.3L122.97 124.51L113.68 165.91L126.95 124.03L123.02 103.3Z" fill="#29272C"/>
<path d="M70.3499 137C70.6899 137.85 69.67 149.31 69.67 149.31L58.45 150.03L60.8199 139.2L70.3499 137Z" fill="#7DD1F0"/>
<path d="M102.25 309.54L102.19 309.67C94.9599 285.14 85.2399 252.35 85.2399 252.35L79.9999 288.75C79.9999 288.75 74.75 314.23 74.7 314.75C73.2997 316.228 71.6971 317.501 69.9399 318.53L76.1499 298.32L84.2799 249.11L77.1099 245.77L73.9999 237.31L80.4699 242.7H88.39C88.39 242.7 90.18 251.01 90.64 251.85C91.1 252.69 101.37 305 102.25 309.54Z" fill="#6767AE"/>
<path d="M37.8701 449.46L47.8701 440.4C47.8701 440.4 56.8701 462.4 56.2901 461.85C55.7101 461.3 37.8701 449.46 37.8701 449.46Z" fill="#6767AE"/>
<path d="M163.65 218.56V218.99L153.96 217.93L166.86 189.57V189.72C167 192.32 163.65 218.56 163.65 218.56Z" fill="#689DD4"/>
<path d="M71.5701 61.5099C71.7001 61.3599 73.4701 58.3999 73.4701 58.3999L78.6301 58.1299L82.4001 61.5099L75.2001 62.4499L71.5701 61.5099Z" fill="#C7915D"/>
<path d="M151.43 104.51V104.58L141.78 121.27L127.28 112.73L129.28 97.5401L140.74 80.0601L141.06 80.11L151.43 104.51Z" fill="#689DD4"/>
<path d="M135 126.45C135 126.45 133.8 149.15 134.19 150.31C133.53 150.24 126.74 125.55 126.74 125.55L121.11 104.7L109.48 83.8201L129.32 97.4801L127.65 112.64L141.78 121.27L135 126.45Z" fill="#3A3B44"/>
<path d="M165 167.21L152.81 154.33L141.74 121.27L151.48 104.37C151.38 105.43 154.29 119.37 154.48 120.02C154.67 120.67 155.1 133.64 155.1 133.64C155.1 133.64 155.79 153.23 155.86 152.57C155.93 151.91 165 167.21 165 167.21Z" fill="#3A3B44"/>
<path d="M152.85 154.33C151.77 154.21 136.95 151.53 134.51 150.55C134.427 150.447 134.321 150.365 134.2 150.31C133.81 149.15 135.01 126.45 135.01 126.45L141.79 121.27L152.85 154.33Z" fill="#7DD1F0"/>
<path d="M46.83 75.73L48.5101 75.47V75.53H48.3801L46.8201 75.72L46.83 75.73Z" fill="#662F8E"/>
</svg>
