<svg width="162" height="515" viewBox="0 0 162 515" fill="none" xmlns="http://www.w3.org/2000/svg">
<path d="M123.88 102.18L116.2 103.94L114.62 103.86L120.43 89.2501L113.15 50.3601L107.99 65.3601L105.38 67.3601V56.3701L101.92 41.8301L99.37 31.1601L98.05 25.5801L76.34 31.9001L60.24 24.4801L56.24 30.4201C56.24 30.4201 56.24 33.0501 56.24 36.0601C55.61 38.5901 53.96 45.2901 53.96 46.0001C53.96 46.8901 55.09 61.1801 55.46 61.9201C55.83 62.6601 50.85 72.6801 50.85 72.6801L56.48 68.8501L61.15 61.4601L63.81 71.5701L69.11 78.3101L68.56 99.0001L56.25 103.3L55.57 103.07L46.41 100.29L43.58 62.2901L47.2 24.4401L62.2 5.52006L80.65 0.0600586L102.03 7.06006L116.41 31.8401L119.37 53.0001L118.1 56.0601L123.79 85.5901L123.88 102.18Z" fill="#F9DE2B"/>
<path d="M53.91 45.1602L49.68 60.4202L48.59 57.2802L46.68 65.1302L51.51 101.73C51.51 101.73 60.72 94.6201 61.36 93.7301C62 92.8401 59.71 69.0602 59.71 69.0602L57.05 53.3002L53.91 45.1602Z" fill="#97712D"/>
<path d="M53.59 70.8202L54.59 78.8802L52.79 83.4002L51.49 101.73C51.49 101.73 62.72 108.88 63.02 108.78C63.32 108.68 71.02 105.57 71.18 105.17C71.34 104.77 75.18 94.4302 75.06 92.8302C74.94 91.2302 75.19 77.2502 74.62 76.9102C74.05 76.5702 67.84 70.5602 67.43 70.2502C67.02 69.9402 63.32 61.3302 63.32 61.3302L59.85 59.2202L53.59 70.8202Z" fill="#97712D"/>
<path d="M95.61 78.6402L95.39 82.0202L79.27 99.3302L79.56 120.77L69.56 125.59L45.68 116.25C45.68 116.25 45.36 113.25 45.68 112.83L55.58 103.13L56.26 103.36L71 98.0002L69.14 78.3602L63.84 71.6201L61.18 61.5101V61.2502L59.27 56.6602L58.57 54.1602L61.4 57.3302C61.4 57.3302 74.22 61.3802 74.68 61.3802C75.14 61.3802 78.68 65.3802 78.68 65.3802V72.1201L71.26 70.7301L74.37 75.5802L78.68 76.9702V86.9702H83.81L95.61 78.6402Z" fill="#DC9159"/>
<path d="M76.34 31.9L72.57 33.42L72.23 38.04L56.25 30.42L60.24 24.48L76.34 31.9Z" fill="#F4831F"/>
<path d="M99.37 31.1601L84.2 38.0601L82.85 38.6801L82.23 34.0901L76.34 31.9001L98.05 25.5801L99.37 31.1601Z" fill="#F4831F"/>
<path d="M101.92 41.8302L95.61 38.6801C95.61 38.6801 82.04 47.4202 81.61 47.7502C81.18 48.0802 84.17 38.0602 84.17 38.0602L99.34 31.1602L101.92 41.8302Z" fill="#EE4023"/>
<path d="M101.92 41.8301L95.61 38.6801C95.61 38.6801 82.04 47.4201 81.61 47.7501C81.18 48.0801 84.17 38.0601 84.17 38.0601L82.82 38.6801L77.52 46.9401L78.32 52.8001L78.12 61.9801L82.82 60.9801L102.04 54.8101L105.35 56.3901L101.92 41.8301ZM78.92 59.7201L80.18 54.1101L82.56 59.7201H78.92ZM101.92 49.0801L93.54 54.7901L82.85 50.2101C83.48 50.2101 96.42 41.3601 96.42 41.3601L101.92 45.8801V49.0801Z" fill="#EE4023"/>
<path d="M74.67 61.3602C74.2 61.3602 61.39 57.3102 61.39 57.3102L58.56 54.1302C57.6369 51.0353 56.8758 47.8944 56.28 44.7202C56.28 44.0202 56.28 39.7702 56.28 36.0902C56.28 33.0902 56.28 30.4502 56.28 30.4502L61.28 40.7402L61.46 41.3802L61.64 41.9802L57.71 46.5702L64.79 54.8102L65.45 54.4402L74.67 61.3602Z" fill="#EE4023"/>
<path d="M145.93 195.34L146.14 206.05L138.24 212.74L138.49 198.06V197.92L138.67 187.1V186.79L137.42 182.79L135.72 177.35L118.84 148V147.93L118.23 146.86L118.37 146.36L119.57 142.02L121.57 134.62C122.28 134.25 137.3 128.96 137.3 128.96L134.34 140L132.4 147.32L132.31 147.66C132.31 147.66 132.31 147.77 132.36 147.87V148C132.36 148 132.36 148.11 132.36 148.17C132.36 148.23 132.42 148.42 132.46 148.57L132.59 149.08C132.59 149.26 132.68 149.45 132.74 149.66C132.82 149.94 132.89 150.24 132.97 150.57V150.73C133.04 150.99 133.11 151.26 133.18 151.55C133.25 151.84 133.33 152.14 133.41 152.45C133.49 152.76 133.5 152.82 133.55 153.02C133.71 153.63 133.88 154.29 134.05 154.97C134.17 155.42 134.28 155.88 134.41 156.35C134.47 156.6 134.54 156.86 134.6 157.12C135.14 159.19 135.72 161.47 136.33 163.8C136.41 164.09 136.49 164.39 136.56 164.68L137.26 167.33C137.34 167.63 137.42 167.92 137.49 168.21C137.8 169.38 138.12 170.54 138.42 171.68C138.5 171.96 138.58 172.25 138.65 172.53L139.1 174.18C139.18 174.45 139.25 174.72 139.32 174.99C139.98 177.38 140.6 179.53 141.12 181.25C141.18 181.44 141.23 181.62 141.29 181.8C141.42 182.24 141.55 182.65 141.67 183.02C141.79 183.39 141.82 183.46 141.89 183.66L142.01 184.01C142.13 184.34 142.24 184.62 142.32 184.82C142.372 184.942 142.436 185.06 142.51 185.17C142.528 185.201 142.552 185.228 142.58 185.25C142.58 185.25 142.64 185.25 142.66 185.25C142.694 185.214 142.737 185.186 142.783 185.169C142.83 185.152 142.88 185.145 142.93 185.15C143.009 185.137 143.091 185.137 143.17 185.15L143.44 185.24H143.49L143.75 185.37C143.9 185.44 144.06 185.54 144.23 185.64C144.63 185.89 145.08 186.21 145.54 186.56C145.703 186.671 145.86 186.791 146.01 186.92C147.2 187.84 148.41 188.92 149.15 189.58C149.211 189.628 149.268 189.682 149.32 189.74L149.84 190.21L145.73 192.74V194.74L145.93 195.34Z" fill="#DC9159"/>
<path d="M37 136.42L35.68 139.19L26.38 158.75L26.49 175.09L26.61 193.72C25.9256 193.315 25.2214 192.944 24.5 192.61C24.09 192.44 23.77 192.34 23.73 192.46C23.61 192.76 23.68 198.39 23.73 200.39V200.58L21.94 199.46L17.08 196.46C17.08 196.46 17.64 188.3 18.08 181.46C18.38 176.82 18.64 172.75 18.64 172.12C18.64 171.79 18.95 169.86 19.42 167.05C20.15 162.81 21.27 156.53 22.34 150.63C22.49 149.81 22.63 149 22.78 148.2C24.13 140.78 25.28 134.51 25.28 134.51L28.7 138.16L29.37 138.88C31.6975 137.592 34.2564 136.776 36.9 136.48L37 136.42Z" fill="#DC9159"/>
<path d="M158.49 195.48L147.49 204.87L146.15 206.02L145.94 195.31V194.81V192.81L150.05 190.28L149.53 189.81C149.478 189.752 149.421 189.698 149.36 189.65C148.62 188.98 147.41 187.91 146.22 186.99C146.07 186.862 145.913 186.741 145.75 186.63C145.29 186.28 144.84 185.96 144.44 185.71C144.27 185.61 144.11 185.51 143.96 185.44L143.7 185.31H143.65L143.38 185.22C143.301 185.207 143.22 185.207 143.14 185.22C143.09 185.215 143.04 185.222 142.994 185.239C142.947 185.257 142.905 185.284 142.87 185.32C142.87 185.32 142.87 185.32 142.79 185.32C142.762 185.298 142.738 185.271 142.72 185.24C142.646 185.13 142.582 185.013 142.53 184.89C142.41 184.61 142.26 184.22 142.1 183.73C142.03 183.53 141.95 183.32 141.88 183.09C141.81 182.86 141.63 182.31 141.5 181.87C141.44 181.69 141.39 181.51 141.33 181.32C140.81 179.6 140.19 177.45 139.53 175.06C139.46 174.79 139.39 174.52 139.31 174.25L138.86 172.6C138.79 172.32 138.71 172.03 138.63 171.75C138.33 170.61 138.01 169.45 137.7 168.28C137.63 167.99 137.55 167.7 137.47 167.4L136.77 164.75C136.7 164.46 136.62 164.16 136.54 163.87C135.93 161.54 135.35 159.26 134.81 157.19C134.75 156.93 134.68 156.67 134.62 156.42C134.49 155.95 134.38 155.49 134.26 155.04C134.09 154.36 133.92 153.7 133.76 153.09C133.71 152.89 133.67 152.7 133.62 152.52C133.46 151.9 133.31 151.32 133.18 150.8V150.64C133.1 150.31 133.03 150.01 132.95 149.73C132.89 149.52 132.84 149.33 132.8 149.15L132.67 148.64C132.67 148.49 132.6 148.35 132.57 148.24C132.54 148.13 132.57 148.12 132.57 148.07V147.94C132.57 147.84 132.57 147.76 132.52 147.73L132.61 147.39L134.55 140.07L137.49 128.97L138.82 132.62L146.27 153L146.43 153.44L149.91 162.94L156.84 181.94L158.13 191.38L158.49 195.48Z" fill="#F1B280"/>
<path d="M108 109.26C108 109.26 109.44 111.34 111.25 114.38L72.12 126.61L69.56 125.61L79.56 120.79L79.27 99.35L95.39 82L94.93 98.33L114.62 103.83L116.2 103.91L108 109.26Z" fill="#E4B17B"/>
<path d="M36.79 136.82L35.66 139.19L36.04 137.61L36.86 136.47L36.91 136.39C36.8642 136.32 36.8363 136.24 36.8288 136.156C36.8213 136.073 36.8345 135.989 36.8671 135.912C36.8997 135.835 36.9508 135.767 37.0158 135.714C37.0808 135.662 37.1578 135.626 37.24 135.61H37.31H37.39H37.54L36.92 136.48C36.92 136.48 36.92 136.48 36.92 136.55L36.74 136.94L36.79 136.82Z" fill="#F1B280"/>
<path d="M37.05 159.78L37.53 160.71V160.78L37 165.78V165.89L34.65 188L31.16 204.33L28.61 203.06L23.68 200.61V200.42C23.68 200.03 23.68 199.5 23.68 198.9C23.68 196.99 23.68 194.36 23.68 193.15C23.68 192.99 23.68 192.86 23.68 192.75C23.68 192.64 23.68 192.63 23.68 192.58C23.6779 192.55 23.6779 192.52 23.68 192.49C23.68 192.37 24.04 192.49 24.45 192.64L24.67 192.74L24.9 192.85L25.14 192.97C25.62 193.21 26.09 193.48 26.35 193.63L26.51 193.72H26.56L26.44 175.09L26.33 158.75L35.63 139.19L33.14 149.64L32.46 150.86C32.4798 150.905 32.5032 150.949 32.53 150.99L37 159.7C37 159.7 37 159.77 37.05 159.78Z" fill="#F1B280"/>
<path d="M76.53 50.3902L73.49 45.9002L62.1 41.3802H61.42L61.24 40.7402L56.28 30.4502L72.25 38.0702L75.55 43.5802L76.53 50.3902Z" fill="#EE4023"/>
<path d="M82.85 38.6799L77.55 46.9399L75.52 43.5499L72.23 38.0399L72.57 33.4199L76.34 31.8999L82.23 34.0899L82.85 38.6799Z" fill="#F4831F"/>
<path d="M120.43 89.2499L114.62 103.86L92.87 98.3599L95.39 82.0299V82.0199L95.61 78.6399L99.29 72.1599L105.38 56.3699V67.3199L107.99 65.3199L113.15 50.3599L120.43 89.2499Z" fill="#97712D"/>
<path d="M105.38 56.37L99.29 72.16L95.61 78.64L83.75 86.86H78.62V76.91L82.58 76.33L86.72 72.06L90.85 67.3201L86.72 70.67L78.62 72.06V65.3201L82.85 60.97L102.07 54.79L105.38 56.37Z" fill="#E4B17B"/>
<path d="M90.85 67.3198L86.72 72.0598L82.59 76.3298L78.63 76.9098L74.31 75.5198L71.2 70.6698L76.95 73.6498L81.02 73.2198L86.72 70.6698L90.85 67.3198Z" fill="#A96739"/>
<path d="M86.72 70.6699L81.02 73.2199L76.95 73.6499L71.2 70.6699L78.63 72.0599L86.72 70.6699Z" fill="#9E5C28"/>
<path d="M82.58 59.7199H78.94L80.19 54.1099L82.58 59.7199Z" fill="#7C4B20"/>
<path d="M82.85 60.9999L78.62 65.3499C78.62 65.3499 75.1 61.3499 74.62 61.3499L65.37 54.4399C67.37 53.2999 73.55 49.8999 73.96 49.8999L62.05 41.3799L73.45 45.8999L76.45 50.3799L75.45 43.5699L77.45 46.9599L78.24 52.8199L78.05 61.9999L82.85 60.9999Z" fill="#EE4023"/>
<path d="M61.17 61.4601L56.5 68.8501L50.87 72.6801C50.87 72.6801 55.87 62.6801 55.48 61.9201C55.09 61.1601 53.98 46.9201 53.98 46.0001C53.98 45.2901 55.63 38.5901 56.26 36.0601C56.26 39.7501 56.26 44.0001 56.26 44.6901C56.8592 47.8668 57.6202 51.0109 58.54 54.1101L59.24 56.6101L61.15 61.2001L61.17 61.4601Z" fill="#DAA733"/>
<path d="M101.92 45.8799V49.0799L93.54 54.7899L82.85 50.2099C83.48 50.2099 96.42 41.3599 96.42 41.3599L101.92 45.8799Z" fill="white" stroke="#231F20" stroke-linejoin="round"/>
<path d="M74 49.88C73.59 49.88 67.44 53.28 65.41 54.42L64.75 54.79L57.67 46.55L60.77 41.55L61.23 40.73L74 49.88Z" fill="white" stroke="#231F20" stroke-linejoin="round"/>
<path d="M79.85 218.19L79.62 237.55L69.93 241.95C69.93 241.95 69.93 226.67 69.93 225.95C69.93 225.95 69.82 225.95 69.71 226L69.56 226.07L69.37 226.18C67.03 227.53 58.32 234.38 58.32 234.38L58.03 234.15L57.14 218.15V214.42H57.35C58.44 215.69 60.59 218.16 60.96 218.16L79.85 218.19Z" fill="#EE4023"/>
<path d="M128.52 266.09L116.87 353.55L102.79 354.94L77.63 272.66C77.63 272.66 88.38 263.86 99.14 255.2C101.41 253.36 103.69 251.54 105.86 249.81C105.55 257.51 103.91 291.99 103.91 291.99C103.91 291.99 116.61 320.15 116.97 319.59C117.33 319.03 128.09 267.7 128.52 266.09Z" fill="#7C4B20"/>
<path d="M47.83 509.26L20.24 510.84C20.24 510.84 10.24 512.05 9.44 511.84L0.640015 509.67L1.41 506.29L15.27 506.99H15.72L26.53 507.68L40.41 504.49L40.94 504.38H41H41.16C41.52 504.29 47.39 502.72 47.57 502.78C47.75 506.38 47.83 509.26 47.83 509.26Z" fill="#7C4B20"/>
<path d="M26.46 507.56L40.44 504.54L26.57 507.73L15.76 507.04L15.31 507.02H15.3L15.27 507L15.57 507.02L26.46 507.56Z" fill="#001750"/>
<path d="M47.63 502.76C47.45 502.7 41.58 504.27 41.22 504.36L41.17 504.24V504.1L40.85 503.18C40.76 502.93 40.66 502.64 40.54 502.33C40.42 502.02 40.31 501.69 40.17 501.33L40.01 500.91C39.96 500.75 39.9 500.58 39.83 500.41L39.07 498.41L38.82 497.75L37.92 495.41C37.75 494.96 37.59 494.52 37.42 494.08C36.99 492.98 36.57 491.88 36.18 490.86L35.75 489.78C35.35 488.78 34.99 487.78 34.69 487.05L34.57 486.74L34.42 486.36C34.36 486.2 34.3 486.06 34.26 485.93L34.12 485.59C34.01 485.28 33.94 485.12 33.94 485.12L34.07 484.34V485.34H46.55C46.58 485.33 47.45 496.54 47.63 502.76Z" fill="#EE4023"/>
<path d="M40 471.49H39.76V471L40 471.49Z" fill="#1C387F" stroke="#9AB8C7" stroke-miterlimit="10"/>
<path d="M41 504.41L40.47 504.53L26.59 507.72L15.76 507H15.31L6.81 502.76L25.22 493.33L27.66 495.02L28.53 495.62L29.17 496.05L29.99 496.63C34.2 499.57 39.91 503.54 41 504.41Z" fill="#EE4023"/>
<path d="M15.3 507.02L1.41003 506.3L6.76004 502.76H6.77002L15.3 507.02Z" fill="#F8B517"/>
<path d="M137.03 500.16L119.83 494.36L119.27 484.97L119.34 485.33H131.67L137.03 500.16Z" fill="#EE4023"/>
<path d="M140.42 508.46L122.35 508.12C122.35 508.12 119.87 500.56 119.87 500.24V494.61V494.36L137.07 500.16L140.42 508.46Z" fill="#F8B517"/>
<path d="M141.58 511.28L131.45 514.68H122.45L118.21 509.24L119.85 500.56V500.24C119.85 500.56 122.33 508.12 122.33 508.12L140.4 508.46L141.58 511.28Z" fill="#7C4B20"/>
<path d="M41.22 504.36H41.06H41L30 496.57L29.18 495.99L28.54 495.56L27.67 494.96L25.23 493.27L33.93 485.05C33.93 485.05 34 485.21 34.11 485.52L34.25 485.86C34.25 485.99 34.35 486.13 34.41 486.29L34.56 486.67L34.68 486.98L40 500.91L40.16 501.33L41.16 504.04C41.1824 504.122 41.1991 504.205 41.21 504.29C41.21 504.29 41.21 504.32 41.22 504.36Z" fill="#F4831F"/>
<path d="M55.57 103.11L45.67 112.81L42.38 116.01C42.38 116.01 42.23 116.75 41.97 117.95C40.92 122.86 38.16 135.45 37.59 135.45C37.39 135.45 35.44 136.05 35.44 136.05L29.36 138.8L25.27 134.43L23.77 121.43L27.6 128.12L37.7 115.25L48 107L43.2 101L46.35 100.12L55.57 103.11Z" fill="#7C4B20"/>
<path d="M21.25 253.74C21.25 253.74 14.6 257.82 14.49 258.31C14.38 258.8 5.57998 250.84 4.53998 249.89C4.22998 256.08 6.27997 279.3 6.27997 279.3L8.00998 280.75L17.45 277.8L24.95 268.41L21.25 253.74ZM7.99997 277.13L7.38998 261.54L10.14 275L7.99997 277.13Z" fill="#EE4023"/>
<path d="M18.29 197.63L16.16 217.39L14.16 202.34L14.41 197.57C14.41 197.48 14.41 197.43 14.41 197.43L17.02 196.43L18.29 197.63Z" fill="#F4831F"/>
<path d="M16.22 249.38L21.22 253.74C21.22 253.74 14.57 257.82 14.46 258.31C14.35 258.8 5.54997 250.84 4.50997 249.89C4.496 249.415 4.54988 248.94 4.66998 248.48C5.24998 247.57 14 200.48 14.37 197.57L14.12 202.34L16.12 217.39L14.45 232.93L21.54 243.11L10.79 245.42L7.35995 249.42L16.22 249.38Z" fill="#F8B517"/>
<path d="M32.22 206.69L21.58 243.11L14.49 232.93L16.16 217.39L18.29 197.63L21.89 199.5L21.96 199.54L23.68 200.44L24.38 200.81L31.16 204.34L31.22 204.47L32.22 206.69Z" fill="#7C4B20"/>
<path d="M20.72 252.13L21.25 253.75L16.22 249.38H7.40002L10.83 245.42L21.58 243.11L20.72 252.13Z" fill="#7C4B20"/>
<path d="M26.82 286.71L13.73 287.68L8.01001 280.75L17.45 277.8L24.95 268.41L27.12 275.09L26.82 286.71Z" fill="#F8B517"/>
<path d="M107.76 172.12C107.76 172.12 99.91 189.45 99.87 189.45C99.83 189.45 99.87 189.54 99.94 189.72C98.56 187.72 98.42 183.84 98.04 183.84C97.66 183.84 91.86 181.4 89.23 180.4C89.2253 180.364 89.2253 180.327 89.23 180.29C89.68 178.19 89.97 176.77 89.97 176.77L92.56 177.87L97.12 166.22L103.75 156.95L108.62 152.22L116.83 144.22C118.91 145.73 118.14 146.8 118.14 146.8L107.76 172.12Z" fill="#EE4023"/>
<path d="M105.91 208.41L84.32 218.19V213.29L57.13 214.46V218.19L51.4 210.09L49 175L39 162.83L37.59 160.73L32.59 150.91L33.26 149.69L39.5 158.48L41.58 159.95L46.92 163.74L55.57 177L57.12 176.19L67.81 191.43L71.93 179.79L76.93 190.39L89.26 180.39C91.89 181.39 97.64 183.83 98.07 183.83C98.5 183.83 98.59 187.68 99.97 189.71C100.38 192 105.91 208.41 105.91 208.41Z" fill="#EE4023"/>
<path d="M108.65 152.22L103.77 157L97.14 166.27L92.58 177.92L89.99 176.82L71.25 168.82L57.12 176.21L55.57 177.02L46.81 163.73L41.47 159.94L52.72 162.82L64 145.37L70.78 160.05L75.93 147.8C75.93 147.8 90.13 161.22 90.49 161.06C90.85 160.9 108.11 152.48 108.65 152.22Z" fill="#7C4B20"/>
<path d="M90 176.77C90 176.77 89.71 178.19 89.26 180.29V180.4L79 195.55C76.6734 190.883 74.34 186.217 72 181.55C70.3 186.277 68.6034 191.007 66.91 195.74L57.16 176.2L71.29 168.81L90 176.77Z" fill="#F8B517"/>
<path d="M116.87 144.25L108.66 152.25C108.13 152.51 90.85 160.93 90.49 161.09C90.13 161.25 75.9 147.8 75.9 147.8L90.31 138.45C90.31 138.45 102.94 134.08 103.57 134.56C104 134.9 112.06 140.76 116.87 144.25Z" fill="#F8B517"/>
<path d="M49.13 252.2L38.13 240.44L45.2 224.27C45.64 224.58 46.2 225.02 46.95 225.56L49.13 252.2Z" fill="#F8B517"/>
<path d="M58.3 234.38C58.3 234.38 50.92 228.56 46.94 225.56C46.23 225.02 45.63 224.56 45.19 224.27L51.39 210.09L57.12 218.19L58.3 234.38Z" fill="#7C4B20"/>
<path d="M69.93 242L58.3 234.43C60.16 232.93 67.74 227.12 69.54 226.12L69.69 226.05C69.8 226 69.87 225.98 69.91 226C69.95 226.02 69.91 226 69.91 226C70 226.67 69.93 242 69.93 242Z" fill="#F8B517"/>
<path d="M110.92 223.8L106.98 225.15L84.32 232.93V218.19L105.91 208.41L110.92 223.8Z" fill="#7C4B20"/>
<path d="M116.87 353.55C116.87 353.55 111.87 374.14 111.64 375.02C111.41 375.9 102.79 354.94 102.79 354.94L116.87 353.55Z" fill="#F8B517"/>
<path d="M78.93 304.32C79.19 302.95 64.46 355.74 64.46 355.74L59.65 362.15C59.65 362.15 61.93 352.67 62.18 351.88C62.43 351.09 76.52 300.17 76.52 300.17C76.52 300.17 67.15 296.73 68.82 296.99C71.405 297.124 73.9951 297.124 76.58 296.99L81.65 295.46L98.2 360.59C97.74 359 78.67 305.68 78.93 304.32Z" fill="#F8B517"/>
<path d="M124.92 352.44L128.52 266.11L116.87 353.55C116.87 353.55 111.87 374.14 111.64 375.02C111.41 375.9 102.79 354.94 102.79 354.94L81.71 285.94L77.63 272.61L77.9 272.39L78.38 272L79.48 271.1L80.48 270.31C83.14 268.14 87.42 264.65 92.22 260.76L94.05 259.28L99.17 255.15L107.01 225.15L102.63 226.65L84.35 232.93V235.42L79.66 237.55L69.97 241.95L58.51 234.49L58.35 234.37H58.28L58.06 234.2L57.32 233.62L57.08 233.43L56.77 233.18L56.23 232.76C54.92 231.76 53.15 230.35 51.39 228.99L50 227.86C48.91 227.02 47.87 226.22 47 225.56L49.19 252.2L51.19 254.33L53.12 256.39L69.99 274.39L67.84 285.72L53.76 359.8L40.82 351.8L34.82 281.91L32.43 329.73L35.08 348.73L32.71 375.13L35.08 384.68L34.15 471.44H39.87V414.25C39.94 413.79 41.36 410.49 43.36 405.96L44.07 404.36C44.19 404.09 44.31 403.81 44.44 403.53L45.6 400.94C46.39 399.16 47.23 397.31 48.08 395.43C48.36 394.81 48.65 394.19 48.93 393.56C52.75 385.12 56.57 376.78 57.68 374.39L57.79 374.14L57.94 373.81L57.99 373.7L62.42 392.57L47.28 471.49H51L68.47 389.71L59.66 362.14C59.66 362.14 61.93 352.67 62.19 351.88C62.19 351.81 62.36 351.29 62.6 350.42C62.69 350.13 62.78 349.8 62.88 349.42C63.09 348.69 63.33 347.81 63.61 346.81L64.05 345.22C64.29 344.38 64.54 343.48 64.8 342.53C65.06 341.58 65.34 340.53 65.63 339.53C66.02 338.14 66.43 336.68 66.84 335.16C71.04 320.05 76.54 300.16 76.54 300.16C76.28 300.06 67.2 296.72 68.84 296.98C71.4249 297.114 74.0151 297.114 76.6 296.98L81.67 295.45L98.19 360.45V360.56L96.65 385C96.65 385 117.26 476.48 118.32 477.31C118.476 477.402 118.65 477.46 118.83 477.48C120.912 477.702 123.009 477.759 125.1 477.65V477.65H125.96L117 417.49C117 417.49 127.83 381.49 127.83 380.8C127.83 380.11 131 385 131 385L131.25 477.34C131.9 477.34 132.4 477.27 132.64 477.27L132.85 475.56C133.23 462.79 131.99 383.73 132.96 383.48C133.93 383.23 124.92 352.44 124.92 352.44ZM35 370.37L38.52 353.55C39.52 353.98 49.29 364.3 49.29 364.3L35 370.37Z" fill="#F4831F"/>
<path d="M120.59 238.52C119.49 239.04 113.26 243.91 105.86 249.81C103.69 251.54 101.41 253.36 99.14 255.2L107 225.15L110.94 223.8L120.21 237.49L120.59 238.52Z" fill="#F8B517"/>
<path d="M128.52 266.06C128.09 267.67 117.32 319 116.97 319.56C116.62 320.12 103.91 292 103.91 292C103.91 292 105.55 257.52 105.86 249.82C113.26 243.92 119.49 239.05 120.59 238.53L128.52 266.06Z" fill="#EE4023"/>
<path d="M150.42 218.18V248.42L146.81 255.15L143.38 249.29L131.16 262.29L131.58 269.8H136.32V281.59L147.4 284.36L155.58 276.82C155.58 276.82 158.23 245.53 158.49 244.43C158.7 243.59 159.81 217.62 161.55 204.67C161.36 204.89 156.8 211.16 150.42 218.18ZM147.42 279.71L149.23 272.65V260.53L152.59 275.03L147.42 279.71Z" fill="#F8B517"/>
<path d="M155.58 276.82L152.68 284.24L140.5 291.29L133.5 289.64L131.58 269.8H136.32V281.6L147.4 284.36L155.58 276.82Z" fill="#EE4023"/>
<path d="M150.42 218.19V248.42L146.81 255.15L143.38 249.29L135.38 214.2C135.38 214.2 140.55 227.74 140.76 228.37C140.82 228.66 145.36 223.76 150.42 218.19Z" fill="#7C4B20"/>
<path d="M131 385L131.25 477.33C129.94 477.4 127.97 477.49 125.96 477.55L117 417.5C117 417.5 127.83 381.5 127.83 380.81C127.83 380.12 131 385 131 385Z" fill="#F8B517"/>
<path d="M113.32 117.87L79.32 129.12L69.88 142.65L60.8 127.75L42 118C42.26 116.81 42.41 116.07 42.41 116.07L45.7 112.87C45.39 113.32 45.7 116.29 45.7 116.29L69.58 125.61L72.14 126.61L111.27 114.36L113.32 117.87Z" fill="#F4831F"/>
<path d="M63.98 145.37L52.72 162.81L41.47 159.93L39.39 158.46L33.15 149.67L36.04 137.62V137.61L39.34 134.13L53.46 134.75L63.98 145.37Z" fill="#F8B517"/>
<path d="M84.32 218.19V232.93V235.42L79.63 237.55L79.86 218.19H60.94C60.57 218.19 58.42 215.72 57.33 214.45L84.33 213.29V218.19H84.32Z" fill="#F8B517"/>
<path d="M52.73 293.45C52.73 293.45 42.29 318.85 42.12 317.98C41.95 317.11 35.42 284.23 34.76 281.74V280.84L37.46 242L38.12 240.49L49.12 252.25L51.12 254.38L52.73 293.45Z" fill="#EE4023"/>
<path d="M69.93 274.4L53.69 359.81L40.75 351.81L34.75 281.93V281.75C35.41 284.24 41.94 317.16 42.11 317.99C42.28 318.82 52.72 293.46 52.72 293.46L51.12 254.34L69.93 274.4Z" fill="#7C4B20"/>
<path d="M49.26 364.3L35 370.37L38.52 353.55C39.52 354 49.26 364.3 49.26 364.3Z" fill="#F8B517"/>
<path d="M121.55 134.56L118.18 146.83C118.18 146.83 118.95 145.76 116.87 144.25C112.06 140.76 104 134.9 103.57 134.56C102.94 134.08 90.31 138.45 90.31 138.45L75.9 147.79L70.76 160.05L64 145.38L53.48 134.75L39.37 134.13L36 137.61L37.53 135.48C38.1 135.48 40.86 122.89 41.91 117.98L60.77 127.73L69.85 142.65L79.29 129.1L113.29 117.84C117.77 125.26 121.12 134.79 121.55 134.56Z" fill="#EE4023"/>
<path d="M152.57 275.03L147.4 279.71L149.21 272.65V260.53L152.57 275.03Z" fill="#7C4B20"/>
<path d="M10.14 275.03L8.01004 277.13L7.40002 261.55L10.14 275.03Z" fill="#7C4B20"/>
<path d="M62.36 392.57L47.22 471.49H40L39.76 470.99V414.28C39.76 413.13 57.88 373.7 57.88 373.7L62.36 392.57Z" fill="#F8B517"/>
<path d="M51 471.49L46.49 485.33H34L34.01 484.33L34.1 471.49H51Z" fill="#7C4B20"/>
<path d="M132.67 477.28L131.67 485.33H119.34L119.27 484.97L118.83 477.43C120.912 477.653 123.009 477.71 125.1 477.6C127.41 477.54 129.78 477.43 131.28 477.35C131.93 477.32 132.43 477.28 132.67 477.28Z" fill="#7C4B20"/>
<path d="M136.87 110.47L107.98 109.25L116.33 103.81L123.9 100.97L136.87 110.47Z" fill="#F8B517"/>
<path d="M137.28 128.85V128.9L137.18 128.88L125.91 126.9L107.99 109.26L136.87 110.46L137.28 128.85Z" fill="#EE4023"/>
<path d="M137.28 128.9L132.53 130.58L130.88 131.17C127.21 132.48 123.17 133.91 122.01 134.37L121.82 134.44L121.55 134.57C121.03 134.45 117.67 125.07 113.3 117.79L111.21 114.3C109.4 111.3 108.02 109.3 108.02 109.3L125.94 126.94L137.21 128.94L137.28 128.9Z" fill="#7C4B20"/>
<path d="M44.26 106.96L31.52 107.59L43.21 100.94L44.26 106.96Z" fill="#F8B517"/>
<path d="M48.01 106.96L37.68 115.26L27.58 128.13L23.75 121.44L31.52 107.59L44.26 106.96L43.21 100.94L48.01 106.96Z" fill="#EE4023"/>
<path d="M82.23 34.0901L98.05 25.5801L76.34 31.9001L82.23 34.0901Z" fill="#F4831F"/>
<path d="M79.84 64.06L102.07 54.79L105.02 57.7401L105.38 56.37L102.07 54.79L82.85 60.97L79.84 64.06Z" fill="#BC7645"/>
<path d="M77.55 64.1298L61.36 57.2798L74.64 61.3298L77.55 64.1298Z" fill="#9B5023"/>
<path d="M95.61 78.6401L85.67 87.4801L83.73 88.4201L79.92 87.5501L78.42 87.0701L83.75 86.8601L95.61 78.6401Z" fill="#9B5023"/>
<path d="M69.13 79.4601L78.42 87.0701L69.13 78.3101V79.4601Z" fill="#9B5023"/>
<path d="M69.13 78.3101C69.13 78.4801 78.62 86.8601 78.62 86.8601H83.75L83.58 87.5601L78.42 87.0701C78.42 87.0701 70.71 80.3301 70.66 80.3401C70.61 80.3501 69.13 78.3101 69.13 78.3101Z" fill="#9B5023"/>
<path d="M76.34 31.8999C76.34 31.8999 71.27 23.3299 71.2 22.5699C71.13 21.8099 80.76 4.41992 80.76 4.41992C80.76 4.41992 75.76 20.1099 75.98 20.2999C76.2 20.4899 81.6 29.8299 81.6 29.8299L76.34 31.8999Z" fill="#97712D"/>
<path d="M102.05 7.07024C101.43 6.88024 95.6099 9.29023 95.6099 9.29023C95.6099 9.29023 89.19 25.8102 89.47 25.5802C89.75 25.3502 96.81 10.8102 96.81 10.8102L102.05 7.07024Z" fill="#97712D"/>
<path d="M47.2 24.4801L63.3 15.7201L72.23 18.1601L62.22 5.56006L47.2 24.4801Z" fill="#97712D"/>
<path d="M99.14 367.8C99.66 368.72 114.05 406.68 114.05 406.68L97.83 385.55L99.14 367.8Z" fill="#7C4B20"/>
<path d="M49.26 370.37L36.54 375.05L39.81 414.28L57.93 373.7L49.26 370.37Z" fill="#7C4B20"/>
<path d="M58.47 234.49L53.06 256.39L69.93 274.4L67.77 285.73L75.06 287.68L81.71 285.98L77.63 272.65L94.02 259.32L102.79 225.94L84.32 232.93L84.31 235.42L69.93 241.95L58.47 234.49Z" fill="#F4831F"/>
<path d="M146.22 153.37C141.88 151.84 135.92 149.78 132.54 148.61L129.93 147.7L130.5 146.7L134.34 139.99L138.61 132.54L146.06 152.92L146.22 153.37Z" fill="#F8B517"/>
<path d="M121.55 134.57L121.85 134.44L121.55 134.57Z" fill="#602852"/>
<path d="M138.61 132.55L134.34 140L130.5 146.7L129.93 147.7L118.84 147.98V147.91L118.23 146.84V146.77L118.33 146.39L119.54 141.96L121.54 134.56C122.25 134.19 137.27 128.9 137.27 128.9L138.61 132.55Z" fill="#F4831F"/>
<path d="M157.92 191.28L144.31 185.35L144.39 185.02L144.81 183.25L149.7 162.87L156.63 181.87L157.92 191.28Z" fill="#EE4023"/>
<path d="M147.52 204.87C147.61 205.49 147.67 205.87 147.67 206.08C147.67 207.46 137.85 214.48 137.85 214.48L138.49 198.06V197.92L138.9 187.35L138.67 187.1V186.79L137.42 182.79L135.72 177.35L118.84 148V147.93C121.63 147.65 129.77 146.83 130.49 146.73H130.54C131.188 146.89 131.823 147.097 132.44 147.35C135.53 148.52 141.62 151.06 146.1 152.95L146.26 153.39L149.74 162.89L144.85 183.27L144.43 185.04L144.35 185.37L144.42 185.8L144.49 186.2C144.76 187.75 145.35 191.2 145.96 194.86C146.57 198.76 147.24 202.85 147.52 204.87Z" fill="#F4831F"/>
<path d="M147.52 204.87C147.61 205.49 147.67 205.87 147.67 206.08L147.48 204.9L145.93 195.34L144.45 186.18L144.38 185.78L144.31 185.35L157.92 191.28L158.49 195.48L147.52 204.87Z" fill="#F8B517"/>
<path d="M149.6 182.81L144.39 185L143.59 185.34L138.91 187.34L138.68 187.09V186.78L137.43 182.78C138.8 182.9 140.43 183 141.78 183.08L144.78 183.25L149.6 182.81Z" fill="#7C4B20"/>
<path d="M33.16 149.67L32.48 150.89C32.4999 150.935 32.5232 150.978 32.55 151.02C32.99 151.83 35.34 156.2 37.02 159.73L37.49 160.73L36.96 165.73V165.84C34.25 168.24 29.16 172.68 27.1 174.46L26.44 175.04C26.3796 175.085 26.3227 175.135 26.27 175.19L26.21 175.24L22.29 150.49C22.44 149.67 22.58 148.86 22.73 148.06L28.65 138.06L28.7 137.98L35.37 136.04L35.68 135.95L37.22 135.51H37.29H37.37H37.52L36.91 136.36L36.84 136.46L36.01 137.61L35.63 139.2L33.16 149.67Z" fill="#F4831F"/>
<path d="M22.31 150.58L26.23 175.33L18.05 181.41C18.35 176.77 18.61 172.7 18.61 172.07C18.61 171.74 18.92 169.81 19.39 167C20.12 162.76 21.24 156.48 22.31 150.58Z" fill="#EE4023"/>
<path d="M28.72 138L28.67 138.08L22.75 148.08C24.1 140.66 25.25 134.39 25.25 134.39L28.72 138Z" fill="#EE4023"/>
<path d="M37 165.81V165.92L34.65 188L31.16 204.33L31.22 204.46L28.61 203.06L24.38 200.8L23.68 200.42L24.47 192.64L26.23 175.32L26.29 175.27C26.3427 175.216 26.3995 175.166 26.46 175.12V175.12L27.12 174.54C29.17 172.71 34.28 168.17 37 165.81Z" fill="#EE4023"/>
<path d="M26.23 175.33L24.47 192.65L23.68 200.43L18.21 197.63L17 196.46C17 196.46 17.56 188.3 18 181.46C18.3 176.82 18.56 172.75 18.56 172.12C18.56 171.79 18.87 169.86 19.34 167.05C21.8 170 26.23 175.33 26.23 175.33Z" fill="#F8B517"/>
<path d="M161.66 198.43C161.928 200.504 161.895 202.606 161.56 204.67V204.67C161.37 204.89 156.81 211.16 150.43 218.19C145.37 223.76 140.83 228.66 140.74 228.37C140.53 227.74 135.36 214.2 135.36 214.2L137.48 213.37L146.15 206.06L158.5 195.48C158.5 195.48 158.24 195.13 159.03 194.31C159.82 193.49 161.66 198.43 161.66 198.43Z" fill="#EE4023"/>
</svg>
