<svg width="189" height="488" viewBox="0 0 189 488" fill="none" xmlns="http://www.w3.org/2000/svg">
<g clip-path="url(#clip0)">
<path d="M93.7802 42.96L80.5602 43.19C80.2602 43.19 75.4402 45.45 75.4402 45.45L73.0202 42.99L65.3402 42.73C65.2902 42.73 66.6602 49.2 66.6602 49.2L69.1202 55.8L73.2602 62.68H85.2602L95.7402 52.32L93.7802 42.96ZM80.8902 55.38C80.6502 55.3 75.1602 55.38 75.1602 55.38L73.6202 52.92H83.2602C83.2602 52.92 81.1202 55.44 80.8902 55.36V55.38ZM71.5102 50.38L73.1702 49.19C73.1702 49.19 82.1702 49.19 82.4502 49.19C82.7302 49.19 86.9702 50.47 86.9702 50.47L71.5102 50.38Z" fill="#C68650"/>
<path d="M70.3198 0L76.9098 1.85L84.7198 0L99.9398 4.01L86.4898 7.37L74.2098 6.68L70.3198 0Z" fill="#3F383E"/>
<path d="M186.4 215.7V216.14H172.46L181.12 162.89C181.12 162.89 186.67 184.89 187.12 185.5V185.68C187.61 188.32 186.4 215.7 186.4 215.7Z" fill="#827140"/>
<path d="M181.11 216.14L175.98 243.67L170.88 229.9L164.99 227.92L165.12 227.46L172.45 216.14H181.11Z" fill="#E4B37C"/>
<path d="M175.98 243.67L165.79 247.11L163.5 243.67L168.73 241.91V237.38L163.5 243.67L161.13 240.11L164.99 227.92L170.88 229.9L175.98 243.67Z" fill="#D1925E"/>
<path d="M188.43 242.56L183.77 247.11H165.79L175.98 243.67L188.43 242.56Z" fill="#9E6F5A"/>
<path d="M186.4 216.14L188.43 242.56L175.98 243.67L181.11 216.14H186.4Z" fill="#D1925E"/>
<path d="M162.71 101.39V101.46L149.38 119.64L134.11 112.48V96.95L152.38 80.9L152.7 80.95L162.71 101.39Z" fill="#E7C053"/>
<path d="M152.38 80.92L134.11 96.97L112.5 85.35L127.4 76.88L127.62 76.98L152.38 80.92Z" fill="#F4A54B"/>
<path d="M143.05 125.65C143.05 125.65 144.37 151.08 144.89 152.19C144.23 152.19 136.89 125.12 136.89 125.12L126.56 105.17L112.46 85.32L134.08 96.94V112.47L149.38 119.63L143.05 125.65Z" fill="#827140"/>
<path d="M103.03 65.94C98.0301 68.07 81.4001 76.07 81.1001 75.85C80.8001 75.63 73.96 70.47 70.29 67.7L80.17 71.29L101.46 61.01V65.22L103.03 65.94Z" fill="#996B4A"/>
<path d="M101.51 54.89L101.46 61L80.2098 71.32L70.2998 67.74L70.9898 62.09L72.8298 64.32H85.2898L101.51 54.89Z" fill="#8A562C"/>
<path d="M101.56 45.21L102.12 44.61L101.56 45.21L101.5 54.89L85.29 64.32L95.7401 52.32C95.7401 52.32 98.2401 46.32 100.74 40.38C100.92 40.01 101.56 45.03 101.56 45.21Z" fill="#6A3F26"/>
<path d="M95.7399 52.32L85.2899 64.32H72.8299L70.9899 62.09L68.8999 56.09L66.6699 49.39L64.6699 42.69L66.0099 42.76L67.3299 49.23L69.7799 55.83L73.2999 62.71H85.2999L95.7399 52.32Z" fill="#9C6636"/>
<path d="M107.74 28.4V38.52L101.56 45.21C101.56 45.03 100.92 39.97 100.77 40.3C103.29 34.3 105.84 28.36 105.93 28.36L107.74 28.4Z" fill="#D0A17F"/>
<path d="M105.16 13.32L104 27.91L94.8598 23.98L95.4698 13.83L91.0498 14.55L79.2498 18.06L66.3698 13.32L64.3198 24.74L65.5298 8.74C65.5298 8.74 76.6599 11.19 76.9099 11.19C77.1599 11.19 94.3098 9.58 94.6798 9.46C95.0498 9.34 100.11 7.33 100.39 7.04L105.16 13.32Z" fill="#22201F"/>
<path d="M91.0501 14.52L88.4401 23.52C88.4401 23.52 77.1201 28.79 76.9301 28.93C76.7401 29.07 68.5601 24.52 68.1801 24.39C67.8001 24.26 66.3701 13.39 66.3701 13.39L78.7301 17.88L91.0501 14.52Z" fill="#C68650"/>
<path d="M106.16 28.4L100.12 30.46L95.0899 31.98L92.2899 28.55L89.9399 25.69L94.8599 23.96L104 27.88L103.96 28.3L106.16 28.4Z" fill="#F3EB50"/>
<path d="M100.46 30.26C100.46 30.26 95.6898 39.31 94.2498 42.12L93.9998 42.6L93.8298 42.89L80.6098 43.12C80.3098 43.12 75.4898 45.38 75.4898 45.38L73.0698 42.92L66.3998 42.66L64.6798 42.59L66.6798 38.12L73.6798 39.87L75.0698 32.94L65.7098 28.67L64.0698 25.09L64.3499 24.73L76.6599 31.06L90.1299 25.58L92.3698 28.32L78.7598 33.32L79.9398 39.89C80.2199 39.89 92.5598 39.39 92.7198 39.32C92.8798 39.25 95.1498 31.78 95.1498 31.78L100.46 30.26Z" fill="#F3EB50"/>
<path d="M75.0101 32.99L73.6201 39.92L73.0801 33.31L65.6401 28.72L75.0101 32.99Z" fill="#572D83"/>
<path d="M66.6198 38.17L64.6298 42.64L61.5498 33.55V28.4L64.0098 25.14L65.6398 28.72L63.8598 32.27L65.4998 37.9L66.6198 38.17Z" fill="#F3EB50"/>
<path d="M92.3102 28.37L81.9402 33.12L79.8802 39.92L78.7002 33.35L92.3102 28.37Z" fill="#572D83"/>
<path d="M106.16 28.4C105.92 28.75 103.46 34.52 101.01 40.32L100.91 40.58C98.7102 45.74 96.4202 50.86 95.8602 52.03C95.8602 52.03 95.8602 52.17 95.7902 52.21C95.7792 52.2505 95.7545 52.2858 95.7202 52.31L93.7202 42.92C93.782 42.8264 93.8387 42.7296 93.8902 42.63L94.1402 42.15C95.6502 39.35 100.35 30.29 100.35 30.29L105.77 28.52L106.07 28.43L106.16 28.4Z" fill="#F3EB50"/>
<path d="M136.94 125.14L126.6 105.19L120.35 119.64C120.35 119.64 105.54 128.3 105.17 128.64C104.8 128.98 77.2402 123.13 77.2402 123.13L79.0602 99.81L87.3502 83.71L79.1502 88.71C79.1502 88.71 71.6502 84.85 71.0502 84.19L76.6402 100.9L72.8702 123.65L49.1802 130.07L36.1802 121.07L48.4602 136.71L65.1702 130.64L51.0102 143.93L53.3502 179C53.3502 179 63.1802 200 63.6402 200.34C64.1002 200.68 88.8802 200.34 88.8802 200.34L106.49 174.63L120.9 167.96V167.77L136.94 125.14ZM97.1602 183.32L93.9002 188.11L75.5702 190.32V132.02L98.5702 142.88L94.9202 156.55L97.1602 183.32ZM82.3302 130.63C82.3302 130.63 107.39 135.27 108.08 135.1C108.77 134.93 128.92 118.9 129.56 118.39L110.13 142.85L82.3302 130.63Z" fill="#E7C053"/>
<path d="M129.56 118.44L110.13 142.9L82.3301 130.67C82.3301 130.67 107.39 135.31 108.08 135.14C108.77 134.97 128.92 118.94 129.56 118.44Z" fill="#827140"/>
<path d="M76.6398 100.91L72.8698 123.65L49.1798 130.07L36.1898 121.1L35.3398 104.36L50.7198 85.35L76.6398 100.91Z" fill="#F3EB50"/>
<path d="M50.72 85.32L30.08 100.87L21.46 94.53L30.11 80.1L46.5399 79.22L47.08 78.97C48.46 80.95 50.72 85.32 50.72 85.32Z" fill="#F4A54B"/>
<path d="M24.3698 120.62L24.4198 120.48L21.5298 94.53L30.1198 100.91L36.1898 121.1L24.3698 120.62Z" fill="#E7C053"/>
<path d="M52.1199 204.32L64.6599 229.92L63.4599 228.09L62.9899 227.34L62.7299 226.93L62.1599 226.03L61.5199 225.03L61.1799 224.5L60.1099 222.82L58.9599 221L58.1599 219.74L57.3399 218.44L56.9199 217.78L56.0999 216.49L54.7299 214.36L53.9499 213.09L53.1099 211.77C49.3799 205.88 46.1799 200.77 46.1099 200.51L50.1099 177.57C50.1099 177.57 46.2899 144.09 46.4999 140.57C45.5799 143.05 36.9099 160.23 36.1799 161.71L17.6499 152.46L37.1699 142.95L36.1699 121.14L48.4799 136.74L65.1899 130.67L51.0299 143.96L53.4599 179.03L52.1199 204.32Z" fill="#827140"/>
<path d="M17.6998 152.41L18.5098 181.47L7.91979 216.54L1.77979 213.04L10.8698 163.54L17.6998 152.41Z" fill="#F3EB50"/>
<path d="M36.1799 161.76L34.7299 175.31L13.7599 216.81L7.91992 216.54L18.5099 181.47L36.1799 161.76Z" fill="#827140"/>
<path d="M12.75 232.28L3.3 245.57L0 231.45L1.78 213.04L7.92 216.54L12.75 232.28Z" fill="#D2935C"/>
<path d="M21.4299 228.92L12.7499 232.28L7.91992 216.54L13.7599 216.81L21.3099 228.57L21.4299 228.92Z" fill="#E5B47E"/>
<path d="M24.85 239L21.31 241.66L12.75 232.28L21.43 228.92L24.85 239Z" fill="#CF975D"/>
<path d="M21.3098 241.66L19.1598 245.71L18.4198 247.11L3.3198 245.65L3.2998 245.57L12.7498 232.28L21.3098 241.66Z" fill="#9D6D5F"/>
<path d="M123.52 192.04L98.6202 214.86L88.7102 229.86C88.2002 229.17 110.64 196.92 110.13 196.44C109.62 195.96 106.57 174.59 106.57 174.59L120.98 167.92C121.21 170.07 123.41 190.64 123.41 191.51C123.46 191.72 123.46 191.88 123.52 192.04Z" fill="#827140"/>
<path d="M64.67 229.9L57.36 286.62L34.75 266.07L46.18 200.48C46.32 201.08 64.12 228.99 64.68 229.88L64.67 229.9Z" fill="#F3EB50"/>
<path d="M140.1 247.1L138.1 309.36C138.1 309.36 128.8 320.63 125.32 325.61C127.87 319.92 133.19 305.7 133.19 305.43C133.19 305.16 120.19 288.06 118.75 284.57C118.84 284.16 118.84 283.94 118.75 283.96C118.66 283.98 118.63 284.2 118.75 284.57C117.75 288.79 106.47 313.24 105.55 315.21L105.49 315.35C98.12 290.35 88.22 256.98 88.22 256.98L84.9 294.04C84.9 294.04 78.9 319.89 78.9 320.45L72.61 324.39L61.9 331.16C61.11 331.68 72.28 309.89 72.28 309.89L57.48 286.6L64.78 229.88C64.78 229.88 88.78 230.55 88.78 229.88L118.7 282.61L140.1 247.1Z" fill="#827140"/>
<path d="M57.36 286.62L47.72 320.68L34.73 266.08L57.36 286.62Z" fill="#827140"/>
<path d="M78.3602 343.32L63.6102 357.9L43.9502 333.99L47.2302 322.37L47.5002 321.45L47.7202 320.68L57.3602 286.62L72.1702 309.91C72.1702 309.91 61.0102 331.7 61.7902 331.18C62.5702 330.66 78.7902 320.45 78.7902 320.45C79.0102 319.8 78.3602 343.32 78.3602 343.32Z" fill="#FDC050"/>
<path d="M84.7799 380.82L63.6099 357.9L78.3599 343.32L84.7799 380.82Z" fill="#F4A54B"/>
<path d="M84.7799 380.82L65.4799 452.07L63.6099 357.9L84.7799 380.82Z" fill="#E7C053"/>
<path d="M47.9902 424.91C47.9902 424.91 48.1702 364.17 47.9902 363.51C47.8102 362.85 43.9902 334.66 43.9902 334.02L63.6502 357.93L65.4602 452.1L47.9902 424.91Z" fill="#827140"/>
<path d="M66.3701 475.59L28.8701 477.37C28.8701 477.37 19.7601 480.48 18.8701 480.25C17.9801 480.02 3.33008 477.81 3.33008 477.81L4.23007 472.27L23.6301 473.1L41.5201 473.87L58.6301 470.11C58.6301 470.11 65.9201 468.23 66.1401 468.3C66.2601 472.37 66.3701 475.59 66.3701 475.59Z" fill="#827140"/>
<path d="M66.1302 468.32C65.9102 468.25 58.6202 470.13 58.6202 470.13L50.0502 448.5L47.9902 424.7L65.4602 451.89C65.5902 451.89 65.9202 461.32 66.1302 468.32Z" fill="#F3EB50"/>
<path d="M58.6199 470.11L41.5099 474.1L23.6199 473.32L13.1099 468.3L39.8799 457.71L58.6199 470.11Z" fill="#E7C053"/>
<path d="M23.62 473.32L4.20996 472.27L13.1 468.3H13.11L23.62 473.32Z" fill="#F4A54B"/>
<path d="M140.1 247.1L118.68 282.65C118.04 282.02 129.37 211.65 129.37 211.65C134.1 227.57 140.1 247.1 140.1 247.1Z" fill="#FDC050"/>
<path d="M138.05 309.32C138.05 309.32 128.75 320.59 125.27 325.57C127.82 319.88 133.14 305.66 133.14 305.39C133.14 305.12 120.14 288.02 118.7 284.53C117.71 288.98 105.46 315.32 105.46 315.32L120.9 332.92L123.98 355.13L141.18 338.23L138.05 309.32Z" fill="#FDC050"/>
<path d="M136.75 428.32L116.97 387.46C116.96 387.072 116.926 386.684 116.87 386.3C116.93 385.02 123.96 362.93 123.96 362.93L113.19 342.22C113.19 341.96 109.73 330.14 105.51 315.54L121 333.09L123.95 355.09L158.13 423.9L159.8 456.02L136.75 428.32Z" fill="#827140"/>
<path d="M123.96 362.92C123.96 362.92 116.96 385.01 116.87 386.3C116.27 379.21 113.19 342.81 113.19 342.21L123.96 362.92Z" fill="#F4A54B"/>
<path d="M158.13 423.95L123.96 355.12L141.16 338.21L155.59 374.83L158.13 423.95Z" fill="#E7C053"/>
<path d="M165.16 468.63L141.78 461.07L137.16 429.21L136.75 428.35L159.81 456.06L165.16 468.63Z" fill="#F4A54B"/>
<path d="M169.77 479.46L145.2 479.01C145.2 479.01 141.83 469.18 141.83 468.74V461.39L141.78 461.06L165.15 468.63L169.77 479.46Z" fill="#E7C053"/>
<path d="M171.34 483.14L157.58 487.58H145.38L139.61 480.49L141.83 469.16V468.74C141.83 469.16 145.2 479.01 145.2 479.01L169.77 479.46L171.34 483.14Z" fill="#827140"/>
<path d="M181.11 162.89L164.28 151.89L149.38 119.65L162.71 101.47C162.71 102.56 162.94 115.64 163.15 116.27C163.36 116.9 169.59 130.7 169.59 130.7C169.59 130.7 172.46 150.44 172.46 149.78C172.46 149.12 181.11 162.89 181.11 162.89Z" fill="#827140"/>
<path d="M164.27 151.88C164.27 151.88 158.63 157.73 154.76 161.58C153.63 160.44 146.98 153.67 145.29 152.42C147.86 153.15 163.16 151.88 164.27 151.88Z" fill="#827140"/>
<path d="M172.46 216.14L156.26 183.7L154.93 161.7L154.77 161.52C158.64 157.67 164.28 151.82 164.28 151.82L172.46 216.14Z" fill="#F3EB50"/>
<path d="M181.11 162.87L172.45 216.14L164.27 151.88L181.11 162.87Z" fill="#E7C053"/>
<path d="M110.87 69.5L87.36 83.8L79.15 88.73C79.15 88.73 71.64 84.87 71.04 84.21V84.11C71.3 83.94 67.71 76.7 65.48 72.26C65.69 72.06 68.13 69.86 69.48 68.59C69.7776 68.3246 70.0581 68.0407 70.32 67.74C73.96 70.52 80.84 75.74 81.14 75.9C81.44 76.06 96.46 67.39 101.46 65.32L110.87 69.5Z" fill="#827140"/>
<path d="M76.6402 100.91L50.7202 85.35L71.0202 84.13L71.0502 84.21L76.6402 100.91Z" fill="#F3EB50"/>
<path d="M35.3401 104.36L36.1901 121.1L30.1201 100.91L50.7201 85.35L35.3401 104.36Z" fill="#827140"/>
<path d="M37.2202 142.91L17.7002 152.41L19.9802 134.02L24.3702 120.62L36.1902 121.1L37.2202 142.91Z" fill="#F3EB50"/>
<path d="M36.23 161.66V161.76L18.54 181.42L17.73 152.32L36.23 161.66Z" fill="#E7C053"/>
<path d="M19.1601 245.71L6.58008 243.24L11.0001 239.53L21.3101 241.66" fill="#CF975D"/>
<path d="M112.5 85.35L79.0601 99.85L87.3501 83.75L112.5 85.35Z" fill="#F3EB50"/>
<path d="M126.6 105.19L120.35 119.64C120.35 119.64 105.54 128.3 105.17 128.64C104.8 128.98 77.2402 123.13 77.2402 123.13L79.0602 99.81L112.46 85.32L126.6 105.19Z" fill="#F3EB50"/>
<path d="M164.27 151.88C163.16 151.88 147.86 153.15 145.27 152.42C145.172 152.322 145.052 152.25 144.92 152.21C144.4 151.08 143.08 125.67 143.08 125.67L149.37 119.67L164.27 151.88Z" fill="#F3EB50"/>
<path d="M168.73 237.38V241.91L163.5 243.67L168.73 237.38Z" fill="#9E6F5A"/>
<path d="M94.9701 156.57L97.1601 183.36L93.9301 188.16L75.6001 190.35V132.05L98.6101 142.91L94.9701 156.57Z" fill="#F3EB50"/>
<path d="M118.63 282.65L88.7202 229.92L98.6302 214.92L123.53 192.09C124.09 194.21 126.48 202.33 129.33 211.75C129.28 211.65 117.99 282.02 118.63 282.65Z" fill="#F3EB50"/>
<path d="M88.7101 229.9C88.7101 230.55 64.6601 229.9 64.6601 229.9L52.1201 204.32L53.4601 178.96C53.4601 178.96 63.2901 199.96 63.7501 200.3C64.2101 200.64 88.9901 200.3 88.9901 200.3L106.6 174.59C106.6 174.59 109.65 195.93 110.16 196.44C110.67 196.95 88.2001 229.21 88.7101 229.9Z" fill="#E7C053"/>
<path d="M95.4598 13.8L94.8698 23.95L90.0798 25.63L76.6098 31.11L64.2998 24.78L66.3698 13.32C66.3698 13.32 67.8398 24.21 68.2098 24.32C68.5798 24.43 76.7598 28.97 76.9598 28.86C77.1598 28.75 88.4598 23.49 88.4598 23.49L91.0698 14.49L95.4598 13.8Z" fill="#A46B32"/>
<path d="M87.0201 50.47L84.4901 51.03L72.8401 50.76C72.8401 50.76 71.6201 50.38 71.5601 50.38L73.2101 49.2C73.2101 49.2 82.2101 49.14 82.5001 49.2C82.7901 49.26 87.0201 50.47 87.0201 50.47Z" fill="#8E5828"/>
<path d="M83.2601 52.9C83.2601 52.9 81.1301 55.44 80.8901 55.36C80.6501 55.28 75.1601 55.36 75.1601 55.36L73.6201 52.9H83.2601Z" fill="#8E5828"/>
<path d="M95.1299 31.81C95.1299 31.81 92.8999 39.28 92.6999 39.35C92.4999 39.42 80.1599 39.92 79.9199 39.92L81.9799 33.11L92.3499 28.37L95.1299 31.81Z" fill="white" stroke="#221F1F" stroke-linejoin="round"/>
<path d="M73.6199 39.92L66.6199 38.17L65.4999 37.9L63.8599 32.27L65.6399 28.72L73.0799 33.31L73.6199 39.92Z" fill="white" stroke="#221F1F" stroke-linejoin="round"/>
<path d="M80.2202 43.25L93.2802 44.53L95.7402 52.28L93.7402 42.94L80.5002 43.17" fill="#6A3F26"/>
<path d="M105.17 13.32L92.31 12.32L76.93 14.75L66.62 12.05L65.46 8.76C65.46 8.76 66.09 7.63 66.88 6.18L87.96 8.66L99.91 4.01L105.17 13.32Z" fill="#22201F"/>
<path d="M74.3501 27.03C75.1119 27.4859 75.8962 27.9031 76.7001 28.28C76.7001 28.28 76.0001 23.44 75.8201 23.36C75.428 23.0112 75.0697 22.6262 74.7501 22.21L74.3501 27.03Z" fill="#A36B33"/>
<path d="M77.2202 28.26L78.7002 25.66V27.46L77.2202 28.26Z" fill="#A36B33"/>
<path d="M71.0199 84.11L50.7199 85.32C50.7199 85.32 48.4099 80.92 47.1499 78.92L63.6799 69.18L70.2999 67.66C70.2199 67.76 69.8999 68.09 69.4499 68.51C68.1199 69.78 65.6799 71.98 65.4499 72.18C67.6899 76.7 71.2899 83.94 71.0199 84.11Z" fill="#E7C053"/>
<path d="M50.7202 76.85L30.1802 80.08L50.7202 79.79V76.85Z" fill="#827140"/>
<path d="M94.9701 156.57L75.6001 153.14L74.3101 157.56L95.1101 158.26L96.9601 157.21L94.9701 156.57Z" fill="#E7C053"/>
<path d="M169.59 130.69L164.3 130.05L163.15 116.32C163.36 116.92 169.59 130.69 169.59 130.69Z" fill="#F4A54B"/>
<path d="M52.1201 204.32L64.6602 229.92L63.4601 228.09L62.9901 227.34L62.7301 226.93L62.1602 226.03L61.5201 225.03L61.1801 224.5L60.1101 222.82L58.9601 221L58.1602 219.74L57.3401 218.44L56.9201 217.78L56.1002 216.49L54.7301 214.36L53.9501 213.09L53.1101 211.77C49.3801 205.88 46.1801 200.77 46.1101 200.51L50.1101 177.57C50.1101 177.57 46.2902 144.09 46.5002 140.57L36.1401 121.09L48.4601 136.69L65.1701 130.62L51.0101 143.91L53.3601 178.98L52.1201 204.32Z" fill="#827140"/>
<path d="M93.6501 188.19L87.5801 196.88L75.5801 197.81V190.32C75.5801 190.32 82.4601 181.79 82.7601 181.66C83.0601 181.53 93.6501 188.19 93.6501 188.19Z" fill="#E7C053"/>
<path d="M99.94 4.01V8.8L76.8199 13.32L65.46 8.8C65.46 8.8 66.09 7.66999 66.88 6.21999C68.28 3.67999 70.23 0.159992 70.28 -7.62939e-06C70.28 0.339992 77.53 4.82 77.53 4.82L81.46 2.32L84.71 3.98L99.94 4.01Z" fill="#22201F"/>
<path d="M95.4601 13.8C95.4601 13.8 99.6801 11.53 99.6401 11.68C99.6001 11.83 98.0401 25.32 98.0401 25.32L94.8701 23.95L95.4601 13.8Z" fill="#3F383E"/>
<path d="M106.73 30.67V38.17L103.69 41.67L106.73 30.67Z" fill="#AB8569"/>
<path d="M103.69 41.67L101.8 41.51L106.73 30.67L106.16 36.16L103.69 41.67Z" fill="#AB8569"/>
<path d="M78.7 17.23C78.7 17.03 68.48 9.57 68.48 9.57C68.48 9.57 70.15 0.719993 70.32 1.01999C70.49 1.31999 76.7 8.62 76.7 8.62L78.7 17.23Z" fill="#3F383E"/>
<path d="M64.6299 42.64L72.8299 43.87C72.8299 43.87 75.5899 45.59 75.4399 45.43L73.0199 42.97L64.6299 42.64Z" fill="#6A3F26"/>
<path d="M127.4 76.88L112.5 85.35L87.3599 83.75L109.26 70.43L101.43 65.22L111.73 68.27L127.4 76.88Z" fill="#E7C053"/>
<path d="M127.62 134.38C127.45 134.8 114.96 144.72 114.96 144.72L114.09 151.04L127.62 134.38Z" fill="#827140"/>
<path d="M126.9 141.55C126.77 141.98 116.01 154.55 116.01 154.55L115.69 159.96L126.9 141.55Z" fill="#827140"/>
<path d="M126.6 105.19L132.88 125.64L120.98 167.95L136.94 125.15L126.6 105.19Z" fill="#F4A54B"/>
<path d="M72.9601 139.51C73.3101 140.38 72.2701 152.05 72.2701 152.05L60.8501 152.78L63.2601 141.78L72.9601 139.51Z" fill="#F3EB50"/>
<path d="M72.6002 164.41L72.2602 188.88L60.9502 185.23L62.8902 166.64L72.6002 164.41Z" fill="#F3EB50"/>
<path d="M105.46 315.25L105.39 315.39C98.03 290.39 88.13 257.02 88.13 257.02L84.8 294.08C84.8 294.08 78.85 319.93 78.8 320.49L72.52 324.43L78.84 303.84L87.12 253.71L79.82 250.31L76.71 241.66L83.3 247.15H91.37C91.37 247.15 93.19 255.62 93.66 256.47C94.13 257.32 104.54 310.63 105.46 315.25Z" fill="#F4A54B"/>
<path d="M39.8799 457.71L50.0499 448.49C50.0499 448.49 59.1799 470.91 58.6299 470.33C58.0799 469.75 39.8799 457.71 39.8799 457.71Z" fill="#F4A54B"/>
<path d="M186.4 215.7V216.14H172.46L187.11 185.5V185.68C187.61 188.32 186.4 215.7 186.4 215.7Z" fill="#827140"/>
<path d="M73.25 62.62C73.38 62.48 75.25 59.46 75.25 59.46L81.45 59.18L85.3 62.62L77.96 63.62L73.25 62.62Z" fill="#9C6636"/>
</g>
<defs>
<clipPath id="clip0">
<rect width="188.43" height="487.59" fill="white"/>
</clipPath>
</defs>
</svg>
