<svg width="169" height="516" viewBox="0 0 169 516" fill="none" xmlns="http://www.w3.org/2000/svg">
<path d="M36.3699 141.92C35.7019 141.388 35.1733 140.702 34.8299 139.92C34.5852 138.992 34.6884 138.007 35.1199 137.15C35.8576 135.607 37.0197 134.306 38.4699 133.4C39.9138 132.51 41.4805 131.836 43.1199 131.4C46.3037 130.413 49.6562 130.09 52.9699 130.45C54.1453 130.557 55.2875 130.897 56.3299 131.45C57.4779 132.186 58.3882 133.239 58.9507 134.481C59.5133 135.723 59.704 137.102 59.4999 138.45C59.0291 141.163 57.5323 143.591 55.3199 145.23" fill="#689DD4"/>
<path d="M117.68 141.53C117.287 142.844 116.535 144.022 115.508 144.932C114.482 145.842 113.222 146.447 111.87 146.68C111.064 146.851 110.225 146.752 109.48 146.4C108.455 145.681 107.723 144.615 107.42 143.4C106.086 140.282 105.162 137.005 104.67 133.65C104.443 132.365 104.628 131.042 105.2 129.87C105.657 129.181 106.294 128.631 107.041 128.279C107.789 127.926 108.618 127.785 109.44 127.87C111.083 128.068 112.636 128.727 113.92 129.77C116.335 131.587 118.209 134.027 119.34 136.83C119.61 137.5 119.99 138.32 120.72 138.37" fill="#689DD4"/>
<path d="M106.06 164C108.904 161.01 111.266 157.596 113.06 153.88C113.501 153.068 113.795 152.184 113.93 151.27C113.993 150.812 113.954 150.346 113.816 149.905C113.678 149.464 113.443 149.06 113.13 148.72C112.569 148.237 111.868 147.946 111.13 147.89C109.78 147.747 108.415 147.901 107.13 148.34C104.775 149.053 102.597 150.256 100.738 151.869C98.8792 153.482 97.3818 155.469 96.3436 157.7C95.3053 159.931 94.7497 162.357 94.7129 164.817C94.6761 167.278 95.159 169.719 96.1301 171.98C96.2009 172.279 96.3461 172.555 96.5524 172.783C96.7586 173.01 97.0191 173.182 97.3096 173.282C97.6 173.381 97.911 173.406 98.2136 173.353C98.5162 173.301 98.8005 173.172 99.0401 172.98C105.9 170.03 103.64 170.98 105.39 168.78" fill="#4B5680"/>
<path d="M126.7 98.41L113.36 104.55L111.77 104.47L119.91 90.38L112.63 51.5L107.47 66.45L104.86 68.45V57.5L101.4 43L98.8499 32.33L97.5299 26.75L75.8199 33L59.7199 25.58L55.7199 31.58V37.22C55.0899 39.74 53.4399 46.45 53.4399 47.16C53.4399 48.04 54.5699 62.33 54.9399 63.07C55.3099 63.81 50.3299 73.83 50.3299 73.83L55.9999 70L59.7999 63.4L62.2899 72.73L66.5299 80.03V100.29L55.7399 104.5L55.0499 104.26L43.9999 100.47L40.6799 62.47L46.6799 25.61L61.7 5L80.1599 0L103.64 7L118.07 33L121 54.13L117.58 57.18L125.65 86L126.7 98.41Z" fill="black"/>
<path d="M53.39 46.29L46.74 60.56L45.65 57.42L43.74 65.26L50.99 102.86C50.99 102.86 60.2 95.75 60.84 94.86C61.48 93.97 59.19 70.19 59.19 70.19L56.53 54.42L53.39 46.29Z" fill="#404041"/>
<path d="M53.07 71.9998L54.07 79.9998L52.27 84.5198L51 102.86C51 102.86 62.23 110.01 62.53 109.86C62.83 109.71 70.53 106.65 70.69 106.25C70.85 105.85 74.69 95.5198 74.57 93.9098C74.45 92.2998 74.7 78.3298 74.14 77.9898C73.58 77.6498 67.35 71.6398 66.94 71.3398C66.53 71.0398 62.83 62.4198 62.83 62.4198L59.36 60.2998L53.07 71.9998Z" fill="#404041"/>
<path d="M96.5101 79.8298L96.2901 83.1998L78.75 100.46L79.0401 121.9L69.04 126.72L45.16 117.38C45.16 117.38 44.84 114.38 45.16 113.96L55.06 104.26L55.75 104.5L66.54 100.29V80.0298L62.3 72.7298L59.81 63.3998V63.1298L58.81 57.7698L58.11 55.2598L60.94 58.4398C60.94 58.4398 73.7601 62.4898 74.2301 62.4898C74.7001 62.4898 78.2301 66.4898 78.2301 66.4898V73.2298L70.81 71.8398L73.9201 76.6998L78.1 77.9998V87.9998H83.2301L96.5101 79.8298Z" fill="#9E5929"/>
<path d="M75.82 33.0299L72.05 34.5499L71.71 39.1799L55.74 31.5599L59.72 25.6099L75.82 33.0299Z" fill="#6767AE"/>
<path d="M98.8501 32.29L83.6801 39.19L82.33 39.81L81.7101 35.22L75.8201 33.03L97.5301 26.71L98.8501 32.29Z" fill="#6767AE"/>
<path d="M101.4 43.0001L95.0899 39.8501C95.0899 39.8501 81.5199 48.6001 81.0899 48.9201C80.6599 49.2401 83.6499 39.2301 83.6499 39.2301L98.8199 32.3301L101.4 43.0001Z" fill="#689DD4"/>
<path d="M101.4 43L95.09 39.85C95.09 39.85 81.52 48.6 81.09 48.92C80.66 49.24 83.65 39.23 83.65 39.23L82.3 39.85L77 48.11L77.8 53.97L77.6 63.15L82.3 62.15L101.52 55.97L104.83 57.55L101.4 43ZM78.4 60.89L79.65 55.28L82.04 60.89H78.4ZM101.4 50.26L93.02 55.96L82.33 51.38C82.96 51.38 95.9 42.53 95.9 42.53L101.4 47.05V50.26Z" fill="#7DD1F0"/>
<path d="M74.15 62.4901C73.68 62.4901 60.87 58.4401 60.87 58.4401L58 55.2601C57.0757 52.1655 56.3146 49.0245 55.72 45.8501C55.72 45.1501 55.72 40.9001 55.72 37.2201C55.72 34.2201 55.72 31.5801 55.72 31.5801L60.72 41.8701L60.91 42.5201L61.08 43.1101L57.15 47.7101L64.23 55.9401L64.89 55.5801L74.15 62.4901Z" fill="#689DD4"/>
<path d="M149.27 194L149.53 207.18L139.71 215.58L140.77 188.45L132.85 179.75L121.58 151.58L123.29 135.69C124 135.31 143.43 126.79 143.43 126.79L131.79 148.79C131.79 148.79 145.35 187.39 146.17 186.44C146.99 185.49 153.38 191.44 153.38 191.44L149.27 194Z" fill="#DC9159"/>
<path d="M24.08 163.14L25.87 198.51C25.87 198.51 23.31 193.28 23.18 193.64C23.05 194 23.18 199.96 23.18 201.76L13.54 197.56C13.54 197.56 15.62 175.28 15.62 173.72C15.62 172.16 19.45 135.26 19.45 135.26L27.28 139.58C27.28 139.58 31.09 138.42 33.99 137.58L24.08 163.14Z" fill="#DC9159"/>
<path d="M163.18 195.21L148.06 207.9L147.8 194.72L151.91 192.19C151.91 192.19 145.52 186.19 144.71 187.19C143.9 188.19 130.32 149.54 130.32 149.54L143.53 126.83L162.65 182.09L163.18 195.21Z" fill="#F1B280"/>
<path d="M108.19 110.81C108.961 112.42 109.816 113.989 110.75 115.51L71.6201 127.78L69.0601 126.78L79.0601 121.96L78.7701 100.52L96.3101 83.2598L97.0901 99.3198L111.79 104.52L113.38 104.6L108.19 110.81Z" fill="#A6662F"/>
<path d="M36.19 166.89L34.13 189.14L33 207.19L23.21 201.76C23.21 199.96 23.11 193.94 23.21 193.64C23.31 193.34 25.9 198.51 25.9 198.51L24.11 163.14L34 137.57C34.6999 137.335 35.4149 137.148 36.14 137.01L34.61 139.14L31.56 150.8L30.89 152.02L36.19 166.89Z" fill="#F1B280"/>
<path d="M76.01 51.5201L72.97 47.0301L61.58 42.5201H60.9L60.72 41.8701L55.76 31.5801L71.73 39.2001L75.02 44.7101L76.01 51.5201Z" fill="#689DD4"/>
<path d="M82.33 39.8098L77.03 48.0698L75 44.6898L71.71 39.1798L72.05 34.5498L75.82 33.0298L81.71 35.2198L82.33 39.8098Z" fill="#8193CA"/>
<path d="M119.91 90.38L111.77 104.47L97.07 99.28L96.29 83.21V83.2L96.51 79.83L99.84 73.29L104.86 57.5V68.45L107.47 66.45L112.63 51.5L119.91 90.38Z" fill="#404041"/>
<path d="M104.86 57.4999L99.8401 73.2899L96.5101 79.8299L83.2301 87.9899H78.1001V78.0399L82.0701 77.4699L86.2001 73.1899L90.3301 68.4499L86.2001 71.7999L78.1001 73.1899V66.4499L82.3301 62.0999L101.55 55.9199L104.86 57.4999Z" fill="#A6662F"/>
<path d="M90.3299 68.4502L86.2 73.1902L82.0699 77.4702L78.1099 78.0402L73.7899 76.6602L70.6799 71.8002L76.4299 74.7802L80.4999 74.3502L86.2 71.8002L90.3299 68.4502Z" fill="#A96739"/>
<path d="M86.2 71.7998L80.4999 74.3498L76.4299 74.7798L70.6799 71.7998L78.1099 73.1898L86.2 71.7998Z" fill="#9E5C28"/>
<path d="M82.0699 60.8502H78.4299L79.6799 55.2402L82.0699 60.8502Z" fill="#8193CA"/>
<path d="M82.33 62.1002L78.1 66.4502C78.1 66.4502 74.58 62.4502 74.1 62.4502L64.84 55.5302C66.84 54.3902 73.02 50.9902 73.43 50.9902L61.53 42.4702L73 47.0002L76 51.4902L75 44.6802L77 48.0602L77.8 53.9202L77.6 63.1002L82.33 62.1002Z" fill="#7DD1F0"/>
<path d="M59.7801 63.3802L56.0001 70.0002L50.3701 73.8302C50.3701 73.8302 55.3701 63.8302 54.9801 63.0702C54.5901 62.3102 53.4801 48.0702 53.4801 47.1602C53.4801 46.4502 55.1301 39.7402 55.7601 37.2202C55.7601 40.9002 55.7601 45.1502 55.7601 45.8402C55.7601 46.7102 57.1501 52.0202 58.0301 55.2602L58.7301 57.7702L59.7301 63.1302L59.7801 63.3802Z" fill="#50493F"/>
<path d="M101.4 47V50.21L93.0201 55.91L82.3301 51.33C82.9601 51.33 95.9001 42.48 95.9001 42.48L101.4 47Z" fill="white" stroke="#231F20" stroke-linejoin="round"/>
<path d="M73.4599 50.9999C73.0499 50.9999 66.8999 54.3999 64.8699 55.5399L64.2099 55.9099L57.1299 47.6699L60.2399 42.6699L60.6899 41.8599L73.4599 50.9999Z" fill="white" stroke="#231F20" stroke-linejoin="round"/>
<path d="M79.3299 219.32L79.0999 238.68L69.4099 243.08C69.4099 243.08 69.4099 227.81 69.4099 227.08C69.3331 227.073 69.2562 227.091 69.1899 227.13C69.137 227.151 69.0866 227.177 69.0399 227.21L68.8499 227.32C66.5099 228.66 57.7999 235.51 57.7999 235.51L57.5099 235.28L56.6299 219.28V215.55H56.8399C57.9199 216.82 60.0699 219.29 60.4399 219.29L79.3299 219.32Z" fill="#4B5680"/>
<path d="M132.63 262.7L116.35 354.7L102.27 356.1L77.1099 273.81C77.1099 273.81 87.8599 265.01 98.6199 256.35C100.89 254.52 103.17 252.69 105.34 250.96C105.03 258.67 103.39 293.14 103.39 293.14C103.39 293.14 116.09 321.3 116.45 320.74C116.81 320.18 132.21 264.31 132.63 262.7Z" fill="#3A3B44"/>
<path d="M47.3101 510.4L19.7201 512C19.7201 512 9.72014 513.21 8.92014 513C8.12014 512.79 0.120117 510.83 0.120117 510.83L0.890121 507.44L14.7501 508.14H15.2001L26.0201 508.83L39.8901 505.65L40.4201 505.53H40.4801C40.5326 505.517 40.5877 505.517 40.6401 505.53V505.53C41.0001 505.43 46.8701 503.86 47.0501 503.92C47.2401 507.52 47.3101 510.4 47.3101 510.4Z" fill="#3A3B44"/>
<path d="M25.95 508.69L39.93 505.67L26.06 508.86L15.24 508.17L14.79 508.15H14.78L14.75 508.13L15.05 508.15L25.95 508.69Z" fill="#001750"/>
<path d="M47.1099 503.89C46.9299 503.83 41.0599 505.4 40.6999 505.5V505.38L40.6499 505.24C40.5699 505 40.4599 504.69 40.3299 504.32C40.1999 503.95 40.1399 503.79 40.0199 503.48C39.8999 503.17 39.7899 502.83 39.6499 502.48L39.4899 502.07C39.4388 501.897 39.3788 501.727 39.3099 501.56L38.5499 499.56L38.2999 498.9C38.0099 498.15 37.7199 497.36 37.3999 496.56C37.2299 496.12 37.0699 495.67 36.8999 495.23C36.4699 494.13 36.0499 493.04 35.6599 492.01L35.2299 490.94C34.8299 489.94 34.4699 488.94 34.1699 488.21L34.0499 487.89L33.8999 487.51C33.8399 487.36 33.7799 487.21 33.7399 487.08L33.5999 486.74C33.4899 486.44 33.4199 486.27 33.4199 486.27L33.5499 485.49V486.49L48.5499 486.27C48.6299 486.24 46.9299 497.67 47.1099 503.89Z" fill="#7DD1F0"/>
<path d="M39.52 472.62H39.29V472.12L39.52 472.62Z" fill="#1C387F" stroke="#9BB8C8" stroke-miterlimit="10"/>
<path d="M40.5001 505.54L39.9701 505.67L26.1001 508.85L15.2801 508.16H14.8301L6.33008 503.92L24.7401 494.49L27.1801 496.18L28.0501 496.78L28.6901 497.22L29.5101 497.79C33.6801 500.71 39.4001 504.68 40.5001 505.54Z" fill="#7DD1F0"/>
<path d="M14.7799 508.15L0.889893 507.43L6.23988 503.89H6.24989L14.7799 508.15Z" fill="#4B5680"/>
<path d="M136.51 501.29L118.68 495.36L117.68 486.28L117.75 486.64L132.15 486.46L136.51 501.29Z" fill="#689DD4"/>
<path d="M141.22 509.59L119.74 508.86C119.74 508.86 117.26 501.31 117.26 500.99L118.72 495.61V495.36L136.55 501.29L141.22 509.59Z" fill="#7DD1F0"/>
<path d="M142.37 512.41L130.94 515.81H121.94L115.62 510L117.26 501.33V501C117.26 501.32 119.74 508.87 119.74 508.87L141.22 509.6L142.37 512.41Z" fill="#3A3B44"/>
<path d="M40.7 505.5C40.6475 505.486 40.5925 505.486 40.54 505.5H40.48L29.48 497.71L28.66 497.14L28.02 496.7L27.15 496.1L24.71 494.41L33.41 486.19C33.41 486.19 33.48 486.36 33.59 486.66L33.73 487C33.73 487.13 33.83 487.28 33.89 487.43L34.04 487.81L34.16 488.13L39.48 502L39.64 502.41L40.69 505.12C40.69 505.17 40.69 505.32 40.69 505.37C40.69 505.42 40.69 505.46 40.7 505.5Z" fill="#4B5680"/>
<path d="M55.0501 104.24L45.1501 113.94L40.8601 116.94C40.8601 116.94 40.7101 117.68 40.4501 118.88C39.4001 123.79 36.7001 136.94 36.1301 136.94C35.405 137.078 34.69 137.265 33.9901 137.5C31.0901 138.35 27.2801 139.5 27.2801 139.5L19.4501 135.18L15.8901 120.76L25.5201 128.76L37.1801 116.28L47.5101 107.97L37.9101 98.6099L43.9801 100.35L55.0501 104.24Z" fill="#3A3B44"/>
<path d="M20.7301 254.88C20.7301 254.88 14.0801 258.96 13.9701 259.44C13.8601 259.92 5.06007 252 4.00007 251C3.69007 257.19 4.16008 281.27 4.16008 281.27L5.89009 282.71L16.8901 278.92L25.4601 269.57L20.7301 254.88ZM5.91008 279.11L6.91008 262.68L9.66008 276.16L5.91008 279.11Z" fill="#7DD1F0"/>
<path d="M17.7701 198.76L15.6401 218.52L13.6401 203.52L9.64014 197.68C9.64014 197.59 9.64014 197.54 9.64014 197.54L13.5301 197.61L17.7701 198.76Z" fill="#8193CA"/>
<path d="M15.6999 250.51L20.6999 254.88C20.6999 254.88 14.0499 258.96 13.9399 259.44C13.8299 259.92 5.05986 252 3.99986 251C3.99152 250.525 4.04531 250.051 4.15987 249.59C4.74987 248.68 9.21987 200.54 9.59987 197.59L13.5999 203.43L15.5999 218.43L13.9999 234.06L21.0899 244.24L10.3399 246.55L6.90987 250.55L15.6999 250.51Z" fill="#689DD4"/>
<path d="M35.14 210.26L21.06 244.24L13.97 234.06L17.77 198.76L32.95 207.19L35.14 210.26Z" fill="#3A3B44"/>
<path d="M20.1999 253.26L20.7299 254.88L15.6999 250.51H6.87988L10.3099 246.55L21.0599 244.24L20.1999 253.26Z" fill="#8193CA"/>
<path d="M21.0599 287L13.2099 288.81L5.90991 282.73L16.9299 278.94L25.4999 269.59L25.6399 275.95L21.0599 287Z" fill="#689DD4"/>
<path d="M113.25 171.66C113.25 171.66 107.91 189 107.87 189L107.93 189.27C106.56 187.27 97.93 184.99 97.52 184.99C97.11 184.99 91.34 182.55 88.71 181.54C88.71 181.54 88.71 181.47 88.71 181.43C89.16 179.33 89.45 177.91 89.45 177.91L92.04 179.01L99.82 167.01L106.45 157.74L111.33 153.01L116.33 143.81C118.4 145.31 121.55 151.62 121.55 151.62L113.25 171.66Z" fill="#689DD4"/>
<path d="M111.35 153L103.25 158.09L99.85 167L92.07 179L89.47 177.9L70.73 169.9L56.6 177.29L55.05 178.1L46.29 164.81L40.98 165.17H55.07L65.57 144.85L70.24 161.14L74.87 147.23C74.87 147.23 92.81 161.95 93.17 161.8L111.35 153Z" fill="#3A3B44"/>
<path d="M89.4701 177.9C89.4701 177.9 89.1801 179.32 88.7301 181.42V181.53C88.3801 183.15 85.9201 191.94 84.0201 198.66L70.5101 203.43L58.0001 198.76L56.6201 177.33L70.7401 169.94L89.4701 177.9Z" fill="#7DD1F0"/>
<path d="M116.36 143.78L111.36 152.98L93.1799 161.83C92.8199 161.98 74.8799 147.26 74.8799 147.26L86.6799 132.86C86.6799 132.86 104.31 132.43 104.94 132.92C105.36 133.26 111.54 140.28 116.36 143.78Z" fill="#7DD1F0"/>
<path d="M48.6099 253.33L32.8599 240.07L39.1599 223.44C39.5999 223.75 40.9799 225.44 41.6899 225.94L48.6099 253.33Z" fill="#7DD1F0"/>
<path d="M57.7799 235.51C57.7799 235.51 45.6699 228.94 41.6899 225.94C40.9799 225.4 39.5999 223.75 39.1599 223.44L45.4299 211.38L56.6099 219.32L57.7799 235.51Z" fill="#3A3B44"/>
<path d="M69.41 243.08L57.78 235.51C59.64 234.02 67.22 228.2 69.02 227.21C69.0668 227.178 69.1171 227.151 69.17 227.13C69.2364 227.091 69.3133 227.073 69.39 227.08V227.08C69.45 227.81 69.41 243.08 69.41 243.08Z" fill="#7DD1F0"/>
<path d="M117.07 223.68L106.46 226.29L83.8 234.06V219.32L112.19 209.15L117.07 223.68Z" fill="#3A3B44"/>
<path d="M116.35 354.68C116.35 354.68 111.35 375.28 111.12 376.16C110.89 377.04 102.27 356.08 102.27 356.08L116.35 354.68Z" fill="#4B5680"/>
<path d="M78.4099 305.45C78.6699 304.08 69.4099 353.69 69.4099 353.69L63.9399 362.31C63.9399 362.31 66.8699 350.62 67.1199 349.83C67.3699 349.04 75.9999 301.3 75.9999 301.3C75.9999 301.3 66.6199 297.86 68.2899 298.12C70.8747 298.259 73.4651 298.259 76.0499 298.12L81.1199 296.59L93.4899 360.92C92.9999 359.28 78.1499 306.81 78.4099 305.45Z" fill="#4B5680"/>
<path d="M125.7 354.68L132.64 262.68L116.36 354.68C116.36 354.68 111.36 375.28 111.13 376.16C110.9 377.04 102.28 356.08 102.28 356.08L77.12 273.79C77.12 273.79 87.87 264.99 98.63 256.33L106.47 226.33L83.81 234.1V236.59L79.12 238.72L69.43 243.12L58 235.62L57.54 235.28C56.12 234.16 45.25 228.58 41.74 225.94L48.66 253.33L50.66 255.46L69.46 275.54L53.22 360.94L40.28 352.94L27.71 282.88L23.96 326.42L30.18 348.83L28 376.18L32.83 386.23L33.6 472.62H39.31V415.41C39.31 414.27 57.43 374.83 57.43 374.83L65.81 393.7L46.7 472.62L52.54 472.37L73.34 391.68L63.94 362.31C63.94 362.31 66.86 350.62 67.12 349.83C67.38 349.04 76 301.3 76 301.3C76 301.3 66.63 297.86 68.29 298.12C70.8748 298.26 73.4652 298.26 76.05 298.12L81.12 296.59L93.5 360.92L91.22 386.63C91.22 386.63 115.22 477.77 116.22 478.63C116.37 478.727 116.542 478.786 116.72 478.8C119.326 478.917 121.936 478.897 124.54 478.74H125.42L116.42 418.66C116.42 418.66 127.25 382.66 127.25 381.97C127.25 381.28 132.49 385.39 132.49 385.39L130.66 478.51L132.05 478.44L132.26 476.74C132.64 463.96 137.04 384.06 138 383.81C138.96 383.56 125.7 354.68 125.7 354.68ZM34.45 371.5L38 354.68C39 355.11 48.77 365.43 48.77 365.43L34.45 371.5Z" fill="#8193CA"/>
<path d="M124.27 239.2C117.614 242.526 111.277 246.456 105.34 250.94C103.17 252.67 100.89 254.5 98.6201 256.33L106.46 226.33L117.07 223.72L123.87 238.21L124.27 239.2Z" fill="#7DD1F0"/>
<path d="M132.64 262.66C132.22 264.27 116.81 320.13 116.46 320.66C116.11 321.19 103.4 293.06 103.4 293.06C103.4 293.06 105.04 258.59 105.35 250.88C111.287 246.396 117.624 242.466 124.28 239.14L132.64 262.66Z" fill="#689DD4"/>
<path d="M167.6 204C167.4 204.22 160.19 212.33 153.81 219.35V249.59L150.2 256.31L144.73 249.17L134.19 264.66L133.27 270.96H139.71V282.76L150.79 285.52L161.88 278.86C161.88 278.86 161.62 246.69 161.88 245.59C162.09 244.72 165.85 216.92 167.6 204ZM150.79 280.88L152.6 273.82V261.66L155.96 276.16L150.79 280.88Z" fill="#7DD1F0"/>
<path d="M161.88 278.83L158.98 286.25L144.67 293.73L136.16 290.33L133.26 270.93H139.71V282.73L150.79 285.49L161.88 278.83Z" fill="#689DD4"/>
<path d="M153.81 219.32V249.56L150.2 256.28L144.73 249.14L137.6 216.42C137.6 216.42 143.91 228.88 144.12 229.51C144.21 229.79 148.75 224.9 153.81 219.32Z" fill="#3A3B44"/>
<path d="M168.48 197.44C168.48 197.44 168.14 200.01 167.6 203.97C167.4 204.19 160.19 212.3 153.81 219.32C148.75 224.9 144.21 229.79 144.12 229.51C143.91 228.88 137.6 216.42 137.6 216.42L139.71 215.59L149.53 207.19L164.65 194.5L165.84 193.32L168.48 197.44Z" fill="#689DD4"/>
<path d="M132.59 385.36L130.76 478.48C129.45 478.55 127.48 478.64 125.47 478.71L116.47 418.63C116.47 418.63 127.3 382.63 127.3 381.94C127.3 381.25 132.59 385.36 132.59 385.36Z" fill="#4B5680"/>
<path d="M112.82 119L78.8199 130.24L69.3699 143.77L60.2999 128.87L40.4299 119C40.6899 117.81 40.8399 117.07 40.8399 117.07L45.1299 114.07C44.8299 114.52 45.1299 117.49 45.1299 117.49L68.9999 126.75L71.5599 127.75L110.68 115.5L112.82 119Z" fill="#7DD1F0"/>
<path d="M65.57 144.89L55.06 165.21H40.98L38.9 163.74L31.53 150.8L34.58 139.14L37.89 135.66L55.05 134.27L65.57 144.89Z" fill="#7DD1F0"/>
<path d="M83.8 219.32V234.06V236.55L79.11 238.68L79.3401 219.32H60.4201C60.0501 219.32 57.9001 216.85 56.8201 215.58L83.8201 214.43V219.32H83.8Z" fill="#7DD1F0"/>
<path d="M52.2099 294.58C52.2099 294.58 41.7699 320 41.5999 319.11C41.4299 318.22 28.3299 285.19 27.6599 282.7V281.8L32.1599 241.59L32.8299 240.08L48.5799 253.34L50.5799 255.47L52.2099 294.58Z" fill="#689DD4"/>
<path d="M69.4099 275.54L53.1699 360.94L40.2299 352.94L27.6599 282.88V282.71C28.3299 285.2 41.4299 318.29 41.5999 319.12C41.7699 319.95 52.2099 294.59 52.2099 294.59L50.6099 255.47L69.4099 275.54Z" fill="#3A3B44"/>
<path d="M48.7399 365.43L34.45 371.5L37.9999 354.68C38.9999 355.11 48.7399 365.43 48.7399 365.43Z" fill="#4B5680"/>
<path d="M123.42 135.57L121.58 151.57C121.58 151.57 117.72 145.93 116.36 143.76C113 138.44 105.36 133.24 104.93 132.91C104.3 132.42 86.6701 132.85 86.6701 132.85L74.8701 147.25L70.2401 161.16L65.5801 144.87L55.0501 134.25H37.8901L34.5801 139.11L36.1101 136.99C36.6801 136.99 39.3801 123.84 40.4301 118.93L60.3001 128.84L69.3701 143.76L78.8201 130.22L112.82 118.96C117.27 126.4 123 135.79 123.42 135.57Z" fill="#689DD4"/>
<path d="M155.96 276.16L150.79 280.85L152.6 273.79V261.67L155.96 276.16Z" fill="#3A3B44"/>
<path d="M9.62991 276.16L5.90991 279.11L6.87991 262.68L9.62991 276.16Z" fill="#3A3B44"/>
<path d="M65.79 393.7L46.7 472.62H39.52L39.29 472.12V415.41C39.29 414.27 57.41 374.83 57.41 374.83L65.79 393.7Z" fill="#4B5680"/>
<path d="M52.54 472.37L48.54 486.24L33.48 486.46L33.49 485.46L33.58 472.62L52.54 472.37Z" fill="#3A3B44"/>
<path d="M132.15 478.41V486.46L117.75 486.64L117.68 486.28L116.77 478.79C119.373 478.907 121.98 478.887 124.58 478.73C126.89 478.67 129.27 478.56 130.76 478.48L132.15 478.41Z" fill="#3A3B44"/>
<path d="M147.75 107.96L108.19 110.81L113.49 104.42L126.83 98.2802L129.01 96.9702L147.75 107.96Z" fill="#7DD1F0"/>
<path d="M147.75 107.96L143.56 126.67L125.39 128.03L108.19 110.81L147.75 107.96Z" fill="#689DD4"/>
<path d="M143.56 126.67C143.56 126.67 124.13 135.19 123.42 135.57C122.98 135.79 117.2 126.35 112.76 118.93L110.66 115.43C109.738 113.945 108.913 112.401 108.19 110.81L125.39 128L143.56 126.67Z" fill="#3A3B44"/>
<path d="M43.74 108.09L23.76 105.45L37.89 98.73L43.74 108.09Z" fill="#7DD1F0"/>
<path d="M47.4901 108.09L37.1601 116.4L25.5001 128.88L15.8701 120.84L23.7601 105.45L43.7401 108.09L37.8901 98.73L47.4901 108.09Z" fill="#689DD4"/>
<path d="M81.7101 35.22L97.5301 26.71L75.8201 33.03L81.7101 35.22Z" fill="#6767AE"/>
<path d="M79.3201 65.1899L101.55 55.9199L104.5 58.8799L104.86 57.4999L101.55 55.9199L82.33 62.0999L79.3201 65.1899Z" fill="#BC7645"/>
<path d="M77.0301 65.2599L60.8401 58.4199L74.1301 62.4699L77.0301 65.2599Z" fill="#9B5023"/>
<path d="M96.5099 79.8301L85.1499 88.6201L83.2099 89.5501L79.3999 88.6801L77.8999 88.2101L83.2299 87.9901L96.5099 79.8301Z" fill="#9B5023"/>
<path d="M66.51 81.1598L77.9 88.2098L66.51 80.0098V81.1598Z" fill="#9B5023"/>
<path d="M66.51 80C66.51 80.17 78.1 88 78.1 88H83.23L83.06 88.7L77.9 88.22C77.9 88.22 68.1 82 68 82C67.9 82 66.51 80 66.51 80Z" fill="#9B5023"/>
<path d="M75.8201 33C75.8201 33 70.7501 24.43 70.6801 23.67C70.6101 22.91 80.2501 5.52002 80.2501 5.52002C80.2501 5.52002 75.2501 21.22 75.4601 21.41C75.6701 21.6 81.0801 30.94 81.0801 30.94L75.8201 33Z" fill="#282A2A"/>
<path d="M103.64 6.99992C103.02 6.80992 95.09 10.4199 95.09 10.4199C95.09 10.4199 88.6701 26.9399 88.9501 26.7099C89.2301 26.4799 96.2901 11.9999 96.2901 11.9999L103.64 6.99992Z" fill="#282A2A"/>
<path d="M46.6799 25.61L62.7799 16.85L71.7099 19.29L61.7 4.95996L46.6799 25.61Z" fill="#282A2A"/>
<path d="M98.6199 368.93C99.1399 369.85 113.53 407.81 113.53 407.81L94.6099 386L98.6199 368.93Z" fill="#4B5680"/>
<path d="M48.74 371.5L36.02 376.18L39.29 415.41L57.41 374.83L48.74 371.5Z" fill="#3A3B44"/>
<path d="M57.95 235.62L52.54 257.52L69.41 275.54L67.25 286.86L74.54 288.81L81.19 287.12L77.12 273.79L93.5 260.46L102.27 227.07L83.8 234.06L83.79 236.55L69.41 243.08L57.95 235.62Z" fill="#689DD4"/>
<path d="M143.56 126.67C143.56 126.67 154.98 155.75 154.95 155.67C154.92 155.59 131.79 148.82 131.79 148.82L143.56 126.67Z" fill="#3A3B44"/>
<path d="M131.79 148.8L121.58 151.59L123.42 135.57L143.56 126.67" fill="#4B5680"/>
<path d="M154.95 155.65L164.12 181.35L164.65 194.5L146.17 186.45L154.95 155.65Z" fill="#689DD4"/>
<path d="M121.58 151.59L132.85 179.76L140.77 188.46L139.71 215.59C139.71 215.59 149.56 208.59 149.53 207.19C149.5 205.79 146.17 186.45 146.17 186.45L154.95 155.65C154.95 155.65 133.18 147.65 132.31 147.82C131.44 147.99 121.58 151.59 121.58 151.59Z" fill="#7DD1F0"/>
<path d="M146.17 186.45L149.53 207.19C149.53 207.19 165.15 194.72 164.65 194.5L146.17 186.45Z" fill="#3A3B44"/>
<path d="M136.22 183.47C136.58 183.86 146.68 184.35 146.68 184.35L151.45 183.91L140.77 188.46L136.22 183.47Z" fill="#3A3B44"/>
<path d="M36.1101 137L34.5801 139.12L31.5301 150.79L30.8601 152.01C30.8601 152.01 36.8601 166.16 36.1901 166.88C35.5201 167.6 24.7801 176.88 24.7801 176.88L20.6401 150.79L27.2601 139.57L36.1101 137Z" fill="#4B5680"/>
<path d="M27.26 139.58L19.43 135.26L14.73 184.35L24.77 176.89L20.64 150.8L27.26 139.58Z" fill="#689DD4"/>
<path d="M36.2 166.89L33 207.19L21.75 201.13L24.83 176.88C24.83 176.88 35.48 167.37 36.2 166.89Z" fill="#689DD4"/>
<path d="M24.78 176.88L21.7 201.13L17.77 198.76L13.52 197.56C13.52 197.56 16.52 166.09 16.44 166.49C16.36 166.89 24.78 176.88 24.78 176.88Z" fill="#7DD1F0"/>
<path d="M112.19 209.15L83.7999 219.32V214.43L56.6199 215.59V219.32L45.4399 211.38L43.3499 177.38L38.0499 169.33L36.2099 166.87L30.8599 152L31.5299 150.78L38.8999 163.72L40.9799 165.19L46.2899 164.83L55.0499 178.12L56.6099 177.31L57.9999 198.76L69.6199 206.76C74.4199 204.046 79.2166 201.333 84.0099 198.62L88.7199 181.49C91.3499 182.49 97.0999 184.94 97.5299 184.94C97.9599 184.94 106.53 187.19 107.94 189.22C108.38 191.58 112.19 209.15 112.19 209.15Z" fill="#689DD4"/>
<path d="M112.82 166.58C112.69 167.01 101.82 179.64 101.82 179.64L101.49 185.06L112.82 166.58Z" fill="#4B5680"/>
<path d="M112.41 160.94C112.25 161.37 100.5 173.2 100.5 173.2L99.79 178.58L112.41 160.94Z" fill="#4B5680"/>
<path d="M84.37 207.31L79.5 217L61 215.47L56.25 208.47L69 213.69L84.37 207.31Z" fill="#7DD1F0"/>
<path d="M112.19 209.15L83.7999 219.32V214.43L56.6199 215.59V219.32L45.4399 211.38L43.3499 177.38L38.0499 169.33L36.2099 166.87L30.8599 152L31.5299 150.78L38.8999 163.72L40.9799 165.19L46.2899 164.83L55.0499 178.12L56.6099 177.31L57.9999 198.76L70.4999 203.43L83.9999 198.66L88.7099 181.53C91.3399 182.53 97.0899 184.98 97.5199 184.98C97.9499 184.98 106.52 187.23 107.93 189.26C108.38 191.58 112.19 209.15 112.19 209.15Z" fill="#689DD4"/>
</svg>
