<svg width="193" height="497" viewBox="0 0 193 497" fill="none" xmlns="http://www.w3.org/2000/svg">
<path d="M96.28 44.2202L82.84 44.4502C82.54 44.4502 77.62 46.7502 77.62 46.7502L75.16 44.2502L67.35 43.9902L68.7 50.5602L71.19 57.2902L75.41 64.2902H87.59L98.28 53.7602L96.28 44.2202ZM83.17 56.8502C82.92 56.7702 77.35 56.8502 77.35 56.8502L75.77 54.3602H85.58C85.58 54.3602 83.42 56.9402 83.17 56.8502V56.8502ZM73.64 51.7902L75.32 50.5802C75.32 50.5802 84.44 50.5202 84.76 50.5802C85.08 50.6402 89.36 51.8802 89.36 51.8802L73.64 51.7902Z" fill="#E4B17B"/>
<path d="M72.4299 0.540039L79.1199 2.41005L87.0699 0.540039L102.55 4.62004L88.8699 8.03004L76.3699 7.34004L72.4299 0.540039Z" fill="#3F383E"/>
<path d="M190.5 220V220.46H176.32L185.12 166.26C185.12 166.26 190.77 188.62 191.23 189.26V189.41C191.73 192.06 190.5 220 190.5 220Z" fill="#7C4B20"/>
<path d="M185.12 220.42L179.9 248.41L174.72 234.41L168.72 232.39L168.87 231.93L176.31 220.42H185.12Z" fill="#E4B37C"/>
<path d="M179.9 248.41L169.54 251.91L167.21 248.41L172.53 246.63V242.03L167.21 248.41L164.81 244.79L168.72 232.39L174.72 234.41L179.9 248.41Z" fill="#D1925E"/>
<path d="M192.57 247.28L187.84 251.91H169.54L179.9 248.41L192.57 247.28Z" fill="#9E6F5A"/>
<path d="M190.5 220.42L192.57 247.28L179.9 248.41L185.12 220.42H190.5Z" fill="#D1925E"/>
<path d="M166.38 103.68V103.75L152.84 122.27L137.31 115V99.1999L155.9 82.8799H156.23L166.38 103.68Z" fill="#EE4023"/>
<path d="M155.9 82.8602L137.31 99.1802L115.33 87.3602L130.48 78.7402L130.71 78.8502L155.9 82.8602Z" fill="#F8B517"/>
<path d="M146.45 128.37C146.45 128.37 147.79 154.24 148.32 155.37C147.64 155.37 140.19 127.82 140.19 127.82L129.67 107.52L115.33 87.3398L137.33 99.1599V115L152.86 122.29L146.45 128.37Z" fill="#7C4B20"/>
<path d="M105.69 67.6201C100.63 69.7801 83.69 77.9201 83.39 77.7101C83.09 77.5001 76.13 72.2301 72.39 69.4101L82.45 73.0701L104.1 62.6001V66.8801L105.69 67.6201Z" fill="#D0A17F"/>
<path d="M104.14 56.3799V62.5899L82.53 73.0599L72.47 69.3999L73.16 63.6599L75.04 65.9299H87.71L104.14 56.3799Z" fill="#BB865E"/>
<path d="M104.2 46.5298L104.77 45.9198L104.2 46.5298L104.14 56.3798L87.64 65.9298L98.28 53.7198C98.28 53.7198 100.82 47.6498 103.39 41.5698C103.55 41.2098 104.2 46.3498 104.2 46.5298Z" fill="#966C54"/>
<path d="M98.28 53.7202L87.64 65.9301H75L73.13 63.6602L71 57.5502L68.74 50.7301L66.66 43.9102L68 44.0002L69.34 50.5702L71.84 57.3002L75.42 64.3002H87.6L98.28 53.7202Z" fill="#C7915D"/>
<path d="M110.49 29.4199V39.7299L104.2 46.5299C104.2 46.3499 103.55 41.2099 103.39 41.5299C105.96 35.4499 108.55 29.3799 108.64 29.3799L110.49 29.4199Z" fill="#D0A17F"/>
<path d="M107.87 14L106.69 28.8501L97.38 24.8501L98 14.5201L93.51 15.26L81.46 18.84L68.37 14.09L66.28 25.69L67.51 9.45004C67.51 9.45004 78.84 12 79.1 12C79.36 12 96.79 10.3701 97.18 10.2401C97.57 10.1101 102.7 8.08004 102.99 7.79004L107.87 14Z" fill="#22201F"/>
<path d="M93.51 15.3101L90.86 24.4401C90.86 24.4401 79.33 29.7901 79.14 29.9301C78.95 30.0701 70.62 25.4501 70.24 25.3301C69.86 25.2101 68.37 14.1401 68.37 14.1401L80.94 18.7001L93.51 15.3101Z" fill="#E4B17B"/>
<path d="M108.88 29.4199L102.74 31.5199L97.63 33.0599L94.77 29.5699L92.37 26.6599L97.38 24.8999L106.69 28.8899L106.64 29.3199L108.88 29.4199Z" fill="#EE4023"/>
<path d="M103.06 31.3302C103.06 31.3302 98.2 40.5302 96.74 43.3302C96.64 43.5302 96.55 43.6902 96.48 43.8202L96.32 44.1202V44.1702L82.88 44.4002C82.58 44.4002 77.66 46.7002 77.66 46.7002L75.2 44.2002L68.42 43.9402L66.67 43.8602L68.67 39.3102L75.79 41.1002L77.21 34.0402L67.68 29.7002L66 26.1102L66.28 25.7402L78.81 32.1902L92.51 26.6102L94.79 29.4002L80.94 34.4602L82.14 41.1502C82.43 41.1502 94.98 40.6402 95.19 40.5702C95.4 40.5002 97.65 32.8902 97.65 32.8902L103.06 31.3302Z" fill="#EE4023"/>
<path d="M77.19 34.09L75.77 41.15L75.22 34.42L67.66 29.75L77.19 34.09Z" fill="#EE4023"/>
<path d="M68.65 39.3699L66.63 43.9099L63.5 34.6599V29.4199L66 26.1099L67.66 29.7499L65.85 33.3699L67.51 39.0899L68.65 39.3699Z" fill="#EE4023"/>
<path d="M94.7899 29.3999L84.2499 34.2299L82.14 41.1499L80.9399 34.4699L94.7899 29.3999Z" fill="#EE4023"/>
<path d="M108.88 29.4199C108.64 29.7799 106.13 35.6599 103.64 41.5499L103.53 41.8199C101.3 47.0599 98.97 52.2699 98.4 53.4599C98.4 53.4599 98.4 53.6199 98.34 53.6599C98.3159 53.6953 98.2854 53.7258 98.25 53.7499L96.25 44.1999V44.1499C96.3088 44.0529 96.3622 43.9528 96.41 43.8499L96.67 43.3699C98.2 40.5199 102.99 31.3099 102.99 31.3099L108.5 29.4999L108.8 29.3999L108.88 29.4199Z" fill="#EE4023"/>
<path d="M140.19 127.84L129.67 107.54L123.31 122.27C123.31 122.27 108.24 131.08 107.88 131.45C107.52 131.82 79.4599 125.83 79.4599 125.83L81.3099 102.12L89.7499 85.7402L81.4099 90.8002C81.4099 90.8002 73.7699 86.8802 73.1599 86.2002L78.8399 103.2L74.9999 126.33L50.8999 132.85L37.6799 123.73L50.2 139.6L67.2 133.41L52.7899 146.93L55.17 182.61C55.17 182.61 65.1699 204.02 65.6299 204.33C66.0899 204.64 91.3099 204.33 91.3099 204.33L109.23 178.17L124 171.38C124 171.26 124 171.2 124 171.2L140.19 127.84ZM99.7199 187.07L96.4299 192L77.7899 194.22V134.86L101.21 145.92L97.4999 159.81L99.7199 187.07ZM84.6299 133.46C84.6299 133.46 110.14 138.19 110.83 138.01C111.52 137.83 132.04 121.53 132.68 121.01L112.91 145.91L84.6299 133.46Z" fill="#EE4023"/>
<path d="M132.68 121L112.91 145.9L84.63 133.44C84.63 133.44 110.14 138.17 110.83 137.99C111.52 137.81 132 121.53 132.68 121Z" fill="#7C4B20"/>
<path d="M78.84 103.18L75.01 126.33L50.92 132.85L37.7 123.73L36.83 106.69L52.48 87.3599L78.84 103.18Z" fill="#F8B517"/>
<path d="M52.48 87.3601L31.48 103.18L22.74 96.7101L31.59 82.0001L48.3 81.1001L48.85 80.8501C50.13 82.8901 52.48 87.3601 52.48 87.3601Z" fill="#F8B517"/>
<path d="M25.67 123.24L25.72 123.09L22.78 96.71L31.52 103.18L37.7 123.73L25.67 123.24Z" fill="#EE4023"/>
<path d="M53.9 208.43L66.67 234.43L65.49 232.58L65 231.81L64.73 231.4L64.15 230.47L63.51 229.47L63.17 228.93L62.08 227.22L60.91 225.38L60.09 224.08L59.25 222.77L58.82 222.09L58 220.79L56.61 218.61L55.8 217.33L54.95 215.98C51.16 209.98 47.9 204.78 47.84 204.52L51.91 181.18C51.91 181.18 48.02 147.18 48.24 143.54C47.3 146.06 38.49 163.54 37.74 165.04L18.89 155.63L38.75 145.97L37.7 123.78L50.23 139.65L67.23 133.46L52.82 146.98L55.2 182.66L53.9 208.43Z" fill="#7C4B20"/>
<path d="M18.89 155.58L19.7099 185.14L8.93994 220.82L2.68994 217.26L11.9399 166.91L18.89 155.58Z" fill="#F8B517"/>
<path d="M37.6899 165.09L36.2199 178.87L14.89 221.09L8.93994 220.82L19.7099 185.14L37.6899 165.09Z" fill="#7C4B20"/>
<path d="M13.85 236.84L4.25 250.36L0.880005 235.99L2.69 217.26L8.94 220.82L13.85 236.84Z" fill="#D2935C"/>
<path d="M22.6899 233.42L13.8499 236.84L8.93994 220.82L14.89 221.09L22.5599 233.06L22.6899 233.42Z" fill="#E5B47E"/>
<path d="M26.17 243.66L22.56 246.38L13.85 236.84L22.69 233.42L26.17 243.66Z" fill="#CF975D"/>
<path d="M22.56 246.38L20.38 250.49L19.62 251.91L4.26999 250.44L4.25 250.36L13.85 236.84L22.56 246.38Z" fill="#9D6D5F"/>
<path d="M126.55 195.89L101.21 219.11L91.13 234.41C90.61 233.72 113.43 200.91 112.91 200.41C112.39 199.91 109.3 178.19 109.3 178.19L124 171.38C124.23 173.58 126.46 194.5 126.46 195.38C126.478 195.552 126.508 195.722 126.55 195.89V195.89Z" fill="#7C4B20"/>
<path d="M66.68 234.41L59.24 292.12L36.24 271.21L47.86 204.48C48.01 205.09 66.12 233.48 66.69 234.39L66.68 234.41Z" fill="#F8B517"/>
<path d="M143.35 251.91L141.35 315.24C141.35 315.24 131.89 326.71 128.35 331.78C130.94 325.99 136.35 311.52 136.35 311.25C136.35 310.98 123 293.59 121.57 290C121.67 289.57 121.67 289.34 121.57 289.36C121.47 289.38 121.45 289.61 121.57 290C120.57 294.28 109.08 319.16 108.15 321.17L108.09 321.3C100.6 295.93 90.53 262 90.53 262L87.14 299.7C87.14 299.7 81.09 326 81.04 326.57C81.04 326.57 78.1 328.43 74.64 330.57C69.91 333.57 64.2 337.16 63.75 337.46C62.95 337.99 74.3 315.82 74.3 315.82L59.24 292.14L66.68 234.43C66.68 234.43 91.14 235.12 91.14 234.43L121.56 288.08L143.35 251.91Z" fill="#7C4B20"/>
<path d="M59.24 292.12L49.43 326.76L36.22 271.21L59.24 292.12Z" fill="#7C4B20"/>
<path d="M80.59 349.79L65.59 364.63L45.59 340.3L48.93 328.48L49.2 327.55L49.43 326.76L59.24 292.12L74.3 315.8C74.3 315.8 63 338 63.74 337.44C64.48 336.88 81 326.53 81 326.53C81.26 325.86 80.59 349.79 80.59 349.79Z" fill="#EE4023"/>
<path d="M87.14 387.95L65.59 364.63L80.59 349.79L87.14 387.95Z" fill="#F4831F"/>
<path d="M87.14 387.95L67.49 460.43L65.59 364.63L87.14 387.95Z" fill="#F4831F"/>
<path d="M49.71 432.8C49.71 432.8 49.88 371.01 49.65 370.34C49.42 369.67 45.59 340.99 45.59 340.34L65.59 364.67L67.49 460.47L49.71 432.8Z" fill="#7C4B20"/>
<path d="M68.4 484.36L30.24 486.16C30.24 486.16 20.98 489.32 20.08 489.09C19.18 488.86 4.27002 486.62 4.27002 486.62L5.17004 480.97L24.91 481.82L43.12 482.61L60.51 478.77C60.51 478.77 67.93 476.87 68.16 476.93C68.29 481.07 68.4 484.36 68.4 484.36Z" fill="#7C4B20"/>
<path d="M68.16 476.93C67.93 476.87 60.51 478.77 60.51 478.77L51.8 456.77L49.71 432.56L67.49 460.19C67.61 460.2 67.94 469.83 68.16 476.93Z" fill="#EE4023"/>
<path d="M60.51 478.77L43.12 482.84L24.91 482.05L14.22 476.93L41.45 466.17L60.51 478.77Z" fill="#F4831F"/>
<path d="M24.91 482.05L5.17004 480.97L14.21 476.93H14.22L24.91 482.05Z" fill="#EE4023"/>
<path d="M143.35 251.91L121.56 288.08C120.91 287.43 132.44 215.85 132.44 215.85C137.3 232 143.35 251.91 143.35 251.91Z" fill="#EE4023"/>
<path d="M141.32 315.24C141.32 315.24 131.86 326.71 128.32 331.78C130.91 325.99 136.32 311.52 136.32 311.25C136.32 310.98 123 293.59 121.57 290C120.57 294.47 108.08 321.3 108.08 321.3L123.85 339.15L127 361.8L144.5 344.59L141.32 315.24Z" fill="#EE4023"/>
<path d="M140 436.3L119.88 394.73C119.88 394.73 119.88 394.31 119.78 393.55C119.84 392.25 126.99 369.77 126.99 369.77L115.99 348.7C115.99 348.44 112.47 336.42 108.17 321.57L124 339.38L127 361.8L161.77 431.8L163.47 464.48L140 436.3Z" fill="#7C4B20"/>
<path d="M127 369.73C127 369.73 119.85 392.21 119.79 393.51C119.18 386.3 116.05 349.27 116.05 348.66L127 369.73Z" fill="#F4831F"/>
<path d="M161.75 431.81L126.98 361.8L144.48 344.59L159.16 381.85L161.75 431.81Z" fill="#F4831F"/>
<path d="M168.9 477.27L145.11 469.57L140.42 437.17L139.99 436.3L163.45 464.49L168.9 477.27Z" fill="#EE4023"/>
<path d="M173.59 488.29L148.59 487.84C148.59 487.84 145.16 477.84 145.16 477.39V469.91L145.11 469.57L168.9 477.27L173.59 488.29Z" fill="#F8B517"/>
<path d="M175.19 492L161.19 496.52H148.77L142.9 489.3L145.16 477.78V477.36C145.16 477.78 148.59 487.81 148.59 487.81L173.59 488.26L175.19 492Z" fill="#7C4B20"/>
<path d="M185.12 166.22L168 155L152.84 122.23L166.38 103.71C166.38 104.82 166.62 118.12 166.84 118.77C167.06 119.42 173.39 133.45 173.39 133.45C173.39 133.45 176.32 153.54 176.32 152.86C176.32 152.18 185.12 166.22 185.12 166.22Z" fill="#7C4B20"/>
<path d="M168 155C168 155 162.26 160.95 158.32 164.88C157.17 163.72 150.4 156.83 148.69 155.55C151.31 156.33 166.87 155 168 155Z" fill="#7C4B20"/>
<path d="M176.32 220.42L159.83 187.42L158.49 165.06L158.32 164.89C162.26 161 168 155 168 155L176.32 220.42Z" fill="#F4831F"/>
<path d="M185.12 166.22L176.31 220.42L168 155.05L185.12 166.22Z" fill="#EE4023"/>
<path d="M113.67 71.1899L89.75 85.7399L81.41 90.7999C81.41 90.7999 73.77 86.8799 73.16 86.1999V86.1099C73.42 85.9299 69.77 78.5699 67.5 74.0399C67.71 73.8399 70.19 71.5999 71.55 70.3099C72 69.8799 72.32 69.5499 72.41 69.4499C76.11 72.2699 83.1 77.5599 83.41 77.7499C83.72 77.9399 99.02 69.0899 104.09 66.9199L113.67 71.1899Z" fill="#7C4B20"/>
<path d="M78.84 103.18L52.48 87.3599L73.13 86.1099L73.16 86.1999L78.84 103.18Z" fill="#F8B517"/>
<path d="M36.83 106.69L37.7 123.73L31.52 103.18L52.48 87.3599L36.83 106.69Z" fill="#7C4B20"/>
<path d="M38.75 145.92L18.89 155.58L21.2 136.87L25.67 123.24L37.7 123.73L38.75 145.92Z" fill="#F8B517"/>
<path d="M37.74 165L37.69 165.1L19.69 185.15L18.87 155.59L37.74 165Z" fill="#EE4023"/>
<path d="M20.3801 250.49L7.57007 247.98L12.0701 244.2L22.5601 246.38" fill="#CF975D"/>
<path d="M115.33 87.3602L81.3101 102.12L89.7501 85.7402L115.33 87.3602Z" fill="#F8B517"/>
<path d="M129.67 107.54L123.31 122.27C123.31 122.27 108.24 131.08 107.88 131.45C107.52 131.82 79.46 125.83 79.46 125.83L81.31 102.12L115.31 87.3599L129.67 107.54Z" fill="#F8B517"/>
<path d="M168 155C166.87 155 151.31 156.29 148.69 155.55C148.591 155.457 148.471 155.388 148.34 155.35C147.81 154.2 146.47 128.35 146.47 128.35L152.86 122.25L168 155Z" fill="#F8B517"/>
<path d="M172.53 242.03V246.63L167.21 248.41L172.53 242.03Z" fill="#966445"/>
<path d="M97.5 159.81L99.72 187.07L96.43 191.95L77.79 194.17V134.86L101.2 145.92L97.5 159.81Z" fill="#F8B517"/>
<path d="M121.56 288.08L91.14 234.43L101.22 219.13L126.56 195.91C127.13 198.07 129.56 206.33 132.45 215.91C132.44 215.85 120.91 287.43 121.56 288.08Z" fill="#F8B517"/>
<path d="M91.13 234.41C91.13 235.08 66.67 234.41 66.67 234.41L53.9 208.41L55.24 182.59C55.24 182.59 65.24 204 65.7 204.31C66.16 204.62 91.38 204.31 91.38 204.31L109.3 178.15C109.3 178.15 112.39 199.85 112.91 200.37C113.43 200.89 90.61 233.72 91.13 234.41Z" fill="#EE4023"/>
<path d="M98 14.5701L97.38 24.9001L92.51 26.6101L78.81 32.1901L66.28 25.7401L68.37 14.1401C68.37 14.1401 69.87 25.2001 70.24 25.3301C70.61 25.4601 78.95 30.0501 79.14 29.9301C79.33 29.8101 90.86 24.4401 90.86 24.4401L93.51 15.3101L98 14.5701Z" fill="#D0965D"/>
<path d="M89.36 51.8799L86.79 52.4499L74.93 52.1799C74.93 52.1799 73.69 51.7899 73.64 51.7899L75.32 50.5799C75.32 50.5799 84.44 50.5199 84.76 50.5799C85.08 50.6399 89.36 51.8799 89.36 51.8799Z" fill="#8E5828"/>
<path d="M85.58 54.3599C85.58 54.3599 83.42 56.9399 83.17 56.8499C82.92 56.7599 77.35 56.8499 77.35 56.8499L75.77 54.3599H85.58Z" fill="#8E5828"/>
<path d="M97.65 32.8899C97.65 32.8899 95.39 40.4899 95.19 40.5699C94.99 40.6499 82.43 41.1499 82.14 41.1499L84.25 34.2299L94.79 29.3999L97.65 32.8899Z" fill="white" stroke="#221F1F" stroke-linejoin="round"/>
<path d="M75.77 41.15L68.65 39.37L67.51 39.09L65.85 33.37L67.66 29.75L75.22 34.42L75.77 41.15Z" fill="white" stroke="#221F1F" stroke-linejoin="round"/>
<path d="M82.49 44.5302L95.77 45.8302L98.28 53.7202L96.28 44.2202L82.81 44.4502" fill="#6A3F26"/>
<path d="M107.87 14L94.79 13L79.14 15.48L68.66 12.72L67.52 9.42004L68.97 6.79004L90.39 9.26004L102.55 4.54004L107.87 14Z" fill="#22201F"/>
<path d="M76.53 27.9998C77.3014 28.4692 78.0994 28.8932 78.92 29.2699C78.7018 27.5888 78.398 25.92 78.01 24.2699C77.6112 23.9109 77.2463 23.5159 76.92 23.0898L76.53 27.9998Z" fill="#D0965D"/>
<path d="M79.4399 29.2799L80.9399 26.6299V28.4799L79.4399 29.2799Z" fill="#D0965D"/>
<path d="M73.13 86.1099L52.48 87.3599C52.48 87.3599 50.13 82.8899 48.85 80.8599L65.66 70.9399L72.4 69.3999C72.31 69.4999 71.99 69.8299 71.54 70.2599C70.18 71.5499 67.7 73.7899 67.49 73.9899C69.74 78.5699 73.39 85.9299 73.13 86.1099Z" fill="#EE4023"/>
<path d="M52.48 78.71L31.59 82.0099L52.48 81.7V78.71Z" fill="#EE4023"/>
<path d="M97.5 159.81L77.79 156.33L76.48 160.82L97.64 161.53L99.53 160.47L97.5 159.81Z" fill="#EE4023"/>
<path d="M173.39 133.49L168 132.83L166.84 118.83C167.07 119.49 173.39 133.49 173.39 133.49Z" fill="#F8B517"/>
<path d="M53.8999 208.43L66.67 234.43L65.4899 232.58L64.9999 231.81L64.7299 231.4L64.1499 230.47L63.5099 229.47L63.17 228.93L62.0799 227.22L60.9099 225.38L60.0899 224.08L59.2499 222.77L58.8199 222.09L57.9999 220.79L56.6099 218.61L55.7999 217.33L54.95 215.98C51.16 209.98 47.8999 204.78 47.8399 204.52L51.9099 181.18C51.9099 181.18 48.0199 147.18 48.2399 143.54L37.7 123.73L50.2299 139.6L67.2299 133.41L52.8199 146.93L55.2 182.61L53.8999 208.43Z" fill="#7C4B20"/>
<path d="M102.55 4.62004V9.50005L79 14.14L67.48 9.50005L68.93 6.87004C70.35 4.29004 72.32 0.700039 72.39 0.540039C72.39 0.890039 79.75 5.45004 79.75 5.45004L83.75 2.93004L87.07 4.62004H102.55Z" fill="#22201F"/>
<path d="M98 14.5701C98 14.5701 102.29 12.2701 102.25 12.4201C102.21 12.5701 100.63 26.2901 100.63 26.2901L97.38 24.9001L98 14.5701Z" fill="#3F383E"/>
<path d="M109.46 31.73V39.37L106.36 42.93L109.46 31.73Z" fill="#AB8569"/>
<path d="M106.36 42.93L104.45 42.77L109.46 31.73L108.88 37.33L106.36 42.93Z" fill="#AB8569"/>
<path d="M80.94 18.0601C80.94 17.8701 70.54 10.2701 70.54 10.2701C70.54 10.2701 72.24 1.27009 72.43 1.58009C72.62 1.89009 78.92 9.3001 78.92 9.3001L80.94 18.0601Z" fill="#3F383E"/>
<path d="M66.63 43.9102L74.97 45.1602C74.97 45.1602 77.79 46.9202 77.62 46.7502L75.16 44.2502L66.63 43.9102Z" fill="#6A3F26"/>
<path d="M130.48 78.7399L115.33 87.3599L89.75 85.7399L112.03 72.1899L104.07 66.8799L114.54 69.9799L130.48 78.7399Z" fill="#EE4023"/>
<path d="M130.71 137.24C130.53 137.66 117.83 147.75 117.83 147.75L116.94 154.19L130.71 137.24Z" fill="#7C4B20"/>
<path d="M130 144.53C129.87 144.98 118.93 157.81 118.93 157.81L118.6 163.32L130 144.53Z" fill="#7C4B20"/>
<path d="M129.68 107.54L136.06 128.34L123.96 171.38L140.19 127.84L129.68 107.54Z" fill="#F4831F"/>
<path d="M75.11 142.46C75.46 143.35 74.4 155.21 74.4 155.21L62.78 155.96L65.23 144.74L75.11 142.46Z" fill="#F8B517"/>
<path d="M74.74 167.79L74.39 192.68L62.88 188.97L64.87 170.06L74.74 167.79Z" fill="#F8B517"/>
<path d="M108.15 321.21L108.09 321.34C100.6 295.93 90.53 262 90.53 262L87.14 299.7C87.14 299.7 81.09 326 81.04 326.57C81.04 326.57 78.1 328.43 74.64 330.57L81.08 309.64L89.5 258.64L82.07 255.18L78.91 246.39L85.62 251.97H93.82C93.82 251.97 95.67 260.58 96.15 261.45C96.63 262.32 107.24 316.55 108.15 321.21Z" fill="#F4831F"/>
<path d="M41.45 466.17L51.7999 456.78C51.7999 456.78 61.0799 479.59 60.5199 479C59.9599 478.41 41.45 466.17 41.45 466.17Z" fill="#DC5526"/>
<path d="M190.5 220V220.46H176.32L191.23 189.29V189.44C191.73 192.06 190.5 220 190.5 220Z" fill="#F8B517"/>
<path d="M75.41 64.25C75.54 64.1 77.41 61.03 77.41 61.03L83.72 60.75L87.63 64.25L80.17 65.25L75.41 64.25Z" fill="#C7915D"/>
</svg>
