<svg width="168" height="479" viewBox="0 0 168 479" fill="none" xmlns="http://www.w3.org/2000/svg">
<path d="M91.53 42.4H90.41L86.41 42.47H85.81L81.24 42.55H79.91H78.61H78.51L78.33 42.61L77.89 42.8L77.33 43.04L74.99 44.1L74.64 44.26L74.18 44.48L73.94 44.59L73.59 44.75L71.21 42.34L64.3 42.1H63.67C63.79 42.64 65.5 48.41 65.5 48.41L68 55L72.3 61.72H83.13L90.84 52.61L90.91 52.54L91.68 51.64L91.73 51.58V51.39L91.53 42.4ZM80.41 48.54C80.72 48.61 84.84 49.79 84.84 49.79L69.67 49.71L71.29 48.54C71.29 48.54 80.1 48.48 80.41 48.54ZM71.73 52.18H81.2C81.2 52.18 79.11 54.67 78.87 54.59C78.63 54.51 73.25 54.59 73.25 54.59L71.73 52.18Z" fill="#A6662F"/>
<path d="M68.5 0.229996L74.96 2.03999L82.64 0.229996L97.58 4.17L84.37 7.47L72.31 6.8L68.5 0.229996Z" fill="#3E383E"/>
<path d="M164.39 218.78V219.22L154.7 218.15L165.83 167.43C165.83 167.43 167.23 189.11 167.6 189.8V189.94C167.74 192.55 164.39 218.78 164.39 218.78Z" fill="#827140"/>
<path d="M160.11 218.75L155.12 245.39L151.63 231.41L146.09 228.84L146.28 228.41L154.65 218.15L160.11 218.75Z" fill="#A4682F"/>
<path d="M155.12 245.39L144.81 247.65L142.95 244.05L148.25 242.9L148.73 238.49L142.95 244.05L141.02 240.32L146.09 228.84L151.63 231.41L155.12 245.39Z" fill="#85491F"/>
<path d="M167.4 245.64L162.37 249.59L144.81 247.65L155.12 245.39L167.4 245.64Z" fill="#4B1D11"/>
<path d="M164.34 219.22L167.4 245.64L155.12 245.39L160.11 218.75L164.34 219.22Z" fill="#85491F"/>
<path d="M141.49 80.29L130.02 97.76L109.91 84.04L124.54 75.72L124.76 75.82L141.49 80.29Z" fill="#F4A54B"/>
<path d="M98.53 65.12C93.58 67.29 80.61 74.26 79.2 74.7C79.13 74.7 79.09 74.7 79.08 74.7C78.82 74.52 72.6 69.41 69.03 66.7L78.21 70.23L97.31 60.13V64.26L98.53 65.12Z" fill="#70411E"/>
<path d="M97.35 54.13V60.13L78.25 70.23L69 66.71L70.07 61.18L71.88 63.37H83.18L97.35 54.13Z" fill="#622F13"/>
<path d="M98.11 44.63L98.66 44.04L98.11 44.63L97.35 54.13L83.19 63.35L91.78 51.35C94.3652 47.7562 96.5798 43.91 98.39 39.87C98.54 39.49 98.11 44.45 98.11 44.63Z" fill="#471E12"/>
<path d="M91.72 51.42L83.19 63.35H71.89L70.08 61.16L67.8 55.26L65.45 48.68L62.91 42.1L64.21 42.17L66.05 48.52L68.63 55.01L72.31 61.73H83.14L91.72 51.42Z" fill="#78421B"/>
<path d="M103.1 28.11L105.24 38.06L98.11 44.63C98.11 44.45 98.54 39.49 98.39 39.84C99.8745 36.0747 100.86 32.1311 101.32 28.11H103.1Z" fill="#70411E"/>
<path d="M102.71 13.27L101.54 28L92.54 23.73L93.14 13.73L88.8 14.44L77.22 18L64.59 13.41L63.35 24.61L63.76 8.92999C63.76 8.92999 74.69 11.33 74.94 11.33C75.19 11.33 92.02 9.75 92.39 9.63C92.76 9.51 97.72 7.53999 98 7.25999L102.71 13.27Z" fill="#22201F"/>
<path d="M88.85 14.49L86.29 23.3C86.29 23.3 75.16 28.47 74.98 28.6C74.8 28.73 66.76 24.28 66.39 24.16C66.02 24.04 64.59 13.36 64.59 13.36L76.72 17.76L88.85 14.49Z" fill="#A6662F"/>
<path d="M101.55 28.11L97.75 30.14L92.82 31.63L90.06 28.26L87.75 25.45L92.59 23.75L101.54 28.02H101.52L101.55 28.11Z" fill="#FDE34F"/>
<path d="M98.07 30C98.07 30 93.38 38.88 91.97 41.64L91.72 42.11L91.56 42.4V42.45L78.56 42.67C78.27 42.67 73.56 44.89 73.56 44.89L71.19 42.48L64.65 42.22L62.96 42.15L64.91 37.76L71.78 39.48L73.15 32.67L63.95 28.48L63.13 24.97L63.4 24.61L74.71 30.83L87.94 25.45L90.14 28.14L76.72 33L77.88 39.45C78.16 39.45 90.27 38.96 90.47 38.89C90.67 38.82 92.85 31.48 92.85 31.48L98.07 30Z" fill="#FDE34F"/>
<path d="M73.1 32.62L71.73 39.43L71.2 32.94L63.9 28.43L73.1 32.62Z" fill="#572D83"/>
<path d="M64.86 37.71L62.91 42.1L60.65 33.17V28.11L63.08 24.92L63.9 28.43L62.15 31.92L63.76 37.44L64.86 37.71Z" fill="#FDE34F"/>
<path d="M90.09 28.09L79.91 32.75L77.88 39.43L76.72 32.98L90.09 28.09Z" fill="#572D83"/>
<path d="M101.55 28.11C101.31 28.46 101.03 34.11 98.63 39.82L98.52 40.08C96.37 45.14 92.4 50.17 91.85 51.32C91.85 51.32 91.85 51.47 91.78 51.51C91.7614 51.5463 91.7339 51.5773 91.7 51.6L91.48 42.38C91.48 42.33 91.57 42.23 91.64 42.09L91.89 41.62C93.39 38.86 98 30 98 30L101.18 28.26L101.47 28.16L101.55 28.11Z" fill="#FDE34F"/>
<path d="M123.76 103.52L117.62 117.73C117.62 117.73 103.07 126.23 102.72 126.59C102.37 126.95 75.29 121.17 75.29 121.17L77.08 98.28L85.22 82.47L77.17 87.36C77.17 87.36 69.8 83.57 69.17 82.92L74.65 99.31L71 121.65L47.74 128L35 119.14L47.09 134.46L63.54 128.46L49.63 141.51L53.85 177.88C53.85 177.88 61.57 196.61 62.03 196.88C62.49 197.15 86.82 196.88 86.82 196.88L104.11 171.63L114.43 166.07C114.43 165.95 114.43 165.89 114.43 165.89L114.71 165.13V165.08L127.07 124.63L123.76 103.52ZM92.7 154L92.84 155.65L94.84 180.3L91.67 185H91.4L73.68 187.12V129.89L96.28 140.56L92.7 154ZM80.28 128.57C80.28 128.57 104.9 133.13 105.57 132.96C106.24 132.79 126 117 126.66 116.53L107.58 140.53L80.28 128.57Z" fill="#E7C053"/>
<path d="M126.66 116.53L107.58 140.53L80.28 128.53C80.28 128.53 104.9 133.09 105.57 132.92C106.24 132.75 126 117 126.66 116.53Z" fill="#827140"/>
<path d="M74.69 99.31L71 121.65L47.74 127.95L34.98 119.14L34.14 102.7L49.25 84.04L74.69 99.31Z" fill="#F3EB50"/>
<path d="M49.25 84L31.31 99.27L26.9 94.01L33.61 78.85L45.21 77.98L45.74 77.74C47 79.72 49.25 84 49.25 84Z" fill="#F4A54B"/>
<path d="M25.61 118.67L25.66 118.53L26.9 94.05L31.31 99.31L34.98 119.14L25.61 118.67Z" fill="#E7C053"/>
<path d="M53.07 200.9L65.39 226L64.25 224.21L63.78 223.47L63.52 223.07L62.96 222.18L62.34 221.18L62.01 220.66L61 219L59.87 217.22L59 216L58.19 214.73L57.78 214.08L56.98 212.82L55.64 210.72L54.86 209.48L54.04 208.18C50.38 202.4 47.24 197.37 47.18 197.12L50.58 176.52C50.58 176.52 44.39 138.32 44.58 134.85C43.68 137.28 34.94 157.37 34.22 158.79L18.77 150.98L32.87 138.61L35 119.14L47.09 134.46L63.54 128.46L49.63 141.51L53.85 177.88L53.07 200.9Z" fill="#827140"/>
<path d="M18.82 150.94L17.62 178.42L7.22 212.86L1.19 209.42L12.42 163.13L18.82 150.94Z" fill="#F3EB50"/>
<path d="M34.23 158.86L32.54 172.55L12.96 213.12L7.22 212.86L17.62 178.42L34.23 158.86Z" fill="#827140"/>
<path d="M11.96 228.32L4.01001 241.37L0.76001 227.5L1.19 209.42L7.22 212.86L11.96 228.32Z" fill="#874A20"/>
<path d="M19.61 225.02L11.96 228.32L7.22 212.86L12.96 213.12L19.49 224.67L19.61 225.02Z" fill="#A76931"/>
<path d="M22.97 234.91L20.37 237.53L11.96 228.32L19.61 225.02L22.97 234.91Z" fill="#804A1F"/>
<path d="M20.37 237.53L18.26 241.5L17.53 242.87L4.03 241.45L4.01001 241.37L11.96 228.32L20.37 237.53Z" fill="#471914"/>
<path d="M119 190.54L96.29 211.21L86.55 226C86.05 225.33 108.08 193.66 107.55 193.16C107.02 192.66 104.06 171.71 104.06 171.71L114.38 166.15C114.61 168.27 118.84 189.21 118.84 190.04C118.883 190.21 118.936 190.377 119 190.54Z" fill="#827140"/>
<path d="M65.39 226L55.77 281.7L40.6 264.79L47.21 197.09C47.36 197.68 64.83 225.09 65.38 225.96L65.39 226Z" fill="#F3EB50"/>
<path d="M131.66 247.49L135 304C135 304 125.87 315.07 122.43 320C124.93 314.42 130.12 300.45 130.12 300.19C130.12 299.93 117.34 283.19 115.94 279.71C116.03 279.3 116.03 279.08 115.94 279.1C115.85 279.12 115.82 279.34 115.94 279.71C114.94 283.85 103.88 307.86 102.94 309.8L102.88 309.93C95.69 285.36 86 252.57 86 252.57L80.71 289C80.71 289 75.45 314.47 75.4 315C73.9997 316.478 72.3971 317.751 70.64 318.78C66.07 321.66 60.56 325.14 60.12 325.43C59.35 325.94 70.31 304.54 70.31 304.54L55.77 281.68L65.4 226C65.4 226 86.56 226.66 86.56 226L115.93 277.78L131.66 247.49Z" fill="#827140"/>
<path d="M55.77 281.68L50.03 314.26L40.6 264.79L55.77 281.68Z" fill="#827140"/>
<path d="M73.69 337.35L61.9 351.67L46.33 327.33L49.55 315.92L49.81 315.02L50.03 314.26L55.77 281.68L70.31 304.54C70.31 304.54 59.31 325.94 60.12 325.43L75.4 315C75.62 314.35 73.69 337.35 73.69 337.35Z" fill="#FDC050"/>
<path d="M80.01 374.18L61.9 351.67L73.69 337.35L80.01 374.18Z" fill="#F4A54B"/>
<path d="M80.01 374.18L63.74 444.14L61.9 351.67L80.01 374.18Z" fill="#E7C053"/>
<path d="M52.31 418.94C52.31 418.94 50.08 357.94 49.86 357.28C49.64 356.62 46.33 327.99 46.33 327.33L61.9 351.67L63.74 444.14L52.31 418.94Z" fill="#827140"/>
<path d="M64.61 467.24L27.78 469C27.78 469 18.84 472 17.97 471.83C17.1 471.66 2.70999 469.44 2.70999 469.44L3.57999 463.99L22.64 464.81L40.21 465.57L57 461.87C57 461.87 64.16 460.03 64.38 460.09C64.51 464.07 64.61 467.24 64.61 467.24Z" fill="#827140"/>
<path d="M64.38 460.07C64.16 460.01 57 461.85 57 461.85L48.58 440.63L52.31 418.72L63.74 443.92C63.85 443.92 64.17 453.22 64.38 460.07Z" fill="#F3EB50"/>
<path d="M57 461.85L40.21 465.77L22.64 465.01L12.32 460.07L38.6 449.68L57 461.85Z" fill="#E7C053"/>
<path d="M22.64 465.01L3.57999 463.97L12.31 460.07H12.32L22.64 465.01Z" fill="#F4A54B"/>
<path d="M131.65 247.49L115.93 277.78C115.3 277.16 122.39 211.43 122.39 211.43C127.08 227.06 131.65 247.49 131.65 247.49Z" fill="#FDC050"/>
<path d="M135 304C135 304 134.11 305.08 132.78 306.72L131.97 307.72C131.36 308.47 130.7 309.29 129.97 310.16C129.71 310.48 129.44 310.81 129.18 311.16C128.92 311.51 128.66 311.8 128.41 312.16L127.41 313.38C126.51 314.52 125.62 315.67 124.8 316.73L123.99 317.8C123.962 317.847 123.929 317.891 123.89 317.93C123.49 318.46 123.13 318.93 122.79 319.42L122.45 319.9C122.417 319.938 122.387 319.978 122.36 320.02L122.42 319.89C122.89 318.83 123.42 317.48 124.06 316L124.62 314.61L124.68 314.47C125.08 313.47 125.49 312.42 125.89 311.37C126.02 311.05 126.14 310.74 126.26 310.43C126.56 309.65 126.86 308.88 127.14 308.12C127.42 307.36 127.64 306.81 127.87 306.2C128.1 305.59 128.24 305.2 128.4 304.78C128.56 304.36 128.67 304.08 128.79 303.78C128.91 303.48 128.99 303.22 129.09 302.96C129.68 301.36 130.09 300.31 130.09 300.24C130.09 300.01 117.31 283.24 115.91 279.76C115.91 279.84 115.91 279.93 115.84 280.02C115.827 280.084 115.81 280.148 115.79 280.21C115.79 280.29 115.74 280.38 115.71 280.47C115.68 280.56 115.59 280.85 115.51 281.07L115.39 281.41C115.39 281.53 115.3 281.65 115.26 281.78C115.22 281.91 115.16 282.03 115.12 282.16C115.08 282.29 115.01 282.43 114.96 282.57L114.67 283.33L114.55 283.61C114.5 283.75 114.44 283.9 114.38 284.04C114.14 284.65 113.88 285.29 113.6 285.97C113.53 286.14 113.46 286.31 113.38 286.48C113.3 286.65 113.27 286.74 113.21 286.88C113.15 287.02 113.05 287.27 112.96 287.47C112.58 288.36 112.19 289.3 111.77 290.25C111.64 290.57 111.5 290.89 111.36 291.25C111.22 291.57 111.08 291.9 110.93 292.25L109.62 295.25L108.86 296.97L108.02 298.84L107.2 300.65L106.49 302.23L106 303.2L104.42 306.67L104.08 307.39L103.88 307.83C103.83 307.95 103.77 308.06 103.72 308.17L103.62 308.39C103.48 308.69 103.36 308.94 103.27 309.15L103.14 309.44L103.04 309.65V309.76L102.98 309.89L118.2 327.12L121.2 348.88L136.3 334.06L135 304Z" fill="#FDC050"/>
<path d="M136.32 420.86L116.76 381.95C116.76 381.95 116.76 381.54 116.66 380.81C116.72 379.55 121.16 356.64 121.16 356.64L110.59 336.3C110.59 336.05 107.19 324.44 103.04 310.11L118.26 327.34L121.16 348.98L152.4 417.38L156.4 448.1L136.32 420.86Z" fill="#827140"/>
<path d="M121.16 356.6C121.16 356.6 116.72 379.51 116.66 380.77C116.07 373.77 110.59 336.85 110.59 336.26L121.16 356.6Z" fill="#F4A54B"/>
<path d="M152.4 417.34L121.16 348.94L136.26 334.12L146.91 367.8L152.4 417.34Z" fill="#E7C053"/>
<path d="M161.62 460.4L138.66 452.97L136.73 421.7L136.32 420.86L156.36 448.06L161.62 460.4Z" fill="#F4A54B"/>
<path d="M166.15 471L142 470.6C142 470.6 138.69 460.92 138.69 460.51V453.29V452.97L161.69 460.4L166.15 471Z" fill="#E7C053"/>
<path d="M167.69 474.65L154.18 479H142.18L136.52 472L138.7 460.88V460.47C138.7 460.88 142.01 470.56 142.01 470.56L166.14 471L167.69 474.65Z" fill="#827140"/>
<path d="M153.58 154.55C153.58 154.55 147.45 159.65 143.25 163C142.25 161.77 136.76 152.18 135.25 150.77C137.68 151.76 152.5 154.43 153.58 154.55Z" fill="#827140"/>
<path d="M154.65 218.15L144.75 181L143.39 163.17L143.25 162.98C147.45 159.63 153.58 154.53 153.58 154.53L154.65 218.15Z" fill="#F3EB50"/>
<path d="M165.77 167.43L154.65 218.15L153.58 154.55L165.77 167.43Z" fill="#E7C053"/>
<path d="M105.7 70L85.22 82.45L77.17 87.34C77.17 87.34 69.8 83.55 69.17 82.9V82.81C69.42 82.64 66.48 75.64 64.29 71.26L67.03 68.61L67.43 68.23C67.7 67.99 67.94 67.76 68.16 67.55C68.6 67.14 68.91 66.82 68.99 66.72C72.56 69.44 78.78 74.55 79.04 74.72C79.04 74.72 79.09 74.72 79.16 74.72C80.49 74.19 92.57 66.28 97.24 64.29L98.49 65.14L105.7 70Z" fill="#827140"/>
<path d="M74.69 99.31L49.25 84.04L69.18 82.83L69.21 82.92L74.69 99.31Z" fill="#F3EB50"/>
<path d="M34.14 102.7L34.98 119.14L31.31 99.31L49.25 84.04L34.14 102.7Z" fill="#827140"/>
<path d="M32.93 138.57L18.82 150.94L20.73 131.83L25.61 118.67L34.98 119.14L32.93 138.57Z" fill="#F3EB50"/>
<path d="M34.28 158.75V158.85L17.67 178.42L18.87 150.94L34.28 158.75Z" fill="#E7C053"/>
<path d="M18.26 241.5L7.22 239.08L10.24 235.43L20.37 237.53L18.26 241.5Z" fill="#804A1F"/>
<path d="M109.91 84.04L77.08 98.28L85.22 82.47L109.91 84.04Z" fill="#F3EB50"/>
<path d="M123.76 103.52L117.62 117.73C117.62 117.73 103.07 126.24 102.72 126.6C102.37 126.96 75.29 121.17 75.29 121.17L77.08 98.28L109.91 84L123.76 103.52Z" fill="#F3EB50"/>
<path d="M148.73 238.49L148.25 242.9L142.95 244.05L148.73 238.49Z" fill="#4B1D11"/>
<path d="M92.7 153.97L94.85 180.28L91.67 184.99L73.68 187.14V129.89L96.28 140.56L92.7 153.97Z" fill="#F3EB50"/>
<path d="M115.93 277.78L86.56 226L96.29 211.23L119 190.54C119.55 192.62 120.87 200.87 122.4 211.43C122.39 211.43 115.3 277.16 115.93 277.78Z" fill="#F3EB50"/>
<path d="M86.55 226C86.55 226.64 65.38 226 65.38 226L53.07 200.9L53.83 177.9C53.83 177.9 61.55 196.63 62.01 196.9C62.47 197.17 86.8 196.9 86.8 196.9L104.09 171.65C104.09 171.65 107.09 192.6 107.58 193.1C108.07 193.6 86.05 225.31 86.55 226Z" fill="#E7C053"/>
<path d="M93.19 13.78L92.59 23.78L87.89 25.43L74.66 30.81L63.35 24.59L64.59 13.39C64.59 13.39 66.03 24.07 66.39 24.19C66.75 24.31 74.79 28.75 74.98 28.63C75.17 28.51 86.29 23.33 86.29 23.33L88.85 14.52L93.19 13.78Z" fill="#83491F"/>
<path d="M84.84 49.79L82.36 50.34L70.92 50.08C70.92 50.08 69.72 49.71 69.67 49.71L71.29 48.54C71.29 48.54 80.1 48.48 80.41 48.54C80.72 48.6 84.84 49.79 84.84 49.79Z" fill="#8F5729"/>
<path d="M81.2 52.18C81.2 52.18 79.11 54.67 78.87 54.59C78.63 54.51 73.25 54.59 73.25 54.59L71.73 52.18H81.2Z" fill="#8F5729"/>
<path d="M92.85 31.46C92.85 31.46 90.67 38.8 90.47 38.87C90.27 38.94 78.16 39.43 77.88 39.43L79.88 32.75L90.06 28.09L92.85 31.46Z" fill="#FFFDFD" stroke="#231F20" stroke-linejoin="round"/>
<path d="M71.73 39.43L64.86 37.71L63.76 37.44L62.15 31.92L63.9 28.43L71.2 32.94L71.73 39.43Z" fill="#FFFDFD" stroke="#231F20" stroke-linejoin="round"/>
<path d="M78.22 42.7L91 44L91.7 51.61L91.5 42.44L78.5 42.66L78.22 42.7Z" fill="#6A3F26"/>
<path d="M102.71 13.27L90.09 12.34L75 14.73L64.88 12.07L63.78 8.88L65.18 6.34L85.86 8.73L97.6 4.17L102.71 13.27Z" fill="#22201F"/>
<path d="M75.26 27.98L76.72 25.42V27.2L75.26 27.98Z" fill="#A46A33"/>
<path d="M68.17 67.57C67.95 67.78 67.71 68.01 67.44 68.25L69 66.72C68.92 66.84 68.61 67.16 68.17 67.57Z" fill="#643090"/>
<path d="M69.18 82.83L49.25 84C49.25 84 47.53 80.72 46.25 78.58C46.06 78.26 45.88 77.97 45.72 77.72L49.1 75.72L49.23 75.64V75.7C52.54 75.31 59.82 74.7 59.82 74.7C61.4006 73.6806 62.8925 72.5298 64.28 71.26C66.49 75.66 69.43 82.66 69.18 82.83Z" fill="#E7C053"/>
<path d="M49.25 75.69V78.58H46.25L33.59 78.83L47.56 76L49.25 75.69Z" fill="#827140"/>
<path d="M92.7 153.97L73.68 150.61L72.41 154.95L92.83 155.63L94.66 154.61L92.7 153.97Z" fill="#E7C053"/>
<path d="M53.07 200.9L65.39 226L64.25 224.21L63.78 223.47L63.52 223.07L62.96 222.18L62.34 221.18L62.01 220.66L61 219L59.87 217.22L59 216L58.19 214.73L57.78 214.08L56.98 212.82L55.64 210.72L54.86 209.48L54.04 208.18C50.38 202.4 47.24 197.37 47.18 197.12L50.58 176.52C50.58 176.52 44.39 138.32 44.58 134.85L35 119.14L47.09 134.46L63.54 128.46L49.63 141.51L53.85 177.88L53.07 200.9Z" fill="#827140"/>
<path d="M97.58 4.17V8.88L74.88 13.36L63.76 8.88L65.16 6.34C66.53 3.85 68.44 0.339996 68.5 0.229996C68.5 0.569996 75.61 4.97 75.61 4.97L79.44 2.53999L82.64 4.17H97.58Z" fill="#22201F"/>
<path d="M93.19 13.78C93.19 13.78 97.33 11.55 97.29 11.71C97.25 11.87 95.72 25.09 95.72 25.09L92.59 23.75L93.19 13.78Z" fill="#3E383E"/>
<path d="M102.11 30.34L104.25 37.71L101.26 41.15L102.11 30.34Z" fill="#5C3412"/>
<path d="M101.26 41.15L99.4 40.99L102.11 30.34L103.69 35.75L101.26 41.15Z" fill="#5C3412"/>
<path d="M76.72 17.15C76.72 16.96 66.72 9.63 66.72 9.63C66.72 9.63 68.36 0.990003 68.54 1.24C68.72 1.49 74.8 8.69 74.8 8.69L76.72 17.15Z" fill="#3E383E"/>
<path d="M62.91 42.1L70.91 43.31C70.91 43.31 73.62 45 73.46 44.84L71.09 42.43L62.91 42.1Z" fill="#6A3F26"/>
<path d="M124.54 75.72L109.91 84.04L85.22 82.47L105.7 70.02L106.95 70.87L124.54 75.72Z" fill="#E7C053"/>
<path d="M123.76 103.52L123.7 124.74L114.41 166.13L127.69 124.25L123.76 103.52Z" fill="#F4A54B"/>
<path d="M71.08 137.23C71.42 138.08 70.4 149.53 70.4 149.53L59.19 150.26L61.56 139.42L71.08 137.23Z" fill="#F3EB50"/>
<path d="M103 309.76L102.94 309.89C95.69 285.36 86 252.57 86 252.57L80.71 289C80.71 289 75.45 314.47 75.4 315C73.9997 316.478 72.3971 317.751 70.64 318.78L76.85 298.57L85 249.36L77.81 246L74.76 237.51L81.23 242.9H89.15C89.15 242.9 90.94 251.21 91.4 252.05C91.86 252.89 102.1 305.26 103 309.76Z" fill="#F4A54B"/>
<path d="M38.6 449.68L48.6 440.68C48.6 440.68 57.6 462.68 57.03 462.12C56.46 461.56 38.6 449.68 38.6 449.68Z" fill="#F4A54B"/>
<path d="M164.39 218.78V219.22L154.7 218.15L167.6 189.8V189.94C167.74 192.55 164.39 218.78 164.39 218.78Z" fill="#827140"/>
<path d="M72.31 61.73C72.44 61.59 74.2 58.63 74.2 58.63L79.36 58.36L83.14 61.73L75.93 62.73L72.31 61.73Z" fill="#78421B"/>
<path d="M152.17 104.73V104.8L142.51 121.5L128 113L130 97.8L141.47 80.33H141.79L152.17 104.73Z" fill="#E7C053"/>
<path d="M135.73 126.68C135.73 126.68 134.54 149.38 134.92 150.53C134.26 150.46 127.47 125.78 127.47 125.78L121.84 104.92L110.21 84L130.05 97.67L128.38 112.83L142.51 121.46L135.73 126.68Z" fill="#827140"/>
<path d="M165.78 167.43L153.58 154.55L142.51 121.5L152.25 104.59C152.16 105.66 155.06 119.59 155.2 120.25C155.34 120.91 155.83 133.86 155.83 133.86C155.83 133.86 156.51 153.46 156.58 152.8C156.65 152.14 165.78 167.43 165.78 167.43Z" fill="#827140"/>
<path d="M153.58 154.55C152.5 154.43 137.68 151.76 135.25 150.77C135.162 150.668 135.053 150.586 134.93 150.53C134.55 149.38 135.74 126.68 135.74 126.68L142.52 121.5L153.58 154.55Z" fill="#F3EB50"/>
<path d="M47.57 76L49.25 75.74V75.8H49.12L47.56 75.99L47.57 76Z" fill="#662F8E"/>
</svg>
