<svg width="193" height="489" viewBox="0 0 193 489" fill="none" xmlns="http://www.w3.org/2000/svg">
<path d="M89.0001 47.78C89.9042 48.4662 90.5606 49.4279 90.8701 50.52C90.9741 51.2807 90.8229 52.0544 90.4401 52.72C90.0621 53.3843 89.5943 53.9933 89.0501 54.53C86.2701 57.43 82.6701 59.78 78.6501 60.22C77.9158 60.3322 77.1661 60.2879 76.4501 60.09C75.6648 59.8059 74.9729 59.3111 74.4501 58.66C74.0119 58.1416 73.6515 57.5622 73.3801 56.94C73.2332 56.5646 73.0594 56.2003 72.8601 55.85C72.2001 54.85 70.8601 54.28 70.2501 53.22C69.7477 52.1132 69.6349 50.869 69.9301 49.69C69.9275 49.5444 69.9692 49.4015 70.0495 49.2801C70.1299 49.1587 70.2451 49.0645 70.3801 49.01C72.9432 47.7806 75.7864 47.2526 78.6201 47.48C81.4441 47.7047 84.2783 47.7748 87.1101 47.69C88.0601 47.61 89.2001 47.52 89.8101 48.25" fill="#C68651"/>
<path d="M95.79 43.5501L82.41 43.7801C82.11 43.7801 77.23 46.0501 77.23 46.0501L74.78 43.5901L64.78 43.3201L66.12 49.7901L68.61 56.4101L75.03 63.2601H87.15L99 53.0001L95.79 43.5501ZM82.74 56.0001C82.49 55.9201 76.95 56.0001 76.95 56.0001L75.38 53.5501H85.14C85.14 53.5501 83 56.0601 82.74 56.0001ZM73.26 51.0001L74.93 49.8101C74.93 49.8101 84.01 49.7501 84.33 49.8101L88.9 51.0901L73.26 51.0001Z" fill="#C68650"/>
<path d="M71.8901 0.560059L78.5501 2.41006L86.4601 0.560059L101.86 4.58006L88.2501 7.94006L75.8201 7.25006L71.8901 0.560059Z" fill="#3E383E"/>
<path d="M189.34 216.49V216.94H174.23L186.39 162.33C186.39 162.33 191.66 185.52 192.11 186.18V186.33C192.62 189 189.34 216.49 189.34 216.49Z" fill="#3A3B44"/>
<path d="M183.99 216.94L178.79 244.49L173.64 230.71L167.67 228.73L167.82 228.27L174.23 216.94H183.99Z" fill="#C38750"/>
<path d="M178.79 244.49L168.49 247.94L166.17 244.49L171.47 242.74V238.21L166.17 244.49L163.78 240.93L167.67 228.73L173.64 230.71L178.79 244.49Z" fill="#A56933"/>
<path d="M191.4 243.38L186.69 247.94H168.49L178.79 244.49L191.4 243.38Z" fill="#6F3E2A"/>
<path d="M189.33 216.94L191.4 243.38L178.79 244.49L183.99 216.94H189.33Z" fill="#A56933"/>
<path d="M167.93 99.75V99.82L151.88 120.35L136.43 113.19V97.64L154.92 80L155.25 80.05L167.93 99.75Z" fill="#689DD4"/>
<path d="M154.92 79.9799L136.43 97.64L114.56 86.0099L129.64 75.9299L129.87 76.0299L154.92 79.9799Z" fill="#7DD1F0"/>
<path d="M105 66.5799C99.9999 68.7099 83.1199 76.7199 82.8199 76.5099C82.5199 76.2999 75.13 70.9299 71.45 68.1499L81.92 71.9399L105.64 61.6499L105.7 65.4999L105 66.5799Z" fill="#996B4A"/>
<path d="M105 55.51L105.6 61.64L81.8999 71.94L71.4299 68.15L72.5799 62.69L74.45 64.92H86.9999L105 55.51Z" fill="#8A562C"/>
<path d="M103.5 45.83L104.06 45.23L103.5 45.83L105.02 55.51L87.02 64.91L98.88 53C99.8008 48.8974 101.076 44.8823 102.69 41C102.85 40.59 103.5 45.64 103.5 45.83Z" fill="#6A3F26"/>
<path d="M98.8799 53L86.9999 64.91H74.3999L72.5299 62.68L68.1899 56.68L65.9999 50L63.9399 43.29L65.2899 43.36C65.2399 43.36 66.6299 49.83 66.6299 49.83L69.1099 56.45L74.8999 63.3H86.9999L98.8799 53Z" fill="#9C6636"/>
<path d="M109.75 29V39.14L103.5 45.84C103.5 45.65 102.85 40.6 102.69 40.95C105.25 34.95 107.82 29 107.92 29H109.75Z" fill="#A16938"/>
<path d="M108.17 13.8599L108.03 28.8599L97.7501 24.5099L98.36 14.3499L93.8901 15.0699L80.8901 18.5899L67.8901 13.9199L65.8101 25.3399L67.0401 9.33989C67.0401 9.33989 78.3001 11.7899 78.5601 11.7899C78.8201 11.7899 96.1601 10.1799 96.5601 10.0499C96.9601 9.9199 102.05 7.91989 102.34 7.63989L108.17 13.8599Z" fill="#22201F"/>
<path d="M93.8899 15.1L91.2499 24.1C91.2499 24.1 78.7599 29.38 78.5699 29.51C78.3799 29.64 70.0999 25.1 69.7199 24.98C69.3399 24.86 67.8599 13.98 67.8599 13.98L80.3599 18.47L93.8899 15.1Z" fill="#C68650"/>
<path d="M108.16 28.9901L102.04 31.05L96.96 32.5701L94.12 29.14L91.73 26.2701L97.75 24.54L107.99 28.89L108.16 28.9901Z" fill="#689DD4"/>
<path d="M102.36 30.8601C102.36 30.8601 97.5299 39.9201 96.0799 42.7301C95.9699 42.9201 95.8899 43.0801 95.8199 43.2101C95.7683 43.3097 95.7115 43.4064 95.6499 43.5001V43.5501L82.2799 43.7801C81.9799 43.7801 77.0899 46.0501 77.0899 46.0501L74.6399 43.5901L65.6399 43.3201L63.8999 43.2501L68.1399 38.7701L75.2199 40.5301L76.6299 33.5801L67.1499 29.3101L65.4999 25.7301L65.7799 25.3701L78.2399 31.7101L91.8699 26.2201L94.1399 28.9701L80.3599 33.9701L81.5599 40.5501C81.8499 40.5501 94.3199 40.0501 94.5599 39.9801C94.7999 39.9101 96.9999 32.4001 96.9999 32.4001L102.36 30.8601Z" fill="#7DD1F0"/>
<path d="M76.6299 33.5801L75.2199 40.5301L74.6699 33.9101L67.1499 29.3101L76.6299 33.5801Z" fill="#689DD4"/>
<path d="M68.14 38.77L63.9 43.25L63.01 34.15V28.99L65.5 25.73L67.15 29.31L65.35 32.87L67.01 38.5L68.14 38.77Z" fill="#689DD4"/>
<path d="M94.1399 28.97L83.6499 33.72L81.5599 40.53L80.3599 33.95L94.1399 28.97Z" fill="#689DD4"/>
<path d="M108.16 29C107.91 29.35 105.41 35.13 102.94 40.93L102.83 41.2C100.61 46.36 99.5601 51.56 99.0001 52.74C99.0001 52.74 98.9501 52.89 98.9301 52.93C98.9087 52.9675 98.8776 52.9986 98.8401 53.02L95.5701 43.55V43.49C95.6355 43.3987 95.6924 43.3016 95.7401 43.2C95.8101 43.07 95.8901 42.91 96.0001 42.72C97.5201 39.92 102.28 30.85 102.28 30.85L107.77 29.08L108.06 28.98L108.16 29Z" fill="#4B5680"/>
<path d="M99 184.12L95.73 188.93L77.19 191.12V132.75L100.48 143.63L96.79 157.3L99 184.12ZM84 131.37C84 131.37 109.37 136.02 110.06 135.85C110.75 135.68 131.16 119.63 131.79 119.13L112.13 143.63L84 131.37ZM139.3 134.22L128.81 105.87L122.48 120.35C122.48 120.35 107.48 129.02 107.13 129.35C106.78 129.68 78.55 125.35 78.55 125.35L80 99.4999L89.14 84.4099L80.85 89.4099C80.85 89.4099 73.26 85.5499 72.65 84.8799L78.45 100.34L74.34 125.62L50.52 133.28L33.52 122.17L49.85 137.43L66.8 131.34L52.47 144.65L54.84 179.76C54.84 179.76 64.77 200.82 65.25 201.13C65.73 201.44 90.79 201.13 90.79 201.13L108.61 175.39L126.61 168.08C126.61 167.95 126.61 167.89 126.61 167.89L127.14 166.47L139.3 134.22Z" fill="#689DD4"/>
<path d="M131.82 119.13L112.16 143.63L84 131.37C84 131.37 109.37 136.02 110.06 135.85C110.75 135.68 131.19 119.63 131.82 119.13Z" fill="#6767AE"/>
<path d="M78.42 100.32L74.31 125.6L50.5 133.26L33.48 122.15L36.48 105.03L50.45 86.01L78.42 100.32Z" fill="#7DD1F0"/>
<path d="M50.4501 86.0001L31.2101 101.56L17.0601 95.1901L31.2101 80.0901L47.8901 79.8601L48.4401 79.6101C49.7201 81.6001 50.4501 86.0001 50.4501 86.0001Z" fill="#7DD1F0"/>
<path d="M19.7301 121.38L19.7801 121.24L17.0601 95.2L31.2101 101.57L33.4801 122.15L19.7301 121.38Z" fill="#689DD4"/>
<path d="M53.4699 205.15L66.1699 230.69L64.9999 228.87L64.5199 228.12L64.2499 227.71L63.6699 226.8L63.0299 225.8L62.6899 225.27L61.6099 223.59L60.4499 221.77L59.6299 220.5L58.7999 219.21L58.3799 218.54L57.5499 217.26L56.1699 215.12L55.3699 213.85L54.5199 212.53C50.7499 206.63 40.8899 201.81 40.8299 201.53L49.8899 179C49.8899 179 47.6199 144.78 47.8299 141.24C47.5499 142.01 46.5099 144.17 45.2099 146.84C45.1099 147.41 43.6999 155.53 43.5599 155.84C43.4199 156.15 38.1299 162.44 38.1299 162.44L15.1299 152.11L38.3699 143.62L33.4599 122.14L49.7899 137.4L66.7399 131.31L52.4099 144.62L54.7799 179.73L53.4699 205.15Z" fill="#3A3B44"/>
<path d="M15.1501 152.12L19.4601 182.23L8.74011 217.34L1.14014 213.83L6.99011 163.19L15.1501 152.12Z" fill="#7DD1F0"/>
<path d="M38.07 162.55L37.35 176.24L15.58 217.61L8.73999 217.34L19.46 182.23L38.07 162.55Z" fill="#3A3B44"/>
<path d="M13.63 233.1L4.07996 246.41L0.72998 232.26L1.13998 213.83L8.73996 217.34L13.63 233.1Z" fill="#A86A32"/>
<path d="M22.42 229.74L13.63 233.1L8.73999 217.34L15.58 217.61L22.3 229.38L22.42 229.74Z" fill="#C58852"/>
<path d="M25.8799 239.82L22.2999 242.49L13.6299 233.1L22.4199 229.74L25.8799 239.82Z" fill="#A16B31"/>
<path d="M22.3001 242.49L20.1201 246.54L19.3701 247.94L4.1001 246.49L4.08008 246.41L13.6301 233.1L22.3001 242.49Z" fill="#6E3D2F"/>
<path d="M129.13 192.18L100.52 215.66L90.5199 230.72C90.0099 230.03 112.71 197.72 112.19 197.23C111.67 196.74 108.6 175.37 108.6 175.37L126.6 168.06C126.83 170.22 129.05 190.8 129.05 191.65C129.066 191.828 129.093 192.005 129.13 192.18V192.18Z" fill="#6767AE"/>
<path d="M66.17 230.72L58.7699 287.5L29.9299 266.93L40.8199 201.57C40.9599 202.17 65.5999 229.82 66.1599 230.69L66.17 230.72Z" fill="#7DD1F0"/>
<path d="M146.12 249.89L140.42 310.26C140.42 310.26 131.01 321.54 127.47 326.53C130.04 320.84 135.39 306.6 135.39 306.33C135.39 306.06 122.22 289 120.78 285.45C120.87 285.03 120.87 284.81 120.78 284.83C120.69 284.85 120.65 285.08 120.78 285.45C119.78 289.67 102.6 316.28 101.68 318.26L101.62 318.39C94.16 293.39 89.9 257.82 89.9 257.82L86.53 294.92C86.53 294.92 80.53 320.81 80.46 321.37L74.1 325.37C69.39 328.3 63.71 331.85 63.26 332.15C62.46 332.67 73.76 310.85 73.76 310.85L58.76 287.54L66.15 230.76C66.15 230.76 90.48 231.43 90.48 230.76L120.75 283.55L146.12 249.89Z" fill="#3A3B44"/>
<path d="M58.7699 287.5L43.0299 321.59L29.9299 266.93L58.7699 287.5Z" fill="#3A3B44"/>
<path d="M80.0001 344.26L65.0801 358.86L40.3401 334.92L42.5301 323.29L42.8001 322.37L43.0201 321.59L58.7601 287.5L73.7601 310.81C73.7601 310.81 62.4601 332.63 63.2601 332.11C64.0601 331.59 80.4501 321.37 80.4501 321.37C80.6801 320.71 80.0001 344.26 80.0001 344.26Z" fill="#689DD4"/>
<path d="M86.5201 381.81L65.0901 358.86L80.0101 344.26L86.5201 381.81Z" fill="#6767AE"/>
<path d="M67.6501 452.65C67.6501 452.65 67.8801 451.11 68.2601 448.51L67.0001 453.13L65.1001 358.86L83.3401 402.31L67.6501 452.65Z" fill="#8193CA"/>
<path d="M49.3001 425.94C49.3001 425.94 49.4701 365.14 49.2401 364.47C49.0101 363.8 40.3501 335.59 40.3501 334.92L65.0901 358.86L66.9901 453.13L49.3001 425.94Z" fill="#3A3B44"/>
<path d="M67.8801 476.68L29.9301 478.45C29.9301 478.45 20.7201 481.56 19.8201 481.34C18.9201 481.12 4.1001 478.9 4.1001 478.9L4.99008 473.35L24.6301 474.18L42.7401 474.96L60.0401 471.19C60.0401 471.19 67.4201 469.31 67.6501 469.37C67.7801 473.45 67.8801 476.68 67.8801 476.68Z" fill="#40403E"/>
<path d="M67.6501 469.37C67.4201 469.31 60.0401 471.19 60.0401 471.19L51.3701 449.55L49.3 425.72L67.0001 452.91C67.1001 452.91 67.4301 462.39 67.6501 469.37Z" fill="#689DD4"/>
<path d="M60.04 471.19L42.74 475.18L24.63 474.41L14 469.37L41.08 458.78L60.04 471.19Z" fill="#7DD1F0"/>
<path d="M24.63 474.41L4.98999 473.35L13.99 469.37H14L24.63 474.41Z" fill="#6767AE"/>
<path d="M146.12 249.89L120.77 283.53C120.12 282.89 137.85 211.05 137.85 211.05C142.69 227 146.12 249.89 146.12 249.89Z" fill="#689DD4"/>
<path d="M140.42 310.26C140.42 310.26 131.01 321.54 127.47 326.53C130.04 320.84 135.39 306.6 135.39 306.33C135.39 306.06 122.22 289 120.78 285.45C119.78 289.86 101.61 318.39 101.61 318.39L123 333.83L126.12 356.07L143.52 339.14L140.42 310.26Z" fill="#689DD4"/>
<path d="M139.1 429.39L116.43 388.48C116.43 388.48 116.43 388.07 116.33 387.32C116.39 386.04 126.16 363.92 126.16 363.92L112 345.35C112 345.09 107.14 333.3 101.7 318.58L123.17 334L126.17 356.06L160.74 425L162.43 457.16L139.1 429.39Z" fill="#3A3B44"/>
<path d="M126.16 363.88C126.16 363.88 116.39 386 116.33 387.28C115.72 380.18 112.04 345.95 112.04 345.35L126.16 363.88Z" fill="#6767AE"/>
<path d="M160.74 424.97L126.16 356.07L143.56 339.14L158.16 375.8L160.74 424.97Z" fill="#8193CA"/>
<path d="M167.85 469.71L144.19 462.13L139.52 430.24L139.1 429.39L162.43 457.13L167.85 469.71Z" fill="#689DD4"/>
<path d="M172.52 480.56L147.65 480.11C147.65 480.11 144.24 470.24 144.24 469.82V462.46L144.19 462.13L167.85 469.71L172.52 480.56Z" fill="#7DD1F0"/>
<path d="M174.1 484.24L160.18 488.68H147.83L142 481.57L144.25 470.24V469.82C144.25 470.24 147.66 480.11 147.66 480.11L172.53 480.56L174.1 484.24Z" fill="#40403E"/>
<path d="M186.39 162.33L167 152.61L151.93 120.35L167.98 99.8201C167.98 100.91 167.77 115.31 167.98 115.95C168.19 116.59 172.36 131.4 172.36 131.4C172.36 131.4 177.86 149.85 177.86 149.18C177.86 148.51 186.39 162.33 186.39 162.33Z" fill="#3A3B44"/>
<path d="M167 152.61C167 152.61 158.86 160.11 154.94 163.97C153.8 162.83 144.87 155.13 143.16 153.88C145.72 154.6 165.83 152.61 167 152.61Z" fill="#40403E"/>
<path d="M174.23 216.94L157.33 184.78L155.06 164.14L154.89 163.97C158.81 160.11 166.95 152.61 166.95 152.61L174.23 216.94Z" fill="#7DD1F0"/>
<path d="M186.39 162.33L174.23 216.94L166.95 152.61L186.39 162.33Z" fill="#689DD4"/>
<path d="M112.92 70.0899L89.12 84.4099L80.83 89.4099C80.83 89.4099 73.23 85.5499 72.62 84.8799V84.7899C72.88 84.6199 69.25 77.3699 67 72.9199C67.21 72.7199 71.33 68.3199 71.42 68.2199C75.1 70.9999 82.52 76.3899 82.79 76.5799C83.06 76.7699 100.61 66.5799 105.65 64.4099L112.92 70.0899Z" fill="#6767AE"/>
<path d="M78.42 100.32L50.45 86.01L72.5899 84.77L72.6199 84.87L78.42 100.32Z" fill="#7DD1F0"/>
<path d="M36.48 105.03L33.48 122.15L31.21 101.57L50.45 86.01L36.48 105.03Z" fill="#3A3B44"/>
<path d="M38.39 143.63L15.1499 152.12L14.9399 133.49L19.7299 121.38L33.4799 122.15L38.39 143.63Z" fill="#7DD1F0"/>
<path d="M38.1199 162.45L38.0699 162.55L19.4599 182.23L15.1499 152.12L38.1199 162.45Z" fill="#689DD4"/>
<path d="M20.1199 246.54L7.37988 244.07L11.8599 240.35L22.2999 242.49" fill="#A16B31"/>
<path d="M114.56 86.0099L79.98 99.4999L89.12 84.4099L114.56 86.0099Z" fill="#7DD1F0"/>
<path d="M128.84 105.87L125 121.14C125 121.14 109.21 131 108.85 131.4C108.49 131.8 78.5801 125.4 78.5801 125.4L80.0001 99.5L114.56 86L128.84 105.87Z" fill="#7DD1F0"/>
<path d="M167 152.61C165.88 152.61 145.77 154.61 143.16 153.88C142.98 153.74 142.87 153.67 142.81 153.67C142.28 152.54 145.58 126.36 145.58 126.36L151.94 120.36L167 152.61Z" fill="#7DD1F0"/>
<path d="M171.47 238.21V242.74L166.17 244.49L171.47 238.21Z" fill="#6E3C1A"/>
<path d="M120.77 283.53L90.5 230.74L100.5 215.68L129.11 192.2C129.68 194.32 134.27 201.84 137.83 211.07C137.85 211.05 120.12 282.89 120.77 283.53Z" fill="#7DD1F0"/>
<path d="M90.49 230.72C90.49 231.37 66.16 230.72 66.16 230.72L53.47 205.18L54.8 179.77C54.8 179.77 64.73 200.83 65.2 201.14C65.67 201.45 90.75 201.14 90.75 201.14L108.57 175.4C108.57 175.4 111.65 196.76 112.16 197.26C112.67 197.76 90 230 90.49 230.72Z" fill="#689DD4"/>
<path d="M98.36 14.38L97.75 24.54L91.87 26.22L78.24 31.71L65.78 25.37L67.86 14C67.86 14 69.35 24.89 69.72 25C70.09 25.11 78.38 29.65 78.57 29.53C78.76 29.41 91.25 24.12 91.25 24.12L93.89 15.12L98.36 14.38Z" fill="#A46B32"/>
<path d="M88.9 51.0899L86.34 51.6499L74.55 51.3799C74.55 51.3799 73.31 50.9999 73.26 50.9999L74.93 49.8099C74.93 49.8099 84.01 49.7499 84.33 49.8099L88.9 51.0899Z" fill="#8F5729"/>
<path d="M85.1399 53.53C85.1399 53.53 82.9899 56.06 82.7399 55.98C82.4899 55.9 76.9499 55.98 76.9499 55.98L75.3799 53.53H85.1399Z" fill="#8F5729"/>
<path d="M97.0001 32.4C97.0001 32.4 94.76 39.88 94.55 39.96C94.34 40.04 81.87 40.53 81.55 40.53L83.6401 33.72L94.1401 29L97.0001 32.4Z" fill="#FFFDFD" stroke="#231F20" stroke-linejoin="round"/>
<path d="M75.2201 40.5301L68.1401 38.7701L67.0101 38.5001L65.3501 32.8701L67.1501 29.3101L74.6701 33.9101L75.2201 40.5301Z" fill="#FFFDFD" stroke="#231F20" stroke-linejoin="round"/>
<path d="M81.9099 43.86L95.1099 45.14L98.8799 52.98L95.6199 43.55L82.2199 43.78" fill="#6A3F26"/>
<path d="M108.18 13.8601L95.18 12.8601L78.58 15.2901L68.15 12.5801L67 9.38008L68.44 6.79007L89.75 9.23007L101.85 4.58008L108.18 13.8601Z" fill="#22201F"/>
<path d="M76 27.6201C76.7681 28.083 77.5628 28.5004 78.38 28.8701C78.1628 27.2259 77.8624 25.5938 77.48 23.9801C77.083 23.6333 76.7212 23.2481 76.4 22.8301L76 27.6201Z" fill="#A46A33"/>
<path d="M78.8701 28.85L80.3601 26.24V28.06L78.8701 28.85Z" fill="#A46A33"/>
<path d="M72.5899 84.7701L50.45 86.0001C49.6548 83.452 48.6514 80.9737 47.45 78.5901L64.7 69.1001L71.3699 68.1001V68.1501C71.2799 68.2501 67.16 72.6501 66.95 72.8501C69.22 77.3501 72.8499 84.6001 72.5899 84.7701Z" fill="#689DD4"/>
<path d="M51.52 76.3799L31.21 80.0799L52.06 80.4399L51.52 76.3799Z" fill="#3A3B44"/>
<path d="M172.31 131.4L166.95 130.75L167.95 115.95C168.16 116.62 172.31 131.4 172.31 131.4Z" fill="#689DD4"/>
<path d="M66.14 230.64L40.86 201.59L40.8 201.53L49.89 179C49.89 179 44.62 145.81 44.84 142.27L33.48 122.15L49.81 137.41L66.76 131.32L52.43 144.63L54.8 179.74L53.47 205.15L66.1 230.58C66.1021 230.592 66.1068 230.604 66.1137 230.614C66.1206 230.624 66.1295 230.633 66.14 230.64V230.64Z" fill="#6767AE"/>
<path d="M96.83 157.3L99.05 184.12L95.77 188.93L95.49 188.96L89.35 197.66L77.23 198.59V132.75L100.52 143.63L96.83 157.3Z" fill="#7DD1F0"/>
<path d="M101.86 4.58006L102.86 9.38007L79.5 14.0001L67 9.38007L68.44 6.79005C69.85 4.25005 71.82 0.730059 71.88 0.560059C71.88 0.910059 79.21 5.39006 79.21 5.39006L83.16 2.92006L86.45 4.58006H101.86Z" fill="#22201F"/>
<path d="M98.36 14.3801C98.36 14.3801 102.63 12.11 102.59 12.26C102.55 12.41 99.94 25.4701 99.94 25.4701L97.75 24.54L98.36 14.3801Z" fill="#3E383E"/>
<path d="M108.73 31.26V38.78L105.65 42.28L108.73 31.26Z" fill="#6A3F26"/>
<path d="M105.65 42.28L103.74 42.12L108.73 31.26L108.16 36.77L105.65 42.28Z" fill="#6A3F26"/>
<path d="M80.36 17.8101C80.36 17.6201 70.01 10.1501 70.01 10.1501C70.01 10.1501 71.71 1.33011 71.89 1.59011C72.07 1.85011 78.35 9.19012 78.35 9.19012L80.36 17.8101Z" fill="#3E383E"/>
<path d="M63.8999 43.25L74.4299 44.48C74.4299 44.48 77.2199 46.21 77.0599 46.05L74.6099 43.59L63.8999 43.25Z" fill="#6A3F26"/>
<path d="M129.64 75.9301L114.56 86.0101L89.1201 84.4101L111.29 71.0701L105.66 64.3401L113.85 67.3801L129.64 75.9301Z" fill="#689DD4"/>
<path d="M129.87 135.09C129.69 135.51 117.06 145.43 117.06 145.43L116.17 151.77L129.87 135.09Z" fill="#6767AE"/>
<path d="M129.13 142.27C129 142.7 118.13 155.33 118.13 155.33L117.8 160.75L129.13 142.27Z" fill="#6767AE"/>
<path d="M127.39 165.63L126.56 168.06L127.07 166.45L127.39 165.63Z" fill="#A02889"/>
<path d="M75.6701 137C76.0901 138.1 74.8201 152.91 74.8201 152.91L60.8201 153.85L63.8201 139.85L75.6701 137Z" fill="#7DD1F0"/>
<path d="M74.19 164.85L73.77 190.53L60.02 186.7L62.39 167.19L74.19 164.85Z" fill="#7DD1F0"/>
<path d="M101.68 318.26L101.62 318.39C94.1601 293.39 90.7501 263.31 90.7501 263.31L86.5301 294.92C86.5301 294.92 80.5301 320.81 80.4601 321.37L74.1001 325.37L80.5001 304.76L88.8801 254.59L81.1501 252.35L77.6601 245.7L83.4401 249.79L90.7601 249.49C90.7601 249.49 95.0201 256.49 95.4901 257.35C95.9601 258.21 100.77 313.67 101.68 318.26Z" fill="#6767AE"/>
<path d="M41.0801 458.78L51.3701 449.55C51.3701 449.55 60.6101 471.99 60.0501 471.41C59.4901 470.83 41.0801 458.78 41.0801 458.78Z" fill="#6767AE"/>
<path d="M189.34 216.49V216.94H174.23L192.11 186.18V186.33C192.62 189 189.34 216.49 189.34 216.49Z" fill="#689DD4"/>
<path d="M74.8599 63.2601C74.9899 63.1201 76.8099 60.1001 76.8099 60.1001L83.0799 59.8201L86.9799 63.2601L79.5599 64.2601L74.8599 63.2601Z" fill="#9C6636"/>
<path d="M140.66 132.75L136.43 148.16L126.56 168.06L127.39 165.63L127.07 166.45L134.13 142.83L135 128.12L128.84 105.87L139.3 125.84L140.66 132.75Z" fill="#29272C"/>
<path d="M86.5301 381.81L83.3301 402.31L65.0901 358.86L86.5301 381.81Z" fill="#6767AE"/>
<path d="M145.52 126.36C145.52 126.36 142.22 152.54 142.75 153.67C142.07 153.67 138.8 124.88 138.8 124.88L125.74 109.14L114.56 86L136.43 97.63V113.18L151.88 120.34L145.52 126.36Z" fill="#3A3B44"/>
<path d="M74.1899 154.84V163.23L62.1799 163.97L67.1099 155.89L74.1899 154.84Z" fill="#7DD1F0"/>
<path d="M104.36 147.2C104.36 147.2 100.6 155.99 101.05 156.43C101.5 156.87 106.32 170.74 106.32 170.74L107.93 156.43L104.36 147.2Z" fill="#6767AE"/>
<path d="M96.8299 157.3L77.2299 153.88L75.9199 158.3L96.9699 158.99L98.8499 157.95L96.8299 157.3Z" fill="#689DD4"/>
<path d="M99.94 171.49C100.26 171.38 100.36 175.37 100.36 175.37L75.75 168.06V163.43C75.75 163.43 99.62 171.59 99.94 171.49Z" fill="#689DD4"/>
</svg>
